<svg width="16" height="16" viewBox="0 0 12 12" xmlns="http://www.w3.org/2000/svg"><path d="M8.558 4.593a4.278 4.278 0 0 1-.421.77 3.048 3.048 0 0 1-.601.668c-.225.183-.46.275-.708.275-.157 0-.324-.045-.5-.135a5.747 5.747 0 0 1-.527-.314 5.35 5.35 0 0 0-.534-.315 1.112 1.112 0 0 0-.505-.134c-.356 0-.687.303-.994.91l-.326-.17c.109-.242.251-.495.427-.757a3.07 3.07 0 0 1 .595-.674c.225-.183.46-.275.708-.275.18 0 .36.045.539.135.183.09.361.194.533.314.176.12.347.225.511.315.165.09.324.134.478.134.168 0 .338-.073.51-.219.173-.146.336-.372.49-.68Z" style="font-style:normal;font-variant:normal;font-weight:400;font-stretch:normal;font-size:11.5px;line-height:0;font-family:'Gentium Book Plus';-inkscape-font-specification:'Gentium Book Plus';font-variant-ligatures:normal;font-variant-caps:normal;font-variant-numeric:normal;font-feature-settings:normal;text-align:start;writing-mode:lr-tb;text-anchor:start;fill:#000006;fill-opacity:1;stroke:none;stroke-width:.15;stroke-linecap:square;stroke-linejoin:bevel;stroke-miterlimit:4;stroke-dasharray:none;stroke-dashoffset:0;stroke-opacity:1;paint-order:markers stroke fill"/></svg>