<?xml version="1.0" encoding="UTF-8" standalone="no"?>
<!--
Representation of "sike mama waso" in sitelen ilo pona
Generated by generate_sitelen_kalama_pona.py

Description:
  Representation of "sike mama waso" in sitelen ilo pona.
  Sources: sike: https://commons.wikimedia.org/wiki/File:Sitelen_seli_kiwen_-_sike.svg; mama: https://commons.wikimedia.org/wiki/File:Sitelen_seli_kiwen_-_mama.svg; waso: https://commons.wikimedia.org/wiki/File:Sitelen_seli_kiwen_-_waso.svg

Categories:
  [[Category:Sitelen kalama pona]]
  [[Category:Toki Pona text containing sike mama waso]]

Sources:
  sike: https://commons.wikimedia.org/wiki/File:Sitelen_seli_kiwen_-_sike.svg
  mama: https://commons.wikimedia.org/wiki/File:Sitelen_seli_kiwen_-_mama.svg
  waso: https://commons.wikimedia.org/wiki/File:Sitelen_seli_kiwen_-_waso.svg
-->
<svg version="1.1" width="2747" height="1000"
     viewBox="0 0 2747 1000"
     xmlns="http://www.w3.org/2000/svg">
  <path d="M386 517Q390 517 406.0 525.0Q422 533 434 533Q444 533 461.0 529.0Q478 525 500.5 514.5Q523 504 542.0 489.0Q561 474 574.5 448.0Q588 422 588 391Q588 371 580.0 345.5Q572 320 565 320Q563 320 554.0 304.0Q545 288 542 288Q540 288 533.0 276.0Q526 264 520 264Q516 264 508.0 256.0Q500 248 484.0 240.5Q468 233 444 233Q423 233 403.0 241.5Q383 250 376 250Q358 250 324.0 271.5Q290 293 285 315Q285 316 273.5 343.5Q262 371 262 397Q262 419 270 419Q274 419 274 431Q274 441 286.0 458.0Q298 475 305 475Q311 475 325.0 483.5Q339 492 339.0 495.0Q339 498 359.5 507.5Q380 517 386 517ZM433 475Q420 475 413.5 472.5Q407 470 399 461Q385 447 377 447Q372 447 368.0 443.5Q364 440 356.5 432.5Q349 425 340 419Q329 411 327.5 407.0Q326 403 328 391Q332 367 348.0 347.0Q364 327 381 322Q387 321 404.5 310.5Q422 300 441 300Q472 300 500.0 330.0Q528 360 528 396Q528 425 497.0 450.0Q466 475 433 475ZM478 74Q477 74 462.0 70.0Q447 66 420 66Q394 66 351.5 73.5Q309 81 295 81Q285 81 274.0 87.5Q263 94 205 134Q191 143 182.0 152.0Q173 161 170.5 165.5Q168 170 165.0 172.5Q162 175 157 175Q147 175 147 180Q147 185 140.5 191.5Q134 198 129 198Q124 198 124 212Q124 222 119.0 229.0Q114 236 114 246Q114 259 111 259Q107 259 101.5 271.0Q96 283 98 287Q100 289 94.0 299.0Q88 309 92 314Q97 319 93 325Q90 329 90 400Q90 505 108 527Q112 532 119.0 553.0Q126 574 131 576Q136 578 145.0 592.0Q154 606 159 606Q164 606 178.5 622.5Q193 639 200.0 639.0Q207 639 225.5 653.0Q244 667 249 667Q255 667 271.0 682.5Q287 698 300 698Q312 698 330.0 703.0Q348 708 351 712Q355 717 378.5 726.5Q402 736 403 738Q404 739 409 739Q419 739 475.0 730.5Q531 722 559 720Q579 718 608.0 706.0Q637 694 642 693Q653 690 702.5 641.0Q752 592 752 585Q752 580 767.5 553.0Q783 526 787 499Q793 454 801.5 432.5Q810 411 810 402Q810 390 805.5 378.0Q801 366 801 364Q801 361 802.5 359.0Q804 357 804 352Q804 333 782.0 288.0Q760 243 737 217Q716 192 711 183Q705 173 690.0 164.5Q675 156 672 153Q669 149 657.0 143.0Q645 137 635.0 132.0Q625 127 625 124Q625 119 566.5 99.0Q508 79 508 75Q508 73 502 73Q499 73 490.5 73.5Q482 74 478 74ZM161 280Q161 274 175.0 254.5Q189 235 189 230Q189 226 194.0 223.0Q199 220 211.0 211.5Q223 203 234 189Q252 166 269 161Q284 156 302 146Q314 139 336.5 137.5Q359 136 429 136Q491 136 508 144Q515 148 543.5 158.5Q572 169 598.5 182.0Q625 195 644 212Q658 224 672.5 238.5Q687 253 695.0 261.0Q703 269 703 269Q708 271 716.0 287.5Q724 304 724 311Q724 320 728 320Q734 320 738.5 337.0Q743 354 743 370Q743 382 738.0 388.5Q733 395 739 404Q744 418 739 434Q735 445 731 473Q727 503 711.5 529.5Q696 556 675.5 578.5Q655 601 651 609Q647 616 636.0 622.0Q625 628 625.0 631.0Q625 634 614.0 641.0Q603 648 567.0 657.5Q531 667 480 670Q469 671 457.5 671.5Q446 672 438.5 672.5Q431 673 425.0 673.5Q419 674 415.5 674.5Q412 675 412 675Q404 675 399.0 671.0Q394 667 391.5 661.5Q389 656 379.0 651.0Q369 646 353 645Q329 643 318 639Q299 631 291 629Q280 625 253.5 608.0Q227 591 206.5 575.5Q186 560 185 558Q185 557 169.0 539.0Q153 521 151 510Q135 427 135 394Q135 372 143.5 348.5Q152 325 152.0 311.0Q152 297 156.5 290.5Q161 284 161 280Z" transform="translate(0.00,958.33) scale(0.9583,-0.9583)" fill="#000000" />
  <path d="M444 84Q399 84 370.5 102.0Q342 120 342 156Q342 188 350 193Q354 196 354 212Q354 229 362 238Q370 248 370 254Q370 259 346.0 266.5Q322 274 296 278Q280 280 256.0 295.0Q232 310 224 313Q193 327 154 399Q143 419 140.5 429.5Q138 440 138 466Q138 523 148 543Q152 554 156.5 570.0Q161 586 168 597Q170 599 178.5 612.5Q187 626 191.5 632.0Q196 638 205.0 645.0Q214 652 224 653Q224 653 226.5 655.0Q229 657 233.5 660.0Q238 663 242 666Q258 678 334 692Q352 696 422 696Q487 696 502 692Q503 692 521.5 689.0Q540 686 554.0 683.5Q568 681 568 678Q570 676 588 676Q600 676 626.0 660.5Q652 645 656 644Q673 638 712 595Q735 569 743.0 556.5Q751 544 756 525Q762 504 762 479Q762 421 740 396Q733 390 733.0 385.5Q733 381 724 375Q720 372 687.0 343.0Q654 314 644 310Q634 306 619.5 298.0Q605 290 590 285Q566 278 562 274Q556 270 546 270Q537 270 523.5 262.0Q510 254 510 249Q510 246 524 240Q534 236 545.0 219.0Q556 202 556 187Q556 180 552 160Q547 129 542.5 119.0Q538 109 526 102Q491 84 444 84ZM694 491Q694 505 681.0 526.0Q668 547 654.0 561.5Q640 576 638 576Q632 576 614 595Q567 639 402 639Q372 639 360.5 636.5Q349 634 337.5 626.5Q326 619 310 614Q282 605 275.0 598.0Q268 591 262 591Q252 591 210 550Q196 536 196 466Q196 442 200 427Q205 410 226.0 385.5Q247 361 270 348Q277 345 282.5 342.5Q288 340 291.0 338.5Q294 337 294 338L322 329Q368 311 436 311Q510 311 542 332Q556 341 560 341Q568 341 602.0 358.5Q636 376 646 385Q656 395 662 395Q667 395 680.5 432.5Q694 470 694 491ZM400 169Q400 143 450 143Q466 143 480.0 149.0Q494 155 494 166Q494 178 474.5 192.0Q455 206 438 213Q437 215 420 202Q400 184 400 169Z" transform="translate(942.50,958.33) scale(0.9583,-0.9583)" fill="#000000" />
  <path d="M276 413Q276 366 227 366Q218 366 210.0 371.5Q202 377 194 377Q174 377 174 405Q174 421 178.5 430.0Q183 439 198 457Q212 474 223 474Q276 474 276 413ZM333 432Q333 454 345.0 468.5Q357 483 374 483Q394 483 410 465Q425 450 425 422Q425 397 414.5 388.0Q404 379 376 379Q349 379 344 384Q333 395 333 432ZM519 258Q529 258 565.5 265.0Q602 272 612 280Q619 285 619.0 288.5Q619 292 613 306Q604 325 601 325Q599 325 593.5 334.5Q588 344 580.0 357.5Q572 371 566 378Q558 386 539.5 421.5Q521 457 518 461Q488 495 488 515Q488 520 487.0 522.5Q486 525 483.0 528.0Q480 531 472.0 543.5Q464 556 454 575Q446 591 438.5 604.0Q431 617 426.5 623.5Q422 630 419.0 634.5Q416 639 415.0 641.5Q414 644 414 646Q414 649 395.5 678.5Q377 708 377 725Q377 736 383.5 743.5Q390 751 402 751Q435 751 449 727Q472 693 483.5 662.0Q495 631 514 597Q528 573 551 527Q564 500 576.0 481.5Q588 463 594.0 457.0Q600 451 603.0 447.0Q606 443 606 439Q606 436 608.0 434.0Q610 432 617.0 423.0Q624 414 632 398Q642 378 652.0 365.0Q662 352 665 344Q671 332 698.5 300.5Q726 269 726 244Q726 226 716.0 219.0Q706 212 681 212Q670 212 629.5 200.0Q589 188 516 188Q497 188 477.0 189.0Q457 190 451 190Q427 190 405.0 185.0Q383 180 372 180H357L360 125Q364 44 364 40Q364 0 339 0Q330 0 319.5 4.5Q309 9 302.5 13.5Q296 18 296 19Q296 21 289.0 80.0Q282 139 282 154Q282 160 278.0 181.0Q274 202 274 212Q274 234 288.0 243.0Q302 252 336 252Q343 252 353.5 251.5Q364 251 372 251Q392 251 402.5 254.0Q413 257 420 257H437Q448 257 461.0 260.5Q474 264 481.0 264.0Q488 264 499.0 261.0Q510 258 519 258Z" transform="translate(1885.00,958.33) scale(0.9583,-0.9583)" fill="#000000" />
</svg>
