<?xml version="1.0" encoding="UTF-8" standalone="no"?>
<!--
Representation of "sitelen tawa Suwasipa" in sitelen kalama pona
Generated by generate_sitelen_kalama_pona.py

Description:
  Representation of "sitelen tawa Suwasipa" in sitelen kalama pona.
  Sources: sitelen-tawa: https://commons.wikimedia.org/wiki/File:Sitelen_seli_kiwen_-_sitelen-tawa.svg; su: https://commons.wikimedia.org/wiki/File:Sitelen_kalama_pona_-_su.svg; wa: https://commons.wikimedia.org/wiki/File:Sitelen_kalama_pona_-_wa.svg; si: https://commons.wikimedia.org/wiki/File:Sitelen_kalama_pona_-_si.svg; pa: https://commons.wikimedia.org/wiki/File:Sitelen_kalama_pona_-_pa.svg

Categories:
  [[Category:Sitelen kalama pona]]
  [[Category:Toki Pona text containing sitelen tawa]]
  [[Category:Toki Pona text containing sound symbol Su]]
  [[Category:Toki Pona text containing sound symbol Wa]]
  [[Category:Toki Pona text containing sound symbol Si]]
  [[Category:Toki Pona text containing sound symbol Pa]]

Sources:
  sitelen-tawa: https://commons.wikimedia.org/wiki/File:Sitelen_seli_kiwen_-_sitelen-tawa.svg
  su: https://commons.wikimedia.org/wiki/File:Sitelen_kalama_pona_-_su.svg
  wa: https://commons.wikimedia.org/wiki/File:Sitelen_kalama_pona_-_wa.svg
  si: https://commons.wikimedia.org/wiki/File:Sitelen_kalama_pona_-_si.svg
  pa: https://commons.wikimedia.org/wiki/File:Sitelen_kalama_pona_-_pa.svg
-->
<svg version="1.1" width="6265" height="1000"
     viewBox="0 0 6265 1000"
     xmlns="http://www.w3.org/2000/svg">
  <path d="M320 322Q320 324 332.0 340.5Q344 357 344 369Q344 377 347.0 377.0Q350 377 354.5 387.5Q359 398 365.0 412.0Q371 426 378 433Q386 441 386.5 448.0Q387 455 390 461Q394 468 398.5 469.0Q403 470 417 468Q429 466 446 466Q458 466 471.5 448.0Q485 430 493.5 412.5Q502 395 502 395Q504 395 530.0 342.0Q556 289 559 281Q562 272 567.0 270.5Q572 269 598 269Q611 269 618.5 267.5Q626 266 634.5 261.5Q643 257 647.0 245.0Q651 233 651 214Q651 200 644.0 195.5Q637 191 615 191Q504 191 504 225Q504 228 505 231Q506 235 506 237Q506 245 476 302Q468 317 459 330Q456 335 451.0 348.5Q446 362 441.0 370.5Q436 379 430 379Q423 379 402.0 338.0Q381 297 381 291Q381 288 386 288Q388 288 398.0 281.5Q408 275 418.5 265.0Q429 255 429 248Q429 238 427.0 231.5Q425 225 418.5 218.0Q412 211 396.5 208.0Q381 205 356 205Q321 205 300.5 216.0Q280 227 280 246Q280 259 291.0 281.5Q302 304 311 310Q320 317 320 322ZM245 580Q245 589 256.0 604.0Q267 619 277 619Q283 619 304 611Q311 609 311.5 604.5Q312 600 310 585Q304 550 278 550Q267 550 256.0 560.0Q245 570 245 580ZM389 615Q407 624 414 624Q417 624 421.0 623.5Q425 623 432.5 616.5Q440 610 440 600Q440 596 439 593Q435 568 432.5 561.5Q430 555 423 555Q403 555 391.5 561.5Q380 568 378.0 573.5Q376 579 374 588Q372 600 374.5 604.0Q377 608 389 615ZM508 593Q508 608 522.5 620.5Q537 633 551 633Q563 633 572.5 620.5Q582 608 582 594Q582 578 570 569Q559 561 546 561Q531 561 519.5 570.5Q508 580 508 593ZM136 283Q136 293 140.0 326.5Q144 360 144 386Q144 398 140.5 429.0Q137 460 135 524Q127 676 127 694Q127 714 129 728L133 750L161 756Q190 762 196 759Q200 758 280.5 754.5Q361 751 369 746Q375 743 397.5 741.0Q420 739 439.5 737.0Q459 735 460 732Q461 730 464.0 731.0Q467 732 471 736Q480 744 513 745Q536 746 558.5 747.0Q581 748 598.5 750.0Q616 752 631.5 753.5Q647 755 658.5 757.0Q670 759 678.0 760.0Q686 761 690.5 762.0Q695 763 695 763Q737 763 737 735Q737 728 746.5 691.0Q756 654 756 628Q756 628 755.5 614.0Q755 600 754.0 577.0Q753 554 752.0 528.0Q751 502 750.5 472.5Q750 443 750 421Q750 359 754.0 340.0Q758 321 759 292Q764 118 766 111Q770 100 772 85Q773 80 773 77Q773 59 732 59Q731 59 693.5 60.5Q656 62 600.5 64.0Q545 66 486.0 68.0Q427 70 376.0 71.5Q325 73 305 73Q292 73 259.0 70.5Q226 68 217 68Q205 68 199.5 71.5Q194 75 186 75Q181 75 172 74Q158 72 156 72Q146 72 138.0 85.5Q130 99 130 113Q130 116 130 119Q130 119 131.0 129.0Q132 139 133.5 154.0Q135 169 136.0 186.0Q137 203 138.0 221.0Q139 239 139 251Q139 269 137 273Q136 275 136 283ZM688 532Q688 554 690.5 576.0Q693 598 693 601Q693 621 689.0 638.0Q685 655 680.5 666.5Q676 678 675 681Q674 689 668.5 691.5Q663 694 637 694Q599 694 546.0 686.5Q493 679 451 679Q451 679 440.5 679.5Q430 680 413.0 680.0Q396 680 377.5 680.5Q359 681 339.5 681.5Q320 682 307 682Q202 682 198 678Q195 675 195 587Q195 559 196.0 531.0Q197 503 198.0 481.0Q199 459 200.5 438.5Q202 418 203.5 403.5Q205 389 206.5 378.5Q208 368 208.5 362.0Q209 356 209 356Q209 348 209.0 343.5Q209 339 208.5 338.5Q208 338 207.5 337.0Q207 336 206.5 336.0Q206 336 205.0 332.5Q204 329 204.0 322.5Q204 316 203.5 302.5Q203 289 203 269Q203 168 208 162Q211 158 211 154Q211 152 209.5 148.0Q208 144 208 143Q208 137 227 135Q243 133 310.0 130.5Q377 128 410 128Q410 128 416.5 128.0Q423 128 436.0 128.5Q449 129 466.5 129.0Q484 129 511.0 129.5Q538 130 567 130Q648 131 672.5 132.5Q697 134 700 138Q704 143 704 213Q704 266 697.5 343.5Q691 421 691 456Q691 468 692.0 483.5Q693 499 693 502Q693 509 691 510Q688 512 688 532Z" transform="translate(0.00,958.33) scale(0.9583,-0.9583)" fill="#000000" />
  <path d="M 24.637998,12.488337 H 20.72216 q -1.48166,0 -2.54,-1.058333 -1.05833,-1.058333 -1.05833,-2.54 V 3.598338 q 0,-1.481667 1.05833,-2.54 Q 19.2405,4e-6 20.72216,4e-6 h 3.915838 V 0.846671 H 20.72216 q -1.13241,0 -1.94733,0.814917 -0.80433,0.804333 -0.80433,1.93675 v 5.291666 q 0,1.132417 0.80433,1.93675 0.81492,0.814917 1.94733,0.814917 h 3.915838 z" transform="translate(-428.69,0.00) scale(80.0747,80.0747)" fill="#000000" />
  <path d="M 75.014662,0.846671 V 4e-6 h 13.123333 v 0.846667 z m 0,11.641666 v -0.846666 h 13.123333 v 0.846666 z" transform="translate(-4462.58,0.00) scale(80.0747,80.0747)" fill="#000000" />
  <path d="M 75.014662,0.846671 V 4e-6 h 13.123333 v 0.846667 z m 0,11.641666 v -0.846666 h 13.123333 v 0.846666 z" transform="translate(-3411.74,0.00) scale(80.0747,80.0747)" fill="#000000" />
  <path d="M 75.014662,0.846671 V 4e-6 h 13.123333 v 0.846667 z m 0,11.641666 v -0.846666 h 13.123333 v 0.846666 z" transform="translate(-2360.89,0.00) scale(80.0747,80.0747)" fill="#000000" />
  <path d="M 75.014662,0.846671 V 4e-6 h 13.123333 v 0.846667 z m 0,11.641666 v -0.846666 h 13.123333 v 0.846666 z" transform="translate(-1310.04,0.00) scale(80.0747,80.0747)" fill="#000000" />
  <path d="m 87.714667,4e-6 h 2.8575 q 1.481666,0 2.54,1.058334 1.058333,1.058333 1.058333,2.54 v 5.291666 q 0,1.481667 -1.058333,2.54 -1.058334,1.058333 -2.54,1.058333 h -2.8575 v -0.846666 h 2.8575 q 1.132416,0 1.93675,-0.814917 0.814916,-0.804333 0.814916,-1.93675 V 3.598338 q 0,-1.132417 -0.814916,-1.93675 -0.804334,-0.814917 -1.93675,-0.814917 h -2.8575 z" transform="translate(-1276.14,0.00) scale(80.0747,80.0747)" fill="#000000" />
  <path d="M 184.24,533.83 C 184.24,625.71 260.73,704.65 353.68,712.97 C 386.01,711.86 464.94,701.15 535.02,628.63 C 537.22,626.35 539.76,624.84 545.35,619.26 C 562.88,601.72 575.03,577.42 588.80,548.64 C 589.72,541.69 590.16,535.23 590.16,529.19 C 590.16,400.93 382.04,405.91 331.67,275.00 C 330.56,272.11 330.00,269.06 330.00,266.00 C 330.00,262.47 337.91,210.91 383.37,165.45 C 429.90,118.93 496.36,96.16 561.36,96.16 C 574.48,96.16 587.54,97.08 600.36,98.93 C 602.73,98.85 605.61,98.80 608.75,98.80 C 626.95,98.80 648.41,99.18 654.71,118.07 L 656.73,124.12 L 611.20,139.30 L 616.21,146.16 L 622.71,149.41 C 620.15,149.03 612.31,148.88 606.38,148.88 C 602.05,148.88 599.07,149.00 599.00,149.00 C 594.46,149.00 583.23,146.21 562.12,146.21 C 508.64,146.21 454.28,165.26 418.73,200.81 C 401.61,217.92 388.57,238.85 381.34,264.00 C 428.37,362.57 640.09,367.23 640.09,529.57 C 640.09,529.95 639.99,557.54 635.55,566.81 C 616.30,606.98 601.26,638.38 569.96,664.42 C 538.90,696.29 463.48,759.87 353.72,762.98 C 353.48,762.99 353.24,763.00 353.00,763.00 C 351.34,763.00 269.86,761.28 202.01,693.43 C 160.55,651.98 134.24,595.37 134.24,533.91 C 134.24,524.93 134.80,515.85 135.96,506.70 C 135.90,504.18 135.87,501.68 135.87,499.18 C 135.87,417.44 167.52,344.27 178.02,270.18 C 178.19,252.24 180.44,234.48 180.44,218.20 C 180.44,212.86 180.00,206.12 180.00,206.00 C 180.00,199.53 186.50,179.43 186.50,146.18 C 186.50,141.31 186.35,136.42 186.05,131.52 L 235.95,128.46 C 236.31,134.39 236.49,140.29 236.49,146.17 C 236.49,167.20 234.22,187.81 230.17,207.78 C 230.37,211.46 230.45,215.07 230.45,218.61 C 230.45,222.78 227.84,274.86 227.76,275.42 C 217.14,352.79 185.87,425.83 185.87,499.48 C 185.87,503.48 186.00,507.91 186.00,508.00 C 186.00,511.91 184.24,519.34 184.24,533.83 Z" transform="translate(1669.62,100.00) scale(0.8000,0.8000)" fill="#000000" />
  <path d="M 184.38,603.07 C 184.38,619.66 179.99,631.36 179.99,643.91 L 130.01,644.09 C 130.00,643.96 130.00,643.83 130.00,643.71 C 130.00,626.09 134.39,613.74 134.39,602.97 C 134.39,599.52 134.00,598.63 134.00,596.00 C 134.00,572.39 141.02,494.57 141.02,442.55 C 141.02,413.96 139.64,414.42 139.64,377.95 C 139.64,286.32 150.35,77.39 291.04,30.30 C 293.62,29.44 296.31,29.00 299.00,29.00 C 311.77,29.00 332.18,43.47 342.91,54.20 C 382.83,94.12 386.03,157.56 386.03,208.75 C 386.03,220.90 386.03,221.95 385.64,224.21 C 384.66,229.95 384.20,235.81 384.20,241.67 C 384.20,281.58 406.11,325.38 443.03,332.30 C 479.72,311.28 489.71,225.28 492.11,195.29 C 490.31,167.55 488.39,132.39 488.39,108.14 C 488.39,87.09 489.71,79.35 497.01,72.05 C 500.14,68.92 506.81,64.66 515.07,64.66 C 540.07,64.66 541.82,91.26 543.05,109.98 C 543.69,119.81 544.13,131.97 544.13,145.70 C 544.13,152.27 544.07,171.76 542.25,195.89 C 542.27,196.15 544.00,221.22 544.00,222.00 C 544.00,224.14 543.34,230.15 543.34,239.79 C 543.34,275.62 553.16,320.92 602.86,320.92 C 653.85,320.92 724.98,271.74 737.04,203.54 C 737.05,201.81 737.06,199.97 737.06,198.04 C 737.06,185.63 736.66,174.01 735.62,156.45 C 732.53,143.32 730.11,141.35 730.01,134.36 C 729.94,129.75 729.91,125.76 729.91,122.31 C 729.91,101.66 730.91,96.13 738.02,89.02 C 741.14,85.90 747.81,81.67 756.02,81.67 C 759.85,81.67 777.38,82.91 781.26,105.15 C 782.36,111.46 783.87,126.13 785.32,149.67 C 787.64,161.00 788.73,172.15 788.73,183.05 C 788.73,190.45 788.23,197.73 787.27,204.87 C 787.28,206.17 787.29,207.43 787.29,208.66 C 787.29,215.10 787.09,220.65 786.04,226.36 C 786.78,262.00 789.77,310.15 789.77,353.76 C 789.77,445.84 780.66,614.38 612.04,614.38 C 598.56,614.38 584.27,613.27 569.18,611.01 L 321.20,612.99 L 320.80,563.01 L 571.00,561.00 C 571.42,561.00 595.53,564.55 613.31,564.55 C 709.24,564.55 739.69,492.00 739.69,353.34 C 739.69,337.31 739.32,321.18 738.80,305.28 C 726.08,319.20 674.06,370.93 603.47,370.93 C 563.61,370.93 532.13,353.09 513.47,322.82 C 490.16,371.46 456.59,383.00 447.00,383.00 C 444.66,383.00 408.52,382.47 376.67,350.62 C 349.08,323.03 334.11,282.95 334.11,242.61 C 334.11,225.02 336.02,225.35 336.02,212.10 C 336.02,161.49 333.44,104.28 297.37,81.39 C 205.31,121.59 189.64,277.46 189.64,378.93 C 189.64,383.95 191.03,442.24 191.03,442.88 C 191.03,474.28 189.09,504.89 187.22,534.95 C 185.96,555.23 184.71,575.27 184.04,595.17 C 184.28,597.90 184.38,600.54 184.38,603.07 Z" transform="translate(2720.47,100.00) scale(0.8000,0.8000)" fill="#000000" />
  <path d="M 463.00,119.00 C 450.73,119.00 395.37,101.32 395.37,62.11 C 395.37,52.70 398.92,44.22 403.57,38.02 L 401.79,32.06 L 413.64,28.51 C 420.12,24.04 428.56,21.00 435.00,21.00 C 435.85,21.00 436.71,21.05 437.56,21.14 C 438.47,20.87 439.92,20.51 442.59,20.51 C 451.27,20.51 456.09,23.30 458.35,24.77 C 468.23,25.64 476.86,28.46 484.18,35.78 C 491.41,43.00 494.18,52.76 494.18,61.57 C 494.18,62.64 494.14,63.69 494.06,64.73 C 494.16,66.89 494.27,69.36 494.27,72.08 C 494.27,96.97 482.63,119.00 463.00,119.00  Z M 519.20,142.62 C 563.42,142.62 590.00,165.34 590.00,186.00 L 590.00,194.00 L 541.73,194.00 C 542.00,195.38 542.27,196.76 542.95,197.74 C 540.81,196.28 532.41,192.66 518.53,192.66 C 517.38,192.66 516.28,192.69 515.24,192.74 C 463.42,206.95 389.46,253.45 389.46,318.95 C 389.46,354.12 424.15,384.23 455.23,411.20 C 494.33,445.13 540.22,484.96 540.22,550.82 C 540.22,566.94 536.74,607.11 505.05,638.79 C 474.37,669.47 423.97,688.31 335.16,688.31 C 319.56,688.31 306.63,688.20 257.34,684.94 C 257.34,684.94 260.63,635.06 260.66,635.06 C 291.88,637.12 312.69,638.24 335.52,638.24 C 401.15,638.24 490.24,628.10 490.24,550.46 C 490.24,509.06 462.15,483.41 422.49,449.00 C 387.42,418.56 349.44,385.60 340.39,334.38 C 340.36,334.23 339.47,328.38 339.47,318.99 C 339.47,229.47 426.73,164.12 504.67,143.81 C 506.02,143.46 510.20,142.62 519.20,142.62 Z" transform="translate(3771.31,100.00) scale(0.8000,0.8000)" fill="#000000" />
  <path d="M 641.19,97.96 C 641.19,97.96 690.82,103.99 690.81,104.04 C 664.81,318.04 664.81,318.04 664.81,318.04 C 664.81,318.04 615.18,312.01 615.19,311.96 C 641.19,97.96 641.19,97.96 641.19,97.96  Z M 411.00,461.00 C 411.00,464.00 409.68,472.65 409.68,486.21 C 409.68,544.12 434.55,594.35 534.11,615.43 C 580.87,625.34 631.08,626.79 694.49,628.01 C 695.13,628.02 695.13,628.02 865.77,640.07 L 862.25,689.93 C 692.86,677.98 692.86,677.98 687.79,677.88 C 592.87,676.08 472.28,673.73 405.87,607.31 C 376.65,578.09 359.77,537.33 359.77,484.99 C 359.77,476.93 360.17,468.60 360.98,459.99 C 360.93,456.67 360.91,453.35 360.91,450.04 C 360.91,369.17 376.08,290.09 390.64,213.35 C 397.44,177.48 404.15,142.11 409.27,107.33 C 409.27,107.33 458.73,114.62 458.73,114.67 C 453.40,150.83 446.55,186.86 439.75,222.72 C 425.16,299.60 410.90,375.66 410.90,450.25 C 410.90,456.42 411.00,460.35 411.00,461.00  Z M 154.85,624.93 C 154.85,625.77 155.74,670.06 155.74,670.52 C 155.74,682.89 155.15,695.78 153.00,709.10 L 153.00,741.00 L 103.00,741.00 L 103.00,707.00 C 103.00,701.32 105.69,695.82 105.69,669.82 C 105.69,669.12 104.82,624.91 104.82,624.46 C 104.82,613.09 105.30,601.26 107.02,589.05 C 107.14,577.90 107.19,566.69 107.19,555.43 C 107.19,542.39 107.12,529.27 107.01,516.10 C 106.11,504.49 105.66,492.98 105.66,481.57 C 105.66,273.32 253.88,102.94 467.33,80.15 C 468.60,80.01 468.60,80.01 899.88,78.01 L 900.12,127.99 L 471.42,129.99 C 283.90,150.61 155.65,299.39 155.65,481.49 C 155.65,500.64 156.97,511.82 156.99,514.79 C 157.11,528.36 157.18,541.91 157.18,555.43 C 157.18,586.69 156.98,593.01 156.72,594.74 C 155.29,604.25 154.85,614.31 154.85,624.93 Z" transform="translate(4822.16,100.00) scale(0.8000,0.8000)" fill="#000000" />
</svg>
