<?xml version="1.0" encoding="UTF-8" standalone="no"?>
<!--
Representation of "sike akesi suwi" in sitelen ilo pona
Generated by generate_sitelen_kalama_pona.py

Description:
  Representation of "sike akesi suwi" in sitelen ilo pona.
  Sources: sike: https://commons.wikimedia.org/wiki/File:Sitelen_seli_kiwen_-_sike.svg; akesi: https://commons.wikimedia.org/wiki/File:Sitelen_seli_kiwen_-_akesi.svg; suwi: https://commons.wikimedia.org/wiki/File:Sitelen_seli_kiwen_-_suwi.svg

Categories:
  [[Category:Sitelen kalama pona]]
  [[Category:Toki Pona text containing sike akesi suwi]]

Sources:
  sike: https://commons.wikimedia.org/wiki/File:Sitelen_seli_kiwen_-_sike.svg
  akesi: https://commons.wikimedia.org/wiki/File:Sitelen_seli_kiwen_-_akesi.svg
  suwi: https://commons.wikimedia.org/wiki/File:Sitelen_seli_kiwen_-_suwi.svg
-->
<svg version="1.1" width="2747" height="1000"
     viewBox="0 0 2747 1000"
     xmlns="http://www.w3.org/2000/svg">
  <path d="M386 517Q390 517 406.0 525.0Q422 533 434 533Q444 533 461.0 529.0Q478 525 500.5 514.5Q523 504 542.0 489.0Q561 474 574.5 448.0Q588 422 588 391Q588 371 580.0 345.5Q572 320 565 320Q563 320 554.0 304.0Q545 288 542 288Q540 288 533.0 276.0Q526 264 520 264Q516 264 508.0 256.0Q500 248 484.0 240.5Q468 233 444 233Q423 233 403.0 241.5Q383 250 376 250Q358 250 324.0 271.5Q290 293 285 315Q285 316 273.5 343.5Q262 371 262 397Q262 419 270 419Q274 419 274 431Q274 441 286.0 458.0Q298 475 305 475Q311 475 325.0 483.5Q339 492 339.0 495.0Q339 498 359.5 507.5Q380 517 386 517ZM433 475Q420 475 413.5 472.5Q407 470 399 461Q385 447 377 447Q372 447 368.0 443.5Q364 440 356.5 432.5Q349 425 340 419Q329 411 327.5 407.0Q326 403 328 391Q332 367 348.0 347.0Q364 327 381 322Q387 321 404.5 310.5Q422 300 441 300Q472 300 500.0 330.0Q528 360 528 396Q528 425 497.0 450.0Q466 475 433 475ZM478 74Q477 74 462.0 70.0Q447 66 420 66Q394 66 351.5 73.5Q309 81 295 81Q285 81 274.0 87.5Q263 94 205 134Q191 143 182.0 152.0Q173 161 170.5 165.5Q168 170 165.0 172.5Q162 175 157 175Q147 175 147 180Q147 185 140.5 191.5Q134 198 129 198Q124 198 124 212Q124 222 119.0 229.0Q114 236 114 246Q114 259 111 259Q107 259 101.5 271.0Q96 283 98 287Q100 289 94.0 299.0Q88 309 92 314Q97 319 93 325Q90 329 90 400Q90 505 108 527Q112 532 119.0 553.0Q126 574 131 576Q136 578 145.0 592.0Q154 606 159 606Q164 606 178.5 622.5Q193 639 200.0 639.0Q207 639 225.5 653.0Q244 667 249 667Q255 667 271.0 682.5Q287 698 300 698Q312 698 330.0 703.0Q348 708 351 712Q355 717 378.5 726.5Q402 736 403 738Q404 739 409 739Q419 739 475.0 730.5Q531 722 559 720Q579 718 608.0 706.0Q637 694 642 693Q653 690 702.5 641.0Q752 592 752 585Q752 580 767.5 553.0Q783 526 787 499Q793 454 801.5 432.5Q810 411 810 402Q810 390 805.5 378.0Q801 366 801 364Q801 361 802.5 359.0Q804 357 804 352Q804 333 782.0 288.0Q760 243 737 217Q716 192 711 183Q705 173 690.0 164.5Q675 156 672 153Q669 149 657.0 143.0Q645 137 635.0 132.0Q625 127 625 124Q625 119 566.5 99.0Q508 79 508 75Q508 73 502 73Q499 73 490.5 73.5Q482 74 478 74ZM161 280Q161 274 175.0 254.5Q189 235 189 230Q189 226 194.0 223.0Q199 220 211.0 211.5Q223 203 234 189Q252 166 269 161Q284 156 302 146Q314 139 336.5 137.5Q359 136 429 136Q491 136 508 144Q515 148 543.5 158.5Q572 169 598.5 182.0Q625 195 644 212Q658 224 672.5 238.5Q687 253 695.0 261.0Q703 269 703 269Q708 271 716.0 287.5Q724 304 724 311Q724 320 728 320Q734 320 738.5 337.0Q743 354 743 370Q743 382 738.0 388.5Q733 395 739 404Q744 418 739 434Q735 445 731 473Q727 503 711.5 529.5Q696 556 675.5 578.5Q655 601 651 609Q647 616 636.0 622.0Q625 628 625.0 631.0Q625 634 614.0 641.0Q603 648 567.0 657.5Q531 667 480 670Q469 671 457.5 671.5Q446 672 438.5 672.5Q431 673 425.0 673.5Q419 674 415.5 674.5Q412 675 412 675Q404 675 399.0 671.0Q394 667 391.5 661.5Q389 656 379.0 651.0Q369 646 353 645Q329 643 318 639Q299 631 291 629Q280 625 253.5 608.0Q227 591 206.5 575.5Q186 560 185 558Q185 557 169.0 539.0Q153 521 151 510Q135 427 135 394Q135 372 143.5 348.5Q152 325 152.0 311.0Q152 297 156.5 290.5Q161 284 161 280Z" transform="translate(0.00,958.33) scale(0.9583,-0.9583)" fill="#000000" />
  <path d="M230 345Q250 345 250 365Q250 376 245.0 382.5Q240 389 240 396Q240 403 242 408L244 428L194 427H176Q135 427 121.5 432.5Q108 438 108 458Q108 474 119.0 484.0Q130 494 148 494Q161 494 181.0 496.5Q201 499 210 499Q217 499 226.5 498.0Q236 497 239.5 497.0Q243 497 248 498Q253 502 258.5 513.5Q264 525 264 533Q264 539 268.0 551.5Q272 564 278.0 578.0Q284 592 290.5 605.0Q297 618 301.5 627.0Q306 636 306 636Q306 640 320.0 652.5Q334 665 334 670Q334 673 344.0 681.0Q354 689 365 695L376 701Q383 704 408 704Q464 704 510 694Q541 687 550.0 682.0Q559 677 578 657Q606 630 606 623Q606 620 608.0 616.0Q610 612 613.5 606.5Q617 601 622.0 586.5Q627 572 632 551L640 508L686 506Q736 504 748.0 496.0Q760 488 760 456Q760 444 751.0 436.5Q742 429 733 427L724 425Q722 425 704.5 428.5Q687 432 676 432H670L654 430V374H720Q784 374 795.5 372.0Q807 370 813 359Q813 358 814 358Q820 344 820 336Q820 325 810 306Q803 292 799.5 290.0Q796 288 784 289Q775 291 761.5 298.5Q748 306 728 308Q723 309 706.0 311.0Q689 313 682 314L662 317L660 284Q658 250 654 236Q652 225 653.0 223.5Q654 222 660 224Q664 226 681.5 228.0Q699 230 712 237Q725 244 738 244Q748 244 759.0 241.5Q770 239 770 236Q770 231 776 231Q786 231 786 205Q786 176 774 168Q770 165 706 163L640 160L628 146Q614 131 614 125Q614 118 601.0 111.0Q588 104 576.0 91.0Q564 78 548.0 68.5Q532 59 502 52Q452 41 442 41Q432 41 416.0 49.5Q400 58 394 58Q374 58 347.5 79.5Q321 101 303.5 123.0Q286 145 286 151Q286 159 242 159Q230 159 215.0 156.0Q200 153 180 153Q156 153 144.0 156.5Q132 160 130.0 164.0Q128 168 128 177Q128 190 134 205Q140 221 148.5 225.0Q157 229 184 229Q206 230 217.0 232.0Q228 234 234 234H240Q254 233 256.0 235.5Q258 238 258 252Q258 274 251.0 279.0Q244 284 206 284H150Q131 284 121.5 284.5Q112 285 100.5 288.0Q89 291 84.5 298.0Q80 305 80.0 317.0Q80 329 93.0 338.5Q106 348 117.0 351.5Q128 355 130 355Q131 355 132.0 354.5Q133 354 135.5 353.0Q138 352 142.5 351.5Q147 351 155.5 350.0Q164 349 176 349Q196 349 208.0 348.0Q220 347 224.0 346.0Q228 345 230 345ZM540 603Q540 610 520.5 625.0Q501 640 480 640Q476 640 469.5 637.0Q463 634 438 634Q418 634 399.0 629.0Q380 624 380 619Q380 616 374 616Q371 616 365.5 608.0Q360 600 353.0 588.0Q346 576 340 570Q328 559 328 553Q328 548 319.0 530.0Q310 512 310 505Q310 498 314.5 497.0Q319 496 340 497Q359 498 374.0 499.5Q389 501 396 501Q416 501 449.0 498.5Q482 496 498 496Q515 496 544.5 501.0Q574 506 574 510Q574 521 560.5 559.0Q547 597 544 597Q540 597 540 603ZM590 417V436H488Q384 436 346 431L304 426L302 407Q300 390 304 373L306 356L342 360Q415 367 514 368L594 370L592 384Q590 400 590 417ZM602 293Q602 306 597.0 308.5Q592 311 568 311Q552 311 541.5 312.0Q531 313 527.0 314.0Q523 315 522 315Q522 315 520 314Q519 312 491.5 310.5Q464 309 430.5 306.5Q397 304 384 301Q366 296 340 296H314L316 272Q317 254 324 236L330 224L416 225Q462 226 510 226Q548 226 566 224L592 221V237Q592 249 597.0 267.5Q602 286 602 293ZM552 154Q552 157 484.0 160.0Q416 163 404 163Q372 163 372 152Q372 147 376 147Q378 147 379.5 145.0Q381 143 382.5 139.5Q384 136 392.0 129.5Q400 123 414 117Q437 106 448 106Q458 106 482.5 111.0Q507 116 516 120Q526 125 539.0 137.5Q552 150 552 154ZM222 644Q219 644 206.5 648.5Q194 653 179.0 666.0Q164 679 164 696Q164 731 200 747Q223 757 239.5 735.0Q256 713 256 692Q256 675 244.5 659.5Q233 644 222 644ZM642 740Q642 755 670 755Q689 755 705.5 745.0Q722 735 722 718Q722 708 726.0 703.0Q730 698 730 694Q730 676 711.0 661.0Q692 646 672 646Q660 646 646 658Q636 668 633.0 674.5Q630 681 630 698Q630 721 636.0 729.0Q642 737 642 740Z" transform="translate(942.50,958.33) scale(0.9583,-0.9583)" fill="#000000" />
  <path d="M476 164Q469 164 459.0 167.0Q449 170 436.5 177.5Q424 185 415.5 202.0Q407 219 407 243Q407 258 410.0 262.5Q413 267 430 278Q452 292 468 292Q475 292 480.0 287.5Q485 283 491 283Q499 283 514.0 259.0Q529 235 529 222Q529 197 513.5 180.5Q498 164 476 164ZM167 681Q185 681 248.5 611.0Q312 541 316 541Q318 541 339 524Q348 516 352.0 512.0Q356 508 360.0 495.5Q364 483 364 465Q364 442 344 442Q329 442 318.5 452.0Q308 462 301.5 473.5Q295 485 292 486Q285 488 285 496Q285 503 282.0 503.0Q279 503 263.5 517.0Q248 531 246.0 531.0Q244 531 214.5 559.5Q185 588 176 588Q168 588 159.5 573.0Q151 558 141.0 538.0Q131 518 123 511Q114 503 102.0 470.5Q90 438 80 437Q78 437 74.5 436.5Q71 436 69 436Q50 436 37.5 443.0Q25 450 22.0 456.0Q19 462 19 464Q19 468 30.0 483.0Q41 498 41 500Q41 501 49.0 510.5Q57 520 66.0 531.5Q75 543 77 549Q80 559 83 559Q87 559 97.0 579.0Q107 599 107 606Q107 612 116.5 623.5Q126 635 126.0 636.0Q126 637 132.5 648.0Q139 659 149.0 670.0Q159 681 167 681ZM641 658Q644 658 655.0 674.5Q666 691 678 691Q689 691 702.5 681.5Q716 672 719 662Q723 653 728 653Q735 653 735 645Q735 638 747.0 625.5Q759 613 759 610Q759 602 783.0 570.0Q807 538 809 532Q811 522 817 522Q821 522 830.5 503.0Q840 484 847 480Q856 475 868.5 453.0Q881 431 881 419Q881 409 874.5 404.0Q868 399 861 403Q860 404 843.0 407.0Q826 410 822 417Q820 419 795.5 446.5Q771 474 763 491Q757 503 746.5 518.0Q736 533 728.5 543.0Q721 553 721 556Q721 561 703.0 576.5Q685 592 678 592Q673 592 666.0 582.5Q659 573 649.5 558.5Q640 544 632 536Q619 523 616 510Q612 494 594.5 469.0Q577 444 564 444Q556 444 540.5 449.5Q525 455 525 464Q525 489 552 518Q570 536 579.0 556.0Q588 576 595 586Q609 605 609 610Q609 613 623.0 630.5Q637 648 637 652Q637 658 641 658Z" transform="translate(1885.00,958.33) scale(0.9583,-0.9583)" fill="#000000" />
</svg>
