<?xml version="1.0" encoding="UTF-8" standalone="no"?>
<!--
Representation of "ilo wawa pi pana toki" in sitelen ilo pona
Generated by generate_sitelen_kalama_pona.py

Description:
  Representation of "ilo wawa pi pana toki" in sitelen ilo pona.
  Sources: ilo: https://commons.wikimedia.org/wiki/File:Sitelen_seli_kiwen_-_ilo.svg; wawa: https://commons.wikimedia.org/wiki/File:Sitelen_seli_kiwen_-_wawa.svg; pi: https://commons.wikimedia.org/wiki/File:Sitelen_seli_kiwen_-_pi.svg; pana: https://commons.wikimedia.org/wiki/File:Sitelen_seli_kiwen_-_pana.svg; toki: https://commons.wikimedia.org/wiki/File:Sitelen_seli_kiwen_-_toki.svg

Categories:
  [[Category:Sitelen kalama pona]]
  [[Category:Toki Pona text containing ilo wawa pi pana toki]]

Sources:
  ilo: https://commons.wikimedia.org/wiki/File:Sitelen_seli_kiwen_-_ilo.svg
  wawa: https://commons.wikimedia.org/wiki/File:Sitelen_seli_kiwen_-_wawa.svg
  pi: https://commons.wikimedia.org/wiki/File:Sitelen_seli_kiwen_-_pi.svg
  pana: https://commons.wikimedia.org/wiki/File:Sitelen_seli_kiwen_-_pana.svg
  toki: https://commons.wikimedia.org/wiki/File:Sitelen_seli_kiwen_-_toki.svg
-->
<svg version="1.1" width="4632" height="1000"
     viewBox="0 0 4632 1000"
     xmlns="http://www.w3.org/2000/svg">
  <path d="M411 266Q411 271 407.5 280.5Q404 290 404 294Q404 295 407.0 304.0Q410 313 411 330L412 356L384 359Q377 360 357 360Q281 360 281 353Q281 350 246 352Q238 353 226 353Q209 353 193.0 343.5Q177 334 161 334Q141 334 130.0 345.5Q119 357 119 367Q119 380 109 387Q102 393 100.0 398.0Q98 403 100 417Q102 432 108.5 448.0Q115 464 115 492Q115 514 112.5 591.5Q110 669 106 675Q104 679 106.0 688.0Q108 697 104 701Q96 711 96 724Q96 730 98.0 737.0Q100 744 110.5 752.5Q121 761 139 761Q164 761 164 765Q164 770 168 768Q171 767 298.0 760.5Q425 754 431 754Q451 754 474.0 757.0Q497 760 513 760Q536 760 574.5 755.5Q613 751 631 751Q645 751 685.0 753.0Q725 755 738 755Q761 755 770.0 741.0Q779 727 780 677Q786 494 788.5 456.0Q791 418 799 403Q804 391 804 383Q804 364 789.0 358.0Q774 352 734 352Q692 352 616.5 359.5Q541 367 515 367Q498 367 490.5 366.0Q483 365 481.5 363.0Q480 361 480 357Q480 346 477.5 311.0Q475 276 475 257Q475 217 481.0 184.0Q487 151 493.0 133.5Q499 116 499 111Q499 102 489.5 87.5Q480 73 461 73Q439 73 425.0 91.0Q411 109 409 138L408 160Q406 181 404.5 204.0Q403 227 403 230Q403 246 407.0 255.0Q411 264 411 266ZM387 698Q363 702 305 702Q272 702 251.5 699.0Q231 696 215 695Q186 694 179.5 682.5Q173 671 169 618Q166 573 166 536Q166 477 174 463Q180 445 182 437L188 415L226 417Q268 419 323 419Q369 419 399 422L416 424L414 500Q412 576 412 592Q412 614 413.0 628.0Q414 642 415.0 647.0Q416 652 416 654Q416 657 412 672Q408 688 404.5 692.0Q401 696 387 698ZM725 438Q725 441 723.5 445.0Q722 449 720.0 451.5Q718 454 717.0 456.5Q716 459 717.5 460.0Q719 461 723 461Q733 461 733 479Q733 484 729.0 515.0Q725 546 723 585Q719 657 710.0 672.0Q701 687 658 689Q639 690 624.0 693.0Q609 696 608.0 697.0Q607 698 603 696Q602 694 562 694H542L485 695L483 670Q482 651 477.0 627.5Q472 604 472 602V592Q473 581 474.5 564.0Q476 547 477.0 526.0Q478 505 478.5 479.0Q479 453 479 429Q479 423 501 426Q513 428 552 428Q566 428 586.0 427.0Q606 426 625.0 425.0Q644 424 660.5 422.5Q677 421 688 420L698 419Q725 419 725 438Z" transform="translate(0.00,958.33) scale(0.9583,-0.9583)" fill="#000000" />
  <path d="M442 37Q439 37 431.0 40.5Q423 44 415.0 44.0Q407 44 393.0 52.5Q379 61 373 61Q365 61 348.0 72.0Q331 83 331 88Q331 92 324.0 100.5Q317 109 315.0 121.0Q313 133 305.5 142.0Q298 151 298 154Q298 159 296.0 161.0Q294 163 292.0 164.0Q290 165 288.0 173.0Q286 181 286 198Q286 244 290.5 272.0Q295 300 300.5 310.0Q306 320 317 335Q336 362 336 367Q336 378 386.5 424.0Q437 470 466 470Q482 470 508 453Q530 439 545.0 419.5Q560 400 587 349Q619 289 619 259Q619 250 615.5 206.5Q612 163 608 162Q603 160 603 151Q603 145 598 140Q597 139 597.0 128.0Q597 117 538 72Q506 48 488 48Q474 48 460.0 42.5Q446 37 442 37ZM346 219Q346 212 350.5 196.5Q355 181 355 174Q355 170 380 143L406 115H443Q478 116 503.0 132.0Q528 148 528 152Q528 154 537.5 158.5Q547 163 547 173Q547 175 552.5 192.0Q558 209 558 236Q558 300 538 315Q527 323 511.0 353.5Q495 384 476 392Q457 399 452 399Q444 399 435.5 390.5Q427 382 391 335Q354 287 354 258Q354 245 350.0 234.5Q346 224 346 219ZM764 381Q764 380 765.0 377.0Q766 374 766.0 373.0Q766 372 764.0 368.5Q762 365 760.0 357.5Q758 350 758 337Q755 205 734 200Q725 198 725 193Q725 191 718 191Q669 191 669 223Q669 236 678 256Q692 284 697.0 340.5Q702 397 706 402Q708 405 712.0 430.0Q716 455 720 459Q725 465 732.5 509.0Q740 553 744.0 557.0Q748 561 748 571Q748 577 758.0 599.5Q768 622 770 643Q773 684 782.5 701.0Q792 718 813 718Q830 718 847.5 700.5Q865 683 865 673Q865 666 857 664Q850 662 836.0 635.0Q822 608 821 593Q820 584 799.5 513.0Q779 442 778 434Q776 417 772.5 405.0Q769 393 766.5 388.0Q764 383 764 381ZM35 711Q35 725 45.0 735.5Q55 746 67 746Q87 746 101.0 716.5Q115 687 115 673Q115 662 162.0 548.5Q209 435 209 428Q209 417 214 409L223 391Q226 385 231.0 345.0Q236 305 241 294Q245 286 247.0 269.0Q249 252 250.5 232.0Q252 212 252 208Q253 200 249.5 198.0Q246 196 227 196Q201 196 196 201Q192 205 188.5 235.5Q185 266 184 268Q183 269 175.0 314.5Q167 360 154.0 411.5Q141 463 127 480Q124 484 112.5 511.5Q101 539 101 541Q101 546 93.0 564.5Q85 583 85 587Q85 596 79.0 599.0Q73 602 73 606Q73 609 54.0 651.5Q35 694 35 711Z" transform="translate(942.50,958.33) scale(0.9583,-0.9583)" fill="#000000" />
  <path d="M178 600Q178 613 172.0 629.5Q166 646 166 651Q166 660 178 675Q187 686 191.5 688.0Q196 690 206 688Q221 685 228.5 675.5Q236 666 237.0 657.5Q238 649 238 634V602Q238 561 244.0 524.5Q250 488 250 466Q250 451 248.0 418.5Q246 386 246 369Q246 369 246.0 367.0Q246 365 246.5 361.5Q247 358 247.5 353.0Q248 348 248.0 339.5Q248 331 248.5 321.0Q249 311 249.5 296.5Q250 282 250 266Q250 179 252 177Q260 168 392 168Q392 168 438.0 168.0Q484 168 532.0 168.5Q580 169 584 169Q698 169 704 167Q710 164 716 164Q722 163 728.0 144.5Q734 126 734 111Q734 109 733.0 103.5Q732 98 727.5 90.5Q723 83 716 83Q714 83 683.5 92.5Q653 102 624 102Q612 102 594.0 100.0Q576 98 562 98Q562 98 558.5 98.5Q555 99 548.0 99.5Q541 100 532.0 100.5Q523 101 510.5 101.5Q498 102 486 102Q485 102 480.5 102.0Q476 102 469.0 101.5Q462 101 454.5 100.5Q447 100 439.5 100.0Q432 100 428 100Q344 100 230 92L190 90L184 104Q180 114 180 131Q180 157 185.0 176.5Q190 196 190 218Q190 218 190.0 225.0Q190 232 190.0 242.5Q190 253 189.5 264.5Q189 276 188.5 287.0Q188 298 188 304Q188 326 190.0 374.0Q192 422 192 441Q192 517 178 540Q176 543 177.0 544.0Q178 545 180.0 545.5Q182 546 182.5 549.5Q183 553 180 562Q176 571 176 578Q176 581 177.0 588.5Q178 596 178 600Z" transform="translate(1885.00,958.33) scale(0.9583,-0.9583)" fill="#000000" />
  <path d="M231 198Q231 203 238.0 218.5Q245 234 245 242Q245 260 276.0 307.5Q307 355 308 359Q312 377 335.5 394.0Q359 411 378.5 419.5Q398 428 401 428Q412 428 423.5 431.0Q435 434 457 434Q484 434 502.0 430.0Q520 426 528.5 422.5Q537 419 540 419Q545 419 545.0 415.0Q545 411 562 405Q575 401 600.0 380.5Q625 360 625 353Q625 350 632.0 346.0Q639 342 639 336Q639 327 645 321Q653 312 665.0 269.5Q677 227 677.0 207.0Q677 187 683.5 153.5Q690 120 695 109Q700 100 695 100Q690 100 690.0 87.0Q690 74 685.5 69.0Q681 64 666 56Q653 50 650.0 49.5Q647 49 637 55Q628 60 628 70Q628 71 627.0 73.5Q626 76 625.0 81.5Q624 87 622.5 95.5Q621 104 620.0 121.5Q619 139 618 161Q617 223 609 240Q605 249 601.5 260.0Q598 271 596.0 277.0Q594 283 591 285Q587 287 587 296Q587 300 573.5 317.0Q560 334 537.5 352.0Q515 370 496 374Q486 376 473.5 381.5Q461 387 451 387Q431 387 407.5 377.0Q384 367 372 353L356 342Q339 332 339 325Q339 319 332.0 311.5Q325 304 325 299Q325 295 321.0 287.5Q317 280 313.5 274.5Q310 269 312 269Q313 269 308.5 261.5Q304 254 298.0 241.5Q292 229 292 221Q292 217 284.5 187.5Q277 158 277 138Q277 137 278.5 118.5Q280 100 280 90Q280 70 270.5 58.5Q261 47 255.0 45.5Q249 44 245 44Q234 44 221.0 53.5Q208 63 208 71Q208 77 202.0 84.5Q196 92 196 94Q195 105 190.5 119.0Q186 133 184 133Q180 133 161.0 158.0Q142 183 142 188Q142 190 128.0 203.0Q114 216 114 229Q114 241 122.5 248.5Q131 256 145 256Q158 256 189.5 222.0Q221 188 227 188Q231 188 231 198ZM135 556Q135 566 142.0 574.0Q149 582 162 582Q184 582 227.0 540.0Q270 498 273 498Q274 498 275.5 495.0Q277 492 278.5 487.0Q280 482 280 477Q280 459 259 459Q243 459 227.0 469.5Q211 480 192.5 496.5Q174 513 162 520Q135 536 135 556ZM599 482Q599 509 614.5 530.0Q630 551 666 583Q749 657 766 657Q771 657 778.5 649.5Q786 642 786 630Q786 612 763.5 589.5Q741 567 719.5 554.0Q698 541 696 541Q692 541 685.5 531.5Q679 522 674.0 522.0Q669 522 643.0 495.0Q617 468 608.0 468.0Q599 468 599 482ZM383 616Q383 622 383.5 632.0Q384 642 384 649Q384 672 379.5 686.0Q375 700 375 701Q375 707 380 717Q385 728 389.0 730.5Q393 733 403 732Q422 731 427 720Q428 717 426 715Q425 714 425.0 713.0Q425 712 433.0 702.5Q441 693 441 682Q441 680 438.0 649.5Q435 619 435 597Q435 560 421 560Q415 560 408.0 562.0Q401 564 392.0 578.0Q383 592 383 616Z" transform="translate(2827.50,958.33) scale(0.9583,-0.9583)" fill="#000000" />
  <path d="M222 295Q222 320 228.0 339.0Q234 358 240.0 368.0Q246 378 246 382Q246 395 265.0 421.5Q284 448 300 456Q316 465 325.0 475.0Q334 485 335.5 491.0Q337 497 344.0 502.0Q351 507 366 509Q385 512 401.0 516.5Q417 521 428 521Q445 521 487.0 512.0Q529 503 540 503Q552 503 571.5 496.0Q591 489 608.0 481.5Q625 474 628 473Q640 469 640 463Q640 457 647.0 453.0Q654 449 654.0 445.0Q654 441 660.5 434.5Q667 428 676.0 416.0Q685 404 690 391Q700 367 702 365Q706 361 706 347Q706 339 709.0 330.5Q712 322 713.0 320.0Q714 318 712 314Q709 312 707.0 303.0Q705 294 700.0 278.5Q695 263 686 250Q678 237 671.0 219.5Q664 202 654 192Q647 185 644.5 179.5Q642 174 642.5 171.0Q643 168 639.5 165.0Q636 162 626 158Q608 150 608 146Q608 141 586.5 133.0Q565 125 538.0 117.0Q511 109 504 106Q488 98 458 98Q419 98 389.5 107.0Q360 116 345.5 124.5Q331 133 330 133Q322 133 305.0 142.5Q288 152 286 157Q285 165 278 167Q265 172 249.0 217.5Q233 263 230 265Q222 270 222 295ZM584 428Q581 428 570.5 436.0Q560 444 534.0 452.5Q508 461 468 461Q434 461 405.0 452.5Q376 444 361.0 435.0Q346 426 333.0 411.5Q320 397 317.5 393.0Q315 389 312 384Q308 374 302 374Q297 374 289.5 351.5Q282 329 282 313Q282 289 313.5 236.0Q345 183 378 177Q397 173 402 170Q416 163 460 163Q496 163 511.0 169.0Q526 175 528 175Q533 175 548.0 180.5Q563 186 588.0 205.5Q613 225 626 254Q643 288 645.5 296.5Q648 305 648 318Q648 349 638 370Q633 383 611.5 405.5Q590 428 584 428ZM144 612Q144 622 151.5 632.5Q159 643 172 643Q181 643 202.5 624.5Q224 606 227.5 606.0Q231 606 235.0 599.0Q239 592 244 592Q249 592 258.5 579.0Q268 566 268 555Q268 545 259.5 539.5Q251 534 243 533L234 532Q226 532 207.5 550.5Q189 569 182 569Q175 569 170.5 576.0Q166 583 162 583Q144 595 144 612ZM622 636Q645 645 677.0 671.5Q709 698 726 698Q740 698 748.0 689.5Q756 681 756 667Q756 654 752.0 648.5Q748 643 734 636Q722 629 700.0 615.0Q678 601 661.5 591.5Q645 582 638 580Q629 577 623.5 573.0Q618 569 608 569Q580 569 580 589Q580 601 592.0 615.0Q604 629 622 636ZM400 600Q400 601 403.0 615.0Q406 629 409.0 652.0Q412 675 412 697Q412 706 410 712Q405 729 429 742Q447 751 448 740Q448 734 458 730Q464 729 465.0 725.0Q466 721 466 708Q466 673 461.0 651.5Q456 630 456 608Q456 595 444.0 583.0Q432 571 420 571Q410 571 405.0 580.0Q400 589 400 600Z" transform="translate(3770.00,958.33) scale(0.9583,-0.9583)" fill="#000000" />
</svg>
