<?xml version="1.0" encoding="UTF-8" standalone="no"?>
<!--
Representation of "pona" in sitelen ilo pona
Generated by generate_sitelen_kalama_pona.py

Description:
  Representation of "pona" in sitelen ilo pona.
  Sources: pona: https://commons.wikimedia.org/wiki/File:Sitelen_seli_kiwen_-_pona.svg

Categories:
  [[Category:Sitelen kalama pona]]
  [[Category:Toki Pona text containing pona]]

Sources:
  pona: https://commons.wikimedia.org/wiki/File:Sitelen_seli_kiwen_-_pona.svg
-->
<svg version="1.1" width="862" height="1000"
     viewBox="0 0 862 1000"
     xmlns="http://www.w3.org/2000/svg">
  <path d="M664 435Q664 444 666.0 452.5Q668 461 679.0 469.0Q690 477 708 477Q742 477 742 453Q742 449 741.0 440.0Q740 431 733.5 407.5Q727 384 715.5 361.0Q704 338 680.5 307.5Q657 277 624 252Q617 246 567.5 227.0Q518 208 510 208Q504 208 477.5 206.0Q451 204 440 204Q393 204 344.5 224.5Q296 245 294 245Q288 245 288 250Q288 254 269.0 273.0Q250 292 245.5 292.0Q241 292 219.5 323.0Q198 354 198 360Q198 364 193.5 369.5Q189 375 184 389Q182 399 170.0 426.0Q158 453 158 460Q158 464 165.5 479.5Q173 495 180 495Q183 495 188 489Q190 486 192.0 487.0Q194 488 198.5 490.0Q203 492 206 492Q221 492 226 462Q228 447 244.5 411.5Q261 376 274 358Q293 332 311.0 319.0Q329 306 382 280Q413 265 454 265Q535 265 594 311Q618 329 626 335Q634 340 643.0 365.0Q652 390 658.0 411.5Q664 433 664 435Z" transform="translate(0.00,958.33) scale(0.9583,-0.9583)" fill="#000000" />
</svg>
