<?xml version="1.0" encoding="UTF-8" standalone="no"?>
<!--
Representation of "Apike" in sitelen kalama pona
Generated by generate_sitelen_kalama_pona.py

Description:
  Representation of "Apike" in sitelen kalama pona.
  Sources: a: https://commons.wikimedia.org/wiki/File:Sitelen_kalama_pona_-_xa.svg; pi: https://commons.wikimedia.org/wiki/File:Sitelen_kalama_pona_-_pi.svg; ke: https://commons.wikimedia.org/wiki/File:Sitelen_kalama_pona_-_ke.svg

Categories:
  [[Category:Sitelen kalama pona]]
  [[Category:Toki Pona text containing sound symbol A]]
  [[Category:Toki Pona text containing sound symbol Pi]]
  [[Category:Toki Pona text containing sound symbol Ke]]

Sources:
  a: https://commons.wikimedia.org/wiki/File:Sitelen_kalama_pona_-_xa.svg
  pi: https://commons.wikimedia.org/wiki/File:Sitelen_kalama_pona_-_pi.svg
  ke: https://commons.wikimedia.org/wiki/File:Sitelen_kalama_pona_-_ke.svg
-->
<svg version="1.1" width="4271" height="1000"
     viewBox="0 0 4271 1000"
     xmlns="http://www.w3.org/2000/svg">
  <path d="M 24.637998,12.488337 H 20.72216 q -1.48166,0 -2.54,-1.058333 -1.05833,-1.058333 -1.05833,-2.54 V 3.598338 q 0,-1.481667 1.05833,-2.54 Q 19.2405,4e-6 20.72216,4e-6 h 3.915838 V 0.846671 H 20.72216 q -1.13241,0 -1.94733,0.814917 -0.80433,0.804333 -0.80433,1.93675 v 5.291666 q 0,1.132417 0.80433,1.93675 0.81492,0.814917 1.94733,0.814917 h 3.915838 z" transform="translate(-1371.19,0.00) scale(80.0747,80.0747)" fill="#000000" />
  <path d="M 75.014662,0.846671 V 4e-6 h 13.123333 v 0.846667 z m 0,11.641666 v -0.846666 h 13.123333 v 0.846666 z" transform="translate(-5405.08,0.00) scale(80.0747,80.0747)" fill="#000000" />
  <path d="M 75.014662,0.846671 V 4e-6 h 13.123333 v 0.846667 z m 0,11.641666 v -0.846666 h 13.123333 v 0.846666 z" transform="translate(-4354.24,0.00) scale(80.0747,80.0747)" fill="#000000" />
  <path d="M 75.014662,0.846671 V 4e-6 h 13.123333 v 0.846667 z m 0,11.641666 v -0.846666 h 13.123333 v 0.846666 z" transform="translate(-3303.39,0.00) scale(80.0747,80.0747)" fill="#000000" />
  <path d="m 87.714667,4e-6 h 2.8575 q 1.481666,0 2.54,1.058334 1.058333,1.058333 1.058333,2.54 v 5.291666 q 0,1.481667 -1.058333,2.54 -1.058334,1.058333 -2.54,1.058333 h -2.8575 v -0.846666 h 2.8575 q 1.132416,0 1.93675,-0.814917 0.814916,-0.804333 0.814916,-1.93675 V 3.598338 q 0,-1.132417 -0.814916,-1.93675 -0.804334,-0.814917 -1.93675,-0.814917 h -2.8575 z" transform="translate(-3269.49,0.00) scale(80.0747,80.0747)" fill="#000000" />
  <path d="M 457.02,666.69 C 456.60,667.48 420.13,731.68 413.26,744.54 C 480.65,733.33 546.25,731.82 631.91,730.04 C 706.68,719.20 787.62,721.53 861.83,716.02 C 849.49,692.25 843.96,681.58 833.54,668.70 C 824.91,658.02 720.62,468.66 629.58,334.03 C 626.67,338.61 626.20,339.35 623.73,341.58 C 535.96,420.70 537.88,561.78 457.02,666.69  Z M 370.00,804.00 C 356.19,804.00 345.00,792.81 345.00,779.00 C 345.00,776.62 345.34,774.23 346.02,771.93 C 354.08,744.47 375.01,709.50 393.75,676.97 C 393.97,676.57 415.60,638.50 416.29,637.62 C 491.15,541.89 488.84,398.52 587.58,306.88 C 591.73,300.38 594.73,296.42 598.83,289.73 C 546.46,216.35 495.83,156.12 444.47,105.06 C 391.17,198.47 349.00,299.17 306.58,400.64 C 306.07,401.86 263.39,503.93 254.64,522.62 L 143.64,759.62 C 143.64,759.62 98.36,738.41 98.36,738.38 L 209.24,501.64 C 226.73,462.00 243.55,421.75 260.45,381.32 C 307.00,269.97 354.06,157.15 417.60,52.07 C 419.15,49.50 425.79,40.00 439.00,40.00 C 445.15,40.00 451.30,42.26 456.10,46.77 C 605.10,186.66 707.52,354.94 831.60,567.16 C 845.71,591.30 859.69,615.21 873.63,638.77 C 897.87,669.36 906.72,700.11 923.64,721.52 C 927.21,726.05 929.00,731.52 929.00,737.00 C 929.00,749.65 919.58,760.24 907.14,761.80 C 818.95,772.88 722.27,767.24 637.68,779.73 C 621.18,782.16 480.15,776.97 376.15,803.23 C 374.13,803.74 372.07,804.00 370.00,804.00 Z" transform="translate(727.12,100.00) scale(0.8000,0.8000)" fill="#000000" />
  <path d="M 485.00,189.00 C 469.68,189.00 438.00,176.21 438.00,126.00 C 438.00,117.97 440.75,112.11 452.24,100.63 C 456.31,96.55 469.86,83.00 483.00,83.00 L 493.00,83.00 L 493.00,85.32 C 505.32,87.38 524.11,100.20 524.11,122.52 C 524.11,123.23 524.09,123.95 524.04,124.66 C 524.08,125.75 524.10,126.85 524.10,127.96 C 524.10,165.31 504.14,189.00 485.00,189.00  Z M 606.10,279.81 C 606.10,279.81 655.90,284.16 655.90,284.19 C 637.90,490.19 637.90,490.19 637.90,490.19 C 637.90,490.19 588.10,485.84 588.10,485.81 C 606.10,279.81 606.10,279.81 606.10,279.81  Z M 429.49,786.96 C 319.70,786.96 228.59,722.79 228.59,616.05 C 228.59,604.31 229.71,592.09 232.04,579.47 C 233.26,492.01 243.62,404.21 258.00,319.86 L 258.00,314.00 L 308.00,314.00 L 308.00,322.00 C 308.00,330.48 283.64,447.79 281.99,582.31 C 281.93,587.51 278.43,598.69 278.43,617.13 C 278.43,699.49 355.82,736.84 430.49,736.84 C 461.27,736.84 478.65,731.00 485.00,731.00 L 679.20,731.00 C 730.13,731.41 774.29,739.46 821.76,739.46 C 827.75,739.46 833.74,739.33 839.77,739.04 L 842.23,788.96 C 835.21,789.31 828.30,789.46 821.48,789.46 C 771.89,789.46 726.49,781.38 678.90,781.00 L 487.62,781.00 C 468.37,784.96 448.81,786.96 429.49,786.96  Z M 733.76,308.43 C 557.65,308.43 334.30,328.57 169.67,332.99 L 168.33,283.01 C 245.61,280.94 324.81,276.25 404.79,271.50 C 513.82,265.02 624.29,258.44 733.52,258.44 C 751.48,258.44 769.40,258.62 787.27,259.00 L 857.80,259.00 C 857.80,259.00 940.61,251.12 940.65,251.12 L 945.39,300.88 C 860.20,309.00 860.20,309.00 859.00,309.00 L 787.00,309.00 C 786.47,309.00 764.15,308.43 733.76,308.43 Z" transform="translate(1777.97,100.00) scale(0.8000,0.8000)" fill="#000000" />
  <path d="M 223.73,118.89 C 223.73,219.81 358.16,259.90 422.73,342.64 C 422.73,342.64 383.31,373.40 383.27,373.36 C 325.30,299.08 173.75,250.23 173.75,118.52 C 173.75,116.12 173.80,113.69 173.91,111.24 C 173.53,108.37 173.28,105.26 173.28,101.99 C 173.28,73.47 193.91,57.00 210.18,55.16 C 335.25,41.04 335.25,41.04 336.34,41.01 C 473.68,37.62 609.98,33.19 748.53,31.01 L 749.47,80.99 C 611.42,83.17 475.59,87.57 338.75,90.96 L 223.40,103.98 C 223.56,105.80 224.00,107.13 224.00,110.00 C 224.00,110.09 223.73,115.58 223.73,118.89  Z M 437.75,579.91 L 472.27,616.08 L 384.25,700.09 C 381.93,702.31 381.93,702.31 307.14,743.86 L 282.85,700.14 L 352.07,661.69 L 437.75,579.91  Z M 609.00,155.00 C 622.81,155.00 634.00,166.19 634.00,180.00 L 634.00,184.00 L 588.00,184.00 L 609.00,205.00 L 600.32,205.00 C 564.02,214.91 428.69,259.50 428.69,373.49 C 428.69,392.21 432.00,402.69 432.00,408.00 C 432.00,410.90 430.81,418.65 430.81,432.71 C 430.81,532.88 493.70,640.11 597.56,657.42 C 705.14,675.35 705.14,675.35 705.14,675.35 C 705.14,675.35 696.92,724.66 696.86,724.65 C 588.46,706.58 588.46,706.58 588.05,706.50 C 462.74,681.35 380.80,559.13 380.80,433.14 C 380.80,425.13 381.13,417.10 381.80,409.10 C 379.78,397.21 378.82,385.67 378.82,374.50 C 378.82,319.38 402.25,273.33 437.08,238.50 C 478.69,196.89 535.39,170.39 590.60,155.83 C 592.69,155.28 594.85,155.00 597.00,155.00 L 609.00,155.00 Z" transform="translate(2828.81,100.00) scale(0.8000,0.8000)" fill="#000000" />
</svg>
