<?xml version="1.0" encoding="UTF-8" standalone="no"?>
<!--
Representation of "sitelen tawa "nasin seme la mi tawa jan mama meli sina"" in sitelen ilo pona
Generated by generate_sitelen_kalama_pona.py

Description:
  Representation of "sitelen tawa "nasin seme la mi tawa jan mama meli sina"" in sitelen ilo pona.
  Sources: sitelen-tawa: https://commons.wikimedia.org/wiki/File:Sitelen_seli_kiwen_-_sitelen-tawa.svg; seme: https://commons.wikimedia.org/wiki/File:Sitelen_seli_kiwen_-_seme.svg; la: https://commons.wikimedia.org/wiki/File:Sitelen_seli_kiwen_-_la.svg; mi: https://commons.wikimedia.org/wiki/File:Sitelen_seli_kiwen_-_mi.svg; tawa: https://commons.wikimedia.org/wiki/File:Sitelen_seli_kiwen_-_tawa.svg; jan: https://commons.wikimedia.org/wiki/File:Sitelen_seli_kiwen_-_jan.svg; mama-meli: https://commons.wikimedia.org/wiki/File:Sitelen_seli_kiwen_-_mama-meli.svg

Categories:
  [[Category:Sitelen kalama pona]]
  [[Category:Toki Pona text containing sitelen tawa "nasin seme la mi tawa jan mama meli sina"]]

Sources:
  sitelen-tawa: https://commons.wikimedia.org/wiki/File:Sitelen_seli_kiwen_-_sitelen-tawa.svg
  seme: https://commons.wikimedia.org/wiki/File:Sitelen_seli_kiwen_-_seme.svg
  la: https://commons.wikimedia.org/wiki/File:Sitelen_seli_kiwen_-_la.svg
  mi: https://commons.wikimedia.org/wiki/File:Sitelen_seli_kiwen_-_mi.svg
  tawa: https://commons.wikimedia.org/wiki/File:Sitelen_seli_kiwen_-_tawa.svg
  jan: https://commons.wikimedia.org/wiki/File:Sitelen_seli_kiwen_-_jan.svg
  mama-meli: https://commons.wikimedia.org/wiki/File:Sitelen_seli_kiwen_-_mama-meli.svg
-->
<svg version="1.1" width="6517" height="1000"
     viewBox="0 0 6517 1000"
     xmlns="http://www.w3.org/2000/svg">
  <path d="M320 322Q320 324 332.0 340.5Q344 357 344 369Q344 377 347.0 377.0Q350 377 354.5 387.5Q359 398 365.0 412.0Q371 426 378 433Q386 441 386.5 448.0Q387 455 390 461Q394 468 398.5 469.0Q403 470 417 468Q429 466 446 466Q458 466 471.5 448.0Q485 430 493.5 412.5Q502 395 502 395Q504 395 530.0 342.0Q556 289 559 281Q562 272 567.0 270.5Q572 269 598 269Q611 269 618.5 267.5Q626 266 634.5 261.5Q643 257 647.0 245.0Q651 233 651 214Q651 200 644.0 195.5Q637 191 615 191Q504 191 504 225Q504 228 505 231Q506 235 506 237Q506 245 476 302Q468 317 459 330Q456 335 451.0 348.5Q446 362 441.0 370.5Q436 379 430 379Q423 379 402.0 338.0Q381 297 381 291Q381 288 386 288Q388 288 398.0 281.5Q408 275 418.5 265.0Q429 255 429 248Q429 238 427.0 231.5Q425 225 418.5 218.0Q412 211 396.5 208.0Q381 205 356 205Q321 205 300.5 216.0Q280 227 280 246Q280 259 291.0 281.5Q302 304 311 310Q320 317 320 322ZM245 580Q245 589 256.0 604.0Q267 619 277 619Q283 619 304 611Q311 609 311.5 604.5Q312 600 310 585Q304 550 278 550Q267 550 256.0 560.0Q245 570 245 580ZM389 615Q407 624 414 624Q417 624 421.0 623.5Q425 623 432.5 616.5Q440 610 440 600Q440 596 439 593Q435 568 432.5 561.5Q430 555 423 555Q403 555 391.5 561.5Q380 568 378.0 573.5Q376 579 374 588Q372 600 374.5 604.0Q377 608 389 615ZM508 593Q508 608 522.5 620.5Q537 633 551 633Q563 633 572.5 620.5Q582 608 582 594Q582 578 570 569Q559 561 546 561Q531 561 519.5 570.5Q508 580 508 593ZM136 283Q136 293 140.0 326.5Q144 360 144 386Q144 398 140.5 429.0Q137 460 135 524Q127 676 127 694Q127 714 129 728L133 750L161 756Q190 762 196 759Q200 758 280.5 754.5Q361 751 369 746Q375 743 397.5 741.0Q420 739 439.5 737.0Q459 735 460 732Q461 730 464.0 731.0Q467 732 471 736Q480 744 513 745Q536 746 558.5 747.0Q581 748 598.5 750.0Q616 752 631.5 753.5Q647 755 658.5 757.0Q670 759 678.0 760.0Q686 761 690.5 762.0Q695 763 695 763Q737 763 737 735Q737 728 746.5 691.0Q756 654 756 628Q756 628 755.5 614.0Q755 600 754.0 577.0Q753 554 752.0 528.0Q751 502 750.5 472.5Q750 443 750 421Q750 359 754.0 340.0Q758 321 759 292Q764 118 766 111Q770 100 772 85Q773 80 773 77Q773 59 732 59Q731 59 693.5 60.5Q656 62 600.5 64.0Q545 66 486.0 68.0Q427 70 376.0 71.5Q325 73 305 73Q292 73 259.0 70.5Q226 68 217 68Q205 68 199.5 71.5Q194 75 186 75Q181 75 172 74Q158 72 156 72Q146 72 138.0 85.5Q130 99 130 113Q130 116 130 119Q130 119 131.0 129.0Q132 139 133.5 154.0Q135 169 136.0 186.0Q137 203 138.0 221.0Q139 239 139 251Q139 269 137 273Q136 275 136 283ZM688 532Q688 554 690.5 576.0Q693 598 693 601Q693 621 689.0 638.0Q685 655 680.5 666.5Q676 678 675 681Q674 689 668.5 691.5Q663 694 637 694Q599 694 546.0 686.5Q493 679 451 679Q451 679 440.5 679.5Q430 680 413.0 680.0Q396 680 377.5 680.5Q359 681 339.5 681.5Q320 682 307 682Q202 682 198 678Q195 675 195 587Q195 559 196.0 531.0Q197 503 198.0 481.0Q199 459 200.5 438.5Q202 418 203.5 403.5Q205 389 206.5 378.5Q208 368 208.5 362.0Q209 356 209 356Q209 348 209.0 343.5Q209 339 208.5 338.5Q208 338 207.5 337.0Q207 336 206.5 336.0Q206 336 205.0 332.5Q204 329 204.0 322.5Q204 316 203.5 302.5Q203 289 203 269Q203 168 208 162Q211 158 211 154Q211 152 209.5 148.0Q208 144 208 143Q208 137 227 135Q243 133 310.0 130.5Q377 128 410 128Q410 128 416.5 128.0Q423 128 436.0 128.5Q449 129 466.5 129.0Q484 129 511.0 129.5Q538 130 567 130Q648 131 672.5 132.5Q697 134 700 138Q704 143 704 213Q704 266 697.5 343.5Q691 421 691 456Q691 468 692.0 483.5Q693 499 693 502Q693 509 691 510Q688 512 688 532Z" transform="translate(0.00,958.33) scale(0.9583,-0.9583)" fill="#000000" />
  <path d="M409 100Q409 102 414.5 110.0Q420 118 432.0 127.0Q444 136 457 136Q472 136 482.0 129.5Q492 123 497 123Q503 123 513.5 112.0Q524 101 524 85Q524 20 481 20Q467 20 449.0 27.0Q431 34 431 39Q431 41 416.5 56.5Q402 72 402 83Q402 89 405.5 91.0Q409 93 409 100ZM173 651Q173 660 205.5 696.0Q238 732 238 734Q238 738 247.0 738.0Q256 738 269 746Q286 756 329.0 761.0Q372 766 376 770Q380 773 405.0 780.5Q430 788 440 788Q448 788 467.5 783.0Q487 778 499 778Q508 778 519.0 780.0Q530 782 535 782Q544 782 567.5 771.5Q591 761 606 757Q625 752 640.0 742.5Q655 733 655.0 726.0Q655 719 662 719Q664 719 675.5 711.0Q687 703 705.0 681.5Q723 660 733.0 633.0Q743 606 743 596Q743 591 739.5 574.0Q736 557 736 543Q736 541 736.5 538.0Q737 535 737 534Q741 517 736 517Q734 517 730.5 510.0Q727 503 718.5 488.5Q710 474 698 461Q663 422 656 411Q644 395 638 395Q633 395 609.0 383.0Q585 371 563.5 359.0Q542 347 541.0 346.0Q540 345 517.5 326.5Q495 308 493 296Q491 283 486 283Q482 283 482 267Q482 230 436 230Q410 230 410 255Q410 261 414.5 280.5Q419 300 434.5 331.5Q450 363 473 381Q497 400 503 400Q507 400 514.5 409.5Q522 419 529 419Q534 419 540.5 424.0Q547 429 562 433Q581 439 581 444Q581 450 598 461Q625 478 647.5 510.0Q670 542 670 574Q670 610 646.5 639.0Q623 668 599.5 683.0Q576 698 576 699Q576 702 568.0 703.0Q560 704 550.0 705.0Q540 706 536 709Q526 717 450 717Q388 717 344.5 701.5Q301 686 294 686Q288 686 278.0 677.5Q268 669 254.5 655.5Q241 642 234 637Q213 619 213 584Q213 563 220.5 535.5Q228 508 228 505Q228 498 220.0 491.0Q212 484 203 484Q188 484 173 500Q162 512 159.5 521.0Q157 530 157 563Q157 594 159.5 612.0Q162 630 165.0 633.0Q168 636 170.5 640.0Q173 644 173 651Z" transform="translate(942.50,958.33) scale(0.9583,-0.9583)" fill="#000000" />
  <path d="M360 766Q370 766 398.0 751.0Q426 736 427 729Q428 728 430 728Q434 728 438.5 724.0Q443 720 446.5 715.0Q450 710 454 705L457 700Q473 697 504 651Q517 630 525 625Q535 617 535 606Q535 601 551 581Q568 559 568 543Q568 534 573.5 525.0Q579 516 580 506Q590 399 590 374Q590 356 589.0 344.0Q588 332 587.0 327.0Q586 322 583.5 312.5Q581 303 580 296Q579 290 560.0 245.0Q541 200 540 194Q538 183 522 165Q509 150 494.5 130.0Q480 110 479 106Q478 95 452.5 73.5Q427 52 409 44Q401 40 392.0 33.0Q383 26 373.5 23.0Q364 20 347 20Q326 20 318.0 27.5Q310 35 310 56Q310 92 346 103Q356 106 393.5 130.5Q431 155 444 168Q460 184 460 190Q460 199 469.0 207.0Q478 215 478 217Q478 227 484 233Q487 237 491.5 254.0Q496 271 500 275Q510 285 520 328Q521 330 522.5 383.5Q524 437 527 443Q522 446 522 457Q521 469 516.0 490.5Q511 512 508 516Q502 521 502 530Q502 532 490.0 558.5Q478 585 478 591V592Q469 595 469 604Q469 606 466 606Q458 606 452.0 614.0Q446 622 436 643Q434 648 429 653Q422 654 408 666Q377 695 347 706Q339 709 330.0 717.0Q321 725 321.0 732.0Q321 739 337.0 752.5Q353 766 360 766Z" transform="translate(1885.00,958.33) scale(0.9583,-0.9583)" fill="#000000" />
  <path d="M260 199Q260 199 258.0 206.0Q256 213 254.0 224.0Q252 235 249.5 248.0Q247 261 245.5 275.5Q244 290 244 301Q244 310 248.0 332.0Q252 354 252 365Q252 365 251.5 367.0Q251 369 250.0 373.5Q249 378 248.5 384.0Q248 390 247.0 399.0Q246 408 245.0 418.5Q244 429 244.0 443.0Q244 457 244 473Q244 478 245.0 496.5Q246 515 249.0 538.5Q252 562 256 565Q261 568 265.5 589.0Q270 610 274 613Q276 616 284.5 629.0Q293 642 304.0 655.5Q315 669 326 677Q338 684 358 702Q368 710 383.5 715.5Q399 721 400 726Q404 733 422 733Q436 733 446.5 737.5Q457 742 462 742Q474 742 494.5 735.0Q515 728 520 723Q524 717 540.5 711.0Q557 705 564 697Q574 686 580 686Q589 686 621.0 647.0Q653 608 656 593Q660 572 660 543Q660 482 644 474Q638 471 638 464Q638 450 598.0 408.5Q558 367 544 367Q540 367 511.5 353.5Q483 340 456 340Q420 340 394.0 343.5Q368 347 358.5 351.0Q349 355 341.5 358.5Q334 362 328 362Q322 362 320.0 353.0Q318 344 318 315Q318 275 320.0 244.5Q322 214 324.0 198.0Q326 182 326 177Q326 175 323.0 161.5Q320 148 322 138Q322 133 322 120Q322 67 310 52Q302 42 280 42Q240 42 240 74Q240 81 244.0 88.5Q248 96 248 108Q249 119 253.5 130.5Q258 142 258 144Q258 145 257.0 146.5Q256 148 256 151Q256 156 258.0 174.5Q260 193 260 199ZM564 615Q523 654 503.5 664.5Q484 675 448 675Q430 675 412.5 667.5Q395 660 386.0 652.5Q377 645 376 642Q372 635 353.0 619.5Q334 604 334 598Q334 593 322.0 575.5Q310 558 308 545Q308 544 305.5 540.0Q303 536 302.5 534.0Q302 532 304 529Q307 527 308.0 515.0Q309 503 314 496Q320 488 320 479Q320 470 326 470Q332 470 334.0 465.0Q336 460 335.5 453.0Q335 446 340.0 438.0Q345 430 356 425Q382 414 393.0 411.0Q404 408 426 408Q474 408 484 416Q491 423 512 429Q542 438 569.0 470.5Q596 503 598 531Q598 536 598.0 543.0Q598 550 598 553Q598 572 592.0 582.5Q586 593 564 615Z" transform="translate(2827.50,958.33) scale(0.9583,-0.9583)" fill="#000000" />
  <path d="M284 89Q284 88 283.5 84.0Q283 80 281.5 73.0Q280 66 277.0 59.5Q274 53 268.0 48.5Q262 44 254 44Q242 44 203.0 55.5Q164 67 159 67Q155 67 150.0 71.0Q145 75 130.0 85.0Q115 95 93 106Q38 134 38 155Q38 164 52.0 173.5Q66 183 69 199Q71 213 84.5 223.0Q98 233 103 243Q108 254 120.5 269.0Q133 284 154 327Q159 338 171.5 353.5Q184 369 188 384Q194 405 197 405Q201 405 206.0 417.5Q211 430 211 438Q211 447 216 447Q218 447 220.0 451.5Q222 456 225.5 464.5Q229 473 235 480Q242 488 268.0 530.5Q294 573 299 578Q316 596 333.0 625.5Q350 655 355 673Q358 686 370.5 695.0Q383 704 393.5 708.5Q404 713 404 715Q404 719 414.0 730.5Q424 742 432 742Q436 742 450 735Q462 729 465.0 720.5Q468 712 472.0 686.5Q476 661 486 632L504 578Q511 555 550.0 480.0Q589 405 594 381Q597 366 610.5 337.0Q624 308 624 302Q624 298 633.5 281.5Q643 265 643 260Q643 256 657.5 224.0Q672 192 674 177Q679 145 699 143Q712 143 765 138Q820 133 832.0 130.5Q844 128 844 121Q844 116 853.0 116.0Q862 116 862 91Q862 82 858.0 74.0Q854 66 854 61Q854 50 818 50Q795 50 781.0 57.0Q767 64 735 64Q700 64 679.0 59.5Q658 55 657 55Q641 55 628.0 68.0Q615 81 615 97Q615 103 616.0 109.0Q617 115 617 121Q617 133 612.0 143.0Q607 153 607 160Q607 168 591.5 210.5Q576 253 571 259Q562 270 557.0 292.5Q552 315 539 340Q538 343 537.5 345.5Q537 348 537.0 350.0Q537 352 537.5 353.5Q538 355 538.0 356.5Q538 358 536.5 359.0Q535 360 533 361Q526 363 526 372Q526 389 512.0 425.0Q498 461 487.0 474.0Q476 487 462.0 514.0Q448 541 444 557Q441 571 428.0 600.5Q415 630 412 630Q410 630 403.0 616.0Q396 602 393 602Q392 602 376.5 579.0Q361 556 361 555Q361 551 344 534Q330 519 313.0 493.5Q296 468 286.5 449.0Q277 430 277.0 427.0Q277 424 267.5 410.5Q258 397 258 390Q258 381 254 381Q249 381 249 374Q249 369 237.5 348.5Q226 328 224 321Q221 311 216.0 311.0Q211 311 211 306Q211 303 208.5 299.0Q206 295 201.0 285.5Q196 276 191 263Q184 245 161.5 220.5Q139 196 139 183Q139 173 147.5 162.5Q156 152 164 152Q171 152 194.0 142.5Q217 133 219 133Q226 133 249.0 124.5Q272 116 272 113Q272 108 278.0 102.5Q284 97 284 89Z" transform="translate(3770.00,958.33) scale(0.9583,-0.9583)" fill="#000000" />
  <path d="M342 672Q345 672 355.5 678.0Q366 684 393.0 690.5Q420 697 463 697Q487 697 550 690Q586 686 595.0 682.5Q604 679 619 663Q641 641 641 638Q641 634 648.0 634.0Q655 634 655 630Q655 626 676.0 610.0Q697 594 697 591Q697 589 703.0 576.5Q709 564 715.5 548.0Q722 532 723 521Q727 503 730 501Q734 498 734 448Q734 420 733.0 405.0Q732 390 730.0 388.0Q728 386 726.5 383.0Q725 380 725 374Q725 365 718.0 357.5Q711 350 711 346Q711 341 680.5 301.0Q650 261 650.0 257.0Q650 253 676.0 224.5Q702 196 702 194Q702 192 718.0 172.5Q734 153 734 146Q734 140 751.5 119.5Q769 99 769 85Q769 50 748 50Q726 50 715.0 59.0Q704 68 704 77Q704 82 686.5 103.0Q669 124 668 126Q663 140 624.0 182.5Q585 225 577 225Q577 225 574.5 222.5Q572 220 563.0 216.0Q554 212 538 210Q532 209 525.0 206.5Q518 204 504.5 202.5Q491 201 465 201Q413 201 370.5 206.0Q328 211 320 211Q307 211 291.5 190.0Q276 169 272 167Q266 166 266 156Q266 151 264.0 148.0Q262 145 256.5 139.5Q251 134 245 126Q240 118 229.5 105.5Q219 93 211.5 83.0Q204 73 202 66Q199 51 194 51Q187 51 163.0 56.5Q139 62 136 64Q133 67 131 85Q130 97 132.5 102.0Q135 107 145 115Q167 132 186.0 152.0Q205 172 209 184Q209 186 224.0 215.5Q239 245 242 247Q246 250 246.0 253.0Q246 256 234.5 264.0Q223 272 221.5 278.0Q220 284 202.0 305.5Q184 327 184 329Q184 331 177 340Q170 347 161.5 378.0Q153 409 153 427Q153 427 153.5 432.5Q154 438 154.0 445.5Q154 453 154 458Q154 475 173.5 510.5Q193 546 200 549Q213 554 226.5 578.0Q240 602 242 602Q244 602 288.0 637.0Q332 672 342 672ZM567 616Q544 628 527.0 631.0Q510 634 457 634Q428 634 416.0 627.5Q404 621 388 621Q353 621 308.5 590.0Q264 559 232.5 514.5Q201 470 201 435Q201 422 210.0 408.5Q219 395 219 390Q219 383 239.0 360.5Q259 338 268 334Q276 331 285.5 317.0Q295 303 301 302Q311 300 327.5 292.5Q344 285 351 278Q363 268 407.0 262.0Q451 256 483 256Q514 256 540.0 266.0Q566 276 579.5 286.5Q593 297 594 297Q600 297 611.0 306.0Q622 315 622 320Q622 322 624.5 324.0Q627 326 631.0 329.0Q635 332 643.0 344.0Q651 356 660 375Q672 399 675.0 409.0Q678 419 678 433Q678 455 675.0 471.0Q672 487 668.0 496.5Q664 506 653 528Q641 554 632.0 566.5Q623 579 619.0 579.5Q615 580 611.5 582.0Q608 584 604 591Q601 599 567 616Z" transform="translate(4712.50,958.33) scale(0.9583,-0.9583)" fill="#000000" />
  <path d="M331 381Q329 381 322.0 391.5Q315 402 309 412L303 422Q303 431 321.0 452.0Q339 473 341 479Q343 484 347.0 487.0Q351 490 354.0 491.0Q357 492 359.0 494.0Q361 496 360 499Q359 501 359 502Q359 510 372.0 515.5Q385 521 403 521Q421 521 429.0 514.5Q437 508 440.0 508.0Q443 508 449.0 501.5Q455 495 461.0 481.5Q467 468 467 452Q467 412 439.0 385.0Q411 358 382 358Q365 358 349.5 369.5Q334 381 331 381ZM410 445Q410 447 402 447Q395 447 395 439Q395 427 410 445ZM269 556Q269 560 285.5 579.0Q302 598 302 601Q302 603 310.5 607.5Q319 612 334.5 620.5Q350 629 363 640Q383 657 394 657Q409 657 438.5 652.0Q468 647 480 637Q481 636 499.0 627.5Q517 619 538 598Q563 573 567 550Q571 524 573 520Q575 512 575 484L574 462Q574 453 574.5 439.5Q575 426 576.0 413.0Q577 400 578.0 388.5Q579 377 580 370V362Q580 322 545 322Q527 322 515 341Q508 350 508 409V482Q508 533 490.5 554.0Q473 575 425 583Q415 585 402 585Q379 585 359.5 567.5Q340 550 325.5 528.5Q311 507 308 505Q303 501 298.0 476.5Q293 452 293 431Q293 414 299.0 392.5Q305 371 305 365Q305 354 297 346Q286 335 273 335Q258 335 247.0 346.5Q236 358 236 375Q236 386 232.0 392.5Q228 399 230 409Q231 413 231 418Q231 425 228.0 435.0Q225 445 225 449Q225 455 230 461Q235 466 235 473Q235 475 234.5 479.0Q234 483 234 486Q234 495 240 503Q269 543 269 556ZM54 501Q54 527 70.5 562.0Q87 597 87 606Q87 613 113.5 634.5Q140 656 153 663Q165 669 200.0 701.0Q235 733 251 739Q330 767 418 767Q420 767 423.0 767.0Q426 767 428 767Q451 767 555 759Q612 755 645.5 741.5Q679 728 686 728Q692 728 703.0 718.5Q714 709 717 709Q724 709 762.0 669.5Q800 630 812 610Q826 587 832.0 554.5Q838 522 840 520Q846 512 846 488Q846 473 841.0 463.0Q836 453 834 438Q830 413 822.5 392.0Q815 371 808 367Q801 364 793.5 348.0Q786 332 783 332Q782 332 781 332Q777 334 768.5 327.0Q760 320 757.0 320.0Q754 320 746.0 310.5Q738 301 733 301Q726 301 712 283Q698 266 676.0 253.5Q654 241 638 241Q624 241 613.0 234.0Q602 227 602 219Q602 215 612.5 201.0Q623 187 623 171Q623 153 613 130Q606 116 606 103Q606 86 574 70L541 53Q541 48 534 48Q526 48 524 42Q519 28 428 28Q328 28 318 58Q316 65 307.0 70.0Q298 75 291.0 83.5Q284 92 284 108Q284 123 288.0 137.0Q292 151 298.0 161.0Q304 171 310.5 178.5Q317 186 321 190L325 195Q325 198 300.5 200.5Q276 203 245.0 209.0Q214 215 201 225Q179 241 169 246Q152 254 123.5 283.5Q95 313 94 323Q94 331 80 349Q67 366 67 394Q67 407 60.5 432.0Q54 457 54 501ZM124 538Q124 534 116.0 524.0Q108 514 108 481Q108 452 115 426Q117 419 121.0 403.5Q125 388 126 384Q128 376 140.0 361.0Q152 346 163.5 334.0Q175 322 175 321Q175 318 188.0 308.5Q201 299 213 294Q222 290 248 277Q278 262 367 262Q370 262 384.5 263.5Q399 265 430 266Q505 268 544.5 279.0Q584 290 591 291Q615 294 621 300Q625 305 650.5 318.0Q676 331 677 333Q679 337 726.0 374.5Q773 412 774 432L775 450Q776 468 777.0 487.5Q778 507 778 511Q778 535 758.5 577.5Q739 620 703 639Q692 645 675.0 658.5Q658 672 640 674Q619 678 602 685Q583 694 410 694Q338 694 315.0 688.5Q292 683 274 664Q258 647 218.0 632.5Q178 618 167 608Q157 598 140.5 571.5Q124 545 124 538ZM555 153Q555 196 494 196Q490 196 412 181Q395 178 389 168Q386 163 369.5 144.0Q353 125 353 120Q353 118 362.0 111.5Q371 105 387.5 98.0Q404 91 419 91Q454 91 469.0 95.0Q484 99 524 117Q544 126 549.5 132.5Q555 139 555 153Z" transform="translate(5655.00,958.33) scale(0.9583,-0.9583)" fill="#000000" />
</svg>
