<?xml version="1.0" encoding="UTF-8" standalone="no"?>
<!--
Representation of "nanpa nimi" in sitelen kalama pona
Generated by generate_sitelen_kalama_pona.py

Description:
  Representation of "nanpa nimi" in sitelen kalama pona.
  Sources: nanpa: https://commons.wikimedia.org/wiki/File:Sitelen_seli_kiwen_-_nanpa.svg; nimi: https://commons.wikimedia.org/wiki/File:Sitelen_seli_kiwen_-_nimi.svg

Categories:
  [[Category:Sitelen kalama pona]]
  [[Category:Toki Pona text containing nanpa nimi]]

Sources:
  nanpa: https://commons.wikimedia.org/wiki/File:Sitelen_seli_kiwen_-_nanpa.svg
  nimi: https://commons.wikimedia.org/wiki/File:Sitelen_seli_kiwen_-_nimi.svg
-->
<svg version="1.1" width="1805" height="1000"
     viewBox="0 0 1805 1000"
     xmlns="http://www.w3.org/2000/svg">
  <path d="M239 654Q239 656 240.5 658.5Q242 661 242 672Q242 678 255.0 682.5Q268 687 282 687Q300 687 305.5 678.5Q311 670 313 634Q314 621 317.0 591.0Q320 561 322 536L325 512V495L352 491Q368 489 396.0 488.0Q424 487 443.5 486.0Q463 485 468 482Q475 479 485.0 483.5Q495 488 501 486Q502 486 502 486L504 485Q507 485 507 494Q507 552 498 570Q494 578 490.5 606.5Q487 635 486.0 655.0Q485 675 485 680Q485 727 516 727Q517 727 519.0 726.5Q521 726 522 726Q536 724 538.5 723.0Q541 722 541 717Q541 710 543 710H544Q552 710 553 662Q555 614 560 559Q564 518 566.0 508.0Q568 498 575 494Q589 487 650 487Q674 487 703.0 493.5Q732 500 753 500Q802 500 802 451Q802 430 797.0 424.5Q792 419 776 419Q752 419 730.0 425.0Q708 431 695 431Q686 431 647.5 427.5Q609 424 586 424L564 423V371Q564 319 568 311Q571 307 604.0 303.0Q637 299 664 299Q678 299 686.5 301.5Q695 304 713 304Q719 304 727.5 303.5Q736 303 741 303Q763 303 776.5 307.5Q790 312 800 312Q802 312 808.0 311.5Q814 311 825.5 308.5Q837 306 846.5 301.5Q856 297 863.5 288.5Q871 280 871 269Q871 231 828 231Q824 231 794.0 234.0Q764 237 727 237Q582 237 577 230Q574 224 574 202Q574 172 580.5 138.5Q587 105 587 94Q587 76 578.5 69.5Q570 63 551 63Q509 63 509 89V90Q509 92 509.5 95.0Q510 98 510.5 103.0Q511 108 511.5 115.5Q512 123 512.5 132.0Q513 141 513.0 154.0Q513 167 513 181Q513 233 511 235Q507 239 393 242L346 243L348 199Q349 170 351.0 161.0Q353 152 361 144Q372 133 367 124Q363 117 363 104Q363 77 319 77Q292 77 292 80Q290 94 290 102Q290 115 292.5 129.5Q295 144 295 152Q295 164 289.5 194.0Q284 224 284 233Q284 240 280.5 241.5Q277 243 259 242Q247 241 210 241Q104 241 66.5 248.0Q29 255 29 277Q29 282 32 290Q41 311 55.0 316.0Q69 321 111.0 321.0Q153 321 184.5 315.0Q216 309 251 309Q280 309 282.0 313.0Q284 317 284 337Q284 345 283.0 358.0Q282 371 280.5 383.5Q279 396 277.5 408.0Q276 420 275 428L274 435Q274 440 158 445Q51 449 39 456Q30 461 30 482Q30 490 32.5 494.5Q35 499 52.5 505.0Q70 511 103 511Q150 511 216 506L274 502L271 520Q269 530 264.5 542.5Q260 555 258 576Q255 600 250.5 617.5Q246 635 242.5 643.0Q239 651 239 654ZM357 430Q333 430 333 417Q333 411 336.0 388.5Q339 366 339 355Q339 336 347 315Q353 299 356.0 296.0Q359 293 371 294Q381 294 390.5 297.5Q400 301 409 301Q416 301 436.5 298.0Q457 295 461 296Q465 296 481.5 298.0Q498 300 502 301Q507 301 507 319Q507 328 505.5 351.0Q504 374 503 393L502 412Q501 416 471.5 422.0Q442 428 425 428Q399 426 395 426Q385 426 374.0 428.0Q363 430 357 430Z" transform="translate(0.00,958.33) scale(0.9583,-0.9583)" fill="#000000" />
  <path d="M373 213Q337 213 302.5 204.0Q268 195 264 195Q223 195 183 216Q138 239 125.5 268.0Q113 297 111 375Q109 439 103.5 454.0Q98 469 98 479Q98 515 114 533Q123 542 133 560Q143 579 158.0 584.0Q173 589 225 589H278Q339 589 357.5 592.5Q376 596 399 596Q459 597 524.5 605.0Q590 613 600 613Q627 613 657.0 602.5Q687 592 692 592Q704 592 720.5 585.0Q737 578 744 578Q759 578 773 558Q783 544 792.5 485.5Q802 427 802 383Q802 369 800.0 352.0Q798 335 798 322V303Q798 286 792.0 276.0Q786 266 786 255Q786 253 786.5 250.0Q787 247 787 246Q787 241 774 241Q762 241 757.5 236.5Q753 232 750 234H748Q744 234 701.0 222.5Q658 211 640 211Q638 211 636.0 212.0Q634 213 625.0 214.0Q616 215 598 215Q569 215 548.5 212.5Q528 210 518.5 208.0Q509 206 506 206Q504 206 491.5 209.5Q479 213 455 213Q439 213 428.5 211.0Q418 209 413.5 207.0Q409 205 408.0 205.0Q407 205 404.0 207.0Q401 209 393.5 211.0Q386 213 373 213ZM724 386Q724 387 727.5 393.5Q731 400 731 413Q731 421 729.0 447.5Q727 474 727 483Q727 520 701 525Q693 526 682.5 531.0Q672 536 653 538Q618 543 587 543L580 542Q574 541 562.0 539.5Q550 538 533.0 536.5Q516 535 491.5 533.0Q467 531 439.0 529.5Q411 528 374.0 526.5Q337 525 298 525Q198 523 188 517Q183 513 183 499Q183 489 179 489Q176 489 176 451Q176 343 184 317Q189 303 201.5 293.0Q214 283 227 283Q236 283 245.0 278.5Q254 274 264 274Q277 274 311.5 278.5Q346 283 367 283Q380 283 423.0 281.5Q466 280 500 280Q563 280 617.5 283.5Q672 287 675 292Q679 298 686 294H690Q698 294 710.5 301.0Q723 308 727 315Q731 323 731 346Q731 363 728 374Z" transform="translate(942.50,958.33) scale(0.9583,-0.9583)" fill="#000000" />
</svg>
