<?xml version="1.0" encoding="UTF-8" standalone="no"?>
<!--
Representation of "USA" in sitelen kalama pona
Generated by generate_sitelen_kalama_pona.py

Description:
  Representation of "USA" in sitelen kalama pona.
  Sources: u: https://commons.wikimedia.org/wiki/File:Sitelen_kalama_pona_-_xu.svg; sa: https://commons.wikimedia.org/wiki/File:Sitelen_kalama_pona_-_sa.svg

Categories:
  [[Category:Sitelen kalama pona]]
  [[Category:Toki Pona text containing sound symbol U]]
  [[Category:Toki Pona text containing sound symbol Sa]]

Sources:
  u: https://commons.wikimedia.org/wiki/File:Sitelen_kalama_pona_-_xu.svg
  sa: https://commons.wikimedia.org/wiki/File:Sitelen_kalama_pona_-_sa.svg
-->
<svg version="1.1" width="3220" height="1000"
     viewBox="0 0 3220 1000"
     xmlns="http://www.w3.org/2000/svg">
  <path d="M 24.637998,12.488337 H 20.72216 q -1.48166,0 -2.54,-1.058333 -1.05833,-1.058333 -1.05833,-2.54 V 3.598338 q 0,-1.481667 1.05833,-2.54 Q 19.2405,4e-6 20.72216,4e-6 h 3.915838 V 0.846671 H 20.72216 q -1.13241,0 -1.94733,0.814917 -0.80433,0.804333 -0.80433,1.93675 v 5.291666 q 0,1.132417 0.80433,1.93675 0.81492,0.814917 1.94733,0.814917 h 3.915838 z" transform="translate(-1371.19,0.00) scale(80.0747,80.0747)" fill="#000000" />
  <path d="M 75.014662,0.846671 V 4e-6 h 13.123333 v 0.846667 z m 0,11.641666 v -0.846666 h 13.123333 v 0.846666 z" transform="translate(-5405.08,0.00) scale(80.0747,80.0747)" fill="#000000" />
  <path d="M 75.014662,0.846671 V 4e-6 h 13.123333 v 0.846667 z m 0,11.641666 v -0.846666 h 13.123333 v 0.846666 z" transform="translate(-4354.24,0.00) scale(80.0747,80.0747)" fill="#000000" />
  <path d="m 87.714667,4e-6 h 2.8575 q 1.481666,0 2.54,1.058334 1.058333,1.058333 1.058333,2.54 v 5.291666 q 0,1.481667 -1.058333,2.54 -1.058334,1.058333 -2.54,1.058333 h -2.8575 v -0.846666 h 2.8575 q 1.132416,0 1.93675,-0.814917 0.814916,-0.804333 0.814916,-1.93675 V 3.598338 q 0,-1.132417 -0.814916,-1.93675 -0.804334,-0.814917 -1.93675,-0.814917 h -2.8575 z" transform="translate(-4320.34,0.00) scale(80.0747,80.0747)" fill="#000000" />
  <path d="M 158.86,260.96 C 158.86,375.30 172.34,489.24 172.34,605.15 C 172.34,612.62 172.28,620.11 172.16,627.61 C 314.43,454.35 415.10,210.75 555.34,32.56 C 560.08,26.53 567.27,23.00 575.00,23.00 C 576.69,23.00 592.25,23.43 598.28,38.88 C 690.29,274.49 789.49,460.57 895.99,710.17 C 897.33,713.30 898.00,716.65 898.00,720.00 L 898.00,724.00 C 898.00,737.57 887.19,748.65 873.63,748.99 C 761.86,752.10 647.89,753.01 535.00,755.00 C 534.77,755.00 534.77,755.00 239.55,747.02 C 232.96,747.47 226.43,747.73 219.99,747.73 C 190.91,747.73 163.07,742.38 143.35,726.91 C 143.35,726.91 140.93,727.71 140.88,727.73 L 139.54,723.70 C 130.76,715.79 116.52,699.23 116.52,668.14 C 116.52,656.75 118.44,644.61 122.08,632.03 C 122.26,623.14 122.34,614.25 122.34,605.35 C 122.34,491.21 108.87,377.16 108.87,261.26 C 108.87,213.49 110.62,210.87 110.62,171.38 C 110.62,164.03 110.58,156.36 110.58,149.79 C 110.58,119.40 111.33,87.26 120.00,54.62 L 120.00,46.00 L 170.00,46.00 L 170.00,58.00 C 170.00,73.77 160.59,69.55 160.59,154.29 C 160.59,160.59 160.61,165.97 160.61,172.20 C 160.61,183.61 160.52,195.22 159.97,207.08 C 159.20,225.03 158.86,242.99 158.86,260.96  Z M 182.63,692.16 C 193.68,696.58 208.26,697.69 220.64,697.69 C 230.57,697.69 236.84,697.00 239.00,697.00 C 239.34,697.00 239.32,700.35 535.15,705.00 C 635.72,706.58 737.20,702.33 837.13,699.89 C 746.58,491.18 651.15,303.64 568.18,98.52 C 434.81,282.24 334.57,523.73 182.63,692.16 Z" transform="translate(727.12,100.00) scale(0.8000,0.8000)" fill="#000000" />
  <path d="M 577.64,565.25 C 577.64,456.40 383.33,439.54 383.33,286.00 C 383.33,215.36 440.44,158.77 504.81,136.38 L 521.24,183.61 C 500.67,190.76 479.72,203.37 463.83,219.27 C 444.85,238.24 433.32,260.88 433.32,285.95 C 433.32,342.59 469.36,371.28 522.33,411.26 C 572.69,449.26 627.55,490.67 627.55,565.94 C 627.55,572.64 627.10,579.52 626.16,586.58 C 626.55,591.04 626.73,595.49 626.73,599.92 C 626.73,670.56 579.14,737.39 510.17,757.95 C 506.95,758.91 506.95,758.91 415.57,760.99 L 414.43,711.01 L 498.87,709.09 C 546.17,693.40 576.72,646.05 576.72,599.58 C 576.72,594.79 576.00,586.14 576.00,586.00 C 576.00,581.85 577.64,576.17 577.64,565.25  Z M 197.72,446.47 C 197.72,492.62 208.00,522.50 208.00,530.00 C 208.00,532.16 186.84,735.12 185.86,744.60 C 185.86,744.60 136.14,739.44 136.14,739.40 C 157.70,531.63 157.70,531.63 157.70,531.63 C 151.03,502.59 147.85,474.33 147.85,447.12 C 147.85,258.30 300.17,123.35 494.47,123.35 C 520.32,123.35 546.83,125.74 573.72,130.70 C 575.87,130.50 577.95,130.42 579.99,130.42 C 597.86,130.42 618.35,135.00 635.00,135.00 C 637.38,135.00 637.38,135.00 723.71,151.45 C 723.71,151.45 714.35,200.56 714.29,200.55 C 633.32,185.13 633.32,185.13 633.32,185.13 C 632.48,185.15 631.65,185.17 630.82,185.17 C 617.86,185.17 593.41,180.49 579.47,180.49 C 576.64,180.49 576.40,181.00 573.00,181.00 C 566.76,181.00 538.47,173.33 494.42,173.33 C 329.07,173.33 197.72,285.24 197.72,446.47 Z" transform="translate(1777.97,100.00) scale(0.8000,0.8000)" fill="#000000" />
</svg>
