<?xml version="1.0" encoding="UTF-8" standalone="no"?>
<!--
Representation of "jan Tuwi Atakalawa" in sitelen ilo pona
Generated by generate_sitelen_kalama_pona.py

Description:
  Representation of "jan Tuwi Atakalawa" in sitelen ilo pona.
  Sources: jan: https://commons.wikimedia.org/wiki/File:Sitelen_seli_kiwen_-_jan.svg; tu: https://commons.wikimedia.org/wiki/File:Sitelen_kalama_pona_-_tu.svg; wi: https://commons.wikimedia.org/wiki/File:Sitelen_kalama_pona_-_wi.svg; a: https://commons.wikimedia.org/wiki/File:Sitelen_kalama_pona_-_xa.svg; ta: https://commons.wikimedia.org/wiki/File:Sitelen_kalama_pona_-_ta.svg; ka: https://commons.wikimedia.org/wiki/File:Sitelen_kalama_pona_-_ka.svg; la: https://commons.wikimedia.org/wiki/File:Sitelen_kalama_pona_-_la.svg; wa: https://commons.wikimedia.org/wiki/File:Sitelen_kalama_pona_-_wa.svg

Categories:
  [[Category:Sitelen kalama pona]]
  [[Category:Toki Pona text containing jan]]
  [[Category:Toki Pona text containing sound symbol Tu]]
  [[Category:Toki Pona text containing sound symbol Wi]]
  [[Category:Toki Pona text containing sound symbol A]]
  [[Category:Toki Pona text containing sound symbol Ta]]
  [[Category:Toki Pona text containing sound symbol Ka]]
  [[Category:Toki Pona text containing sound symbol La]]
  [[Category:Toki Pona text containing sound symbol Wa]]

Sources:
  jan: https://commons.wikimedia.org/wiki/File:Sitelen_seli_kiwen_-_jan.svg
  tu: https://commons.wikimedia.org/wiki/File:Sitelen_kalama_pona_-_tu.svg
  wi: https://commons.wikimedia.org/wiki/File:Sitelen_kalama_pona_-_wi.svg
  a: https://commons.wikimedia.org/wiki/File:Sitelen_kalama_pona_-_xa.svg
  ta: https://commons.wikimedia.org/wiki/File:Sitelen_kalama_pona_-_ta.svg
  ka: https://commons.wikimedia.org/wiki/File:Sitelen_kalama_pona_-_ka.svg
  la: https://commons.wikimedia.org/wiki/File:Sitelen_kalama_pona_-_la.svg
  wa: https://commons.wikimedia.org/wiki/File:Sitelen_kalama_pona_-_wa.svg
-->
<svg version="1.1" width="9417" height="1000"
     viewBox="0 0 9417 1000"
     xmlns="http://www.w3.org/2000/svg">
  <path d="M342 672Q345 672 355.5 678.0Q366 684 393.0 690.5Q420 697 463 697Q487 697 550 690Q586 686 595.0 682.5Q604 679 619 663Q641 641 641 638Q641 634 648.0 634.0Q655 634 655 630Q655 626 676.0 610.0Q697 594 697 591Q697 589 703.0 576.5Q709 564 715.5 548.0Q722 532 723 521Q727 503 730 501Q734 498 734 448Q734 420 733.0 405.0Q732 390 730.0 388.0Q728 386 726.5 383.0Q725 380 725 374Q725 365 718.0 357.5Q711 350 711 346Q711 341 680.5 301.0Q650 261 650.0 257.0Q650 253 676.0 224.5Q702 196 702 194Q702 192 718.0 172.5Q734 153 734 146Q734 140 751.5 119.5Q769 99 769 85Q769 50 748 50Q726 50 715.0 59.0Q704 68 704 77Q704 82 686.5 103.0Q669 124 668 126Q663 140 624.0 182.5Q585 225 577 225Q577 225 574.5 222.5Q572 220 563.0 216.0Q554 212 538 210Q532 209 525.0 206.5Q518 204 504.5 202.5Q491 201 465 201Q413 201 370.5 206.0Q328 211 320 211Q307 211 291.5 190.0Q276 169 272 167Q266 166 266 156Q266 151 264.0 148.0Q262 145 256.5 139.5Q251 134 245 126Q240 118 229.5 105.5Q219 93 211.5 83.0Q204 73 202 66Q199 51 194 51Q187 51 163.0 56.5Q139 62 136 64Q133 67 131 85Q130 97 132.5 102.0Q135 107 145 115Q167 132 186.0 152.0Q205 172 209 184Q209 186 224.0 215.5Q239 245 242 247Q246 250 246.0 253.0Q246 256 234.5 264.0Q223 272 221.5 278.0Q220 284 202.0 305.5Q184 327 184 329Q184 331 177 340Q170 347 161.5 378.0Q153 409 153 427Q153 427 153.5 432.5Q154 438 154.0 445.5Q154 453 154 458Q154 475 173.5 510.5Q193 546 200 549Q213 554 226.5 578.0Q240 602 242 602Q244 602 288.0 637.0Q332 672 342 672ZM567 616Q544 628 527.0 631.0Q510 634 457 634Q428 634 416.0 627.5Q404 621 388 621Q353 621 308.5 590.0Q264 559 232.5 514.5Q201 470 201 435Q201 422 210.0 408.5Q219 395 219 390Q219 383 239.0 360.5Q259 338 268 334Q276 331 285.5 317.0Q295 303 301 302Q311 300 327.5 292.5Q344 285 351 278Q363 268 407.0 262.0Q451 256 483 256Q514 256 540.0 266.0Q566 276 579.5 286.5Q593 297 594 297Q600 297 611.0 306.0Q622 315 622 320Q622 322 624.5 324.0Q627 326 631.0 329.0Q635 332 643.0 344.0Q651 356 660 375Q672 399 675.0 409.0Q678 419 678 433Q678 455 675.0 471.0Q672 487 668.0 496.5Q664 506 653 528Q641 554 632.0 566.5Q623 579 619.0 579.5Q615 580 611.5 582.0Q608 584 604 591Q601 599 567 616Z" transform="translate(0.00,958.33) scale(0.9583,-0.9583)" fill="#000000" />
  <path d="M 24.637998,12.488337 H 20.72216 q -1.48166,0 -2.54,-1.058333 -1.05833,-1.058333 -1.05833,-2.54 V 3.598338 q 0,-1.481667 1.05833,-2.54 Q 19.2405,4e-6 20.72216,4e-6 h 3.915838 V 0.846671 H 20.72216 q -1.13241,0 -1.94733,0.814917 -0.80433,0.804333 -0.80433,1.93675 v 5.291666 q 0,1.132417 0.80433,1.93675 0.81492,0.814917 1.94733,0.814917 h 3.915838 z" transform="translate(-428.69,0.00) scale(80.0747,80.0747)" fill="#000000" />
  <path d="M 75.014662,0.846671 V 4e-6 h 13.123333 v 0.846667 z m 0,11.641666 v -0.846666 h 13.123333 v 0.846666 z" transform="translate(-4462.58,0.00) scale(80.0747,80.0747)" fill="#000000" />
  <path d="M 75.014662,0.846671 V 4e-6 h 13.123333 v 0.846667 z m 0,11.641666 v -0.846666 h 13.123333 v 0.846666 z" transform="translate(-3411.74,0.00) scale(80.0747,80.0747)" fill="#000000" />
  <path d="M 75.014662,0.846671 V 4e-6 h 13.123333 v 0.846667 z m 0,11.641666 v -0.846666 h 13.123333 v 0.846666 z" transform="translate(-2360.89,0.00) scale(80.0747,80.0747)" fill="#000000" />
  <path d="M 75.014662,0.846671 V 4e-6 h 13.123333 v 0.846667 z m 0,11.641666 v -0.846666 h 13.123333 v 0.846666 z" transform="translate(-1310.04,0.00) scale(80.0747,80.0747)" fill="#000000" />
  <path d="M 75.014662,0.846671 V 4e-6 h 13.123333 v 0.846667 z m 0,11.641666 v -0.846666 h 13.123333 v 0.846666 z" transform="translate(-259.19,0.00) scale(80.0747,80.0747)" fill="#000000" />
  <path d="M 75.014662,0.846671 V 4e-6 h 13.123333 v 0.846667 z m 0,11.641666 v -0.846666 h 13.123333 v 0.846666 z" transform="translate(791.65,0.00) scale(80.0747,80.0747)" fill="#000000" />
  <path d="M 75.014662,0.846671 V 4e-6 h 13.123333 v 0.846667 z m 0,11.641666 v -0.846666 h 13.123333 v 0.846666 z" transform="translate(1842.50,0.00) scale(80.0747,80.0747)" fill="#000000" />
  <path d="m 87.714667,4e-6 h 2.8575 q 1.481666,0 2.54,1.058334 1.058333,1.058333 1.058333,2.54 v 5.291666 q 0,1.481667 -1.058333,2.54 -1.058334,1.058333 -2.54,1.058333 h -2.8575 v -0.846666 h 2.8575 q 1.132416,0 1.93675,-0.814917 0.814916,-0.804333 0.814916,-1.93675 V 3.598338 q 0,-1.132417 -0.814916,-1.93675 -0.804334,-0.814917 -1.93675,-0.814917 h -2.8575 z" transform="translate(1876.40,0.00) scale(80.0747,80.0747)" fill="#000000" />
  <path d="M 260.09,560.44 C 259.70,560.44 235.36,560.07 221.70,555.91 C 124.94,526.48 97.36,437.72 86.48,385.09 C 74.15,325.46 73.79,260.88 73.30,204.44 C 73.10,181.64 72.91,160.18 72.03,141.16 L 121.97,138.84 C 122.91,159.23 123.09,181.19 123.29,204.01 C 124.42,335.38 128.02,474.38 235.35,507.79 C 243.78,509.57 252.00,510.42 260.03,510.42 C 331.63,510.42 387.84,442.62 437.05,382.33 C 447.11,370.02 456.77,358.17 466.30,347.40 L 503.73,380.56 C 479.22,408.22 450.07,448.28 414.87,483.48 C 374.92,523.44 323.50,560.44 260.09,560.44  Z M 801.30,744.78 C 792.75,748.64 745.85,751.82 714.58,751.82 C 650.00,751.82 547.29,741.74 489.44,683.90 C 468.82,663.28 448.35,630.59 448.35,582.09 C 448.35,562.72 451.59,541.96 458.15,519.80 L 470.02,215.02 C 470.02,215.02 519.98,216.97 519.98,216.98 C 507.98,524.98 507.98,524.98 507.98,524.98 C 507.68,532.68 498.34,553.25 498.34,582.09 C 498.34,616.35 512.50,636.25 524.80,648.54 C 542.19,665.94 592.83,701.75 714.80,701.75 C 738.75,701.75 762.01,700.28 782.88,697.81 C 789.54,694.80 795.71,694.71 799.93,694.71 C 811.98,694.71 822.02,697.88 831.92,698.52 L 823.47,703.12 L 818.34,715.92 L 867.68,708.02 C 867.99,709.96 868.18,712.13 868.18,714.43 C 868.18,724.70 863.00,748.50 831.61,748.50 C 820.29,748.50 811.02,745.68 801.30,744.78  Z M 275.00,239.00 L 275.00,189.00 L 769.74,189.00 L 784.49,187.53 C 784.49,187.53 798.83,181.16 798.86,181.14 L 819.17,226.84 C 797.51,236.47 797.51,236.47 793.51,236.87 C 772.26,239.00 772.26,239.00 771.00,239.00 L 275.00,239.00 Z" transform="translate(1669.62,100.00) scale(0.8000,0.8000)" fill="#000000" />
  <path d="M 178.29,277.39 C 178.29,276.09 177.65,255.13 177.65,254.90 C 177.65,234.20 182.19,225.03 189.87,217.79 L 224.13,254.21 C 225.61,252.44 226.72,250.31 228.05,248.40 C 227.90,249.14 227.78,251.99 227.78,255.85 C 227.78,258.59 228.38,276.70 228.38,276.91 C 228.38,286.09 227.13,288.79 227.13,302.45 C 227.13,326.43 231.74,354.12 240.88,379.68 C 246.27,394.78 273.28,466.05 332.27,469.04 C 338.14,469.33 351.83,474.59 371.42,474.59 C 396.46,474.59 445.27,467.99 461.84,354.49 C 461.26,346.85 460.98,339.20 460.98,331.62 C 460.98,307.86 463.74,284.71 468.70,264.11 C 471.38,253.03 481.33,245.00 493.00,245.00 C 506.81,245.00 518.00,256.19 518.00,270.00 C 518.00,270.86 517.54,316.01 512.18,355.80 C 514.66,382.35 526.76,456.09 584.57,456.09 C 590.84,456.09 597.81,455.30 605.61,453.59 C 606.28,453.44 606.95,453.32 607.63,453.23 C 703.50,440.29 739.18,318.31 748.29,258.23 C 750.13,246.09 760.58,237.00 773.00,237.00 C 785.39,237.00 795.81,246.03 797.70,258.13 C 809.13,331.57 802.56,409.36 807.88,481.56 C 810.07,499.84 811.15,517.12 811.15,533.43 C 811.15,742.33 635.97,762.20 510.75,762.20 C 428.76,762.20 340.51,752.43 267.51,752.43 C 258.04,752.43 248.87,752.60 240.06,752.97 L 237.92,703.03 C 247.75,702.61 257.81,702.42 268.09,702.42 C 342.07,702.42 428.91,712.11 511.12,712.11 C 671.94,712.11 761.25,672.71 761.25,534.39 C 761.25,519.95 760.27,504.20 758.19,487.03 C 756.72,474.93 755.66,438.72 755.32,396.17 C 738.81,426.01 696.51,491.18 615.38,502.63 C 605.21,504.79 595.40,505.83 586.01,505.83 C 565.78,505.83 518.64,501.25 487.51,447.06 C 476.62,469.94 445.60,524.58 371.44,524.58 C 357.52,524.58 342.74,522.66 327.12,518.80 C 229.63,511.80 177.10,394.51 177.10,303.13 C 177.10,288.31 178.29,283.12 178.29,277.39  Z M 482.30,108.14 C 483.59,111.08 486.57,118.29 486.57,127.60 C 486.57,129.56 486.43,131.56 486.14,133.60 C 486.19,134.69 486.21,135.80 486.21,136.92 C 486.21,172.64 462.69,186.48 449.67,192.62 C 446.30,194.20 442.65,195.00 439.00,195.00 C 431.66,195.00 430.03,192.63 424.28,191.27 C 415.92,189.30 389.88,183.14 389.88,153.76 C 389.88,119.99 410.49,102.84 431.07,86.65 C 438.71,80.63 443.00,77.05 445.85,73.91 C 445.85,73.91 446.30,72.79 446.34,72.81 C 447.07,73.10 467.42,81.42 479.61,102.81 L 483.80,106.49 C 483.30,107.05 482.80,107.60 482.30,108.14 Z" transform="translate(2720.47,100.00) scale(0.8000,0.8000)" fill="#000000" />
  <path d="M 457.02,666.69 C 456.60,667.48 420.13,731.68 413.26,744.54 C 480.65,733.33 546.25,731.82 631.91,730.04 C 706.68,719.20 787.62,721.53 861.83,716.02 C 849.49,692.25 843.96,681.58 833.54,668.70 C 824.91,658.02 720.62,468.66 629.58,334.03 C 626.67,338.61 626.20,339.35 623.73,341.58 C 535.96,420.70 537.88,561.78 457.02,666.69  Z M 370.00,804.00 C 356.19,804.00 345.00,792.81 345.00,779.00 C 345.00,776.62 345.34,774.23 346.02,771.93 C 354.08,744.47 375.01,709.50 393.75,676.97 C 393.97,676.57 415.60,638.50 416.29,637.62 C 491.15,541.89 488.84,398.52 587.58,306.88 C 591.73,300.38 594.73,296.42 598.83,289.73 C 546.46,216.35 495.83,156.12 444.47,105.06 C 391.17,198.47 349.00,299.17 306.58,400.64 C 306.07,401.86 263.39,503.93 254.64,522.62 L 143.64,759.62 C 143.64,759.62 98.36,738.41 98.36,738.38 L 209.24,501.64 C 226.73,462.00 243.55,421.75 260.45,381.32 C 307.00,269.97 354.06,157.15 417.60,52.07 C 419.15,49.50 425.79,40.00 439.00,40.00 C 445.15,40.00 451.30,42.26 456.10,46.77 C 605.10,186.66 707.52,354.94 831.60,567.16 C 845.71,591.30 859.69,615.21 873.63,638.77 C 897.87,669.36 906.72,700.11 923.64,721.52 C 927.21,726.05 929.00,731.52 929.00,737.00 C 929.00,749.65 919.58,760.24 907.14,761.80 C 818.95,772.88 722.27,767.24 637.68,779.73 C 621.18,782.16 480.15,776.97 376.15,803.23 C 374.13,803.74 372.07,804.00 370.00,804.00 Z" transform="translate(3771.31,100.00) scale(0.8000,0.8000)" fill="#000000" />
  <path d="M 606.00,542.00 C 606.00,546.18 603.91,554.87 603.91,568.08 C 603.91,626.37 650.88,632.48 740.82,636.50 C 786.76,638.55 832.37,640.59 866.94,657.93 L 914.83,665.30 C 914.83,665.30 907.22,714.71 907.17,714.70 C 855.17,706.70 855.17,706.70 855.17,706.70 C 845.62,705.23 841.04,697.37 807.61,691.96 C 759.76,684.22 697.95,688.78 646.90,677.14 C 616.57,670.23 554.06,650.54 554.06,566.86 C 554.06,558.44 554.70,549.61 555.98,540.37 C 555.66,515.94 555.39,491.39 555.39,466.76 C 555.39,362.05 560.27,255.89 586.78,151.80 C 586.78,151.80 635.23,164.14 635.22,164.20 C 610.19,262.47 605.41,365.06 605.41,468.94 C 605.41,502.99 606.00,541.27 606.00,542.00  Z M 188.61,713.52 C 253.17,713.52 264.03,634.00 272.00,554.74 L 272.00,472.00 C 272.00,458.65 280.28,461.80 280.28,420.74 C 280.28,419.96 279.71,388.35 279.71,388.02 C 279.71,353.88 280.47,395.07 291.49,306.05 C 298.20,251.85 305.43,193.50 340.54,158.39 C 358.87,140.06 384.10,129.89 414.62,129.89 C 420.36,129.89 426.27,130.25 432.37,130.98 L 791.06,125.03 C 791.06,125.03 991.54,97.24 991.59,97.24 L 998.46,146.76 C 804.56,173.63 795.49,174.96 793.42,174.99 L 431.00,181.00 C 427.46,181.00 422.24,179.74 413.12,179.74 C 360.94,179.74 351.03,232.07 341.10,312.24 C 338.20,335.68 335.46,358.94 329.84,379.96 C 329.75,382.50 329.71,385.14 329.71,387.86 C 329.71,389.00 330.44,424.31 330.44,424.67 C 330.44,441.15 329.05,459.17 322.00,477.10 L 322.00,556.00 C 322.00,557.04 317.74,616.22 305.93,658.28 C 298.73,683.89 274.89,763.28 187.01,763.28 C 178.49,763.28 169.59,762.51 160.32,760.91 C 114.76,759.15 63.76,752.23 19.97,735.32 C 19.97,735.32 37.99,688.67 38.03,688.68 C 93.01,709.92 166.24,711.18 167.53,711.42 C 175.39,712.86 182.37,713.52 188.61,713.52 Z" transform="translate(4822.16,100.00) scale(0.8000,0.8000)" fill="#000000" />
  <path d="M 235.77,643.31 C 235.77,651.79 236.00,656.96 236.00,658.00 L 236.00,704.00 L 186.00,704.00 L 186.00,658.38 C 185.85,653.24 185.78,648.11 185.78,643.00 C 185.78,589.09 193.92,537.14 201.71,486.75 C 204.73,467.20 207.71,447.87 210.22,428.73 C 210.91,423.48 212.27,424.09 212.27,414.93 C 212.27,414.74 211.69,397.42 211.69,396.83 C 211.69,389.56 211.69,389.56 215.39,367.94 C 217.73,354.27 220.20,339.84 222.06,327.75 C 223.09,292.37 228.16,260.48 228.16,227.82 C 228.16,223.01 228.00,218.10 228.00,218.00 C 228.00,213.64 229.45,210.87 229.45,189.48 C 229.45,188.94 228.50,136.10 228.50,135.56 C 228.50,104.77 228.50,20.54 303.91,11.20 C 304.93,11.07 305.97,11.00 307.00,11.00 C 417.90,11.00 500.44,96.50 559.09,160.73 L 572.68,174.32 L 537.32,209.68 C 522.91,195.27 522.91,195.27 522.52,194.84 C 464.36,131.12 395.62,62.39 308.58,61.01 C 288.87,64.03 278.57,79.66 278.57,136.86 C 278.57,156.11 279.53,174.47 279.53,190.46 C 279.53,200.32 279.18,209.97 278.04,219.26 C 278.12,222.22 278.15,225.16 278.15,228.08 C 278.15,264.05 272.86,296.47 271.99,330.64 C 271.82,337.02 261.71,389.45 261.71,396.59 C 261.71,402.78 262.37,409.14 262.37,415.72 C 262.37,422.05 261.80,429.41 259.51,437.37 C 256.96,456.56 254.02,475.57 251.11,494.44 C 243.30,544.98 235.77,594.40 235.77,643.31  Z M 543.81,527.98 L 582.22,559.99 L 484.07,677.76 L 477.36,691.19 L 432.63,668.82 C 436.42,661.91 439.21,654.17 443.78,648.01 C 443.78,648.01 543.78,528.01 543.81,527.98  Z M 733.00,639.00 C 733.15,639.00 740.71,639.31 747.60,639.31 C 757.58,639.31 797.07,639.31 818.26,623.81 C 818.26,623.81 847.78,664.17 847.74,664.19 C 833.58,674.56 805.84,689.32 748.28,689.32 C 742.85,689.32 737.68,689.20 732.83,689.01 C 731.20,689.05 729.57,689.07 727.95,689.07 C 665.32,689.07 582.68,659.26 527.28,529.52 C 507.20,482.51 495.14,432.68 488.32,389.97 C 488.28,389.75 487.39,382.24 487.39,368.25 C 487.39,245.04 565.29,108.32 695.60,101.04 C 696.06,101.02 696.53,101.00 697.00,101.00 L 727.00,101.00 L 727.00,151.00 L 697.73,151.00 C 592.35,157.37 537.41,278.21 537.41,369.06 C 537.41,373.82 537.56,378.52 537.86,383.15 C 548.86,451.23 591.53,639.08 727.73,639.08 C 729.89,639.08 732.95,639.00 733.00,639.00 Z" transform="translate(5873.01,100.00) scale(0.8000,0.8000)" fill="#000000" />
  <path d="M 137.42,727.97 C 137.42,724.96 138.01,720.78 140.14,716.64 C 140.05,715.76 140.00,714.88 140.00,714.00 C 140.00,711.03 140.53,708.05 141.59,705.23 C 204.75,536.10 130.88,250.01 265.37,116.27 C 270.25,111.43 276.62,109.00 283.00,109.00 C 296.38,109.00 327.97,129.53 348.28,149.84 C 428.95,230.51 430.02,370.47 430.97,494.26 C 431.32,539.74 431.72,582.36 435.82,617.05 C 435.84,617.20 436.43,623.29 436.43,632.20 C 436.43,646.65 434.85,661.28 431.77,675.17 L 813.12,677.01 C 813.12,677.01 812.88,726.99 812.88,726.99 C 396.88,724.99 396.88,724.99 396.88,724.99 C 383.11,724.93 372.00,713.77 372.00,700.00 C 372.00,696.20 372.86,692.40 374.58,688.92 C 381.54,674.85 386.39,651.83 386.39,630.82 C 386.39,627.95 386.30,625.12 386.11,622.35 C 375.38,530.47 388.56,401.56 367.48,299.97 C 352.35,227.03 323.36,187.73 288.31,165.45 C 195.08,281.64 246.48,525.80 197.36,695.64 C 205.96,698.41 220.41,705.61 220.41,722.72 C 220.41,749.15 190.99,751.32 176.67,752.37 C 173.09,752.64 169.85,752.84 167.41,752.99 C 166.78,753.03 166.20,753.00 165.66,753.00 C 165.55,753.00 165.45,753.00 165.35,753.00 C 165.26,753.00 165.17,753.01 165.08,753.01 C 164.00,753.05 163.35,753.07 163.07,753.08 C 162.26,752.98 160.88,753.14 158.62,752.80 C 141.18,750.15 137.42,734.26 137.42,727.97  Z M 177.36,709.28 L 177.27,739.64 L 180.08,741.72 L 180.08,710.41 L 177.36,709.28  Z M 167.35,748.98 C 173.05,747.32 180.08,745.77 180.08,745.77 L 180.08,742.68 C 177.55,742.00 173.21,740.98 167.20,739.81 L 167.35,748.98 Z" transform="translate(6923.85,100.00) scale(0.8000,0.8000)" fill="#000000" />
  <path d="M 184.38,603.07 C 184.38,619.66 179.99,631.36 179.99,643.91 L 130.01,644.09 C 130.00,643.96 130.00,643.83 130.00,643.71 C 130.00,626.09 134.39,613.74 134.39,602.97 C 134.39,599.52 134.00,598.63 134.00,596.00 C 134.00,572.39 141.02,494.57 141.02,442.55 C 141.02,413.96 139.64,414.42 139.64,377.95 C 139.64,286.32 150.35,77.39 291.04,30.30 C 293.62,29.44 296.31,29.00 299.00,29.00 C 311.77,29.00 332.18,43.47 342.91,54.20 C 382.83,94.12 386.03,157.56 386.03,208.75 C 386.03,220.90 386.03,221.95 385.64,224.21 C 384.66,229.95 384.20,235.81 384.20,241.67 C 384.20,281.58 406.11,325.38 443.03,332.30 C 479.72,311.28 489.71,225.28 492.11,195.29 C 490.31,167.55 488.39,132.39 488.39,108.14 C 488.39,87.09 489.71,79.35 497.01,72.05 C 500.14,68.92 506.81,64.66 515.07,64.66 C 540.07,64.66 541.82,91.26 543.05,109.98 C 543.69,119.81 544.13,131.97 544.13,145.70 C 544.13,152.27 544.07,171.76 542.25,195.89 C 542.27,196.15 544.00,221.22 544.00,222.00 C 544.00,224.14 543.34,230.15 543.34,239.79 C 543.34,275.62 553.16,320.92 602.86,320.92 C 653.85,320.92 724.98,271.74 737.04,203.54 C 737.05,201.81 737.06,199.97 737.06,198.04 C 737.06,185.63 736.66,174.01 735.62,156.45 C 732.53,143.32 730.11,141.35 730.01,134.36 C 729.94,129.75 729.91,125.76 729.91,122.31 C 729.91,101.66 730.91,96.13 738.02,89.02 C 741.14,85.90 747.81,81.67 756.02,81.67 C 759.85,81.67 777.38,82.91 781.26,105.15 C 782.36,111.46 783.87,126.13 785.32,149.67 C 787.64,161.00 788.73,172.15 788.73,183.05 C 788.73,190.45 788.23,197.73 787.27,204.87 C 787.28,206.17 787.29,207.43 787.29,208.66 C 787.29,215.10 787.09,220.65 786.04,226.36 C 786.78,262.00 789.77,310.15 789.77,353.76 C 789.77,445.84 780.66,614.38 612.04,614.38 C 598.56,614.38 584.27,613.27 569.18,611.01 L 321.20,612.99 L 320.80,563.01 L 571.00,561.00 C 571.42,561.00 595.53,564.55 613.31,564.55 C 709.24,564.55 739.69,492.00 739.69,353.34 C 739.69,337.31 739.32,321.18 738.80,305.28 C 726.08,319.20 674.06,370.93 603.47,370.93 C 563.61,370.93 532.13,353.09 513.47,322.82 C 490.16,371.46 456.59,383.00 447.00,383.00 C 444.66,383.00 408.52,382.47 376.67,350.62 C 349.08,323.03 334.11,282.95 334.11,242.61 C 334.11,225.02 336.02,225.35 336.02,212.10 C 336.02,161.49 333.44,104.28 297.37,81.39 C 205.31,121.59 189.64,277.46 189.64,378.93 C 189.64,383.95 191.03,442.24 191.03,442.88 C 191.03,474.28 189.09,504.89 187.22,534.95 C 185.96,555.23 184.71,575.27 184.04,595.17 C 184.28,597.90 184.38,600.54 184.38,603.07 Z" transform="translate(7974.70,100.00) scale(0.8000,0.8000)" fill="#000000" />
</svg>
