<?xml version="1.0" encoding="UTF-8" standalone="no"?>
<!--
Representation of "kulupu:ma pi telo lili" in sitelen ilo pona
Generated by generate_sitelen_kalama_pona.py

Description:
  Representation of "kulupu:ma pi telo lili" in sitelen ilo pona.
  Sources: pi: https://commons.wikimedia.org/wiki/File:Sitelen_seli_kiwen_-_pi.svg; telo-lili: https://commons.wikimedia.org/wiki/File:Sitelen_seli_kiwen_-_telo-lili.svg

Categories:
  [[Category:Sitelen kalama pona]]
  [[Category:Toki Pona text containing kulupu:ma pi telo lili]]

Sources:
  pi: https://commons.wikimedia.org/wiki/File:Sitelen_seli_kiwen_-_pi.svg
  telo-lili: https://commons.wikimedia.org/wiki/File:Sitelen_seli_kiwen_-_telo-lili.svg
-->
<svg version="1.1" width="1805" height="1000"
     viewBox="0 0 1805 1000"
     xmlns="http://www.w3.org/2000/svg">
  <path d="M178 600Q178 613 172.0 629.5Q166 646 166 651Q166 660 178 675Q187 686 191.5 688.0Q196 690 206 688Q221 685 228.5 675.5Q236 666 237.0 657.5Q238 649 238 634V602Q238 561 244.0 524.5Q250 488 250 466Q250 451 248.0 418.5Q246 386 246 369Q246 369 246.0 367.0Q246 365 246.5 361.5Q247 358 247.5 353.0Q248 348 248.0 339.5Q248 331 248.5 321.0Q249 311 249.5 296.5Q250 282 250 266Q250 179 252 177Q260 168 392 168Q392 168 438.0 168.0Q484 168 532.0 168.5Q580 169 584 169Q698 169 704 167Q710 164 716 164Q722 163 728.0 144.5Q734 126 734 111Q734 109 733.0 103.5Q732 98 727.5 90.5Q723 83 716 83Q714 83 683.5 92.5Q653 102 624 102Q612 102 594.0 100.0Q576 98 562 98Q562 98 558.5 98.5Q555 99 548.0 99.5Q541 100 532.0 100.5Q523 101 510.5 101.5Q498 102 486 102Q485 102 480.5 102.0Q476 102 469.0 101.5Q462 101 454.5 100.5Q447 100 439.5 100.0Q432 100 428 100Q344 100 230 92L190 90L184 104Q180 114 180 131Q180 157 185.0 176.5Q190 196 190 218Q190 218 190.0 225.0Q190 232 190.0 242.5Q190 253 189.5 264.5Q189 276 188.5 287.0Q188 298 188 304Q188 326 190.0 374.0Q192 422 192 441Q192 517 178 540Q176 543 177.0 544.0Q178 545 180.0 545.5Q182 546 182.5 549.5Q183 553 180 562Q176 571 176 578Q176 581 177.0 588.5Q178 596 178 600Z" transform="translate(0.00,958.33) scale(0.9583,-0.9583)" fill="#000000" />
  <path d="M343 261Q418 261 488 205Q502 193 512.0 187.0Q522 181 547.0 175.5Q572 170 608 170Q625 170 631.5 172.5Q638 175 647 185Q658 197 658 206Q658 208 657.5 210.0Q657 212 657 213Q657 221 675 232Q688 241 697 241Q707 241 707 227Q707 219 711 226Q714 230 719.0 230.0Q724 230 728.0 225.0Q732 220 732 213Q732 190 703.0 155.0Q674 120 652 116Q603 109 541 109Q519 109 494.0 122.0Q469 135 452.5 148.0Q436 161 433 161L402 180Q370 199 340.0 199.0Q310 199 284.5 182.5Q259 166 237.5 149.5Q216 133 197 133Q192 133 190.0 133.5Q188 134 184.5 135.5Q181 137 179.5 142.5Q178 148 178 157Q178 168 191.5 184.5Q205 201 218.0 211.5Q231 222 234 222Q239 222 253.0 231.5Q267 241 276.0 241.0Q285 241 304.0 251.0Q323 261 343 261ZM450 335Q416 346 416 358Q416 364 393.5 394.0Q371 424 371 442Q371 450 374 456Q380 470 391.0 470.0Q402 470 414.0 454.0Q426 438 429 438Q433 438 437.0 431.0Q441 424 449 424Q465 424 482.5 445.0Q500 466 520 466Q541 466 541 443Q541 426 516.5 403.5Q492 381 483 366Q466 335 450 335ZM192 561Q181 561 174.5 569.5Q168 578 168 585Q168 595 181.0 620.5Q194 646 202 652Q210 657 210.0 665.0Q210 673 218.0 679.5Q226 686 236 686Q241 686 267.5 703.5Q294 721 311 721Q316 721 320 720Q335 717 367 714Q409 710 426.5 702.0Q444 694 461 670Q493 625 526 625Q533 625 544.5 620.0Q556 615 561 615Q564 615 566 616Q570 618 594.5 622.5Q619 627 623 632Q628 639 633 639Q642 639 657.5 671.5Q673 704 690 704Q698 704 712.0 697.0Q726 690 726 671Q726 659 723.0 653.5Q720 648 716.5 648.5Q713 649 710.0 647.5Q707 646 707 641Q707 637 697.0 623.0Q687 609 687 606Q687 600 668 581Q653 566 645.5 562.5Q638 559 615 557Q579 554 564 554Q547 554 532.5 560.5Q518 567 509 567Q504 567 498 566Q494 565 490 565Q470 565 451.0 581.0Q432 597 422.5 611.5Q413 626 413 628Q406 645 392.0 649.5Q378 654 325 654Q306 654 300.0 652.0Q294 650 287 642Q277 630 268 630Q261 630 252.0 622.5Q243 615 243 609Q243 606 233.0 598.0Q223 590 218 580Q208 561 192 561Z" transform="translate(942.50,958.33) scale(0.9583,-0.9583)" fill="#000000" />
</svg>
