<?xml version="1.0" encoding="UTF-8" standalone="no"?>
<!--
Representation of "mun Kanimi" in sitelen ilo pona
Generated by generate_sitelen_kalama_pona.py

Description:
  Representation of "mun Kanimi" in sitelen ilo pona.
  Sources: mun: https://commons.wikimedia.org/wiki/File:Sitelen_seli_kiwen_-_mun.svg; ka: https://commons.wikimedia.org/wiki/File:Sitelen_kalama_pona_-_ka.svg; ni: https://commons.wikimedia.org/wiki/File:Sitelen_kalama_pona_-_ni.svg; mi: https://commons.wikimedia.org/wiki/File:Sitelen_kalama_pona_-_mi.svg

Categories:
  [[Category:Sitelen kalama pona]]
  [[Category:Toki Pona text containing mun]]
  [[Category:Toki Pona text containing sound symbol Ka]]
  [[Category:Toki Pona text containing sound symbol Ni]]
  [[Category:Toki Pona text containing sound symbol Mi]]

Sources:
  mun: https://commons.wikimedia.org/wiki/File:Sitelen_seli_kiwen_-_mun.svg
  ka: https://commons.wikimedia.org/wiki/File:Sitelen_kalama_pona_-_ka.svg
  ni: https://commons.wikimedia.org/wiki/File:Sitelen_kalama_pona_-_ni.svg
  mi: https://commons.wikimedia.org/wiki/File:Sitelen_kalama_pona_-_mi.svg
-->
<svg version="1.1" width="5214" height="1000"
     viewBox="0 0 5214 1000"
     xmlns="http://www.w3.org/2000/svg">
  <path d="M366 427Q366 428 367.0 429.0Q368 430 368 432Q368 448 308 512Q291 530 254.0 537.5Q217 545 183.0 547.0Q149 549 144 552Q140 555 140 572Q140 586 152.0 601.0Q164 616 176 616Q182 616 203.5 632.0Q225 648 230 648Q238 648 273.0 671.0Q308 694 308 699Q308 705 314 705Q318 705 373.0 711.5Q428 718 432 718Q448 718 491.0 706.5Q534 695 556 685Q587 671 614 660Q635 653 652.5 642.0Q670 631 670 624Q670 618 686 602Q709 578 734.5 511.5Q760 445 760 402Q760 287 728 245Q689 191 678.5 177.0Q668 163 660 159Q657 157 638.5 141.0Q620 125 600.5 112.5Q581 100 566 100Q561 100 551.5 93.0Q542 86 532 86Q522 86 502 78Q484 70 404 70H324L278 90Q233 110 204.5 134.0Q176 158 176 176Q176 204 187.0 215.5Q198 227 222 227Q232 227 239.0 233.0Q246 239 256 239Q256 239 259.5 238.5Q263 238 264.5 238.0Q266 238 269.0 237.5Q272 237 274 237Q284 237 300 252Q314 264 340 284Q380 313 380 370Q380 382 373.0 403.5Q366 425 366 427ZM284 167Q284 166 286.0 163.0Q288 160 296.0 155.0Q304 150 317.5 146.0Q331 142 357.5 138.5Q384 135 418 135Q448 135 459.0 139.5Q470 144 486 145Q513 146 535.0 155.0Q557 164 567.5 172.0Q578 180 578 180Q584 180 608.5 203.0Q633 226 652 248Q672 273 679.5 286.0Q687 299 692.5 327.5Q698 356 698 408Q698 419 697.0 423.5Q696 428 694.5 429.5Q693 431 690.5 441.0Q688 451 686 470Q685 472 684.5 475.5Q684 479 684.0 480.0Q684 481 683.5 484.0Q683 487 682.5 487.5Q682 488 681.5 490.0Q681 492 680.5 492.5Q680 493 679.5 494.5Q679 496 677.5 497.5Q676 499 674.5 500.5Q673 502 672 504Q665 512 656.5 530.0Q648 548 630 569Q607 596 575.5 611.5Q544 627 480 642Q438 652 414 652Q383 652 351.5 642.5Q320 633 302.0 622.5Q284 612 284 606Q284 603 323.5 585.0Q363 567 366 554Q369 547 379.5 534.0Q390 521 390 518Q390 512 398 506Q410 499 422.0 473.5Q434 448 434 431Q434 416 438.0 395.5Q442 375 442 373L440 370Q440 369 436 303Q434 288 401.0 253.5Q368 219 368 218Q368 214 355.5 204.0Q343 194 338 194Q332 194 332 190Q332 186 317.5 178.0Q303 170 294 170Q284 170 284 167Z" transform="translate(0.00,958.33) scale(0.9583,-0.9583)" fill="#000000" />
  <path d="M 24.637998,12.488337 H 20.72216 q -1.48166,0 -2.54,-1.058333 -1.05833,-1.058333 -1.05833,-2.54 V 3.598338 q 0,-1.481667 1.05833,-2.54 Q 19.2405,4e-6 20.72216,4e-6 h 3.915838 V 0.846671 H 20.72216 q -1.13241,0 -1.94733,0.814917 -0.80433,0.804333 -0.80433,1.93675 v 5.291666 q 0,1.132417 0.80433,1.93675 0.81492,0.814917 1.94733,0.814917 h 3.915838 z" transform="translate(-428.69,0.00) scale(80.0747,80.0747)" fill="#000000" />
  <path d="M 75.014662,0.846671 V 4e-6 h 13.123333 v 0.846667 z m 0,11.641666 v -0.846666 h 13.123333 v 0.846666 z" transform="translate(-4462.58,0.00) scale(80.0747,80.0747)" fill="#000000" />
  <path d="M 75.014662,0.846671 V 4e-6 h 13.123333 v 0.846667 z m 0,11.641666 v -0.846666 h 13.123333 v 0.846666 z" transform="translate(-3411.74,0.00) scale(80.0747,80.0747)" fill="#000000" />
  <path d="M 75.014662,0.846671 V 4e-6 h 13.123333 v 0.846667 z m 0,11.641666 v -0.846666 h 13.123333 v 0.846666 z" transform="translate(-2360.89,0.00) scale(80.0747,80.0747)" fill="#000000" />
  <path d="m 87.714667,4e-6 h 2.8575 q 1.481666,0 2.54,1.058334 1.058333,1.058333 1.058333,2.54 v 5.291666 q 0,1.481667 -1.058333,2.54 -1.058334,1.058333 -2.54,1.058333 h -2.8575 v -0.846666 h 2.8575 q 1.132416,0 1.93675,-0.814917 0.814916,-0.804333 0.814916,-1.93675 V 3.598338 q 0,-1.132417 -0.814916,-1.93675 -0.804334,-0.814917 -1.93675,-0.814917 h -2.8575 z" transform="translate(-2326.99,0.00) scale(80.0747,80.0747)" fill="#000000" />
  <path d="M 235.77,643.31 C 235.77,651.79 236.00,656.96 236.00,658.00 L 236.00,704.00 L 186.00,704.00 L 186.00,658.38 C 185.85,653.24 185.78,648.11 185.78,643.00 C 185.78,589.09 193.92,537.14 201.71,486.75 C 204.73,467.20 207.71,447.87 210.22,428.73 C 210.91,423.48 212.27,424.09 212.27,414.93 C 212.27,414.74 211.69,397.42 211.69,396.83 C 211.69,389.56 211.69,389.56 215.39,367.94 C 217.73,354.27 220.20,339.84 222.06,327.75 C 223.09,292.37 228.16,260.48 228.16,227.82 C 228.16,223.01 228.00,218.10 228.00,218.00 C 228.00,213.64 229.45,210.87 229.45,189.48 C 229.45,188.94 228.50,136.10 228.50,135.56 C 228.50,104.77 228.50,20.54 303.91,11.20 C 304.93,11.07 305.97,11.00 307.00,11.00 C 417.90,11.00 500.44,96.50 559.09,160.73 L 572.68,174.32 L 537.32,209.68 C 522.91,195.27 522.91,195.27 522.52,194.84 C 464.36,131.12 395.62,62.39 308.58,61.01 C 288.87,64.03 278.57,79.66 278.57,136.86 C 278.57,156.11 279.53,174.47 279.53,190.46 C 279.53,200.32 279.18,209.97 278.04,219.26 C 278.12,222.22 278.15,225.16 278.15,228.08 C 278.15,264.05 272.86,296.47 271.99,330.64 C 271.82,337.02 261.71,389.45 261.71,396.59 C 261.71,402.78 262.37,409.14 262.37,415.72 C 262.37,422.05 261.80,429.41 259.51,437.37 C 256.96,456.56 254.02,475.57 251.11,494.44 C 243.30,544.98 235.77,594.40 235.77,643.31  Z M 543.81,527.98 L 582.22,559.99 L 484.07,677.76 L 477.36,691.19 L 432.63,668.82 C 436.42,661.91 439.21,654.17 443.78,648.01 C 443.78,648.01 543.78,528.01 543.81,527.98  Z M 733.00,639.00 C 733.15,639.00 740.71,639.31 747.60,639.31 C 757.58,639.31 797.07,639.31 818.26,623.81 C 818.26,623.81 847.78,664.17 847.74,664.19 C 833.58,674.56 805.84,689.32 748.28,689.32 C 742.85,689.32 737.68,689.20 732.83,689.01 C 731.20,689.05 729.57,689.07 727.95,689.07 C 665.32,689.07 582.68,659.26 527.28,529.52 C 507.20,482.51 495.14,432.68 488.32,389.97 C 488.28,389.75 487.39,382.24 487.39,368.25 C 487.39,245.04 565.29,108.32 695.60,101.04 C 696.06,101.02 696.53,101.00 697.00,101.00 L 727.00,101.00 L 727.00,151.00 L 697.73,151.00 C 592.35,157.37 537.41,278.21 537.41,369.06 C 537.41,373.82 537.56,378.52 537.86,383.15 C 548.86,451.23 591.53,639.08 727.73,639.08 C 729.89,639.08 732.95,639.00 733.00,639.00 Z" transform="translate(1669.62,100.00) scale(0.8000,0.8000)" fill="#000000" />
  <path d="M 474.34,104.34 C 474.49,104.33 475.05,104.30 475.85,104.30 C 478.10,104.30 480.15,104.54 482.03,104.91 C 483.35,104.83 485.02,104.73 487.04,104.73 C 521.74,104.73 522.55,132.59 522.55,135.21 C 522.55,137.88 522.21,140.31 521.70,142.49 C 521.83,147.38 522.26,149.86 522.26,154.03 C 522.26,180.65 504.37,190.15 489.71,190.15 C 486.01,190.15 482.51,189.63 479.50,188.93 C 476.61,188.98 473.81,189.13 470.84,189.13 C 449.83,189.13 441.65,182.14 437.34,177.83 C 430.73,171.23 427.88,161.97 427.88,153.61 C 427.88,153.45 427.88,153.30 427.88,153.14 C 427.57,150.66 427.42,148.21 427.42,145.78 C 427.42,121.84 442.42,88.73 472.05,85.18 L 474.34,104.34  Z M 323.00,494.91 C 323.00,568.75 342.00,664.06 342.00,678.00 L 342.00,710.00 L 292.00,710.00 L 292.00,679.66 C 290.37,667.36 288.62,655.00 286.85,642.57 C 280.06,594.88 272.99,546.02 272.99,495.42 C 272.99,485.73 273.25,475.97 273.82,466.14 C 271.03,453.63 269.72,441.43 269.72,429.62 C 269.72,324.96 371.67,252.82 474.34,252.82 C 484.93,252.82 495.49,253.59 505.92,255.16 C 713.64,272.30 723.43,515.14 723.43,625.09 C 723.43,651.13 722.00,707.55 721.99,708.38 L 672.01,707.62 C 672.02,706.80 673.39,652.31 673.39,626.34 C 673.39,450.27 636.84,315.63 501.02,304.92 C 500.39,304.87 499.76,304.79 499.13,304.70 C 491.31,303.48 483.31,302.89 475.25,302.89 C 401.47,302.89 319.58,352.45 319.58,428.82 C 319.58,447.80 324.00,457.29 324.00,464.00 C 324.00,466.26 323.00,476.76 323.00,494.91 Z" transform="translate(2720.47,100.00) scale(0.8000,0.8000)" fill="#000000" />
  <path d="M 427.55,94.97 C 427.55,55.04 457.98,19.33 497.55,17.05 C 498.19,17.05 498.84,17.02 499.48,17.02 C 499.76,17.02 500.03,17.02 500.31,17.04 C 501.70,16.77 503.43,16.55 505.42,16.55 C 512.92,16.55 521.38,19.31 528.65,28.55 L 515.53,38.88 C 517.84,40.97 520.50,44.04 522.59,48.32 C 527.23,53.30 532.48,62.20 532.48,76.94 C 532.48,77.90 532.45,78.86 532.39,79.82 C 533.22,83.45 533.60,87.05 533.60,90.56 C 533.60,118.82 509.41,141.89 483.02,141.89 C 480.67,141.89 478.27,141.71 475.85,141.32 C 473.67,141.53 471.43,141.66 469.11,141.66 C 441.30,141.66 427.76,124.29 427.76,104.67 C 427.76,103.76 427.79,102.85 427.85,101.95 C 427.65,99.61 427.55,97.29 427.55,94.97  Z M 368.22,303.39 C 263.48,313.18 197.70,441.18 197.70,534.24 C 197.70,569.26 205.50,605.88 213.69,643.20 C 217.21,659.26 220.77,675.42 223.63,691.71 L 174.38,700.35 C 171.79,685.54 168.39,670.03 164.87,653.97 C 156.74,616.93 147.70,576.76 147.70,534.62 C 147.70,409.97 236.45,259.73 371.76,253.04 C 372.17,253.02 372.59,253.00 373.00,253.00 C 385.45,253.00 413.33,269.77 433.92,290.37 C 465.61,322.06 486.27,364.46 500.64,409.82 C 508.12,337.95 528.43,242.64 612.05,210.66 C 614.92,209.55 617.96,209.00 621.00,209.00 C 623.39,209.00 690.14,209.54 749.07,268.47 C 833.42,352.82 863.52,508.41 875.89,641.67 L 875.89,641.71 L 826.11,646.33 C 811.09,484.53 766.94,276.22 624.80,259.49 C 517.35,308.06 559.56,548.17 535.23,644.17 C 532.45,655.11 522.57,663.00 511.00,663.00 C 497.76,663.00 486.86,652.71 486.05,639.53 C 480.19,543.46 464.60,352.32 368.22,303.39 Z" transform="translate(3771.31,100.00) scale(0.8000,0.8000)" fill="#000000" />
</svg>
