<?xml version="1.0" encoding="UTF-8" standalone="no"?>
<!--
Representation of "jan kalama" in sitelen kalama pona
Generated by generate_sitelen_kalama_pona.py

Description:
  Representation of "jan kalama" in sitelen kalama pona.
  Sources: jan-kalama: https://commons.wikimedia.org/wiki/File:Sitelen_seli_kiwen_-_jan-kalama.svg

Categories:
  [[Category:Sitelen kalama pona]]
  [[Category:Toki Pona text containing jan kalama]]

Sources:
  jan-kalama: https://commons.wikimedia.org/wiki/File:Sitelen_seli_kiwen_-_jan-kalama.svg
-->
<svg version="1.1" width="862" height="1000"
     viewBox="0 0 862 1000"
     xmlns="http://www.w3.org/2000/svg">
  <path d="M304 433Q304 464 321.5 472.5Q339 481 400 481Q400 481 435.0 480.5Q470 480 470 480Q488 480 513.5 481.5Q539 483 548 483Q571 483 581.5 475.5Q592 468 592 459Q592 452 588 449Q582 446 582 433Q582 417 570.5 390.0Q559 363 546 350Q539 342 534.5 335.0Q530 328 529.0 325.0Q528 322 524.5 319.0Q521 316 514 314Q502 310 440 310Q398 310 386.5 314.0Q375 318 362 338Q353 351 340.5 363.5Q328 376 322.0 383.0Q316 390 316.0 395.0Q316 400 310.0 408.5Q304 417 304 433ZM386 410Q386 400 405.0 386.0Q424 372 450 372Q464 372 470.5 375.5Q477 379 492 393Q512 416 512 416Q512 418 505.0 420.0Q498 422 496 420Q495 419 442.5 417.5Q390 416 388 413Q386 412 386 410ZM334 564Q334 577 341.0 582.5Q348 588 366 588Q379 588 384.0 585.0Q389 582 398 569Q406 555 406 542Q406 527 396 527Q391 527 383.0 525.5Q375 524 374 524Q363 524 348.5 538.0Q334 552 334 564ZM604 588Q604 569 576.5 540.5Q549 512 540 512Q530 512 518 517Q510 520 508.0 524.0Q506 528 508 539Q511 558 541.0 584.0Q571 610 586 610Q604 610 604 588ZM426 622Q424 634 424 640Q424 652 428.0 655.0Q432 658 444 658Q452 658 458.5 653.5Q465 649 476 635Q489 617 489 609Q489 607 486.5 601.5Q484 596 484 591Q484 587 486 582Q491 555 476 555Q473 555 464.5 548.5Q456 542 444 545Q435 547 428.5 557.0Q422 567 422 578Q422 580 424.5 588.5Q427 597 427 607Q427 614 426 622ZM180 425Q180 454 184.0 459.0Q188 464 188 476Q188 497 205.0 528.0Q222 559 222 575Q222 586 260.0 633.5Q298 681 308 681Q311 681 321.0 689.0Q331 697 348.5 707.5Q366 718 386 721Q396 723 400.0 725.5Q404 728 405.5 730.5Q407 733 417.0 734.5Q427 736 448 736Q500 736 536.0 731.0Q572 726 595.5 714.5Q619 703 630.0 695.0Q641 687 658 670Q719 608 734.5 578.5Q750 549 750 506Q750 483 746.5 468.0Q743 453 740.0 447.0Q737 441 737 438Q737 418 718.5 373.0Q700 328 700 327Q700 322 667.0 288.5Q634 255 630 255Q628 255 628 253Q628 245 640.0 229.0Q652 213 652 210Q652 205 667.5 192.5Q683 180 690 180Q694 180 694 175Q694 171 731.0 135.5Q768 100 768 92Q768 90 764.0 82.5Q760 75 758 67Q757 58 749.0 53.0Q741 48 732 48Q718 48 708.0 61.5Q698 75 694 77Q686 80 686 88Q686 94 659.0 120.5Q632 147 626 147Q620 147 620 154Q620 160 613.0 164.0Q606 168 606 173Q606 176 604.0 178.5Q602 181 599.0 182.5Q596 184 589.5 189.0Q583 194 576 200Q566 211 557 211Q552 211 540.0 206.5Q528 202 518 202Q513 202 508 203Q503 204 498 204Q490 204 472.5 199.5Q455 195 440 195Q425 195 381.5 198.0Q338 201 334 206Q332 209 325.0 212.0Q318 215 312.5 215.0Q307 215 303.0 210.5Q299 206 288 190Q270 162 250.5 141.0Q231 120 221.5 112.0Q212 104 212 98Q212 90 202.5 70.0Q193 50 190 50Q184 53 166 55Q132 58 132 83Q132 92 144.0 111.5Q156 131 162 134Q170 136 170 143Q170 148 197.5 181.0Q225 214 230 229Q234 242 242 244Q247 245 249.0 251.5Q251 258 249.5 263.5Q248 269 244 269Q238 269 225.0 283.0Q212 297 212 304Q212 309 207.0 314.0Q202 319 196.0 326.0Q190 333 185.0 359.0Q180 385 180 425ZM682 507Q682 532 671.0 553.5Q660 575 650.5 583.5Q641 592 638 592Q633 592 632 601Q629 608 604.5 626.0Q580 644 574 644Q571 644 570.0 645.5Q569 647 567.0 649.5Q565 652 558.0 655.5Q551 659 538 662Q508 669 466 669Q429 669 415.0 661.0Q401 653 394 653Q376 653 346.0 629.5Q316 606 310.5 606.0Q305 606 291.5 587.5Q278 569 278 562Q278 558 271.0 553.0Q264 548 264 539Q264 531 258.0 512.0Q252 493 252 490Q252 489 252 489Q254 489 254 488Q254 487 250.0 481.0Q246 475 242.0 465.5Q238 456 238 447Q238 379 270 331Q281 315 309.0 296.5Q337 278 352 276Q358 275 374.5 271.0Q391 267 418 267Q455 267 493.0 272.5Q531 278 540 286Q546 292 554 292Q559 292 584 306Q610 321 629.5 347.5Q649 374 658.5 399.0Q668 424 674.0 451.0Q680 478 681.0 490.0Q682 502 682 507Z" transform="translate(0.00,958.33) scale(0.9583,-0.9583)" fill="#000000" />
</svg>
