<?xml version="1.0" encoding="UTF-8" standalone="no"?>
<!--
Representation of "kipisi:sona li ala la" in sitelen ilo pona
Generated by generate_sitelen_kalama_pona.py

Description:
  Representation of "kipisi:sona li ala la" in sitelen ilo pona.
  Sources: li: https://commons.wikimedia.org/wiki/File:Sitelen_seli_kiwen_-_li.svg; ala: https://commons.wikimedia.org/wiki/File:Sitelen_seli_kiwen_-_ala.svg; la: https://commons.wikimedia.org/wiki/File:Sitelen_seli_kiwen_-_la.svg

Categories:
  [[Category:Sitelen kalama pona]]
  [[Category:Toki Pona text containing kipisi:sona li ala la]]

Sources:
  li: https://commons.wikimedia.org/wiki/File:Sitelen_seli_kiwen_-_li.svg
  ala: https://commons.wikimedia.org/wiki/File:Sitelen_seli_kiwen_-_ala.svg
  la: https://commons.wikimedia.org/wiki/File:Sitelen_seli_kiwen_-_la.svg
-->
<svg version="1.1" width="2747" height="1000"
     viewBox="0 0 2747 1000"
     xmlns="http://www.w3.org/2000/svg">
  <path d="M281 756Q295 756 318.5 734.0Q342 712 359.0 691.0Q376 670 376 668Q376 665 384.0 657.0Q392 649 404.0 636.5Q416 624 423 615Q435 600 479.0 553.0Q523 506 531 501Q539 496 539 492Q539 488 585.5 446.0Q632 404 641 399Q647 396 649.0 391.5Q651 387 649 375Q648 360 638.0 348.0Q628 336 619.0 329.0Q610 322 610 317Q610 314 580.5 291.5Q551 269 549 269Q544 269 544.0 263.0Q544 257 533.5 246.5Q523 236 518 236Q512 236 512 231Q512 227 505 227Q501 227 495.0 216.5Q489 206 478 202Q465 197 465 191Q465 184 461 184Q457 184 441.5 169.0Q426 154 406.0 133.0Q386 112 378 105Q345 76 345 62Q345 50 339.0 42.0Q333 34 324.0 31.5Q315 29 309.5 28.0Q304 27 300 27Q286 27 273.0 35.5Q260 44 257 45Q250 48 250 58Q250 70 259.5 84.5Q269 99 282 106Q295 112 314.5 133.5Q334 155 340 160Q362 179 385.0 203.0Q408 227 408 230Q408 233 419.5 242.5Q431 252 451.0 268.5Q471 285 485 299Q537 352 550.0 366.0Q563 380 563 385Q563 387 549.5 399.5Q536 412 520.0 425.5Q504 439 502 441Q465 481 465 485Q465 488 418.0 535.0Q371 582 371 586Q371 589 354.5 600.5Q338 612 338 619Q338 626 294.5 666.5Q251 707 251 718Q251 730 260.0 743.0Q269 756 281 756Z" transform="translate(0.00,958.33) scale(0.9583,-0.9583)" fill="#000000" />
  <path d="M211 109Q170 109 170 144Q170 152 181.0 166.5Q192 181 202.0 191.5Q212 202 214 203Q224 207 255.5 238.5Q287 270 290 280Q292 288 300 288Q306 288 336.5 318.5Q367 349 367 355Q367 359 388.0 381.0Q409 403 409.0 407.0Q409 411 392.5 430.0Q376 449 376.0 451.0Q376 453 363.5 468.0Q351 483 336.5 501.0Q322 519 319 525Q314 536 310 536Q307 536 291.0 559.5Q275 583 272 583Q266 583 246.5 607.0Q227 631 227 638Q227 667 250 667Q268 667 291.0 650.0Q314 633 325 611Q331 599 346.0 583.5Q361 568 365 559Q373 543 395.5 518.0Q418 493 423 483Q442 450 456 450Q468 450 490 479Q501 493 553.5 550.5Q606 608 611 615Q617 621 672 661Q682 668 693 668Q708 668 719.0 655.5Q730 643 730.0 627.0Q730 611 720 611Q715 611 702.0 599.5Q689 588 686 588Q685 588 673.0 579.0Q661 570 642.5 551.5Q624 533 612 515Q602 500 575.0 473.0Q548 446 528.0 423.0Q508 400 508 388Q508 378 522.0 362.5Q536 347 536.0 345.0Q536 343 554.5 317.5Q573 292 573 291Q573 289 581.0 280.5Q589 272 600.0 259.0Q611 246 617 235Q625 219 665.0 183.5Q705 148 709 141Q718 127 711 114Q701 93 681 93Q662 93 650.0 105.0Q638 117 631.0 130.5Q624 144 619 146Q616 148 616 152Q616 155 606.0 166.5Q596 178 579.5 197.5Q563 217 552 234Q542 249 520.5 276.0Q499 303 481.5 323.5Q464 344 462.0 344.0Q460 344 445.0 329.5Q430 315 424 313Q419 311 397.0 286.5Q375 262 365.0 255.0Q355 248 334.5 224.5Q314 201 303 194Q291 187 280.5 168.5Q270 150 264 148Q260 147 247.0 128.0Q234 109 211 109Z" transform="translate(942.50,958.33) scale(0.9583,-0.9583)" fill="#000000" />
  <path d="M360 766Q370 766 398.0 751.0Q426 736 427 729Q428 728 430 728Q434 728 438.5 724.0Q443 720 446.5 715.0Q450 710 454 705L457 700Q473 697 504 651Q517 630 525 625Q535 617 535 606Q535 601 551 581Q568 559 568 543Q568 534 573.5 525.0Q579 516 580 506Q590 399 590 374Q590 356 589.0 344.0Q588 332 587.0 327.0Q586 322 583.5 312.5Q581 303 580 296Q579 290 560.0 245.0Q541 200 540 194Q538 183 522 165Q509 150 494.5 130.0Q480 110 479 106Q478 95 452.5 73.5Q427 52 409 44Q401 40 392.0 33.0Q383 26 373.5 23.0Q364 20 347 20Q326 20 318.0 27.5Q310 35 310 56Q310 92 346 103Q356 106 393.5 130.5Q431 155 444 168Q460 184 460 190Q460 199 469.0 207.0Q478 215 478 217Q478 227 484 233Q487 237 491.5 254.0Q496 271 500 275Q510 285 520 328Q521 330 522.5 383.5Q524 437 527 443Q522 446 522 457Q521 469 516.0 490.5Q511 512 508 516Q502 521 502 530Q502 532 490.0 558.5Q478 585 478 591V592Q469 595 469 604Q469 606 466 606Q458 606 452.0 614.0Q446 622 436 643Q434 648 429 653Q422 654 408 666Q377 695 347 706Q339 709 330.0 717.0Q321 725 321.0 732.0Q321 739 337.0 752.5Q353 766 360 766Z" transform="translate(1885.00,958.33) scale(0.9583,-0.9583)" fill="#000000" />
</svg>
