<?xml version="1.0" encoding="UTF-8" standalone="no"?>
<!--
Representation of "nimi Κλεοπάτρα" in sitelen kalama pona
Generated by generate_sitelen_kalama_pona.py

Description:
  Representation of "nimi Κλεοπάτρα" in sitelen kalama pona.
  Sources: nimi: https://commons.wikimedia.org/wiki/File:Sitelen_seli_kiwen_-_nimi.svg

Categories:
  [[Category:Sitelen kalama pona]]
  [[Category:Toki Pona text containing nimi]]

Sources:
  nimi: https://commons.wikimedia.org/wiki/File:Sitelen_seli_kiwen_-_nimi.svg
-->
<svg version="1.1" width="862" height="1000"
     viewBox="0 0 862 1000"
     xmlns="http://www.w3.org/2000/svg">
  <path d="M373 213Q337 213 302.5 204.0Q268 195 264 195Q223 195 183 216Q138 239 125.5 268.0Q113 297 111 375Q109 439 103.5 454.0Q98 469 98 479Q98 515 114 533Q123 542 133 560Q143 579 158.0 584.0Q173 589 225 589H278Q339 589 357.5 592.5Q376 596 399 596Q459 597 524.5 605.0Q590 613 600 613Q627 613 657.0 602.5Q687 592 692 592Q704 592 720.5 585.0Q737 578 744 578Q759 578 773 558Q783 544 792.5 485.5Q802 427 802 383Q802 369 800.0 352.0Q798 335 798 322V303Q798 286 792.0 276.0Q786 266 786 255Q786 253 786.5 250.0Q787 247 787 246Q787 241 774 241Q762 241 757.5 236.5Q753 232 750 234H748Q744 234 701.0 222.5Q658 211 640 211Q638 211 636.0 212.0Q634 213 625.0 214.0Q616 215 598 215Q569 215 548.5 212.5Q528 210 518.5 208.0Q509 206 506 206Q504 206 491.5 209.5Q479 213 455 213Q439 213 428.5 211.0Q418 209 413.5 207.0Q409 205 408.0 205.0Q407 205 404.0 207.0Q401 209 393.5 211.0Q386 213 373 213ZM724 386Q724 387 727.5 393.5Q731 400 731 413Q731 421 729.0 447.5Q727 474 727 483Q727 520 701 525Q693 526 682.5 531.0Q672 536 653 538Q618 543 587 543L580 542Q574 541 562.0 539.5Q550 538 533.0 536.5Q516 535 491.5 533.0Q467 531 439.0 529.5Q411 528 374.0 526.5Q337 525 298 525Q198 523 188 517Q183 513 183 499Q183 489 179 489Q176 489 176 451Q176 343 184 317Q189 303 201.5 293.0Q214 283 227 283Q236 283 245.0 278.5Q254 274 264 274Q277 274 311.5 278.5Q346 283 367 283Q380 283 423.0 281.5Q466 280 500 280Q563 280 617.5 283.5Q672 287 675 292Q679 298 686 294H690Q698 294 710.5 301.0Q723 308 727 315Q731 323 731 346Q731 363 728 374Z" transform="translate(0.00,958.33) scale(0.9583,-0.9583)" fill="#000000" />
</svg>
