<?xml version="1.0" encoding="UTF-8" standalone="no"?>
<!--
Representation of "lipu Mika" in sitelen ilo pona
Generated by generate_sitelen_kalama_pona.py

Description:
  Representation of "lipu Mika" in sitelen ilo pona.
  Sources: lipu: https://commons.wikimedia.org/wiki/File:Sitelen_seli_kiwen_-_lipu.svg; mi: https://commons.wikimedia.org/wiki/File:Sitelen_kalama_pona_-_mi.svg; ka: https://commons.wikimedia.org/wiki/File:Sitelen_kalama_pona_-_ka.svg

Categories:
  [[Category:Sitelen kalama pona]]
  [[Category:Toki Pona text containing lipu]]
  [[Category:Toki Pona text containing sound symbol Mi]]
  [[Category:Toki Pona text containing sound symbol Ka]]

Sources:
  lipu: https://commons.wikimedia.org/wiki/File:Sitelen_seli_kiwen_-_lipu.svg
  mi: https://commons.wikimedia.org/wiki/File:Sitelen_kalama_pona_-_mi.svg
  ka: https://commons.wikimedia.org/wiki/File:Sitelen_kalama_pona_-_ka.svg
-->
<svg version="1.1" width="4163" height="1000"
     viewBox="0 0 4163 1000"
     xmlns="http://www.w3.org/2000/svg">
  <path d="M461 87Q346 87 316.5 82.0Q287 77 262 77Q248 77 234.0 77.0Q220 77 209.5 76.5Q199 76 191.0 75.5Q183 75 178.5 75.0Q174 75 174 75Q159 75 152.0 78.5Q145 82 134 93L118 111L126 135Q135 157 137.0 215.0Q139 273 139.5 322.0Q140 371 143 374Q145 376 145 402Q145 402 144.5 435.0Q144 468 143.0 516.0Q142 564 141 596L140 697L166 723L252 720Q307 718 349 718Q349 718 353.0 718.0Q357 718 364.5 718.5Q372 719 383.0 719.0Q394 719 411.5 719.0Q429 719 449.5 719.5Q470 720 499.0 720.0Q528 720 560 720Q569 720 581.0 720.0Q593 720 605.0 719.5Q617 719 627.5 718.5Q638 718 644.5 718.0Q651 718 651 718Q676 718 691.5 720.0Q707 722 713.0 724.5Q719 727 721.5 727.0Q724 727 731.5 725.0Q739 723 742 723Q750 723 757.0 704.0Q764 685 764 669Q764 663 762.0 656.5Q760 650 760 645Q760 640 762.5 625.5Q765 611 765 587Q765 572 763.5 546.0Q762 520 760.0 493.5Q758 467 756.0 443.0Q754 419 752.5 403.0Q751 387 751 387Q751 382 752.0 375.0Q753 368 753 361Q753 349 752 340Q752 338 751.5 333.0Q751 328 751 325Q751 289 759.0 233.0Q767 177 775 153Q785 127 779 121Q776 117 777.5 110.5Q779 104 774 101Q766 93 651.0 89.5Q536 86 490 86ZM687 311Q687 330 689.0 364.5Q691 399 694.0 434.0Q697 469 699.5 501.5Q702 534 704.0 555.5Q706 577 706 577Q706 588 701.5 601.5Q697 615 694 631L690 653L650 654Q597 655 375 655Q230 655 224 654Q212 653 208 642Q202 621 202 458Q202 429 202.5 401.5Q203 374 203.5 355.5Q204 337 204.5 323.5Q205 310 205.0 302.5Q205 295 205 295Q205 281 199.5 252.0Q194 223 194 179Q194 167 195.0 162.5Q196 158 202.5 153.5Q209 149 221.0 148.5Q233 148 257 148Q292 148 292 151Q292 153 342 153Q359 153 375.5 153.0Q392 153 404.0 152.5Q416 152 427.0 151.5Q438 151 445.5 150.5Q453 150 458.5 149.5Q464 149 466.5 149.0Q469 149 469 149Q488 149 528.5 154.5Q569 160 593 160Q600 160 606.5 159.5Q613 159 620 159Q647 159 676.0 163.5Q705 168 705 172Q705 174 696.0 225.5Q687 277 687 311Z" transform="translate(0.00,958.33) scale(0.9583,-0.9583)" fill="#000000" />
  <path d="M 24.637998,12.488337 H 20.72216 q -1.48166,0 -2.54,-1.058333 -1.05833,-1.058333 -1.05833,-2.54 V 3.598338 q 0,-1.481667 1.05833,-2.54 Q 19.2405,4e-6 20.72216,4e-6 h 3.915838 V 0.846671 H 20.72216 q -1.13241,0 -1.94733,0.814917 -0.80433,0.804333 -0.80433,1.93675 v 5.291666 q 0,1.132417 0.80433,1.93675 0.81492,0.814917 1.94733,0.814917 h 3.915838 z" transform="translate(-428.69,0.00) scale(80.0747,80.0747)" fill="#000000" />
  <path d="M 75.014662,0.846671 V 4e-6 h 13.123333 v 0.846667 z m 0,11.641666 v -0.846666 h 13.123333 v 0.846666 z" transform="translate(-4462.58,0.00) scale(80.0747,80.0747)" fill="#000000" />
  <path d="M 75.014662,0.846671 V 4e-6 h 13.123333 v 0.846667 z m 0,11.641666 v -0.846666 h 13.123333 v 0.846666 z" transform="translate(-3411.74,0.00) scale(80.0747,80.0747)" fill="#000000" />
  <path d="m 87.714667,4e-6 h 2.8575 q 1.481666,0 2.54,1.058334 1.058333,1.058333 1.058333,2.54 v 5.291666 q 0,1.481667 -1.058333,2.54 -1.058334,1.058333 -2.54,1.058333 h -2.8575 v -0.846666 h 2.8575 q 1.132416,0 1.93675,-0.814917 0.814916,-0.804333 0.814916,-1.93675 V 3.598338 q 0,-1.132417 -0.814916,-1.93675 -0.804334,-0.814917 -1.93675,-0.814917 h -2.8575 z" transform="translate(-3377.84,0.00) scale(80.0747,80.0747)" fill="#000000" />
  <path d="M 427.55,94.97 C 427.55,55.04 457.98,19.33 497.55,17.05 C 498.19,17.05 498.84,17.02 499.48,17.02 C 499.76,17.02 500.03,17.02 500.31,17.04 C 501.70,16.77 503.43,16.55 505.42,16.55 C 512.92,16.55 521.38,19.31 528.65,28.55 L 515.53,38.88 C 517.84,40.97 520.50,44.04 522.59,48.32 C 527.23,53.30 532.48,62.20 532.48,76.94 C 532.48,77.90 532.45,78.86 532.39,79.82 C 533.22,83.45 533.60,87.05 533.60,90.56 C 533.60,118.82 509.41,141.89 483.02,141.89 C 480.67,141.89 478.27,141.71 475.85,141.32 C 473.67,141.53 471.43,141.66 469.11,141.66 C 441.30,141.66 427.76,124.29 427.76,104.67 C 427.76,103.76 427.79,102.85 427.85,101.95 C 427.65,99.61 427.55,97.29 427.55,94.97  Z M 368.22,303.39 C 263.48,313.18 197.70,441.18 197.70,534.24 C 197.70,569.26 205.50,605.88 213.69,643.20 C 217.21,659.26 220.77,675.42 223.63,691.71 L 174.38,700.35 C 171.79,685.54 168.39,670.03 164.87,653.97 C 156.74,616.93 147.70,576.76 147.70,534.62 C 147.70,409.97 236.45,259.73 371.76,253.04 C 372.17,253.02 372.59,253.00 373.00,253.00 C 385.45,253.00 413.33,269.77 433.92,290.37 C 465.61,322.06 486.27,364.46 500.64,409.82 C 508.12,337.95 528.43,242.64 612.05,210.66 C 614.92,209.55 617.96,209.00 621.00,209.00 C 623.39,209.00 690.14,209.54 749.07,268.47 C 833.42,352.82 863.52,508.41 875.89,641.67 L 875.89,641.71 L 826.11,646.33 C 811.09,484.53 766.94,276.22 624.80,259.49 C 517.35,308.06 559.56,548.17 535.23,644.17 C 532.45,655.11 522.57,663.00 511.00,663.00 C 497.76,663.00 486.86,652.71 486.05,639.53 C 480.19,543.46 464.60,352.32 368.22,303.39 Z" transform="translate(1669.62,100.00) scale(0.8000,0.8000)" fill="#000000" />
  <path d="M 235.77,643.31 C 235.77,651.79 236.00,656.96 236.00,658.00 L 236.00,704.00 L 186.00,704.00 L 186.00,658.38 C 185.85,653.24 185.78,648.11 185.78,643.00 C 185.78,589.09 193.92,537.14 201.71,486.75 C 204.73,467.20 207.71,447.87 210.22,428.73 C 210.91,423.48 212.27,424.09 212.27,414.93 C 212.27,414.74 211.69,397.42 211.69,396.83 C 211.69,389.56 211.69,389.56 215.39,367.94 C 217.73,354.27 220.20,339.84 222.06,327.75 C 223.09,292.37 228.16,260.48 228.16,227.82 C 228.16,223.01 228.00,218.10 228.00,218.00 C 228.00,213.64 229.45,210.87 229.45,189.48 C 229.45,188.94 228.50,136.10 228.50,135.56 C 228.50,104.77 228.50,20.54 303.91,11.20 C 304.93,11.07 305.97,11.00 307.00,11.00 C 417.90,11.00 500.44,96.50 559.09,160.73 L 572.68,174.32 L 537.32,209.68 C 522.91,195.27 522.91,195.27 522.52,194.84 C 464.36,131.12 395.62,62.39 308.58,61.01 C 288.87,64.03 278.57,79.66 278.57,136.86 C 278.57,156.11 279.53,174.47 279.53,190.46 C 279.53,200.32 279.18,209.97 278.04,219.26 C 278.12,222.22 278.15,225.16 278.15,228.08 C 278.15,264.05 272.86,296.47 271.99,330.64 C 271.82,337.02 261.71,389.45 261.71,396.59 C 261.71,402.78 262.37,409.14 262.37,415.72 C 262.37,422.05 261.80,429.41 259.51,437.37 C 256.96,456.56 254.02,475.57 251.11,494.44 C 243.30,544.98 235.77,594.40 235.77,643.31  Z M 543.81,527.98 L 582.22,559.99 L 484.07,677.76 L 477.36,691.19 L 432.63,668.82 C 436.42,661.91 439.21,654.17 443.78,648.01 C 443.78,648.01 543.78,528.01 543.81,527.98  Z M 733.00,639.00 C 733.15,639.00 740.71,639.31 747.60,639.31 C 757.58,639.31 797.07,639.31 818.26,623.81 C 818.26,623.81 847.78,664.17 847.74,664.19 C 833.58,674.56 805.84,689.32 748.28,689.32 C 742.85,689.32 737.68,689.20 732.83,689.01 C 731.20,689.05 729.57,689.07 727.95,689.07 C 665.32,689.07 582.68,659.26 527.28,529.52 C 507.20,482.51 495.14,432.68 488.32,389.97 C 488.28,389.75 487.39,382.24 487.39,368.25 C 487.39,245.04 565.29,108.32 695.60,101.04 C 696.06,101.02 696.53,101.00 697.00,101.00 L 727.00,101.00 L 727.00,151.00 L 697.73,151.00 C 592.35,157.37 537.41,278.21 537.41,369.06 C 537.41,373.82 537.56,378.52 537.86,383.15 C 548.86,451.23 591.53,639.08 727.73,639.08 C 729.89,639.08 732.95,639.00 733.00,639.00 Z" transform="translate(2720.47,100.00) scale(0.8000,0.8000)" fill="#000000" />
</svg>
