<?xml version="1.0" encoding="UTF-8" standalone="no"?>
<!--
Representation of "linja monsi" in sitelen ilo pona
Generated by generate_sitelen_kalama_pona.py

Description:
  Representation of "linja monsi" in sitelen ilo pona.
  Sources: linja: https://commons.wikimedia.org/wiki/File:Sitelen_seli_kiwen_-_linja.svg; monsi: https://commons.wikimedia.org/wiki/File:Sitelen_seli_kiwen_-_monsi.svg

Categories:
  [[Category:Sitelen kalama pona]]
  [[Category:Toki Pona text containing linja monsi]]

Sources:
  linja: https://commons.wikimedia.org/wiki/File:Sitelen_seli_kiwen_-_linja.svg
  monsi: https://commons.wikimedia.org/wiki/File:Sitelen_seli_kiwen_-_monsi.svg
-->
<svg version="1.1" width="1805" height="1000"
     viewBox="0 0 1805 1000"
     xmlns="http://www.w3.org/2000/svg">
  <path d="M508 410Q497 410 481.0 395.5Q465 381 447.5 363.0Q430 345 392.5 330.5Q355 316 306 316Q234 316 194 336Q183 342 158.5 365.0Q134 388 113.5 408.0Q93 428 90 428Q86 428 84.0 436.5Q82 445 82 454V462Q82 472 91.5 480.5Q101 489 112 489Q133 489 176.5 446.0Q220 403 236 397Q272 385 320 385Q349 385 359.0 393.5Q369 402 376 403Q387 405 411.5 421.0Q436 437 436 442Q436 444 450.0 448.0Q464 452 464 460Q464 473 516.5 485.0Q569 497 572 504Q575 509 596 509Q638 509 681.0 490.5Q724 472 745.5 455.0Q767 438 774 429Q791 405 800 396Q818 374 818 352Q818 339 810.0 331.0Q802 323 788 323Q765 323 750.5 336.0Q736 349 724.5 367.5Q713 386 702 392Q691 399 684 406Q681 408 670.5 415.0Q660 422 640.0 430.0Q620 438 604 438Q567 438 539.5 424.0Q512 410 508 410Z" transform="translate(0.00,958.33) scale(0.9583,-0.9583)" fill="#000000" />
  <path d="M324 422Q324 418 322.5 412.0Q321 406 317.5 397.0Q314 388 304.0 381.5Q294 375 280 375Q208 375 194 391Q186 398 186 417Q186 443 192.0 460.5Q198 478 202.5 483.0Q207 488 216 494Q235 508 246 508Q268 508 296.0 479.5Q324 451 324 422ZM422 103Q422 107 424.0 118.0Q426 129 426 142Q424 162 424 203Q424 240 427.5 257.5Q431 275 432 312Q434 339 436.0 360.0Q438 381 440.0 391.5Q442 402 442 406Q442 409 440 415Q436 422 440.0 432.5Q444 443 442 447Q439 451 445.5 459.0Q452 467 444 470Q440 473 440 487Q440 494 441.0 506.5Q442 519 442 529Q442 563 436.0 605.5Q430 648 424 662Q419 670 420.5 675.0Q422 680 432 691Q444 704 449.5 706.0Q455 708 480 708Q513 708 521.5 712.0Q530 716 576 716Q645 716 661.5 714.0Q678 712 686 702Q694 691 694 680Q694 668 681.5 653.0Q669 638 650 638Q649 638 637.0 639.5Q625 641 598.5 642.5Q572 644 534 644Q514 644 511.0 643.5Q508 643 508 639Q508 630 510.0 602.0Q512 574 512 557Q512 557 511.0 548.5Q510 540 509.0 526.5Q508 513 507.0 497.5Q506 482 505.0 464.5Q504 447 504 433Q504 432 499.5 371.0Q495 310 490.5 245.5Q486 181 486 172Q486 164 487.0 160.5Q488 157 495.5 154.5Q503 152 515.0 151.5Q527 151 554 151Q570 151 584.5 151.5Q599 152 609.5 153.0Q620 154 628.5 154.5Q637 155 641.0 155.5Q645 156 646 156Q662 156 688.0 139.5Q714 123 714 106Q714 102 712.5 97.0Q711 92 706.5 86.5Q702 81 696 81Q687 81 682.5 75.0Q678 69 672 76Q665 80 600 80Q599 80 548.0 79.5Q497 79 496 79Q451 79 436.5 83.5Q422 88 422 103Z" transform="translate(942.50,958.33) scale(0.9583,-0.9583)" fill="#000000" />
</svg>
