<?xml version="1.0" encoding="UTF-8" standalone="no"?>
<!--
Representation of "kulupu:tenpo sike nanpa 1859 la jan li moli" in sitelen ilo pona
Generated by generate_sitelen_kalama_pona.py

Description:
  Representation of "kulupu:tenpo sike nanpa 1859 la jan li moli" in sitelen ilo pona.
  Sources: sike: https://commons.wikimedia.org/wiki/File:Sitelen_seli_kiwen_-_sike.svg; nanpa: https://commons.wikimedia.org/wiki/File:Sitelen_seli_kiwen_-_nanpa.svg; la: https://commons.wikimedia.org/wiki/File:Sitelen_seli_kiwen_-_la.svg; jan: https://commons.wikimedia.org/wiki/File:Sitelen_seli_kiwen_-_jan.svg; li: https://commons.wikimedia.org/wiki/File:Sitelen_seli_kiwen_-_li.svg; moli: https://commons.wikimedia.org/wiki/File:Sitelen_seli_kiwen_-_moli.svg

Categories:
  [[Category:Sitelen kalama pona]]
  [[Category:Toki Pona text containing kulupu:tenpo sike nanpa 1859 la jan li moli]]

Sources:
  sike: https://commons.wikimedia.org/wiki/File:Sitelen_seli_kiwen_-_sike.svg
  nanpa: https://commons.wikimedia.org/wiki/File:Sitelen_seli_kiwen_-_nanpa.svg
  la: https://commons.wikimedia.org/wiki/File:Sitelen_seli_kiwen_-_la.svg
  jan: https://commons.wikimedia.org/wiki/File:Sitelen_seli_kiwen_-_jan.svg
  li: https://commons.wikimedia.org/wiki/File:Sitelen_seli_kiwen_-_li.svg
  moli: https://commons.wikimedia.org/wiki/File:Sitelen_seli_kiwen_-_moli.svg
-->
<svg version="1.1" width="5575" height="1000"
     viewBox="0 0 5575 1000"
     xmlns="http://www.w3.org/2000/svg">
  <path d="M386 517Q390 517 406.0 525.0Q422 533 434 533Q444 533 461.0 529.0Q478 525 500.5 514.5Q523 504 542.0 489.0Q561 474 574.5 448.0Q588 422 588 391Q588 371 580.0 345.5Q572 320 565 320Q563 320 554.0 304.0Q545 288 542 288Q540 288 533.0 276.0Q526 264 520 264Q516 264 508.0 256.0Q500 248 484.0 240.5Q468 233 444 233Q423 233 403.0 241.5Q383 250 376 250Q358 250 324.0 271.5Q290 293 285 315Q285 316 273.5 343.5Q262 371 262 397Q262 419 270 419Q274 419 274 431Q274 441 286.0 458.0Q298 475 305 475Q311 475 325.0 483.5Q339 492 339.0 495.0Q339 498 359.5 507.5Q380 517 386 517ZM433 475Q420 475 413.5 472.5Q407 470 399 461Q385 447 377 447Q372 447 368.0 443.5Q364 440 356.5 432.5Q349 425 340 419Q329 411 327.5 407.0Q326 403 328 391Q332 367 348.0 347.0Q364 327 381 322Q387 321 404.5 310.5Q422 300 441 300Q472 300 500.0 330.0Q528 360 528 396Q528 425 497.0 450.0Q466 475 433 475ZM478 74Q477 74 462.0 70.0Q447 66 420 66Q394 66 351.5 73.5Q309 81 295 81Q285 81 274.0 87.5Q263 94 205 134Q191 143 182.0 152.0Q173 161 170.5 165.5Q168 170 165.0 172.5Q162 175 157 175Q147 175 147 180Q147 185 140.5 191.5Q134 198 129 198Q124 198 124 212Q124 222 119.0 229.0Q114 236 114 246Q114 259 111 259Q107 259 101.5 271.0Q96 283 98 287Q100 289 94.0 299.0Q88 309 92 314Q97 319 93 325Q90 329 90 400Q90 505 108 527Q112 532 119.0 553.0Q126 574 131 576Q136 578 145.0 592.0Q154 606 159 606Q164 606 178.5 622.5Q193 639 200.0 639.0Q207 639 225.5 653.0Q244 667 249 667Q255 667 271.0 682.5Q287 698 300 698Q312 698 330.0 703.0Q348 708 351 712Q355 717 378.5 726.5Q402 736 403 738Q404 739 409 739Q419 739 475.0 730.5Q531 722 559 720Q579 718 608.0 706.0Q637 694 642 693Q653 690 702.5 641.0Q752 592 752 585Q752 580 767.5 553.0Q783 526 787 499Q793 454 801.5 432.5Q810 411 810 402Q810 390 805.5 378.0Q801 366 801 364Q801 361 802.5 359.0Q804 357 804 352Q804 333 782.0 288.0Q760 243 737 217Q716 192 711 183Q705 173 690.0 164.5Q675 156 672 153Q669 149 657.0 143.0Q645 137 635.0 132.0Q625 127 625 124Q625 119 566.5 99.0Q508 79 508 75Q508 73 502 73Q499 73 490.5 73.5Q482 74 478 74ZM161 280Q161 274 175.0 254.5Q189 235 189 230Q189 226 194.0 223.0Q199 220 211.0 211.5Q223 203 234 189Q252 166 269 161Q284 156 302 146Q314 139 336.5 137.5Q359 136 429 136Q491 136 508 144Q515 148 543.5 158.5Q572 169 598.5 182.0Q625 195 644 212Q658 224 672.5 238.5Q687 253 695.0 261.0Q703 269 703 269Q708 271 716.0 287.5Q724 304 724 311Q724 320 728 320Q734 320 738.5 337.0Q743 354 743 370Q743 382 738.0 388.5Q733 395 739 404Q744 418 739 434Q735 445 731 473Q727 503 711.5 529.5Q696 556 675.5 578.5Q655 601 651 609Q647 616 636.0 622.0Q625 628 625.0 631.0Q625 634 614.0 641.0Q603 648 567.0 657.5Q531 667 480 670Q469 671 457.5 671.5Q446 672 438.5 672.5Q431 673 425.0 673.5Q419 674 415.5 674.5Q412 675 412 675Q404 675 399.0 671.0Q394 667 391.5 661.5Q389 656 379.0 651.0Q369 646 353 645Q329 643 318 639Q299 631 291 629Q280 625 253.5 608.0Q227 591 206.5 575.5Q186 560 185 558Q185 557 169.0 539.0Q153 521 151 510Q135 427 135 394Q135 372 143.5 348.5Q152 325 152.0 311.0Q152 297 156.5 290.5Q161 284 161 280Z" transform="translate(0.00,958.33) scale(0.9583,-0.9583)" fill="#000000" />
  <path d="M239 654Q239 656 240.5 658.5Q242 661 242 672Q242 678 255.0 682.5Q268 687 282 687Q300 687 305.5 678.5Q311 670 313 634Q314 621 317.0 591.0Q320 561 322 536L325 512V495L352 491Q368 489 396.0 488.0Q424 487 443.5 486.0Q463 485 468 482Q475 479 485.0 483.5Q495 488 501 486Q502 486 502 486L504 485Q507 485 507 494Q507 552 498 570Q494 578 490.5 606.5Q487 635 486.0 655.0Q485 675 485 680Q485 727 516 727Q517 727 519.0 726.5Q521 726 522 726Q536 724 538.5 723.0Q541 722 541 717Q541 710 543 710H544Q552 710 553 662Q555 614 560 559Q564 518 566.0 508.0Q568 498 575 494Q589 487 650 487Q674 487 703.0 493.5Q732 500 753 500Q802 500 802 451Q802 430 797.0 424.5Q792 419 776 419Q752 419 730.0 425.0Q708 431 695 431Q686 431 647.5 427.5Q609 424 586 424L564 423V371Q564 319 568 311Q571 307 604.0 303.0Q637 299 664 299Q678 299 686.5 301.5Q695 304 713 304Q719 304 727.5 303.5Q736 303 741 303Q763 303 776.5 307.5Q790 312 800 312Q802 312 808.0 311.5Q814 311 825.5 308.5Q837 306 846.5 301.5Q856 297 863.5 288.5Q871 280 871 269Q871 231 828 231Q824 231 794.0 234.0Q764 237 727 237Q582 237 577 230Q574 224 574 202Q574 172 580.5 138.5Q587 105 587 94Q587 76 578.5 69.5Q570 63 551 63Q509 63 509 89V90Q509 92 509.5 95.0Q510 98 510.5 103.0Q511 108 511.5 115.5Q512 123 512.5 132.0Q513 141 513.0 154.0Q513 167 513 181Q513 233 511 235Q507 239 393 242L346 243L348 199Q349 170 351.0 161.0Q353 152 361 144Q372 133 367 124Q363 117 363 104Q363 77 319 77Q292 77 292 80Q290 94 290 102Q290 115 292.5 129.5Q295 144 295 152Q295 164 289.5 194.0Q284 224 284 233Q284 240 280.5 241.5Q277 243 259 242Q247 241 210 241Q104 241 66.5 248.0Q29 255 29 277Q29 282 32 290Q41 311 55.0 316.0Q69 321 111.0 321.0Q153 321 184.5 315.0Q216 309 251 309Q280 309 282.0 313.0Q284 317 284 337Q284 345 283.0 358.0Q282 371 280.5 383.5Q279 396 277.5 408.0Q276 420 275 428L274 435Q274 440 158 445Q51 449 39 456Q30 461 30 482Q30 490 32.5 494.5Q35 499 52.5 505.0Q70 511 103 511Q150 511 216 506L274 502L271 520Q269 530 264.5 542.5Q260 555 258 576Q255 600 250.5 617.5Q246 635 242.5 643.0Q239 651 239 654ZM357 430Q333 430 333 417Q333 411 336.0 388.5Q339 366 339 355Q339 336 347 315Q353 299 356.0 296.0Q359 293 371 294Q381 294 390.5 297.5Q400 301 409 301Q416 301 436.5 298.0Q457 295 461 296Q465 296 481.5 298.0Q498 300 502 301Q507 301 507 319Q507 328 505.5 351.0Q504 374 503 393L502 412Q501 416 471.5 422.0Q442 428 425 428Q399 426 395 426Q385 426 374.0 428.0Q363 430 357 430Z" transform="translate(942.50,958.33) scale(0.9583,-0.9583)" fill="#000000" />
  <path d="M360 766Q370 766 398.0 751.0Q426 736 427 729Q428 728 430 728Q434 728 438.5 724.0Q443 720 446.5 715.0Q450 710 454 705L457 700Q473 697 504 651Q517 630 525 625Q535 617 535 606Q535 601 551 581Q568 559 568 543Q568 534 573.5 525.0Q579 516 580 506Q590 399 590 374Q590 356 589.0 344.0Q588 332 587.0 327.0Q586 322 583.5 312.5Q581 303 580 296Q579 290 560.0 245.0Q541 200 540 194Q538 183 522 165Q509 150 494.5 130.0Q480 110 479 106Q478 95 452.5 73.5Q427 52 409 44Q401 40 392.0 33.0Q383 26 373.5 23.0Q364 20 347 20Q326 20 318.0 27.5Q310 35 310 56Q310 92 346 103Q356 106 393.5 130.5Q431 155 444 168Q460 184 460 190Q460 199 469.0 207.0Q478 215 478 217Q478 227 484 233Q487 237 491.5 254.0Q496 271 500 275Q510 285 520 328Q521 330 522.5 383.5Q524 437 527 443Q522 446 522 457Q521 469 516.0 490.5Q511 512 508 516Q502 521 502 530Q502 532 490.0 558.5Q478 585 478 591V592Q469 595 469 604Q469 606 466 606Q458 606 452.0 614.0Q446 622 436 643Q434 648 429 653Q422 654 408 666Q377 695 347 706Q339 709 330.0 717.0Q321 725 321.0 732.0Q321 739 337.0 752.5Q353 766 360 766Z" transform="translate(1885.00,958.33) scale(0.9583,-0.9583)" fill="#000000" />
  <path d="M342 672Q345 672 355.5 678.0Q366 684 393.0 690.5Q420 697 463 697Q487 697 550 690Q586 686 595.0 682.5Q604 679 619 663Q641 641 641 638Q641 634 648.0 634.0Q655 634 655 630Q655 626 676.0 610.0Q697 594 697 591Q697 589 703.0 576.5Q709 564 715.5 548.0Q722 532 723 521Q727 503 730 501Q734 498 734 448Q734 420 733.0 405.0Q732 390 730.0 388.0Q728 386 726.5 383.0Q725 380 725 374Q725 365 718.0 357.5Q711 350 711 346Q711 341 680.5 301.0Q650 261 650.0 257.0Q650 253 676.0 224.5Q702 196 702 194Q702 192 718.0 172.5Q734 153 734 146Q734 140 751.5 119.5Q769 99 769 85Q769 50 748 50Q726 50 715.0 59.0Q704 68 704 77Q704 82 686.5 103.0Q669 124 668 126Q663 140 624.0 182.5Q585 225 577 225Q577 225 574.5 222.5Q572 220 563.0 216.0Q554 212 538 210Q532 209 525.0 206.5Q518 204 504.5 202.5Q491 201 465 201Q413 201 370.5 206.0Q328 211 320 211Q307 211 291.5 190.0Q276 169 272 167Q266 166 266 156Q266 151 264.0 148.0Q262 145 256.5 139.5Q251 134 245 126Q240 118 229.5 105.5Q219 93 211.5 83.0Q204 73 202 66Q199 51 194 51Q187 51 163.0 56.5Q139 62 136 64Q133 67 131 85Q130 97 132.5 102.0Q135 107 145 115Q167 132 186.0 152.0Q205 172 209 184Q209 186 224.0 215.5Q239 245 242 247Q246 250 246.0 253.0Q246 256 234.5 264.0Q223 272 221.5 278.0Q220 284 202.0 305.5Q184 327 184 329Q184 331 177 340Q170 347 161.5 378.0Q153 409 153 427Q153 427 153.5 432.5Q154 438 154.0 445.5Q154 453 154 458Q154 475 173.5 510.5Q193 546 200 549Q213 554 226.5 578.0Q240 602 242 602Q244 602 288.0 637.0Q332 672 342 672ZM567 616Q544 628 527.0 631.0Q510 634 457 634Q428 634 416.0 627.5Q404 621 388 621Q353 621 308.5 590.0Q264 559 232.5 514.5Q201 470 201 435Q201 422 210.0 408.5Q219 395 219 390Q219 383 239.0 360.5Q259 338 268 334Q276 331 285.5 317.0Q295 303 301 302Q311 300 327.5 292.5Q344 285 351 278Q363 268 407.0 262.0Q451 256 483 256Q514 256 540.0 266.0Q566 276 579.5 286.5Q593 297 594 297Q600 297 611.0 306.0Q622 315 622 320Q622 322 624.5 324.0Q627 326 631.0 329.0Q635 332 643.0 344.0Q651 356 660 375Q672 399 675.0 409.0Q678 419 678 433Q678 455 675.0 471.0Q672 487 668.0 496.5Q664 506 653 528Q641 554 632.0 566.5Q623 579 619.0 579.5Q615 580 611.5 582.0Q608 584 604 591Q601 599 567 616Z" transform="translate(2827.50,958.33) scale(0.9583,-0.9583)" fill="#000000" />
  <path d="M281 756Q295 756 318.5 734.0Q342 712 359.0 691.0Q376 670 376 668Q376 665 384.0 657.0Q392 649 404.0 636.5Q416 624 423 615Q435 600 479.0 553.0Q523 506 531 501Q539 496 539 492Q539 488 585.5 446.0Q632 404 641 399Q647 396 649.0 391.5Q651 387 649 375Q648 360 638.0 348.0Q628 336 619.0 329.0Q610 322 610 317Q610 314 580.5 291.5Q551 269 549 269Q544 269 544.0 263.0Q544 257 533.5 246.5Q523 236 518 236Q512 236 512 231Q512 227 505 227Q501 227 495.0 216.5Q489 206 478 202Q465 197 465 191Q465 184 461 184Q457 184 441.5 169.0Q426 154 406.0 133.0Q386 112 378 105Q345 76 345 62Q345 50 339.0 42.0Q333 34 324.0 31.5Q315 29 309.5 28.0Q304 27 300 27Q286 27 273.0 35.5Q260 44 257 45Q250 48 250 58Q250 70 259.5 84.5Q269 99 282 106Q295 112 314.5 133.5Q334 155 340 160Q362 179 385.0 203.0Q408 227 408 230Q408 233 419.5 242.5Q431 252 451.0 268.5Q471 285 485 299Q537 352 550.0 366.0Q563 380 563 385Q563 387 549.5 399.5Q536 412 520.0 425.5Q504 439 502 441Q465 481 465 485Q465 488 418.0 535.0Q371 582 371 586Q371 589 354.5 600.5Q338 612 338 619Q338 626 294.5 666.5Q251 707 251 718Q251 730 260.0 743.0Q269 756 281 756Z" transform="translate(3770.00,958.33) scale(0.9583,-0.9583)" fill="#000000" />
  <path d="M283 320Q283 329 274.0 336.0Q265 343 265.0 348.0Q265 353 250.5 368.0Q236 383 236 392Q236 401 245.0 413.0Q254 425 265.5 425.0Q277 425 295.0 408.0Q313 391 315 391Q318 391 334.0 421.5Q350 452 363 452Q384 452 398.5 444.0Q413 436 413 425Q413 420 407.0 412.5Q401 405 401 403Q401 400 387.0 384.0Q373 368 373 366Q373 363 363.0 352.0Q353 341 353 332Q353 319 372.0 297.5Q391 276 409 268Q423 262 428.0 256.5Q433 251 433 242Q433 208 408 208Q394 208 361.0 234.5Q328 261 326 261Q323 261 314.5 250.5Q306 240 294.0 229.0Q282 218 269 218Q246 218 240 251Q239 262 239.5 265.5Q240 269 246 269Q255 269 269.0 287.0Q283 305 283 320ZM547 445Q547 458 557.0 471.0Q567 484 581 484Q588 484 601 479Q607 477 609.5 475.5Q612 474 614.0 469.5Q616 465 616 457Q616 439 596.5 399.5Q577 360 577 347Q577 336 585.5 325.5Q594 315 604.0 308.0Q614 301 622.5 288.5Q631 276 631 260Q631 247 624.5 241.5Q618 236 601 236Q583 236 574.5 242.0Q566 248 556 268Q545 292 542 292Q531 291 508.5 247.5Q486 204 477 204Q464 204 452.5 217.0Q441 230 441 239Q455 277 461 284Q469 292 487 325L495 339L467 366Q450 382 445.5 388.0Q441 394 441 402Q441 428 457 443Q466 451 471.0 452.5Q476 454 486 450Q495 447 505.5 436.5Q516 426 523.0 417.5Q530 409 532 409Q535 409 541.0 424.0Q547 439 547 445ZM288 686Q291 686 298.0 695.5Q305 705 312 705Q321 705 321 708Q321 712 338.5 720.0Q356 728 366 728Q373 728 379.5 732.0Q386 736 399 737Q417 737 419 739Q421 741 433.5 738.5Q446 736 450 732Q456 728 481 728Q508 728 511 723Q513 720 543.0 705.5Q573 691 577 691Q578 691 602.5 674.5Q627 658 632 658Q638 658 671.5 624.5Q705 591 711 579Q716 567 732.0 545.0Q748 523 759.5 499.0Q771 475 773 445Q776 421 783.0 394.0Q790 367 794 367Q798 367 794 340Q787 288 786 278Q783 249 776.5 231.0Q770 213 765.0 207.0Q760 201 760 199Q760 192 759.0 189.0Q758 186 756.0 185.0Q754 184 749.0 177.0Q744 170 738 158Q732 142 703.5 112.5Q675 83 663 79Q654 77 654.0 72.0Q654 67 649 67Q644 67 629 56Q612 42 566.5 34.5Q521 27 467 27Q386 27 317 49Q277 62 215.0 119.0Q153 176 144 208Q141 221 135.0 235.5Q129 250 124.5 259.0Q120 268 120 272Q120 278 112 294Q104 309 104 356Q104 413 106.5 431.5Q109 450 119 470Q131 493 135 509Q137 516 153.0 538.0Q169 560 184.0 579.0Q199 598 199 599Q199 603 241.5 644.5Q284 686 288 686ZM508 653Q505 653 501.5 655.5Q498 658 493.5 661.5Q489 665 474.0 667.5Q459 670 434 670Q370 670 349 657Q332 648 326.5 643.5Q321 639 321 631Q321 619 316.5 612.5Q312 606 295 594Q285 587 263.0 570.5Q241 554 228.0 545.0Q215 536 213 536Q209 536 209 526Q209 515 202 508Q194 499 180.5 470.0Q167 441 167 433Q167 424 159 420Q152 416 149 366L147 317L166 277Q185 239 185 232Q185 228 215.0 197.5Q245 167 265 151Q274 145 285.5 138.0Q297 131 323.5 118.0Q350 105 388.0 96.5Q426 88 466 88Q529 88 560 98Q580 105 617.0 127.0Q654 149 658 157Q658 157 680.0 185.0Q702 213 709 229Q731 271 731 340Q731 370 723.0 393.0Q715 416 715 427Q715 446 691.0 493.0Q667 540 656 543Q647 545 642.0 560.0Q637 575 629 579Q618 585 592.0 607.5Q566 630 556.0 630.0Q546 630 546.0 633.0Q546 636 530.0 644.5Q514 653 508 653Z" transform="translate(4712.50,958.33) scale(0.9583,-0.9583)" fill="#000000" />
</svg>
