<?xml version="1.0" encoding="UTF-8" standalone="no"?>
<!--
Representation of "Sasuwa" in sitelen kalama pona
Generated by generate_sitelen_kalama_pona.py

Description:
  Representation of "Sasuwa" in sitelen kalama pona.
  Sources: sa: https://commons.wikimedia.org/wiki/File:Sitelen_kalama_pona_-_sa.svg; su: https://commons.wikimedia.org/wiki/File:Sitelen_kalama_pona_-_su.svg; wa: https://commons.wikimedia.org/wiki/File:Sitelen_kalama_pona_-_wa.svg

Categories:
  [[Category:Sitelen kalama pona]]
  [[Category:Toki Pona text containing sound symbol Sa]]
  [[Category:Toki Pona text containing sound symbol Su]]
  [[Category:Toki Pona text containing sound symbol Wa]]

Sources:
  sa: https://commons.wikimedia.org/wiki/File:Sitelen_kalama_pona_-_sa.svg
  su: https://commons.wikimedia.org/wiki/File:Sitelen_kalama_pona_-_su.svg
  wa: https://commons.wikimedia.org/wiki/File:Sitelen_kalama_pona_-_wa.svg
-->
<svg version="1.1" width="4271" height="1000"
     viewBox="0 0 4271 1000"
     xmlns="http://www.w3.org/2000/svg">
  <path d="M 24.637998,12.488337 H 20.72216 q -1.48166,0 -2.54,-1.058333 -1.05833,-1.058333 -1.05833,-2.54 V 3.598338 q 0,-1.481667 1.05833,-2.54 Q 19.2405,4e-6 20.72216,4e-6 h 3.915838 V 0.846671 H 20.72216 q -1.13241,0 -1.94733,0.814917 -0.80433,0.804333 -0.80433,1.93675 v 5.291666 q 0,1.132417 0.80433,1.93675 0.81492,0.814917 1.94733,0.814917 h 3.915838 z" transform="translate(-1371.19,0.00) scale(80.0747,80.0747)" fill="#000000" />
  <path d="M 75.014662,0.846671 V 4e-6 h 13.123333 v 0.846667 z m 0,11.641666 v -0.846666 h 13.123333 v 0.846666 z" transform="translate(-5405.08,0.00) scale(80.0747,80.0747)" fill="#000000" />
  <path d="M 75.014662,0.846671 V 4e-6 h 13.123333 v 0.846667 z m 0,11.641666 v -0.846666 h 13.123333 v 0.846666 z" transform="translate(-4354.24,0.00) scale(80.0747,80.0747)" fill="#000000" />
  <path d="M 75.014662,0.846671 V 4e-6 h 13.123333 v 0.846667 z m 0,11.641666 v -0.846666 h 13.123333 v 0.846666 z" transform="translate(-3303.39,0.00) scale(80.0747,80.0747)" fill="#000000" />
  <path d="m 87.714667,4e-6 h 2.8575 q 1.481666,0 2.54,1.058334 1.058333,1.058333 1.058333,2.54 v 5.291666 q 0,1.481667 -1.058333,2.54 -1.058334,1.058333 -2.54,1.058333 h -2.8575 v -0.846666 h 2.8575 q 1.132416,0 1.93675,-0.814917 0.814916,-0.804333 0.814916,-1.93675 V 3.598338 q 0,-1.132417 -0.814916,-1.93675 -0.804334,-0.814917 -1.93675,-0.814917 h -2.8575 z" transform="translate(-3269.49,0.00) scale(80.0747,80.0747)" fill="#000000" />
  <path d="M 577.64,565.25 C 577.64,456.40 383.33,439.54 383.33,286.00 C 383.33,215.36 440.44,158.77 504.81,136.38 L 521.24,183.61 C 500.67,190.76 479.72,203.37 463.83,219.27 C 444.85,238.24 433.32,260.88 433.32,285.95 C 433.32,342.59 469.36,371.28 522.33,411.26 C 572.69,449.26 627.55,490.67 627.55,565.94 C 627.55,572.64 627.10,579.52 626.16,586.58 C 626.55,591.04 626.73,595.49 626.73,599.92 C 626.73,670.56 579.14,737.39 510.17,757.95 C 506.95,758.91 506.95,758.91 415.57,760.99 L 414.43,711.01 L 498.87,709.09 C 546.17,693.40 576.72,646.05 576.72,599.58 C 576.72,594.79 576.00,586.14 576.00,586.00 C 576.00,581.85 577.64,576.17 577.64,565.25  Z M 197.72,446.47 C 197.72,492.62 208.00,522.50 208.00,530.00 C 208.00,532.16 186.84,735.12 185.86,744.60 C 185.86,744.60 136.14,739.44 136.14,739.40 C 157.70,531.63 157.70,531.63 157.70,531.63 C 151.03,502.59 147.85,474.33 147.85,447.12 C 147.85,258.30 300.17,123.35 494.47,123.35 C 520.32,123.35 546.83,125.74 573.72,130.70 C 575.87,130.50 577.95,130.42 579.99,130.42 C 597.86,130.42 618.35,135.00 635.00,135.00 C 637.38,135.00 637.38,135.00 723.71,151.45 C 723.71,151.45 714.35,200.56 714.29,200.55 C 633.32,185.13 633.32,185.13 633.32,185.13 C 632.48,185.15 631.65,185.17 630.82,185.17 C 617.86,185.17 593.41,180.49 579.47,180.49 C 576.64,180.49 576.40,181.00 573.00,181.00 C 566.76,181.00 538.47,173.33 494.42,173.33 C 329.07,173.33 197.72,285.24 197.72,446.47 Z" transform="translate(727.12,100.00) scale(0.8000,0.8000)" fill="#000000" />
  <path d="M 184.24,533.83 C 184.24,625.71 260.73,704.65 353.68,712.97 C 386.01,711.86 464.94,701.15 535.02,628.63 C 537.22,626.35 539.76,624.84 545.35,619.26 C 562.88,601.72 575.03,577.42 588.80,548.64 C 589.72,541.69 590.16,535.23 590.16,529.19 C 590.16,400.93 382.04,405.91 331.67,275.00 C 330.56,272.11 330.00,269.06 330.00,266.00 C 330.00,262.47 337.91,210.91 383.37,165.45 C 429.90,118.93 496.36,96.16 561.36,96.16 C 574.48,96.16 587.54,97.08 600.36,98.93 C 602.73,98.85 605.61,98.80 608.75,98.80 C 626.95,98.80 648.41,99.18 654.71,118.07 L 656.73,124.12 L 611.20,139.30 L 616.21,146.16 L 622.71,149.41 C 620.15,149.03 612.31,148.88 606.38,148.88 C 602.05,148.88 599.07,149.00 599.00,149.00 C 594.46,149.00 583.23,146.21 562.12,146.21 C 508.64,146.21 454.28,165.26 418.73,200.81 C 401.61,217.92 388.57,238.85 381.34,264.00 C 428.37,362.57 640.09,367.23 640.09,529.57 C 640.09,529.95 639.99,557.54 635.55,566.81 C 616.30,606.98 601.26,638.38 569.96,664.42 C 538.90,696.29 463.48,759.87 353.72,762.98 C 353.48,762.99 353.24,763.00 353.00,763.00 C 351.34,763.00 269.86,761.28 202.01,693.43 C 160.55,651.98 134.24,595.37 134.24,533.91 C 134.24,524.93 134.80,515.85 135.96,506.70 C 135.90,504.18 135.87,501.68 135.87,499.18 C 135.87,417.44 167.52,344.27 178.02,270.18 C 178.19,252.24 180.44,234.48 180.44,218.20 C 180.44,212.86 180.00,206.12 180.00,206.00 C 180.00,199.53 186.50,179.43 186.50,146.18 C 186.50,141.31 186.35,136.42 186.05,131.52 L 235.95,128.46 C 236.31,134.39 236.49,140.29 236.49,146.17 C 236.49,167.20 234.22,187.81 230.17,207.78 C 230.37,211.46 230.45,215.07 230.45,218.61 C 230.45,222.78 227.84,274.86 227.76,275.42 C 217.14,352.79 185.87,425.83 185.87,499.48 C 185.87,503.48 186.00,507.91 186.00,508.00 C 186.00,511.91 184.24,519.34 184.24,533.83 Z" transform="translate(1777.97,100.00) scale(0.8000,0.8000)" fill="#000000" />
  <path d="M 184.38,603.07 C 184.38,619.66 179.99,631.36 179.99,643.91 L 130.01,644.09 C 130.00,643.96 130.00,643.83 130.00,643.71 C 130.00,626.09 134.39,613.74 134.39,602.97 C 134.39,599.52 134.00,598.63 134.00,596.00 C 134.00,572.39 141.02,494.57 141.02,442.55 C 141.02,413.96 139.64,414.42 139.64,377.95 C 139.64,286.32 150.35,77.39 291.04,30.30 C 293.62,29.44 296.31,29.00 299.00,29.00 C 311.77,29.00 332.18,43.47 342.91,54.20 C 382.83,94.12 386.03,157.56 386.03,208.75 C 386.03,220.90 386.03,221.95 385.64,224.21 C 384.66,229.95 384.20,235.81 384.20,241.67 C 384.20,281.58 406.11,325.38 443.03,332.30 C 479.72,311.28 489.71,225.28 492.11,195.29 C 490.31,167.55 488.39,132.39 488.39,108.14 C 488.39,87.09 489.71,79.35 497.01,72.05 C 500.14,68.92 506.81,64.66 515.07,64.66 C 540.07,64.66 541.82,91.26 543.05,109.98 C 543.69,119.81 544.13,131.97 544.13,145.70 C 544.13,152.27 544.07,171.76 542.25,195.89 C 542.27,196.15 544.00,221.22 544.00,222.00 C 544.00,224.14 543.34,230.15 543.34,239.79 C 543.34,275.62 553.16,320.92 602.86,320.92 C 653.85,320.92 724.98,271.74 737.04,203.54 C 737.05,201.81 737.06,199.97 737.06,198.04 C 737.06,185.63 736.66,174.01 735.62,156.45 C 732.53,143.32 730.11,141.35 730.01,134.36 C 729.94,129.75 729.91,125.76 729.91,122.31 C 729.91,101.66 730.91,96.13 738.02,89.02 C 741.14,85.90 747.81,81.67 756.02,81.67 C 759.85,81.67 777.38,82.91 781.26,105.15 C 782.36,111.46 783.87,126.13 785.32,149.67 C 787.64,161.00 788.73,172.15 788.73,183.05 C 788.73,190.45 788.23,197.73 787.27,204.87 C 787.28,206.17 787.29,207.43 787.29,208.66 C 787.29,215.10 787.09,220.65 786.04,226.36 C 786.78,262.00 789.77,310.15 789.77,353.76 C 789.77,445.84 780.66,614.38 612.04,614.38 C 598.56,614.38 584.27,613.27 569.18,611.01 L 321.20,612.99 L 320.80,563.01 L 571.00,561.00 C 571.42,561.00 595.53,564.55 613.31,564.55 C 709.24,564.55 739.69,492.00 739.69,353.34 C 739.69,337.31 739.32,321.18 738.80,305.28 C 726.08,319.20 674.06,370.93 603.47,370.93 C 563.61,370.93 532.13,353.09 513.47,322.82 C 490.16,371.46 456.59,383.00 447.00,383.00 C 444.66,383.00 408.52,382.47 376.67,350.62 C 349.08,323.03 334.11,282.95 334.11,242.61 C 334.11,225.02 336.02,225.35 336.02,212.10 C 336.02,161.49 333.44,104.28 297.37,81.39 C 205.31,121.59 189.64,277.46 189.64,378.93 C 189.64,383.95 191.03,442.24 191.03,442.88 C 191.03,474.28 189.09,504.89 187.22,534.95 C 185.96,555.23 184.71,575.27 184.04,595.17 C 184.28,597.90 184.38,600.54 184.38,603.07 Z" transform="translate(2828.81,100.00) scale(0.8000,0.8000)" fill="#000000" />
</svg>
