<?xml version="1.0" encoding="UTF-8" standalone="no"?>
<!--
Representation of "musi Selete" in sitelen ilo pona
Generated by generate_sitelen_kalama_pona.py

Description:
  Representation of "musi Selete" in sitelen ilo pona.
  Sources: musi: https://commons.wikimedia.org/wiki/File:Sitelen_seli_kiwen_-_musi.svg; se: https://commons.wikimedia.org/wiki/File:Sitelen_kalama_pona_-_se.svg; le: https://commons.wikimedia.org/wiki/File:Sitelen_kalama_pona_-_le.svg; te: https://commons.wikimedia.org/wiki/File:Sitelen_kalama_pona_-_te.svg

Categories:
  [[Category:Sitelen kalama pona]]
  [[Category:Toki Pona text containing musi]]
  [[Category:Toki Pona text containing sound symbol Se]]
  [[Category:Toki Pona text containing sound symbol Le]]
  [[Category:Toki Pona text containing sound symbol Te]]

Sources:
  musi: https://commons.wikimedia.org/wiki/File:Sitelen_seli_kiwen_-_musi.svg
  se: https://commons.wikimedia.org/wiki/File:Sitelen_kalama_pona_-_se.svg
  le: https://commons.wikimedia.org/wiki/File:Sitelen_kalama_pona_-_le.svg
  te: https://commons.wikimedia.org/wiki/File:Sitelen_kalama_pona_-_te.svg
-->
<svg version="1.1" width="5214" height="1000"
     viewBox="0 0 5214 1000"
     xmlns="http://www.w3.org/2000/svg">
  <path d="M286 410Q282 410 276.5 411.5Q271 413 268 413Q258 413 251.5 406.0Q245 399 236 380Q206 321 206 304Q206 301 210.0 294.5Q214 288 212 272Q212 268 212 262Q212 252 218.5 243.0Q225 234 228 222Q231 205 238 198Q248 189 256 178Q270 158 297.5 144.5Q325 131 347.0 125.5Q369 120 370 119Q373 115 394.5 110.0Q416 105 432.5 105.0Q449 105 480.5 114.0Q512 123 526 125Q551 128 580.5 145.0Q610 162 616 176Q618 184 626.0 184.0Q634 184 640.0 221.5Q646 259 646 270Q646 275 643.0 278.5Q640 282 639.0 282.0Q638 282 642 285Q642 285 642 289Q642 305 628.5 348.0Q615 391 610 391Q607 391 606.0 395.0Q605 399 599.0 406.0Q593 413 580 419Q558 430 547.0 442.5Q536 455 524 479Q512 506 512 518Q512 523 517.5 532.0Q523 541 524 558Q524 577 528 582Q534 586 541.0 602.5Q548 619 548 628Q548 629 549.5 633.5Q551 638 556.0 646.0Q561 654 569.5 661.0Q578 668 594.5 673.0Q611 678 632 678Q670 678 670 671Q670 667 682 667Q702 667 721.5 652.0Q741 637 750.5 623.0Q760 609 760 606Q760 600 764.5 594.5Q769 589 772 578Q775 564 778 564Q780 564 780 557Q780 544 774.5 518.5Q769 493 762 479Q752 460 737.5 445.5Q723 431 711.0 424.0Q699 417 689.5 410.0Q680 403 680 397Q680 389 692 380Q701 371 704.5 354.5Q708 338 710 273Q712 261 712 242Q712 211 703.0 195.0Q694 179 694.0 173.0Q694 167 696 163Q696 162 696.0 160.0Q696 158 696 157Q696 147 676 131Q611 78 595.0 69.5Q579 61 518 48Q470 37 420 37Q385 37 365.0 41.0Q345 45 331.5 51.5Q318 58 310 60Q298 62 282.5 73.5Q267 85 244 96Q212 111 212 116Q212 120 197.5 136.5Q183 153 180 165Q177 180 174 180Q170 180 170 189Q170 194 169.0 195.0Q168 196 164 196Q157 196 152.0 213.0Q147 230 145.0 253.0Q143 276 142.5 291.0Q142 306 142 310Q142 328 151.0 352.0Q160 376 160 384Q160 395 166 400Q173 406 173.0 416.5Q173 427 166 430Q162 431 161.0 432.5Q160 434 160.5 435.0Q161 436 158.5 440.5Q156 445 150 452Q137 466 128.5 490.5Q120 515 120 534Q120 537 123.0 551.5Q126 566 133.0 585.0Q140 604 148 612Q156 621 156 628Q156 636 170.5 655.0Q185 674 196 679Q205 683 226.0 686.0Q247 689 263.5 690.0Q280 691 282 693Q283 694 310.0 691.0Q337 688 367.0 676.5Q397 665 402 648Q403 639 408 639Q412 639 412 628Q412 619 422 609Q432 601 432 569Q432 497 400 466Q379 443 344.0 426.5Q309 410 286 410ZM368 555Q368 565 365.5 575.0Q363 585 356.0 600.0Q349 615 331.0 624.5Q313 634 286 634Q285 634 276.5 633.5Q268 633 256.0 632.0Q244 631 235.0 629.0Q226 627 226 624Q226 618 215.5 602.0Q205 586 196 576Q182 562 182 540Q182 519 196 505Q210 492 216.5 487.5Q223 483 236.0 479.0Q249 475 270 475Q288 475 314 489Q345 504 356.5 517.5Q368 531 368 555ZM712 546Q712 567 691.0 590.5Q670 614 634 614Q626 614 598 604Q588 600 581.0 574.5Q574 549 574.0 526.0Q574 503 598.5 489.0Q623 475 644 475Q677 475 694.5 499.5Q712 524 712 546Z" transform="translate(0.00,958.33) scale(0.9583,-0.9583)" fill="#000000" />
  <path d="M 24.637998,12.488337 H 20.72216 q -1.48166,0 -2.54,-1.058333 -1.05833,-1.058333 -1.05833,-2.54 V 3.598338 q 0,-1.481667 1.05833,-2.54 Q 19.2405,4e-6 20.72216,4e-6 h 3.915838 V 0.846671 H 20.72216 q -1.13241,0 -1.94733,0.814917 -0.80433,0.804333 -0.80433,1.93675 v 5.291666 q 0,1.132417 0.80433,1.93675 0.81492,0.814917 1.94733,0.814917 h 3.915838 z" transform="translate(-428.69,0.00) scale(80.0747,80.0747)" fill="#000000" />
  <path d="M 75.014662,0.846671 V 4e-6 h 13.123333 v 0.846667 z m 0,11.641666 v -0.846666 h 13.123333 v 0.846666 z" transform="translate(-4462.58,0.00) scale(80.0747,80.0747)" fill="#000000" />
  <path d="M 75.014662,0.846671 V 4e-6 h 13.123333 v 0.846667 z m 0,11.641666 v -0.846666 h 13.123333 v 0.846666 z" transform="translate(-3411.74,0.00) scale(80.0747,80.0747)" fill="#000000" />
  <path d="M 75.014662,0.846671 V 4e-6 h 13.123333 v 0.846667 z m 0,11.641666 v -0.846666 h 13.123333 v 0.846666 z" transform="translate(-2360.89,0.00) scale(80.0747,80.0747)" fill="#000000" />
  <path d="m 87.714667,4e-6 h 2.8575 q 1.481666,0 2.54,1.058334 1.058333,1.058333 1.058333,2.54 v 5.291666 q 0,1.481667 -1.058333,2.54 -1.058334,1.058333 -2.54,1.058333 h -2.8575 v -0.846666 h 2.8575 q 1.132416,0 1.93675,-0.814917 0.814916,-0.804333 0.814916,-1.93675 V 3.598338 q 0,-1.132417 -0.814916,-1.93675 -0.804334,-0.814917 -1.93675,-0.814917 h -2.8575 z" transform="translate(-2326.99,0.00) scale(80.0747,80.0747)" fill="#000000" />
  <path d="M 263.20,147.66 C 263.20,211.90 311.50,261.37 366.33,278.10 C 366.33,278.10 351.73,325.92 351.67,325.90 C 274.13,302.24 213.22,232.48 213.22,147.57 C 213.22,141.74 213.46,129.20 215.45,123.60 C 238.60,58.47 315.71,43.96 377.90,32.25 C 392.95,29.42 407.02,26.75 418.85,23.77 C 420.82,23.27 422.83,23.02 424.85,23.01 L 752.85,21.01 L 753.15,70.99 L 428.14,72.98 C 393.59,81.37 348.87,86.55 314.49,98.75 C 277.38,111.93 267.59,128.15 263.58,137.72 C 263.33,141.07 263.20,144.38 263.20,147.66  Z M 542.52,135.87 C 542.94,135.87 584.45,134.64 584.74,134.64 C 605.27,134.64 628.28,137.16 652.57,149.83 C 654.87,151.03 666.00,157.59 666.00,172.00 L 666.00,178.00 L 619.64,178.00 L 629.43,194.17 C 614.66,186.46 601.63,184.61 585.72,184.61 C 585.29,184.61 545.13,185.88 542.64,185.88 C 536.98,185.88 531.05,185.71 524.87,185.25 C 467.43,199.78 394.55,260.59 393.93,325.38 C 414.96,379.12 488.04,408.98 537.68,458.62 C 564.56,485.50 586.02,520.64 586.02,567.44 C 586.02,579.35 578.60,613.12 553.16,638.56 C 511.82,679.90 445.48,682.62 385.37,685.08 C 365.18,685.90 346.18,686.73 330.22,688.79 C 329.11,688.93 325.42,689.23 320.82,689.23 C 293.47,689.23 268.84,678.85 249.93,671.60 C 247.93,670.83 245.98,670.08 244.11,669.37 C 244.11,669.37 261.84,622.61 261.89,622.63 C 284.84,631.33 305.59,639.20 321.90,639.20 C 322.51,639.20 336.22,637.06 383.31,635.13 C 465.86,631.75 523.68,626.30 536.03,567.38 C 536.03,567.34 536.03,567.29 536.03,567.24 C 536.03,516.08 500.02,487.99 447.25,449.83 C 406.13,420.09 362.68,388.66 345.36,338.13 C 344.12,334.52 343.93,331.80 343.93,325.97 C 343.93,232.87 438.85,152.93 517.60,135.59 C 519.37,135.20 521.19,135.00 523.00,135.00 C 523.20,135.00 533.14,135.87 542.52,135.87 Z" transform="translate(1669.62,100.00) scale(0.8000,0.8000)" fill="#000000" />
  <path d="M 343.19,189.78 C 350.46,188.99 362.38,177.00 375.00,177.00 C 384.17,177.00 392.26,181.96 396.60,189.41 C 413.55,218.45 417.13,249.29 417.13,278.19 C 417.13,300.61 414.86,324.58 414.86,347.27 C 414.86,369.37 417.92,380.56 417.92,421.13 C 417.92,491.17 406.90,562.19 386.24,625.33 C 386.23,628.12 385.97,630.69 385.58,633.01 C 446.87,650.04 526.52,651.25 631.16,651.34 C 670.52,651.37 709.57,651.39 746.13,653.03 C 746.13,653.03 743.89,702.97 743.87,702.97 C 657.21,699.08 554.64,704.51 464.61,696.62 C 422.12,692.89 382.36,686.29 348.15,673.39 C 341.62,670.92 331.71,664.27 331.71,646.60 C 331.71,638.11 334.11,631.67 335.13,628.47 C 335.72,626.62 336.04,625.44 336.17,624.90 C 336.06,623.94 336.00,622.97 336.00,622.00 C 336.00,619.29 336.44,616.58 337.32,613.99 C 357.13,555.19 367.90,487.13 367.90,420.60 C 367.90,381.30 364.83,372.40 364.83,347.02 C 364.83,324.74 366.91,303.38 366.91,280.59 C 366.91,264.42 365.81,249.67 362.27,236.33 C 357.81,237.88 351.05,239.78 343.04,239.78 C 339.78,239.78 336.36,239.46 332.85,238.71 C 325.07,237.97 315.74,237.50 305.63,237.00 C 262.11,234.87 211.09,232.36 180.42,201.69 C 160.91,182.19 158.00,158.01 158.00,154.00 C 158.00,153.03 158.88,109.71 201.59,66.99 C 232.10,36.48 271.59,16.68 305.55,2.85 C 308.57,1.62 311.79,0.99 315.00,1.00 C 647.15,3.01 647.15,3.01 647.15,3.01 C 647.15,3.01 646.85,52.99 646.85,52.99 C 319.92,51.03 319.92,51.03 319.92,51.03 C 263.90,74.58 216.45,107.69 208.39,153.29 C 215.59,181.11 259.39,184.68 308.10,187.07 C 324.62,187.88 338.78,188.66 343.19,189.78 Z" transform="translate(2720.47,100.00) scale(0.8000,0.8000)" fill="#000000" />
  <path d="M 479.09,590.36 C 479.09,643.24 509.54,709.81 571.22,709.00 C 722.67,707.01 722.67,707.01 722.67,707.01 L 723.33,756.99 L 571.00,759.00 C 558.22,759.00 515.83,756.03 479.27,719.47 C 446.14,686.35 428.97,638.48 428.97,591.43 C 428.97,580.21 429.95,569.05 431.91,558.13 C 431.49,546.92 431.27,535.70 431.27,524.49 C 431.27,466.24 437.23,408.06 452.00,350.77 L 452.00,318.00 L 502.00,318.00 L 502.00,354.00 C 502.00,363.96 481.26,419.14 481.26,524.49 C 481.26,543.08 482.00,559.64 482.00,560.00 C 482.00,565.45 479.09,572.95 479.09,590.36  Z M 532.63,332.49 C 492.65,332.49 447.35,336.76 403.87,336.76 C 342.51,336.76 239.46,330.35 216.68,233.77 C 216.23,231.87 216.00,229.94 216.00,228.00 C 216.00,216.26 232.94,184.74 256.56,161.12 C 327.23,90.44 448.48,81.81 553.35,74.35 C 619.90,69.61 636.16,67.00 637.00,67.00 L 671.00,67.00 L 671.00,117.00 L 638.61,117.00 C 566.33,126.18 469.10,125.46 390.99,145.81 C 317.70,164.89 284.37,196.70 267.56,230.15 C 281.60,272.29 326.30,286.67 403.85,286.67 C 448.30,286.67 494.32,282.36 532.40,282.36 C 569.80,282.36 563.43,285.31 593.01,285.31 C 608.00,285.31 623.08,284.79 637.66,284.79 C 661.03,284.79 685.80,286.09 712.32,293.00 L 733.00,293.00 C 734.57,293.00 734.57,293.00 784.12,299.20 C 784.12,299.20 777.92,348.81 777.88,348.80 C 731.43,343.00 731.43,343.00 731.43,343.00 L 709.00,343.00 C 698.30,343.00 690.13,334.81 636.65,334.81 C 636.55,334.81 593.51,335.30 593.07,335.30 C 557.87,335.30 569.73,332.49 532.63,332.49 Z" transform="translate(3771.31,100.00) scale(0.8000,0.8000)" fill="#000000" />
</svg>
