<?xml version="1.0" encoding="UTF-8" standalone="no"?>
<!--
Representation of "jan sewi Tolinowiwakusupuneno" in sitelen kalama pona
Generated by generate_sitelen_kalama_pona.py

Description:
  Representation of "jan sewi Tolinowiwakusupuneno" in sitelen kalama pona.
  Sources: jan-sewi: https://commons.wikimedia.org/wiki/File:Sitelen_seli_kiwen_-_jan-sewi.svg; to: https://commons.wikimedia.org/wiki/File:Sitelen_kalama_pona_-_to.svg; li: https://commons.wikimedia.org/wiki/File:Sitelen_kalama_pona_-_li.svg; no: https://commons.wikimedia.org/wiki/File:Sitelen_kalama_pona_-_no.svg; wi: https://commons.wikimedia.org/wiki/File:Sitelen_kalama_pona_-_wi.svg; wa: https://commons.wikimedia.org/wiki/File:Sitelen_kalama_pona_-_wa.svg; ku: https://commons.wikimedia.org/wiki/File:Sitelen_kalama_pona_-_ku.svg; su: https://commons.wikimedia.org/wiki/File:Sitelen_kalama_pona_-_su.svg; pu: https://commons.wikimedia.org/wiki/File:Sitelen_kalama_pona_-_pu.svg; ne: https://commons.wikimedia.org/wiki/File:Sitelen_kalama_pona_-_ne.svg; no: https://commons.wikimedia.org/wiki/File:Sitelen_kalama_pona_-_no.svg

Categories:
  [[Category:Sitelen kalama pona]]
  [[Category:Toki Pona text containing jan sewi]]
  [[Category:Toki Pona text containing sound symbol To]]
  [[Category:Toki Pona text containing sound symbol Li]]
  [[Category:Toki Pona text containing sound symbol No]]
  [[Category:Toki Pona text containing sound symbol Wi]]
  [[Category:Toki Pona text containing sound symbol Wa]]
  [[Category:Toki Pona text containing sound symbol Ku]]
  [[Category:Toki Pona text containing sound symbol Su]]
  [[Category:Toki Pona text containing sound symbol Pu]]
  [[Category:Toki Pona text containing sound symbol Ne]]
  [[Category:Toki Pona text containing sound symbol No]]

Sources:
  jan-sewi: https://commons.wikimedia.org/wiki/File:Sitelen_seli_kiwen_-_jan-sewi.svg
  to: https://commons.wikimedia.org/wiki/File:Sitelen_kalama_pona_-_to.svg
  li: https://commons.wikimedia.org/wiki/File:Sitelen_kalama_pona_-_li.svg
  no: https://commons.wikimedia.org/wiki/File:Sitelen_kalama_pona_-_no.svg
  wi: https://commons.wikimedia.org/wiki/File:Sitelen_kalama_pona_-_wi.svg
  wa: https://commons.wikimedia.org/wiki/File:Sitelen_kalama_pona_-_wa.svg
  ku: https://commons.wikimedia.org/wiki/File:Sitelen_kalama_pona_-_ku.svg
  su: https://commons.wikimedia.org/wiki/File:Sitelen_kalama_pona_-_su.svg
  pu: https://commons.wikimedia.org/wiki/File:Sitelen_kalama_pona_-_pu.svg
  ne: https://commons.wikimedia.org/wiki/File:Sitelen_kalama_pona_-_ne.svg
  no: https://commons.wikimedia.org/wiki/File:Sitelen_kalama_pona_-_no.svg
-->
<svg version="1.1" width="12570" height="1000"
     viewBox="0 0 12570 1000"
     xmlns="http://www.w3.org/2000/svg">
  <path d="M426 418Q426 424 432.5 441.5Q439 459 439 475Q439 490 446.5 503.5Q454 517 468 517Q475 517 484 512Q505 501 505 477Q505 450 492.5 420.0Q480 390 470.5 376.5Q461 363 455 357Q446 348 438.0 346.0Q430 344 400 344Q332 344 313 347Q299 349 288.0 369.5Q277 390 277 408Q277 432 299 432Q308 432 316.5 423.5Q325 415 332 415Q348 415 348 437V444Q346 455 348.0 459.0Q350 463 357 468Q365 473 372 473Q384 473 393.0 457.0Q402 441 409.0 425.0Q416 409 422 409Q426 409 426 418ZM521 544Q522 572 527.5 581.0Q533 590 554.0 590.0Q575 590 582 583Q586 579 586 542Q586 493 579.0 454.0Q572 415 572 415Q572 405 581 399Q590 392 588 385Q584 368 583 358Q581 339 573.5 332.0Q566 325 547 325Q532 325 526.5 331.0Q521 337 521 354Q521 391 518.0 394.0Q515 397 515 414Q515 426 516 433Q517 444 517 451Q517 460 515.5 466.0Q514 472 514 474Q514 479 516 489Q519 500 521 544ZM201 326Q201 332 194.0 337.5Q187 343 187 348Q187 357 178.5 381.0Q170 405 167 405Q164 406 166.0 409.0Q168 412 170.5 420.5Q173 429 171 436Q170 438 170 442Q170 456 179.5 482.5Q189 509 198.5 529.5Q208 550 210 550Q211 550 215.0 558.5Q219 567 225.0 577.5Q231 588 238 592Q249 599 268.5 620.0Q288 641 291.0 649.0Q294 657 323.5 675.0Q353 693 377 701Q398 708 412 715Q418 718 433 716Q452 714 495 712Q554 709 602 683Q624 670 645.0 651.0Q666 632 677.0 619.0Q688 606 689 606Q693 606 693 600Q693 592 703 584Q715 574 733.0 531.5Q751 489 751 473Q751 467 751.0 467.0Q751 467 750.5 470.0Q750 473 750 473Q749 473 749 442Q749 422 742.0 396.5Q735 371 728 364Q725 361 716.0 350.5Q707 340 696.0 323.0Q685 306 685 298Q685 286 696.5 269.0Q708 252 710 245Q713 236 724.0 220.5Q735 205 735 203Q735 198 742.0 198.0Q749 198 749 190Q749 184 780.0 149.0Q811 114 811 94Q811 63 783 63Q758 63 732 87Q723 95 721.5 99.0Q720 103 720.0 117.0Q720 131 694.5 159.0Q669 187 663 200Q655 217 640 233L623 251L605 241Q553 213 495 213Q481 213 460.5 208.0Q440 203 403 203Q356 203 348 209Q342 214 321 224L302 234L259 191Q215 147 215 143Q215 140 211.5 138.0Q208 136 196.5 125.5Q185 115 171 95Q145 58 130 58Q126 58 117.5 60.0Q109 62 99.0 69.5Q89 77 89 88Q89 106 126.0 148.5Q163 191 200.5 229.0Q238 267 238 273Q238 276 219.5 297.5Q201 319 201 326ZM690 464Q690 498 682.5 520.0Q675 542 665.5 548.5Q656 555 648.5 559.5Q641 564 641 568Q641 573 614.5 599.0Q588 625 583 625Q581 625 576.5 629.5Q572 634 558.5 641.0Q545 648 522 653Q483 662 441 662Q385 662 385 649Q385 642 384.5 639.0Q384 636 380.0 633.0Q376 630 368 630Q358 630 337.0 605.5Q316 581 312 580Q293 577 283.0 566.5Q273 556 246 515Q224 478 224 432Q224 375 267 335Q288 316 290.0 316.0Q292 316 304.0 306.5Q316 297 324 297Q333 297 338 290Q342 284 377.5 276.0Q413 268 432 268Q446 268 495.5 278.0Q545 288 562 298Q570 303 587 308Q600 311 622.5 332.5Q645 354 653 370Q660 386 667 386Q677 386 683.5 409.5Q690 433 690 464Z" transform="translate(0.00,958.33) scale(0.9583,-0.9583)" fill="#000000" />
  <path d="M 24.637998,12.488337 H 20.72216 q -1.48166,0 -2.54,-1.058333 -1.05833,-1.058333 -1.05833,-2.54 V 3.598338 q 0,-1.481667 1.05833,-2.54 Q 19.2405,4e-6 20.72216,4e-6 h 3.915838 V 0.846671 H 20.72216 q -1.13241,0 -1.94733,0.814917 -0.80433,0.804333 -0.80433,1.93675 v 5.291666 q 0,1.132417 0.80433,1.93675 0.81492,0.814917 1.94733,0.814917 h 3.915838 z" transform="translate(-428.69,0.00) scale(80.0747,80.0747)" fill="#000000" />
  <path d="M 75.014662,0.846671 V 4e-6 h 13.123333 v 0.846667 z m 0,11.641666 v -0.846666 h 13.123333 v 0.846666 z" transform="translate(-4462.58,0.00) scale(80.0747,80.0747)" fill="#000000" />
  <path d="M 75.014662,0.846671 V 4e-6 h 13.123333 v 0.846667 z m 0,11.641666 v -0.846666 h 13.123333 v 0.846666 z" transform="translate(-3411.74,0.00) scale(80.0747,80.0747)" fill="#000000" />
  <path d="M 75.014662,0.846671 V 4e-6 h 13.123333 v 0.846667 z m 0,11.641666 v -0.846666 h 13.123333 v 0.846666 z" transform="translate(-2360.89,0.00) scale(80.0747,80.0747)" fill="#000000" />
  <path d="M 75.014662,0.846671 V 4e-6 h 13.123333 v 0.846667 z m 0,11.641666 v -0.846666 h 13.123333 v 0.846666 z" transform="translate(-1310.04,0.00) scale(80.0747,80.0747)" fill="#000000" />
  <path d="M 75.014662,0.846671 V 4e-6 h 13.123333 v 0.846667 z m 0,11.641666 v -0.846666 h 13.123333 v 0.846666 z" transform="translate(-259.19,0.00) scale(80.0747,80.0747)" fill="#000000" />
  <path d="M 75.014662,0.846671 V 4e-6 h 13.123333 v 0.846667 z m 0,11.641666 v -0.846666 h 13.123333 v 0.846666 z" transform="translate(791.65,0.00) scale(80.0747,80.0747)" fill="#000000" />
  <path d="M 75.014662,0.846671 V 4e-6 h 13.123333 v 0.846667 z m 0,11.641666 v -0.846666 h 13.123333 v 0.846666 z" transform="translate(1842.50,0.00) scale(80.0747,80.0747)" fill="#000000" />
  <path d="M 75.014662,0.846671 V 4e-6 h 13.123333 v 0.846667 z m 0,11.641666 v -0.846666 h 13.123333 v 0.846666 z" transform="translate(2893.35,0.00) scale(80.0747,80.0747)" fill="#000000" />
  <path d="M 75.014662,0.846671 V 4e-6 h 13.123333 v 0.846667 z m 0,11.641666 v -0.846666 h 13.123333 v 0.846666 z" transform="translate(3944.19,0.00) scale(80.0747,80.0747)" fill="#000000" />
  <path d="M 75.014662,0.846671 V 4e-6 h 13.123333 v 0.846667 z m 0,11.641666 v -0.846666 h 13.123333 v 0.846666 z" transform="translate(4995.04,0.00) scale(80.0747,80.0747)" fill="#000000" />
  <path d="m 87.714667,4e-6 h 2.8575 q 1.481666,0 2.54,1.058334 1.058333,1.058333 1.058333,2.54 v 5.291666 q 0,1.481667 -1.058333,2.54 -1.058334,1.058333 -2.54,1.058333 h -2.8575 v -0.846666 h 2.8575 q 1.132416,0 1.93675,-0.814917 0.814916,-0.804333 0.814916,-1.93675 V 3.598338 q 0,-1.132417 -0.814916,-1.93675 -0.804334,-0.814917 -1.93675,-0.814917 h -2.8575 z" transform="translate(5028.94,0.00) scale(80.0747,80.0747)" fill="#000000" />
  <path d="M 394.00,124.00 C 394.00,81.45 444.29,65.03 462.44,59.10 C 462.44,59.10 462.90,53.08 462.93,53.08 C 494.27,55.49 494.27,55.49 498.95,58.04 C 514.72,66.62 544.03,82.57 544.03,118.54 C 544.03,118.87 544.02,119.19 544.02,119.52 C 544.10,120.95 544.14,122.38 544.14,123.81 C 544.14,157.82 521.51,193.00 485.48,193.00 C 467.69,193.00 430.32,180.54 399.02,139.03 C 395.68,134.60 394.00,129.30 394.00,124.00  Z M 486.35,142.95 C 488.73,142.04 494.13,133.57 494.13,123.32 C 494.13,121.96 494.00,121.60 494.00,120.00 C 494.00,118.93 494.08,118.15 494.08,117.18 C 494.08,115.59 494.08,113.18 481.33,105.54 C 468.40,109.74 456.48,113.88 448.31,119.91 C 453.65,125.47 469.09,140.05 486.35,142.95  Z M 446.02,428.68 C 446.02,427.98 445.86,367.32 445.86,366.70 C 445.86,326.74 446.47,286.29 450.11,245.75 C 450.11,245.75 499.90,250.22 499.89,250.25 C 496.44,288.67 495.85,328.01 495.85,367.85 C 495.85,368.62 496.01,428.05 496.01,428.66 C 496.01,441.70 496.01,442.63 494.33,446.99 C 483.61,474.89 479.21,498.48 479.21,518.20 C 479.21,626.87 616.98,643.92 686.53,643.92 C 703.77,643.92 715.09,643.00 717.00,643.00 L 827.46,645.01 C 827.46,645.01 826.55,694.99 826.54,694.99 C 717.52,693.01 717.52,693.01 717.52,693.01 C 707.08,693.62 696.55,693.94 685.98,693.94 C 541.10,693.94 429.22,635.50 429.22,518.13 C 429.22,492.19 434.72,463.99 446.01,433.40 C 446.02,431.83 446.02,430.26 446.02,428.68  Z M 162.45,275.00 C 332.96,267.45 512.54,213.00 685.47,213.00 C 685.98,213.00 686.49,213.00 687.00,213.00 C 687.04,213.00 802.32,213.00 834.66,213.00 L 844.02,205.98 C 844.02,205.98 874.02,245.99 873.98,246.02 C 857.98,258.02 857.98,258.02 857.98,258.02 C 853.56,261.34 848.28,263.00 843.00,263.00 L 685.59,263.00 C 518.31,263.00 339.14,317.32 164.10,324.97 C 163.73,324.99 163.37,325.00 163.00,325.00 L 151.00,325.00 L 151.00,275.00 L 162.45,275.00 Z" transform="translate(1669.62,100.00) scale(0.8000,0.8000)" fill="#000000" />
  <path d="M 490.97,116.68 C 507.51,116.68 518.00,128.65 518.00,142.00 L 518.00,146.00 L 503.91,146.00 C 514.22,161.14 518.21,183.94 520.65,198.12 C 522.37,201.36 524.11,206.03 524.11,211.66 C 524.11,225.12 513.64,239.32 492.85,239.32 C 481.98,239.32 460.08,230.11 449.92,211.61 C 444.91,207.48 433.75,196.28 433.75,178.71 C 433.75,177.16 433.87,172.75 435.07,168.76 C 435.02,166.24 434.80,162.75 434.80,160.51 C 434.80,134.81 452.06,124.93 467.71,124.93 C 468.08,124.93 468.44,124.94 468.79,124.95 C 473.94,120.83 481.70,116.68 490.97,116.68  Z M 245.19,504.85 C 245.19,459.77 249.85,413.17 249.85,367.96 C 249.85,345.20 248.58,325.85 244.93,312.74 C 244.31,310.54 244.00,308.27 244.00,306.00 L 244.00,190.00 L 294.00,190.00 L 294.00,302.73 C 298.79,321.70 300.29,343.15 300.29,365.89 C 300.29,405.89 295.27,458.13 295.27,505.25 C 295.27,583.07 310.87,609.09 334.21,614.73 C 362.30,611.83 391.34,611.18 420.49,611.18 C 421.23,611.18 492.77,611.63 494.51,611.63 C 574.16,611.63 605.06,605.05 606.18,605.02 L 790.19,599.02 L 791.82,648.98 L 609.36,654.93 C 572.87,660.56 534.76,661.66 496.90,661.66 C 472.39,661.66 447.05,661.19 421.87,661.19 C 360.88,661.19 333.89,665.00 333.00,665.00 C 329.22,665.00 303.16,661.94 282.04,640.81 C 256.99,615.77 245.19,575.70 245.19,504.85 Z" transform="translate(2720.47,100.00) scale(0.8000,0.8000)" fill="#000000" />
  <path d="M 484.85,140.72 C 498.91,135.89 508.23,120.14 508.23,108.48 C 508.23,106.67 508.00,106.13 508.00,104.00 C 508.00,101.90 508.27,99.80 508.79,97.76 C 507.10,97.00 506.12,97.00 505.00,97.00 C 504.40,97.00 504.40,97.00 467.34,95.23 C 460.88,102.77 457.18,113.06 457.18,123.45 C 457.18,128.76 458.00,130.25 458.00,134.00 C 458.00,135.67 457.83,137.34 457.50,138.99 C 467.93,140.38 479.80,140.38 484.85,140.72  Z M 407.16,123.19 C 407.16,64.28 457.98,35.00 477.00,35.00 L 489.00,35.00 L 489.00,46.21 L 505.38,46.99 C 505.57,46.99 505.75,46.99 505.94,46.99 C 535.01,46.99 558.86,68.41 558.86,97.33 C 558.86,100.07 558.64,102.85 558.18,105.65 C 558.23,106.79 558.26,107.93 558.26,109.06 C 558.26,146.76 528.94,182.95 492.03,190.49 C 490.37,190.83 488.69,191.00 487.00,191.00 C 486.58,191.00 456.43,190.11 444.99,187.77 C 425.76,183.84 405.91,171.34 405.91,144.93 C 405.91,140.47 406.52,136.15 407.56,131.93 C 407.29,129.02 407.16,126.10 407.16,123.19  Z M 475.99,304.03 C 367.51,354.20 275.90,489.17 275.90,607.03 C 275.90,608.96 275.92,610.89 275.97,612.81 C 275.97,612.81 283.94,730.30 283.94,730.32 L 234.06,733.70 C 225.90,613.35 225.90,613.35 225.90,606.73 C 225.90,460.75 338.22,308.22 463.19,255.00 C 466.31,253.67 469.66,253.00 473.00,253.00 C 474.28,253.00 535.68,258.03 587.30,309.65 C 665.60,387.94 681.85,525.26 695.34,640.23 C 698.12,663.90 700.75,686.25 703.72,706.31 L 703.73,706.36 L 654.28,713.69 C 651.14,692.55 648.47,669.77 645.70,646.10 C 628.28,497.70 606.66,331.93 475.99,304.03 Z" transform="translate(3771.31,100.00) scale(0.8000,0.8000)" fill="#000000" />
  <path d="M 178.29,277.39 C 178.29,276.09 177.65,255.13 177.65,254.90 C 177.65,234.20 182.19,225.03 189.87,217.79 L 224.13,254.21 C 225.61,252.44 226.72,250.31 228.05,248.40 C 227.90,249.14 227.78,251.99 227.78,255.85 C 227.78,258.59 228.38,276.70 228.38,276.91 C 228.38,286.09 227.13,288.79 227.13,302.45 C 227.13,326.43 231.74,354.12 240.88,379.68 C 246.27,394.78 273.28,466.05 332.27,469.04 C 338.14,469.33 351.83,474.59 371.42,474.59 C 396.46,474.59 445.27,467.99 461.84,354.49 C 461.26,346.85 460.98,339.20 460.98,331.62 C 460.98,307.86 463.74,284.71 468.70,264.11 C 471.38,253.03 481.33,245.00 493.00,245.00 C 506.81,245.00 518.00,256.19 518.00,270.00 C 518.00,270.86 517.54,316.01 512.18,355.80 C 514.66,382.35 526.76,456.09 584.57,456.09 C 590.84,456.09 597.81,455.30 605.61,453.59 C 606.28,453.44 606.95,453.32 607.63,453.23 C 703.50,440.29 739.18,318.31 748.29,258.23 C 750.13,246.09 760.58,237.00 773.00,237.00 C 785.39,237.00 795.81,246.03 797.70,258.13 C 809.13,331.57 802.56,409.36 807.88,481.56 C 810.07,499.84 811.15,517.12 811.15,533.43 C 811.15,742.33 635.97,762.20 510.75,762.20 C 428.76,762.20 340.51,752.43 267.51,752.43 C 258.04,752.43 248.87,752.60 240.06,752.97 L 237.92,703.03 C 247.75,702.61 257.81,702.42 268.09,702.42 C 342.07,702.42 428.91,712.11 511.12,712.11 C 671.94,712.11 761.25,672.71 761.25,534.39 C 761.25,519.95 760.27,504.20 758.19,487.03 C 756.72,474.93 755.66,438.72 755.32,396.17 C 738.81,426.01 696.51,491.18 615.38,502.63 C 605.21,504.79 595.40,505.83 586.01,505.83 C 565.78,505.83 518.64,501.25 487.51,447.06 C 476.62,469.94 445.60,524.58 371.44,524.58 C 357.52,524.58 342.74,522.66 327.12,518.80 C 229.63,511.80 177.10,394.51 177.10,303.13 C 177.10,288.31 178.29,283.12 178.29,277.39  Z M 482.30,108.14 C 483.59,111.08 486.57,118.29 486.57,127.60 C 486.57,129.56 486.43,131.56 486.14,133.60 C 486.19,134.69 486.21,135.80 486.21,136.92 C 486.21,172.64 462.69,186.48 449.67,192.62 C 446.30,194.20 442.65,195.00 439.00,195.00 C 431.66,195.00 430.03,192.63 424.28,191.27 C 415.92,189.30 389.88,183.14 389.88,153.76 C 389.88,119.99 410.49,102.84 431.07,86.65 C 438.71,80.63 443.00,77.05 445.85,73.91 C 445.85,73.91 446.30,72.79 446.34,72.81 C 447.07,73.10 467.42,81.42 479.61,102.81 L 483.80,106.49 C 483.30,107.05 482.80,107.60 482.30,108.14 Z" transform="translate(4822.16,100.00) scale(0.8000,0.8000)" fill="#000000" />
  <path d="M 184.38,603.07 C 184.38,619.66 179.99,631.36 179.99,643.91 L 130.01,644.09 C 130.00,643.96 130.00,643.83 130.00,643.71 C 130.00,626.09 134.39,613.74 134.39,602.97 C 134.39,599.52 134.00,598.63 134.00,596.00 C 134.00,572.39 141.02,494.57 141.02,442.55 C 141.02,413.96 139.64,414.42 139.64,377.95 C 139.64,286.32 150.35,77.39 291.04,30.30 C 293.62,29.44 296.31,29.00 299.00,29.00 C 311.77,29.00 332.18,43.47 342.91,54.20 C 382.83,94.12 386.03,157.56 386.03,208.75 C 386.03,220.90 386.03,221.95 385.64,224.21 C 384.66,229.95 384.20,235.81 384.20,241.67 C 384.20,281.58 406.11,325.38 443.03,332.30 C 479.72,311.28 489.71,225.28 492.11,195.29 C 490.31,167.55 488.39,132.39 488.39,108.14 C 488.39,87.09 489.71,79.35 497.01,72.05 C 500.14,68.92 506.81,64.66 515.07,64.66 C 540.07,64.66 541.82,91.26 543.05,109.98 C 543.69,119.81 544.13,131.97 544.13,145.70 C 544.13,152.27 544.07,171.76 542.25,195.89 C 542.27,196.15 544.00,221.22 544.00,222.00 C 544.00,224.14 543.34,230.15 543.34,239.79 C 543.34,275.62 553.16,320.92 602.86,320.92 C 653.85,320.92 724.98,271.74 737.04,203.54 C 737.05,201.81 737.06,199.97 737.06,198.04 C 737.06,185.63 736.66,174.01 735.62,156.45 C 732.53,143.32 730.11,141.35 730.01,134.36 C 729.94,129.75 729.91,125.76 729.91,122.31 C 729.91,101.66 730.91,96.13 738.02,89.02 C 741.14,85.90 747.81,81.67 756.02,81.67 C 759.85,81.67 777.38,82.91 781.26,105.15 C 782.36,111.46 783.87,126.13 785.32,149.67 C 787.64,161.00 788.73,172.15 788.73,183.05 C 788.73,190.45 788.23,197.73 787.27,204.87 C 787.28,206.17 787.29,207.43 787.29,208.66 C 787.29,215.10 787.09,220.65 786.04,226.36 C 786.78,262.00 789.77,310.15 789.77,353.76 C 789.77,445.84 780.66,614.38 612.04,614.38 C 598.56,614.38 584.27,613.27 569.18,611.01 L 321.20,612.99 L 320.80,563.01 L 571.00,561.00 C 571.42,561.00 595.53,564.55 613.31,564.55 C 709.24,564.55 739.69,492.00 739.69,353.34 C 739.69,337.31 739.32,321.18 738.80,305.28 C 726.08,319.20 674.06,370.93 603.47,370.93 C 563.61,370.93 532.13,353.09 513.47,322.82 C 490.16,371.46 456.59,383.00 447.00,383.00 C 444.66,383.00 408.52,382.47 376.67,350.62 C 349.08,323.03 334.11,282.95 334.11,242.61 C 334.11,225.02 336.02,225.35 336.02,212.10 C 336.02,161.49 333.44,104.28 297.37,81.39 C 205.31,121.59 189.64,277.46 189.64,378.93 C 189.64,383.95 191.03,442.24 191.03,442.88 C 191.03,474.28 189.09,504.89 187.22,534.95 C 185.96,555.23 184.71,575.27 184.04,595.17 C 184.28,597.90 184.38,600.54 184.38,603.07 Z" transform="translate(5873.01,100.00) scale(0.8000,0.8000)" fill="#000000" />
  <path d="M 326.60,734.72 C 319.64,734.72 313.08,735.35 306.03,735.35 C 290.50,735.35 281.70,732.36 275.98,729.55 C 224.69,716.66 183.34,674.17 172.55,623.21 C 172.19,621.52 172.01,619.81 172.01,618.10 L 170.01,108.10 L 219.99,107.90 L 221.98,615.13 C 229.75,646.90 257.23,674.19 290.47,681.61 C 293.10,682.19 295.73,683.21 298.09,684.65 C 299.15,684.96 302.66,685.22 307.62,685.22 C 315.16,685.22 319.66,684.67 326.22,684.67 C 328.33,684.67 330.53,684.73 332.84,684.89 C 379.92,679.45 428.74,629.60 450.36,583.40 C 450.36,583.40 495.64,604.58 495.64,604.60 C 470.04,659.35 408.74,728.48 335.19,734.90 C 334.46,734.96 333.73,735.00 333.00,735.00 C 330.45,735.00 330.78,734.72 326.60,734.72  Z M 337.51,157.62 L 368.45,118.35 C 435.62,171.26 435.62,171.26 436.68,172.32 C 438.15,173.80 438.15,173.80 469.36,217.49 L 428.67,246.55 L 400.72,207.43 C 400.72,207.43 337.55,157.65 337.51,157.62  Z M 608.92,96.87 C 640.41,96.87 640.78,124.23 640.78,125.50 C 640.78,130.07 639.66,134.44 637.50,138.91 L 592.49,117.11 L 597.39,141.00 L 608.17,146.48 C 606.84,146.50 548.86,159.22 493.93,214.15 C 449.45,258.62 419.99,317.66 419.99,375.50 C 419.99,375.64 419.99,375.79 420.00,376.00 C 420.00,377.19 419.79,380.45 419.79,386.20 C 419.79,529.02 550.65,639.25 681.43,657.10 L 714.48,659.05 L 711.54,708.95 C 676.59,706.90 676.59,706.90 675.67,706.77 C 518.21,685.79 369.80,553.70 369.80,386.23 C 369.80,382.68 369.87,379.12 370.00,375.48 C 370.00,246.47 480.72,126.37 596.99,97.73 C 598.96,97.25 600.98,97.00 603.00,97.00 C 603.18,97.00 603.37,97.01 603.55,97.01 C 603.60,97.01 608.32,96.87 608.92,96.87 Z" transform="translate(6923.85,100.00) scale(0.8000,0.8000)" fill="#000000" />
  <path d="M 184.24,533.83 C 184.24,625.71 260.73,704.65 353.68,712.97 C 386.01,711.86 464.94,701.15 535.02,628.63 C 537.22,626.35 539.76,624.84 545.35,619.26 C 562.88,601.72 575.03,577.42 588.80,548.64 C 589.72,541.69 590.16,535.23 590.16,529.19 C 590.16,400.93 382.04,405.91 331.67,275.00 C 330.56,272.11 330.00,269.06 330.00,266.00 C 330.00,262.47 337.91,210.91 383.37,165.45 C 429.90,118.93 496.36,96.16 561.36,96.16 C 574.48,96.16 587.54,97.08 600.36,98.93 C 602.73,98.85 605.61,98.80 608.75,98.80 C 626.95,98.80 648.41,99.18 654.71,118.07 L 656.73,124.12 L 611.20,139.30 L 616.21,146.16 L 622.71,149.41 C 620.15,149.03 612.31,148.88 606.38,148.88 C 602.05,148.88 599.07,149.00 599.00,149.00 C 594.46,149.00 583.23,146.21 562.12,146.21 C 508.64,146.21 454.28,165.26 418.73,200.81 C 401.61,217.92 388.57,238.85 381.34,264.00 C 428.37,362.57 640.09,367.23 640.09,529.57 C 640.09,529.95 639.99,557.54 635.55,566.81 C 616.30,606.98 601.26,638.38 569.96,664.42 C 538.90,696.29 463.48,759.87 353.72,762.98 C 353.48,762.99 353.24,763.00 353.00,763.00 C 351.34,763.00 269.86,761.28 202.01,693.43 C 160.55,651.98 134.24,595.37 134.24,533.91 C 134.24,524.93 134.80,515.85 135.96,506.70 C 135.90,504.18 135.87,501.68 135.87,499.18 C 135.87,417.44 167.52,344.27 178.02,270.18 C 178.19,252.24 180.44,234.48 180.44,218.20 C 180.44,212.86 180.00,206.12 180.00,206.00 C 180.00,199.53 186.50,179.43 186.50,146.18 C 186.50,141.31 186.35,136.42 186.05,131.52 L 235.95,128.46 C 236.31,134.39 236.49,140.29 236.49,146.17 C 236.49,167.20 234.22,187.81 230.17,207.78 C 230.37,211.46 230.45,215.07 230.45,218.61 C 230.45,222.78 227.84,274.86 227.76,275.42 C 217.14,352.79 185.87,425.83 185.87,499.48 C 185.87,503.48 186.00,507.91 186.00,508.00 C 186.00,511.91 184.24,519.34 184.24,533.83 Z" transform="translate(7974.70,100.00) scale(0.8000,0.8000)" fill="#000000" />
  <path d="M 183.66,382.67 C 183.66,383.30 182.84,441.66 182.84,445.48 C 182.84,494.11 186.80,542.80 214.85,556.13 C 224.74,558.23 234.36,559.24 243.67,559.24 C 280.08,559.24 311.81,543.87 337.09,518.60 C 354.24,501.45 368.27,479.50 377.66,455.02 C 377.66,455.02 424.35,472.93 424.34,472.98 C 412.60,503.56 395.05,531.35 372.44,553.96 C 338.88,587.52 293.86,609.15 243.08,609.15 C 242.62,609.15 210.20,608.43 197.35,603.07 C 137.70,578.18 132.79,503.55 132.79,447.39 C 132.79,426.19 133.61,404.52 133.61,383.67 C 133.61,359.41 132.00,346.38 132.00,346.00 C 132.00,345.78 132.65,335.85 132.65,323.75 C 132.65,300.59 130.90,276.43 130.90,253.56 C 130.90,218.64 134.83,181.40 155.29,145.60 L 198.71,170.40 C 184.25,195.70 181.02,223.76 181.02,255.55 C 181.02,278.58 182.65,300.50 182.65,323.53 C 182.65,330.73 182.49,338.02 182.08,345.40 C 183.30,357.21 183.66,369.73 183.66,382.67  Z M 432.62,452.22 C 432.62,524.37 456.63,578.09 495.48,616.94 C 548.37,669.84 633.32,697.68 733.10,697.68 C 750.46,697.68 768.27,696.83 786.43,695.13 C 786.43,695.13 804.22,693.16 804.26,693.15 L 809.78,742.84 C 776.86,746.50 759.44,747.70 732.46,747.70 C 623.80,747.70 525.57,717.75 460.12,652.30 C 410.92,603.09 382.76,535.23 382.76,451.16 C 382.76,430.34 384.48,408.53 388.05,385.76 C 389.71,307.36 393.87,224.58 406.33,147.96 C 406.33,147.96 455.68,155.99 455.67,156.04 C 438.93,258.96 438.05,389.64 437.68,391.98 C 434.26,413.35 432.62,433.41 432.62,452.22  Z M 636.00,149.02 C 636.00,148.87 636.00,137.98 636.00,134.02 L 686.00,133.98 C 686.00,134.62 686.00,135.26 686.00,135.89 C 686.00,139.83 685.99,143.29 685.99,147.25 C 685.99,165.84 686.13,183.80 687.64,201.02 C 690.26,209.90 691.12,218.39 691.12,226.23 C 691.12,242.52 687.28,257.17 687.28,270.85 C 687.28,272.32 687.33,273.72 687.43,275.05 C 694.67,282.40 697.13,290.69 698.98,296.92 L 652.73,310.63 L 660.10,314.51 C 657.07,313.91 654.13,312.74 651.45,311.01 L 651.04,311.13 C 650.69,309.94 644.17,306.89 641.21,297.68 C 638.12,288.08 637.13,278.92 637.13,270.51 C 637.13,254.23 640.97,239.59 640.97,225.93 C 640.97,209.87 636.00,224.53 636.00,149.02  Z M 296.72,186.94 L 293.28,137.06 L 526.96,121.09 L 759.27,99.24 C 759.27,99.24 825.93,85.52 825.99,85.51 L 836.07,134.48 C 766.73,148.76 766.73,148.76 765.36,148.88 C 531.04,170.91 531.04,170.91 530.72,170.94 L 296.72,186.94 Z" transform="translate(9025.55,100.00) scale(0.8000,0.8000)" fill="#000000" />
  <path d="M 500.12,250.98 C 500.12,266.60 488.23,277.00 475.00,277.00 L 430.66,277.00 C 421.38,278.19 412.09,278.78 402.87,278.78 C 305.15,278.78 221.25,213.09 221.25,116.66 C 221.25,111.79 221.46,106.85 221.91,101.84 C 221.86,101.00 221.84,100.16 221.84,99.32 C 221.84,87.34 226.25,62.22 262.02,55.21 C 278.19,52.04 290.50,53.53 307.42,51.84 C 311.03,49.95 315.02,49.00 319.00,49.00 L 479.40,49.00 C 516.08,44.39 565.48,42.96 603.53,42.96 C 607.52,42.96 611.39,42.98 615.10,43.00 L 793.52,43.00 C 793.52,43.00 826.06,39.18 826.10,39.17 L 831.94,88.82 C 796.48,93.00 796.48,93.00 795.00,93.00 L 614.80,93.00 C 611.58,92.97 608.22,92.96 604.76,92.96 C 524.98,92.96 482.77,99.00 481.00,99.00 L 324.85,99.00 C 311.17,104.12 290.64,101.46 271.88,104.41 C 271.49,108.44 271.21,112.08 271.21,117.12 C 271.21,187.97 336.92,228.76 403.29,228.76 C 417.73,228.76 425.09,227.00 429.00,227.00 L 462.83,227.00 C 465.66,225.64 469.24,224.34 474.33,224.34 C 485.17,224.34 500.12,232.64 500.12,250.98  Z M 488.60,269.54 L 463.02,237.57 L 450.20,248.88 L 457.07,267.18 L 488.60,269.54  Z M 650.69,544.79 C 650.69,432.61 589.60,305.59 476.21,273.16 C 415.29,277.72 374.75,357.44 367.98,413.63 L 363.99,714.33 L 314.01,713.67 C 318.02,410.42 318.02,410.42 318.16,409.18 C 327.86,323.18 388.89,225.48 478.31,223.01 C 478.54,223.01 478.77,223.00 479.00,223.00 C 483.13,223.00 544.05,234.34 601.33,291.62 C 666.50,356.79 700.69,452.64 700.69,544.26 C 700.69,551.68 700.12,559.07 700.02,566.43 C 699.90,574.74 700.38,583.17 700.38,591.66 C 700.38,651.69 694.37,715.06 681.31,769.83 C 681.31,769.83 632.68,758.23 632.69,758.17 C 644.58,708.29 650.37,647.85 650.37,591.00 C 650.37,576.63 650.00,567.18 650.00,566.00 C 650.00,563.97 650.69,556.91 650.69,544.79 Z" transform="translate(10076.40,100.00) scale(0.8000,0.8000)" fill="#000000" />
  <path d="M 484.85,140.72 C 498.91,135.89 508.23,120.14 508.23,108.48 C 508.23,106.67 508.00,106.13 508.00,104.00 C 508.00,101.90 508.27,99.80 508.79,97.76 C 507.10,97.00 506.12,97.00 505.00,97.00 C 504.40,97.00 504.40,97.00 467.34,95.23 C 460.88,102.77 457.18,113.06 457.18,123.45 C 457.18,128.76 458.00,130.25 458.00,134.00 C 458.00,135.67 457.83,137.34 457.50,138.99 C 467.93,140.38 479.80,140.38 484.85,140.72  Z M 407.16,123.19 C 407.16,64.28 457.98,35.00 477.00,35.00 L 489.00,35.00 L 489.00,46.21 L 505.38,46.99 C 505.57,46.99 505.75,46.99 505.94,46.99 C 535.01,46.99 558.86,68.41 558.86,97.33 C 558.86,100.07 558.64,102.85 558.18,105.65 C 558.23,106.79 558.26,107.93 558.26,109.06 C 558.26,146.76 528.94,182.95 492.03,190.49 C 490.37,190.83 488.69,191.00 487.00,191.00 C 486.58,191.00 456.43,190.11 444.99,187.77 C 425.76,183.84 405.91,171.34 405.91,144.93 C 405.91,140.47 406.52,136.15 407.56,131.93 C 407.29,129.02 407.16,126.10 407.16,123.19  Z M 475.99,304.03 C 367.51,354.20 275.90,489.17 275.90,607.03 C 275.90,608.96 275.92,610.89 275.97,612.81 C 275.97,612.81 283.94,730.30 283.94,730.32 L 234.06,733.70 C 225.90,613.35 225.90,613.35 225.90,606.73 C 225.90,460.75 338.22,308.22 463.19,255.00 C 466.31,253.67 469.66,253.00 473.00,253.00 C 474.28,253.00 535.68,258.03 587.30,309.65 C 665.60,387.94 681.85,525.26 695.34,640.23 C 698.12,663.90 700.75,686.25 703.72,706.31 L 703.73,706.36 L 654.28,713.69 C 651.14,692.55 648.47,669.77 645.70,646.10 C 628.28,497.70 606.66,331.93 475.99,304.03 Z" transform="translate(11127.24,100.00) scale(0.8000,0.8000)" fill="#000000" />
</svg>
