<?xml version="1.0" encoding="UTF-8" standalone="no"?>
<!--
Representation of "ilo lipu IBM 5150" in sitelen ilo pona
Generated by generate_sitelen_kalama_pona.py

Description:
  Representation of "ilo lipu IBM 5150" in sitelen ilo pona.
  Sources: ilo: https://commons.wikimedia.org/wiki/File:Sitelen_seli_kiwen_-_ilo.svg; lipu: https://commons.wikimedia.org/wiki/File:Sitelen_seli_kiwen_-_lipu.svg; i: https://commons.wikimedia.org/wiki/File:Sitelen_kalama_pona_-_xi.svg

Categories:
  [[Category:Sitelen kalama pona]]
  [[Category:Toki Pona text containing ilo lipu]]
  [[Category:Toki Pona text containing sound symbol I]]
  [[Category:Toki Pona text containing sound symbol M]]

Sources:
  ilo: https://commons.wikimedia.org/wiki/File:Sitelen_seli_kiwen_-_ilo.svg
  lipu: https://commons.wikimedia.org/wiki/File:Sitelen_seli_kiwen_-_lipu.svg
  i: https://commons.wikimedia.org/wiki/File:Sitelen_kalama_pona_-_xi.svg
-->
<svg version="1.1" width="4054" height="1000"
     viewBox="0 0 4054 1000"
     xmlns="http://www.w3.org/2000/svg">
  <path d="M411 266Q411 271 407.5 280.5Q404 290 404 294Q404 295 407.0 304.0Q410 313 411 330L412 356L384 359Q377 360 357 360Q281 360 281 353Q281 350 246 352Q238 353 226 353Q209 353 193.0 343.5Q177 334 161 334Q141 334 130.0 345.5Q119 357 119 367Q119 380 109 387Q102 393 100.0 398.0Q98 403 100 417Q102 432 108.5 448.0Q115 464 115 492Q115 514 112.5 591.5Q110 669 106 675Q104 679 106.0 688.0Q108 697 104 701Q96 711 96 724Q96 730 98.0 737.0Q100 744 110.5 752.5Q121 761 139 761Q164 761 164 765Q164 770 168 768Q171 767 298.0 760.5Q425 754 431 754Q451 754 474.0 757.0Q497 760 513 760Q536 760 574.5 755.5Q613 751 631 751Q645 751 685.0 753.0Q725 755 738 755Q761 755 770.0 741.0Q779 727 780 677Q786 494 788.5 456.0Q791 418 799 403Q804 391 804 383Q804 364 789.0 358.0Q774 352 734 352Q692 352 616.5 359.5Q541 367 515 367Q498 367 490.5 366.0Q483 365 481.5 363.0Q480 361 480 357Q480 346 477.5 311.0Q475 276 475 257Q475 217 481.0 184.0Q487 151 493.0 133.5Q499 116 499 111Q499 102 489.5 87.5Q480 73 461 73Q439 73 425.0 91.0Q411 109 409 138L408 160Q406 181 404.5 204.0Q403 227 403 230Q403 246 407.0 255.0Q411 264 411 266ZM387 698Q363 702 305 702Q272 702 251.5 699.0Q231 696 215 695Q186 694 179.5 682.5Q173 671 169 618Q166 573 166 536Q166 477 174 463Q180 445 182 437L188 415L226 417Q268 419 323 419Q369 419 399 422L416 424L414 500Q412 576 412 592Q412 614 413.0 628.0Q414 642 415.0 647.0Q416 652 416 654Q416 657 412 672Q408 688 404.5 692.0Q401 696 387 698ZM725 438Q725 441 723.5 445.0Q722 449 720.0 451.5Q718 454 717.0 456.5Q716 459 717.5 460.0Q719 461 723 461Q733 461 733 479Q733 484 729.0 515.0Q725 546 723 585Q719 657 710.0 672.0Q701 687 658 689Q639 690 624.0 693.0Q609 696 608.0 697.0Q607 698 603 696Q602 694 562 694H542L485 695L483 670Q482 651 477.0 627.5Q472 604 472 602V592Q473 581 474.5 564.0Q476 547 477.0 526.0Q478 505 478.5 479.0Q479 453 479 429Q479 423 501 426Q513 428 552 428Q566 428 586.0 427.0Q606 426 625.0 425.0Q644 424 660.5 422.5Q677 421 688 420L698 419Q725 419 725 438Z" transform="translate(0.00,958.33) scale(0.9583,-0.9583)" fill="#000000" />
  <path d="M461 87Q346 87 316.5 82.0Q287 77 262 77Q248 77 234.0 77.0Q220 77 209.5 76.5Q199 76 191.0 75.5Q183 75 178.5 75.0Q174 75 174 75Q159 75 152.0 78.5Q145 82 134 93L118 111L126 135Q135 157 137.0 215.0Q139 273 139.5 322.0Q140 371 143 374Q145 376 145 402Q145 402 144.5 435.0Q144 468 143.0 516.0Q142 564 141 596L140 697L166 723L252 720Q307 718 349 718Q349 718 353.0 718.0Q357 718 364.5 718.5Q372 719 383.0 719.0Q394 719 411.5 719.0Q429 719 449.5 719.5Q470 720 499.0 720.0Q528 720 560 720Q569 720 581.0 720.0Q593 720 605.0 719.5Q617 719 627.5 718.5Q638 718 644.5 718.0Q651 718 651 718Q676 718 691.5 720.0Q707 722 713.0 724.5Q719 727 721.5 727.0Q724 727 731.5 725.0Q739 723 742 723Q750 723 757.0 704.0Q764 685 764 669Q764 663 762.0 656.5Q760 650 760 645Q760 640 762.5 625.5Q765 611 765 587Q765 572 763.5 546.0Q762 520 760.0 493.5Q758 467 756.0 443.0Q754 419 752.5 403.0Q751 387 751 387Q751 382 752.0 375.0Q753 368 753 361Q753 349 752 340Q752 338 751.5 333.0Q751 328 751 325Q751 289 759.0 233.0Q767 177 775 153Q785 127 779 121Q776 117 777.5 110.5Q779 104 774 101Q766 93 651.0 89.5Q536 86 490 86ZM687 311Q687 330 689.0 364.5Q691 399 694.0 434.0Q697 469 699.5 501.5Q702 534 704.0 555.5Q706 577 706 577Q706 588 701.5 601.5Q697 615 694 631L690 653L650 654Q597 655 375 655Q230 655 224 654Q212 653 208 642Q202 621 202 458Q202 429 202.5 401.5Q203 374 203.5 355.5Q204 337 204.5 323.5Q205 310 205.0 302.5Q205 295 205 295Q205 281 199.5 252.0Q194 223 194 179Q194 167 195.0 162.5Q196 158 202.5 153.5Q209 149 221.0 148.5Q233 148 257 148Q292 148 292 151Q292 153 342 153Q359 153 375.5 153.0Q392 153 404.0 152.5Q416 152 427.0 151.5Q438 151 445.5 150.5Q453 150 458.5 149.5Q464 149 466.5 149.0Q469 149 469 149Q488 149 528.5 154.5Q569 160 593 160Q600 160 606.5 159.5Q613 159 620 159Q647 159 676.0 163.5Q705 168 705 172Q705 174 696.0 225.5Q687 277 687 311Z" transform="translate(942.50,958.33) scale(0.9583,-0.9583)" fill="#000000" />
  <path d="M 24.637998,12.488337 H 20.72216 q -1.48166,0 -2.54,-1.058333 -1.05833,-1.058333 -1.05833,-2.54 V 3.598338 q 0,-1.481667 1.05833,-2.54 Q 19.2405,4e-6 20.72216,4e-6 h 3.915838 V 0.846671 H 20.72216 q -1.13241,0 -1.94733,0.814917 -0.80433,0.804333 -0.80433,1.93675 v 5.291666 q 0,1.132417 0.80433,1.93675 0.81492,0.814917 1.94733,0.814917 h 3.915838 z" transform="translate(513.81,0.00) scale(80.0747,80.0747)" fill="#000000" />
  <path d="M 75.014662,0.846671 V 4e-6 h 13.123333 v 0.846667 z m 0,11.641666 v -0.846666 h 13.123333 v 0.846666 z" transform="translate(-3520.08,0.00) scale(80.0747,80.0747)" fill="#000000" />
  <path d="m 87.714667,4e-6 h 2.8575 q 1.481666,0 2.54,1.058334 1.058333,1.058333 1.058333,2.54 v 5.291666 q 0,1.481667 -1.058333,2.54 -1.058334,1.058333 -2.54,1.058333 h -2.8575 v -0.846666 h 2.8575 q 1.132416,0 1.93675,-0.814917 0.814916,-0.804333 0.814916,-1.93675 V 3.598338 q 0,-1.132417 -0.814916,-1.93675 -0.804334,-0.814917 -1.93675,-0.814917 h -2.8575 z" transform="translate(-3486.18,0.00) scale(80.0747,80.0747)" fill="#000000" />
  <path d="M 478.60,155.05 L 490.39,124.73 L 508.13,67.56 C 508.13,67.56 555.89,82.38 555.87,82.44 C 537.61,141.27 537.61,141.27 537.30,142.08 L 523.30,178.08 C 521.40,182.95 521.40,182.95 507.68,196.68 L 472.32,161.32 L 478.60,155.05  Z M 461.00,47.00 L 511.00,47.00 L 511.00,59.00 C 511.00,61.02 511.00,61.02 500.88,123.71 L 498.96,158.40 L 449.04,155.62 C 451.12,118.29 451.12,118.29 451.33,116.99 L 461.00,56.98 L 461.00,47.00  Z M 562.37,129.59 C 562.37,168.42 541.80,203.48 504.34,203.48 C 457.22,203.48 422.03,167.43 420.10,131.54 C 418.20,123.70 417.31,115.86 417.31,108.15 C 417.31,75.57 433.17,45.44 455.80,26.84 C 455.84,25.68 455.87,25.02 455.87,25.02 L 458.00,25.09 C 471.42,14.70 487.79,7.71 506.07,7.02 L 506.81,26.78 C 518.12,27.17 525.86,27.43 538.13,39.71 C 543.11,44.69 562.69,67.03 562.69,110.58 C 562.69,114.54 562.50,118.47 562.11,122.33 C 562.28,124.71 562.37,127.13 562.37,129.59  Z M 512.00,122.00 C 512.00,118.86 512.63,117.38 512.63,111.28 C 512.63,98.56 509.72,84.93 504.08,76.70 L 478.03,75.80 C 471.40,85.23 467.42,97.04 467.42,108.69 C 467.42,118.90 470.00,121.32 469.99,128.10 C 469.99,140.27 488.52,152.83 499.42,153.01 C 502.46,153.06 504.00,153.60 505.06,153.60 C 506.61,153.60 512.33,144.59 512.33,128.93 C 512.33,127.53 512.00,122.07 512.00,122.00  Z M 392.18,710.51 C 394.59,710.51 440.05,711.08 440.54,711.08 C 545.86,711.08 656.56,700.02 760.54,677.69 C 713.81,557.34 588.95,474.11 520.96,354.41 C 441.54,473.78 341.82,588.03 269.78,710.52 C 282.93,711.18 296.19,711.41 309.68,711.41 C 336.82,711.41 363.77,710.51 392.18,710.51  Z M 392.24,760.51 C 363.89,760.51 336.11,761.42 309.05,761.42 C 281.74,761.42 254.16,760.50 225.73,756.78 C 213.35,755.16 204.00,744.61 204.00,732.00 C 204.00,727.93 204.99,723.86 206.97,720.18 C 291.31,563.03 421.08,425.84 509.59,279.08 L 537.54,295.93 L 546.08,292.38 C 547.74,296.37 549.48,300.32 551.30,304.23 L 552.42,304.90 C 552.27,305.15 552.12,305.40 551.97,305.65 C 616.04,441.50 772.25,529.99 817.06,689.20 C 817.68,691.42 818.00,693.71 818.00,696.00 C 818.00,707.71 809.92,717.69 798.78,720.32 C 683.01,747.68 558.80,761.07 440.63,761.07 C 440.15,761.07 393.01,760.51 392.24,760.51 Z" transform="translate(2612.12,100.00) scale(0.8000,0.8000)" fill="#000000" />
</svg>
