<?xml version="1.0" encoding="UTF-8" standalone="no"?>
<!--
Representation of "jan lili li jo e palisa seli lili (sitelen tawa)" in sitelen ilo pona
Generated by generate_sitelen_kalama_pona.py

Description:
  Representation of "jan lili li jo e palisa seli lili (sitelen tawa)" in sitelen ilo pona.
  Sources: jan-lili: https://commons.wikimedia.org/wiki/File:Sitelen_seli_kiwen_-_jan-lili.svg; li: https://commons.wikimedia.org/wiki/File:Sitelen_seli_kiwen_-_li.svg; jo: https://commons.wikimedia.org/wiki/File:Sitelen_seli_kiwen_-_jo.svg; e: https://commons.wikimedia.org/wiki/File:Sitelen_seli_kiwen_-_e.svg; palisa: https://commons.wikimedia.org/wiki/File:Sitelen_seli_kiwen_-_palisa.svg; seli: https://commons.wikimedia.org/wiki/File:Sitelen_seli_kiwen_-_seli.svg; lili: https://commons.wikimedia.org/wiki/File:Sitelen_seli_kiwen_-_lili.svg

Categories:
  [[Category:Sitelen kalama pona]]
  [[Category:Toki Pona text containing jan lili li jo e palisa seli lili (sitelen tawa)]]

Sources:
  jan-lili: https://commons.wikimedia.org/wiki/File:Sitelen_seli_kiwen_-_jan-lili.svg
  li: https://commons.wikimedia.org/wiki/File:Sitelen_seli_kiwen_-_li.svg
  jo: https://commons.wikimedia.org/wiki/File:Sitelen_seli_kiwen_-_jo.svg
  e: https://commons.wikimedia.org/wiki/File:Sitelen_seli_kiwen_-_e.svg
  palisa: https://commons.wikimedia.org/wiki/File:Sitelen_seli_kiwen_-_palisa.svg
  seli: https://commons.wikimedia.org/wiki/File:Sitelen_seli_kiwen_-_seli.svg
  lili: https://commons.wikimedia.org/wiki/File:Sitelen_seli_kiwen_-_lili.svg
-->
<svg version="1.1" width="6517" height="1000"
     viewBox="0 0 6517 1000"
     xmlns="http://www.w3.org/2000/svg">
  <path d="M487 527Q487 531 499.0 538.0Q511 545 522 545Q532 545 544.5 538.5Q557 532 557 519Q557 505 535.0 489.5Q513 474 510 465Q505 453 486.0 441.5Q467 430 466 428Q463 424 452.0 424.0Q441 424 438 428Q435 432 415.5 446.0Q396 460 379.5 477.0Q363 494 363 508Q363 512 364.5 518.0Q366 524 372.0 530.0Q378 536 388 536Q405 536 424.0 517.5Q443 499 454 499Q462 499 470.0 505.5Q478 512 482.5 518.5Q487 525 487 527ZM204 420Q204 440 200.0 447.0Q196 454 196.0 470.0Q196 486 201.5 499.0Q207 512 207 514Q207 524 213.0 532.5Q219 541 219 553Q219 557 219 561Q218 566 218 569Q218 578 229.0 586.5Q240 595 246 608Q259 637 293 658Q304 665 319.0 677.0Q334 689 344.5 697.0Q355 705 358 705Q364 705 395.0 721.5Q426 738 446 738Q453 738 459 737Q467 735 476 735Q477 735 480.5 735.0Q484 735 486 735Q495 735 504 730Q514 723 529 726H536Q553 726 580.5 717.0Q608 708 623 697Q647 679 670.0 652.5Q693 626 696 614Q696 614 697.5 604.0Q699 594 701.5 579.0Q704 564 706.5 547.5Q709 531 711.0 516.0Q713 501 713 494Q713 425 704 418Q697 413 690.0 396.5Q683 380 677.5 366.5Q672 353 668 353Q663 353 660.0 348.0Q657 343 651.0 335.0Q645 327 637 322Q623 313 623 308Q623 305 632.5 294.0Q642 283 657.5 266.0Q673 249 682 238Q708 204 740.5 171.0Q773 138 789.0 121.5Q805 105 805 96Q805 90 803.0 83.5Q801 77 792.5 69.5Q784 62 769 62Q757 62 740.5 78.5Q724 95 709.5 114.0Q695 133 691 136Q678 145 660 171Q642 197 605.5 227.0Q569 257 557 257Q534 254 534 250Q534 246 501.5 243.0Q469 240 440 240Q409 240 385.0 248.0Q361 256 346.0 264.5Q331 273 322 273Q316 273 312.5 270.0Q309 267 306.0 261.5Q303 256 295.0 243.5Q287 231 276 217Q264 202 256.5 187.5Q249 173 241 168Q230 161 230 154Q230 147 226 147Q223 147 198.0 114.5Q173 82 173 79Q173 74 159.0 64.5Q145 55 131 55Q113 55 102 70Q96 78 95.5 82.5Q95 87 101 100Q105 112 119.0 126.0Q133 140 144.0 149.5Q155 159 155 163Q155 167 173.5 187.0Q192 207 192 211Q192 217 227.0 267.5Q262 318 262 323Q262 327 246.0 338.5Q230 350 230 355Q230 362 225 362Q220 362 212.0 385.5Q204 409 204 420ZM449 308Q480 308 533.0 332.0Q586 356 586 373Q586 381 590 381Q595 381 616.0 404.0Q637 427 644 439Q651 455 651 484Q651 515 644.5 548.0Q638 581 629 598Q615 622 589.5 638.0Q564 654 535.0 660.0Q506 666 488.5 668.0Q471 670 457 670Q420 670 383.5 650.0Q347 630 327 610Q293 576 285.0 563.0Q277 550 274 529Q272 519 267.0 511.0Q262 503 262 494Q262 486 258.5 479.0Q255 472 255 467Q255 450 266.0 422.5Q277 395 287 391Q289 390 304.0 376.0Q319 362 337.0 347.5Q355 333 385.5 320.5Q416 308 449 308Z" transform="translate(0.00,958.33) scale(0.9583,-0.9583)" fill="#000000" />
  <path d="M281 756Q295 756 318.5 734.0Q342 712 359.0 691.0Q376 670 376 668Q376 665 384.0 657.0Q392 649 404.0 636.5Q416 624 423 615Q435 600 479.0 553.0Q523 506 531 501Q539 496 539 492Q539 488 585.5 446.0Q632 404 641 399Q647 396 649.0 391.5Q651 387 649 375Q648 360 638.0 348.0Q628 336 619.0 329.0Q610 322 610 317Q610 314 580.5 291.5Q551 269 549 269Q544 269 544.0 263.0Q544 257 533.5 246.5Q523 236 518 236Q512 236 512 231Q512 227 505 227Q501 227 495.0 216.5Q489 206 478 202Q465 197 465 191Q465 184 461 184Q457 184 441.5 169.0Q426 154 406.0 133.0Q386 112 378 105Q345 76 345 62Q345 50 339.0 42.0Q333 34 324.0 31.5Q315 29 309.5 28.0Q304 27 300 27Q286 27 273.0 35.5Q260 44 257 45Q250 48 250 58Q250 70 259.5 84.5Q269 99 282 106Q295 112 314.5 133.5Q334 155 340 160Q362 179 385.0 203.0Q408 227 408 230Q408 233 419.5 242.5Q431 252 451.0 268.5Q471 285 485 299Q537 352 550.0 366.0Q563 380 563 385Q563 387 549.5 399.5Q536 412 520.0 425.5Q504 439 502 441Q465 481 465 485Q465 488 418.0 535.0Q371 582 371 586Q371 589 354.5 600.5Q338 612 338 619Q338 626 294.5 666.5Q251 707 251 718Q251 730 260.0 743.0Q269 756 281 756Z" transform="translate(942.50,958.33) scale(0.9583,-0.9583)" fill="#000000" />
  <path d="M666 238Q666 239 665 240L664 242Q664 244 678.0 253.5Q692 263 692 274Q692 280 688.5 281.5Q685 283 663 285H660Q653 285 641.0 281.0Q629 277 624 277Q620 277 618 278Q608 282 496.5 287.5Q385 293 367 298Q355 302 352.0 305.5Q349 309 349 319Q349 331 353.5 335.5Q358 340 367.0 344.0Q376 348 382 354Q393 365 417 365Q424 365 425 362Q426 358 516.0 353.0Q606 348 666 348Q699 348 713.5 353.5Q728 359 744 359Q766 359 766 348Q766 344 772.5 330.0Q779 316 779 309Q779 308 764 268L750 228Q744 212 706.0 174.0Q668 136 649 127Q639 123 611 106Q596 96 541.0 85.0Q486 74 460 74Q396 74 357.0 85.0Q318 96 294.0 111.5Q270 127 255 130Q245 132 231.5 138.0Q218 144 218 146Q219 147 220 147L221 148Q221 150 215.0 156.0Q209 162 199.5 172.0Q190 182 184 192Q179 200 173.5 207.0Q168 214 164.5 217.5Q161 221 159.0 224.5Q157 228 157 232Q157 241 152 241Q150 241 143.5 249.0Q137 257 129.0 281.5Q121 306 121 339Q121 379 127.0 396.0Q133 413 133 415Q133 421 142.5 439.5Q152 458 152 463Q152 480 177.0 515.0Q202 550 214 550Q221 550 223 554Q226 562 247.0 574.0Q268 586 282 588Q299 591 311.0 598.5Q323 606 326 606Q360 606 401 648Q442 689 464.0 701.5Q486 714 539 725Q541 726 552 726Q586 726 612.0 718.0Q638 710 648.0 702.5Q658 695 658 691Q658 686 667.5 678.0Q677 670 677 661Q677 653 684.5 635.0Q692 617 692 602Q692 581 677.5 547.5Q663 514 663 510Q663 503 659 503Q656 503 641.0 491.5Q626 480 621 480Q615 480 608.0 474.0Q601 468 593.0 460.5Q585 453 560.5 447.0Q536 441 499 441Q478 441 464.5 443.5Q451 446 447.5 448.5Q444 451 440.5 453.5Q437 456 434 456Q432 456 418.0 470.5Q404 485 389.0 504.0Q374 523 371 533Q368 545 359 545Q357 545 342.5 542.5Q328 540 308.0 534.5Q288 529 279 522Q263 512 261 512Q252 512 218.5 466.5Q185 421 185 409Q185 406 181.5 399.0Q178 392 178 377Q178 376 180 346L181 316Q181 307 187.5 295.5Q194 284 194 280Q194 275 222.0 242.5Q250 210 254 210Q259 210 263.5 207.0Q268 204 278.0 198.0Q288 192 303 187Q317 182 324.5 176.5Q332 171 335.0 168.5Q338 166 342 166Q349 166 349 161Q349 153 391.0 146.5Q433 140 461 140Q487 140 521.5 147.5Q556 155 565 159Q631 193 639 204Q642 208 649.5 216.0Q657 224 661.5 229.5Q666 235 666 238ZM621 584Q621 593 623.5 598.0Q626 603 626 604Q626 614 612.5 637.5Q599 661 595 661Q585 661 577.0 663.5Q569 666 564.5 668.5Q560 671 559.0 671.0Q558 671 546.0 668.0Q534 665 518.5 660.0Q503 655 498 650Q492 644 483.5 638.5Q475 633 470.5 630.0Q466 627 466.0 624.0Q466 621 454.5 604.0Q443 587 443 582Q443 578 439.0 573.0Q435 568 434.0 566.0Q433 564 437 561Q443 559 443 552Q443 540 467.0 523.5Q491 507 513 507Q549 507 585.0 532.5Q621 558 621 584Z" transform="translate(1885.00,958.33) scale(0.9583,-0.9583)" fill="#000000" />
  <path d="M156 75Q144 75 126.0 90.0Q108 105 108 115Q108 118 109.0 127.5Q110 137 114.5 149.5Q119 162 124 164Q131 166 151.5 186.0Q172 206 180 210Q192 216 207.0 231.5Q222 247 222 252Q222 260 253.5 283.0Q285 306 292 316Q298 327 314.5 339.0Q331 351 334 356Q336 363 359.5 386.0Q383 409 388 409Q392 409 392 418Q392 423 370.5 439.5Q349 456 342 456Q340 456 297.0 498.0Q254 540 246 543Q238 546 212.5 570.0Q187 594 170 602Q169 602 157.5 609.5Q146 617 133.0 629.5Q120 642 120 652Q120 667 124.0 671.0Q128 675 142 679Q166 685 168 685Q170 685 186.5 669.0Q203 653 208 653Q211 653 224.0 641.0Q237 629 257.0 610.5Q277 592 292 580Q303 573 310.5 566.5Q318 560 322.0 556.0Q326 552 328.5 549.5Q331 547 332.5 546.0Q334 545 336 545Q340 545 378.5 510.0Q417 475 426 472Q434 470 434 466Q434 463 452.5 453.5Q471 444 474 433Q475 427 475.5 422.5Q476 418 477.0 416.0Q478 414 478.0 412.5Q478 411 478.0 410.5Q478 410 478 410Q478 402 467.5 384.5Q457 367 452 367Q448 367 448 361Q448 357 431.0 344.5Q414 332 414 329Q414 324 410 327Q410 327 409.5 327.5Q409 328 408 328Q405 328 298 231Q229 168 204.5 142.0Q180 116 180 98Q180 90 172.0 82.5Q164 75 156 75ZM356 681Q356 693 366.0 704.0Q376 715 392 715Q412 715 449.0 686.0Q486 657 518.0 625.5Q550 594 554 592Q564 588 590.0 566.5Q616 545 637.5 526.5Q659 508 662 508Q664 508 672.5 495.5Q681 483 692 480Q700 477 715.0 465.5Q730 454 752 443Q792 423 792 399Q792 396 791.5 389.5Q791 383 790.5 380.0Q790 377 790 375Q793 373 789.5 367.5Q786 362 779.0 357.0Q772 352 766 351Q752 348 752 344Q752 342 739.0 335.5Q726 329 711.5 320.5Q697 312 694 306Q689 298 674.0 288.0Q659 278 656 275Q647 265 619.5 247.5Q592 230 562.5 207.0Q533 184 514 157Q508 147 502 147Q494 147 494.0 140.0Q494 133 490 133Q486 133 486 126Q486 122 482.0 119.0Q478 116 469.5 108.5Q461 101 454 89Q441 69 428 69Q417 69 400.5 87.5Q384 106 384 116Q384 130 398.5 143.5Q413 157 431.5 168.5Q450 180 454 186Q461 197 500.5 237.5Q540 278 544 278Q546 278 562.5 290.0Q579 302 582 302Q585 302 592.0 313.5Q599 325 604 325Q612 325 612 330Q612 334 618 334Q623 334 658 367L692 400L674 418Q660 431 639.5 443.0Q619 455 614 462Q610 468 600.0 475.0Q590 482 582.0 487.5Q574 493 574 497Q574 502 559.5 513.5Q545 525 518.0 544.0Q491 563 474 576Q443 602 408 627Q406 628 402 631Q383 645 375.5 651.5Q368 658 362.0 666.0Q356 674 356 681Z" transform="translate(2827.50,958.33) scale(0.9583,-0.9583)" fill="#000000" />
  <path d="M354 109Q354 119 349.0 125.5Q344 132 344 137Q344 148 343 149Q342 149 340 146Q335 139 334 151Q334 157 334 167Q334 176 325.0 200.5Q316 225 316 236Q316 264 311.0 293.5Q306 323 306 371Q306 414 302.0 433.5Q298 453 298 466Q298 480 295.0 499.5Q292 519 292 523Q292 526 294 532Q296 537 298.0 559.5Q300 582 302.0 612.5Q304 643 308 660Q312 683 312 700Q312 717 322 726Q334 738 328 738Q326 738 334.5 746.5Q343 755 354.0 764.5Q365 774 368 776Q375 778 406 778Q466 778 474 769Q478 761 484 761Q488 761 493.0 754.0Q498 747 504 747Q512 747 532.5 723.5Q553 700 554 690Q554 688 561.0 677.5Q568 667 568 660Q569 658 577.0 622.0Q585 586 586 552Q593 409 604 402Q606 400 605.0 396.0Q604 392 602.0 386.5Q600 381 602 373Q608 358 608 282Q608 146 598 136Q594 131 594 120Q594 97 566.0 72.0Q538 47 484 47Q483 47 447.0 54.0Q411 61 410 62Q409 64 397.0 69.5Q385 75 376 84Q364 95 359.0 95.0Q354 95 354 109ZM540 188Q540 215 545.0 231.5Q550 248 550 260Q550 262 548.5 295.5Q547 329 544.0 365.5Q541 402 540 405Q534 414 530 500Q527 589 511.5 628.5Q496 668 446 714Q432 726 414 726Q394 726 382 712Q378 707 371.5 688.0Q365 669 358.5 630.5Q352 592 352 550Q352 536 353.5 536.0Q355 536 358.0 503.0Q361 470 364.5 412.5Q368 355 370 299Q371 255 376.0 237.0Q381 219 406 164Q411 152 416.5 145.0Q422 138 442.5 129.0Q463 120 494 120Q528 120 528 133Q528 142 532 142Q535 142 539.0 152.0Q543 162 542 168Q540 173 540 188Z" transform="translate(3770.00,958.33) scale(0.9583,-0.9583)" fill="#000000" />
  <path d="M431 26Q404 26 379.0 51.5Q354 77 354 100Q354 110 364.5 126.0Q375 142 385 147Q389 149 397.0 161.5Q405 174 416.5 183.5Q428 193 443 193Q449 193 461.5 189.5Q474 186 491.5 167.5Q509 149 509 119Q509 93 501.5 74.5Q494 56 484.5 47.0Q475 38 462.0 33.0Q449 28 442.5 27.0Q436 26 431 26ZM183 628Q183 662 214 662Q229 662 236.5 655.0Q244 648 253 625Q303 506 303 485Q303 479 314.5 454.5Q326 430 326 423Q326 413 332.0 392.5Q338 372 341 372Q345 372 345 364Q345 358 354.0 348.5Q363 339 369 339Q372 339 371 336Q370 333 369.0 330.5Q368 328 367.0 320.5Q366 313 366 305Q365 284 357.5 276.5Q350 269 330 269Q317 269 312.0 271.5Q307 274 299.0 285.0Q291 296 291 310Q291 320 288.5 334.0Q286 348 282.0 361.5Q278 375 274.0 386.5Q270 398 268 406L265 413Q265 416 258.0 433.0Q251 450 250 462Q250 473 243.5 486.5Q237 500 237 513Q237 531 233.0 531.0Q229 531 221.5 545.0Q214 559 214 565Q214 568 198.5 590.0Q183 612 183 628ZM489 314Q489 317 501.5 341.5Q514 366 514 371Q514 378 535.0 408.5Q556 439 561 452Q565 462 574.5 483.0Q584 504 591.0 520.5Q598 537 598 540Q598 545 603 545Q609 545 617.5 567.5Q626 590 627 607Q629 628 637 636Q643 642 650 654Q653 660 662.0 665.5Q671 671 678 674L686 676Q690 677 703.5 666.0Q717 655 717 652Q712 648 709 626Q707 608 695.0 590.5Q683 573 678 558Q673 538 659 518Q648 502 632.0 468.5Q616 435 604.0 409.0Q592 383 589 381Q576 372 576 334Q576 332 576.5 329.5Q577 327 577 326Q580 308 571 300Q555 286 523 286Q508 286 498.5 296.0Q489 306 489 314ZM400 698Q400 712 409.0 720.5Q418 729 427 730L436 732Q444 732 447 725Q451 716 457 708Q464 700 465.0 662.5Q466 625 469 621Q472 615 468 612Q452 602 452 463V431Q452 346 458 341Q463 338 463 331Q463 327 461.0 317.0Q459 307 450.0 293.5Q441 280 426 280Q409 280 398.5 288.5Q388 297 386.5 303.0Q385 309 385 312Q385 313 388.0 323.0Q391 333 391 353Q391 370 394.0 410.5Q397 451 397 466Q397 482 395.0 488.0Q393 494 393 506Q393 549 400.5 575.5Q408 602 408 613Q408 628 404.0 657.5Q400 687 400 698Z" transform="translate(4712.50,958.33) scale(0.9583,-0.9583)" fill="#000000" />
  <path d="M354 494Q373 494 402.0 458.5Q431 423 431 414Q431 410 433.5 408.0Q436 406 440.5 408.0Q445 410 449 414Q456 421 462 424Q465 425 478.5 445.0Q492 465 509.5 483.5Q527 502 541 502Q551 502 563.5 490.5Q576 479 576 468Q576 433 563 433Q556 433 519.5 393.5Q483 354 483 349Q483 345 462.0 325.5Q441 306 437 306Q431 306 414.5 314.0Q398 322 394 327Q391 330 381.5 362.0Q372 394 347 422Q339 431 331.5 445.5Q324 460 324 468Q324 474 333.5 484.0Q343 494 354 494Z" transform="translate(5655.00,958.33) scale(0.9583,-0.9583)" fill="#000000" />
</svg>
