<?xml version="1.0" encoding="UTF-8" standalone="no"?>
<!--
Representation of "sona lili" in sitelen kalama pona
Generated by generate_sitelen_kalama_pona.py

Description:
  Representation of "sona lili" in sitelen kalama pona.
  Sources: sona-lili: https://commons.wikimedia.org/wiki/File:Sitelen_seli_kiwen_-_sona-lili.svg

Categories:
  [[Category:Sitelen kalama pona]]
  [[Category:Toki Pona text containing sona lili]]

Sources:
  sona-lili: https://commons.wikimedia.org/wiki/File:Sitelen_seli_kiwen_-_sona-lili.svg
-->
<svg version="1.1" width="862" height="1000"
     viewBox="0 0 862 1000"
     xmlns="http://www.w3.org/2000/svg">
  <path d="M372 313Q372 318 378.5 330.5Q385 343 395 343Q406 343 420.5 322.5Q435 302 440 302Q444 302 455.5 319.5Q467 337 480 337Q486 337 493.0 329.5Q500 322 500 311Q500 300 491 287Q480 273 476 260Q473 252 462.5 246.0Q452 240 441 240Q429 240 400.5 272.0Q372 304 372 313ZM214 211Q214 265 208.0 320.5Q202 376 196.5 413.0Q191 450 191 457Q191 468 192.0 476.5Q193 485 194.5 489.0Q196 493 196.0 494.0Q196 495 195.5 496.0Q195 497 195 498Q195 501 210.5 509.5Q226 518 234 518Q236 518 237 517Q245 511 371.5 507.5Q498 504 500 502Q503 499 519 499Q538 499 553.5 504.0Q569 509 587 509Q595 509 609.0 508.0Q623 507 632 507Q651 507 661.0 511.0Q671 515 678 515Q682 515 689.5 513.5Q697 512 708.5 503.5Q720 495 720 481Q720 475 718 468Q712 448 708.0 377.5Q704 307 703.0 256.5Q702 206 702 194Q702 172 708.5 143.5Q715 115 715 89Q715 77 704.5 73.5Q694 70 650 70Q611 70 540.0 72.0Q469 74 468 74Q424 74 350.0 69.0Q276 64 265 60Q248 54 240 54Q228 54 212.0 68.0Q196 82 196 94Q196 102 203.5 117.5Q211 133 211 136Q211 137 211.5 151.0Q212 165 213.0 183.0Q214 201 214 211ZM460 137H520Q580 137 613 140L642 143V195Q642 208 643.5 256.5Q645 305 646.5 347.5Q648 390 648 390Q648 438 641 445Q636 450 544 450Q496 450 471.5 447.0Q447 444 402 444Q400 444 367.0 444.5Q334 445 334 445Q318 445 307.0 444.5Q296 444 290.0 443.5Q284 443 280.5 442.5Q277 442 276.5 441.5Q276 441 275.0 440.5Q274 440 273.5 439.5Q273 439 270.5 438.5Q268 438 264 438Q257 438 255.0 436.5Q253 435 255 430Q260 417 263.5 364.0Q267 311 269 307Q271 304 266.5 299.0Q262 294 264 288Q264 288 265.0 281.0Q266 274 267.5 263.0Q269 252 270.5 240.0Q272 228 273.0 215.5Q274 203 274 195Q274 184 272 182Q268 178 268 160Q268 138 272.5 133.5Q277 129 297 129Q309 129 330.5 130.0Q352 131 373.5 132.0Q395 133 414.5 134.0Q434 135 446.5 136.0Q459 137 460 137ZM276 599Q276 589 268.0 582.5Q260 576 251 576Q237 576 227.0 588.0Q217 600 209.5 613.0Q202 626 196 628Q186 631 180.0 636.5Q174 642 167 657Q162 666 162 673Q162 682 169.0 688.0Q176 694 181.0 695.0Q186 696 189 696Q204 698 209.5 695.5Q215 693 218 685Q219 677 225 677Q226 677 238.5 663.5Q251 650 263.5 630.5Q276 611 276 599ZM630 687Q638 693 667.0 722.5Q696 752 711 752Q738 752 738 728Q738 711 725.5 694.5Q713 678 698.0 667.0Q683 656 669.0 642.5Q655 629 653 619Q650 609 640.0 600.5Q630 592 621 592Q614 592 614 597Q614 602 603 606Q594 609 593.5 612.0Q593 615 598 628Q616 678 630 687ZM448 713V699Q448 654 456 636Q458 632 459.0 628.5Q460 625 460.0 622.5Q460 620 459 620Q455 620 448 604Q443 593 439.5 590.5Q436 588 426 590Q411 593 407.0 599.5Q403 606 402.5 613.0Q402 620 398 621Q391 623 391 712Q391 744 399 751Q408 758 408 766Q408 780 419 780Q429 780 439 769Q445 762 446.5 752.5Q448 743 448 713Z" transform="translate(0.00,958.33) scale(0.9583,-0.9583)" fill="#000000" />
</svg>
