<?xml version="1.0" encoding="UTF-8" standalone="no"?>
<!--
Representation of "ilo Ekesepo" in sitelen kalama pona
Generated by generate_sitelen_kalama_pona.py

Description:
  Representation of "ilo Ekesepo" in sitelen kalama pona.
  Sources: ilo: https://commons.wikimedia.org/wiki/File:Sitelen_seli_kiwen_-_ilo.svg; e: https://commons.wikimedia.org/wiki/File:Sitelen_kalama_pona_-_xe.svg; ke: https://commons.wikimedia.org/wiki/File:Sitelen_kalama_pona_-_ke.svg; se: https://commons.wikimedia.org/wiki/File:Sitelen_kalama_pona_-_se.svg; po: https://commons.wikimedia.org/wiki/File:Sitelen_kalama_pona_-_po.svg

Categories:
  [[Category:Toki Pona text containing ilo]]
  [[Category:Toki Pona text containing sound symbol E]]
  [[Category:Toki Pona text containing sound symbol Ke]]
  [[Category:Toki Pona text containing sound symbol Se]]
  [[Category:Toki Pona text containing sound symbol Po]]

Sources:
  ilo: https://commons.wikimedia.org/wiki/File:Sitelen_seli_kiwen_-_ilo.svg
  e: https://commons.wikimedia.org/wiki/File:Sitelen_kalama_pona_-_xe.svg
  ke: https://commons.wikimedia.org/wiki/File:Sitelen_kalama_pona_-_ke.svg
  se: https://commons.wikimedia.org/wiki/File:Sitelen_kalama_pona_-_se.svg
  po: https://commons.wikimedia.org/wiki/File:Sitelen_kalama_pona_-_po.svg
-->
<svg version="1.1" width="6265" height="1000"
     viewBox="0 0 6265 1000"
     xmlns="http://www.w3.org/2000/svg">
  <path d="M411 266Q411 271 407.5 280.5Q404 290 404 294Q404 295 407.0 304.0Q410 313 411 330L412 356L384 359Q377 360 357 360Q281 360 281 353Q281 350 246 352Q238 353 226 353Q209 353 193.0 343.5Q177 334 161 334Q141 334 130.0 345.5Q119 357 119 367Q119 380 109 387Q102 393 100.0 398.0Q98 403 100 417Q102 432 108.5 448.0Q115 464 115 492Q115 514 112.5 591.5Q110 669 106 675Q104 679 106.0 688.0Q108 697 104 701Q96 711 96 724Q96 730 98.0 737.0Q100 744 110.5 752.5Q121 761 139 761Q164 761 164 765Q164 770 168 768Q171 767 298.0 760.5Q425 754 431 754Q451 754 474.0 757.0Q497 760 513 760Q536 760 574.5 755.5Q613 751 631 751Q645 751 685.0 753.0Q725 755 738 755Q761 755 770.0 741.0Q779 727 780 677Q786 494 788.5 456.0Q791 418 799 403Q804 391 804 383Q804 364 789.0 358.0Q774 352 734 352Q692 352 616.5 359.5Q541 367 515 367Q498 367 490.5 366.0Q483 365 481.5 363.0Q480 361 480 357Q480 346 477.5 311.0Q475 276 475 257Q475 217 481.0 184.0Q487 151 493.0 133.5Q499 116 499 111Q499 102 489.5 87.5Q480 73 461 73Q439 73 425.0 91.0Q411 109 409 138L408 160Q406 181 404.5 204.0Q403 227 403 230Q403 246 407.0 255.0Q411 264 411 266ZM387 698Q363 702 305 702Q272 702 251.5 699.0Q231 696 215 695Q186 694 179.5 682.5Q173 671 169 618Q166 573 166 536Q166 477 174 463Q180 445 182 437L188 415L226 417Q268 419 323 419Q369 419 399 422L416 424L414 500Q412 576 412 592Q412 614 413.0 628.0Q414 642 415.0 647.0Q416 652 416 654Q416 657 412 672Q408 688 404.5 692.0Q401 696 387 698ZM725 438Q725 441 723.5 445.0Q722 449 720.0 451.5Q718 454 717.0 456.5Q716 459 717.5 460.0Q719 461 723 461Q733 461 733 479Q733 484 729.0 515.0Q725 546 723 585Q719 657 710.0 672.0Q701 687 658 689Q639 690 624.0 693.0Q609 696 608.0 697.0Q607 698 603 696Q602 694 562 694H542L485 695L483 670Q482 651 477.0 627.5Q472 604 472 602V592Q473 581 474.5 564.0Q476 547 477.0 526.0Q478 505 478.5 479.0Q479 453 479 429Q479 423 501 426Q513 428 552 428Q566 428 586.0 427.0Q606 426 625.0 425.0Q644 424 660.5 422.5Q677 421 688 420L698 419Q725 419 725 438Z" transform="translate(0.00,958.33) scale(0.9583,-0.9583)" fill="#000000" />
  <path d="M 24.637998,12.488337 H 20.72216 q -1.48166,0 -2.54,-1.058333 -1.05833,-1.058333 -1.05833,-2.54 V 3.598338 q 0,-1.481667 1.05833,-2.54 Q 19.2405,4e-6 20.72216,4e-6 h 3.915838 V 0.846671 H 20.72216 q -1.13241,0 -1.94733,0.814917 -0.80433,0.804333 -0.80433,1.93675 v 5.291666 q 0,1.132417 0.80433,1.93675 0.81492,0.814917 1.94733,0.814917 h 3.915838 z" transform="translate(-428.69,0.00) scale(80.0747,80.0747)" fill="#000000" />
  <path d="M 75.014662,0.846671 V 4e-6 h 13.123333 v 0.846667 z m 0,11.641666 v -0.846666 h 13.123333 v 0.846666 z" transform="translate(-4462.58,0.00) scale(80.0747,80.0747)" fill="#000000" />
  <path d="M 75.014662,0.846671 V 4e-6 h 13.123333 v 0.846667 z m 0,11.641666 v -0.846666 h 13.123333 v 0.846666 z" transform="translate(-3411.74,0.00) scale(80.0747,80.0747)" fill="#000000" />
  <path d="M 75.014662,0.846671 V 4e-6 h 13.123333 v 0.846667 z m 0,11.641666 v -0.846666 h 13.123333 v 0.846666 z" transform="translate(-2360.89,0.00) scale(80.0747,80.0747)" fill="#000000" />
  <path d="M 75.014662,0.846671 V 4e-6 h 13.123333 v 0.846667 z m 0,11.641666 v -0.846666 h 13.123333 v 0.846666 z" transform="translate(-1310.04,0.00) scale(80.0747,80.0747)" fill="#000000" />
  <path d="m 87.714667,4e-6 h 2.8575 q 1.481666,0 2.54,1.058334 1.058333,1.058333 1.058333,2.54 v 5.291666 q 0,1.481667 -1.058333,2.54 -1.058334,1.058333 -2.54,1.058333 h -2.8575 v -0.846666 h 2.8575 q 1.132416,0 1.93675,-0.814917 0.814916,-0.804333 0.814916,-1.93675 V 3.598338 q 0,-1.132417 -0.814916,-1.93675 -0.804334,-0.814917 -1.93675,-0.814917 h -2.8575 z" transform="translate(-1276.14,0.00) scale(80.0747,80.0747)" fill="#000000" />
  <path d="M 312.05,735.45 C 394.84,735.45 484.55,719.15 572.98,719.15 C 589.31,719.15 605.66,719.70 622.01,721.00 L 623.20,721.00 C 576.40,642.58 526.57,564.31 474.64,486.78 C 444.44,551.54 400.48,608.47 358.62,663.16 C 339.95,687.54 321.63,711.50 304.90,735.40 C 307.28,735.43 309.66,735.45 312.05,735.45  Z M 739.76,83.70 C 730.46,83.67 709.10,91.78 690.85,91.78 C 683.12,91.78 672.75,90.37 663.58,83.64 C 661.10,83.43 658.46,83.33 655.69,83.33 C 621.21,83.33 564.31,99.00 545.00,99.00 C 543.85,99.00 527.25,98.70 511.53,98.70 C 477.64,98.70 451.60,98.70 401.87,108.52 C 358.79,117.03 315.06,118.01 276.61,123.99 C 424.60,319.18 567.32,525.74 688.60,733.40 C 690.86,737.28 692.00,741.64 692.00,746.00 C 692.00,759.81 680.81,771.00 667.00,771.00 L 621.00,771.00 C 618.01,771.00 602.36,769.17 573.58,769.17 C 487.28,769.17 397.97,785.45 312.50,785.45 C 304.61,785.45 296.73,785.31 288.88,785.01 C 288.82,785.01 288.76,785.01 288.70,785.01 C 286.84,785.07 284.60,785.17 282.04,785.17 C 261.02,785.17 253.42,778.71 248.90,774.19 C 242.73,768.02 239.91,759.18 239.91,751.19 C 239.91,744.50 241.81,739.86 243.92,736.54 C 307.31,637.40 400.41,545.42 441.22,437.41 C 368.07,330.47 291.24,225.20 213.13,123.18 C 209.71,118.71 208.00,113.36 208.00,108.00 C 208.00,107.19 208.20,89.35 225.78,84.07 C 280.29,67.68 336.88,70.35 391.87,59.53 C 432.78,50.54 470.46,48.70 510.99,48.70 C 521.76,48.70 532.73,48.83 544.02,48.99 C 574.88,45.99 616.18,33.06 653.36,33.06 C 662.23,33.06 671.10,33.76 679.84,35.48 C 684.29,36.35 688.54,38.43 692.06,41.73 C 703.48,41.11 721.01,33.68 739.18,33.68 C 744.43,33.68 761.06,34.05 772.54,48.41 L 733.49,79.63 C 735.06,81.51 737.70,82.31 739.76,83.70 Z" transform="translate(1669.62,100.00) scale(0.8000,0.8000)" fill="#000000" />
  <path d="M 223.73,118.89 C 223.73,219.81 358.16,259.90 422.73,342.64 C 422.73,342.64 383.31,373.40 383.27,373.36 C 325.30,299.08 173.75,250.23 173.75,118.52 C 173.75,116.12 173.80,113.69 173.91,111.24 C 173.53,108.37 173.28,105.26 173.28,101.99 C 173.28,73.47 193.91,57.00 210.18,55.16 C 335.25,41.04 335.25,41.04 336.34,41.01 C 473.68,37.62 609.98,33.19 748.53,31.01 L 749.47,80.99 C 611.42,83.17 475.59,87.57 338.75,90.96 L 223.40,103.98 C 223.56,105.80 224.00,107.13 224.00,110.00 C 224.00,110.09 223.73,115.58 223.73,118.89  Z M 437.75,579.91 L 472.27,616.08 L 384.25,700.09 C 381.93,702.31 381.93,702.31 307.14,743.86 L 282.85,700.14 L 352.07,661.69 L 437.75,579.91  Z M 609.00,155.00 C 622.81,155.00 634.00,166.19 634.00,180.00 L 634.00,184.00 L 588.00,184.00 L 609.00,205.00 L 600.32,205.00 C 564.02,214.91 428.69,259.50 428.69,373.49 C 428.69,392.21 432.00,402.69 432.00,408.00 C 432.00,410.90 430.81,418.65 430.81,432.71 C 430.81,532.88 493.70,640.11 597.56,657.42 C 705.14,675.35 705.14,675.35 705.14,675.35 C 705.14,675.35 696.92,724.66 696.86,724.65 C 588.46,706.58 588.46,706.58 588.05,706.50 C 462.74,681.35 380.80,559.13 380.80,433.14 C 380.80,425.13 381.13,417.10 381.80,409.10 C 379.78,397.21 378.82,385.67 378.82,374.50 C 378.82,319.38 402.25,273.33 437.08,238.50 C 478.69,196.89 535.39,170.39 590.60,155.83 C 592.69,155.28 594.85,155.00 597.00,155.00 L 609.00,155.00 Z" transform="translate(2720.47,100.00) scale(0.8000,0.8000)" fill="#000000" />
  <path d="M 263.20,147.66 C 263.20,211.90 311.50,261.37 366.33,278.10 C 366.33,278.10 351.73,325.92 351.67,325.90 C 274.13,302.24 213.22,232.48 213.22,147.57 C 213.22,141.74 213.46,129.20 215.45,123.60 C 238.60,58.47 315.71,43.96 377.90,32.25 C 392.95,29.42 407.02,26.75 418.85,23.77 C 420.82,23.27 422.83,23.02 424.85,23.01 L 752.85,21.01 L 753.15,70.99 L 428.14,72.98 C 393.59,81.37 348.87,86.55 314.49,98.75 C 277.38,111.93 267.59,128.15 263.58,137.72 C 263.33,141.07 263.20,144.38 263.20,147.66  Z M 542.52,135.87 C 542.94,135.87 584.45,134.64 584.74,134.64 C 605.27,134.64 628.28,137.16 652.57,149.83 C 654.87,151.03 666.00,157.59 666.00,172.00 L 666.00,178.00 L 619.64,178.00 L 629.43,194.17 C 614.66,186.46 601.63,184.61 585.72,184.61 C 585.29,184.61 545.13,185.88 542.64,185.88 C 536.98,185.88 531.05,185.71 524.87,185.25 C 467.43,199.78 394.55,260.59 393.93,325.38 C 414.96,379.12 488.04,408.98 537.68,458.62 C 564.56,485.50 586.02,520.64 586.02,567.44 C 586.02,579.35 578.60,613.12 553.16,638.56 C 511.82,679.90 445.48,682.62 385.37,685.08 C 365.18,685.90 346.18,686.73 330.22,688.79 C 329.11,688.93 325.42,689.23 320.82,689.23 C 293.47,689.23 268.84,678.85 249.93,671.60 C 247.93,670.83 245.98,670.08 244.11,669.37 C 244.11,669.37 261.84,622.61 261.89,622.63 C 284.84,631.33 305.59,639.20 321.90,639.20 C 322.51,639.20 336.22,637.06 383.31,635.13 C 465.86,631.75 523.68,626.30 536.03,567.38 C 536.03,567.34 536.03,567.29 536.03,567.24 C 536.03,516.08 500.02,487.99 447.25,449.83 C 406.13,420.09 362.68,388.66 345.36,338.13 C 344.12,334.52 343.93,331.80 343.93,325.97 C 343.93,232.87 438.85,152.93 517.60,135.59 C 519.37,135.20 521.19,135.00 523.00,135.00 C 523.20,135.00 533.14,135.87 542.52,135.87 Z" transform="translate(3771.31,100.00) scale(0.8000,0.8000)" fill="#000000" />
  <path d="M 406.00,138.00 C 406.00,140.69 406.00,140.69 404.24,147.49 C 406.55,148.67 412.23,150.03 418.10,150.03 C 423.55,150.03 424.53,149.00 429.00,149.00 C 431.12,149.00 433.23,149.27 435.30,149.81 C 439.73,149.81 446.67,144.08 446.67,138.37 C 446.67,137.07 446.00,135.56 446.00,132.00 C 446.00,125.92 447.91,124.20 447.91,119.16 C 447.91,109.21 439.01,100.80 430.06,97.90 C 413.57,108.32 405.72,123.22 405.72,133.14 C 405.72,135.03 406.00,135.64 406.00,138.00  Z M 416.96,200.19 C 381.00,200.19 354.13,179.20 354.13,148.66 C 354.13,144.22 354.70,139.79 355.75,135.45 C 355.71,134.48 355.69,133.51 355.69,132.55 C 355.69,107.83 368.47,86.53 383.75,71.25 C 389.45,65.55 395.72,60.41 402.45,56.02 L 400.45,50.50 C 407.17,48.07 413.94,46.81 420.61,46.55 C 420.82,46.46 434.57,41.00 443.00,41.00 L 447.00,41.00 L 447.00,50.66 C 476.09,60.97 497.84,88.20 497.84,119.55 C 497.84,124.02 497.40,128.59 496.44,133.22 C 496.62,135.03 496.70,136.82 496.70,138.58 C 496.70,171.62 467.03,199.90 435.98,199.90 C 433.58,199.90 431.15,199.73 428.68,199.39 C 424.82,199.91 420.90,200.19 416.96,200.19  Z M 510.22,318.48 C 510.22,313.24 510.00,308.10 510.00,308.00 L 510.00,272.00 L 560.00,272.00 L 560.00,307.44 C 560.16,311.26 560.22,314.99 560.22,318.65 C 560.22,330.41 559.57,341.35 559.57,353.04 C 559.57,371.00 561.93,382.13 561.95,382.43 L 563.95,414.45 L 514.05,417.57 L 512.15,387.07 C 510.07,375.39 509.53,364.25 509.53,353.78 C 509.53,342.13 510.22,330.05 510.22,318.48  Z M 262.00,588.00 C 262.00,590.55 261.51,592.50 261.51,598.12 C 261.51,619.41 271.01,666.82 306.04,667.01 C 679.13,669.01 679.13,669.01 679.13,669.01 L 678.87,718.99 C 304.05,716.99 304.05,716.99 303.23,716.93 C 246.41,712.93 211.46,658.55 211.46,599.37 C 211.46,595.29 211.63,591.27 211.96,587.35 C 211.63,578.56 211.47,569.80 211.47,561.05 C 211.47,455.79 234.78,354.11 265.14,256.54 C 265.14,256.54 312.88,271.40 312.86,271.46 C 283.23,366.68 261.46,463.35 261.46,561.21 C 261.46,576.57 262.00,586.52 262.00,588.00  Z M 753.08,241.01 L 752.92,290.99 L 140.92,288.99 L 141.08,239.01 L 753.08,241.01 Z" transform="translate(4822.16,100.00) scale(0.8000,0.8000)" fill="#000000" />
</svg>
