<?xml version="1.0" encoding="UTF-8" standalone="no"?>
<!--
Representation of "pimeja laso" in sitelen kalama pona
Generated by generate_sitelen_kalama_pona.py

Description:
  Representation of "pimeja laso" in sitelen kalama pona.
  Sources: pimeja-laso: https://commons.wikimedia.org/wiki/File:Sitelen_seli_kiwen_-_pimeja-laso.svg

Categories:
  [[Category:Sitelen kalama pona]]
  [[Category:Toki Pona text containing pimeja laso]]

Sources:
  pimeja-laso: https://commons.wikimedia.org/wiki/File:Sitelen_seli_kiwen_-_pimeja-laso.svg
-->
<svg version="1.1" width="862" height="1000"
     viewBox="0 0 862 1000"
     xmlns="http://www.w3.org/2000/svg">
  <path d="M301 94Q291 94 273.5 89.5Q256 85 244 85H235L208 87L201 109Q196 124 196 136Q196 157 210 180Q214 186 223.0 205.0Q232 224 241.0 239.0Q250 254 258 260Q269 269 280.0 289.0Q291 309 297 316Q311 334 311 340Q311 345 320.5 355.5Q330 366 330.0 370.0Q330 374 337.0 381.5Q344 389 344 393Q344 399 358 422Q373 447 375 462L377 478L352 479Q336 480 299.5 490.0Q263 500 258 501Q247 502 234 515Q222 527 216 527Q211 527 206.0 534.0Q201 541 196 541Q188 541 181 554Q176 563 155 584Q137 602 137 608Q137 616 129 621Q124 625 117.5 643.5Q111 662 108 666Q106 668 106 674Q106 690 120.0 714.0Q134 738 146 738Q152 738 161.0 745.0Q170 752 175 752Q187 752 208.0 746.0Q229 740 253.0 731.5Q277 723 284 721Q304 716 358 663Q409 613 425 613Q434 613 453.0 629.0Q472 645 498 655Q522 664 522 669Q522 676 551.5 690.0Q581 704 601 707Q605 708 622.0 711.5Q639 715 649 715Q666 715 691.0 707.5Q716 700 732 699Q755 698 775 684Q788 676 791.0 670.5Q794 665 794.0 652.0Q794 639 790.0 632.5Q786 626 768 609Q742 585 742 581Q742 580 728 558Q718 544 698.5 530.5Q679 517 669 517Q663 517 658 510Q656 507 638.0 502.0Q620 497 618.0 493.0Q616 489 605 489Q598 489 580.5 482.0Q563 475 556 475Q545 475 545 471Q545 468 554.5 454.5Q564 441 569 437Q573 433 576 424Q580 413 598.5 386.0Q617 359 621 350Q628 336 652.0 309.5Q676 283 682 283Q684 283 690.5 269.0Q697 255 700 255Q702 255 711.0 239.5Q720 224 721 223Q728 219 737.5 198.5Q747 178 747 167Q747 152 751 149Q753 147 753 146Q753 138 741.0 123.5Q729 109 722 109Q716 109 711 101Q707 95 690.0 92.0Q673 89 669 87Q663 85 659 85Q654 85 642.5 87.0Q631 89 626 89Q617 89 600.5 86.0Q584 83 579 83Q568 83 556.0 88.0Q544 93 538 93Q534 93 525.0 91.0Q516 89 513 89Q509 89 500.0 91.0Q491 93 483 93Q435 93 425 85Q423 83 407 83Q398 83 357.0 88.5Q316 94 301 94ZM333 625Q330 625 312.0 639.0Q294 653 290 653Q283 653 278 660Q270 669 245.5 680.0Q221 691 212 691Q206 691 202 687Q199 684 189.0 682.0Q179 680 170.5 677.0Q162 674 162.0 670.0Q162 666 168 662Q172 659 196 635Q261 566 286.0 552.5Q311 539 378 539Q405 539 405 543Q405 544 400 547Q399 548 393.5 563.0Q388 578 386.0 578.0Q384 578 359.5 601.5Q335 625 333 625ZM665 661Q657 661 643.0 652.5Q629 644 622 644Q614 644 607 648Q599 653 588.5 650.0Q578 647 576 640Q572 628 529 611Q494 597 485 581Q480 573 480.0 569.5Q480 566 487 562Q498 554 519.0 547.5Q540 541 554 541Q571 541 599 555Q637 575 650.0 584.5Q663 594 682 617Q695 633 696.5 637.0Q698 641 692 648Q681 661 665 661ZM451 457Q451 455 439.5 440.0Q428 425 428 422Q428 418 417 403Q409 393 408.0 388.5Q407 384 412 375Q422 356 445.0 329.0Q468 302 475 302Q479 302 493.5 318.0Q508 334 508 338Q508 344 514 348Q525 357 525 376Q525 400 481 441Q459 461 454 461Q451 461 451 457ZM406 291Q390 308 383 318Q381 320 380 320Q375 320 349 281Q319 234 313 228Q278 189 278 176Q278 170 285.0 168.0Q292 166 324 164Q346 162 347 162Q358 162 358 172Q358 180 367.5 195.5Q377 211 378 214Q380 220 388.0 226.0Q396 232 407.0 238.5Q418 245 421 247Q429 253 429 258Q429 265 406 291ZM534 278Q534 275 527.0 264.0Q520 253 520 249Q520 243 551 204Q573 175 573 169Q573 164 581 152Q587 143 601 143H613Q676 143 676 153Q676 165 651.0 207.0Q626 249 618 250Q614 250 599.0 269.5Q584 289 578 302Q572 317 565 317Q560 317 551.0 302.5Q542 288 540 287Q534 285 534 278ZM494 185Q477 212 471 212Q469 212 463 208Q462 207 454.5 200.5Q447 194 440.5 188.0Q434 182 428.5 174.5Q423 167 423 163Q423 148 462 148Q513 148 513 155Q513 156 510.5 160.0Q508 164 503.0 171.5Q498 179 494 185Z" transform="translate(0.00,958.33) scale(0.9583,-0.9583)" fill="#000000" />
</svg>
