<?xml version="1.0" encoding="UTF-8" standalone="no"?>
<!--
Representation of "nasin sewi Kemetesin" in sitelen kalama pona
Generated by generate_sitelen_kalama_pona.py

Description:
  Representation of "nasin sewi Kemetesin" in sitelen kalama pona.
  Sources: nasin: https://commons.wikimedia.org/wiki/File:Sitelen_seli_kiwen_-_nasin.svg; sewi: https://commons.wikimedia.org/wiki/File:Sitelen_seli_kiwen_-_sewi.svg; ke: https://commons.wikimedia.org/wiki/File:Sitelen_kalama_pona_-_ke.svg; me: https://commons.wikimedia.org/wiki/File:Sitelen_kalama_pona_-_me.svg; te: https://commons.wikimedia.org/wiki/File:Sitelen_kalama_pona_-_te.svg; sin: https://commons.wikimedia.org/wiki/File:Sitelen_kalama_pona_-_sin.svg

Categories:
  [[Category:Sitelen kalama pona]]
  [[Category:Toki Pona text containing nasin sewi]]
  [[Category:Toki Pona text containing sound symbol Ke]]
  [[Category:Toki Pona text containing sound symbol Me]]
  [[Category:Toki Pona text containing sound symbol Te]]
  [[Category:Toki Pona text containing sound symbol Sin]]

Sources:
  nasin: https://commons.wikimedia.org/wiki/File:Sitelen_seli_kiwen_-_nasin.svg
  sewi: https://commons.wikimedia.org/wiki/File:Sitelen_seli_kiwen_-_sewi.svg
  ke: https://commons.wikimedia.org/wiki/File:Sitelen_kalama_pona_-_ke.svg
  me: https://commons.wikimedia.org/wiki/File:Sitelen_kalama_pona_-_me.svg
  te: https://commons.wikimedia.org/wiki/File:Sitelen_kalama_pona_-_te.svg
  sin: https://commons.wikimedia.org/wiki/File:Sitelen_kalama_pona_-_sin.svg
-->
<svg version="1.1" width="7207" height="1000"
     viewBox="0 0 7207 1000"
     xmlns="http://www.w3.org/2000/svg">
  <path d="M428 210Q428 226 424.0 300.5Q420 375 416 375Q412 375 396.0 361.5Q380 348 378 348Q376 348 353.0 334.0Q330 320 328 320Q322 320 320 312Q318 304 308.0 301.0Q298 298 292 304Q285 311 274 314Q260 317 260 329Q260 354 310 380Q328 389 358.0 411.0Q388 433 388 438Q388 440 404 459L422 477L418 552Q412 678 412 679Q412 694 423.0 706.5Q434 719 448 719Q469 719 476 693Q482 677 480 673Q472 664 472 578V562Q473 500 474.5 488.5Q476 477 484 473Q493 470 502 456Q510 445 546.5 412.5Q583 380 612 358Q629 345 634.5 336.0Q640 327 640 310Q640 291 620 291Q597 291 582 308Q570 321 537.0 348.0Q504 375 492 382Q486 385 482 385Q474 385 474 359Q474 342 474 330Q476 306 477.0 248.5Q478 191 484 156Q488 131 488 111Q488 81 472 81Q462 81 462 86Q462 92 446 90Q434 89 430.0 91.0Q426 93 420 102Q412 116 415.5 123.0Q419 130 423.5 161.0Q428 192 428 210Z" transform="translate(0.00,958.33) scale(0.9583,-0.9583)" fill="#000000" />
  <path d="M550 540Q550 563 560.5 570.0Q571 577 591 577Q605 577 608.0 564.0Q611 551 611 492Q611 457 609.5 437.5Q608 418 606.5 414.0Q605 410 603.5 406.0Q602 402 602 395Q596 290 590 288Q588 287 588.5 283.0Q589 279 589.5 276.5Q590 274 587 273Q581 273 575 205Q574 196 556.5 165.0Q539 134 531 129Q525 125 510 113Q500 105 480 105Q413 105 374 161L366 173L354 159Q342 145 342 137Q342 124 317.0 113.0Q292 102 268 102Q248 102 248 108Q248 112 232 123L216 134L200 122Q183 109 169 109Q164 109 152.0 111.5Q140 114 131 115Q117 117 107.5 126.0Q98 135 94.5 143.0Q91 151 90 151H88Q82 151 82 157Q82 165 91.0 176.0Q100 187 108 187Q109 187 112.5 185.5Q116 184 123.5 182.0Q131 180 143 180Q161 180 166.5 182.0Q172 184 178 196Q187 210 187 220Q187 223 189.5 230.5Q192 238 202.0 248.0Q212 258 228 258Q240 258 247.0 248.5Q254 239 255.5 231.5Q257 224 257 217Q257 216 256.5 213.5Q256 211 256.0 210.0Q256 209 255.5 207.0Q255 205 255 204Q255 193 262.0 185.5Q269 178 276 177L283 175Q292 175 300.5 189.0Q309 203 313.0 217.0Q317 231 315 231Q312 231 318 235Q323 238 328.5 273.0Q334 308 334 332Q334 346 342.5 357.5Q351 369 358 369Q363 369 366.5 364.0Q370 359 370 355Q370 348 375.0 348.0Q380 348 380 353Q380 362 390 357Q394 354 396 349Q397 347 397 329Q397 314 396.5 300.5Q396 287 395.5 277.0Q395 267 394.5 259.0Q394 251 393.5 246.0Q393 241 392.5 237.5Q392 234 391.5 232.0Q391 230 391 230Q391 227 416 195Q422 188 437.5 183.0Q453 178 463.0 177.0Q473 176 476 176Q488 176 499.5 186.5Q511 197 513 209Q515 219 519.0 228.5Q523 238 524 249Q524 251 531.5 279.0Q539 307 546.0 353.5Q553 400 553 448Q553 494 548 494Q545 494 545 495Q545 495 546.5 498.0Q548 501 549.0 507.0Q550 513 550 521ZM763 739Q795 739 795 690Q795 690 794.5 679.5Q794 669 794.0 652.5Q794 636 793.5 617.0Q793 598 792.5 578.5Q792 559 792 546Q793 519 793 513Q793 465 790.5 430.0Q788 395 788 387V294Q788 261 795.0 201.0Q802 141 802 131Q802 120 803.5 116.0Q805 112 811 111Q820 108 817 100Q814 94 813.0 76.5Q812 59 807.5 47.5Q803 36 791 36Q783 36 771 42Q759 48 755.0 53.5Q751 59 749 74Q735 162 735 278Q735 298 737.5 388.5Q740 479 742 483Q744 487 741.0 502.0Q738 517 740 519Q741 520 741 545Q741 572 740.5 595.0Q740 618 738.5 633.5Q737 649 736.0 661.5Q735 674 733.5 681.5Q732 689 730.5 694.0Q729 699 728.5 701.5Q728 704 728 704Q728 717 739.0 728.0Q750 739 763 739Z" transform="translate(942.50,958.33) scale(0.9583,-0.9583)" fill="#000000" />
  <path d="M 24.637998,12.488337 H 20.72216 q -1.48166,0 -2.54,-1.058333 -1.05833,-1.058333 -1.05833,-2.54 V 3.598338 q 0,-1.481667 1.05833,-2.54 Q 19.2405,4e-6 20.72216,4e-6 h 3.915838 V 0.846671 H 20.72216 q -1.13241,0 -1.94733,0.814917 -0.80433,0.804333 -0.80433,1.93675 v 5.291666 q 0,1.132417 0.80433,1.93675 0.81492,0.814917 1.94733,0.814917 h 3.915838 z" transform="translate(513.81,0.00) scale(80.0747,80.0747)" fill="#000000" />
  <path d="M 75.014662,0.846671 V 4e-6 h 13.123333 v 0.846667 z m 0,11.641666 v -0.846666 h 13.123333 v 0.846666 z" transform="translate(-3520.08,0.00) scale(80.0747,80.0747)" fill="#000000" />
  <path d="M 75.014662,0.846671 V 4e-6 h 13.123333 v 0.846667 z m 0,11.641666 v -0.846666 h 13.123333 v 0.846666 z" transform="translate(-2469.24,0.00) scale(80.0747,80.0747)" fill="#000000" />
  <path d="M 75.014662,0.846671 V 4e-6 h 13.123333 v 0.846667 z m 0,11.641666 v -0.846666 h 13.123333 v 0.846666 z" transform="translate(-1418.39,0.00) scale(80.0747,80.0747)" fill="#000000" />
  <path d="M 75.014662,0.846671 V 4e-6 h 13.123333 v 0.846667 z m 0,11.641666 v -0.846666 h 13.123333 v 0.846666 z" transform="translate(-367.54,0.00) scale(80.0747,80.0747)" fill="#000000" />
  <path d="m 87.714667,4e-6 h 2.8575 q 1.481666,0 2.54,1.058334 1.058333,1.058333 1.058333,2.54 v 5.291666 q 0,1.481667 -1.058333,2.54 -1.058334,1.058333 -2.54,1.058333 h -2.8575 v -0.846666 h 2.8575 q 1.132416,0 1.93675,-0.814917 0.814916,-0.804333 0.814916,-1.93675 V 3.598338 q 0,-1.132417 -0.814916,-1.93675 -0.804334,-0.814917 -1.93675,-0.814917 h -2.8575 z" transform="translate(-333.64,0.00) scale(80.0747,80.0747)" fill="#000000" />
  <path d="M 223.73,118.89 C 223.73,219.81 358.16,259.90 422.73,342.64 C 422.73,342.64 383.31,373.40 383.27,373.36 C 325.30,299.08 173.75,250.23 173.75,118.52 C 173.75,116.12 173.80,113.69 173.91,111.24 C 173.53,108.37 173.28,105.26 173.28,101.99 C 173.28,73.47 193.91,57.00 210.18,55.16 C 335.25,41.04 335.25,41.04 336.34,41.01 C 473.68,37.62 609.98,33.19 748.53,31.01 L 749.47,80.99 C 611.42,83.17 475.59,87.57 338.75,90.96 L 223.40,103.98 C 223.56,105.80 224.00,107.13 224.00,110.00 C 224.00,110.09 223.73,115.58 223.73,118.89  Z M 437.75,579.91 L 472.27,616.08 L 384.25,700.09 C 381.93,702.31 381.93,702.31 307.14,743.86 L 282.85,700.14 L 352.07,661.69 L 437.75,579.91  Z M 609.00,155.00 C 622.81,155.00 634.00,166.19 634.00,180.00 L 634.00,184.00 L 588.00,184.00 L 609.00,205.00 L 600.32,205.00 C 564.02,214.91 428.69,259.50 428.69,373.49 C 428.69,392.21 432.00,402.69 432.00,408.00 C 432.00,410.90 430.81,418.65 430.81,432.71 C 430.81,532.88 493.70,640.11 597.56,657.42 C 705.14,675.35 705.14,675.35 705.14,675.35 C 705.14,675.35 696.92,724.66 696.86,724.65 C 588.46,706.58 588.46,706.58 588.05,706.50 C 462.74,681.35 380.80,559.13 380.80,433.14 C 380.80,425.13 381.13,417.10 381.80,409.10 C 379.78,397.21 378.82,385.67 378.82,374.50 C 378.82,319.38 402.25,273.33 437.08,238.50 C 478.69,196.89 535.39,170.39 590.60,155.83 C 592.69,155.28 594.85,155.00 597.00,155.00 L 609.00,155.00 Z" transform="translate(2612.12,100.00) scale(0.8000,0.8000)" fill="#000000" />
  <path d="M 364.94,209.41 C 375.73,209.41 384.02,211.63 393.01,211.63 C 395.34,211.63 396.21,211.44 396.21,211.44 L 417.81,256.55 C 408.95,260.79 400.47,261.96 393.08,261.96 C 382.90,261.96 374.08,259.61 364.58,259.61 C 357.46,259.61 349.46,264.17 330.67,264.17 C 269.65,264.17 228.60,209.95 228.60,149.33 C 228.60,143.52 228.98,137.69 229.75,131.90 C 229.28,128.02 229.05,124.20 229.05,120.48 C 229.05,63.07 278.38,52.14 311.75,44.74 C 321.26,42.63 330.03,40.63 337.07,38.29 C 339.54,37.47 342.11,37.04 344.69,37.01 L 835.45,31.02 C 835.45,31.02 870.22,27.16 870.26,27.15 L 875.78,76.84 C 838.55,80.98 838.55,80.98 837.31,80.99 L 349.06,86.95 C 330.18,92.74 308.29,95.71 294.09,101.18 C 279.65,106.74 278.83,112.46 278.83,118.82 C 278.83,124.69 280.00,128.01 280.00,132.00 C 280.00,136.24 278.66,139.51 278.66,148.61 C 278.66,179.65 296.94,214.40 329.66,214.40 C 343.66,214.40 348.22,209.41 364.94,209.41  Z M 513.64,671.27 C 513.64,660.92 514.58,650.57 514.58,640.46 C 514.58,637.43 514.49,634.58 514.26,631.90 C 492.27,530.71 516.64,355.14 445.06,283.56 C 430.95,269.45 413.00,258.99 388.04,253.67 C 301.00,280.26 274.72,404.27 254.30,503.81 C 252.84,510.90 251.42,517.85 250.00,524.62 L 250.00,700.00 L 200.00,700.00 L 200.00,522.00 C 200.00,520.24 218.12,416.56 242.42,351.26 C 260.23,303.38 297.13,225.23 380.76,203.79 C 382.80,203.27 384.90,203.00 387.00,203.00 C 388.04,203.00 439.55,207.34 480.41,248.20 C 531.19,298.98 544.26,380.02 549.90,465.20 C 568.85,382.83 601.66,302.01 665.61,240.04 C 670.45,235.35 676.72,233.00 683.00,233.00 C 687.16,233.00 691.32,234.04 695.06,236.10 C 871.49,333.31 813.99,604.01 869.53,719.15 L 824.48,740.87 C 764.89,617.31 815.14,380.20 686.95,289.90 C 596.68,389.98 583.82,537.97 569.90,698.18 C 568.78,711.06 558.00,721.00 545.00,721.00 C 537.22,721.00 520.34,715.31 516.67,699.76 C 514.28,689.59 513.64,680.02 513.64,671.27 Z" transform="translate(3662.97,100.00) scale(0.8000,0.8000)" fill="#000000" />
  <path d="M 479.09,590.36 C 479.09,643.24 509.54,709.81 571.22,709.00 C 722.67,707.01 722.67,707.01 722.67,707.01 L 723.33,756.99 L 571.00,759.00 C 558.22,759.00 515.83,756.03 479.27,719.47 C 446.14,686.35 428.97,638.48 428.97,591.43 C 428.97,580.21 429.95,569.05 431.91,558.13 C 431.49,546.92 431.27,535.70 431.27,524.49 C 431.27,466.24 437.23,408.06 452.00,350.77 L 452.00,318.00 L 502.00,318.00 L 502.00,354.00 C 502.00,363.96 481.26,419.14 481.26,524.49 C 481.26,543.08 482.00,559.64 482.00,560.00 C 482.00,565.45 479.09,572.95 479.09,590.36  Z M 532.63,332.49 C 492.65,332.49 447.35,336.76 403.87,336.76 C 342.51,336.76 239.46,330.35 216.68,233.77 C 216.23,231.87 216.00,229.94 216.00,228.00 C 216.00,216.26 232.94,184.74 256.56,161.12 C 327.23,90.44 448.48,81.81 553.35,74.35 C 619.90,69.61 636.16,67.00 637.00,67.00 L 671.00,67.00 L 671.00,117.00 L 638.61,117.00 C 566.33,126.18 469.10,125.46 390.99,145.81 C 317.70,164.89 284.37,196.70 267.56,230.15 C 281.60,272.29 326.30,286.67 403.85,286.67 C 448.30,286.67 494.32,282.36 532.40,282.36 C 569.80,282.36 563.43,285.31 593.01,285.31 C 608.00,285.31 623.08,284.79 637.66,284.79 C 661.03,284.79 685.80,286.09 712.32,293.00 L 733.00,293.00 C 734.57,293.00 734.57,293.00 784.12,299.20 C 784.12,299.20 777.92,348.81 777.88,348.80 C 731.43,343.00 731.43,343.00 731.43,343.00 L 709.00,343.00 C 698.30,343.00 690.13,334.81 636.65,334.81 C 636.55,334.81 593.51,335.30 593.07,335.30 C 557.87,335.30 569.73,332.49 532.63,332.49 Z" transform="translate(4713.81,100.00) scale(0.8000,0.8000)" fill="#000000" />
  <path d="M 427.60,902.87 C 389.78,902.87 353.14,925.73 345.61,968.37 C 345.61,968.37 296.38,959.68 296.39,959.63 C 307.82,894.86 363.43,852.88 427.55,852.88 C 429.20,852.88 430.85,852.91 432.51,852.97 C 434.36,852.84 436.19,852.78 437.99,852.78 C 480.36,852.78 501.45,883.93 516.73,906.51 C 531.67,928.57 539.40,938.05 553.12,938.05 C 564.33,938.05 570.54,933.00 579.00,933.00 C 582.08,933.00 583.38,933.56 587.73,933.56 C 603.39,933.56 618.75,925.01 637.89,909.68 L 684.62,859.05 L 721.38,892.95 C 672.14,946.30 672.14,946.30 670.72,947.44 C 649.72,964.45 622.72,983.58 588.06,983.58 C 586.01,983.58 583.93,983.51 581.83,983.38 C 571.83,986.40 562.14,987.94 552.89,987.94 C 511.48,987.94 490.96,957.64 475.30,934.51 C 458.85,910.21 451.66,902.71 439.15,902.71 C 436.30,902.71 435.16,903.00 433.00,903.00 C 432.95,903.00 429.39,902.87 427.60,902.87  Z M 463.00,119.00 C 450.73,119.00 395.37,101.32 395.37,62.11 C 395.37,52.70 398.92,44.22 403.57,38.02 L 401.79,32.06 L 413.64,28.51 C 420.12,24.04 428.56,21.00 435.00,21.00 C 435.85,21.00 436.71,21.05 437.56,21.14 C 438.47,20.87 439.92,20.51 442.59,20.51 C 451.27,20.51 456.09,23.30 458.35,24.77 C 468.23,25.64 476.86,28.46 484.18,35.78 C 491.41,43.00 494.18,52.76 494.18,61.57 C 494.18,62.64 494.14,63.69 494.06,64.73 C 494.16,66.89 494.27,69.36 494.27,72.08 C 494.27,96.97 482.63,119.00 463.00,119.00  Z M 519.20,142.62 C 563.42,142.62 590.00,165.34 590.00,186.00 L 590.00,194.00 L 541.73,194.00 C 542.00,195.38 542.27,196.76 542.95,197.74 C 540.81,196.28 532.41,192.66 518.53,192.66 C 517.38,192.66 516.28,192.69 515.24,192.74 C 463.42,206.95 389.46,253.45 389.46,318.95 C 389.46,354.12 424.15,384.23 455.23,411.20 C 494.33,445.13 540.22,484.96 540.22,550.82 C 540.22,566.94 536.74,607.11 505.05,638.79 C 474.37,669.47 423.97,688.31 335.16,688.31 C 319.56,688.31 306.63,688.20 257.34,684.94 C 257.34,684.94 260.63,635.06 260.66,635.06 C 291.88,637.12 312.69,638.24 335.52,638.24 C 401.15,638.24 490.24,628.10 490.24,550.46 C 490.24,509.06 462.15,483.41 422.49,449.00 C 387.42,418.56 349.44,385.60 340.39,334.38 C 340.36,334.23 339.47,328.38 339.47,318.99 C 339.47,229.47 426.73,164.12 504.67,143.81 C 506.02,143.46 510.20,142.62 519.20,142.62 Z" transform="translate(5764.66,100.00) scale(0.8000,0.8000)" fill="#000000" />
</svg>
