<?xml version="1.0" encoding="UTF-8" standalone="no"?>
<!--
Representation of "lipu "pali e pipi waso"" in sitelen ilo pona
Generated by generate_sitelen_kalama_pona.py

Description:
  Representation of "lipu "pali e pipi waso"" in sitelen ilo pona.
  Sources: lipu: https://commons.wikimedia.org/wiki/File:Sitelen_seli_kiwen_-_lipu.svg; e: https://commons.wikimedia.org/wiki/File:Sitelen_seli_kiwen_-_e.svg; pipi: https://commons.wikimedia.org/wiki/File:Sitelen_seli_kiwen_-_pipi.svg

Categories:
  [[Category:Sitelen kalama pona]]
  [[Category:Toki Pona text containing lipu "pali e pipi waso"]]

Sources:
  lipu: https://commons.wikimedia.org/wiki/File:Sitelen_seli_kiwen_-_lipu.svg
  e: https://commons.wikimedia.org/wiki/File:Sitelen_seli_kiwen_-_e.svg
  pipi: https://commons.wikimedia.org/wiki/File:Sitelen_seli_kiwen_-_pipi.svg
-->
<svg version="1.1" width="2747" height="1000"
     viewBox="0 0 2747 1000"
     xmlns="http://www.w3.org/2000/svg">
  <path d="M461 87Q346 87 316.5 82.0Q287 77 262 77Q248 77 234.0 77.0Q220 77 209.5 76.5Q199 76 191.0 75.5Q183 75 178.5 75.0Q174 75 174 75Q159 75 152.0 78.5Q145 82 134 93L118 111L126 135Q135 157 137.0 215.0Q139 273 139.5 322.0Q140 371 143 374Q145 376 145 402Q145 402 144.5 435.0Q144 468 143.0 516.0Q142 564 141 596L140 697L166 723L252 720Q307 718 349 718Q349 718 353.0 718.0Q357 718 364.5 718.5Q372 719 383.0 719.0Q394 719 411.5 719.0Q429 719 449.5 719.5Q470 720 499.0 720.0Q528 720 560 720Q569 720 581.0 720.0Q593 720 605.0 719.5Q617 719 627.5 718.5Q638 718 644.5 718.0Q651 718 651 718Q676 718 691.5 720.0Q707 722 713.0 724.5Q719 727 721.5 727.0Q724 727 731.5 725.0Q739 723 742 723Q750 723 757.0 704.0Q764 685 764 669Q764 663 762.0 656.5Q760 650 760 645Q760 640 762.5 625.5Q765 611 765 587Q765 572 763.5 546.0Q762 520 760.0 493.5Q758 467 756.0 443.0Q754 419 752.5 403.0Q751 387 751 387Q751 382 752.0 375.0Q753 368 753 361Q753 349 752 340Q752 338 751.5 333.0Q751 328 751 325Q751 289 759.0 233.0Q767 177 775 153Q785 127 779 121Q776 117 777.5 110.5Q779 104 774 101Q766 93 651.0 89.5Q536 86 490 86ZM687 311Q687 330 689.0 364.5Q691 399 694.0 434.0Q697 469 699.5 501.5Q702 534 704.0 555.5Q706 577 706 577Q706 588 701.5 601.5Q697 615 694 631L690 653L650 654Q597 655 375 655Q230 655 224 654Q212 653 208 642Q202 621 202 458Q202 429 202.5 401.5Q203 374 203.5 355.5Q204 337 204.5 323.5Q205 310 205.0 302.5Q205 295 205 295Q205 281 199.5 252.0Q194 223 194 179Q194 167 195.0 162.5Q196 158 202.5 153.5Q209 149 221.0 148.5Q233 148 257 148Q292 148 292 151Q292 153 342 153Q359 153 375.5 153.0Q392 153 404.0 152.5Q416 152 427.0 151.5Q438 151 445.5 150.5Q453 150 458.5 149.5Q464 149 466.5 149.0Q469 149 469 149Q488 149 528.5 154.5Q569 160 593 160Q600 160 606.5 159.5Q613 159 620 159Q647 159 676.0 163.5Q705 168 705 172Q705 174 696.0 225.5Q687 277 687 311Z" transform="translate(0.00,958.33) scale(0.9583,-0.9583)" fill="#000000" />
  <path d="M156 75Q144 75 126.0 90.0Q108 105 108 115Q108 118 109.0 127.5Q110 137 114.5 149.5Q119 162 124 164Q131 166 151.5 186.0Q172 206 180 210Q192 216 207.0 231.5Q222 247 222 252Q222 260 253.5 283.0Q285 306 292 316Q298 327 314.5 339.0Q331 351 334 356Q336 363 359.5 386.0Q383 409 388 409Q392 409 392 418Q392 423 370.5 439.5Q349 456 342 456Q340 456 297.0 498.0Q254 540 246 543Q238 546 212.5 570.0Q187 594 170 602Q169 602 157.5 609.5Q146 617 133.0 629.5Q120 642 120 652Q120 667 124.0 671.0Q128 675 142 679Q166 685 168 685Q170 685 186.5 669.0Q203 653 208 653Q211 653 224.0 641.0Q237 629 257.0 610.5Q277 592 292 580Q303 573 310.5 566.5Q318 560 322.0 556.0Q326 552 328.5 549.5Q331 547 332.5 546.0Q334 545 336 545Q340 545 378.5 510.0Q417 475 426 472Q434 470 434 466Q434 463 452.5 453.5Q471 444 474 433Q475 427 475.5 422.5Q476 418 477.0 416.0Q478 414 478.0 412.5Q478 411 478.0 410.5Q478 410 478 410Q478 402 467.5 384.5Q457 367 452 367Q448 367 448 361Q448 357 431.0 344.5Q414 332 414 329Q414 324 410 327Q410 327 409.5 327.5Q409 328 408 328Q405 328 298 231Q229 168 204.5 142.0Q180 116 180 98Q180 90 172.0 82.5Q164 75 156 75ZM356 681Q356 693 366.0 704.0Q376 715 392 715Q412 715 449.0 686.0Q486 657 518.0 625.5Q550 594 554 592Q564 588 590.0 566.5Q616 545 637.5 526.5Q659 508 662 508Q664 508 672.5 495.5Q681 483 692 480Q700 477 715.0 465.5Q730 454 752 443Q792 423 792 399Q792 396 791.5 389.5Q791 383 790.5 380.0Q790 377 790 375Q793 373 789.5 367.5Q786 362 779.0 357.0Q772 352 766 351Q752 348 752 344Q752 342 739.0 335.5Q726 329 711.5 320.5Q697 312 694 306Q689 298 674.0 288.0Q659 278 656 275Q647 265 619.5 247.5Q592 230 562.5 207.0Q533 184 514 157Q508 147 502 147Q494 147 494.0 140.0Q494 133 490 133Q486 133 486 126Q486 122 482.0 119.0Q478 116 469.5 108.5Q461 101 454 89Q441 69 428 69Q417 69 400.5 87.5Q384 106 384 116Q384 130 398.5 143.5Q413 157 431.5 168.5Q450 180 454 186Q461 197 500.5 237.5Q540 278 544 278Q546 278 562.5 290.0Q579 302 582 302Q585 302 592.0 313.5Q599 325 604 325Q612 325 612 330Q612 334 618 334Q623 334 658 367L692 400L674 418Q660 431 639.5 443.0Q619 455 614 462Q610 468 600.0 475.0Q590 482 582.0 487.5Q574 493 574 497Q574 502 559.5 513.5Q545 525 518.0 544.0Q491 563 474 576Q443 602 408 627Q406 628 402 631Q383 645 375.5 651.5Q368 658 362.0 666.0Q356 674 356 681Z" transform="translate(942.50,958.33) scale(0.9583,-0.9583)" fill="#000000" />
  <path d="M660 583Q633 583 605.5 605.0Q578 627 578 646Q578 658 585.5 673.5Q593 689 602 696Q614 705 650 705Q674 705 686 700Q696 694 704.0 670.0Q712 646 712 624Q712 583 660 583ZM366 377Q391 377 398.5 382.5Q406 388 406 405V425V463L392 466Q388 467 382 467Q374 467 340.5 462.0Q307 457 284 457Q267 457 255.5 466.0Q244 475 244 487Q244 535 268 535Q270 535 281.5 532.5Q293 530 310 530Q331 530 356.5 533.0Q382 536 397.5 539.0Q413 542 414 543Q415 544 416.0 576.0Q417 608 418.0 643.5Q419 679 420 685Q423 694 436.5 703.5Q450 713 460 713Q465 713 470.0 712.0Q475 711 482.5 703.0Q490 695 490 681Q490 674 485.0 626.0Q480 578 480 559Q480 546 486.0 541.5Q492 537 512 537Q520 537 539.0 538.0Q558 539 568 539Q581 539 586.5 538.5Q592 538 599.0 535.0Q606 532 608.0 524.5Q610 517 610 504Q610 493 606 489Q597 480 573.5 474.0Q550 468 522 468Q518 468 509.0 468.5Q500 469 494 469Q478 469 474.0 465.0Q470 461 470 441Q470 428 472 406L474 385L534 388Q590 391 618 391H622Q633 391 640.5 390.0Q648 389 658.0 386.5Q668 384 673.0 376.5Q678 369 680 357Q680 346 677.5 340.5Q675 335 664 328Q652 319 637.5 317.0Q623 315 558 314L468 313L464 301Q462 291 462 273Q462 270 462.0 265.0Q462 260 462 258L464 229L506 230Q535 231 572 231Q632 231 632 204Q632 183 606 172Q584 163 482 161Q471 161 471 157Q471 156 472 155Q476 151 476 102Q476 65 474.0 63.0Q472 61 470 48Q468 37 440 37Q416 37 409.0 47.5Q402 58 402 78Q402 92 405.0 115.0Q408 138 408 146Q408 159 403.5 164.0Q399 169 390 169Q388 169 369.0 167.0Q350 165 326 165Q287 165 272.5 169.5Q258 174 258 185Q258 194 254 194Q252 194 254.0 200.5Q256 207 260.0 214.5Q264 222 266 224Q267 225 290.5 228.0Q314 231 344.0 234.0Q374 237 388 237Q406 237 406 264Q406 310 378 310Q376 310 373.0 309.0Q370 308 366.5 306.5Q363 305 352.0 303.0Q341 301 324 300Q323 300 278.5 297.0Q234 294 232 294Q221 294 212.5 297.5Q204 301 200.5 306.0Q197 311 194.5 316.5Q192 322 192.0 325.0Q192 328 192 329Q192 342 206.0 355.5Q220 369 238 369Q241 369 249.0 367.0Q257 365 268 365Q302 365 332.0 371.0Q362 377 366 377ZM256 605Q237 605 223.0 610.0Q209 615 202.5 621.0Q196 627 192.0 634.5Q188 642 188.0 645.5Q188 649 188 651Q188 656 192.5 660.5Q197 665 200 678Q200 681 203.5 690.5Q207 700 218.5 711.5Q230 723 246 723Q261 723 286 708Q305 697 309.5 690.5Q314 684 314 664Q314 655 312.0 647.0Q310 639 305.0 628.5Q300 618 287.5 611.5Q275 605 256 605Z" transform="translate(1885.00,958.33) scale(0.9583,-0.9583)" fill="#000000" />
</svg>
