<?xml version="1.0" encoding="UTF-8" standalone="no"?>
<!--
Representation of "telo pimeja pi pali seli" in sitelen ilo pona
Generated by generate_sitelen_kalama_pona.py

Description:
  Representation of "telo pimeja pi pali seli" in sitelen ilo pona.
  Sources: telo: https://commons.wikimedia.org/wiki/File:Sitelen_seli_kiwen_-_telo.svg; pimeja: https://commons.wikimedia.org/wiki/File:Sitelen_seli_kiwen_-_pimeja.svg; pi: https://commons.wikimedia.org/wiki/File:Sitelen_seli_kiwen_-_pi.svg; pali: https://commons.wikimedia.org/wiki/File:Sitelen_seli_kiwen_-_pali.svg; seli: https://commons.wikimedia.org/wiki/File:Sitelen_seli_kiwen_-_seli.svg

Categories:
  [[Category:Sitelen kalama pona]]
  [[Category:Toki Pona text containing telo pimeja pi pali seli]]

Sources:
  telo: https://commons.wikimedia.org/wiki/File:Sitelen_seli_kiwen_-_telo.svg
  pimeja: https://commons.wikimedia.org/wiki/File:Sitelen_seli_kiwen_-_pimeja.svg
  pi: https://commons.wikimedia.org/wiki/File:Sitelen_seli_kiwen_-_pi.svg
  pali: https://commons.wikimedia.org/wiki/File:Sitelen_seli_kiwen_-_pali.svg
  seli: https://commons.wikimedia.org/wiki/File:Sitelen_seli_kiwen_-_seli.svg
-->
<svg version="1.1" width="4632" height="1000"
     viewBox="0 0 4632 1000"
     xmlns="http://www.w3.org/2000/svg">
  <path d="M554 195Q544 195 534.5 194.0Q525 193 521.5 192.5Q518 192 513 191Q506 189 506 193Q506 198 496 198Q488 198 475.5 205.0Q463 212 450 215Q436 218 415.0 227.5Q394 237 394 241Q394 250 354.0 256.5Q314 263 302 263Q288 263 254.0 245.5Q220 228 220 221Q220 217 214 217Q211 217 202.0 210.0Q193 203 178 203Q156 203 152 214Q152 217 154 217Q156 218 154.0 219.0Q152 220 149.0 226.0Q146 232 146 238Q146 249 171.0 272.0Q196 295 224 308Q237 315 246.0 318.0Q255 321 275.0 324.0Q295 327 324 327Q341 327 347.5 325.5Q354 324 364.0 319.5Q374 315 392 311Q411 306 426.0 297.5Q441 289 449.5 282.0Q458 275 487.5 270.0Q517 265 566 265Q598 265 622.0 274.5Q646 284 655.0 292.0Q664 300 664 302Q667 311 670.5 311.0Q674 311 693.0 329.5Q712 348 732 348Q745 348 753.0 341.5Q761 335 762.5 330.5Q764 326 764 323Q764 302 740.5 267.5Q717 233 698 233Q689 233 685.5 232.0Q682 231 681.0 229.5Q680 228 674.5 224.0Q669 220 658 215Q640 206 632 197Q622 187 604 191Q579 195 554 195ZM170 424Q163 424 149.5 441.0Q136 458 136 473Q136 486 151.5 508.0Q167 530 178 534Q193 540 204 549Q221 563 254.5 572.5Q288 582 304 582Q326 582 373.5 560.0Q421 538 430 528Q436 522 444 522Q446 522 477.5 506.0Q509 490 536 490Q614 490 638 520Q644 528 657.0 534.0Q670 540 680 540Q690 540 690 534Q690 529 704.0 522.5Q718 516 718 512Q717 497 710.0 489.5Q703 482 696.5 480.0Q690 478 690 475Q690 470 682 470Q677 470 672.0 463.0Q667 456 658 454Q648 452 648.0 447.0Q648 442 642 442Q637 442 616.5 432.0Q596 422 557.5 422.0Q519 422 504.0 426.5Q489 431 482 431Q470 431 424.5 457.5Q379 484 374 484Q368 484 342.5 498.0Q317 512 302 512Q270 512 246.0 498.0Q222 484 211.0 468.0Q200 452 189.0 438.0Q178 424 170 424Z" transform="translate(0.00,958.33) scale(0.9583,-0.9583)" fill="#000000" />
  <path d="M400 629Q400 631 416.0 652.5Q432 674 457.0 696.0Q482 718 500 718Q510 718 532 708Q546 701 551.5 695.5Q557 690 562 677Q567 666 571.5 642.5Q576 619 590 588L616 524Q619 520 663.5 435.0Q708 350 718 339Q724 331 724 321Q724 314 731.0 306.0Q738 298 738 296Q738 290 747.5 270.0Q757 250 760 248Q766 245 766 237Q766 232 783.0 209.0Q800 186 806 171Q810 157 825.0 135.0Q840 113 840 101Q840 100 839.5 97.5Q839 95 836.5 89.5Q834 84 830.5 80.0Q827 76 818.5 72.5Q810 69 800 69Q780 69 752.5 71.5Q725 74 720 77Q717 80 660.0 84.0Q603 88 558 88Q549 88 498.5 87.0Q448 86 386.5 83.0Q325 80 318 76Q308 71 178 71Q98 71 88 74Q78 77 69.0 92.0Q60 107 60 120Q60 130 81.5 155.0Q103 180 129.5 214.0Q156 248 166 277Q170 291 185.0 308.0Q200 325 202 335Q205 348 208 348Q211 348 237.5 387.5Q264 427 264 431Q264 434 280.0 449.0Q296 464 296.0 468.0Q296 472 312.0 488.0Q328 504 328 507Q328 514 341.0 530.5Q354 547 354 552Q354 556 368.0 571.0Q382 586 382.0 592.0Q382 598 391.0 612.0Q400 626 400 629ZM348 422Q348 406 379.5 361.5Q411 317 420 317Q430 317 446 340Q454 349 477.0 373.0Q500 397 518.5 417.0Q537 437 538 442Q541 449 552.0 455.0Q563 461 574 461Q582 461 582 464Q582 466 572.5 484.0Q563 502 552.0 522.5Q541 543 538 550Q536 558 530.5 564.5Q525 571 524.5 579.0Q524 587 516.0 601.0Q508 615 508 623Q508 627 506.0 632.0Q504 637 502 637Q497 637 481.5 622.0Q466 607 466 602Q466 594 438.0 559.0Q410 524 410 524Q410 523 396.0 503.0Q382 483 382 477Q382 472 365.0 450.0Q348 428 348 422ZM612 403Q598 403 557.5 364.0Q517 325 514 325Q508 325 508 319Q508 313 484 283L460 254L470 244Q476 238 496.0 202.5Q516 167 532 161Q549 154 684 154Q715 154 722.5 155.0Q730 156 730 161Q730 174 703.0 224.0Q676 274 672 285Q667 302 642.0 352.5Q617 403 612 403ZM342 310Q334 319 324.0 330.5Q314 342 308.5 347.5Q303 353 300 353Q290 352 273.0 321.5Q256 291 256 291Q253 290 232.0 258.5Q211 227 208 227Q204 227 204 215Q204 207 193.0 195.5Q182 184 178 163L174 149L226 150Q273 152 286 154Q294 155 306.0 170.0Q318 185 318.0 193.0Q318 201 326.0 203.5Q334 206 336 213Q338 218 354.0 233.5Q370 249 370 262Q370 284 342 310ZM438 180Q436 181 434.0 186.0Q432 191 429.0 194.5Q426 198 422 198Q417 197 396.5 178.0Q376 159 376.0 155.0Q376 151 422 151H434L456 152L448 164Q442 176 438 180Z" transform="translate(942.50,958.33) scale(0.9583,-0.9583)" fill="#000000" />
  <path d="M178 600Q178 613 172.0 629.5Q166 646 166 651Q166 660 178 675Q187 686 191.5 688.0Q196 690 206 688Q221 685 228.5 675.5Q236 666 237.0 657.5Q238 649 238 634V602Q238 561 244.0 524.5Q250 488 250 466Q250 451 248.0 418.5Q246 386 246 369Q246 369 246.0 367.0Q246 365 246.5 361.5Q247 358 247.5 353.0Q248 348 248.0 339.5Q248 331 248.5 321.0Q249 311 249.5 296.5Q250 282 250 266Q250 179 252 177Q260 168 392 168Q392 168 438.0 168.0Q484 168 532.0 168.5Q580 169 584 169Q698 169 704 167Q710 164 716 164Q722 163 728.0 144.5Q734 126 734 111Q734 109 733.0 103.5Q732 98 727.5 90.5Q723 83 716 83Q714 83 683.5 92.5Q653 102 624 102Q612 102 594.0 100.0Q576 98 562 98Q562 98 558.5 98.5Q555 99 548.0 99.5Q541 100 532.0 100.5Q523 101 510.5 101.5Q498 102 486 102Q485 102 480.5 102.0Q476 102 469.0 101.5Q462 101 454.5 100.5Q447 100 439.5 100.0Q432 100 428 100Q344 100 230 92L190 90L184 104Q180 114 180 131Q180 157 185.0 176.5Q190 196 190 218Q190 218 190.0 225.0Q190 232 190.0 242.5Q190 253 189.5 264.5Q189 276 188.5 287.0Q188 298 188 304Q188 326 190.0 374.0Q192 422 192 441Q192 517 178 540Q176 543 177.0 544.0Q178 545 180.0 545.5Q182 546 182.5 549.5Q183 553 180 562Q176 571 176 578Q176 581 177.0 588.5Q178 596 178 600Z" transform="translate(1885.00,958.33) scale(0.9583,-0.9583)" fill="#000000" />
  <path d="M390 744Q397 744 399.5 747.5Q402 751 404.0 754.5Q406 758 421.5 761.5Q437 765 466 765Q507 765 518 760Q525 757 566.0 748.5Q607 740 638 719Q668 700 672 690Q682 674 692.0 650.5Q702 627 702 622Q702 620 706.0 609.5Q710 599 714.0 578.5Q718 558 718 532Q718 499 692.5 464.0Q667 429 640 419Q627 413 627 410Q627 408 646.0 391.0Q665 374 665 367Q665 358 674 353Q683 348 692.5 329.5Q702 311 705 292Q708 279 715.0 194.0Q722 109 723 98Q727 82 722 65Q719 56 716.0 53.5Q713 51 702 52Q686 54 671 61Q664 65 661.0 68.0Q658 71 655.0 85.5Q652 100 651.0 118.5Q650 137 648 182Q647 254 642 271Q636 292 629.0 305.0Q622 318 618.0 321.5Q614 325 611.0 327.5Q608 330 608 333Q608 337 606.0 339.0Q604 341 594.5 346.0Q585 351 575 359L558 372L501 369Q463 367 451.0 364.5Q439 362 429 355Q413 343 392 329Q369 313 364 303Q362 296 357.5 289.0Q353 282 350.0 278.0Q347 274 347 272Q347 271 348 270Q352 266 344 259Q341 255 337.5 227.5Q334 200 331.5 175.5Q329 151 329 149Q329 146 333.0 128.5Q337 111 337 104Q337 79 305 79Q292 79 279.0 84.5Q266 90 266 97Q266 100 256.5 111.0Q247 122 247 132Q247 145 231.5 176.0Q216 207 202 220Q175 247 175 267Q175 280 180.0 284.5Q185 289 195 289Q216 289 224.5 284.5Q233 280 250 261Q270 239 275 239Q284 240 284 255Q284 279 314 337Q328 364 335.0 372.0Q342 380 363 391Q376 398 382.0 402.0Q388 406 390.0 410.0Q392 414 387.5 416.5Q383 419 372 421Q354 426 331.5 448.5Q309 471 306 489Q306 493 298.0 512.0Q290 531 283.5 555.5Q277 580 277 603Q277 622 286.0 650.0Q295 678 305 686Q312 692 312 700Q312 703 311.0 708.5Q310 714 310 717Q310 730 330.0 739.0Q350 748 367 748Q376 748 381.0 746.0Q386 744 390 744ZM646 587Q646 592 636.5 606.5Q627 621 627 631Q627 643 614 652Q606 658 596.5 665.5Q587 673 581 676Q564 685 504.0 696.0Q444 707 422 707Q404 707 388.5 695.0Q373 683 366.5 672.0Q360 661 360 659Q360 655 349.0 637.5Q338 620 338 608Q338 574 352.5 533.0Q367 492 382 490Q391 489 399.5 480.5Q408 472 420.0 464.5Q432 457 450 457Q485 457 546.0 466.5Q607 476 620 484Q636 493 646.5 515.0Q657 537 657 556Q657 567 651.5 574.0Q646 581 646 587Z" transform="translate(2827.50,958.33) scale(0.9583,-0.9583)" fill="#000000" />
  <path d="M431 26Q404 26 379.0 51.5Q354 77 354 100Q354 110 364.5 126.0Q375 142 385 147Q389 149 397.0 161.5Q405 174 416.5 183.5Q428 193 443 193Q449 193 461.5 189.5Q474 186 491.5 167.5Q509 149 509 119Q509 93 501.5 74.5Q494 56 484.5 47.0Q475 38 462.0 33.0Q449 28 442.5 27.0Q436 26 431 26ZM183 628Q183 662 214 662Q229 662 236.5 655.0Q244 648 253 625Q303 506 303 485Q303 479 314.5 454.5Q326 430 326 423Q326 413 332.0 392.5Q338 372 341 372Q345 372 345 364Q345 358 354.0 348.5Q363 339 369 339Q372 339 371 336Q370 333 369.0 330.5Q368 328 367.0 320.5Q366 313 366 305Q365 284 357.5 276.5Q350 269 330 269Q317 269 312.0 271.5Q307 274 299.0 285.0Q291 296 291 310Q291 320 288.5 334.0Q286 348 282.0 361.5Q278 375 274.0 386.5Q270 398 268 406L265 413Q265 416 258.0 433.0Q251 450 250 462Q250 473 243.5 486.5Q237 500 237 513Q237 531 233.0 531.0Q229 531 221.5 545.0Q214 559 214 565Q214 568 198.5 590.0Q183 612 183 628ZM489 314Q489 317 501.5 341.5Q514 366 514 371Q514 378 535.0 408.5Q556 439 561 452Q565 462 574.5 483.0Q584 504 591.0 520.5Q598 537 598 540Q598 545 603 545Q609 545 617.5 567.5Q626 590 627 607Q629 628 637 636Q643 642 650 654Q653 660 662.0 665.5Q671 671 678 674L686 676Q690 677 703.5 666.0Q717 655 717 652Q712 648 709 626Q707 608 695.0 590.5Q683 573 678 558Q673 538 659 518Q648 502 632.0 468.5Q616 435 604.0 409.0Q592 383 589 381Q576 372 576 334Q576 332 576.5 329.5Q577 327 577 326Q580 308 571 300Q555 286 523 286Q508 286 498.5 296.0Q489 306 489 314ZM400 698Q400 712 409.0 720.5Q418 729 427 730L436 732Q444 732 447 725Q451 716 457 708Q464 700 465.0 662.5Q466 625 469 621Q472 615 468 612Q452 602 452 463V431Q452 346 458 341Q463 338 463 331Q463 327 461.0 317.0Q459 307 450.0 293.5Q441 280 426 280Q409 280 398.5 288.5Q388 297 386.5 303.0Q385 309 385 312Q385 313 388.0 323.0Q391 333 391 353Q391 370 394.0 410.5Q397 451 397 466Q397 482 395.0 488.0Q393 494 393 506Q393 549 400.5 575.5Q408 602 408 613Q408 628 404.0 657.5Q400 687 400 698Z" transform="translate(3770.00,958.33) scale(0.9583,-0.9583)" fill="#000000" />
</svg>
