<?xml version="1.0" encoding="UTF-8" standalone="no"?>
<!--
Representation of "linja lili pi kiwen kon" in sitelen ilo pona
Generated by generate_sitelen_kalama_pona.py

Description:
  Representation of "linja lili pi kiwen kon" in sitelen ilo pona.
  Sources: linja-lili: https://commons.wikimedia.org/wiki/File:Sitelen_seli_kiwen_-_linja-lili.svg; pi: https://commons.wikimedia.org/wiki/File:Sitelen_seli_kiwen_-_pi.svg; kiwen: https://commons.wikimedia.org/wiki/File:Sitelen_seli_kiwen_-_kiwen.svg; kon: https://commons.wikimedia.org/wiki/File:Sitelen_seli_kiwen_-_kon.svg

Categories:
  [[Category:Sitelen kalama pona]]
  [[Category:Toki Pona text containing linja lili pi kiwen kon]]

Sources:
  linja-lili: https://commons.wikimedia.org/wiki/File:Sitelen_seli_kiwen_-_linja-lili.svg
  pi: https://commons.wikimedia.org/wiki/File:Sitelen_seli_kiwen_-_pi.svg
  kiwen: https://commons.wikimedia.org/wiki/File:Sitelen_seli_kiwen_-_kiwen.svg
  kon: https://commons.wikimedia.org/wiki/File:Sitelen_seli_kiwen_-_kon.svg
-->
<svg version="1.1" width="3690" height="1000"
     viewBox="0 0 3690 1000"
     xmlns="http://www.w3.org/2000/svg">
  <path d="M203 325Q203 320 233.5 306.5Q264 293 282 293Q299 293 336.5 317.0Q374 341 380 349Q384 355 391 355Q396 355 419.5 367.5Q443 380 447 385Q455 395 491.5 405.5Q528 416 564 416Q583 416 592 413Q596 412 613.5 408.0Q631 404 645.5 400.0Q660 396 662.0 393.0Q664 390 677.5 382.0Q691 374 691 369Q691 362 695 362Q698 362 732.0 329.5Q766 297 772 295Q779 292 779 286Q779 277 767.5 258.0Q756 239 741 239Q731 239 718.0 245.0Q705 251 705 256Q705 270 654 321Q627 348 597 356Q565 364 550 364Q532 364 520 355Q504 344 483.5 334.0Q463 324 452.5 318.5Q442 313 442 310Q442 308 427.5 300.5Q413 293 393.5 281.5Q374 270 364 261Q348 245 344 245Q342 245 337.0 240.5Q332 236 327.5 232.0Q323 228 321 229Q320 230 316 230Q311 230 293.0 227.5Q275 225 270 225Q231 225 176.0 266.0Q121 307 121 349Q121 364 123.5 371.5Q126 379 129.0 380.0Q132 381 139 381Q152 381 168.0 367.0Q184 353 193.5 340.0Q203 327 203 325ZM386 581Q386 586 367.5 607.0Q349 628 349.0 630.0Q349 632 340.0 636.0Q331 640 332 652Q332 666 340.0 675.5Q348 685 356 688L363 690Q373 690 407 648L424 625L441 637Q459 648 479 668L499 687L510 677Q522 667 525 667Q534 662 534 651Q534 640 520 626Q505 611 497 611Q493 611 483.5 598.0Q474 585 466.5 572.5Q459 560 459 559Q447 536 431 536Q424 536 405.0 555.0Q386 574 386 581Z" transform="translate(0.00,958.33) scale(0.9583,-0.9583)" fill="#000000" />
  <path d="M178 600Q178 613 172.0 629.5Q166 646 166 651Q166 660 178 675Q187 686 191.5 688.0Q196 690 206 688Q221 685 228.5 675.5Q236 666 237.0 657.5Q238 649 238 634V602Q238 561 244.0 524.5Q250 488 250 466Q250 451 248.0 418.5Q246 386 246 369Q246 369 246.0 367.0Q246 365 246.5 361.5Q247 358 247.5 353.0Q248 348 248.0 339.5Q248 331 248.5 321.0Q249 311 249.5 296.5Q250 282 250 266Q250 179 252 177Q260 168 392 168Q392 168 438.0 168.0Q484 168 532.0 168.5Q580 169 584 169Q698 169 704 167Q710 164 716 164Q722 163 728.0 144.5Q734 126 734 111Q734 109 733.0 103.5Q732 98 727.5 90.5Q723 83 716 83Q714 83 683.5 92.5Q653 102 624 102Q612 102 594.0 100.0Q576 98 562 98Q562 98 558.5 98.5Q555 99 548.0 99.5Q541 100 532.0 100.5Q523 101 510.5 101.5Q498 102 486 102Q485 102 480.5 102.0Q476 102 469.0 101.5Q462 101 454.5 100.5Q447 100 439.5 100.0Q432 100 428 100Q344 100 230 92L190 90L184 104Q180 114 180 131Q180 157 185.0 176.5Q190 196 190 218Q190 218 190.0 225.0Q190 232 190.0 242.5Q190 253 189.5 264.5Q189 276 188.5 287.0Q188 298 188 304Q188 326 190.0 374.0Q192 422 192 441Q192 517 178 540Q176 543 177.0 544.0Q178 545 180.0 545.5Q182 546 182.5 549.5Q183 553 180 562Q176 571 176 578Q176 581 177.0 588.5Q178 596 178 600Z" transform="translate(942.50,958.33) scale(0.9583,-0.9583)" fill="#000000" />
  <path d="M74 487Q74 498 123.0 543.0Q172 588 172 597Q172 603 184.0 623.0Q196 643 198 651Q200 659 207.0 664.0Q214 669 214 674Q214 681 220 681Q225 681 226.5 686.0Q228 691 227.5 697.0Q227 703 231.5 708.0Q236 713 246 713Q247 713 256.5 712.0Q266 711 272.0 711.0Q278 711 278 713Q278 716 312 716H340Q370 716 389.5 718.0Q409 720 416 720Q417 720 430.0 719.0Q443 718 465.0 716.0Q487 714 512.0 712.0Q537 710 565.5 709.0Q594 708 616 708Q622 708 637.5 708.5Q653 709 662 709Q706 709 706 683Q706 675 720.0 656.0Q734 637 734 633Q734 626 738 624Q740 623 748.5 605.5Q757 588 771.5 562.5Q786 537 800 521Q811 509 815.0 503.0Q819 497 822.5 486.0Q826 475 826 461Q826 445 821.5 434.0Q817 423 810 423Q806 423 793.0 405.5Q780 388 780 382Q780 377 776 377Q773 377 738.0 325.0Q703 273 700 273Q700 273 696.5 267.0Q693 261 684.0 248.0Q675 235 662.5 219.0Q650 203 629.5 178.5Q609 154 584 128Q576 119 562.0 91.5Q548 64 545.0 62.0Q542 60 542.0 55.0Q542 50 542.5 47.5Q543 45 540 44Q535 44 528.0 33.5Q521 23 510.5 13.0Q500 3 486 3Q473 3 460.5 5.5Q448 8 448 11Q448 14 434.0 20.0Q420 26 420 37Q420 46 409.5 68.5Q399 91 396 91Q394 91 388.0 100.0Q382 109 370.5 123.0Q359 137 346 146Q328 160 322 170Q320 177 293.0 204.0Q266 231 262 231Q259 231 246.0 247.0Q233 263 221 279L208 295Q208 297 190.0 323.0Q172 349 172 351Q172 355 137.0 390.5Q102 426 98 436Q97 440 90.5 446.5Q84 453 79.0 462.5Q74 472 74 487ZM700 381Q700 387 707.0 395.5Q714 404 714 408Q714 412 726.0 421.0Q738 430 738 438Q738 452 746 465L754 480L740 494Q724 509 724 517Q724 524 715.0 538.0Q706 552 704 558Q701 566 679.5 588.5Q658 611 658 614Q658 619 642 631Q630 641 614.5 643.5Q599 646 502 651Q431 655 374 655Q306 655 302 646Q299 643 296.5 642.0Q294 641 292.5 642.0Q291 643 289.5 642.5Q288 642 288 640Q288 637 283.0 635.5Q278 634 270.5 629.5Q263 625 258 616Q249 602 246 602Q244 602 226.0 577.0Q208 552 208 548Q208 542 204 540Q196 537 183.0 511.5Q170 486 170.0 469.0Q170 452 199.0 415.0Q228 378 232 369Q237 359 241.5 353.0Q246 347 249.0 345.0Q252 343 254.0 341.5Q256 340 256 338Q256 333 281.0 305.5Q306 278 310 278Q316 278 316 272Q316 267 333.0 248.0Q350 229 350 228Q350 227 385.0 192.0Q420 157 420 151Q420 143 428 137Q433 132 442.5 120.5Q452 109 459.0 102.0Q466 95 474 95Q480 95 483.5 97.5Q487 100 492.5 109.0Q498 118 505.5 130.0Q513 142 531.5 165.0Q550 188 576 214Q613 253 614 261Q616 269 622 269Q624 269 630.0 278.5Q636 288 647.0 304.5Q658 321 668 333Q677 343 681.0 350.5Q685 358 684.5 360.5Q684 363 685.0 365.0Q686 367 692 369Q700 373 700 381Z" transform="translate(1885.00,958.33) scale(0.9583,-0.9583)" fill="#000000" />
  <path d="M531 60Q522 60 505.0 73.5Q488 87 488 95Q488 101 497.0 114.5Q506 128 514 133Q538 151 605 218Q613 226 613.5 236.5Q614 247 620 250Q628 255 629.0 274.0Q630 293 631 295Q632 296 632 300Q632 316 611.0 348.5Q590 381 579 381Q574 381 563.0 391.5Q552 402 535.0 417.0Q518 432 504 440Q488 450 488 455Q488 459 481.5 470.5Q475 482 475 497Q475 513 479.0 531.5Q483 550 488.0 561.5Q493 573 497 573Q500 573 531.0 613.0Q562 653 564.0 653.0Q566 653 576.0 669.5Q586 686 588 686Q591 686 591.0 692.0Q591 698 609.0 708.0Q627 718 634 718Q642 718 654.0 710.0Q666 702 667 696Q668 687 668 677Q668 665 656 657Q641 647 623.5 629.0Q606 611 606 606Q606 602 573.0 565.0Q540 528 540 516Q540 512 543.5 505.5Q547 499 553.0 492.0Q559 485 566.5 477.0Q574 469 581.5 461.5Q589 454 597.0 447.0Q605 440 610.5 435.0Q616 430 620 427L624 424Q656 400 671.5 378.5Q687 357 691.5 339.5Q696 322 699 318Q701 314 701 297Q701 291 699.5 264.0Q698 237 698 235Q697 225 688.5 220.5Q680 216 680 211Q680 203 676 203Q671 203 669 195Q665 181 620.0 139.5Q575 98 575 95Q575 91 573 91Q570 91 566.5 81.5Q563 72 554 72Q544 72 539.0 66.0Q534 60 531 60ZM296 665Q296 678 330.0 702.5Q364 727 382 727Q385 727 388.5 720.5Q392 714 397 714Q406 714 406 698Q406 688 374.5 655.5Q343 623 343 618Q343 614 326.5 599.0Q310 584 310 580Q310 577 304.5 572.0Q299 567 293.5 557.0Q288 547 288 529Q288 518 299.0 500.0Q310 482 310.0 477.0Q310 472 326.5 463.0Q343 454 343 450Q343 445 376.0 411.0Q409 377 409 374L416 355Q424 336 424 302Q424 273 419.5 255.0Q415 237 409.5 227.0Q404 217 403 212Q402 202 388.0 186.0Q374 170 366 170Q357 170 357.0 161.0Q357 152 339.5 135.5Q322 119 300.0 102.5Q278 86 276 84Q267 75 243 78Q217 82 210 82Q199 82 199 97Q199 119 205.5 128.0Q212 137 221.5 138.5Q231 140 251.0 150.0Q271 160 290 180Q315 205 315 210Q315 214 325.5 223.0Q336 232 346.5 246.5Q357 261 357 278Q357 288 360.0 293.0Q363 298 363 301Q363 312 359.0 321.5Q355 331 348.5 343.0Q342 355 338 364Q331 384 299.5 401.0Q268 418 268 424Q268 427 257.0 439.0Q246 451 246 455Q246 463 244.5 466.5Q243 470 240.5 469.5Q238 469 236.5 470.5Q235 472 235.0 478.0Q235 484 231.0 484.0Q227 484 223.0 503.0Q219 522 219 536Q219 544 222.5 549.5Q226 555 226.0 562.0Q226 569 233.0 577.5Q240 586 242 596Q244 607 270.0 634.5Q296 662 296 665Z" transform="translate(2827.50,958.33) scale(0.9583,-0.9583)" fill="#000000" />
</svg>
