<?xml version="1.0" encoding="UTF-8" standalone="no"?>
<!--
Representation of "meli pona" in sitelen ilo pona
Generated by generate_sitelen_kalama_pona.py

Description:
  Representation of "meli pona" in sitelen ilo pona.
  Sources: meli-pona: https://commons.wikimedia.org/wiki/File:Sitelen_seli_kiwen_-_meli-pona.svg

Categories:
  [[Category:Sitelen kalama pona]]
  [[Category:Toki Pona text containing meli pona]]

Sources:
  meli-pona: https://commons.wikimedia.org/wiki/File:Sitelen_seli_kiwen_-_meli-pona.svg
-->
<svg version="1.1" width="862" height="1000"
     viewBox="0 0 862 1000"
     xmlns="http://www.w3.org/2000/svg">
  <path d="M460 424Q460 425 467.5 438.0Q475 451 485.0 464.5Q495 478 501 478Q512 478 528.5 459.5Q545 441 545 433Q545 425 538.5 414.0Q532 403 524 400Q512 397 512 389Q512 384 502.5 376.5Q493 369 493 365Q493 358 470.0 353.0Q447 348 419 348Q399 348 382.0 352.0Q365 356 355.0 361.5Q345 367 337.5 373.5Q330 380 327.5 383.5Q325 387 325 388Q304 430 304 438Q304 447 311.0 455.5Q318 464 328 464Q338 464 348.0 457.5Q358 451 361 442Q366 429 383.5 420.5Q401 412 414 412Q428 412 444.0 416.0Q460 420 460 424ZM624 541Q628 541 636.0 526.0Q644 511 651.0 486.0Q658 461 658 440Q658 428 654 428Q651 428 648.5 414.5Q646 401 643.5 384.5Q641 368 639 363Q630 345 624 332Q613 309 578.0 274.5Q543 240 526 236Q465 220 452 220Q448 220 442.0 221.5Q436 223 431 223Q424 223 413 221Q401 219 395 219Q379 219 360 224Q330 231 312.5 241.0Q295 251 271 275Q247 298 238.5 311.5Q230 325 219 359Q205 401 205 435Q205 468 217 494Q224 508 231.5 529.5Q239 551 244.5 562.5Q250 574 256 578Q271 590 273 592Q288 607 315.0 619.5Q342 632 359 632Q372 632 375.5 633.0Q379 634 386 639Q393 645 403.0 646.5Q413 648 441 648Q482 648 505.5 642.5Q529 637 553.0 621.0Q577 605 598.5 582.5Q620 560 620 550Q620 541 624 541ZM579 393Q579 400 584.0 411.5Q589 423 589 449Q589 472 585 479Q553 536 534.5 554.5Q516 573 483 583Q452 592 451 592Q451 592 448.0 591.5Q445 591 439.0 590.0Q433 589 428 588Q303 567 294 520Q290 504 284 498Q278 491 272.0 459.0Q266 427 266 407Q266 392 281.5 367.0Q297 342 299 333Q303 320 308 320Q312 320 321.5 312.0Q331 304 349.5 295.5Q368 287 394 287Q399 287 408.0 287.0Q417 287 439.0 288.5Q461 290 478.0 292.5Q495 295 510.5 300.5Q526 306 529 314Q531 318 538.0 322.0Q545 326 550.0 329.0Q555 332 553 336Q551 344 557 345Q562 347 570.5 365.5Q579 384 579 393ZM155 681Q158 681 182.5 702.0Q207 723 210 723Q212 723 228.5 730.5Q245 738 271.0 747.5Q297 757 320 761Q340 764 367 774Q397 784 445 784Q496 784 545.0 775.0Q594 766 606 753Q617 742 623.0 742.0Q629 742 629 738Q629 733 635 733Q644 733 699 685Q722 665 732.0 652.5Q742 640 753 618Q761 603 775.0 566.5Q789 530 789 513Q789 499 793.5 488.0Q798 477 800 442Q806 345 812 337Q813 336 813 333Q813 331 811.5 320.5Q810 310 808.0 288.0Q806 266 806 236Q806 213 810.0 175.5Q814 138 817 135Q819 132 819 128Q819 125 817.5 115.5Q816 106 816 99Q816 90 818 81Q820 73 820 67Q820 55 814.0 48.5Q808 42 803 40L797 39Q787 39 771.5 54.0Q756 69 756 78Q756 85 748.5 94.5Q741 104 741 126Q741 130 741.5 144.5Q742 159 742.5 185.0Q743 211 743 242Q743 242 743.0 250.0Q743 258 743.0 270.0Q743 282 742.5 295.0Q742 308 742.0 319.5Q742 331 742 337Q742 440 733 456Q732 459 731.0 461.5Q730 464 730.0 465.0Q730 466 730 466Q731 466 731 467Q731 468 729.0 473.5Q727 479 724.5 490.5Q722 502 722 516Q722 545 718.0 545.0Q714 545 714 550Q714 558 689.5 594.0Q665 630 654 638Q627 659 613 670Q592 687 545.0 704.5Q498 722 464 722Q422 722 365.5 703.0Q309 684 306 684Q273 679 238.0 656.5Q203 634 184.0 613.0Q165 592 165 584Q165 577 158.5 568.0Q152 559 152 550Q152 545 143.5 484.5Q135 424 135 403Q135 383 137.0 329.0Q139 275 139 244V221Q139 164 154 157Q162 152 157 150Q151 146 154 127Q155 123 155 116Q155 101 146.5 94.5Q138 88 119 88Q96 88 90 94Q80 104 80 384Q80 542 95 568Q104 582 104 589Q104 597 118.0 622.5Q132 648 140 656Q151 667 151.0 674.0Q151 681 155 681Z" transform="translate(0.00,958.33) scale(0.9583,-0.9583)" fill="#000000" />
</svg>
