<?xml version="1.0" encoding="UTF-8" standalone="no"?>
<!--
Representation of "mi ken moku e kiwen lukin. ni li pakala ala e mi." in sitelen ilo pona
Generated by generate_sitelen_kalama_pona.py

Description:
  Representation of "mi ken moku e kiwen lukin. ni li pakala ala e mi." in sitelen ilo pona.
  Sources: mi: https://commons.wikimedia.org/wiki/File:Sitelen_seli_kiwen_-_mi.svg; ken: https://commons.wikimedia.org/wiki/File:Sitelen_seli_kiwen_-_ken.svg; moku: https://commons.wikimedia.org/wiki/File:Sitelen_seli_kiwen_-_moku.svg; e: https://commons.wikimedia.org/wiki/File:Sitelen_seli_kiwen_-_e.svg; kiwen: https://commons.wikimedia.org/wiki/File:Sitelen_seli_kiwen_-_kiwen.svg; ni: https://commons.wikimedia.org/wiki/File:Sitelen_seli_kiwen_-_ni.svg; li: https://commons.wikimedia.org/wiki/File:Sitelen_seli_kiwen_-_li.svg; pakala: https://commons.wikimedia.org/wiki/File:Sitelen_seli_kiwen_-_pakala.svg; ala: https://commons.wikimedia.org/wiki/File:Sitelen_seli_kiwen_-_ala.svg; e: https://commons.wikimedia.org/wiki/File:Sitelen_seli_kiwen_-_e.svg

Categories:
  [[Category:Sitelen kalama pona]]
  [[Category:Toki Pona text containing mi ken moku e kiwen lukin. ni li pakala ala e mi.]]

Sources:
  mi: https://commons.wikimedia.org/wiki/File:Sitelen_seli_kiwen_-_mi.svg
  ken: https://commons.wikimedia.org/wiki/File:Sitelen_seli_kiwen_-_ken.svg
  moku: https://commons.wikimedia.org/wiki/File:Sitelen_seli_kiwen_-_moku.svg
  e: https://commons.wikimedia.org/wiki/File:Sitelen_seli_kiwen_-_e.svg
  kiwen: https://commons.wikimedia.org/wiki/File:Sitelen_seli_kiwen_-_kiwen.svg
  ni: https://commons.wikimedia.org/wiki/File:Sitelen_seli_kiwen_-_ni.svg
  li: https://commons.wikimedia.org/wiki/File:Sitelen_seli_kiwen_-_li.svg
  pakala: https://commons.wikimedia.org/wiki/File:Sitelen_seli_kiwen_-_pakala.svg
  ala: https://commons.wikimedia.org/wiki/File:Sitelen_seli_kiwen_-_ala.svg
  e: https://commons.wikimedia.org/wiki/File:Sitelen_seli_kiwen_-_e.svg
-->
<svg version="1.1" width="9345" height="1000"
     viewBox="0 0 9345 1000"
     xmlns="http://www.w3.org/2000/svg">
  <path d="M260 199Q260 199 258.0 206.0Q256 213 254.0 224.0Q252 235 249.5 248.0Q247 261 245.5 275.5Q244 290 244 301Q244 310 248.0 332.0Q252 354 252 365Q252 365 251.5 367.0Q251 369 250.0 373.5Q249 378 248.5 384.0Q248 390 247.0 399.0Q246 408 245.0 418.5Q244 429 244.0 443.0Q244 457 244 473Q244 478 245.0 496.5Q246 515 249.0 538.5Q252 562 256 565Q261 568 265.5 589.0Q270 610 274 613Q276 616 284.5 629.0Q293 642 304.0 655.5Q315 669 326 677Q338 684 358 702Q368 710 383.5 715.5Q399 721 400 726Q404 733 422 733Q436 733 446.5 737.5Q457 742 462 742Q474 742 494.5 735.0Q515 728 520 723Q524 717 540.5 711.0Q557 705 564 697Q574 686 580 686Q589 686 621.0 647.0Q653 608 656 593Q660 572 660 543Q660 482 644 474Q638 471 638 464Q638 450 598.0 408.5Q558 367 544 367Q540 367 511.5 353.5Q483 340 456 340Q420 340 394.0 343.5Q368 347 358.5 351.0Q349 355 341.5 358.5Q334 362 328 362Q322 362 320.0 353.0Q318 344 318 315Q318 275 320.0 244.5Q322 214 324.0 198.0Q326 182 326 177Q326 175 323.0 161.5Q320 148 322 138Q322 133 322 120Q322 67 310 52Q302 42 280 42Q240 42 240 74Q240 81 244.0 88.5Q248 96 248 108Q249 119 253.5 130.5Q258 142 258 144Q258 145 257.0 146.5Q256 148 256 151Q256 156 258.0 174.5Q260 193 260 199ZM564 615Q523 654 503.5 664.5Q484 675 448 675Q430 675 412.5 667.5Q395 660 386.0 652.5Q377 645 376 642Q372 635 353.0 619.5Q334 604 334 598Q334 593 322.0 575.5Q310 558 308 545Q308 544 305.5 540.0Q303 536 302.5 534.0Q302 532 304 529Q307 527 308.0 515.0Q309 503 314 496Q320 488 320 479Q320 470 326 470Q332 470 334.0 465.0Q336 460 335.5 453.0Q335 446 340.0 438.0Q345 430 356 425Q382 414 393.0 411.0Q404 408 426 408Q474 408 484 416Q491 423 512 429Q542 438 569.0 470.5Q596 503 598 531Q598 536 598.0 543.0Q598 550 598 553Q598 572 592.0 582.5Q586 593 564 615Z" transform="translate(0.00,958.33) scale(0.9583,-0.9583)" fill="#000000" />
  <path d="M650 200Q650 216 638.5 234.0Q627 252 615.5 264.0Q604 276 604 278Q604 282 584.0 296.5Q564 311 558 311Q554 311 541.5 322.0Q529 333 504.0 344.0Q479 355 444 355Q427 355 389.0 351.5Q351 348 316 346Q250 343 250 327Q250 326 253.0 309.0Q256 292 256 280Q256 279 251.0 240.5Q246 202 246 154Q246 137 248.5 128.5Q251 120 253.5 119.5Q256 119 258.0 115.5Q260 112 260 103Q260 102 260.0 98.0Q260 94 258.0 87.0Q256 80 252.5 74.0Q249 68 242.0 63.5Q235 59 226 59Q216 59 202 65L184 73L186 151Q190 254 190 286Q190 299 187.0 312.5Q184 326 184 367Q184 373 184.0 381.5Q184 390 184.0 397.5Q184 405 184.0 412.0Q184 419 184.0 423.0Q184 427 184 427Q184 450 182 459Q176 475 173.5 560.5Q171 646 164 656Q160 661 160 670Q160 688 178 701Q188 708 191.5 707.5Q195 707 212 698Q238 684 238 664Q238 658 235.0 651.5Q232 645 232 644L233 642Q233 639 233.5 634.0Q234 629 235.0 621.5Q236 614 236.0 601.0Q236 588 236 572Q236 556 234.0 550.5Q232 545 232 526Q232 497 236.0 461.5Q240 426 244 421Q247 417 252 417Q254 417 276.5 420.0Q299 423 326 424Q354 425 368.0 428.0Q382 431 398.5 431.0Q415 431 430.0 433.5Q445 436 455.5 439.0Q466 442 475.5 445.5Q485 449 491.0 452.5Q497 456 501.5 459.0Q506 462 508.0 464.0Q510 466 510 466Q521 466 554.5 496.5Q588 527 588 536Q588 541 592 541Q597 541 600.5 546.5Q604 552 608.0 560.5Q612 569 616 573Q630 593 630 623Q630 642 626 675L624 699L642 706Q659 713 662 713Q668 713 682 702L696 691V629Q694 568 690 565Q687 562 686 557Q682 538 662.0 511.0Q642 484 632 484Q629 484 623.5 472.5Q618 461 614 461Q610 461 610 455Q610 450 589.0 437.0Q568 424 568 422Q568 419 562 419Q560 419 558.5 418.0Q557 417 554.0 415.0Q551 413 549.5 410.0Q548 407 550.0 402.0Q552 397 558 392Q571 381 578 381Q582 381 618.0 348.5Q654 316 656 316Q659 316 681.5 288.5Q704 261 704 257Q704 252 710 246Q715 240 720.5 210.0Q726 180 726 158Q726 142 733.0 126.0Q740 110 740 107Q740 100 728.0 86.0Q716 72 702 72Q687 72 671.5 79.0Q656 86 656 94Q656 99 653.0 104.5Q650 110 648.5 112.0Q647 114 650 118Q654 120 654 154Q654 165 653.0 173.0Q652 181 651.0 183.5Q650 186 649.0 187.5Q648 189 648.0 190.0Q648 191 649.0 194.0Q650 197 650 200Z" transform="translate(942.50,958.33) scale(0.9583,-0.9583)" fill="#000000" />
  <path d="M386 709Q434 709 474.5 709.5Q515 710 542.0 711.5Q569 713 590.5 714.5Q612 716 624.0 717.0Q636 718 644.0 719.5Q652 721 656 722H659Q680 722 696.0 706.0Q712 690 712 676Q712 667 704.0 657.0Q696 647 695 614Q693 526 691.0 504.0Q689 482 681 474Q670 463 670 457Q670 436 636.5 407.5Q603 379 603 378L597 364Q597 356 632 321Q657 295 664.0 284.0Q671 273 677 251Q703 156 703 40Q703 4 674 4Q668 4 656 6Q652 7 647.5 27.5Q643 48 643 69V79Q643 99 640.0 115.0Q637 131 636 150Q634 185 619.0 220.0Q604 255 587 266Q578 272 578 282Q578 288 563.5 299.5Q549 311 541 311Q537 311 517.0 319.5Q497 328 480 328Q455 328 410.5 291.5Q366 255 366 242Q366 237 356.5 221.5Q347 206 347 173Q347 171 348 122L349 73Q349 46 345.0 36.5Q341 27 328 27Q320 27 297 32Q286 35 286 49Q286 67 262.5 104.5Q239 142 239 146Q239 149 213.5 180.5Q188 212 188 228Q188 255 219 255H241L264 219Q283 188 290 188Q293 188 296.0 204.0Q299 220 303.0 239.0Q307 258 312 264Q318 270 334.5 295.5Q351 321 373 340Q395 358 399.0 358.0Q403 358 403 361Q403 367 390.5 379.0Q378 391 372 391Q368 391 360.0 398.5Q352 406 340 411Q324 418 306 450Q267 520 259.5 536.5Q252 553 251 569Q250 596 246.5 619.0Q243 642 240.0 654.0Q237 666 237 667Q237 703 244.5 712.5Q252 722 271 722Q277 722 284.0 719.0Q291 716 315.0 712.5Q339 709 386 709ZM618 480Q625 480 629.5 495.5Q634 511 635.5 532.5Q637 554 637.5 566.5Q638 579 638 584Q638 617 633.5 628.0Q629 639 615 642Q591 646 520 646Q515 646 487.5 645.0Q460 644 398 643L312 641L313 609Q314 585 323.0 549.0Q332 513 340 503Q347 494 348 489Q350 482 382.0 456.0Q414 430 439 414Q461 400 489 400Q515 400 529.5 405.5Q544 411 556.0 419.5Q568 428 579 432Q587 436 600.5 452.5Q614 469 614 475Q614 480 618 480Z" transform="translate(1885.00,958.33) scale(0.9583,-0.9583)" fill="#000000" />
  <path d="M156 75Q144 75 126.0 90.0Q108 105 108 115Q108 118 109.0 127.5Q110 137 114.5 149.5Q119 162 124 164Q131 166 151.5 186.0Q172 206 180 210Q192 216 207.0 231.5Q222 247 222 252Q222 260 253.5 283.0Q285 306 292 316Q298 327 314.5 339.0Q331 351 334 356Q336 363 359.5 386.0Q383 409 388 409Q392 409 392 418Q392 423 370.5 439.5Q349 456 342 456Q340 456 297.0 498.0Q254 540 246 543Q238 546 212.5 570.0Q187 594 170 602Q169 602 157.5 609.5Q146 617 133.0 629.5Q120 642 120 652Q120 667 124.0 671.0Q128 675 142 679Q166 685 168 685Q170 685 186.5 669.0Q203 653 208 653Q211 653 224.0 641.0Q237 629 257.0 610.5Q277 592 292 580Q303 573 310.5 566.5Q318 560 322.0 556.0Q326 552 328.5 549.5Q331 547 332.5 546.0Q334 545 336 545Q340 545 378.5 510.0Q417 475 426 472Q434 470 434 466Q434 463 452.5 453.5Q471 444 474 433Q475 427 475.5 422.5Q476 418 477.0 416.0Q478 414 478.0 412.5Q478 411 478.0 410.5Q478 410 478 410Q478 402 467.5 384.5Q457 367 452 367Q448 367 448 361Q448 357 431.0 344.5Q414 332 414 329Q414 324 410 327Q410 327 409.5 327.5Q409 328 408 328Q405 328 298 231Q229 168 204.5 142.0Q180 116 180 98Q180 90 172.0 82.5Q164 75 156 75ZM356 681Q356 693 366.0 704.0Q376 715 392 715Q412 715 449.0 686.0Q486 657 518.0 625.5Q550 594 554 592Q564 588 590.0 566.5Q616 545 637.5 526.5Q659 508 662 508Q664 508 672.5 495.5Q681 483 692 480Q700 477 715.0 465.5Q730 454 752 443Q792 423 792 399Q792 396 791.5 389.5Q791 383 790.5 380.0Q790 377 790 375Q793 373 789.5 367.5Q786 362 779.0 357.0Q772 352 766 351Q752 348 752 344Q752 342 739.0 335.5Q726 329 711.5 320.5Q697 312 694 306Q689 298 674.0 288.0Q659 278 656 275Q647 265 619.5 247.5Q592 230 562.5 207.0Q533 184 514 157Q508 147 502 147Q494 147 494.0 140.0Q494 133 490 133Q486 133 486 126Q486 122 482.0 119.0Q478 116 469.5 108.5Q461 101 454 89Q441 69 428 69Q417 69 400.5 87.5Q384 106 384 116Q384 130 398.5 143.5Q413 157 431.5 168.5Q450 180 454 186Q461 197 500.5 237.5Q540 278 544 278Q546 278 562.5 290.0Q579 302 582 302Q585 302 592.0 313.5Q599 325 604 325Q612 325 612 330Q612 334 618 334Q623 334 658 367L692 400L674 418Q660 431 639.5 443.0Q619 455 614 462Q610 468 600.0 475.0Q590 482 582.0 487.5Q574 493 574 497Q574 502 559.5 513.5Q545 525 518.0 544.0Q491 563 474 576Q443 602 408 627Q406 628 402 631Q383 645 375.5 651.5Q368 658 362.0 666.0Q356 674 356 681Z" transform="translate(2827.50,958.33) scale(0.9583,-0.9583)" fill="#000000" />
  <path d="M74 487Q74 498 123.0 543.0Q172 588 172 597Q172 603 184.0 623.0Q196 643 198 651Q200 659 207.0 664.0Q214 669 214 674Q214 681 220 681Q225 681 226.5 686.0Q228 691 227.5 697.0Q227 703 231.5 708.0Q236 713 246 713Q247 713 256.5 712.0Q266 711 272.0 711.0Q278 711 278 713Q278 716 312 716H340Q370 716 389.5 718.0Q409 720 416 720Q417 720 430.0 719.0Q443 718 465.0 716.0Q487 714 512.0 712.0Q537 710 565.5 709.0Q594 708 616 708Q622 708 637.5 708.5Q653 709 662 709Q706 709 706 683Q706 675 720.0 656.0Q734 637 734 633Q734 626 738 624Q740 623 748.5 605.5Q757 588 771.5 562.5Q786 537 800 521Q811 509 815.0 503.0Q819 497 822.5 486.0Q826 475 826 461Q826 445 821.5 434.0Q817 423 810 423Q806 423 793.0 405.5Q780 388 780 382Q780 377 776 377Q773 377 738.0 325.0Q703 273 700 273Q700 273 696.5 267.0Q693 261 684.0 248.0Q675 235 662.5 219.0Q650 203 629.5 178.5Q609 154 584 128Q576 119 562.0 91.5Q548 64 545.0 62.0Q542 60 542.0 55.0Q542 50 542.5 47.5Q543 45 540 44Q535 44 528.0 33.5Q521 23 510.5 13.0Q500 3 486 3Q473 3 460.5 5.5Q448 8 448 11Q448 14 434.0 20.0Q420 26 420 37Q420 46 409.5 68.5Q399 91 396 91Q394 91 388.0 100.0Q382 109 370.5 123.0Q359 137 346 146Q328 160 322 170Q320 177 293.0 204.0Q266 231 262 231Q259 231 246.0 247.0Q233 263 221 279L208 295Q208 297 190.0 323.0Q172 349 172 351Q172 355 137.0 390.5Q102 426 98 436Q97 440 90.5 446.5Q84 453 79.0 462.5Q74 472 74 487ZM700 381Q700 387 707.0 395.5Q714 404 714 408Q714 412 726.0 421.0Q738 430 738 438Q738 452 746 465L754 480L740 494Q724 509 724 517Q724 524 715.0 538.0Q706 552 704 558Q701 566 679.5 588.5Q658 611 658 614Q658 619 642 631Q630 641 614.5 643.5Q599 646 502 651Q431 655 374 655Q306 655 302 646Q299 643 296.5 642.0Q294 641 292.5 642.0Q291 643 289.5 642.5Q288 642 288 640Q288 637 283.0 635.5Q278 634 270.5 629.5Q263 625 258 616Q249 602 246 602Q244 602 226.0 577.0Q208 552 208 548Q208 542 204 540Q196 537 183.0 511.5Q170 486 170.0 469.0Q170 452 199.0 415.0Q228 378 232 369Q237 359 241.5 353.0Q246 347 249.0 345.0Q252 343 254.0 341.5Q256 340 256 338Q256 333 281.0 305.5Q306 278 310 278Q316 278 316 272Q316 267 333.0 248.0Q350 229 350 228Q350 227 385.0 192.0Q420 157 420 151Q420 143 428 137Q433 132 442.5 120.5Q452 109 459.0 102.0Q466 95 474 95Q480 95 483.5 97.5Q487 100 492.5 109.0Q498 118 505.5 130.0Q513 142 531.5 165.0Q550 188 576 214Q613 253 614 261Q616 269 622 269Q624 269 630.0 278.5Q636 288 647.0 304.5Q658 321 668 333Q677 343 681.0 350.5Q685 358 684.5 360.5Q684 363 685.0 365.0Q686 367 692 369Q700 373 700 381Z" transform="translate(3770.00,958.33) scale(0.9583,-0.9583)" fill="#000000" />
  <path d="M309 245Q309 249 294.5 269.5Q280 290 280 304Q280 311 291.0 320.0Q302 329 309 329Q317 329 338.0 318.5Q359 308 359 304Q359 295 365.5 280.0Q372 265 379.0 252.0Q386 239 387 238Q393 214 400 237Q407 261 410 346Q410 346 412.5 400.0Q415 454 415 454Q415 483 409.0 526.5Q403 570 399 574Q398 575 398 599Q398 647 400.5 673.5Q403 700 406.0 706.0Q409 712 415 717Q429 728 439 726Q453 723 457.5 714.5Q462 706 462 680Q462 680 461.5 655.5Q461 631 461 629Q461 608 464.0 595.5Q467 583 468 549Q468 549 470.5 482.5Q473 416 473 414Q473 391 471.0 318.5Q469 246 469 225Q469 191 474 191Q477 191 484.5 196.5Q492 202 492.0 206.0Q492 210 506.0 224.0Q520 238 520 241Q520 249 549.0 282.0Q578 315 593 315Q600 315 611 304Q619 296 620.0 292.0Q621 288 616 275Q610 261 600.0 252.0Q590 243 572 206Q562 186 539.0 160.0Q516 134 498 123Q485 114 473.5 101.0Q462 88 453.0 80.5Q444 73 432 73Q419 73 410.0 81.5Q401 90 400 96Q399 101 376.5 138.0Q354 175 346 183Q339 191 331.5 204.5Q324 218 319.5 227.0Q315 236 313 236Q309 236 309 245Z" transform="translate(4712.50,958.33) scale(0.9583,-0.9583)" fill="#000000" />
  <path d="M281 756Q295 756 318.5 734.0Q342 712 359.0 691.0Q376 670 376 668Q376 665 384.0 657.0Q392 649 404.0 636.5Q416 624 423 615Q435 600 479.0 553.0Q523 506 531 501Q539 496 539 492Q539 488 585.5 446.0Q632 404 641 399Q647 396 649.0 391.5Q651 387 649 375Q648 360 638.0 348.0Q628 336 619.0 329.0Q610 322 610 317Q610 314 580.5 291.5Q551 269 549 269Q544 269 544.0 263.0Q544 257 533.5 246.5Q523 236 518 236Q512 236 512 231Q512 227 505 227Q501 227 495.0 216.5Q489 206 478 202Q465 197 465 191Q465 184 461 184Q457 184 441.5 169.0Q426 154 406.0 133.0Q386 112 378 105Q345 76 345 62Q345 50 339.0 42.0Q333 34 324.0 31.5Q315 29 309.5 28.0Q304 27 300 27Q286 27 273.0 35.5Q260 44 257 45Q250 48 250 58Q250 70 259.5 84.5Q269 99 282 106Q295 112 314.5 133.5Q334 155 340 160Q362 179 385.0 203.0Q408 227 408 230Q408 233 419.5 242.5Q431 252 451.0 268.5Q471 285 485 299Q537 352 550.0 366.0Q563 380 563 385Q563 387 549.5 399.5Q536 412 520.0 425.5Q504 439 502 441Q465 481 465 485Q465 488 418.0 535.0Q371 582 371 586Q371 589 354.5 600.5Q338 612 338 619Q338 626 294.5 666.5Q251 707 251 718Q251 730 260.0 743.0Q269 756 281 756Z" transform="translate(5655.00,958.33) scale(0.9583,-0.9583)" fill="#000000" />
  <path d="M172 722Q173 722 179.5 721.5Q186 721 197.0 720.0Q208 719 222.5 718.0Q237 717 258.5 716.5Q280 716 303 716Q342 716 352.0 718.0Q362 720 367 720Q392 720 424.0 711.5Q456 703 470 703H477H485Q505 703 539.5 698.5Q574 694 588 694Q596 694 613.5 697.0Q631 700 646 700Q663 700 670.0 706.0Q677 712 710 712Q745 712 756.5 705.0Q768 698 772 675Q775 653 771.5 653.0Q768 653 763.5 632.5Q759 612 759 598Q759 596 759.5 594.0Q760 592 760.0 591.0Q760 590 760.5 588.5Q761 587 761 586Q761 584 757.5 568.0Q754 552 750.5 511.0Q747 470 747 406Q747 370 752.0 277.5Q757 185 764 145L772 95L761 86Q745 74 724 74Q722 74 709.0 78.0Q696 82 668 82Q649 82 636.0 83.5Q623 85 607.5 86.5Q592 88 526.0 89.5Q460 91 350 91Q201 91 186 88Q173 85 170 90Q167 94 155.5 98.5Q144 103 135.5 111.0Q127 119 127 134Q127 142 132.0 164.0Q137 186 137 225Q137 242 135.5 295.5Q134 349 134 392Q134 446 134.5 492.5Q135 539 135.5 570.0Q136 601 137.0 625.5Q138 650 139.0 664.5Q140 679 141.0 688.5Q142 698 142.5 702.0Q143 706 143 706Q143 713 151.0 717.5Q159 722 172 722ZM349 159Q351 159 354.5 158.0Q358 157 360 157Q366 157 368.5 162.0Q371 167 376.5 179.0Q382 191 392 201Q399 210 409.0 225.5Q419 241 425.5 253.0Q432 265 435 267Q439 269 439 280Q439 289 448.5 299.5Q458 310 458.0 314.0Q458 318 465.0 326.0Q472 334 472.0 342.0Q472 350 482.5 364.0Q493 378 493 382Q492 384 491.5 386.0Q491 388 489.5 394.5Q488 401 485.5 401.5Q483 402 480 401Q476 398 440.0 396.5Q404 395 395 391Q388 388 376 388Q368 388 335.0 382.5Q302 377 285 377Q249 377 249 404Q249 415 264.0 444.0Q279 473 286 479Q293 484 293 491Q293 495 305.0 520.0Q317 545 317 549Q317 551 324.5 563.5Q332 576 340.5 592.5Q349 609 351 620Q352 627 356.0 633.0Q360 639 362.5 641.5Q365 644 364 645Q362 646 342.0 648.5Q322 651 312 651Q312 651 310.0 650.5Q308 650 304.0 649.5Q300 649 294.0 648.5Q288 648 277.0 647.5Q266 647 253 647L202 645L198 594Q198 594 195.5 553.5Q193 513 190.5 470.5Q188 428 188 421Q188 390 189.0 358.5Q190 327 192.0 303.0Q194 279 195.5 260.0Q197 241 198.5 230.5Q200 220 200 220Q197 199 197 191Q197 180 205.0 175.5Q213 171 214 170Q215 168 229.0 167.0Q243 166 265.0 163.5Q287 161 303 157Q319 153 328 153Q335 153 340.0 156.0Q345 159 349 159ZM694 252Q694 271 693.5 289.0Q693 307 692.0 319.5Q691 332 690.0 342.5Q689 353 688.0 360.0Q687 367 686.0 372.0Q685 377 684.5 379.5Q684 382 684 382Q684 383 684.5 384.5Q685 386 686.0 390.5Q687 395 688.0 402.5Q689 410 690.0 423.5Q691 437 692 454Q693 492 697.5 511.5Q702 531 702 555Q702 601 696 622L691 640H600Q456 640 440 648Q434 648 434.0 642.5Q434 637 432.5 628.0Q431 619 424 614Q415 609 415 604Q415 595 385.0 539.5Q355 484 348 479Q343 475 347 468Q348 465 350.0 463.5Q352 462 363.5 461.0Q375 460 398 460Q439 460 483.0 467.0Q527 474 545 474Q604 474 604 431Q604 418 594.0 408.5Q584 399 584 397Q584 396 572.5 376.5Q561 357 545.0 332.0Q529 307 520 296Q506 281 502 265Q500 255 477.0 220.5Q454 186 448 182Q443 180 443 171Q443 158 484 158Q496 158 524.0 160.5Q552 163 568 163Q568 163 599.0 162.0Q630 161 650 161Q704 161 704 170Q704 171 700.5 176.0Q697 181 694.0 193.0Q691 205 691 221Q691 229 692.5 232.5Q694 236 694 252Z" transform="translate(6597.50,958.33) scale(0.9583,-0.9583)" fill="#000000" />
  <path d="M211 109Q170 109 170 144Q170 152 181.0 166.5Q192 181 202.0 191.5Q212 202 214 203Q224 207 255.5 238.5Q287 270 290 280Q292 288 300 288Q306 288 336.5 318.5Q367 349 367 355Q367 359 388.0 381.0Q409 403 409.0 407.0Q409 411 392.5 430.0Q376 449 376.0 451.0Q376 453 363.5 468.0Q351 483 336.5 501.0Q322 519 319 525Q314 536 310 536Q307 536 291.0 559.5Q275 583 272 583Q266 583 246.5 607.0Q227 631 227 638Q227 667 250 667Q268 667 291.0 650.0Q314 633 325 611Q331 599 346.0 583.5Q361 568 365 559Q373 543 395.5 518.0Q418 493 423 483Q442 450 456 450Q468 450 490 479Q501 493 553.5 550.5Q606 608 611 615Q617 621 672 661Q682 668 693 668Q708 668 719.0 655.5Q730 643 730.0 627.0Q730 611 720 611Q715 611 702.0 599.5Q689 588 686 588Q685 588 673.0 579.0Q661 570 642.5 551.5Q624 533 612 515Q602 500 575.0 473.0Q548 446 528.0 423.0Q508 400 508 388Q508 378 522.0 362.5Q536 347 536.0 345.0Q536 343 554.5 317.5Q573 292 573 291Q573 289 581.0 280.5Q589 272 600.0 259.0Q611 246 617 235Q625 219 665.0 183.5Q705 148 709 141Q718 127 711 114Q701 93 681 93Q662 93 650.0 105.0Q638 117 631.0 130.5Q624 144 619 146Q616 148 616 152Q616 155 606.0 166.5Q596 178 579.5 197.5Q563 217 552 234Q542 249 520.5 276.0Q499 303 481.5 323.5Q464 344 462.0 344.0Q460 344 445.0 329.5Q430 315 424 313Q419 311 397.0 286.5Q375 262 365.0 255.0Q355 248 334.5 224.5Q314 201 303 194Q291 187 280.5 168.5Q270 150 264 148Q260 147 247.0 128.0Q234 109 211 109Z" transform="translate(7540.00,958.33) scale(0.9583,-0.9583)" fill="#000000" />
  <path d="M156 75Q144 75 126.0 90.0Q108 105 108 115Q108 118 109.0 127.5Q110 137 114.5 149.5Q119 162 124 164Q131 166 151.5 186.0Q172 206 180 210Q192 216 207.0 231.5Q222 247 222 252Q222 260 253.5 283.0Q285 306 292 316Q298 327 314.5 339.0Q331 351 334 356Q336 363 359.5 386.0Q383 409 388 409Q392 409 392 418Q392 423 370.5 439.5Q349 456 342 456Q340 456 297.0 498.0Q254 540 246 543Q238 546 212.5 570.0Q187 594 170 602Q169 602 157.5 609.5Q146 617 133.0 629.5Q120 642 120 652Q120 667 124.0 671.0Q128 675 142 679Q166 685 168 685Q170 685 186.5 669.0Q203 653 208 653Q211 653 224.0 641.0Q237 629 257.0 610.5Q277 592 292 580Q303 573 310.5 566.5Q318 560 322.0 556.0Q326 552 328.5 549.5Q331 547 332.5 546.0Q334 545 336 545Q340 545 378.5 510.0Q417 475 426 472Q434 470 434 466Q434 463 452.5 453.5Q471 444 474 433Q475 427 475.5 422.5Q476 418 477.0 416.0Q478 414 478.0 412.5Q478 411 478.0 410.5Q478 410 478 410Q478 402 467.5 384.5Q457 367 452 367Q448 367 448 361Q448 357 431.0 344.5Q414 332 414 329Q414 324 410 327Q410 327 409.5 327.5Q409 328 408 328Q405 328 298 231Q229 168 204.5 142.0Q180 116 180 98Q180 90 172.0 82.5Q164 75 156 75ZM356 681Q356 693 366.0 704.0Q376 715 392 715Q412 715 449.0 686.0Q486 657 518.0 625.5Q550 594 554 592Q564 588 590.0 566.5Q616 545 637.5 526.5Q659 508 662 508Q664 508 672.5 495.5Q681 483 692 480Q700 477 715.0 465.5Q730 454 752 443Q792 423 792 399Q792 396 791.5 389.5Q791 383 790.5 380.0Q790 377 790 375Q793 373 789.5 367.5Q786 362 779.0 357.0Q772 352 766 351Q752 348 752 344Q752 342 739.0 335.5Q726 329 711.5 320.5Q697 312 694 306Q689 298 674.0 288.0Q659 278 656 275Q647 265 619.5 247.5Q592 230 562.5 207.0Q533 184 514 157Q508 147 502 147Q494 147 494.0 140.0Q494 133 490 133Q486 133 486 126Q486 122 482.0 119.0Q478 116 469.5 108.5Q461 101 454 89Q441 69 428 69Q417 69 400.5 87.5Q384 106 384 116Q384 130 398.5 143.5Q413 157 431.5 168.5Q450 180 454 186Q461 197 500.5 237.5Q540 278 544 278Q546 278 562.5 290.0Q579 302 582 302Q585 302 592.0 313.5Q599 325 604 325Q612 325 612 330Q612 334 618 334Q623 334 658 367L692 400L674 418Q660 431 639.5 443.0Q619 455 614 462Q610 468 600.0 475.0Q590 482 582.0 487.5Q574 493 574 497Q574 502 559.5 513.5Q545 525 518.0 544.0Q491 563 474 576Q443 602 408 627Q406 628 402 631Q383 645 375.5 651.5Q368 658 362.0 666.0Q356 674 356 681Z" transform="translate(8482.50,958.33) scale(0.9583,-0.9583)" fill="#000000" />
</svg>
