<?xml version="1.0" encoding="UTF-8" standalone="no"?>
<!--
Representation of "ijo pi pana pilin" in sitelen ilo pona
Generated by generate_sitelen_kalama_pona.py

Description:
  Representation of "ijo pi pana pilin" in sitelen ilo pona.
  Sources: ijo: https://commons.wikimedia.org/wiki/File:Sitelen_seli_kiwen_-_ijo.svg; pi: https://commons.wikimedia.org/wiki/File:Sitelen_seli_kiwen_-_pi.svg; pana: https://commons.wikimedia.org/wiki/File:Sitelen_seli_kiwen_-_pana.svg; pilin: https://commons.wikimedia.org/wiki/File:Sitelen_seli_kiwen_-_pilin.svg

Categories:
  [[Category:Sitelen kalama pona]]
  [[Category:Toki Pona text containing ijo pi pana pilin]]

Sources:
  ijo: https://commons.wikimedia.org/wiki/File:Sitelen_seli_kiwen_-_ijo.svg
  pi: https://commons.wikimedia.org/wiki/File:Sitelen_seli_kiwen_-_pi.svg
  pana: https://commons.wikimedia.org/wiki/File:Sitelen_seli_kiwen_-_pana.svg
  pilin: https://commons.wikimedia.org/wiki/File:Sitelen_seli_kiwen_-_pilin.svg
-->
<svg version="1.1" width="3690" height="1000"
     viewBox="0 0 3690 1000"
     xmlns="http://www.w3.org/2000/svg">
  <path d="M467 716Q467 716 469.0 716.0Q471 716 475.5 715.5Q480 715 485.5 714.5Q491 714 500.5 714.0Q510 714 521 714L564 713L606 686Q651 657 688.0 624.0Q725 591 733 572Q738 559 740.5 559.0Q743 559 752.0 544.0Q761 529 773.5 486.5Q786 444 791 390Q792 382 793.5 376.5Q795 371 795.0 370.5Q795 370 794 365Q782 347 782 326Q782 308 771.0 283.0Q760 258 758 243Q756 227 721.0 193.5Q686 160 686 157Q686 152 677 152Q668 152 666 147Q664 141 629.0 121.5Q594 102 531.5 81.5Q469 61 413 61Q354 61 291 79Q264 87 253.5 93.5Q243 100 226 117Q209 134 194.0 144.0Q179 154 170.0 162.0Q161 170 151 187Q134 215 124 227Q105 250 105 345Q105 382 106.5 404.0Q108 426 110.0 431.0Q112 436 114.0 438.5Q116 441 116 444Q116 457 145 538Q153 562 163.0 575.0Q173 588 196 604Q204 610 216.5 621.0Q229 632 237.5 640.0Q246 648 248 648Q255 648 277.0 659.5Q299 671 301 671Q321 672 346.0 678.0Q371 684 376 688Q384 695 419.0 705.5Q454 716 467 716ZM676 545Q676 551 650.0 575.5Q624 600 588.0 624.0Q552 648 530 648Q516 648 498.5 638.0Q481 628 473 628Q469 628 462.5 631.0Q456 634 439.0 634.0Q422 634 414.5 632.5Q407 631 395.0 627.5Q383 624 361 621Q324 616 289.0 598.5Q254 581 254 563Q254 555 245 555Q238 555 231.5 549.5Q225 544 219 541Q211 538 200.0 517.0Q189 496 184 491Q176 482 169.5 435.0Q163 388 156 379Q149 372 149 331Q149 301 154 300Q158 298 157.0 290.5Q156 283 159 277Q164 269 167 259Q170 242 211.5 204.5Q253 167 277 159Q285 156 306.5 144.0Q328 132 353 129Q381 126 428 126Q495 126 505 131Q552 156 564 156Q565 156 579.5 164.0Q594 172 616.5 188.5Q639 205 661.0 226.0Q683 247 700.5 276.0Q718 305 721 335Q724 364 724 390Q724 420 719.0 446.5Q714 473 707.0 490.0Q700 507 693.0 519.0Q686 531 681.0 537.5Q676 544 676 545Z" transform="translate(0.00,958.33) scale(0.9583,-0.9583)" fill="#000000" />
  <path d="M178 600Q178 613 172.0 629.5Q166 646 166 651Q166 660 178 675Q187 686 191.5 688.0Q196 690 206 688Q221 685 228.5 675.5Q236 666 237.0 657.5Q238 649 238 634V602Q238 561 244.0 524.5Q250 488 250 466Q250 451 248.0 418.5Q246 386 246 369Q246 369 246.0 367.0Q246 365 246.5 361.5Q247 358 247.5 353.0Q248 348 248.0 339.5Q248 331 248.5 321.0Q249 311 249.5 296.5Q250 282 250 266Q250 179 252 177Q260 168 392 168Q392 168 438.0 168.0Q484 168 532.0 168.5Q580 169 584 169Q698 169 704 167Q710 164 716 164Q722 163 728.0 144.5Q734 126 734 111Q734 109 733.0 103.5Q732 98 727.5 90.5Q723 83 716 83Q714 83 683.5 92.5Q653 102 624 102Q612 102 594.0 100.0Q576 98 562 98Q562 98 558.5 98.5Q555 99 548.0 99.5Q541 100 532.0 100.5Q523 101 510.5 101.5Q498 102 486 102Q485 102 480.5 102.0Q476 102 469.0 101.5Q462 101 454.5 100.5Q447 100 439.5 100.0Q432 100 428 100Q344 100 230 92L190 90L184 104Q180 114 180 131Q180 157 185.0 176.5Q190 196 190 218Q190 218 190.0 225.0Q190 232 190.0 242.5Q190 253 189.5 264.5Q189 276 188.5 287.0Q188 298 188 304Q188 326 190.0 374.0Q192 422 192 441Q192 517 178 540Q176 543 177.0 544.0Q178 545 180.0 545.5Q182 546 182.5 549.5Q183 553 180 562Q176 571 176 578Q176 581 177.0 588.5Q178 596 178 600Z" transform="translate(942.50,958.33) scale(0.9583,-0.9583)" fill="#000000" />
  <path d="M231 198Q231 203 238.0 218.5Q245 234 245 242Q245 260 276.0 307.5Q307 355 308 359Q312 377 335.5 394.0Q359 411 378.5 419.5Q398 428 401 428Q412 428 423.5 431.0Q435 434 457 434Q484 434 502.0 430.0Q520 426 528.5 422.5Q537 419 540 419Q545 419 545.0 415.0Q545 411 562 405Q575 401 600.0 380.5Q625 360 625 353Q625 350 632.0 346.0Q639 342 639 336Q639 327 645 321Q653 312 665.0 269.5Q677 227 677.0 207.0Q677 187 683.5 153.5Q690 120 695 109Q700 100 695 100Q690 100 690.0 87.0Q690 74 685.5 69.0Q681 64 666 56Q653 50 650.0 49.5Q647 49 637 55Q628 60 628 70Q628 71 627.0 73.5Q626 76 625.0 81.5Q624 87 622.5 95.5Q621 104 620.0 121.5Q619 139 618 161Q617 223 609 240Q605 249 601.5 260.0Q598 271 596.0 277.0Q594 283 591 285Q587 287 587 296Q587 300 573.5 317.0Q560 334 537.5 352.0Q515 370 496 374Q486 376 473.5 381.5Q461 387 451 387Q431 387 407.5 377.0Q384 367 372 353L356 342Q339 332 339 325Q339 319 332.0 311.5Q325 304 325 299Q325 295 321.0 287.5Q317 280 313.5 274.5Q310 269 312 269Q313 269 308.5 261.5Q304 254 298.0 241.5Q292 229 292 221Q292 217 284.5 187.5Q277 158 277 138Q277 137 278.5 118.5Q280 100 280 90Q280 70 270.5 58.5Q261 47 255.0 45.5Q249 44 245 44Q234 44 221.0 53.5Q208 63 208 71Q208 77 202.0 84.5Q196 92 196 94Q195 105 190.5 119.0Q186 133 184 133Q180 133 161.0 158.0Q142 183 142 188Q142 190 128.0 203.0Q114 216 114 229Q114 241 122.5 248.5Q131 256 145 256Q158 256 189.5 222.0Q221 188 227 188Q231 188 231 198ZM135 556Q135 566 142.0 574.0Q149 582 162 582Q184 582 227.0 540.0Q270 498 273 498Q274 498 275.5 495.0Q277 492 278.5 487.0Q280 482 280 477Q280 459 259 459Q243 459 227.0 469.5Q211 480 192.5 496.5Q174 513 162 520Q135 536 135 556ZM599 482Q599 509 614.5 530.0Q630 551 666 583Q749 657 766 657Q771 657 778.5 649.5Q786 642 786 630Q786 612 763.5 589.5Q741 567 719.5 554.0Q698 541 696 541Q692 541 685.5 531.5Q679 522 674.0 522.0Q669 522 643.0 495.0Q617 468 608.0 468.0Q599 468 599 482ZM383 616Q383 622 383.5 632.0Q384 642 384 649Q384 672 379.5 686.0Q375 700 375 701Q375 707 380 717Q385 728 389.0 730.5Q393 733 403 732Q422 731 427 720Q428 717 426 715Q425 714 425.0 713.0Q425 712 433.0 702.5Q441 693 441 682Q441 680 438.0 649.5Q435 619 435 597Q435 560 421 560Q415 560 408.0 562.0Q401 564 392.0 578.0Q383 592 383 616Z" transform="translate(1885.00,958.33) scale(0.9583,-0.9583)" fill="#000000" />
  <path d="M656 705Q694 705 721.5 699.0Q749 693 760.5 687.0Q772 681 772 681Q779 681 793.5 666.5Q808 652 808 646Q808 642 817.0 634.0Q826 626 826.0 621.5Q826 617 832.0 609.5Q838 602 843.0 587.0Q848 572 848 550Q848 526 842.0 506.0Q836 486 829.0 474.5Q822 463 822 458Q822 450 797.0 414.0Q772 378 756 364Q738 347 738 341Q738 334 732 334Q726 334 719.0 322.5Q712 311 710 311Q708 311 630.5 251.0Q553 191 548 185Q543 177 524.5 159.5Q506 142 502 142Q496 142 476.0 118.5Q456 95 456 87Q456 80 453.0 78.5Q450 77 436 77Q420 77 408.0 85.0Q396 93 396 103Q396 110 379.5 127.0Q363 144 350 150Q333 159 300.0 193.5Q267 228 254 232Q245 236 237.0 245.5Q229 255 224.5 255.0Q220 255 207.0 270.0Q194 285 182 290Q174 294 166.0 303.0Q158 312 143.0 329.0Q128 346 112 361Q102 372 90.5 386.5Q79 401 65.5 435.5Q52 470 52 507Q52 526 61.5 559.0Q71 592 82 606Q112 642 137.0 660.5Q162 679 176.5 685.0Q191 691 196 698Q204 709 230 709Q254 709 280.0 702.0Q306 695 312 686Q312 685 332.0 673.5Q352 662 377.5 639.0Q403 616 418 586L428 568L472 611Q502 641 535.5 663.0Q569 685 584 687Q592 687 592 691Q592 692 596.5 695.0Q601 698 616.5 701.5Q632 705 656 705ZM248 644Q231 644 216.0 634.5Q201 625 198 625Q193 625 178.5 610.5Q164 596 126 553Q112 536 112 511Q112 488 123.0 461.5Q134 435 146.0 416.5Q158 398 158 398Q160 392 165.5 387.5Q171 383 188.0 368.5Q205 354 224 334Q256 302 265.5 293.0Q275 284 302 264Q336 238 340 234Q346 227 352.0 227.0Q358 227 358 222Q358 219 365.5 213.5Q373 208 385.5 198.5Q398 189 406 182Q420 170 430 170Q446 170 509.5 229.0Q573 288 576 288Q584 288 584 291Q584 295 616.5 321.5Q649 348 652 348Q660 348 706.0 397.0Q752 446 752 454Q752 458 766.0 475.0Q780 492 780 498Q780 504 783.0 509.0Q786 514 786 525Q786 553 778.0 577.0Q770 601 760 604Q756 606 750.5 615.5Q745 625 728 630Q687 641 678 641Q674 641 666.5 640.5Q659 640 656 640Q650 640 648.0 642.0Q646 644 644 644Q637 644 612.5 634.5Q588 625 582 625Q575 625 562.5 615.0Q550 605 550 599Q550 591 544 589Q534 586 493.0 546.0Q452 506 452 489Q452 488 453.0 487.0Q454 486 454 484Q454 475 448.5 463.0Q443 451 430 451Q389 451 376 507Q373 522 368.5 534.0Q364 546 361.0 552.5Q358 559 358 562Q358 566 349.0 575.5Q340 585 338 594Q335 603 310.0 621.0Q285 639 274 639Q268 639 259.5 641.5Q251 644 248 644Z" transform="translate(2827.50,958.33) scale(0.9583,-0.9583)" fill="#000000" />
</svg>
