<?xml version="1.0" encoding="UTF-8" standalone="no"?>
<!--
Representation of "lili" in sitelen kalama pona
Generated by generate_sitelen_kalama_pona.py

Description:
  Representation of "lili" in sitelen kalama pona.
  Sources: lili: https://commons.wikimedia.org/wiki/File:Sitelen_seli_kiwen_-_lili.svg

Categories:
  [[Category:Toki Pona text containing lili]]

Sources:
  lili: https://commons.wikimedia.org/wiki/File:Sitelen_seli_kiwen_-_lili.svg
-->
<svg version="1.1" width="862" height="1000"
     viewBox="0 0 862 1000"
     xmlns="http://www.w3.org/2000/svg">
  <path d="M354 494Q373 494 402.0 458.5Q431 423 431 414Q431 410 433.5 408.0Q436 406 440.5 408.0Q445 410 449 414Q456 421 462 424Q465 425 478.5 445.0Q492 465 509.5 483.5Q527 502 541 502Q551 502 563.5 490.5Q576 479 576 468Q576 433 563 433Q556 433 519.5 393.5Q483 354 483 349Q483 345 462.0 325.5Q441 306 437 306Q431 306 414.5 314.0Q398 322 394 327Q391 330 381.5 362.0Q372 394 347 422Q339 431 331.5 445.5Q324 460 324 468Q324 474 333.5 484.0Q343 494 354 494Z" transform="translate(0.00,958.33) scale(0.9583,-0.9583)" fill="#000000" />
</svg>
