<?xml version="1.0" encoding="UTF-8" standalone="no"?>
<!--
Representation of "ma pi lawa Piko" in sitelen ilo pona
Generated by generate_sitelen_kalama_pona.py

Description:
  Representation of "ma pi lawa Piko" in sitelen ilo pona.
  Sources: ma: https://commons.wikimedia.org/wiki/File:Sitelen_seli_kiwen_-_ma.svg; pi: https://commons.wikimedia.org/wiki/File:Sitelen_seli_kiwen_-_pi.svg; lawa: https://commons.wikimedia.org/wiki/File:Sitelen_seli_kiwen_-_lawa.svg; pi: https://commons.wikimedia.org/wiki/File:Sitelen_kalama_pona_-_pi.svg; ko: https://commons.wikimedia.org/wiki/File:Sitelen_kalama_pona_-_ko.svg

Categories:
  [[Category:Sitelen kalama pona]]
  [[Category:Toki Pona text containing ma pi lawa]]
  [[Category:Toki Pona text containing sound symbol Pi]]
  [[Category:Toki Pona text containing sound symbol Ko]]

Sources:
  ma: https://commons.wikimedia.org/wiki/File:Sitelen_seli_kiwen_-_ma.svg
  pi: https://commons.wikimedia.org/wiki/File:Sitelen_seli_kiwen_-_pi.svg
  lawa: https://commons.wikimedia.org/wiki/File:Sitelen_seli_kiwen_-_lawa.svg
  pi: https://commons.wikimedia.org/wiki/File:Sitelen_kalama_pona_-_pi.svg
  ko: https://commons.wikimedia.org/wiki/File:Sitelen_kalama_pona_-_ko.svg
-->
<svg version="1.1" width="6048" height="1000"
     viewBox="0 0 6048 1000"
     xmlns="http://www.w3.org/2000/svg">
  <path d="M152 340Q152 341 154.5 344.0Q157 347 156 359V367Q156 391 167.5 424.0Q179 457 192.5 485.0Q206 513 208 517Q213 534 245.0 555.5Q277 577 278 583Q280 589 289.0 594.0Q298 599 302 607Q305 615 318.0 619.5Q331 624 336 632Q340 639 350.0 644.0Q360 649 373.5 653.5Q387 658 394 661Q400 665 424 665Q455 665 491.0 659.0Q527 653 532 645Q536 640 548 640Q551 640 554 640Q576 640 606 621Q618 613 634 603Q645 598 671.5 565.5Q698 533 698 526Q698 520 705.0 515.5Q712 511 712 506Q712 499 718 495Q724 492 732.0 475.0Q740 458 740 450Q740 447 744.0 439.0Q748 431 748 405Q748 372 741.0 333.0Q734 294 725.5 269.5Q717 245 712 245Q712 245 704.5 230.5Q697 216 684.5 199.5Q672 183 660 178Q652 174 652 168Q652 161 646 161Q641 161 624 145Q606 129 570 121Q490 105 480 105Q464 105 452.5 93.0Q441 81 434 81Q423 81 406.0 88.0Q389 95 388 100Q386 108 356 116Q327 124 282.5 146.0Q238 168 238.0 174.0Q238 180 208.5 210.5Q179 241 176 255Q174 268 163.0 301.0Q152 334 152 340ZM390 461Q391 481 392.0 500.0Q393 519 394.5 532.5Q396 546 397.5 558.0Q399 570 400.5 578.0Q402 586 403.0 591.0Q404 596 405.0 599.0Q406 602 406 602Q406 606 400 606Q390 606 375.0 597.0Q360 588 354 578Q349 567 310.0 527.5Q271 488 270 482Q266 474 264 477Q261 479 256.0 475.5Q251 472 247.5 466.0Q244 460 244 456Q244 451 240.5 447.0Q237 443 233.5 441.0Q230 439 226.5 431.5Q223 424 222 411L220 390L232 399Q241 406 250 406Q251 406 275.5 402.0Q300 398 330 398Q386 398 388 408Q388 418 390 461ZM656 491Q656 496 644.0 508.0Q632 520 632 524Q632 530 615.5 542.5Q599 555 579.5 567.5Q560 580 558 583Q550 591 500 597Q493 598 488 599L474 601L472 572Q470 557 467.0 537.5Q464 518 462.0 498.5Q460 479 460 449Q460 414 464.5 407.5Q469 401 488 401Q531 401 570.0 405.5Q609 410 632.5 414.0Q656 418 660 418Q677 418 680.5 418.5Q684 419 684 422Q684 430 675.5 453.0Q667 476 662 480Q656 485 656 491ZM680 345Q680 353 664 353Q655 353 632.0 346.5Q609 340 576 337Q532 333 520 331Q513 331 496.5 333.5Q480 336 474 336Q468 336 466 334Q462 330 462 247Q462 168 468 168Q469 168 489.5 171.0Q510 174 532.5 179.0Q555 184 558 187Q563 194 572.5 194.0Q582 194 614.5 226.0Q647 258 652 272Q658 288 661.5 288.0Q665 288 672.5 311.5Q680 335 680 345ZM336 333Q318 333 302.5 334.0Q287 335 275.5 336.0Q264 337 254.0 338.5Q244 340 237.5 341.5Q231 343 226.5 344.0Q222 345 220.0 346.0Q218 347 218 347Q214 347 214 341Q214 336 218.0 317.0Q222 298 235.0 271.0Q248 244 266 236Q284 228 315.5 200.5Q347 173 370 172L388 171V334L340 333Z" transform="translate(0.00,958.33) scale(0.9583,-0.9583)" fill="#000000" />
  <path d="M178 600Q178 613 172.0 629.5Q166 646 166 651Q166 660 178 675Q187 686 191.5 688.0Q196 690 206 688Q221 685 228.5 675.5Q236 666 237.0 657.5Q238 649 238 634V602Q238 561 244.0 524.5Q250 488 250 466Q250 451 248.0 418.5Q246 386 246 369Q246 369 246.0 367.0Q246 365 246.5 361.5Q247 358 247.5 353.0Q248 348 248.0 339.5Q248 331 248.5 321.0Q249 311 249.5 296.5Q250 282 250 266Q250 179 252 177Q260 168 392 168Q392 168 438.0 168.0Q484 168 532.0 168.5Q580 169 584 169Q698 169 704 167Q710 164 716 164Q722 163 728.0 144.5Q734 126 734 111Q734 109 733.0 103.5Q732 98 727.5 90.5Q723 83 716 83Q714 83 683.5 92.5Q653 102 624 102Q612 102 594.0 100.0Q576 98 562 98Q562 98 558.5 98.5Q555 99 548.0 99.5Q541 100 532.0 100.5Q523 101 510.5 101.5Q498 102 486 102Q485 102 480.5 102.0Q476 102 469.0 101.5Q462 101 454.5 100.5Q447 100 439.5 100.0Q432 100 428 100Q344 100 230 92L190 90L184 104Q180 114 180 131Q180 157 185.0 176.5Q190 196 190 218Q190 218 190.0 225.0Q190 232 190.0 242.5Q190 253 189.5 264.5Q189 276 188.5 287.0Q188 298 188 304Q188 326 190.0 374.0Q192 422 192 441Q192 517 178 540Q176 543 177.0 544.0Q178 545 180.0 545.5Q182 546 182.5 549.5Q183 553 180 562Q176 571 176 578Q176 581 177.0 588.5Q178 596 178 600Z" transform="translate(942.50,958.33) scale(0.9583,-0.9583)" fill="#000000" />
  <path d="M352 711Q358 711 368.0 710.5Q378 710 396.0 709.0Q414 708 429 707Q496 703 504 683Q510 672 516 672Q518 672 530.0 662.5Q542 653 562.5 627.5Q583 602 598 569Q601 563 603.0 561.0Q605 559 613.5 557.5Q622 556 641 556Q667 556 701.5 560.5Q736 565 743 565Q751 565 761.5 563.0Q772 561 785.0 551.0Q798 541 798 524L795 495Q795 490 778 494Q774 495 760.0 495.0Q746 495 726.5 492.5Q707 490 697 490Q695 490 692 490L689 491Q687 492 677.0 491.5Q667 491 658 489Q643 486 639.0 483.0Q635 480 637 473Q639 467 645.0 432.0Q651 397 653.0 391.0Q655 385 655.0 382.0Q655 379 653.5 371.0Q652 363 650.5 346.5Q649 330 648 308Q647 282 635.5 252.5Q624 223 613.5 206.5Q603 190 602 190Q597 188 572.0 163.0Q547 138 547 135Q547 130 528.5 112.5Q510 95 504.0 95.0Q498 95 482.0 83.5Q466 72 462 72Q459 72 454.0 69.0Q449 66 442.5 62.0Q436 58 418.0 55.0Q400 52 374 52Q335 52 299.5 59.0Q264 66 253 78Q247 86 239 86Q233 86 233 90Q233 93 221.0 99.5Q209 106 209 111Q209 114 207.5 115.5Q206 117 203.0 119.0Q200 121 193.5 129.0Q187 137 179 149Q163 174 158 177Q149 182 130.5 230.0Q112 278 110 299Q109 310 106 318Q102 326 102 442Q102 484 108.0 511.5Q114 539 120.5 547.0Q127 555 133.0 561.0Q139 567 139 572Q139 579 154.0 599.5Q169 620 174 620Q176 620 202.0 648.5Q228 677 244 677Q248 677 257.0 685.5Q266 694 289.0 694.0Q312 694 322.0 702.5Q332 711 352 711ZM218 537Q235 537 254.0 534.0Q273 531 274.0 531.0Q275 531 297.5 538.0Q320 545 365 545Q374 545 389.5 544.0Q405 543 421.5 542.0Q438 541 453.5 540.0Q469 539 479 538L489 537Q500 537 516 541L537 546L530 560Q525 570 512.5 578.5Q500 587 500 592Q500 601 485.5 615.5Q471 630 440.5 642.5Q410 655 375 655Q363 655 352.5 648.0Q342 641 323 641H316Q296 641 286.5 633.0Q277 625 270 625Q254 625 211.0 585.5Q168 546 168 535Q168 532 172 532Q174 532 178.5 533.0Q183 534 193.0 535.5Q203 537 218 537ZM162 338Q162 312 171.5 296.5Q181 281 183 271Q185 260 206.0 228.0Q227 196 237 188Q240 185 261.5 158.0Q283 131 303 123Q312 119 347 119Q371 119 385.0 121.0Q399 123 403.5 125.0Q408 127 410 127Q413 127 415 126H417Q428 126 471.0 158.0Q514 190 519 201Q523 209 544.0 225.5Q565 242 565 252Q565 260 572.5 267.0Q580 274 582 280Q588 295 588 368Q588 389 586.5 395.5Q585 402 582.0 408.5Q579 415 577 430Q573 455 568.5 465.0Q564 475 557.0 476.5Q550 478 539 475Q531 473 523 473Q521 473 508.5 474.5Q496 476 462.0 477.0Q428 478 375 478Q304 478 302 475Q301 471 281.5 470.5Q262 470 235.0 469.5Q208 469 194 465Q178 461 167 461Q162 461 159.5 460.0Q157 459 154.0 451.0Q151 443 151.0 428.0Q151 413 156.5 385.5Q162 358 162 338Z" transform="translate(1885.00,958.33) scale(0.9583,-0.9583)" fill="#000000" />
  <path d="M 24.637998,12.488337 H 20.72216 q -1.48166,0 -2.54,-1.058333 -1.05833,-1.058333 -1.05833,-2.54 V 3.598338 q 0,-1.481667 1.05833,-2.54 Q 19.2405,4e-6 20.72216,4e-6 h 3.915838 V 0.846671 H 20.72216 q -1.13241,0 -1.94733,0.814917 -0.80433,0.804333 -0.80433,1.93675 v 5.291666 q 0,1.132417 0.80433,1.93675 0.81492,0.814917 1.94733,0.814917 h 3.915838 z" transform="translate(1456.31,0.00) scale(80.0747,80.0747)" fill="#000000" />
  <path d="M 75.014662,0.846671 V 4e-6 h 13.123333 v 0.846667 z m 0,11.641666 v -0.846666 h 13.123333 v 0.846666 z" transform="translate(-2577.58,0.00) scale(80.0747,80.0747)" fill="#000000" />
  <path d="M 75.014662,0.846671 V 4e-6 h 13.123333 v 0.846667 z m 0,11.641666 v -0.846666 h 13.123333 v 0.846666 z" transform="translate(-1526.74,0.00) scale(80.0747,80.0747)" fill="#000000" />
  <path d="m 87.714667,4e-6 h 2.8575 q 1.481666,0 2.54,1.058334 1.058333,1.058333 1.058333,2.54 v 5.291666 q 0,1.481667 -1.058333,2.54 -1.058334,1.058333 -2.54,1.058333 h -2.8575 v -0.846666 h 2.8575 q 1.132416,0 1.93675,-0.814917 0.814916,-0.804333 0.814916,-1.93675 V 3.598338 q 0,-1.132417 -0.814916,-1.93675 -0.804334,-0.814917 -1.93675,-0.814917 h -2.8575 z" transform="translate(-1492.84,0.00) scale(80.0747,80.0747)" fill="#000000" />
  <path d="M 485.00,189.00 C 469.68,189.00 438.00,176.21 438.00,126.00 C 438.00,117.97 440.75,112.11 452.24,100.63 C 456.31,96.55 469.86,83.00 483.00,83.00 L 493.00,83.00 L 493.00,85.32 C 505.32,87.38 524.11,100.20 524.11,122.52 C 524.11,123.23 524.09,123.95 524.04,124.66 C 524.08,125.75 524.10,126.85 524.10,127.96 C 524.10,165.31 504.14,189.00 485.00,189.00  Z M 606.10,279.81 C 606.10,279.81 655.90,284.16 655.90,284.19 C 637.90,490.19 637.90,490.19 637.90,490.19 C 637.90,490.19 588.10,485.84 588.10,485.81 C 606.10,279.81 606.10,279.81 606.10,279.81  Z M 429.49,786.96 C 319.70,786.96 228.59,722.79 228.59,616.05 C 228.59,604.31 229.71,592.09 232.04,579.47 C 233.26,492.01 243.62,404.21 258.00,319.86 L 258.00,314.00 L 308.00,314.00 L 308.00,322.00 C 308.00,330.48 283.64,447.79 281.99,582.31 C 281.93,587.51 278.43,598.69 278.43,617.13 C 278.43,699.49 355.82,736.84 430.49,736.84 C 461.27,736.84 478.65,731.00 485.00,731.00 L 679.20,731.00 C 730.13,731.41 774.29,739.46 821.76,739.46 C 827.75,739.46 833.74,739.33 839.77,739.04 L 842.23,788.96 C 835.21,789.31 828.30,789.46 821.48,789.46 C 771.89,789.46 726.49,781.38 678.90,781.00 L 487.62,781.00 C 468.37,784.96 448.81,786.96 429.49,786.96  Z M 733.76,308.43 C 557.65,308.43 334.30,328.57 169.67,332.99 L 168.33,283.01 C 245.61,280.94 324.81,276.25 404.79,271.50 C 513.82,265.02 624.29,258.44 733.52,258.44 C 751.48,258.44 769.40,258.62 787.27,259.00 L 857.80,259.00 C 857.80,259.00 940.61,251.12 940.65,251.12 L 945.39,300.88 C 860.20,309.00 860.20,309.00 859.00,309.00 L 787.00,309.00 C 786.47,309.00 764.15,308.43 733.76,308.43 Z" transform="translate(3554.62,100.00) scale(0.8000,0.8000)" fill="#000000" />
  <path d="M 426.34,506.44 L 451.67,549.56 L 291.66,643.56 C 290.58,644.20 289.45,644.75 288.31,645.21 C 288.31,645.21 258.31,657.21 258.27,657.22 L 239.69,610.79 L 267.95,599.49 L 426.34,506.44  Z M 220.32,92.24 L 249.64,51.73 C 403.26,162.90 403.26,162.90 404.68,164.32 L 426.68,186.32 L 391.32,221.68 L 370.74,201.10 C 370.74,201.10 220.36,92.27 220.32,92.24  Z M 412.42,1.79 C 425.88,-17.66 453.81,-37.10 480.37,-37.10 C 481.06,-37.10 481.75,-37.09 482.45,-37.07 C 483.56,-37.15 484.68,-37.19 485.81,-37.19 C 496.20,-37.19 526.13,-33.36 526.13,10.70 C 526.13,11.12 526.00,19.91 526.00,20.00 C 526.00,20.91 524.70,83.19 489.56,103.62 C 485.77,105.82 481.44,107.15 474.34,107.15 C 460.69,107.15 452.48,102.45 442.02,96.45 C 430.78,95.15 396.62,88.28 396.62,52.87 C 396.62,36.99 404.11,21.80 416.69,4.75 L 412.42,1.79  Z M 467.18,23.70 C 466.63,23.82 465.05,24.28 465.03,24.28 C 456.88,33.96 451.87,41.16 449.01,46.91 C 455.31,47.58 458.35,47.90 468.48,53.98 C 475.41,38.82 476.08,14.20 476.08,13.79 C 474.23,14.35 472.46,15.10 470.60,16.07 L 471.65,16.64 C 469.86,18.65 467.90,20.88 465.90,23.24 L 467.18,23.70  Z M 350.38,315.35 C 350.38,177.00 476.98,82.97 616.69,82.97 C 618.25,82.97 619.82,82.98 621.38,83.01 L 620.62,132.99 C 619.34,132.97 618.06,132.96 616.78,132.96 C 508.34,132.96 400.29,202.94 400.29,314.65 C 400.29,336.19 403.98,348.62 403.99,353.91 C 404.54,499.96 526.18,607.44 666.19,617.03 L 739.68,619.01 L 738.33,668.99 C 689.91,667.68 664.07,666.99 663.32,666.94 C 496.06,655.76 355.88,526.43 354.02,356.34 C 351.56,342.32 350.38,328.64 350.38,315.35 Z" transform="translate(4605.47,100.00) scale(0.8000,0.8000)" fill="#000000" />
</svg>
