<?xml version="1.0" encoding="UTF-8" standalone="no"?>
<!--
Representation of "mute pi nanpa ale" in sitelen ilo pona
Generated by generate_sitelen_kalama_pona.py

Description:
  Representation of "mute pi nanpa ale" in sitelen ilo pona.
  Sources: mute: https://commons.wikimedia.org/wiki/File:Sitelen_seli_kiwen_-_mute.svg; pi: https://commons.wikimedia.org/wiki/File:Sitelen_seli_kiwen_-_pi.svg; nanpa: https://commons.wikimedia.org/wiki/File:Sitelen_seli_kiwen_-_nanpa.svg; ale: https://commons.wikimedia.org/wiki/File:Sitelen_seli_kiwen_-_ale.svg

Categories:
  [[Category:Sitelen kalama pona]]
  [[Category:Toki Pona text containing mute pi nanpa ale]]

Sources:
  mute: https://commons.wikimedia.org/wiki/File:Sitelen_seli_kiwen_-_mute.svg
  pi: https://commons.wikimedia.org/wiki/File:Sitelen_seli_kiwen_-_pi.svg
  nanpa: https://commons.wikimedia.org/wiki/File:Sitelen_seli_kiwen_-_nanpa.svg
  ale: https://commons.wikimedia.org/wiki/File:Sitelen_seli_kiwen_-_ale.svg
-->
<svg version="1.1" width="3690" height="1000"
     viewBox="0 0 3690 1000"
     xmlns="http://www.w3.org/2000/svg">
  <path d="M464 121Q464 96 461.5 80.0Q459 64 453.5 58.0Q448 52 444.5 50.5Q441 49 434 49Q421 49 409.0 58.0Q397 67 397 79Q397 79 399.0 90.0Q401 101 400 109Q399 123 399 159Q399 199 403.0 239.0Q407 279 408 323Q409 345 410.5 374.5Q412 404 414.0 430.0Q416 456 417.5 479.0Q419 502 420.0 516.0Q421 530 421 530Q421 545 419.0 569.0Q417 593 417 603Q417 657 446 657Q469 657 475.5 644.5Q482 632 482 599Q482 595 476.5 526.5Q471 458 465.5 377.5Q460 297 460 264Q460 245 462 243Q467 240 466.5 229.5Q466 219 461 214Q455 208 455 179Q455 157 459.5 146.5Q464 136 464 121ZM246 153Q246 149 242.5 141.5Q239 134 239 124V113Q239 80 209 84Q190 86 184.5 94.5Q179 103 179 135Q179 186 185.0 227.0Q191 268 191 337Q191 366 190.0 397.0Q189 428 187.0 451.5Q185 475 183.5 493.5Q182 512 180.5 523.0Q179 534 179 534Q179 539 180.5 547.0Q182 555 182 571Q182 618 175 627Q170 634 177.0 637.5Q184 641 184 646Q184 652 190.5 654.5Q197 657 203 655Q223 650 223 650Q234 648 243.5 634.5Q253 621 253 611Q253 607 250.5 604.0Q248 601 248.0 600.5Q248 600 251 596Q257 593 250 588Q244 584 244 533Q244 533 244.5 523.0Q245 513 245.0 496.0Q245 479 245.0 458.5Q245 438 245.0 411.0Q245 384 245 359Q245 335 245.0 312.5Q245 290 245.0 273.0Q245 256 244.5 241.5Q244 227 244.0 217.0Q244 207 244.0 200.0Q244 193 243.5 189.5Q243 186 243 186Q243 174 244.5 164.0Q246 154 246 153ZM661 553Q661 560 663.5 575.5Q666 591 666 608L665 627Q665 643 672.5 656.5Q680 670 690 670Q692 670 698.5 668.5Q705 667 708 667Q713 667 720.0 650.5Q727 634 727 624Q727 623 726.0 619.5Q725 616 723.5 607.5Q722 599 721 588Q714 507 710 502Q700 490 700 330Q700 234 701.5 205.0Q703 176 707 160Q707 159 707.5 157.0Q708 155 708 153Q708 140 701.0 129.0Q694 118 679 118Q669 118 654 124L639 129L642 163Q645 188 645 202Q645 202 645.0 205.0Q645 208 644.5 214.0Q644 220 644 229Q644 272 646.5 343.0Q649 414 650 426Q652 438 654.0 460.0Q656 482 658.0 498.5Q660 515 662 520Q664 523 664 528Q664 530 662.5 538.0Q661 546 661 553Z" transform="translate(0.00,958.33) scale(0.9583,-0.9583)" fill="#000000" />
  <path d="M178 600Q178 613 172.0 629.5Q166 646 166 651Q166 660 178 675Q187 686 191.5 688.0Q196 690 206 688Q221 685 228.5 675.5Q236 666 237.0 657.5Q238 649 238 634V602Q238 561 244.0 524.5Q250 488 250 466Q250 451 248.0 418.5Q246 386 246 369Q246 369 246.0 367.0Q246 365 246.5 361.5Q247 358 247.5 353.0Q248 348 248.0 339.5Q248 331 248.5 321.0Q249 311 249.5 296.5Q250 282 250 266Q250 179 252 177Q260 168 392 168Q392 168 438.0 168.0Q484 168 532.0 168.5Q580 169 584 169Q698 169 704 167Q710 164 716 164Q722 163 728.0 144.5Q734 126 734 111Q734 109 733.0 103.5Q732 98 727.5 90.5Q723 83 716 83Q714 83 683.5 92.5Q653 102 624 102Q612 102 594.0 100.0Q576 98 562 98Q562 98 558.5 98.5Q555 99 548.0 99.5Q541 100 532.0 100.5Q523 101 510.5 101.5Q498 102 486 102Q485 102 480.5 102.0Q476 102 469.0 101.5Q462 101 454.5 100.5Q447 100 439.5 100.0Q432 100 428 100Q344 100 230 92L190 90L184 104Q180 114 180 131Q180 157 185.0 176.5Q190 196 190 218Q190 218 190.0 225.0Q190 232 190.0 242.5Q190 253 189.5 264.5Q189 276 188.5 287.0Q188 298 188 304Q188 326 190.0 374.0Q192 422 192 441Q192 517 178 540Q176 543 177.0 544.0Q178 545 180.0 545.5Q182 546 182.5 549.5Q183 553 180 562Q176 571 176 578Q176 581 177.0 588.5Q178 596 178 600Z" transform="translate(942.50,958.33) scale(0.9583,-0.9583)" fill="#000000" />
  <path d="M239 654Q239 656 240.5 658.5Q242 661 242 672Q242 678 255.0 682.5Q268 687 282 687Q300 687 305.5 678.5Q311 670 313 634Q314 621 317.0 591.0Q320 561 322 536L325 512V495L352 491Q368 489 396.0 488.0Q424 487 443.5 486.0Q463 485 468 482Q475 479 485.0 483.5Q495 488 501 486Q502 486 502 486L504 485Q507 485 507 494Q507 552 498 570Q494 578 490.5 606.5Q487 635 486.0 655.0Q485 675 485 680Q485 727 516 727Q517 727 519.0 726.5Q521 726 522 726Q536 724 538.5 723.0Q541 722 541 717Q541 710 543 710H544Q552 710 553 662Q555 614 560 559Q564 518 566.0 508.0Q568 498 575 494Q589 487 650 487Q674 487 703.0 493.5Q732 500 753 500Q802 500 802 451Q802 430 797.0 424.5Q792 419 776 419Q752 419 730.0 425.0Q708 431 695 431Q686 431 647.5 427.5Q609 424 586 424L564 423V371Q564 319 568 311Q571 307 604.0 303.0Q637 299 664 299Q678 299 686.5 301.5Q695 304 713 304Q719 304 727.5 303.5Q736 303 741 303Q763 303 776.5 307.5Q790 312 800 312Q802 312 808.0 311.5Q814 311 825.5 308.5Q837 306 846.5 301.5Q856 297 863.5 288.5Q871 280 871 269Q871 231 828 231Q824 231 794.0 234.0Q764 237 727 237Q582 237 577 230Q574 224 574 202Q574 172 580.5 138.5Q587 105 587 94Q587 76 578.5 69.5Q570 63 551 63Q509 63 509 89V90Q509 92 509.5 95.0Q510 98 510.5 103.0Q511 108 511.5 115.5Q512 123 512.5 132.0Q513 141 513.0 154.0Q513 167 513 181Q513 233 511 235Q507 239 393 242L346 243L348 199Q349 170 351.0 161.0Q353 152 361 144Q372 133 367 124Q363 117 363 104Q363 77 319 77Q292 77 292 80Q290 94 290 102Q290 115 292.5 129.5Q295 144 295 152Q295 164 289.5 194.0Q284 224 284 233Q284 240 280.5 241.5Q277 243 259 242Q247 241 210 241Q104 241 66.5 248.0Q29 255 29 277Q29 282 32 290Q41 311 55.0 316.0Q69 321 111.0 321.0Q153 321 184.5 315.0Q216 309 251 309Q280 309 282.0 313.0Q284 317 284 337Q284 345 283.0 358.0Q282 371 280.5 383.5Q279 396 277.5 408.0Q276 420 275 428L274 435Q274 440 158 445Q51 449 39 456Q30 461 30 482Q30 490 32.5 494.5Q35 499 52.5 505.0Q70 511 103 511Q150 511 216 506L274 502L271 520Q269 530 264.5 542.5Q260 555 258 576Q255 600 250.5 617.5Q246 635 242.5 643.0Q239 651 239 654ZM357 430Q333 430 333 417Q333 411 336.0 388.5Q339 366 339 355Q339 336 347 315Q353 299 356.0 296.0Q359 293 371 294Q381 294 390.5 297.5Q400 301 409 301Q416 301 436.5 298.0Q457 295 461 296Q465 296 481.5 298.0Q498 300 502 301Q507 301 507 319Q507 328 505.5 351.0Q504 374 503 393L502 412Q501 416 471.5 422.0Q442 428 425 428Q399 426 395 426Q385 426 374.0 428.0Q363 430 357 430Z" transform="translate(1885.00,958.33) scale(0.9583,-0.9583)" fill="#000000" />
  <path d="M140 245Q140 250 130.0 262.0Q120 274 110.0 291.5Q100 309 100 326Q100 337 104.0 370.0Q108 403 112 405Q112 405 127.0 437.5Q142 470 152 470Q157 470 162 479Q165 483 177.0 491.5Q189 500 213.0 509.0Q237 518 262 518Q297 518 333.0 500.0Q369 482 378 472Q382 467 389 458Q413 431 416 421L422 408L446 435Q471 461 480 461Q486 461 508.0 477.5Q530 494 534 494Q536 494 551.5 503.5Q567 513 594 513Q636 513 668 497Q692 484 716 475Q755 460 772 427Q783 408 788 404Q800 390 800 353Q800 298 750 254Q722 229 701.0 222.0Q680 215 610 206L590 202Q585 202 557.5 211.5Q530 221 505.0 230.5Q480 240 480 241Q478 244 470.5 247.5Q463 251 451.0 258.0Q439 265 428 276L410 295L400 282Q389 269 386 269Q383 269 364.0 254.5Q345 240 336 238Q327 236 321.5 229.5Q316 223 306 225H302Q288 225 253.0 219.0Q218 213 200 213Q176 213 158.0 224.0Q140 235 140 245ZM248 450Q220 450 202.0 443.0Q184 436 177.0 422.0Q170 408 168.0 397.5Q166 387 166 370Q166 332 176 308Q182 290 186.0 286.5Q190 283 206 280Q229 276 232 276Q239 276 271.5 287.5Q304 299 304 302Q304 306 312 306Q322 306 331.5 313.5Q341 321 338 327Q335 334 342 334Q351 334 357.5 343.0Q364 352 364 364Q364 384 338.0 412.0Q312 440 296 444Q274 450 248 450ZM468 334Q471 334 480.5 320.0Q490 306 500 306Q510 306 512 301Q512 298 528.0 290.5Q544 283 570.0 275.5Q596 268 618 268Q648 268 682 279Q703 286 710.0 291.0Q717 296 728 313Q744 336 744 353Q744 374 714.5 405.5Q685 437 646 440L604 445Q592 445 573.5 438.0Q555 431 546 424Q541 419 526.5 408.5Q512 398 502.0 390.0Q492 382 492 379Q492 377 477.0 360.5Q462 344 462 338Q462 334 468 334Z" transform="translate(2827.50,958.33) scale(0.9583,-0.9583)" fill="#000000" />
</svg>
