<?xml version="1.0" encoding="UTF-8" standalone="no"?>
<!--
Representation of "toki Kanse pi ma Kanata" in sitelen ilo pona
Generated by generate_sitelen_kalama_pona.py

Description:
  Representation of "toki Kanse pi ma Kanata" in sitelen ilo pona.
  Sources: toki: https://commons.wikimedia.org/wiki/File:Sitelen_seli_kiwen_-_toki.svg; kan: https://commons.wikimedia.org/wiki/File:Sitelen_kalama_pona_-_kan.svg; se: https://commons.wikimedia.org/wiki/File:Sitelen_kalama_pona_-_se.svg; pi: https://commons.wikimedia.org/wiki/File:Sitelen_kalama_pona_-_pi.svg; ma: https://commons.wikimedia.org/wiki/File:Sitelen_kalama_pona_-_ma.svg; ka: https://commons.wikimedia.org/wiki/File:Sitelen_kalama_pona_-_ka.svg; na: https://commons.wikimedia.org/wiki/File:Sitelen_kalama_pona_-_na.svg; ta: https://commons.wikimedia.org/wiki/File:Sitelen_kalama_pona_-_ta.svg

Categories:
  [[Category:Sitelen kalama pona]]
  [[Category:Toki Pona text containing toki]]
  [[Category:Toki Pona text containing sound symbol Kan]]
  [[Category:Toki Pona text containing sound symbol Se]]
  [[Category:Toki Pona text containing sound symbol Pi]]
  [[Category:Toki Pona text containing sound symbol Ma]]
  [[Category:Toki Pona text containing sound symbol Ka]]
  [[Category:Toki Pona text containing sound symbol Na]]
  [[Category:Toki Pona text containing sound symbol Ta]]

Sources:
  toki: https://commons.wikimedia.org/wiki/File:Sitelen_seli_kiwen_-_toki.svg
  kan: https://commons.wikimedia.org/wiki/File:Sitelen_kalama_pona_-_kan.svg
  se: https://commons.wikimedia.org/wiki/File:Sitelen_kalama_pona_-_se.svg
  pi: https://commons.wikimedia.org/wiki/File:Sitelen_kalama_pona_-_pi.svg
  ma: https://commons.wikimedia.org/wiki/File:Sitelen_kalama_pona_-_ma.svg
  ka: https://commons.wikimedia.org/wiki/File:Sitelen_kalama_pona_-_ka.svg
  na: https://commons.wikimedia.org/wiki/File:Sitelen_kalama_pona_-_na.svg
  ta: https://commons.wikimedia.org/wiki/File:Sitelen_kalama_pona_-_ta.svg
-->
<svg version="1.1" width="9417" height="1000"
     viewBox="0 0 9417 1000"
     xmlns="http://www.w3.org/2000/svg">
  <path d="M222 295Q222 320 228.0 339.0Q234 358 240.0 368.0Q246 378 246 382Q246 395 265.0 421.5Q284 448 300 456Q316 465 325.0 475.0Q334 485 335.5 491.0Q337 497 344.0 502.0Q351 507 366 509Q385 512 401.0 516.5Q417 521 428 521Q445 521 487.0 512.0Q529 503 540 503Q552 503 571.5 496.0Q591 489 608.0 481.5Q625 474 628 473Q640 469 640 463Q640 457 647.0 453.0Q654 449 654.0 445.0Q654 441 660.5 434.5Q667 428 676.0 416.0Q685 404 690 391Q700 367 702 365Q706 361 706 347Q706 339 709.0 330.5Q712 322 713.0 320.0Q714 318 712 314Q709 312 707.0 303.0Q705 294 700.0 278.5Q695 263 686 250Q678 237 671.0 219.5Q664 202 654 192Q647 185 644.5 179.5Q642 174 642.5 171.0Q643 168 639.5 165.0Q636 162 626 158Q608 150 608 146Q608 141 586.5 133.0Q565 125 538.0 117.0Q511 109 504 106Q488 98 458 98Q419 98 389.5 107.0Q360 116 345.5 124.5Q331 133 330 133Q322 133 305.0 142.5Q288 152 286 157Q285 165 278 167Q265 172 249.0 217.5Q233 263 230 265Q222 270 222 295ZM584 428Q581 428 570.5 436.0Q560 444 534.0 452.5Q508 461 468 461Q434 461 405.0 452.5Q376 444 361.0 435.0Q346 426 333.0 411.5Q320 397 317.5 393.0Q315 389 312 384Q308 374 302 374Q297 374 289.5 351.5Q282 329 282 313Q282 289 313.5 236.0Q345 183 378 177Q397 173 402 170Q416 163 460 163Q496 163 511.0 169.0Q526 175 528 175Q533 175 548.0 180.5Q563 186 588.0 205.5Q613 225 626 254Q643 288 645.5 296.5Q648 305 648 318Q648 349 638 370Q633 383 611.5 405.5Q590 428 584 428ZM144 612Q144 622 151.5 632.5Q159 643 172 643Q181 643 202.5 624.5Q224 606 227.5 606.0Q231 606 235.0 599.0Q239 592 244 592Q249 592 258.5 579.0Q268 566 268 555Q268 545 259.5 539.5Q251 534 243 533L234 532Q226 532 207.5 550.5Q189 569 182 569Q175 569 170.5 576.0Q166 583 162 583Q144 595 144 612ZM622 636Q645 645 677.0 671.5Q709 698 726 698Q740 698 748.0 689.5Q756 681 756 667Q756 654 752.0 648.5Q748 643 734 636Q722 629 700.0 615.0Q678 601 661.5 591.5Q645 582 638 580Q629 577 623.5 573.0Q618 569 608 569Q580 569 580 589Q580 601 592.0 615.0Q604 629 622 636ZM400 600Q400 601 403.0 615.0Q406 629 409.0 652.0Q412 675 412 697Q412 706 410 712Q405 729 429 742Q447 751 448 740Q448 734 458 730Q464 729 465.0 725.0Q466 721 466 708Q466 673 461.0 651.5Q456 630 456 608Q456 595 444.0 583.0Q432 571 420 571Q410 571 405.0 580.0Q400 589 400 600Z" transform="translate(0.00,958.33) scale(0.9583,-0.9583)" fill="#000000" />
  <path d="M 24.637998,12.488337 H 20.72216 q -1.48166,0 -2.54,-1.058333 -1.05833,-1.058333 -1.05833,-2.54 V 3.598338 q 0,-1.481667 1.05833,-2.54 Q 19.2405,4e-6 20.72216,4e-6 h 3.915838 V 0.846671 H 20.72216 q -1.13241,0 -1.94733,0.814917 -0.80433,0.804333 -0.80433,1.93675 v 5.291666 q 0,1.132417 0.80433,1.93675 0.81492,0.814917 1.94733,0.814917 h 3.915838 z" transform="translate(-428.69,0.00) scale(80.0747,80.0747)" fill="#000000" />
  <path d="M 75.014662,0.846671 V 4e-6 h 13.123333 v 0.846667 z m 0,11.641666 v -0.846666 h 13.123333 v 0.846666 z" transform="translate(-4462.58,0.00) scale(80.0747,80.0747)" fill="#000000" />
  <path d="M 75.014662,0.846671 V 4e-6 h 13.123333 v 0.846667 z m 0,11.641666 v -0.846666 h 13.123333 v 0.846666 z" transform="translate(-3411.74,0.00) scale(80.0747,80.0747)" fill="#000000" />
  <path d="M 75.014662,0.846671 V 4e-6 h 13.123333 v 0.846667 z m 0,11.641666 v -0.846666 h 13.123333 v 0.846666 z" transform="translate(-2360.89,0.00) scale(80.0747,80.0747)" fill="#000000" />
  <path d="M 75.014662,0.846671 V 4e-6 h 13.123333 v 0.846667 z m 0,11.641666 v -0.846666 h 13.123333 v 0.846666 z" transform="translate(-1310.04,0.00) scale(80.0747,80.0747)" fill="#000000" />
  <path d="M 75.014662,0.846671 V 4e-6 h 13.123333 v 0.846667 z m 0,11.641666 v -0.846666 h 13.123333 v 0.846666 z" transform="translate(-259.19,0.00) scale(80.0747,80.0747)" fill="#000000" />
  <path d="M 75.014662,0.846671 V 4e-6 h 13.123333 v 0.846667 z m 0,11.641666 v -0.846666 h 13.123333 v 0.846666 z" transform="translate(791.65,0.00) scale(80.0747,80.0747)" fill="#000000" />
  <path d="M 75.014662,0.846671 V 4e-6 h 13.123333 v 0.846667 z m 0,11.641666 v -0.846666 h 13.123333 v 0.846666 z" transform="translate(1842.50,0.00) scale(80.0747,80.0747)" fill="#000000" />
  <path d="m 87.714667,4e-6 h 2.8575 q 1.481666,0 2.54,1.058334 1.058333,1.058333 1.058333,2.54 v 5.291666 q 0,1.481667 -1.058333,2.54 -1.058334,1.058333 -2.54,1.058333 h -2.8575 v -0.846666 h 2.8575 q 1.132416,0 1.93675,-0.814917 0.814916,-0.804333 0.814916,-1.93675 V 3.598338 q 0,-1.132417 -0.814916,-1.93675 -0.804334,-0.814917 -1.93675,-0.814917 h -2.8575 z" transform="translate(1876.40,0.00) scale(80.0747,80.0747)" fill="#000000" />
  <path d="M 427.60,902.87 C 389.78,902.87 353.14,925.73 345.61,968.37 C 345.61,968.37 296.38,959.68 296.39,959.63 C 307.82,894.86 363.43,852.88 427.55,852.88 C 429.20,852.88 430.85,852.91 432.51,852.97 C 434.36,852.84 436.19,852.78 437.99,852.78 C 480.36,852.78 501.45,883.93 516.73,906.51 C 531.67,928.57 539.40,938.05 553.12,938.05 C 564.33,938.05 570.54,933.00 579.00,933.00 C 582.08,933.00 583.38,933.56 587.73,933.56 C 603.39,933.56 618.75,925.01 637.89,909.68 L 684.62,859.05 L 721.38,892.95 C 672.14,946.30 672.14,946.30 670.72,947.44 C 649.72,964.45 622.72,983.58 588.06,983.58 C 586.01,983.58 583.93,983.51 581.83,983.38 C 571.83,986.40 562.14,987.94 552.89,987.94 C 511.48,987.94 490.96,957.64 475.30,934.51 C 458.85,910.21 451.66,902.71 439.15,902.71 C 436.30,902.71 435.16,903.00 433.00,903.00 C 432.95,903.00 429.39,902.87 427.60,902.87  Z M 235.77,643.31 C 235.77,651.79 236.00,656.96 236.00,658.00 L 236.00,704.00 L 186.00,704.00 L 186.00,658.38 C 185.85,653.24 185.78,648.11 185.78,643.00 C 185.78,589.09 193.92,537.14 201.71,486.75 C 204.73,467.20 207.71,447.87 210.22,428.73 C 210.91,423.48 212.27,424.09 212.27,414.93 C 212.27,414.74 211.69,397.42 211.69,396.83 C 211.69,389.56 211.69,389.56 215.39,367.94 C 217.73,354.27 220.20,339.84 222.06,327.75 C 223.09,292.37 228.16,260.48 228.16,227.82 C 228.16,223.01 228.00,218.10 228.00,218.00 C 228.00,213.64 229.45,210.87 229.45,189.48 C 229.45,188.94 228.50,136.10 228.50,135.56 C 228.50,104.77 228.50,20.54 303.91,11.20 C 304.93,11.07 305.97,11.00 307.00,11.00 C 417.90,11.00 500.44,96.50 559.09,160.73 L 572.68,174.32 L 537.32,209.68 C 522.91,195.27 522.91,195.27 522.52,194.84 C 464.36,131.12 395.62,62.39 308.58,61.01 C 288.87,64.03 278.57,79.66 278.57,136.86 C 278.57,156.11 279.53,174.47 279.53,190.46 C 279.53,200.32 279.18,209.97 278.04,219.26 C 278.12,222.22 278.15,225.16 278.15,228.08 C 278.15,264.05 272.86,296.47 271.99,330.64 C 271.82,337.02 261.71,389.45 261.71,396.59 C 261.71,402.78 262.37,409.14 262.37,415.72 C 262.37,422.05 261.80,429.41 259.51,437.37 C 256.96,456.56 254.02,475.57 251.11,494.44 C 243.30,544.98 235.77,594.40 235.77,643.31  Z M 543.81,527.98 L 582.22,559.99 L 484.07,677.76 L 477.36,691.19 L 432.63,668.82 C 436.42,661.91 439.21,654.17 443.78,648.01 C 443.78,648.01 543.78,528.01 543.81,527.98  Z M 733.00,639.00 C 733.15,639.00 740.71,639.31 747.60,639.31 C 757.58,639.31 797.07,639.31 818.26,623.81 C 818.26,623.81 847.78,664.17 847.74,664.19 C 833.58,674.56 805.84,689.32 748.28,689.32 C 742.85,689.32 737.68,689.20 732.83,689.01 C 731.20,689.05 729.57,689.07 727.95,689.07 C 665.32,689.07 582.68,659.26 527.28,529.52 C 507.20,482.51 495.14,432.68 488.32,389.97 C 488.28,389.75 487.39,382.24 487.39,368.25 C 487.39,245.04 565.29,108.32 695.60,101.04 C 696.06,101.02 696.53,101.00 697.00,101.00 L 727.00,101.00 L 727.00,151.00 L 697.73,151.00 C 592.35,157.37 537.41,278.21 537.41,369.06 C 537.41,373.82 537.56,378.52 537.86,383.15 C 548.86,451.23 591.53,639.08 727.73,639.08 C 729.89,639.08 732.95,639.00 733.00,639.00 Z" transform="translate(1669.62,100.00) scale(0.8000,0.8000)" fill="#000000" />
  <path d="M 263.20,147.66 C 263.20,211.90 311.50,261.37 366.33,278.10 C 366.33,278.10 351.73,325.92 351.67,325.90 C 274.13,302.24 213.22,232.48 213.22,147.57 C 213.22,141.74 213.46,129.20 215.45,123.60 C 238.60,58.47 315.71,43.96 377.90,32.25 C 392.95,29.42 407.02,26.75 418.85,23.77 C 420.82,23.27 422.83,23.02 424.85,23.01 L 752.85,21.01 L 753.15,70.99 L 428.14,72.98 C 393.59,81.37 348.87,86.55 314.49,98.75 C 277.38,111.93 267.59,128.15 263.58,137.72 C 263.33,141.07 263.20,144.38 263.20,147.66  Z M 542.52,135.87 C 542.94,135.87 584.45,134.64 584.74,134.64 C 605.27,134.64 628.28,137.16 652.57,149.83 C 654.87,151.03 666.00,157.59 666.00,172.00 L 666.00,178.00 L 619.64,178.00 L 629.43,194.17 C 614.66,186.46 601.63,184.61 585.72,184.61 C 585.29,184.61 545.13,185.88 542.64,185.88 C 536.98,185.88 531.05,185.71 524.87,185.25 C 467.43,199.78 394.55,260.59 393.93,325.38 C 414.96,379.12 488.04,408.98 537.68,458.62 C 564.56,485.50 586.02,520.64 586.02,567.44 C 586.02,579.35 578.60,613.12 553.16,638.56 C 511.82,679.90 445.48,682.62 385.37,685.08 C 365.18,685.90 346.18,686.73 330.22,688.79 C 329.11,688.93 325.42,689.23 320.82,689.23 C 293.47,689.23 268.84,678.85 249.93,671.60 C 247.93,670.83 245.98,670.08 244.11,669.37 C 244.11,669.37 261.84,622.61 261.89,622.63 C 284.84,631.33 305.59,639.20 321.90,639.20 C 322.51,639.20 336.22,637.06 383.31,635.13 C 465.86,631.75 523.68,626.30 536.03,567.38 C 536.03,567.34 536.03,567.29 536.03,567.24 C 536.03,516.08 500.02,487.99 447.25,449.83 C 406.13,420.09 362.68,388.66 345.36,338.13 C 344.12,334.52 343.93,331.80 343.93,325.97 C 343.93,232.87 438.85,152.93 517.60,135.59 C 519.37,135.20 521.19,135.00 523.00,135.00 C 523.20,135.00 533.14,135.87 542.52,135.87 Z" transform="translate(2720.47,100.00) scale(0.8000,0.8000)" fill="#000000" />
  <path d="M 485.00,189.00 C 469.68,189.00 438.00,176.21 438.00,126.00 C 438.00,117.97 440.75,112.11 452.24,100.63 C 456.31,96.55 469.86,83.00 483.00,83.00 L 493.00,83.00 L 493.00,85.32 C 505.32,87.38 524.11,100.20 524.11,122.52 C 524.11,123.23 524.09,123.95 524.04,124.66 C 524.08,125.75 524.10,126.85 524.10,127.96 C 524.10,165.31 504.14,189.00 485.00,189.00  Z M 606.10,279.81 C 606.10,279.81 655.90,284.16 655.90,284.19 C 637.90,490.19 637.90,490.19 637.90,490.19 C 637.90,490.19 588.10,485.84 588.10,485.81 C 606.10,279.81 606.10,279.81 606.10,279.81  Z M 429.49,786.96 C 319.70,786.96 228.59,722.79 228.59,616.05 C 228.59,604.31 229.71,592.09 232.04,579.47 C 233.26,492.01 243.62,404.21 258.00,319.86 L 258.00,314.00 L 308.00,314.00 L 308.00,322.00 C 308.00,330.48 283.64,447.79 281.99,582.31 C 281.93,587.51 278.43,598.69 278.43,617.13 C 278.43,699.49 355.82,736.84 430.49,736.84 C 461.27,736.84 478.65,731.00 485.00,731.00 L 679.20,731.00 C 730.13,731.41 774.29,739.46 821.76,739.46 C 827.75,739.46 833.74,739.33 839.77,739.04 L 842.23,788.96 C 835.21,789.31 828.30,789.46 821.48,789.46 C 771.89,789.46 726.49,781.38 678.90,781.00 L 487.62,781.00 C 468.37,784.96 448.81,786.96 429.49,786.96  Z M 733.76,308.43 C 557.65,308.43 334.30,328.57 169.67,332.99 L 168.33,283.01 C 245.61,280.94 324.81,276.25 404.79,271.50 C 513.82,265.02 624.29,258.44 733.52,258.44 C 751.48,258.44 769.40,258.62 787.27,259.00 L 857.80,259.00 C 857.80,259.00 940.61,251.12 940.65,251.12 L 945.39,300.88 C 860.20,309.00 860.20,309.00 859.00,309.00 L 787.00,309.00 C 786.47,309.00 764.15,308.43 733.76,308.43 Z" transform="translate(3771.31,100.00) scale(0.8000,0.8000)" fill="#000000" />
  <path d="M 522.00,558.00 C 522.00,558.14 521.73,566.22 521.73,572.30 C 521.73,584.12 522.48,594.41 525.00,603.00 L 477.02,617.06 C 472.64,602.14 471.66,587.63 471.66,574.12 C 471.66,568.77 471.81,563.59 471.97,558.60 C 471.09,547.25 470.72,536.08 470.72,525.05 C 470.72,464.30 482.14,406.66 482.14,348.98 C 482.14,342.62 482.00,338.85 482.00,338.00 C 482.00,336.47 482.27,333.61 482.27,327.81 C 482.27,232.28 405.65,104.59 308.07,100.98 C 287.06,100.20 287.06,100.20 286.79,100.20 C 199.98,100.20 129.26,141.64 97.83,286.69 C 74.28,395.40 79.55,527.94 71.91,622.04 L 22.09,617.99 L 22.09,617.96 C 29.63,525.03 24.03,391.17 48.98,276.04 C 66.30,196.08 112.34,50.25 287.76,50.25 C 317.75,50.25 377.94,50.25 441.13,113.44 C 497.05,169.35 532.28,252.44 532.28,327.17 C 532.28,330.91 532.19,334.63 532.01,338.33 C 532.10,341.97 532.14,345.60 532.14,349.21 C 532.14,410.00 520.73,467.35 520.73,525.49 C 520.73,542.54 522.00,557.67 522.00,558.00  Z M 503.68,361.35 C 513.06,336.93 546.33,255.47 629.36,255.47 C 636.20,255.47 643.24,256.04 650.48,257.24 C 753.85,268.91 788.18,355.43 802.57,401.96 C 828.62,486.23 830.28,589.08 848.98,652.94 C 849.66,655.24 850.00,657.62 850.00,660.00 L 850.00,708.00 L 800.00,708.00 L 800.00,663.53 C 773.06,567.33 779.47,405.33 712.11,337.97 C 695.42,321.28 674.43,310.14 644.27,306.85 C 630.12,305.30 630.12,305.30 628.03,305.30 C 609.34,305.30 595.54,312.49 582.92,325.11 C 560.64,347.39 543.89,390.03 533.87,437.20 C 521.40,495.81 518.69,558.66 517.28,592.44 C 516.12,620.45 515.90,625.72 508.15,633.47 C 505.02,636.59 498.32,640.84 490.10,640.84 C 487.33,640.84 467.92,639.96 464.28,615.73 C 462.26,602.27 461.58,587.67 461.58,572.31 C 461.58,555.15 462.43,537.03 463.22,518.46 C 464.06,498.61 464.87,478.30 464.87,458.73 C 464.87,367.02 445.25,331.52 402.27,324.87 C 397.57,324.56 393.02,324.40 388.63,324.40 C 352.32,324.40 276.29,332.40 250.66,463.04 C 244.69,493.49 242.38,526.44 242.38,558.52 C 242.38,583.23 243.75,607.44 245.88,629.63 L 196.12,634.41 C 193.85,610.78 192.32,584.90 192.32,558.14 C 192.32,473.76 207.33,379.47 263.75,323.05 C 294.19,292.61 336.34,274.45 389.51,274.45 C 428.86,274.45 481.87,289.08 503.68,361.35 Z" transform="translate(4822.16,100.00) scale(0.8000,0.8000)" fill="#000000" />
  <path d="M 235.77,643.31 C 235.77,651.79 236.00,656.96 236.00,658.00 L 236.00,704.00 L 186.00,704.00 L 186.00,658.38 C 185.85,653.24 185.78,648.11 185.78,643.00 C 185.78,589.09 193.92,537.14 201.71,486.75 C 204.73,467.20 207.71,447.87 210.22,428.73 C 210.91,423.48 212.27,424.09 212.27,414.93 C 212.27,414.74 211.69,397.42 211.69,396.83 C 211.69,389.56 211.69,389.56 215.39,367.94 C 217.73,354.27 220.20,339.84 222.06,327.75 C 223.09,292.37 228.16,260.48 228.16,227.82 C 228.16,223.01 228.00,218.10 228.00,218.00 C 228.00,213.64 229.45,210.87 229.45,189.48 C 229.45,188.94 228.50,136.10 228.50,135.56 C 228.50,104.77 228.50,20.54 303.91,11.20 C 304.93,11.07 305.97,11.00 307.00,11.00 C 417.90,11.00 500.44,96.50 559.09,160.73 L 572.68,174.32 L 537.32,209.68 C 522.91,195.27 522.91,195.27 522.52,194.84 C 464.36,131.12 395.62,62.39 308.58,61.01 C 288.87,64.03 278.57,79.66 278.57,136.86 C 278.57,156.11 279.53,174.47 279.53,190.46 C 279.53,200.32 279.18,209.97 278.04,219.26 C 278.12,222.22 278.15,225.16 278.15,228.08 C 278.15,264.05 272.86,296.47 271.99,330.64 C 271.82,337.02 261.71,389.45 261.71,396.59 C 261.71,402.78 262.37,409.14 262.37,415.72 C 262.37,422.05 261.80,429.41 259.51,437.37 C 256.96,456.56 254.02,475.57 251.11,494.44 C 243.30,544.98 235.77,594.40 235.77,643.31  Z M 543.81,527.98 L 582.22,559.99 L 484.07,677.76 L 477.36,691.19 L 432.63,668.82 C 436.42,661.91 439.21,654.17 443.78,648.01 C 443.78,648.01 543.78,528.01 543.81,527.98  Z M 733.00,639.00 C 733.15,639.00 740.71,639.31 747.60,639.31 C 757.58,639.31 797.07,639.31 818.26,623.81 C 818.26,623.81 847.78,664.17 847.74,664.19 C 833.58,674.56 805.84,689.32 748.28,689.32 C 742.85,689.32 737.68,689.20 732.83,689.01 C 731.20,689.05 729.57,689.07 727.95,689.07 C 665.32,689.07 582.68,659.26 527.28,529.52 C 507.20,482.51 495.14,432.68 488.32,389.97 C 488.28,389.75 487.39,382.24 487.39,368.25 C 487.39,245.04 565.29,108.32 695.60,101.04 C 696.06,101.02 696.53,101.00 697.00,101.00 L 727.00,101.00 L 727.00,151.00 L 697.73,151.00 C 592.35,157.37 537.41,278.21 537.41,369.06 C 537.41,373.82 537.56,378.52 537.86,383.15 C 548.86,451.23 591.53,639.08 727.73,639.08 C 729.89,639.08 732.95,639.00 733.00,639.00 Z" transform="translate(5873.01,100.00) scale(0.8000,0.8000)" fill="#000000" />
  <path d="M 108.86,305.66 C 108.86,140.71 217.05,29.02 382.26,29.02 C 406.69,29.02 432.26,31.46 458.75,36.48 C 466.58,34.95 474.37,34.15 481.97,34.15 C 504.36,34.15 525.15,41.06 540.69,56.60 C 556.29,72.20 564.00,93.97 564.00,117.76 C 564.00,198.00 564.00,198.00 564.00,198.00 L 514.00,198.00 L 514.00,118.13 C 513.84,103.00 509.17,84.05 482.21,84.05 C 470.85,84.05 465.10,87.00 459.00,87.00 C 452.60,87.00 423.64,78.92 381.75,78.92 C 312.70,78.92 258.11,101.70 220.49,139.32 C 181.81,178.00 158.76,234.92 158.76,305.48 C 158.76,363.36 173.81,405.43 173.99,413.43 C 174.23,423.87 174.31,434.33 174.31,444.78 C 174.31,445.67 173.61,532.64 173.61,533.63 C 173.61,585.78 176.00,603.58 176.00,608.00 L 176.00,614.00 C 176.00,615.62 176.00,615.62 167.79,679.22 C 167.30,683.02 167.30,683.02 153.70,712.49 C 153.70,712.49 108.30,691.54 108.30,691.51 L 118.70,668.98 L 126.00,612.38 L 126.00,608.97 C 124.12,584.19 123.61,559.12 123.61,534.10 C 123.61,533.20 124.32,445.72 124.32,444.72 C 124.32,435.58 124.25,426.52 124.07,417.55 C 113.84,378.59 108.86,341.04 108.86,305.66  Z M 352.00,718.00 L 302.00,718.00 L 302.00,640.00 C 302.00,639.03 305.44,621.22 312.06,543.07 C 321.82,427.82 333.32,293.02 407.76,218.57 C 441.23,185.11 487.33,164.99 546.36,164.99 C 600.67,164.99 677.60,192.32 709.46,334.91 C 721.26,387.71 724.14,443.07 724.14,486.85 C 724.14,492.87 724.09,498.67 724.00,504.21 L 724.00,584.39 L 721.99,714.39 L 672.01,713.62 L 674.00,583.81 L 674.00,503.57 C 674.09,498.51 674.14,493.23 674.14,487.76 C 674.14,417.46 665.81,295.69 612.01,241.89 C 600.85,230.73 580.92,214.98 546.17,214.98 C 478.05,214.98 418.91,245.23 387.76,363.33 C 364.12,452.96 363.73,564.23 352.00,641.91 L 352.00,718.00 Z" transform="translate(6923.85,100.00) scale(0.8000,0.8000)" fill="#000000" />
  <path d="M 606.00,542.00 C 606.00,546.18 603.91,554.87 603.91,568.08 C 603.91,626.37 650.88,632.48 740.82,636.50 C 786.76,638.55 832.37,640.59 866.94,657.93 L 914.83,665.30 C 914.83,665.30 907.22,714.71 907.17,714.70 C 855.17,706.70 855.17,706.70 855.17,706.70 C 845.62,705.23 841.04,697.37 807.61,691.96 C 759.76,684.22 697.95,688.78 646.90,677.14 C 616.57,670.23 554.06,650.54 554.06,566.86 C 554.06,558.44 554.70,549.61 555.98,540.37 C 555.66,515.94 555.39,491.39 555.39,466.76 C 555.39,362.05 560.27,255.89 586.78,151.80 C 586.78,151.80 635.23,164.14 635.22,164.20 C 610.19,262.47 605.41,365.06 605.41,468.94 C 605.41,502.99 606.00,541.27 606.00,542.00  Z M 188.61,713.52 C 253.17,713.52 264.03,634.00 272.00,554.74 L 272.00,472.00 C 272.00,458.65 280.28,461.80 280.28,420.74 C 280.28,419.96 279.71,388.35 279.71,388.02 C 279.71,353.88 280.47,395.07 291.49,306.05 C 298.20,251.85 305.43,193.50 340.54,158.39 C 358.87,140.06 384.10,129.89 414.62,129.89 C 420.36,129.89 426.27,130.25 432.37,130.98 L 791.06,125.03 C 791.06,125.03 991.54,97.24 991.59,97.24 L 998.46,146.76 C 804.56,173.63 795.49,174.96 793.42,174.99 L 431.00,181.00 C 427.46,181.00 422.24,179.74 413.12,179.74 C 360.94,179.74 351.03,232.07 341.10,312.24 C 338.20,335.68 335.46,358.94 329.84,379.96 C 329.75,382.50 329.71,385.14 329.71,387.86 C 329.71,389.00 330.44,424.31 330.44,424.67 C 330.44,441.15 329.05,459.17 322.00,477.10 L 322.00,556.00 C 322.00,557.04 317.74,616.22 305.93,658.28 C 298.73,683.89 274.89,763.28 187.01,763.28 C 178.49,763.28 169.59,762.51 160.32,760.91 C 114.76,759.15 63.76,752.23 19.97,735.32 C 19.97,735.32 37.99,688.67 38.03,688.68 C 93.01,709.92 166.24,711.18 167.53,711.42 C 175.39,712.86 182.37,713.52 188.61,713.52 Z" transform="translate(7974.70,100.00) scale(0.8000,0.8000)" fill="#000000" />
</svg>
