<?xml version="1.0" encoding="UTF-8" standalone="no"?>
<!--
Representation of "jan sewi Onmonnonpontonkonwonjonlonson" in sitelen kalama pona
Generated by generate_sitelen_kalama_pona.py

Sources:
  jan-sewi: https://commons.wikimedia.org/wiki/File:Sitelen_seli_kiwen_-_jan-sewi.svg
  on: https://commons.wikimedia.org/wiki/File:Sitelen_kalama_pona_-_xon.svg
  mon: https://commons.wikimedia.org/wiki/File:Sitelen_kalama_pona_-_mon.svg
  non: https://commons.wikimedia.org/wiki/File:Sitelen_kalama_pona_-_non.svg
  pon: https://commons.wikimedia.org/wiki/File:Sitelen_kalama_pona_-_pon.svg
  ton: https://commons.wikimedia.org/wiki/File:Sitelen_kalama_pona_-_ton.svg
  kon: https://commons.wikimedia.org/wiki/File:Sitelen_kalama_pona_-_kon.svg
  won: https://commons.wikimedia.org/wiki/File:Sitelen_kalama_pona_-_won.svg
  jon: https://commons.wikimedia.org/wiki/File:Sitelen_kalama_pona_-_jon.svg
  lon: https://commons.wikimedia.org/wiki/File:Sitelen_kalama_pona_-_lon.svg
  son: https://commons.wikimedia.org/wiki/File:Sitelen_kalama_pona_-_son.svg
-->
<svg version="1.1" width="12382" height="1000"
     viewBox="0 0 12382 1000"
     xmlns="http://www.w3.org/2000/svg">
  <path d="M426 418Q426 424 432.5 441.5Q439 459 439 475Q439 490 446.5 503.5Q454 517 468 517Q475 517 484 512Q505 501 505 477Q505 450 492.5 420.0Q480 390 470.5 376.5Q461 363 455 357Q446 348 438.0 346.0Q430 344 400 344Q332 344 313 347Q299 349 288.0 369.5Q277 390 277 408Q277 432 299 432Q308 432 316.5 423.5Q325 415 332 415Q348 415 348 437V444Q346 455 348.0 459.0Q350 463 357 468Q365 473 372 473Q384 473 393.0 457.0Q402 441 409.0 425.0Q416 409 422 409Q426 409 426 418ZM521 544Q522 572 527.5 581.0Q533 590 554.0 590.0Q575 590 582 583Q586 579 586 542Q586 493 579.0 454.0Q572 415 572 415Q572 405 581 399Q590 392 588 385Q584 368 583 358Q581 339 573.5 332.0Q566 325 547 325Q532 325 526.5 331.0Q521 337 521 354Q521 391 518.0 394.0Q515 397 515 414Q515 426 516 433Q517 444 517 451Q517 460 515.5 466.0Q514 472 514 474Q514 479 516 489Q519 500 521 544ZM201 326Q201 332 194.0 337.5Q187 343 187 348Q187 357 178.5 381.0Q170 405 167 405Q164 406 166.0 409.0Q168 412 170.5 420.5Q173 429 171 436Q170 438 170 442Q170 456 179.5 482.5Q189 509 198.5 529.5Q208 550 210 550Q211 550 215.0 558.5Q219 567 225.0 577.5Q231 588 238 592Q249 599 268.5 620.0Q288 641 291.0 649.0Q294 657 323.5 675.0Q353 693 377 701Q398 708 412 715Q418 718 433 716Q452 714 495 712Q554 709 602 683Q624 670 645.0 651.0Q666 632 677.0 619.0Q688 606 689 606Q693 606 693 600Q693 592 703 584Q715 574 733.0 531.5Q751 489 751 473Q751 467 751.0 467.0Q751 467 750.5 470.0Q750 473 750 473Q749 473 749 442Q749 422 742.0 396.5Q735 371 728 364Q725 361 716.0 350.5Q707 340 696.0 323.0Q685 306 685 298Q685 286 696.5 269.0Q708 252 710 245Q713 236 724.0 220.5Q735 205 735 203Q735 198 742.0 198.0Q749 198 749 190Q749 184 780.0 149.0Q811 114 811 94Q811 63 783 63Q758 63 732 87Q723 95 721.5 99.0Q720 103 720.0 117.0Q720 131 694.5 159.0Q669 187 663 200Q655 217 640 233L623 251L605 241Q553 213 495 213Q481 213 460.5 208.0Q440 203 403 203Q356 203 348 209Q342 214 321 224L302 234L259 191Q215 147 215 143Q215 140 211.5 138.0Q208 136 196.5 125.5Q185 115 171 95Q145 58 130 58Q126 58 117.5 60.0Q109 62 99.0 69.5Q89 77 89 88Q89 106 126.0 148.5Q163 191 200.5 229.0Q238 267 238 273Q238 276 219.5 297.5Q201 319 201 326ZM690 464Q690 498 682.5 520.0Q675 542 665.5 548.5Q656 555 648.5 559.5Q641 564 641 568Q641 573 614.5 599.0Q588 625 583 625Q581 625 576.5 629.5Q572 634 558.5 641.0Q545 648 522 653Q483 662 441 662Q385 662 385 649Q385 642 384.5 639.0Q384 636 380.0 633.0Q376 630 368 630Q358 630 337.0 605.5Q316 581 312 580Q293 577 283.0 566.5Q273 556 246 515Q224 478 224 432Q224 375 267 335Q288 316 290.0 316.0Q292 316 304.0 306.5Q316 297 324 297Q333 297 338 290Q342 284 377.5 276.0Q413 268 432 268Q446 268 495.5 278.0Q545 288 562 298Q570 303 587 308Q600 311 622.5 332.5Q645 354 653 370Q660 386 667 386Q677 386 683.5 409.5Q690 433 690 464Z" transform="translate(0.00,750.00) scale(0.7500,-0.7500)" fill="#000000" />
  <path d="M 24.637998,12.488337 H 20.72216 q -1.48166,0 -2.54,-1.058333 -1.05833,-1.058333 -1.05833,-2.54 V 3.598338 q 0,-1.481667 1.05833,-2.54 Q 19.2405,4e-6 20.72216,4e-6 h 3.915838 V 0.846671 H 20.72216 q -1.13241,0 -1.94733,0.814917 -0.80433,0.804333 -0.80433,1.93675 v 5.291666 q 0,1.132417 0.80433,1.93675 0.81492,0.814917 1.94733,0.814917 h 3.915838 z" transform="translate(-616.19,0.00) scale(80.0747,80.0747)" fill="#000000" />
  <path d="M 75.014662,0.846671 V 4e-6 h 13.123333 v 0.846667 z m 0,11.641666 v -0.846666 h 13.123333 v 0.846666 z" transform="translate(-4650.08,0.00) scale(80.0747,80.0747)" fill="#000000" />
  <path d="M 75.014662,0.846671 V 4e-6 h 13.123333 v 0.846667 z m 0,11.641666 v -0.846666 h 13.123333 v 0.846666 z" transform="translate(-3599.24,0.00) scale(80.0747,80.0747)" fill="#000000" />
  <path d="M 75.014662,0.846671 V 4e-6 h 13.123333 v 0.846667 z m 0,11.641666 v -0.846666 h 13.123333 v 0.846666 z" transform="translate(-2548.39,0.00) scale(80.0747,80.0747)" fill="#000000" />
  <path d="M 75.014662,0.846671 V 4e-6 h 13.123333 v 0.846667 z m 0,11.641666 v -0.846666 h 13.123333 v 0.846666 z" transform="translate(-1497.54,0.00) scale(80.0747,80.0747)" fill="#000000" />
  <path d="M 75.014662,0.846671 V 4e-6 h 13.123333 v 0.846667 z m 0,11.641666 v -0.846666 h 13.123333 v 0.846666 z" transform="translate(-446.69,0.00) scale(80.0747,80.0747)" fill="#000000" />
  <path d="M 75.014662,0.846671 V 4e-6 h 13.123333 v 0.846667 z m 0,11.641666 v -0.846666 h 13.123333 v 0.846666 z" transform="translate(604.15,0.00) scale(80.0747,80.0747)" fill="#000000" />
  <path d="M 75.014662,0.846671 V 4e-6 h 13.123333 v 0.846667 z m 0,11.641666 v -0.846666 h 13.123333 v 0.846666 z" transform="translate(1655.00,0.00) scale(80.0747,80.0747)" fill="#000000" />
  <path d="M 75.014662,0.846671 V 4e-6 h 13.123333 v 0.846667 z m 0,11.641666 v -0.846666 h 13.123333 v 0.846666 z" transform="translate(2705.85,0.00) scale(80.0747,80.0747)" fill="#000000" />
  <path d="M 75.014662,0.846671 V 4e-6 h 13.123333 v 0.846667 z m 0,11.641666 v -0.846666 h 13.123333 v 0.846666 z" transform="translate(3756.69,0.00) scale(80.0747,80.0747)" fill="#000000" />
  <path d="M 75.014662,0.846671 V 4e-6 h 13.123333 v 0.846667 z m 0,11.641666 v -0.846666 h 13.123333 v 0.846666 z" transform="translate(4807.54,0.00) scale(80.0747,80.0747)" fill="#000000" />
  <path d="m 87.714667,4e-6 h 2.8575 q 1.481666,0 2.54,1.058334 1.058333,1.058333 1.058333,2.54 v 5.291666 q 0,1.481667 -1.058333,2.54 -1.058334,1.058333 -2.54,1.058333 h -2.8575 v -0.846666 h 2.8575 q 1.132416,0 1.93675,-0.814917 0.814916,-0.804333 0.814916,-1.93675 V 3.598338 q 0,-1.132417 -0.814916,-1.93675 -0.804334,-0.814917 -1.93675,-0.814917 h -2.8575 z" transform="translate(4841.44,0.00) scale(80.0747,80.0747)" fill="#000000" />
  <path d="M 696.97,919.05 C 674.44,948.87 632.91,993.83 576.63,993.83 C 572.95,993.83 569.21,993.63 565.42,993.23 C 561.47,993.77 557.57,994.03 553.76,994.03 C 488.41,994.03 476.89,920.82 445.97,905.03 C 442.41,905.11 356.92,907.67 328.90,963.95 L 327.51,970.93 C 327.51,970.93 278.48,961.13 278.49,961.07 C 281.06,948.25 281.06,948.25 282.24,945.65 C 309.44,885.75 381.06,855.00 449.40,855.00 C 452.31,855.00 455.42,855.00 459.59,856.52 C 514.08,876.38 521.77,944.13 553.32,944.13 C 558.45,944.13 560.74,943.00 565.00,943.00 C 568.53,943.00 570.42,943.80 576.29,943.80 C 597.35,943.80 624.89,931.51 657.06,888.91 L 696.97,919.05  Z M 405.57,45.42 C 405.57,31.84 411.12,11.03 439.72,-6.05 C 437.75,-9.45 436.49,-11.65 436.49,-11.65 C 437.81,-12.41 439.67,-13.62 441.95,-15.11 C 449.96,-20.36 465.44,-30.65 485.97,-30.65 C 490.00,-30.65 494.23,-30.26 498.63,-29.35 C 499.93,-29.44 501.22,-29.48 502.50,-29.48 C 534.82,-29.48 566.26,-0.74 566.26,33.81 C 566.26,35.31 566.20,36.83 566.08,38.36 C 566.26,41.15 566.35,44.05 566.35,47.02 C 566.35,94.44 544.00,119.21 515.75,119.21 C 510.35,119.21 505.06,118.28 500.01,116.72 C 453.60,113.40 433.22,101.72 421.59,90.09 C 412.22,80.72 405.93,67.15 405.93,52.04 C 405.93,51.83 405.94,51.63 405.94,51.42 C 405.69,49.38 405.57,47.38 405.57,45.42  Z M 497.00,21.00 C 491.07,21.00 488.90,19.13 485.11,19.13 C 483.17,19.13 481.33,19.65 479.00,20.82 L 479.00,29.09 L 482.30,28.31 C 481.19,28.87 480.10,29.41 479.00,29.94 L 479.00,31.00 L 476.84,31.00 C 470.82,33.95 457.58,40.86 455.53,45.18 C 456.00,48.78 456.00,48.78 456.00,50.00 C 456.00,50.91 455.86,53.06 455.86,53.09 C 455.86,54.15 463.18,64.32 506.58,67.05 C 508.76,67.19 510.92,67.61 513.00,68.31 C 514.78,63.88 516.32,56.96 516.32,46.42 C 516.32,43.62 516.00,38.08 516.00,38.00 C 516.00,35.79 516.26,34.92 516.26,33.95 C 516.26,26.63 506.83,20.59 501.68,20.59 C 501.22,20.59 499.67,21.00 497.00,21.00  Z M 726.07,683.11 C 645.27,548.17 550.45,364.51 474.13,237.67 C 394.80,382.97 319.93,539.95 257.34,684.76 L 726.07,683.11  Z M 473.00,163.00 C 476.09,163.00 487.35,163.79 494.20,174.75 C 589.58,327.13 677.89,507.44 778.38,673.04 C 780.79,677.01 782.00,681.50 782.00,686.00 L 782.00,708.00 C 782.00,721.78 770.87,732.95 757.09,732.99 L 189.09,734.99 L 188.91,685.01 L 203.47,684.95 L 199.81,677.64 L 207.63,673.73 C 276.96,512.63 361.51,336.11 451.17,175.80 C 455.46,168.14 463.66,163.00 473.00,163.00 Z" transform="translate(1432.12,0.00) scale(0.9000,0.9000)" fill="#000000" />
  <path d="M 427.60,902.87 C 389.78,902.87 353.14,925.73 345.61,968.37 C 345.61,968.37 296.38,959.68 296.39,959.63 C 307.82,894.86 363.43,852.88 427.55,852.88 C 429.20,852.88 430.85,852.91 432.51,852.97 C 434.36,852.84 436.19,852.78 437.99,852.78 C 480.36,852.78 501.45,883.93 516.73,906.51 C 531.67,928.57 539.40,938.05 553.12,938.05 C 564.33,938.05 570.54,933.00 579.00,933.00 C 582.08,933.00 583.38,933.56 587.73,933.56 C 603.39,933.56 618.75,925.01 637.89,909.68 L 684.62,859.05 L 721.38,892.95 C 672.14,946.30 672.14,946.30 670.72,947.44 C 649.72,964.45 622.72,983.58 588.06,983.58 C 586.01,983.58 583.93,983.51 581.83,983.38 C 571.83,986.40 562.14,987.94 552.89,987.94 C 511.48,987.94 490.96,957.64 475.30,934.51 C 458.85,910.21 451.66,902.71 439.15,902.71 C 436.30,902.71 435.16,903.00 433.00,903.00 C 432.95,903.00 429.39,902.87 427.60,902.87  Z M 511.28,25.10 C 512.85,25.10 517.81,25.00 517.87,25.00 C 549.57,25.00 583.54,46.86 599.87,65.60 C 603.95,70.29 606.00,76.14 606.00,82.00 C 606.00,91.26 604.15,82.61 600.25,117.26 C 597.39,142.60 594.27,170.26 575.80,188.73 C 573.99,190.54 558.85,205.00 537.00,205.00 C 535.74,205.00 445.42,198.95 425.64,146.91 C 424.15,143.00 423.42,136.54 423.42,127.50 C 423.42,99.78 432.93,71.54 452.07,51.20 L 446.64,39.24 C 471.02,28.16 471.02,28.16 473.59,27.59 C 483.71,25.36 492.19,24.93 499.15,24.93 C 503.52,24.93 506.85,25.10 511.28,25.10  Z M 501.75,77.00 C 483.80,81.87 473.47,107.70 473.47,128.46 C 473.47,131.51 473.47,131.51 475.48,133.52 C 482.57,140.61 502.29,150.19 537.44,154.86 C 545.54,153.62 548.40,130.91 550.57,111.62 C 551.35,104.72 552.05,97.61 553.30,90.40 C 551.98,89.39 532.81,74.99 517.71,74.99 C 517.36,74.99 515.04,75.09 511.26,75.09 C 510.48,75.09 509.73,75.08 509.00,75.07 L 509.00,77.00 L 501.75,77.00  Z M 179.96,701.01 C 179.96,701.11 180.20,710.60 180.20,710.86 C 180.20,724.06 176.92,738.87 163.58,750.71 L 130.43,713.36 C 130.46,712.83 130.18,712.01 130.18,710.91 C 130.18,706.74 129.88,704.02 129.88,700.00 C 129.88,695.51 130.27,689.98 132.00,683.90 L 132.00,595.14 C 131.39,588.20 131.09,581.29 131.09,574.43 C 131.09,431.92 261.15,306.50 405.85,306.50 C 414.04,306.50 424.71,306.50 430.50,308.87 C 464.78,322.92 494.83,350.67 510.23,401.49 C 519.17,359.67 535.37,316.53 570.38,285.33 C 575.10,281.11 581.05,279.00 587.00,279.00 C 588.16,279.00 643.17,285.03 690.42,332.27 C 770.07,411.92 779.99,554.14 787.57,664.05 C 788.96,684.25 790.26,703.03 791.88,719.59 L 742.12,724.45 C 740.41,706.88 739.09,687.72 737.70,667.52 C 728.50,534.22 715.33,367.60 594.66,331.72 C 527.03,408.83 562.03,586.34 524.78,701.71 C 521.52,711.83 512.03,719.00 501.00,719.00 C 490.34,719.00 481.15,712.31 477.59,702.78 C 472.27,688.54 470.88,674.06 470.88,660.20 C 470.88,644.17 472.93,625.30 472.93,607.65 C 472.93,591.42 471.92,602.52 471.92,579.41 C 471.92,558.61 472.71,536.95 472.71,513.33 C 472.71,440.00 464.42,379.40 415.12,356.70 C 412.11,356.56 409.10,356.50 406.09,356.50 C 289.03,356.50 181.09,459.31 181.09,574.64 C 181.09,583.02 182.00,593.81 182.00,594.00 L 182.00,688.00 C 182.00,691.21 181.38,694.41 180.16,697.43 C 180.16,697.43 179.96,698.02 179.96,701.01 Z" transform="translate(2482.97,0.00) scale(0.9000,0.9000)" fill="#000000" />
  <path d="M 427.60,902.87 C 389.78,902.87 353.14,925.73 345.61,968.37 C 345.61,968.37 296.38,959.68 296.39,959.63 C 307.82,894.86 363.43,852.88 427.55,852.88 C 429.20,852.88 430.85,852.91 432.51,852.97 C 434.36,852.84 436.19,852.78 437.99,852.78 C 480.36,852.78 501.45,883.93 516.73,906.51 C 531.67,928.57 539.40,938.05 553.12,938.05 C 564.33,938.05 570.54,933.00 579.00,933.00 C 582.08,933.00 583.38,933.56 587.73,933.56 C 603.39,933.56 618.75,925.01 637.89,909.68 L 684.62,859.05 L 721.38,892.95 C 672.14,946.30 672.14,946.30 670.72,947.44 C 649.72,964.45 622.72,983.58 588.06,983.58 C 586.01,983.58 583.93,983.51 581.83,983.38 C 571.83,986.40 562.14,987.94 552.89,987.94 C 511.48,987.94 490.96,957.64 475.30,934.51 C 458.85,910.21 451.66,902.71 439.15,902.71 C 436.30,902.71 435.16,903.00 433.00,903.00 C 432.95,903.00 429.39,902.87 427.60,902.87  Z M 484.85,140.72 C 498.91,135.89 508.23,120.14 508.23,108.48 C 508.23,106.67 508.00,106.13 508.00,104.00 C 508.00,101.90 508.27,99.80 508.79,97.76 C 507.10,97.00 506.12,97.00 505.00,97.00 C 504.40,97.00 504.40,97.00 467.34,95.23 C 460.88,102.77 457.18,113.06 457.18,123.45 C 457.18,128.76 458.00,130.25 458.00,134.00 C 458.00,135.67 457.83,137.34 457.50,138.99 C 467.93,140.38 479.80,140.38 484.85,140.72  Z M 407.16,123.19 C 407.16,64.28 457.98,35.00 477.00,35.00 L 489.00,35.00 L 489.00,46.21 L 505.38,46.99 C 505.57,46.99 505.75,46.99 505.94,46.99 C 535.01,46.99 558.86,68.41 558.86,97.33 C 558.86,100.07 558.64,102.85 558.18,105.65 C 558.23,106.79 558.26,107.93 558.26,109.06 C 558.26,146.76 528.94,182.95 492.03,190.49 C 490.37,190.83 488.69,191.00 487.00,191.00 C 486.58,191.00 456.43,190.11 444.99,187.77 C 425.76,183.84 405.91,171.34 405.91,144.93 C 405.91,140.47 406.52,136.15 407.56,131.93 C 407.29,129.02 407.16,126.10 407.16,123.19  Z M 475.99,304.03 C 367.51,354.20 275.90,489.17 275.90,607.03 C 275.90,608.96 275.92,610.89 275.97,612.81 C 275.97,612.81 283.94,730.30 283.94,730.32 L 234.06,733.70 C 225.90,613.35 225.90,613.35 225.90,606.73 C 225.90,460.75 338.22,308.22 463.19,255.00 C 466.31,253.67 469.66,253.00 473.00,253.00 C 474.28,253.00 535.68,258.03 587.30,309.65 C 665.60,387.94 681.85,525.26 695.34,640.23 C 698.12,663.90 700.75,686.25 703.72,706.31 L 703.73,706.36 L 654.28,713.69 C 651.14,692.55 648.47,669.77 645.70,646.10 C 628.28,497.70 606.66,331.93 475.99,304.03 Z" transform="translate(3533.81,0.00) scale(0.9000,0.9000)" fill="#000000" />
  <path d="M 427.60,902.87 C 389.78,902.87 353.14,925.73 345.61,968.37 C 345.61,968.37 296.38,959.68 296.39,959.63 C 307.82,894.86 363.43,852.88 427.55,852.88 C 429.20,852.88 430.85,852.91 432.51,852.97 C 434.36,852.84 436.19,852.78 437.99,852.78 C 480.36,852.78 501.45,883.93 516.73,906.51 C 531.67,928.57 539.40,938.05 553.12,938.05 C 564.33,938.05 570.54,933.00 579.00,933.00 C 582.08,933.00 583.38,933.56 587.73,933.56 C 603.39,933.56 618.75,925.01 637.89,909.68 L 684.62,859.05 L 721.38,892.95 C 672.14,946.30 672.14,946.30 670.72,947.44 C 649.72,964.45 622.72,983.58 588.06,983.58 C 586.01,983.58 583.93,983.51 581.83,983.38 C 571.83,986.40 562.14,987.94 552.89,987.94 C 511.48,987.94 490.96,957.64 475.30,934.51 C 458.85,910.21 451.66,902.71 439.15,902.71 C 436.30,902.71 435.16,903.00 433.00,903.00 C 432.95,903.00 429.39,902.87 427.60,902.87  Z M 406.00,138.00 C 406.00,140.69 406.00,140.69 404.24,147.49 C 406.55,148.67 412.23,150.03 418.10,150.03 C 423.55,150.03 424.53,149.00 429.00,149.00 C 431.12,149.00 433.23,149.27 435.30,149.81 C 439.73,149.81 446.67,144.08 446.67,138.37 C 446.67,137.07 446.00,135.56 446.00,132.00 C 446.00,125.92 447.91,124.20 447.91,119.16 C 447.91,109.21 439.01,100.80 430.06,97.90 C 413.57,108.32 405.72,123.22 405.72,133.14 C 405.72,135.03 406.00,135.64 406.00,138.00  Z M 416.96,200.19 C 381.00,200.19 354.13,179.20 354.13,148.66 C 354.13,144.22 354.70,139.79 355.75,135.45 C 355.71,134.48 355.69,133.51 355.69,132.55 C 355.69,107.83 368.47,86.53 383.75,71.25 C 389.45,65.55 395.72,60.41 402.45,56.02 L 400.45,50.50 C 407.17,48.07 413.94,46.81 420.61,46.55 C 420.82,46.46 434.57,41.00 443.00,41.00 L 447.00,41.00 L 447.00,50.66 C 476.09,60.97 497.84,88.20 497.84,119.55 C 497.84,124.02 497.40,128.59 496.44,133.22 C 496.62,135.03 496.70,136.82 496.70,138.58 C 496.70,171.62 467.03,199.90 435.98,199.90 C 433.58,199.90 431.15,199.73 428.68,199.39 C 424.82,199.91 420.90,200.19 416.96,200.19  Z M 510.22,318.48 C 510.22,313.24 510.00,308.10 510.00,308.00 L 510.00,272.00 L 560.00,272.00 L 560.00,307.44 C 560.16,311.26 560.22,314.99 560.22,318.65 C 560.22,330.41 559.57,341.35 559.57,353.04 C 559.57,371.00 561.93,382.13 561.95,382.43 L 563.95,414.45 L 514.05,417.57 L 512.15,387.07 C 510.07,375.39 509.53,364.25 509.53,353.78 C 509.53,342.13 510.22,330.05 510.22,318.48  Z M 262.00,588.00 C 262.00,590.55 261.51,592.50 261.51,598.12 C 261.51,619.41 271.01,666.82 306.04,667.01 C 679.13,669.01 679.13,669.01 679.13,669.01 L 678.87,718.99 C 304.05,716.99 304.05,716.99 303.23,716.93 C 246.41,712.93 211.46,658.55 211.46,599.37 C 211.46,595.29 211.63,591.27 211.96,587.35 C 211.63,578.56 211.47,569.80 211.47,561.05 C 211.47,455.79 234.78,354.11 265.14,256.54 C 265.14,256.54 312.88,271.40 312.86,271.46 C 283.23,366.68 261.46,463.35 261.46,561.21 C 261.46,576.57 262.00,586.52 262.00,588.00  Z M 753.08,241.01 L 752.92,290.99 L 140.92,288.99 L 141.08,239.01 L 753.08,241.01 Z" transform="translate(4584.66,0.00) scale(0.9000,0.9000)" fill="#000000" />
  <path d="M 427.60,902.87 C 389.78,902.87 353.14,925.73 345.61,968.37 C 345.61,968.37 296.38,959.68 296.39,959.63 C 307.82,894.86 363.43,852.88 427.55,852.88 C 429.20,852.88 430.85,852.91 432.51,852.97 C 434.36,852.84 436.19,852.78 437.99,852.78 C 480.36,852.78 501.45,883.93 516.73,906.51 C 531.67,928.57 539.40,938.05 553.12,938.05 C 564.33,938.05 570.54,933.00 579.00,933.00 C 582.08,933.00 583.38,933.56 587.73,933.56 C 603.39,933.56 618.75,925.01 637.89,909.68 L 684.62,859.05 L 721.38,892.95 C 672.14,946.30 672.14,946.30 670.72,947.44 C 649.72,964.45 622.72,983.58 588.06,983.58 C 586.01,983.58 583.93,983.51 581.83,983.38 C 571.83,986.40 562.14,987.94 552.89,987.94 C 511.48,987.94 490.96,957.64 475.30,934.51 C 458.85,910.21 451.66,902.71 439.15,902.71 C 436.30,902.71 435.16,903.00 433.00,903.00 C 432.95,903.00 429.39,902.87 427.60,902.87  Z M 394.00,124.00 C 394.00,81.45 444.29,65.03 462.44,59.10 C 462.44,59.10 462.90,53.08 462.93,53.08 C 494.27,55.49 494.27,55.49 498.95,58.04 C 514.72,66.62 544.03,82.57 544.03,118.54 C 544.03,118.87 544.02,119.19 544.02,119.52 C 544.10,120.95 544.14,122.38 544.14,123.81 C 544.14,157.82 521.51,193.00 485.48,193.00 C 467.69,193.00 430.32,180.54 399.02,139.03 C 395.68,134.60 394.00,129.30 394.00,124.00  Z M 486.35,142.95 C 488.73,142.04 494.13,133.57 494.13,123.32 C 494.13,121.96 494.00,121.60 494.00,120.00 C 494.00,118.93 494.08,118.15 494.08,117.18 C 494.08,115.59 494.08,113.18 481.33,105.54 C 468.40,109.74 456.48,113.88 448.31,119.91 C 453.65,125.47 469.09,140.05 486.35,142.95  Z M 446.02,428.68 C 446.02,427.98 445.86,367.32 445.86,366.70 C 445.86,326.74 446.47,286.29 450.11,245.75 C 450.11,245.75 499.90,250.22 499.89,250.25 C 496.44,288.67 495.85,328.01 495.85,367.85 C 495.85,368.62 496.01,428.05 496.01,428.66 C 496.01,441.70 496.01,442.63 494.33,446.99 C 483.61,474.89 479.21,498.48 479.21,518.20 C 479.21,626.87 616.98,643.92 686.53,643.92 C 703.77,643.92 715.09,643.00 717.00,643.00 L 827.46,645.01 C 827.46,645.01 826.55,694.99 826.54,694.99 C 717.52,693.01 717.52,693.01 717.52,693.01 C 707.08,693.62 696.55,693.94 685.98,693.94 C 541.10,693.94 429.22,635.50 429.22,518.13 C 429.22,492.19 434.72,463.99 446.01,433.40 C 446.02,431.83 446.02,430.26 446.02,428.68  Z M 162.45,275.00 C 332.96,267.45 512.54,213.00 685.47,213.00 C 685.98,213.00 686.49,213.00 687.00,213.00 C 687.04,213.00 802.32,213.00 834.66,213.00 L 844.02,205.98 C 844.02,205.98 874.02,245.99 873.98,246.02 C 857.98,258.02 857.98,258.02 857.98,258.02 C 853.56,261.34 848.28,263.00 843.00,263.00 L 685.59,263.00 C 518.31,263.00 339.14,317.32 164.10,324.97 C 163.73,324.99 163.37,325.00 163.00,325.00 L 151.00,325.00 L 151.00,275.00 L 162.45,275.00 Z" transform="translate(5635.51,0.00) scale(0.9000,0.9000)" fill="#000000" />
  <path d="M 427.60,902.87 C 389.78,902.87 353.14,925.73 345.61,968.37 C 345.61,968.37 296.38,959.68 296.39,959.63 C 307.82,894.86 363.43,852.88 427.55,852.88 C 429.20,852.88 430.85,852.91 432.51,852.97 C 434.36,852.84 436.19,852.78 437.99,852.78 C 480.36,852.78 501.45,883.93 516.73,906.51 C 531.67,928.57 539.40,938.05 553.12,938.05 C 564.33,938.05 570.54,933.00 579.00,933.00 C 582.08,933.00 583.38,933.56 587.73,933.56 C 603.39,933.56 618.75,925.01 637.89,909.68 L 684.62,859.05 L 721.38,892.95 C 672.14,946.30 672.14,946.30 670.72,947.44 C 649.72,964.45 622.72,983.58 588.06,983.58 C 586.01,983.58 583.93,983.51 581.83,983.38 C 571.83,986.40 562.14,987.94 552.89,987.94 C 511.48,987.94 490.96,957.64 475.30,934.51 C 458.85,910.21 451.66,902.71 439.15,902.71 C 436.30,902.71 435.16,903.00 433.00,903.00 C 432.95,903.00 429.39,902.87 427.60,902.87  Z M 426.34,506.44 L 451.67,549.56 L 291.66,643.56 C 290.58,644.20 289.45,644.75 288.31,645.21 C 288.31,645.21 258.31,657.21 258.27,657.22 L 239.69,610.79 L 267.95,599.49 L 426.34,506.44  Z M 220.32,92.24 L 249.64,51.73 C 403.26,162.90 403.26,162.90 404.68,164.32 L 426.68,186.32 L 391.32,221.68 L 370.74,201.10 C 370.74,201.10 220.36,92.27 220.32,92.24  Z M 412.42,1.79 C 425.88,-17.66 453.81,-37.10 480.37,-37.10 C 481.06,-37.10 481.75,-37.09 482.45,-37.07 C 483.56,-37.15 484.68,-37.19 485.81,-37.19 C 496.20,-37.19 526.13,-33.36 526.13,10.70 C 526.13,11.12 526.00,19.91 526.00,20.00 C 526.00,20.91 524.70,83.19 489.56,103.62 C 485.77,105.82 481.44,107.15 474.34,107.15 C 460.69,107.15 452.48,102.45 442.02,96.45 C 430.78,95.15 396.62,88.28 396.62,52.87 C 396.62,36.99 404.11,21.80 416.69,4.75 L 412.42,1.79  Z M 467.18,23.70 C 466.63,23.82 465.05,24.28 465.03,24.28 C 456.88,33.96 451.87,41.16 449.01,46.91 C 455.31,47.58 458.35,47.90 468.48,53.98 C 475.41,38.82 476.08,14.20 476.08,13.79 C 474.23,14.35 472.46,15.10 470.60,16.07 L 471.65,16.64 C 469.86,18.65 467.90,20.88 465.90,23.24 L 467.18,23.70  Z M 350.38,315.35 C 350.38,177.00 476.98,82.97 616.69,82.97 C 618.25,82.97 619.82,82.98 621.38,83.01 L 620.62,132.99 C 619.34,132.97 618.06,132.96 616.78,132.96 C 508.34,132.96 400.29,202.94 400.29,314.65 C 400.29,336.19 403.98,348.62 403.99,353.91 C 404.54,499.96 526.18,607.44 666.19,617.03 L 739.68,619.01 L 738.33,668.99 C 689.91,667.68 664.07,666.99 663.32,666.94 C 496.06,655.76 355.88,526.43 354.02,356.34 C 351.56,342.32 350.38,328.64 350.38,315.35 Z" transform="translate(6686.35,0.00) scale(0.9000,0.9000)" fill="#000000" />
  <path d="M 427.60,902.87 C 389.78,902.87 353.14,925.73 345.61,968.37 C 345.61,968.37 296.38,959.68 296.39,959.63 C 307.82,894.86 363.43,852.88 427.55,852.88 C 429.20,852.88 430.85,852.91 432.51,852.97 C 434.36,852.84 436.19,852.78 437.99,852.78 C 480.36,852.78 501.45,883.93 516.73,906.51 C 531.67,928.57 539.40,938.05 553.12,938.05 C 564.33,938.05 570.54,933.00 579.00,933.00 C 582.08,933.00 583.38,933.56 587.73,933.56 C 603.39,933.56 618.75,925.01 637.89,909.68 L 684.62,859.05 L 721.38,892.95 C 672.14,946.30 672.14,946.30 670.72,947.44 C 649.72,964.45 622.72,983.58 588.06,983.58 C 586.01,983.58 583.93,983.51 581.83,983.38 C 571.83,986.40 562.14,987.94 552.89,987.94 C 511.48,987.94 490.96,957.64 475.30,934.51 C 458.85,910.21 451.66,902.71 439.15,902.71 C 436.30,902.71 435.16,903.00 433.00,903.00 C 432.95,903.00 429.39,902.87 427.60,902.87  Z M 579.00,377.00 C 584.09,377.00 593.93,380.00 610.89,380.00 C 627.25,380.00 656.56,377.06 680.18,352.64 C 686.98,312.94 696.38,275.42 712.91,244.28 C 714.15,241.94 720.72,231.00 735.00,231.00 C 748.27,231.00 759.19,241.35 759.95,254.55 C 760.20,258.89 760.33,263.21 760.33,267.50 C 760.33,307.33 749.56,344.69 727.68,373.85 C 724.42,393.89 721.56,414.99 718.76,436.46 C 706.64,529.11 694.50,621.92 642.26,674.15 C 621.59,694.82 589.57,713.59 541.44,713.59 C 517.14,713.59 490.37,708.93 460.51,699.47 C 456.16,699.89 451.79,700.08 447.41,700.08 C 419.96,700.08 386.31,692.42 359.58,682.66 L 309.14,678.93 C 309.14,678.93 312.83,629.07 312.86,629.07 C 370.51,633.34 370.51,633.34 373.92,634.64 C 389.19,640.46 420.54,650.01 447.84,650.01 C 457.05,650.01 459.14,649.00 463.00,649.00 C 472.48,649.00 503.34,663.60 541.62,663.60 C 584.92,663.60 621.59,644.89 644.81,566.08 C 656.71,525.66 662.97,477.71 670.71,418.28 C 652.54,425.85 632.13,429.88 610.01,429.88 C 600.28,429.88 590.21,429.09 579.85,427.49 C 571.59,429.26 563.55,430.10 555.77,430.10 C 530.28,430.10 507.76,421.04 490.40,405.97 C 481.06,418.03 459.72,439.58 426.55,439.58 C 424.59,439.58 422.60,439.50 420.59,439.34 C 410.14,441.68 399.64,442.79 389.23,442.79 C 309.16,442.79 233.05,376.77 233.05,293.60 C 233.05,284.36 234.00,274.89 236.00,265.28 L 236.00,246.00 L 286.00,246.00 L 286.00,268.00 C 286.00,274.05 283.02,279.84 283.02,293.85 C 283.02,349.12 336.69,392.69 389.77,392.69 C 406.22,392.69 412.18,389.00 419.00,389.00 C 422.37,389.00 423.46,389.61 426.89,389.61 C 442.25,389.61 453.41,374.31 458.58,361.01 C 450.28,341.45 446.28,319.79 446.28,298.37 C 446.28,286.63 446.28,266.54 455.98,256.84 C 459.38,253.43 466.33,249.39 474.38,249.39 C 497.29,249.39 501.14,272.61 504.49,292.80 C 505.81,300.78 512.00,344.70 512.00,348.00 C 512.00,350.16 511.59,353.88 511.54,354.27 C 519.41,366.86 532.89,380.37 554.57,380.37 C 566.68,380.37 572.35,377.00 579.00,377.00  Z M 470.81,79.75 C 461.48,85.09 438.75,99.98 436.06,126.26 C 438.10,148.94 478.57,151.25 495.00,151.25 C 499.31,151.25 504.90,151.00 505.00,151.00 C 511.09,151.00 512.83,152.91 517.67,152.91 C 523.83,152.91 529.72,149.18 529.72,143.37 C 529.72,139.75 528.00,137.72 528.00,132.00 C 528.00,127.19 529.22,125.92 529.22,120.53 C 529.22,106.36 519.73,92.09 507.16,86.54 L 470.49,82.87 L 470.81,79.75  Z M 579.57,142.78 C 579.57,176.91 551.95,202.88 517.62,202.88 C 512.56,202.88 507.41,202.31 502.28,201.13 C 499.65,201.22 496.96,201.27 494.22,201.27 C 466.59,201.27 429.20,196.28 405.83,172.91 C 402.74,169.82 386.00,151.89 386.00,126.00 C 386.00,122.23 386.88,88.46 417.38,57.95 C 437.72,37.61 463.99,25.00 489.86,19.53 L 493.11,34.89 C 518.36,37.42 518.36,37.42 521.07,38.33 C 554.18,49.58 579.28,83.50 579.28,120.10 C 579.28,123.79 579.03,127.52 578.50,131.28 C 579.22,135.15 579.57,139.00 579.57,142.78 Z" transform="translate(7737.20,0.00) scale(0.9000,0.9000)" fill="#000000" />
  <path d="M 427.60,902.87 C 389.78,902.87 353.14,925.73 345.61,968.37 C 345.61,968.37 296.38,959.68 296.39,959.63 C 307.82,894.86 363.43,852.88 427.55,852.88 C 429.20,852.88 430.85,852.91 432.51,852.97 C 434.36,852.84 436.19,852.78 437.99,852.78 C 480.36,852.78 501.45,883.93 516.73,906.51 C 531.67,928.57 539.40,938.05 553.12,938.05 C 564.33,938.05 570.54,933.00 579.00,933.00 C 582.08,933.00 583.38,933.56 587.73,933.56 C 603.39,933.56 618.75,925.01 637.89,909.68 L 684.62,859.05 L 721.38,892.95 C 672.14,946.30 672.14,946.30 670.72,947.44 C 649.72,964.45 622.72,983.58 588.06,983.58 C 586.01,983.58 583.93,983.51 581.83,983.38 C 571.83,986.40 562.14,987.94 552.89,987.94 C 511.48,987.94 490.96,957.64 475.30,934.51 C 458.85,910.21 451.66,902.71 439.15,902.71 C 436.30,902.71 435.16,903.00 433.00,903.00 C 432.95,903.00 429.39,902.87 427.60,902.87  Z M 450.00,110.00 C 450.00,106.83 455.37,23.26 506.62,23.26 C 512.81,23.26 518.98,24.57 524.51,26.87 C 529.48,25.74 536.55,24.36 544.99,24.36 C 547.61,24.36 550.36,24.49 553.23,24.81 C 554.57,24.70 555.90,24.65 557.21,24.65 C 598.02,24.65 626.14,74.35 626.14,107.78 C 626.14,172.42 546.37,197.00 531.00,197.00 C 500.87,197.00 463.92,162.86 450.95,116.81 C 450.32,114.59 450.00,112.29 450.00,110.00  Z M 530.56,146.31 C 540.83,143.38 576.17,130.83 576.17,108.10 C 576.17,95.02 562.29,74.53 557.13,74.65 C 555.77,74.88 554.38,75.00 553.00,75.00 C 549.25,75.00 547.47,74.18 544.09,74.18 C 538.88,74.18 532.03,77.13 520.90,78.44 L 513.25,85.00 L 507.72,78.54 C 503.71,87.41 501.49,99.78 500.46,107.48 C 500.63,107.94 512.41,139.22 530.56,146.31  Z M 585.61,433.17 C 667.56,433.17 696.14,333.89 698.00,277.63 C 698.00,276.32 698.00,275.03 698.00,273.78 C 698.00,230.57 699.83,223.33 707.60,215.55 C 710.78,212.38 717.51,208.12 725.77,208.12 C 751.14,208.12 753.62,234.79 756.13,269.27 C 757.14,283.09 757.98,297.94 757.98,311.78 C 757.98,321.47 757.57,330.67 756.51,338.68 C 764.70,370.40 768.65,401.85 768.65,432.29 C 768.65,591.35 661.15,717.91 502.39,717.91 C 476.18,717.91 448.68,714.44 420.21,707.12 C 414.16,707.32 408.11,707.39 402.09,707.39 C 382.71,707.39 364.05,706.61 344.14,706.61 C 300.56,706.61 292.48,710.83 285.57,710.99 L 197.56,712.99 L 196.43,663.01 L 282.35,661.06 C 302.08,657.42 322.24,656.54 342.11,656.54 C 361.32,656.54 382.38,657.39 402.21,657.39 C 414.17,657.39 422.79,657.00 423.00,657.00 C 431.11,657.00 459.49,668.09 503.15,668.09 C 634.30,668.09 718.67,562.08 718.67,432.23 C 718.67,421.29 718.07,410.15 716.85,398.85 C 699.28,430.88 659.28,483.15 585.24,483.15 C 583.82,483.15 582.39,483.13 580.95,483.09 C 566.80,485.74 552.31,487.04 537.78,487.04 C 428.65,487.04 321.40,413.96 321.40,300.60 C 321.40,290.63 322.24,280.36 324.00,269.84 L 324.00,204.00 L 374.00,204.00 L 374.00,272.00 C 374.00,277.01 371.31,285.44 371.31,301.37 C 371.31,387.45 459.79,436.92 538.84,436.92 C 562.08,436.92 573.23,433.00 579.00,433.00 C 580.33,433.00 582.01,433.17 585.61,433.17 Z" transform="translate(8788.05,0.00) scale(0.9000,0.9000)" fill="#000000" />
  <path d="M 427.60,902.87 C 389.78,902.87 353.14,925.73 345.61,968.37 C 345.61,968.37 296.38,959.68 296.39,959.63 C 307.82,894.86 363.43,852.88 427.55,852.88 C 429.20,852.88 430.85,852.91 432.51,852.97 C 434.36,852.84 436.19,852.78 437.99,852.78 C 480.36,852.78 501.45,883.93 516.73,906.51 C 531.67,928.57 539.40,938.05 553.12,938.05 C 564.33,938.05 570.54,933.00 579.00,933.00 C 582.08,933.00 583.38,933.56 587.73,933.56 C 603.39,933.56 618.75,925.01 637.89,909.68 L 684.62,859.05 L 721.38,892.95 C 672.14,946.30 672.14,946.30 670.72,947.44 C 649.72,964.45 622.72,983.58 588.06,983.58 C 586.01,983.58 583.93,983.51 581.83,983.38 C 571.83,986.40 562.14,987.94 552.89,987.94 C 511.48,987.94 490.96,957.64 475.30,934.51 C 458.85,910.21 451.66,902.71 439.15,902.71 C 436.30,902.71 435.16,903.00 433.00,903.00 C 432.95,903.00 429.39,902.87 427.60,902.87  Z M 465.44,167.91 C 432.23,167.91 400.97,147.23 400.97,111.94 C 400.97,109.21 401.17,106.45 401.59,103.66 C 401.20,100.67 401.02,97.69 401.02,94.72 C 401.02,66.23 417.87,33.05 448.66,29.30 C 448.67,29.14 448.68,29.06 448.68,29.06 L 450.07,29.15 C 450.61,29.11 451.16,29.07 451.71,29.04 C 465.05,30.75 477.97,30.17 484.28,32.08 C 512.10,40.52 536.45,65.06 536.45,94.79 C 536.45,96.81 536.34,98.86 536.10,100.96 C 536.14,101.94 536.16,102.92 536.16,103.91 C 536.16,137.97 511.76,167.28 479.03,167.28 C 477.99,167.28 476.94,167.25 475.88,167.19 C 472.42,167.67 468.93,167.91 465.44,167.91  Z M 455.48,79.62 C 454.05,81.72 451.13,87.02 451.13,95.21 C 451.13,99.17 452.00,99.64 452.00,104.00 C 452.00,108.84 450.64,111.66 450.64,112.96 C 450.64,113.25 455.41,117.85 465.72,117.85 C 470.10,117.85 470.84,117.00 475.00,117.00 C 476.95,117.00 479.69,117.39 479.73,117.39 C 482.11,117.39 486.14,109.21 486.14,103.14 C 486.14,102.13 486.00,101.63 486.00,100.00 C 486.00,97.04 486.47,95.74 486.47,94.64 C 486.47,89.74 478.69,83.61 471.86,80.71 L 455.48,79.62  Z M 208.00,154.00 L 258.00,154.00 L 258.00,661.62 L 711.63,673.01 C 711.63,673.01 710.38,722.99 710.37,722.99 C 232.37,710.99 232.37,710.99 232.37,710.99 C 218.81,710.65 208.00,699.57 208.00,686.00 L 208.00,154.00 Z" transform="translate(9838.90,0.00) scale(0.9000,0.9000)" fill="#000000" />
  <path d="M 427.60,902.87 C 389.78,902.87 353.14,925.73 345.61,968.37 C 345.61,968.37 296.38,959.68 296.39,959.63 C 307.82,894.86 363.43,852.88 427.55,852.88 C 429.20,852.88 430.85,852.91 432.51,852.97 C 434.36,852.84 436.19,852.78 437.99,852.78 C 480.36,852.78 501.45,883.93 516.73,906.51 C 531.67,928.57 539.40,938.05 553.12,938.05 C 564.33,938.05 570.54,933.00 579.00,933.00 C 582.08,933.00 583.38,933.56 587.73,933.56 C 603.39,933.56 618.75,925.01 637.89,909.68 L 684.62,859.05 L 721.38,892.95 C 672.14,946.30 672.14,946.30 670.72,947.44 C 649.72,964.45 622.72,983.58 588.06,983.58 C 586.01,983.58 583.93,983.51 581.83,983.38 C 571.83,986.40 562.14,987.94 552.89,987.94 C 511.48,987.94 490.96,957.64 475.30,934.51 C 458.85,910.21 451.66,902.71 439.15,902.71 C 436.30,902.71 435.16,903.00 433.00,903.00 C 432.95,903.00 429.39,902.87 427.60,902.87  Z M 478.11,269.00 C 488.35,269.00 499.64,268.68 510.30,268.68 C 523.43,268.68 537.34,269.15 551.69,271.28 C 563.87,273.08 573.00,283.55 573.00,296.00 L 573.00,300.00 L 526.45,300.00 L 544.31,320.72 C 533.35,319.10 521.51,318.70 509.15,318.70 C 504.42,318.70 481.83,318.98 481.55,318.99 C 443.85,330.31 399.32,363.58 397.03,405.61 C 436.10,471.93 553.31,520.60 553.31,632.84 C 553.31,639.28 553.31,646.31 551.05,651.69 C 512.89,742.62 385.17,735.37 324.30,769.77 C 322.58,770.74 320.76,771.50 318.90,772.03 C 318.90,772.03 304.90,776.03 304.84,776.05 L 291.10,727.97 L 302.38,724.75 C 369.30,688.52 475.20,693.07 503.27,636.00 C 503.31,634.87 503.32,633.75 503.32,632.65 C 503.32,581.78 467.67,548.39 423.83,508.42 C 394.73,481.89 366.78,456.29 349.80,423.50 C 346.95,418.01 346.95,413.36 346.95,408.90 C 346.95,340.30 409.54,286.68 471.42,269.88 C 473.67,269.27 475.84,269.00 478.11,269.00  Z M 446.08,91.46 C 436.99,96.52 426.55,104.30 426.55,113.34 C 426.55,132.75 444.06,143.86 461.29,143.86 C 466.60,143.86 468.17,143.00 472.00,143.00 C 472.94,143.00 473.87,143.06 474.80,143.16 C 475.21,140.09 475.36,136.54 475.36,132.12 C 475.36,127.65 475.00,116.16 475.00,116.00 C 475.00,111.28 476.23,109.02 476.23,107.21 C 476.23,103.18 468.35,96.98 461.77,92.50 L 446.08,91.46  Z M 496.39,55.70 C 513.15,68.30 526.07,84.60 526.07,107.57 C 526.07,111.13 525.74,114.74 525.07,118.36 C 525.39,129.12 525.39,129.12 525.39,132.39 C 525.39,163.24 517.60,175.28 510.02,182.85 C 506.07,186.81 496.37,194.55 481.04,194.55 C 477.41,194.55 473.87,194.13 470.43,193.40 C 467.32,193.72 464.21,193.87 461.13,193.87 C 414.70,193.87 376.59,159.16 376.59,112.98 C 376.59,52.37 459.02,29.00 480.00,29.00 C 480.59,29.00 481.18,29.03 481.77,29.07 C 483.07,28.82 485.05,28.47 488.18,28.47 C 509.35,28.47 516.28,45.08 516.93,54.22 L 496.39,55.70 Z" transform="translate(10889.74,0.00) scale(0.9000,0.9000)" fill="#000000" />
</svg>
