<?xml version="1.0" encoding="UTF-8" standalone="no"?>
<!--
Representation of "oko jan" in sitelen kalama pona
Generated by generate_sitelen_kalama_pona.py

Description:
  Representation of "oko jan" in sitelen kalama pona.
  Sources: oko: https://commons.wikimedia.org/wiki/File:Sitelen_seli_kiwen_-_oko.svg; jan: https://commons.wikimedia.org/wiki/File:Sitelen_seli_kiwen_-_jan.svg

Categories:
  [[Category:Sitelen kalama pona]]
  [[Category:Toki Pona text containing oko jan]]

Sources:
  oko: https://commons.wikimedia.org/wiki/File:Sitelen_seli_kiwen_-_oko.svg
  jan: https://commons.wikimedia.org/wiki/File:Sitelen_seli_kiwen_-_jan.svg
-->
<svg version="1.1" width="1805" height="1000"
     viewBox="0 0 1805 1000"
     xmlns="http://www.w3.org/2000/svg">
  <path d="M292 376Q291 376 288.5 375.0Q286 374 284.5 374.0Q283 374 278.0 376.0Q273 378 259.0 380.5Q245 383 222 384Q154 389 139.0 394.0Q124 399 124 419Q124 439 142.5 450.0Q161 461 194 461Q213 461 232.0 464.0Q251 467 268.5 471.5Q286 476 290 477Q331 484 370.0 497.5Q409 511 439.0 525.0Q469 539 478 542Q491 546 535.5 589.5Q580 633 594 659Q602 675 612.5 689.5Q623 704 628.5 712.0Q634 720 634 726Q634 736 645.5 743.0Q657 750 662 750Q670 750 685.0 735.5Q700 721 700 708Q700 697 686.0 682.0Q672 667 672 663Q672 660 662 640L652 623L664 612Q676 602 676.0 600.0Q676 598 700.0 572.0Q724 546 724 543Q724 540 729.0 533.0Q734 526 741.5 513.0Q749 500 754 486Q754 486 756.0 478.0Q758 470 761.5 458.0Q765 446 768.5 433.0Q772 420 774.0 407.0Q776 394 776 386Q776 377 775.0 372.5Q774 368 772.5 365.0Q771 362 767.5 354.0Q764 346 760 333Q757 320 750.5 309.5Q744 299 732.0 284.5Q720 270 712 258Q698 236 694 236Q692 236 687.5 226.5Q683 217 678.5 217.0Q674 217 667.5 210.5Q661 204 650 199Q643 197 638.5 193.5Q634 190 634 189Q669 119 676.5 101.5Q684 84 684 70Q684 60 676.0 49.5Q668 39 650 39Q630 39 630 50Q630 54 620.0 68.0Q610 82 610 89Q610 93 609.5 96.0Q609 99 607.0 101.5Q605 104 601.5 112.5Q598 121 594 134Q590 147 586.0 155.0Q582 163 579.5 164.5Q577 166 575.5 168.0Q574 170 574 173Q574 178 550.0 203.0Q526 228 526 229Q526 233 509.5 248.5Q493 264 490 264Q484 264 484 268Q484 271 477.0 276.0Q470 281 458.5 288.5Q447 296 440 302Q413 327 401.0 333.5Q389 340 381.5 340.0Q374 340 362 349Q349 358 344 358Q341 358 320.5 367.0Q300 376 292 376ZM652 528Q652 533 630.5 551.0Q609 569 602 569Q596 569 579.0 550.0Q562 531 552 526Q541 522 522.5 505.5Q504 489 500 489Q496 489 486.0 479.5Q476 470 472 470Q472 470 454.0 463.0Q436 456 414.5 447.5Q393 439 386 435L366 425L380 416Q388 410 402.5 403.5Q417 397 430 387Q436 382 471.0 359.5Q506 337 533.0 317.5Q560 298 560 290Q560 284 579.0 271.5Q598 259 608 259Q624 259 640 272L654 282L636 290Q624 296 610.0 313.5Q596 331 596 341Q596 345 590.0 351.5Q584 358 584 378Q584 412 590.5 427.5Q597 443 610 457Q619 468 628 485Q636 501 652 502Q660 502 664.0 505.5Q668 509 667.0 513.5Q666 518 660 520Q652 522 652 528ZM716 398Q716 417 705.5 438.5Q695 460 688 460Q686 460 682.5 451.0Q679 442 674 442Q664 442 650.0 424.0Q636 406 636.0 382.0Q636 358 655.5 344.5Q675 331 686 331Q697 331 706.5 356.5Q716 382 716 398Z" transform="translate(0.00,958.33) scale(0.9583,-0.9583)" fill="#000000" />
  <path d="M342 672Q345 672 355.5 678.0Q366 684 393.0 690.5Q420 697 463 697Q487 697 550 690Q586 686 595.0 682.5Q604 679 619 663Q641 641 641 638Q641 634 648.0 634.0Q655 634 655 630Q655 626 676.0 610.0Q697 594 697 591Q697 589 703.0 576.5Q709 564 715.5 548.0Q722 532 723 521Q727 503 730 501Q734 498 734 448Q734 420 733.0 405.0Q732 390 730.0 388.0Q728 386 726.5 383.0Q725 380 725 374Q725 365 718.0 357.5Q711 350 711 346Q711 341 680.5 301.0Q650 261 650.0 257.0Q650 253 676.0 224.5Q702 196 702 194Q702 192 718.0 172.5Q734 153 734 146Q734 140 751.5 119.5Q769 99 769 85Q769 50 748 50Q726 50 715.0 59.0Q704 68 704 77Q704 82 686.5 103.0Q669 124 668 126Q663 140 624.0 182.5Q585 225 577 225Q577 225 574.5 222.5Q572 220 563.0 216.0Q554 212 538 210Q532 209 525.0 206.5Q518 204 504.5 202.5Q491 201 465 201Q413 201 370.5 206.0Q328 211 320 211Q307 211 291.5 190.0Q276 169 272 167Q266 166 266 156Q266 151 264.0 148.0Q262 145 256.5 139.5Q251 134 245 126Q240 118 229.5 105.5Q219 93 211.5 83.0Q204 73 202 66Q199 51 194 51Q187 51 163.0 56.5Q139 62 136 64Q133 67 131 85Q130 97 132.5 102.0Q135 107 145 115Q167 132 186.0 152.0Q205 172 209 184Q209 186 224.0 215.5Q239 245 242 247Q246 250 246.0 253.0Q246 256 234.5 264.0Q223 272 221.5 278.0Q220 284 202.0 305.5Q184 327 184 329Q184 331 177 340Q170 347 161.5 378.0Q153 409 153 427Q153 427 153.5 432.5Q154 438 154.0 445.5Q154 453 154 458Q154 475 173.5 510.5Q193 546 200 549Q213 554 226.5 578.0Q240 602 242 602Q244 602 288.0 637.0Q332 672 342 672ZM567 616Q544 628 527.0 631.0Q510 634 457 634Q428 634 416.0 627.5Q404 621 388 621Q353 621 308.5 590.0Q264 559 232.5 514.5Q201 470 201 435Q201 422 210.0 408.5Q219 395 219 390Q219 383 239.0 360.5Q259 338 268 334Q276 331 285.5 317.0Q295 303 301 302Q311 300 327.5 292.5Q344 285 351 278Q363 268 407.0 262.0Q451 256 483 256Q514 256 540.0 266.0Q566 276 579.5 286.5Q593 297 594 297Q600 297 611.0 306.0Q622 315 622 320Q622 322 624.5 324.0Q627 326 631.0 329.0Q635 332 643.0 344.0Q651 356 660 375Q672 399 675.0 409.0Q678 419 678 433Q678 455 675.0 471.0Q672 487 668.0 496.5Q664 506 653 528Q641 554 632.0 566.5Q623 579 619.0 579.5Q615 580 611.5 582.0Q608 584 604 591Q601 599 567 616Z" transform="translate(942.50,958.33) scale(0.9583,-0.9583)" fill="#000000" />
</svg>
