<?xml version="1.0" encoding="UTF-8" standalone="no"?>
<!--
Representation of "ijo suwi" in sitelen ilo pona
Generated by generate_sitelen_kalama_pona.py

Description:
  Representation of "ijo suwi" in sitelen ilo pona.
  Sources: ijo-suwi: https://commons.wikimedia.org/wiki/File:Sitelen_seli_kiwen_-_ijo-suwi.svg

Categories:
  [[Category:Sitelen kalama pona]]
  [[Category:Toki Pona text containing ijo suwi]]

Sources:
  ijo-suwi: https://commons.wikimedia.org/wiki/File:Sitelen_seli_kiwen_-_ijo-suwi.svg
-->
<svg version="1.1" width="862" height="1000"
     viewBox="0 0 862 1000"
     xmlns="http://www.w3.org/2000/svg">
  <path d="M424 278Q430 278 445.5 286.0Q461 294 469 294Q478 294 490.5 286.0Q503 278 503 265Q503 232 486.0 213.5Q469 195 448 195Q442 195 442 198Q442 203 434 203Q427 203 413.5 215.5Q400 228 400 235Q400 244 409.5 261.0Q419 278 424 278ZM311 497Q311 502 318.0 507.0Q325 512 337 512Q358 512 358 500Q358 493 382.0 463.0Q406 433 414 433Q418 433 423.0 429.5Q428 426 434.0 420.5Q440 415 444.0 412.0Q448 409 451.0 397.0Q454 385 454 374L455 363Q455 345 425 345Q409 345 402.0 352.0Q395 359 381.0 378.0Q367 397 342 416Q326 428 321.5 429.5Q317 431 311 426Q306 422 298.5 398.0Q291 374 279.5 354.5Q268 335 251 335Q240 335 231.0 342.5Q222 350 222 361Q222 373 240.5 394.5Q259 416 262 427Q265 437 288.0 465.0Q311 493 311 497ZM467 368Q467 382 487.5 415.0Q508 448 508 449Q508 452 515.0 461.0Q522 470 524 486Q531 527 561 527Q581 527 596.0 495.5Q611 464 614 462Q619 459 636.0 426.5Q653 394 661 385Q672 371 672 355Q672 342 664.0 334.5Q656 327 648 326L641 325Q632 325 624.5 334.5Q617 344 606 348Q592 353 575.0 387.0Q558 421 553 426Q553 426 552 426Q551 426 546.0 409.0Q541 392 526.5 375.0Q512 358 489 358Q467 358 467 368ZM317 700Q328 700 333 705Q340 712 389.0 715.5Q438 719 458 719Q479 719 523.0 712.5Q567 706 586 695Q600 687 621.0 680.5Q642 674 653 664Q662 655 677 651Q690 648 718.5 614.5Q747 581 747 568Q747 565 759.5 545.0Q772 525 773 512Q773 507 784.5 471.0Q796 435 796 394Q796 372 790.5 351.5Q785 331 785 311Q785 285 780 280Q779 280 762.0 239.0Q745 198 733 191Q728 188 728 182Q728 174 695.5 146.5Q663 119 644 111Q642 110 628.0 100.5Q614 91 599 86Q579 80 551 66Q531 56 512.5 53.5Q494 51 433 51Q383 51 360.0 52.0Q337 53 309.5 58.5Q282 64 261 75Q237 88 217.5 105.0Q198 122 198 130Q198 134 179.5 154.0Q161 174 161.0 180.0Q161 186 154.0 193.5Q147 201 147 205Q147 210 139.0 219.0Q131 228 123.0 249.0Q115 270 115 306Q115 318 116.5 337.0Q118 356 118 365Q118 381 115.0 381.0Q112 381 108.0 390.5Q104 400 104 412Q104 416 105.5 429.5Q107 443 112.0 465.0Q117 487 124 498Q131 508 135 528Q137 542 156.5 576.5Q176 611 181 611Q185 611 196.5 624.5Q208 638 218 638Q220 638 222 638Q223 638 225.0 637.5Q227 637 228 637Q246 637 268.0 661.5Q290 686 294.0 686.0Q298 686 303.5 693.0Q309 700 317 700ZM573 634Q572 634 539.5 644.0Q507 654 486 654Q485 654 478.0 652.5Q471 651 448 651L408 652Q376 652 374 648Q373 646 367 646Q356 646 313.5 624.5Q271 603 262 600Q251 597 243.0 592.5Q235 588 231.0 584.0Q227 580 223.0 576.0Q219 572 216 570Q209 566 201.5 553.5Q194 541 194 534L192 530Q191 525 188.0 516.5Q185 508 182.0 496.5Q179 485 176.0 467.5Q173 450 170.0 430.5Q167 411 165.5 384.5Q164 358 164 329Q164 297 167.5 281.5Q171 266 185 250Q196 238 211.0 210.5Q226 183 231 178Q248 161 260 150Q278 133 296.5 127.5Q315 122 376 114Q400 111 413 111Q423 111 435.5 114.0Q448 117 455 117Q460 117 466 116Q470 115 478 115Q520 115 566 141Q620 172 627 180Q636 189 642 189Q651 189 674.0 216.0Q697 243 701.0 257.0Q705 271 709.5 280.5Q714 290 717 302Q721 321 727 331Q736 347 736 414Q736 446 727.0 474.5Q718 503 711.0 514.0Q704 525 701 528Q695 532 695 536Q695 545 676.0 570.0Q657 595 647 599Q589 623 586 628Q582 634 573 634Z" transform="translate(0.00,958.33) scale(0.9583,-0.9583)" fill="#000000" />
</svg>
