<?xml version="1.0" encoding="UTF-8" standalone="no"?>
<!--
Representation of "sitelen Palemona" in sitelen kalama pona
Generated by generate_sitelen_kalama_pona.py

Description:
  Representation of "sitelen Palemona" in sitelen kalama pona.
  Sources: sitelen: https://commons.wikimedia.org/wiki/File:Sitelen_seli_kiwen_-_sitelen.svg; pa: https://commons.wikimedia.org/wiki/File:Sitelen_kalama_pona_-_pa.svg; le: https://commons.wikimedia.org/wiki/File:Sitelen_kalama_pona_-_le.svg; mo: https://commons.wikimedia.org/wiki/File:Sitelen_kalama_pona_-_mo.svg; na: https://commons.wikimedia.org/wiki/File:Sitelen_kalama_pona_-_na.svg

Categories:
  [[Category:Sitelen kalama pona]]
  [[Category:Toki Pona text containing sitelen]]
  [[Category:Toki Pona text containing sound symbol Pa]]
  [[Category:Toki Pona text containing sound symbol Le]]
  [[Category:Toki Pona text containing sound symbol Mo]]
  [[Category:Toki Pona text containing sound symbol Na]]

Sources:
  sitelen: https://commons.wikimedia.org/wiki/File:Sitelen_seli_kiwen_-_sitelen.svg
  pa: https://commons.wikimedia.org/wiki/File:Sitelen_kalama_pona_-_pa.svg
  le: https://commons.wikimedia.org/wiki/File:Sitelen_kalama_pona_-_le.svg
  mo: https://commons.wikimedia.org/wiki/File:Sitelen_kalama_pona_-_mo.svg
  na: https://commons.wikimedia.org/wiki/File:Sitelen_kalama_pona_-_na.svg
-->
<svg version="1.1" width="6265" height="1000"
     viewBox="0 0 6265 1000"
     xmlns="http://www.w3.org/2000/svg">
  <path d="M556 397Q556 406 557.5 412.5Q559 419 570.0 427.0Q581 435 602 435Q616 435 623.5 425.5Q631 416 632 406L633 396Q633 381 623.0 371.5Q613 362 596 362Q574 362 565.0 370.0Q556 378 556 397ZM405 406Q405 439 442 439Q466 439 479 413Q484 403 484.0 398.5Q484 394 477 386Q465 370 438 370Q423 370 415.0 379.0Q407 388 406 397ZM275 408Q275 416 286.5 429.5Q298 443 310 443Q325 443 340.5 430.0Q356 417 356 404Q356 373 307 373Q295 373 285.0 388.0Q275 403 275 408ZM166 161V167Q166 173 166.0 181.5Q166 190 166.5 199.0Q167 208 167.0 217.0Q167 226 167 230Q167 298 164 301Q163 302 167.0 313.5Q171 325 166.0 332.0Q161 339 161 373Q161 388 164.5 440.5Q168 493 169 562Q170 628 174.0 654.5Q178 681 191 697Q200 709 208 709Q215 709 248.5 698.0Q282 687 301 684Q326 681 400 681Q638 681 695 693Q710 697 725 683Q739 671 739 648Q739 618 731.5 561.0Q724 504 722 453Q720 394 717 386Q715 380 718.5 374.5Q722 369 720 360V342Q720 276 728.5 204.0Q737 132 737 123Q737 98 728.5 88.5Q720 79 699.0 79.0Q678 79 678.0 82.0Q678 85 502.0 95.5Q326 106 315 106L286 104Q258 101 227.5 98.5Q197 96 191 96Q175 96 170.5 108.5Q166 121 166 161ZM663 407Q663 482 670.0 515.0Q677 548 677 577Q677 589 673 605L668 624H471Q278 624 266 627Q259 628 252.5 627.5Q246 627 242.0 624.0Q238 621 239 618Q241 613 237.0 608.5Q233 604 235 599Q236 597 236 595Q236 594 235.0 592.0Q234 590 233.0 584.0Q232 578 230.5 568.0Q229 558 228.0 536.5Q227 515 227 486Q227 479 227.0 466.5Q227 454 227.5 441.0Q228 428 228.5 415.5Q229 403 229 395V387V383Q229 379 228.5 372.0Q228 365 227.5 355.0Q227 345 227.0 330.5Q227 316 227 301Q227 246 232 237Q238 225 233 220Q227 214 228.0 203.5Q229 193 236 187Q252 173 354 173Q374 173 390.0 167.0Q406 161 431 161Q453 161 477.5 155.5Q502 150 522 150Q527 150 559.0 151.0Q591 152 628.5 154.5Q666 157 669 160Q674 165 674 200Q674 231 669.0 249.0Q664 267 664 290V318Q664 332 663.5 350.5Q663 369 663 407Z" transform="translate(0.00,958.33) scale(0.9583,-0.9583)" fill="#000000" />
  <path d="M 24.637998,12.488337 H 20.72216 q -1.48166,0 -2.54,-1.058333 -1.05833,-1.058333 -1.05833,-2.54 V 3.598338 q 0,-1.481667 1.05833,-2.54 Q 19.2405,4e-6 20.72216,4e-6 h 3.915838 V 0.846671 H 20.72216 q -1.13241,0 -1.94733,0.814917 -0.80433,0.804333 -0.80433,1.93675 v 5.291666 q 0,1.132417 0.80433,1.93675 0.81492,0.814917 1.94733,0.814917 h 3.915838 z" transform="translate(-428.69,0.00) scale(80.0747,80.0747)" fill="#000000" />
  <path d="M 75.014662,0.846671 V 4e-6 h 13.123333 v 0.846667 z m 0,11.641666 v -0.846666 h 13.123333 v 0.846666 z" transform="translate(-4462.58,0.00) scale(80.0747,80.0747)" fill="#000000" />
  <path d="M 75.014662,0.846671 V 4e-6 h 13.123333 v 0.846667 z m 0,11.641666 v -0.846666 h 13.123333 v 0.846666 z" transform="translate(-3411.74,0.00) scale(80.0747,80.0747)" fill="#000000" />
  <path d="M 75.014662,0.846671 V 4e-6 h 13.123333 v 0.846667 z m 0,11.641666 v -0.846666 h 13.123333 v 0.846666 z" transform="translate(-2360.89,0.00) scale(80.0747,80.0747)" fill="#000000" />
  <path d="M 75.014662,0.846671 V 4e-6 h 13.123333 v 0.846667 z m 0,11.641666 v -0.846666 h 13.123333 v 0.846666 z" transform="translate(-1310.04,0.00) scale(80.0747,80.0747)" fill="#000000" />
  <path d="m 87.714667,4e-6 h 2.8575 q 1.481666,0 2.54,1.058334 1.058333,1.058333 1.058333,2.54 v 5.291666 q 0,1.481667 -1.058333,2.54 -1.058334,1.058333 -2.54,1.058333 h -2.8575 v -0.846666 h 2.8575 q 1.132416,0 1.93675,-0.814917 0.814916,-0.804333 0.814916,-1.93675 V 3.598338 q 0,-1.132417 -0.814916,-1.93675 -0.804334,-0.814917 -1.93675,-0.814917 h -2.8575 z" transform="translate(-1276.14,0.00) scale(80.0747,80.0747)" fill="#000000" />
  <path d="M 641.19,97.96 C 641.19,97.96 690.82,103.99 690.81,104.04 C 664.81,318.04 664.81,318.04 664.81,318.04 C 664.81,318.04 615.18,312.01 615.19,311.96 C 641.19,97.96 641.19,97.96 641.19,97.96  Z M 411.00,461.00 C 411.00,464.00 409.68,472.65 409.68,486.21 C 409.68,544.12 434.55,594.35 534.11,615.43 C 580.87,625.34 631.08,626.79 694.49,628.01 C 695.13,628.02 695.13,628.02 865.77,640.07 L 862.25,689.93 C 692.86,677.98 692.86,677.98 687.79,677.88 C 592.87,676.08 472.28,673.73 405.87,607.31 C 376.65,578.09 359.77,537.33 359.77,484.99 C 359.77,476.93 360.17,468.60 360.98,459.99 C 360.93,456.67 360.91,453.35 360.91,450.04 C 360.91,369.17 376.08,290.09 390.64,213.35 C 397.44,177.48 404.15,142.11 409.27,107.33 C 409.27,107.33 458.73,114.62 458.73,114.67 C 453.40,150.83 446.55,186.86 439.75,222.72 C 425.16,299.60 410.90,375.66 410.90,450.25 C 410.90,456.42 411.00,460.35 411.00,461.00  Z M 154.85,624.93 C 154.85,625.77 155.74,670.06 155.74,670.52 C 155.74,682.89 155.15,695.78 153.00,709.10 L 153.00,741.00 L 103.00,741.00 L 103.00,707.00 C 103.00,701.32 105.69,695.82 105.69,669.82 C 105.69,669.12 104.82,624.91 104.82,624.46 C 104.82,613.09 105.30,601.26 107.02,589.05 C 107.14,577.90 107.19,566.69 107.19,555.43 C 107.19,542.39 107.12,529.27 107.01,516.10 C 106.11,504.49 105.66,492.98 105.66,481.57 C 105.66,273.32 253.88,102.94 467.33,80.15 C 468.60,80.01 468.60,80.01 899.88,78.01 L 900.12,127.99 L 471.42,129.99 C 283.90,150.61 155.65,299.39 155.65,481.49 C 155.65,500.64 156.97,511.82 156.99,514.79 C 157.11,528.36 157.18,541.91 157.18,555.43 C 157.18,586.69 156.98,593.01 156.72,594.74 C 155.29,604.25 154.85,614.31 154.85,624.93 Z" transform="translate(1669.62,100.00) scale(0.8000,0.8000)" fill="#000000" />
  <path d="M 343.19,189.78 C 350.46,188.99 362.38,177.00 375.00,177.00 C 384.17,177.00 392.26,181.96 396.60,189.41 C 413.55,218.45 417.13,249.29 417.13,278.19 C 417.13,300.61 414.86,324.58 414.86,347.27 C 414.86,369.37 417.92,380.56 417.92,421.13 C 417.92,491.17 406.90,562.19 386.24,625.33 C 386.23,628.12 385.97,630.69 385.58,633.01 C 446.87,650.04 526.52,651.25 631.16,651.34 C 670.52,651.37 709.57,651.39 746.13,653.03 C 746.13,653.03 743.89,702.97 743.87,702.97 C 657.21,699.08 554.64,704.51 464.61,696.62 C 422.12,692.89 382.36,686.29 348.15,673.39 C 341.62,670.92 331.71,664.27 331.71,646.60 C 331.71,638.11 334.11,631.67 335.13,628.47 C 335.72,626.62 336.04,625.44 336.17,624.90 C 336.06,623.94 336.00,622.97 336.00,622.00 C 336.00,619.29 336.44,616.58 337.32,613.99 C 357.13,555.19 367.90,487.13 367.90,420.60 C 367.90,381.30 364.83,372.40 364.83,347.02 C 364.83,324.74 366.91,303.38 366.91,280.59 C 366.91,264.42 365.81,249.67 362.27,236.33 C 357.81,237.88 351.05,239.78 343.04,239.78 C 339.78,239.78 336.36,239.46 332.85,238.71 C 325.07,237.97 315.74,237.50 305.63,237.00 C 262.11,234.87 211.09,232.36 180.42,201.69 C 160.91,182.19 158.00,158.01 158.00,154.00 C 158.00,153.03 158.88,109.71 201.59,66.99 C 232.10,36.48 271.59,16.68 305.55,2.85 C 308.57,1.62 311.79,0.99 315.00,1.00 C 647.15,3.01 647.15,3.01 647.15,3.01 C 647.15,3.01 646.85,52.99 646.85,52.99 C 319.92,51.03 319.92,51.03 319.92,51.03 C 263.90,74.58 216.45,107.69 208.39,153.29 C 215.59,181.11 259.39,184.68 308.10,187.07 C 324.62,187.88 338.78,188.66 343.19,189.78 Z" transform="translate(2720.47,100.00) scale(0.8000,0.8000)" fill="#000000" />
  <path d="M 511.28,25.10 C 512.85,25.10 517.81,25.00 517.87,25.00 C 549.57,25.00 583.54,46.86 599.87,65.60 C 603.95,70.29 606.00,76.14 606.00,82.00 C 606.00,91.26 604.15,82.61 600.25,117.26 C 597.39,142.60 594.27,170.26 575.80,188.73 C 573.99,190.54 558.85,205.00 537.00,205.00 C 535.74,205.00 445.42,198.95 425.64,146.91 C 424.15,143.00 423.42,136.54 423.42,127.50 C 423.42,99.78 432.93,71.54 452.07,51.20 L 446.64,39.24 C 471.02,28.16 471.02,28.16 473.59,27.59 C 483.71,25.36 492.19,24.93 499.15,24.93 C 503.52,24.93 506.85,25.10 511.28,25.10  Z M 501.75,77.00 C 483.80,81.87 473.47,107.70 473.47,128.46 C 473.47,131.51 473.47,131.51 475.48,133.52 C 482.57,140.61 502.29,150.19 537.44,154.86 C 545.54,153.62 548.40,130.91 550.57,111.62 C 551.35,104.72 552.05,97.61 553.30,90.40 C 551.98,89.39 532.81,74.99 517.71,74.99 C 517.36,74.99 515.04,75.09 511.26,75.09 C 510.48,75.09 509.73,75.08 509.00,75.07 L 509.00,77.00 L 501.75,77.00  Z M 179.96,701.01 C 179.96,701.11 180.20,710.60 180.20,710.86 C 180.20,724.06 176.92,738.87 163.58,750.71 L 130.43,713.36 C 130.46,712.83 130.18,712.01 130.18,710.91 C 130.18,706.74 129.88,704.02 129.88,700.00 C 129.88,695.51 130.27,689.98 132.00,683.90 L 132.00,595.14 C 131.39,588.20 131.09,581.29 131.09,574.43 C 131.09,431.92 261.15,306.50 405.85,306.50 C 414.04,306.50 424.71,306.50 430.50,308.87 C 464.78,322.92 494.83,350.67 510.23,401.49 C 519.17,359.67 535.37,316.53 570.38,285.33 C 575.10,281.11 581.05,279.00 587.00,279.00 C 588.16,279.00 643.17,285.03 690.42,332.27 C 770.07,411.92 779.99,554.14 787.57,664.05 C 788.96,684.25 790.26,703.03 791.88,719.59 L 742.12,724.45 C 740.41,706.88 739.09,687.72 737.70,667.52 C 728.50,534.22 715.33,367.60 594.66,331.72 C 527.03,408.83 562.03,586.34 524.78,701.71 C 521.52,711.83 512.03,719.00 501.00,719.00 C 490.34,719.00 481.15,712.31 477.59,702.78 C 472.27,688.54 470.88,674.06 470.88,660.20 C 470.88,644.17 472.93,625.30 472.93,607.65 C 472.93,591.42 471.92,602.52 471.92,579.41 C 471.92,558.61 472.71,536.95 472.71,513.33 C 472.71,440.00 464.42,379.40 415.12,356.70 C 412.11,356.56 409.10,356.50 406.09,356.50 C 289.03,356.50 181.09,459.31 181.09,574.64 C 181.09,583.02 182.00,593.81 182.00,594.00 L 182.00,688.00 C 182.00,691.21 181.38,694.41 180.16,697.43 C 180.16,697.43 179.96,698.02 179.96,701.01 Z" transform="translate(3771.31,100.00) scale(0.8000,0.8000)" fill="#000000" />
  <path d="M 108.86,305.66 C 108.86,140.71 217.05,29.02 382.26,29.02 C 406.69,29.02 432.26,31.46 458.75,36.48 C 466.58,34.95 474.37,34.15 481.97,34.15 C 504.36,34.15 525.15,41.06 540.69,56.60 C 556.29,72.20 564.00,93.97 564.00,117.76 C 564.00,198.00 564.00,198.00 564.00,198.00 L 514.00,198.00 L 514.00,118.13 C 513.84,103.00 509.17,84.05 482.21,84.05 C 470.85,84.05 465.10,87.00 459.00,87.00 C 452.60,87.00 423.64,78.92 381.75,78.92 C 312.70,78.92 258.11,101.70 220.49,139.32 C 181.81,178.00 158.76,234.92 158.76,305.48 C 158.76,363.36 173.81,405.43 173.99,413.43 C 174.23,423.87 174.31,434.33 174.31,444.78 C 174.31,445.67 173.61,532.64 173.61,533.63 C 173.61,585.78 176.00,603.58 176.00,608.00 L 176.00,614.00 C 176.00,615.62 176.00,615.62 167.79,679.22 C 167.30,683.02 167.30,683.02 153.70,712.49 C 153.70,712.49 108.30,691.54 108.30,691.51 L 118.70,668.98 L 126.00,612.38 L 126.00,608.97 C 124.12,584.19 123.61,559.12 123.61,534.10 C 123.61,533.20 124.32,445.72 124.32,444.72 C 124.32,435.58 124.25,426.52 124.07,417.55 C 113.84,378.59 108.86,341.04 108.86,305.66  Z M 352.00,718.00 L 302.00,718.00 L 302.00,640.00 C 302.00,639.03 305.44,621.22 312.06,543.07 C 321.82,427.82 333.32,293.02 407.76,218.57 C 441.23,185.11 487.33,164.99 546.36,164.99 C 600.67,164.99 677.60,192.32 709.46,334.91 C 721.26,387.71 724.14,443.07 724.14,486.85 C 724.14,492.87 724.09,498.67 724.00,504.21 L 724.00,584.39 L 721.99,714.39 L 672.01,713.62 L 674.00,583.81 L 674.00,503.57 C 674.09,498.51 674.14,493.23 674.14,487.76 C 674.14,417.46 665.81,295.69 612.01,241.89 C 600.85,230.73 580.92,214.98 546.17,214.98 C 478.05,214.98 418.91,245.23 387.76,363.33 C 364.12,452.96 363.73,564.23 352.00,641.91 L 352.00,718.00 Z" transform="translate(4822.16,100.00) scale(0.8000,0.8000)" fill="#000000" />
</svg>
