<?xml version="1.0" encoding="UTF-8" standalone="no"?>
<!--
Representation of "waso lipu" in sitelen ilo pona
Generated by generate_sitelen_kalama_pona.py

Description:
  Representation of "waso lipu" in sitelen ilo pona.
  Sources: waso: https://commons.wikimedia.org/wiki/File:Sitelen_seli_kiwen_-_waso.svg; lipu: https://commons.wikimedia.org/wiki/File:Sitelen_seli_kiwen_-_lipu.svg

Categories:
  [[Category:Sitelen kalama pona]]
  [[Category:Toki Pona text containing waso lipu]]

Sources:
  waso: https://commons.wikimedia.org/wiki/File:Sitelen_seli_kiwen_-_waso.svg
  lipu: https://commons.wikimedia.org/wiki/File:Sitelen_seli_kiwen_-_lipu.svg
-->
<svg version="1.1" width="1805" height="1000"
     viewBox="0 0 1805 1000"
     xmlns="http://www.w3.org/2000/svg">
  <path d="M276 413Q276 366 227 366Q218 366 210.0 371.5Q202 377 194 377Q174 377 174 405Q174 421 178.5 430.0Q183 439 198 457Q212 474 223 474Q276 474 276 413ZM333 432Q333 454 345.0 468.5Q357 483 374 483Q394 483 410 465Q425 450 425 422Q425 397 414.5 388.0Q404 379 376 379Q349 379 344 384Q333 395 333 432ZM519 258Q529 258 565.5 265.0Q602 272 612 280Q619 285 619.0 288.5Q619 292 613 306Q604 325 601 325Q599 325 593.5 334.5Q588 344 580.0 357.5Q572 371 566 378Q558 386 539.5 421.5Q521 457 518 461Q488 495 488 515Q488 520 487.0 522.5Q486 525 483.0 528.0Q480 531 472.0 543.5Q464 556 454 575Q446 591 438.5 604.0Q431 617 426.5 623.5Q422 630 419.0 634.5Q416 639 415.0 641.5Q414 644 414 646Q414 649 395.5 678.5Q377 708 377 725Q377 736 383.5 743.5Q390 751 402 751Q435 751 449 727Q472 693 483.5 662.0Q495 631 514 597Q528 573 551 527Q564 500 576.0 481.5Q588 463 594.0 457.0Q600 451 603.0 447.0Q606 443 606 439Q606 436 608.0 434.0Q610 432 617.0 423.0Q624 414 632 398Q642 378 652.0 365.0Q662 352 665 344Q671 332 698.5 300.5Q726 269 726 244Q726 226 716.0 219.0Q706 212 681 212Q670 212 629.5 200.0Q589 188 516 188Q497 188 477.0 189.0Q457 190 451 190Q427 190 405.0 185.0Q383 180 372 180H357L360 125Q364 44 364 40Q364 0 339 0Q330 0 319.5 4.5Q309 9 302.5 13.5Q296 18 296 19Q296 21 289.0 80.0Q282 139 282 154Q282 160 278.0 181.0Q274 202 274 212Q274 234 288.0 243.0Q302 252 336 252Q343 252 353.5 251.5Q364 251 372 251Q392 251 402.5 254.0Q413 257 420 257H437Q448 257 461.0 260.5Q474 264 481.0 264.0Q488 264 499.0 261.0Q510 258 519 258Z" transform="translate(0.00,958.33) scale(0.9583,-0.9583)" fill="#000000" />
  <path d="M461 87Q346 87 316.5 82.0Q287 77 262 77Q248 77 234.0 77.0Q220 77 209.5 76.5Q199 76 191.0 75.5Q183 75 178.5 75.0Q174 75 174 75Q159 75 152.0 78.5Q145 82 134 93L118 111L126 135Q135 157 137.0 215.0Q139 273 139.5 322.0Q140 371 143 374Q145 376 145 402Q145 402 144.5 435.0Q144 468 143.0 516.0Q142 564 141 596L140 697L166 723L252 720Q307 718 349 718Q349 718 353.0 718.0Q357 718 364.5 718.5Q372 719 383.0 719.0Q394 719 411.5 719.0Q429 719 449.5 719.5Q470 720 499.0 720.0Q528 720 560 720Q569 720 581.0 720.0Q593 720 605.0 719.5Q617 719 627.5 718.5Q638 718 644.5 718.0Q651 718 651 718Q676 718 691.5 720.0Q707 722 713.0 724.5Q719 727 721.5 727.0Q724 727 731.5 725.0Q739 723 742 723Q750 723 757.0 704.0Q764 685 764 669Q764 663 762.0 656.5Q760 650 760 645Q760 640 762.5 625.5Q765 611 765 587Q765 572 763.5 546.0Q762 520 760.0 493.5Q758 467 756.0 443.0Q754 419 752.5 403.0Q751 387 751 387Q751 382 752.0 375.0Q753 368 753 361Q753 349 752 340Q752 338 751.5 333.0Q751 328 751 325Q751 289 759.0 233.0Q767 177 775 153Q785 127 779 121Q776 117 777.5 110.5Q779 104 774 101Q766 93 651.0 89.5Q536 86 490 86ZM687 311Q687 330 689.0 364.5Q691 399 694.0 434.0Q697 469 699.5 501.5Q702 534 704.0 555.5Q706 577 706 577Q706 588 701.5 601.5Q697 615 694 631L690 653L650 654Q597 655 375 655Q230 655 224 654Q212 653 208 642Q202 621 202 458Q202 429 202.5 401.5Q203 374 203.5 355.5Q204 337 204.5 323.5Q205 310 205.0 302.5Q205 295 205 295Q205 281 199.5 252.0Q194 223 194 179Q194 167 195.0 162.5Q196 158 202.5 153.5Q209 149 221.0 148.5Q233 148 257 148Q292 148 292 151Q292 153 342 153Q359 153 375.5 153.0Q392 153 404.0 152.5Q416 152 427.0 151.5Q438 151 445.5 150.5Q453 150 458.5 149.5Q464 149 466.5 149.0Q469 149 469 149Q488 149 528.5 154.5Q569 160 593 160Q600 160 606.5 159.5Q613 159 620 159Q647 159 676.0 163.5Q705 168 705 172Q705 174 696.0 225.5Q687 277 687 311Z" transform="translate(942.50,958.33) scale(0.9583,-0.9583)" fill="#000000" />
</svg>
