<?xml version="1.0" encoding="UTF-8" standalone="no"?>
<!--
Representation of "jan sewi suli Takeuioki" in sitelen kalama pona
Generated by generate_sitelen_kalama_pona.py

Description:
  Representation of "jan sewi suli Takeuioki" in sitelen kalama pona.
  Sources: jan-sewi: https://commons.wikimedia.org/wiki/File:Sitelen_seli_kiwen_-_jan-sewi.svg; suli: https://commons.wikimedia.org/wiki/File:Sitelen_seli_kiwen_-_suli.svg; ta: https://commons.wikimedia.org/wiki/File:Sitelen_kalama_pona_-_ta.svg; ke: https://commons.wikimedia.org/wiki/File:Sitelen_kalama_pona_-_ke.svg; u: https://commons.wikimedia.org/wiki/File:Sitelen_kalama_pona_-_xu.svg; i: https://commons.wikimedia.org/wiki/File:Sitelen_kalama_pona_-_xi.svg; o: https://commons.wikimedia.org/wiki/File:Sitelen_kalama_pona_-_xo.svg; ki: https://commons.wikimedia.org/wiki/File:Sitelen_kalama_pona_-_ki.svg

Categories:
  [[Category:Sitelen kalama pona]]
  [[Category:Toki Pona text containing jan sewi suli]]
  [[Category:Toki Pona text containing sound symbol Ta]]
  [[Category:Toki Pona text containing sound symbol Ke]]
  [[Category:Toki Pona text containing sound symbol U]]
  [[Category:Toki Pona text containing sound symbol I]]
  [[Category:Toki Pona text containing sound symbol O]]
  [[Category:Toki Pona text containing sound symbol Ki]]

Sources:
  jan-sewi: https://commons.wikimedia.org/wiki/File:Sitelen_seli_kiwen_-_jan-sewi.svg
  suli: https://commons.wikimedia.org/wiki/File:Sitelen_seli_kiwen_-_suli.svg
  ta: https://commons.wikimedia.org/wiki/File:Sitelen_kalama_pona_-_ta.svg
  ke: https://commons.wikimedia.org/wiki/File:Sitelen_kalama_pona_-_ke.svg
  u: https://commons.wikimedia.org/wiki/File:Sitelen_kalama_pona_-_xu.svg
  i: https://commons.wikimedia.org/wiki/File:Sitelen_kalama_pona_-_xi.svg
  o: https://commons.wikimedia.org/wiki/File:Sitelen_kalama_pona_-_xo.svg
  ki: https://commons.wikimedia.org/wiki/File:Sitelen_kalama_pona_-_ki.svg
-->
<svg version="1.1" width="9309" height="1000"
     viewBox="0 0 9309 1000"
     xmlns="http://www.w3.org/2000/svg">
  <path d="M426 418Q426 424 432.5 441.5Q439 459 439 475Q439 490 446.5 503.5Q454 517 468 517Q475 517 484 512Q505 501 505 477Q505 450 492.5 420.0Q480 390 470.5 376.5Q461 363 455 357Q446 348 438.0 346.0Q430 344 400 344Q332 344 313 347Q299 349 288.0 369.5Q277 390 277 408Q277 432 299 432Q308 432 316.5 423.5Q325 415 332 415Q348 415 348 437V444Q346 455 348.0 459.0Q350 463 357 468Q365 473 372 473Q384 473 393.0 457.0Q402 441 409.0 425.0Q416 409 422 409Q426 409 426 418ZM521 544Q522 572 527.5 581.0Q533 590 554.0 590.0Q575 590 582 583Q586 579 586 542Q586 493 579.0 454.0Q572 415 572 415Q572 405 581 399Q590 392 588 385Q584 368 583 358Q581 339 573.5 332.0Q566 325 547 325Q532 325 526.5 331.0Q521 337 521 354Q521 391 518.0 394.0Q515 397 515 414Q515 426 516 433Q517 444 517 451Q517 460 515.5 466.0Q514 472 514 474Q514 479 516 489Q519 500 521 544ZM201 326Q201 332 194.0 337.5Q187 343 187 348Q187 357 178.5 381.0Q170 405 167 405Q164 406 166.0 409.0Q168 412 170.5 420.5Q173 429 171 436Q170 438 170 442Q170 456 179.5 482.5Q189 509 198.5 529.5Q208 550 210 550Q211 550 215.0 558.5Q219 567 225.0 577.5Q231 588 238 592Q249 599 268.5 620.0Q288 641 291.0 649.0Q294 657 323.5 675.0Q353 693 377 701Q398 708 412 715Q418 718 433 716Q452 714 495 712Q554 709 602 683Q624 670 645.0 651.0Q666 632 677.0 619.0Q688 606 689 606Q693 606 693 600Q693 592 703 584Q715 574 733.0 531.5Q751 489 751 473Q751 467 751.0 467.0Q751 467 750.5 470.0Q750 473 750 473Q749 473 749 442Q749 422 742.0 396.5Q735 371 728 364Q725 361 716.0 350.5Q707 340 696.0 323.0Q685 306 685 298Q685 286 696.5 269.0Q708 252 710 245Q713 236 724.0 220.5Q735 205 735 203Q735 198 742.0 198.0Q749 198 749 190Q749 184 780.0 149.0Q811 114 811 94Q811 63 783 63Q758 63 732 87Q723 95 721.5 99.0Q720 103 720.0 117.0Q720 131 694.5 159.0Q669 187 663 200Q655 217 640 233L623 251L605 241Q553 213 495 213Q481 213 460.5 208.0Q440 203 403 203Q356 203 348 209Q342 214 321 224L302 234L259 191Q215 147 215 143Q215 140 211.5 138.0Q208 136 196.5 125.5Q185 115 171 95Q145 58 130 58Q126 58 117.5 60.0Q109 62 99.0 69.5Q89 77 89 88Q89 106 126.0 148.5Q163 191 200.5 229.0Q238 267 238 273Q238 276 219.5 297.5Q201 319 201 326ZM690 464Q690 498 682.5 520.0Q675 542 665.5 548.5Q656 555 648.5 559.5Q641 564 641 568Q641 573 614.5 599.0Q588 625 583 625Q581 625 576.5 629.5Q572 634 558.5 641.0Q545 648 522 653Q483 662 441 662Q385 662 385 649Q385 642 384.5 639.0Q384 636 380.0 633.0Q376 630 368 630Q358 630 337.0 605.5Q316 581 312 580Q293 577 283.0 566.5Q273 556 246 515Q224 478 224 432Q224 375 267 335Q288 316 290.0 316.0Q292 316 304.0 306.5Q316 297 324 297Q333 297 338 290Q342 284 377.5 276.0Q413 268 432 268Q446 268 495.5 278.0Q545 288 562 298Q570 303 587 308Q600 311 622.5 332.5Q645 354 653 370Q660 386 667 386Q677 386 683.5 409.5Q690 433 690 464Z" transform="translate(0.00,958.33) scale(0.9583,-0.9583)" fill="#000000" />
  <path d="M116 735Q138 735 165.0 692.5Q192 650 192 631Q192 624 206.0 606.5Q220 589 220 572Q220 559 225.0 559.0Q230 559 230 551Q230 544 239.0 530.0Q248 516 248 514Q248 508 295.0 417.0Q342 326 342 319Q342 314 354.0 290.0Q366 266 366 261Q366 258 367.5 256.0Q369 254 372.0 251.0Q375 248 381.0 238.0Q387 228 394 212Q412 173 424 173Q432 173 445.0 204.5Q458 236 460 236Q462 236 464.0 242.5Q466 249 470.5 260.0Q475 271 482 278Q492 291 492 298Q492 306 497.0 306.0Q502 306 502.0 313.0Q502 320 506 320Q510 320 541.0 382.5Q572 445 572 452Q572 458 598.0 492.5Q624 527 624 530Q624 534 639.0 553.5Q654 573 674.5 601.5Q695 630 706 651Q713 666 727.5 687.0Q742 708 744 720Q749 747 784 747Q797 747 805.5 736.0Q814 725 814 711Q814 696 803.0 681.5Q792 667 792 666Q792 664 786.5 657.5Q781 651 773.0 642.0Q765 633 762 629Q749 607 733.5 586.0Q718 565 711.0 555.0Q704 545 704 542Q704 536 700 536Q698 536 695.0 530.0Q692 524 684.5 511.0Q677 498 668 486Q652 468 652 462Q652 457 642 449Q634 441 620.0 413.0Q606 385 606 376Q606 370 599.0 362.5Q592 355 594 353Q594 352 594 350Q594 349 590.5 344.5Q587 340 575.5 320.5Q564 301 548 270Q542 256 536.5 247.5Q531 239 529.0 237.0Q527 235 526.5 233.0Q526 231 526 228Q526 223 518.5 214.0Q511 205 514 200Q515 196 508.5 191.0Q502 186 502 178Q502 171 492.0 156.0Q482 141 478 131Q476 125 472 113Q454 67 447.0 53.5Q440 40 430 40Q421 40 404 48Q388 54 384.5 59.5Q381 65 376 89Q371 113 364.5 126.5Q358 140 358 144Q358 161 356 161Q353 161 350.5 165.5Q348 170 343.0 180.5Q338 191 330 200Q322 212 322 219Q322 223 302.0 265.0Q282 307 280 318Q277 332 269.0 349.5Q261 367 258 367Q254 367 246.0 384.0Q238 401 238 409Q238 418 234 420Q228 422 206.0 465.5Q184 509 180 524Q178 535 166.0 554.0Q154 573 150 573Q148 573 145.0 582.0Q142 591 137.0 602.5Q132 614 126 619Q118 626 118 636Q118 643 110.5 650.5Q103 658 102 662Q102 667 94.0 677.0Q86 687 86 697Q86 711 96.0 723.0Q106 735 116 735Z" transform="translate(942.50,958.33) scale(0.9583,-0.9583)" fill="#000000" />
  <path d="M 24.637998,12.488337 H 20.72216 q -1.48166,0 -2.54,-1.058333 -1.05833,-1.058333 -1.05833,-2.54 V 3.598338 q 0,-1.481667 1.05833,-2.54 Q 19.2405,4e-6 20.72216,4e-6 h 3.915838 V 0.846671 H 20.72216 q -1.13241,0 -1.94733,0.814917 -0.80433,0.804333 -0.80433,1.93675 v 5.291666 q 0,1.132417 0.80433,1.93675 0.81492,0.814917 1.94733,0.814917 h 3.915838 z" transform="translate(513.81,0.00) scale(80.0747,80.0747)" fill="#000000" />
  <path d="M 75.014662,0.846671 V 4e-6 h 13.123333 v 0.846667 z m 0,11.641666 v -0.846666 h 13.123333 v 0.846666 z" transform="translate(-3520.08,0.00) scale(80.0747,80.0747)" fill="#000000" />
  <path d="M 75.014662,0.846671 V 4e-6 h 13.123333 v 0.846667 z m 0,11.641666 v -0.846666 h 13.123333 v 0.846666 z" transform="translate(-2469.24,0.00) scale(80.0747,80.0747)" fill="#000000" />
  <path d="M 75.014662,0.846671 V 4e-6 h 13.123333 v 0.846667 z m 0,11.641666 v -0.846666 h 13.123333 v 0.846666 z" transform="translate(-1418.39,0.00) scale(80.0747,80.0747)" fill="#000000" />
  <path d="M 75.014662,0.846671 V 4e-6 h 13.123333 v 0.846667 z m 0,11.641666 v -0.846666 h 13.123333 v 0.846666 z" transform="translate(-367.54,0.00) scale(80.0747,80.0747)" fill="#000000" />
  <path d="M 75.014662,0.846671 V 4e-6 h 13.123333 v 0.846667 z m 0,11.641666 v -0.846666 h 13.123333 v 0.846666 z" transform="translate(683.31,0.00) scale(80.0747,80.0747)" fill="#000000" />
  <path d="M 75.014662,0.846671 V 4e-6 h 13.123333 v 0.846667 z m 0,11.641666 v -0.846666 h 13.123333 v 0.846666 z" transform="translate(1734.15,0.00) scale(80.0747,80.0747)" fill="#000000" />
  <path d="m 87.714667,4e-6 h 2.8575 q 1.481666,0 2.54,1.058334 1.058333,1.058333 1.058333,2.54 v 5.291666 q 0,1.481667 -1.058333,2.54 -1.058334,1.058333 -2.54,1.058333 h -2.8575 v -0.846666 h 2.8575 q 1.132416,0 1.93675,-0.814917 0.814916,-0.804333 0.814916,-1.93675 V 3.598338 q 0,-1.132417 -0.814916,-1.93675 -0.804334,-0.814917 -1.93675,-0.814917 h -2.8575 z" transform="translate(1768.05,0.00) scale(80.0747,80.0747)" fill="#000000" />
  <path d="M 606.00,542.00 C 606.00,546.18 603.91,554.87 603.91,568.08 C 603.91,626.37 650.88,632.48 740.82,636.50 C 786.76,638.55 832.37,640.59 866.94,657.93 L 914.83,665.30 C 914.83,665.30 907.22,714.71 907.17,714.70 C 855.17,706.70 855.17,706.70 855.17,706.70 C 845.62,705.23 841.04,697.37 807.61,691.96 C 759.76,684.22 697.95,688.78 646.90,677.14 C 616.57,670.23 554.06,650.54 554.06,566.86 C 554.06,558.44 554.70,549.61 555.98,540.37 C 555.66,515.94 555.39,491.39 555.39,466.76 C 555.39,362.05 560.27,255.89 586.78,151.80 C 586.78,151.80 635.23,164.14 635.22,164.20 C 610.19,262.47 605.41,365.06 605.41,468.94 C 605.41,502.99 606.00,541.27 606.00,542.00  Z M 188.61,713.52 C 253.17,713.52 264.03,634.00 272.00,554.74 L 272.00,472.00 C 272.00,458.65 280.28,461.80 280.28,420.74 C 280.28,419.96 279.71,388.35 279.71,388.02 C 279.71,353.88 280.47,395.07 291.49,306.05 C 298.20,251.85 305.43,193.50 340.54,158.39 C 358.87,140.06 384.10,129.89 414.62,129.89 C 420.36,129.89 426.27,130.25 432.37,130.98 L 791.06,125.03 C 791.06,125.03 991.54,97.24 991.59,97.24 L 998.46,146.76 C 804.56,173.63 795.49,174.96 793.42,174.99 L 431.00,181.00 C 427.46,181.00 422.24,179.74 413.12,179.74 C 360.94,179.74 351.03,232.07 341.10,312.24 C 338.20,335.68 335.46,358.94 329.84,379.96 C 329.75,382.50 329.71,385.14 329.71,387.86 C 329.71,389.00 330.44,424.31 330.44,424.67 C 330.44,441.15 329.05,459.17 322.00,477.10 L 322.00,556.00 C 322.00,557.04 317.74,616.22 305.93,658.28 C 298.73,683.89 274.89,763.28 187.01,763.28 C 178.49,763.28 169.59,762.51 160.32,760.91 C 114.76,759.15 63.76,752.23 19.97,735.32 C 19.97,735.32 37.99,688.67 38.03,688.68 C 93.01,709.92 166.24,711.18 167.53,711.42 C 175.39,712.86 182.37,713.52 188.61,713.52 Z" transform="translate(2612.12,100.00) scale(0.8000,0.8000)" fill="#000000" />
  <path d="M 223.73,118.89 C 223.73,219.81 358.16,259.90 422.73,342.64 C 422.73,342.64 383.31,373.40 383.27,373.36 C 325.30,299.08 173.75,250.23 173.75,118.52 C 173.75,116.12 173.80,113.69 173.91,111.24 C 173.53,108.37 173.28,105.26 173.28,101.99 C 173.28,73.47 193.91,57.00 210.18,55.16 C 335.25,41.04 335.25,41.04 336.34,41.01 C 473.68,37.62 609.98,33.19 748.53,31.01 L 749.47,80.99 C 611.42,83.17 475.59,87.57 338.75,90.96 L 223.40,103.98 C 223.56,105.80 224.00,107.13 224.00,110.00 C 224.00,110.09 223.73,115.58 223.73,118.89  Z M 437.75,579.91 L 472.27,616.08 L 384.25,700.09 C 381.93,702.31 381.93,702.31 307.14,743.86 L 282.85,700.14 L 352.07,661.69 L 437.75,579.91  Z M 609.00,155.00 C 622.81,155.00 634.00,166.19 634.00,180.00 L 634.00,184.00 L 588.00,184.00 L 609.00,205.00 L 600.32,205.00 C 564.02,214.91 428.69,259.50 428.69,373.49 C 428.69,392.21 432.00,402.69 432.00,408.00 C 432.00,410.90 430.81,418.65 430.81,432.71 C 430.81,532.88 493.70,640.11 597.56,657.42 C 705.14,675.35 705.14,675.35 705.14,675.35 C 705.14,675.35 696.92,724.66 696.86,724.65 C 588.46,706.58 588.46,706.58 588.05,706.50 C 462.74,681.35 380.80,559.13 380.80,433.14 C 380.80,425.13 381.13,417.10 381.80,409.10 C 379.78,397.21 378.82,385.67 378.82,374.50 C 378.82,319.38 402.25,273.33 437.08,238.50 C 478.69,196.89 535.39,170.39 590.60,155.83 C 592.69,155.28 594.85,155.00 597.00,155.00 L 609.00,155.00 Z" transform="translate(3662.97,100.00) scale(0.8000,0.8000)" fill="#000000" />
  <path d="M 158.86,260.96 C 158.86,375.30 172.34,489.24 172.34,605.15 C 172.34,612.62 172.28,620.11 172.16,627.61 C 314.43,454.35 415.10,210.75 555.34,32.56 C 560.08,26.53 567.27,23.00 575.00,23.00 C 576.69,23.00 592.25,23.43 598.28,38.88 C 690.29,274.49 789.49,460.57 895.99,710.17 C 897.33,713.30 898.00,716.65 898.00,720.00 L 898.00,724.00 C 898.00,737.57 887.19,748.65 873.63,748.99 C 761.86,752.10 647.89,753.01 535.00,755.00 C 534.77,755.00 534.77,755.00 239.55,747.02 C 232.96,747.47 226.43,747.73 219.99,747.73 C 190.91,747.73 163.07,742.38 143.35,726.91 C 143.35,726.91 140.93,727.71 140.88,727.73 L 139.54,723.70 C 130.76,715.79 116.52,699.23 116.52,668.14 C 116.52,656.75 118.44,644.61 122.08,632.03 C 122.26,623.14 122.34,614.25 122.34,605.35 C 122.34,491.21 108.87,377.16 108.87,261.26 C 108.87,213.49 110.62,210.87 110.62,171.38 C 110.62,164.03 110.58,156.36 110.58,149.79 C 110.58,119.40 111.33,87.26 120.00,54.62 L 120.00,46.00 L 170.00,46.00 L 170.00,58.00 C 170.00,73.77 160.59,69.55 160.59,154.29 C 160.59,160.59 160.61,165.97 160.61,172.20 C 160.61,183.61 160.52,195.22 159.97,207.08 C 159.20,225.03 158.86,242.99 158.86,260.96  Z M 182.63,692.16 C 193.68,696.58 208.26,697.69 220.64,697.69 C 230.57,697.69 236.84,697.00 239.00,697.00 C 239.34,697.00 239.32,700.35 535.15,705.00 C 635.72,706.58 737.20,702.33 837.13,699.89 C 746.58,491.18 651.15,303.64 568.18,98.52 C 434.81,282.24 334.57,523.73 182.63,692.16 Z" transform="translate(4713.81,100.00) scale(0.8000,0.8000)" fill="#000000" />
  <path d="M 478.60,155.05 L 490.39,124.73 L 508.13,67.56 C 508.13,67.56 555.89,82.38 555.87,82.44 C 537.61,141.27 537.61,141.27 537.30,142.08 L 523.30,178.08 C 521.40,182.95 521.40,182.95 507.68,196.68 L 472.32,161.32 L 478.60,155.05  Z M 461.00,47.00 L 511.00,47.00 L 511.00,59.00 C 511.00,61.02 511.00,61.02 500.88,123.71 L 498.96,158.40 L 449.04,155.62 C 451.12,118.29 451.12,118.29 451.33,116.99 L 461.00,56.98 L 461.00,47.00  Z M 562.37,129.59 C 562.37,168.42 541.80,203.48 504.34,203.48 C 457.22,203.48 422.03,167.43 420.10,131.54 C 418.20,123.70 417.31,115.86 417.31,108.15 C 417.31,75.57 433.17,45.44 455.80,26.84 C 455.84,25.68 455.87,25.02 455.87,25.02 L 458.00,25.09 C 471.42,14.70 487.79,7.71 506.07,7.02 L 506.81,26.78 C 518.12,27.17 525.86,27.43 538.13,39.71 C 543.11,44.69 562.69,67.03 562.69,110.58 C 562.69,114.54 562.50,118.47 562.11,122.33 C 562.28,124.71 562.37,127.13 562.37,129.59  Z M 512.00,122.00 C 512.00,118.86 512.63,117.38 512.63,111.28 C 512.63,98.56 509.72,84.93 504.08,76.70 L 478.03,75.80 C 471.40,85.23 467.42,97.04 467.42,108.69 C 467.42,118.90 470.00,121.32 469.99,128.10 C 469.99,140.27 488.52,152.83 499.42,153.01 C 502.46,153.06 504.00,153.60 505.06,153.60 C 506.61,153.60 512.33,144.59 512.33,128.93 C 512.33,127.53 512.00,122.07 512.00,122.00  Z M 392.18,710.51 C 394.59,710.51 440.05,711.08 440.54,711.08 C 545.86,711.08 656.56,700.02 760.54,677.69 C 713.81,557.34 588.95,474.11 520.96,354.41 C 441.54,473.78 341.82,588.03 269.78,710.52 C 282.93,711.18 296.19,711.41 309.68,711.41 C 336.82,711.41 363.77,710.51 392.18,710.51  Z M 392.24,760.51 C 363.89,760.51 336.11,761.42 309.05,761.42 C 281.74,761.42 254.16,760.50 225.73,756.78 C 213.35,755.16 204.00,744.61 204.00,732.00 C 204.00,727.93 204.99,723.86 206.97,720.18 C 291.31,563.03 421.08,425.84 509.59,279.08 L 537.54,295.93 L 546.08,292.38 C 547.74,296.37 549.48,300.32 551.30,304.23 L 552.42,304.90 C 552.27,305.15 552.12,305.40 551.97,305.65 C 616.04,441.50 772.25,529.99 817.06,689.20 C 817.68,691.42 818.00,693.71 818.00,696.00 C 818.00,707.71 809.92,717.69 798.78,720.32 C 683.01,747.68 558.80,761.07 440.63,761.07 C 440.15,761.07 393.01,760.51 392.24,760.51 Z" transform="translate(5764.66,100.00) scale(0.8000,0.8000)" fill="#000000" />
  <path d="M 562.37,129.59 C 562.37,168.42 541.80,203.48 504.34,203.48 C 457.22,203.48 422.03,167.43 420.10,131.54 C 418.20,123.70 417.31,115.86 417.31,108.15 C 417.31,75.57 433.17,45.44 455.80,26.84 C 455.84,25.68 455.87,25.02 455.87,25.02 L 458.00,25.09 C 471.42,14.70 487.79,7.71 506.07,7.02 L 506.81,26.78 C 518.12,27.17 525.86,27.43 538.13,39.71 C 543.11,44.69 562.69,67.03 562.69,110.58 C 562.69,114.54 562.50,118.47 562.11,122.33 C 562.28,124.71 562.37,127.13 562.37,129.59  Z M 512.00,122.00 C 512.00,118.86 512.63,117.38 512.63,111.28 C 512.63,98.56 509.72,84.93 504.08,76.70 L 478.03,75.80 C 471.40,85.23 467.42,97.04 467.42,108.69 C 467.42,118.90 470.00,121.32 469.99,128.10 C 469.99,140.27 488.52,152.83 499.42,153.01 C 502.46,153.06 504.00,153.60 505.06,153.60 C 506.61,153.60 512.33,144.59 512.33,128.93 C 512.33,127.53 512.00,122.07 512.00,122.00  Z M 392.18,710.51 C 394.59,710.51 440.05,711.08 440.54,711.08 C 545.86,711.08 656.56,700.02 760.54,677.69 C 713.81,557.34 588.95,474.11 520.96,354.41 C 441.54,473.78 341.82,588.03 269.78,710.52 C 282.93,711.18 296.19,711.41 309.68,711.41 C 336.82,711.41 363.77,710.51 392.18,710.51  Z M 392.24,760.51 C 363.89,760.51 336.11,761.42 309.05,761.42 C 281.74,761.42 254.16,760.50 225.73,756.78 C 213.35,755.16 204.00,744.61 204.00,732.00 C 204.00,727.93 204.99,723.86 206.97,720.18 C 291.31,563.03 421.08,425.84 509.59,279.08 L 537.54,295.93 L 546.08,292.38 C 547.74,296.37 549.48,300.32 551.30,304.23 L 552.42,304.90 C 552.27,305.15 552.12,305.40 551.97,305.65 C 616.04,441.50 772.25,529.99 817.06,689.20 C 817.68,691.42 818.00,693.71 818.00,696.00 C 818.00,707.71 809.92,717.69 798.78,720.32 C 683.01,747.68 558.80,761.07 440.63,761.07 C 440.15,761.07 393.01,760.51 392.24,760.51 Z" transform="translate(6815.51,100.00) scale(0.8000,0.8000)" fill="#000000" />
  <path d="M 401.00,131.00 C 376.66,131.00 351.33,107.86 351.33,84.01 C 351.33,81.77 351.54,79.45 352.00,77.06 C 353.02,48.40 378.36,33.25 392.71,24.67 C 393.22,24.36 398.21,21.37 399.37,20.49 L 422.46,49.25 C 427.47,52.78 438.12,62.38 438.12,80.17 C 438.12,81.22 438.08,82.28 437.99,83.32 C 437.99,83.51 437.99,83.70 437.99,83.90 C 438.00,84.93 438.01,86.06 438.01,87.29 C 438.01,130.35 403.09,131.00 401.00,131.00  Z M 201.42,181.56 L 232.54,142.41 L 388.58,266.44 L 357.46,305.59 C 357.46,305.59 201.46,181.59 201.42,181.56  Z M 408.05,512.35 L 449.97,539.62 L 341.95,705.65 L 300.03,678.38 C 300.03,678.38 408.03,512.38 408.05,512.35  Z M 603.52,100.45 C 617.37,100.45 630.21,111.06 630.21,126.54 C 630.21,131.42 628.96,135.38 628.29,137.09 L 611.57,130.58 C 610.87,134.39 609.27,138.07 606.79,141.28 L 605.30,128.14 L 581.72,118.96 L 587.27,143.62 L 606.10,150.24 C 601.54,151.34 598.35,153.47 590.37,154.38 C 589.39,154.49 588.26,154.63 586.82,154.63 C 584.68,154.63 578.80,154.30 573.26,151.03 C 462.15,156.17 403.43,286.67 403.43,386.40 C 403.43,391.40 403.58,396.35 403.87,401.24 C 421.69,511.78 515.35,602.55 619.46,625.39 L 632.56,627.26 C 632.56,627.26 625.49,676.75 625.44,676.74 C 610.56,674.62 610.56,674.62 609.70,674.43 C 484.63,647.45 374.92,539.74 354.31,407.89 C 354.27,407.67 353.42,400.12 353.42,385.59 C 353.42,249.92 438.68,100.88 580.40,100.88 C 585.35,100.88 589.69,100.88 593.24,101.79 C 593.35,101.76 598.57,100.45 603.52,100.45 Z" transform="translate(7866.35,100.00) scale(0.8000,0.8000)" fill="#000000" />
</svg>
