<?xml version="1.0" encoding="UTF-8" standalone="no"?>
<!--
Representation of "linja" in sitelen kalama pona
Generated by generate_sitelen_kalama_pona.py

Description:
  Representation of "linja" in sitelen kalama pona.
  Sources: linja: https://commons.wikimedia.org/wiki/File:Sitelen_seli_kiwen_-_linja.svg

Categories:
  [[Category:Toki Pona text containing linja]]

Sources:
  linja: https://commons.wikimedia.org/wiki/File:Sitelen_seli_kiwen_-_linja.svg
-->
<svg version="1.1" width="862" height="1000"
     viewBox="0 0 862 1000"
     xmlns="http://www.w3.org/2000/svg">
  <path d="M508 410Q497 410 481.0 395.5Q465 381 447.5 363.0Q430 345 392.5 330.5Q355 316 306 316Q234 316 194 336Q183 342 158.5 365.0Q134 388 113.5 408.0Q93 428 90 428Q86 428 84.0 436.5Q82 445 82 454V462Q82 472 91.5 480.5Q101 489 112 489Q133 489 176.5 446.0Q220 403 236 397Q272 385 320 385Q349 385 359.0 393.5Q369 402 376 403Q387 405 411.5 421.0Q436 437 436 442Q436 444 450.0 448.0Q464 452 464 460Q464 473 516.5 485.0Q569 497 572 504Q575 509 596 509Q638 509 681.0 490.5Q724 472 745.5 455.0Q767 438 774 429Q791 405 800 396Q818 374 818 352Q818 339 810.0 331.0Q802 323 788 323Q765 323 750.5 336.0Q736 349 724.5 367.5Q713 386 702 392Q691 399 684 406Q681 408 670.5 415.0Q660 422 640.0 430.0Q620 438 604 438Q567 438 539.5 424.0Q512 410 508 410Z" transform="translate(0.00,958.33) scale(0.9583,-0.9583)" fill="#000000" />
</svg>
