<?xml version="1.0" encoding="UTF-8" standalone="no"?>
<!--
Representation of "telo seli kasi linja kon" in sitelen ilo pona
Generated by generate_sitelen_kalama_pona.py

Description:
  Representation of "telo seli kasi linja kon" in sitelen ilo pona.
  Sources: telo: https://commons.wikimedia.org/wiki/File:Sitelen_seli_kiwen_-_telo.svg; seli: https://commons.wikimedia.org/wiki/File:Sitelen_seli_kiwen_-_seli.svg; kasi: https://commons.wikimedia.org/wiki/File:Sitelen_seli_kiwen_-_kasi.svg; linja: https://commons.wikimedia.org/wiki/File:Sitelen_seli_kiwen_-_linja.svg; kon: https://commons.wikimedia.org/wiki/File:Sitelen_seli_kiwen_-_kon.svg

Categories:
  [[Category:Sitelen kalama pona]]
  [[Category:Toki Pona text containing telo seli kasi linja kon]]

Sources:
  telo: https://commons.wikimedia.org/wiki/File:Sitelen_seli_kiwen_-_telo.svg
  seli: https://commons.wikimedia.org/wiki/File:Sitelen_seli_kiwen_-_seli.svg
  kasi: https://commons.wikimedia.org/wiki/File:Sitelen_seli_kiwen_-_kasi.svg
  linja: https://commons.wikimedia.org/wiki/File:Sitelen_seli_kiwen_-_linja.svg
  kon: https://commons.wikimedia.org/wiki/File:Sitelen_seli_kiwen_-_kon.svg
-->
<svg version="1.1" width="4632" height="1000"
     viewBox="0 0 4632 1000"
     xmlns="http://www.w3.org/2000/svg">
  <path d="M554 195Q544 195 534.5 194.0Q525 193 521.5 192.5Q518 192 513 191Q506 189 506 193Q506 198 496 198Q488 198 475.5 205.0Q463 212 450 215Q436 218 415.0 227.5Q394 237 394 241Q394 250 354.0 256.5Q314 263 302 263Q288 263 254.0 245.5Q220 228 220 221Q220 217 214 217Q211 217 202.0 210.0Q193 203 178 203Q156 203 152 214Q152 217 154 217Q156 218 154.0 219.0Q152 220 149.0 226.0Q146 232 146 238Q146 249 171.0 272.0Q196 295 224 308Q237 315 246.0 318.0Q255 321 275.0 324.0Q295 327 324 327Q341 327 347.5 325.5Q354 324 364.0 319.5Q374 315 392 311Q411 306 426.0 297.5Q441 289 449.5 282.0Q458 275 487.5 270.0Q517 265 566 265Q598 265 622.0 274.5Q646 284 655.0 292.0Q664 300 664 302Q667 311 670.5 311.0Q674 311 693.0 329.5Q712 348 732 348Q745 348 753.0 341.5Q761 335 762.5 330.5Q764 326 764 323Q764 302 740.5 267.5Q717 233 698 233Q689 233 685.5 232.0Q682 231 681.0 229.5Q680 228 674.5 224.0Q669 220 658 215Q640 206 632 197Q622 187 604 191Q579 195 554 195ZM170 424Q163 424 149.5 441.0Q136 458 136 473Q136 486 151.5 508.0Q167 530 178 534Q193 540 204 549Q221 563 254.5 572.5Q288 582 304 582Q326 582 373.5 560.0Q421 538 430 528Q436 522 444 522Q446 522 477.5 506.0Q509 490 536 490Q614 490 638 520Q644 528 657.0 534.0Q670 540 680 540Q690 540 690 534Q690 529 704.0 522.5Q718 516 718 512Q717 497 710.0 489.5Q703 482 696.5 480.0Q690 478 690 475Q690 470 682 470Q677 470 672.0 463.0Q667 456 658 454Q648 452 648.0 447.0Q648 442 642 442Q637 442 616.5 432.0Q596 422 557.5 422.0Q519 422 504.0 426.5Q489 431 482 431Q470 431 424.5 457.5Q379 484 374 484Q368 484 342.5 498.0Q317 512 302 512Q270 512 246.0 498.0Q222 484 211.0 468.0Q200 452 189.0 438.0Q178 424 170 424Z" transform="translate(0.00,958.33) scale(0.9583,-0.9583)" fill="#000000" />
  <path d="M431 26Q404 26 379.0 51.5Q354 77 354 100Q354 110 364.5 126.0Q375 142 385 147Q389 149 397.0 161.5Q405 174 416.5 183.5Q428 193 443 193Q449 193 461.5 189.5Q474 186 491.5 167.5Q509 149 509 119Q509 93 501.5 74.5Q494 56 484.5 47.0Q475 38 462.0 33.0Q449 28 442.5 27.0Q436 26 431 26ZM183 628Q183 662 214 662Q229 662 236.5 655.0Q244 648 253 625Q303 506 303 485Q303 479 314.5 454.5Q326 430 326 423Q326 413 332.0 392.5Q338 372 341 372Q345 372 345 364Q345 358 354.0 348.5Q363 339 369 339Q372 339 371 336Q370 333 369.0 330.5Q368 328 367.0 320.5Q366 313 366 305Q365 284 357.5 276.5Q350 269 330 269Q317 269 312.0 271.5Q307 274 299.0 285.0Q291 296 291 310Q291 320 288.5 334.0Q286 348 282.0 361.5Q278 375 274.0 386.5Q270 398 268 406L265 413Q265 416 258.0 433.0Q251 450 250 462Q250 473 243.5 486.5Q237 500 237 513Q237 531 233.0 531.0Q229 531 221.5 545.0Q214 559 214 565Q214 568 198.5 590.0Q183 612 183 628ZM489 314Q489 317 501.5 341.5Q514 366 514 371Q514 378 535.0 408.5Q556 439 561 452Q565 462 574.5 483.0Q584 504 591.0 520.5Q598 537 598 540Q598 545 603 545Q609 545 617.5 567.5Q626 590 627 607Q629 628 637 636Q643 642 650 654Q653 660 662.0 665.5Q671 671 678 674L686 676Q690 677 703.5 666.0Q717 655 717 652Q712 648 709 626Q707 608 695.0 590.5Q683 573 678 558Q673 538 659 518Q648 502 632.0 468.5Q616 435 604.0 409.0Q592 383 589 381Q576 372 576 334Q576 332 576.5 329.5Q577 327 577 326Q580 308 571 300Q555 286 523 286Q508 286 498.5 296.0Q489 306 489 314ZM400 698Q400 712 409.0 720.5Q418 729 427 730L436 732Q444 732 447 725Q451 716 457 708Q464 700 465.0 662.5Q466 625 469 621Q472 615 468 612Q452 602 452 463V431Q452 346 458 341Q463 338 463 331Q463 327 461.0 317.0Q459 307 450.0 293.5Q441 280 426 280Q409 280 398.5 288.5Q388 297 386.5 303.0Q385 309 385 312Q385 313 388.0 323.0Q391 333 391 353Q391 370 394.0 410.5Q397 451 397 466Q397 482 395.0 488.0Q393 494 393 506Q393 549 400.5 575.5Q408 602 408 613Q408 628 404.0 657.5Q400 687 400 698Z" transform="translate(942.50,958.33) scale(0.9583,-0.9583)" fill="#000000" />
  <path d="M420 121Q420 127 423.0 131.5Q426 136 426 140Q426 148 436 166Q444 184 444 208Q444 260 438 284Q434 293 434 368Q434 439 428 445Q423 450 389.0 459.5Q355 469 338 469Q324 469 295.5 483.0Q267 497 260 499Q239 505 228 514Q217 523 210 523Q200 523 164.5 556.5Q129 590 122 606Q112 626 101.0 661.0Q90 696 90 707Q90 718 97.5 722.0Q105 726 136 733Q164 739 206 739Q314 739 342 716Q391 676 416 649Q436 628 446 628Q454 628 464 645Q488 687 544 714Q579 731 597.0 734.5Q615 738 654 738Q711 738 755.0 733.5Q799 729 806 722Q810 718 810 710Q810 698 801.5 668.5Q793 639 790 634Q782 627 782 624Q782 611 740.0 568.5Q698 526 680 521Q670 518 670 512Q670 508 662 508Q653 508 630 495Q619 488 610.0 484.5Q601 481 587.0 477.0Q573 473 566 470Q561 468 544.5 465.0Q528 462 515.0 458.5Q502 455 500 450Q497 447 492.5 400.5Q488 354 488 345Q488 340 490 329Q500 302 500 145V117Q500 85 492.5 72.5Q485 60 458 60Q441 60 434 68Q429 74 424.5 91.5Q420 109 420 121ZM738 676Q738 682 690 682H666Q645 682 635.5 682.0Q626 682 616.5 680.0Q607 678 604.0 676.0Q601 674 589.5 668.0Q578 662 568 657L532 639L514 602Q492 559 492 547Q492 539 502.5 534.5Q513 530 526 530Q549 530 576.0 537.0Q603 544 616 555Q625 563 638.0 572.0Q651 581 658 586Q659 588 679.0 600.0Q699 612 702 620Q705 625 721.5 646.5Q738 668 738 676ZM334 648Q322 658 289.0 668.0Q256 678 238 678Q234 678 223.5 675.5Q213 673 198 673Q168 673 168.0 667.0Q168 661 182.5 637.5Q197 614 212 597Q227 576 254 569Q269 565 276.0 562.0Q283 559 292.5 554.0Q302 549 316 543Q345 532 350 527Q354 523 378 523Q402 523 410 532Q416 538 415.5 543.5Q415 549 404 563Q397 574 382 594Q378 598 372.0 610.0Q366 622 360.0 630.5Q354 639 348 639Q342 639 334 648Z" transform="translate(1885.00,958.33) scale(0.9583,-0.9583)" fill="#000000" />
  <path d="M508 410Q497 410 481.0 395.5Q465 381 447.5 363.0Q430 345 392.5 330.5Q355 316 306 316Q234 316 194 336Q183 342 158.5 365.0Q134 388 113.5 408.0Q93 428 90 428Q86 428 84.0 436.5Q82 445 82 454V462Q82 472 91.5 480.5Q101 489 112 489Q133 489 176.5 446.0Q220 403 236 397Q272 385 320 385Q349 385 359.0 393.5Q369 402 376 403Q387 405 411.5 421.0Q436 437 436 442Q436 444 450.0 448.0Q464 452 464 460Q464 473 516.5 485.0Q569 497 572 504Q575 509 596 509Q638 509 681.0 490.5Q724 472 745.5 455.0Q767 438 774 429Q791 405 800 396Q818 374 818 352Q818 339 810.0 331.0Q802 323 788 323Q765 323 750.5 336.0Q736 349 724.5 367.5Q713 386 702 392Q691 399 684 406Q681 408 670.5 415.0Q660 422 640.0 430.0Q620 438 604 438Q567 438 539.5 424.0Q512 410 508 410Z" transform="translate(2827.50,958.33) scale(0.9583,-0.9583)" fill="#000000" />
  <path d="M531 60Q522 60 505.0 73.5Q488 87 488 95Q488 101 497.0 114.5Q506 128 514 133Q538 151 605 218Q613 226 613.5 236.5Q614 247 620 250Q628 255 629.0 274.0Q630 293 631 295Q632 296 632 300Q632 316 611.0 348.5Q590 381 579 381Q574 381 563.0 391.5Q552 402 535.0 417.0Q518 432 504 440Q488 450 488 455Q488 459 481.5 470.5Q475 482 475 497Q475 513 479.0 531.5Q483 550 488.0 561.5Q493 573 497 573Q500 573 531.0 613.0Q562 653 564.0 653.0Q566 653 576.0 669.5Q586 686 588 686Q591 686 591.0 692.0Q591 698 609.0 708.0Q627 718 634 718Q642 718 654.0 710.0Q666 702 667 696Q668 687 668 677Q668 665 656 657Q641 647 623.5 629.0Q606 611 606 606Q606 602 573.0 565.0Q540 528 540 516Q540 512 543.5 505.5Q547 499 553.0 492.0Q559 485 566.5 477.0Q574 469 581.5 461.5Q589 454 597.0 447.0Q605 440 610.5 435.0Q616 430 620 427L624 424Q656 400 671.5 378.5Q687 357 691.5 339.5Q696 322 699 318Q701 314 701 297Q701 291 699.5 264.0Q698 237 698 235Q697 225 688.5 220.5Q680 216 680 211Q680 203 676 203Q671 203 669 195Q665 181 620.0 139.5Q575 98 575 95Q575 91 573 91Q570 91 566.5 81.5Q563 72 554 72Q544 72 539.0 66.0Q534 60 531 60ZM296 665Q296 678 330.0 702.5Q364 727 382 727Q385 727 388.5 720.5Q392 714 397 714Q406 714 406 698Q406 688 374.5 655.5Q343 623 343 618Q343 614 326.5 599.0Q310 584 310 580Q310 577 304.5 572.0Q299 567 293.5 557.0Q288 547 288 529Q288 518 299.0 500.0Q310 482 310.0 477.0Q310 472 326.5 463.0Q343 454 343 450Q343 445 376.0 411.0Q409 377 409 374L416 355Q424 336 424 302Q424 273 419.5 255.0Q415 237 409.5 227.0Q404 217 403 212Q402 202 388.0 186.0Q374 170 366 170Q357 170 357.0 161.0Q357 152 339.5 135.5Q322 119 300.0 102.5Q278 86 276 84Q267 75 243 78Q217 82 210 82Q199 82 199 97Q199 119 205.5 128.0Q212 137 221.5 138.5Q231 140 251.0 150.0Q271 160 290 180Q315 205 315 210Q315 214 325.5 223.0Q336 232 346.5 246.5Q357 261 357 278Q357 288 360.0 293.0Q363 298 363 301Q363 312 359.0 321.5Q355 331 348.5 343.0Q342 355 338 364Q331 384 299.5 401.0Q268 418 268 424Q268 427 257.0 439.0Q246 451 246 455Q246 463 244.5 466.5Q243 470 240.5 469.5Q238 469 236.5 470.5Q235 472 235.0 478.0Q235 484 231.0 484.0Q227 484 223.0 503.0Q219 522 219 536Q219 544 222.5 549.5Q226 555 226.0 562.0Q226 569 233.0 577.5Q240 586 242 596Q244 607 270.0 634.5Q296 662 296 665Z" transform="translate(3770.00,958.33) scale(0.9583,-0.9583)" fill="#000000" />
</svg>
