<?xml version="1.0" encoding="UTF-8" standalone="no"?>
<!--
Representation of "jan sewi meli Sanatula" in sitelen kalama pona
Generated by generate_sitelen_kalama_pona.py

Description:
  Representation of "jan sewi meli Sanatula" in sitelen kalama pona.
  Sources: jan-sewi: https://commons.wikimedia.org/wiki/File:Sitelen_seli_kiwen_-_jan-sewi.svg; meli: https://commons.wikimedia.org/wiki/File:Sitelen_seli_kiwen_-_meli.svg; sa: https://commons.wikimedia.org/wiki/File:Sitelen_kalama_pona_-_sa.svg; na: https://commons.wikimedia.org/wiki/File:Sitelen_kalama_pona_-_na.svg; tu: https://commons.wikimedia.org/wiki/File:Sitelen_kalama_pona_-_tu.svg; la: https://commons.wikimedia.org/wiki/File:Sitelen_kalama_pona_-_la.svg

Categories:
  [[Category:Sitelen kalama pona]]
  [[Category:Toki Pona text containing jan sewi meli]]
  [[Category:Toki Pona text containing sound symbol Sa]]
  [[Category:Toki Pona text containing sound symbol Na]]
  [[Category:Toki Pona text containing sound symbol Tu]]
  [[Category:Toki Pona text containing sound symbol La]]

Sources:
  jan-sewi: https://commons.wikimedia.org/wiki/File:Sitelen_seli_kiwen_-_jan-sewi.svg
  meli: https://commons.wikimedia.org/wiki/File:Sitelen_seli_kiwen_-_meli.svg
  sa: https://commons.wikimedia.org/wiki/File:Sitelen_kalama_pona_-_sa.svg
  na: https://commons.wikimedia.org/wiki/File:Sitelen_kalama_pona_-_na.svg
  tu: https://commons.wikimedia.org/wiki/File:Sitelen_kalama_pona_-_tu.svg
  la: https://commons.wikimedia.org/wiki/File:Sitelen_kalama_pona_-_la.svg
-->
<svg version="1.1" width="7207" height="1000"
     viewBox="0 0 7207 1000"
     xmlns="http://www.w3.org/2000/svg">
  <path d="M426 418Q426 424 432.5 441.5Q439 459 439 475Q439 490 446.5 503.5Q454 517 468 517Q475 517 484 512Q505 501 505 477Q505 450 492.5 420.0Q480 390 470.5 376.5Q461 363 455 357Q446 348 438.0 346.0Q430 344 400 344Q332 344 313 347Q299 349 288.0 369.5Q277 390 277 408Q277 432 299 432Q308 432 316.5 423.5Q325 415 332 415Q348 415 348 437V444Q346 455 348.0 459.0Q350 463 357 468Q365 473 372 473Q384 473 393.0 457.0Q402 441 409.0 425.0Q416 409 422 409Q426 409 426 418ZM521 544Q522 572 527.5 581.0Q533 590 554.0 590.0Q575 590 582 583Q586 579 586 542Q586 493 579.0 454.0Q572 415 572 415Q572 405 581 399Q590 392 588 385Q584 368 583 358Q581 339 573.5 332.0Q566 325 547 325Q532 325 526.5 331.0Q521 337 521 354Q521 391 518.0 394.0Q515 397 515 414Q515 426 516 433Q517 444 517 451Q517 460 515.5 466.0Q514 472 514 474Q514 479 516 489Q519 500 521 544ZM201 326Q201 332 194.0 337.5Q187 343 187 348Q187 357 178.5 381.0Q170 405 167 405Q164 406 166.0 409.0Q168 412 170.5 420.5Q173 429 171 436Q170 438 170 442Q170 456 179.5 482.5Q189 509 198.5 529.5Q208 550 210 550Q211 550 215.0 558.5Q219 567 225.0 577.5Q231 588 238 592Q249 599 268.5 620.0Q288 641 291.0 649.0Q294 657 323.5 675.0Q353 693 377 701Q398 708 412 715Q418 718 433 716Q452 714 495 712Q554 709 602 683Q624 670 645.0 651.0Q666 632 677.0 619.0Q688 606 689 606Q693 606 693 600Q693 592 703 584Q715 574 733.0 531.5Q751 489 751 473Q751 467 751.0 467.0Q751 467 750.5 470.0Q750 473 750 473Q749 473 749 442Q749 422 742.0 396.5Q735 371 728 364Q725 361 716.0 350.5Q707 340 696.0 323.0Q685 306 685 298Q685 286 696.5 269.0Q708 252 710 245Q713 236 724.0 220.5Q735 205 735 203Q735 198 742.0 198.0Q749 198 749 190Q749 184 780.0 149.0Q811 114 811 94Q811 63 783 63Q758 63 732 87Q723 95 721.5 99.0Q720 103 720.0 117.0Q720 131 694.5 159.0Q669 187 663 200Q655 217 640 233L623 251L605 241Q553 213 495 213Q481 213 460.5 208.0Q440 203 403 203Q356 203 348 209Q342 214 321 224L302 234L259 191Q215 147 215 143Q215 140 211.5 138.0Q208 136 196.5 125.5Q185 115 171 95Q145 58 130 58Q126 58 117.5 60.0Q109 62 99.0 69.5Q89 77 89 88Q89 106 126.0 148.5Q163 191 200.5 229.0Q238 267 238 273Q238 276 219.5 297.5Q201 319 201 326ZM690 464Q690 498 682.5 520.0Q675 542 665.5 548.5Q656 555 648.5 559.5Q641 564 641 568Q641 573 614.5 599.0Q588 625 583 625Q581 625 576.5 629.5Q572 634 558.5 641.0Q545 648 522 653Q483 662 441 662Q385 662 385 649Q385 642 384.5 639.0Q384 636 380.0 633.0Q376 630 368 630Q358 630 337.0 605.5Q316 581 312 580Q293 577 283.0 566.5Q273 556 246 515Q224 478 224 432Q224 375 267 335Q288 316 290.0 316.0Q292 316 304.0 306.5Q316 297 324 297Q333 297 338 290Q342 284 377.5 276.0Q413 268 432 268Q446 268 495.5 278.0Q545 288 562 298Q570 303 587 308Q600 311 622.5 332.5Q645 354 653 370Q660 386 667 386Q677 386 683.5 409.5Q690 433 690 464Z" transform="translate(0.00,958.33) scale(0.9583,-0.9583)" fill="#000000" />
  <path d="M496 609Q509 609 540.0 596.0Q571 583 576 583Q587 583 624.0 547.0Q661 511 674 487Q708 420 708 334Q708 300 705.5 284.5Q703 269 696 258Q686 245 686 236Q686 234 676.0 219.5Q666 205 639.5 181.0Q613 157 580 141Q540 122 520 122Q505 122 462.5 124.0Q420 126 418 130Q414 135 377.5 142.0Q341 149 338 152Q337 155 315.5 166.5Q294 178 271.5 195.5Q249 213 242 230Q237 240 231.5 247.5Q226 255 224.0 259.0Q222 263 222 269Q222 273 217.0 287.5Q212 302 210 330Q206 365 204.5 367.5Q203 370 207.5 374.0Q212 378 206 386Q204 392 204 397Q204 402 207.0 411.5Q210 421 210 424Q210 427 208.0 429.5Q206 432 206 433Q206 434 208.5 436.0Q211 438 214.5 446.0Q218 454 218 468Q220 496 233.0 516.0Q246 536 264.0 552.5Q282 569 288 578Q296 592 310 592Q320 592 328.5 599.0Q337 606 342.5 606.0Q348 606 369.5 609.0Q391 612 410 612Q432 612 447.0 610.0Q462 608 469.0 605.5Q476 603 478.5 603.0Q481 603 485.5 606.0Q490 609 496 609ZM596 489Q596 491 593.0 496.5Q590 502 578.0 511.5Q566 521 547.5 529.5Q529 538 494.0 544.5Q459 551 414 551H406Q357 551 330 538Q315 531 293.5 510.0Q272 489 272 482Q272 476 266 474Q260 472 259.0 423.5Q258 375 256 372Q256 371 256 368Q256 366 257.5 362.0Q259 358 262.0 347.5Q265 337 268 324Q271 308 277.0 296.5Q283 285 287.5 279.5Q292 274 292 271Q292 263 319.5 242.5Q347 222 358 222Q367 222 376.0 214.5Q385 207 394 206Q400 205 417.5 200.5Q435 196 450.0 193.0Q465 190 476 190Q526 190 532 193Q536 195 554 200Q556 200 565.0 204.0Q574 208 588.0 218.5Q602 229 615.0 244.0Q628 259 637.0 284.0Q646 309 646 339Q646 369 641.0 395.0Q636 421 629.0 437.0Q622 453 614.5 464.5Q607 476 601.5 482.0Q596 488 596 489ZM96 29Q96 19 89.5 10.5Q83 2 72 2Q65 2 57.0 5.5Q49 9 45 12L40 16Q35 23 29.5 43.0Q24 63 24 76Q24 78 30.0 97.0Q36 116 36.0 127.0Q36 138 30 143Q25 151 25.5 153.0Q26 155 28.5 161.0Q31 167 30 173Q24 243 24 250Q24 255 19.0 283.0Q14 311 14 343Q14 514 26 541Q34 555 34 562Q34 566 43.0 579.5Q52 593 52 599Q52 603 58.5 609.5Q65 616 74.5 626.5Q84 637 90 650Q101 673 125.5 699.5Q150 726 158 731Q186 747 219.0 762.0Q252 777 315.0 793.5Q378 810 434 810Q438 810 451.0 809.5Q464 809 481.0 807.0Q498 805 500 802Q501 801 510.0 802.0Q519 803 530 795Q538 790 554.0 783.5Q570 777 576 777H578Q578 778 587.5 773.0Q597 768 611.5 762.0Q626 756 636 756Q652 756 656 752Q657 751 711.5 719.5Q766 688 772 675Q774 672 781.5 658.5Q789 645 792 638Q807 611 804 611H802Q802 611 806.0 606.5Q810 602 816.0 592.5Q822 583 826 570Q828 560 831.0 554.0Q834 548 836.0 546.5Q838 545 839.5 543.5Q841 542 842.0 539.0Q843 536 843.5 527.5Q844 519 844 504Q844 478 851.0 464.0Q858 450 858 444Q858 443 858.0 440.5Q858 438 858 436V431Q858 418 862.0 395.0Q866 372 866 366V360Q866 356 869.0 327.0Q872 298 875.5 246.0Q879 194 880 137Q880 106 883.0 93.0Q886 80 886 67Q886 49 879.0 39.0Q872 29 867.0 27.5Q862 26 858 26Q851 26 844.5 30.0Q838 34 835 38L832 42Q827 53 822 59Q818 65 818 85Q818 102 814.0 172.0Q810 242 806 249Q804 250 804 254Q804 257 807.0 267.0Q810 277 810 282Q810 288 808 293Q804 301 804.5 303.5Q805 306 807.5 311.5Q810 317 810.0 323.0Q810 329 805.0 357.5Q800 386 800 409Q799 437 792.0 467.5Q785 498 780 498Q778 498 777 501Q775 521 758 555Q742 593 742 594Q742 597 732.5 610.5Q723 624 706.0 641.0Q689 658 672 662Q662 664 624.5 685.5Q587 707 576 707Q572 707 570 706Q568 704 566 704Q561 704 532.5 718.5Q504 733 478 734Q461 735 453.5 741.0Q446 747 434 747Q425 747 413.5 741.5Q402 736 374 735Q342 734 309.5 720.5Q277 707 264 704Q202 691 174 653Q142 609 142 607Q142 607 127.0 588.0Q112 569 112 556Q112 550 106.0 544.0Q100 538 100 531Q100 525 95.0 520.5Q90 516 90 502Q90 502 89.5 491.0Q89 480 88.5 461.5Q88 443 87.0 421.5Q86 400 85.0 374.5Q84 349 84 328Q84 245 94 227Q99 219 98.0 211.0Q97 203 100 195Q103 187 99.0 182.0Q95 177 98 174Q102 167 102 107Q102 90 101.5 78.0Q101 66 100.5 59.5Q100 53 99.0 49.0Q98 45 97.0 43.5Q96 42 96 41Z" transform="translate(942.50,958.33) scale(0.9583,-0.9583)" fill="#000000" />
  <path d="M 24.637998,12.488337 H 20.72216 q -1.48166,0 -2.54,-1.058333 -1.05833,-1.058333 -1.05833,-2.54 V 3.598338 q 0,-1.481667 1.05833,-2.54 Q 19.2405,4e-6 20.72216,4e-6 h 3.915838 V 0.846671 H 20.72216 q -1.13241,0 -1.94733,0.814917 -0.80433,0.804333 -0.80433,1.93675 v 5.291666 q 0,1.132417 0.80433,1.93675 0.81492,0.814917 1.94733,0.814917 h 3.915838 z" transform="translate(513.81,0.00) scale(80.0747,80.0747)" fill="#000000" />
  <path d="M 75.014662,0.846671 V 4e-6 h 13.123333 v 0.846667 z m 0,11.641666 v -0.846666 h 13.123333 v 0.846666 z" transform="translate(-3520.08,0.00) scale(80.0747,80.0747)" fill="#000000" />
  <path d="M 75.014662,0.846671 V 4e-6 h 13.123333 v 0.846667 z m 0,11.641666 v -0.846666 h 13.123333 v 0.846666 z" transform="translate(-2469.24,0.00) scale(80.0747,80.0747)" fill="#000000" />
  <path d="M 75.014662,0.846671 V 4e-6 h 13.123333 v 0.846667 z m 0,11.641666 v -0.846666 h 13.123333 v 0.846666 z" transform="translate(-1418.39,0.00) scale(80.0747,80.0747)" fill="#000000" />
  <path d="M 75.014662,0.846671 V 4e-6 h 13.123333 v 0.846667 z m 0,11.641666 v -0.846666 h 13.123333 v 0.846666 z" transform="translate(-367.54,0.00) scale(80.0747,80.0747)" fill="#000000" />
  <path d="m 87.714667,4e-6 h 2.8575 q 1.481666,0 2.54,1.058334 1.058333,1.058333 1.058333,2.54 v 5.291666 q 0,1.481667 -1.058333,2.54 -1.058334,1.058333 -2.54,1.058333 h -2.8575 v -0.846666 h 2.8575 q 1.132416,0 1.93675,-0.814917 0.814916,-0.804333 0.814916,-1.93675 V 3.598338 q 0,-1.132417 -0.814916,-1.93675 -0.804334,-0.814917 -1.93675,-0.814917 h -2.8575 z" transform="translate(-333.64,0.00) scale(80.0747,80.0747)" fill="#000000" />
  <path d="M 577.64,565.25 C 577.64,456.40 383.33,439.54 383.33,286.00 C 383.33,215.36 440.44,158.77 504.81,136.38 L 521.24,183.61 C 500.67,190.76 479.72,203.37 463.83,219.27 C 444.85,238.24 433.32,260.88 433.32,285.95 C 433.32,342.59 469.36,371.28 522.33,411.26 C 572.69,449.26 627.55,490.67 627.55,565.94 C 627.55,572.64 627.10,579.52 626.16,586.58 C 626.55,591.04 626.73,595.49 626.73,599.92 C 626.73,670.56 579.14,737.39 510.17,757.95 C 506.95,758.91 506.95,758.91 415.57,760.99 L 414.43,711.01 L 498.87,709.09 C 546.17,693.40 576.72,646.05 576.72,599.58 C 576.72,594.79 576.00,586.14 576.00,586.00 C 576.00,581.85 577.64,576.17 577.64,565.25  Z M 197.72,446.47 C 197.72,492.62 208.00,522.50 208.00,530.00 C 208.00,532.16 186.84,735.12 185.86,744.60 C 185.86,744.60 136.14,739.44 136.14,739.40 C 157.70,531.63 157.70,531.63 157.70,531.63 C 151.03,502.59 147.85,474.33 147.85,447.12 C 147.85,258.30 300.17,123.35 494.47,123.35 C 520.32,123.35 546.83,125.74 573.72,130.70 C 575.87,130.50 577.95,130.42 579.99,130.42 C 597.86,130.42 618.35,135.00 635.00,135.00 C 637.38,135.00 637.38,135.00 723.71,151.45 C 723.71,151.45 714.35,200.56 714.29,200.55 C 633.32,185.13 633.32,185.13 633.32,185.13 C 632.48,185.15 631.65,185.17 630.82,185.17 C 617.86,185.17 593.41,180.49 579.47,180.49 C 576.64,180.49 576.40,181.00 573.00,181.00 C 566.76,181.00 538.47,173.33 494.42,173.33 C 329.07,173.33 197.72,285.24 197.72,446.47 Z" transform="translate(2612.12,100.00) scale(0.8000,0.8000)" fill="#000000" />
  <path d="M 108.86,305.66 C 108.86,140.71 217.05,29.02 382.26,29.02 C 406.69,29.02 432.26,31.46 458.75,36.48 C 466.58,34.95 474.37,34.15 481.97,34.15 C 504.36,34.15 525.15,41.06 540.69,56.60 C 556.29,72.20 564.00,93.97 564.00,117.76 C 564.00,198.00 564.00,198.00 564.00,198.00 L 514.00,198.00 L 514.00,118.13 C 513.84,103.00 509.17,84.05 482.21,84.05 C 470.85,84.05 465.10,87.00 459.00,87.00 C 452.60,87.00 423.64,78.92 381.75,78.92 C 312.70,78.92 258.11,101.70 220.49,139.32 C 181.81,178.00 158.76,234.92 158.76,305.48 C 158.76,363.36 173.81,405.43 173.99,413.43 C 174.23,423.87 174.31,434.33 174.31,444.78 C 174.31,445.67 173.61,532.64 173.61,533.63 C 173.61,585.78 176.00,603.58 176.00,608.00 L 176.00,614.00 C 176.00,615.62 176.00,615.62 167.79,679.22 C 167.30,683.02 167.30,683.02 153.70,712.49 C 153.70,712.49 108.30,691.54 108.30,691.51 L 118.70,668.98 L 126.00,612.38 L 126.00,608.97 C 124.12,584.19 123.61,559.12 123.61,534.10 C 123.61,533.20 124.32,445.72 124.32,444.72 C 124.32,435.58 124.25,426.52 124.07,417.55 C 113.84,378.59 108.86,341.04 108.86,305.66  Z M 352.00,718.00 L 302.00,718.00 L 302.00,640.00 C 302.00,639.03 305.44,621.22 312.06,543.07 C 321.82,427.82 333.32,293.02 407.76,218.57 C 441.23,185.11 487.33,164.99 546.36,164.99 C 600.67,164.99 677.60,192.32 709.46,334.91 C 721.26,387.71 724.14,443.07 724.14,486.85 C 724.14,492.87 724.09,498.67 724.00,504.21 L 724.00,584.39 L 721.99,714.39 L 672.01,713.62 L 674.00,583.81 L 674.00,503.57 C 674.09,498.51 674.14,493.23 674.14,487.76 C 674.14,417.46 665.81,295.69 612.01,241.89 C 600.85,230.73 580.92,214.98 546.17,214.98 C 478.05,214.98 418.91,245.23 387.76,363.33 C 364.12,452.96 363.73,564.23 352.00,641.91 L 352.00,718.00 Z" transform="translate(3662.97,100.00) scale(0.8000,0.8000)" fill="#000000" />
  <path d="M 260.09,560.44 C 259.70,560.44 235.36,560.07 221.70,555.91 C 124.94,526.48 97.36,437.72 86.48,385.09 C 74.15,325.46 73.79,260.88 73.30,204.44 C 73.10,181.64 72.91,160.18 72.03,141.16 L 121.97,138.84 C 122.91,159.23 123.09,181.19 123.29,204.01 C 124.42,335.38 128.02,474.38 235.35,507.79 C 243.78,509.57 252.00,510.42 260.03,510.42 C 331.63,510.42 387.84,442.62 437.05,382.33 C 447.11,370.02 456.77,358.17 466.30,347.40 L 503.73,380.56 C 479.22,408.22 450.07,448.28 414.87,483.48 C 374.92,523.44 323.50,560.44 260.09,560.44  Z M 801.30,744.78 C 792.75,748.64 745.85,751.82 714.58,751.82 C 650.00,751.82 547.29,741.74 489.44,683.90 C 468.82,663.28 448.35,630.59 448.35,582.09 C 448.35,562.72 451.59,541.96 458.15,519.80 L 470.02,215.02 C 470.02,215.02 519.98,216.97 519.98,216.98 C 507.98,524.98 507.98,524.98 507.98,524.98 C 507.68,532.68 498.34,553.25 498.34,582.09 C 498.34,616.35 512.50,636.25 524.80,648.54 C 542.19,665.94 592.83,701.75 714.80,701.75 C 738.75,701.75 762.01,700.28 782.88,697.81 C 789.54,694.80 795.71,694.71 799.93,694.71 C 811.98,694.71 822.02,697.88 831.92,698.52 L 823.47,703.12 L 818.34,715.92 L 867.68,708.02 C 867.99,709.96 868.18,712.13 868.18,714.43 C 868.18,724.70 863.00,748.50 831.61,748.50 C 820.29,748.50 811.02,745.68 801.30,744.78  Z M 275.00,239.00 L 275.00,189.00 L 769.74,189.00 L 784.49,187.53 C 784.49,187.53 798.83,181.16 798.86,181.14 L 819.17,226.84 C 797.51,236.47 797.51,236.47 793.51,236.87 C 772.26,239.00 772.26,239.00 771.00,239.00 L 275.00,239.00 Z" transform="translate(4713.81,100.00) scale(0.8000,0.8000)" fill="#000000" />
  <path d="M 137.42,727.97 C 137.42,724.96 138.01,720.78 140.14,716.64 C 140.05,715.76 140.00,714.88 140.00,714.00 C 140.00,711.03 140.53,708.05 141.59,705.23 C 204.75,536.10 130.88,250.01 265.37,116.27 C 270.25,111.43 276.62,109.00 283.00,109.00 C 296.38,109.00 327.97,129.53 348.28,149.84 C 428.95,230.51 430.02,370.47 430.97,494.26 C 431.32,539.74 431.72,582.36 435.82,617.05 C 435.84,617.20 436.43,623.29 436.43,632.20 C 436.43,646.65 434.85,661.28 431.77,675.17 L 813.12,677.01 C 813.12,677.01 812.88,726.99 812.88,726.99 C 396.88,724.99 396.88,724.99 396.88,724.99 C 383.11,724.93 372.00,713.77 372.00,700.00 C 372.00,696.20 372.86,692.40 374.58,688.92 C 381.54,674.85 386.39,651.83 386.39,630.82 C 386.39,627.95 386.30,625.12 386.11,622.35 C 375.38,530.47 388.56,401.56 367.48,299.97 C 352.35,227.03 323.36,187.73 288.31,165.45 C 195.08,281.64 246.48,525.80 197.36,695.64 C 205.96,698.41 220.41,705.61 220.41,722.72 C 220.41,749.15 190.99,751.32 176.67,752.37 C 173.09,752.64 169.85,752.84 167.41,752.99 C 166.78,753.03 166.20,753.00 165.66,753.00 C 165.55,753.00 165.45,753.00 165.35,753.00 C 165.26,753.00 165.17,753.01 165.08,753.01 C 164.00,753.05 163.35,753.07 163.07,753.08 C 162.26,752.98 160.88,753.14 158.62,752.80 C 141.18,750.15 137.42,734.26 137.42,727.97  Z M 177.36,709.28 L 177.27,739.64 L 180.08,741.72 L 180.08,710.41 L 177.36,709.28  Z M 167.35,748.98 C 173.05,747.32 180.08,745.77 180.08,745.77 L 180.08,742.68 C 177.55,742.00 173.21,740.98 167.20,739.81 L 167.35,748.98 Z" transform="translate(5764.66,100.00) scale(0.8000,0.8000)" fill="#000000" />
</svg>
