<?xml version="1.0" encoding="UTF-8" standalone="no"?>
<!--
Representation of "lipu open" in sitelen ilo pona
Generated by generate_sitelen_kalama_pona.py

Description:
  Representation of "lipu open" in sitelen ilo pona.
  Sources: lipu: https://commons.wikimedia.org/wiki/File:Sitelen_seli_kiwen_-_lipu.svg; open: https://commons.wikimedia.org/wiki/File:Sitelen_seli_kiwen_-_open.svg

Categories:
  [[Category:Sitelen kalama pona]]
  [[Category:Toki Pona text containing lipu open]]

Sources:
  lipu: https://commons.wikimedia.org/wiki/File:Sitelen_seli_kiwen_-_lipu.svg
  open: https://commons.wikimedia.org/wiki/File:Sitelen_seli_kiwen_-_open.svg
-->
<svg version="1.1" width="1805" height="1000"
     viewBox="0 0 1805 1000"
     xmlns="http://www.w3.org/2000/svg">
  <path d="M461 87Q346 87 316.5 82.0Q287 77 262 77Q248 77 234.0 77.0Q220 77 209.5 76.5Q199 76 191.0 75.5Q183 75 178.5 75.0Q174 75 174 75Q159 75 152.0 78.5Q145 82 134 93L118 111L126 135Q135 157 137.0 215.0Q139 273 139.5 322.0Q140 371 143 374Q145 376 145 402Q145 402 144.5 435.0Q144 468 143.0 516.0Q142 564 141 596L140 697L166 723L252 720Q307 718 349 718Q349 718 353.0 718.0Q357 718 364.5 718.5Q372 719 383.0 719.0Q394 719 411.5 719.0Q429 719 449.5 719.5Q470 720 499.0 720.0Q528 720 560 720Q569 720 581.0 720.0Q593 720 605.0 719.5Q617 719 627.5 718.5Q638 718 644.5 718.0Q651 718 651 718Q676 718 691.5 720.0Q707 722 713.0 724.5Q719 727 721.5 727.0Q724 727 731.5 725.0Q739 723 742 723Q750 723 757.0 704.0Q764 685 764 669Q764 663 762.0 656.5Q760 650 760 645Q760 640 762.5 625.5Q765 611 765 587Q765 572 763.5 546.0Q762 520 760.0 493.5Q758 467 756.0 443.0Q754 419 752.5 403.0Q751 387 751 387Q751 382 752.0 375.0Q753 368 753 361Q753 349 752 340Q752 338 751.5 333.0Q751 328 751 325Q751 289 759.0 233.0Q767 177 775 153Q785 127 779 121Q776 117 777.5 110.5Q779 104 774 101Q766 93 651.0 89.5Q536 86 490 86ZM687 311Q687 330 689.0 364.5Q691 399 694.0 434.0Q697 469 699.5 501.5Q702 534 704.0 555.5Q706 577 706 577Q706 588 701.5 601.5Q697 615 694 631L690 653L650 654Q597 655 375 655Q230 655 224 654Q212 653 208 642Q202 621 202 458Q202 429 202.5 401.5Q203 374 203.5 355.5Q204 337 204.5 323.5Q205 310 205.0 302.5Q205 295 205 295Q205 281 199.5 252.0Q194 223 194 179Q194 167 195.0 162.5Q196 158 202.5 153.5Q209 149 221.0 148.5Q233 148 257 148Q292 148 292 151Q292 153 342 153Q359 153 375.5 153.0Q392 153 404.0 152.5Q416 152 427.0 151.5Q438 151 445.5 150.5Q453 150 458.5 149.5Q464 149 466.5 149.0Q469 149 469 149Q488 149 528.5 154.5Q569 160 593 160Q600 160 606.5 159.5Q613 159 620 159Q647 159 676.0 163.5Q705 168 705 172Q705 174 696.0 225.5Q687 277 687 311Z" transform="translate(0.00,958.33) scale(0.9583,-0.9583)" fill="#000000" />
  <path d="M728 70Q713 70 602.0 81.5Q491 93 404 93Q378 93 359.0 89.5Q340 86 288 84Q269 83 251.0 81.5Q233 80 221.5 79.0Q210 78 201.5 76.5Q193 75 188.5 74.5Q184 74 184 74Q158 74 146 92Q137 105 137 159Q137 167 144.5 209.0Q152 251 152 274Q152 276 149.0 276.5Q146 277 139.0 280.0Q132 283 125 292Q118 302 117.5 306.5Q117 311 122 322Q129 335 141.5 341.0Q154 347 155 352Q158 363 161.5 410.0Q165 457 165 482Q165 485 162.0 514.5Q159 544 155.5 572.5Q152 601 152 601L143 691L152 705Q160 717 174 717Q187 717 198.5 708.0Q210 699 212 689Q214 682 218.5 677.0Q223 672 223.0 672.0Q223 672 219 668Q214 666 214 619Q214 606 214.5 548.0Q215 490 215 457Q215 448 215.0 435.0Q215 422 215.0 409.5Q215 397 215.0 385.5Q215 374 214.5 367.0Q214 360 214 360Q214 342 215.5 341.0Q217 340 261.5 332.5Q306 325 361.5 318.0Q417 311 440 311Q462 311 462 316Q462 317 463 317Q464 317 472.0 315.5Q480 314 500.0 312.0Q520 310 549 309Q563 309 582.5 308.0Q602 307 623.0 306.0Q644 305 652 305L700 302L702 324Q707 366 707 541Q707 555 707.0 568.5Q707 582 707.0 592.0Q707 602 707.0 610.5Q707 619 707.0 625.5Q707 632 707.0 636.0Q707 640 706.5 642.5Q706 645 706 645Q706 676 716.0 695.0Q726 714 741 714Q745 714 751.5 712.0Q758 710 766.0 701.5Q774 693 774 680Q774 680 773.5 665.5Q773 651 772.0 625.0Q771 599 770.0 565.5Q769 532 768.0 485.0Q767 438 766 390Q766 344 761 344Q759 344 759 335Q759 318 764.0 303.5Q769 289 769 262Q769 254 768.5 243.5Q768 233 768 225Q768 193 775.0 159.0Q782 125 782 124Q782 121 781.0 118.5Q780 116 777.0 111.0Q774 106 771 100Q762 80 755.0 75.0Q748 70 728 70ZM406 255Q397 255 332.0 260.5Q267 266 244 266Q219 266 212 259Q204 251 202 178Q202 164 204.5 162.0Q207 160 220 158Q318 148 332 148Q355 148 373.5 152.0Q392 156 414 156Q434 156 510.5 149.0Q587 142 595 137Q614 127 668 127Q680 127 694 129Q701 130 702.0 137.0Q703 144 703 178Q703 226 696 233Q688 242 570.0 248.5Q452 255 417 255Z" transform="translate(942.50,958.33) scale(0.9583,-0.9583)" fill="#000000" />
</svg>
