<?xml version="1.0" encoding="UTF-8" standalone="no"?>
<!--
Representation of "ilo nanpa wawa" in sitelen kalama pona
Generated by generate_sitelen_kalama_pona.py

Description:
  Representation of "ilo nanpa wawa" in sitelen kalama pona.
  Sources: ilo-nanpa: https://commons.wikimedia.org/wiki/File:Sitelen_seli_kiwen_-_ilo-nanpa.svg; wawa: https://commons.wikimedia.org/wiki/File:Sitelen_seli_kiwen_-_wawa.svg

Categories:
  [[Category:Sitelen kalama pona]]
  [[Category:Toki Pona text containing ilo nanpa wawa]]

Sources:
  ilo-nanpa: https://commons.wikimedia.org/wiki/File:Sitelen_seli_kiwen_-_ilo-nanpa.svg
  wawa: https://commons.wikimedia.org/wiki/File:Sitelen_seli_kiwen_-_wawa.svg
-->
<svg version="1.1" width="1805" height="1000"
     viewBox="0 0 1805 1000"
     xmlns="http://www.w3.org/2000/svg">
  <path d="M214 387Q214 394 215.0 399.0Q216 404 219.5 412.5Q223 421 233.5 425.5Q244 430 261 430Q279 430 318.5 422.0Q358 414 448 414Q500 414 530.5 421.5Q561 429 570 429Q576 429 584.0 426.0Q592 423 597 423Q604 423 613 427Q624 433 632.5 428.0Q641 423 644 423Q648 423 655.5 418.5Q663 414 667.0 409.0Q671 404 668 402Q663 399 666 380Q666 378 669.0 342.0Q672 306 676.5 280.0Q681 254 688 250Q692 246 690.5 244.0Q689 242 685.5 235.0Q682 228 683 219V210Q683 184 665 183Q615 180 551 180H531L481 181V150Q481 119 486 119Q490 119 490.0 108.0Q490 97 485.5 87.0Q481 77 474 77Q467 77 467.0 72.0Q467 67 450 67Q436 67 427.0 77.0Q418 87 415.5 95.0Q413 103 413 106Q413 111 417.5 126.0Q422 141 422 146Q422 150 420 151Q416 154 417.5 155.0Q419 156 421.0 161.5Q423 167 422 174Q419 186 396 186Q388 186 383.0 182.5Q378 179 377.0 177.5Q376 176 370 180Q365 183 342 183Q322 183 275.0 189.0Q228 195 225 199Q224 200 221.0 218.5Q218 237 213 245Q209 251 209 253Q209 255 210.5 256.5Q212 258 213.5 260.0Q215 262 217.0 268.0Q219 274 220 283Q222 305 227 314Q229 318 229 323Q229 330 221.5 350.5Q214 371 214 387ZM414 355Q412 357 385.5 358.5Q359 360 330.0 362.0Q301 364 295 365Q292 366 288 366Q283 366 282.5 357.0Q282 348 282 310V260L300 257Q313 255 323.5 247.0Q334 239 348 239Q365 239 388.0 242.5Q411 246 413 250Q416 254 416 277Q416 301 412.5 315.0Q409 329 409 330Q409 334 412 340Q417 352 414 355ZM514 236Q540 236 580.5 243.5Q621 251 621 268Q621 275 612.5 292.0Q604 309 604 315Q604 317 605 318Q607 322 607 324Q607 335 600.0 347.5Q593 360 585 363Q576 366 541 366Q471 366 471 360Q471 359 476.0 345.5Q481 332 481 327Q481 323 480 322Q473 315 473 278Q473 250 480.5 243.0Q488 236 514 236ZM361 711Q372 711 386.0 698.0Q400 685 400 677Q400 676 399.5 673.5Q399 671 399 669Q399 653 429 653Q453 653 453 655Q453 659 449.0 666.0Q445 673 445 680Q445 689 451 701Q456 714 460.0 716.5Q464 719 478 719Q497 719 505.5 711.5Q514 704 516 685Q518 663 518 662Q518 659 531 659Q534 659 544.5 659.5Q555 660 561 660Q630 660 630 621Q630 610 619.0 606.0Q608 602 574 600Q530 596 528 594Q527 592 527.5 590.0Q528 588 534.0 584.0Q540 580 552 580Q559 580 576.0 581.0Q593 582 601 582Q622 582 629.0 575.5Q636 569 636.0 550.0Q636 531 625.5 524.5Q615 518 585 518H569Q537 518 534 515Q529 510 531 486L532 461L515 457Q496 452 489 452Q474 452 466.0 462.5Q458 473 456.5 481.5Q455 490 455 498Q455 506 457.5 510.5Q460 515 460 515Q460 518 446 518Q444 518 437.0 517.5Q430 517 425 517Q402 516 401 513Q400 511 405 508Q410 505 410 501Q410 494 396.5 488.0Q383 482 369.5 482.0Q356 482 346.5 488.5Q337 495 337 506Q336 520 327.5 523.5Q319 527 288.5 527.0Q258 527 247.5 532.0Q237 537 234 553Q231 567 241 578Q247 586 255.0 588.0Q263 590 292 590Q333 590 337 585Q339 582 339 586Q340 588 340 591Q340 597 336.0 599.5Q332 602 319 602H297Q294 602 289.0 602.5Q284 603 272.5 605.0Q261 607 251.5 610.5Q242 614 235.0 621.0Q228 628 228 638Q228 651 237.0 662.5Q246 674 255 674Q259 674 282.5 668.5Q306 663 316 663Q330 663 333 678Q336 693 343.5 702.0Q351 711 361 711ZM462 584Q462 597 442 597Q427 597 419 599Q411 601 406 592Q402 586 411 584Q416 583 430 581Q450 579 452 579Q462 579 462 584Z" transform="translate(0.00,958.33) scale(0.9583,-0.9583)" fill="#000000" />
  <path d="M442 37Q439 37 431.0 40.5Q423 44 415.0 44.0Q407 44 393.0 52.5Q379 61 373 61Q365 61 348.0 72.0Q331 83 331 88Q331 92 324.0 100.5Q317 109 315.0 121.0Q313 133 305.5 142.0Q298 151 298 154Q298 159 296.0 161.0Q294 163 292.0 164.0Q290 165 288.0 173.0Q286 181 286 198Q286 244 290.5 272.0Q295 300 300.5 310.0Q306 320 317 335Q336 362 336 367Q336 378 386.5 424.0Q437 470 466 470Q482 470 508 453Q530 439 545.0 419.5Q560 400 587 349Q619 289 619 259Q619 250 615.5 206.5Q612 163 608 162Q603 160 603 151Q603 145 598 140Q597 139 597.0 128.0Q597 117 538 72Q506 48 488 48Q474 48 460.0 42.5Q446 37 442 37ZM346 219Q346 212 350.5 196.5Q355 181 355 174Q355 170 380 143L406 115H443Q478 116 503.0 132.0Q528 148 528 152Q528 154 537.5 158.5Q547 163 547 173Q547 175 552.5 192.0Q558 209 558 236Q558 300 538 315Q527 323 511.0 353.5Q495 384 476 392Q457 399 452 399Q444 399 435.5 390.5Q427 382 391 335Q354 287 354 258Q354 245 350.0 234.5Q346 224 346 219ZM764 381Q764 380 765.0 377.0Q766 374 766.0 373.0Q766 372 764.0 368.5Q762 365 760.0 357.5Q758 350 758 337Q755 205 734 200Q725 198 725 193Q725 191 718 191Q669 191 669 223Q669 236 678 256Q692 284 697.0 340.5Q702 397 706 402Q708 405 712.0 430.0Q716 455 720 459Q725 465 732.5 509.0Q740 553 744.0 557.0Q748 561 748 571Q748 577 758.0 599.5Q768 622 770 643Q773 684 782.5 701.0Q792 718 813 718Q830 718 847.5 700.5Q865 683 865 673Q865 666 857 664Q850 662 836.0 635.0Q822 608 821 593Q820 584 799.5 513.0Q779 442 778 434Q776 417 772.5 405.0Q769 393 766.5 388.0Q764 383 764 381ZM35 711Q35 725 45.0 735.5Q55 746 67 746Q87 746 101.0 716.5Q115 687 115 673Q115 662 162.0 548.5Q209 435 209 428Q209 417 214 409L223 391Q226 385 231.0 345.0Q236 305 241 294Q245 286 247.0 269.0Q249 252 250.5 232.0Q252 212 252 208Q253 200 249.5 198.0Q246 196 227 196Q201 196 196 201Q192 205 188.5 235.5Q185 266 184 268Q183 269 175.0 314.5Q167 360 154.0 411.5Q141 463 127 480Q124 484 112.5 511.5Q101 539 101 541Q101 546 93.0 564.5Q85 583 85 587Q85 596 79.0 599.0Q73 602 73 606Q73 609 54.0 651.5Q35 694 35 711Z" transform="translate(942.50,958.33) scale(0.9583,-0.9583)" fill="#000000" />
</svg>
