<?xml version="1.0" encoding="UTF-8" standalone="no"?>
<!--
Representation of "ijo tomo" in sitelen kalama pona
Generated by generate_sitelen_kalama_pona.py

Description:
  Representation of "ijo tomo" in sitelen kalama pona.
  Sources: ijo-tomo: https://commons.wikimedia.org/wiki/File:Sitelen_seli_kiwen_-_ijo-tomo.svg

Categories:
  [[Category:Sitelen kalama pona]]
  [[Category:Toki Pona text containing ijo tomo]]

Sources:
  ijo-tomo: https://commons.wikimedia.org/wiki/File:Sitelen_seli_kiwen_-_ijo-tomo.svg
-->
<svg version="1.1" width="862" height="1000"
     viewBox="0 0 862 1000"
     xmlns="http://www.w3.org/2000/svg">
  <path d="M280 317Q280 331 272.0 359.0Q264 387 264 396Q264 403 266.0 408.0Q268 413 281.5 426.0Q295 439 324 459Q363 488 385.0 508.0Q407 528 410.0 534.0Q413 540 416.5 542.5Q420 545 430 546Q431 546 433.0 546.5Q435 547 436 547Q456 547 468.0 537.5Q480 528 512 493Q535 466 542 466Q545 466 550.0 456.0Q555 446 566 439Q582 430 587.5 415.0Q593 400 598 351Q606 281 606 277Q606 254 591.0 236.0Q576 218 556 218Q555 218 521.0 221.0Q487 224 451.0 227.0Q415 230 410 230Q400 230 374.5 226.0Q349 222 334 222Q329 222 320.0 223.0Q311 224 298.5 227.0Q286 230 278.0 237.0Q270 244 270 253Q270 261 275.0 283.0Q280 305 280 317ZM368 409Q367 409 361.0 404.0Q355 399 347.5 387.0Q340 375 340 361Q340 359 342 337L346 299L378 298Q463 295 472 288Q476 284 486 284Q509 284 526 297Q536 307 536 331Q536 370 528.5 387.5Q521 405 490 432Q453 466 452 466Q439 466 439 451Q439 449 433.0 447.5Q427 446 415.5 441.0Q404 436 392 426Q372 409 368 409ZM422 703 450 702Q470 702 482.5 703.0Q495 704 498.5 705.0Q502 706 504.0 707.0Q506 708 507 708Q509 708 514 707Q515 707 529.0 704.0Q543 701 552 699Q569 696 585.5 690.0Q602 684 611.5 680.5Q621 677 624 677Q628 677 628.0 671.0Q628 665 646 657Q683 641 715.5 608.5Q748 576 752 552Q756 533 766.5 516.0Q777 499 778 485Q778 471 785.0 447.0Q792 423 792 412Q792 402 795.0 394.5Q798 387 798 360Q798 323 796 302Q790 265 755.0 210.5Q720 156 694 142Q689 139 675.5 128.0Q662 117 648 111Q629 102 620 96Q600 82 543.5 64.0Q487 46 442 46Q439 46 431.0 48.0Q423 50 408 51Q335 57 320 67Q319 68 303.0 75.5Q287 83 270.0 92.5Q253 102 235.0 114.0Q217 126 210 136Q207 141 190.5 157.5Q174 174 160.5 192.0Q147 210 144 226Q143 229 130.5 248.0Q118 267 118 277Q118 281 110.0 307.0Q102 333 102 353Q102 359 105.0 366.0Q108 373 106 389Q103 411 112 417Q118 421 118 426Q118 426 123.0 441.5Q128 457 128 469Q128 484 132 484Q134 484 137.0 489.5Q140 495 144.0 505.0Q148 515 152 520Q193 587 210 597Q219 602 226.5 612.0Q234 622 246 628Q249 630 277.5 649.5Q306 669 336 679Q372 692 378 697Q384 703 422 703ZM540 630Q523 633 508.0 636.5Q493 640 485.5 642.0Q478 644 474 644Q471 644 468 642Q467 640 450.0 639.5Q433 639 407.5 635.0Q382 631 364 623Q338 611 328 611Q323 611 320.5 609.0Q318 607 311.5 601.5Q305 596 292 591Q272 582 272 576Q272 569 266 569Q263 569 248.5 557.5Q234 546 226 543Q217 540 212.5 526.0Q208 512 205.5 512.0Q203 512 201.0 509.0Q199 506 196.0 499.5Q193 493 188 488Q180 478 174.0 459.0Q168 440 168 424Q168 417 170 413Q171 405 171 398Q171 390 164.5 373.0Q158 356 158 337Q158 321 182.0 270.5Q206 220 230 201Q234 196 248 184Q263 169 282.5 156.5Q302 144 308 144Q317 144 320.0 142.5Q323 141 332 134Q347 123 367.0 118.5Q387 114 428 114Q493 114 520 124Q561 138 571.0 142.5Q581 147 594 156Q614 170 618 170Q625 170 666.5 205.0Q708 240 708 247Q708 250 713.0 256.0Q718 262 725.0 272.0Q732 282 736 292Q742 309 742 349Q742 399 734 425Q702 528 686 545Q676 558 676 562Q676 568 668.0 576.0Q660 584 649.0 590.5Q638 597 627.5 603.0Q617 609 609.0 612.5Q601 616 600 616Q596 623 540 630Z" transform="translate(0.00,958.33) scale(0.9583,-0.9583)" fill="#000000" />
</svg>
