<?xml version="1.0" encoding="UTF-8" standalone="no"?>
<!--
Representation of "telo kiwen" in sitelen kalama pona
Generated by generate_sitelen_kalama_pona.py

Description:
  Representation of "telo kiwen" in sitelen kalama pona.
  Sources: telo: https://commons.wikimedia.org/wiki/File:Sitelen_seli_kiwen_-_telo.svg; kiwen: https://commons.wikimedia.org/wiki/File:Sitelen_seli_kiwen_-_kiwen.svg

Categories:
  [[Category:Toki Pona text containing telo kiwen]]

Sources:
  telo: https://commons.wikimedia.org/wiki/File:Sitelen_seli_kiwen_-_telo.svg
  kiwen: https://commons.wikimedia.org/wiki/File:Sitelen_seli_kiwen_-_kiwen.svg
-->
<svg version="1.1" width="1805" height="1000"
     viewBox="0 0 1805 1000"
     xmlns="http://www.w3.org/2000/svg">
  <path d="M554 195Q544 195 534.5 194.0Q525 193 521.5 192.5Q518 192 513 191Q506 189 506 193Q506 198 496 198Q488 198 475.5 205.0Q463 212 450 215Q436 218 415.0 227.5Q394 237 394 241Q394 250 354.0 256.5Q314 263 302 263Q288 263 254.0 245.5Q220 228 220 221Q220 217 214 217Q211 217 202.0 210.0Q193 203 178 203Q156 203 152 214Q152 217 154 217Q156 218 154.0 219.0Q152 220 149.0 226.0Q146 232 146 238Q146 249 171.0 272.0Q196 295 224 308Q237 315 246.0 318.0Q255 321 275.0 324.0Q295 327 324 327Q341 327 347.5 325.5Q354 324 364.0 319.5Q374 315 392 311Q411 306 426.0 297.5Q441 289 449.5 282.0Q458 275 487.5 270.0Q517 265 566 265Q598 265 622.0 274.5Q646 284 655.0 292.0Q664 300 664 302Q667 311 670.5 311.0Q674 311 693.0 329.5Q712 348 732 348Q745 348 753.0 341.5Q761 335 762.5 330.5Q764 326 764 323Q764 302 740.5 267.5Q717 233 698 233Q689 233 685.5 232.0Q682 231 681.0 229.5Q680 228 674.5 224.0Q669 220 658 215Q640 206 632 197Q622 187 604 191Q579 195 554 195ZM170 424Q163 424 149.5 441.0Q136 458 136 473Q136 486 151.5 508.0Q167 530 178 534Q193 540 204 549Q221 563 254.5 572.5Q288 582 304 582Q326 582 373.5 560.0Q421 538 430 528Q436 522 444 522Q446 522 477.5 506.0Q509 490 536 490Q614 490 638 520Q644 528 657.0 534.0Q670 540 680 540Q690 540 690 534Q690 529 704.0 522.5Q718 516 718 512Q717 497 710.0 489.5Q703 482 696.5 480.0Q690 478 690 475Q690 470 682 470Q677 470 672.0 463.0Q667 456 658 454Q648 452 648.0 447.0Q648 442 642 442Q637 442 616.5 432.0Q596 422 557.5 422.0Q519 422 504.0 426.5Q489 431 482 431Q470 431 424.5 457.5Q379 484 374 484Q368 484 342.5 498.0Q317 512 302 512Q270 512 246.0 498.0Q222 484 211.0 468.0Q200 452 189.0 438.0Q178 424 170 424Z" transform="translate(0.00,958.33) scale(0.9583,-0.9583)" fill="#000000" />
  <path d="M74 487Q74 498 123.0 543.0Q172 588 172 597Q172 603 184.0 623.0Q196 643 198 651Q200 659 207.0 664.0Q214 669 214 674Q214 681 220 681Q225 681 226.5 686.0Q228 691 227.5 697.0Q227 703 231.5 708.0Q236 713 246 713Q247 713 256.5 712.0Q266 711 272.0 711.0Q278 711 278 713Q278 716 312 716H340Q370 716 389.5 718.0Q409 720 416 720Q417 720 430.0 719.0Q443 718 465.0 716.0Q487 714 512.0 712.0Q537 710 565.5 709.0Q594 708 616 708Q622 708 637.5 708.5Q653 709 662 709Q706 709 706 683Q706 675 720.0 656.0Q734 637 734 633Q734 626 738 624Q740 623 748.5 605.5Q757 588 771.5 562.5Q786 537 800 521Q811 509 815.0 503.0Q819 497 822.5 486.0Q826 475 826 461Q826 445 821.5 434.0Q817 423 810 423Q806 423 793.0 405.5Q780 388 780 382Q780 377 776 377Q773 377 738.0 325.0Q703 273 700 273Q700 273 696.5 267.0Q693 261 684.0 248.0Q675 235 662.5 219.0Q650 203 629.5 178.5Q609 154 584 128Q576 119 562.0 91.5Q548 64 545.0 62.0Q542 60 542.0 55.0Q542 50 542.5 47.5Q543 45 540 44Q535 44 528.0 33.5Q521 23 510.5 13.0Q500 3 486 3Q473 3 460.5 5.5Q448 8 448 11Q448 14 434.0 20.0Q420 26 420 37Q420 46 409.5 68.5Q399 91 396 91Q394 91 388.0 100.0Q382 109 370.5 123.0Q359 137 346 146Q328 160 322 170Q320 177 293.0 204.0Q266 231 262 231Q259 231 246.0 247.0Q233 263 221 279L208 295Q208 297 190.0 323.0Q172 349 172 351Q172 355 137.0 390.5Q102 426 98 436Q97 440 90.5 446.5Q84 453 79.0 462.5Q74 472 74 487ZM700 381Q700 387 707.0 395.5Q714 404 714 408Q714 412 726.0 421.0Q738 430 738 438Q738 452 746 465L754 480L740 494Q724 509 724 517Q724 524 715.0 538.0Q706 552 704 558Q701 566 679.5 588.5Q658 611 658 614Q658 619 642 631Q630 641 614.5 643.5Q599 646 502 651Q431 655 374 655Q306 655 302 646Q299 643 296.5 642.0Q294 641 292.5 642.0Q291 643 289.5 642.5Q288 642 288 640Q288 637 283.0 635.5Q278 634 270.5 629.5Q263 625 258 616Q249 602 246 602Q244 602 226.0 577.0Q208 552 208 548Q208 542 204 540Q196 537 183.0 511.5Q170 486 170.0 469.0Q170 452 199.0 415.0Q228 378 232 369Q237 359 241.5 353.0Q246 347 249.0 345.0Q252 343 254.0 341.5Q256 340 256 338Q256 333 281.0 305.5Q306 278 310 278Q316 278 316 272Q316 267 333.0 248.0Q350 229 350 228Q350 227 385.0 192.0Q420 157 420 151Q420 143 428 137Q433 132 442.5 120.5Q452 109 459.0 102.0Q466 95 474 95Q480 95 483.5 97.5Q487 100 492.5 109.0Q498 118 505.5 130.0Q513 142 531.5 165.0Q550 188 576 214Q613 253 614 261Q616 269 622 269Q624 269 630.0 278.5Q636 288 647.0 304.5Q658 321 668 333Q677 343 681.0 350.5Q685 358 684.5 360.5Q684 363 685.0 365.0Q686 367 692 369Q700 373 700 381Z" transform="translate(942.50,958.33) scale(0.9583,-0.9583)" fill="#000000" />
</svg>
