<?xml version="1.0" encoding="UTF-8" standalone="no"?>
<!--
Representation of "sitelen tawa utala pi jan suli" in sitelen kalama pona
Generated by generate_sitelen_kalama_pona.py

Description:
  Representation of "sitelen tawa utala pi jan suli" in sitelen kalama pona.
  Sources: sitelen-tawa: https://commons.wikimedia.org/wiki/File:Sitelen_seli_kiwen_-_sitelen-tawa.svg; utala: https://commons.wikimedia.org/wiki/File:Sitelen_seli_kiwen_-_utala.svg; pi: https://commons.wikimedia.org/wiki/File:Sitelen_seli_kiwen_-_pi.svg; jan-suli: https://commons.wikimedia.org/wiki/File:Sitelen_seli_kiwen_-_jan-suli.svg

Categories:
  [[Category:Toki Pona text containing sitelen tawa utala pi jan suli]]

Sources:
  sitelen-tawa: https://commons.wikimedia.org/wiki/File:Sitelen_seli_kiwen_-_sitelen-tawa.svg
  utala: https://commons.wikimedia.org/wiki/File:Sitelen_seli_kiwen_-_utala.svg
  pi: https://commons.wikimedia.org/wiki/File:Sitelen_seli_kiwen_-_pi.svg
  jan-suli: https://commons.wikimedia.org/wiki/File:Sitelen_seli_kiwen_-_jan-suli.svg
-->
<svg version="1.1" width="3690" height="1000"
     viewBox="0 0 3690 1000"
     xmlns="http://www.w3.org/2000/svg">
  <path d="M320 322Q320 324 332.0 340.5Q344 357 344 369Q344 377 347.0 377.0Q350 377 354.5 387.5Q359 398 365.0 412.0Q371 426 378 433Q386 441 386.5 448.0Q387 455 390 461Q394 468 398.5 469.0Q403 470 417 468Q429 466 446 466Q458 466 471.5 448.0Q485 430 493.5 412.5Q502 395 502 395Q504 395 530.0 342.0Q556 289 559 281Q562 272 567.0 270.5Q572 269 598 269Q611 269 618.5 267.5Q626 266 634.5 261.5Q643 257 647.0 245.0Q651 233 651 214Q651 200 644.0 195.5Q637 191 615 191Q504 191 504 225Q504 228 505 231Q506 235 506 237Q506 245 476 302Q468 317 459 330Q456 335 451.0 348.5Q446 362 441.0 370.5Q436 379 430 379Q423 379 402.0 338.0Q381 297 381 291Q381 288 386 288Q388 288 398.0 281.5Q408 275 418.5 265.0Q429 255 429 248Q429 238 427.0 231.5Q425 225 418.5 218.0Q412 211 396.5 208.0Q381 205 356 205Q321 205 300.5 216.0Q280 227 280 246Q280 259 291.0 281.5Q302 304 311 310Q320 317 320 322ZM245 580Q245 589 256.0 604.0Q267 619 277 619Q283 619 304 611Q311 609 311.5 604.5Q312 600 310 585Q304 550 278 550Q267 550 256.0 560.0Q245 570 245 580ZM389 615Q407 624 414 624Q417 624 421.0 623.5Q425 623 432.5 616.5Q440 610 440 600Q440 596 439 593Q435 568 432.5 561.5Q430 555 423 555Q403 555 391.5 561.5Q380 568 378.0 573.5Q376 579 374 588Q372 600 374.5 604.0Q377 608 389 615ZM508 593Q508 608 522.5 620.5Q537 633 551 633Q563 633 572.5 620.5Q582 608 582 594Q582 578 570 569Q559 561 546 561Q531 561 519.5 570.5Q508 580 508 593ZM136 283Q136 293 140.0 326.5Q144 360 144 386Q144 398 140.5 429.0Q137 460 135 524Q127 676 127 694Q127 714 129 728L133 750L161 756Q190 762 196 759Q200 758 280.5 754.5Q361 751 369 746Q375 743 397.5 741.0Q420 739 439.5 737.0Q459 735 460 732Q461 730 464.0 731.0Q467 732 471 736Q480 744 513 745Q536 746 558.5 747.0Q581 748 598.5 750.0Q616 752 631.5 753.5Q647 755 658.5 757.0Q670 759 678.0 760.0Q686 761 690.5 762.0Q695 763 695 763Q737 763 737 735Q737 728 746.5 691.0Q756 654 756 628Q756 628 755.5 614.0Q755 600 754.0 577.0Q753 554 752.0 528.0Q751 502 750.5 472.5Q750 443 750 421Q750 359 754.0 340.0Q758 321 759 292Q764 118 766 111Q770 100 772 85Q773 80 773 77Q773 59 732 59Q731 59 693.5 60.5Q656 62 600.5 64.0Q545 66 486.0 68.0Q427 70 376.0 71.5Q325 73 305 73Q292 73 259.0 70.5Q226 68 217 68Q205 68 199.5 71.5Q194 75 186 75Q181 75 172 74Q158 72 156 72Q146 72 138.0 85.5Q130 99 130 113Q130 116 130 119Q130 119 131.0 129.0Q132 139 133.5 154.0Q135 169 136.0 186.0Q137 203 138.0 221.0Q139 239 139 251Q139 269 137 273Q136 275 136 283ZM688 532Q688 554 690.5 576.0Q693 598 693 601Q693 621 689.0 638.0Q685 655 680.5 666.5Q676 678 675 681Q674 689 668.5 691.5Q663 694 637 694Q599 694 546.0 686.5Q493 679 451 679Q451 679 440.5 679.5Q430 680 413.0 680.0Q396 680 377.5 680.5Q359 681 339.5 681.5Q320 682 307 682Q202 682 198 678Q195 675 195 587Q195 559 196.0 531.0Q197 503 198.0 481.0Q199 459 200.5 438.5Q202 418 203.5 403.5Q205 389 206.5 378.5Q208 368 208.5 362.0Q209 356 209 356Q209 348 209.0 343.5Q209 339 208.5 338.5Q208 338 207.5 337.0Q207 336 206.5 336.0Q206 336 205.0 332.5Q204 329 204.0 322.5Q204 316 203.5 302.5Q203 289 203 269Q203 168 208 162Q211 158 211 154Q211 152 209.5 148.0Q208 144 208 143Q208 137 227 135Q243 133 310.0 130.5Q377 128 410 128Q410 128 416.5 128.0Q423 128 436.0 128.5Q449 129 466.5 129.0Q484 129 511.0 129.5Q538 130 567 130Q648 131 672.5 132.5Q697 134 700 138Q704 143 704 213Q704 266 697.5 343.5Q691 421 691 456Q691 468 692.0 483.5Q693 499 693 502Q693 509 691 510Q688 512 688 532Z" transform="translate(0.00,958.33) scale(0.9583,-0.9583)" fill="#000000" />
  <path d="M164 655Q164 681 196 681Q211 681 226.0 670.0Q241 659 249.5 649.0Q258 639 258 638Q258 636 285.0 595.5Q312 555 316 555Q318 555 323.5 546.0Q329 537 336.0 525.5Q343 514 348 509Q356 503 370.0 485.0Q384 467 384 464Q384 460 395.0 449.0Q406 438 409.5 438.0Q413 438 424.5 452.5Q436 467 436 472Q436 478 454.0 513.5Q472 549 476 553Q480 556 480.5 564.0Q481 572 492 585Q501 597 515.0 622.5Q529 648 540 660Q551 671 557.5 674.0Q564 677 582 677H608L610 657Q612 644 610.0 638.5Q608 633 600 624Q586 610 586 606Q586 604 554.0 555.0Q522 506 522 498Q522 488 512.0 478.0Q502 468 502 463Q502 461 500.0 458.5Q498 456 496 456Q492 456 482 436Q475 421 464 399L454 382L474 350Q485 330 496.5 318.0Q508 306 514.0 301.5Q520 297 522 293Q529 271 575.0 216.0Q621 161 632 161Q635 161 645.5 172.0Q656 183 656 187Q656 191 666.0 196.5Q676 202 682 215Q691 232 711.0 250.5Q731 269 742 269Q759 269 768.5 260.0Q778 251 778 236Q778 221 767.5 209.5Q757 198 748.5 193.5Q740 189 738 189Q730 189 730 180Q730 175 728.0 171.5Q726 168 721.5 162.5Q717 157 704.0 137.0Q691 117 674 86Q668 75 665.5 71.5Q663 68 656.0 65.5Q649 63 636 63Q595 63 586 92Q582 104 577.0 110.5Q572 117 558.5 133.0Q545 149 528 176Q518 192 507.5 202.5Q497 213 492.5 217.5Q488 222 488 226Q488 232 473.5 251.5Q459 271 454 273Q450 275 450 280Q450 284 432 306L412 327L402 316Q394 303 394 299Q394 296 382.0 278.0Q370 260 370 249Q370 236 366.0 236.0Q362 236 350.0 204.5Q338 173 338 168Q338 156 322.5 117.5Q307 79 302 78Q294 76 294 72Q294 68 281.5 67.5Q269 67 260 70Q255 72 239.5 92.5Q224 113 224 118Q224 122 174 171L122 220L128 239Q131 253 138.0 258.5Q145 264 162 264Q171 264 183.5 254.0Q196 244 196 236Q196 231 203.0 225.0Q210 219 224.0 209.0Q238 199 248 190Q262 175 270 175Q273 175 290.5 208.0Q308 241 308 248Q308 254 337.0 311.5Q366 369 366 377Q366 388 338.0 425.0Q310 462 306 471Q302 479 289.5 487.0Q277 495 272 507Q266 516 257.0 526.5Q248 537 241.0 544.0Q234 551 234.0 553.0Q234 555 226.5 561.5Q219 568 209.0 578.5Q199 589 194 599Q187 616 182.5 616.0Q178 616 171.0 630.5Q164 645 164 655Z" transform="translate(942.50,958.33) scale(0.9583,-0.9583)" fill="#000000" />
  <path d="M178 600Q178 613 172.0 629.5Q166 646 166 651Q166 660 178 675Q187 686 191.5 688.0Q196 690 206 688Q221 685 228.5 675.5Q236 666 237.0 657.5Q238 649 238 634V602Q238 561 244.0 524.5Q250 488 250 466Q250 451 248.0 418.5Q246 386 246 369Q246 369 246.0 367.0Q246 365 246.5 361.5Q247 358 247.5 353.0Q248 348 248.0 339.5Q248 331 248.5 321.0Q249 311 249.5 296.5Q250 282 250 266Q250 179 252 177Q260 168 392 168Q392 168 438.0 168.0Q484 168 532.0 168.5Q580 169 584 169Q698 169 704 167Q710 164 716 164Q722 163 728.0 144.5Q734 126 734 111Q734 109 733.0 103.5Q732 98 727.5 90.5Q723 83 716 83Q714 83 683.5 92.5Q653 102 624 102Q612 102 594.0 100.0Q576 98 562 98Q562 98 558.5 98.5Q555 99 548.0 99.5Q541 100 532.0 100.5Q523 101 510.5 101.5Q498 102 486 102Q485 102 480.5 102.0Q476 102 469.0 101.5Q462 101 454.5 100.5Q447 100 439.5 100.0Q432 100 428 100Q344 100 230 92L190 90L184 104Q180 114 180 131Q180 157 185.0 176.5Q190 196 190 218Q190 218 190.0 225.0Q190 232 190.0 242.5Q190 253 189.5 264.5Q189 276 188.5 287.0Q188 298 188 304Q188 326 190.0 374.0Q192 422 192 441Q192 517 178 540Q176 543 177.0 544.0Q178 545 180.0 545.5Q182 546 182.5 549.5Q183 553 180 562Q176 571 176 578Q176 581 177.0 588.5Q178 596 178 600Z" transform="translate(1885.00,958.33) scale(0.9583,-0.9583)" fill="#000000" />
  <path d="M522 596Q522 606 531.5 612.5Q541 619 550 621L560 622Q576 622 587.0 606.0Q598 590 598 582Q598 575 587.0 550.5Q576 526 568 518Q561 512 550.5 478.5Q540 445 534 435Q524 421 524 411Q524 404 518.0 398.0Q512 392 510 378Q506 360 498 345Q494 335 489.5 332.5Q485 330 472 330Q426 330 426 352Q426 370 412.0 393.5Q398 417 398 419Q398 423 372.0 480.5Q346 538 342 541Q318 568 318 586Q318 619 348 619Q359 619 366.5 615.5Q374 612 386.5 593.5Q399 575 414 538Q420 526 427.5 511.0Q435 496 440.5 486.5Q446 477 446 477Q446 474 452 465Q458 459 461.0 460.5Q464 462 474 476Q488 498 488 501Q488 504 499.0 529.0Q510 554 510 562Q510 568 516.0 577.0Q522 586 522 596ZM342 714Q345 714 362.0 720.0Q379 726 410.0 732.5Q441 739 476 739Q509 739 529.0 734.0Q549 729 558.5 723.0Q568 717 574 717Q582 716 617.0 693.0Q652 670 652 666Q652 663 662.0 651.5Q672 640 685.0 623.0Q698 606 704 594Q726 543 726 460Q726 433 722.5 417.5Q719 402 714.5 399.0Q710 396 706.0 393.5Q702 391 702 387Q702 382 698.0 372.5Q694 363 688.0 353.0Q682 343 675.5 334.0Q669 325 664.5 318.5Q660 312 660 312Q660 308 703.0 260.0Q746 212 746 207Q746 205 748.0 203.5Q750 202 753.5 201.0Q757 200 761.5 196.0Q766 192 770 186Q775 177 784.0 166.0Q793 155 797.5 148.0Q802 141 802 133Q801 131 801.0 128.5Q801 126 799.0 119.0Q797 112 795.0 107.0Q793 102 788.0 97.5Q783 93 778 93Q760 93 744.0 108.0Q728 123 690 180Q684 190 667.5 206.0Q651 222 648 222Q646 222 642.0 228.0Q638 234 629.0 244.5Q620 255 608 262L590 274L560 264Q540 257 498.0 250.0Q456 243 436 243Q432 243 415.0 245.5Q398 248 370.0 256.5Q342 265 326 276Q308 288 302 288Q292 288 247.0 238.0Q202 188 202 177Q202 174 192.5 163.5Q183 153 166.5 143.0Q150 133 136 133Q122 133 110.0 144.0Q98 155 98.0 167.0Q98 179 112.0 192.5Q126 206 126.0 210.0Q126 214 142.5 221.5Q159 229 162 235Q163 241 188.0 269.0Q213 297 218 307Q226 320 230 320Q232 320 236.0 328.5Q240 337 240 343Q240 351 225.0 382.0Q210 413 210 420Q210 424 203.5 442.0Q197 460 196 480V520Q196 542 197.5 552.0Q199 562 200.5 564.0Q202 566 204.5 572.0Q207 578 208 591Q211 610 231.5 633.0Q252 656 256 663Q263 675 288.5 684.5Q314 694 322 703Q332 714 342 714ZM568 339Q568 342 593.0 355.5Q618 369 618 373Q618 373 629.5 391.0Q641 409 652.5 433.5Q664 458 664 474Q664 484 660 505Q656 539 650.5 553.0Q645 567 624 593Q561 675 468 675Q455 675 441.5 671.5Q428 668 414 668Q400 668 391.5 660.5Q383 653 362 648Q359 648 338.0 640.0Q317 632 291.0 614.5Q265 597 260 578Q252 537 252 527Q252 507 255.0 485.5Q258 464 262 461Q267 457 274.5 441.0Q282 425 282 417Q282 399 300.0 383.0Q318 367 338.5 355.0Q359 343 362 337Q369 326 372 324Q377 321 402.5 313.0Q428 305 442 305Q468 305 495.0 312.5Q522 320 539.0 327.0Q556 334 558 334Q568 334 568 339Z" transform="translate(2827.50,958.33) scale(0.9583,-0.9583)" fill="#000000" />
</svg>
