<?xml version="1.0" encoding="UTF-8" standalone="no"?>
<!--
Representation of "tenpo kulupu Ijoko" in sitelen kalama pona
Generated by generate_sitelen_kalama_pona.py

Description:
  Representation of "tenpo kulupu Ijoko" in sitelen kalama pona.
  Sources: tenpo: https://commons.wikimedia.org/wiki/File:Sitelen_seli_kiwen_-_tenpo.svg; kulupu: https://commons.wikimedia.org/wiki/File:Sitelen_seli_kiwen_-_kulupu.svg; i: https://commons.wikimedia.org/wiki/File:Sitelen_kalama_pona_-_xi.svg; jo: https://commons.wikimedia.org/wiki/File:Sitelen_kalama_pona_-_jo.svg; ko: https://commons.wikimedia.org/wiki/File:Sitelen_kalama_pona_-_ko.svg

Categories:
  [[Category:Sitelen kalama pona]]
  [[Category:Toki Pona text containing tenpo kulupu]]
  [[Category:Toki Pona text containing sound symbol I]]
  [[Category:Toki Pona text containing sound symbol Jo]]
  [[Category:Toki Pona text containing sound symbol Ko]]

Sources:
  tenpo: https://commons.wikimedia.org/wiki/File:Sitelen_seli_kiwen_-_tenpo.svg
  kulupu: https://commons.wikimedia.org/wiki/File:Sitelen_seli_kiwen_-_kulupu.svg
  i: https://commons.wikimedia.org/wiki/File:Sitelen_kalama_pona_-_xi.svg
  jo: https://commons.wikimedia.org/wiki/File:Sitelen_kalama_pona_-_jo.svg
  ko: https://commons.wikimedia.org/wiki/File:Sitelen_kalama_pona_-_ko.svg
-->
<svg version="1.1" width="6156" height="1000"
     viewBox="0 0 6156 1000"
     xmlns="http://www.w3.org/2000/svg">
  <path d="M376 453Q376 473 372.0 493.5Q368 514 368 521Q368 531 376.0 540.0Q384 549 394 549Q399 549 406.5 543.0Q414 537 422 535Q428 534 430.0 526.0Q432 518 436 487Q438 459 438 448Q438 430 436.0 416.0Q434 402 434 397Q434 381 442.5 376.5Q451 372 478 372Q508 372 547.0 377.5Q586 383 594 383Q603 383 612.5 373.0Q622 363 622 352Q622 345 619.5 338.0Q617 331 605.5 322.5Q594 314 574 313Q565 313 529.5 307.5Q494 302 448 302Q404 302 394.5 303.5Q385 305 378 313L368 324L374 392Q376 432 376 453ZM532 74H528Q525 74 513.5 71.0Q502 68 480.0 65.5Q458 63 430 63Q400 63 381.0 67.5Q362 72 351.0 77.5Q340 83 334 84Q323 85 307.0 90.0Q291 95 276.0 101.5Q261 108 248.0 114.0Q235 120 227.0 124.0Q219 128 218 128Q213 128 187.5 152.0Q162 176 162 182Q162 183 147.5 201.0Q133 219 118.5 251.0Q104 283 104 317Q104 339 112.0 373.5Q120 408 120 417Q120 447 124.5 464.5Q129 482 142 505Q162 536 162 540Q162 543 183.0 567.0Q204 591 204.0 594.0Q204 597 221.0 613.5Q238 630 238 634Q238 639 242 639Q246 639 255.0 646.0Q264 653 276.5 663.5Q289 674 298 679Q307 684 324.5 695.0Q342 706 356.0 713.5Q370 721 378 723Q385 725 422 725Q478 725 504.0 720.0Q530 715 534 715Q546 715 580.0 699.5Q614 684 640 678Q649 676 659.5 668.5Q670 661 678 658Q687 655 710.5 628.5Q734 602 734 595Q734 592 748.0 570.5Q762 549 762 544Q762 543 766.0 533.5Q770 524 775.5 506.0Q781 488 784 468Q785 453 788 446Q794 436 795.0 422.5Q796 409 796 339Q796 337 790.5 319.0Q785 301 784 291Q784 278 780 278Q778 278 774.0 261.5Q770 245 766 243Q764 242 758.0 229.0Q752 216 740.5 198.0Q729 180 716 168Q694 148 688 141Q681 133 676 133Q674 133 653.5 120.0Q633 107 626 106Q615 104 577.0 89.0Q539 74 532 74ZM442 131Q445 131 461.0 132.0Q477 133 501.0 135.5Q525 138 542.5 142.5Q560 147 560 154Q560 159 570.5 160.0Q581 161 598.5 165.0Q616 169 628 180Q644 194 648 194Q656 194 670.5 210.0Q685 226 697.5 242.5Q710 259 710 259Q716 259 726.0 296.5Q736 334 736 352Q736 355 732.5 375.5Q729 396 728 424Q726 459 713.5 494.0Q701 529 690.0 546.5Q679 564 678 564Q674 564 674 571Q674 578 655.5 594.5Q637 611 630 611Q622 611 622 616Q622 620 614 620Q607 620 604 627Q596 641 542.5 653.5Q489 666 448 666Q424 666 388.5 658.5Q353 651 340 636Q333 629 313.0 617.5Q293 606 282 593Q258 567 250 559Q232 544 232 534Q232 528 213.0 509.5Q194 491 194 487Q194 485 187.0 467.0Q180 449 178 430Q177 411 170.5 371.5Q164 332 164 323Q164 316 168.5 298.5Q173 281 193.0 245.5Q213 210 246 185Q282 156 290 156Q293 156 342.5 143.5Q392 131 442 131Z" transform="translate(0.00,958.33) scale(0.9583,-0.9583)" fill="#000000" />
  <path d="M416 252Q416 226 407.0 204.5Q398 183 390.0 174.5Q382 166 380 166Q377 166 354 144Q332 124 310.5 115.5Q289 107 246 107Q172 107 138 138Q97 175 88.5 188.5Q80 202 80 234Q80 270 82.5 280.0Q85 290 92 296Q99 302 101.0 304.0Q103 306 103.5 307.5Q104 309 106.5 312.0Q109 315 120.5 326.0Q132 337 152 354Q178 379 238 379Q319 379 360 358Q386 344 401.0 315.0Q416 286 416 252ZM346 263Q346 280 338.0 291.0Q330 302 315.0 307.0Q300 312 286.0 313.5Q272 315 252 315Q214 315 189.5 302.0Q165 289 160 278Q155 264 148 264Q142 264 142 255Q142 241 153.5 220.0Q165 199 178 196Q182 195 207.5 185.5Q233 176 252 176Q279 176 295.0 187.5Q311 199 317.5 210.5Q324 222 326 222Q333 222 339.5 235.0Q346 248 346 263ZM820 263Q820 245 817.0 233.0Q814 221 811.0 217.5Q808 214 805.0 211.0Q802 208 802 204Q802 198 794.0 182.0Q786 166 784 166Q781 166 758.0 144.5Q735 123 728 123Q718 123 706.0 117.5Q694 112 694 108Q694 106 676 106Q625 106 598.0 116.0Q571 126 538 153Q527 162 522.0 168.5Q517 175 512.5 194.0Q508 213 508 244Q508 286 520 297Q540 313 540 340Q540 357 561.0 375.5Q582 394 600 394Q629 394 643.5 399.0Q658 404 682 404Q709 404 727.5 399.0Q746 394 760.5 379.5Q775 365 783.0 352.0Q791 339 806 310Q813 297 816 297Q820 297 820 263ZM666 182Q669 182 673.5 181.0Q678 180 680 180Q690 180 702.0 189.0Q714 198 716 198Q721 198 735.5 228.0Q750 258 750 269Q750 273 748 273Q746 273 741.0 285.0Q736 297 728.0 312.5Q720 328 710 335Q706 338 678 338Q653 338 642.0 335.5Q631 333 616 323Q604 316 590 310Q585 309 583.5 303.0Q582 297 582 281Q582 255 578 255Q574 255 574 251Q574 248 578.0 235.5Q582 223 582 217Q582 203 600.0 191.5Q618 180 633.0 176.0Q648 172 652 172Q656 172 659.0 177.0Q662 182 666 182ZM470 732Q500 732 527.0 722.5Q554 713 566.0 705.0Q578 697 578 695Q578 692 585.0 685.0Q592 678 602.0 665.0Q612 652 618 639Q628 617 636 611Q642 605 642 580Q642 520 602 484Q589 473 578.5 466.0Q568 459 563.5 457.0Q559 455 556.0 452.5Q553 450 552 444Q549 433 536 433Q525 433 494.0 431.5Q463 430 456 430Q419 430 398.5 438.0Q378 446 358 467Q338 487 330.0 504.0Q322 521 322 522Q308 538 308 579Q308 597 314 597Q317 597 320.0 603.0Q323 609 329.0 620.0Q335 631 344 640Q355 651 357.0 657.5Q359 664 352 670Q349 674 354 693L360 712L400 717Q430 721 442.0 726.5Q454 732 470 732ZM578 577Q578 607 539.0 641.5Q500 676 438 676Q428 676 428 668Q428 662 416.0 647.5Q404 633 404 626Q404 620 391.0 605.0Q378 590 378 573Q378 546 402 523Q414 510 421.0 507.5Q428 505 450 505Q464 505 474.0 504.0Q484 503 487 502L490 501Q504 501 541.0 528.0Q578 555 578 577Z" transform="translate(942.50,958.33) scale(0.9583,-0.9583)" fill="#000000" />
  <path d="M 24.637998,12.488337 H 20.72216 q -1.48166,0 -2.54,-1.058333 -1.05833,-1.058333 -1.05833,-2.54 V 3.598338 q 0,-1.481667 1.05833,-2.54 Q 19.2405,4e-6 20.72216,4e-6 h 3.915838 V 0.846671 H 20.72216 q -1.13241,0 -1.94733,0.814917 -0.80433,0.804333 -0.80433,1.93675 v 5.291666 q 0,1.132417 0.80433,1.93675 0.81492,0.814917 1.94733,0.814917 h 3.915838 z" transform="translate(513.81,0.00) scale(80.0747,80.0747)" fill="#000000" />
  <path d="M 75.014662,0.846671 V 4e-6 h 13.123333 v 0.846667 z m 0,11.641666 v -0.846666 h 13.123333 v 0.846666 z" transform="translate(-3520.08,0.00) scale(80.0747,80.0747)" fill="#000000" />
  <path d="M 75.014662,0.846671 V 4e-6 h 13.123333 v 0.846667 z m 0,11.641666 v -0.846666 h 13.123333 v 0.846666 z" transform="translate(-2469.24,0.00) scale(80.0747,80.0747)" fill="#000000" />
  <path d="M 75.014662,0.846671 V 4e-6 h 13.123333 v 0.846667 z m 0,11.641666 v -0.846666 h 13.123333 v 0.846666 z" transform="translate(-1418.39,0.00) scale(80.0747,80.0747)" fill="#000000" />
  <path d="m 87.714667,4e-6 h 2.8575 q 1.481666,0 2.54,1.058334 1.058333,1.058333 1.058333,2.54 v 5.291666 q 0,1.481667 -1.058333,2.54 -1.058334,1.058333 -2.54,1.058333 h -2.8575 v -0.846666 h 2.8575 q 1.132416,0 1.93675,-0.814917 0.814916,-0.804333 0.814916,-1.93675 V 3.598338 q 0,-1.132417 -0.814916,-1.93675 -0.804334,-0.814917 -1.93675,-0.814917 h -2.8575 z" transform="translate(-1384.49,0.00) scale(80.0747,80.0747)" fill="#000000" />
  <path d="M 478.60,155.05 L 490.39,124.73 L 508.13,67.56 C 508.13,67.56 555.89,82.38 555.87,82.44 C 537.61,141.27 537.61,141.27 537.30,142.08 L 523.30,178.08 C 521.40,182.95 521.40,182.95 507.68,196.68 L 472.32,161.32 L 478.60,155.05  Z M 461.00,47.00 L 511.00,47.00 L 511.00,59.00 C 511.00,61.02 511.00,61.02 500.88,123.71 L 498.96,158.40 L 449.04,155.62 C 451.12,118.29 451.12,118.29 451.33,116.99 L 461.00,56.98 L 461.00,47.00  Z M 562.37,129.59 C 562.37,168.42 541.80,203.48 504.34,203.48 C 457.22,203.48 422.03,167.43 420.10,131.54 C 418.20,123.70 417.31,115.86 417.31,108.15 C 417.31,75.57 433.17,45.44 455.80,26.84 C 455.84,25.68 455.87,25.02 455.87,25.02 L 458.00,25.09 C 471.42,14.70 487.79,7.71 506.07,7.02 L 506.81,26.78 C 518.12,27.17 525.86,27.43 538.13,39.71 C 543.11,44.69 562.69,67.03 562.69,110.58 C 562.69,114.54 562.50,118.47 562.11,122.33 C 562.28,124.71 562.37,127.13 562.37,129.59  Z M 512.00,122.00 C 512.00,118.86 512.63,117.38 512.63,111.28 C 512.63,98.56 509.72,84.93 504.08,76.70 L 478.03,75.80 C 471.40,85.23 467.42,97.04 467.42,108.69 C 467.42,118.90 470.00,121.32 469.99,128.10 C 469.99,140.27 488.52,152.83 499.42,153.01 C 502.46,153.06 504.00,153.60 505.06,153.60 C 506.61,153.60 512.33,144.59 512.33,128.93 C 512.33,127.53 512.00,122.07 512.00,122.00  Z M 392.18,710.51 C 394.59,710.51 440.05,711.08 440.54,711.08 C 545.86,711.08 656.56,700.02 760.54,677.69 C 713.81,557.34 588.95,474.11 520.96,354.41 C 441.54,473.78 341.82,588.03 269.78,710.52 C 282.93,711.18 296.19,711.41 309.68,711.41 C 336.82,711.41 363.77,710.51 392.18,710.51  Z M 392.24,760.51 C 363.89,760.51 336.11,761.42 309.05,761.42 C 281.74,761.42 254.16,760.50 225.73,756.78 C 213.35,755.16 204.00,744.61 204.00,732.00 C 204.00,727.93 204.99,723.86 206.97,720.18 C 291.31,563.03 421.08,425.84 509.59,279.08 L 537.54,295.93 L 546.08,292.38 C 547.74,296.37 549.48,300.32 551.30,304.23 L 552.42,304.90 C 552.27,305.15 552.12,305.40 551.97,305.65 C 616.04,441.50 772.25,529.99 817.06,689.20 C 817.68,691.42 818.00,693.71 818.00,696.00 C 818.00,707.71 809.92,717.69 798.78,720.32 C 683.01,747.68 558.80,761.07 440.63,761.07 C 440.15,761.07 393.01,760.51 392.24,760.51 Z" transform="translate(2612.12,100.00) scale(0.8000,0.8000)" fill="#000000" />
  <path d="M 450.00,110.00 C 450.00,106.83 455.37,23.26 506.62,23.26 C 512.81,23.26 518.98,24.57 524.51,26.87 C 529.48,25.74 536.55,24.36 544.99,24.36 C 547.61,24.36 550.36,24.49 553.23,24.81 C 554.57,24.70 555.90,24.65 557.21,24.65 C 598.02,24.65 626.14,74.35 626.14,107.78 C 626.14,172.42 546.37,197.00 531.00,197.00 C 500.87,197.00 463.92,162.86 450.95,116.81 C 450.32,114.59 450.00,112.29 450.00,110.00  Z M 530.56,146.31 C 540.83,143.38 576.17,130.83 576.17,108.10 C 576.17,95.02 562.29,74.53 557.13,74.65 C 555.77,74.88 554.38,75.00 553.00,75.00 C 549.25,75.00 547.47,74.18 544.09,74.18 C 538.88,74.18 532.03,77.13 520.90,78.44 L 513.25,85.00 L 507.72,78.54 C 503.71,87.41 501.49,99.78 500.46,107.48 C 500.63,107.94 512.41,139.22 530.56,146.31  Z M 585.61,433.17 C 667.56,433.17 696.14,333.89 698.00,277.63 C 698.00,276.32 698.00,275.03 698.00,273.78 C 698.00,230.57 699.83,223.33 707.60,215.55 C 710.78,212.38 717.51,208.12 725.77,208.12 C 751.14,208.12 753.62,234.79 756.13,269.27 C 757.14,283.09 757.98,297.94 757.98,311.78 C 757.98,321.47 757.57,330.67 756.51,338.68 C 764.70,370.40 768.65,401.85 768.65,432.29 C 768.65,591.35 661.15,717.91 502.39,717.91 C 476.18,717.91 448.68,714.44 420.21,707.12 C 414.16,707.32 408.11,707.39 402.09,707.39 C 382.71,707.39 364.05,706.61 344.14,706.61 C 300.56,706.61 292.48,710.83 285.57,710.99 L 197.56,712.99 L 196.43,663.01 L 282.35,661.06 C 302.08,657.42 322.24,656.54 342.11,656.54 C 361.32,656.54 382.38,657.39 402.21,657.39 C 414.17,657.39 422.79,657.00 423.00,657.00 C 431.11,657.00 459.49,668.09 503.15,668.09 C 634.30,668.09 718.67,562.08 718.67,432.23 C 718.67,421.29 718.07,410.15 716.85,398.85 C 699.28,430.88 659.28,483.15 585.24,483.15 C 583.82,483.15 582.39,483.13 580.95,483.09 C 566.80,485.74 552.31,487.04 537.78,487.04 C 428.65,487.04 321.40,413.96 321.40,300.60 C 321.40,290.63 322.24,280.36 324.00,269.84 L 324.00,204.00 L 374.00,204.00 L 374.00,272.00 C 374.00,277.01 371.31,285.44 371.31,301.37 C 371.31,387.45 459.79,436.92 538.84,436.92 C 562.08,436.92 573.23,433.00 579.00,433.00 C 580.33,433.00 582.01,433.17 585.61,433.17 Z" transform="translate(3662.97,100.00) scale(0.8000,0.8000)" fill="#000000" />
  <path d="M 426.34,506.44 L 451.67,549.56 L 291.66,643.56 C 290.58,644.20 289.45,644.75 288.31,645.21 C 288.31,645.21 258.31,657.21 258.27,657.22 L 239.69,610.79 L 267.95,599.49 L 426.34,506.44  Z M 220.32,92.24 L 249.64,51.73 C 403.26,162.90 403.26,162.90 404.68,164.32 L 426.68,186.32 L 391.32,221.68 L 370.74,201.10 C 370.74,201.10 220.36,92.27 220.32,92.24  Z M 412.42,1.79 C 425.88,-17.66 453.81,-37.10 480.37,-37.10 C 481.06,-37.10 481.75,-37.09 482.45,-37.07 C 483.56,-37.15 484.68,-37.19 485.81,-37.19 C 496.20,-37.19 526.13,-33.36 526.13,10.70 C 526.13,11.12 526.00,19.91 526.00,20.00 C 526.00,20.91 524.70,83.19 489.56,103.62 C 485.77,105.82 481.44,107.15 474.34,107.15 C 460.69,107.15 452.48,102.45 442.02,96.45 C 430.78,95.15 396.62,88.28 396.62,52.87 C 396.62,36.99 404.11,21.80 416.69,4.75 L 412.42,1.79  Z M 467.18,23.70 C 466.63,23.82 465.05,24.28 465.03,24.28 C 456.88,33.96 451.87,41.16 449.01,46.91 C 455.31,47.58 458.35,47.90 468.48,53.98 C 475.41,38.82 476.08,14.20 476.08,13.79 C 474.23,14.35 472.46,15.10 470.60,16.07 L 471.65,16.64 C 469.86,18.65 467.90,20.88 465.90,23.24 L 467.18,23.70  Z M 350.38,315.35 C 350.38,177.00 476.98,82.97 616.69,82.97 C 618.25,82.97 619.82,82.98 621.38,83.01 L 620.62,132.99 C 619.34,132.97 618.06,132.96 616.78,132.96 C 508.34,132.96 400.29,202.94 400.29,314.65 C 400.29,336.19 403.98,348.62 403.99,353.91 C 404.54,499.96 526.18,607.44 666.19,617.03 L 739.68,619.01 L 738.33,668.99 C 689.91,667.68 664.07,666.99 663.32,666.94 C 496.06,655.76 355.88,526.43 354.02,356.34 C 351.56,342.32 350.38,328.64 350.38,315.35 Z" transform="translate(4713.81,100.00) scale(0.8000,0.8000)" fill="#000000" />
</svg>
