<?xml version="1.0" encoding="UTF-8" standalone="no"?>
<!--
Representation of "lipu pu pi toki Pasi" in sitelen ilo pona
Generated by generate_sitelen_kalama_pona.py

Description:
  Representation of "lipu pu pi toki Pasi" in sitelen ilo pona.
  Sources: lipu: https://commons.wikimedia.org/wiki/File:Sitelen_seli_kiwen_-_lipu.svg; pu: https://commons.wikimedia.org/wiki/File:Sitelen_seli_kiwen_-_pu.svg; pi: https://commons.wikimedia.org/wiki/File:Sitelen_seli_kiwen_-_pi.svg; toki: https://commons.wikimedia.org/wiki/File:Sitelen_seli_kiwen_-_toki.svg; pa: https://commons.wikimedia.org/wiki/File:Sitelen_kalama_pona_-_pa.svg; si: https://commons.wikimedia.org/wiki/File:Sitelen_kalama_pona_-_si.svg

Categories:
  [[Category:Sitelen kalama pona]]
  [[Category:Toki Pona text containing lipu pu pi toki]]
  [[Category:Toki Pona text containing sound symbol Pa]]
  [[Category:Toki Pona text containing sound symbol Si]]

Sources:
  lipu: https://commons.wikimedia.org/wiki/File:Sitelen_seli_kiwen_-_lipu.svg
  pu: https://commons.wikimedia.org/wiki/File:Sitelen_seli_kiwen_-_pu.svg
  pi: https://commons.wikimedia.org/wiki/File:Sitelen_seli_kiwen_-_pi.svg
  toki: https://commons.wikimedia.org/wiki/File:Sitelen_seli_kiwen_-_toki.svg
  pa: https://commons.wikimedia.org/wiki/File:Sitelen_kalama_pona_-_pa.svg
  si: https://commons.wikimedia.org/wiki/File:Sitelen_kalama_pona_-_si.svg
-->
<svg version="1.1" width="6990" height="1000"
     viewBox="0 0 6990 1000"
     xmlns="http://www.w3.org/2000/svg">
  <path d="M461 87Q346 87 316.5 82.0Q287 77 262 77Q248 77 234.0 77.0Q220 77 209.5 76.5Q199 76 191.0 75.5Q183 75 178.5 75.0Q174 75 174 75Q159 75 152.0 78.5Q145 82 134 93L118 111L126 135Q135 157 137.0 215.0Q139 273 139.5 322.0Q140 371 143 374Q145 376 145 402Q145 402 144.5 435.0Q144 468 143.0 516.0Q142 564 141 596L140 697L166 723L252 720Q307 718 349 718Q349 718 353.0 718.0Q357 718 364.5 718.5Q372 719 383.0 719.0Q394 719 411.5 719.0Q429 719 449.5 719.5Q470 720 499.0 720.0Q528 720 560 720Q569 720 581.0 720.0Q593 720 605.0 719.5Q617 719 627.5 718.5Q638 718 644.5 718.0Q651 718 651 718Q676 718 691.5 720.0Q707 722 713.0 724.5Q719 727 721.5 727.0Q724 727 731.5 725.0Q739 723 742 723Q750 723 757.0 704.0Q764 685 764 669Q764 663 762.0 656.5Q760 650 760 645Q760 640 762.5 625.5Q765 611 765 587Q765 572 763.5 546.0Q762 520 760.0 493.5Q758 467 756.0 443.0Q754 419 752.5 403.0Q751 387 751 387Q751 382 752.0 375.0Q753 368 753 361Q753 349 752 340Q752 338 751.5 333.0Q751 328 751 325Q751 289 759.0 233.0Q767 177 775 153Q785 127 779 121Q776 117 777.5 110.5Q779 104 774 101Q766 93 651.0 89.5Q536 86 490 86ZM687 311Q687 330 689.0 364.5Q691 399 694.0 434.0Q697 469 699.5 501.5Q702 534 704.0 555.5Q706 577 706 577Q706 588 701.5 601.5Q697 615 694 631L690 653L650 654Q597 655 375 655Q230 655 224 654Q212 653 208 642Q202 621 202 458Q202 429 202.5 401.5Q203 374 203.5 355.5Q204 337 204.5 323.5Q205 310 205.0 302.5Q205 295 205 295Q205 281 199.5 252.0Q194 223 194 179Q194 167 195.0 162.5Q196 158 202.5 153.5Q209 149 221.0 148.5Q233 148 257 148Q292 148 292 151Q292 153 342 153Q359 153 375.5 153.0Q392 153 404.0 152.5Q416 152 427.0 151.5Q438 151 445.5 150.5Q453 150 458.5 149.5Q464 149 466.5 149.0Q469 149 469 149Q488 149 528.5 154.5Q569 160 593 160Q600 160 606.5 159.5Q613 159 620 159Q647 159 676.0 163.5Q705 168 705 172Q705 174 696.0 225.5Q687 277 687 311Z" transform="translate(0.00,958.33) scale(0.9583,-0.9583)" fill="#000000" />
  <path d="M377 275Q377 280 369.5 295.0Q362 310 362 316Q362 326 370.0 341.5Q378 357 384 359Q393 362 400 362Q414 362 425 338Q438 311 443 324Q445 328 464 340Q479 349 482.5 349.5Q486 350 497 344Q520 330 520 311Q520 289 486.5 270.5Q453 252 432 252Q418 252 404.5 256.5Q391 261 391.0 265.0Q391 269 384.0 269.0Q377 269 377 275ZM625 424Q625 418 629.0 413.0Q633 408 633 386Q633 312 610.0 265.5Q587 219 541 188Q507 165 490.5 158.5Q474 152 449 152Q404 152 378.0 157.5Q352 163 339.0 169.5Q326 176 320 177Q307 180 291.5 190.0Q276 200 275 207Q273 213 268.5 217.0Q264 221 259.0 223.5Q254 226 249.0 234.5Q244 243 242 257Q238 281 242 286Q245 290 248.5 315.0Q252 340 255 342L258 353Q262 364 268.0 375.0Q274 386 281 386Q285 386 300.5 407.0Q316 428 320 439Q324 448 343.5 456.5Q363 465 370 473Q379 484 405.0 488.0Q431 492 435 494Q456 503 463 501Q464 501 479.0 498.0Q494 495 514.0 489.0Q534 483 555 473Q616 445 616.0 439.0Q616 433 620 433Q625 433 625 424ZM431 219Q483 219 523.5 257.5Q564 296 564 359Q564 381 558.5 391.0Q553 401 537 409Q497 430 487.0 433.5Q477 437 459 437Q437 437 423.5 430.0Q410 423 404.5 416.0Q399 409 396 409Q391 409 391 405Q391 402 380.0 396.5Q369 391 355.5 381.5Q342 372 336 362Q307 308 307 279Q307 271 318.5 260.0Q330 249 341.0 242.5Q352 236 354 236Q357 236 382.5 227.5Q408 219 431 219ZM325 591Q325 590 343.5 566.0Q362 542 362 531Q362 525 347 512L331 499L323 513Q318 521 295.5 536.5Q273 552 273 564Q273 572 286.5 584.5Q300 597 316 597Q325 597 325 591ZM524 532Q524 554 565.5 596.5Q607 639 632 639Q655 639 655 603Q655 594 642.0 584.0Q629 574 605.5 559.0Q582 544 568 530Q552 516 543 516Q537 516 530.5 521.0Q524 526 524 532ZM464 678Q485 678 485 632Q485 611 464 570Q458 559 448.0 559.0Q438 559 430.0 569.0Q422 579 422 597Q422 604 425.0 610.0Q428 616 428 619Q428 627 429.0 637.5Q430 648 439.0 663.0Q448 678 464 678ZM141 143Q141 144 138.5 147.5Q136 151 136 157Q136 162 139.0 172.5Q142 183 146.0 198.5Q150 214 153.0 260.5Q156 307 156 376Q156 390 155.5 402.5Q155 415 155.0 425.0Q155 435 154.5 443.5Q154 452 153.0 458.0Q152 464 152.0 468.0Q152 472 152 474L151 477Q151 487 154.5 506.5Q158 526 158 533Q158 538 156.5 543.0Q155 548 155 557Q155 563 156.0 576.0Q157 589 157 595Q157 598 154.0 615.5Q151 633 151 679Q151 733 157.0 751.5Q163 770 163 771Q165 792 170.5 796.5Q176 801 197 802Q225 804 226.0 805.0Q227 806 231.0 804.5Q235 803 242.0 800.5Q249 798 255 798Q262 798 276.5 790.5Q291 783 305 783Q312 783 317.0 785.0Q322 787 329 787Q344 787 359.5 780.0Q375 773 401 773Q420 773 438.0 777.5Q456 782 470 782Q485 782 511.0 779.5Q537 777 545 777Q560 777 564 781Q569 786 590.0 787.0Q611 788 613 789L661 796Q680 796 695.5 791.5Q711 787 713 787Q717 787 727.0 792.5Q737 798 753 801Q764 803 767.0 802.0Q770 801 770.0 795.0Q770 789 777.0 780.5Q784 772 784 754Q784 739 770.5 685.0Q757 631 755 604Q755 596 748.0 575.5Q741 555 739 490Q735 354 735 322Q735 291 736.5 285.5Q738 280 738 272Q738 262 737.0 245.5Q736 229 735.5 215.5Q735 202 735 201Q735 190 742.5 140.0Q750 90 750 54Q750 43 748.5 39.0Q747 35 739.5 32.0Q732 29 714 29Q684 29 670.5 32.0Q657 35 650.0 39.0Q643 43 593.0 46.5Q543 50 449 51Q395 51 268.5 55.0Q142 59 142 67Q142 72 136 72Q134 72 130.0 74.0Q126 76 121.0 82.0Q116 88 116 96Q116 109 128.5 124.5Q141 140 141 143ZM226 627V626Q225 625 224.0 622.5Q223 620 222.0 616.5Q221 613 220.0 606.5Q219 600 218.0 592.0Q217 584 216.5 571.5Q216 559 216 545Q216 512 219 491L222 470L220 450Q218 430 218 416Q218 407 220.0 401.5Q222 396 223.5 395.0Q225 394 225.5 392.0Q226 390 223 389Q220 387 219.0 366.0Q218 345 216.5 289.0Q215 233 210 174Q208 142 208 137Q208 133 218.5 131.5Q229 130 256.5 127.0Q284 124 309 119Q326 116 355 116Q365 116 434.0 120.0Q503 124 545 124Q583 124 607.0 119.5Q631 115 647 115H652L674 116V135Q674 140 673.5 164.5Q673 189 672.5 231.5Q672 274 672 323V360Q672 369 674.0 420.5Q676 472 681.0 543.0Q686 614 692 639Q701 673 701 700Q701 718 695.5 723.0Q690 728 663 728H656Q650 727 639.0 726.0Q628 725 613.0 723.5Q598 722 578.5 721.0Q559 720 539.0 719.0Q519 718 494.5 717.5Q470 717 447 717H440Q434 717 423.5 717.5Q413 718 400.5 718.0Q388 718 374.0 718.0Q360 718 349 718H308Q302 718 286.5 718.5Q271 719 258 720H245Q226 720 224 718Q221 715 221 674Q221 656 222.5 645.5Q224 635 225.0 631.5Q226 628 226 627Z" transform="translate(942.50,958.33) scale(0.9583,-0.9583)" fill="#000000" />
  <path d="M178 600Q178 613 172.0 629.5Q166 646 166 651Q166 660 178 675Q187 686 191.5 688.0Q196 690 206 688Q221 685 228.5 675.5Q236 666 237.0 657.5Q238 649 238 634V602Q238 561 244.0 524.5Q250 488 250 466Q250 451 248.0 418.5Q246 386 246 369Q246 369 246.0 367.0Q246 365 246.5 361.5Q247 358 247.5 353.0Q248 348 248.0 339.5Q248 331 248.5 321.0Q249 311 249.5 296.5Q250 282 250 266Q250 179 252 177Q260 168 392 168Q392 168 438.0 168.0Q484 168 532.0 168.5Q580 169 584 169Q698 169 704 167Q710 164 716 164Q722 163 728.0 144.5Q734 126 734 111Q734 109 733.0 103.5Q732 98 727.5 90.5Q723 83 716 83Q714 83 683.5 92.5Q653 102 624 102Q612 102 594.0 100.0Q576 98 562 98Q562 98 558.5 98.5Q555 99 548.0 99.5Q541 100 532.0 100.5Q523 101 510.5 101.5Q498 102 486 102Q485 102 480.5 102.0Q476 102 469.0 101.5Q462 101 454.5 100.5Q447 100 439.5 100.0Q432 100 428 100Q344 100 230 92L190 90L184 104Q180 114 180 131Q180 157 185.0 176.5Q190 196 190 218Q190 218 190.0 225.0Q190 232 190.0 242.5Q190 253 189.5 264.5Q189 276 188.5 287.0Q188 298 188 304Q188 326 190.0 374.0Q192 422 192 441Q192 517 178 540Q176 543 177.0 544.0Q178 545 180.0 545.5Q182 546 182.5 549.5Q183 553 180 562Q176 571 176 578Q176 581 177.0 588.5Q178 596 178 600Z" transform="translate(1885.00,958.33) scale(0.9583,-0.9583)" fill="#000000" />
  <path d="M222 295Q222 320 228.0 339.0Q234 358 240.0 368.0Q246 378 246 382Q246 395 265.0 421.5Q284 448 300 456Q316 465 325.0 475.0Q334 485 335.5 491.0Q337 497 344.0 502.0Q351 507 366 509Q385 512 401.0 516.5Q417 521 428 521Q445 521 487.0 512.0Q529 503 540 503Q552 503 571.5 496.0Q591 489 608.0 481.5Q625 474 628 473Q640 469 640 463Q640 457 647.0 453.0Q654 449 654.0 445.0Q654 441 660.5 434.5Q667 428 676.0 416.0Q685 404 690 391Q700 367 702 365Q706 361 706 347Q706 339 709.0 330.5Q712 322 713.0 320.0Q714 318 712 314Q709 312 707.0 303.0Q705 294 700.0 278.5Q695 263 686 250Q678 237 671.0 219.5Q664 202 654 192Q647 185 644.5 179.5Q642 174 642.5 171.0Q643 168 639.5 165.0Q636 162 626 158Q608 150 608 146Q608 141 586.5 133.0Q565 125 538.0 117.0Q511 109 504 106Q488 98 458 98Q419 98 389.5 107.0Q360 116 345.5 124.5Q331 133 330 133Q322 133 305.0 142.5Q288 152 286 157Q285 165 278 167Q265 172 249.0 217.5Q233 263 230 265Q222 270 222 295ZM584 428Q581 428 570.5 436.0Q560 444 534.0 452.5Q508 461 468 461Q434 461 405.0 452.5Q376 444 361.0 435.0Q346 426 333.0 411.5Q320 397 317.5 393.0Q315 389 312 384Q308 374 302 374Q297 374 289.5 351.5Q282 329 282 313Q282 289 313.5 236.0Q345 183 378 177Q397 173 402 170Q416 163 460 163Q496 163 511.0 169.0Q526 175 528 175Q533 175 548.0 180.5Q563 186 588.0 205.5Q613 225 626 254Q643 288 645.5 296.5Q648 305 648 318Q648 349 638 370Q633 383 611.5 405.5Q590 428 584 428ZM144 612Q144 622 151.5 632.5Q159 643 172 643Q181 643 202.5 624.5Q224 606 227.5 606.0Q231 606 235.0 599.0Q239 592 244 592Q249 592 258.5 579.0Q268 566 268 555Q268 545 259.5 539.5Q251 534 243 533L234 532Q226 532 207.5 550.5Q189 569 182 569Q175 569 170.5 576.0Q166 583 162 583Q144 595 144 612ZM622 636Q645 645 677.0 671.5Q709 698 726 698Q740 698 748.0 689.5Q756 681 756 667Q756 654 752.0 648.5Q748 643 734 636Q722 629 700.0 615.0Q678 601 661.5 591.5Q645 582 638 580Q629 577 623.5 573.0Q618 569 608 569Q580 569 580 589Q580 601 592.0 615.0Q604 629 622 636ZM400 600Q400 601 403.0 615.0Q406 629 409.0 652.0Q412 675 412 697Q412 706 410 712Q405 729 429 742Q447 751 448 740Q448 734 458 730Q464 729 465.0 725.0Q466 721 466 708Q466 673 461.0 651.5Q456 630 456 608Q456 595 444.0 583.0Q432 571 420 571Q410 571 405.0 580.0Q400 589 400 600Z" transform="translate(2827.50,958.33) scale(0.9583,-0.9583)" fill="#000000" />
  <path d="M 24.637998,12.488337 H 20.72216 q -1.48166,0 -2.54,-1.058333 -1.05833,-1.058333 -1.05833,-2.54 V 3.598338 q 0,-1.481667 1.05833,-2.54 Q 19.2405,4e-6 20.72216,4e-6 h 3.915838 V 0.846671 H 20.72216 q -1.13241,0 -1.94733,0.814917 -0.80433,0.804333 -0.80433,1.93675 v 5.291666 q 0,1.132417 0.80433,1.93675 0.81492,0.814917 1.94733,0.814917 h 3.915838 z" transform="translate(2398.81,0.00) scale(80.0747,80.0747)" fill="#000000" />
  <path d="M 75.014662,0.846671 V 4e-6 h 13.123333 v 0.846667 z m 0,11.641666 v -0.846666 h 13.123333 v 0.846666 z" transform="translate(-1635.08,0.00) scale(80.0747,80.0747)" fill="#000000" />
  <path d="M 75.014662,0.846671 V 4e-6 h 13.123333 v 0.846667 z m 0,11.641666 v -0.846666 h 13.123333 v 0.846666 z" transform="translate(-584.24,0.00) scale(80.0747,80.0747)" fill="#000000" />
  <path d="m 87.714667,4e-6 h 2.8575 q 1.481666,0 2.54,1.058334 1.058333,1.058333 1.058333,2.54 v 5.291666 q 0,1.481667 -1.058333,2.54 -1.058334,1.058333 -2.54,1.058333 h -2.8575 v -0.846666 h 2.8575 q 1.132416,0 1.93675,-0.814917 0.814916,-0.804333 0.814916,-1.93675 V 3.598338 q 0,-1.132417 -0.814916,-1.93675 -0.804334,-0.814917 -1.93675,-0.814917 h -2.8575 z" transform="translate(-550.34,0.00) scale(80.0747,80.0747)" fill="#000000" />
  <path d="M 641.19,97.96 C 641.19,97.96 690.82,103.99 690.81,104.04 C 664.81,318.04 664.81,318.04 664.81,318.04 C 664.81,318.04 615.18,312.01 615.19,311.96 C 641.19,97.96 641.19,97.96 641.19,97.96  Z M 411.00,461.00 C 411.00,464.00 409.68,472.65 409.68,486.21 C 409.68,544.12 434.55,594.35 534.11,615.43 C 580.87,625.34 631.08,626.79 694.49,628.01 C 695.13,628.02 695.13,628.02 865.77,640.07 L 862.25,689.93 C 692.86,677.98 692.86,677.98 687.79,677.88 C 592.87,676.08 472.28,673.73 405.87,607.31 C 376.65,578.09 359.77,537.33 359.77,484.99 C 359.77,476.93 360.17,468.60 360.98,459.99 C 360.93,456.67 360.91,453.35 360.91,450.04 C 360.91,369.17 376.08,290.09 390.64,213.35 C 397.44,177.48 404.15,142.11 409.27,107.33 C 409.27,107.33 458.73,114.62 458.73,114.67 C 453.40,150.83 446.55,186.86 439.75,222.72 C 425.16,299.60 410.90,375.66 410.90,450.25 C 410.90,456.42 411.00,460.35 411.00,461.00  Z M 154.85,624.93 C 154.85,625.77 155.74,670.06 155.74,670.52 C 155.74,682.89 155.15,695.78 153.00,709.10 L 153.00,741.00 L 103.00,741.00 L 103.00,707.00 C 103.00,701.32 105.69,695.82 105.69,669.82 C 105.69,669.12 104.82,624.91 104.82,624.46 C 104.82,613.09 105.30,601.26 107.02,589.05 C 107.14,577.90 107.19,566.69 107.19,555.43 C 107.19,542.39 107.12,529.27 107.01,516.10 C 106.11,504.49 105.66,492.98 105.66,481.57 C 105.66,273.32 253.88,102.94 467.33,80.15 C 468.60,80.01 468.60,80.01 899.88,78.01 L 900.12,127.99 L 471.42,129.99 C 283.90,150.61 155.65,299.39 155.65,481.49 C 155.65,500.64 156.97,511.82 156.99,514.79 C 157.11,528.36 157.18,541.91 157.18,555.43 C 157.18,586.69 156.98,593.01 156.72,594.74 C 155.29,604.25 154.85,614.31 154.85,624.93 Z" transform="translate(4497.12,100.00) scale(0.8000,0.8000)" fill="#000000" />
  <path d="M 463.00,119.00 C 450.73,119.00 395.37,101.32 395.37,62.11 C 395.37,52.70 398.92,44.22 403.57,38.02 L 401.79,32.06 L 413.64,28.51 C 420.12,24.04 428.56,21.00 435.00,21.00 C 435.85,21.00 436.71,21.05 437.56,21.14 C 438.47,20.87 439.92,20.51 442.59,20.51 C 451.27,20.51 456.09,23.30 458.35,24.77 C 468.23,25.64 476.86,28.46 484.18,35.78 C 491.41,43.00 494.18,52.76 494.18,61.57 C 494.18,62.64 494.14,63.69 494.06,64.73 C 494.16,66.89 494.27,69.36 494.27,72.08 C 494.27,96.97 482.63,119.00 463.00,119.00  Z M 519.20,142.62 C 563.42,142.62 590.00,165.34 590.00,186.00 L 590.00,194.00 L 541.73,194.00 C 542.00,195.38 542.27,196.76 542.95,197.74 C 540.81,196.28 532.41,192.66 518.53,192.66 C 517.38,192.66 516.28,192.69 515.24,192.74 C 463.42,206.95 389.46,253.45 389.46,318.95 C 389.46,354.12 424.15,384.23 455.23,411.20 C 494.33,445.13 540.22,484.96 540.22,550.82 C 540.22,566.94 536.74,607.11 505.05,638.79 C 474.37,669.47 423.97,688.31 335.16,688.31 C 319.56,688.31 306.63,688.20 257.34,684.94 C 257.34,684.94 260.63,635.06 260.66,635.06 C 291.88,637.12 312.69,638.24 335.52,638.24 C 401.15,638.24 490.24,628.10 490.24,550.46 C 490.24,509.06 462.15,483.41 422.49,449.00 C 387.42,418.56 349.44,385.60 340.39,334.38 C 340.36,334.23 339.47,328.38 339.47,318.99 C 339.47,229.47 426.73,164.12 504.67,143.81 C 506.02,143.46 510.20,142.62 519.20,142.62 Z" transform="translate(5547.97,100.00) scale(0.8000,0.8000)" fill="#000000" />
</svg>
