<?xml version="1.0" encoding="UTF-8" standalone="no"?>
<!--
Representation of "kulupu unpa" in sitelen kalama pona
Generated by generate_sitelen_kalama_pona.py

Description:
  Representation of "kulupu unpa" in sitelen kalama pona.
  Sources: kulupu: https://commons.wikimedia.org/wiki/File:Sitelen_seli_kiwen_-_kulupu.svg; unpa: https://commons.wikimedia.org/wiki/File:Sitelen_seli_kiwen_-_unpa.svg

Categories:
  [[Category:Sitelen kalama pona]]
  [[Category:Toki Pona text containing kulupu unpa]]

Sources:
  kulupu: https://commons.wikimedia.org/wiki/File:Sitelen_seli_kiwen_-_kulupu.svg
  unpa: https://commons.wikimedia.org/wiki/File:Sitelen_seli_kiwen_-_unpa.svg
-->
<svg version="1.1" width="1805" height="1000"
     viewBox="0 0 1805 1000"
     xmlns="http://www.w3.org/2000/svg">
  <path d="M416 252Q416 226 407.0 204.5Q398 183 390.0 174.5Q382 166 380 166Q377 166 354 144Q332 124 310.5 115.5Q289 107 246 107Q172 107 138 138Q97 175 88.5 188.5Q80 202 80 234Q80 270 82.5 280.0Q85 290 92 296Q99 302 101.0 304.0Q103 306 103.5 307.5Q104 309 106.5 312.0Q109 315 120.5 326.0Q132 337 152 354Q178 379 238 379Q319 379 360 358Q386 344 401.0 315.0Q416 286 416 252ZM346 263Q346 280 338.0 291.0Q330 302 315.0 307.0Q300 312 286.0 313.5Q272 315 252 315Q214 315 189.5 302.0Q165 289 160 278Q155 264 148 264Q142 264 142 255Q142 241 153.5 220.0Q165 199 178 196Q182 195 207.5 185.5Q233 176 252 176Q279 176 295.0 187.5Q311 199 317.5 210.5Q324 222 326 222Q333 222 339.5 235.0Q346 248 346 263ZM820 263Q820 245 817.0 233.0Q814 221 811.0 217.5Q808 214 805.0 211.0Q802 208 802 204Q802 198 794.0 182.0Q786 166 784 166Q781 166 758.0 144.5Q735 123 728 123Q718 123 706.0 117.5Q694 112 694 108Q694 106 676 106Q625 106 598.0 116.0Q571 126 538 153Q527 162 522.0 168.5Q517 175 512.5 194.0Q508 213 508 244Q508 286 520 297Q540 313 540 340Q540 357 561.0 375.5Q582 394 600 394Q629 394 643.5 399.0Q658 404 682 404Q709 404 727.5 399.0Q746 394 760.5 379.5Q775 365 783.0 352.0Q791 339 806 310Q813 297 816 297Q820 297 820 263ZM666 182Q669 182 673.5 181.0Q678 180 680 180Q690 180 702.0 189.0Q714 198 716 198Q721 198 735.5 228.0Q750 258 750 269Q750 273 748 273Q746 273 741.0 285.0Q736 297 728.0 312.5Q720 328 710 335Q706 338 678 338Q653 338 642.0 335.5Q631 333 616 323Q604 316 590 310Q585 309 583.5 303.0Q582 297 582 281Q582 255 578 255Q574 255 574 251Q574 248 578.0 235.5Q582 223 582 217Q582 203 600.0 191.5Q618 180 633.0 176.0Q648 172 652 172Q656 172 659.0 177.0Q662 182 666 182ZM470 732Q500 732 527.0 722.5Q554 713 566.0 705.0Q578 697 578 695Q578 692 585.0 685.0Q592 678 602.0 665.0Q612 652 618 639Q628 617 636 611Q642 605 642 580Q642 520 602 484Q589 473 578.5 466.0Q568 459 563.5 457.0Q559 455 556.0 452.5Q553 450 552 444Q549 433 536 433Q525 433 494.0 431.5Q463 430 456 430Q419 430 398.5 438.0Q378 446 358 467Q338 487 330.0 504.0Q322 521 322 522Q308 538 308 579Q308 597 314 597Q317 597 320.0 603.0Q323 609 329.0 620.0Q335 631 344 640Q355 651 357.0 657.5Q359 664 352 670Q349 674 354 693L360 712L400 717Q430 721 442.0 726.5Q454 732 470 732ZM578 577Q578 607 539.0 641.5Q500 676 438 676Q428 676 428 668Q428 662 416.0 647.5Q404 633 404 626Q404 620 391.0 605.0Q378 590 378 573Q378 546 402 523Q414 510 421.0 507.5Q428 505 450 505Q464 505 474.0 504.0Q484 503 487 502L490 501Q504 501 541.0 528.0Q578 555 578 577Z" transform="translate(0.00,958.33) scale(0.9583,-0.9583)" fill="#000000" />
  <path d="M332 364Q332 368 334.5 377.0Q337 386 337 390Q337 397 333.0 401.0Q329 405 322.5 407.5Q316 410 315 411Q305 418 276 428Q257 435 249.5 440.0Q242 445 232 457Q215 480 205 480Q200 480 194.5 484.5Q189 489 184.5 497.0Q180 505 176.5 512.5Q173 520 168.5 530.5Q164 541 161 546Q152 564 152 590Q152 598 152.5 613.0Q153 628 153 640Q153 654 156.5 662.5Q160 671 176 693Q193 716 206.0 725.5Q219 735 238 742Q248 745 254 745Q310 745 368 722Q395 711 407.0 701.5Q419 692 437 667L448 650L486 685Q516 712 543.0 721.5Q570 731 618 731Q622 731 625.5 730.5Q629 730 632 730H634Q640 723 651 723Q664 723 691.0 706.0Q718 689 731 671L748 648L746 611Q745 603 744.5 596.0Q744 589 743.0 584.5Q742 580 740.0 574.0Q738 568 737.5 565.5Q737 563 734.0 557.0Q731 551 730.5 549.5Q730 548 726.0 541.5Q722 535 721 533Q709 513 700.0 503.5Q691 494 675.5 484.5Q660 475 649 466L630 453Q621 451 612.0 443.5Q603 436 592 433L569 426L572 398Q574 381 579.0 363.5Q584 346 586 321Q590 278 595 269Q597 265 594 260Q589 254 589 230Q589 198 581 190Q575 185 575 171Q575 165 568.0 158.5Q561 152 561 141Q561 122 504 88Q477 72 450 72Q424 72 411 82Q390 96 386 97Q375 101 356.5 130.0Q338 159 338 173Q338 174 338.5 176.0Q339 178 339 181Q339 190 333.5 220.0Q328 250 328.0 259.0Q328 268 330.5 299.0Q333 330 333 341Q333 345 332.5 353.0Q332 361 332 364ZM331 675Q304 684 266 684Q244 684 235.0 678.5Q226 673 216 655Q206 635 206 621Q206 562 257 519Q276 503 302.0 491.0Q328 479 345 479Q360 479 370.5 499.0Q381 519 388.5 548.5Q396 578 399 584Q406 595 406 606Q406 618 377.5 643.5Q349 669 331 675ZM514 553Q514 543 521.0 537.5Q528 532 528 531Q528 516 533.5 503.5Q539 491 550 491Q567 491 580 502Q592 512 654 552Q664 558 664 570L665 573Q670 574 675.5 585.5Q681 597 686 609L690 621Q694 626 694 635Q694 651 677 653Q672 655 664 662Q651 675 600 675Q571 675 534.0 656.5Q497 638 497 609Q497 592 507 572Q514 556 514 553ZM473 485Q473 492 467.0 505.0Q461 518 455.5 526.5Q450 535 449 536H446Q438 536 428.5 509.5Q419 483 419 475Q419 468 429 468Q442 468 457.5 472.5Q473 477 473 485ZM462 142Q492 142 512.5 188.0Q533 234 533 278Q533 296 527.5 320.0Q522 344 522 359Q520 409 486 409Q478 409 456.0 403.0Q434 397 425 397H413Q397 397 394 379Q391 360 391 319Q391 279 392.5 256.5Q394 234 400.0 203.0Q406 172 421.5 157.0Q437 142 462 142Z" transform="translate(942.50,958.33) scale(0.9583,-0.9583)" fill="#000000" />
</svg>
