<?xml version="1.0" encoding="UTF-8" standalone="no"?>
<!--
Representation of "akesi pi monsi kiwen" in sitelen ilo pona
Generated by generate_sitelen_kalama_pona.py

Description:
  Representation of "akesi pi monsi kiwen" in sitelen ilo pona.
  Sources: akesi: https://commons.wikimedia.org/wiki/File:Sitelen_seli_kiwen_-_akesi.svg; pi: https://commons.wikimedia.org/wiki/File:Sitelen_seli_kiwen_-_pi.svg; monsi: https://commons.wikimedia.org/wiki/File:Sitelen_seli_kiwen_-_monsi.svg; kiwen: https://commons.wikimedia.org/wiki/File:Sitelen_seli_kiwen_-_kiwen.svg

Categories:
  [[Category:Sitelen kalama pona]]
  [[Category:Toki Pona text containing akesi pi monsi kiwen]]

Sources:
  akesi: https://commons.wikimedia.org/wiki/File:Sitelen_seli_kiwen_-_akesi.svg
  pi: https://commons.wikimedia.org/wiki/File:Sitelen_seli_kiwen_-_pi.svg
  monsi: https://commons.wikimedia.org/wiki/File:Sitelen_seli_kiwen_-_monsi.svg
  kiwen: https://commons.wikimedia.org/wiki/File:Sitelen_seli_kiwen_-_kiwen.svg
-->
<svg version="1.1" width="3690" height="1000"
     viewBox="0 0 3690 1000"
     xmlns="http://www.w3.org/2000/svg">
  <path d="M230 345Q250 345 250 365Q250 376 245.0 382.5Q240 389 240 396Q240 403 242 408L244 428L194 427H176Q135 427 121.5 432.5Q108 438 108 458Q108 474 119.0 484.0Q130 494 148 494Q161 494 181.0 496.5Q201 499 210 499Q217 499 226.5 498.0Q236 497 239.5 497.0Q243 497 248 498Q253 502 258.5 513.5Q264 525 264 533Q264 539 268.0 551.5Q272 564 278.0 578.0Q284 592 290.5 605.0Q297 618 301.5 627.0Q306 636 306 636Q306 640 320.0 652.5Q334 665 334 670Q334 673 344.0 681.0Q354 689 365 695L376 701Q383 704 408 704Q464 704 510 694Q541 687 550.0 682.0Q559 677 578 657Q606 630 606 623Q606 620 608.0 616.0Q610 612 613.5 606.5Q617 601 622.0 586.5Q627 572 632 551L640 508L686 506Q736 504 748.0 496.0Q760 488 760 456Q760 444 751.0 436.5Q742 429 733 427L724 425Q722 425 704.5 428.5Q687 432 676 432H670L654 430V374H720Q784 374 795.5 372.0Q807 370 813 359Q813 358 814 358Q820 344 820 336Q820 325 810 306Q803 292 799.5 290.0Q796 288 784 289Q775 291 761.5 298.5Q748 306 728 308Q723 309 706.0 311.0Q689 313 682 314L662 317L660 284Q658 250 654 236Q652 225 653.0 223.5Q654 222 660 224Q664 226 681.5 228.0Q699 230 712 237Q725 244 738 244Q748 244 759.0 241.5Q770 239 770 236Q770 231 776 231Q786 231 786 205Q786 176 774 168Q770 165 706 163L640 160L628 146Q614 131 614 125Q614 118 601.0 111.0Q588 104 576.0 91.0Q564 78 548.0 68.5Q532 59 502 52Q452 41 442 41Q432 41 416.0 49.5Q400 58 394 58Q374 58 347.5 79.5Q321 101 303.5 123.0Q286 145 286 151Q286 159 242 159Q230 159 215.0 156.0Q200 153 180 153Q156 153 144.0 156.5Q132 160 130.0 164.0Q128 168 128 177Q128 190 134 205Q140 221 148.5 225.0Q157 229 184 229Q206 230 217.0 232.0Q228 234 234 234H240Q254 233 256.0 235.5Q258 238 258 252Q258 274 251.0 279.0Q244 284 206 284H150Q131 284 121.5 284.5Q112 285 100.5 288.0Q89 291 84.5 298.0Q80 305 80.0 317.0Q80 329 93.0 338.5Q106 348 117.0 351.5Q128 355 130 355Q131 355 132.0 354.5Q133 354 135.5 353.0Q138 352 142.5 351.5Q147 351 155.5 350.0Q164 349 176 349Q196 349 208.0 348.0Q220 347 224.0 346.0Q228 345 230 345ZM540 603Q540 610 520.5 625.0Q501 640 480 640Q476 640 469.5 637.0Q463 634 438 634Q418 634 399.0 629.0Q380 624 380 619Q380 616 374 616Q371 616 365.5 608.0Q360 600 353.0 588.0Q346 576 340 570Q328 559 328 553Q328 548 319.0 530.0Q310 512 310 505Q310 498 314.5 497.0Q319 496 340 497Q359 498 374.0 499.5Q389 501 396 501Q416 501 449.0 498.5Q482 496 498 496Q515 496 544.5 501.0Q574 506 574 510Q574 521 560.5 559.0Q547 597 544 597Q540 597 540 603ZM590 417V436H488Q384 436 346 431L304 426L302 407Q300 390 304 373L306 356L342 360Q415 367 514 368L594 370L592 384Q590 400 590 417ZM602 293Q602 306 597.0 308.5Q592 311 568 311Q552 311 541.5 312.0Q531 313 527.0 314.0Q523 315 522 315Q522 315 520 314Q519 312 491.5 310.5Q464 309 430.5 306.5Q397 304 384 301Q366 296 340 296H314L316 272Q317 254 324 236L330 224L416 225Q462 226 510 226Q548 226 566 224L592 221V237Q592 249 597.0 267.5Q602 286 602 293ZM552 154Q552 157 484.0 160.0Q416 163 404 163Q372 163 372 152Q372 147 376 147Q378 147 379.5 145.0Q381 143 382.5 139.5Q384 136 392.0 129.5Q400 123 414 117Q437 106 448 106Q458 106 482.5 111.0Q507 116 516 120Q526 125 539.0 137.5Q552 150 552 154ZM222 644Q219 644 206.5 648.5Q194 653 179.0 666.0Q164 679 164 696Q164 731 200 747Q223 757 239.5 735.0Q256 713 256 692Q256 675 244.5 659.5Q233 644 222 644ZM642 740Q642 755 670 755Q689 755 705.5 745.0Q722 735 722 718Q722 708 726.0 703.0Q730 698 730 694Q730 676 711.0 661.0Q692 646 672 646Q660 646 646 658Q636 668 633.0 674.5Q630 681 630 698Q630 721 636.0 729.0Q642 737 642 740Z" transform="translate(0.00,958.33) scale(0.9583,-0.9583)" fill="#000000" />
  <path d="M178 600Q178 613 172.0 629.5Q166 646 166 651Q166 660 178 675Q187 686 191.5 688.0Q196 690 206 688Q221 685 228.5 675.5Q236 666 237.0 657.5Q238 649 238 634V602Q238 561 244.0 524.5Q250 488 250 466Q250 451 248.0 418.5Q246 386 246 369Q246 369 246.0 367.0Q246 365 246.5 361.5Q247 358 247.5 353.0Q248 348 248.0 339.5Q248 331 248.5 321.0Q249 311 249.5 296.5Q250 282 250 266Q250 179 252 177Q260 168 392 168Q392 168 438.0 168.0Q484 168 532.0 168.5Q580 169 584 169Q698 169 704 167Q710 164 716 164Q722 163 728.0 144.5Q734 126 734 111Q734 109 733.0 103.5Q732 98 727.5 90.5Q723 83 716 83Q714 83 683.5 92.5Q653 102 624 102Q612 102 594.0 100.0Q576 98 562 98Q562 98 558.5 98.5Q555 99 548.0 99.5Q541 100 532.0 100.5Q523 101 510.5 101.5Q498 102 486 102Q485 102 480.5 102.0Q476 102 469.0 101.5Q462 101 454.5 100.5Q447 100 439.5 100.0Q432 100 428 100Q344 100 230 92L190 90L184 104Q180 114 180 131Q180 157 185.0 176.5Q190 196 190 218Q190 218 190.0 225.0Q190 232 190.0 242.5Q190 253 189.5 264.5Q189 276 188.5 287.0Q188 298 188 304Q188 326 190.0 374.0Q192 422 192 441Q192 517 178 540Q176 543 177.0 544.0Q178 545 180.0 545.5Q182 546 182.5 549.5Q183 553 180 562Q176 571 176 578Q176 581 177.0 588.5Q178 596 178 600Z" transform="translate(942.50,958.33) scale(0.9583,-0.9583)" fill="#000000" />
  <path d="M324 422Q324 418 322.5 412.0Q321 406 317.5 397.0Q314 388 304.0 381.5Q294 375 280 375Q208 375 194 391Q186 398 186 417Q186 443 192.0 460.5Q198 478 202.5 483.0Q207 488 216 494Q235 508 246 508Q268 508 296.0 479.5Q324 451 324 422ZM422 103Q422 107 424.0 118.0Q426 129 426 142Q424 162 424 203Q424 240 427.5 257.5Q431 275 432 312Q434 339 436.0 360.0Q438 381 440.0 391.5Q442 402 442 406Q442 409 440 415Q436 422 440.0 432.5Q444 443 442 447Q439 451 445.5 459.0Q452 467 444 470Q440 473 440 487Q440 494 441.0 506.5Q442 519 442 529Q442 563 436.0 605.5Q430 648 424 662Q419 670 420.5 675.0Q422 680 432 691Q444 704 449.5 706.0Q455 708 480 708Q513 708 521.5 712.0Q530 716 576 716Q645 716 661.5 714.0Q678 712 686 702Q694 691 694 680Q694 668 681.5 653.0Q669 638 650 638Q649 638 637.0 639.5Q625 641 598.5 642.5Q572 644 534 644Q514 644 511.0 643.5Q508 643 508 639Q508 630 510.0 602.0Q512 574 512 557Q512 557 511.0 548.5Q510 540 509.0 526.5Q508 513 507.0 497.5Q506 482 505.0 464.5Q504 447 504 433Q504 432 499.5 371.0Q495 310 490.5 245.5Q486 181 486 172Q486 164 487.0 160.5Q488 157 495.5 154.5Q503 152 515.0 151.5Q527 151 554 151Q570 151 584.5 151.5Q599 152 609.5 153.0Q620 154 628.5 154.5Q637 155 641.0 155.5Q645 156 646 156Q662 156 688.0 139.5Q714 123 714 106Q714 102 712.5 97.0Q711 92 706.5 86.5Q702 81 696 81Q687 81 682.5 75.0Q678 69 672 76Q665 80 600 80Q599 80 548.0 79.5Q497 79 496 79Q451 79 436.5 83.5Q422 88 422 103Z" transform="translate(1885.00,958.33) scale(0.9583,-0.9583)" fill="#000000" />
  <path d="M74 487Q74 498 123.0 543.0Q172 588 172 597Q172 603 184.0 623.0Q196 643 198 651Q200 659 207.0 664.0Q214 669 214 674Q214 681 220 681Q225 681 226.5 686.0Q228 691 227.5 697.0Q227 703 231.5 708.0Q236 713 246 713Q247 713 256.5 712.0Q266 711 272.0 711.0Q278 711 278 713Q278 716 312 716H340Q370 716 389.5 718.0Q409 720 416 720Q417 720 430.0 719.0Q443 718 465.0 716.0Q487 714 512.0 712.0Q537 710 565.5 709.0Q594 708 616 708Q622 708 637.5 708.5Q653 709 662 709Q706 709 706 683Q706 675 720.0 656.0Q734 637 734 633Q734 626 738 624Q740 623 748.5 605.5Q757 588 771.5 562.5Q786 537 800 521Q811 509 815.0 503.0Q819 497 822.5 486.0Q826 475 826 461Q826 445 821.5 434.0Q817 423 810 423Q806 423 793.0 405.5Q780 388 780 382Q780 377 776 377Q773 377 738.0 325.0Q703 273 700 273Q700 273 696.5 267.0Q693 261 684.0 248.0Q675 235 662.5 219.0Q650 203 629.5 178.5Q609 154 584 128Q576 119 562.0 91.5Q548 64 545.0 62.0Q542 60 542.0 55.0Q542 50 542.5 47.5Q543 45 540 44Q535 44 528.0 33.5Q521 23 510.5 13.0Q500 3 486 3Q473 3 460.5 5.5Q448 8 448 11Q448 14 434.0 20.0Q420 26 420 37Q420 46 409.5 68.5Q399 91 396 91Q394 91 388.0 100.0Q382 109 370.5 123.0Q359 137 346 146Q328 160 322 170Q320 177 293.0 204.0Q266 231 262 231Q259 231 246.0 247.0Q233 263 221 279L208 295Q208 297 190.0 323.0Q172 349 172 351Q172 355 137.0 390.5Q102 426 98 436Q97 440 90.5 446.5Q84 453 79.0 462.5Q74 472 74 487ZM700 381Q700 387 707.0 395.5Q714 404 714 408Q714 412 726.0 421.0Q738 430 738 438Q738 452 746 465L754 480L740 494Q724 509 724 517Q724 524 715.0 538.0Q706 552 704 558Q701 566 679.5 588.5Q658 611 658 614Q658 619 642 631Q630 641 614.5 643.5Q599 646 502 651Q431 655 374 655Q306 655 302 646Q299 643 296.5 642.0Q294 641 292.5 642.0Q291 643 289.5 642.5Q288 642 288 640Q288 637 283.0 635.5Q278 634 270.5 629.5Q263 625 258 616Q249 602 246 602Q244 602 226.0 577.0Q208 552 208 548Q208 542 204 540Q196 537 183.0 511.5Q170 486 170.0 469.0Q170 452 199.0 415.0Q228 378 232 369Q237 359 241.5 353.0Q246 347 249.0 345.0Q252 343 254.0 341.5Q256 340 256 338Q256 333 281.0 305.5Q306 278 310 278Q316 278 316 272Q316 267 333.0 248.0Q350 229 350 228Q350 227 385.0 192.0Q420 157 420 151Q420 143 428 137Q433 132 442.5 120.5Q452 109 459.0 102.0Q466 95 474 95Q480 95 483.5 97.5Q487 100 492.5 109.0Q498 118 505.5 130.0Q513 142 531.5 165.0Q550 188 576 214Q613 253 614 261Q616 269 622 269Q624 269 630.0 278.5Q636 288 647.0 304.5Q658 321 668 333Q677 343 681.0 350.5Q685 358 684.5 360.5Q684 363 685.0 365.0Q686 367 692 369Q700 373 700 381Z" transform="translate(2827.50,958.33) scale(0.9583,-0.9583)" fill="#000000" />
</svg>
