<?xml version="1.0" encoding="UTF-8" standalone="no"?>
<!--
Representation of "mije lon meli(sitelen unpa)" in sitelen ilo pona
Generated by generate_sitelen_kalama_pona.py

Description:
  Representation of "mije lon meli(sitelen unpa)" in sitelen ilo pona.
  Sources: mije: https://commons.wikimedia.org/wiki/File:Sitelen_seli_kiwen_-_mije.svg; lon: https://commons.wikimedia.org/wiki/File:Sitelen_seli_kiwen_-_lon.svg

Categories:
  [[Category:Sitelen kalama pona]]
  [[Category:Toki Pona text containing mije lon meli(sitelen unpa)]]

Sources:
  mije: https://commons.wikimedia.org/wiki/File:Sitelen_seli_kiwen_-_mije.svg
  lon: https://commons.wikimedia.org/wiki/File:Sitelen_seli_kiwen_-_lon.svg
-->
<svg version="1.1" width="1805" height="1000"
     viewBox="0 0 1805 1000"
     xmlns="http://www.w3.org/2000/svg">
  <path d="M145 380Q145 380 145 394Q145 400 143.5 408.0Q142 416 142 426Q142 511 159 523Q163 525 182.0 571.5Q201 618 219 632Q232 641 249.5 658.5Q267 676 279.5 685.5Q292 695 303 695Q318 695 336.5 714.0Q355 733 361.0 733.0Q367 733 386.5 742.0Q406 751 456 751Q496 751 520.5 747.5Q545 744 551.5 739.5Q558 735 565.0 731.5Q572 728 582 728Q588 728 613.0 709.5Q638 691 646 691Q651 691 698.0 643.0Q745 595 747 587Q749 581 753.5 571.5Q758 562 763 545Q765 536 774.0 512.5Q783 489 783 474Q783 436 765.5 371.5Q748 307 730 296Q721 290 729 289Q735 288 745 292Q756 296 760.0 294.5Q764 293 775 280Q796 257 796 232Q796 228 790.0 208.0Q784 188 784 173Q784 161 790.0 149.0Q796 137 796.0 133.0Q796 129 787 111Q777 91 771.5 86.0Q766 81 754 81Q732 81 718.5 91.0Q705 101 705 118Q705 125 708.5 135.0Q712 145 712 150Q712 153 711.0 157.0Q710 161 710 165Q710 172 712.5 186.0Q715 200 715 203Q715 212 708.0 214.5Q701 217 680 217Q656 217 648 220L641 224Q629 224 594.0 209.0Q559 194 540 191Q525 189 516.5 185.0Q508 181 503.0 178.0Q498 175 474.5 173.0Q451 171 406.0 171.0Q361 171 361 175Q361 180 351 180Q334 180 277.5 202.0Q221 224 209 224Q200 224 193.5 218.5Q187 213 187 208Q187 207 183.0 196.0Q179 185 178 154Q178 150 177.0 140.5Q176 131 173.5 114.5Q171 98 164.0 86.5Q157 75 147 75Q127 75 117.0 80.0Q107 85 105.5 89.5Q104 94 104 102V109Q105 116 106.0 127.0Q107 138 107.5 151.0Q108 164 109.0 178.0Q110 192 110 203Q112 256 122.0 278.5Q132 301 153 301Q168 301 170.5 301.5Q173 302 173 307Q173 316 166.0 316.0Q159 316 159 339Q159 361 152.0 365.0Q145 369 145 380ZM277 278Q284 278 303.0 268.0Q322 258 357.5 248.5Q393 239 440 239Q474 239 502.5 246.0Q531 253 551.0 261.5Q571 270 574 271Q592 276 624.5 293.5Q657 311 667.0 322.0Q677 333 687.0 352.5Q697 372 703.5 386.0Q710 400 712 400Q715 400 715 441Q715 507 704 522Q694 535 694 538Q694 551 671.5 583.5Q649 616 640 616Q632 616 625 625Q614 637 586.5 654.5Q559 672 551 672Q544 672 535.0 677.5Q526 683 510 686Q466 694 455 694Q451 694 448 691Q445 687 432 687Q421 687 407.5 683.5Q394 680 394 677Q394 670 376.0 656.5Q358 643 347 641Q322 636 306.0 627.5Q290 619 268 598Q239 570 228 544Q205 489 198 489Q194 489 194 461Q194 436 197.5 425.5Q201 415 201 404Q201 391 208.0 381.5Q215 372 215 364Q215 348 240.5 313.0Q266 278 277 278Z" transform="translate(0.00,958.33) scale(0.9583,-0.9583)" fill="#000000" />
  <path d="M150 252Q150 262 160.5 276.5Q171 291 190 291Q216 291 250.5 285.5Q285 280 296 280Q319 279 382.5 276.0Q446 273 458 273Q470 273 485.5 275.0Q501 277 506 277Q514 277 524.5 272.5Q535 268 538 269Q542 270 614.0 271.0Q686 272 702 278Q713 282 717.5 281.5Q722 281 730 276Q750 263 750 244Q750 213 712 213Q712 213 708.0 213.0Q704 213 695.5 213.5Q687 214 677.0 214.0Q667 214 652.0 214.0Q637 214 622 214Q611 214 601.0 214.0Q591 214 584.5 214.0Q578 214 573.0 213.5Q568 213 566.0 213.0Q564 213 563.5 213.0Q563 213 547.0 213.5Q531 214 505.5 214.5Q480 215 451.5 215.5Q423 216 394.0 216.5Q365 217 346 217Q333 217 322.0 217.0Q311 217 304.0 216.5Q297 216 291.5 216.0Q286 216 283.5 216.0Q281 216 280 216Q273 216 234.5 219.5Q196 223 184 224Q169 225 159.5 233.0Q150 241 150 252ZM388 467Q388 471 393.0 483.0Q398 495 412.5 508.0Q427 521 446 521Q471 521 489.5 491.0Q508 461 508 441Q508 422 487.5 410.0Q467 398 446.0 398.0Q425 398 406.5 422.5Q388 447 388 467Z" transform="translate(942.50,958.33) scale(0.9583,-0.9583)" fill="#000000" />
</svg>
