<?xml version="1.0" encoding="UTF-8" standalone="no"?>
<!--
Representation of "lipu Wikipesija pi toki Samowa" in sitelen ilo pona
Generated by generate_sitelen_kalama_pona.py

Description:
  Representation of "lipu Wikipesija pi toki Samowa" in sitelen ilo pona.
  Sources: lipu: https://commons.wikimedia.org/wiki/File:Sitelen_seli_kiwen_-_lipu.svg; wi: https://commons.wikimedia.org/wiki/File:Sitelen_kalama_pona_-_wi.svg; ki: https://commons.wikimedia.org/wiki/File:Sitelen_kalama_pona_-_ki.svg; pe: https://commons.wikimedia.org/wiki/File:Sitelen_kalama_pona_-_pe.svg; si: https://commons.wikimedia.org/wiki/File:Sitelen_kalama_pona_-_si.svg; ja: https://commons.wikimedia.org/wiki/File:Sitelen_kalama_pona_-_ja.svg; pi: https://commons.wikimedia.org/wiki/File:Sitelen_kalama_pona_-_pi.svg; to: https://commons.wikimedia.org/wiki/File:Sitelen_kalama_pona_-_to.svg; ki: https://commons.wikimedia.org/wiki/File:Sitelen_kalama_pona_-_ki.svg; sa: https://commons.wikimedia.org/wiki/File:Sitelen_kalama_pona_-_sa.svg; mo: https://commons.wikimedia.org/wiki/File:Sitelen_kalama_pona_-_mo.svg; wa: https://commons.wikimedia.org/wiki/File:Sitelen_kalama_pona_-_wa.svg

Categories:
  [[Category:Sitelen kalama pona]]
  [[Category:Toki Pona text containing lipu]]
  [[Category:Toki Pona text containing sound symbol Wi]]
  [[Category:Toki Pona text containing sound symbol Ki]]
  [[Category:Toki Pona text containing sound symbol Pe]]
  [[Category:Toki Pona text containing sound symbol Si]]
  [[Category:Toki Pona text containing sound symbol Ja]]
  [[Category:Toki Pona text containing sound symbol Pi]]
  [[Category:Toki Pona text containing sound symbol To]]
  [[Category:Toki Pona text containing sound symbol Ki]]
  [[Category:Toki Pona text containing sound symbol Sa]]
  [[Category:Toki Pona text containing sound symbol Mo]]
  [[Category:Toki Pona text containing sound symbol Wa]]

Sources:
  lipu: https://commons.wikimedia.org/wiki/File:Sitelen_seli_kiwen_-_lipu.svg
  wi: https://commons.wikimedia.org/wiki/File:Sitelen_kalama_pona_-_wi.svg
  ki: https://commons.wikimedia.org/wiki/File:Sitelen_kalama_pona_-_ki.svg
  pe: https://commons.wikimedia.org/wiki/File:Sitelen_kalama_pona_-_pe.svg
  si: https://commons.wikimedia.org/wiki/File:Sitelen_kalama_pona_-_si.svg
  ja: https://commons.wikimedia.org/wiki/File:Sitelen_kalama_pona_-_ja.svg
  pi: https://commons.wikimedia.org/wiki/File:Sitelen_kalama_pona_-_pi.svg
  to: https://commons.wikimedia.org/wiki/File:Sitelen_kalama_pona_-_to.svg
  ki: https://commons.wikimedia.org/wiki/File:Sitelen_kalama_pona_-_ki.svg
  sa: https://commons.wikimedia.org/wiki/File:Sitelen_kalama_pona_-_sa.svg
  mo: https://commons.wikimedia.org/wiki/File:Sitelen_kalama_pona_-_mo.svg
  wa: https://commons.wikimedia.org/wiki/File:Sitelen_kalama_pona_-_wa.svg
-->
<svg version="1.1" width="13620" height="1000"
     viewBox="0 0 13620 1000"
     xmlns="http://www.w3.org/2000/svg">
  <path d="M461 87Q346 87 316.5 82.0Q287 77 262 77Q248 77 234.0 77.0Q220 77 209.5 76.5Q199 76 191.0 75.5Q183 75 178.5 75.0Q174 75 174 75Q159 75 152.0 78.5Q145 82 134 93L118 111L126 135Q135 157 137.0 215.0Q139 273 139.5 322.0Q140 371 143 374Q145 376 145 402Q145 402 144.5 435.0Q144 468 143.0 516.0Q142 564 141 596L140 697L166 723L252 720Q307 718 349 718Q349 718 353.0 718.0Q357 718 364.5 718.5Q372 719 383.0 719.0Q394 719 411.5 719.0Q429 719 449.5 719.5Q470 720 499.0 720.0Q528 720 560 720Q569 720 581.0 720.0Q593 720 605.0 719.5Q617 719 627.5 718.5Q638 718 644.5 718.0Q651 718 651 718Q676 718 691.5 720.0Q707 722 713.0 724.5Q719 727 721.5 727.0Q724 727 731.5 725.0Q739 723 742 723Q750 723 757.0 704.0Q764 685 764 669Q764 663 762.0 656.5Q760 650 760 645Q760 640 762.5 625.5Q765 611 765 587Q765 572 763.5 546.0Q762 520 760.0 493.5Q758 467 756.0 443.0Q754 419 752.5 403.0Q751 387 751 387Q751 382 752.0 375.0Q753 368 753 361Q753 349 752 340Q752 338 751.5 333.0Q751 328 751 325Q751 289 759.0 233.0Q767 177 775 153Q785 127 779 121Q776 117 777.5 110.5Q779 104 774 101Q766 93 651.0 89.5Q536 86 490 86ZM687 311Q687 330 689.0 364.5Q691 399 694.0 434.0Q697 469 699.5 501.5Q702 534 704.0 555.5Q706 577 706 577Q706 588 701.5 601.5Q697 615 694 631L690 653L650 654Q597 655 375 655Q230 655 224 654Q212 653 208 642Q202 621 202 458Q202 429 202.5 401.5Q203 374 203.5 355.5Q204 337 204.5 323.5Q205 310 205.0 302.5Q205 295 205 295Q205 281 199.5 252.0Q194 223 194 179Q194 167 195.0 162.5Q196 158 202.5 153.5Q209 149 221.0 148.5Q233 148 257 148Q292 148 292 151Q292 153 342 153Q359 153 375.5 153.0Q392 153 404.0 152.5Q416 152 427.0 151.5Q438 151 445.5 150.5Q453 150 458.5 149.5Q464 149 466.5 149.0Q469 149 469 149Q488 149 528.5 154.5Q569 160 593 160Q600 160 606.5 159.5Q613 159 620 159Q647 159 676.0 163.5Q705 168 705 172Q705 174 696.0 225.5Q687 277 687 311Z" transform="translate(0.00,958.33) scale(0.9583,-0.9583)" fill="#000000" />
  <path d="M 24.637998,12.488337 H 20.72216 q -1.48166,0 -2.54,-1.058333 -1.05833,-1.058333 -1.05833,-2.54 V 3.598338 q 0,-1.481667 1.05833,-2.54 Q 19.2405,4e-6 20.72216,4e-6 h 3.915838 V 0.846671 H 20.72216 q -1.13241,0 -1.94733,0.814917 -0.80433,0.804333 -0.80433,1.93675 v 5.291666 q 0,1.132417 0.80433,1.93675 0.81492,0.814917 1.94733,0.814917 h 3.915838 z" transform="translate(-428.69,0.00) scale(80.0747,80.0747)" fill="#000000" />
  <path d="M 75.014662,0.846671 V 4e-6 h 13.123333 v 0.846667 z m 0,11.641666 v -0.846666 h 13.123333 v 0.846666 z" transform="translate(-4462.58,0.00) scale(80.0747,80.0747)" fill="#000000" />
  <path d="M 75.014662,0.846671 V 4e-6 h 13.123333 v 0.846667 z m 0,11.641666 v -0.846666 h 13.123333 v 0.846666 z" transform="translate(-3411.74,0.00) scale(80.0747,80.0747)" fill="#000000" />
  <path d="M 75.014662,0.846671 V 4e-6 h 13.123333 v 0.846667 z m 0,11.641666 v -0.846666 h 13.123333 v 0.846666 z" transform="translate(-2360.89,0.00) scale(80.0747,80.0747)" fill="#000000" />
  <path d="M 75.014662,0.846671 V 4e-6 h 13.123333 v 0.846667 z m 0,11.641666 v -0.846666 h 13.123333 v 0.846666 z" transform="translate(-1310.04,0.00) scale(80.0747,80.0747)" fill="#000000" />
  <path d="M 75.014662,0.846671 V 4e-6 h 13.123333 v 0.846667 z m 0,11.641666 v -0.846666 h 13.123333 v 0.846666 z" transform="translate(-259.19,0.00) scale(80.0747,80.0747)" fill="#000000" />
  <path d="M 75.014662,0.846671 V 4e-6 h 13.123333 v 0.846667 z m 0,11.641666 v -0.846666 h 13.123333 v 0.846666 z" transform="translate(791.65,0.00) scale(80.0747,80.0747)" fill="#000000" />
  <path d="M 75.014662,0.846671 V 4e-6 h 13.123333 v 0.846667 z m 0,11.641666 v -0.846666 h 13.123333 v 0.846666 z" transform="translate(1842.50,0.00) scale(80.0747,80.0747)" fill="#000000" />
  <path d="M 75.014662,0.846671 V 4e-6 h 13.123333 v 0.846667 z m 0,11.641666 v -0.846666 h 13.123333 v 0.846666 z" transform="translate(2893.35,0.00) scale(80.0747,80.0747)" fill="#000000" />
  <path d="M 75.014662,0.846671 V 4e-6 h 13.123333 v 0.846667 z m 0,11.641666 v -0.846666 h 13.123333 v 0.846666 z" transform="translate(3944.19,0.00) scale(80.0747,80.0747)" fill="#000000" />
  <path d="M 75.014662,0.846671 V 4e-6 h 13.123333 v 0.846667 z m 0,11.641666 v -0.846666 h 13.123333 v 0.846666 z" transform="translate(4995.04,0.00) scale(80.0747,80.0747)" fill="#000000" />
  <path d="M 75.014662,0.846671 V 4e-6 h 13.123333 v 0.846667 z m 0,11.641666 v -0.846666 h 13.123333 v 0.846666 z" transform="translate(6045.89,0.00) scale(80.0747,80.0747)" fill="#000000" />
  <path d="m 87.714667,4e-6 h 2.8575 q 1.481666,0 2.54,1.058334 1.058333,1.058333 1.058333,2.54 v 5.291666 q 0,1.481667 -1.058333,2.54 -1.058334,1.058333 -2.54,1.058333 h -2.8575 v -0.846666 h 2.8575 q 1.132416,0 1.93675,-0.814917 0.814916,-0.804333 0.814916,-1.93675 V 3.598338 q 0,-1.132417 -0.814916,-1.93675 -0.804334,-0.814917 -1.93675,-0.814917 h -2.8575 z" transform="translate(6079.79,0.00) scale(80.0747,80.0747)" fill="#000000" />
  <path d="M 178.29,277.39 C 178.29,276.09 177.65,255.13 177.65,254.90 C 177.65,234.20 182.19,225.03 189.87,217.79 L 224.13,254.21 C 225.61,252.44 226.72,250.31 228.05,248.40 C 227.90,249.14 227.78,251.99 227.78,255.85 C 227.78,258.59 228.38,276.70 228.38,276.91 C 228.38,286.09 227.13,288.79 227.13,302.45 C 227.13,326.43 231.74,354.12 240.88,379.68 C 246.27,394.78 273.28,466.05 332.27,469.04 C 338.14,469.33 351.83,474.59 371.42,474.59 C 396.46,474.59 445.27,467.99 461.84,354.49 C 461.26,346.85 460.98,339.20 460.98,331.62 C 460.98,307.86 463.74,284.71 468.70,264.11 C 471.38,253.03 481.33,245.00 493.00,245.00 C 506.81,245.00 518.00,256.19 518.00,270.00 C 518.00,270.86 517.54,316.01 512.18,355.80 C 514.66,382.35 526.76,456.09 584.57,456.09 C 590.84,456.09 597.81,455.30 605.61,453.59 C 606.28,453.44 606.95,453.32 607.63,453.23 C 703.50,440.29 739.18,318.31 748.29,258.23 C 750.13,246.09 760.58,237.00 773.00,237.00 C 785.39,237.00 795.81,246.03 797.70,258.13 C 809.13,331.57 802.56,409.36 807.88,481.56 C 810.07,499.84 811.15,517.12 811.15,533.43 C 811.15,742.33 635.97,762.20 510.75,762.20 C 428.76,762.20 340.51,752.43 267.51,752.43 C 258.04,752.43 248.87,752.60 240.06,752.97 L 237.92,703.03 C 247.75,702.61 257.81,702.42 268.09,702.42 C 342.07,702.42 428.91,712.11 511.12,712.11 C 671.94,712.11 761.25,672.71 761.25,534.39 C 761.25,519.95 760.27,504.20 758.19,487.03 C 756.72,474.93 755.66,438.72 755.32,396.17 C 738.81,426.01 696.51,491.18 615.38,502.63 C 605.21,504.79 595.40,505.83 586.01,505.83 C 565.78,505.83 518.64,501.25 487.51,447.06 C 476.62,469.94 445.60,524.58 371.44,524.58 C 357.52,524.58 342.74,522.66 327.12,518.80 C 229.63,511.80 177.10,394.51 177.10,303.13 C 177.10,288.31 178.29,283.12 178.29,277.39  Z M 482.30,108.14 C 483.59,111.08 486.57,118.29 486.57,127.60 C 486.57,129.56 486.43,131.56 486.14,133.60 C 486.19,134.69 486.21,135.80 486.21,136.92 C 486.21,172.64 462.69,186.48 449.67,192.62 C 446.30,194.20 442.65,195.00 439.00,195.00 C 431.66,195.00 430.03,192.63 424.28,191.27 C 415.92,189.30 389.88,183.14 389.88,153.76 C 389.88,119.99 410.49,102.84 431.07,86.65 C 438.71,80.63 443.00,77.05 445.85,73.91 C 445.85,73.91 446.30,72.79 446.34,72.81 C 447.07,73.10 467.42,81.42 479.61,102.81 L 483.80,106.49 C 483.30,107.05 482.80,107.60 482.30,108.14 Z" transform="translate(1669.62,100.00) scale(0.8000,0.8000)" fill="#000000" />
  <path d="M 401.00,131.00 C 376.66,131.00 351.33,107.86 351.33,84.01 C 351.33,81.77 351.54,79.45 352.00,77.06 C 353.02,48.40 378.36,33.25 392.71,24.67 C 393.22,24.36 398.21,21.37 399.37,20.49 L 422.46,49.25 C 427.47,52.78 438.12,62.38 438.12,80.17 C 438.12,81.22 438.08,82.28 437.99,83.32 C 437.99,83.51 437.99,83.70 437.99,83.90 C 438.00,84.93 438.01,86.06 438.01,87.29 C 438.01,130.35 403.09,131.00 401.00,131.00  Z M 201.42,181.56 L 232.54,142.41 L 388.58,266.44 L 357.46,305.59 C 357.46,305.59 201.46,181.59 201.42,181.56  Z M 408.05,512.35 L 449.97,539.62 L 341.95,705.65 L 300.03,678.38 C 300.03,678.38 408.03,512.38 408.05,512.35  Z M 603.52,100.45 C 617.37,100.45 630.21,111.06 630.21,126.54 C 630.21,131.42 628.96,135.38 628.29,137.09 L 611.57,130.58 C 610.87,134.39 609.27,138.07 606.79,141.28 L 605.30,128.14 L 581.72,118.96 L 587.27,143.62 L 606.10,150.24 C 601.54,151.34 598.35,153.47 590.37,154.38 C 589.39,154.49 588.26,154.63 586.82,154.63 C 584.68,154.63 578.80,154.30 573.26,151.03 C 462.15,156.17 403.43,286.67 403.43,386.40 C 403.43,391.40 403.58,396.35 403.87,401.24 C 421.69,511.78 515.35,602.55 619.46,625.39 L 632.56,627.26 C 632.56,627.26 625.49,676.75 625.44,676.74 C 610.56,674.62 610.56,674.62 609.70,674.43 C 484.63,647.45 374.92,539.74 354.31,407.89 C 354.27,407.67 353.42,400.12 353.42,385.59 C 353.42,249.92 438.68,100.88 580.40,100.88 C 585.35,100.88 589.69,100.88 593.24,101.79 C 593.35,101.76 598.57,100.45 603.52,100.45 Z" transform="translate(2720.47,100.00) scale(0.8000,0.8000)" fill="#000000" />
  <path d="M 542.36,290.51 C 542.36,284.90 542.00,278.13 542.00,278.00 L 542.00,244.00 L 592.00,244.00 L 592.00,277.29 C 592.25,281.90 592.37,286.47 592.37,290.99 C 592.37,354.67 568.63,412.23 568.63,469.85 C 568.63,476.97 569.00,484.03 569.83,491.11 L 520.18,496.93 C 519.07,487.51 518.59,478.27 518.59,469.18 C 518.59,405.71 542.36,347.86 542.36,290.51  Z M 498.82,755.14 C 348.18,755.14 270.31,626.39 270.31,412.34 C 270.31,393.13 270.96,374.60 272.00,357.24 L 272.00,236.00 L 322.00,236.00 L 322.00,358.00 C 322.00,358.54 320.34,383.33 320.34,411.53 C 320.34,488.95 331.58,603.86 391.78,664.06 C 416.98,689.25 450.26,705.15 498.36,705.15 C 502.22,705.15 506.91,705.00 507.00,705.00 C 507.27,705.00 507.27,705.00 785.54,711.01 L 784.46,760.99 L 507.14,755.00 C 504.34,755.09 501.57,755.14 498.82,755.14  Z M 655.00,77.00 C 654.88,77.00 648.61,76.70 643.21,76.70 C 591.97,76.70 538.19,94.17 479.95,96.82 C 382.84,131.30 221.53,93.83 183.64,177.93 C 183.60,178.81 183.59,179.66 183.59,180.47 C 183.59,198.95 193.60,213.95 262.76,213.95 C 267.23,213.95 320.77,212.78 321.36,212.78 C 325.41,212.78 329.38,212.84 333.26,212.99 C 342.71,212.80 352.18,212.71 361.66,212.71 C 469.06,212.71 579.12,224.21 685.91,224.21 C 715.39,224.21 744.48,223.33 773.05,221.08 L 776.97,270.92 C 746.68,273.30 716.15,274.23 685.53,274.23 C 577.86,274.23 467.35,262.70 361.44,262.70 C 345.43,262.70 333.28,263.00 333.00,263.00 C 332.89,263.00 327.80,262.78 321.76,262.78 C 304.08,262.78 282.48,264.02 261.87,264.02 C 208.51,264.02 175.77,255.38 154.73,234.34 C 140.88,220.49 133.66,201.24 133.66,179.30 C 133.66,175.34 133.66,168.01 135.80,162.68 C 186.42,36.34 377.00,82.58 466.08,48.64 C 468.68,47.65 471.41,47.11 474.16,47.02 C 529.46,45.18 584.61,26.69 642.71,26.69 C 646.99,26.69 651.29,26.79 655.63,27.00 L 725.00,27.00 L 725.00,77.00 L 655.00,77.00 Z" transform="translate(3771.31,100.00) scale(0.8000,0.8000)" fill="#000000" />
  <path d="M 463.00,119.00 C 450.73,119.00 395.37,101.32 395.37,62.11 C 395.37,52.70 398.92,44.22 403.57,38.02 L 401.79,32.06 L 413.64,28.51 C 420.12,24.04 428.56,21.00 435.00,21.00 C 435.85,21.00 436.71,21.05 437.56,21.14 C 438.47,20.87 439.92,20.51 442.59,20.51 C 451.27,20.51 456.09,23.30 458.35,24.77 C 468.23,25.64 476.86,28.46 484.18,35.78 C 491.41,43.00 494.18,52.76 494.18,61.57 C 494.18,62.64 494.14,63.69 494.06,64.73 C 494.16,66.89 494.27,69.36 494.27,72.08 C 494.27,96.97 482.63,119.00 463.00,119.00  Z M 519.20,142.62 C 563.42,142.62 590.00,165.34 590.00,186.00 L 590.00,194.00 L 541.73,194.00 C 542.00,195.38 542.27,196.76 542.95,197.74 C 540.81,196.28 532.41,192.66 518.53,192.66 C 517.38,192.66 516.28,192.69 515.24,192.74 C 463.42,206.95 389.46,253.45 389.46,318.95 C 389.46,354.12 424.15,384.23 455.23,411.20 C 494.33,445.13 540.22,484.96 540.22,550.82 C 540.22,566.94 536.74,607.11 505.05,638.79 C 474.37,669.47 423.97,688.31 335.16,688.31 C 319.56,688.31 306.63,688.20 257.34,684.94 C 257.34,684.94 260.63,635.06 260.66,635.06 C 291.88,637.12 312.69,638.24 335.52,638.24 C 401.15,638.24 490.24,628.10 490.24,550.46 C 490.24,509.06 462.15,483.41 422.49,449.00 C 387.42,418.56 349.44,385.60 340.39,334.38 C 340.36,334.23 339.47,328.38 339.47,318.99 C 339.47,229.47 426.73,164.12 504.67,143.81 C 506.02,143.46 510.20,142.62 519.20,142.62 Z" transform="translate(4822.16,100.00) scale(0.8000,0.8000)" fill="#000000" />
  <path d="M 308.00,222.00 C 308.00,221.06 308.12,218.78 308.12,214.56 C 308.12,200.07 306.14,140.92 274.62,117.52 C 266.43,118.82 266.43,118.82 266.20,118.85 C 153.66,215.68 148.89,406.55 145.20,568.63 C 144.43,602.28 144.04,616.80 143.87,618.46 L 133.87,720.46 C 133.87,720.46 84.12,715.58 84.13,715.54 C 94.04,614.39 94.04,614.39 94.04,614.39 C 94.50,599.22 94.85,583.54 95.22,567.48 C 99.14,395.34 103.94,184.51 241.39,74.47 C 245.94,70.83 251.47,69.00 257.00,69.00 C 258.06,69.00 259.11,69.07 260.16,69.20 C 260.98,69.09 262.45,68.87 264.25,68.56 C 267.72,67.97 272.40,66.92 278.67,66.92 C 283.28,66.92 287.89,67.29 292.94,70.03 C 312.90,80.88 335.48,102.36 348.42,144.82 C 355.46,167.93 358.12,192.07 358.12,214.11 C 358.12,216.57 358.09,219.01 358.02,221.41 C 360.99,261.58 357.56,317.44 366.11,359.54 C 374.56,401.14 391.43,411.43 398.92,415.23 C 399.56,415.25 400.19,415.25 400.83,415.25 C 426.04,415.25 445.34,405.33 462.23,388.44 C 492.03,358.64 511.36,305.56 520.52,260.94 C 520.68,260.18 520.87,259.41 521.10,258.66 C 533.66,217.59 545.29,171.44 547.67,125.40 C 547.38,121.16 547.22,117.02 547.22,112.97 C 547.22,93.20 550.15,87.49 555.32,82.32 C 560.20,77.44 566.60,75.00 573.00,75.00 C 586.56,75.00 597.63,85.80 597.99,99.34 C 598.07,102.49 598.11,105.63 598.11,108.77 C 598.11,113.86 598.00,118.93 597.80,123.97 C 602.60,188.08 640.97,304.59 640.97,399.17 C 640.97,399.64 640.65,432.25 637.27,446.01 C 635.43,453.48 634.74,465.32 634.74,479.64 C 634.74,511.26 637.75,542.42 637.75,574.18 C 637.75,631.72 627.52,662.86 607.58,682.80 C 593.13,697.25 573.78,704.09 551.52,704.09 C 543.18,704.09 534.43,703.13 525.38,701.25 C 512.57,702.35 500.08,702.80 487.86,702.80 C 431.18,702.80 380.41,693.17 324.92,692.99 C 321.93,692.99 320.57,692.46 317.30,692.46 C 309.94,692.46 302.64,696.14 290.65,696.94 L 287.33,647.06 C 292.28,646.73 302.94,642.55 318.02,642.55 C 320.73,642.55 323.58,642.69 326.55,643.01 C 384.15,643.35 434.74,652.79 488.18,652.79 C 508.57,652.79 526.61,651.00 527.00,651.00 C 533.16,651.00 540.80,654.39 552.60,654.39 C 570.06,654.39 587.67,646.56 587.67,574.41 C 587.67,558.57 586.91,541.61 586.10,524.85 C 585.32,508.84 584.37,493.08 584.37,478.05 C 584.37,437.57 590.75,441.09 590.75,401.76 C 590.75,360.18 582.16,310.02 572.38,261.76 C 571.34,265.29 570.29,268.78 569.24,272.22 C 559.08,321.16 539.03,382.35 497.58,423.80 C 473.13,448.24 440.32,465.23 400.37,465.23 C 388.84,465.23 386.19,464.23 383.49,463.13 C 311.99,433.80 310.64,341.42 309.59,269.49 C 309.01,230.08 308.00,222.48 308.00,222.00 Z" transform="translate(5873.01,100.00) scale(0.8000,0.8000)" fill="#000000" />
  <path d="M 485.00,189.00 C 469.68,189.00 438.00,176.21 438.00,126.00 C 438.00,117.97 440.75,112.11 452.24,100.63 C 456.31,96.55 469.86,83.00 483.00,83.00 L 493.00,83.00 L 493.00,85.32 C 505.32,87.38 524.11,100.20 524.11,122.52 C 524.11,123.23 524.09,123.95 524.04,124.66 C 524.08,125.75 524.10,126.85 524.10,127.96 C 524.10,165.31 504.14,189.00 485.00,189.00  Z M 606.10,279.81 C 606.10,279.81 655.90,284.16 655.90,284.19 C 637.90,490.19 637.90,490.19 637.90,490.19 C 637.90,490.19 588.10,485.84 588.10,485.81 C 606.10,279.81 606.10,279.81 606.10,279.81  Z M 429.49,786.96 C 319.70,786.96 228.59,722.79 228.59,616.05 C 228.59,604.31 229.71,592.09 232.04,579.47 C 233.26,492.01 243.62,404.21 258.00,319.86 L 258.00,314.00 L 308.00,314.00 L 308.00,322.00 C 308.00,330.48 283.64,447.79 281.99,582.31 C 281.93,587.51 278.43,598.69 278.43,617.13 C 278.43,699.49 355.82,736.84 430.49,736.84 C 461.27,736.84 478.65,731.00 485.00,731.00 L 679.20,731.00 C 730.13,731.41 774.29,739.46 821.76,739.46 C 827.75,739.46 833.74,739.33 839.77,739.04 L 842.23,788.96 C 835.21,789.31 828.30,789.46 821.48,789.46 C 771.89,789.46 726.49,781.38 678.90,781.00 L 487.62,781.00 C 468.37,784.96 448.81,786.96 429.49,786.96  Z M 733.76,308.43 C 557.65,308.43 334.30,328.57 169.67,332.99 L 168.33,283.01 C 245.61,280.94 324.81,276.25 404.79,271.50 C 513.82,265.02 624.29,258.44 733.52,258.44 C 751.48,258.44 769.40,258.62 787.27,259.00 L 857.80,259.00 C 857.80,259.00 940.61,251.12 940.65,251.12 L 945.39,300.88 C 860.20,309.00 860.20,309.00 859.00,309.00 L 787.00,309.00 C 786.47,309.00 764.15,308.43 733.76,308.43 Z" transform="translate(6923.85,100.00) scale(0.8000,0.8000)" fill="#000000" />
  <path d="M 394.00,124.00 C 394.00,81.45 444.29,65.03 462.44,59.10 C 462.44,59.10 462.90,53.08 462.93,53.08 C 494.27,55.49 494.27,55.49 498.95,58.04 C 514.72,66.62 544.03,82.57 544.03,118.54 C 544.03,118.87 544.02,119.19 544.02,119.52 C 544.10,120.95 544.14,122.38 544.14,123.81 C 544.14,157.82 521.51,193.00 485.48,193.00 C 467.69,193.00 430.32,180.54 399.02,139.03 C 395.68,134.60 394.00,129.30 394.00,124.00  Z M 486.35,142.95 C 488.73,142.04 494.13,133.57 494.13,123.32 C 494.13,121.96 494.00,121.60 494.00,120.00 C 494.00,118.93 494.08,118.15 494.08,117.18 C 494.08,115.59 494.08,113.18 481.33,105.54 C 468.40,109.74 456.48,113.88 448.31,119.91 C 453.65,125.47 469.09,140.05 486.35,142.95  Z M 446.02,428.68 C 446.02,427.98 445.86,367.32 445.86,366.70 C 445.86,326.74 446.47,286.29 450.11,245.75 C 450.11,245.75 499.90,250.22 499.89,250.25 C 496.44,288.67 495.85,328.01 495.85,367.85 C 495.85,368.62 496.01,428.05 496.01,428.66 C 496.01,441.70 496.01,442.63 494.33,446.99 C 483.61,474.89 479.21,498.48 479.21,518.20 C 479.21,626.87 616.98,643.92 686.53,643.92 C 703.77,643.92 715.09,643.00 717.00,643.00 L 827.46,645.01 C 827.46,645.01 826.55,694.99 826.54,694.99 C 717.52,693.01 717.52,693.01 717.52,693.01 C 707.08,693.62 696.55,693.94 685.98,693.94 C 541.10,693.94 429.22,635.50 429.22,518.13 C 429.22,492.19 434.72,463.99 446.01,433.40 C 446.02,431.83 446.02,430.26 446.02,428.68  Z M 162.45,275.00 C 332.96,267.45 512.54,213.00 685.47,213.00 C 685.98,213.00 686.49,213.00 687.00,213.00 C 687.04,213.00 802.32,213.00 834.66,213.00 L 844.02,205.98 C 844.02,205.98 874.02,245.99 873.98,246.02 C 857.98,258.02 857.98,258.02 857.98,258.02 C 853.56,261.34 848.28,263.00 843.00,263.00 L 685.59,263.00 C 518.31,263.00 339.14,317.32 164.10,324.97 C 163.73,324.99 163.37,325.00 163.00,325.00 L 151.00,325.00 L 151.00,275.00 L 162.45,275.00 Z" transform="translate(7974.70,100.00) scale(0.8000,0.8000)" fill="#000000" />
  <path d="M 401.00,131.00 C 376.66,131.00 351.33,107.86 351.33,84.01 C 351.33,81.77 351.54,79.45 352.00,77.06 C 353.02,48.40 378.36,33.25 392.71,24.67 C 393.22,24.36 398.21,21.37 399.37,20.49 L 422.46,49.25 C 427.47,52.78 438.12,62.38 438.12,80.17 C 438.12,81.22 438.08,82.28 437.99,83.32 C 437.99,83.51 437.99,83.70 437.99,83.90 C 438.00,84.93 438.01,86.06 438.01,87.29 C 438.01,130.35 403.09,131.00 401.00,131.00  Z M 201.42,181.56 L 232.54,142.41 L 388.58,266.44 L 357.46,305.59 C 357.46,305.59 201.46,181.59 201.42,181.56  Z M 408.05,512.35 L 449.97,539.62 L 341.95,705.65 L 300.03,678.38 C 300.03,678.38 408.03,512.38 408.05,512.35  Z M 603.52,100.45 C 617.37,100.45 630.21,111.06 630.21,126.54 C 630.21,131.42 628.96,135.38 628.29,137.09 L 611.57,130.58 C 610.87,134.39 609.27,138.07 606.79,141.28 L 605.30,128.14 L 581.72,118.96 L 587.27,143.62 L 606.10,150.24 C 601.54,151.34 598.35,153.47 590.37,154.38 C 589.39,154.49 588.26,154.63 586.82,154.63 C 584.68,154.63 578.80,154.30 573.26,151.03 C 462.15,156.17 403.43,286.67 403.43,386.40 C 403.43,391.40 403.58,396.35 403.87,401.24 C 421.69,511.78 515.35,602.55 619.46,625.39 L 632.56,627.26 C 632.56,627.26 625.49,676.75 625.44,676.74 C 610.56,674.62 610.56,674.62 609.70,674.43 C 484.63,647.45 374.92,539.74 354.31,407.89 C 354.27,407.67 353.42,400.12 353.42,385.59 C 353.42,249.92 438.68,100.88 580.40,100.88 C 585.35,100.88 589.69,100.88 593.24,101.79 C 593.35,101.76 598.57,100.45 603.52,100.45 Z" transform="translate(9025.55,100.00) scale(0.8000,0.8000)" fill="#000000" />
  <path d="M 577.64,565.25 C 577.64,456.40 383.33,439.54 383.33,286.00 C 383.33,215.36 440.44,158.77 504.81,136.38 L 521.24,183.61 C 500.67,190.76 479.72,203.37 463.83,219.27 C 444.85,238.24 433.32,260.88 433.32,285.95 C 433.32,342.59 469.36,371.28 522.33,411.26 C 572.69,449.26 627.55,490.67 627.55,565.94 C 627.55,572.64 627.10,579.52 626.16,586.58 C 626.55,591.04 626.73,595.49 626.73,599.92 C 626.73,670.56 579.14,737.39 510.17,757.95 C 506.95,758.91 506.95,758.91 415.57,760.99 L 414.43,711.01 L 498.87,709.09 C 546.17,693.40 576.72,646.05 576.72,599.58 C 576.72,594.79 576.00,586.14 576.00,586.00 C 576.00,581.85 577.64,576.17 577.64,565.25  Z M 197.72,446.47 C 197.72,492.62 208.00,522.50 208.00,530.00 C 208.00,532.16 186.84,735.12 185.86,744.60 C 185.86,744.60 136.14,739.44 136.14,739.40 C 157.70,531.63 157.70,531.63 157.70,531.63 C 151.03,502.59 147.85,474.33 147.85,447.12 C 147.85,258.30 300.17,123.35 494.47,123.35 C 520.32,123.35 546.83,125.74 573.72,130.70 C 575.87,130.50 577.95,130.42 579.99,130.42 C 597.86,130.42 618.35,135.00 635.00,135.00 C 637.38,135.00 637.38,135.00 723.71,151.45 C 723.71,151.45 714.35,200.56 714.29,200.55 C 633.32,185.13 633.32,185.13 633.32,185.13 C 632.48,185.15 631.65,185.17 630.82,185.17 C 617.86,185.17 593.41,180.49 579.47,180.49 C 576.64,180.49 576.40,181.00 573.00,181.00 C 566.76,181.00 538.47,173.33 494.42,173.33 C 329.07,173.33 197.72,285.24 197.72,446.47 Z" transform="translate(10076.40,100.00) scale(0.8000,0.8000)" fill="#000000" />
  <path d="M 511.28,25.10 C 512.85,25.10 517.81,25.00 517.87,25.00 C 549.57,25.00 583.54,46.86 599.87,65.60 C 603.95,70.29 606.00,76.14 606.00,82.00 C 606.00,91.26 604.15,82.61 600.25,117.26 C 597.39,142.60 594.27,170.26 575.80,188.73 C 573.99,190.54 558.85,205.00 537.00,205.00 C 535.74,205.00 445.42,198.95 425.64,146.91 C 424.15,143.00 423.42,136.54 423.42,127.50 C 423.42,99.78 432.93,71.54 452.07,51.20 L 446.64,39.24 C 471.02,28.16 471.02,28.16 473.59,27.59 C 483.71,25.36 492.19,24.93 499.15,24.93 C 503.52,24.93 506.85,25.10 511.28,25.10  Z M 501.75,77.00 C 483.80,81.87 473.47,107.70 473.47,128.46 C 473.47,131.51 473.47,131.51 475.48,133.52 C 482.57,140.61 502.29,150.19 537.44,154.86 C 545.54,153.62 548.40,130.91 550.57,111.62 C 551.35,104.72 552.05,97.61 553.30,90.40 C 551.98,89.39 532.81,74.99 517.71,74.99 C 517.36,74.99 515.04,75.09 511.26,75.09 C 510.48,75.09 509.73,75.08 509.00,75.07 L 509.00,77.00 L 501.75,77.00  Z M 179.96,701.01 C 179.96,701.11 180.20,710.60 180.20,710.86 C 180.20,724.06 176.92,738.87 163.58,750.71 L 130.43,713.36 C 130.46,712.83 130.18,712.01 130.18,710.91 C 130.18,706.74 129.88,704.02 129.88,700.00 C 129.88,695.51 130.27,689.98 132.00,683.90 L 132.00,595.14 C 131.39,588.20 131.09,581.29 131.09,574.43 C 131.09,431.92 261.15,306.50 405.85,306.50 C 414.04,306.50 424.71,306.50 430.50,308.87 C 464.78,322.92 494.83,350.67 510.23,401.49 C 519.17,359.67 535.37,316.53 570.38,285.33 C 575.10,281.11 581.05,279.00 587.00,279.00 C 588.16,279.00 643.17,285.03 690.42,332.27 C 770.07,411.92 779.99,554.14 787.57,664.05 C 788.96,684.25 790.26,703.03 791.88,719.59 L 742.12,724.45 C 740.41,706.88 739.09,687.72 737.70,667.52 C 728.50,534.22 715.33,367.60 594.66,331.72 C 527.03,408.83 562.03,586.34 524.78,701.71 C 521.52,711.83 512.03,719.00 501.00,719.00 C 490.34,719.00 481.15,712.31 477.59,702.78 C 472.27,688.54 470.88,674.06 470.88,660.20 C 470.88,644.17 472.93,625.30 472.93,607.65 C 472.93,591.42 471.92,602.52 471.92,579.41 C 471.92,558.61 472.71,536.95 472.71,513.33 C 472.71,440.00 464.42,379.40 415.12,356.70 C 412.11,356.56 409.10,356.50 406.09,356.50 C 289.03,356.50 181.09,459.31 181.09,574.64 C 181.09,583.02 182.00,593.81 182.00,594.00 L 182.00,688.00 C 182.00,691.21 181.38,694.41 180.16,697.43 C 180.16,697.43 179.96,698.02 179.96,701.01 Z" transform="translate(11127.24,100.00) scale(0.8000,0.8000)" fill="#000000" />
  <path d="M 184.38,603.07 C 184.38,619.66 179.99,631.36 179.99,643.91 L 130.01,644.09 C 130.00,643.96 130.00,643.83 130.00,643.71 C 130.00,626.09 134.39,613.74 134.39,602.97 C 134.39,599.52 134.00,598.63 134.00,596.00 C 134.00,572.39 141.02,494.57 141.02,442.55 C 141.02,413.96 139.64,414.42 139.64,377.95 C 139.64,286.32 150.35,77.39 291.04,30.30 C 293.62,29.44 296.31,29.00 299.00,29.00 C 311.77,29.00 332.18,43.47 342.91,54.20 C 382.83,94.12 386.03,157.56 386.03,208.75 C 386.03,220.90 386.03,221.95 385.64,224.21 C 384.66,229.95 384.20,235.81 384.20,241.67 C 384.20,281.58 406.11,325.38 443.03,332.30 C 479.72,311.28 489.71,225.28 492.11,195.29 C 490.31,167.55 488.39,132.39 488.39,108.14 C 488.39,87.09 489.71,79.35 497.01,72.05 C 500.14,68.92 506.81,64.66 515.07,64.66 C 540.07,64.66 541.82,91.26 543.05,109.98 C 543.69,119.81 544.13,131.97 544.13,145.70 C 544.13,152.27 544.07,171.76 542.25,195.89 C 542.27,196.15 544.00,221.22 544.00,222.00 C 544.00,224.14 543.34,230.15 543.34,239.79 C 543.34,275.62 553.16,320.92 602.86,320.92 C 653.85,320.92 724.98,271.74 737.04,203.54 C 737.05,201.81 737.06,199.97 737.06,198.04 C 737.06,185.63 736.66,174.01 735.62,156.45 C 732.53,143.32 730.11,141.35 730.01,134.36 C 729.94,129.75 729.91,125.76 729.91,122.31 C 729.91,101.66 730.91,96.13 738.02,89.02 C 741.14,85.90 747.81,81.67 756.02,81.67 C 759.85,81.67 777.38,82.91 781.26,105.15 C 782.36,111.46 783.87,126.13 785.32,149.67 C 787.64,161.00 788.73,172.15 788.73,183.05 C 788.73,190.45 788.23,197.73 787.27,204.87 C 787.28,206.17 787.29,207.43 787.29,208.66 C 787.29,215.10 787.09,220.65 786.04,226.36 C 786.78,262.00 789.77,310.15 789.77,353.76 C 789.77,445.84 780.66,614.38 612.04,614.38 C 598.56,614.38 584.27,613.27 569.18,611.01 L 321.20,612.99 L 320.80,563.01 L 571.00,561.00 C 571.42,561.00 595.53,564.55 613.31,564.55 C 709.24,564.55 739.69,492.00 739.69,353.34 C 739.69,337.31 739.32,321.18 738.80,305.28 C 726.08,319.20 674.06,370.93 603.47,370.93 C 563.61,370.93 532.13,353.09 513.47,322.82 C 490.16,371.46 456.59,383.00 447.00,383.00 C 444.66,383.00 408.52,382.47 376.67,350.62 C 349.08,323.03 334.11,282.95 334.11,242.61 C 334.11,225.02 336.02,225.35 336.02,212.10 C 336.02,161.49 333.44,104.28 297.37,81.39 C 205.31,121.59 189.64,277.46 189.64,378.93 C 189.64,383.95 191.03,442.24 191.03,442.88 C 191.03,474.28 189.09,504.89 187.22,534.95 C 185.96,555.23 184.71,575.27 184.04,595.17 C 184.28,597.90 184.38,600.54 184.38,603.07 Z" transform="translate(12178.09,100.00) scale(0.8000,0.8000)" fill="#000000" />
</svg>
