<?xml version="1.0" encoding="UTF-8" standalone="no"?>
<!--
Representation of "ko kute" in sitelen ilo pona
Generated by generate_sitelen_kalama_pona.py

Description:
  Representation of "ko kute" in sitelen ilo pona.
  Sources: ko: https://commons.wikimedia.org/wiki/File:Sitelen_seli_kiwen_-_ko.svg; kute: https://commons.wikimedia.org/wiki/File:Sitelen_seli_kiwen_-_kute.svg

Categories:
  [[Category:Sitelen kalama pona]]
  [[Category:Toki Pona text containing ko kute]]

Sources:
  ko: https://commons.wikimedia.org/wiki/File:Sitelen_seli_kiwen_-_ko.svg
  kute: https://commons.wikimedia.org/wiki/File:Sitelen_seli_kiwen_-_kute.svg
-->
<svg version="1.1" width="1805" height="1000"
     viewBox="0 0 1805 1000"
     xmlns="http://www.w3.org/2000/svg">
  <path d="M658 58Q651 58 644.5 49.5Q638 41 617.5 32.5Q597 24 556 24Q539 24 526 25Q508 27 477.5 44.0Q447 61 430 80Q416 95 407 95Q402 95 394.5 88.0Q387 81 381 81Q377 81 364.0 71.0Q351 61 323 58Q302 56 285.5 50.0Q269 44 262 44Q251 44 219.0 51.5Q187 59 177 64Q157 75 137.0 101.5Q117 128 103.0 153.0Q89 178 86 181Q73 193 73 225Q73 260 87.5 287.0Q102 314 102 317Q102 322 97.5 331.0Q93 340 86.5 350.0Q80 360 73.0 369.5Q66 379 62 385L57 391H58Q59 391 59 392L52 410Q45 428 45 442Q45 452 48.0 459.5Q51 467 57.5 480.5Q64 494 69 510Q76 529 86 543L97 557Q101 564 119.0 575.0Q137 586 143 592Q155 602 164 602Q171 602 201.0 611.0Q231 620 255 620Q289 620 302 607Q323 587 325 605Q327 625 334.5 641.5Q342 658 348.5 665.0Q355 672 356 672Q362 672 362 677Q362 681 369.0 681.0Q376 681 376 687Q376 692 414.5 702.0Q453 712 454 716Q456 721 500 721Q535 721 535 724Q538 724 551.0 716.5Q564 709 574 709Q588 709 615 681Q639 656 645.0 643.5Q651 631 659 596Q665 571 665 558Q665 549 662.5 538.0Q660 527 660 524Q660 518 666.0 515.5Q672 513 694 510Q711 507 732 507Q744 507 758.0 493.5Q772 480 776.0 480.0Q780 480 803.0 460.5Q826 441 826 437Q826 432 840 415Q850 403 852.5 390.5Q855 378 855 334Q855 301 849 294Q845 289 839.5 279.5Q834 270 830.0 264.0Q826 258 822 256Q819 255 807.5 245.5Q796 236 788.0 236.0Q780 236 762.5 229.0Q745 222 739 221Q731 220 729.5 204.0Q728 188 725.5 162.0Q723 136 714 117Q706 100 686.0 79.0Q666 58 658 58ZM659 175Q659 199 631.5 214.5Q604 230 604 253Q604 269 617.0 279.0Q630 289 639.5 291.5Q649 294 653 294Q656 294 673.5 288.5Q691 283 707 283Q720 283 725.0 287.5Q730 292 736 292Q749 292 770.0 306.0Q791 320 791 346Q791 365 778.5 387.0Q766 409 756 413Q744 419 737 424Q718 437 668 439Q665 439 637.5 427.0Q610 415 597 415Q579 415 567.0 435.5Q555 456 564 465Q572 474 582.0 496.0Q592 518 592 527Q592 538 595.5 542.0Q599 546 599 558Q599 576 594.0 590.0Q589 604 589 613Q589 617 578.0 629.0Q567 641 540.5 653.5Q514 666 481 666Q434 666 418 647Q413 641 399.5 635.5Q386 630 376.5 618.0Q367 606 362 580Q360 566 360 564Q360 558 367.0 547.0Q374 536 374 507Q374 486 370 474Q366 461 362.5 458.5Q359 456 344 456Q326 456 315.5 465.0Q305 474 304.0 479.5Q303 485 303 489Q308 507 308 512Q308 524 283.0 540.5Q258 557 251 557Q241 554 203 545Q161 535 145.5 523.5Q130 512 119 484Q109 456 109 443Q109 424 118.0 408.0Q127 392 138 388Q146 386 146.0 381.0Q146 376 156 366Q165 357 193 357H214Q239 357 244.0 352.5Q249 348 249 326Q249 310 247.0 304.0Q245 298 233.0 292.5Q221 287 194 285Q177 283 168.0 281.5Q159 280 146.5 269.0Q134 258 134 238Q134 203 174.0 157.5Q214 112 261 112Q270 112 297 120Q328 129 353.5 151.5Q379 174 394.0 191.0Q409 208 420 208Q429 208 437.5 199.5Q446 191 446 181Q446 155 470.5 135.5Q495 116 515.5 109.0Q536 102 541 102Q542 102 544.5 103.5Q547 105 553.5 106.0Q560 107 571 106H580Q615 106 637.0 129.0Q659 152 659 175Z" transform="translate(0.00,958.33) scale(0.9583,-0.9583)" fill="#000000" />
  <path d="M349 312Q332 312 332 325Q332 340 355.5 384.0Q379 428 379 435Q379 443 381 444Q384 446 382.5 456.5Q381 467 377 473Q373 478 379.5 488.0Q386 498 397 498Q398 498 402.5 497.0Q407 496 415.0 493.0Q423 490 430.0 485.0Q437 480 442.5 469.5Q448 459 448 446Q448 433 441.5 416.5Q435 400 430 400Q425 400 420 386Q415 375 399.0 357.0Q383 339 378 339Q374 339 366.5 325.5Q359 312 349 312ZM539 653Q537 653 531.5 658.5Q526 664 507.5 670.0Q489 676 458 676Q430 676 407.5 669.0Q385 662 381 662Q359 662 312.0 631.5Q265 601 265 587Q265 577 256.5 573.0Q248 569 238 573Q230 577 228.5 581.0Q227 585 229 597Q231 613 239.5 625.5Q248 638 248 650Q248 655 261.0 663.5Q274 672 295.0 683.0Q316 694 327 701Q343 712 378.5 723.5Q414 735 456 735Q483 735 503.0 729.0Q523 723 535 723Q544 723 570.5 704.5Q597 686 619 665Q651 632 662.0 598.5Q673 565 673 515Q673 491 670.0 475.0Q667 459 663.0 453.5Q659 448 656.5 442.0Q654 436 654 430Q654 423 651.0 416.5Q648 410 647 399Q646 390 639.5 379.0Q633 368 627.0 360.0Q621 352 621 351Q621 350 604.5 321.0Q588 292 570.0 262.0Q552 232 550 229Q546 226 538.5 215.5Q531 205 524.5 197.0Q518 189 516 189Q510 189 467.5 145.0Q425 101 425 96Q425 92 406.0 78.0Q387 64 387 62Q387 59 369 39L351 20L330 28Q300 39 300 49Q300 58 313.5 76.5Q327 95 336 95Q340 95 340 102Q340 106 353.5 114.0Q367 122 370 131Q373 142 378.5 142.0Q384 142 398.0 158.5Q412 175 439.0 207.5Q466 240 491 265Q513 288 524.5 306.0Q536 324 539.0 332.0Q542 340 548 344Q552 347 572.5 389.0Q593 431 593 437Q593 441 595.0 444.0Q597 447 599.5 450.0Q602 453 605.0 466.5Q608 480 611 501Q613 531 613 533Q613 548 606.5 557.5Q600 567 600 584Q600 599 573.0 626.0Q546 653 539 653Z" transform="translate(942.50,958.33) scale(0.9583,-0.9583)" fill="#000000" />
</svg>
