<?xml version="1.0" encoding="UTF-8" standalone="no"?>
<!--
Representation of "poka tu wan" in sitelen kalama pona
Generated by generate_sitelen_kalama_pona.py

Description:
  Representation of "poka tu wan" in sitelen kalama pona.
  Sources: poka: https://commons.wikimedia.org/wiki/File:Sitelen_seli_kiwen_-_poka.svg; tu-wan: https://commons.wikimedia.org/wiki/File:Sitelen_seli_kiwen_-_tu-wan.svg

Categories:
  [[Category:Sitelen kalama pona]]
  [[Category:Toki Pona text containing poka tu wan]]

Sources:
  poka: https://commons.wikimedia.org/wiki/File:Sitelen_seli_kiwen_-_poka.svg
  tu-wan: https://commons.wikimedia.org/wiki/File:Sitelen_seli_kiwen_-_tu-wan.svg
-->
<svg version="1.1" width="1805" height="1000"
     viewBox="0 0 1805 1000"
     xmlns="http://www.w3.org/2000/svg">
  <path d="M768 352Q742 352 719.5 365.0Q697 378 697 399Q697 421 712.0 436.0Q727 451 739.5 455.5Q752 460 758 460Q777 460 801.0 443.5Q825 427 825 410Q825 397 824.0 390.0Q823 383 818.0 372.5Q813 362 800.5 357.0Q788 352 768 352ZM86 283Q86 284 88.0 303.0Q90 322 90 334Q90 344 88.5 365.5Q87 387 84.5 411.5Q82 436 80.0 459.0Q78 482 76 498L75 513Q75 523 88.0 534.0Q101 545 114 545Q125 545 138 538L152 531L149 483Q146 425 146 413Q146 367 149.0 355.5Q152 344 162 339Q171 335 197.5 330.5Q224 326 241 326H246Q250 327 258.0 328.0Q266 329 277.5 329.5Q289 330 305.0 331.0Q321 332 339.0 333.0Q357 334 380.0 334.5Q403 335 427 335Q498 335 509.5 340.5Q521 346 521 379V385Q521 387 521.5 402.5Q522 418 522 428Q524 493 525.0 505.0Q526 517 536 540Q540 550 559 550Q572 550 576.0 547.5Q580 545 585 533Q592 518 592 490Q592 481 586.5 446.0Q581 411 581 361Q581 338 584.5 323.5Q588 309 591.5 303.5Q595 298 595 295Q595 293 592.5 286.0Q590 279 579.5 270.5Q569 262 554 262Q547 262 509.0 270.0Q471 278 435 278Q412 278 396.0 273.5Q380 269 379 269Q376 269 369 272L362 275L348 274Q335 273 313.5 271.5Q292 270 267.0 268.0Q242 266 214.5 265.0Q187 264 166 264Q115 264 100.5 267.5Q86 271 86 283Z" transform="translate(0.00,958.33) scale(0.9583,-0.9583)" fill="#000000" />
  <path d="M558 528Q558 540 567.5 551.0Q577 562 585.5 567.5Q594 573 597 573Q600 573 601.5 574.0Q603 575 606.0 578.5Q609 582 612.0 586.5Q615 591 622.5 599.5Q630 608 639 618Q672 652 687.0 674.5Q702 697 705.0 705.5Q708 714 715 718Q725 723 732 723Q751 723 759 705Q765 691 765 586Q765 533 762.0 486.0Q759 439 759 412Q759 366 764.0 312.5Q769 259 774.0 227.5Q779 196 780 193Q784 184 778 184Q775 184 774.5 178.5Q774 173 774.0 165.0Q774 157 772 153Q771 152 771 147Q771 145 773.5 126.5Q776 108 776 90Q776 76 769.5 68.0Q763 60 758.5 59.0Q754 58 750 58Q740 58 725.5 69.5Q711 81 708 82Q705 83 703.5 133.0Q702 183 700.5 235.5Q699 288 695 294Q693 297 693 305Q693 310 696.0 326.5Q699 343 699 355Q699 360 698.0 368.0Q697 376 696.5 379.5Q696 383 697 387Q699 391 699 507Q699 556 698.5 564.5Q698 573 692 573Q682 573 666.0 553.5Q650 534 633.5 514.5Q617 495 605 495Q590 495 574.0 503.0Q558 511 558 528ZM118 672Q118 681 118.5 686.0Q119 691 122.0 697.5Q125 704 132.0 706.5Q139 709 152 709Q173 709 181.5 685.5Q190 662 192 616Q194 558 200.0 503.0Q206 448 206 427Q206 418 204.5 411.0Q203 404 202.5 403.0Q202 402 204 394Q208 386 208 353V333Q208 321 211.0 277.0Q214 233 214 226Q216 221 221.0 213.5Q226 206 226 195Q226 193 225.5 186.0Q225 179 222.5 166.5Q220 154 216.0 143.0Q212 132 204.0 123.5Q196 115 186 115Q174 115 162 127Q151 137 149.5 153.5Q148 170 148 242Q148 247 148.0 257.5Q148 268 148.0 280.0Q148 292 148.0 303.0Q148 314 148.0 321.5Q148 329 148 329Q148 345 145.0 381.5Q142 418 140 468Q139 553 128.5 598.5Q118 644 118 672ZM336 193Q336 199 334.0 207.5Q332 216 332 231Q332 275 339.0 318.0Q346 361 346 367Q346 422 336.0 526.0Q326 630 320 637Q316 640 316 661Q316 673 317.0 680.5Q318 688 321.0 699.0Q324 710 332.0 715.5Q340 721 352 721Q384 721 388 634Q388 633 392.0 582.0Q396 531 400.0 460.5Q404 390 404 340Q404 304 398 293Q392 279 394 276Q397 274 398.5 247.0Q400 220 401.5 194.0Q403 168 406 168V124Q406 107 403.0 94.0Q400 81 396.0 75.0Q392 69 386.5 65.5Q381 62 378.5 61.5Q376 61 374 61Q372 61 369.0 61.5Q366 62 358.5 66.0Q351 70 345.5 77.5Q340 85 336.0 100.5Q332 116 332 137Q332 150 334.0 168.5Q336 187 336 193Z" transform="translate(942.50,958.33) scale(0.9583,-0.9583)" fill="#000000" />
</svg>
