<?xml version="1.0" encoding="UTF-8" standalone="no"?>
<!--
Representation of "jan jo" in sitelen kalama pona
Generated by generate_sitelen_kalama_pona.py

Description:
  Representation of "jan jo" in sitelen kalama pona.
  Sources: jan: https://commons.wikimedia.org/wiki/File:Sitelen_seli_kiwen_-_jan.svg; jo: https://commons.wikimedia.org/wiki/File:Sitelen_seli_kiwen_-_jo.svg

Categories:
  [[Category:Toki Pona text containing jan jo]]

Sources:
  jan: https://commons.wikimedia.org/wiki/File:Sitelen_seli_kiwen_-_jan.svg
  jo: https://commons.wikimedia.org/wiki/File:Sitelen_seli_kiwen_-_jo.svg
-->
<svg version="1.1" width="1805" height="1000"
     viewBox="0 0 1805 1000"
     xmlns="http://www.w3.org/2000/svg">
  <path d="M342 672Q345 672 355.5 678.0Q366 684 393.0 690.5Q420 697 463 697Q487 697 550 690Q586 686 595.0 682.5Q604 679 619 663Q641 641 641 638Q641 634 648.0 634.0Q655 634 655 630Q655 626 676.0 610.0Q697 594 697 591Q697 589 703.0 576.5Q709 564 715.5 548.0Q722 532 723 521Q727 503 730 501Q734 498 734 448Q734 420 733.0 405.0Q732 390 730.0 388.0Q728 386 726.5 383.0Q725 380 725 374Q725 365 718.0 357.5Q711 350 711 346Q711 341 680.5 301.0Q650 261 650.0 257.0Q650 253 676.0 224.5Q702 196 702 194Q702 192 718.0 172.5Q734 153 734 146Q734 140 751.5 119.5Q769 99 769 85Q769 50 748 50Q726 50 715.0 59.0Q704 68 704 77Q704 82 686.5 103.0Q669 124 668 126Q663 140 624.0 182.5Q585 225 577 225Q577 225 574.5 222.5Q572 220 563.0 216.0Q554 212 538 210Q532 209 525.0 206.5Q518 204 504.5 202.5Q491 201 465 201Q413 201 370.5 206.0Q328 211 320 211Q307 211 291.5 190.0Q276 169 272 167Q266 166 266 156Q266 151 264.0 148.0Q262 145 256.5 139.5Q251 134 245 126Q240 118 229.5 105.5Q219 93 211.5 83.0Q204 73 202 66Q199 51 194 51Q187 51 163.0 56.5Q139 62 136 64Q133 67 131 85Q130 97 132.5 102.0Q135 107 145 115Q167 132 186.0 152.0Q205 172 209 184Q209 186 224.0 215.5Q239 245 242 247Q246 250 246.0 253.0Q246 256 234.5 264.0Q223 272 221.5 278.0Q220 284 202.0 305.5Q184 327 184 329Q184 331 177 340Q170 347 161.5 378.0Q153 409 153 427Q153 427 153.5 432.5Q154 438 154.0 445.5Q154 453 154 458Q154 475 173.5 510.5Q193 546 200 549Q213 554 226.5 578.0Q240 602 242 602Q244 602 288.0 637.0Q332 672 342 672ZM567 616Q544 628 527.0 631.0Q510 634 457 634Q428 634 416.0 627.5Q404 621 388 621Q353 621 308.5 590.0Q264 559 232.5 514.5Q201 470 201 435Q201 422 210.0 408.5Q219 395 219 390Q219 383 239.0 360.5Q259 338 268 334Q276 331 285.5 317.0Q295 303 301 302Q311 300 327.5 292.5Q344 285 351 278Q363 268 407.0 262.0Q451 256 483 256Q514 256 540.0 266.0Q566 276 579.5 286.5Q593 297 594 297Q600 297 611.0 306.0Q622 315 622 320Q622 322 624.5 324.0Q627 326 631.0 329.0Q635 332 643.0 344.0Q651 356 660 375Q672 399 675.0 409.0Q678 419 678 433Q678 455 675.0 471.0Q672 487 668.0 496.5Q664 506 653 528Q641 554 632.0 566.5Q623 579 619.0 579.5Q615 580 611.5 582.0Q608 584 604 591Q601 599 567 616Z" transform="translate(0.00,958.33) scale(0.9583,-0.9583)" fill="#000000" />
  <path d="M666 238Q666 239 665 240L664 242Q664 244 678.0 253.5Q692 263 692 274Q692 280 688.5 281.5Q685 283 663 285H660Q653 285 641.0 281.0Q629 277 624 277Q620 277 618 278Q608 282 496.5 287.5Q385 293 367 298Q355 302 352.0 305.5Q349 309 349 319Q349 331 353.5 335.5Q358 340 367.0 344.0Q376 348 382 354Q393 365 417 365Q424 365 425 362Q426 358 516.0 353.0Q606 348 666 348Q699 348 713.5 353.5Q728 359 744 359Q766 359 766 348Q766 344 772.5 330.0Q779 316 779 309Q779 308 764 268L750 228Q744 212 706.0 174.0Q668 136 649 127Q639 123 611 106Q596 96 541.0 85.0Q486 74 460 74Q396 74 357.0 85.0Q318 96 294.0 111.5Q270 127 255 130Q245 132 231.5 138.0Q218 144 218 146Q219 147 220 147L221 148Q221 150 215.0 156.0Q209 162 199.5 172.0Q190 182 184 192Q179 200 173.5 207.0Q168 214 164.5 217.5Q161 221 159.0 224.5Q157 228 157 232Q157 241 152 241Q150 241 143.5 249.0Q137 257 129.0 281.5Q121 306 121 339Q121 379 127.0 396.0Q133 413 133 415Q133 421 142.5 439.5Q152 458 152 463Q152 480 177.0 515.0Q202 550 214 550Q221 550 223 554Q226 562 247.0 574.0Q268 586 282 588Q299 591 311.0 598.5Q323 606 326 606Q360 606 401 648Q442 689 464.0 701.5Q486 714 539 725Q541 726 552 726Q586 726 612.0 718.0Q638 710 648.0 702.5Q658 695 658 691Q658 686 667.5 678.0Q677 670 677 661Q677 653 684.5 635.0Q692 617 692 602Q692 581 677.5 547.5Q663 514 663 510Q663 503 659 503Q656 503 641.0 491.5Q626 480 621 480Q615 480 608.0 474.0Q601 468 593.0 460.5Q585 453 560.5 447.0Q536 441 499 441Q478 441 464.5 443.5Q451 446 447.5 448.5Q444 451 440.5 453.5Q437 456 434 456Q432 456 418.0 470.5Q404 485 389.0 504.0Q374 523 371 533Q368 545 359 545Q357 545 342.5 542.5Q328 540 308.0 534.5Q288 529 279 522Q263 512 261 512Q252 512 218.5 466.5Q185 421 185 409Q185 406 181.5 399.0Q178 392 178 377Q178 376 180 346L181 316Q181 307 187.5 295.5Q194 284 194 280Q194 275 222.0 242.5Q250 210 254 210Q259 210 263.5 207.0Q268 204 278.0 198.0Q288 192 303 187Q317 182 324.5 176.5Q332 171 335.0 168.5Q338 166 342 166Q349 166 349 161Q349 153 391.0 146.5Q433 140 461 140Q487 140 521.5 147.5Q556 155 565 159Q631 193 639 204Q642 208 649.5 216.0Q657 224 661.5 229.5Q666 235 666 238ZM621 584Q621 593 623.5 598.0Q626 603 626 604Q626 614 612.5 637.5Q599 661 595 661Q585 661 577.0 663.5Q569 666 564.5 668.5Q560 671 559.0 671.0Q558 671 546.0 668.0Q534 665 518.5 660.0Q503 655 498 650Q492 644 483.5 638.5Q475 633 470.5 630.0Q466 627 466.0 624.0Q466 621 454.5 604.0Q443 587 443 582Q443 578 439.0 573.0Q435 568 434.0 566.0Q433 564 437 561Q443 559 443 552Q443 540 467.0 523.5Q491 507 513 507Q549 507 585.0 532.5Q621 558 621 584Z" transform="translate(942.50,958.33) scale(0.9583,-0.9583)" fill="#000000" />
</svg>
