<?xml version="1.0" encoding="UTF-8" standalone="no"?>
<!--
Representation of "nimi #2 li ante e nimi #1" in sitelen kalama pona
Generated by generate_sitelen_kalama_pona.py

Description:
  Representation of "nimi #2 li ante e nimi #1" in sitelen kalama pona.
  Sources: nimi: https://commons.wikimedia.org/wiki/File:Sitelen_seli_kiwen_-_nimi.svg; li: https://commons.wikimedia.org/wiki/File:Sitelen_seli_kiwen_-_li.svg; ante: https://commons.wikimedia.org/wiki/File:Sitelen_seli_kiwen_-_ante.svg; e: https://commons.wikimedia.org/wiki/File:Sitelen_seli_kiwen_-_e.svg; nimi: https://commons.wikimedia.org/wiki/File:Sitelen_seli_kiwen_-_nimi.svg

Categories:
  [[Category:Sitelen kalama pona]]
  [[Category:Toki Pona text containing nimi #2 li ante e nimi #1]]

Sources:
  nimi: https://commons.wikimedia.org/wiki/File:Sitelen_seli_kiwen_-_nimi.svg
  li: https://commons.wikimedia.org/wiki/File:Sitelen_seli_kiwen_-_li.svg
  ante: https://commons.wikimedia.org/wiki/File:Sitelen_seli_kiwen_-_ante.svg
  e: https://commons.wikimedia.org/wiki/File:Sitelen_seli_kiwen_-_e.svg
  nimi: https://commons.wikimedia.org/wiki/File:Sitelen_seli_kiwen_-_nimi.svg
-->
<svg version="1.1" width="4632" height="1000"
     viewBox="0 0 4632 1000"
     xmlns="http://www.w3.org/2000/svg">
  <path d="M373 213Q337 213 302.5 204.0Q268 195 264 195Q223 195 183 216Q138 239 125.5 268.0Q113 297 111 375Q109 439 103.5 454.0Q98 469 98 479Q98 515 114 533Q123 542 133 560Q143 579 158.0 584.0Q173 589 225 589H278Q339 589 357.5 592.5Q376 596 399 596Q459 597 524.5 605.0Q590 613 600 613Q627 613 657.0 602.5Q687 592 692 592Q704 592 720.5 585.0Q737 578 744 578Q759 578 773 558Q783 544 792.5 485.5Q802 427 802 383Q802 369 800.0 352.0Q798 335 798 322V303Q798 286 792.0 276.0Q786 266 786 255Q786 253 786.5 250.0Q787 247 787 246Q787 241 774 241Q762 241 757.5 236.5Q753 232 750 234H748Q744 234 701.0 222.5Q658 211 640 211Q638 211 636.0 212.0Q634 213 625.0 214.0Q616 215 598 215Q569 215 548.5 212.5Q528 210 518.5 208.0Q509 206 506 206Q504 206 491.5 209.5Q479 213 455 213Q439 213 428.5 211.0Q418 209 413.5 207.0Q409 205 408.0 205.0Q407 205 404.0 207.0Q401 209 393.5 211.0Q386 213 373 213ZM724 386Q724 387 727.5 393.5Q731 400 731 413Q731 421 729.0 447.5Q727 474 727 483Q727 520 701 525Q693 526 682.5 531.0Q672 536 653 538Q618 543 587 543L580 542Q574 541 562.0 539.5Q550 538 533.0 536.5Q516 535 491.5 533.0Q467 531 439.0 529.5Q411 528 374.0 526.5Q337 525 298 525Q198 523 188 517Q183 513 183 499Q183 489 179 489Q176 489 176 451Q176 343 184 317Q189 303 201.5 293.0Q214 283 227 283Q236 283 245.0 278.5Q254 274 264 274Q277 274 311.5 278.5Q346 283 367 283Q380 283 423.0 281.5Q466 280 500 280Q563 280 617.5 283.5Q672 287 675 292Q679 298 686 294H690Q698 294 710.5 301.0Q723 308 727 315Q731 323 731 346Q731 363 728 374Z" transform="translate(0.00,958.33) scale(0.9583,-0.9583)" fill="#000000" />
  <path d="M281 756Q295 756 318.5 734.0Q342 712 359.0 691.0Q376 670 376 668Q376 665 384.0 657.0Q392 649 404.0 636.5Q416 624 423 615Q435 600 479.0 553.0Q523 506 531 501Q539 496 539 492Q539 488 585.5 446.0Q632 404 641 399Q647 396 649.0 391.5Q651 387 649 375Q648 360 638.0 348.0Q628 336 619.0 329.0Q610 322 610 317Q610 314 580.5 291.5Q551 269 549 269Q544 269 544.0 263.0Q544 257 533.5 246.5Q523 236 518 236Q512 236 512 231Q512 227 505 227Q501 227 495.0 216.5Q489 206 478 202Q465 197 465 191Q465 184 461 184Q457 184 441.5 169.0Q426 154 406.0 133.0Q386 112 378 105Q345 76 345 62Q345 50 339.0 42.0Q333 34 324.0 31.5Q315 29 309.5 28.0Q304 27 300 27Q286 27 273.0 35.5Q260 44 257 45Q250 48 250 58Q250 70 259.5 84.5Q269 99 282 106Q295 112 314.5 133.5Q334 155 340 160Q362 179 385.0 203.0Q408 227 408 230Q408 233 419.5 242.5Q431 252 451.0 268.5Q471 285 485 299Q537 352 550.0 366.0Q563 380 563 385Q563 387 549.5 399.5Q536 412 520.0 425.5Q504 439 502 441Q465 481 465 485Q465 488 418.0 535.0Q371 582 371 586Q371 589 354.5 600.5Q338 612 338 619Q338 626 294.5 666.5Q251 707 251 718Q251 730 260.0 743.0Q269 756 281 756Z" transform="translate(942.50,958.33) scale(0.9583,-0.9583)" fill="#000000" />
  <path d="M840 87Q840 73 833.5 66.0Q827 59 819.0 59.0Q811 59 804 59Q781 61 766.5 75.5Q752 90 742 95Q728 102 728 107Q728 114 710.5 123.0Q693 132 667.5 143.0Q642 154 630 162Q629 163 606.0 177.0Q583 191 550.0 207.5Q517 224 500 229Q480 234 459.0 244.5Q438 255 432 255Q412 255 361.0 224.5Q310 194 298 194Q290 194 238.5 163.5Q187 133 178 133Q175 133 160.0 119.0Q145 105 140 105Q134 105 134 100Q134 96 112.5 88.5Q91 81 80 81Q70 81 58.0 92.5Q46 104 46 112Q46 129 83.0 149.5Q120 170 128 170Q131 170 133.0 172.5Q135 175 146.0 182.0Q157 189 178 197Q202 206 221.0 219.0Q240 232 272 243Q315 258 318 263Q326 275 366.0 290.5Q406 306 412 313Q430 329 446 329Q455 329 459.5 327.0Q464 325 470.5 320.5Q477 316 503.0 301.0Q529 286 568 266Q661 219 682 205Q693 198 706.0 194.0Q719 190 732 179Q749 166 756 166Q761 166 776.0 154.0Q791 142 798 142Q812 142 826.0 124.0Q840 106 840 87ZM226 611Q221 611 172.0 636.5Q123 662 116 662Q105 662 92.5 675.5Q80 689 80 699Q80 711 102 717Q124 723 126 723Q139 723 186.5 698.5Q234 674 234 667Q234 662 238 662Q243 662 267.5 650.5Q292 639 296 639Q297 639 309.5 630.0Q322 621 342.0 607.0Q362 593 380 584Q389 579 419.5 550.5Q450 522 462 522Q474 522 478.5 531.5Q483 541 489.5 541.0Q496 541 507.0 547.5Q518 554 522 554Q526 554 559.5 574.0Q593 594 606 598Q619 601 643.5 615.5Q668 630 676 630Q707 630 763.5 668.5Q820 707 834 707Q842 707 847.0 697.5Q852 688 854 679V670Q854 661 844.0 647.5Q834 634 824 634Q814 634 814 631Q814 627 791.0 615.0Q768 603 756 600Q745 598 728.5 585.5Q712 573 702 573Q693 573 681.0 567.5Q669 562 652.5 553.0Q636 544 626 540Q616 535 609.5 530.5Q603 526 601.0 523.0Q599 520 597.0 518.5Q595 517 592 517Q584 517 584 510Q584 506 572.5 499.5Q561 493 543.5 484.0Q526 475 518 469Q491 449 476 449Q459 449 444.5 457.5Q430 466 416.5 477.5Q403 489 396 492Q381 498 351.0 526.5Q321 555 288 571Q271 579 257.0 589.5Q243 600 236.0 605.5Q229 611 226 611Z" transform="translate(1885.00,958.33) scale(0.9583,-0.9583)" fill="#000000" />
  <path d="M156 75Q144 75 126.0 90.0Q108 105 108 115Q108 118 109.0 127.5Q110 137 114.5 149.5Q119 162 124 164Q131 166 151.5 186.0Q172 206 180 210Q192 216 207.0 231.5Q222 247 222 252Q222 260 253.5 283.0Q285 306 292 316Q298 327 314.5 339.0Q331 351 334 356Q336 363 359.5 386.0Q383 409 388 409Q392 409 392 418Q392 423 370.5 439.5Q349 456 342 456Q340 456 297.0 498.0Q254 540 246 543Q238 546 212.5 570.0Q187 594 170 602Q169 602 157.5 609.5Q146 617 133.0 629.5Q120 642 120 652Q120 667 124.0 671.0Q128 675 142 679Q166 685 168 685Q170 685 186.5 669.0Q203 653 208 653Q211 653 224.0 641.0Q237 629 257.0 610.5Q277 592 292 580Q303 573 310.5 566.5Q318 560 322.0 556.0Q326 552 328.5 549.5Q331 547 332.5 546.0Q334 545 336 545Q340 545 378.5 510.0Q417 475 426 472Q434 470 434 466Q434 463 452.5 453.5Q471 444 474 433Q475 427 475.5 422.5Q476 418 477.0 416.0Q478 414 478.0 412.5Q478 411 478.0 410.5Q478 410 478 410Q478 402 467.5 384.5Q457 367 452 367Q448 367 448 361Q448 357 431.0 344.5Q414 332 414 329Q414 324 410 327Q410 327 409.5 327.5Q409 328 408 328Q405 328 298 231Q229 168 204.5 142.0Q180 116 180 98Q180 90 172.0 82.5Q164 75 156 75ZM356 681Q356 693 366.0 704.0Q376 715 392 715Q412 715 449.0 686.0Q486 657 518.0 625.5Q550 594 554 592Q564 588 590.0 566.5Q616 545 637.5 526.5Q659 508 662 508Q664 508 672.5 495.5Q681 483 692 480Q700 477 715.0 465.5Q730 454 752 443Q792 423 792 399Q792 396 791.5 389.5Q791 383 790.5 380.0Q790 377 790 375Q793 373 789.5 367.5Q786 362 779.0 357.0Q772 352 766 351Q752 348 752 344Q752 342 739.0 335.5Q726 329 711.5 320.5Q697 312 694 306Q689 298 674.0 288.0Q659 278 656 275Q647 265 619.5 247.5Q592 230 562.5 207.0Q533 184 514 157Q508 147 502 147Q494 147 494.0 140.0Q494 133 490 133Q486 133 486 126Q486 122 482.0 119.0Q478 116 469.5 108.5Q461 101 454 89Q441 69 428 69Q417 69 400.5 87.5Q384 106 384 116Q384 130 398.5 143.5Q413 157 431.5 168.5Q450 180 454 186Q461 197 500.5 237.5Q540 278 544 278Q546 278 562.5 290.0Q579 302 582 302Q585 302 592.0 313.5Q599 325 604 325Q612 325 612 330Q612 334 618 334Q623 334 658 367L692 400L674 418Q660 431 639.5 443.0Q619 455 614 462Q610 468 600.0 475.0Q590 482 582.0 487.5Q574 493 574 497Q574 502 559.5 513.5Q545 525 518.0 544.0Q491 563 474 576Q443 602 408 627Q406 628 402 631Q383 645 375.5 651.5Q368 658 362.0 666.0Q356 674 356 681Z" transform="translate(2827.50,958.33) scale(0.9583,-0.9583)" fill="#000000" />
  <path d="M373 213Q337 213 302.5 204.0Q268 195 264 195Q223 195 183 216Q138 239 125.5 268.0Q113 297 111 375Q109 439 103.5 454.0Q98 469 98 479Q98 515 114 533Q123 542 133 560Q143 579 158.0 584.0Q173 589 225 589H278Q339 589 357.5 592.5Q376 596 399 596Q459 597 524.5 605.0Q590 613 600 613Q627 613 657.0 602.5Q687 592 692 592Q704 592 720.5 585.0Q737 578 744 578Q759 578 773 558Q783 544 792.5 485.5Q802 427 802 383Q802 369 800.0 352.0Q798 335 798 322V303Q798 286 792.0 276.0Q786 266 786 255Q786 253 786.5 250.0Q787 247 787 246Q787 241 774 241Q762 241 757.5 236.5Q753 232 750 234H748Q744 234 701.0 222.5Q658 211 640 211Q638 211 636.0 212.0Q634 213 625.0 214.0Q616 215 598 215Q569 215 548.5 212.5Q528 210 518.5 208.0Q509 206 506 206Q504 206 491.5 209.5Q479 213 455 213Q439 213 428.5 211.0Q418 209 413.5 207.0Q409 205 408.0 205.0Q407 205 404.0 207.0Q401 209 393.5 211.0Q386 213 373 213ZM724 386Q724 387 727.5 393.5Q731 400 731 413Q731 421 729.0 447.5Q727 474 727 483Q727 520 701 525Q693 526 682.5 531.0Q672 536 653 538Q618 543 587 543L580 542Q574 541 562.0 539.5Q550 538 533.0 536.5Q516 535 491.5 533.0Q467 531 439.0 529.5Q411 528 374.0 526.5Q337 525 298 525Q198 523 188 517Q183 513 183 499Q183 489 179 489Q176 489 176 451Q176 343 184 317Q189 303 201.5 293.0Q214 283 227 283Q236 283 245.0 278.5Q254 274 264 274Q277 274 311.5 278.5Q346 283 367 283Q380 283 423.0 281.5Q466 280 500 280Q563 280 617.5 283.5Q672 287 675 292Q679 298 686 294H690Q698 294 710.5 301.0Q723 308 727 315Q731 323 731 346Q731 363 728 374Z" transform="translate(3770.00,958.33) scale(0.9583,-0.9583)" fill="#000000" />
</svg>
