<?xml version="1.0" encoding="UTF-8" standalone="no"?>
<!--
Representation of "nena Ululu" in sitelen ilo pona
Generated by generate_sitelen_kalama_pona.py

Description:
  Representation of "nena Ululu" in sitelen ilo pona.
  Sources: nena: https://commons.wikimedia.org/wiki/File:Sitelen_seli_kiwen_-_nena.svg; u: https://commons.wikimedia.org/wiki/File:Sitelen_kalama_pona_-_xu.svg; lu: https://commons.wikimedia.org/wiki/File:Sitelen_kalama_pona_-_lu.svg; lu: https://commons.wikimedia.org/wiki/File:Sitelen_kalama_pona_-_lu.svg

Categories:
  [[Category:Sitelen kalama pona]]
  [[Category:Toki Pona text containing nena]]
  [[Category:Toki Pona text containing sound symbol U]]
  [[Category:Toki Pona text containing sound symbol Lu]]
  [[Category:Toki Pona text containing sound symbol Lu]]

Sources:
  nena: https://commons.wikimedia.org/wiki/File:Sitelen_seli_kiwen_-_nena.svg
  u: https://commons.wikimedia.org/wiki/File:Sitelen_kalama_pona_-_xu.svg
  lu: https://commons.wikimedia.org/wiki/File:Sitelen_kalama_pona_-_lu.svg
  lu: https://commons.wikimedia.org/wiki/File:Sitelen_kalama_pona_-_lu.svg
-->
<svg version="1.1" width="5214" height="1000"
     viewBox="0 0 5214 1000"
     xmlns="http://www.w3.org/2000/svg">
  <path d="M186 290Q186 288 185.0 285.0Q184 282 184 280Q184 279 187.0 270.5Q190 262 190 250Q188 230 188 216Q188 198 194 190Q201 183 195.0 180.5Q189 178 192 171Q194 163 194.0 144.0Q194 125 181.0 105.5Q168 86 148 86Q144 86 137.0 87.0Q130 88 120.0 95.0Q110 102 110 114Q110 128 114 128Q115 128 119.0 142.0Q123 156 126.5 174.0Q130 192 130 201Q130 208 126.0 227.0Q122 246 122 269Q122 276 123.0 292.0Q124 308 124 314Q124 322 120.0 339.5Q116 357 116 363Q116 368 118.0 372.5Q120 377 120 381V393Q120 407 126 417Q131 430 139.0 472.5Q147 515 152 521Q157 526 162.5 541.5Q168 557 188 574Q208 590 208 595Q208 602 223.0 616.0Q238 630 248 632Q255 634 265.5 645.0Q276 656 292.5 666.0Q309 676 332 678Q334 678 379.5 690.0Q425 702 462 702Q501 702 548 698Q556 697 593.5 678.0Q631 659 636 652Q639 649 647.0 643.0Q655 637 660.5 632.0Q666 627 666.0 624.0Q666 621 673.5 612.5Q681 604 694.5 587.0Q708 570 720 549Q738 514 742 512Q747 508 757.0 473.0Q767 438 774.0 405.0Q781 372 782 372Q784 368 787.0 325.5Q790 283 790 247Q790 197 780 133Q773 97 769.5 91.0Q766 85 746 85H742Q723 85 717.5 87.5Q712 90 706 100Q700 113 700 125Q700 136 707.0 140.5Q714 145 714 160V173Q714 185 717.0 196.0Q720 207 720 211Q720 216 717.0 223.0Q714 230 714 233Q714 233 720.0 245.0Q726 257 726 280Q726 290 723.0 301.0Q720 312 720.0 314.0Q720 316 724.0 320.0Q728 324 728 335Q728 350 721.0 375.5Q714 401 714 408Q714 417 707.0 428.5Q700 440 700 447Q700 458 681.5 494.5Q663 531 648 550Q629 574 610.5 592.5Q592 611 586 611Q582 611 574.0 616.0Q566 621 555.5 627.5Q545 634 516.0 639.0Q487 644 446 644Q410 644 397.5 642.5Q385 641 374 635Q354 625 346 625Q338 625 328.0 615.5Q318 606 312 606Q308 606 293.5 593.5Q279 581 262.5 565.5Q246 550 240 546Q230 539 230 533Q230 527 226 527Q220 527 208.0 503.0Q196 479 196 466Q196 449 192 446Q186 442 182.0 406.0Q178 370 178 336Q178 324 179.0 315.5Q180 307 180.5 302.5Q181 298 182.5 295.5Q184 293 184.5 292.5Q185 292 185.5 291.5Q186 291 186 290Z" transform="translate(0.00,958.33) scale(0.9583,-0.9583)" fill="#000000" />
  <path d="M 24.637998,12.488337 H 20.72216 q -1.48166,0 -2.54,-1.058333 -1.05833,-1.058333 -1.05833,-2.54 V 3.598338 q 0,-1.481667 1.05833,-2.54 Q 19.2405,4e-6 20.72216,4e-6 h 3.915838 V 0.846671 H 20.72216 q -1.13241,0 -1.94733,0.814917 -0.80433,0.804333 -0.80433,1.93675 v 5.291666 q 0,1.132417 0.80433,1.93675 0.81492,0.814917 1.94733,0.814917 h 3.915838 z" transform="translate(-428.69,0.00) scale(80.0747,80.0747)" fill="#000000" />
  <path d="M 75.014662,0.846671 V 4e-6 h 13.123333 v 0.846667 z m 0,11.641666 v -0.846666 h 13.123333 v 0.846666 z" transform="translate(-4462.58,0.00) scale(80.0747,80.0747)" fill="#000000" />
  <path d="M 75.014662,0.846671 V 4e-6 h 13.123333 v 0.846667 z m 0,11.641666 v -0.846666 h 13.123333 v 0.846666 z" transform="translate(-3411.74,0.00) scale(80.0747,80.0747)" fill="#000000" />
  <path d="M 75.014662,0.846671 V 4e-6 h 13.123333 v 0.846667 z m 0,11.641666 v -0.846666 h 13.123333 v 0.846666 z" transform="translate(-2360.89,0.00) scale(80.0747,80.0747)" fill="#000000" />
  <path d="m 87.714667,4e-6 h 2.8575 q 1.481666,0 2.54,1.058334 1.058333,1.058333 1.058333,2.54 v 5.291666 q 0,1.481667 -1.058333,2.54 -1.058334,1.058333 -2.54,1.058333 h -2.8575 v -0.846666 h 2.8575 q 1.132416,0 1.93675,-0.814917 0.814916,-0.804333 0.814916,-1.93675 V 3.598338 q 0,-1.132417 -0.814916,-1.93675 -0.804334,-0.814917 -1.93675,-0.814917 h -2.8575 z" transform="translate(-2326.99,0.00) scale(80.0747,80.0747)" fill="#000000" />
  <path d="M 158.86,260.96 C 158.86,375.30 172.34,489.24 172.34,605.15 C 172.34,612.62 172.28,620.11 172.16,627.61 C 314.43,454.35 415.10,210.75 555.34,32.56 C 560.08,26.53 567.27,23.00 575.00,23.00 C 576.69,23.00 592.25,23.43 598.28,38.88 C 690.29,274.49 789.49,460.57 895.99,710.17 C 897.33,713.30 898.00,716.65 898.00,720.00 L 898.00,724.00 C 898.00,737.57 887.19,748.65 873.63,748.99 C 761.86,752.10 647.89,753.01 535.00,755.00 C 534.77,755.00 534.77,755.00 239.55,747.02 C 232.96,747.47 226.43,747.73 219.99,747.73 C 190.91,747.73 163.07,742.38 143.35,726.91 C 143.35,726.91 140.93,727.71 140.88,727.73 L 139.54,723.70 C 130.76,715.79 116.52,699.23 116.52,668.14 C 116.52,656.75 118.44,644.61 122.08,632.03 C 122.26,623.14 122.34,614.25 122.34,605.35 C 122.34,491.21 108.87,377.16 108.87,261.26 C 108.87,213.49 110.62,210.87 110.62,171.38 C 110.62,164.03 110.58,156.36 110.58,149.79 C 110.58,119.40 111.33,87.26 120.00,54.62 L 120.00,46.00 L 170.00,46.00 L 170.00,58.00 C 170.00,73.77 160.59,69.55 160.59,154.29 C 160.59,160.59 160.61,165.97 160.61,172.20 C 160.61,183.61 160.52,195.22 159.97,207.08 C 159.20,225.03 158.86,242.99 158.86,260.96  Z M 182.63,692.16 C 193.68,696.58 208.26,697.69 220.64,697.69 C 230.57,697.69 236.84,697.00 239.00,697.00 C 239.34,697.00 239.32,700.35 535.15,705.00 C 635.72,706.58 737.20,702.33 837.13,699.89 C 746.58,491.18 651.15,303.64 568.18,98.52 C 434.81,282.24 334.57,523.73 182.63,692.16 Z" transform="translate(1669.62,100.00) scale(0.8000,0.8000)" fill="#000000" />
  <path d="M 380.01,703.34 C 381.20,658.74 390.39,597.94 390.39,547.24 C 390.39,538.20 390.00,530.17 390.00,530.00 C 390.00,529.80 390.33,520.66 390.33,510.09 C 390.33,459.86 384.19,408.91 377.90,357.41 C 373.99,325.41 372.06,308.80 372.01,306.50 L 368.01,106.50 L 417.99,105.50 L 421.97,304.37 C 423.68,319.87 425.59,335.52 427.52,351.31 C 433.79,402.68 440.32,455.57 440.32,509.76 C 440.32,516.43 440.22,523.12 440.01,529.82 C 440.28,535.79 440.40,541.85 440.40,547.97 C 440.40,601.26 431.12,662.21 429.99,704.67 L 380.01,703.34  Z M 271.27,681.76 C 301.94,681.76 322.40,675.00 329.00,675.00 L 556.38,675.00 C 563.82,674.64 571.28,674.47 578.74,674.47 C 676.75,674.47 778.69,704.33 871.24,708.99 L 936.25,707.02 L 937.76,756.98 C 871.38,759.00 871.38,759.00 871.00,759.00 C 838.40,759.00 757.28,745.64 734.17,741.84 C 680.39,732.99 627.61,724.48 578.13,724.48 C 567.24,724.48 557.21,725.00 557.00,725.00 L 331.71,725.00 C 310.81,729.46 290.76,731.64 271.76,731.64 C 160.30,731.64 90.72,656.83 90.72,552.48 C 90.72,526.10 95.15,498.24 104.08,469.84 C 104.42,450.94 104.60,431.95 104.79,412.89 C 105.71,317.67 106.49,220.46 128.00,123.22 L 128.00,80.00 L 178.00,80.00 L 178.00,126.00 C 178.00,127.85 177.79,129.71 177.38,131.53 C 156.80,222.86 155.71,317.17 154.78,413.38 C 154.15,477.52 154.15,477.52 152.75,481.80 C 144.43,507.23 140.62,530.93 140.62,552.44 C 140.62,627.73 187.13,681.76 271.27,681.76 Z" transform="translate(2720.47,100.00) scale(0.8000,0.8000)" fill="#000000" />
  <path d="M 380.01,703.34 C 381.20,658.74 390.39,597.94 390.39,547.24 C 390.39,538.20 390.00,530.17 390.00,530.00 C 390.00,529.80 390.33,520.66 390.33,510.09 C 390.33,459.86 384.19,408.91 377.90,357.41 C 373.99,325.41 372.06,308.80 372.01,306.50 L 368.01,106.50 L 417.99,105.50 L 421.97,304.37 C 423.68,319.87 425.59,335.52 427.52,351.31 C 433.79,402.68 440.32,455.57 440.32,509.76 C 440.32,516.43 440.22,523.12 440.01,529.82 C 440.28,535.79 440.40,541.85 440.40,547.97 C 440.40,601.26 431.12,662.21 429.99,704.67 L 380.01,703.34  Z M 271.27,681.76 C 301.94,681.76 322.40,675.00 329.00,675.00 L 556.38,675.00 C 563.82,674.64 571.28,674.47 578.74,674.47 C 676.75,674.47 778.69,704.33 871.24,708.99 L 936.25,707.02 L 937.76,756.98 C 871.38,759.00 871.38,759.00 871.00,759.00 C 838.40,759.00 757.28,745.64 734.17,741.84 C 680.39,732.99 627.61,724.48 578.13,724.48 C 567.24,724.48 557.21,725.00 557.00,725.00 L 331.71,725.00 C 310.81,729.46 290.76,731.64 271.76,731.64 C 160.30,731.64 90.72,656.83 90.72,552.48 C 90.72,526.10 95.15,498.24 104.08,469.84 C 104.42,450.94 104.60,431.95 104.79,412.89 C 105.71,317.67 106.49,220.46 128.00,123.22 L 128.00,80.00 L 178.00,80.00 L 178.00,126.00 C 178.00,127.85 177.79,129.71 177.38,131.53 C 156.80,222.86 155.71,317.17 154.78,413.38 C 154.15,477.52 154.15,477.52 152.75,481.80 C 144.43,507.23 140.62,530.93 140.62,552.44 C 140.62,627.73 187.13,681.76 271.27,681.76 Z" transform="translate(3771.31,100.00) scale(0.8000,0.8000)" fill="#000000" />
</svg>
