<?xml version="1.0" encoding="UTF-8" standalone="no"?>
<!--
Representation of "tomo sewi Ono en tomo sewi Japiko" in sitelen ilo pona
Generated by generate_sitelen_kalama_pona.py

Description:
  Representation of "tomo sewi Ono en tomo sewi Japiko" in sitelen ilo pona.
  Sources: tomo-sewi: https://commons.wikimedia.org/wiki/File:Tomo_sewi_old.svg; o: https://commons.wikimedia.org/wiki/File:Sitelen_kalama_pona_-_xo.svg; no: https://commons.wikimedia.org/wiki/File:Sitelen_kalama_pona_-_no.svg; en: https://commons.wikimedia.org/wiki/File:Sitelen_kalama_pona_-_xen.svg; to: https://commons.wikimedia.org/wiki/File:Sitelen_kalama_pona_-_to.svg; mo: https://commons.wikimedia.org/wiki/File:Sitelen_kalama_pona_-_mo.svg; se: https://commons.wikimedia.org/wiki/File:Sitelen_kalama_pona_-_se.svg; wi: https://commons.wikimedia.org/wiki/File:Sitelen_kalama_pona_-_wi.svg; ja: https://commons.wikimedia.org/wiki/File:Sitelen_kalama_pona_-_ja.svg; pi: https://commons.wikimedia.org/wiki/File:Sitelen_kalama_pona_-_pi.svg; ko: https://commons.wikimedia.org/wiki/File:Sitelen_kalama_pona_-_ko.svg

Categories:
  [[Category:Sitelen kalama pona]]
  [[Category:Toki Pona text containing tomo sewi]]
  [[Category:Toki Pona text containing sound symbol O]]
  [[Category:Toki Pona text containing sound symbol No]]
  [[Category:Toki Pona text containing sound symbol En]]
  [[Category:Toki Pona text containing sound symbol To]]
  [[Category:Toki Pona text containing sound symbol Mo]]
  [[Category:Toki Pona text containing sound symbol Se]]
  [[Category:Toki Pona text containing sound symbol Wi]]
  [[Category:Toki Pona text containing sound symbol Ja]]
  [[Category:Toki Pona text containing sound symbol Pi]]
  [[Category:Toki Pona text containing sound symbol Ko]]

Sources:
  tomo-sewi: https://commons.wikimedia.org/wiki/File:Tomo_sewi_old.svg
  o: https://commons.wikimedia.org/wiki/File:Sitelen_kalama_pona_-_xo.svg
  no: https://commons.wikimedia.org/wiki/File:Sitelen_kalama_pona_-_no.svg
  en: https://commons.wikimedia.org/wiki/File:Sitelen_kalama_pona_-_xen.svg
  to: https://commons.wikimedia.org/wiki/File:Sitelen_kalama_pona_-_to.svg
  mo: https://commons.wikimedia.org/wiki/File:Sitelen_kalama_pona_-_mo.svg
  se: https://commons.wikimedia.org/wiki/File:Sitelen_kalama_pona_-_se.svg
  wi: https://commons.wikimedia.org/wiki/File:Sitelen_kalama_pona_-_wi.svg
  ja: https://commons.wikimedia.org/wiki/File:Sitelen_kalama_pona_-_ja.svg
  pi: https://commons.wikimedia.org/wiki/File:Sitelen_kalama_pona_-_pi.svg
  ko: https://commons.wikimedia.org/wiki/File:Sitelen_kalama_pona_-_ko.svg
-->
<svg version="1.1" width="12570" height="1000"
     viewBox="0 0 12570 1000"
     xmlns="http://www.w3.org/2000/svg">
  <path d="M126 137Q126 137 126 151Q126 160 128.0 169.0Q130 178 130 182Q130 184 128 192Q124 208 122.5 266.0Q121 324 120.5 375.0Q120 426 117 430Q116 433 116.0 443.5Q116 454 112 461Q111 462 111 465Q111 475 128.0 489.0Q145 503 157 503Q168 503 179.0 512.5Q190 522 195.5 531.0Q201 540 201 541Q201 543 207.5 547.0Q214 551 225.5 560.5Q237 570 246 583Q256 596 275.5 611.5Q295 627 309.0 637.5Q323 648 323 651Q323 655 332.5 662.5Q342 670 342 675Q342 681 349 681Q354 681 363.5 694.0Q373 707 385.5 720.0Q398 733 410 733Q419 733 432.5 742.5Q446 752 454 752Q466 752 483.0 737.5Q500 723 513.5 708.5Q527 694 530 694Q533 694 533.5 693.5Q534 693 534 691Q534 688 567.0 666.5Q600 645 600 641Q600 638 614.0 630.5Q628 623 650.0 609.5Q672 596 687 581Q711 559 733.0 540.5Q755 522 758 522Q762 522 767.5 520.5Q773 519 781.5 511.0Q790 503 788 489Q788 472 787.0 440.0Q786 408 784.0 374.0Q782 340 780.5 309.0Q779 278 777.5 257.5Q776 237 776 236Q776 221 777.5 199.5Q779 178 780.5 159.0Q782 140 784.0 123.0Q786 106 787.0 95.0Q788 84 788 84Q788 75 777 64Q766 54 748.0 51.5Q730 49 647 49Q529 49 475.0 55.5Q421 62 370 62Q237 62 161 46Q147 43 129 58Q119 67 116.0 72.5Q113 78 113 89Q113 114 119.5 120.0Q126 126 126 137ZM291 124Q320 124 351.5 123.0Q383 122 408.5 121.0Q434 120 455.0 118.5Q476 117 488.5 116.0Q501 115 501 115Q506 115 513.5 116.5Q521 118 544.5 119.5Q568 121 609 121Q674 122 698.5 124.5Q723 127 723 134Q723 134 722.5 136.5Q722 139 721.0 144.0Q720 149 718.5 156.0Q717 163 715.5 172.5Q714 182 713.0 193.0Q712 204 711.0 217.5Q710 231 710 245Q710 259 711.5 276.5Q713 294 715.0 310.0Q717 326 719.5 339.5Q722 353 723.0 361.5Q724 370 724 370Q724 374 720.0 399.5Q716 425 715.5 444.0Q715 463 712.0 469.5Q709 476 696 487Q693 490 686.0 496.0Q679 502 674.0 506.5Q669 511 666 514Q650 530 618.0 551.5Q586 573 578 580Q561 597 555 597Q552 597 548.0 600.5Q544 604 535.0 610.5Q526 617 514 623Q501 629 473.5 648.0Q446 667 438 667Q429 667 404.0 643.5Q379 620 376 620Q374 620 362.5 606.0Q351 592 346 592Q340 592 301.0 553.5Q262 515 262 507Q262 503 253 503Q245 503 239 494Q237 489 227.0 477.5Q217 466 209.5 452.5Q202 439 199 424Q196 404 188 402Q184 400 182.0 389.5Q180 379 180 344Q180 267 186.5 249.0Q193 231 193 197Q193 151 200.0 136.0Q207 121 237 121Q241 121 256.5 122.5Q272 124 291 124Z" transform="translate(0.00,958.33) scale(0.9583,-0.9583)" fill="#000000" />
  <path d="m 432.42725,-300.25904 c 0,-4 2.16667,-11.83333 6.5,-23.5 4.33333,-11.66667 6.5,-22.83333 6.5,-33.5 0,-10 2.5,-19.5 7.5,-28.5 5,-9 12.16667,-13.5 21.5,-13.5 4.66667,0 10,1.66667 16,5 14.00002,7.33333 21.00002,19 21.00002,35 0,18 -4.1667,37 -12.5,57 -8.33335,20 -15.66669,34.5 -22.00002,43.5 -6.33333,9 -11.5,15.5 -15.5,19.5 -6,6 -11.66667,9.66667 -17,11 -5.33333,1.33333 -18,2 -38,2 -45.33333,0 -74.33333,-1 -87,-3 -9.33333,-1.33333 -17.66667,-8.83333 -25,-22.5 -7.33333,-13.66667 -11,-26.5 -11,-38.5 0,-16 7.33333,-24 22,-24 6,0 11.83333,2.83333 17.5,8.5 5.66667,5.66667 10.83333,8.5 15.5,8.5 10.66667,0 16,-7.33333 16,-22 v -7 c -1.33333,-7.33333 -1.33333,-12.33333 0,-15 1.33333,-2.66667 4.33333,-5.66667 9,-9 5.33333,-3.33333 10.33333,-5 15,-5 8,0 15,5.33333 21,16 6,10.66667 11.33333,21.33333 16,32 4.66667,10.66667 9,16 13,16 2.66667,0 4,-3 4,-9 z m 95.00002,-126 c 0.6667,-18.66667 2.8333,-31 6.5,-37 3.6667,-6 12.5,-9 26.5,-9 14,0 23.3333,2.33333 28,7 2.6667,2.66667 4,16.33333 4,41 0,32.66667 -2.3334,62 -7,88 l -7,39 c 0,6.66667 3,12 9,16 6,4.66667 8.3333,9.33333 7,14 -2.6667,11.33333 -4.3333,20.33333 -5,27 -1.3333,12.66667 -4.5,21.33333 -9.5,26 -5,4.66667 -13.8333,7 -26.5,7 -10,0 -16.8333,-2 -20.5,-6 -3.6667,-4 -5.5,-11.66667 -5.5,-23 0,-24.66667 -1,-38 -3,-40 -2,-2 -3,-8.66667 -3,-20 0,-8 0.3333,-14.33333 1,-19 0.6667,-7.33333 1,-13.33333 1,-18 0,-6 -0.5,-11 -1.5,-15 -1,-4 -1.5,-6.66667 -1.5,-8 0,-3.33333 0.6666,-8.33333 2,-15 2,-7.33333 3.6667,-25.66667 5,-55 z" transform="translate(0.00,958.33) scale(0.9583,0.9583)" fill="#000000" />
  <path d="M 24.637998,12.488337 H 20.72216 q -1.48166,0 -2.54,-1.058333 -1.05833,-1.058333 -1.05833,-2.54 V 3.598338 q 0,-1.481667 1.05833,-2.54 Q 19.2405,4e-6 20.72216,4e-6 h 3.915838 V 0.846671 H 20.72216 q -1.13241,0 -1.94733,0.814917 -0.80433,0.804333 -0.80433,1.93675 v 5.291666 q 0,1.132417 0.80433,1.93675 0.81492,0.814917 1.94733,0.814917 h 3.915838 z" transform="translate(-428.69,0.00) scale(80.0747,80.0747)" fill="#000000" />
  <path d="M 75.014662,0.846671 V 4e-6 h 13.123333 v 0.846667 z m 0,11.641666 v -0.846666 h 13.123333 v 0.846666 z" transform="translate(-4462.58,0.00) scale(80.0747,80.0747)" fill="#000000" />
  <path d="M 75.014662,0.846671 V 4e-6 h 13.123333 v 0.846667 z m 0,11.641666 v -0.846666 h 13.123333 v 0.846666 z" transform="translate(-3411.74,0.00) scale(80.0747,80.0747)" fill="#000000" />
  <path d="M 75.014662,0.846671 V 4e-6 h 13.123333 v 0.846667 z m 0,11.641666 v -0.846666 h 13.123333 v 0.846666 z" transform="translate(-2360.89,0.00) scale(80.0747,80.0747)" fill="#000000" />
  <path d="M 75.014662,0.846671 V 4e-6 h 13.123333 v 0.846667 z m 0,11.641666 v -0.846666 h 13.123333 v 0.846666 z" transform="translate(-1310.04,0.00) scale(80.0747,80.0747)" fill="#000000" />
  <path d="M 75.014662,0.846671 V 4e-6 h 13.123333 v 0.846667 z m 0,11.641666 v -0.846666 h 13.123333 v 0.846666 z" transform="translate(-259.19,0.00) scale(80.0747,80.0747)" fill="#000000" />
  <path d="M 75.014662,0.846671 V 4e-6 h 13.123333 v 0.846667 z m 0,11.641666 v -0.846666 h 13.123333 v 0.846666 z" transform="translate(791.65,0.00) scale(80.0747,80.0747)" fill="#000000" />
  <path d="M 75.014662,0.846671 V 4e-6 h 13.123333 v 0.846667 z m 0,11.641666 v -0.846666 h 13.123333 v 0.846666 z" transform="translate(1842.50,0.00) scale(80.0747,80.0747)" fill="#000000" />
  <path d="M 75.014662,0.846671 V 4e-6 h 13.123333 v 0.846667 z m 0,11.641666 v -0.846666 h 13.123333 v 0.846666 z" transform="translate(2893.35,0.00) scale(80.0747,80.0747)" fill="#000000" />
  <path d="M 75.014662,0.846671 V 4e-6 h 13.123333 v 0.846667 z m 0,11.641666 v -0.846666 h 13.123333 v 0.846666 z" transform="translate(3944.19,0.00) scale(80.0747,80.0747)" fill="#000000" />
  <path d="M 75.014662,0.846671 V 4e-6 h 13.123333 v 0.846667 z m 0,11.641666 v -0.846666 h 13.123333 v 0.846666 z" transform="translate(4995.04,0.00) scale(80.0747,80.0747)" fill="#000000" />
  <path d="m 87.714667,4e-6 h 2.8575 q 1.481666,0 2.54,1.058334 1.058333,1.058333 1.058333,2.54 v 5.291666 q 0,1.481667 -1.058333,2.54 -1.058334,1.058333 -2.54,1.058333 h -2.8575 v -0.846666 h 2.8575 q 1.132416,0 1.93675,-0.814917 0.814916,-0.804333 0.814916,-1.93675 V 3.598338 q 0,-1.132417 -0.814916,-1.93675 -0.804334,-0.814917 -1.93675,-0.814917 h -2.8575 z" transform="translate(5028.94,0.00) scale(80.0747,80.0747)" fill="#000000" />
  <path d="M 562.37,129.59 C 562.37,168.42 541.80,203.48 504.34,203.48 C 457.22,203.48 422.03,167.43 420.10,131.54 C 418.20,123.70 417.31,115.86 417.31,108.15 C 417.31,75.57 433.17,45.44 455.80,26.84 C 455.84,25.68 455.87,25.02 455.87,25.02 L 458.00,25.09 C 471.42,14.70 487.79,7.71 506.07,7.02 L 506.81,26.78 C 518.12,27.17 525.86,27.43 538.13,39.71 C 543.11,44.69 562.69,67.03 562.69,110.58 C 562.69,114.54 562.50,118.47 562.11,122.33 C 562.28,124.71 562.37,127.13 562.37,129.59  Z M 512.00,122.00 C 512.00,118.86 512.63,117.38 512.63,111.28 C 512.63,98.56 509.72,84.93 504.08,76.70 L 478.03,75.80 C 471.40,85.23 467.42,97.04 467.42,108.69 C 467.42,118.90 470.00,121.32 469.99,128.10 C 469.99,140.27 488.52,152.83 499.42,153.01 C 502.46,153.06 504.00,153.60 505.06,153.60 C 506.61,153.60 512.33,144.59 512.33,128.93 C 512.33,127.53 512.00,122.07 512.00,122.00  Z M 392.18,710.51 C 394.59,710.51 440.05,711.08 440.54,711.08 C 545.86,711.08 656.56,700.02 760.54,677.69 C 713.81,557.34 588.95,474.11 520.96,354.41 C 441.54,473.78 341.82,588.03 269.78,710.52 C 282.93,711.18 296.19,711.41 309.68,711.41 C 336.82,711.41 363.77,710.51 392.18,710.51  Z M 392.24,760.51 C 363.89,760.51 336.11,761.42 309.05,761.42 C 281.74,761.42 254.16,760.50 225.73,756.78 C 213.35,755.16 204.00,744.61 204.00,732.00 C 204.00,727.93 204.99,723.86 206.97,720.18 C 291.31,563.03 421.08,425.84 509.59,279.08 L 537.54,295.93 L 546.08,292.38 C 547.74,296.37 549.48,300.32 551.30,304.23 L 552.42,304.90 C 552.27,305.15 552.12,305.40 551.97,305.65 C 616.04,441.50 772.25,529.99 817.06,689.20 C 817.68,691.42 818.00,693.71 818.00,696.00 C 818.00,707.71 809.92,717.69 798.78,720.32 C 683.01,747.68 558.80,761.07 440.63,761.07 C 440.15,761.07 393.01,760.51 392.24,760.51 Z" transform="translate(1669.62,100.00) scale(0.8000,0.8000)" fill="#000000" />
  <path d="M 484.85,140.72 C 498.91,135.89 508.23,120.14 508.23,108.48 C 508.23,106.67 508.00,106.13 508.00,104.00 C 508.00,101.90 508.27,99.80 508.79,97.76 C 507.10,97.00 506.12,97.00 505.00,97.00 C 504.40,97.00 504.40,97.00 467.34,95.23 C 460.88,102.77 457.18,113.06 457.18,123.45 C 457.18,128.76 458.00,130.25 458.00,134.00 C 458.00,135.67 457.83,137.34 457.50,138.99 C 467.93,140.38 479.80,140.38 484.85,140.72  Z M 407.16,123.19 C 407.16,64.28 457.98,35.00 477.00,35.00 L 489.00,35.00 L 489.00,46.21 L 505.38,46.99 C 505.57,46.99 505.75,46.99 505.94,46.99 C 535.01,46.99 558.86,68.41 558.86,97.33 C 558.86,100.07 558.64,102.85 558.18,105.65 C 558.23,106.79 558.26,107.93 558.26,109.06 C 558.26,146.76 528.94,182.95 492.03,190.49 C 490.37,190.83 488.69,191.00 487.00,191.00 C 486.58,191.00 456.43,190.11 444.99,187.77 C 425.76,183.84 405.91,171.34 405.91,144.93 C 405.91,140.47 406.52,136.15 407.56,131.93 C 407.29,129.02 407.16,126.10 407.16,123.19  Z M 475.99,304.03 C 367.51,354.20 275.90,489.17 275.90,607.03 C 275.90,608.96 275.92,610.89 275.97,612.81 C 275.97,612.81 283.94,730.30 283.94,730.32 L 234.06,733.70 C 225.90,613.35 225.90,613.35 225.90,606.73 C 225.90,460.75 338.22,308.22 463.19,255.00 C 466.31,253.67 469.66,253.00 473.00,253.00 C 474.28,253.00 535.68,258.03 587.30,309.65 C 665.60,387.94 681.85,525.26 695.34,640.23 C 698.12,663.90 700.75,686.25 703.72,706.31 L 703.73,706.36 L 654.28,713.69 C 651.14,692.55 648.47,669.77 645.70,646.10 C 628.28,497.70 606.66,331.93 475.99,304.03 Z" transform="translate(2720.47,100.00) scale(0.8000,0.8000)" fill="#000000" />
  <path d="M 279.55,951.29 C 280.33,959.20 280.33,959.20 280.33,961.93 C 280.33,985.67 261.88,991.17 253.70,991.17 C 249.28,991.17 245.83,990.10 243.37,989.07 L 262.59,942.94 L 236.85,948.17 L 230.33,961.99 C 230.21,958.86 229.25,953.73 229.25,947.81 C 229.25,944.65 229.41,937.13 233.87,930.52 C 248.98,902.95 288.94,836.88 371.44,836.88 C 372.52,836.88 373.60,836.90 374.69,836.92 C 379.55,835.97 384.39,835.49 389.14,835.49 C 427.39,835.49 445.04,865.25 458.70,888.29 C 472.69,911.89 479.28,919.81 490.81,919.81 C 493.66,919.81 497.30,919.33 502.16,917.95 C 502.91,917.74 503.66,917.57 504.42,917.43 C 532.92,912.15 556.89,876.04 567.39,845.78 C 567.39,845.78 614.63,862.17 614.61,862.22 C 609.28,877.60 579.87,953.43 514.74,966.35 C 506.56,968.57 498.52,969.71 490.78,969.71 C 423.18,969.71 414.23,885.37 389.31,885.37 C 384.74,885.37 382.33,887.00 377.00,887.00 C 375.81,887.00 374.26,886.86 370.99,886.86 C 343.40,886.86 310.53,896.73 279.55,951.29  Z M 312.05,735.45 C 394.84,735.45 484.55,719.15 572.98,719.15 C 589.31,719.15 605.66,719.70 622.01,721.00 L 623.20,721.00 C 576.40,642.58 526.57,564.31 474.64,486.78 C 444.44,551.54 400.48,608.47 358.62,663.16 C 339.95,687.54 321.63,711.50 304.90,735.40 C 307.28,735.43 309.66,735.45 312.05,735.45  Z M 739.76,83.70 C 730.46,83.67 709.10,91.78 690.85,91.78 C 683.12,91.78 672.75,90.37 663.58,83.64 C 661.10,83.43 658.46,83.33 655.69,83.33 C 621.21,83.33 564.31,99.00 545.00,99.00 C 543.85,99.00 527.25,98.70 511.53,98.70 C 477.64,98.70 451.60,98.70 401.87,108.52 C 358.79,117.03 315.06,118.01 276.61,123.99 C 424.60,319.18 567.32,525.74 688.60,733.40 C 690.86,737.28 692.00,741.64 692.00,746.00 C 692.00,759.81 680.81,771.00 667.00,771.00 L 621.00,771.00 C 618.01,771.00 602.36,769.17 573.58,769.17 C 487.28,769.17 397.97,785.45 312.50,785.45 C 304.61,785.45 296.73,785.31 288.88,785.01 C 288.82,785.01 288.76,785.01 288.70,785.01 C 286.84,785.07 284.60,785.17 282.04,785.17 C 261.02,785.17 253.42,778.71 248.90,774.19 C 242.73,768.02 239.91,759.18 239.91,751.19 C 239.91,744.50 241.81,739.86 243.92,736.54 C 307.31,637.40 400.41,545.42 441.22,437.41 C 368.07,330.47 291.24,225.20 213.13,123.18 C 209.71,118.71 208.00,113.36 208.00,108.00 C 208.00,107.19 208.20,89.35 225.78,84.07 C 280.29,67.68 336.88,70.35 391.87,59.53 C 432.78,50.54 470.46,48.70 510.99,48.70 C 521.76,48.70 532.73,48.83 544.02,48.99 C 574.88,45.99 616.18,33.06 653.36,33.06 C 662.23,33.06 671.10,33.76 679.84,35.48 C 684.29,36.35 688.54,38.43 692.06,41.73 C 703.48,41.11 721.01,33.68 739.18,33.68 C 744.43,33.68 761.06,34.05 772.54,48.41 L 733.49,79.63 C 735.06,81.51 737.70,82.31 739.76,83.70 Z" transform="translate(3771.31,100.00) scale(0.8000,0.8000)" fill="#000000" />
  <path d="M 394.00,124.00 C 394.00,81.45 444.29,65.03 462.44,59.10 C 462.44,59.10 462.90,53.08 462.93,53.08 C 494.27,55.49 494.27,55.49 498.95,58.04 C 514.72,66.62 544.03,82.57 544.03,118.54 C 544.03,118.87 544.02,119.19 544.02,119.52 C 544.10,120.95 544.14,122.38 544.14,123.81 C 544.14,157.82 521.51,193.00 485.48,193.00 C 467.69,193.00 430.32,180.54 399.02,139.03 C 395.68,134.60 394.00,129.30 394.00,124.00  Z M 486.35,142.95 C 488.73,142.04 494.13,133.57 494.13,123.32 C 494.13,121.96 494.00,121.60 494.00,120.00 C 494.00,118.93 494.08,118.15 494.08,117.18 C 494.08,115.59 494.08,113.18 481.33,105.54 C 468.40,109.74 456.48,113.88 448.31,119.91 C 453.65,125.47 469.09,140.05 486.35,142.95  Z M 446.02,428.68 C 446.02,427.98 445.86,367.32 445.86,366.70 C 445.86,326.74 446.47,286.29 450.11,245.75 C 450.11,245.75 499.90,250.22 499.89,250.25 C 496.44,288.67 495.85,328.01 495.85,367.85 C 495.85,368.62 496.01,428.05 496.01,428.66 C 496.01,441.70 496.01,442.63 494.33,446.99 C 483.61,474.89 479.21,498.48 479.21,518.20 C 479.21,626.87 616.98,643.92 686.53,643.92 C 703.77,643.92 715.09,643.00 717.00,643.00 L 827.46,645.01 C 827.46,645.01 826.55,694.99 826.54,694.99 C 717.52,693.01 717.52,693.01 717.52,693.01 C 707.08,693.62 696.55,693.94 685.98,693.94 C 541.10,693.94 429.22,635.50 429.22,518.13 C 429.22,492.19 434.72,463.99 446.01,433.40 C 446.02,431.83 446.02,430.26 446.02,428.68  Z M 162.45,275.00 C 332.96,267.45 512.54,213.00 685.47,213.00 C 685.98,213.00 686.49,213.00 687.00,213.00 C 687.04,213.00 802.32,213.00 834.66,213.00 L 844.02,205.98 C 844.02,205.98 874.02,245.99 873.98,246.02 C 857.98,258.02 857.98,258.02 857.98,258.02 C 853.56,261.34 848.28,263.00 843.00,263.00 L 685.59,263.00 C 518.31,263.00 339.14,317.32 164.10,324.97 C 163.73,324.99 163.37,325.00 163.00,325.00 L 151.00,325.00 L 151.00,275.00 L 162.45,275.00 Z" transform="translate(4822.16,100.00) scale(0.8000,0.8000)" fill="#000000" />
  <path d="M 511.28,25.10 C 512.85,25.10 517.81,25.00 517.87,25.00 C 549.57,25.00 583.54,46.86 599.87,65.60 C 603.95,70.29 606.00,76.14 606.00,82.00 C 606.00,91.26 604.15,82.61 600.25,117.26 C 597.39,142.60 594.27,170.26 575.80,188.73 C 573.99,190.54 558.85,205.00 537.00,205.00 C 535.74,205.00 445.42,198.95 425.64,146.91 C 424.15,143.00 423.42,136.54 423.42,127.50 C 423.42,99.78 432.93,71.54 452.07,51.20 L 446.64,39.24 C 471.02,28.16 471.02,28.16 473.59,27.59 C 483.71,25.36 492.19,24.93 499.15,24.93 C 503.52,24.93 506.85,25.10 511.28,25.10  Z M 501.75,77.00 C 483.80,81.87 473.47,107.70 473.47,128.46 C 473.47,131.51 473.47,131.51 475.48,133.52 C 482.57,140.61 502.29,150.19 537.44,154.86 C 545.54,153.62 548.40,130.91 550.57,111.62 C 551.35,104.72 552.05,97.61 553.30,90.40 C 551.98,89.39 532.81,74.99 517.71,74.99 C 517.36,74.99 515.04,75.09 511.26,75.09 C 510.48,75.09 509.73,75.08 509.00,75.07 L 509.00,77.00 L 501.75,77.00  Z M 179.96,701.01 C 179.96,701.11 180.20,710.60 180.20,710.86 C 180.20,724.06 176.92,738.87 163.58,750.71 L 130.43,713.36 C 130.46,712.83 130.18,712.01 130.18,710.91 C 130.18,706.74 129.88,704.02 129.88,700.00 C 129.88,695.51 130.27,689.98 132.00,683.90 L 132.00,595.14 C 131.39,588.20 131.09,581.29 131.09,574.43 C 131.09,431.92 261.15,306.50 405.85,306.50 C 414.04,306.50 424.71,306.50 430.50,308.87 C 464.78,322.92 494.83,350.67 510.23,401.49 C 519.17,359.67 535.37,316.53 570.38,285.33 C 575.10,281.11 581.05,279.00 587.00,279.00 C 588.16,279.00 643.17,285.03 690.42,332.27 C 770.07,411.92 779.99,554.14 787.57,664.05 C 788.96,684.25 790.26,703.03 791.88,719.59 L 742.12,724.45 C 740.41,706.88 739.09,687.72 737.70,667.52 C 728.50,534.22 715.33,367.60 594.66,331.72 C 527.03,408.83 562.03,586.34 524.78,701.71 C 521.52,711.83 512.03,719.00 501.00,719.00 C 490.34,719.00 481.15,712.31 477.59,702.78 C 472.27,688.54 470.88,674.06 470.88,660.20 C 470.88,644.17 472.93,625.30 472.93,607.65 C 472.93,591.42 471.92,602.52 471.92,579.41 C 471.92,558.61 472.71,536.95 472.71,513.33 C 472.71,440.00 464.42,379.40 415.12,356.70 C 412.11,356.56 409.10,356.50 406.09,356.50 C 289.03,356.50 181.09,459.31 181.09,574.64 C 181.09,583.02 182.00,593.81 182.00,594.00 L 182.00,688.00 C 182.00,691.21 181.38,694.41 180.16,697.43 C 180.16,697.43 179.96,698.02 179.96,701.01 Z" transform="translate(5873.01,100.00) scale(0.8000,0.8000)" fill="#000000" />
  <path d="M 263.20,147.66 C 263.20,211.90 311.50,261.37 366.33,278.10 C 366.33,278.10 351.73,325.92 351.67,325.90 C 274.13,302.24 213.22,232.48 213.22,147.57 C 213.22,141.74 213.46,129.20 215.45,123.60 C 238.60,58.47 315.71,43.96 377.90,32.25 C 392.95,29.42 407.02,26.75 418.85,23.77 C 420.82,23.27 422.83,23.02 424.85,23.01 L 752.85,21.01 L 753.15,70.99 L 428.14,72.98 C 393.59,81.37 348.87,86.55 314.49,98.75 C 277.38,111.93 267.59,128.15 263.58,137.72 C 263.33,141.07 263.20,144.38 263.20,147.66  Z M 542.52,135.87 C 542.94,135.87 584.45,134.64 584.74,134.64 C 605.27,134.64 628.28,137.16 652.57,149.83 C 654.87,151.03 666.00,157.59 666.00,172.00 L 666.00,178.00 L 619.64,178.00 L 629.43,194.17 C 614.66,186.46 601.63,184.61 585.72,184.61 C 585.29,184.61 545.13,185.88 542.64,185.88 C 536.98,185.88 531.05,185.71 524.87,185.25 C 467.43,199.78 394.55,260.59 393.93,325.38 C 414.96,379.12 488.04,408.98 537.68,458.62 C 564.56,485.50 586.02,520.64 586.02,567.44 C 586.02,579.35 578.60,613.12 553.16,638.56 C 511.82,679.90 445.48,682.62 385.37,685.08 C 365.18,685.90 346.18,686.73 330.22,688.79 C 329.11,688.93 325.42,689.23 320.82,689.23 C 293.47,689.23 268.84,678.85 249.93,671.60 C 247.93,670.83 245.98,670.08 244.11,669.37 C 244.11,669.37 261.84,622.61 261.89,622.63 C 284.84,631.33 305.59,639.20 321.90,639.20 C 322.51,639.20 336.22,637.06 383.31,635.13 C 465.86,631.75 523.68,626.30 536.03,567.38 C 536.03,567.34 536.03,567.29 536.03,567.24 C 536.03,516.08 500.02,487.99 447.25,449.83 C 406.13,420.09 362.68,388.66 345.36,338.13 C 344.12,334.52 343.93,331.80 343.93,325.97 C 343.93,232.87 438.85,152.93 517.60,135.59 C 519.37,135.20 521.19,135.00 523.00,135.00 C 523.20,135.00 533.14,135.87 542.52,135.87 Z" transform="translate(6923.85,100.00) scale(0.8000,0.8000)" fill="#000000" />
  <path d="M 178.29,277.39 C 178.29,276.09 177.65,255.13 177.65,254.90 C 177.65,234.20 182.19,225.03 189.87,217.79 L 224.13,254.21 C 225.61,252.44 226.72,250.31 228.05,248.40 C 227.90,249.14 227.78,251.99 227.78,255.85 C 227.78,258.59 228.38,276.70 228.38,276.91 C 228.38,286.09 227.13,288.79 227.13,302.45 C 227.13,326.43 231.74,354.12 240.88,379.68 C 246.27,394.78 273.28,466.05 332.27,469.04 C 338.14,469.33 351.83,474.59 371.42,474.59 C 396.46,474.59 445.27,467.99 461.84,354.49 C 461.26,346.85 460.98,339.20 460.98,331.62 C 460.98,307.86 463.74,284.71 468.70,264.11 C 471.38,253.03 481.33,245.00 493.00,245.00 C 506.81,245.00 518.00,256.19 518.00,270.00 C 518.00,270.86 517.54,316.01 512.18,355.80 C 514.66,382.35 526.76,456.09 584.57,456.09 C 590.84,456.09 597.81,455.30 605.61,453.59 C 606.28,453.44 606.95,453.32 607.63,453.23 C 703.50,440.29 739.18,318.31 748.29,258.23 C 750.13,246.09 760.58,237.00 773.00,237.00 C 785.39,237.00 795.81,246.03 797.70,258.13 C 809.13,331.57 802.56,409.36 807.88,481.56 C 810.07,499.84 811.15,517.12 811.15,533.43 C 811.15,742.33 635.97,762.20 510.75,762.20 C 428.76,762.20 340.51,752.43 267.51,752.43 C 258.04,752.43 248.87,752.60 240.06,752.97 L 237.92,703.03 C 247.75,702.61 257.81,702.42 268.09,702.42 C 342.07,702.42 428.91,712.11 511.12,712.11 C 671.94,712.11 761.25,672.71 761.25,534.39 C 761.25,519.95 760.27,504.20 758.19,487.03 C 756.72,474.93 755.66,438.72 755.32,396.17 C 738.81,426.01 696.51,491.18 615.38,502.63 C 605.21,504.79 595.40,505.83 586.01,505.83 C 565.78,505.83 518.64,501.25 487.51,447.06 C 476.62,469.94 445.60,524.58 371.44,524.58 C 357.52,524.58 342.74,522.66 327.12,518.80 C 229.63,511.80 177.10,394.51 177.10,303.13 C 177.10,288.31 178.29,283.12 178.29,277.39  Z M 482.30,108.14 C 483.59,111.08 486.57,118.29 486.57,127.60 C 486.57,129.56 486.43,131.56 486.14,133.60 C 486.19,134.69 486.21,135.80 486.21,136.92 C 486.21,172.64 462.69,186.48 449.67,192.62 C 446.30,194.20 442.65,195.00 439.00,195.00 C 431.66,195.00 430.03,192.63 424.28,191.27 C 415.92,189.30 389.88,183.14 389.88,153.76 C 389.88,119.99 410.49,102.84 431.07,86.65 C 438.71,80.63 443.00,77.05 445.85,73.91 C 445.85,73.91 446.30,72.79 446.34,72.81 C 447.07,73.10 467.42,81.42 479.61,102.81 L 483.80,106.49 C 483.30,107.05 482.80,107.60 482.30,108.14 Z" transform="translate(7974.70,100.00) scale(0.8000,0.8000)" fill="#000000" />
  <path d="M 308.00,222.00 C 308.00,221.06 308.12,218.78 308.12,214.56 C 308.12,200.07 306.14,140.92 274.62,117.52 C 266.43,118.82 266.43,118.82 266.20,118.85 C 153.66,215.68 148.89,406.55 145.20,568.63 C 144.43,602.28 144.04,616.80 143.87,618.46 L 133.87,720.46 C 133.87,720.46 84.12,715.58 84.13,715.54 C 94.04,614.39 94.04,614.39 94.04,614.39 C 94.50,599.22 94.85,583.54 95.22,567.48 C 99.14,395.34 103.94,184.51 241.39,74.47 C 245.94,70.83 251.47,69.00 257.00,69.00 C 258.06,69.00 259.11,69.07 260.16,69.20 C 260.98,69.09 262.45,68.87 264.25,68.56 C 267.72,67.97 272.40,66.92 278.67,66.92 C 283.28,66.92 287.89,67.29 292.94,70.03 C 312.90,80.88 335.48,102.36 348.42,144.82 C 355.46,167.93 358.12,192.07 358.12,214.11 C 358.12,216.57 358.09,219.01 358.02,221.41 C 360.99,261.58 357.56,317.44 366.11,359.54 C 374.56,401.14 391.43,411.43 398.92,415.23 C 399.56,415.25 400.19,415.25 400.83,415.25 C 426.04,415.25 445.34,405.33 462.23,388.44 C 492.03,358.64 511.36,305.56 520.52,260.94 C 520.68,260.18 520.87,259.41 521.10,258.66 C 533.66,217.59 545.29,171.44 547.67,125.40 C 547.38,121.16 547.22,117.02 547.22,112.97 C 547.22,93.20 550.15,87.49 555.32,82.32 C 560.20,77.44 566.60,75.00 573.00,75.00 C 586.56,75.00 597.63,85.80 597.99,99.34 C 598.07,102.49 598.11,105.63 598.11,108.77 C 598.11,113.86 598.00,118.93 597.80,123.97 C 602.60,188.08 640.97,304.59 640.97,399.17 C 640.97,399.64 640.65,432.25 637.27,446.01 C 635.43,453.48 634.74,465.32 634.74,479.64 C 634.74,511.26 637.75,542.42 637.75,574.18 C 637.75,631.72 627.52,662.86 607.58,682.80 C 593.13,697.25 573.78,704.09 551.52,704.09 C 543.18,704.09 534.43,703.13 525.38,701.25 C 512.57,702.35 500.08,702.80 487.86,702.80 C 431.18,702.80 380.41,693.17 324.92,692.99 C 321.93,692.99 320.57,692.46 317.30,692.46 C 309.94,692.46 302.64,696.14 290.65,696.94 L 287.33,647.06 C 292.28,646.73 302.94,642.55 318.02,642.55 C 320.73,642.55 323.58,642.69 326.55,643.01 C 384.15,643.35 434.74,652.79 488.18,652.79 C 508.57,652.79 526.61,651.00 527.00,651.00 C 533.16,651.00 540.80,654.39 552.60,654.39 C 570.06,654.39 587.67,646.56 587.67,574.41 C 587.67,558.57 586.91,541.61 586.10,524.85 C 585.32,508.84 584.37,493.08 584.37,478.05 C 584.37,437.57 590.75,441.09 590.75,401.76 C 590.75,360.18 582.16,310.02 572.38,261.76 C 571.34,265.29 570.29,268.78 569.24,272.22 C 559.08,321.16 539.03,382.35 497.58,423.80 C 473.13,448.24 440.32,465.23 400.37,465.23 C 388.84,465.23 386.19,464.23 383.49,463.13 C 311.99,433.80 310.64,341.42 309.59,269.49 C 309.01,230.08 308.00,222.48 308.00,222.00 Z" transform="translate(9025.55,100.00) scale(0.8000,0.8000)" fill="#000000" />
  <path d="M 485.00,189.00 C 469.68,189.00 438.00,176.21 438.00,126.00 C 438.00,117.97 440.75,112.11 452.24,100.63 C 456.31,96.55 469.86,83.00 483.00,83.00 L 493.00,83.00 L 493.00,85.32 C 505.32,87.38 524.11,100.20 524.11,122.52 C 524.11,123.23 524.09,123.95 524.04,124.66 C 524.08,125.75 524.10,126.85 524.10,127.96 C 524.10,165.31 504.14,189.00 485.00,189.00  Z M 606.10,279.81 C 606.10,279.81 655.90,284.16 655.90,284.19 C 637.90,490.19 637.90,490.19 637.90,490.19 C 637.90,490.19 588.10,485.84 588.10,485.81 C 606.10,279.81 606.10,279.81 606.10,279.81  Z M 429.49,786.96 C 319.70,786.96 228.59,722.79 228.59,616.05 C 228.59,604.31 229.71,592.09 232.04,579.47 C 233.26,492.01 243.62,404.21 258.00,319.86 L 258.00,314.00 L 308.00,314.00 L 308.00,322.00 C 308.00,330.48 283.64,447.79 281.99,582.31 C 281.93,587.51 278.43,598.69 278.43,617.13 C 278.43,699.49 355.82,736.84 430.49,736.84 C 461.27,736.84 478.65,731.00 485.00,731.00 L 679.20,731.00 C 730.13,731.41 774.29,739.46 821.76,739.46 C 827.75,739.46 833.74,739.33 839.77,739.04 L 842.23,788.96 C 835.21,789.31 828.30,789.46 821.48,789.46 C 771.89,789.46 726.49,781.38 678.90,781.00 L 487.62,781.00 C 468.37,784.96 448.81,786.96 429.49,786.96  Z M 733.76,308.43 C 557.65,308.43 334.30,328.57 169.67,332.99 L 168.33,283.01 C 245.61,280.94 324.81,276.25 404.79,271.50 C 513.82,265.02 624.29,258.44 733.52,258.44 C 751.48,258.44 769.40,258.62 787.27,259.00 L 857.80,259.00 C 857.80,259.00 940.61,251.12 940.65,251.12 L 945.39,300.88 C 860.20,309.00 860.20,309.00 859.00,309.00 L 787.00,309.00 C 786.47,309.00 764.15,308.43 733.76,308.43 Z" transform="translate(10076.40,100.00) scale(0.8000,0.8000)" fill="#000000" />
  <path d="M 426.34,506.44 L 451.67,549.56 L 291.66,643.56 C 290.58,644.20 289.45,644.75 288.31,645.21 C 288.31,645.21 258.31,657.21 258.27,657.22 L 239.69,610.79 L 267.95,599.49 L 426.34,506.44  Z M 220.32,92.24 L 249.64,51.73 C 403.26,162.90 403.26,162.90 404.68,164.32 L 426.68,186.32 L 391.32,221.68 L 370.74,201.10 C 370.74,201.10 220.36,92.27 220.32,92.24  Z M 412.42,1.79 C 425.88,-17.66 453.81,-37.10 480.37,-37.10 C 481.06,-37.10 481.75,-37.09 482.45,-37.07 C 483.56,-37.15 484.68,-37.19 485.81,-37.19 C 496.20,-37.19 526.13,-33.36 526.13,10.70 C 526.13,11.12 526.00,19.91 526.00,20.00 C 526.00,20.91 524.70,83.19 489.56,103.62 C 485.77,105.82 481.44,107.15 474.34,107.15 C 460.69,107.15 452.48,102.45 442.02,96.45 C 430.78,95.15 396.62,88.28 396.62,52.87 C 396.62,36.99 404.11,21.80 416.69,4.75 L 412.42,1.79  Z M 467.18,23.70 C 466.63,23.82 465.05,24.28 465.03,24.28 C 456.88,33.96 451.87,41.16 449.01,46.91 C 455.31,47.58 458.35,47.90 468.48,53.98 C 475.41,38.82 476.08,14.20 476.08,13.79 C 474.23,14.35 472.46,15.10 470.60,16.07 L 471.65,16.64 C 469.86,18.65 467.90,20.88 465.90,23.24 L 467.18,23.70  Z M 350.38,315.35 C 350.38,177.00 476.98,82.97 616.69,82.97 C 618.25,82.97 619.82,82.98 621.38,83.01 L 620.62,132.99 C 619.34,132.97 618.06,132.96 616.78,132.96 C 508.34,132.96 400.29,202.94 400.29,314.65 C 400.29,336.19 403.98,348.62 403.99,353.91 C 404.54,499.96 526.18,607.44 666.19,617.03 L 739.68,619.01 L 738.33,668.99 C 689.91,667.68 664.07,666.99 663.32,666.94 C 496.06,655.76 355.88,526.43 354.02,356.34 C 351.56,342.32 350.38,328.64 350.38,315.35 Z" transform="translate(11127.24,100.00) scale(0.8000,0.8000)" fill="#000000" />
</svg>
