<?xml version="1.0" encoding="UTF-8" standalone="no"?>
<!--
Representation of "kala ike" in sitelen ilo pona
Generated by generate_sitelen_kalama_pona.py

Description:
  Representation of "kala ike" in sitelen ilo pona.
  Sources: kala-ike: https://commons.wikimedia.org/wiki/File:Sitelen_seli_kiwen_-_kala-ike.svg

Categories:
  [[Category:Sitelen kalama pona]]
  [[Category:Toki Pona text containing kala ike]]

Sources:
  kala-ike: https://commons.wikimedia.org/wiki/File:Sitelen_seli_kiwen_-_kala-ike.svg
-->
<svg version="1.1" width="862" height="1000"
     viewBox="0 0 862 1000"
     xmlns="http://www.w3.org/2000/svg">
  <path d="M454 358Q432 358 432 384Q432 401 437.5 418.5Q443 436 452 441Q456 444 462 456Q468 469 489.0 479.0Q510 489 530 489Q539 489 546.0 484.5Q553 480 560 480Q573 480 593.0 461.5Q613 443 622 423Q630 407 630 399Q630 394 624.0 380.5Q618 367 618 366Q615 359 605 359Q592 359 577.5 367.5Q563 376 563 386Q563 390 550 407Q536 424 520 424Q508 424 500.0 414.5Q492 405 492 390Q492 377 480.0 367.5Q468 358 454 358ZM410 592Q416 592 431.0 601.5Q446 611 451 611Q458 611 468 615Q495 629 548 629Q619 629 619 616Q619 614 634 612Q648 610 661.0 601.0Q674 592 678 592Q681 592 710.5 561.0Q740 530 753 514Q764 501 773.0 471.0Q782 441 782 416Q782 356 745 315Q741 311 730.0 296.0Q719 281 711 274Q710 274 701.0 265.0Q692 256 685.0 250.5Q678 245 673 245Q665 245 618 221Q611 217 521 217Q457 217 454.0 220.0Q451 223 434.0 226.5Q417 230 414 231Q405 236 389.5 242.0Q374 248 367 251Q352 258 352.0 261.0Q352 264 344.0 264.0Q336 264 327.5 270.5Q319 277 319.0 284.0Q319 291 309 294Q297 298 270.0 323.0Q243 348 238 348Q225 348 201 297Q174 241 155 241Q144 241 138.0 251.0Q132 261 132 275Q132 319 167 368Q183 389 183 395Q183 400 173.0 420.5Q163 441 160 443Q155 445 136.5 484.0Q118 523 118 532Q118 542 128.0 554.5Q138 567 146 567Q149 567 154.5 565.5Q160 564 162 564Q168 564 181 537Q197 506 217 483L230 469L254 492Q267 504 291 528Q301 538 324.0 551.0Q347 564 355 564Q367 564 391 584Q401 592 410 592ZM699 348Q705 348 715.0 374.5Q725 401 725 410Q725 438 718 445Q714 449 712 457Q711 466 691.5 491.5Q672 517 667 517Q663 517 648 530Q618 558 593 561Q551 566 532 566Q502 566 494 559Q490 556 458.5 545.0Q427 534 423 530Q416 523 389 515Q379 512 373.5 510.0Q368 508 364.5 506.0Q361 504 359.0 502.0Q357 500 351.5 496.0Q346 492 340 487Q313 468 297 442Q287 425 287 415Q287 401 303 384Q319 366 319 361Q319 358 325 358Q329 358 352.5 339.0Q376 320 380 320Q388 320 393 311Q399 302 416 300Q474 291 492 280Q501 274 514 274Q529 274 592 281Q618 283 656.0 306.0Q694 329 694 342Q694 348 699 348Z" transform="translate(0.00,958.33) scale(0.9583,-0.9583)" fill="#000000" />
</svg>
