<?xml version="1.0" encoding="UTF-8" standalone="no"?>
<!--
Representation of "seme li sin lon ma ale" in sitelen kalama pona
Generated by generate_sitelen_kalama_pona.py

Description:
  Representation of "seme li sin lon ma ale" in sitelen kalama pona.
  Sources: seme: https://commons.wikimedia.org/wiki/File:Sitelen_seli_kiwen_-_seme.svg; li: https://commons.wikimedia.org/wiki/File:Sitelen_seli_kiwen_-_li.svg; sin: https://commons.wikimedia.org/wiki/File:Sitelen_seli_kiwen_-_sin.svg; lon: https://commons.wikimedia.org/wiki/File:Sitelen_seli_kiwen_-_lon.svg; ma-ale: https://commons.wikimedia.org/wiki/File:Sitelen_seli_kiwen_-_ma-ale.svg

Categories:
  [[Category:Sitelen kalama pona]]
  [[Category:Toki Pona text containing seme li sin lon ma ale]]

Sources:
  seme: https://commons.wikimedia.org/wiki/File:Sitelen_seli_kiwen_-_seme.svg
  li: https://commons.wikimedia.org/wiki/File:Sitelen_seli_kiwen_-_li.svg
  sin: https://commons.wikimedia.org/wiki/File:Sitelen_seli_kiwen_-_sin.svg
  lon: https://commons.wikimedia.org/wiki/File:Sitelen_seli_kiwen_-_lon.svg
  ma-ale: https://commons.wikimedia.org/wiki/File:Sitelen_seli_kiwen_-_ma-ale.svg
-->
<svg version="1.1" width="4632" height="1000"
     viewBox="0 0 4632 1000"
     xmlns="http://www.w3.org/2000/svg">
  <path d="M409 100Q409 102 414.5 110.0Q420 118 432.0 127.0Q444 136 457 136Q472 136 482.0 129.5Q492 123 497 123Q503 123 513.5 112.0Q524 101 524 85Q524 20 481 20Q467 20 449.0 27.0Q431 34 431 39Q431 41 416.5 56.5Q402 72 402 83Q402 89 405.5 91.0Q409 93 409 100ZM173 651Q173 660 205.5 696.0Q238 732 238 734Q238 738 247.0 738.0Q256 738 269 746Q286 756 329.0 761.0Q372 766 376 770Q380 773 405.0 780.5Q430 788 440 788Q448 788 467.5 783.0Q487 778 499 778Q508 778 519.0 780.0Q530 782 535 782Q544 782 567.5 771.5Q591 761 606 757Q625 752 640.0 742.5Q655 733 655.0 726.0Q655 719 662 719Q664 719 675.5 711.0Q687 703 705.0 681.5Q723 660 733.0 633.0Q743 606 743 596Q743 591 739.5 574.0Q736 557 736 543Q736 541 736.5 538.0Q737 535 737 534Q741 517 736 517Q734 517 730.5 510.0Q727 503 718.5 488.5Q710 474 698 461Q663 422 656 411Q644 395 638 395Q633 395 609.0 383.0Q585 371 563.5 359.0Q542 347 541.0 346.0Q540 345 517.5 326.5Q495 308 493 296Q491 283 486 283Q482 283 482 267Q482 230 436 230Q410 230 410 255Q410 261 414.5 280.5Q419 300 434.5 331.5Q450 363 473 381Q497 400 503 400Q507 400 514.5 409.5Q522 419 529 419Q534 419 540.5 424.0Q547 429 562 433Q581 439 581 444Q581 450 598 461Q625 478 647.5 510.0Q670 542 670 574Q670 610 646.5 639.0Q623 668 599.5 683.0Q576 698 576 699Q576 702 568.0 703.0Q560 704 550.0 705.0Q540 706 536 709Q526 717 450 717Q388 717 344.5 701.5Q301 686 294 686Q288 686 278.0 677.5Q268 669 254.5 655.5Q241 642 234 637Q213 619 213 584Q213 563 220.5 535.5Q228 508 228 505Q228 498 220.0 491.0Q212 484 203 484Q188 484 173 500Q162 512 159.5 521.0Q157 530 157 563Q157 594 159.5 612.0Q162 630 165.0 633.0Q168 636 170.5 640.0Q173 644 173 651Z" transform="translate(0.00,958.33) scale(0.9583,-0.9583)" fill="#000000" />
  <path d="M281 756Q295 756 318.5 734.0Q342 712 359.0 691.0Q376 670 376 668Q376 665 384.0 657.0Q392 649 404.0 636.5Q416 624 423 615Q435 600 479.0 553.0Q523 506 531 501Q539 496 539 492Q539 488 585.5 446.0Q632 404 641 399Q647 396 649.0 391.5Q651 387 649 375Q648 360 638.0 348.0Q628 336 619.0 329.0Q610 322 610 317Q610 314 580.5 291.5Q551 269 549 269Q544 269 544.0 263.0Q544 257 533.5 246.5Q523 236 518 236Q512 236 512 231Q512 227 505 227Q501 227 495.0 216.5Q489 206 478 202Q465 197 465 191Q465 184 461 184Q457 184 441.5 169.0Q426 154 406.0 133.0Q386 112 378 105Q345 76 345 62Q345 50 339.0 42.0Q333 34 324.0 31.5Q315 29 309.5 28.0Q304 27 300 27Q286 27 273.0 35.5Q260 44 257 45Q250 48 250 58Q250 70 259.5 84.5Q269 99 282 106Q295 112 314.5 133.5Q334 155 340 160Q362 179 385.0 203.0Q408 227 408 230Q408 233 419.5 242.5Q431 252 451.0 268.5Q471 285 485 299Q537 352 550.0 366.0Q563 380 563 385Q563 387 549.5 399.5Q536 412 520.0 425.5Q504 439 502 441Q465 481 465 485Q465 488 418.0 535.0Q371 582 371 586Q371 589 354.5 600.5Q338 612 338 619Q338 626 294.5 666.5Q251 707 251 718Q251 730 260.0 743.0Q269 756 281 756Z" transform="translate(942.50,958.33) scale(0.9583,-0.9583)" fill="#000000" />
  <path d="M801 231Q801 215 794.5 206.5Q788 198 782.5 197.0Q777 196 766 196L726 197Q687 198 643.5 199.5Q600 201 589 201H541L534 217Q528 231 528 232Q528 238 537 254L548 274L616 271Q709 268 719 268L756 269Q785 269 785 262Q785 257 793.0 250.5Q801 244 801 231ZM99 237Q99 273 135 273Q169 273 200.5 268.0Q232 263 267 262Q357 261 357 223Q357 204 344.5 197.5Q332 191 299 191Q292 191 176 196Q153 197 143.0 198.0Q133 199 120.5 203.0Q108 207 103.5 215.0Q99 223 99 237ZM416 310Q416 315 418.0 336.5Q420 358 420 385Q420 424 417.0 430.5Q414 437 414 462V488Q414 502 422.5 515.5Q431 529 444 529Q448 529 455.5 527.5Q463 526 473.5 515.0Q484 504 484 485Q484 481 481.5 471.5Q479 462 479 436Q479 427 480.0 400.5Q481 374 481 355Q481 311 474.5 293.0Q468 275 453 275Q416 275 416 310Z" transform="translate(1885.00,958.33) scale(0.9583,-0.9583)" fill="#000000" />
  <path d="M150 252Q150 262 160.5 276.5Q171 291 190 291Q216 291 250.5 285.5Q285 280 296 280Q319 279 382.5 276.0Q446 273 458 273Q470 273 485.5 275.0Q501 277 506 277Q514 277 524.5 272.5Q535 268 538 269Q542 270 614.0 271.0Q686 272 702 278Q713 282 717.5 281.5Q722 281 730 276Q750 263 750 244Q750 213 712 213Q712 213 708.0 213.0Q704 213 695.5 213.5Q687 214 677.0 214.0Q667 214 652.0 214.0Q637 214 622 214Q611 214 601.0 214.0Q591 214 584.5 214.0Q578 214 573.0 213.5Q568 213 566.0 213.0Q564 213 563.5 213.0Q563 213 547.0 213.5Q531 214 505.5 214.5Q480 215 451.5 215.5Q423 216 394.0 216.5Q365 217 346 217Q333 217 322.0 217.0Q311 217 304.0 216.5Q297 216 291.5 216.0Q286 216 283.5 216.0Q281 216 280 216Q273 216 234.5 219.5Q196 223 184 224Q169 225 159.5 233.0Q150 241 150 252ZM388 467Q388 471 393.0 483.0Q398 495 412.5 508.0Q427 521 446 521Q471 521 489.5 491.0Q508 461 508 441Q508 422 487.5 410.0Q467 398 446.0 398.0Q425 398 406.5 422.5Q388 447 388 467Z" transform="translate(2827.50,958.33) scale(0.9583,-0.9583)" fill="#000000" />
  <path d="M224 229Q224 255 232.5 273.0Q241 291 248.5 296.5Q256 302 258 302Q262 302 282.0 322.0Q302 342 302 347Q302 354 333.5 366.0Q365 378 388 380Q409 382 422.0 387.5Q435 393 437 393Q439 393 441 393Q444 392 448 392Q454 392 483.5 395.5Q513 399 532 399Q546 399 557.0 395.5Q568 392 596 378Q637 358 658.0 338.5Q679 319 695 287Q704 267 704 254Q704 225 677.0 179.0Q650 133 636 133Q634 133 632.0 131.5Q630 130 627.0 127.0Q624 124 613.5 119.0Q603 114 587 109Q549 97 544 95Q505 80 440 80Q409 80 360.0 100.0Q311 120 287 143Q267 161 264 161Q259 161 243 177Q235 184 232.0 188.0Q229 192 226.5 202.0Q224 212 224 229ZM605 297Q604 302 585.5 312.0Q567 322 550.0 330.0Q533 338 532 338Q532 338 509 336L487 334L489 280L509 278Q521 276 548.0 275.0Q575 274 597.0 273.0Q619 272 623 270Q630 267 630 272Q630 279 619 284Q607 289 605 297ZM422 284Q422 288 419.0 289.5Q416 291 416 306Q416 315 399 315Q377 315 346.5 294.0Q316 273 316 262Q316 256 326 256Q329 256 334 257Q347 260 366 262Q422 270 422 284ZM507 157Q520 157 537.5 161.5Q555 166 566.5 170.5Q578 175 579 175Q585 175 596.5 186.0Q608 197 608 202Q608 206 578 206Q564 206 560 203Q551 199 524 202L494 205L495 182Q496 157 507 157ZM429 188Q429 198 427.0 200.5Q425 203 416 203Q410 203 370.0 195.5Q330 188 330 185Q330 184 349.5 175.5Q369 167 391.0 158.5Q413 150 417 150Q418 150 418 150Q429 155 429 188ZM278 669Q315 669 364.0 649.5Q413 630 423 630Q432 630 449.0 636.5Q466 643 469 648Q471 652 485.0 660.0Q499 668 524.0 675.5Q549 683 571 683Q588 683 623 674Q666 662 666 611Q666 575 657.0 548.0Q648 521 640.0 512.0Q632 503 630 503Q627 503 609.0 492.0Q591 481 578 481Q554 481 515.0 495.0Q476 509 471 518Q466 526 450 533L434 540L414 519Q393 498 390 498Q386 498 367 483Q359 477 354.0 474.0Q349 471 336.5 468.5Q324 466 305 466Q282 466 268 470Q255 475 241.0 489.5Q227 504 227 513Q227 514 211.5 541.0Q196 568 196 584Q196 592 200 598Q207 609 202 617Q201 619 201 623Q201 631 205.5 639.5Q210 648 215 648Q218 648 223.0 653.0Q228 658 241.5 663.5Q255 669 278 669ZM554 546Q612 546 612 598Q612 621 591 621Q587 621 583.0 620.0Q579 619 576.5 618.0Q574 617 574 617Q574 615 571.0 614.5Q568 614 551 614Q537 614 520.5 606.0Q504 598 494.5 590.0Q485 582 485 579Q485 574 511.0 560.0Q537 546 554 546ZM271 554Q271 543 282.0 537.0Q293 531 305 531Q317 531 324.0 535.0Q331 539 340.0 547.0Q349 555 358 560Q373 568 373 579Q373 593 350.5 601.0Q328 609 306 612L280 615L275 581Q271 555 271 554Z" transform="translate(3770.00,958.33) scale(0.9583,-0.9583)" fill="#000000" />
</svg>
