<?xml version="1.0" encoding="UTF-8" standalone="no"?>
<!--
Representation of "kule telo" in sitelen kalama pona
Generated by generate_sitelen_kalama_pona.py

Description:
  Representation of "kule telo" in sitelen kalama pona.
  Sources: kule-telo: https://commons.wikimedia.org/wiki/File:Sitelen_seli_kiwen_-_kule-telo.svg

Categories:
  [[Category:Sitelen kalama pona]]
  [[Category:Toki Pona text containing kule telo]]

Sources:
  kule-telo: https://commons.wikimedia.org/wiki/File:Sitelen_seli_kiwen_-_kule-telo.svg
-->
<svg version="1.1" width="862" height="1000"
     viewBox="0 0 862 1000"
     xmlns="http://www.w3.org/2000/svg">
  <path d="M576 241Q637 241 637 210Q637 196 627.5 183.0Q618 170 605 170Q595 170 595 163Q595 158 600.5 147.0Q606 136 613.5 123.5Q621 111 622 109Q635 81 646 75Q651 72 657.0 57.0Q663 42 663 35Q663 28 651 14Q636 -2 625 -2Q614 -2 604.0 0.5Q594 3 590 3Q586 3 570.5 -1.0Q555 -5 549 -5Q545 -5 544 -4Q530 3 478.0 7.5Q426 12 384 12H377Q343 12 334 -2Q327 -12 309 -12Q294 -12 286.5 -6.5Q279 -1 272 15Q268 25 268.5 30.0Q269 35 276 46Q283 58 286.5 72.5Q290 87 295 98Q304 116 304 125Q304 132 310 142Q316 152 312.0 158.0Q308 164 298 162H291Q263 162 246 195Q234 218 239 227Q243 235 248.5 236.0Q254 237 295 239Q340 240 343 246Q362 284 366.5 297.5Q371 311 371 325Q371 346 378.0 355.0Q385 364 385 374Q386 387 394.0 411.5Q402 436 409 443Q415 450 426 450Q437 450 446.0 442.5Q455 435 455 424Q455 420 462.0 408.0Q469 396 469 392Q469 384 483 367Q496 351 508.0 327.0Q520 303 520 295Q520 288 524 288Q526 288 536 267Q548 237 558 237Q561 237 566.0 239.0Q571 241 576 241ZM454 268Q446 294 440 294Q437 294 432.0 276.0Q427 258 426 257Q422 255 422 247Q422 242 431 242Q438 242 447.5 244.5Q457 247 458.0 248.0Q459 249 454 268ZM521 150Q516 156 504.0 159.0Q492 162 472.0 164.5Q452 167 448 168Q434 169 432.0 169.0Q430 169 424.0 167.0Q418 165 412 164Q396 162 389.5 156.5Q383 151 378 136Q368 106 368 96Q368 79 386 79Q391 79 406.0 80.5Q421 82 428 82Q436 82 440 81Q458 76 529 76Q561 76 561 79Q561 84 545.5 111.5Q530 139 521 150ZM398 595Q414 595 427.5 585.5Q441 576 449.0 565.0Q457 554 470.0 544.5Q483 535 497 535Q514 535 522.5 540.0Q531 545 539 558Q549 574 573 590Q595 606 601 606Q606 606 610.0 601.0Q614 596 621 581Q627 568 627.0 563.5Q627 559 620 547Q610 529 603 525Q595 520 595 515Q595 512 581.0 501.0Q567 490 567 486Q567 480 563 480Q558 480 550 472Q538 460 512 460Q496 460 484 464Q473 467 457 467Q449 467 426.0 486.0Q403 505 403 512Q403 516 397.5 520.5Q392 525 387 525Q375 525 359.0 510.0Q343 495 332 471Q326 458 312.5 448.0Q299 438 288 438Q278 438 268 454Q261 465 260.0 471.0Q259 477 262 489Q271 522 301.5 553.5Q332 585 358 589Q365 590 378.5 592.5Q392 595 398 595ZM360 699Q340 699 324.5 679.5Q309 660 309 639Q309 629 289 616L268 602L256 615Q241 632 241 644Q241 669 256 692Q262 702 262 710Q262 719 266.0 719.0Q270 719 275 731Q280 742 297.5 751.0Q315 760 339 762Q352 763 362.0 766.5Q372 770 388 770Q408 770 424.5 760.0Q441 750 444 737Q447 721 462.5 710.5Q478 700 500 700Q507 700 511.0 703.0Q515 706 522 717Q527 724 532.5 735.5Q538 747 541.5 753.0Q545 759 555.5 764.0Q566 769 582 769Q603 769 603 757Q603 753 600 747Q598 743 598 723Q598 707 577.0 676.5Q556 646 539 637Q520 627 494 627Q480 627 468 632Q454 639 448 639Q443 639 415 667Q383 699 360 699Z" transform="translate(0.00,958.33) scale(0.9583,-0.9583)" fill="#000000" />
</svg>
