<?xml version="1.0" encoding="UTF-8" standalone="no"?>
<!--
Representation of "mi pilin la mi lon" in sitelen ilo pona
Generated by generate_sitelen_kalama_pona.py

Description:
  Representation of "mi pilin la mi lon" in sitelen ilo pona.
  Sources: mi: https://commons.wikimedia.org/wiki/File:Sitelen_seli_kiwen_-_mi.svg; pilin: https://commons.wikimedia.org/wiki/File:Sitelen_seli_kiwen_-_pilin.svg; la: https://commons.wikimedia.org/wiki/File:Sitelen_seli_kiwen_-_la.svg; mi: https://commons.wikimedia.org/wiki/File:Sitelen_seli_kiwen_-_mi.svg; lon: https://commons.wikimedia.org/wiki/File:Sitelen_seli_kiwen_-_lon.svg

Categories:
  [[Category:Sitelen kalama pona]]
  [[Category:Toki Pona text containing mi pilin la mi lon]]

Sources:
  mi: https://commons.wikimedia.org/wiki/File:Sitelen_seli_kiwen_-_mi.svg
  pilin: https://commons.wikimedia.org/wiki/File:Sitelen_seli_kiwen_-_pilin.svg
  la: https://commons.wikimedia.org/wiki/File:Sitelen_seli_kiwen_-_la.svg
  mi: https://commons.wikimedia.org/wiki/File:Sitelen_seli_kiwen_-_mi.svg
  lon: https://commons.wikimedia.org/wiki/File:Sitelen_seli_kiwen_-_lon.svg
-->
<svg version="1.1" width="4632" height="1000"
     viewBox="0 0 4632 1000"
     xmlns="http://www.w3.org/2000/svg">
  <path d="M260 199Q260 199 258.0 206.0Q256 213 254.0 224.0Q252 235 249.5 248.0Q247 261 245.5 275.5Q244 290 244 301Q244 310 248.0 332.0Q252 354 252 365Q252 365 251.5 367.0Q251 369 250.0 373.5Q249 378 248.5 384.0Q248 390 247.0 399.0Q246 408 245.0 418.5Q244 429 244.0 443.0Q244 457 244 473Q244 478 245.0 496.5Q246 515 249.0 538.5Q252 562 256 565Q261 568 265.5 589.0Q270 610 274 613Q276 616 284.5 629.0Q293 642 304.0 655.5Q315 669 326 677Q338 684 358 702Q368 710 383.5 715.5Q399 721 400 726Q404 733 422 733Q436 733 446.5 737.5Q457 742 462 742Q474 742 494.5 735.0Q515 728 520 723Q524 717 540.5 711.0Q557 705 564 697Q574 686 580 686Q589 686 621.0 647.0Q653 608 656 593Q660 572 660 543Q660 482 644 474Q638 471 638 464Q638 450 598.0 408.5Q558 367 544 367Q540 367 511.5 353.5Q483 340 456 340Q420 340 394.0 343.5Q368 347 358.5 351.0Q349 355 341.5 358.5Q334 362 328 362Q322 362 320.0 353.0Q318 344 318 315Q318 275 320.0 244.5Q322 214 324.0 198.0Q326 182 326 177Q326 175 323.0 161.5Q320 148 322 138Q322 133 322 120Q322 67 310 52Q302 42 280 42Q240 42 240 74Q240 81 244.0 88.5Q248 96 248 108Q249 119 253.5 130.5Q258 142 258 144Q258 145 257.0 146.5Q256 148 256 151Q256 156 258.0 174.5Q260 193 260 199ZM564 615Q523 654 503.5 664.5Q484 675 448 675Q430 675 412.5 667.5Q395 660 386.0 652.5Q377 645 376 642Q372 635 353.0 619.5Q334 604 334 598Q334 593 322.0 575.5Q310 558 308 545Q308 544 305.5 540.0Q303 536 302.5 534.0Q302 532 304 529Q307 527 308.0 515.0Q309 503 314 496Q320 488 320 479Q320 470 326 470Q332 470 334.0 465.0Q336 460 335.5 453.0Q335 446 340.0 438.0Q345 430 356 425Q382 414 393.0 411.0Q404 408 426 408Q474 408 484 416Q491 423 512 429Q542 438 569.0 470.5Q596 503 598 531Q598 536 598.0 543.0Q598 550 598 553Q598 572 592.0 582.5Q586 593 564 615Z" transform="translate(0.00,958.33) scale(0.9583,-0.9583)" fill="#000000" />
  <path d="M656 705Q694 705 721.5 699.0Q749 693 760.5 687.0Q772 681 772 681Q779 681 793.5 666.5Q808 652 808 646Q808 642 817.0 634.0Q826 626 826.0 621.5Q826 617 832.0 609.5Q838 602 843.0 587.0Q848 572 848 550Q848 526 842.0 506.0Q836 486 829.0 474.5Q822 463 822 458Q822 450 797.0 414.0Q772 378 756 364Q738 347 738 341Q738 334 732 334Q726 334 719.0 322.5Q712 311 710 311Q708 311 630.5 251.0Q553 191 548 185Q543 177 524.5 159.5Q506 142 502 142Q496 142 476.0 118.5Q456 95 456 87Q456 80 453.0 78.5Q450 77 436 77Q420 77 408.0 85.0Q396 93 396 103Q396 110 379.5 127.0Q363 144 350 150Q333 159 300.0 193.5Q267 228 254 232Q245 236 237.0 245.5Q229 255 224.5 255.0Q220 255 207.0 270.0Q194 285 182 290Q174 294 166.0 303.0Q158 312 143.0 329.0Q128 346 112 361Q102 372 90.5 386.5Q79 401 65.5 435.5Q52 470 52 507Q52 526 61.5 559.0Q71 592 82 606Q112 642 137.0 660.5Q162 679 176.5 685.0Q191 691 196 698Q204 709 230 709Q254 709 280.0 702.0Q306 695 312 686Q312 685 332.0 673.5Q352 662 377.5 639.0Q403 616 418 586L428 568L472 611Q502 641 535.5 663.0Q569 685 584 687Q592 687 592 691Q592 692 596.5 695.0Q601 698 616.5 701.5Q632 705 656 705ZM248 644Q231 644 216.0 634.5Q201 625 198 625Q193 625 178.5 610.5Q164 596 126 553Q112 536 112 511Q112 488 123.0 461.5Q134 435 146.0 416.5Q158 398 158 398Q160 392 165.5 387.5Q171 383 188.0 368.5Q205 354 224 334Q256 302 265.5 293.0Q275 284 302 264Q336 238 340 234Q346 227 352.0 227.0Q358 227 358 222Q358 219 365.5 213.5Q373 208 385.5 198.5Q398 189 406 182Q420 170 430 170Q446 170 509.5 229.0Q573 288 576 288Q584 288 584 291Q584 295 616.5 321.5Q649 348 652 348Q660 348 706.0 397.0Q752 446 752 454Q752 458 766.0 475.0Q780 492 780 498Q780 504 783.0 509.0Q786 514 786 525Q786 553 778.0 577.0Q770 601 760 604Q756 606 750.5 615.5Q745 625 728 630Q687 641 678 641Q674 641 666.5 640.5Q659 640 656 640Q650 640 648.0 642.0Q646 644 644 644Q637 644 612.5 634.5Q588 625 582 625Q575 625 562.5 615.0Q550 605 550 599Q550 591 544 589Q534 586 493.0 546.0Q452 506 452 489Q452 488 453.0 487.0Q454 486 454 484Q454 475 448.5 463.0Q443 451 430 451Q389 451 376 507Q373 522 368.5 534.0Q364 546 361.0 552.5Q358 559 358 562Q358 566 349.0 575.5Q340 585 338 594Q335 603 310.0 621.0Q285 639 274 639Q268 639 259.5 641.5Q251 644 248 644Z" transform="translate(942.50,958.33) scale(0.9583,-0.9583)" fill="#000000" />
  <path d="M360 766Q370 766 398.0 751.0Q426 736 427 729Q428 728 430 728Q434 728 438.5 724.0Q443 720 446.5 715.0Q450 710 454 705L457 700Q473 697 504 651Q517 630 525 625Q535 617 535 606Q535 601 551 581Q568 559 568 543Q568 534 573.5 525.0Q579 516 580 506Q590 399 590 374Q590 356 589.0 344.0Q588 332 587.0 327.0Q586 322 583.5 312.5Q581 303 580 296Q579 290 560.0 245.0Q541 200 540 194Q538 183 522 165Q509 150 494.5 130.0Q480 110 479 106Q478 95 452.5 73.5Q427 52 409 44Q401 40 392.0 33.0Q383 26 373.5 23.0Q364 20 347 20Q326 20 318.0 27.5Q310 35 310 56Q310 92 346 103Q356 106 393.5 130.5Q431 155 444 168Q460 184 460 190Q460 199 469.0 207.0Q478 215 478 217Q478 227 484 233Q487 237 491.5 254.0Q496 271 500 275Q510 285 520 328Q521 330 522.5 383.5Q524 437 527 443Q522 446 522 457Q521 469 516.0 490.5Q511 512 508 516Q502 521 502 530Q502 532 490.0 558.5Q478 585 478 591V592Q469 595 469 604Q469 606 466 606Q458 606 452.0 614.0Q446 622 436 643Q434 648 429 653Q422 654 408 666Q377 695 347 706Q339 709 330.0 717.0Q321 725 321.0 732.0Q321 739 337.0 752.5Q353 766 360 766Z" transform="translate(1885.00,958.33) scale(0.9583,-0.9583)" fill="#000000" />
  <path d="M260 199Q260 199 258.0 206.0Q256 213 254.0 224.0Q252 235 249.5 248.0Q247 261 245.5 275.5Q244 290 244 301Q244 310 248.0 332.0Q252 354 252 365Q252 365 251.5 367.0Q251 369 250.0 373.5Q249 378 248.5 384.0Q248 390 247.0 399.0Q246 408 245.0 418.5Q244 429 244.0 443.0Q244 457 244 473Q244 478 245.0 496.5Q246 515 249.0 538.5Q252 562 256 565Q261 568 265.5 589.0Q270 610 274 613Q276 616 284.5 629.0Q293 642 304.0 655.5Q315 669 326 677Q338 684 358 702Q368 710 383.5 715.5Q399 721 400 726Q404 733 422 733Q436 733 446.5 737.5Q457 742 462 742Q474 742 494.5 735.0Q515 728 520 723Q524 717 540.5 711.0Q557 705 564 697Q574 686 580 686Q589 686 621.0 647.0Q653 608 656 593Q660 572 660 543Q660 482 644 474Q638 471 638 464Q638 450 598.0 408.5Q558 367 544 367Q540 367 511.5 353.5Q483 340 456 340Q420 340 394.0 343.5Q368 347 358.5 351.0Q349 355 341.5 358.5Q334 362 328 362Q322 362 320.0 353.0Q318 344 318 315Q318 275 320.0 244.5Q322 214 324.0 198.0Q326 182 326 177Q326 175 323.0 161.5Q320 148 322 138Q322 133 322 120Q322 67 310 52Q302 42 280 42Q240 42 240 74Q240 81 244.0 88.5Q248 96 248 108Q249 119 253.5 130.5Q258 142 258 144Q258 145 257.0 146.5Q256 148 256 151Q256 156 258.0 174.5Q260 193 260 199ZM564 615Q523 654 503.5 664.5Q484 675 448 675Q430 675 412.5 667.5Q395 660 386.0 652.5Q377 645 376 642Q372 635 353.0 619.5Q334 604 334 598Q334 593 322.0 575.5Q310 558 308 545Q308 544 305.5 540.0Q303 536 302.5 534.0Q302 532 304 529Q307 527 308.0 515.0Q309 503 314 496Q320 488 320 479Q320 470 326 470Q332 470 334.0 465.0Q336 460 335.5 453.0Q335 446 340.0 438.0Q345 430 356 425Q382 414 393.0 411.0Q404 408 426 408Q474 408 484 416Q491 423 512 429Q542 438 569.0 470.5Q596 503 598 531Q598 536 598.0 543.0Q598 550 598 553Q598 572 592.0 582.5Q586 593 564 615Z" transform="translate(2827.50,958.33) scale(0.9583,-0.9583)" fill="#000000" />
  <path d="M150 252Q150 262 160.5 276.5Q171 291 190 291Q216 291 250.5 285.5Q285 280 296 280Q319 279 382.5 276.0Q446 273 458 273Q470 273 485.5 275.0Q501 277 506 277Q514 277 524.5 272.5Q535 268 538 269Q542 270 614.0 271.0Q686 272 702 278Q713 282 717.5 281.5Q722 281 730 276Q750 263 750 244Q750 213 712 213Q712 213 708.0 213.0Q704 213 695.5 213.5Q687 214 677.0 214.0Q667 214 652.0 214.0Q637 214 622 214Q611 214 601.0 214.0Q591 214 584.5 214.0Q578 214 573.0 213.5Q568 213 566.0 213.0Q564 213 563.5 213.0Q563 213 547.0 213.5Q531 214 505.5 214.5Q480 215 451.5 215.5Q423 216 394.0 216.5Q365 217 346 217Q333 217 322.0 217.0Q311 217 304.0 216.5Q297 216 291.5 216.0Q286 216 283.5 216.0Q281 216 280 216Q273 216 234.5 219.5Q196 223 184 224Q169 225 159.5 233.0Q150 241 150 252ZM388 467Q388 471 393.0 483.0Q398 495 412.5 508.0Q427 521 446 521Q471 521 489.5 491.0Q508 461 508 441Q508 422 487.5 410.0Q467 398 446.0 398.0Q425 398 406.5 422.5Q388 447 388 467Z" transform="translate(3770.00,958.33) scale(0.9583,-0.9583)" fill="#000000" />
</svg>
