<?xml version="1.0" encoding="UTF-8" standalone="no"?>
<!--
Representation of "kulupu pi ijo lon pi sama lukin" in sitelen kalama pona
Generated by generate_sitelen_kalama_pona.py

Description:
  Representation of "kulupu pi ijo lon pi sama lukin" in sitelen kalama pona.
  Sources: kulupu: https://commons.wikimedia.org/wiki/File:Sitelen_seli_kiwen_-_kulupu.svg; pi: https://commons.wikimedia.org/wiki/File:Sitelen_seli_kiwen_-_pi.svg; ijo-lon: https://commons.wikimedia.org/wiki/File:Sitelen_seli_kiwen_-_ijo-lon.svg; pi: https://commons.wikimedia.org/wiki/File:Sitelen_seli_kiwen_-_pi.svg; sama: https://commons.wikimedia.org/wiki/File:Sitelen_seli_kiwen_-_sama.svg; lukin: https://commons.wikimedia.org/wiki/File:Sitelen_seli_kiwen_-_lukin.svg

Categories:
  [[Category:Sitelen kalama pona]]
  [[Category:Toki Pona text containing kulupu pi ijo lon pi sama lukin]]

Sources:
  kulupu: https://commons.wikimedia.org/wiki/File:Sitelen_seli_kiwen_-_kulupu.svg
  pi: https://commons.wikimedia.org/wiki/File:Sitelen_seli_kiwen_-_pi.svg
  ijo-lon: https://commons.wikimedia.org/wiki/File:Sitelen_seli_kiwen_-_ijo-lon.svg
  pi: https://commons.wikimedia.org/wiki/File:Sitelen_seli_kiwen_-_pi.svg
  sama: https://commons.wikimedia.org/wiki/File:Sitelen_seli_kiwen_-_sama.svg
  lukin: https://commons.wikimedia.org/wiki/File:Sitelen_seli_kiwen_-_lukin.svg
-->
<svg version="1.1" width="5575" height="1000"
     viewBox="0 0 5575 1000"
     xmlns="http://www.w3.org/2000/svg">
  <path d="M416 252Q416 226 407.0 204.5Q398 183 390.0 174.5Q382 166 380 166Q377 166 354 144Q332 124 310.5 115.5Q289 107 246 107Q172 107 138 138Q97 175 88.5 188.5Q80 202 80 234Q80 270 82.5 280.0Q85 290 92 296Q99 302 101.0 304.0Q103 306 103.5 307.5Q104 309 106.5 312.0Q109 315 120.5 326.0Q132 337 152 354Q178 379 238 379Q319 379 360 358Q386 344 401.0 315.0Q416 286 416 252ZM346 263Q346 280 338.0 291.0Q330 302 315.0 307.0Q300 312 286.0 313.5Q272 315 252 315Q214 315 189.5 302.0Q165 289 160 278Q155 264 148 264Q142 264 142 255Q142 241 153.5 220.0Q165 199 178 196Q182 195 207.5 185.5Q233 176 252 176Q279 176 295.0 187.5Q311 199 317.5 210.5Q324 222 326 222Q333 222 339.5 235.0Q346 248 346 263ZM820 263Q820 245 817.0 233.0Q814 221 811.0 217.5Q808 214 805.0 211.0Q802 208 802 204Q802 198 794.0 182.0Q786 166 784 166Q781 166 758.0 144.5Q735 123 728 123Q718 123 706.0 117.5Q694 112 694 108Q694 106 676 106Q625 106 598.0 116.0Q571 126 538 153Q527 162 522.0 168.5Q517 175 512.5 194.0Q508 213 508 244Q508 286 520 297Q540 313 540 340Q540 357 561.0 375.5Q582 394 600 394Q629 394 643.5 399.0Q658 404 682 404Q709 404 727.5 399.0Q746 394 760.5 379.5Q775 365 783.0 352.0Q791 339 806 310Q813 297 816 297Q820 297 820 263ZM666 182Q669 182 673.5 181.0Q678 180 680 180Q690 180 702.0 189.0Q714 198 716 198Q721 198 735.5 228.0Q750 258 750 269Q750 273 748 273Q746 273 741.0 285.0Q736 297 728.0 312.5Q720 328 710 335Q706 338 678 338Q653 338 642.0 335.5Q631 333 616 323Q604 316 590 310Q585 309 583.5 303.0Q582 297 582 281Q582 255 578 255Q574 255 574 251Q574 248 578.0 235.5Q582 223 582 217Q582 203 600.0 191.5Q618 180 633.0 176.0Q648 172 652 172Q656 172 659.0 177.0Q662 182 666 182ZM470 732Q500 732 527.0 722.5Q554 713 566.0 705.0Q578 697 578 695Q578 692 585.0 685.0Q592 678 602.0 665.0Q612 652 618 639Q628 617 636 611Q642 605 642 580Q642 520 602 484Q589 473 578.5 466.0Q568 459 563.5 457.0Q559 455 556.0 452.5Q553 450 552 444Q549 433 536 433Q525 433 494.0 431.5Q463 430 456 430Q419 430 398.5 438.0Q378 446 358 467Q338 487 330.0 504.0Q322 521 322 522Q308 538 308 579Q308 597 314 597Q317 597 320.0 603.0Q323 609 329.0 620.0Q335 631 344 640Q355 651 357.0 657.5Q359 664 352 670Q349 674 354 693L360 712L400 717Q430 721 442.0 726.5Q454 732 470 732ZM578 577Q578 607 539.0 641.5Q500 676 438 676Q428 676 428 668Q428 662 416.0 647.5Q404 633 404 626Q404 620 391.0 605.0Q378 590 378 573Q378 546 402 523Q414 510 421.0 507.5Q428 505 450 505Q464 505 474.0 504.0Q484 503 487 502L490 501Q504 501 541.0 528.0Q578 555 578 577Z" transform="translate(0.00,958.33) scale(0.9583,-0.9583)" fill="#000000" />
  <path d="M178 600Q178 613 172.0 629.5Q166 646 166 651Q166 660 178 675Q187 686 191.5 688.0Q196 690 206 688Q221 685 228.5 675.5Q236 666 237.0 657.5Q238 649 238 634V602Q238 561 244.0 524.5Q250 488 250 466Q250 451 248.0 418.5Q246 386 246 369Q246 369 246.0 367.0Q246 365 246.5 361.5Q247 358 247.5 353.0Q248 348 248.0 339.5Q248 331 248.5 321.0Q249 311 249.5 296.5Q250 282 250 266Q250 179 252 177Q260 168 392 168Q392 168 438.0 168.0Q484 168 532.0 168.5Q580 169 584 169Q698 169 704 167Q710 164 716 164Q722 163 728.0 144.5Q734 126 734 111Q734 109 733.0 103.5Q732 98 727.5 90.5Q723 83 716 83Q714 83 683.5 92.5Q653 102 624 102Q612 102 594.0 100.0Q576 98 562 98Q562 98 558.5 98.5Q555 99 548.0 99.5Q541 100 532.0 100.5Q523 101 510.5 101.5Q498 102 486 102Q485 102 480.5 102.0Q476 102 469.0 101.5Q462 101 454.5 100.5Q447 100 439.5 100.0Q432 100 428 100Q344 100 230 92L190 90L184 104Q180 114 180 131Q180 157 185.0 176.5Q190 196 190 218Q190 218 190.0 225.0Q190 232 190.0 242.5Q190 253 189.5 264.5Q189 276 188.5 287.0Q188 298 188 304Q188 326 190.0 374.0Q192 422 192 441Q192 517 178 540Q176 543 177.0 544.0Q178 545 180.0 545.5Q182 546 182.5 549.5Q183 553 180 562Q176 571 176 578Q176 581 177.0 588.5Q178 596 178 600Z" transform="translate(942.50,958.33) scale(0.9583,-0.9583)" fill="#000000" />
  <path d="M362 308Q296 308 296 329Q296 337 313 354Q321 362 328.5 364.5Q336 367 353 367Q386 367 411.5 371.0Q437 375 442 375Q447 375 453 374Q467 371 503 371H511Q571 371 571 356Q571 348 577 338Q583 326 581.5 321.5Q580 317 567 310Q557 305 537 305Q510 305 510 312Q510 316 497 313Q479 308 362 308ZM405 457Q405 498 450 498Q459 498 464.0 497.0Q469 496 476.0 489.0Q483 482 486 468Q491 449 490.5 443.5Q490 438 484 438Q479 438 470.0 430.5Q461 423 449 423Q444 423 438 424Q405 430 405 457ZM233 542Q233 547 242.5 554.5Q252 562 252 569Q252 578 262 583Q268 587 280.5 596.5Q293 606 302.5 613.0Q312 620 316 620Q322 620 325 634Q327 642 330.0 646.0Q333 650 344.0 656.5Q355 663 381.5 666.5Q408 670 450 670Q487 670 512.5 667.0Q538 664 554.5 660.5Q571 657 577 656Q588 655 639.0 602.5Q690 550 700 530Q724 480 730.0 457.0Q736 434 736 390Q736 350 730 349Q725 347 726.5 344.5Q728 342 731.5 338.0Q735 334 730 325Q725 317 725 302Q725 280 706.0 251.5Q687 223 668.5 206.0Q650 189 647.0 189.0Q644 189 635.0 183.5Q626 178 611.5 170.0Q597 162 582 158Q561 151 552 145Q545 139 536.5 135.5Q528 132 494.0 128.0Q460 124 403 124Q372 124 359.0 131.0Q346 138 338 138Q330 138 297.5 159.0Q265 180 262 180Q256 180 230.0 212.5Q204 245 200 257Q196 270 186.5 274.5Q177 279 177 283Q172 325 166 333Q164 336 164 338Q164 339 165.0 342.5Q166 346 167.5 353.0Q169 360 170 371Q171 390 180.0 423.0Q189 456 190 473Q191 480 202.0 487.5Q213 495 214 501Q215 508 224.0 522.0Q233 536 233 542ZM303 227Q306 227 312.5 221.0Q319 215 328.0 207.5Q337 200 364.0 194.0Q391 188 431 188Q456 188 471.5 190.0Q487 192 493.5 194.0Q500 196 502 196Q504 196 507 195Q508 195 509 195Q514 195 529.5 204.0Q545 213 552 215Q553 215 569.0 223.0Q585 231 603.5 241.5Q622 252 625 258Q631 267 647 285Q661 300 669.5 328.5Q678 357 678.0 386.0Q678 415 668.5 450.0Q659 485 651 493Q650 494 645.5 504.0Q641 514 622 528Q599 546 599 552Q599 557 582.0 572.0Q565 587 549 596Q531 607 494.0 609.0Q457 611 453 612Q435 618 418 618Q392 618 392 602Q392 594 377 587Q346 574 313.0 547.0Q280 520 269 498Q265 489 258.5 481.0Q252 473 248.0 468.5Q244 464 244 461Q244 459 245 458Q247 452 241 452Q233 452 227.5 423.0Q222 394 222 362Q222 334 228 320Q239 296 267.0 261.5Q295 227 303 227Z" transform="translate(1885.00,958.33) scale(0.9583,-0.9583)" fill="#000000" />
  <path d="M178 600Q178 613 172.0 629.5Q166 646 166 651Q166 660 178 675Q187 686 191.5 688.0Q196 690 206 688Q221 685 228.5 675.5Q236 666 237.0 657.5Q238 649 238 634V602Q238 561 244.0 524.5Q250 488 250 466Q250 451 248.0 418.5Q246 386 246 369Q246 369 246.0 367.0Q246 365 246.5 361.5Q247 358 247.5 353.0Q248 348 248.0 339.5Q248 331 248.5 321.0Q249 311 249.5 296.5Q250 282 250 266Q250 179 252 177Q260 168 392 168Q392 168 438.0 168.0Q484 168 532.0 168.5Q580 169 584 169Q698 169 704 167Q710 164 716 164Q722 163 728.0 144.5Q734 126 734 111Q734 109 733.0 103.5Q732 98 727.5 90.5Q723 83 716 83Q714 83 683.5 92.5Q653 102 624 102Q612 102 594.0 100.0Q576 98 562 98Q562 98 558.5 98.5Q555 99 548.0 99.5Q541 100 532.0 100.5Q523 101 510.5 101.5Q498 102 486 102Q485 102 480.5 102.0Q476 102 469.0 101.5Q462 101 454.5 100.5Q447 100 439.5 100.0Q432 100 428 100Q344 100 230 92L190 90L184 104Q180 114 180 131Q180 157 185.0 176.5Q190 196 190 218Q190 218 190.0 225.0Q190 232 190.0 242.5Q190 253 189.5 264.5Q189 276 188.5 287.0Q188 298 188 304Q188 326 190.0 374.0Q192 422 192 441Q192 517 178 540Q176 543 177.0 544.0Q178 545 180.0 545.5Q182 546 182.5 549.5Q183 553 180 562Q176 571 176 578Q176 581 177.0 588.5Q178 596 178 600Z" transform="translate(2827.50,958.33) scale(0.9583,-0.9583)" fill="#000000" />
  <path d="M302 320Q436 320 483.0 327.0Q530 334 540 334Q586 334 656.5 331.5Q727 329 740 327Q752 325 757.0 321.5Q762 318 766 308Q772 293 772 279Q772 272 771.0 268.0Q770 264 764.0 259.0Q758 254 746 253Q731 251 726 248Q721 244 708 253Q700 258 685.0 259.5Q670 261 622 261Q541 261 468.5 253.5Q396 246 284 243Q268 243 249.0 242.0Q230 241 217.5 240.0Q205 239 202 239Q198 239 187.0 242.0Q176 245 163.0 255.0Q150 265 150 279Q150 292 156.5 303.0Q163 314 174 318Q178 320 224 320ZM128 518Q128 522 130.0 530.5Q132 539 141.0 550.5Q150 562 164 562Q169 562 192.5 559.0Q216 556 263.5 553.0Q311 550 374 550Q454 550 545.5 555.5Q637 561 702 561Q732 561 738 560Q750 559 759.0 546.0Q768 533 768 519Q768 507 761.0 499.5Q754 492 747 490L740 489Q678 487 626.5 485.5Q575 484 541.5 482.5Q508 481 482.0 480.0Q456 479 442.0 478.0Q428 477 419.5 476.5Q411 476 408.0 475.5Q405 475 404 475L358 474H354Q302 474 246 478Q175 483 151.5 490.0Q128 497 128 518Z" transform="translate(3770.00,958.33) scale(0.9583,-0.9583)" fill="#000000" />
  <path d="M408 381Q408 389 423.5 395.0Q439 401 451 401Q474 401 489.5 381.0Q505 361 505 350Q505 341 503.0 331.5Q501 322 489.5 311.0Q478 300 459 300Q438 300 418.5 307.5Q399 315 398 325Q396 345 396 349Q396 363 402.0 369.0Q408 375 408 381ZM76 333Q76 336 79.0 338.5Q82 341 82 351Q82 355 81.5 366.0Q81 377 81 383Q81 393 82 398Q84 407 105.5 430.0Q127 453 133 453Q138 453 156.5 473.5Q175 494 180 494Q187 494 195 504Q208 518 241.0 531.5Q274 545 294 545Q312 545 334.0 555.5Q356 566 387 566Q432 566 472.5 563.5Q513 561 516 561Q528 561 537.0 564.5Q546 568 550 568Q568 568 633.5 545.5Q699 523 708 513Q709 512 725.0 499.5Q741 487 758.0 473.5Q775 460 790.5 440.0Q806 420 809 403Q813 386 816.0 386.0Q819 386 821.5 368.5Q824 351 824 340Q824 326 805.5 298.0Q787 270 787.0 264.0Q787 258 750.5 228.0Q714 198 709 198Q703 198 703 195Q703 191 676.5 186.0Q650 181 612.5 174.5Q575 168 560 163Q529 153 431 153Q313 153 298 165Q296 167 253.5 174.5Q211 182 201 191Q200 192 183.0 201.5Q166 211 149.5 224.0Q133 237 129 250Q125 259 122 259Q117 259 117 268Q117 274 108.5 285.5Q100 297 95 297Q94 297 89.5 303.5Q85 310 80.5 319.0Q76 328 76 333ZM215 259Q217 259 244.0 246.0Q271 233 281 233Q297 233 299 232Q339 211 404 211Q429 211 485.5 215.5Q542 220 546.0 223.0Q550 226 573.5 229.5Q597 233 605 236Q608 237 615.0 239.0Q622 241 633.0 244.5Q644 248 652 250Q691 261 716.5 288.5Q742 316 747.5 332.5Q753 349 753 355Q753 371 732.0 404.0Q711 437 703 440Q696 442 678 458Q654 480 593.5 493.0Q533 506 507 506Q497 506 429.5 501.5Q362 497 356 494Q347 489 328.5 485.5Q310 482 307 479Q303 475 292 475Q276 475 250.5 456.5Q225 438 222 438Q217 438 159 384Q143 369 144 352Q146 333 150.0 326.0Q154 319 167 311Q183 300 183 294Q183 289 196.5 274.0Q210 259 215 259Z" transform="translate(4712.50,958.33) scale(0.9583,-0.9583)" fill="#000000" />
</svg>
