<?xml version="1.0" encoding="UTF-8" standalone="no"?>
<!--
Representation of "ilo mun Wajesa nanpa wan" in sitelen ilo pona
Generated by generate_sitelen_kalama_pona.py

Description:
  Representation of "ilo mun Wajesa nanpa wan" in sitelen ilo pona.
  Sources: ilo: https://commons.wikimedia.org/wiki/File:Sitelen_seli_kiwen_-_ilo.svg; mun: https://commons.wikimedia.org/wiki/File:Sitelen_seli_kiwen_-_mun.svg; wa: https://commons.wikimedia.org/wiki/File:Sitelen_kalama_pona_-_wa.svg; je: https://commons.wikimedia.org/wiki/File:Sitelen_kalama_pona_-_je.svg; sa: https://commons.wikimedia.org/wiki/File:Sitelen_kalama_pona_-_sa.svg; nan: https://commons.wikimedia.org/wiki/File:Sitelen_kalama_pona_-_nan.svg; pa: https://commons.wikimedia.org/wiki/File:Sitelen_kalama_pona_-_pa.svg; wan: https://commons.wikimedia.org/wiki/File:Sitelen_kalama_pona_-_wan.svg

Categories:
  [[Category:Sitelen kalama pona]]
  [[Category:Toki Pona text containing ilo mun]]
  [[Category:Toki Pona text containing sound symbol Wa]]
  [[Category:Toki Pona text containing sound symbol Je]]
  [[Category:Toki Pona text containing sound symbol Sa]]
  [[Category:Toki Pona text containing sound symbol Nan]]
  [[Category:Toki Pona text containing sound symbol Pa]]
  [[Category:Toki Pona text containing sound symbol Wan]]

Sources:
  ilo: https://commons.wikimedia.org/wiki/File:Sitelen_seli_kiwen_-_ilo.svg
  mun: https://commons.wikimedia.org/wiki/File:Sitelen_seli_kiwen_-_mun.svg
  wa: https://commons.wikimedia.org/wiki/File:Sitelen_kalama_pona_-_wa.svg
  je: https://commons.wikimedia.org/wiki/File:Sitelen_kalama_pona_-_je.svg
  sa: https://commons.wikimedia.org/wiki/File:Sitelen_kalama_pona_-_sa.svg
  nan: https://commons.wikimedia.org/wiki/File:Sitelen_kalama_pona_-_nan.svg
  pa: https://commons.wikimedia.org/wiki/File:Sitelen_kalama_pona_-_pa.svg
  wan: https://commons.wikimedia.org/wiki/File:Sitelen_kalama_pona_-_wan.svg
-->
<svg version="1.1" width="9309" height="1000"
     viewBox="0 0 9309 1000"
     xmlns="http://www.w3.org/2000/svg">
  <path d="M411 266Q411 271 407.5 280.5Q404 290 404 294Q404 295 407.0 304.0Q410 313 411 330L412 356L384 359Q377 360 357 360Q281 360 281 353Q281 350 246 352Q238 353 226 353Q209 353 193.0 343.5Q177 334 161 334Q141 334 130.0 345.5Q119 357 119 367Q119 380 109 387Q102 393 100.0 398.0Q98 403 100 417Q102 432 108.5 448.0Q115 464 115 492Q115 514 112.5 591.5Q110 669 106 675Q104 679 106.0 688.0Q108 697 104 701Q96 711 96 724Q96 730 98.0 737.0Q100 744 110.5 752.5Q121 761 139 761Q164 761 164 765Q164 770 168 768Q171 767 298.0 760.5Q425 754 431 754Q451 754 474.0 757.0Q497 760 513 760Q536 760 574.5 755.5Q613 751 631 751Q645 751 685.0 753.0Q725 755 738 755Q761 755 770.0 741.0Q779 727 780 677Q786 494 788.5 456.0Q791 418 799 403Q804 391 804 383Q804 364 789.0 358.0Q774 352 734 352Q692 352 616.5 359.5Q541 367 515 367Q498 367 490.5 366.0Q483 365 481.5 363.0Q480 361 480 357Q480 346 477.5 311.0Q475 276 475 257Q475 217 481.0 184.0Q487 151 493.0 133.5Q499 116 499 111Q499 102 489.5 87.5Q480 73 461 73Q439 73 425.0 91.0Q411 109 409 138L408 160Q406 181 404.5 204.0Q403 227 403 230Q403 246 407.0 255.0Q411 264 411 266ZM387 698Q363 702 305 702Q272 702 251.5 699.0Q231 696 215 695Q186 694 179.5 682.5Q173 671 169 618Q166 573 166 536Q166 477 174 463Q180 445 182 437L188 415L226 417Q268 419 323 419Q369 419 399 422L416 424L414 500Q412 576 412 592Q412 614 413.0 628.0Q414 642 415.0 647.0Q416 652 416 654Q416 657 412 672Q408 688 404.5 692.0Q401 696 387 698ZM725 438Q725 441 723.5 445.0Q722 449 720.0 451.5Q718 454 717.0 456.5Q716 459 717.5 460.0Q719 461 723 461Q733 461 733 479Q733 484 729.0 515.0Q725 546 723 585Q719 657 710.0 672.0Q701 687 658 689Q639 690 624.0 693.0Q609 696 608.0 697.0Q607 698 603 696Q602 694 562 694H542L485 695L483 670Q482 651 477.0 627.5Q472 604 472 602V592Q473 581 474.5 564.0Q476 547 477.0 526.0Q478 505 478.5 479.0Q479 453 479 429Q479 423 501 426Q513 428 552 428Q566 428 586.0 427.0Q606 426 625.0 425.0Q644 424 660.5 422.5Q677 421 688 420L698 419Q725 419 725 438Z" transform="translate(0.00,958.33) scale(0.9583,-0.9583)" fill="#000000" />
  <path d="M366 427Q366 428 367.0 429.0Q368 430 368 432Q368 448 308 512Q291 530 254.0 537.5Q217 545 183.0 547.0Q149 549 144 552Q140 555 140 572Q140 586 152.0 601.0Q164 616 176 616Q182 616 203.5 632.0Q225 648 230 648Q238 648 273.0 671.0Q308 694 308 699Q308 705 314 705Q318 705 373.0 711.5Q428 718 432 718Q448 718 491.0 706.5Q534 695 556 685Q587 671 614 660Q635 653 652.5 642.0Q670 631 670 624Q670 618 686 602Q709 578 734.5 511.5Q760 445 760 402Q760 287 728 245Q689 191 678.5 177.0Q668 163 660 159Q657 157 638.5 141.0Q620 125 600.5 112.5Q581 100 566 100Q561 100 551.5 93.0Q542 86 532 86Q522 86 502 78Q484 70 404 70H324L278 90Q233 110 204.5 134.0Q176 158 176 176Q176 204 187.0 215.5Q198 227 222 227Q232 227 239.0 233.0Q246 239 256 239Q256 239 259.5 238.5Q263 238 264.5 238.0Q266 238 269.0 237.5Q272 237 274 237Q284 237 300 252Q314 264 340 284Q380 313 380 370Q380 382 373.0 403.5Q366 425 366 427ZM284 167Q284 166 286.0 163.0Q288 160 296.0 155.0Q304 150 317.5 146.0Q331 142 357.5 138.5Q384 135 418 135Q448 135 459.0 139.5Q470 144 486 145Q513 146 535.0 155.0Q557 164 567.5 172.0Q578 180 578 180Q584 180 608.5 203.0Q633 226 652 248Q672 273 679.5 286.0Q687 299 692.5 327.5Q698 356 698 408Q698 419 697.0 423.5Q696 428 694.5 429.5Q693 431 690.5 441.0Q688 451 686 470Q685 472 684.5 475.5Q684 479 684.0 480.0Q684 481 683.5 484.0Q683 487 682.5 487.5Q682 488 681.5 490.0Q681 492 680.5 492.5Q680 493 679.5 494.5Q679 496 677.5 497.5Q676 499 674.5 500.5Q673 502 672 504Q665 512 656.5 530.0Q648 548 630 569Q607 596 575.5 611.5Q544 627 480 642Q438 652 414 652Q383 652 351.5 642.5Q320 633 302.0 622.5Q284 612 284 606Q284 603 323.5 585.0Q363 567 366 554Q369 547 379.5 534.0Q390 521 390 518Q390 512 398 506Q410 499 422.0 473.5Q434 448 434 431Q434 416 438.0 395.5Q442 375 442 373L440 370Q440 369 436 303Q434 288 401.0 253.5Q368 219 368 218Q368 214 355.5 204.0Q343 194 338 194Q332 194 332 190Q332 186 317.5 178.0Q303 170 294 170Q284 170 284 167Z" transform="translate(942.50,958.33) scale(0.9583,-0.9583)" fill="#000000" />
  <path d="M 24.637998,12.488337 H 20.72216 q -1.48166,0 -2.54,-1.058333 -1.05833,-1.058333 -1.05833,-2.54 V 3.598338 q 0,-1.481667 1.05833,-2.54 Q 19.2405,4e-6 20.72216,4e-6 h 3.915838 V 0.846671 H 20.72216 q -1.13241,0 -1.94733,0.814917 -0.80433,0.804333 -0.80433,1.93675 v 5.291666 q 0,1.132417 0.80433,1.93675 0.81492,0.814917 1.94733,0.814917 h 3.915838 z" transform="translate(513.81,0.00) scale(80.0747,80.0747)" fill="#000000" />
  <path d="M 75.014662,0.846671 V 4e-6 h 13.123333 v 0.846667 z m 0,11.641666 v -0.846666 h 13.123333 v 0.846666 z" transform="translate(-3520.08,0.00) scale(80.0747,80.0747)" fill="#000000" />
  <path d="M 75.014662,0.846671 V 4e-6 h 13.123333 v 0.846667 z m 0,11.641666 v -0.846666 h 13.123333 v 0.846666 z" transform="translate(-2469.24,0.00) scale(80.0747,80.0747)" fill="#000000" />
  <path d="M 75.014662,0.846671 V 4e-6 h 13.123333 v 0.846667 z m 0,11.641666 v -0.846666 h 13.123333 v 0.846666 z" transform="translate(-1418.39,0.00) scale(80.0747,80.0747)" fill="#000000" />
  <path d="M 75.014662,0.846671 V 4e-6 h 13.123333 v 0.846667 z m 0,11.641666 v -0.846666 h 13.123333 v 0.846666 z" transform="translate(-367.54,0.00) scale(80.0747,80.0747)" fill="#000000" />
  <path d="M 75.014662,0.846671 V 4e-6 h 13.123333 v 0.846667 z m 0,11.641666 v -0.846666 h 13.123333 v 0.846666 z" transform="translate(683.31,0.00) scale(80.0747,80.0747)" fill="#000000" />
  <path d="M 75.014662,0.846671 V 4e-6 h 13.123333 v 0.846667 z m 0,11.641666 v -0.846666 h 13.123333 v 0.846666 z" transform="translate(1734.15,0.00) scale(80.0747,80.0747)" fill="#000000" />
  <path d="m 87.714667,4e-6 h 2.8575 q 1.481666,0 2.54,1.058334 1.058333,1.058333 1.058333,2.54 v 5.291666 q 0,1.481667 -1.058333,2.54 -1.058334,1.058333 -2.54,1.058333 h -2.8575 v -0.846666 h 2.8575 q 1.132416,0 1.93675,-0.814917 0.814916,-0.804333 0.814916,-1.93675 V 3.598338 q 0,-1.132417 -0.814916,-1.93675 -0.804334,-0.814917 -1.93675,-0.814917 h -2.8575 z" transform="translate(1768.05,0.00) scale(80.0747,80.0747)" fill="#000000" />
  <path d="M 184.38,603.07 C 184.38,619.66 179.99,631.36 179.99,643.91 L 130.01,644.09 C 130.00,643.96 130.00,643.83 130.00,643.71 C 130.00,626.09 134.39,613.74 134.39,602.97 C 134.39,599.52 134.00,598.63 134.00,596.00 C 134.00,572.39 141.02,494.57 141.02,442.55 C 141.02,413.96 139.64,414.42 139.64,377.95 C 139.64,286.32 150.35,77.39 291.04,30.30 C 293.62,29.44 296.31,29.00 299.00,29.00 C 311.77,29.00 332.18,43.47 342.91,54.20 C 382.83,94.12 386.03,157.56 386.03,208.75 C 386.03,220.90 386.03,221.95 385.64,224.21 C 384.66,229.95 384.20,235.81 384.20,241.67 C 384.20,281.58 406.11,325.38 443.03,332.30 C 479.72,311.28 489.71,225.28 492.11,195.29 C 490.31,167.55 488.39,132.39 488.39,108.14 C 488.39,87.09 489.71,79.35 497.01,72.05 C 500.14,68.92 506.81,64.66 515.07,64.66 C 540.07,64.66 541.82,91.26 543.05,109.98 C 543.69,119.81 544.13,131.97 544.13,145.70 C 544.13,152.27 544.07,171.76 542.25,195.89 C 542.27,196.15 544.00,221.22 544.00,222.00 C 544.00,224.14 543.34,230.15 543.34,239.79 C 543.34,275.62 553.16,320.92 602.86,320.92 C 653.85,320.92 724.98,271.74 737.04,203.54 C 737.05,201.81 737.06,199.97 737.06,198.04 C 737.06,185.63 736.66,174.01 735.62,156.45 C 732.53,143.32 730.11,141.35 730.01,134.36 C 729.94,129.75 729.91,125.76 729.91,122.31 C 729.91,101.66 730.91,96.13 738.02,89.02 C 741.14,85.90 747.81,81.67 756.02,81.67 C 759.85,81.67 777.38,82.91 781.26,105.15 C 782.36,111.46 783.87,126.13 785.32,149.67 C 787.64,161.00 788.73,172.15 788.73,183.05 C 788.73,190.45 788.23,197.73 787.27,204.87 C 787.28,206.17 787.29,207.43 787.29,208.66 C 787.29,215.10 787.09,220.65 786.04,226.36 C 786.78,262.00 789.77,310.15 789.77,353.76 C 789.77,445.84 780.66,614.38 612.04,614.38 C 598.56,614.38 584.27,613.27 569.18,611.01 L 321.20,612.99 L 320.80,563.01 L 571.00,561.00 C 571.42,561.00 595.53,564.55 613.31,564.55 C 709.24,564.55 739.69,492.00 739.69,353.34 C 739.69,337.31 739.32,321.18 738.80,305.28 C 726.08,319.20 674.06,370.93 603.47,370.93 C 563.61,370.93 532.13,353.09 513.47,322.82 C 490.16,371.46 456.59,383.00 447.00,383.00 C 444.66,383.00 408.52,382.47 376.67,350.62 C 349.08,323.03 334.11,282.95 334.11,242.61 C 334.11,225.02 336.02,225.35 336.02,212.10 C 336.02,161.49 333.44,104.28 297.37,81.39 C 205.31,121.59 189.64,277.46 189.64,378.93 C 189.64,383.95 191.03,442.24 191.03,442.88 C 191.03,474.28 189.09,504.89 187.22,534.95 C 185.96,555.23 184.71,575.27 184.04,595.17 C 184.28,597.90 184.38,600.54 184.38,603.07 Z" transform="translate(2612.12,100.00) scale(0.8000,0.8000)" fill="#000000" />
  <path d="M 595.87,550.10 C 595.50,550.42 566.99,575.00 551.00,575.00 C 547.02,575.00 494.88,565.66 451.28,522.07 C 396.85,467.64 378.77,386.47 365.41,311.18 C 349.34,315.90 332.80,319.04 314.61,319.04 C 295.26,319.04 250.00,311.77 229.40,305.11 C 203.86,296.85 171.86,278.36 171.86,237.51 C 171.86,164.16 230.95,107.91 327.73,103.04 C 328.16,103.02 328.58,103.00 329.00,103.00 L 356.41,103.00 C 377.43,95.92 401.74,100.33 412.84,94.15 C 415.58,92.62 418.55,91.65 421.58,91.24 C 421.58,91.24 771.58,43.24 771.63,43.23 L 778.42,92.76 L 432.57,140.19 C 408.36,151.46 381.57,146.36 370.91,150.96 C 367.75,152.32 364.38,153.00 361.00,153.00 L 329.65,153.00 C 309.99,154.05 221.81,162.99 221.81,238.52 C 221.81,255.46 256.88,261.47 282.99,265.41 C 308.26,269.23 308.26,269.23 315.84,269.23 C 348.82,269.23 372.62,253.00 385.00,253.00 C 397.23,253.00 407.55,261.81 409.62,273.68 C 429.34,386.85 447.69,492.12 548.02,523.20 C 555.88,518.51 562.84,513.02 568.99,506.87 C 592.69,483.17 605.34,448.15 606.00,411.78 L 606.00,356.00 C 606.00,355.23 609.87,316.36 616.39,279.60 C 618.49,267.77 628.80,259.00 641.00,259.00 C 652.15,259.00 661.72,266.32 664.89,276.62 C 667.93,286.51 668.69,296.07 668.69,305.02 C 668.69,314.37 667.72,326.17 667.72,337.16 C 667.72,343.74 668.11,342.82 668.11,356.54 C 668.11,435.29 648.73,514.62 641.91,588.11 C 640.24,610.23 639.95,632.76 639.95,655.71 C 639.95,656.06 640.03,690.03 640.03,690.27 C 640.03,706.05 640.03,707.05 638.00,711.81 C 613.73,768.83 541.79,776.22 484.51,782.10 C 452.90,785.35 445.40,786.88 445.01,786.92 C 438.76,787.41 432.55,787.64 426.39,787.64 C 357.33,787.64 290.00,758.24 226.75,758.24 C 221.50,758.24 216.32,758.45 211.21,758.90 L 211.17,758.90 L 206.79,709.10 C 213.77,708.49 220.70,708.21 227.56,708.21 C 297.31,708.21 364.80,737.62 427.19,737.62 C 431.50,737.62 435.76,737.47 439.97,737.16 C 472.21,731.88 516.07,730.66 548.70,721.56 C 568.64,716.00 583.29,707.79 590.03,696.14 C 590.03,694.20 590.04,692.24 590.04,690.29 C 590.04,689.94 589.96,655.02 589.96,654.79 C 589.96,621.95 589.96,595.98 595.87,550.10 Z" transform="translate(3662.97,100.00) scale(0.8000,0.8000)" fill="#000000" />
  <path d="M 577.64,565.25 C 577.64,456.40 383.33,439.54 383.33,286.00 C 383.33,215.36 440.44,158.77 504.81,136.38 L 521.24,183.61 C 500.67,190.76 479.72,203.37 463.83,219.27 C 444.85,238.24 433.32,260.88 433.32,285.95 C 433.32,342.59 469.36,371.28 522.33,411.26 C 572.69,449.26 627.55,490.67 627.55,565.94 C 627.55,572.64 627.10,579.52 626.16,586.58 C 626.55,591.04 626.73,595.49 626.73,599.92 C 626.73,670.56 579.14,737.39 510.17,757.95 C 506.95,758.91 506.95,758.91 415.57,760.99 L 414.43,711.01 L 498.87,709.09 C 546.17,693.40 576.72,646.05 576.72,599.58 C 576.72,594.79 576.00,586.14 576.00,586.00 C 576.00,581.85 577.64,576.17 577.64,565.25  Z M 197.72,446.47 C 197.72,492.62 208.00,522.50 208.00,530.00 C 208.00,532.16 186.84,735.12 185.86,744.60 C 185.86,744.60 136.14,739.44 136.14,739.40 C 157.70,531.63 157.70,531.63 157.70,531.63 C 151.03,502.59 147.85,474.33 147.85,447.12 C 147.85,258.30 300.17,123.35 494.47,123.35 C 520.32,123.35 546.83,125.74 573.72,130.70 C 575.87,130.50 577.95,130.42 579.99,130.42 C 597.86,130.42 618.35,135.00 635.00,135.00 C 637.38,135.00 637.38,135.00 723.71,151.45 C 723.71,151.45 714.35,200.56 714.29,200.55 C 633.32,185.13 633.32,185.13 633.32,185.13 C 632.48,185.15 631.65,185.17 630.82,185.17 C 617.86,185.17 593.41,180.49 579.47,180.49 C 576.64,180.49 576.40,181.00 573.00,181.00 C 566.76,181.00 538.47,173.33 494.42,173.33 C 329.07,173.33 197.72,285.24 197.72,446.47 Z" transform="translate(4713.81,100.00) scale(0.8000,0.8000)" fill="#000000" />
  <path d="M 427.60,902.87 C 389.78,902.87 353.14,925.73 345.61,968.37 C 345.61,968.37 296.38,959.68 296.39,959.63 C 307.82,894.86 363.43,852.88 427.55,852.88 C 429.20,852.88 430.85,852.91 432.51,852.97 C 434.36,852.84 436.19,852.78 437.99,852.78 C 480.36,852.78 501.45,883.93 516.73,906.51 C 531.67,928.57 539.40,938.05 553.12,938.05 C 564.33,938.05 570.54,933.00 579.00,933.00 C 582.08,933.00 583.38,933.56 587.73,933.56 C 603.39,933.56 618.75,925.01 637.89,909.68 L 684.62,859.05 L 721.38,892.95 C 672.14,946.30 672.14,946.30 670.72,947.44 C 649.72,964.45 622.72,983.58 588.06,983.58 C 586.01,983.58 583.93,983.51 581.83,983.38 C 571.83,986.40 562.14,987.94 552.89,987.94 C 511.48,987.94 490.96,957.64 475.30,934.51 C 458.85,910.21 451.66,902.71 439.15,902.71 C 436.30,902.71 435.16,903.00 433.00,903.00 C 432.95,903.00 429.39,902.87 427.60,902.87  Z M 108.86,305.66 C 108.86,140.71 217.05,29.02 382.26,29.02 C 406.69,29.02 432.26,31.46 458.75,36.48 C 466.58,34.95 474.37,34.15 481.97,34.15 C 504.36,34.15 525.15,41.06 540.69,56.60 C 556.29,72.20 564.00,93.97 564.00,117.76 C 564.00,198.00 564.00,198.00 564.00,198.00 L 514.00,198.00 L 514.00,118.13 C 513.84,103.00 509.17,84.05 482.21,84.05 C 470.85,84.05 465.10,87.00 459.00,87.00 C 452.60,87.00 423.64,78.92 381.75,78.92 C 312.70,78.92 258.11,101.70 220.49,139.32 C 181.81,178.00 158.76,234.92 158.76,305.48 C 158.76,363.36 173.81,405.43 173.99,413.43 C 174.23,423.87 174.31,434.33 174.31,444.78 C 174.31,445.67 173.61,532.64 173.61,533.63 C 173.61,585.78 176.00,603.58 176.00,608.00 L 176.00,614.00 C 176.00,615.62 176.00,615.62 167.79,679.22 C 167.30,683.02 167.30,683.02 153.70,712.49 C 153.70,712.49 108.30,691.54 108.30,691.51 L 118.70,668.98 L 126.00,612.38 L 126.00,608.97 C 124.12,584.19 123.61,559.12 123.61,534.10 C 123.61,533.20 124.32,445.72 124.32,444.72 C 124.32,435.58 124.25,426.52 124.07,417.55 C 113.84,378.59 108.86,341.04 108.86,305.66  Z M 352.00,718.00 L 302.00,718.00 L 302.00,640.00 C 302.00,639.03 305.44,621.22 312.06,543.07 C 321.82,427.82 333.32,293.02 407.76,218.57 C 441.23,185.11 487.33,164.99 546.36,164.99 C 600.67,164.99 677.60,192.32 709.46,334.91 C 721.26,387.71 724.14,443.07 724.14,486.85 C 724.14,492.87 724.09,498.67 724.00,504.21 L 724.00,584.39 L 721.99,714.39 L 672.01,713.62 L 674.00,583.81 L 674.00,503.57 C 674.09,498.51 674.14,493.23 674.14,487.76 C 674.14,417.46 665.81,295.69 612.01,241.89 C 600.85,230.73 580.92,214.98 546.17,214.98 C 478.05,214.98 418.91,245.23 387.76,363.33 C 364.12,452.96 363.73,564.23 352.00,641.91 L 352.00,718.00 Z" transform="translate(5764.66,100.00) scale(0.8000,0.8000)" fill="#000000" />
  <path d="M 641.19,97.96 C 641.19,97.96 690.82,103.99 690.81,104.04 C 664.81,318.04 664.81,318.04 664.81,318.04 C 664.81,318.04 615.18,312.01 615.19,311.96 C 641.19,97.96 641.19,97.96 641.19,97.96  Z M 411.00,461.00 C 411.00,464.00 409.68,472.65 409.68,486.21 C 409.68,544.12 434.55,594.35 534.11,615.43 C 580.87,625.34 631.08,626.79 694.49,628.01 C 695.13,628.02 695.13,628.02 865.77,640.07 L 862.25,689.93 C 692.86,677.98 692.86,677.98 687.79,677.88 C 592.87,676.08 472.28,673.73 405.87,607.31 C 376.65,578.09 359.77,537.33 359.77,484.99 C 359.77,476.93 360.17,468.60 360.98,459.99 C 360.93,456.67 360.91,453.35 360.91,450.04 C 360.91,369.17 376.08,290.09 390.64,213.35 C 397.44,177.48 404.15,142.11 409.27,107.33 C 409.27,107.33 458.73,114.62 458.73,114.67 C 453.40,150.83 446.55,186.86 439.75,222.72 C 425.16,299.60 410.90,375.66 410.90,450.25 C 410.90,456.42 411.00,460.35 411.00,461.00  Z M 154.85,624.93 C 154.85,625.77 155.74,670.06 155.74,670.52 C 155.74,682.89 155.15,695.78 153.00,709.10 L 153.00,741.00 L 103.00,741.00 L 103.00,707.00 C 103.00,701.32 105.69,695.82 105.69,669.82 C 105.69,669.12 104.82,624.91 104.82,624.46 C 104.82,613.09 105.30,601.26 107.02,589.05 C 107.14,577.90 107.19,566.69 107.19,555.43 C 107.19,542.39 107.12,529.27 107.01,516.10 C 106.11,504.49 105.66,492.98 105.66,481.57 C 105.66,273.32 253.88,102.94 467.33,80.15 C 468.60,80.01 468.60,80.01 899.88,78.01 L 900.12,127.99 L 471.42,129.99 C 283.90,150.61 155.65,299.39 155.65,481.49 C 155.65,500.64 156.97,511.82 156.99,514.79 C 157.11,528.36 157.18,541.91 157.18,555.43 C 157.18,586.69 156.98,593.01 156.72,594.74 C 155.29,604.25 154.85,614.31 154.85,624.93 Z" transform="translate(6815.51,100.00) scale(0.8000,0.8000)" fill="#000000" />
  <path d="M 427.60,902.87 C 389.78,902.87 353.14,925.73 345.61,968.37 C 345.61,968.37 296.38,959.68 296.39,959.63 C 307.82,894.86 363.43,852.88 427.55,852.88 C 429.20,852.88 430.85,852.91 432.51,852.97 C 434.36,852.84 436.19,852.78 437.99,852.78 C 480.36,852.78 501.45,883.93 516.73,906.51 C 531.67,928.57 539.40,938.05 553.12,938.05 C 564.33,938.05 570.54,933.00 579.00,933.00 C 582.08,933.00 583.38,933.56 587.73,933.56 C 603.39,933.56 618.75,925.01 637.89,909.68 L 684.62,859.05 L 721.38,892.95 C 672.14,946.30 672.14,946.30 670.72,947.44 C 649.72,964.45 622.72,983.58 588.06,983.58 C 586.01,983.58 583.93,983.51 581.83,983.38 C 571.83,986.40 562.14,987.94 552.89,987.94 C 511.48,987.94 490.96,957.64 475.30,934.51 C 458.85,910.21 451.66,902.71 439.15,902.71 C 436.30,902.71 435.16,903.00 433.00,903.00 C 432.95,903.00 429.39,902.87 427.60,902.87  Z M 184.38,603.07 C 184.38,619.66 179.99,631.36 179.99,643.91 L 130.01,644.09 C 130.00,643.96 130.00,643.83 130.00,643.71 C 130.00,626.09 134.39,613.74 134.39,602.97 C 134.39,599.52 134.00,598.63 134.00,596.00 C 134.00,572.39 141.02,494.57 141.02,442.55 C 141.02,413.96 139.64,414.42 139.64,377.95 C 139.64,286.32 150.35,77.39 291.04,30.30 C 293.62,29.44 296.31,29.00 299.00,29.00 C 311.77,29.00 332.18,43.47 342.91,54.20 C 382.83,94.12 386.03,157.56 386.03,208.75 C 386.03,220.90 386.03,221.95 385.64,224.21 C 384.66,229.95 384.20,235.81 384.20,241.67 C 384.20,281.58 406.11,325.38 443.03,332.30 C 479.72,311.28 489.71,225.28 492.11,195.29 C 490.31,167.55 488.39,132.39 488.39,108.14 C 488.39,87.09 489.71,79.35 497.01,72.05 C 500.14,68.92 506.81,64.66 515.07,64.66 C 540.07,64.66 541.82,91.26 543.05,109.98 C 543.69,119.81 544.13,131.97 544.13,145.70 C 544.13,152.27 544.07,171.76 542.25,195.89 C 542.27,196.15 544.00,221.22 544.00,222.00 C 544.00,224.14 543.34,230.15 543.34,239.79 C 543.34,275.62 553.16,320.92 602.86,320.92 C 653.85,320.92 724.98,271.74 737.04,203.54 C 737.05,201.81 737.06,199.97 737.06,198.04 C 737.06,185.63 736.66,174.01 735.62,156.45 C 732.53,143.32 730.11,141.35 730.01,134.36 C 729.94,129.75 729.91,125.76 729.91,122.31 C 729.91,101.66 730.91,96.13 738.02,89.02 C 741.14,85.90 747.81,81.67 756.02,81.67 C 759.85,81.67 777.38,82.91 781.26,105.15 C 782.36,111.46 783.87,126.13 785.32,149.67 C 787.64,161.00 788.73,172.15 788.73,183.05 C 788.73,190.45 788.23,197.73 787.27,204.87 C 787.28,206.17 787.29,207.43 787.29,208.66 C 787.29,215.10 787.09,220.65 786.04,226.36 C 786.78,262.00 789.77,310.15 789.77,353.76 C 789.77,445.84 780.66,614.38 612.04,614.38 C 598.56,614.38 584.27,613.27 569.18,611.01 L 321.20,612.99 L 320.80,563.01 L 571.00,561.00 C 571.42,561.00 595.53,564.55 613.31,564.55 C 709.24,564.55 739.69,492.00 739.69,353.34 C 739.69,337.31 739.32,321.18 738.80,305.28 C 726.08,319.20 674.06,370.93 603.47,370.93 C 563.61,370.93 532.13,353.09 513.47,322.82 C 490.16,371.46 456.59,383.00 447.00,383.00 C 444.66,383.00 408.52,382.47 376.67,350.62 C 349.08,323.03 334.11,282.95 334.11,242.61 C 334.11,225.02 336.02,225.35 336.02,212.10 C 336.02,161.49 333.44,104.28 297.37,81.39 C 205.31,121.59 189.64,277.46 189.64,378.93 C 189.64,383.95 191.03,442.24 191.03,442.88 C 191.03,474.28 189.09,504.89 187.22,534.95 C 185.96,555.23 184.71,575.27 184.04,595.17 C 184.28,597.90 184.38,600.54 184.38,603.07 Z" transform="translate(7866.35,100.00) scale(0.8000,0.8000)" fill="#000000" />
</svg>
