<?xml version="1.0" encoding="UTF-8" standalone="no"?>
<!--
Representation of "uta monsuta" in sitelen kalama pona
Generated by generate_sitelen_kalama_pona.py

Description:
  Representation of "uta monsuta" in sitelen kalama pona.
  Sources: uta: https://commons.wikimedia.org/wiki/File:Sitelen_seli_kiwen_-_uta.svg; monsuta: https://commons.wikimedia.org/wiki/File:Sitelen_seli_kiwen_-_monsuta.svg

Categories:
  [[Category:Sitelen kalama pona]]
  [[Category:Toki Pona text containing uta monsuta]]

Sources:
  uta: https://commons.wikimedia.org/wiki/File:Sitelen_seli_kiwen_-_uta.svg
  monsuta: https://commons.wikimedia.org/wiki/File:Sitelen_seli_kiwen_-_monsuta.svg
-->
<svg version="1.1" width="1805" height="1000"
     viewBox="0 0 1805 1000"
     xmlns="http://www.w3.org/2000/svg">
  <path d="M443 112Q426 112 416.0 123.0Q406 134 404.5 141.5Q403 149 403 153Q403 163 415.5 186.0Q428 209 435 212Q444 215 464.0 210.0Q484 205 489 192Q490 190 502.0 175.5Q514 161 514 145Q514 136 506.5 129.0Q499 122 489.5 119.0Q480 116 468.0 114.0Q456 112 451.0 112.0Q446 112 443 112ZM595 609Q601 609 616.0 610.0Q631 611 647.0 612.0Q663 613 678.5 614.0Q694 615 704 616L715 617Q728 617 737.5 595.0Q747 573 747 564Q747 556 741.0 549.5Q735 543 736 539V538Q737 536 737 535Q737 515 719.5 472.0Q702 429 685.0 393.0Q668 357 668 355Q668 348 661 348Q657 348 648.5 339.5Q640 331 627.5 320.0Q615 309 604 304Q529 271 507 271Q504 271 477.0 275.0Q450 279 411.0 287.0Q372 295 347 302Q332 306 308.0 318.0Q284 330 281 335Q279 339 269 339Q260 339 260 344Q260 350 250.5 359.5Q241 369 233 372Q222 376 206.0 399.5Q190 423 187 440Q185 453 179.0 467.5Q173 482 172 494Q170 508 161.5 539.5Q153 571 153 579Q153 592 174.5 609.0Q196 626 220 626Q228 626 232 625Q247 621 361.5 617.0Q476 613 481 610Q485 608 488 608Q490 608 500.0 610.5Q510 613 520.0 613.0Q530 613 552.5 611.0Q575 609 595 609ZM613 548Q579 549 520.5 551.0Q462 553 420 555L378 557Q237 557 231 551Q230 550 230.0 546.0Q230 542 232.5 523.0Q235 504 243.0 476.5Q251 449 261 438Q271 428 276 416Q278 408 297.5 394.5Q317 381 326 381Q330 381 340.5 373.5Q351 366 376 360Q478 335 486 335Q495 335 511.0 337.0Q527 339 553.0 348.0Q579 357 594 370Q602 377 623.5 410.5Q645 444 654 461Q665 485 665 516Q665 537 656.5 542.0Q648 547 613 548Z" transform="translate(0.00,958.33) scale(0.9583,-0.9583)" fill="#000000" />
  <path d="M232 380Q235 380 238.5 384.5Q242 389 242.0 392.0Q242 395 251.5 408.5Q261 422 261 429Q261 438 265 438Q271 438 281.0 465.0Q291 492 294 518Q303 598 331 598Q336 598 344 593Q348 591 358.5 560.0Q369 529 375 523Q377 521 386.5 501.5Q396 482 408.0 456.0Q420 430 431.5 404.5Q443 379 452 360L460 342Q466 328 472 327Q476 327 476 336Q476 339 485.5 365.0Q495 391 497 413Q499 439 508.5 466.0Q518 493 518 501Q518 510 523.0 526.5Q528 543 528 557Q528 566 541.5 578.0Q555 590 565 590Q570 590 579.5 584.5Q589 579 589 569Q589 565 597.0 547.5Q605 530 618.0 501.5Q631 473 639 449Q654 404 666 404Q671 404 676 412Q690 431 698.5 451.5Q707 472 712.0 480.5Q717 489 729 489Q737 489 749.5 478.0Q762 467 762.0 460.0Q762 453 766 451Q769 450 796.0 409.0Q823 368 823 365Q823 364 832.0 354.0Q841 344 841 326Q841 292 822 292Q812 292 786.5 318.0Q761 344 759 357Q758 367 748.0 373.5Q738 380 728 380Q715 380 715 368Q715 362 708.0 337.5Q701 313 699 305Q698 297 690.0 291.0Q682 285 674 285Q670 285 665.0 288.5Q660 292 655 292Q645 292 635.5 305.0Q626 318 624 334Q621 358 607.0 382.0Q593 406 589 416Q584 429 575.0 441.5Q566 454 561.0 454.0Q556 454 556 432Q556 413 551 403Q542 387 525.5 305.5Q509 224 509 213Q509 201 506.5 196.5Q504 192 493 187Q481 182 471 182Q462 182 447 187Q434 192 427 264Q425 281 406.0 321.5Q387 362 387 369Q387 378 373.5 398.0Q360 418 360 421Q360 426 347.5 443.5Q335 461 331 461Q328 461 323.5 442.0Q319 423 309.0 391.0Q299 359 284 334Q270 310 270 303Q270 277 229 277Q223 277 220.5 278.0Q218 279 213.5 284.0Q209 289 204 300Q196 318 181.0 340.0Q166 362 162 362Q157 362 145.5 349.5Q134 337 134 331Q134 329 131.5 322.0Q129 315 120.5 306.5Q112 298 100 298Q85 298 72.0 307.5Q59 317 59 330Q59 338 74.0 355.0Q89 372 102 379Q118 387 127.5 419.0Q137 451 140 454Q149 463 166 463Q171 463 185.5 458.0Q200 453 200 445Q200 440 212.0 410.0Q224 380 232 380Z" transform="translate(942.50,958.33) scale(0.9583,-0.9583)" fill="#000000" />
</svg>
