<?xml version="1.0" encoding="UTF-8" standalone="no"?>
<!--
Representation of "toki tawa pilin pona" in sitelen kalama pona
Generated by generate_sitelen_kalama_pona.py

Description:
  Representation of "toki tawa pilin pona" in sitelen kalama pona.
  Sources: toki: https://commons.wikimedia.org/wiki/File:Sitelen_seli_kiwen_-_toki.svg; tawa: https://commons.wikimedia.org/wiki/File:Sitelen_seli_kiwen_-_tawa.svg; pilin-pona: https://commons.wikimedia.org/wiki/File:Sitelen_seli_kiwen_-_pilin-pona.svg

Categories:
  [[Category:Toki Pona text containing toki tawa pilin pona]]

Sources:
  toki: https://commons.wikimedia.org/wiki/File:Sitelen_seli_kiwen_-_toki.svg
  tawa: https://commons.wikimedia.org/wiki/File:Sitelen_seli_kiwen_-_tawa.svg
  pilin-pona: https://commons.wikimedia.org/wiki/File:Sitelen_seli_kiwen_-_pilin-pona.svg
-->
<svg version="1.1" width="2747" height="1000"
     viewBox="0 0 2747 1000"
     xmlns="http://www.w3.org/2000/svg">
  <path d="M222 295Q222 320 228.0 339.0Q234 358 240.0 368.0Q246 378 246 382Q246 395 265.0 421.5Q284 448 300 456Q316 465 325.0 475.0Q334 485 335.5 491.0Q337 497 344.0 502.0Q351 507 366 509Q385 512 401.0 516.5Q417 521 428 521Q445 521 487.0 512.0Q529 503 540 503Q552 503 571.5 496.0Q591 489 608.0 481.5Q625 474 628 473Q640 469 640 463Q640 457 647.0 453.0Q654 449 654.0 445.0Q654 441 660.5 434.5Q667 428 676.0 416.0Q685 404 690 391Q700 367 702 365Q706 361 706 347Q706 339 709.0 330.5Q712 322 713.0 320.0Q714 318 712 314Q709 312 707.0 303.0Q705 294 700.0 278.5Q695 263 686 250Q678 237 671.0 219.5Q664 202 654 192Q647 185 644.5 179.5Q642 174 642.5 171.0Q643 168 639.5 165.0Q636 162 626 158Q608 150 608 146Q608 141 586.5 133.0Q565 125 538.0 117.0Q511 109 504 106Q488 98 458 98Q419 98 389.5 107.0Q360 116 345.5 124.5Q331 133 330 133Q322 133 305.0 142.5Q288 152 286 157Q285 165 278 167Q265 172 249.0 217.5Q233 263 230 265Q222 270 222 295ZM584 428Q581 428 570.5 436.0Q560 444 534.0 452.5Q508 461 468 461Q434 461 405.0 452.5Q376 444 361.0 435.0Q346 426 333.0 411.5Q320 397 317.5 393.0Q315 389 312 384Q308 374 302 374Q297 374 289.5 351.5Q282 329 282 313Q282 289 313.5 236.0Q345 183 378 177Q397 173 402 170Q416 163 460 163Q496 163 511.0 169.0Q526 175 528 175Q533 175 548.0 180.5Q563 186 588.0 205.5Q613 225 626 254Q643 288 645.5 296.5Q648 305 648 318Q648 349 638 370Q633 383 611.5 405.5Q590 428 584 428ZM144 612Q144 622 151.5 632.5Q159 643 172 643Q181 643 202.5 624.5Q224 606 227.5 606.0Q231 606 235.0 599.0Q239 592 244 592Q249 592 258.5 579.0Q268 566 268 555Q268 545 259.5 539.5Q251 534 243 533L234 532Q226 532 207.5 550.5Q189 569 182 569Q175 569 170.5 576.0Q166 583 162 583Q144 595 144 612ZM622 636Q645 645 677.0 671.5Q709 698 726 698Q740 698 748.0 689.5Q756 681 756 667Q756 654 752.0 648.5Q748 643 734 636Q722 629 700.0 615.0Q678 601 661.5 591.5Q645 582 638 580Q629 577 623.5 573.0Q618 569 608 569Q580 569 580 589Q580 601 592.0 615.0Q604 629 622 636ZM400 600Q400 601 403.0 615.0Q406 629 409.0 652.0Q412 675 412 697Q412 706 410 712Q405 729 429 742Q447 751 448 740Q448 734 458 730Q464 729 465.0 725.0Q466 721 466 708Q466 673 461.0 651.5Q456 630 456 608Q456 595 444.0 583.0Q432 571 420 571Q410 571 405.0 580.0Q400 589 400 600Z" transform="translate(0.00,958.33) scale(0.9583,-0.9583)" fill="#000000" />
  <path d="M284 89Q284 88 283.5 84.0Q283 80 281.5 73.0Q280 66 277.0 59.5Q274 53 268.0 48.5Q262 44 254 44Q242 44 203.0 55.5Q164 67 159 67Q155 67 150.0 71.0Q145 75 130.0 85.0Q115 95 93 106Q38 134 38 155Q38 164 52.0 173.5Q66 183 69 199Q71 213 84.5 223.0Q98 233 103 243Q108 254 120.5 269.0Q133 284 154 327Q159 338 171.5 353.5Q184 369 188 384Q194 405 197 405Q201 405 206.0 417.5Q211 430 211 438Q211 447 216 447Q218 447 220.0 451.5Q222 456 225.5 464.5Q229 473 235 480Q242 488 268.0 530.5Q294 573 299 578Q316 596 333.0 625.5Q350 655 355 673Q358 686 370.5 695.0Q383 704 393.5 708.5Q404 713 404 715Q404 719 414.0 730.5Q424 742 432 742Q436 742 450 735Q462 729 465.0 720.5Q468 712 472.0 686.5Q476 661 486 632L504 578Q511 555 550.0 480.0Q589 405 594 381Q597 366 610.5 337.0Q624 308 624 302Q624 298 633.5 281.5Q643 265 643 260Q643 256 657.5 224.0Q672 192 674 177Q679 145 699 143Q712 143 765 138Q820 133 832.0 130.5Q844 128 844 121Q844 116 853.0 116.0Q862 116 862 91Q862 82 858.0 74.0Q854 66 854 61Q854 50 818 50Q795 50 781.0 57.0Q767 64 735 64Q700 64 679.0 59.5Q658 55 657 55Q641 55 628.0 68.0Q615 81 615 97Q615 103 616.0 109.0Q617 115 617 121Q617 133 612.0 143.0Q607 153 607 160Q607 168 591.5 210.5Q576 253 571 259Q562 270 557.0 292.5Q552 315 539 340Q538 343 537.5 345.5Q537 348 537.0 350.0Q537 352 537.5 353.5Q538 355 538.0 356.5Q538 358 536.5 359.0Q535 360 533 361Q526 363 526 372Q526 389 512.0 425.0Q498 461 487.0 474.0Q476 487 462.0 514.0Q448 541 444 557Q441 571 428.0 600.5Q415 630 412 630Q410 630 403.0 616.0Q396 602 393 602Q392 602 376.5 579.0Q361 556 361 555Q361 551 344 534Q330 519 313.0 493.5Q296 468 286.5 449.0Q277 430 277.0 427.0Q277 424 267.5 410.5Q258 397 258 390Q258 381 254 381Q249 381 249 374Q249 369 237.5 348.5Q226 328 224 321Q221 311 216.0 311.0Q211 311 211 306Q211 303 208.5 299.0Q206 295 201.0 285.5Q196 276 191 263Q184 245 161.5 220.5Q139 196 139 183Q139 173 147.5 162.5Q156 152 164 152Q171 152 194.0 142.5Q217 133 219 133Q226 133 249.0 124.5Q272 116 272 113Q272 108 278.0 102.5Q284 97 284 89Z" transform="translate(942.50,958.33) scale(0.9583,-0.9583)" fill="#000000" />
  <path d="M513 455Q513 465 531.0 470.5Q549 476 557 476Q569 476 577.5 463.0Q586 450 588.0 440.5Q590 431 590 427Q590 421 582.5 413.0Q575 405 560.0 388.0Q545 371 532 349Q504 299 429 299Q401 299 369.0 316.0Q337 333 318.5 349.5Q300 366 300 370Q300 373 293.0 381.5Q286 390 286 398Q286 405 281.5 412.0Q277 419 277 434Q277 451 281.5 456.0Q286 461 298 461Q323 461 337.5 434.0Q352 407 362 399Q406 366 445 366Q461 366 466.5 376.0Q472 386 475 386Q480 386 497.5 407.0Q515 428 515 444Q515 447 514 449Q513 451 513 455ZM24 542Q24 559 31.0 581.0Q38 603 38 607Q38 612 44.5 617.0Q51 622 53 633Q58 654 98.0 684.5Q138 715 182 729Q195 733 203.5 736.5Q212 740 214.5 741.0Q217 742 218.5 742.5Q220 743 223 743Q295 743 330 719Q351 705 367 698Q382 692 395.0 681.0Q408 670 408 663Q408 657 422 643L437 629L448 641Q458 653 463 653Q465 653 467.0 654.5Q469 656 472.0 659.0Q475 662 486.5 669.0Q498 676 515 684Q546 698 563 710Q573 717 595.0 720.5Q617 724 619 726Q630 732 667 732Q748 732 757 718Q759 714 768 714Q774 714 786.5 704.5Q799 695 803 695Q809 695 831.0 672.5Q853 650 853 645Q853 638 864.5 614.5Q876 591 876 565Q876 530 870.5 505.0Q865 480 858.0 465.0Q851 450 850 447Q846 428 842 423Q835 413 824.0 390.5Q813 368 789.5 336.0Q766 304 721 260L716 255Q711 250 706.0 245.0Q701 240 693.5 232.5Q686 225 679 218Q657 196 625.5 171.0Q594 146 572.5 130.5Q551 115 549 110Q548 108 533.0 97.0Q518 86 501.5 69.5Q485 53 478 38Q473 28 467.0 25.5Q461 23 457 30Q454 36 427 26Q423 25 423 28Q423 36 408.0 65.5Q393 95 387 99Q383 101 365.0 116.0Q347 131 340 135Q335 138 318.0 159.0Q301 180 296.0 180.0Q291 180 260.5 204.5Q230 229 226 237Q222 243 212.0 250.5Q202 258 172.0 284.0Q142 310 101 355Q78 379 54.0 431.0Q30 483 30 506V512Q32 518 28.0 523.5Q24 529 24 542ZM384 540Q384 547 387.0 554.5Q390 562 390 568Q390 584 369.5 616.5Q349 649 335 654Q324 658 313.5 664.0Q303 670 297 672Q282 679 241 679Q215 679 200.5 673.0Q186 667 181 667Q174 667 159 654Q148 643 132 631Q117 620 107.5 597.0Q98 574 96.0 558.0Q94 542 94 529Q94 522 102.5 482.0Q111 442 118 442Q121 442 124.5 435.5Q128 429 133.5 418.5Q139 408 142 403Q150 391 168.5 372.0Q187 353 191 353Q194 353 201.0 339.0Q208 325 213 324Q221 322 249.5 297.0Q278 272 291 256Q298 247 344.0 210.5Q390 174 408 157Q440 127 456 127Q467 127 479.5 136.5Q492 146 516 169Q526 179 535.5 186.0Q545 193 550.0 196.5Q555 200 559.5 202.0Q564 204 565.5 205.5Q567 207 567 210Q567 214 574.5 214.0Q582 214 587 220Q600 236 631.0 263.5Q662 291 685.0 312.0Q708 333 708.0 339.0Q708 345 727.5 366.5Q747 388 747 390Q747 395 757 403Q772 417 794.5 467.0Q817 517 817 539Q817 544 813.5 560.5Q810 577 810 592Q810 605 800.5 622.0Q791 639 782 642Q773 646 773.0 648.0Q773 650 767.5 655.0Q762 660 743.0 666.0Q724 672 698 672Q594 672 584 662Q579 657 559.5 648.5Q540 640 532 633Q525 627 516.5 622.0Q508 617 503.5 613.5Q499 610 498 606Q497 601 474.5 574.5Q452 548 445 535Q434 513 413 513Q384 513 384 540Z" transform="translate(1885.00,958.33) scale(0.9583,-0.9583)" fill="#000000" />
</svg>
