<?xml version="1.0" encoding="UTF-8" standalone="no"?>
<!--
Representation of "kiwen seli" in sitelen kalama pona
Generated by generate_sitelen_kalama_pona.py

Description:
  Representation of "kiwen seli" in sitelen kalama pona.
  Sources: kiwen-seli: https://commons.wikimedia.org/wiki/File:Sitelen_seli_kiwen_-_kiwen-seli.svg

Categories:
  [[Category:Sitelen kalama pona]]
  [[Category:Toki Pona text containing kiwen seli]]

Sources:
  kiwen-seli: https://commons.wikimedia.org/wiki/File:Sitelen_seli_kiwen_-_kiwen-seli.svg
-->
<svg version="1.1" width="862" height="1000"
     viewBox="0 0 862 1000"
     xmlns="http://www.w3.org/2000/svg">
  <path d="M417 340Q417 348 430.5 362.0Q444 376 459 376Q472 376 487.5 364.5Q503 353 505 353Q508 353 510.0 345.5Q512 338 512 330Q512 316 506.5 304.0Q501 292 493 292Q487 292 487 288Q487 283 473 283Q456 283 441.0 289.5Q426 296 423 304Q421 310 416.0 315.5Q411 321 410.0 322.0Q409 323 412 327Q417 330 417 340ZM283 616Q289 616 306.0 600.5Q323 585 323 580Q323 577 335.0 563.0Q347 549 347 545Q347 542 367.5 520.0Q388 498 388 483Q388 480 387.5 478.5Q387 477 386.0 476.0Q385 475 381.5 470.5Q378 466 373 460Q366 449 354 449Q340 449 326.0 462.5Q312 476 312 487Q312 500 310.5 503.0Q309 506 300 514Q286 526 286 528Q286 529 271.5 551.5Q257 574 257.0 583.0Q257 592 268.0 604.0Q279 616 283 616ZM515 513Q515 517 536.5 547.0Q558 577 558 583Q558 588 562 588Q567 588 567.0 594.0Q567 600 579.5 610.5Q592 621 601 622Q615 624 617.5 623.0Q620 622 626.0 613.0Q632 604 632 593Q632 577 620.5 560.5Q609 544 597.5 531.5Q586 519 586 513Q586 507 579.5 498.0Q573 489 570 477Q568 461 554.0 447.0Q540 433 527 433Q506 433 500.0 440.5Q494 448 494 466Q494 479 497.5 487.0Q501 495 505.0 498.0Q509 501 512.0 504.5Q515 508 515 513ZM407 571Q407 577 406.0 584.5Q405 592 405 598Q405 625 417.5 643.5Q430 662 445 662Q455 662 463 653Q475 641 475 617Q475 610 470.0 587.0Q465 564 465 548Q465 536 467 524Q471 506 471 483Q471 464 464.0 455.5Q457 447 441 447Q430 447 415.5 456.5Q401 466 401 473Q406 488 406 505Q406 513 404.0 518.5Q402 524 402 527Q402 533 404 543Q407 554 407 571ZM201 719Q201 725 208.0 730.0Q215 735 215 742Q215 752 225 752Q231 752 234.5 755.0Q238 758 239.5 762.0Q241 766 249.5 769.5Q258 773 272 773Q279 773 286 772Q378 764 509 764Q528 764 545.5 764.5Q563 765 575.5 765.5Q588 766 598.5 767.0Q609 768 616.5 768.5Q624 769 628.5 769.5Q633 770 635.5 770.5Q638 771 638 771Q662 771 679.0 763.5Q696 756 698 744Q700 738 706.0 727.0Q712 716 720.5 705.0Q729 694 737.0 684.0Q745 674 750.0 667.0Q755 660 755 660Q755 658 762.5 650.0Q770 642 783.0 626.5Q796 611 806 597Q823 573 827 573Q834 573 839.5 555.5Q845 538 846 510L849 473L814 438Q814 438 808.0 432.0Q802 426 793.5 418.0Q785 410 775.0 400.0Q765 390 756.5 382.0Q748 374 742.0 368.0Q736 362 736 361Q736 359 732.5 355.5Q729 352 718.5 341.0Q708 330 696 313Q688 300 680.0 290.5Q672 281 668.5 278.0Q665 275 663.0 272.5Q661 270 661 267Q661 264 654.0 254.5Q647 245 644 231Q642 217 627.0 204.5Q612 192 603 174Q592 152 589.0 152.0Q586 152 586 147Q586 144 572.0 127.5Q558 111 558 106Q558 100 553.0 100.0Q548 100 548.0 94.0Q548 88 538 78Q532 71 530.5 65.5Q529 60 529 45Q529 30 511.0 16.5Q493 3 482 3Q463 3 448.0 14.5Q433 26 433 37Q433 52 418.0 71.5Q403 91 403 93Q403 97 392.5 107.0Q382 117 369.0 132.5Q356 148 351 162Q347 177 337.0 185.0Q327 193 313.0 205.5Q299 218 286 242Q279 255 273 255Q267 255 270 260Q274 265 252 285Q233 304 219 320Q215 325 211.5 328.0Q208 331 205.5 331.5Q203 332 201.5 332.0Q200 332 199.0 331.5Q198 331 197.5 331.5Q197 332 197 334Q197 338 178.0 362.0Q159 386 159 389Q159 395 131.0 423.5Q103 452 91 457Q78 464 76.0 479.5Q74 495 68 497Q61 499 61 505Q61 510 56.0 519.5Q51 529 51 533Q51 538 54 541Q58 544 58 551Q58 556 80.0 579.5Q102 603 128.5 631.5Q155 660 163 672Q168 678 178.0 688.0Q188 698 194.5 706.0Q201 714 201 719ZM590 708Q570 708 530.0 712.0Q490 716 482 716Q462 716 411.5 714.0Q361 712 335 712L310 713Q294 713 272.0 692.5Q250 672 246.5 672.0Q243 672 242.0 671.5Q241 671 241.0 669.0Q241 667 237.5 662.5Q234 658 227 652Q218 644 206.0 626.0Q194 608 177 592Q155 572 155 565Q155 559 151 559Q150 559 145.5 554.5Q141 550 138 544Q134 535 134 529Q134 510 168 473Q175 467 216.5 417.5Q258 368 258 363Q258 358 286 339Q289 338 295.0 329.0Q301 320 310.5 306.5Q320 293 328 284Q338 273 339.0 267.5Q340 262 346 258Q356 253 356 247Q356 245 357.0 243.5Q358 242 360.5 239.0Q363 236 367.0 232.5Q371 229 379.0 219.0Q387 209 396 196Q427 156 460 117L475 100L494 129Q531 186 535 188Q539 190 539 197Q539 203 551.5 217.5Q564 232 581.0 252.5Q598 273 605 289Q624 326 647.0 355.0Q670 384 684.0 398.0Q698 412 698 419Q698 423 712.0 435.5Q726 448 742.0 463.0Q758 478 762 485Q767 494 775.0 499.5Q783 505 783 512Q783 526 761.5 550.0Q740 574 740 574Q740 584 689.0 639.0Q638 694 620 704Q613 708 590 708Z" transform="translate(0.00,958.33) scale(0.9583,-0.9583)" fill="#000000" />
</svg>
