<?xml version="1.0" encoding="UTF-8" standalone="no"?>
<!--
Representation of "sitelen pona pi jan Makuwe" in sitelen kalama pona
Generated by generate_sitelen_kalama_pona.py

Description:
  Representation of "sitelen pona pi jan Makuwe" in sitelen kalama pona.
  Sources: sitelen-pona: https://commons.wikimedia.org/wiki/File:Sitelen_seli_kiwen_-_sitelen-pona.svg; pi: https://commons.wikimedia.org/wiki/File:Sitelen_seli_kiwen_-_pi.svg; jan: https://commons.wikimedia.org/wiki/File:Sitelen_seli_kiwen_-_jan.svg; ma: https://commons.wikimedia.org/wiki/File:Sitelen_kalama_pona_-_ma.svg; ku: https://commons.wikimedia.org/wiki/File:Sitelen_kalama_pona_-_ku.svg; we: https://commons.wikimedia.org/wiki/File:Sitelen_kalama_pona_-_we.svg

Categories:
  [[Category:Toki Pona text containing sitelen pona pi jan]]
  [[Category:Toki Pona text containing sound symbol Ma]]
  [[Category:Toki Pona text containing sound symbol Ku]]
  [[Category:Toki Pona text containing sound symbol We]]

Sources:
  sitelen-pona: https://commons.wikimedia.org/wiki/File:Sitelen_seli_kiwen_-_sitelen-pona.svg
  pi: https://commons.wikimedia.org/wiki/File:Sitelen_seli_kiwen_-_pi.svg
  jan: https://commons.wikimedia.org/wiki/File:Sitelen_seli_kiwen_-_jan.svg
  ma: https://commons.wikimedia.org/wiki/File:Sitelen_kalama_pona_-_ma.svg
  ku: https://commons.wikimedia.org/wiki/File:Sitelen_kalama_pona_-_ku.svg
  we: https://commons.wikimedia.org/wiki/File:Sitelen_kalama_pona_-_we.svg
-->
<svg version="1.1" width="7099" height="1000"
     viewBox="0 0 7099 1000"
     xmlns="http://www.w3.org/2000/svg">
  <path d="M279 362Q279 374 285.0 381.0Q291 388 297 389L302 390Q307 390 317.5 385.5Q328 381 337.5 374.5Q347 368 347 363Q347 360 349.5 353.0Q352 346 358.5 334.0Q365 322 375.0 311.5Q385 301 403.5 293.5Q422 286 445 286Q474 286 482.5 296.0Q491 306 497 343L503 380L525 386Q532 388 545 388Q572 388 572 376Q555 279 539 269Q530 264 530 257Q530 248 513.5 246.0Q497 244 497 239Q497 230 477.5 225.5Q458 221 449 221Q408 221 379.0 232.5Q350 244 339.0 258.0Q328 272 319.5 285.5Q311 299 307 300Q302 302 290.5 323.5Q279 345 279 362ZM395 573Q395 591 408.0 601.0Q421 611 436 611Q451 611 455 601Q464 584 465 582Q467 579 467 576Q467 565 454.0 553.5Q441 542 431 542Q420 542 407.5 550.0Q395 558 395 573ZM340 573Q340 571 340.0 568.5Q340 566 337.5 560.5Q335 555 331.0 551.0Q327 547 319.0 544.0Q311 541 299 541Q284 541 278.5 545.0Q273 549 270 562Q268 576 281 593L296 610L314 603Q340 592 340 573ZM583 580Q583 574 582.5 570.5Q582 567 579.0 560.5Q576 554 568.0 550.0Q560 546 546 546Q533 546 527.0 550.5Q521 555 519.5 560.5Q518 566 517 579Q517 597 518.0 601.5Q519 606 525 608Q535 612 535 616Q537 619 542.5 617.5Q548 616 566 608Q583 601 583 580ZM370 71Q350 71 294.0 66.5Q238 62 221 62Q200 62 188.5 67.5Q177 73 175.0 78.0Q173 83 171 93Q170 101 170 109Q170 123 175.0 144.0Q180 165 180 176Q180 178 178.0 190.0Q176 202 177 213Q180 239 180 263Q180 296 175.5 315.5Q171 335 166.0 342.0Q161 349 161.0 350.5Q161 352 162 354Q165 358 165 372Q165 389 162.0 400.0Q159 411 155.5 415.0Q152 419 152 421Q152 421 152.5 422.0Q153 423 153.5 425.0Q154 427 154.5 430.0Q155 433 155.5 437.0Q156 441 157.0 445.5Q158 450 158.0 456.0Q158 462 158 468Q158 480 156 480Q154 480 154 484Q154 485 155.0 494.5Q156 504 156.5 522.5Q157 541 157 564Q157 652 151 672Q148 684 148 692Q148 702 154.0 712.5Q160 723 160 732Q160 735 162.0 739.5Q164 744 171.5 749.0Q179 754 192 754Q195 754 199 754Q218 752 303.0 749.0Q388 746 428 746Q428 746 433.5 746.0Q439 746 448.0 746.0Q457 746 467.0 746.5Q477 747 488.5 747.0Q500 747 509 747Q518 747 530.0 747.0Q542 747 553.5 746.5Q565 746 575.0 746.0Q585 746 591.5 746.0Q598 746 598 746Q623 746 638.5 748.0Q654 750 660.0 752.0Q666 754 669 754Q673 754 678 752Q692 748 696.5 729.0Q701 710 702.5 680.0Q704 650 708 635Q710 627 710 623Q710 619 708.0 613.0Q706 607 706 600Q706 593 707 585Q710 570 710 548Q710 519 713 515Q718 509 722.0 368.0Q726 227 728 222Q730 219 736.5 179.0Q743 139 750 117Q753 106 751 86Q749 71 742.0 66.5Q735 62 713 62Q713 62 708.0 62.0Q703 62 694.0 62.0Q685 62 674.0 62.5Q663 63 648.5 63.0Q634 63 620 63Q588 63 557.5 62.5Q527 62 508.0 61.5Q489 61 484 61Q448 61 417.5 66.0Q387 71 370 71ZM661 375V398Q661 471 652 552Q652 556 649.0 583.5Q646 611 645 622Q643 649 637.0 667.5Q631 686 623 687Q578 692 560 692Q559 692 554.0 692.0Q549 692 546 692Q513 692 479.5 688.0Q446 684 391 684Q390 684 339.0 684.5Q288 685 287 685Q233 685 227 682Q217 677 217 585Q217 580 217.0 570.0Q217 560 217 555Q217 500 221.5 476.5Q226 453 226 427V410Q226 381 230.5 357.5Q235 334 235 319Q235 296 235.5 291.0Q236 286 239 285Q242 283 242 275Q242 271 241.0 261.5Q240 252 240 248Q240 243 241 241Q243 238 245.5 194.5Q248 151 252 148Q257 145 259 138Q262 128 486 128Q595 128 627 130L674 133V160Q674 163 674 165Q674 183 669.5 217.0Q665 251 665 266Q665 275 666.0 285.0Q667 295 667 306Q667 322 664.0 341.5Q661 361 661 375Z" transform="translate(0.00,958.33) scale(0.9583,-0.9583)" fill="#000000" />
  <path d="M178 600Q178 613 172.0 629.5Q166 646 166 651Q166 660 178 675Q187 686 191.5 688.0Q196 690 206 688Q221 685 228.5 675.5Q236 666 237.0 657.5Q238 649 238 634V602Q238 561 244.0 524.5Q250 488 250 466Q250 451 248.0 418.5Q246 386 246 369Q246 369 246.0 367.0Q246 365 246.5 361.5Q247 358 247.5 353.0Q248 348 248.0 339.5Q248 331 248.5 321.0Q249 311 249.5 296.5Q250 282 250 266Q250 179 252 177Q260 168 392 168Q392 168 438.0 168.0Q484 168 532.0 168.5Q580 169 584 169Q698 169 704 167Q710 164 716 164Q722 163 728.0 144.5Q734 126 734 111Q734 109 733.0 103.5Q732 98 727.5 90.5Q723 83 716 83Q714 83 683.5 92.5Q653 102 624 102Q612 102 594.0 100.0Q576 98 562 98Q562 98 558.5 98.5Q555 99 548.0 99.5Q541 100 532.0 100.5Q523 101 510.5 101.5Q498 102 486 102Q485 102 480.5 102.0Q476 102 469.0 101.5Q462 101 454.5 100.5Q447 100 439.5 100.0Q432 100 428 100Q344 100 230 92L190 90L184 104Q180 114 180 131Q180 157 185.0 176.5Q190 196 190 218Q190 218 190.0 225.0Q190 232 190.0 242.5Q190 253 189.5 264.5Q189 276 188.5 287.0Q188 298 188 304Q188 326 190.0 374.0Q192 422 192 441Q192 517 178 540Q176 543 177.0 544.0Q178 545 180.0 545.5Q182 546 182.5 549.5Q183 553 180 562Q176 571 176 578Q176 581 177.0 588.5Q178 596 178 600Z" transform="translate(942.50,958.33) scale(0.9583,-0.9583)" fill="#000000" />
  <path d="M342 672Q345 672 355.5 678.0Q366 684 393.0 690.5Q420 697 463 697Q487 697 550 690Q586 686 595.0 682.5Q604 679 619 663Q641 641 641 638Q641 634 648.0 634.0Q655 634 655 630Q655 626 676.0 610.0Q697 594 697 591Q697 589 703.0 576.5Q709 564 715.5 548.0Q722 532 723 521Q727 503 730 501Q734 498 734 448Q734 420 733.0 405.0Q732 390 730.0 388.0Q728 386 726.5 383.0Q725 380 725 374Q725 365 718.0 357.5Q711 350 711 346Q711 341 680.5 301.0Q650 261 650.0 257.0Q650 253 676.0 224.5Q702 196 702 194Q702 192 718.0 172.5Q734 153 734 146Q734 140 751.5 119.5Q769 99 769 85Q769 50 748 50Q726 50 715.0 59.0Q704 68 704 77Q704 82 686.5 103.0Q669 124 668 126Q663 140 624.0 182.5Q585 225 577 225Q577 225 574.5 222.5Q572 220 563.0 216.0Q554 212 538 210Q532 209 525.0 206.5Q518 204 504.5 202.5Q491 201 465 201Q413 201 370.5 206.0Q328 211 320 211Q307 211 291.5 190.0Q276 169 272 167Q266 166 266 156Q266 151 264.0 148.0Q262 145 256.5 139.5Q251 134 245 126Q240 118 229.5 105.5Q219 93 211.5 83.0Q204 73 202 66Q199 51 194 51Q187 51 163.0 56.5Q139 62 136 64Q133 67 131 85Q130 97 132.5 102.0Q135 107 145 115Q167 132 186.0 152.0Q205 172 209 184Q209 186 224.0 215.5Q239 245 242 247Q246 250 246.0 253.0Q246 256 234.5 264.0Q223 272 221.5 278.0Q220 284 202.0 305.5Q184 327 184 329Q184 331 177 340Q170 347 161.5 378.0Q153 409 153 427Q153 427 153.5 432.5Q154 438 154.0 445.5Q154 453 154 458Q154 475 173.5 510.5Q193 546 200 549Q213 554 226.5 578.0Q240 602 242 602Q244 602 288.0 637.0Q332 672 342 672ZM567 616Q544 628 527.0 631.0Q510 634 457 634Q428 634 416.0 627.5Q404 621 388 621Q353 621 308.5 590.0Q264 559 232.5 514.5Q201 470 201 435Q201 422 210.0 408.5Q219 395 219 390Q219 383 239.0 360.5Q259 338 268 334Q276 331 285.5 317.0Q295 303 301 302Q311 300 327.5 292.5Q344 285 351 278Q363 268 407.0 262.0Q451 256 483 256Q514 256 540.0 266.0Q566 276 579.5 286.5Q593 297 594 297Q600 297 611.0 306.0Q622 315 622 320Q622 322 624.5 324.0Q627 326 631.0 329.0Q635 332 643.0 344.0Q651 356 660 375Q672 399 675.0 409.0Q678 419 678 433Q678 455 675.0 471.0Q672 487 668.0 496.5Q664 506 653 528Q641 554 632.0 566.5Q623 579 619.0 579.5Q615 580 611.5 582.0Q608 584 604 591Q601 599 567 616Z" transform="translate(1885.00,958.33) scale(0.9583,-0.9583)" fill="#000000" />
  <path d="M 24.637998,12.488337 H 20.72216 q -1.48166,0 -2.54,-1.058333 -1.05833,-1.058333 -1.05833,-2.54 V 3.598338 q 0,-1.481667 1.05833,-2.54 Q 19.2405,4e-6 20.72216,4e-6 h 3.915838 V 0.846671 H 20.72216 q -1.13241,0 -1.94733,0.814917 -0.80433,0.804333 -0.80433,1.93675 v 5.291666 q 0,1.132417 0.80433,1.93675 0.81492,0.814917 1.94733,0.814917 h 3.915838 z" transform="translate(1456.31,0.00) scale(80.0747,80.0747)" fill="#000000" />
  <path d="M 75.014662,0.846671 V 4e-6 h 13.123333 v 0.846667 z m 0,11.641666 v -0.846666 h 13.123333 v 0.846666 z" transform="translate(-2577.58,0.00) scale(80.0747,80.0747)" fill="#000000" />
  <path d="M 75.014662,0.846671 V 4e-6 h 13.123333 v 0.846667 z m 0,11.641666 v -0.846666 h 13.123333 v 0.846666 z" transform="translate(-1526.74,0.00) scale(80.0747,80.0747)" fill="#000000" />
  <path d="M 75.014662,0.846671 V 4e-6 h 13.123333 v 0.846667 z m 0,11.641666 v -0.846666 h 13.123333 v 0.846666 z" transform="translate(-475.89,0.00) scale(80.0747,80.0747)" fill="#000000" />
  <path d="m 87.714667,4e-6 h 2.8575 q 1.481666,0 2.54,1.058334 1.058333,1.058333 1.058333,2.54 v 5.291666 q 0,1.481667 -1.058333,2.54 -1.058334,1.058333 -2.54,1.058333 h -2.8575 v -0.846666 h 2.8575 q 1.132416,0 1.93675,-0.814917 0.814916,-0.804333 0.814916,-1.93675 V 3.598338 q 0,-1.132417 -0.814916,-1.93675 -0.804334,-0.814917 -1.93675,-0.814917 h -2.8575 z" transform="translate(-441.99,0.00) scale(80.0747,80.0747)" fill="#000000" />
  <path d="M 522.00,558.00 C 522.00,558.14 521.73,566.22 521.73,572.30 C 521.73,584.12 522.48,594.41 525.00,603.00 L 477.02,617.06 C 472.64,602.14 471.66,587.63 471.66,574.12 C 471.66,568.77 471.81,563.59 471.97,558.60 C 471.09,547.25 470.72,536.08 470.72,525.05 C 470.72,464.30 482.14,406.66 482.14,348.98 C 482.14,342.62 482.00,338.85 482.00,338.00 C 482.00,336.47 482.27,333.61 482.27,327.81 C 482.27,232.28 405.65,104.59 308.07,100.98 C 287.06,100.20 287.06,100.20 286.79,100.20 C 199.98,100.20 129.26,141.64 97.83,286.69 C 74.28,395.40 79.55,527.94 71.91,622.04 L 22.09,617.99 L 22.09,617.96 C 29.63,525.03 24.03,391.17 48.98,276.04 C 66.30,196.08 112.34,50.25 287.76,50.25 C 317.75,50.25 377.94,50.25 441.13,113.44 C 497.05,169.35 532.28,252.44 532.28,327.17 C 532.28,330.91 532.19,334.63 532.01,338.33 C 532.10,341.97 532.14,345.60 532.14,349.21 C 532.14,410.00 520.73,467.35 520.73,525.49 C 520.73,542.54 522.00,557.67 522.00,558.00  Z M 503.68,361.35 C 513.06,336.93 546.33,255.47 629.36,255.47 C 636.20,255.47 643.24,256.04 650.48,257.24 C 753.85,268.91 788.18,355.43 802.57,401.96 C 828.62,486.23 830.28,589.08 848.98,652.94 C 849.66,655.24 850.00,657.62 850.00,660.00 L 850.00,708.00 L 800.00,708.00 L 800.00,663.53 C 773.06,567.33 779.47,405.33 712.11,337.97 C 695.42,321.28 674.43,310.14 644.27,306.85 C 630.12,305.30 630.12,305.30 628.03,305.30 C 609.34,305.30 595.54,312.49 582.92,325.11 C 560.64,347.39 543.89,390.03 533.87,437.20 C 521.40,495.81 518.69,558.66 517.28,592.44 C 516.12,620.45 515.90,625.72 508.15,633.47 C 505.02,636.59 498.32,640.84 490.10,640.84 C 487.33,640.84 467.92,639.96 464.28,615.73 C 462.26,602.27 461.58,587.67 461.58,572.31 C 461.58,555.15 462.43,537.03 463.22,518.46 C 464.06,498.61 464.87,478.30 464.87,458.73 C 464.87,367.02 445.25,331.52 402.27,324.87 C 397.57,324.56 393.02,324.40 388.63,324.40 C 352.32,324.40 276.29,332.40 250.66,463.04 C 244.69,493.49 242.38,526.44 242.38,558.52 C 242.38,583.23 243.75,607.44 245.88,629.63 L 196.12,634.41 C 193.85,610.78 192.32,584.90 192.32,558.14 C 192.32,473.76 207.33,379.47 263.75,323.05 C 294.19,292.61 336.34,274.45 389.51,274.45 C 428.86,274.45 481.87,289.08 503.68,361.35 Z" transform="translate(3554.62,100.00) scale(0.8000,0.8000)" fill="#000000" />
  <path d="M 326.60,734.72 C 319.64,734.72 313.08,735.35 306.03,735.35 C 290.50,735.35 281.70,732.36 275.98,729.55 C 224.69,716.66 183.34,674.17 172.55,623.21 C 172.19,621.52 172.01,619.81 172.01,618.10 L 170.01,108.10 L 219.99,107.90 L 221.98,615.13 C 229.75,646.90 257.23,674.19 290.47,681.61 C 293.10,682.19 295.73,683.21 298.09,684.65 C 299.15,684.96 302.66,685.22 307.62,685.22 C 315.16,685.22 319.66,684.67 326.22,684.67 C 328.33,684.67 330.53,684.73 332.84,684.89 C 379.92,679.45 428.74,629.60 450.36,583.40 C 450.36,583.40 495.64,604.58 495.64,604.60 C 470.04,659.35 408.74,728.48 335.19,734.90 C 334.46,734.96 333.73,735.00 333.00,735.00 C 330.45,735.00 330.78,734.72 326.60,734.72  Z M 337.51,157.62 L 368.45,118.35 C 435.62,171.26 435.62,171.26 436.68,172.32 C 438.15,173.80 438.15,173.80 469.36,217.49 L 428.67,246.55 L 400.72,207.43 C 400.72,207.43 337.55,157.65 337.51,157.62  Z M 608.92,96.87 C 640.41,96.87 640.78,124.23 640.78,125.50 C 640.78,130.07 639.66,134.44 637.50,138.91 L 592.49,117.11 L 597.39,141.00 L 608.17,146.48 C 606.84,146.50 548.86,159.22 493.93,214.15 C 449.45,258.62 419.99,317.66 419.99,375.50 C 419.99,375.64 419.99,375.79 420.00,376.00 C 420.00,377.19 419.79,380.45 419.79,386.20 C 419.79,529.02 550.65,639.25 681.43,657.10 L 714.48,659.05 L 711.54,708.95 C 676.59,706.90 676.59,706.90 675.67,706.77 C 518.21,685.79 369.80,553.70 369.80,386.23 C 369.80,382.68 369.87,379.12 370.00,375.48 C 370.00,246.47 480.72,126.37 596.99,97.73 C 598.96,97.25 600.98,97.00 603.00,97.00 C 603.18,97.00 603.37,97.01 603.55,97.01 C 603.60,97.01 608.32,96.87 608.92,96.87 Z" transform="translate(4605.47,100.00) scale(0.8000,0.8000)" fill="#000000" />
  <path d="M 49.97,136.08 C 58.81,161.41 86.65,169.58 138.41,169.58 C 142.31,169.58 198.53,168.32 199.14,168.32 C 215.53,168.32 225.95,169.55 226.22,169.55 C 235.88,169.55 244.22,167.81 253.07,167.81 C 288.01,167.81 293.31,192.77 293.31,203.56 C 293.31,220.27 275.97,257.20 275.97,323.38 C 275.97,325.65 276.00,327.95 276.00,328.00 C 276.00,330.84 275.45,332.60 275.45,337.96 C 275.45,377.33 309.08,420.19 350.77,420.19 C 358.26,420.19 360.81,419.00 365.00,419.00 C 366.94,419.00 369.56,419.36 374.79,419.36 C 441.92,419.36 457.80,345.40 472.06,259.00 C 473.38,251.05 474.66,243.26 476.00,235.75 L 476.00,214.00 C 476.00,200.19 487.19,189.00 501.00,189.00 C 513.59,189.00 524.13,198.32 525.78,210.68 C 527.27,221.90 528.35,233.80 529.46,246.02 C 536.41,322.00 545.09,378.87 595.15,382.78 C 648.66,361.39 661.85,284.26 672.84,216.29 C 679.29,176.36 679.41,176.23 685.32,170.32 C 690.20,165.44 696.60,163.00 703.00,163.00 C 713.96,163.00 723.39,170.08 726.72,180.09 C 752.95,259.03 756.10,340.89 756.10,420.52 C 756.10,420.90 755.76,499.79 755.76,500.59 C 755.76,510.96 755.81,521.27 755.96,531.51 C 758.12,543.52 759.17,554.99 759.17,565.89 C 759.17,711.51 583.43,716.30 477.52,716.30 C 458.76,716.30 439.93,716.08 422.42,716.08 C 407.10,716.08 393.18,716.25 381.41,716.90 C 370.65,718.34 360.19,718.93 349.97,718.93 C 306.09,718.93 265.29,707.95 222.44,706.99 C 222.44,706.99 223.56,657.01 223.56,657.01 C 270.26,658.06 310.38,668.89 350.49,668.89 C 375.27,668.89 363.10,666.08 421.48,666.08 C 437.73,666.08 455.07,666.29 474.09,666.29 C 539.64,666.29 645.58,664.86 688.40,622.03 C 700.96,609.48 709.41,592.98 709.41,567.41 C 709.41,550.68 706.09,539.35 706.01,534.40 C 705.83,523.12 705.77,511.84 705.77,500.57 C 705.77,500.34 706.08,425.99 706.08,425.24 C 706.08,388.79 705.45,352.80 702.52,317.63 C 691.90,351.94 668.62,410.90 607.02,431.68 C 604.42,432.56 601.71,433.00 599.00,433.00 C 576.59,433.00 526.25,425.48 500.62,362.02 C 491.92,388.51 464.01,469.31 373.85,469.31 C 371.31,469.31 368.75,469.25 366.14,469.11 C 360.95,469.84 355.82,470.18 350.77,470.18 C 282.09,470.18 225.42,405.83 225.42,338.50 C 225.42,334.62 225.61,330.73 225.99,326.82 C 225.98,325.67 225.98,324.51 225.98,323.35 C 225.98,287.83 230.71,252.65 239.21,219.03 C 235.68,219.39 231.75,219.73 227.44,219.73 C 217.37,219.73 220.12,218.35 199.36,218.35 C 180.03,218.35 158.29,219.66 137.37,219.66 C 97.76,219.66 20.97,216.78 0.97,146.91 C 0.03,143.62 -0.04,140.92 -0.04,137.68 C -0.04,93.89 33.51,60.15 85.12,51.29 C 212.94,29.35 212.58,27.01 214.90,27.01 L 722.90,25.01 L 723.10,74.99 L 217.42,76.99 C 118.62,95.81 93.22,100.67 91.96,100.82 C 86.11,101.51 51.03,106.87 49.97,136.08 Z" transform="translate(5656.31,100.00) scale(0.8000,0.8000)" fill="#000000" />
</svg>
