<?xml version="1.0" encoding="UTF-8" standalone="no"?>
<!--
Representation of "nasin pi alasa lon" in sitelen kalama pona
Generated by generate_sitelen_kalama_pona.py

Description:
  Representation of "nasin pi alasa lon" in sitelen kalama pona.
  Sources: nasin: https://commons.wikimedia.org/wiki/File:Sitelen_seli_kiwen_-_nasin.svg; pi: https://commons.wikimedia.org/wiki/File:Sitelen_seli_kiwen_-_pi.svg; alasa: https://commons.wikimedia.org/wiki/File:Sitelen_seli_kiwen_-_alasa.svg; lon: https://commons.wikimedia.org/wiki/File:Sitelen_seli_kiwen_-_lon.svg

Categories:
  [[Category:Toki Pona text containing nasin pi alasa lon]]

Sources:
  nasin: https://commons.wikimedia.org/wiki/File:Sitelen_seli_kiwen_-_nasin.svg
  pi: https://commons.wikimedia.org/wiki/File:Sitelen_seli_kiwen_-_pi.svg
  alasa: https://commons.wikimedia.org/wiki/File:Sitelen_seli_kiwen_-_alasa.svg
  lon: https://commons.wikimedia.org/wiki/File:Sitelen_seli_kiwen_-_lon.svg
-->
<svg version="1.1" width="3690" height="1000"
     viewBox="0 0 3690 1000"
     xmlns="http://www.w3.org/2000/svg">
  <path d="M428 210Q428 226 424.0 300.5Q420 375 416 375Q412 375 396.0 361.5Q380 348 378 348Q376 348 353.0 334.0Q330 320 328 320Q322 320 320 312Q318 304 308.0 301.0Q298 298 292 304Q285 311 274 314Q260 317 260 329Q260 354 310 380Q328 389 358.0 411.0Q388 433 388 438Q388 440 404 459L422 477L418 552Q412 678 412 679Q412 694 423.0 706.5Q434 719 448 719Q469 719 476 693Q482 677 480 673Q472 664 472 578V562Q473 500 474.5 488.5Q476 477 484 473Q493 470 502 456Q510 445 546.5 412.5Q583 380 612 358Q629 345 634.5 336.0Q640 327 640 310Q640 291 620 291Q597 291 582 308Q570 321 537.0 348.0Q504 375 492 382Q486 385 482 385Q474 385 474 359Q474 342 474 330Q476 306 477.0 248.5Q478 191 484 156Q488 131 488 111Q488 81 472 81Q462 81 462 86Q462 92 446 90Q434 89 430.0 91.0Q426 93 420 102Q412 116 415.5 123.0Q419 130 423.5 161.0Q428 192 428 210Z" transform="translate(0.00,958.33) scale(0.9583,-0.9583)" fill="#000000" />
  <path d="M178 600Q178 613 172.0 629.5Q166 646 166 651Q166 660 178 675Q187 686 191.5 688.0Q196 690 206 688Q221 685 228.5 675.5Q236 666 237.0 657.5Q238 649 238 634V602Q238 561 244.0 524.5Q250 488 250 466Q250 451 248.0 418.5Q246 386 246 369Q246 369 246.0 367.0Q246 365 246.5 361.5Q247 358 247.5 353.0Q248 348 248.0 339.5Q248 331 248.5 321.0Q249 311 249.5 296.5Q250 282 250 266Q250 179 252 177Q260 168 392 168Q392 168 438.0 168.0Q484 168 532.0 168.5Q580 169 584 169Q698 169 704 167Q710 164 716 164Q722 163 728.0 144.5Q734 126 734 111Q734 109 733.0 103.5Q732 98 727.5 90.5Q723 83 716 83Q714 83 683.5 92.5Q653 102 624 102Q612 102 594.0 100.0Q576 98 562 98Q562 98 558.5 98.5Q555 99 548.0 99.5Q541 100 532.0 100.5Q523 101 510.5 101.5Q498 102 486 102Q485 102 480.5 102.0Q476 102 469.0 101.5Q462 101 454.5 100.5Q447 100 439.5 100.0Q432 100 428 100Q344 100 230 92L190 90L184 104Q180 114 180 131Q180 157 185.0 176.5Q190 196 190 218Q190 218 190.0 225.0Q190 232 190.0 242.5Q190 253 189.5 264.5Q189 276 188.5 287.0Q188 298 188 304Q188 326 190.0 374.0Q192 422 192 441Q192 517 178 540Q176 543 177.0 544.0Q178 545 180.0 545.5Q182 546 182.5 549.5Q183 553 180 562Q176 571 176 578Q176 581 177.0 588.5Q178 596 178 600Z" transform="translate(942.50,958.33) scale(0.9583,-0.9583)" fill="#000000" />
  <path d="M274 255Q274 257 275.0 258.5Q276 260 276.5 262.0Q277 264 277.5 275.0Q278 286 278 305Q278 359 276 371H270Q264 371 249.5 370.5Q235 370 219.0 369.0Q203 368 188.0 367.5Q173 367 163.0 366.5Q153 366 152 366Q147 366 112 370Q89 372 80.5 375.0Q72 378 64 387Q54 398 54 403Q54 411 82 424Q95 430 113.5 432.0Q132 434 186 434Q262 434 270 431Q276 428 278.0 430.5Q280 433 280 445Q282 484 286 497Q292 512 292 529Q292 529 291.0 540.5Q290 552 289.0 567.5Q288 583 288 592Q285 633 276 640Q266 648 266 659Q266 663 267.0 669.5Q268 676 277.5 685.5Q287 695 302 695Q334 695 354.5 691.5Q375 688 382.0 683.5Q389 679 395.5 675.5Q402 672 408 672Q414 672 455.0 653.0Q496 634 500 634Q519 634 573.5 577.5Q628 521 628 508Q628 498 632.0 488.0Q636 478 640 473L644 468Q650 464 650 446Q650 423 660.5 416.0Q671 409 710 409Q740 409 740 413Q740 420 715.5 450.5Q691 481 670 502L640 532L648 547Q658 564 676 564Q691 564 705.5 553.0Q720 542 728 525Q733 517 751.0 492.0Q769 467 784.5 445.5Q800 424 800 420Q800 414 823.0 380.5Q846 347 846 342Q846 331 833.0 320.5Q820 310 804.0 302.5Q788 295 786 294Q770 280 741.0 250.0Q712 220 702 206Q693 194 688.0 189.5Q683 185 676 185Q672 185 652 189Q635 193 629.5 199.0Q624 205 624 219Q624 228 627.5 233.5Q631 239 644 248Q667 266 684.5 285.5Q702 305 711.0 318.5Q720 332 722 334Q730 341 730 342Q730 348 690 348Q659 348 652.5 345.0Q646 342 642 326Q642 317 612 250Q605 234 567.0 195.5Q529 157 504 141Q476 123 464 110Q450 97 426.5 92.5Q403 88 390 76Q377 65 354.5 59.5Q332 54 328 52Q317 47 292 49L264 51L258 72Q253 87 253.5 92.0Q254 97 260 106Q268 116 273.0 146.5Q278 177 278 206Q278 220 276.0 236.0Q274 252 274 255ZM492 565Q403 611 364 611Q356 611 353.0 606.0Q350 601 346.0 575.0Q342 549 340 495Q337 443 333 435H332Q332 429 362.5 427.5Q393 426 454.5 423.5Q516 421 564 416L590 413V428Q590 454 559.0 500.5Q528 547 492 565ZM586 351Q586 358 548.0 367.0Q510 376 500 376Q495 376 420.5 371.0Q346 366 342 365Q336 364 336 316V281Q336 231 334 187L332 141L366 145Q394 148 414.0 157.0Q434 166 436 166Q442 166 450.0 175.0Q458 184 474.0 199.0Q490 214 510 225Q532 238 532 241Q532 243 541.0 256.0Q550 269 561.0 288.0Q572 307 576 320Z" transform="translate(1885.00,958.33) scale(0.9583,-0.9583)" fill="#000000" />
  <path d="M150 252Q150 262 160.5 276.5Q171 291 190 291Q216 291 250.5 285.5Q285 280 296 280Q319 279 382.5 276.0Q446 273 458 273Q470 273 485.5 275.0Q501 277 506 277Q514 277 524.5 272.5Q535 268 538 269Q542 270 614.0 271.0Q686 272 702 278Q713 282 717.5 281.5Q722 281 730 276Q750 263 750 244Q750 213 712 213Q712 213 708.0 213.0Q704 213 695.5 213.5Q687 214 677.0 214.0Q667 214 652.0 214.0Q637 214 622 214Q611 214 601.0 214.0Q591 214 584.5 214.0Q578 214 573.0 213.5Q568 213 566.0 213.0Q564 213 563.5 213.0Q563 213 547.0 213.5Q531 214 505.5 214.5Q480 215 451.5 215.5Q423 216 394.0 216.5Q365 217 346 217Q333 217 322.0 217.0Q311 217 304.0 216.5Q297 216 291.5 216.0Q286 216 283.5 216.0Q281 216 280 216Q273 216 234.5 219.5Q196 223 184 224Q169 225 159.5 233.0Q150 241 150 252ZM388 467Q388 471 393.0 483.0Q398 495 412.5 508.0Q427 521 446 521Q471 521 489.5 491.0Q508 461 508 441Q508 422 487.5 410.0Q467 398 446.0 398.0Q425 398 406.5 422.5Q388 447 388 467Z" transform="translate(2827.50,958.33) scale(0.9583,-0.9583)" fill="#000000" />
</svg>
