<?xml version="1.0" encoding="UTF-8" standalone="no"?>
<!--
Representation of "kulupu nena Alepi" in sitelen kalama pona
Generated by generate_sitelen_kalama_pona.py

Description:
  Representation of "kulupu nena Alepi" in sitelen kalama pona.
  Sources: kulupu: https://commons.wikimedia.org/wiki/File:Sitelen_seli_kiwen_-_kulupu.svg; nena: https://commons.wikimedia.org/wiki/File:Sitelen_seli_kiwen_-_nena.svg; a: https://commons.wikimedia.org/wiki/File:Sitelen_kalama_pona_-_xa.svg; le: https://commons.wikimedia.org/wiki/File:Sitelen_kalama_pona_-_le.svg; pi: https://commons.wikimedia.org/wiki/File:Sitelen_kalama_pona_-_pi.svg

Categories:
  [[Category:Toki Pona text containing kulupu nena]]
  [[Category:Toki Pona text containing sound symbol A]]
  [[Category:Toki Pona text containing sound symbol Le]]
  [[Category:Toki Pona text containing sound symbol Pi]]

Sources:
  kulupu: https://commons.wikimedia.org/wiki/File:Sitelen_seli_kiwen_-_kulupu.svg
  nena: https://commons.wikimedia.org/wiki/File:Sitelen_seli_kiwen_-_nena.svg
  a: https://commons.wikimedia.org/wiki/File:Sitelen_kalama_pona_-_xa.svg
  le: https://commons.wikimedia.org/wiki/File:Sitelen_kalama_pona_-_le.svg
  pi: https://commons.wikimedia.org/wiki/File:Sitelen_kalama_pona_-_pi.svg
-->
<svg version="1.1" width="6156" height="1000"
     viewBox="0 0 6156 1000"
     xmlns="http://www.w3.org/2000/svg">
  <path d="M416 252Q416 226 407.0 204.5Q398 183 390.0 174.5Q382 166 380 166Q377 166 354 144Q332 124 310.5 115.5Q289 107 246 107Q172 107 138 138Q97 175 88.5 188.5Q80 202 80 234Q80 270 82.5 280.0Q85 290 92 296Q99 302 101.0 304.0Q103 306 103.5 307.5Q104 309 106.5 312.0Q109 315 120.5 326.0Q132 337 152 354Q178 379 238 379Q319 379 360 358Q386 344 401.0 315.0Q416 286 416 252ZM346 263Q346 280 338.0 291.0Q330 302 315.0 307.0Q300 312 286.0 313.5Q272 315 252 315Q214 315 189.5 302.0Q165 289 160 278Q155 264 148 264Q142 264 142 255Q142 241 153.5 220.0Q165 199 178 196Q182 195 207.5 185.5Q233 176 252 176Q279 176 295.0 187.5Q311 199 317.5 210.5Q324 222 326 222Q333 222 339.5 235.0Q346 248 346 263ZM820 263Q820 245 817.0 233.0Q814 221 811.0 217.5Q808 214 805.0 211.0Q802 208 802 204Q802 198 794.0 182.0Q786 166 784 166Q781 166 758.0 144.5Q735 123 728 123Q718 123 706.0 117.5Q694 112 694 108Q694 106 676 106Q625 106 598.0 116.0Q571 126 538 153Q527 162 522.0 168.5Q517 175 512.5 194.0Q508 213 508 244Q508 286 520 297Q540 313 540 340Q540 357 561.0 375.5Q582 394 600 394Q629 394 643.5 399.0Q658 404 682 404Q709 404 727.5 399.0Q746 394 760.5 379.5Q775 365 783.0 352.0Q791 339 806 310Q813 297 816 297Q820 297 820 263ZM666 182Q669 182 673.5 181.0Q678 180 680 180Q690 180 702.0 189.0Q714 198 716 198Q721 198 735.5 228.0Q750 258 750 269Q750 273 748 273Q746 273 741.0 285.0Q736 297 728.0 312.5Q720 328 710 335Q706 338 678 338Q653 338 642.0 335.5Q631 333 616 323Q604 316 590 310Q585 309 583.5 303.0Q582 297 582 281Q582 255 578 255Q574 255 574 251Q574 248 578.0 235.5Q582 223 582 217Q582 203 600.0 191.5Q618 180 633.0 176.0Q648 172 652 172Q656 172 659.0 177.0Q662 182 666 182ZM470 732Q500 732 527.0 722.5Q554 713 566.0 705.0Q578 697 578 695Q578 692 585.0 685.0Q592 678 602.0 665.0Q612 652 618 639Q628 617 636 611Q642 605 642 580Q642 520 602 484Q589 473 578.5 466.0Q568 459 563.5 457.0Q559 455 556.0 452.5Q553 450 552 444Q549 433 536 433Q525 433 494.0 431.5Q463 430 456 430Q419 430 398.5 438.0Q378 446 358 467Q338 487 330.0 504.0Q322 521 322 522Q308 538 308 579Q308 597 314 597Q317 597 320.0 603.0Q323 609 329.0 620.0Q335 631 344 640Q355 651 357.0 657.5Q359 664 352 670Q349 674 354 693L360 712L400 717Q430 721 442.0 726.5Q454 732 470 732ZM578 577Q578 607 539.0 641.5Q500 676 438 676Q428 676 428 668Q428 662 416.0 647.5Q404 633 404 626Q404 620 391.0 605.0Q378 590 378 573Q378 546 402 523Q414 510 421.0 507.5Q428 505 450 505Q464 505 474.0 504.0Q484 503 487 502L490 501Q504 501 541.0 528.0Q578 555 578 577Z" transform="translate(0.00,958.33) scale(0.9583,-0.9583)" fill="#000000" />
  <path d="M186 290Q186 288 185.0 285.0Q184 282 184 280Q184 279 187.0 270.5Q190 262 190 250Q188 230 188 216Q188 198 194 190Q201 183 195.0 180.5Q189 178 192 171Q194 163 194.0 144.0Q194 125 181.0 105.5Q168 86 148 86Q144 86 137.0 87.0Q130 88 120.0 95.0Q110 102 110 114Q110 128 114 128Q115 128 119.0 142.0Q123 156 126.5 174.0Q130 192 130 201Q130 208 126.0 227.0Q122 246 122 269Q122 276 123.0 292.0Q124 308 124 314Q124 322 120.0 339.5Q116 357 116 363Q116 368 118.0 372.5Q120 377 120 381V393Q120 407 126 417Q131 430 139.0 472.5Q147 515 152 521Q157 526 162.5 541.5Q168 557 188 574Q208 590 208 595Q208 602 223.0 616.0Q238 630 248 632Q255 634 265.5 645.0Q276 656 292.5 666.0Q309 676 332 678Q334 678 379.5 690.0Q425 702 462 702Q501 702 548 698Q556 697 593.5 678.0Q631 659 636 652Q639 649 647.0 643.0Q655 637 660.5 632.0Q666 627 666.0 624.0Q666 621 673.5 612.5Q681 604 694.5 587.0Q708 570 720 549Q738 514 742 512Q747 508 757.0 473.0Q767 438 774.0 405.0Q781 372 782 372Q784 368 787.0 325.5Q790 283 790 247Q790 197 780 133Q773 97 769.5 91.0Q766 85 746 85H742Q723 85 717.5 87.5Q712 90 706 100Q700 113 700 125Q700 136 707.0 140.5Q714 145 714 160V173Q714 185 717.0 196.0Q720 207 720 211Q720 216 717.0 223.0Q714 230 714 233Q714 233 720.0 245.0Q726 257 726 280Q726 290 723.0 301.0Q720 312 720.0 314.0Q720 316 724.0 320.0Q728 324 728 335Q728 350 721.0 375.5Q714 401 714 408Q714 417 707.0 428.5Q700 440 700 447Q700 458 681.5 494.5Q663 531 648 550Q629 574 610.5 592.5Q592 611 586 611Q582 611 574.0 616.0Q566 621 555.5 627.5Q545 634 516.0 639.0Q487 644 446 644Q410 644 397.5 642.5Q385 641 374 635Q354 625 346 625Q338 625 328.0 615.5Q318 606 312 606Q308 606 293.5 593.5Q279 581 262.5 565.5Q246 550 240 546Q230 539 230 533Q230 527 226 527Q220 527 208.0 503.0Q196 479 196 466Q196 449 192 446Q186 442 182.0 406.0Q178 370 178 336Q178 324 179.0 315.5Q180 307 180.5 302.5Q181 298 182.5 295.5Q184 293 184.5 292.5Q185 292 185.5 291.5Q186 291 186 290Z" transform="translate(942.50,958.33) scale(0.9583,-0.9583)" fill="#000000" />
  <path d="M 24.637998,12.488337 H 20.72216 q -1.48166,0 -2.54,-1.058333 -1.05833,-1.058333 -1.05833,-2.54 V 3.598338 q 0,-1.481667 1.05833,-2.54 Q 19.2405,4e-6 20.72216,4e-6 h 3.915838 V 0.846671 H 20.72216 q -1.13241,0 -1.94733,0.814917 -0.80433,0.804333 -0.80433,1.93675 v 5.291666 q 0,1.132417 0.80433,1.93675 0.81492,0.814917 1.94733,0.814917 h 3.915838 z" transform="translate(513.81,0.00) scale(80.0747,80.0747)" fill="#000000" />
  <path d="M 75.014662,0.846671 V 4e-6 h 13.123333 v 0.846667 z m 0,11.641666 v -0.846666 h 13.123333 v 0.846666 z" transform="translate(-3520.08,0.00) scale(80.0747,80.0747)" fill="#000000" />
  <path d="M 75.014662,0.846671 V 4e-6 h 13.123333 v 0.846667 z m 0,11.641666 v -0.846666 h 13.123333 v 0.846666 z" transform="translate(-2469.24,0.00) scale(80.0747,80.0747)" fill="#000000" />
  <path d="M 75.014662,0.846671 V 4e-6 h 13.123333 v 0.846667 z m 0,11.641666 v -0.846666 h 13.123333 v 0.846666 z" transform="translate(-1418.39,0.00) scale(80.0747,80.0747)" fill="#000000" />
  <path d="m 87.714667,4e-6 h 2.8575 q 1.481666,0 2.54,1.058334 1.058333,1.058333 1.058333,2.54 v 5.291666 q 0,1.481667 -1.058333,2.54 -1.058334,1.058333 -2.54,1.058333 h -2.8575 v -0.846666 h 2.8575 q 1.132416,0 1.93675,-0.814917 0.814916,-0.804333 0.814916,-1.93675 V 3.598338 q 0,-1.132417 -0.814916,-1.93675 -0.804334,-0.814917 -1.93675,-0.814917 h -2.8575 z" transform="translate(-1384.49,0.00) scale(80.0747,80.0747)" fill="#000000" />
  <path d="M 457.02,666.69 C 456.60,667.48 420.13,731.68 413.26,744.54 C 480.65,733.33 546.25,731.82 631.91,730.04 C 706.68,719.20 787.62,721.53 861.83,716.02 C 849.49,692.25 843.96,681.58 833.54,668.70 C 824.91,658.02 720.62,468.66 629.58,334.03 C 626.67,338.61 626.20,339.35 623.73,341.58 C 535.96,420.70 537.88,561.78 457.02,666.69  Z M 370.00,804.00 C 356.19,804.00 345.00,792.81 345.00,779.00 C 345.00,776.62 345.34,774.23 346.02,771.93 C 354.08,744.47 375.01,709.50 393.75,676.97 C 393.97,676.57 415.60,638.50 416.29,637.62 C 491.15,541.89 488.84,398.52 587.58,306.88 C 591.73,300.38 594.73,296.42 598.83,289.73 C 546.46,216.35 495.83,156.12 444.47,105.06 C 391.17,198.47 349.00,299.17 306.58,400.64 C 306.07,401.86 263.39,503.93 254.64,522.62 L 143.64,759.62 C 143.64,759.62 98.36,738.41 98.36,738.38 L 209.24,501.64 C 226.73,462.00 243.55,421.75 260.45,381.32 C 307.00,269.97 354.06,157.15 417.60,52.07 C 419.15,49.50 425.79,40.00 439.00,40.00 C 445.15,40.00 451.30,42.26 456.10,46.77 C 605.10,186.66 707.52,354.94 831.60,567.16 C 845.71,591.30 859.69,615.21 873.63,638.77 C 897.87,669.36 906.72,700.11 923.64,721.52 C 927.21,726.05 929.00,731.52 929.00,737.00 C 929.00,749.65 919.58,760.24 907.14,761.80 C 818.95,772.88 722.27,767.24 637.68,779.73 C 621.18,782.16 480.15,776.97 376.15,803.23 C 374.13,803.74 372.07,804.00 370.00,804.00 Z" transform="translate(2612.12,100.00) scale(0.8000,0.8000)" fill="#000000" />
  <path d="M 343.19,189.78 C 350.46,188.99 362.38,177.00 375.00,177.00 C 384.17,177.00 392.26,181.96 396.60,189.41 C 413.55,218.45 417.13,249.29 417.13,278.19 C 417.13,300.61 414.86,324.58 414.86,347.27 C 414.86,369.37 417.92,380.56 417.92,421.13 C 417.92,491.17 406.90,562.19 386.24,625.33 C 386.23,628.12 385.97,630.69 385.58,633.01 C 446.87,650.04 526.52,651.25 631.16,651.34 C 670.52,651.37 709.57,651.39 746.13,653.03 C 746.13,653.03 743.89,702.97 743.87,702.97 C 657.21,699.08 554.64,704.51 464.61,696.62 C 422.12,692.89 382.36,686.29 348.15,673.39 C 341.62,670.92 331.71,664.27 331.71,646.60 C 331.71,638.11 334.11,631.67 335.13,628.47 C 335.72,626.62 336.04,625.44 336.17,624.90 C 336.06,623.94 336.00,622.97 336.00,622.00 C 336.00,619.29 336.44,616.58 337.32,613.99 C 357.13,555.19 367.90,487.13 367.90,420.60 C 367.90,381.30 364.83,372.40 364.83,347.02 C 364.83,324.74 366.91,303.38 366.91,280.59 C 366.91,264.42 365.81,249.67 362.27,236.33 C 357.81,237.88 351.05,239.78 343.04,239.78 C 339.78,239.78 336.36,239.46 332.85,238.71 C 325.07,237.97 315.74,237.50 305.63,237.00 C 262.11,234.87 211.09,232.36 180.42,201.69 C 160.91,182.19 158.00,158.01 158.00,154.00 C 158.00,153.03 158.88,109.71 201.59,66.99 C 232.10,36.48 271.59,16.68 305.55,2.85 C 308.57,1.62 311.79,0.99 315.00,1.00 C 647.15,3.01 647.15,3.01 647.15,3.01 C 647.15,3.01 646.85,52.99 646.85,52.99 C 319.92,51.03 319.92,51.03 319.92,51.03 C 263.90,74.58 216.45,107.69 208.39,153.29 C 215.59,181.11 259.39,184.68 308.10,187.07 C 324.62,187.88 338.78,188.66 343.19,189.78 Z" transform="translate(3662.97,100.00) scale(0.8000,0.8000)" fill="#000000" />
  <path d="M 485.00,189.00 C 469.68,189.00 438.00,176.21 438.00,126.00 C 438.00,117.97 440.75,112.11 452.24,100.63 C 456.31,96.55 469.86,83.00 483.00,83.00 L 493.00,83.00 L 493.00,85.32 C 505.32,87.38 524.11,100.20 524.11,122.52 C 524.11,123.23 524.09,123.95 524.04,124.66 C 524.08,125.75 524.10,126.85 524.10,127.96 C 524.10,165.31 504.14,189.00 485.00,189.00  Z M 606.10,279.81 C 606.10,279.81 655.90,284.16 655.90,284.19 C 637.90,490.19 637.90,490.19 637.90,490.19 C 637.90,490.19 588.10,485.84 588.10,485.81 C 606.10,279.81 606.10,279.81 606.10,279.81  Z M 429.49,786.96 C 319.70,786.96 228.59,722.79 228.59,616.05 C 228.59,604.31 229.71,592.09 232.04,579.47 C 233.26,492.01 243.62,404.21 258.00,319.86 L 258.00,314.00 L 308.00,314.00 L 308.00,322.00 C 308.00,330.48 283.64,447.79 281.99,582.31 C 281.93,587.51 278.43,598.69 278.43,617.13 C 278.43,699.49 355.82,736.84 430.49,736.84 C 461.27,736.84 478.65,731.00 485.00,731.00 L 679.20,731.00 C 730.13,731.41 774.29,739.46 821.76,739.46 C 827.75,739.46 833.74,739.33 839.77,739.04 L 842.23,788.96 C 835.21,789.31 828.30,789.46 821.48,789.46 C 771.89,789.46 726.49,781.38 678.90,781.00 L 487.62,781.00 C 468.37,784.96 448.81,786.96 429.49,786.96  Z M 733.76,308.43 C 557.65,308.43 334.30,328.57 169.67,332.99 L 168.33,283.01 C 245.61,280.94 324.81,276.25 404.79,271.50 C 513.82,265.02 624.29,258.44 733.52,258.44 C 751.48,258.44 769.40,258.62 787.27,259.00 L 857.80,259.00 C 857.80,259.00 940.61,251.12 940.65,251.12 L 945.39,300.88 C 860.20,309.00 860.20,309.00 859.00,309.00 L 787.00,309.00 C 786.47,309.00 764.15,308.43 733.76,308.43 Z" transform="translate(4713.81,100.00) scale(0.8000,0.8000)" fill="#000000" />
</svg>
