<?xml version="1.0" encoding="UTF-8" standalone="no"?>
<!--
Representation of "telo pan Malo" in sitelen kalama pona
Generated by generate_sitelen_kalama_pona.py

Description:
  Representation of "telo pan Malo" in sitelen kalama pona.
  Sources: telo: https://commons.wikimedia.org/wiki/File:Sitelen_seli_kiwen_-_telo.svg; pan: https://commons.wikimedia.org/wiki/File:Sitelen_seli_kiwen_-_pan.svg; ma: https://commons.wikimedia.org/wiki/File:Sitelen_kalama_pona_-_ma.svg; lo: https://commons.wikimedia.org/wiki/File:Sitelen_kalama_pona_-_lo.svg

Categories:
  [[Category:Sitelen kalama pona]]
  [[Category:Toki Pona text containing telo pan]]
  [[Category:Toki Pona text containing sound symbol Ma]]
  [[Category:Toki Pona text containing sound symbol Lo]]

Sources:
  telo: https://commons.wikimedia.org/wiki/File:Sitelen_seli_kiwen_-_telo.svg
  pan: https://commons.wikimedia.org/wiki/File:Sitelen_seli_kiwen_-_pan.svg
  ma: https://commons.wikimedia.org/wiki/File:Sitelen_kalama_pona_-_ma.svg
  lo: https://commons.wikimedia.org/wiki/File:Sitelen_kalama_pona_-_lo.svg
-->
<svg version="1.1" width="5105" height="1000"
     viewBox="0 0 5105 1000"
     xmlns="http://www.w3.org/2000/svg">
  <path d="M554 195Q544 195 534.5 194.0Q525 193 521.5 192.5Q518 192 513 191Q506 189 506 193Q506 198 496 198Q488 198 475.5 205.0Q463 212 450 215Q436 218 415.0 227.5Q394 237 394 241Q394 250 354.0 256.5Q314 263 302 263Q288 263 254.0 245.5Q220 228 220 221Q220 217 214 217Q211 217 202.0 210.0Q193 203 178 203Q156 203 152 214Q152 217 154 217Q156 218 154.0 219.0Q152 220 149.0 226.0Q146 232 146 238Q146 249 171.0 272.0Q196 295 224 308Q237 315 246.0 318.0Q255 321 275.0 324.0Q295 327 324 327Q341 327 347.5 325.5Q354 324 364.0 319.5Q374 315 392 311Q411 306 426.0 297.5Q441 289 449.5 282.0Q458 275 487.5 270.0Q517 265 566 265Q598 265 622.0 274.5Q646 284 655.0 292.0Q664 300 664 302Q667 311 670.5 311.0Q674 311 693.0 329.5Q712 348 732 348Q745 348 753.0 341.5Q761 335 762.5 330.5Q764 326 764 323Q764 302 740.5 267.5Q717 233 698 233Q689 233 685.5 232.0Q682 231 681.0 229.5Q680 228 674.5 224.0Q669 220 658 215Q640 206 632 197Q622 187 604 191Q579 195 554 195ZM170 424Q163 424 149.5 441.0Q136 458 136 473Q136 486 151.5 508.0Q167 530 178 534Q193 540 204 549Q221 563 254.5 572.5Q288 582 304 582Q326 582 373.5 560.0Q421 538 430 528Q436 522 444 522Q446 522 477.5 506.0Q509 490 536 490Q614 490 638 520Q644 528 657.0 534.0Q670 540 680 540Q690 540 690 534Q690 529 704.0 522.5Q718 516 718 512Q717 497 710.0 489.5Q703 482 696.5 480.0Q690 478 690 475Q690 470 682 470Q677 470 672.0 463.0Q667 456 658 454Q648 452 648.0 447.0Q648 442 642 442Q637 442 616.5 432.0Q596 422 557.5 422.0Q519 422 504.0 426.5Q489 431 482 431Q470 431 424.5 457.5Q379 484 374 484Q368 484 342.5 498.0Q317 512 302 512Q270 512 246.0 498.0Q222 484 211.0 468.0Q200 452 189.0 438.0Q178 424 170 424Z" transform="translate(0.00,958.33) scale(0.9583,-0.9583)" fill="#000000" />
  <path d="M698 317Q704 317 709.5 314.5Q715 312 724 312Q725 312 729.0 306.5Q733 301 736.5 292.5Q740 284 740.0 277.0Q740 270 736 266Q728 259 680.5 244.0Q633 229 624 223Q606 211 582 199Q539 177 495.5 137.5Q452 98 446 83Q442 71 438.0 69.0Q434 67 418 67Q399 67 385.5 73.5Q372 80 372 88Q372 92 365.0 97.0Q358 102 358 109Q358 117 350.5 125.5Q343 134 330.0 148.5Q317 163 308 179Q292 205 254 220Q254 220 234.0 230.0Q214 240 194.0 252.0Q174 264 174 268V274Q174 290 180.5 299.5Q187 309 196 309Q209 309 258 289Q284 278 298.0 267.5Q312 257 348 220Q400 166 400 162Q400 151 419 164Q427 170 430 170Q434 170 441.5 177.0Q449 184 456 184Q461 184 485.0 204.5Q509 225 518 228Q528 231 544.0 245.0Q560 259 564 259Q576 259 626.0 288.0Q676 317 698 317ZM284 461Q304 461 360.5 408.5Q417 356 426 356H428Q449 368 464.5 378.5Q480 389 487.5 396.5Q495 404 500.0 410.5Q505 417 506.5 420.5Q508 424 509.5 426.0Q511 428 512 428Q515 428 524.5 434.0Q534 440 549.0 449.0Q564 458 576 463Q591 469 601.5 483.5Q612 498 626 500Q646 503 650 503Q659 503 668.5 492.5Q678 482 678 464Q678 449 669.0 443.0Q660 437 638.5 429.5Q617 422 600 410Q563 386 558 384Q544 377 518.5 348.0Q493 319 486 314Q479 309 469.0 294.0Q459 279 448 272Q436 266 432.0 266.0Q428 266 414.5 272.0Q401 278 388.5 296.5Q376 315 360 329Q351 337 344.0 345.5Q337 354 333.5 359.0Q330 364 327.5 368.5Q325 373 323.0 375.0Q321 377 320 377Q317 377 266.0 400.0Q215 423 204 423Q191 423 182.5 431.5Q174 440 174 454Q174 483 200 483Q203 483 215.0 481.5Q227 480 244.0 476.5Q261 473 268 469Q279 461 284 461ZM186 690Q204 690 259.0 681.5Q314 673 314 667Q314 664 328 656Q353 644 363.0 636.5Q373 629 392 610Q418 583 422 583Q429 583 474.5 626.5Q520 670 535.5 676.0Q551 682 577.0 699.0Q603 716 606 722Q609 725 614.5 726.5Q620 728 631.5 729.5Q643 731 654 735Q672 741 680 741Q683 741 686.0 740.5Q689 740 695.5 737.5Q702 735 706.5 730.0Q711 725 714.5 715.0Q718 705 718 691Q718 684 706.5 678.0Q695 672 682 672Q675 672 668.5 667.5Q662 663 646 660Q609 654 574.5 633.0Q540 612 524.0 594.5Q508 577 508 572Q508 568 502.0 561.5Q496 555 482.5 542.0Q469 529 460 518Q440 495 414 495Q398 495 389.5 504.0Q381 513 378.0 526.0Q375 539 361.0 557.0Q347 575 322 588Q311 593 303.5 598.0Q296 603 293.0 605.0Q290 607 284.5 609.5Q279 612 270 614Q199 633 198 633Q160 639 160 662Q160 664 162.0 670.0Q164 676 170.5 683.0Q177 690 186 690Z" transform="translate(942.50,958.33) scale(0.9583,-0.9583)" fill="#000000" />
  <path d="M 24.637998,12.488337 H 20.72216 q -1.48166,0 -2.54,-1.058333 -1.05833,-1.058333 -1.05833,-2.54 V 3.598338 q 0,-1.481667 1.05833,-2.54 Q 19.2405,4e-6 20.72216,4e-6 h 3.915838 V 0.846671 H 20.72216 q -1.13241,0 -1.94733,0.814917 -0.80433,0.804333 -0.80433,1.93675 v 5.291666 q 0,1.132417 0.80433,1.93675 0.81492,0.814917 1.94733,0.814917 h 3.915838 z" transform="translate(513.81,0.00) scale(80.0747,80.0747)" fill="#000000" />
  <path d="M 75.014662,0.846671 V 4e-6 h 13.123333 v 0.846667 z m 0,11.641666 v -0.846666 h 13.123333 v 0.846666 z" transform="translate(-3520.08,0.00) scale(80.0747,80.0747)" fill="#000000" />
  <path d="M 75.014662,0.846671 V 4e-6 h 13.123333 v 0.846667 z m 0,11.641666 v -0.846666 h 13.123333 v 0.846666 z" transform="translate(-2469.24,0.00) scale(80.0747,80.0747)" fill="#000000" />
  <path d="m 87.714667,4e-6 h 2.8575 q 1.481666,0 2.54,1.058334 1.058333,1.058333 1.058333,2.54 v 5.291666 q 0,1.481667 -1.058333,2.54 -1.058334,1.058333 -2.54,1.058333 h -2.8575 v -0.846666 h 2.8575 q 1.132416,0 1.93675,-0.814917 0.814916,-0.804333 0.814916,-1.93675 V 3.598338 q 0,-1.132417 -0.814916,-1.93675 -0.804334,-0.814917 -1.93675,-0.814917 h -2.8575 z" transform="translate(-2435.34,0.00) scale(80.0747,80.0747)" fill="#000000" />
  <path d="M 522.00,558.00 C 522.00,558.14 521.73,566.22 521.73,572.30 C 521.73,584.12 522.48,594.41 525.00,603.00 L 477.02,617.06 C 472.64,602.14 471.66,587.63 471.66,574.12 C 471.66,568.77 471.81,563.59 471.97,558.60 C 471.09,547.25 470.72,536.08 470.72,525.05 C 470.72,464.30 482.14,406.66 482.14,348.98 C 482.14,342.62 482.00,338.85 482.00,338.00 C 482.00,336.47 482.27,333.61 482.27,327.81 C 482.27,232.28 405.65,104.59 308.07,100.98 C 287.06,100.20 287.06,100.20 286.79,100.20 C 199.98,100.20 129.26,141.64 97.83,286.69 C 74.28,395.40 79.55,527.94 71.91,622.04 L 22.09,617.99 L 22.09,617.96 C 29.63,525.03 24.03,391.17 48.98,276.04 C 66.30,196.08 112.34,50.25 287.76,50.25 C 317.75,50.25 377.94,50.25 441.13,113.44 C 497.05,169.35 532.28,252.44 532.28,327.17 C 532.28,330.91 532.19,334.63 532.01,338.33 C 532.10,341.97 532.14,345.60 532.14,349.21 C 532.14,410.00 520.73,467.35 520.73,525.49 C 520.73,542.54 522.00,557.67 522.00,558.00  Z M 503.68,361.35 C 513.06,336.93 546.33,255.47 629.36,255.47 C 636.20,255.47 643.24,256.04 650.48,257.24 C 753.85,268.91 788.18,355.43 802.57,401.96 C 828.62,486.23 830.28,589.08 848.98,652.94 C 849.66,655.24 850.00,657.62 850.00,660.00 L 850.00,708.00 L 800.00,708.00 L 800.00,663.53 C 773.06,567.33 779.47,405.33 712.11,337.97 C 695.42,321.28 674.43,310.14 644.27,306.85 C 630.12,305.30 630.12,305.30 628.03,305.30 C 609.34,305.30 595.54,312.49 582.92,325.11 C 560.64,347.39 543.89,390.03 533.87,437.20 C 521.40,495.81 518.69,558.66 517.28,592.44 C 516.12,620.45 515.90,625.72 508.15,633.47 C 505.02,636.59 498.32,640.84 490.10,640.84 C 487.33,640.84 467.92,639.96 464.28,615.73 C 462.26,602.27 461.58,587.67 461.58,572.31 C 461.58,555.15 462.43,537.03 463.22,518.46 C 464.06,498.61 464.87,478.30 464.87,458.73 C 464.87,367.02 445.25,331.52 402.27,324.87 C 397.57,324.56 393.02,324.40 388.63,324.40 C 352.32,324.40 276.29,332.40 250.66,463.04 C 244.69,493.49 242.38,526.44 242.38,558.52 C 242.38,583.23 243.75,607.44 245.88,629.63 L 196.12,634.41 C 193.85,610.78 192.32,584.90 192.32,558.14 C 192.32,473.76 207.33,379.47 263.75,323.05 C 294.19,292.61 336.34,274.45 389.51,274.45 C 428.86,274.45 481.87,289.08 503.68,361.35 Z" transform="translate(2612.12,100.00) scale(0.8000,0.8000)" fill="#000000" />
  <path d="M 465.44,167.91 C 432.23,167.91 400.97,147.23 400.97,111.94 C 400.97,109.21 401.17,106.45 401.59,103.66 C 401.20,100.67 401.02,97.69 401.02,94.72 C 401.02,66.23 417.87,33.05 448.66,29.30 C 448.67,29.14 448.68,29.06 448.68,29.06 L 450.07,29.15 C 450.61,29.11 451.16,29.07 451.71,29.04 C 465.05,30.75 477.97,30.17 484.28,32.08 C 512.10,40.52 536.45,65.06 536.45,94.79 C 536.45,96.81 536.34,98.86 536.10,100.96 C 536.14,101.94 536.16,102.92 536.16,103.91 C 536.16,137.97 511.76,167.28 479.03,167.28 C 477.99,167.28 476.94,167.25 475.88,167.19 C 472.42,167.67 468.93,167.91 465.44,167.91  Z M 455.48,79.62 C 454.05,81.72 451.13,87.02 451.13,95.21 C 451.13,99.17 452.00,99.64 452.00,104.00 C 452.00,108.84 450.64,111.66 450.64,112.96 C 450.64,113.25 455.41,117.85 465.72,117.85 C 470.10,117.85 470.84,117.00 475.00,117.00 C 476.95,117.00 479.69,117.39 479.73,117.39 C 482.11,117.39 486.14,109.21 486.14,103.14 C 486.14,102.13 486.00,101.63 486.00,100.00 C 486.00,97.04 486.47,95.74 486.47,94.64 C 486.47,89.74 478.69,83.61 471.86,80.71 L 455.48,79.62  Z M 208.00,154.00 L 258.00,154.00 L 258.00,661.62 L 711.63,673.01 C 711.63,673.01 710.38,722.99 710.37,722.99 C 232.37,710.99 232.37,710.99 232.37,710.99 C 218.81,710.65 208.00,699.57 208.00,686.00 L 208.00,154.00 Z" transform="translate(3662.97,100.00) scale(0.8000,0.8000)" fill="#000000" />
</svg>
