<?xml version="1.0" encoding="UTF-8" standalone="no"?>
<!--
Representation of "toki lawa" in sitelen kalama pona
Generated by generate_sitelen_kalama_pona.py

Description:
  Representation of "toki lawa" in sitelen kalama pona.
  Sources: toki: https://commons.wikimedia.org/wiki/File:Sitelen_seli_kiwen_-_toki.svg; lawa: https://commons.wikimedia.org/wiki/File:Sitelen_seli_kiwen_-_lawa.svg

Categories:
  [[Category:Toki Pona text containing toki lawa]]

Sources:
  toki: https://commons.wikimedia.org/wiki/File:Sitelen_seli_kiwen_-_toki.svg
  lawa: https://commons.wikimedia.org/wiki/File:Sitelen_seli_kiwen_-_lawa.svg
-->
<svg version="1.1" width="1805" height="1000"
     viewBox="0 0 1805 1000"
     xmlns="http://www.w3.org/2000/svg">
  <path d="M222 295Q222 320 228.0 339.0Q234 358 240.0 368.0Q246 378 246 382Q246 395 265.0 421.5Q284 448 300 456Q316 465 325.0 475.0Q334 485 335.5 491.0Q337 497 344.0 502.0Q351 507 366 509Q385 512 401.0 516.5Q417 521 428 521Q445 521 487.0 512.0Q529 503 540 503Q552 503 571.5 496.0Q591 489 608.0 481.5Q625 474 628 473Q640 469 640 463Q640 457 647.0 453.0Q654 449 654.0 445.0Q654 441 660.5 434.5Q667 428 676.0 416.0Q685 404 690 391Q700 367 702 365Q706 361 706 347Q706 339 709.0 330.5Q712 322 713.0 320.0Q714 318 712 314Q709 312 707.0 303.0Q705 294 700.0 278.5Q695 263 686 250Q678 237 671.0 219.5Q664 202 654 192Q647 185 644.5 179.5Q642 174 642.5 171.0Q643 168 639.5 165.0Q636 162 626 158Q608 150 608 146Q608 141 586.5 133.0Q565 125 538.0 117.0Q511 109 504 106Q488 98 458 98Q419 98 389.5 107.0Q360 116 345.5 124.5Q331 133 330 133Q322 133 305.0 142.5Q288 152 286 157Q285 165 278 167Q265 172 249.0 217.5Q233 263 230 265Q222 270 222 295ZM584 428Q581 428 570.5 436.0Q560 444 534.0 452.5Q508 461 468 461Q434 461 405.0 452.5Q376 444 361.0 435.0Q346 426 333.0 411.5Q320 397 317.5 393.0Q315 389 312 384Q308 374 302 374Q297 374 289.5 351.5Q282 329 282 313Q282 289 313.5 236.0Q345 183 378 177Q397 173 402 170Q416 163 460 163Q496 163 511.0 169.0Q526 175 528 175Q533 175 548.0 180.5Q563 186 588.0 205.5Q613 225 626 254Q643 288 645.5 296.5Q648 305 648 318Q648 349 638 370Q633 383 611.5 405.5Q590 428 584 428ZM144 612Q144 622 151.5 632.5Q159 643 172 643Q181 643 202.5 624.5Q224 606 227.5 606.0Q231 606 235.0 599.0Q239 592 244 592Q249 592 258.5 579.0Q268 566 268 555Q268 545 259.5 539.5Q251 534 243 533L234 532Q226 532 207.5 550.5Q189 569 182 569Q175 569 170.5 576.0Q166 583 162 583Q144 595 144 612ZM622 636Q645 645 677.0 671.5Q709 698 726 698Q740 698 748.0 689.5Q756 681 756 667Q756 654 752.0 648.5Q748 643 734 636Q722 629 700.0 615.0Q678 601 661.5 591.5Q645 582 638 580Q629 577 623.5 573.0Q618 569 608 569Q580 569 580 589Q580 601 592.0 615.0Q604 629 622 636ZM400 600Q400 601 403.0 615.0Q406 629 409.0 652.0Q412 675 412 697Q412 706 410 712Q405 729 429 742Q447 751 448 740Q448 734 458 730Q464 729 465.0 725.0Q466 721 466 708Q466 673 461.0 651.5Q456 630 456 608Q456 595 444.0 583.0Q432 571 420 571Q410 571 405.0 580.0Q400 589 400 600Z" transform="translate(0.00,958.33) scale(0.9583,-0.9583)" fill="#000000" />
  <path d="M352 711Q358 711 368.0 710.5Q378 710 396.0 709.0Q414 708 429 707Q496 703 504 683Q510 672 516 672Q518 672 530.0 662.5Q542 653 562.5 627.5Q583 602 598 569Q601 563 603.0 561.0Q605 559 613.5 557.5Q622 556 641 556Q667 556 701.5 560.5Q736 565 743 565Q751 565 761.5 563.0Q772 561 785.0 551.0Q798 541 798 524L795 495Q795 490 778 494Q774 495 760.0 495.0Q746 495 726.5 492.5Q707 490 697 490Q695 490 692 490L689 491Q687 492 677.0 491.5Q667 491 658 489Q643 486 639.0 483.0Q635 480 637 473Q639 467 645.0 432.0Q651 397 653.0 391.0Q655 385 655.0 382.0Q655 379 653.5 371.0Q652 363 650.5 346.5Q649 330 648 308Q647 282 635.5 252.5Q624 223 613.5 206.5Q603 190 602 190Q597 188 572.0 163.0Q547 138 547 135Q547 130 528.5 112.5Q510 95 504.0 95.0Q498 95 482.0 83.5Q466 72 462 72Q459 72 454.0 69.0Q449 66 442.5 62.0Q436 58 418.0 55.0Q400 52 374 52Q335 52 299.5 59.0Q264 66 253 78Q247 86 239 86Q233 86 233 90Q233 93 221.0 99.5Q209 106 209 111Q209 114 207.5 115.5Q206 117 203.0 119.0Q200 121 193.5 129.0Q187 137 179 149Q163 174 158 177Q149 182 130.5 230.0Q112 278 110 299Q109 310 106 318Q102 326 102 442Q102 484 108.0 511.5Q114 539 120.5 547.0Q127 555 133.0 561.0Q139 567 139 572Q139 579 154.0 599.5Q169 620 174 620Q176 620 202.0 648.5Q228 677 244 677Q248 677 257.0 685.5Q266 694 289.0 694.0Q312 694 322.0 702.5Q332 711 352 711ZM218 537Q235 537 254.0 534.0Q273 531 274.0 531.0Q275 531 297.5 538.0Q320 545 365 545Q374 545 389.5 544.0Q405 543 421.5 542.0Q438 541 453.5 540.0Q469 539 479 538L489 537Q500 537 516 541L537 546L530 560Q525 570 512.5 578.5Q500 587 500 592Q500 601 485.5 615.5Q471 630 440.5 642.5Q410 655 375 655Q363 655 352.5 648.0Q342 641 323 641H316Q296 641 286.5 633.0Q277 625 270 625Q254 625 211.0 585.5Q168 546 168 535Q168 532 172 532Q174 532 178.5 533.0Q183 534 193.0 535.5Q203 537 218 537ZM162 338Q162 312 171.5 296.5Q181 281 183 271Q185 260 206.0 228.0Q227 196 237 188Q240 185 261.5 158.0Q283 131 303 123Q312 119 347 119Q371 119 385.0 121.0Q399 123 403.5 125.0Q408 127 410 127Q413 127 415 126H417Q428 126 471.0 158.0Q514 190 519 201Q523 209 544.0 225.5Q565 242 565 252Q565 260 572.5 267.0Q580 274 582 280Q588 295 588 368Q588 389 586.5 395.5Q585 402 582.0 408.5Q579 415 577 430Q573 455 568.5 465.0Q564 475 557.0 476.5Q550 478 539 475Q531 473 523 473Q521 473 508.5 474.5Q496 476 462.0 477.0Q428 478 375 478Q304 478 302 475Q301 471 281.5 470.5Q262 470 235.0 469.5Q208 469 194 465Q178 461 167 461Q162 461 159.5 460.0Q157 459 154.0 451.0Q151 443 151.0 428.0Q151 413 156.5 385.5Q162 358 162 338Z" transform="translate(942.50,958.33) scale(0.9583,-0.9583)" fill="#000000" />
</svg>
