<?xml version="1.0" encoding="UTF-8" standalone="no"?>
<!--
Representation of "ko pan Ata" in sitelen ilo pona
Generated by generate_sitelen_kalama_pona.py

Description:
  Representation of "ko pan Ata" in sitelen ilo pona.
  Sources: ko: https://commons.wikimedia.org/wiki/File:Sitelen_seli_kiwen_-_ko.svg; pan: https://commons.wikimedia.org/wiki/File:Sitelen_seli_kiwen_-_pan.svg; a: https://commons.wikimedia.org/wiki/File:Sitelen_kalama_pona_-_xa.svg; ta: https://commons.wikimedia.org/wiki/File:Sitelen_kalama_pona_-_ta.svg

Categories:
  [[Category:Sitelen kalama pona]]
  [[Category:Toki Pona text containing ko pan]]
  [[Category:Toki Pona text containing sound symbol A]]
  [[Category:Toki Pona text containing sound symbol Ta]]

Sources:
  ko: https://commons.wikimedia.org/wiki/File:Sitelen_seli_kiwen_-_ko.svg
  pan: https://commons.wikimedia.org/wiki/File:Sitelen_seli_kiwen_-_pan.svg
  a: https://commons.wikimedia.org/wiki/File:Sitelen_kalama_pona_-_xa.svg
  ta: https://commons.wikimedia.org/wiki/File:Sitelen_kalama_pona_-_ta.svg
-->
<svg version="1.1" width="5105" height="1000"
     viewBox="0 0 5105 1000"
     xmlns="http://www.w3.org/2000/svg">
  <path d="M658 58Q651 58 644.5 49.5Q638 41 617.5 32.5Q597 24 556 24Q539 24 526 25Q508 27 477.5 44.0Q447 61 430 80Q416 95 407 95Q402 95 394.5 88.0Q387 81 381 81Q377 81 364.0 71.0Q351 61 323 58Q302 56 285.5 50.0Q269 44 262 44Q251 44 219.0 51.5Q187 59 177 64Q157 75 137.0 101.5Q117 128 103.0 153.0Q89 178 86 181Q73 193 73 225Q73 260 87.5 287.0Q102 314 102 317Q102 322 97.5 331.0Q93 340 86.5 350.0Q80 360 73.0 369.5Q66 379 62 385L57 391H58Q59 391 59 392L52 410Q45 428 45 442Q45 452 48.0 459.5Q51 467 57.5 480.5Q64 494 69 510Q76 529 86 543L97 557Q101 564 119.0 575.0Q137 586 143 592Q155 602 164 602Q171 602 201.0 611.0Q231 620 255 620Q289 620 302 607Q323 587 325 605Q327 625 334.5 641.5Q342 658 348.5 665.0Q355 672 356 672Q362 672 362 677Q362 681 369.0 681.0Q376 681 376 687Q376 692 414.5 702.0Q453 712 454 716Q456 721 500 721Q535 721 535 724Q538 724 551.0 716.5Q564 709 574 709Q588 709 615 681Q639 656 645.0 643.5Q651 631 659 596Q665 571 665 558Q665 549 662.5 538.0Q660 527 660 524Q660 518 666.0 515.5Q672 513 694 510Q711 507 732 507Q744 507 758.0 493.5Q772 480 776.0 480.0Q780 480 803.0 460.5Q826 441 826 437Q826 432 840 415Q850 403 852.5 390.5Q855 378 855 334Q855 301 849 294Q845 289 839.5 279.5Q834 270 830.0 264.0Q826 258 822 256Q819 255 807.5 245.5Q796 236 788.0 236.0Q780 236 762.5 229.0Q745 222 739 221Q731 220 729.5 204.0Q728 188 725.5 162.0Q723 136 714 117Q706 100 686.0 79.0Q666 58 658 58ZM659 175Q659 199 631.5 214.5Q604 230 604 253Q604 269 617.0 279.0Q630 289 639.5 291.5Q649 294 653 294Q656 294 673.5 288.5Q691 283 707 283Q720 283 725.0 287.5Q730 292 736 292Q749 292 770.0 306.0Q791 320 791 346Q791 365 778.5 387.0Q766 409 756 413Q744 419 737 424Q718 437 668 439Q665 439 637.5 427.0Q610 415 597 415Q579 415 567.0 435.5Q555 456 564 465Q572 474 582.0 496.0Q592 518 592 527Q592 538 595.5 542.0Q599 546 599 558Q599 576 594.0 590.0Q589 604 589 613Q589 617 578.0 629.0Q567 641 540.5 653.5Q514 666 481 666Q434 666 418 647Q413 641 399.5 635.5Q386 630 376.5 618.0Q367 606 362 580Q360 566 360 564Q360 558 367.0 547.0Q374 536 374 507Q374 486 370 474Q366 461 362.5 458.5Q359 456 344 456Q326 456 315.5 465.0Q305 474 304.0 479.5Q303 485 303 489Q308 507 308 512Q308 524 283.0 540.5Q258 557 251 557Q241 554 203 545Q161 535 145.5 523.5Q130 512 119 484Q109 456 109 443Q109 424 118.0 408.0Q127 392 138 388Q146 386 146.0 381.0Q146 376 156 366Q165 357 193 357H214Q239 357 244.0 352.5Q249 348 249 326Q249 310 247.0 304.0Q245 298 233.0 292.5Q221 287 194 285Q177 283 168.0 281.5Q159 280 146.5 269.0Q134 258 134 238Q134 203 174.0 157.5Q214 112 261 112Q270 112 297 120Q328 129 353.5 151.5Q379 174 394.0 191.0Q409 208 420 208Q429 208 437.5 199.5Q446 191 446 181Q446 155 470.5 135.5Q495 116 515.5 109.0Q536 102 541 102Q542 102 544.5 103.5Q547 105 553.5 106.0Q560 107 571 106H580Q615 106 637.0 129.0Q659 152 659 175Z" transform="translate(0.00,958.33) scale(0.9583,-0.9583)" fill="#000000" />
  <path d="M698 317Q704 317 709.5 314.5Q715 312 724 312Q725 312 729.0 306.5Q733 301 736.5 292.5Q740 284 740.0 277.0Q740 270 736 266Q728 259 680.5 244.0Q633 229 624 223Q606 211 582 199Q539 177 495.5 137.5Q452 98 446 83Q442 71 438.0 69.0Q434 67 418 67Q399 67 385.5 73.5Q372 80 372 88Q372 92 365.0 97.0Q358 102 358 109Q358 117 350.5 125.5Q343 134 330.0 148.5Q317 163 308 179Q292 205 254 220Q254 220 234.0 230.0Q214 240 194.0 252.0Q174 264 174 268V274Q174 290 180.5 299.5Q187 309 196 309Q209 309 258 289Q284 278 298.0 267.5Q312 257 348 220Q400 166 400 162Q400 151 419 164Q427 170 430 170Q434 170 441.5 177.0Q449 184 456 184Q461 184 485.0 204.5Q509 225 518 228Q528 231 544.0 245.0Q560 259 564 259Q576 259 626.0 288.0Q676 317 698 317ZM284 461Q304 461 360.5 408.5Q417 356 426 356H428Q449 368 464.5 378.5Q480 389 487.5 396.5Q495 404 500.0 410.5Q505 417 506.5 420.5Q508 424 509.5 426.0Q511 428 512 428Q515 428 524.5 434.0Q534 440 549.0 449.0Q564 458 576 463Q591 469 601.5 483.5Q612 498 626 500Q646 503 650 503Q659 503 668.5 492.5Q678 482 678 464Q678 449 669.0 443.0Q660 437 638.5 429.5Q617 422 600 410Q563 386 558 384Q544 377 518.5 348.0Q493 319 486 314Q479 309 469.0 294.0Q459 279 448 272Q436 266 432.0 266.0Q428 266 414.5 272.0Q401 278 388.5 296.5Q376 315 360 329Q351 337 344.0 345.5Q337 354 333.5 359.0Q330 364 327.5 368.5Q325 373 323.0 375.0Q321 377 320 377Q317 377 266.0 400.0Q215 423 204 423Q191 423 182.5 431.5Q174 440 174 454Q174 483 200 483Q203 483 215.0 481.5Q227 480 244.0 476.5Q261 473 268 469Q279 461 284 461ZM186 690Q204 690 259.0 681.5Q314 673 314 667Q314 664 328 656Q353 644 363.0 636.5Q373 629 392 610Q418 583 422 583Q429 583 474.5 626.5Q520 670 535.5 676.0Q551 682 577.0 699.0Q603 716 606 722Q609 725 614.5 726.5Q620 728 631.5 729.5Q643 731 654 735Q672 741 680 741Q683 741 686.0 740.5Q689 740 695.5 737.5Q702 735 706.5 730.0Q711 725 714.5 715.0Q718 705 718 691Q718 684 706.5 678.0Q695 672 682 672Q675 672 668.5 667.5Q662 663 646 660Q609 654 574.5 633.0Q540 612 524.0 594.5Q508 577 508 572Q508 568 502.0 561.5Q496 555 482.5 542.0Q469 529 460 518Q440 495 414 495Q398 495 389.5 504.0Q381 513 378.0 526.0Q375 539 361.0 557.0Q347 575 322 588Q311 593 303.5 598.0Q296 603 293.0 605.0Q290 607 284.5 609.5Q279 612 270 614Q199 633 198 633Q160 639 160 662Q160 664 162.0 670.0Q164 676 170.5 683.0Q177 690 186 690Z" transform="translate(942.50,958.33) scale(0.9583,-0.9583)" fill="#000000" />
  <path d="M 24.637998,12.488337 H 20.72216 q -1.48166,0 -2.54,-1.058333 -1.05833,-1.058333 -1.05833,-2.54 V 3.598338 q 0,-1.481667 1.05833,-2.54 Q 19.2405,4e-6 20.72216,4e-6 h 3.915838 V 0.846671 H 20.72216 q -1.13241,0 -1.94733,0.814917 -0.80433,0.804333 -0.80433,1.93675 v 5.291666 q 0,1.132417 0.80433,1.93675 0.81492,0.814917 1.94733,0.814917 h 3.915838 z" transform="translate(513.81,0.00) scale(80.0747,80.0747)" fill="#000000" />
  <path d="M 75.014662,0.846671 V 4e-6 h 13.123333 v 0.846667 z m 0,11.641666 v -0.846666 h 13.123333 v 0.846666 z" transform="translate(-3520.08,0.00) scale(80.0747,80.0747)" fill="#000000" />
  <path d="M 75.014662,0.846671 V 4e-6 h 13.123333 v 0.846667 z m 0,11.641666 v -0.846666 h 13.123333 v 0.846666 z" transform="translate(-2469.24,0.00) scale(80.0747,80.0747)" fill="#000000" />
  <path d="m 87.714667,4e-6 h 2.8575 q 1.481666,0 2.54,1.058334 1.058333,1.058333 1.058333,2.54 v 5.291666 q 0,1.481667 -1.058333,2.54 -1.058334,1.058333 -2.54,1.058333 h -2.8575 v -0.846666 h 2.8575 q 1.132416,0 1.93675,-0.814917 0.814916,-0.804333 0.814916,-1.93675 V 3.598338 q 0,-1.132417 -0.814916,-1.93675 -0.804334,-0.814917 -1.93675,-0.814917 h -2.8575 z" transform="translate(-2435.34,0.00) scale(80.0747,80.0747)" fill="#000000" />
  <path d="M 457.02,666.69 C 456.60,667.48 420.13,731.68 413.26,744.54 C 480.65,733.33 546.25,731.82 631.91,730.04 C 706.68,719.20 787.62,721.53 861.83,716.02 C 849.49,692.25 843.96,681.58 833.54,668.70 C 824.91,658.02 720.62,468.66 629.58,334.03 C 626.67,338.61 626.20,339.35 623.73,341.58 C 535.96,420.70 537.88,561.78 457.02,666.69  Z M 370.00,804.00 C 356.19,804.00 345.00,792.81 345.00,779.00 C 345.00,776.62 345.34,774.23 346.02,771.93 C 354.08,744.47 375.01,709.50 393.75,676.97 C 393.97,676.57 415.60,638.50 416.29,637.62 C 491.15,541.89 488.84,398.52 587.58,306.88 C 591.73,300.38 594.73,296.42 598.83,289.73 C 546.46,216.35 495.83,156.12 444.47,105.06 C 391.17,198.47 349.00,299.17 306.58,400.64 C 306.07,401.86 263.39,503.93 254.64,522.62 L 143.64,759.62 C 143.64,759.62 98.36,738.41 98.36,738.38 L 209.24,501.64 C 226.73,462.00 243.55,421.75 260.45,381.32 C 307.00,269.97 354.06,157.15 417.60,52.07 C 419.15,49.50 425.79,40.00 439.00,40.00 C 445.15,40.00 451.30,42.26 456.10,46.77 C 605.10,186.66 707.52,354.94 831.60,567.16 C 845.71,591.30 859.69,615.21 873.63,638.77 C 897.87,669.36 906.72,700.11 923.64,721.52 C 927.21,726.05 929.00,731.52 929.00,737.00 C 929.00,749.65 919.58,760.24 907.14,761.80 C 818.95,772.88 722.27,767.24 637.68,779.73 C 621.18,782.16 480.15,776.97 376.15,803.23 C 374.13,803.74 372.07,804.00 370.00,804.00 Z" transform="translate(2612.12,100.00) scale(0.8000,0.8000)" fill="#000000" />
  <path d="M 606.00,542.00 C 606.00,546.18 603.91,554.87 603.91,568.08 C 603.91,626.37 650.88,632.48 740.82,636.50 C 786.76,638.55 832.37,640.59 866.94,657.93 L 914.83,665.30 C 914.83,665.30 907.22,714.71 907.17,714.70 C 855.17,706.70 855.17,706.70 855.17,706.70 C 845.62,705.23 841.04,697.37 807.61,691.96 C 759.76,684.22 697.95,688.78 646.90,677.14 C 616.57,670.23 554.06,650.54 554.06,566.86 C 554.06,558.44 554.70,549.61 555.98,540.37 C 555.66,515.94 555.39,491.39 555.39,466.76 C 555.39,362.05 560.27,255.89 586.78,151.80 C 586.78,151.80 635.23,164.14 635.22,164.20 C 610.19,262.47 605.41,365.06 605.41,468.94 C 605.41,502.99 606.00,541.27 606.00,542.00  Z M 188.61,713.52 C 253.17,713.52 264.03,634.00 272.00,554.74 L 272.00,472.00 C 272.00,458.65 280.28,461.80 280.28,420.74 C 280.28,419.96 279.71,388.35 279.71,388.02 C 279.71,353.88 280.47,395.07 291.49,306.05 C 298.20,251.85 305.43,193.50 340.54,158.39 C 358.87,140.06 384.10,129.89 414.62,129.89 C 420.36,129.89 426.27,130.25 432.37,130.98 L 791.06,125.03 C 791.06,125.03 991.54,97.24 991.59,97.24 L 998.46,146.76 C 804.56,173.63 795.49,174.96 793.42,174.99 L 431.00,181.00 C 427.46,181.00 422.24,179.74 413.12,179.74 C 360.94,179.74 351.03,232.07 341.10,312.24 C 338.20,335.68 335.46,358.94 329.84,379.96 C 329.75,382.50 329.71,385.14 329.71,387.86 C 329.71,389.00 330.44,424.31 330.44,424.67 C 330.44,441.15 329.05,459.17 322.00,477.10 L 322.00,556.00 C 322.00,557.04 317.74,616.22 305.93,658.28 C 298.73,683.89 274.89,763.28 187.01,763.28 C 178.49,763.28 169.59,762.51 160.32,760.91 C 114.76,759.15 63.76,752.23 19.97,735.32 C 19.97,735.32 37.99,688.67 38.03,688.68 C 93.01,709.92 166.24,711.18 167.53,711.42 C 175.39,712.86 182.37,713.52 188.61,713.52 Z" transform="translate(3662.97,100.00) scale(0.8000,0.8000)" fill="#000000" />
</svg>
