<?xml version="1.0" encoding="UTF-8" standalone="no"?>
<!--
Representation of "lipu sitelen" in sitelen ilo pona
Generated by generate_sitelen_kalama_pona.py

Description:
  Representation of "lipu sitelen" in sitelen ilo pona.
  Sources: lipu: https://commons.wikimedia.org/wiki/File:Sitelen_seli_kiwen_-_lipu.svg; sitelen: https://commons.wikimedia.org/wiki/File:Sitelen_seli_kiwen_-_sitelen.svg

Categories:
  [[Category:Sitelen kalama pona]]
  [[Category:Toki Pona text containing lipu sitelen]]

Sources:
  lipu: https://commons.wikimedia.org/wiki/File:Sitelen_seli_kiwen_-_lipu.svg
  sitelen: https://commons.wikimedia.org/wiki/File:Sitelen_seli_kiwen_-_sitelen.svg
-->
<svg version="1.1" width="1805" height="1000"
     viewBox="0 0 1805 1000"
     xmlns="http://www.w3.org/2000/svg">
  <path d="M461 87Q346 87 316.5 82.0Q287 77 262 77Q248 77 234.0 77.0Q220 77 209.5 76.5Q199 76 191.0 75.5Q183 75 178.5 75.0Q174 75 174 75Q159 75 152.0 78.5Q145 82 134 93L118 111L126 135Q135 157 137.0 215.0Q139 273 139.5 322.0Q140 371 143 374Q145 376 145 402Q145 402 144.5 435.0Q144 468 143.0 516.0Q142 564 141 596L140 697L166 723L252 720Q307 718 349 718Q349 718 353.0 718.0Q357 718 364.5 718.5Q372 719 383.0 719.0Q394 719 411.5 719.0Q429 719 449.5 719.5Q470 720 499.0 720.0Q528 720 560 720Q569 720 581.0 720.0Q593 720 605.0 719.5Q617 719 627.5 718.5Q638 718 644.5 718.0Q651 718 651 718Q676 718 691.5 720.0Q707 722 713.0 724.5Q719 727 721.5 727.0Q724 727 731.5 725.0Q739 723 742 723Q750 723 757.0 704.0Q764 685 764 669Q764 663 762.0 656.5Q760 650 760 645Q760 640 762.5 625.5Q765 611 765 587Q765 572 763.5 546.0Q762 520 760.0 493.5Q758 467 756.0 443.0Q754 419 752.5 403.0Q751 387 751 387Q751 382 752.0 375.0Q753 368 753 361Q753 349 752 340Q752 338 751.5 333.0Q751 328 751 325Q751 289 759.0 233.0Q767 177 775 153Q785 127 779 121Q776 117 777.5 110.5Q779 104 774 101Q766 93 651.0 89.5Q536 86 490 86ZM687 311Q687 330 689.0 364.5Q691 399 694.0 434.0Q697 469 699.5 501.5Q702 534 704.0 555.5Q706 577 706 577Q706 588 701.5 601.5Q697 615 694 631L690 653L650 654Q597 655 375 655Q230 655 224 654Q212 653 208 642Q202 621 202 458Q202 429 202.5 401.5Q203 374 203.5 355.5Q204 337 204.5 323.5Q205 310 205.0 302.5Q205 295 205 295Q205 281 199.5 252.0Q194 223 194 179Q194 167 195.0 162.5Q196 158 202.5 153.5Q209 149 221.0 148.5Q233 148 257 148Q292 148 292 151Q292 153 342 153Q359 153 375.5 153.0Q392 153 404.0 152.5Q416 152 427.0 151.5Q438 151 445.5 150.5Q453 150 458.5 149.5Q464 149 466.5 149.0Q469 149 469 149Q488 149 528.5 154.5Q569 160 593 160Q600 160 606.5 159.5Q613 159 620 159Q647 159 676.0 163.5Q705 168 705 172Q705 174 696.0 225.5Q687 277 687 311Z" transform="translate(0.00,958.33) scale(0.9583,-0.9583)" fill="#000000" />
  <path d="M556 397Q556 406 557.5 412.5Q559 419 570.0 427.0Q581 435 602 435Q616 435 623.5 425.5Q631 416 632 406L633 396Q633 381 623.0 371.5Q613 362 596 362Q574 362 565.0 370.0Q556 378 556 397ZM405 406Q405 439 442 439Q466 439 479 413Q484 403 484.0 398.5Q484 394 477 386Q465 370 438 370Q423 370 415.0 379.0Q407 388 406 397ZM275 408Q275 416 286.5 429.5Q298 443 310 443Q325 443 340.5 430.0Q356 417 356 404Q356 373 307 373Q295 373 285.0 388.0Q275 403 275 408ZM166 161V167Q166 173 166.0 181.5Q166 190 166.5 199.0Q167 208 167.0 217.0Q167 226 167 230Q167 298 164 301Q163 302 167.0 313.5Q171 325 166.0 332.0Q161 339 161 373Q161 388 164.5 440.5Q168 493 169 562Q170 628 174.0 654.5Q178 681 191 697Q200 709 208 709Q215 709 248.5 698.0Q282 687 301 684Q326 681 400 681Q638 681 695 693Q710 697 725 683Q739 671 739 648Q739 618 731.5 561.0Q724 504 722 453Q720 394 717 386Q715 380 718.5 374.5Q722 369 720 360V342Q720 276 728.5 204.0Q737 132 737 123Q737 98 728.5 88.5Q720 79 699.0 79.0Q678 79 678.0 82.0Q678 85 502.0 95.5Q326 106 315 106L286 104Q258 101 227.5 98.5Q197 96 191 96Q175 96 170.5 108.5Q166 121 166 161ZM663 407Q663 482 670.0 515.0Q677 548 677 577Q677 589 673 605L668 624H471Q278 624 266 627Q259 628 252.5 627.5Q246 627 242.0 624.0Q238 621 239 618Q241 613 237.0 608.5Q233 604 235 599Q236 597 236 595Q236 594 235.0 592.0Q234 590 233.0 584.0Q232 578 230.5 568.0Q229 558 228.0 536.5Q227 515 227 486Q227 479 227.0 466.5Q227 454 227.5 441.0Q228 428 228.5 415.5Q229 403 229 395V387V383Q229 379 228.5 372.0Q228 365 227.5 355.0Q227 345 227.0 330.5Q227 316 227 301Q227 246 232 237Q238 225 233 220Q227 214 228.0 203.5Q229 193 236 187Q252 173 354 173Q374 173 390.0 167.0Q406 161 431 161Q453 161 477.5 155.5Q502 150 522 150Q527 150 559.0 151.0Q591 152 628.5 154.5Q666 157 669 160Q674 165 674 200Q674 231 669.0 249.0Q664 267 664 290V318Q664 332 663.5 350.5Q663 369 663 407Z" transform="translate(942.50,958.33) scale(0.9583,-0.9583)" fill="#000000" />
</svg>
