<?xml version="1.0" encoding="UTF-8" standalone="no"?>
<!--
Representation of "ma lawa suli Tuki" in sitelen kalama pona
Generated by generate_sitelen_kalama_pona.py

Description:
  Representation of "ma lawa suli Tuki" in sitelen kalama pona.
  Sources: ma: https://commons.wikimedia.org/wiki/File:Sitelen_seli_kiwen_-_ma.svg; lawa: https://commons.wikimedia.org/wiki/File:Sitelen_seli_kiwen_-_lawa.svg; suli: https://commons.wikimedia.org/wiki/File:Sitelen_seli_kiwen_-_suli.svg; tu: https://commons.wikimedia.org/wiki/File:Sitelen_kalama_pona_-_tu.svg; ki: https://commons.wikimedia.org/wiki/File:Sitelen_kalama_pona_-_ki.svg

Categories:
  [[Category:Toki Pona text containing ma lawa suli]]
  [[Category:Toki Pona text containing sound symbol Tu]]
  [[Category:Toki Pona text containing sound symbol Ki]]

Sources:
  ma: https://commons.wikimedia.org/wiki/File:Sitelen_seli_kiwen_-_ma.svg
  lawa: https://commons.wikimedia.org/wiki/File:Sitelen_seli_kiwen_-_lawa.svg
  suli: https://commons.wikimedia.org/wiki/File:Sitelen_seli_kiwen_-_suli.svg
  tu: https://commons.wikimedia.org/wiki/File:Sitelen_kalama_pona_-_tu.svg
  ki: https://commons.wikimedia.org/wiki/File:Sitelen_kalama_pona_-_ki.svg
-->
<svg version="1.1" width="6048" height="1000"
     viewBox="0 0 6048 1000"
     xmlns="http://www.w3.org/2000/svg">
  <path d="M152 340Q152 341 154.5 344.0Q157 347 156 359V367Q156 391 167.5 424.0Q179 457 192.5 485.0Q206 513 208 517Q213 534 245.0 555.5Q277 577 278 583Q280 589 289.0 594.0Q298 599 302 607Q305 615 318.0 619.5Q331 624 336 632Q340 639 350.0 644.0Q360 649 373.5 653.5Q387 658 394 661Q400 665 424 665Q455 665 491.0 659.0Q527 653 532 645Q536 640 548 640Q551 640 554 640Q576 640 606 621Q618 613 634 603Q645 598 671.5 565.5Q698 533 698 526Q698 520 705.0 515.5Q712 511 712 506Q712 499 718 495Q724 492 732.0 475.0Q740 458 740 450Q740 447 744.0 439.0Q748 431 748 405Q748 372 741.0 333.0Q734 294 725.5 269.5Q717 245 712 245Q712 245 704.5 230.5Q697 216 684.5 199.5Q672 183 660 178Q652 174 652 168Q652 161 646 161Q641 161 624 145Q606 129 570 121Q490 105 480 105Q464 105 452.5 93.0Q441 81 434 81Q423 81 406.0 88.0Q389 95 388 100Q386 108 356 116Q327 124 282.5 146.0Q238 168 238.0 174.0Q238 180 208.5 210.5Q179 241 176 255Q174 268 163.0 301.0Q152 334 152 340ZM390 461Q391 481 392.0 500.0Q393 519 394.5 532.5Q396 546 397.5 558.0Q399 570 400.5 578.0Q402 586 403.0 591.0Q404 596 405.0 599.0Q406 602 406 602Q406 606 400 606Q390 606 375.0 597.0Q360 588 354 578Q349 567 310.0 527.5Q271 488 270 482Q266 474 264 477Q261 479 256.0 475.5Q251 472 247.5 466.0Q244 460 244 456Q244 451 240.5 447.0Q237 443 233.5 441.0Q230 439 226.5 431.5Q223 424 222 411L220 390L232 399Q241 406 250 406Q251 406 275.5 402.0Q300 398 330 398Q386 398 388 408Q388 418 390 461ZM656 491Q656 496 644.0 508.0Q632 520 632 524Q632 530 615.5 542.5Q599 555 579.5 567.5Q560 580 558 583Q550 591 500 597Q493 598 488 599L474 601L472 572Q470 557 467.0 537.5Q464 518 462.0 498.5Q460 479 460 449Q460 414 464.5 407.5Q469 401 488 401Q531 401 570.0 405.5Q609 410 632.5 414.0Q656 418 660 418Q677 418 680.5 418.5Q684 419 684 422Q684 430 675.5 453.0Q667 476 662 480Q656 485 656 491ZM680 345Q680 353 664 353Q655 353 632.0 346.5Q609 340 576 337Q532 333 520 331Q513 331 496.5 333.5Q480 336 474 336Q468 336 466 334Q462 330 462 247Q462 168 468 168Q469 168 489.5 171.0Q510 174 532.5 179.0Q555 184 558 187Q563 194 572.5 194.0Q582 194 614.5 226.0Q647 258 652 272Q658 288 661.5 288.0Q665 288 672.5 311.5Q680 335 680 345ZM336 333Q318 333 302.5 334.0Q287 335 275.5 336.0Q264 337 254.0 338.5Q244 340 237.5 341.5Q231 343 226.5 344.0Q222 345 220.0 346.0Q218 347 218 347Q214 347 214 341Q214 336 218.0 317.0Q222 298 235.0 271.0Q248 244 266 236Q284 228 315.5 200.5Q347 173 370 172L388 171V334L340 333Z" transform="translate(0.00,958.33) scale(0.9583,-0.9583)" fill="#000000" />
  <path d="M352 711Q358 711 368.0 710.5Q378 710 396.0 709.0Q414 708 429 707Q496 703 504 683Q510 672 516 672Q518 672 530.0 662.5Q542 653 562.5 627.5Q583 602 598 569Q601 563 603.0 561.0Q605 559 613.5 557.5Q622 556 641 556Q667 556 701.5 560.5Q736 565 743 565Q751 565 761.5 563.0Q772 561 785.0 551.0Q798 541 798 524L795 495Q795 490 778 494Q774 495 760.0 495.0Q746 495 726.5 492.5Q707 490 697 490Q695 490 692 490L689 491Q687 492 677.0 491.5Q667 491 658 489Q643 486 639.0 483.0Q635 480 637 473Q639 467 645.0 432.0Q651 397 653.0 391.0Q655 385 655.0 382.0Q655 379 653.5 371.0Q652 363 650.5 346.5Q649 330 648 308Q647 282 635.5 252.5Q624 223 613.5 206.5Q603 190 602 190Q597 188 572.0 163.0Q547 138 547 135Q547 130 528.5 112.5Q510 95 504.0 95.0Q498 95 482.0 83.5Q466 72 462 72Q459 72 454.0 69.0Q449 66 442.5 62.0Q436 58 418.0 55.0Q400 52 374 52Q335 52 299.5 59.0Q264 66 253 78Q247 86 239 86Q233 86 233 90Q233 93 221.0 99.5Q209 106 209 111Q209 114 207.5 115.5Q206 117 203.0 119.0Q200 121 193.5 129.0Q187 137 179 149Q163 174 158 177Q149 182 130.5 230.0Q112 278 110 299Q109 310 106 318Q102 326 102 442Q102 484 108.0 511.5Q114 539 120.5 547.0Q127 555 133.0 561.0Q139 567 139 572Q139 579 154.0 599.5Q169 620 174 620Q176 620 202.0 648.5Q228 677 244 677Q248 677 257.0 685.5Q266 694 289.0 694.0Q312 694 322.0 702.5Q332 711 352 711ZM218 537Q235 537 254.0 534.0Q273 531 274.0 531.0Q275 531 297.5 538.0Q320 545 365 545Q374 545 389.5 544.0Q405 543 421.5 542.0Q438 541 453.5 540.0Q469 539 479 538L489 537Q500 537 516 541L537 546L530 560Q525 570 512.5 578.5Q500 587 500 592Q500 601 485.5 615.5Q471 630 440.5 642.5Q410 655 375 655Q363 655 352.5 648.0Q342 641 323 641H316Q296 641 286.5 633.0Q277 625 270 625Q254 625 211.0 585.5Q168 546 168 535Q168 532 172 532Q174 532 178.5 533.0Q183 534 193.0 535.5Q203 537 218 537ZM162 338Q162 312 171.5 296.5Q181 281 183 271Q185 260 206.0 228.0Q227 196 237 188Q240 185 261.5 158.0Q283 131 303 123Q312 119 347 119Q371 119 385.0 121.0Q399 123 403.5 125.0Q408 127 410 127Q413 127 415 126H417Q428 126 471.0 158.0Q514 190 519 201Q523 209 544.0 225.5Q565 242 565 252Q565 260 572.5 267.0Q580 274 582 280Q588 295 588 368Q588 389 586.5 395.5Q585 402 582.0 408.5Q579 415 577 430Q573 455 568.5 465.0Q564 475 557.0 476.5Q550 478 539 475Q531 473 523 473Q521 473 508.5 474.5Q496 476 462.0 477.0Q428 478 375 478Q304 478 302 475Q301 471 281.5 470.5Q262 470 235.0 469.5Q208 469 194 465Q178 461 167 461Q162 461 159.5 460.0Q157 459 154.0 451.0Q151 443 151.0 428.0Q151 413 156.5 385.5Q162 358 162 338Z" transform="translate(942.50,958.33) scale(0.9583,-0.9583)" fill="#000000" />
  <path d="M116 735Q138 735 165.0 692.5Q192 650 192 631Q192 624 206.0 606.5Q220 589 220 572Q220 559 225.0 559.0Q230 559 230 551Q230 544 239.0 530.0Q248 516 248 514Q248 508 295.0 417.0Q342 326 342 319Q342 314 354.0 290.0Q366 266 366 261Q366 258 367.5 256.0Q369 254 372.0 251.0Q375 248 381.0 238.0Q387 228 394 212Q412 173 424 173Q432 173 445.0 204.5Q458 236 460 236Q462 236 464.0 242.5Q466 249 470.5 260.0Q475 271 482 278Q492 291 492 298Q492 306 497.0 306.0Q502 306 502.0 313.0Q502 320 506 320Q510 320 541.0 382.5Q572 445 572 452Q572 458 598.0 492.5Q624 527 624 530Q624 534 639.0 553.5Q654 573 674.5 601.5Q695 630 706 651Q713 666 727.5 687.0Q742 708 744 720Q749 747 784 747Q797 747 805.5 736.0Q814 725 814 711Q814 696 803.0 681.5Q792 667 792 666Q792 664 786.5 657.5Q781 651 773.0 642.0Q765 633 762 629Q749 607 733.5 586.0Q718 565 711.0 555.0Q704 545 704 542Q704 536 700 536Q698 536 695.0 530.0Q692 524 684.5 511.0Q677 498 668 486Q652 468 652 462Q652 457 642 449Q634 441 620.0 413.0Q606 385 606 376Q606 370 599.0 362.5Q592 355 594 353Q594 352 594 350Q594 349 590.5 344.5Q587 340 575.5 320.5Q564 301 548 270Q542 256 536.5 247.5Q531 239 529.0 237.0Q527 235 526.5 233.0Q526 231 526 228Q526 223 518.5 214.0Q511 205 514 200Q515 196 508.5 191.0Q502 186 502 178Q502 171 492.0 156.0Q482 141 478 131Q476 125 472 113Q454 67 447.0 53.5Q440 40 430 40Q421 40 404 48Q388 54 384.5 59.5Q381 65 376 89Q371 113 364.5 126.5Q358 140 358 144Q358 161 356 161Q353 161 350.5 165.5Q348 170 343.0 180.5Q338 191 330 200Q322 212 322 219Q322 223 302.0 265.0Q282 307 280 318Q277 332 269.0 349.5Q261 367 258 367Q254 367 246.0 384.0Q238 401 238 409Q238 418 234 420Q228 422 206.0 465.5Q184 509 180 524Q178 535 166.0 554.0Q154 573 150 573Q148 573 145.0 582.0Q142 591 137.0 602.5Q132 614 126 619Q118 626 118 636Q118 643 110.5 650.5Q103 658 102 662Q102 667 94.0 677.0Q86 687 86 697Q86 711 96.0 723.0Q106 735 116 735Z" transform="translate(1885.00,958.33) scale(0.9583,-0.9583)" fill="#000000" />
  <path d="M 24.637998,12.488337 H 20.72216 q -1.48166,0 -2.54,-1.058333 -1.05833,-1.058333 -1.05833,-2.54 V 3.598338 q 0,-1.481667 1.05833,-2.54 Q 19.2405,4e-6 20.72216,4e-6 h 3.915838 V 0.846671 H 20.72216 q -1.13241,0 -1.94733,0.814917 -0.80433,0.804333 -0.80433,1.93675 v 5.291666 q 0,1.132417 0.80433,1.93675 0.81492,0.814917 1.94733,0.814917 h 3.915838 z" transform="translate(1456.31,0.00) scale(80.0747,80.0747)" fill="#000000" />
  <path d="M 75.014662,0.846671 V 4e-6 h 13.123333 v 0.846667 z m 0,11.641666 v -0.846666 h 13.123333 v 0.846666 z" transform="translate(-2577.58,0.00) scale(80.0747,80.0747)" fill="#000000" />
  <path d="M 75.014662,0.846671 V 4e-6 h 13.123333 v 0.846667 z m 0,11.641666 v -0.846666 h 13.123333 v 0.846666 z" transform="translate(-1526.74,0.00) scale(80.0747,80.0747)" fill="#000000" />
  <path d="m 87.714667,4e-6 h 2.8575 q 1.481666,0 2.54,1.058334 1.058333,1.058333 1.058333,2.54 v 5.291666 q 0,1.481667 -1.058333,2.54 -1.058334,1.058333 -2.54,1.058333 h -2.8575 v -0.846666 h 2.8575 q 1.132416,0 1.93675,-0.814917 0.814916,-0.804333 0.814916,-1.93675 V 3.598338 q 0,-1.132417 -0.814916,-1.93675 -0.804334,-0.814917 -1.93675,-0.814917 h -2.8575 z" transform="translate(-1492.84,0.00) scale(80.0747,80.0747)" fill="#000000" />
  <path d="M 260.09,560.44 C 259.70,560.44 235.36,560.07 221.70,555.91 C 124.94,526.48 97.36,437.72 86.48,385.09 C 74.15,325.46 73.79,260.88 73.30,204.44 C 73.10,181.64 72.91,160.18 72.03,141.16 L 121.97,138.84 C 122.91,159.23 123.09,181.19 123.29,204.01 C 124.42,335.38 128.02,474.38 235.35,507.79 C 243.78,509.57 252.00,510.42 260.03,510.42 C 331.63,510.42 387.84,442.62 437.05,382.33 C 447.11,370.02 456.77,358.17 466.30,347.40 L 503.73,380.56 C 479.22,408.22 450.07,448.28 414.87,483.48 C 374.92,523.44 323.50,560.44 260.09,560.44  Z M 801.30,744.78 C 792.75,748.64 745.85,751.82 714.58,751.82 C 650.00,751.82 547.29,741.74 489.44,683.90 C 468.82,663.28 448.35,630.59 448.35,582.09 C 448.35,562.72 451.59,541.96 458.15,519.80 L 470.02,215.02 C 470.02,215.02 519.98,216.97 519.98,216.98 C 507.98,524.98 507.98,524.98 507.98,524.98 C 507.68,532.68 498.34,553.25 498.34,582.09 C 498.34,616.35 512.50,636.25 524.80,648.54 C 542.19,665.94 592.83,701.75 714.80,701.75 C 738.75,701.75 762.01,700.28 782.88,697.81 C 789.54,694.80 795.71,694.71 799.93,694.71 C 811.98,694.71 822.02,697.88 831.92,698.52 L 823.47,703.12 L 818.34,715.92 L 867.68,708.02 C 867.99,709.96 868.18,712.13 868.18,714.43 C 868.18,724.70 863.00,748.50 831.61,748.50 C 820.29,748.50 811.02,745.68 801.30,744.78  Z M 275.00,239.00 L 275.00,189.00 L 769.74,189.00 L 784.49,187.53 C 784.49,187.53 798.83,181.16 798.86,181.14 L 819.17,226.84 C 797.51,236.47 797.51,236.47 793.51,236.87 C 772.26,239.00 772.26,239.00 771.00,239.00 L 275.00,239.00 Z" transform="translate(3554.62,100.00) scale(0.8000,0.8000)" fill="#000000" />
  <path d="M 401.00,131.00 C 376.66,131.00 351.33,107.86 351.33,84.01 C 351.33,81.77 351.54,79.45 352.00,77.06 C 353.02,48.40 378.36,33.25 392.71,24.67 C 393.22,24.36 398.21,21.37 399.37,20.49 L 422.46,49.25 C 427.47,52.78 438.12,62.38 438.12,80.17 C 438.12,81.22 438.08,82.28 437.99,83.32 C 437.99,83.51 437.99,83.70 437.99,83.90 C 438.00,84.93 438.01,86.06 438.01,87.29 C 438.01,130.35 403.09,131.00 401.00,131.00  Z M 201.42,181.56 L 232.54,142.41 L 388.58,266.44 L 357.46,305.59 C 357.46,305.59 201.46,181.59 201.42,181.56  Z M 408.05,512.35 L 449.97,539.62 L 341.95,705.65 L 300.03,678.38 C 300.03,678.38 408.03,512.38 408.05,512.35  Z M 603.52,100.45 C 617.37,100.45 630.21,111.06 630.21,126.54 C 630.21,131.42 628.96,135.38 628.29,137.09 L 611.57,130.58 C 610.87,134.39 609.27,138.07 606.79,141.28 L 605.30,128.14 L 581.72,118.96 L 587.27,143.62 L 606.10,150.24 C 601.54,151.34 598.35,153.47 590.37,154.38 C 589.39,154.49 588.26,154.63 586.82,154.63 C 584.68,154.63 578.80,154.30 573.26,151.03 C 462.15,156.17 403.43,286.67 403.43,386.40 C 403.43,391.40 403.58,396.35 403.87,401.24 C 421.69,511.78 515.35,602.55 619.46,625.39 L 632.56,627.26 C 632.56,627.26 625.49,676.75 625.44,676.74 C 610.56,674.62 610.56,674.62 609.70,674.43 C 484.63,647.45 374.92,539.74 354.31,407.89 C 354.27,407.67 353.42,400.12 353.42,385.59 C 353.42,249.92 438.68,100.88 580.40,100.88 C 585.35,100.88 589.69,100.88 593.24,101.79 C 593.35,101.76 598.57,100.45 603.52,100.45 Z" transform="translate(4605.47,100.00) scale(0.8000,0.8000)" fill="#000000" />
</svg>
