<?xml version="1.0" encoding="UTF-8" standalone="no"?>
<!--
Representation of "nasin kulupu ante" in sitelen ilo pona
Generated by generate_sitelen_kalama_pona.py

Description:
  Representation of "nasin kulupu ante" in sitelen ilo pona.
  Sources: nasin: https://commons.wikimedia.org/wiki/File:Sitelen_seli_kiwen_-_nasin.svg; kulupu: https://commons.wikimedia.org/wiki/File:Sitelen_seli_kiwen_-_kulupu.svg; ante: https://commons.wikimedia.org/wiki/File:Sitelen_seli_kiwen_-_ante.svg

Categories:
  [[Category:Sitelen kalama pona]]
  [[Category:Toki Pona text containing nasin kulupu ante]]

Sources:
  nasin: https://commons.wikimedia.org/wiki/File:Sitelen_seli_kiwen_-_nasin.svg
  kulupu: https://commons.wikimedia.org/wiki/File:Sitelen_seli_kiwen_-_kulupu.svg
  ante: https://commons.wikimedia.org/wiki/File:Sitelen_seli_kiwen_-_ante.svg
-->
<svg version="1.1" width="2747" height="1000"
     viewBox="0 0 2747 1000"
     xmlns="http://www.w3.org/2000/svg">
  <path d="M428 210Q428 226 424.0 300.5Q420 375 416 375Q412 375 396.0 361.5Q380 348 378 348Q376 348 353.0 334.0Q330 320 328 320Q322 320 320 312Q318 304 308.0 301.0Q298 298 292 304Q285 311 274 314Q260 317 260 329Q260 354 310 380Q328 389 358.0 411.0Q388 433 388 438Q388 440 404 459L422 477L418 552Q412 678 412 679Q412 694 423.0 706.5Q434 719 448 719Q469 719 476 693Q482 677 480 673Q472 664 472 578V562Q473 500 474.5 488.5Q476 477 484 473Q493 470 502 456Q510 445 546.5 412.5Q583 380 612 358Q629 345 634.5 336.0Q640 327 640 310Q640 291 620 291Q597 291 582 308Q570 321 537.0 348.0Q504 375 492 382Q486 385 482 385Q474 385 474 359Q474 342 474 330Q476 306 477.0 248.5Q478 191 484 156Q488 131 488 111Q488 81 472 81Q462 81 462 86Q462 92 446 90Q434 89 430.0 91.0Q426 93 420 102Q412 116 415.5 123.0Q419 130 423.5 161.0Q428 192 428 210Z" transform="translate(0.00,958.33) scale(0.9583,-0.9583)" fill="#000000" />
  <path d="M416 252Q416 226 407.0 204.5Q398 183 390.0 174.5Q382 166 380 166Q377 166 354 144Q332 124 310.5 115.5Q289 107 246 107Q172 107 138 138Q97 175 88.5 188.5Q80 202 80 234Q80 270 82.5 280.0Q85 290 92 296Q99 302 101.0 304.0Q103 306 103.5 307.5Q104 309 106.5 312.0Q109 315 120.5 326.0Q132 337 152 354Q178 379 238 379Q319 379 360 358Q386 344 401.0 315.0Q416 286 416 252ZM346 263Q346 280 338.0 291.0Q330 302 315.0 307.0Q300 312 286.0 313.5Q272 315 252 315Q214 315 189.5 302.0Q165 289 160 278Q155 264 148 264Q142 264 142 255Q142 241 153.5 220.0Q165 199 178 196Q182 195 207.5 185.5Q233 176 252 176Q279 176 295.0 187.5Q311 199 317.5 210.5Q324 222 326 222Q333 222 339.5 235.0Q346 248 346 263ZM820 263Q820 245 817.0 233.0Q814 221 811.0 217.5Q808 214 805.0 211.0Q802 208 802 204Q802 198 794.0 182.0Q786 166 784 166Q781 166 758.0 144.5Q735 123 728 123Q718 123 706.0 117.5Q694 112 694 108Q694 106 676 106Q625 106 598.0 116.0Q571 126 538 153Q527 162 522.0 168.5Q517 175 512.5 194.0Q508 213 508 244Q508 286 520 297Q540 313 540 340Q540 357 561.0 375.5Q582 394 600 394Q629 394 643.5 399.0Q658 404 682 404Q709 404 727.5 399.0Q746 394 760.5 379.5Q775 365 783.0 352.0Q791 339 806 310Q813 297 816 297Q820 297 820 263ZM666 182Q669 182 673.5 181.0Q678 180 680 180Q690 180 702.0 189.0Q714 198 716 198Q721 198 735.5 228.0Q750 258 750 269Q750 273 748 273Q746 273 741.0 285.0Q736 297 728.0 312.5Q720 328 710 335Q706 338 678 338Q653 338 642.0 335.5Q631 333 616 323Q604 316 590 310Q585 309 583.5 303.0Q582 297 582 281Q582 255 578 255Q574 255 574 251Q574 248 578.0 235.5Q582 223 582 217Q582 203 600.0 191.5Q618 180 633.0 176.0Q648 172 652 172Q656 172 659.0 177.0Q662 182 666 182ZM470 732Q500 732 527.0 722.5Q554 713 566.0 705.0Q578 697 578 695Q578 692 585.0 685.0Q592 678 602.0 665.0Q612 652 618 639Q628 617 636 611Q642 605 642 580Q642 520 602 484Q589 473 578.5 466.0Q568 459 563.5 457.0Q559 455 556.0 452.5Q553 450 552 444Q549 433 536 433Q525 433 494.0 431.5Q463 430 456 430Q419 430 398.5 438.0Q378 446 358 467Q338 487 330.0 504.0Q322 521 322 522Q308 538 308 579Q308 597 314 597Q317 597 320.0 603.0Q323 609 329.0 620.0Q335 631 344 640Q355 651 357.0 657.5Q359 664 352 670Q349 674 354 693L360 712L400 717Q430 721 442.0 726.5Q454 732 470 732ZM578 577Q578 607 539.0 641.5Q500 676 438 676Q428 676 428 668Q428 662 416.0 647.5Q404 633 404 626Q404 620 391.0 605.0Q378 590 378 573Q378 546 402 523Q414 510 421.0 507.5Q428 505 450 505Q464 505 474.0 504.0Q484 503 487 502L490 501Q504 501 541.0 528.0Q578 555 578 577Z" transform="translate(942.50,958.33) scale(0.9583,-0.9583)" fill="#000000" />
  <path d="M840 87Q840 73 833.5 66.0Q827 59 819.0 59.0Q811 59 804 59Q781 61 766.5 75.5Q752 90 742 95Q728 102 728 107Q728 114 710.5 123.0Q693 132 667.5 143.0Q642 154 630 162Q629 163 606.0 177.0Q583 191 550.0 207.5Q517 224 500 229Q480 234 459.0 244.5Q438 255 432 255Q412 255 361.0 224.5Q310 194 298 194Q290 194 238.5 163.5Q187 133 178 133Q175 133 160.0 119.0Q145 105 140 105Q134 105 134 100Q134 96 112.5 88.5Q91 81 80 81Q70 81 58.0 92.5Q46 104 46 112Q46 129 83.0 149.5Q120 170 128 170Q131 170 133.0 172.5Q135 175 146.0 182.0Q157 189 178 197Q202 206 221.0 219.0Q240 232 272 243Q315 258 318 263Q326 275 366.0 290.5Q406 306 412 313Q430 329 446 329Q455 329 459.5 327.0Q464 325 470.5 320.5Q477 316 503.0 301.0Q529 286 568 266Q661 219 682 205Q693 198 706.0 194.0Q719 190 732 179Q749 166 756 166Q761 166 776.0 154.0Q791 142 798 142Q812 142 826.0 124.0Q840 106 840 87ZM226 611Q221 611 172.0 636.5Q123 662 116 662Q105 662 92.5 675.5Q80 689 80 699Q80 711 102 717Q124 723 126 723Q139 723 186.5 698.5Q234 674 234 667Q234 662 238 662Q243 662 267.5 650.5Q292 639 296 639Q297 639 309.5 630.0Q322 621 342.0 607.0Q362 593 380 584Q389 579 419.5 550.5Q450 522 462 522Q474 522 478.5 531.5Q483 541 489.5 541.0Q496 541 507.0 547.5Q518 554 522 554Q526 554 559.5 574.0Q593 594 606 598Q619 601 643.5 615.5Q668 630 676 630Q707 630 763.5 668.5Q820 707 834 707Q842 707 847.0 697.5Q852 688 854 679V670Q854 661 844.0 647.5Q834 634 824 634Q814 634 814 631Q814 627 791.0 615.0Q768 603 756 600Q745 598 728.5 585.5Q712 573 702 573Q693 573 681.0 567.5Q669 562 652.5 553.0Q636 544 626 540Q616 535 609.5 530.5Q603 526 601.0 523.0Q599 520 597.0 518.5Q595 517 592 517Q584 517 584 510Q584 506 572.5 499.5Q561 493 543.5 484.0Q526 475 518 469Q491 449 476 449Q459 449 444.5 457.5Q430 466 416.5 477.5Q403 489 396 492Q381 498 351.0 526.5Q321 555 288 571Q271 579 257.0 589.5Q243 600 236.0 605.5Q229 611 226 611Z" transform="translate(1885.00,958.33) scale(0.9583,-0.9583)" fill="#000000" />
</svg>
