<?xml version="1.0" encoding="UTF-8" standalone="no"?>
<!--
Representation of "toki pi toki sin ala" in sitelen ilo pona
Generated by generate_sitelen_kalama_pona.py

Description:
  Representation of "toki pi toki sin ala" in sitelen ilo pona.
  Sources: toki: https://commons.wikimedia.org/wiki/File:Sitelen_seli_kiwen_-_toki.svg; pi: https://commons.wikimedia.org/wiki/File:Sitelen_seli_kiwen_-_pi.svg; toki-sin: https://commons.wikimedia.org/wiki/File:Sitelen_seli_kiwen_-_toki-sin.svg; ala: https://commons.wikimedia.org/wiki/File:Sitelen_seli_kiwen_-_ala.svg

Categories:
  [[Category:Sitelen kalama pona]]
  [[Category:Toki Pona text containing toki pi toki sin ala]]

Sources:
  toki: https://commons.wikimedia.org/wiki/File:Sitelen_seli_kiwen_-_toki.svg
  pi: https://commons.wikimedia.org/wiki/File:Sitelen_seli_kiwen_-_pi.svg
  toki-sin: https://commons.wikimedia.org/wiki/File:Sitelen_seli_kiwen_-_toki-sin.svg
  ala: https://commons.wikimedia.org/wiki/File:Sitelen_seli_kiwen_-_ala.svg
-->
<svg version="1.1" width="3690" height="1000"
     viewBox="0 0 3690 1000"
     xmlns="http://www.w3.org/2000/svg">
  <path d="M222 295Q222 320 228.0 339.0Q234 358 240.0 368.0Q246 378 246 382Q246 395 265.0 421.5Q284 448 300 456Q316 465 325.0 475.0Q334 485 335.5 491.0Q337 497 344.0 502.0Q351 507 366 509Q385 512 401.0 516.5Q417 521 428 521Q445 521 487.0 512.0Q529 503 540 503Q552 503 571.5 496.0Q591 489 608.0 481.5Q625 474 628 473Q640 469 640 463Q640 457 647.0 453.0Q654 449 654.0 445.0Q654 441 660.5 434.5Q667 428 676.0 416.0Q685 404 690 391Q700 367 702 365Q706 361 706 347Q706 339 709.0 330.5Q712 322 713.0 320.0Q714 318 712 314Q709 312 707.0 303.0Q705 294 700.0 278.5Q695 263 686 250Q678 237 671.0 219.5Q664 202 654 192Q647 185 644.5 179.5Q642 174 642.5 171.0Q643 168 639.5 165.0Q636 162 626 158Q608 150 608 146Q608 141 586.5 133.0Q565 125 538.0 117.0Q511 109 504 106Q488 98 458 98Q419 98 389.5 107.0Q360 116 345.5 124.5Q331 133 330 133Q322 133 305.0 142.5Q288 152 286 157Q285 165 278 167Q265 172 249.0 217.5Q233 263 230 265Q222 270 222 295ZM584 428Q581 428 570.5 436.0Q560 444 534.0 452.5Q508 461 468 461Q434 461 405.0 452.5Q376 444 361.0 435.0Q346 426 333.0 411.5Q320 397 317.5 393.0Q315 389 312 384Q308 374 302 374Q297 374 289.5 351.5Q282 329 282 313Q282 289 313.5 236.0Q345 183 378 177Q397 173 402 170Q416 163 460 163Q496 163 511.0 169.0Q526 175 528 175Q533 175 548.0 180.5Q563 186 588.0 205.5Q613 225 626 254Q643 288 645.5 296.5Q648 305 648 318Q648 349 638 370Q633 383 611.5 405.5Q590 428 584 428ZM144 612Q144 622 151.5 632.5Q159 643 172 643Q181 643 202.5 624.5Q224 606 227.5 606.0Q231 606 235.0 599.0Q239 592 244 592Q249 592 258.5 579.0Q268 566 268 555Q268 545 259.5 539.5Q251 534 243 533L234 532Q226 532 207.5 550.5Q189 569 182 569Q175 569 170.5 576.0Q166 583 162 583Q144 595 144 612ZM622 636Q645 645 677.0 671.5Q709 698 726 698Q740 698 748.0 689.5Q756 681 756 667Q756 654 752.0 648.5Q748 643 734 636Q722 629 700.0 615.0Q678 601 661.5 591.5Q645 582 638 580Q629 577 623.5 573.0Q618 569 608 569Q580 569 580 589Q580 601 592.0 615.0Q604 629 622 636ZM400 600Q400 601 403.0 615.0Q406 629 409.0 652.0Q412 675 412 697Q412 706 410 712Q405 729 429 742Q447 751 448 740Q448 734 458 730Q464 729 465.0 725.0Q466 721 466 708Q466 673 461.0 651.5Q456 630 456 608Q456 595 444.0 583.0Q432 571 420 571Q410 571 405.0 580.0Q400 589 400 600Z" transform="translate(0.00,958.33) scale(0.9583,-0.9583)" fill="#000000" />
  <path d="M178 600Q178 613 172.0 629.5Q166 646 166 651Q166 660 178 675Q187 686 191.5 688.0Q196 690 206 688Q221 685 228.5 675.5Q236 666 237.0 657.5Q238 649 238 634V602Q238 561 244.0 524.5Q250 488 250 466Q250 451 248.0 418.5Q246 386 246 369Q246 369 246.0 367.0Q246 365 246.5 361.5Q247 358 247.5 353.0Q248 348 248.0 339.5Q248 331 248.5 321.0Q249 311 249.5 296.5Q250 282 250 266Q250 179 252 177Q260 168 392 168Q392 168 438.0 168.0Q484 168 532.0 168.5Q580 169 584 169Q698 169 704 167Q710 164 716 164Q722 163 728.0 144.5Q734 126 734 111Q734 109 733.0 103.5Q732 98 727.5 90.5Q723 83 716 83Q714 83 683.5 92.5Q653 102 624 102Q612 102 594.0 100.0Q576 98 562 98Q562 98 558.5 98.5Q555 99 548.0 99.5Q541 100 532.0 100.5Q523 101 510.5 101.5Q498 102 486 102Q485 102 480.5 102.0Q476 102 469.0 101.5Q462 101 454.5 100.5Q447 100 439.5 100.0Q432 100 428 100Q344 100 230 92L190 90L184 104Q180 114 180 131Q180 157 185.0 176.5Q190 196 190 218Q190 218 190.0 225.0Q190 232 190.0 242.5Q190 253 189.5 264.5Q189 276 188.5 287.0Q188 298 188 304Q188 326 190.0 374.0Q192 422 192 441Q192 517 178 540Q176 543 177.0 544.0Q178 545 180.0 545.5Q182 546 182.5 549.5Q183 553 180 562Q176 571 176 578Q176 581 177.0 588.5Q178 596 178 600Z" transform="translate(942.50,958.33) scale(0.9583,-0.9583)" fill="#000000" />
  <path d="M292 259Q283 265 283 284Q283 301 295.0 312.5Q307 324 336 324Q356 324 369.5 316.5Q383 309 387.0 302.5Q391 296 391 290Q391 288 390 288Q386 288 382 277Q377 266 353.5 264.5Q330 263 326.0 259.0Q322 255 310.0 255.0Q298 255 292 259ZM529 272Q516 272 510.5 266.5Q505 261 499 261Q487 261 475.5 272.5Q464 284 464 298Q464 317 481.5 324.0Q499 331 547 334H548Q559 334 579.5 313.0Q600 292 600 280Q600 274 593.0 270.0Q586 266 586 261Q586 257 583 257Q583 257 565.0 264.5Q547 272 529 272ZM392 343Q392 349 394.0 361.5Q396 374 396 380Q396 386 394 389Q390 395 394 407Q397 416 400.5 417.0Q404 418 416 416Q432 413 437.5 409.0Q443 405 443 396Q443 393 442.5 388.0Q442 383 442 378Q442 361 446.5 343.5Q451 326 451 322Q451 315 444 309Q436 302 427.0 302.0Q418 302 405.0 313.5Q392 325 392 343ZM178 309Q178 331 186.5 364.5Q195 398 195 399Q195 400 194 400Q193 400 200.5 415.5Q208 431 218.5 448.5Q229 466 233 471Q238 477 264.5 485.0Q291 493 304 505Q318 518 339 518Q366 518 371.5 519.5Q377 521 380 527Q384 534 400 534Q425 534 444.0 531.0Q463 528 472.0 525.0Q481 522 483 522Q492 522 513.0 512.5Q534 503 538 503Q548 503 576.0 484.5Q604 466 620 450Q636 433 648.5 411.5Q661 390 661 380Q661 379 665.5 369.0Q670 359 674.5 335.0Q679 311 679 276Q679 255 671.5 233.0Q664 211 656.5 199.0Q649 187 647 185Q638 180 638 172Q638 169 616.5 152.0Q595 135 595 128Q595 123 589 123Q582 123 579 116Q575 104 532.0 91.5Q489 79 457 79Q450 79 431.5 82.5Q413 86 387 88Q277 95 242 130Q238 136 227.5 148.5Q217 161 209.5 170.5Q202 180 202 184Q202 187 187.0 218.5Q172 250 172 266Q172 267 175.0 277.0Q178 287 178 309ZM562 428 545 439Q528 450 490.5 461.5Q453 473 402 473Q377 473 370.5 462.5Q364 452 344 452Q339 452 331.5 452.5Q324 453 320 453Q300 453 285.0 440.5Q270 428 263 426Q253 423 241.5 403.5Q230 384 230 369Q230 356 226.5 337.5Q223 319 223 307Q223 242 253 207Q260 200 268 188Q276 177 319 157Q324 155 358.5 152.5Q393 150 399 147Q404 144 419 144Q439 144 493 150Q513 152 540.0 164.5Q567 177 567 184Q567 189 574.0 189.0Q581 189 581 196Q581 201 597.5 220.0Q614 239 614 245Q614 249 616.0 252.5Q618 256 620.0 270.0Q622 284 622 313Q622 344 613.0 356.5Q604 369 603 373Q600 390 586.0 409.0Q572 428 562 428ZM647 540Q647 539 641.5 535.5Q636 532 628.0 528.5Q620 525 614 525Q602 525 602 536Q602 545 612.5 559.5Q623 574 625 583Q625 586 637.0 605.0Q649 624 676.5 645.0Q704 666 735 666Q740 666 747.0 653.5Q754 641 754 631Q754 620 726.5 605.5Q699 591 695 586Q689 578 684 578Q680 578 663.5 561.0Q647 544 647 540ZM146 628Q146 663 175 663Q196 663 233.0 634.5Q270 606 273 606Q286 606 294.0 592.5Q302 579 302 565Q302 558 299 556Q296 553 285 553Q258 553 258 560Q258 563 233.0 575.5Q208 588 201 588Q198 588 176.0 602.0Q154 616 150.0 616.0Q146 616 146 628ZM458 693Q458 675 446.0 639.0Q434 603 412 603Q404 603 397.5 608.5Q391 614 393 618Q399 628 402.5 682.5Q406 737 414 746Q427 761 441 750Q457 737 457 727Q457 724 455.0 717.5Q453 711 452.5 708.0Q452 705 455 702Q458 700 458 693Z" transform="translate(1885.00,958.33) scale(0.9583,-0.9583)" fill="#000000" />
  <path d="M211 109Q170 109 170 144Q170 152 181.0 166.5Q192 181 202.0 191.5Q212 202 214 203Q224 207 255.5 238.5Q287 270 290 280Q292 288 300 288Q306 288 336.5 318.5Q367 349 367 355Q367 359 388.0 381.0Q409 403 409.0 407.0Q409 411 392.5 430.0Q376 449 376.0 451.0Q376 453 363.5 468.0Q351 483 336.5 501.0Q322 519 319 525Q314 536 310 536Q307 536 291.0 559.5Q275 583 272 583Q266 583 246.5 607.0Q227 631 227 638Q227 667 250 667Q268 667 291.0 650.0Q314 633 325 611Q331 599 346.0 583.5Q361 568 365 559Q373 543 395.5 518.0Q418 493 423 483Q442 450 456 450Q468 450 490 479Q501 493 553.5 550.5Q606 608 611 615Q617 621 672 661Q682 668 693 668Q708 668 719.0 655.5Q730 643 730.0 627.0Q730 611 720 611Q715 611 702.0 599.5Q689 588 686 588Q685 588 673.0 579.0Q661 570 642.5 551.5Q624 533 612 515Q602 500 575.0 473.0Q548 446 528.0 423.0Q508 400 508 388Q508 378 522.0 362.5Q536 347 536.0 345.0Q536 343 554.5 317.5Q573 292 573 291Q573 289 581.0 280.5Q589 272 600.0 259.0Q611 246 617 235Q625 219 665.0 183.5Q705 148 709 141Q718 127 711 114Q701 93 681 93Q662 93 650.0 105.0Q638 117 631.0 130.5Q624 144 619 146Q616 148 616 152Q616 155 606.0 166.5Q596 178 579.5 197.5Q563 217 552 234Q542 249 520.5 276.0Q499 303 481.5 323.5Q464 344 462.0 344.0Q460 344 445.0 329.5Q430 315 424 313Q419 311 397.0 286.5Q375 262 365.0 255.0Q355 248 334.5 224.5Q314 201 303 194Q291 187 280.5 168.5Q270 150 264 148Q260 147 247.0 128.0Q234 109 211 109Z" transform="translate(2827.50,958.33) scale(0.9583,-0.9583)" fill="#000000" />
</svg>
