<?xml version="1.0" encoding="UTF-8" standalone="no"?>
<!--
Representation of "kulupu:toki tawa kulupu" in sitelen ilo pona
Generated by generate_sitelen_kalama_pona.py

Description:
  Representation of "kulupu:toki tawa kulupu" in sitelen ilo pona.
  Sources: tawa: https://commons.wikimedia.org/wiki/File:Sitelen_seli_kiwen_-_tawa.svg; kulupu: https://commons.wikimedia.org/wiki/File:Sitelen_seli_kiwen_-_kulupu.svg

Categories:
  [[Category:Sitelen kalama pona]]
  [[Category:Toki Pona text containing kulupu:toki tawa kulupu]]

Sources:
  tawa: https://commons.wikimedia.org/wiki/File:Sitelen_seli_kiwen_-_tawa.svg
  kulupu: https://commons.wikimedia.org/wiki/File:Sitelen_seli_kiwen_-_kulupu.svg
-->
<svg version="1.1" width="1805" height="1000"
     viewBox="0 0 1805 1000"
     xmlns="http://www.w3.org/2000/svg">
  <path d="M284 89Q284 88 283.5 84.0Q283 80 281.5 73.0Q280 66 277.0 59.5Q274 53 268.0 48.5Q262 44 254 44Q242 44 203.0 55.5Q164 67 159 67Q155 67 150.0 71.0Q145 75 130.0 85.0Q115 95 93 106Q38 134 38 155Q38 164 52.0 173.5Q66 183 69 199Q71 213 84.5 223.0Q98 233 103 243Q108 254 120.5 269.0Q133 284 154 327Q159 338 171.5 353.5Q184 369 188 384Q194 405 197 405Q201 405 206.0 417.5Q211 430 211 438Q211 447 216 447Q218 447 220.0 451.5Q222 456 225.5 464.5Q229 473 235 480Q242 488 268.0 530.5Q294 573 299 578Q316 596 333.0 625.5Q350 655 355 673Q358 686 370.5 695.0Q383 704 393.5 708.5Q404 713 404 715Q404 719 414.0 730.5Q424 742 432 742Q436 742 450 735Q462 729 465.0 720.5Q468 712 472.0 686.5Q476 661 486 632L504 578Q511 555 550.0 480.0Q589 405 594 381Q597 366 610.5 337.0Q624 308 624 302Q624 298 633.5 281.5Q643 265 643 260Q643 256 657.5 224.0Q672 192 674 177Q679 145 699 143Q712 143 765 138Q820 133 832.0 130.5Q844 128 844 121Q844 116 853.0 116.0Q862 116 862 91Q862 82 858.0 74.0Q854 66 854 61Q854 50 818 50Q795 50 781.0 57.0Q767 64 735 64Q700 64 679.0 59.5Q658 55 657 55Q641 55 628.0 68.0Q615 81 615 97Q615 103 616.0 109.0Q617 115 617 121Q617 133 612.0 143.0Q607 153 607 160Q607 168 591.5 210.5Q576 253 571 259Q562 270 557.0 292.5Q552 315 539 340Q538 343 537.5 345.5Q537 348 537.0 350.0Q537 352 537.5 353.5Q538 355 538.0 356.5Q538 358 536.5 359.0Q535 360 533 361Q526 363 526 372Q526 389 512.0 425.0Q498 461 487.0 474.0Q476 487 462.0 514.0Q448 541 444 557Q441 571 428.0 600.5Q415 630 412 630Q410 630 403.0 616.0Q396 602 393 602Q392 602 376.5 579.0Q361 556 361 555Q361 551 344 534Q330 519 313.0 493.5Q296 468 286.5 449.0Q277 430 277.0 427.0Q277 424 267.5 410.5Q258 397 258 390Q258 381 254 381Q249 381 249 374Q249 369 237.5 348.5Q226 328 224 321Q221 311 216.0 311.0Q211 311 211 306Q211 303 208.5 299.0Q206 295 201.0 285.5Q196 276 191 263Q184 245 161.5 220.5Q139 196 139 183Q139 173 147.5 162.5Q156 152 164 152Q171 152 194.0 142.5Q217 133 219 133Q226 133 249.0 124.5Q272 116 272 113Q272 108 278.0 102.5Q284 97 284 89Z" transform="translate(0.00,958.33) scale(0.9583,-0.9583)" fill="#000000" />
  <path d="M416 252Q416 226 407.0 204.5Q398 183 390.0 174.5Q382 166 380 166Q377 166 354 144Q332 124 310.5 115.5Q289 107 246 107Q172 107 138 138Q97 175 88.5 188.5Q80 202 80 234Q80 270 82.5 280.0Q85 290 92 296Q99 302 101.0 304.0Q103 306 103.5 307.5Q104 309 106.5 312.0Q109 315 120.5 326.0Q132 337 152 354Q178 379 238 379Q319 379 360 358Q386 344 401.0 315.0Q416 286 416 252ZM346 263Q346 280 338.0 291.0Q330 302 315.0 307.0Q300 312 286.0 313.5Q272 315 252 315Q214 315 189.5 302.0Q165 289 160 278Q155 264 148 264Q142 264 142 255Q142 241 153.5 220.0Q165 199 178 196Q182 195 207.5 185.5Q233 176 252 176Q279 176 295.0 187.5Q311 199 317.5 210.5Q324 222 326 222Q333 222 339.5 235.0Q346 248 346 263ZM820 263Q820 245 817.0 233.0Q814 221 811.0 217.5Q808 214 805.0 211.0Q802 208 802 204Q802 198 794.0 182.0Q786 166 784 166Q781 166 758.0 144.5Q735 123 728 123Q718 123 706.0 117.5Q694 112 694 108Q694 106 676 106Q625 106 598.0 116.0Q571 126 538 153Q527 162 522.0 168.5Q517 175 512.5 194.0Q508 213 508 244Q508 286 520 297Q540 313 540 340Q540 357 561.0 375.5Q582 394 600 394Q629 394 643.5 399.0Q658 404 682 404Q709 404 727.5 399.0Q746 394 760.5 379.5Q775 365 783.0 352.0Q791 339 806 310Q813 297 816 297Q820 297 820 263ZM666 182Q669 182 673.5 181.0Q678 180 680 180Q690 180 702.0 189.0Q714 198 716 198Q721 198 735.5 228.0Q750 258 750 269Q750 273 748 273Q746 273 741.0 285.0Q736 297 728.0 312.5Q720 328 710 335Q706 338 678 338Q653 338 642.0 335.5Q631 333 616 323Q604 316 590 310Q585 309 583.5 303.0Q582 297 582 281Q582 255 578 255Q574 255 574 251Q574 248 578.0 235.5Q582 223 582 217Q582 203 600.0 191.5Q618 180 633.0 176.0Q648 172 652 172Q656 172 659.0 177.0Q662 182 666 182ZM470 732Q500 732 527.0 722.5Q554 713 566.0 705.0Q578 697 578 695Q578 692 585.0 685.0Q592 678 602.0 665.0Q612 652 618 639Q628 617 636 611Q642 605 642 580Q642 520 602 484Q589 473 578.5 466.0Q568 459 563.5 457.0Q559 455 556.0 452.5Q553 450 552 444Q549 433 536 433Q525 433 494.0 431.5Q463 430 456 430Q419 430 398.5 438.0Q378 446 358 467Q338 487 330.0 504.0Q322 521 322 522Q308 538 308 579Q308 597 314 597Q317 597 320.0 603.0Q323 609 329.0 620.0Q335 631 344 640Q355 651 357.0 657.5Q359 664 352 670Q349 674 354 693L360 712L400 717Q430 721 442.0 726.5Q454 732 470 732ZM578 577Q578 607 539.0 641.5Q500 676 438 676Q428 676 428 668Q428 662 416.0 647.5Q404 633 404 626Q404 620 391.0 605.0Q378 590 378 573Q378 546 402 523Q414 510 421.0 507.5Q428 505 450 505Q464 505 474.0 504.0Q484 503 487 502L490 501Q504 501 541.0 528.0Q578 555 578 577Z" transform="translate(942.50,958.33) scale(0.9583,-0.9583)" fill="#000000" />
</svg>
