<?xml version="1.0" encoding="UTF-8" standalone="no"?>
<!--
Representation of "pilin pi ijo poka" in sitelen ilo pona
Generated by generate_sitelen_kalama_pona.py

Description:
  Representation of "pilin pi ijo poka" in sitelen ilo pona.
  Sources: pilin: https://commons.wikimedia.org/wiki/File:Sitelen_seli_kiwen_-_pilin.svg; pi: https://commons.wikimedia.org/wiki/File:Sitelen_seli_kiwen_-_pi.svg; ijo-poka: https://commons.wikimedia.org/wiki/File:Sitelen_seli_kiwen_-_ijo-poka.svg

Categories:
  [[Category:Sitelen kalama pona]]
  [[Category:Toki Pona text containing pilin pi ijo poka]]

Sources:
  pilin: https://commons.wikimedia.org/wiki/File:Sitelen_seli_kiwen_-_pilin.svg
  pi: https://commons.wikimedia.org/wiki/File:Sitelen_seli_kiwen_-_pi.svg
  ijo-poka: https://commons.wikimedia.org/wiki/File:Sitelen_seli_kiwen_-_ijo-poka.svg
-->
<svg version="1.1" width="2747" height="1000"
     viewBox="0 0 2747 1000"
     xmlns="http://www.w3.org/2000/svg">
  <path d="M656 705Q694 705 721.5 699.0Q749 693 760.5 687.0Q772 681 772 681Q779 681 793.5 666.5Q808 652 808 646Q808 642 817.0 634.0Q826 626 826.0 621.5Q826 617 832.0 609.5Q838 602 843.0 587.0Q848 572 848 550Q848 526 842.0 506.0Q836 486 829.0 474.5Q822 463 822 458Q822 450 797.0 414.0Q772 378 756 364Q738 347 738 341Q738 334 732 334Q726 334 719.0 322.5Q712 311 710 311Q708 311 630.5 251.0Q553 191 548 185Q543 177 524.5 159.5Q506 142 502 142Q496 142 476.0 118.5Q456 95 456 87Q456 80 453.0 78.5Q450 77 436 77Q420 77 408.0 85.0Q396 93 396 103Q396 110 379.5 127.0Q363 144 350 150Q333 159 300.0 193.5Q267 228 254 232Q245 236 237.0 245.5Q229 255 224.5 255.0Q220 255 207.0 270.0Q194 285 182 290Q174 294 166.0 303.0Q158 312 143.0 329.0Q128 346 112 361Q102 372 90.5 386.5Q79 401 65.5 435.5Q52 470 52 507Q52 526 61.5 559.0Q71 592 82 606Q112 642 137.0 660.5Q162 679 176.5 685.0Q191 691 196 698Q204 709 230 709Q254 709 280.0 702.0Q306 695 312 686Q312 685 332.0 673.5Q352 662 377.5 639.0Q403 616 418 586L428 568L472 611Q502 641 535.5 663.0Q569 685 584 687Q592 687 592 691Q592 692 596.5 695.0Q601 698 616.5 701.5Q632 705 656 705ZM248 644Q231 644 216.0 634.5Q201 625 198 625Q193 625 178.5 610.5Q164 596 126 553Q112 536 112 511Q112 488 123.0 461.5Q134 435 146.0 416.5Q158 398 158 398Q160 392 165.5 387.5Q171 383 188.0 368.5Q205 354 224 334Q256 302 265.5 293.0Q275 284 302 264Q336 238 340 234Q346 227 352.0 227.0Q358 227 358 222Q358 219 365.5 213.5Q373 208 385.5 198.5Q398 189 406 182Q420 170 430 170Q446 170 509.5 229.0Q573 288 576 288Q584 288 584 291Q584 295 616.5 321.5Q649 348 652 348Q660 348 706.0 397.0Q752 446 752 454Q752 458 766.0 475.0Q780 492 780 498Q780 504 783.0 509.0Q786 514 786 525Q786 553 778.0 577.0Q770 601 760 604Q756 606 750.5 615.5Q745 625 728 630Q687 641 678 641Q674 641 666.5 640.5Q659 640 656 640Q650 640 648.0 642.0Q646 644 644 644Q637 644 612.5 634.5Q588 625 582 625Q575 625 562.5 615.0Q550 605 550 599Q550 591 544 589Q534 586 493.0 546.0Q452 506 452 489Q452 488 453.0 487.0Q454 486 454 484Q454 475 448.5 463.0Q443 451 430 451Q389 451 376 507Q373 522 368.5 534.0Q364 546 361.0 552.5Q358 559 358 562Q358 566 349.0 575.5Q340 585 338 594Q335 603 310.0 621.0Q285 639 274 639Q268 639 259.5 641.5Q251 644 248 644Z" transform="translate(0.00,958.33) scale(0.9583,-0.9583)" fill="#000000" />
  <path d="M178 600Q178 613 172.0 629.5Q166 646 166 651Q166 660 178 675Q187 686 191.5 688.0Q196 690 206 688Q221 685 228.5 675.5Q236 666 237.0 657.5Q238 649 238 634V602Q238 561 244.0 524.5Q250 488 250 466Q250 451 248.0 418.5Q246 386 246 369Q246 369 246.0 367.0Q246 365 246.5 361.5Q247 358 247.5 353.0Q248 348 248.0 339.5Q248 331 248.5 321.0Q249 311 249.5 296.5Q250 282 250 266Q250 179 252 177Q260 168 392 168Q392 168 438.0 168.0Q484 168 532.0 168.5Q580 169 584 169Q698 169 704 167Q710 164 716 164Q722 163 728.0 144.5Q734 126 734 111Q734 109 733.0 103.5Q732 98 727.5 90.5Q723 83 716 83Q714 83 683.5 92.5Q653 102 624 102Q612 102 594.0 100.0Q576 98 562 98Q562 98 558.5 98.5Q555 99 548.0 99.5Q541 100 532.0 100.5Q523 101 510.5 101.5Q498 102 486 102Q485 102 480.5 102.0Q476 102 469.0 101.5Q462 101 454.5 100.5Q447 100 439.5 100.0Q432 100 428 100Q344 100 230 92L190 90L184 104Q180 114 180 131Q180 157 185.0 176.5Q190 196 190 218Q190 218 190.0 225.0Q190 232 190.0 242.5Q190 253 189.5 264.5Q189 276 188.5 287.0Q188 298 188 304Q188 326 190.0 374.0Q192 422 192 441Q192 517 178 540Q176 543 177.0 544.0Q178 545 180.0 545.5Q182 546 182.5 549.5Q183 553 180 562Q176 571 176 578Q176 581 177.0 588.5Q178 596 178 600Z" transform="translate(942.50,958.33) scale(0.9583,-0.9583)" fill="#000000" />
  <path d="M581 401Q581 406 591.0 416.5Q601 427 611 427Q623 427 639 414Q650 404 653.0 398.0Q656 392 656 378Q656 369 654.0 358.5Q652 348 643.5 337.0Q635 326 621 326Q619 326 615.0 326.5Q611 327 602.0 329.5Q593 332 586.0 336.5Q579 341 573.5 350.5Q568 360 568 373Q568 384 574.5 391.0Q581 398 581 401ZM324 409V386Q324 369 331.0 364.0Q338 359 367 353Q382 350 390 350Q397 350 401.5 353.0Q406 356 409 356Q412 356 417 355Q420 354 424 354Q429 354 431.0 366.5Q433 379 436.0 399.5Q439 420 446 433Q456 452 452 452Q450 452 454.0 457.5Q458 463 464.0 468.5Q470 474 473.0 474.0Q476 474 483.0 471.0Q490 468 499.0 457.0Q508 446 508 430Q508 426 506.0 401.5Q504 377 504 363Q504 340 511.0 333.0Q518 326 518 314Q518 274 482 274Q477 274 464.5 279.5Q452 285 421 286Q395 287 358.0 288.5Q321 290 303.0 291.0Q285 292 283 292Q265 294 265 367Q265 411 269.0 432.5Q273 454 277.5 457.0Q282 460 291 460Q324 460 324 409ZM671 133Q665 133 651.5 123.5Q638 114 634 114Q628 114 628 109Q628 103 614.0 97.5Q600 92 588 92Q566 92 565 90Q564 86 547 86Q538 86 501.0 79.0Q464 72 435 71Q401 71 396 66Q395 65 394.0 65.0Q393 65 389.0 67.5Q385 70 375.5 74.0Q366 78 351 81Q330 85 314.0 91.0Q298 97 285.0 100.0Q272 103 253.0 113.5Q234 124 220.0 133.0Q206 142 203.0 142.0Q200 142 198.5 146.5Q197 151 190.5 161.5Q184 172 172 183Q159 194 153.0 204.5Q147 215 145.0 221.5Q143 228 141 229Q139 231 135.0 239.5Q131 248 124.5 275.0Q118 302 116 338Q114 367 111.0 370.0Q108 373 108.0 385.5Q108 398 111 401Q113 403 117.5 433.5Q122 464 129.5 493.0Q137 522 145 522Q147 522 152.5 532.0Q158 542 173.5 564.0Q189 586 210 609Q248 649 257.0 661.0Q266 673 284.5 682.0Q303 691 312 698Q326 710 338 706Q348 703 357 703Q373 703 419.5 708.5Q466 714 470 718Q472 720 477 720Q493 720 554.5 700.0Q616 680 624 678Q634 676 656.5 661.0Q679 646 696.0 631.0Q713 616 734.0 588.5Q755 561 755 554Q755 549 761.0 541.0Q767 533 775.5 512.0Q784 491 788 456Q792 417 792 404Q792 333 782.0 284.5Q772 236 759.5 218.5Q747 201 737.0 190.0Q727 179 727 175Q727 173 721.0 170.0Q715 167 705.5 161.5Q696 156 690 147Q680 133 671 133ZM629 597Q623 597 613.0 606.5Q603 616 598 616Q594 616 586.5 623.0Q579 630 569 627Q558 624 554 628Q549 635 516.5 644.0Q484 653 459 653Q452 653 451 652Q449 648 387 639Q364 636 336.0 627.5Q308 619 305 618Q294 616 269.0 592.0Q244 568 235 551Q229 540 223.0 532.5Q217 525 214.0 522.0Q211 519 211.0 515.0Q211 511 199.5 495.0Q188 479 188 473Q188 471 178.0 454.0Q168 437 168 409Q168 312 187 275Q188 273 190.0 269.0Q192 265 195.0 258.5Q198 252 200 249Q207 235 240.5 202.5Q274 170 281 170L293 163Q305 156 338.0 148.5Q371 141 422 141Q479 141 531.5 150.5Q584 160 591 168Q596 175 600.0 175.0Q604 175 661 215Q674 224 698 254Q717 278 721.0 293.5Q725 309 729 381Q729 384 729.5 389.0Q730 394 730 397Q730 453 715 491Q703 520 672.0 558.5Q641 597 629 597Z" transform="translate(1885.00,958.33) scale(0.9583,-0.9583)" fill="#000000" />
</svg>
