<?xml version="1.0" encoding="UTF-8" standalone="no"?>
<!--
Representation of "ma tomo Nala" in sitelen kalama pona
Generated by generate_sitelen_kalama_pona.py

Description:
  Representation of "ma tomo Nala" in sitelen kalama pona.
  Sources: ma-tomo: https://commons.wikimedia.org/wiki/File:Sitelen_seli_kiwen_-_ma-tomo.svg; na: https://commons.wikimedia.org/wiki/File:Sitelen_kalama_pona_-_na.svg; la: https://commons.wikimedia.org/wiki/File:Sitelen_kalama_pona_-_la.svg

Categories:
  [[Category:Sitelen kalama pona]]
  [[Category:Toki Pona text containing ma tomo]]
  [[Category:Toki Pona text containing sound symbol Na]]
  [[Category:Toki Pona text containing sound symbol La]]

Sources:
  ma-tomo: https://commons.wikimedia.org/wiki/File:Sitelen_seli_kiwen_-_ma-tomo.svg
  na: https://commons.wikimedia.org/wiki/File:Sitelen_kalama_pona_-_na.svg
  la: https://commons.wikimedia.org/wiki/File:Sitelen_kalama_pona_-_la.svg
-->
<svg version="1.1" width="4163" height="1000"
     viewBox="0 0 4163 1000"
     xmlns="http://www.w3.org/2000/svg">
  <path d="M192 198Q192 228 198.0 244.0Q204 260 204 262Q204 287 230.5 313.0Q257 339 266 339Q273 339 284.0 348.5Q295 358 296 358Q298 358 312.0 363.5Q326 369 348.0 375.0Q370 381 390 383Q416 385 429.0 390.0Q442 395 450 395Q458 395 464.0 390.5Q470 386 487 386Q493 386 502 387Q505 387 510.5 387.5Q516 388 518 388Q539 388 559.5 380.0Q580 372 588 372Q601 372 637.0 344.5Q673 317 688 295Q694 286 701.0 255.0Q708 224 708 206Q708 199 705.0 194.5Q702 190 702 181Q702 168 694.5 156.5Q687 145 666 124Q625 81 620 81Q616 81 608 74Q601 68 566.5 58.5Q532 49 516 49Q503 49 500.0 44.0Q497 39 480 39Q335 39 268 72Q233 89 222.5 100.5Q212 112 206 139Q204 154 201.0 163.5Q198 173 196.0 175.5Q194 178 193.0 183.5Q192 189 192 198ZM588 302Q587 302 577.0 307.0Q567 312 550.0 316.5Q533 321 516 321Q502 321 495.0 315.5Q488 310 487.0 305.0Q486 300 486 290Q486 270 492.0 266.0Q498 262 522 262Q526 262 539.0 262.5Q552 263 573.5 264.0Q595 265 610.5 268.5Q626 272 626 276Q626 283 620 283Q615 283 604.5 292.5Q594 302 588 302ZM310 288Q306 288 302.0 278.5Q298 269 290 269Q281 269 276.5 261.5Q272 254 278 250Q280 249 296 249Q321 249 359.5 252.5Q398 256 406 260Q420 267 420 284Q420 300 414 305Q405 313 370 313Q350 313 339.0 310.5Q328 308 325.0 306.0Q322 304 320 299Q315 288 310 288ZM560 193H544Q500 193 496 190Q488 186 488 156Q488 131 493.5 123.0Q499 115 513 115Q518 115 530 116Q551 118 565.5 126.5Q580 135 590.0 144.5Q600 154 606 157Q610 159 621.0 173.0Q632 187 632 190Q632 192 615.0 194.5Q598 197 596 195Q594 193 560 193ZM418 188Q397 185 357.5 182.0Q318 179 291.0 177.0Q264 175 264 175Q262 173 270 156Q275 145 282.0 140.5Q289 136 308 129Q328 122 351.0 119.0Q374 116 388.5 115.0Q403 114 404 112Q408 109 410 109Q414 109 421.0 135.0Q428 161 428 174Q428 181 424.5 184.5Q421 188 418 188ZM332 728Q335 728 361.0 754.0Q387 780 398 780Q406 780 415.5 774.0Q425 768 426 763Q426 760 434.0 752.5Q442 745 453.5 736.5Q465 728 476.5 719.5Q488 711 496.0 705.5Q504 700 504 700Q509 695 541.0 672.5Q573 650 582 647Q592 644 604 629Q615 614 615.5 572.5Q616 531 619.0 526.0Q622 521 622 509Q622 501 632.5 492.5Q643 484 652 484Q655 484 660.5 477.0Q666 470 666 461Q666 438 642 430Q634 427 620.0 419.5Q606 412 596 412Q583 412 566 423Q554 430 484 430Q433 430 361.5 425.0Q290 420 270 420Q253 420 243.5 430.5Q234 441 232.0 448.0Q230 455 230 459Q230 459 231.0 464.5Q232 470 233.5 479.0Q235 488 236.5 498.5Q238 509 239.0 520.5Q240 532 240 541Q240 558 232.0 579.5Q224 601 224 605Q224 614 242.0 636.0Q260 658 270 662Q284 667 284 674Q284 677 286.0 679.5Q288 682 291.5 684.0Q295 686 301.5 692.5Q308 699 314 709Q328 728 332 728ZM436 672Q432 672 425.0 680.0Q418 688 406 688Q399 688 395.0 686.5Q391 685 379.5 676.0Q368 667 352 649Q321 614 315.5 607.5Q310 601 310 595Q306 577 302 524L300 497L316 494Q326 492 340 492Q353 492 448.0 495.0Q543 498 546 500Q550 503 550 522Q550 574 536 595Q529 607 494.5 630.0Q460 653 454 660Q443 672 436 672Z" transform="translate(0.00,958.33) scale(0.9583,-0.9583)" fill="#000000" />
  <path d="M 24.637998,12.488337 H 20.72216 q -1.48166,0 -2.54,-1.058333 -1.05833,-1.058333 -1.05833,-2.54 V 3.598338 q 0,-1.481667 1.05833,-2.54 Q 19.2405,4e-6 20.72216,4e-6 h 3.915838 V 0.846671 H 20.72216 q -1.13241,0 -1.94733,0.814917 -0.80433,0.804333 -0.80433,1.93675 v 5.291666 q 0,1.132417 0.80433,1.93675 0.81492,0.814917 1.94733,0.814917 h 3.915838 z" transform="translate(-428.69,0.00) scale(80.0747,80.0747)" fill="#000000" />
  <path d="M 75.014662,0.846671 V 4e-6 h 13.123333 v 0.846667 z m 0,11.641666 v -0.846666 h 13.123333 v 0.846666 z" transform="translate(-4462.58,0.00) scale(80.0747,80.0747)" fill="#000000" />
  <path d="M 75.014662,0.846671 V 4e-6 h 13.123333 v 0.846667 z m 0,11.641666 v -0.846666 h 13.123333 v 0.846666 z" transform="translate(-3411.74,0.00) scale(80.0747,80.0747)" fill="#000000" />
  <path d="m 87.714667,4e-6 h 2.8575 q 1.481666,0 2.54,1.058334 1.058333,1.058333 1.058333,2.54 v 5.291666 q 0,1.481667 -1.058333,2.54 -1.058334,1.058333 -2.54,1.058333 h -2.8575 v -0.846666 h 2.8575 q 1.132416,0 1.93675,-0.814917 0.814916,-0.804333 0.814916,-1.93675 V 3.598338 q 0,-1.132417 -0.814916,-1.93675 -0.804334,-0.814917 -1.93675,-0.814917 h -2.8575 z" transform="translate(-3377.84,0.00) scale(80.0747,80.0747)" fill="#000000" />
  <path d="M 108.86,305.66 C 108.86,140.71 217.05,29.02 382.26,29.02 C 406.69,29.02 432.26,31.46 458.75,36.48 C 466.58,34.95 474.37,34.15 481.97,34.15 C 504.36,34.15 525.15,41.06 540.69,56.60 C 556.29,72.20 564.00,93.97 564.00,117.76 C 564.00,198.00 564.00,198.00 564.00,198.00 L 514.00,198.00 L 514.00,118.13 C 513.84,103.00 509.17,84.05 482.21,84.05 C 470.85,84.05 465.10,87.00 459.00,87.00 C 452.60,87.00 423.64,78.92 381.75,78.92 C 312.70,78.92 258.11,101.70 220.49,139.32 C 181.81,178.00 158.76,234.92 158.76,305.48 C 158.76,363.36 173.81,405.43 173.99,413.43 C 174.23,423.87 174.31,434.33 174.31,444.78 C 174.31,445.67 173.61,532.64 173.61,533.63 C 173.61,585.78 176.00,603.58 176.00,608.00 L 176.00,614.00 C 176.00,615.62 176.00,615.62 167.79,679.22 C 167.30,683.02 167.30,683.02 153.70,712.49 C 153.70,712.49 108.30,691.54 108.30,691.51 L 118.70,668.98 L 126.00,612.38 L 126.00,608.97 C 124.12,584.19 123.61,559.12 123.61,534.10 C 123.61,533.20 124.32,445.72 124.32,444.72 C 124.32,435.58 124.25,426.52 124.07,417.55 C 113.84,378.59 108.86,341.04 108.86,305.66  Z M 352.00,718.00 L 302.00,718.00 L 302.00,640.00 C 302.00,639.03 305.44,621.22 312.06,543.07 C 321.82,427.82 333.32,293.02 407.76,218.57 C 441.23,185.11 487.33,164.99 546.36,164.99 C 600.67,164.99 677.60,192.32 709.46,334.91 C 721.26,387.71 724.14,443.07 724.14,486.85 C 724.14,492.87 724.09,498.67 724.00,504.21 L 724.00,584.39 L 721.99,714.39 L 672.01,713.62 L 674.00,583.81 L 674.00,503.57 C 674.09,498.51 674.14,493.23 674.14,487.76 C 674.14,417.46 665.81,295.69 612.01,241.89 C 600.85,230.73 580.92,214.98 546.17,214.98 C 478.05,214.98 418.91,245.23 387.76,363.33 C 364.12,452.96 363.73,564.23 352.00,641.91 L 352.00,718.00 Z" transform="translate(1669.62,100.00) scale(0.8000,0.8000)" fill="#000000" />
  <path d="M 137.42,727.97 C 137.42,724.96 138.01,720.78 140.14,716.64 C 140.05,715.76 140.00,714.88 140.00,714.00 C 140.00,711.03 140.53,708.05 141.59,705.23 C 204.75,536.10 130.88,250.01 265.37,116.27 C 270.25,111.43 276.62,109.00 283.00,109.00 C 296.38,109.00 327.97,129.53 348.28,149.84 C 428.95,230.51 430.02,370.47 430.97,494.26 C 431.32,539.74 431.72,582.36 435.82,617.05 C 435.84,617.20 436.43,623.29 436.43,632.20 C 436.43,646.65 434.85,661.28 431.77,675.17 L 813.12,677.01 C 813.12,677.01 812.88,726.99 812.88,726.99 C 396.88,724.99 396.88,724.99 396.88,724.99 C 383.11,724.93 372.00,713.77 372.00,700.00 C 372.00,696.20 372.86,692.40 374.58,688.92 C 381.54,674.85 386.39,651.83 386.39,630.82 C 386.39,627.95 386.30,625.12 386.11,622.35 C 375.38,530.47 388.56,401.56 367.48,299.97 C 352.35,227.03 323.36,187.73 288.31,165.45 C 195.08,281.64 246.48,525.80 197.36,695.64 C 205.96,698.41 220.41,705.61 220.41,722.72 C 220.41,749.15 190.99,751.32 176.67,752.37 C 173.09,752.64 169.85,752.84 167.41,752.99 C 166.78,753.03 166.20,753.00 165.66,753.00 C 165.55,753.00 165.45,753.00 165.35,753.00 C 165.26,753.00 165.17,753.01 165.08,753.01 C 164.00,753.05 163.35,753.07 163.07,753.08 C 162.26,752.98 160.88,753.14 158.62,752.80 C 141.18,750.15 137.42,734.26 137.42,727.97  Z M 177.36,709.28 L 177.27,739.64 L 180.08,741.72 L 180.08,710.41 L 177.36,709.28  Z M 167.35,748.98 C 173.05,747.32 180.08,745.77 180.08,745.77 L 180.08,742.68 C 177.55,742.00 173.21,740.98 167.20,739.81 L 167.35,748.98 Z" transform="translate(2720.47,100.00) scale(0.8000,0.8000)" fill="#000000" />
</svg>
