<?xml version="1.0" encoding="UTF-8" standalone="no"?>
<!--
Representation of "kulupu soweli Upe Upe" in sitelen ilo pona
Generated by generate_sitelen_kalama_pona.py

Description:
  Representation of "kulupu soweli Upe Upe" in sitelen ilo pona.
  Sources: kulupu: https://commons.wikimedia.org/wiki/File:Sitelen_seli_kiwen_-_kulupu.svg; soweli: https://commons.wikimedia.org/wiki/File:Sitelen_seli_kiwen_-_soweli.svg; u: https://commons.wikimedia.org/wiki/File:Sitelen_kalama_pona_-_xu.svg; pe: https://commons.wikimedia.org/wiki/File:Sitelen_kalama_pona_-_pe.svg; u: https://commons.wikimedia.org/wiki/File:Sitelen_kalama_pona_-_xu.svg; pe: https://commons.wikimedia.org/wiki/File:Sitelen_kalama_pona_-_pe.svg

Categories:
  [[Category:Sitelen kalama pona]]
  [[Category:Toki Pona text containing kulupu soweli]]
  [[Category:Toki Pona text containing sound symbol U]]
  [[Category:Toki Pona text containing sound symbol Pe]]
  [[Category:Toki Pona text containing sound symbol U]]
  [[Category:Toki Pona text containing sound symbol Pe]]

Sources:
  kulupu: https://commons.wikimedia.org/wiki/File:Sitelen_seli_kiwen_-_kulupu.svg
  soweli: https://commons.wikimedia.org/wiki/File:Sitelen_seli_kiwen_-_soweli.svg
  u: https://commons.wikimedia.org/wiki/File:Sitelen_kalama_pona_-_xu.svg
  pe: https://commons.wikimedia.org/wiki/File:Sitelen_kalama_pona_-_pe.svg
  u: https://commons.wikimedia.org/wiki/File:Sitelen_kalama_pona_-_xu.svg
  pe: https://commons.wikimedia.org/wiki/File:Sitelen_kalama_pona_-_pe.svg
-->
<svg version="1.1" width="7207" height="1000"
     viewBox="0 0 7207 1000"
     xmlns="http://www.w3.org/2000/svg">
  <path d="M416 252Q416 226 407.0 204.5Q398 183 390.0 174.5Q382 166 380 166Q377 166 354 144Q332 124 310.5 115.5Q289 107 246 107Q172 107 138 138Q97 175 88.5 188.5Q80 202 80 234Q80 270 82.5 280.0Q85 290 92 296Q99 302 101.0 304.0Q103 306 103.5 307.5Q104 309 106.5 312.0Q109 315 120.5 326.0Q132 337 152 354Q178 379 238 379Q319 379 360 358Q386 344 401.0 315.0Q416 286 416 252ZM346 263Q346 280 338.0 291.0Q330 302 315.0 307.0Q300 312 286.0 313.5Q272 315 252 315Q214 315 189.5 302.0Q165 289 160 278Q155 264 148 264Q142 264 142 255Q142 241 153.5 220.0Q165 199 178 196Q182 195 207.5 185.5Q233 176 252 176Q279 176 295.0 187.5Q311 199 317.5 210.5Q324 222 326 222Q333 222 339.5 235.0Q346 248 346 263ZM820 263Q820 245 817.0 233.0Q814 221 811.0 217.5Q808 214 805.0 211.0Q802 208 802 204Q802 198 794.0 182.0Q786 166 784 166Q781 166 758.0 144.5Q735 123 728 123Q718 123 706.0 117.5Q694 112 694 108Q694 106 676 106Q625 106 598.0 116.0Q571 126 538 153Q527 162 522.0 168.5Q517 175 512.5 194.0Q508 213 508 244Q508 286 520 297Q540 313 540 340Q540 357 561.0 375.5Q582 394 600 394Q629 394 643.5 399.0Q658 404 682 404Q709 404 727.5 399.0Q746 394 760.5 379.5Q775 365 783.0 352.0Q791 339 806 310Q813 297 816 297Q820 297 820 263ZM666 182Q669 182 673.5 181.0Q678 180 680 180Q690 180 702.0 189.0Q714 198 716 198Q721 198 735.5 228.0Q750 258 750 269Q750 273 748 273Q746 273 741.0 285.0Q736 297 728.0 312.5Q720 328 710 335Q706 338 678 338Q653 338 642.0 335.5Q631 333 616 323Q604 316 590 310Q585 309 583.5 303.0Q582 297 582 281Q582 255 578 255Q574 255 574 251Q574 248 578.0 235.5Q582 223 582 217Q582 203 600.0 191.5Q618 180 633.0 176.0Q648 172 652 172Q656 172 659.0 177.0Q662 182 666 182ZM470 732Q500 732 527.0 722.5Q554 713 566.0 705.0Q578 697 578 695Q578 692 585.0 685.0Q592 678 602.0 665.0Q612 652 618 639Q628 617 636 611Q642 605 642 580Q642 520 602 484Q589 473 578.5 466.0Q568 459 563.5 457.0Q559 455 556.0 452.5Q553 450 552 444Q549 433 536 433Q525 433 494.0 431.5Q463 430 456 430Q419 430 398.5 438.0Q378 446 358 467Q338 487 330.0 504.0Q322 521 322 522Q308 538 308 579Q308 597 314 597Q317 597 320.0 603.0Q323 609 329.0 620.0Q335 631 344 640Q355 651 357.0 657.5Q359 664 352 670Q349 674 354 693L360 712L400 717Q430 721 442.0 726.5Q454 732 470 732ZM578 577Q578 607 539.0 641.5Q500 676 438 676Q428 676 428 668Q428 662 416.0 647.5Q404 633 404 626Q404 620 391.0 605.0Q378 590 378 573Q378 546 402 523Q414 510 421.0 507.5Q428 505 450 505Q464 505 474.0 504.0Q484 503 487 502L490 501Q504 501 541.0 528.0Q578 555 578 577Z" transform="translate(0.00,958.33) scale(0.9583,-0.9583)" fill="#000000" />
  <path d="M39 176Q39 190 48.5 203.0Q58 216 71 216Q85 216 98 203L111 190L112 102V78Q112 28 107.5 13.0Q103 -2 80 -2Q66 -2 57.5 9.5Q49 21 49 41Q49 45 50.0 57.5Q51 70 51 85Q51 122 45.0 147.5Q39 173 39 176ZM206 188Q206 193 210.5 201.5Q215 210 215 214Q215 226 230 226Q232 226 236.5 224.0Q241 222 247.0 216.5Q253 211 258.0 202.5Q263 194 266.5 179.0Q270 164 270.0 145.0Q270 126 266.5 92.0Q263 58 263 47Q263 37 267.5 29.0Q272 21 266 14Q260 -2 237 -2Q235 -2 232.0 -1.5Q229 -1 220.0 0.5Q211 2 207.0 5.0Q203 8 198.5 14.0Q194 20 200 29Q212 51 212 123Q212 149 209.0 168.5Q206 188 206 188ZM393 218Q393 230 411 230Q422 230 431.0 225.0Q440 220 440 213Q440 207 446.5 202.0Q453 197 453 190Q453 184 446.0 165.0Q439 146 439 131Q439 119 436.0 104.5Q433 90 433 61Q433 47 434.0 38.5Q435 30 435.5 28.0Q436 26 436.5 24.5Q437 23 437 22Q437 16 428.0 9.5Q419 3 409 3Q408 3 399.0 4.5Q390 6 386 6Q367 6 367 41Q367 70 371 76Q377 84 381.0 142.5Q385 201 388 205Q393 210 393 218ZM367 526Q390 526 413.5 504.5Q437 483 437 464Q437 443 414 431Q394 421 389 416Q384 411 370.5 410.0Q357 409 354 413Q353 416 342.5 422.0Q332 428 323.0 436.5Q314 445 314 456Q314 472 326.5 497.0Q339 522 348 523Q350 523 357.0 524.5Q364 526 367 526ZM491 477Q491 498 502.5 518.5Q514 539 533 539Q546 539 568 528Q582 521 585.5 512.5Q589 504 589 473Q589 461 587.0 455.5Q585 450 576 442Q567 433 560.5 430.5Q554 428 537 428Q529 428 523.5 429.0Q518 430 509.5 434.0Q501 438 496.0 449.0Q491 460 491 477ZM570 238H584Q642 238 682 259Q701 269 739.0 306.5Q777 344 785 361Q793 377 793 414Q793 452 787.5 471.5Q782 491 773.5 505.5Q765 520 761 536Q758 549 727.5 580.5Q697 612 679 620Q666 625 656.5 632.5Q647 640 642.0 644.0Q637 648 632 648Q625 648 620 653Q613 661 491.5 664.5Q370 668 321 668Q311 668 272.0 666.0Q233 664 198.5 662.0Q164 660 163 660L85 656L72 670Q61 682 61 692Q61 701 72 712Q81 721 104.0 723.0Q127 725 256 726Q272 726 287.0 726.5Q302 727 312.5 727.5Q323 728 332.0 728.0Q341 728 347.0 728.5Q353 729 357.5 729.5Q362 730 364.0 730.0Q366 730 366 730Q376 730 431.0 728.0Q486 726 555.0 721.5Q624 717 637 712Q654 705 657 708Q660 710 660 705Q660 700 666 700Q671 700 690.5 688.0Q710 676 718 674Q727 672 737.0 660.0Q747 648 751 648Q758 648 758 642Q758 636 779 619Q796 606 810.0 582.5Q824 559 824 546Q824 542 828.0 536.0Q832 530 837.5 515.0Q843 500 846 477Q848 466 850.0 458.5Q852 451 853.0 444.0Q854 437 854 419V398Q854 370 858 364Q863 358 858 358Q856 358 853.0 354.0Q850 350 841.5 335.5Q833 321 822 306Q813 294 808.5 285.5Q804 277 804.0 275.0Q804 273 803.0 272.0Q802 271 798 270Q794 268 794.5 263.0Q795 258 788 256Q782 254 754.0 226.5Q726 199 715 196Q706 194 700.0 189.0Q694 184 686 184Q681 184 665.5 177.5Q650 171 624 168Q595 165 590.0 158.5Q585 152 582 112Q581 94 579.0 79.5Q577 65 575.5 58.5Q574 52 574 50Q574 47 576 46Q579 44 578.5 30.0Q578 16 574 12Q571 9 540 9Q526 9 518.0 16.5Q510 24 509 31L507 38Q507 44 512.0 70.0Q517 96 517 104Q517 104 517.0 106.5Q517 109 516.0 114.0Q515 119 514.5 126.5Q514 134 513.5 145.5Q513 157 513 171Q513 189 514.0 197.0Q515 205 520.0 217.0Q525 229 537.5 233.5Q550 238 570 238Z" transform="translate(942.50,958.33) scale(0.9583,-0.9583)" fill="#000000" />
  <path d="M 24.637998,12.488337 H 20.72216 q -1.48166,0 -2.54,-1.058333 -1.05833,-1.058333 -1.05833,-2.54 V 3.598338 q 0,-1.481667 1.05833,-2.54 Q 19.2405,4e-6 20.72216,4e-6 h 3.915838 V 0.846671 H 20.72216 q -1.13241,0 -1.94733,0.814917 -0.80433,0.804333 -0.80433,1.93675 v 5.291666 q 0,1.132417 0.80433,1.93675 0.81492,0.814917 1.94733,0.814917 h 3.915838 z" transform="translate(513.81,0.00) scale(80.0747,80.0747)" fill="#000000" />
  <path d="M 75.014662,0.846671 V 4e-6 h 13.123333 v 0.846667 z m 0,11.641666 v -0.846666 h 13.123333 v 0.846666 z" transform="translate(-3520.08,0.00) scale(80.0747,80.0747)" fill="#000000" />
  <path d="M 75.014662,0.846671 V 4e-6 h 13.123333 v 0.846667 z m 0,11.641666 v -0.846666 h 13.123333 v 0.846666 z" transform="translate(-2469.24,0.00) scale(80.0747,80.0747)" fill="#000000" />
  <path d="M 75.014662,0.846671 V 4e-6 h 13.123333 v 0.846667 z m 0,11.641666 v -0.846666 h 13.123333 v 0.846666 z" transform="translate(-1418.39,0.00) scale(80.0747,80.0747)" fill="#000000" />
  <path d="M 75.014662,0.846671 V 4e-6 h 13.123333 v 0.846667 z m 0,11.641666 v -0.846666 h 13.123333 v 0.846666 z" transform="translate(-367.54,0.00) scale(80.0747,80.0747)" fill="#000000" />
  <path d="m 87.714667,4e-6 h 2.8575 q 1.481666,0 2.54,1.058334 1.058333,1.058333 1.058333,2.54 v 5.291666 q 0,1.481667 -1.058333,2.54 -1.058334,1.058333 -2.54,1.058333 h -2.8575 v -0.846666 h 2.8575 q 1.132416,0 1.93675,-0.814917 0.814916,-0.804333 0.814916,-1.93675 V 3.598338 q 0,-1.132417 -0.814916,-1.93675 -0.804334,-0.814917 -1.93675,-0.814917 h -2.8575 z" transform="translate(-333.64,0.00) scale(80.0747,80.0747)" fill="#000000" />
  <path d="M 158.86,260.96 C 158.86,375.30 172.34,489.24 172.34,605.15 C 172.34,612.62 172.28,620.11 172.16,627.61 C 314.43,454.35 415.10,210.75 555.34,32.56 C 560.08,26.53 567.27,23.00 575.00,23.00 C 576.69,23.00 592.25,23.43 598.28,38.88 C 690.29,274.49 789.49,460.57 895.99,710.17 C 897.33,713.30 898.00,716.65 898.00,720.00 L 898.00,724.00 C 898.00,737.57 887.19,748.65 873.63,748.99 C 761.86,752.10 647.89,753.01 535.00,755.00 C 534.77,755.00 534.77,755.00 239.55,747.02 C 232.96,747.47 226.43,747.73 219.99,747.73 C 190.91,747.73 163.07,742.38 143.35,726.91 C 143.35,726.91 140.93,727.71 140.88,727.73 L 139.54,723.70 C 130.76,715.79 116.52,699.23 116.52,668.14 C 116.52,656.75 118.44,644.61 122.08,632.03 C 122.26,623.14 122.34,614.25 122.34,605.35 C 122.34,491.21 108.87,377.16 108.87,261.26 C 108.87,213.49 110.62,210.87 110.62,171.38 C 110.62,164.03 110.58,156.36 110.58,149.79 C 110.58,119.40 111.33,87.26 120.00,54.62 L 120.00,46.00 L 170.00,46.00 L 170.00,58.00 C 170.00,73.77 160.59,69.55 160.59,154.29 C 160.59,160.59 160.61,165.97 160.61,172.20 C 160.61,183.61 160.52,195.22 159.97,207.08 C 159.20,225.03 158.86,242.99 158.86,260.96  Z M 182.63,692.16 C 193.68,696.58 208.26,697.69 220.64,697.69 C 230.57,697.69 236.84,697.00 239.00,697.00 C 239.34,697.00 239.32,700.35 535.15,705.00 C 635.72,706.58 737.20,702.33 837.13,699.89 C 746.58,491.18 651.15,303.64 568.18,98.52 C 434.81,282.24 334.57,523.73 182.63,692.16 Z" transform="translate(2612.12,100.00) scale(0.8000,0.8000)" fill="#000000" />
  <path d="M 542.36,290.51 C 542.36,284.90 542.00,278.13 542.00,278.00 L 542.00,244.00 L 592.00,244.00 L 592.00,277.29 C 592.25,281.90 592.37,286.47 592.37,290.99 C 592.37,354.67 568.63,412.23 568.63,469.85 C 568.63,476.97 569.00,484.03 569.83,491.11 L 520.18,496.93 C 519.07,487.51 518.59,478.27 518.59,469.18 C 518.59,405.71 542.36,347.86 542.36,290.51  Z M 498.82,755.14 C 348.18,755.14 270.31,626.39 270.31,412.34 C 270.31,393.13 270.96,374.60 272.00,357.24 L 272.00,236.00 L 322.00,236.00 L 322.00,358.00 C 322.00,358.54 320.34,383.33 320.34,411.53 C 320.34,488.95 331.58,603.86 391.78,664.06 C 416.98,689.25 450.26,705.15 498.36,705.15 C 502.22,705.15 506.91,705.00 507.00,705.00 C 507.27,705.00 507.27,705.00 785.54,711.01 L 784.46,760.99 L 507.14,755.00 C 504.34,755.09 501.57,755.14 498.82,755.14  Z M 655.00,77.00 C 654.88,77.00 648.61,76.70 643.21,76.70 C 591.97,76.70 538.19,94.17 479.95,96.82 C 382.84,131.30 221.53,93.83 183.64,177.93 C 183.60,178.81 183.59,179.66 183.59,180.47 C 183.59,198.95 193.60,213.95 262.76,213.95 C 267.23,213.95 320.77,212.78 321.36,212.78 C 325.41,212.78 329.38,212.84 333.26,212.99 C 342.71,212.80 352.18,212.71 361.66,212.71 C 469.06,212.71 579.12,224.21 685.91,224.21 C 715.39,224.21 744.48,223.33 773.05,221.08 L 776.97,270.92 C 746.68,273.30 716.15,274.23 685.53,274.23 C 577.86,274.23 467.35,262.70 361.44,262.70 C 345.43,262.70 333.28,263.00 333.00,263.00 C 332.89,263.00 327.80,262.78 321.76,262.78 C 304.08,262.78 282.48,264.02 261.87,264.02 C 208.51,264.02 175.77,255.38 154.73,234.34 C 140.88,220.49 133.66,201.24 133.66,179.30 C 133.66,175.34 133.66,168.01 135.80,162.68 C 186.42,36.34 377.00,82.58 466.08,48.64 C 468.68,47.65 471.41,47.11 474.16,47.02 C 529.46,45.18 584.61,26.69 642.71,26.69 C 646.99,26.69 651.29,26.79 655.63,27.00 L 725.00,27.00 L 725.00,77.00 L 655.00,77.00 Z" transform="translate(3662.97,100.00) scale(0.8000,0.8000)" fill="#000000" />
  <path d="M 158.86,260.96 C 158.86,375.30 172.34,489.24 172.34,605.15 C 172.34,612.62 172.28,620.11 172.16,627.61 C 314.43,454.35 415.10,210.75 555.34,32.56 C 560.08,26.53 567.27,23.00 575.00,23.00 C 576.69,23.00 592.25,23.43 598.28,38.88 C 690.29,274.49 789.49,460.57 895.99,710.17 C 897.33,713.30 898.00,716.65 898.00,720.00 L 898.00,724.00 C 898.00,737.57 887.19,748.65 873.63,748.99 C 761.86,752.10 647.89,753.01 535.00,755.00 C 534.77,755.00 534.77,755.00 239.55,747.02 C 232.96,747.47 226.43,747.73 219.99,747.73 C 190.91,747.73 163.07,742.38 143.35,726.91 C 143.35,726.91 140.93,727.71 140.88,727.73 L 139.54,723.70 C 130.76,715.79 116.52,699.23 116.52,668.14 C 116.52,656.75 118.44,644.61 122.08,632.03 C 122.26,623.14 122.34,614.25 122.34,605.35 C 122.34,491.21 108.87,377.16 108.87,261.26 C 108.87,213.49 110.62,210.87 110.62,171.38 C 110.62,164.03 110.58,156.36 110.58,149.79 C 110.58,119.40 111.33,87.26 120.00,54.62 L 120.00,46.00 L 170.00,46.00 L 170.00,58.00 C 170.00,73.77 160.59,69.55 160.59,154.29 C 160.59,160.59 160.61,165.97 160.61,172.20 C 160.61,183.61 160.52,195.22 159.97,207.08 C 159.20,225.03 158.86,242.99 158.86,260.96  Z M 182.63,692.16 C 193.68,696.58 208.26,697.69 220.64,697.69 C 230.57,697.69 236.84,697.00 239.00,697.00 C 239.34,697.00 239.32,700.35 535.15,705.00 C 635.72,706.58 737.20,702.33 837.13,699.89 C 746.58,491.18 651.15,303.64 568.18,98.52 C 434.81,282.24 334.57,523.73 182.63,692.16 Z" transform="translate(4713.81,100.00) scale(0.8000,0.8000)" fill="#000000" />
  <path d="M 542.36,290.51 C 542.36,284.90 542.00,278.13 542.00,278.00 L 542.00,244.00 L 592.00,244.00 L 592.00,277.29 C 592.25,281.90 592.37,286.47 592.37,290.99 C 592.37,354.67 568.63,412.23 568.63,469.85 C 568.63,476.97 569.00,484.03 569.83,491.11 L 520.18,496.93 C 519.07,487.51 518.59,478.27 518.59,469.18 C 518.59,405.71 542.36,347.86 542.36,290.51  Z M 498.82,755.14 C 348.18,755.14 270.31,626.39 270.31,412.34 C 270.31,393.13 270.96,374.60 272.00,357.24 L 272.00,236.00 L 322.00,236.00 L 322.00,358.00 C 322.00,358.54 320.34,383.33 320.34,411.53 C 320.34,488.95 331.58,603.86 391.78,664.06 C 416.98,689.25 450.26,705.15 498.36,705.15 C 502.22,705.15 506.91,705.00 507.00,705.00 C 507.27,705.00 507.27,705.00 785.54,711.01 L 784.46,760.99 L 507.14,755.00 C 504.34,755.09 501.57,755.14 498.82,755.14  Z M 655.00,77.00 C 654.88,77.00 648.61,76.70 643.21,76.70 C 591.97,76.70 538.19,94.17 479.95,96.82 C 382.84,131.30 221.53,93.83 183.64,177.93 C 183.60,178.81 183.59,179.66 183.59,180.47 C 183.59,198.95 193.60,213.95 262.76,213.95 C 267.23,213.95 320.77,212.78 321.36,212.78 C 325.41,212.78 329.38,212.84 333.26,212.99 C 342.71,212.80 352.18,212.71 361.66,212.71 C 469.06,212.71 579.12,224.21 685.91,224.21 C 715.39,224.21 744.48,223.33 773.05,221.08 L 776.97,270.92 C 746.68,273.30 716.15,274.23 685.53,274.23 C 577.86,274.23 467.35,262.70 361.44,262.70 C 345.43,262.70 333.28,263.00 333.00,263.00 C 332.89,263.00 327.80,262.78 321.76,262.78 C 304.08,262.78 282.48,264.02 261.87,264.02 C 208.51,264.02 175.77,255.38 154.73,234.34 C 140.88,220.49 133.66,201.24 133.66,179.30 C 133.66,175.34 133.66,168.01 135.80,162.68 C 186.42,36.34 377.00,82.58 466.08,48.64 C 468.68,47.65 471.41,47.11 474.16,47.02 C 529.46,45.18 584.61,26.69 642.71,26.69 C 646.99,26.69 651.29,26.79 655.63,27.00 L 725.00,27.00 L 725.00,77.00 L 655.00,77.00 Z" transform="translate(5764.66,100.00) scale(0.8000,0.8000)" fill="#000000" />
</svg>
