<?xml version="1.0" encoding="UTF-8" standalone="no"?>
<!--
Representation of "ijo moku" in sitelen ilo pona
Generated by generate_sitelen_kalama_pona.py

Description:
  Representation of "ijo moku" in sitelen ilo pona.
  Sources: ijo-moku: https://commons.wikimedia.org/wiki/File:Sitelen_seli_kiwen_-_ijo-moku.svg

Categories:
  [[Category:Sitelen kalama pona]]
  [[Category:Toki Pona text containing ijo moku]]

Sources:
  ijo-moku: https://commons.wikimedia.org/wiki/File:Sitelen_seli_kiwen_-_ijo-moku.svg
-->
<svg version="1.1" width="862" height="1000"
     viewBox="0 0 862 1000"
     xmlns="http://www.w3.org/2000/svg">
  <path d="M288 502Q288 507 286.5 526.0Q285 545 285 549Q285 562 297 574Q308 584 320.0 587.5Q332 591 376 595Q407 599 465 599Q545 599 559 592Q585 578 585 560Q585 550 580.0 536.5Q575 523 572 521Q568 519 556.5 492.0Q545 465 545 458Q545 455 530.0 437.5Q515 420 515 414Q515 409 524 409Q532 409 546.0 372.5Q560 336 567 300L575 255L565 241Q555 228 555 222Q555 217 546.5 213.0Q538 209 527 209Q510 209 499.5 220.5Q489 232 489 246Q489 249 492.5 262.0Q496 275 496 297Q496 318 493 334Q492 344 476.5 360.5Q461 377 452 377Q448 377 441.0 372.0Q434 367 425.0 359.5Q416 352 410 349Q400 344 400.0 338.0Q400 332 398.5 330.5Q397 329 394.5 327.5Q392 326 389.0 310.5Q386 295 384 264Q384 262 384 259Q382 221 377.0 209.5Q372 198 354 198Q340 198 328.5 207.0Q317 216 312.0 226.5Q307 237 300.5 246.0Q294 255 288 255Q283 255 283 259Q283 261 272.5 276.0Q262 291 262 301Q262 320 292 320Q309 320 317.0 315.5Q325 311 327 311Q334 311 334 327Q334 340 344.5 358.0Q355 376 365.0 388.0Q375 400 377 401Q386 404 376 411Q371 415 364 416Q351 419 326.0 444.0Q301 469 301 479Q301 487 294.5 492.0Q288 497 288 502ZM504 519Q504 522 503.0 523.5Q502 525 494.5 526.5Q487 528 472 529Q435 532 421 532Q408 532 398.5 527.5Q389 523 384 523Q380 523 376 524Q362 527 362 520Q362 512 367 512Q373 512 374 504Q375 502 384.5 494.5Q394 487 410.0 478.5Q426 470 439 470Q450 470 458 477Q464 483 484 493Q492 496 498.0 504.5Q504 513 504 519ZM310 702Q316 707 352.0 717.0Q388 727 396 727Q398 727 399.0 726.5Q400 726 403.0 725.0Q406 724 418.5 723.0Q431 722 452 722Q502 720 529 715Q591 702 599 697Q605 693 617.0 690.5Q629 688 636 683Q644 677 652 677Q656 677 660.5 673.5Q665 670 674.0 662.5Q683 655 695 648Q713 638 730.0 623.0Q747 608 754 596Q783 544 793.0 507.5Q803 471 803 413Q803 336 797 320Q796 316 792.0 304.5Q788 293 784.0 282.0Q780 271 775 264Q755 233 741 209Q730 190 717.5 180.0Q705 170 698 162Q690 153 677.5 145.0Q665 137 656.5 133.0Q648 129 648 127Q648 123 639 123Q633 123 626.5 118.5Q620 114 605 110Q589 106 576.0 96.5Q563 87 559 87Q517 82 492.5 77.5Q468 73 463.5 70.0Q459 67 455.0 65.5Q451 64 442 64Q438 64 410.5 67.0Q383 70 346.5 78.0Q310 86 299 95Q285 106 255 122Q227 137 191.5 167.5Q156 198 156 208Q156 219 138.5 245.0Q121 271 120 284Q119 298 113.5 321.0Q108 344 105 344Q104 344 100.5 372.0Q97 400 97.0 402.5Q97 405 103.0 432.5Q109 460 110 482Q112 513 127.0 542.5Q142 572 156.0 589.5Q170 607 170 610Q170 613 178.0 618.0Q186 623 198.0 631.0Q210 639 217 646Q227 658 236 658Q241 658 257.0 673.0Q273 688 286 692Q304 697 310 702ZM257 189Q261 189 271.0 179.5Q281 170 284 170Q288 170 310.5 159.5Q333 149 339 145Q351 135 409 135Q475 135 515 147Q522 149 566 160Q582 164 609.0 183.0Q636 202 655.5 219.0Q675 236 676 236Q680 236 699.5 261.0Q719 286 719 291Q719 296 724 298Q739 303 739 409Q739 519 701 558Q686 575 686 579Q686 581 666.0 595.5Q646 610 620.0 624.0Q594 638 582 638Q580 638 578 637Q572 635 564.5 642.5Q557 650 549 651Q547 651 540.0 652.0Q533 653 525.0 654.5Q517 656 510 657Q487 662 472 662Q444 662 422.5 656.5Q401 651 390.0 645.5Q379 640 376 640Q370 640 363.5 645.0Q357 650 350 650Q339 650 330.5 642.0Q322 634 315 634Q299 634 246.5 593.5Q194 553 194 540Q194 537 186.0 526.0Q178 515 168.0 489.5Q158 464 154 427Q152 405 149 400Q147 396 153.0 384.0Q159 372 156 367Q155 366 155 362Q155 346 172 326Q178 319 178 307Q178 296 197.0 259.5Q216 223 226 215Q233 209 240.0 202.0Q247 195 250.5 192.0Q254 189 257 189Z" transform="translate(0.00,958.33) scale(0.9583,-0.9583)" fill="#000000" />
</svg>
