<?xml version="1.0" encoding="UTF-8" standalone="no"?>
<!--
Representation of "kulupu:ma Mewika" in sitelen kalama pona
Generated by generate_sitelen_kalama_pona.py

Description:
  Representation of "kulupu:ma Mewika" in sitelen kalama pona.
  Sources: me: https://commons.wikimedia.org/wiki/File:Sitelen_kalama_pona_-_me.svg; wi: https://commons.wikimedia.org/wiki/File:Sitelen_kalama_pona_-_wi.svg; ka: https://commons.wikimedia.org/wiki/File:Sitelen_kalama_pona_-_ka.svg

Categories:
  [[Category:Sitelen kalama pona]]
  [[Category:Toki Pona text containing kulupu:ma]]
  [[Category:Toki Pona text containing sound symbol Me]]
  [[Category:Toki Pona text containing sound symbol Wi]]
  [[Category:Toki Pona text containing sound symbol Ka]]

Sources:
  me: https://commons.wikimedia.org/wiki/File:Sitelen_kalama_pona_-_me.svg
  wi: https://commons.wikimedia.org/wiki/File:Sitelen_kalama_pona_-_wi.svg
  ka: https://commons.wikimedia.org/wiki/File:Sitelen_kalama_pona_-_ka.svg
-->
<svg version="1.1" width="4271" height="1000"
     viewBox="0 0 4271 1000"
     xmlns="http://www.w3.org/2000/svg">
  <path d="M 24.637998,12.488337 H 20.72216 q -1.48166,0 -2.54,-1.058333 -1.05833,-1.058333 -1.05833,-2.54 V 3.598338 q 0,-1.481667 1.05833,-2.54 Q 19.2405,4e-6 20.72216,4e-6 h 3.915838 V 0.846671 H 20.72216 q -1.13241,0 -1.94733,0.814917 -0.80433,0.804333 -0.80433,1.93675 v 5.291666 q 0,1.132417 0.80433,1.93675 0.81492,0.814917 1.94733,0.814917 h 3.915838 z" transform="translate(-1371.19,0.00) scale(80.0747,80.0747)" fill="#000000" />
  <path d="M 75.014662,0.846671 V 4e-6 h 13.123333 v 0.846667 z m 0,11.641666 v -0.846666 h 13.123333 v 0.846666 z" transform="translate(-5405.08,0.00) scale(80.0747,80.0747)" fill="#000000" />
  <path d="M 75.014662,0.846671 V 4e-6 h 13.123333 v 0.846667 z m 0,11.641666 v -0.846666 h 13.123333 v 0.846666 z" transform="translate(-4354.24,0.00) scale(80.0747,80.0747)" fill="#000000" />
  <path d="M 75.014662,0.846671 V 4e-6 h 13.123333 v 0.846667 z m 0,11.641666 v -0.846666 h 13.123333 v 0.846666 z" transform="translate(-3303.39,0.00) scale(80.0747,80.0747)" fill="#000000" />
  <path d="m 87.714667,4e-6 h 2.8575 q 1.481666,0 2.54,1.058334 1.058333,1.058333 1.058333,2.54 v 5.291666 q 0,1.481667 -1.058333,2.54 -1.058334,1.058333 -2.54,1.058333 h -2.8575 v -0.846666 h 2.8575 q 1.132416,0 1.93675,-0.814917 0.814916,-0.804333 0.814916,-1.93675 V 3.598338 q 0,-1.132417 -0.814916,-1.93675 -0.804334,-0.814917 -1.93675,-0.814917 h -2.8575 z" transform="translate(-3269.49,0.00) scale(80.0747,80.0747)" fill="#000000" />
  <path d="M 364.94,209.41 C 375.73,209.41 384.02,211.63 393.01,211.63 C 395.34,211.63 396.21,211.44 396.21,211.44 L 417.81,256.55 C 408.95,260.79 400.47,261.96 393.08,261.96 C 382.90,261.96 374.08,259.61 364.58,259.61 C 357.46,259.61 349.46,264.17 330.67,264.17 C 269.65,264.17 228.60,209.95 228.60,149.33 C 228.60,143.52 228.98,137.69 229.75,131.90 C 229.28,128.02 229.05,124.20 229.05,120.48 C 229.05,63.07 278.38,52.14 311.75,44.74 C 321.26,42.63 330.03,40.63 337.07,38.29 C 339.54,37.47 342.11,37.04 344.69,37.01 L 835.45,31.02 C 835.45,31.02 870.22,27.16 870.26,27.15 L 875.78,76.84 C 838.55,80.98 838.55,80.98 837.31,80.99 L 349.06,86.95 C 330.18,92.74 308.29,95.71 294.09,101.18 C 279.65,106.74 278.83,112.46 278.83,118.82 C 278.83,124.69 280.00,128.01 280.00,132.00 C 280.00,136.24 278.66,139.51 278.66,148.61 C 278.66,179.65 296.94,214.40 329.66,214.40 C 343.66,214.40 348.22,209.41 364.94,209.41  Z M 513.64,671.27 C 513.64,660.92 514.58,650.57 514.58,640.46 C 514.58,637.43 514.49,634.58 514.26,631.90 C 492.27,530.71 516.64,355.14 445.06,283.56 C 430.95,269.45 413.00,258.99 388.04,253.67 C 301.00,280.26 274.72,404.27 254.30,503.81 C 252.84,510.90 251.42,517.85 250.00,524.62 L 250.00,700.00 L 200.00,700.00 L 200.00,522.00 C 200.00,520.24 218.12,416.56 242.42,351.26 C 260.23,303.38 297.13,225.23 380.76,203.79 C 382.80,203.27 384.90,203.00 387.00,203.00 C 388.04,203.00 439.55,207.34 480.41,248.20 C 531.19,298.98 544.26,380.02 549.90,465.20 C 568.85,382.83 601.66,302.01 665.61,240.04 C 670.45,235.35 676.72,233.00 683.00,233.00 C 687.16,233.00 691.32,234.04 695.06,236.10 C 871.49,333.31 813.99,604.01 869.53,719.15 L 824.48,740.87 C 764.89,617.31 815.14,380.20 686.95,289.90 C 596.68,389.98 583.82,537.97 569.90,698.18 C 568.78,711.06 558.00,721.00 545.00,721.00 C 537.22,721.00 520.34,715.31 516.67,699.76 C 514.28,689.59 513.64,680.02 513.64,671.27 Z" transform="translate(727.12,100.00) scale(0.8000,0.8000)" fill="#000000" />
  <path d="M 178.29,277.39 C 178.29,276.09 177.65,255.13 177.65,254.90 C 177.65,234.20 182.19,225.03 189.87,217.79 L 224.13,254.21 C 225.61,252.44 226.72,250.31 228.05,248.40 C 227.90,249.14 227.78,251.99 227.78,255.85 C 227.78,258.59 228.38,276.70 228.38,276.91 C 228.38,286.09 227.13,288.79 227.13,302.45 C 227.13,326.43 231.74,354.12 240.88,379.68 C 246.27,394.78 273.28,466.05 332.27,469.04 C 338.14,469.33 351.83,474.59 371.42,474.59 C 396.46,474.59 445.27,467.99 461.84,354.49 C 461.26,346.85 460.98,339.20 460.98,331.62 C 460.98,307.86 463.74,284.71 468.70,264.11 C 471.38,253.03 481.33,245.00 493.00,245.00 C 506.81,245.00 518.00,256.19 518.00,270.00 C 518.00,270.86 517.54,316.01 512.18,355.80 C 514.66,382.35 526.76,456.09 584.57,456.09 C 590.84,456.09 597.81,455.30 605.61,453.59 C 606.28,453.44 606.95,453.32 607.63,453.23 C 703.50,440.29 739.18,318.31 748.29,258.23 C 750.13,246.09 760.58,237.00 773.00,237.00 C 785.39,237.00 795.81,246.03 797.70,258.13 C 809.13,331.57 802.56,409.36 807.88,481.56 C 810.07,499.84 811.15,517.12 811.15,533.43 C 811.15,742.33 635.97,762.20 510.75,762.20 C 428.76,762.20 340.51,752.43 267.51,752.43 C 258.04,752.43 248.87,752.60 240.06,752.97 L 237.92,703.03 C 247.75,702.61 257.81,702.42 268.09,702.42 C 342.07,702.42 428.91,712.11 511.12,712.11 C 671.94,712.11 761.25,672.71 761.25,534.39 C 761.25,519.95 760.27,504.20 758.19,487.03 C 756.72,474.93 755.66,438.72 755.32,396.17 C 738.81,426.01 696.51,491.18 615.38,502.63 C 605.21,504.79 595.40,505.83 586.01,505.83 C 565.78,505.83 518.64,501.25 487.51,447.06 C 476.62,469.94 445.60,524.58 371.44,524.58 C 357.52,524.58 342.74,522.66 327.12,518.80 C 229.63,511.80 177.10,394.51 177.10,303.13 C 177.10,288.31 178.29,283.12 178.29,277.39  Z M 482.30,108.14 C 483.59,111.08 486.57,118.29 486.57,127.60 C 486.57,129.56 486.43,131.56 486.14,133.60 C 486.19,134.69 486.21,135.80 486.21,136.92 C 486.21,172.64 462.69,186.48 449.67,192.62 C 446.30,194.20 442.65,195.00 439.00,195.00 C 431.66,195.00 430.03,192.63 424.28,191.27 C 415.92,189.30 389.88,183.14 389.88,153.76 C 389.88,119.99 410.49,102.84 431.07,86.65 C 438.71,80.63 443.00,77.05 445.85,73.91 C 445.85,73.91 446.30,72.79 446.34,72.81 C 447.07,73.10 467.42,81.42 479.61,102.81 L 483.80,106.49 C 483.30,107.05 482.80,107.60 482.30,108.14 Z" transform="translate(1777.97,100.00) scale(0.8000,0.8000)" fill="#000000" />
  <path d="M 235.77,643.31 C 235.77,651.79 236.00,656.96 236.00,658.00 L 236.00,704.00 L 186.00,704.00 L 186.00,658.38 C 185.85,653.24 185.78,648.11 185.78,643.00 C 185.78,589.09 193.92,537.14 201.71,486.75 C 204.73,467.20 207.71,447.87 210.22,428.73 C 210.91,423.48 212.27,424.09 212.27,414.93 C 212.27,414.74 211.69,397.42 211.69,396.83 C 211.69,389.56 211.69,389.56 215.39,367.94 C 217.73,354.27 220.20,339.84 222.06,327.75 C 223.09,292.37 228.16,260.48 228.16,227.82 C 228.16,223.01 228.00,218.10 228.00,218.00 C 228.00,213.64 229.45,210.87 229.45,189.48 C 229.45,188.94 228.50,136.10 228.50,135.56 C 228.50,104.77 228.50,20.54 303.91,11.20 C 304.93,11.07 305.97,11.00 307.00,11.00 C 417.90,11.00 500.44,96.50 559.09,160.73 L 572.68,174.32 L 537.32,209.68 C 522.91,195.27 522.91,195.27 522.52,194.84 C 464.36,131.12 395.62,62.39 308.58,61.01 C 288.87,64.03 278.57,79.66 278.57,136.86 C 278.57,156.11 279.53,174.47 279.53,190.46 C 279.53,200.32 279.18,209.97 278.04,219.26 C 278.12,222.22 278.15,225.16 278.15,228.08 C 278.15,264.05 272.86,296.47 271.99,330.64 C 271.82,337.02 261.71,389.45 261.71,396.59 C 261.71,402.78 262.37,409.14 262.37,415.72 C 262.37,422.05 261.80,429.41 259.51,437.37 C 256.96,456.56 254.02,475.57 251.11,494.44 C 243.30,544.98 235.77,594.40 235.77,643.31  Z M 543.81,527.98 L 582.22,559.99 L 484.07,677.76 L 477.36,691.19 L 432.63,668.82 C 436.42,661.91 439.21,654.17 443.78,648.01 C 443.78,648.01 543.78,528.01 543.81,527.98  Z M 733.00,639.00 C 733.15,639.00 740.71,639.31 747.60,639.31 C 757.58,639.31 797.07,639.31 818.26,623.81 C 818.26,623.81 847.78,664.17 847.74,664.19 C 833.58,674.56 805.84,689.32 748.28,689.32 C 742.85,689.32 737.68,689.20 732.83,689.01 C 731.20,689.05 729.57,689.07 727.95,689.07 C 665.32,689.07 582.68,659.26 527.28,529.52 C 507.20,482.51 495.14,432.68 488.32,389.97 C 488.28,389.75 487.39,382.24 487.39,368.25 C 487.39,245.04 565.29,108.32 695.60,101.04 C 696.06,101.02 696.53,101.00 697.00,101.00 L 727.00,101.00 L 727.00,151.00 L 697.73,151.00 C 592.35,157.37 537.41,278.21 537.41,369.06 C 537.41,373.82 537.56,378.52 537.86,383.15 C 548.86,451.23 591.53,639.08 727.73,639.08 C 729.89,639.08 732.95,639.00 733.00,639.00 Z" transform="translate(2828.81,100.00) scale(0.8000,0.8000)" fill="#000000" />
</svg>
