<?xml version="1.0" encoding="UTF-8" standalone="no"?>
<!--
Representation of "loje walo" in sitelen kalama pona
Generated by generate_sitelen_kalama_pona.py

Description:
  Representation of "loje walo" in sitelen kalama pona.
  Sources: loje-walo: https://commons.wikimedia.org/wiki/File:Sitelen_seli_kiwen_-_loje-walo.svg

Categories:
  [[Category:Sitelen kalama pona]]
  [[Category:Toki Pona text containing loje walo]]

Sources:
  loje-walo: https://commons.wikimedia.org/wiki/File:Sitelen_seli_kiwen_-_loje-walo.svg
-->
<svg version="1.1" width="862" height="1000"
     viewBox="0 0 862 1000"
     xmlns="http://www.w3.org/2000/svg">
  <path d="M415 435Q423 435 430.0 437.5Q437 440 441 440Q444 440 450.0 436.5Q456 433 467.0 433.0Q478 433 483.0 429.5Q488 426 500 426Q519 426 541.0 430.0Q563 434 563 438Q563 439 588.5 442.5Q614 446 616 446Q629 446 655.0 440.5Q681 435 684 431Q693 420 693 398Q693 391 682.5 379.5Q672 368 662.0 360.5Q652 353 651 353Q649 353 645.0 343.0Q641 333 634.5 319.0Q628 305 621 298Q610 285 610 282Q610 278 603 278Q597 278 595 274Q593 269 575.0 259.5Q557 250 550 250Q540 250 534.5 243.0Q529 236 532 227Q534 220 562.0 191.0Q590 162 599 149Q616 124 649.0 99.0Q682 74 682 55Q682 9 595 9Q589 9 505.5 20.0Q422 31 355 31Q324 31 297.5 26.5Q271 22 265 22Q242 22 224.5 36.5Q207 51 207 71Q207 88 222.0 103.5Q237 119 251.0 124.0Q265 129 297.5 168.5Q330 208 333 208Q335 208 342.5 213.0Q350 218 358.0 228.0Q366 238 366 247Q366 255 359 255Q354 255 347.0 262.0Q340 269 335 269Q333 269 318.5 275.5Q304 282 286.5 295.0Q269 308 265 320Q261 333 255.0 337.5Q249 342 249 344Q249 347 239.0 363.0Q229 379 229 384Q229 386 230 387Q234 391 227 410Q222 423 223.0 427.5Q224 432 231 440Q241 452 265 452Q302 452 353.0 443.5Q404 435 415 435ZM555 370H536Q524 370 438.0 371.5Q352 373 328 373H313Q311 371 317.5 357.5Q324 344 328 344Q330 344 346.5 333.5Q363 323 370 323H373Q378 325 382.5 318.0Q387 311 394.0 311.0Q401 311 406.5 306.0Q412 301 415 306Q421 310 421.5 307.5Q422 305 426.5 300.5Q431 296 439 296Q453 296 490.5 302.0Q528 308 540.0 313.0Q552 318 576.0 339.5Q600 361 600 367Q600 370 555 370ZM577 75Q577 84 524.0 146.0Q471 208 460 208Q447 208 402.0 174.5Q357 141 357 134Q357 130 345.0 120.0Q333 110 333 108Q335 98 372 98Q406 98 479.5 86.0Q553 74 568 74Q577 74 577 75ZM238 747Q248 747 260.0 740.0Q272 733 278 733Q286 733 286 729Q286 724 315.5 695.0Q345 666 350 666Q352 666 376.0 702.0Q400 738 403.0 738.0Q406 738 407.0 742.0Q408 746 414.0 754.5Q420 763 433 771Q454 784 456 784Q460 784 464.0 776.0Q468 768 477.5 751.0Q487 734 501 719Q511 707 511 704Q511 700 522.5 694.5Q534 689 541 689Q549 689 563.5 700.0Q578 711 588 728Q599 746 627 753Q651 760 660 760Q670 760 682.0 750.0Q694 740 689 725Q685 715 668.0 699.0Q651 683 635.5 672.5Q620 662 619 662Q615 662 595 644L575 626L598 601Q633 564 638.5 555.5Q644 547 644 531Q645 512 648 512L649 511Q649 500 573 496Q539 494 487.5 488.0Q436 482 394 482H360Q298 484 279.0 489.5Q260 495 260 512Q260 533 277.0 569.5Q294 606 301 606Q305 606 305 618Q305 628 288.5 639.0Q272 650 272 653Q272 655 268.5 657.0Q265 659 256.5 664.0Q248 669 239 677Q229 687 219 687Q211 687 211 708Q211 747 238 747ZM539 578Q539 583 520.5 600.5Q502 618 502 621Q502 626 489.5 643.5Q477 661 471 664Q464 668 464 674Q464 681 460 681Q459 681 457.5 681.5Q456 682 453.5 683.0Q451 684 449 684Q444 686 435.5 678.5Q427 671 427 665Q427 660 408.0 641.0Q389 622 389 618Q389 615 366.0 587.5Q343 560 343 557Q343 541 355 551Q358 554 362 554Q365 554 382.0 548.5Q399 543 415 543Q440 543 489.5 556.0Q539 569 539 578Z" transform="translate(0.00,958.33) scale(0.9583,-0.9583)" fill="#000000" />
</svg>
