<?xml version="1.0" encoding="UTF-8" standalone="no"?>
<!--
Representation of "toki pi tenpo lon" in sitelen ilo pona
Generated by generate_sitelen_kalama_pona.py

Description:
  Representation of "toki pi tenpo lon" in sitelen ilo pona.
  Sources: toki: https://commons.wikimedia.org/wiki/File:Sitelen_seli_kiwen_-_toki.svg; pi: https://commons.wikimedia.org/wiki/File:Sitelen_seli_kiwen_-_pi.svg; tenpo: https://commons.wikimedia.org/wiki/File:Sitelen_seli_kiwen_-_tenpo.svg; lon: https://commons.wikimedia.org/wiki/File:Sitelen_seli_kiwen_-_lon.svg

Categories:
  [[Category:Sitelen kalama pona]]
  [[Category:Toki Pona text containing toki pi tenpo lon]]

Sources:
  toki: https://commons.wikimedia.org/wiki/File:Sitelen_seli_kiwen_-_toki.svg
  pi: https://commons.wikimedia.org/wiki/File:Sitelen_seli_kiwen_-_pi.svg
  tenpo: https://commons.wikimedia.org/wiki/File:Sitelen_seli_kiwen_-_tenpo.svg
  lon: https://commons.wikimedia.org/wiki/File:Sitelen_seli_kiwen_-_lon.svg
-->
<svg version="1.1" width="3690" height="1000"
     viewBox="0 0 3690 1000"
     xmlns="http://www.w3.org/2000/svg">
  <path d="M222 295Q222 320 228.0 339.0Q234 358 240.0 368.0Q246 378 246 382Q246 395 265.0 421.5Q284 448 300 456Q316 465 325.0 475.0Q334 485 335.5 491.0Q337 497 344.0 502.0Q351 507 366 509Q385 512 401.0 516.5Q417 521 428 521Q445 521 487.0 512.0Q529 503 540 503Q552 503 571.5 496.0Q591 489 608.0 481.5Q625 474 628 473Q640 469 640 463Q640 457 647.0 453.0Q654 449 654.0 445.0Q654 441 660.5 434.5Q667 428 676.0 416.0Q685 404 690 391Q700 367 702 365Q706 361 706 347Q706 339 709.0 330.5Q712 322 713.0 320.0Q714 318 712 314Q709 312 707.0 303.0Q705 294 700.0 278.5Q695 263 686 250Q678 237 671.0 219.5Q664 202 654 192Q647 185 644.5 179.5Q642 174 642.5 171.0Q643 168 639.5 165.0Q636 162 626 158Q608 150 608 146Q608 141 586.5 133.0Q565 125 538.0 117.0Q511 109 504 106Q488 98 458 98Q419 98 389.5 107.0Q360 116 345.5 124.5Q331 133 330 133Q322 133 305.0 142.5Q288 152 286 157Q285 165 278 167Q265 172 249.0 217.5Q233 263 230 265Q222 270 222 295ZM584 428Q581 428 570.5 436.0Q560 444 534.0 452.5Q508 461 468 461Q434 461 405.0 452.5Q376 444 361.0 435.0Q346 426 333.0 411.5Q320 397 317.5 393.0Q315 389 312 384Q308 374 302 374Q297 374 289.5 351.5Q282 329 282 313Q282 289 313.5 236.0Q345 183 378 177Q397 173 402 170Q416 163 460 163Q496 163 511.0 169.0Q526 175 528 175Q533 175 548.0 180.5Q563 186 588.0 205.5Q613 225 626 254Q643 288 645.5 296.5Q648 305 648 318Q648 349 638 370Q633 383 611.5 405.5Q590 428 584 428ZM144 612Q144 622 151.5 632.5Q159 643 172 643Q181 643 202.5 624.5Q224 606 227.5 606.0Q231 606 235.0 599.0Q239 592 244 592Q249 592 258.5 579.0Q268 566 268 555Q268 545 259.5 539.5Q251 534 243 533L234 532Q226 532 207.5 550.5Q189 569 182 569Q175 569 170.5 576.0Q166 583 162 583Q144 595 144 612ZM622 636Q645 645 677.0 671.5Q709 698 726 698Q740 698 748.0 689.5Q756 681 756 667Q756 654 752.0 648.5Q748 643 734 636Q722 629 700.0 615.0Q678 601 661.5 591.5Q645 582 638 580Q629 577 623.5 573.0Q618 569 608 569Q580 569 580 589Q580 601 592.0 615.0Q604 629 622 636ZM400 600Q400 601 403.0 615.0Q406 629 409.0 652.0Q412 675 412 697Q412 706 410 712Q405 729 429 742Q447 751 448 740Q448 734 458 730Q464 729 465.0 725.0Q466 721 466 708Q466 673 461.0 651.5Q456 630 456 608Q456 595 444.0 583.0Q432 571 420 571Q410 571 405.0 580.0Q400 589 400 600Z" transform="translate(0.00,958.33) scale(0.9583,-0.9583)" fill="#000000" />
  <path d="M178 600Q178 613 172.0 629.5Q166 646 166 651Q166 660 178 675Q187 686 191.5 688.0Q196 690 206 688Q221 685 228.5 675.5Q236 666 237.0 657.5Q238 649 238 634V602Q238 561 244.0 524.5Q250 488 250 466Q250 451 248.0 418.5Q246 386 246 369Q246 369 246.0 367.0Q246 365 246.5 361.5Q247 358 247.5 353.0Q248 348 248.0 339.5Q248 331 248.5 321.0Q249 311 249.5 296.5Q250 282 250 266Q250 179 252 177Q260 168 392 168Q392 168 438.0 168.0Q484 168 532.0 168.5Q580 169 584 169Q698 169 704 167Q710 164 716 164Q722 163 728.0 144.5Q734 126 734 111Q734 109 733.0 103.5Q732 98 727.5 90.5Q723 83 716 83Q714 83 683.5 92.5Q653 102 624 102Q612 102 594.0 100.0Q576 98 562 98Q562 98 558.5 98.5Q555 99 548.0 99.5Q541 100 532.0 100.5Q523 101 510.5 101.5Q498 102 486 102Q485 102 480.5 102.0Q476 102 469.0 101.5Q462 101 454.5 100.5Q447 100 439.5 100.0Q432 100 428 100Q344 100 230 92L190 90L184 104Q180 114 180 131Q180 157 185.0 176.5Q190 196 190 218Q190 218 190.0 225.0Q190 232 190.0 242.5Q190 253 189.5 264.5Q189 276 188.5 287.0Q188 298 188 304Q188 326 190.0 374.0Q192 422 192 441Q192 517 178 540Q176 543 177.0 544.0Q178 545 180.0 545.5Q182 546 182.5 549.5Q183 553 180 562Q176 571 176 578Q176 581 177.0 588.5Q178 596 178 600Z" transform="translate(942.50,958.33) scale(0.9583,-0.9583)" fill="#000000" />
  <path d="M376 453Q376 473 372.0 493.5Q368 514 368 521Q368 531 376.0 540.0Q384 549 394 549Q399 549 406.5 543.0Q414 537 422 535Q428 534 430.0 526.0Q432 518 436 487Q438 459 438 448Q438 430 436.0 416.0Q434 402 434 397Q434 381 442.5 376.5Q451 372 478 372Q508 372 547.0 377.5Q586 383 594 383Q603 383 612.5 373.0Q622 363 622 352Q622 345 619.5 338.0Q617 331 605.5 322.5Q594 314 574 313Q565 313 529.5 307.5Q494 302 448 302Q404 302 394.5 303.5Q385 305 378 313L368 324L374 392Q376 432 376 453ZM532 74H528Q525 74 513.5 71.0Q502 68 480.0 65.5Q458 63 430 63Q400 63 381.0 67.5Q362 72 351.0 77.5Q340 83 334 84Q323 85 307.0 90.0Q291 95 276.0 101.5Q261 108 248.0 114.0Q235 120 227.0 124.0Q219 128 218 128Q213 128 187.5 152.0Q162 176 162 182Q162 183 147.5 201.0Q133 219 118.5 251.0Q104 283 104 317Q104 339 112.0 373.5Q120 408 120 417Q120 447 124.5 464.5Q129 482 142 505Q162 536 162 540Q162 543 183.0 567.0Q204 591 204.0 594.0Q204 597 221.0 613.5Q238 630 238 634Q238 639 242 639Q246 639 255.0 646.0Q264 653 276.5 663.5Q289 674 298 679Q307 684 324.5 695.0Q342 706 356.0 713.5Q370 721 378 723Q385 725 422 725Q478 725 504.0 720.0Q530 715 534 715Q546 715 580.0 699.5Q614 684 640 678Q649 676 659.5 668.5Q670 661 678 658Q687 655 710.5 628.5Q734 602 734 595Q734 592 748.0 570.5Q762 549 762 544Q762 543 766.0 533.5Q770 524 775.5 506.0Q781 488 784 468Q785 453 788 446Q794 436 795.0 422.5Q796 409 796 339Q796 337 790.5 319.0Q785 301 784 291Q784 278 780 278Q778 278 774.0 261.5Q770 245 766 243Q764 242 758.0 229.0Q752 216 740.5 198.0Q729 180 716 168Q694 148 688 141Q681 133 676 133Q674 133 653.5 120.0Q633 107 626 106Q615 104 577.0 89.0Q539 74 532 74ZM442 131Q445 131 461.0 132.0Q477 133 501.0 135.5Q525 138 542.5 142.5Q560 147 560 154Q560 159 570.5 160.0Q581 161 598.5 165.0Q616 169 628 180Q644 194 648 194Q656 194 670.5 210.0Q685 226 697.5 242.5Q710 259 710 259Q716 259 726.0 296.5Q736 334 736 352Q736 355 732.5 375.5Q729 396 728 424Q726 459 713.5 494.0Q701 529 690.0 546.5Q679 564 678 564Q674 564 674 571Q674 578 655.5 594.5Q637 611 630 611Q622 611 622 616Q622 620 614 620Q607 620 604 627Q596 641 542.5 653.5Q489 666 448 666Q424 666 388.5 658.5Q353 651 340 636Q333 629 313.0 617.5Q293 606 282 593Q258 567 250 559Q232 544 232 534Q232 528 213.0 509.5Q194 491 194 487Q194 485 187.0 467.0Q180 449 178 430Q177 411 170.5 371.5Q164 332 164 323Q164 316 168.5 298.5Q173 281 193.0 245.5Q213 210 246 185Q282 156 290 156Q293 156 342.5 143.5Q392 131 442 131Z" transform="translate(1885.00,958.33) scale(0.9583,-0.9583)" fill="#000000" />
  <path d="M150 252Q150 262 160.5 276.5Q171 291 190 291Q216 291 250.5 285.5Q285 280 296 280Q319 279 382.5 276.0Q446 273 458 273Q470 273 485.5 275.0Q501 277 506 277Q514 277 524.5 272.5Q535 268 538 269Q542 270 614.0 271.0Q686 272 702 278Q713 282 717.5 281.5Q722 281 730 276Q750 263 750 244Q750 213 712 213Q712 213 708.0 213.0Q704 213 695.5 213.5Q687 214 677.0 214.0Q667 214 652.0 214.0Q637 214 622 214Q611 214 601.0 214.0Q591 214 584.5 214.0Q578 214 573.0 213.5Q568 213 566.0 213.0Q564 213 563.5 213.0Q563 213 547.0 213.5Q531 214 505.5 214.5Q480 215 451.5 215.5Q423 216 394.0 216.5Q365 217 346 217Q333 217 322.0 217.0Q311 217 304.0 216.5Q297 216 291.5 216.0Q286 216 283.5 216.0Q281 216 280 216Q273 216 234.5 219.5Q196 223 184 224Q169 225 159.5 233.0Q150 241 150 252ZM388 467Q388 471 393.0 483.0Q398 495 412.5 508.0Q427 521 446 521Q471 521 489.5 491.0Q508 461 508 441Q508 422 487.5 410.0Q467 398 446.0 398.0Q425 398 406.5 422.5Q388 447 388 467Z" transform="translate(2827.50,958.33) scale(0.9583,-0.9583)" fill="#000000" />
</svg>
