<?xml version="1.0" encoding="UTF-8" standalone="no"?>
<!--
Representation of "lipu tenpo" in sitelen ilo pona
Generated by generate_sitelen_kalama_pona.py

Description:
  Representation of "lipu tenpo" in sitelen ilo pona.
  Sources: lipu-tenpo: https://commons.wikimedia.org/wiki/File:Sitelen_seli_kiwen_-_lipu-tenpo.svg

Categories:
  [[Category:Sitelen kalama pona]]
  [[Category:Toki Pona text containing lipu tenpo]]

Sources:
  lipu-tenpo: https://commons.wikimedia.org/wiki/File:Sitelen_seli_kiwen_-_lipu-tenpo.svg
-->
<svg version="1.1" width="862" height="1000"
     viewBox="0 0 862 1000"
     xmlns="http://www.w3.org/2000/svg">
  <path d="M390 550Q390 559 401.5 575.0Q413 591 421 591Q428 591 440 577Q446 570 448.5 565.5Q451 561 453.0 547.0Q455 533 455 508Q455 488 452.5 477.0Q450 466 449 451L448 430L469 424Q491 418 505 421Q510 422 519 422Q544 422 565.5 410.5Q587 399 587 385Q587 371 562.0 366.0Q537 361 459 361Q416 361 399.0 366.5Q382 372 382 391Q382 404 386.0 415.0Q390 426 390 435ZM143 694Q143 702 153.5 714.0Q164 726 173.5 734.0Q183 742 184 742Q188 742 215 733Q241 724 352.0 722.0Q463 720 563.0 720.0Q663 720 666.0 717.0Q669 714 686 714Q707 714 715.5 710.0Q724 706 730 693Q735 681 735 675Q735 666 729.5 647.5Q724 629 721 625Q718 619 715.5 529.5Q713 440 713 417Q713 358 727.5 284.0Q742 210 742 195Q743 177 745.5 165.5Q748 154 748 140Q748 122 754 118Q760 114 753 114Q747 114 747 103Q747 89 736.5 83.0Q726 77 698 77Q664 77 628.5 84.5Q593 92 581 93Q564 94 527.0 100.5Q490 107 475 107Q470 107 429.5 103.0Q389 99 331 99Q274 99 244 101Q243 101 240 101Q220 102 212.0 102.5Q204 103 194.0 107.5Q184 112 182.0 114.5Q180 117 176.5 130.0Q173 143 173.0 153.0Q173 163 172 188Q172 191 172 192Q171 220 171 271Q171 271 171.0 276.0Q171 281 171.5 288.5Q172 296 172.0 304.5Q172 313 172.0 321.5Q172 330 172 335Q172 576 158 605Q154 614 150.0 636.5Q146 659 144.5 675.0Q143 691 143 694ZM654 576V616Q654 649 652.0 651.0Q650 653 614.5 654.5Q579 656 509.5 658.5Q440 661 381 665Q328 669 304 669Q300 669 286.5 668.5Q273 668 263 668L212 667L215 640Q232 516 232 475Q232 472 231.5 467.5Q231 463 231 448Q231 445 232.5 370.5Q234 296 234 295Q234 282 235 260Q236 204 238.0 194.0Q240 184 251 179Q254 177 256 176Q291 158 348 158Q359 158 379.5 161.5Q400 165 431 165Q488 165 567.0 154.5Q646 144 650 144Q677 144 677 158Q677 165 680.0 170.5Q683 176 683 182Q683 189 678.5 213.0Q674 237 674 243Q674 244 674.5 245.0Q675 246 675 246Q677 249 672.5 256.5Q668 264 668 269Q668 273 665.0 293.0Q662 313 659.0 350.5Q656 388 656 442Q656 522 661 528Q667 535 660 541Q654 546 654 576Z" transform="translate(0.00,958.33) scale(0.9583,-0.9583)" fill="#000000" />
</svg>
