<?xml version="1.0" encoding="UTF-8" standalone="no"?>
<!--
Representation of "kulupu jan Tami" in sitelen kalama pona
Generated by generate_sitelen_kalama_pona.py

Description:
  Representation of "kulupu jan Tami" in sitelen kalama pona.
  Sources: kulupu: https://commons.wikimedia.org/wiki/File:Sitelen_seli_kiwen_-_kulupu.svg; jan: https://commons.wikimedia.org/wiki/File:Sitelen_seli_kiwen_-_jan.svg; ta: https://commons.wikimedia.org/wiki/File:Sitelen_kalama_pona_-_ta.svg; mi: https://commons.wikimedia.org/wiki/File:Sitelen_kalama_pona_-_mi.svg

Categories:
  [[Category:Sitelen kalama pona]]
  [[Category:Toki Pona text containing kulupu jan]]
  [[Category:Toki Pona text containing sound symbol Ta]]
  [[Category:Toki Pona text containing sound symbol Mi]]

Sources:
  kulupu: https://commons.wikimedia.org/wiki/File:Sitelen_seli_kiwen_-_kulupu.svg
  jan: https://commons.wikimedia.org/wiki/File:Sitelen_seli_kiwen_-_jan.svg
  ta: https://commons.wikimedia.org/wiki/File:Sitelen_kalama_pona_-_ta.svg
  mi: https://commons.wikimedia.org/wiki/File:Sitelen_kalama_pona_-_mi.svg
-->
<svg version="1.1" width="5105" height="1000"
     viewBox="0 0 5105 1000"
     xmlns="http://www.w3.org/2000/svg">
  <path d="M416 252Q416 226 407.0 204.5Q398 183 390.0 174.5Q382 166 380 166Q377 166 354 144Q332 124 310.5 115.5Q289 107 246 107Q172 107 138 138Q97 175 88.5 188.5Q80 202 80 234Q80 270 82.5 280.0Q85 290 92 296Q99 302 101.0 304.0Q103 306 103.5 307.5Q104 309 106.5 312.0Q109 315 120.5 326.0Q132 337 152 354Q178 379 238 379Q319 379 360 358Q386 344 401.0 315.0Q416 286 416 252ZM346 263Q346 280 338.0 291.0Q330 302 315.0 307.0Q300 312 286.0 313.5Q272 315 252 315Q214 315 189.5 302.0Q165 289 160 278Q155 264 148 264Q142 264 142 255Q142 241 153.5 220.0Q165 199 178 196Q182 195 207.5 185.5Q233 176 252 176Q279 176 295.0 187.5Q311 199 317.5 210.5Q324 222 326 222Q333 222 339.5 235.0Q346 248 346 263ZM820 263Q820 245 817.0 233.0Q814 221 811.0 217.5Q808 214 805.0 211.0Q802 208 802 204Q802 198 794.0 182.0Q786 166 784 166Q781 166 758.0 144.5Q735 123 728 123Q718 123 706.0 117.5Q694 112 694 108Q694 106 676 106Q625 106 598.0 116.0Q571 126 538 153Q527 162 522.0 168.5Q517 175 512.5 194.0Q508 213 508 244Q508 286 520 297Q540 313 540 340Q540 357 561.0 375.5Q582 394 600 394Q629 394 643.5 399.0Q658 404 682 404Q709 404 727.5 399.0Q746 394 760.5 379.5Q775 365 783.0 352.0Q791 339 806 310Q813 297 816 297Q820 297 820 263ZM666 182Q669 182 673.5 181.0Q678 180 680 180Q690 180 702.0 189.0Q714 198 716 198Q721 198 735.5 228.0Q750 258 750 269Q750 273 748 273Q746 273 741.0 285.0Q736 297 728.0 312.5Q720 328 710 335Q706 338 678 338Q653 338 642.0 335.5Q631 333 616 323Q604 316 590 310Q585 309 583.5 303.0Q582 297 582 281Q582 255 578 255Q574 255 574 251Q574 248 578.0 235.5Q582 223 582 217Q582 203 600.0 191.5Q618 180 633.0 176.0Q648 172 652 172Q656 172 659.0 177.0Q662 182 666 182ZM470 732Q500 732 527.0 722.5Q554 713 566.0 705.0Q578 697 578 695Q578 692 585.0 685.0Q592 678 602.0 665.0Q612 652 618 639Q628 617 636 611Q642 605 642 580Q642 520 602 484Q589 473 578.5 466.0Q568 459 563.5 457.0Q559 455 556.0 452.5Q553 450 552 444Q549 433 536 433Q525 433 494.0 431.5Q463 430 456 430Q419 430 398.5 438.0Q378 446 358 467Q338 487 330.0 504.0Q322 521 322 522Q308 538 308 579Q308 597 314 597Q317 597 320.0 603.0Q323 609 329.0 620.0Q335 631 344 640Q355 651 357.0 657.5Q359 664 352 670Q349 674 354 693L360 712L400 717Q430 721 442.0 726.5Q454 732 470 732ZM578 577Q578 607 539.0 641.5Q500 676 438 676Q428 676 428 668Q428 662 416.0 647.5Q404 633 404 626Q404 620 391.0 605.0Q378 590 378 573Q378 546 402 523Q414 510 421.0 507.5Q428 505 450 505Q464 505 474.0 504.0Q484 503 487 502L490 501Q504 501 541.0 528.0Q578 555 578 577Z" transform="translate(0.00,958.33) scale(0.9583,-0.9583)" fill="#000000" />
  <path d="M342 672Q345 672 355.5 678.0Q366 684 393.0 690.5Q420 697 463 697Q487 697 550 690Q586 686 595.0 682.5Q604 679 619 663Q641 641 641 638Q641 634 648.0 634.0Q655 634 655 630Q655 626 676.0 610.0Q697 594 697 591Q697 589 703.0 576.5Q709 564 715.5 548.0Q722 532 723 521Q727 503 730 501Q734 498 734 448Q734 420 733.0 405.0Q732 390 730.0 388.0Q728 386 726.5 383.0Q725 380 725 374Q725 365 718.0 357.5Q711 350 711 346Q711 341 680.5 301.0Q650 261 650.0 257.0Q650 253 676.0 224.5Q702 196 702 194Q702 192 718.0 172.5Q734 153 734 146Q734 140 751.5 119.5Q769 99 769 85Q769 50 748 50Q726 50 715.0 59.0Q704 68 704 77Q704 82 686.5 103.0Q669 124 668 126Q663 140 624.0 182.5Q585 225 577 225Q577 225 574.5 222.5Q572 220 563.0 216.0Q554 212 538 210Q532 209 525.0 206.5Q518 204 504.5 202.5Q491 201 465 201Q413 201 370.5 206.0Q328 211 320 211Q307 211 291.5 190.0Q276 169 272 167Q266 166 266 156Q266 151 264.0 148.0Q262 145 256.5 139.5Q251 134 245 126Q240 118 229.5 105.5Q219 93 211.5 83.0Q204 73 202 66Q199 51 194 51Q187 51 163.0 56.5Q139 62 136 64Q133 67 131 85Q130 97 132.5 102.0Q135 107 145 115Q167 132 186.0 152.0Q205 172 209 184Q209 186 224.0 215.5Q239 245 242 247Q246 250 246.0 253.0Q246 256 234.5 264.0Q223 272 221.5 278.0Q220 284 202.0 305.5Q184 327 184 329Q184 331 177 340Q170 347 161.5 378.0Q153 409 153 427Q153 427 153.5 432.5Q154 438 154.0 445.5Q154 453 154 458Q154 475 173.5 510.5Q193 546 200 549Q213 554 226.5 578.0Q240 602 242 602Q244 602 288.0 637.0Q332 672 342 672ZM567 616Q544 628 527.0 631.0Q510 634 457 634Q428 634 416.0 627.5Q404 621 388 621Q353 621 308.5 590.0Q264 559 232.5 514.5Q201 470 201 435Q201 422 210.0 408.5Q219 395 219 390Q219 383 239.0 360.5Q259 338 268 334Q276 331 285.5 317.0Q295 303 301 302Q311 300 327.5 292.5Q344 285 351 278Q363 268 407.0 262.0Q451 256 483 256Q514 256 540.0 266.0Q566 276 579.5 286.5Q593 297 594 297Q600 297 611.0 306.0Q622 315 622 320Q622 322 624.5 324.0Q627 326 631.0 329.0Q635 332 643.0 344.0Q651 356 660 375Q672 399 675.0 409.0Q678 419 678 433Q678 455 675.0 471.0Q672 487 668.0 496.5Q664 506 653 528Q641 554 632.0 566.5Q623 579 619.0 579.5Q615 580 611.5 582.0Q608 584 604 591Q601 599 567 616Z" transform="translate(942.50,958.33) scale(0.9583,-0.9583)" fill="#000000" />
  <path d="M 24.637998,12.488337 H 20.72216 q -1.48166,0 -2.54,-1.058333 -1.05833,-1.058333 -1.05833,-2.54 V 3.598338 q 0,-1.481667 1.05833,-2.54 Q 19.2405,4e-6 20.72216,4e-6 h 3.915838 V 0.846671 H 20.72216 q -1.13241,0 -1.94733,0.814917 -0.80433,0.804333 -0.80433,1.93675 v 5.291666 q 0,1.132417 0.80433,1.93675 0.81492,0.814917 1.94733,0.814917 h 3.915838 z" transform="translate(513.81,0.00) scale(80.0747,80.0747)" fill="#000000" />
  <path d="M 75.014662,0.846671 V 4e-6 h 13.123333 v 0.846667 z m 0,11.641666 v -0.846666 h 13.123333 v 0.846666 z" transform="translate(-3520.08,0.00) scale(80.0747,80.0747)" fill="#000000" />
  <path d="M 75.014662,0.846671 V 4e-6 h 13.123333 v 0.846667 z m 0,11.641666 v -0.846666 h 13.123333 v 0.846666 z" transform="translate(-2469.24,0.00) scale(80.0747,80.0747)" fill="#000000" />
  <path d="m 87.714667,4e-6 h 2.8575 q 1.481666,0 2.54,1.058334 1.058333,1.058333 1.058333,2.54 v 5.291666 q 0,1.481667 -1.058333,2.54 -1.058334,1.058333 -2.54,1.058333 h -2.8575 v -0.846666 h 2.8575 q 1.132416,0 1.93675,-0.814917 0.814916,-0.804333 0.814916,-1.93675 V 3.598338 q 0,-1.132417 -0.814916,-1.93675 -0.804334,-0.814917 -1.93675,-0.814917 h -2.8575 z" transform="translate(-2435.34,0.00) scale(80.0747,80.0747)" fill="#000000" />
  <path d="M 606.00,542.00 C 606.00,546.18 603.91,554.87 603.91,568.08 C 603.91,626.37 650.88,632.48 740.82,636.50 C 786.76,638.55 832.37,640.59 866.94,657.93 L 914.83,665.30 C 914.83,665.30 907.22,714.71 907.17,714.70 C 855.17,706.70 855.17,706.70 855.17,706.70 C 845.62,705.23 841.04,697.37 807.61,691.96 C 759.76,684.22 697.95,688.78 646.90,677.14 C 616.57,670.23 554.06,650.54 554.06,566.86 C 554.06,558.44 554.70,549.61 555.98,540.37 C 555.66,515.94 555.39,491.39 555.39,466.76 C 555.39,362.05 560.27,255.89 586.78,151.80 C 586.78,151.80 635.23,164.14 635.22,164.20 C 610.19,262.47 605.41,365.06 605.41,468.94 C 605.41,502.99 606.00,541.27 606.00,542.00  Z M 188.61,713.52 C 253.17,713.52 264.03,634.00 272.00,554.74 L 272.00,472.00 C 272.00,458.65 280.28,461.80 280.28,420.74 C 280.28,419.96 279.71,388.35 279.71,388.02 C 279.71,353.88 280.47,395.07 291.49,306.05 C 298.20,251.85 305.43,193.50 340.54,158.39 C 358.87,140.06 384.10,129.89 414.62,129.89 C 420.36,129.89 426.27,130.25 432.37,130.98 L 791.06,125.03 C 791.06,125.03 991.54,97.24 991.59,97.24 L 998.46,146.76 C 804.56,173.63 795.49,174.96 793.42,174.99 L 431.00,181.00 C 427.46,181.00 422.24,179.74 413.12,179.74 C 360.94,179.74 351.03,232.07 341.10,312.24 C 338.20,335.68 335.46,358.94 329.84,379.96 C 329.75,382.50 329.71,385.14 329.71,387.86 C 329.71,389.00 330.44,424.31 330.44,424.67 C 330.44,441.15 329.05,459.17 322.00,477.10 L 322.00,556.00 C 322.00,557.04 317.74,616.22 305.93,658.28 C 298.73,683.89 274.89,763.28 187.01,763.28 C 178.49,763.28 169.59,762.51 160.32,760.91 C 114.76,759.15 63.76,752.23 19.97,735.32 C 19.97,735.32 37.99,688.67 38.03,688.68 C 93.01,709.92 166.24,711.18 167.53,711.42 C 175.39,712.86 182.37,713.52 188.61,713.52 Z" transform="translate(2612.12,100.00) scale(0.8000,0.8000)" fill="#000000" />
  <path d="M 427.55,94.97 C 427.55,55.04 457.98,19.33 497.55,17.05 C 498.19,17.05 498.84,17.02 499.48,17.02 C 499.76,17.02 500.03,17.02 500.31,17.04 C 501.70,16.77 503.43,16.55 505.42,16.55 C 512.92,16.55 521.38,19.31 528.65,28.55 L 515.53,38.88 C 517.84,40.97 520.50,44.04 522.59,48.32 C 527.23,53.30 532.48,62.20 532.48,76.94 C 532.48,77.90 532.45,78.86 532.39,79.82 C 533.22,83.45 533.60,87.05 533.60,90.56 C 533.60,118.82 509.41,141.89 483.02,141.89 C 480.67,141.89 478.27,141.71 475.85,141.32 C 473.67,141.53 471.43,141.66 469.11,141.66 C 441.30,141.66 427.76,124.29 427.76,104.67 C 427.76,103.76 427.79,102.85 427.85,101.95 C 427.65,99.61 427.55,97.29 427.55,94.97  Z M 368.22,303.39 C 263.48,313.18 197.70,441.18 197.70,534.24 C 197.70,569.26 205.50,605.88 213.69,643.20 C 217.21,659.26 220.77,675.42 223.63,691.71 L 174.38,700.35 C 171.79,685.54 168.39,670.03 164.87,653.97 C 156.74,616.93 147.70,576.76 147.70,534.62 C 147.70,409.97 236.45,259.73 371.76,253.04 C 372.17,253.02 372.59,253.00 373.00,253.00 C 385.45,253.00 413.33,269.77 433.92,290.37 C 465.61,322.06 486.27,364.46 500.64,409.82 C 508.12,337.95 528.43,242.64 612.05,210.66 C 614.92,209.55 617.96,209.00 621.00,209.00 C 623.39,209.00 690.14,209.54 749.07,268.47 C 833.42,352.82 863.52,508.41 875.89,641.67 L 875.89,641.71 L 826.11,646.33 C 811.09,484.53 766.94,276.22 624.80,259.49 C 517.35,308.06 559.56,548.17 535.23,644.17 C 532.45,655.11 522.57,663.00 511.00,663.00 C 497.76,663.00 486.86,652.71 486.05,639.53 C 480.19,543.46 464.60,352.32 368.22,303.39 Z" transform="translate(3662.97,100.00) scale(0.8000,0.8000)" fill="#000000" />
</svg>
