<?xml version="1.0" encoding="UTF-8" standalone="no"?>
<!--
Representation of "sitelen "mi lon ma soweli"" in sitelen ilo pona
Generated by generate_sitelen_kalama_pona.py

Description:
  Representation of "sitelen "mi lon ma soweli"" in sitelen ilo pona.
  Sources: sitelen: https://commons.wikimedia.org/wiki/File:Sitelen_seli_kiwen_-_sitelen.svg; lon: https://commons.wikimedia.org/wiki/File:Sitelen_seli_kiwen_-_lon.svg; ma: https://commons.wikimedia.org/wiki/File:Sitelen_seli_kiwen_-_ma.svg

Categories:
  [[Category:Sitelen kalama pona]]
  [[Category:Toki Pona text containing sitelen "mi lon ma soweli"]]

Sources:
  sitelen: https://commons.wikimedia.org/wiki/File:Sitelen_seli_kiwen_-_sitelen.svg
  lon: https://commons.wikimedia.org/wiki/File:Sitelen_seli_kiwen_-_lon.svg
  ma: https://commons.wikimedia.org/wiki/File:Sitelen_seli_kiwen_-_ma.svg
-->
<svg version="1.1" width="2747" height="1000"
     viewBox="0 0 2747 1000"
     xmlns="http://www.w3.org/2000/svg">
  <path d="M556 397Q556 406 557.5 412.5Q559 419 570.0 427.0Q581 435 602 435Q616 435 623.5 425.5Q631 416 632 406L633 396Q633 381 623.0 371.5Q613 362 596 362Q574 362 565.0 370.0Q556 378 556 397ZM405 406Q405 439 442 439Q466 439 479 413Q484 403 484.0 398.5Q484 394 477 386Q465 370 438 370Q423 370 415.0 379.0Q407 388 406 397ZM275 408Q275 416 286.5 429.5Q298 443 310 443Q325 443 340.5 430.0Q356 417 356 404Q356 373 307 373Q295 373 285.0 388.0Q275 403 275 408ZM166 161V167Q166 173 166.0 181.5Q166 190 166.5 199.0Q167 208 167.0 217.0Q167 226 167 230Q167 298 164 301Q163 302 167.0 313.5Q171 325 166.0 332.0Q161 339 161 373Q161 388 164.5 440.5Q168 493 169 562Q170 628 174.0 654.5Q178 681 191 697Q200 709 208 709Q215 709 248.5 698.0Q282 687 301 684Q326 681 400 681Q638 681 695 693Q710 697 725 683Q739 671 739 648Q739 618 731.5 561.0Q724 504 722 453Q720 394 717 386Q715 380 718.5 374.5Q722 369 720 360V342Q720 276 728.5 204.0Q737 132 737 123Q737 98 728.5 88.5Q720 79 699.0 79.0Q678 79 678.0 82.0Q678 85 502.0 95.5Q326 106 315 106L286 104Q258 101 227.5 98.5Q197 96 191 96Q175 96 170.5 108.5Q166 121 166 161ZM663 407Q663 482 670.0 515.0Q677 548 677 577Q677 589 673 605L668 624H471Q278 624 266 627Q259 628 252.5 627.5Q246 627 242.0 624.0Q238 621 239 618Q241 613 237.0 608.5Q233 604 235 599Q236 597 236 595Q236 594 235.0 592.0Q234 590 233.0 584.0Q232 578 230.5 568.0Q229 558 228.0 536.5Q227 515 227 486Q227 479 227.0 466.5Q227 454 227.5 441.0Q228 428 228.5 415.5Q229 403 229 395V387V383Q229 379 228.5 372.0Q228 365 227.5 355.0Q227 345 227.0 330.5Q227 316 227 301Q227 246 232 237Q238 225 233 220Q227 214 228.0 203.5Q229 193 236 187Q252 173 354 173Q374 173 390.0 167.0Q406 161 431 161Q453 161 477.5 155.5Q502 150 522 150Q527 150 559.0 151.0Q591 152 628.5 154.5Q666 157 669 160Q674 165 674 200Q674 231 669.0 249.0Q664 267 664 290V318Q664 332 663.5 350.5Q663 369 663 407Z" transform="translate(0.00,958.33) scale(0.9583,-0.9583)" fill="#000000" />
  <path d="M150 252Q150 262 160.5 276.5Q171 291 190 291Q216 291 250.5 285.5Q285 280 296 280Q319 279 382.5 276.0Q446 273 458 273Q470 273 485.5 275.0Q501 277 506 277Q514 277 524.5 272.5Q535 268 538 269Q542 270 614.0 271.0Q686 272 702 278Q713 282 717.5 281.5Q722 281 730 276Q750 263 750 244Q750 213 712 213Q712 213 708.0 213.0Q704 213 695.5 213.5Q687 214 677.0 214.0Q667 214 652.0 214.0Q637 214 622 214Q611 214 601.0 214.0Q591 214 584.5 214.0Q578 214 573.0 213.5Q568 213 566.0 213.0Q564 213 563.5 213.0Q563 213 547.0 213.5Q531 214 505.5 214.5Q480 215 451.5 215.5Q423 216 394.0 216.5Q365 217 346 217Q333 217 322.0 217.0Q311 217 304.0 216.5Q297 216 291.5 216.0Q286 216 283.5 216.0Q281 216 280 216Q273 216 234.5 219.5Q196 223 184 224Q169 225 159.5 233.0Q150 241 150 252ZM388 467Q388 471 393.0 483.0Q398 495 412.5 508.0Q427 521 446 521Q471 521 489.5 491.0Q508 461 508 441Q508 422 487.5 410.0Q467 398 446.0 398.0Q425 398 406.5 422.5Q388 447 388 467Z" transform="translate(942.50,958.33) scale(0.9583,-0.9583)" fill="#000000" />
  <path d="M152 340Q152 341 154.5 344.0Q157 347 156 359V367Q156 391 167.5 424.0Q179 457 192.5 485.0Q206 513 208 517Q213 534 245.0 555.5Q277 577 278 583Q280 589 289.0 594.0Q298 599 302 607Q305 615 318.0 619.5Q331 624 336 632Q340 639 350.0 644.0Q360 649 373.5 653.5Q387 658 394 661Q400 665 424 665Q455 665 491.0 659.0Q527 653 532 645Q536 640 548 640Q551 640 554 640Q576 640 606 621Q618 613 634 603Q645 598 671.5 565.5Q698 533 698 526Q698 520 705.0 515.5Q712 511 712 506Q712 499 718 495Q724 492 732.0 475.0Q740 458 740 450Q740 447 744.0 439.0Q748 431 748 405Q748 372 741.0 333.0Q734 294 725.5 269.5Q717 245 712 245Q712 245 704.5 230.5Q697 216 684.5 199.5Q672 183 660 178Q652 174 652 168Q652 161 646 161Q641 161 624 145Q606 129 570 121Q490 105 480 105Q464 105 452.5 93.0Q441 81 434 81Q423 81 406.0 88.0Q389 95 388 100Q386 108 356 116Q327 124 282.5 146.0Q238 168 238.0 174.0Q238 180 208.5 210.5Q179 241 176 255Q174 268 163.0 301.0Q152 334 152 340ZM390 461Q391 481 392.0 500.0Q393 519 394.5 532.5Q396 546 397.5 558.0Q399 570 400.5 578.0Q402 586 403.0 591.0Q404 596 405.0 599.0Q406 602 406 602Q406 606 400 606Q390 606 375.0 597.0Q360 588 354 578Q349 567 310.0 527.5Q271 488 270 482Q266 474 264 477Q261 479 256.0 475.5Q251 472 247.5 466.0Q244 460 244 456Q244 451 240.5 447.0Q237 443 233.5 441.0Q230 439 226.5 431.5Q223 424 222 411L220 390L232 399Q241 406 250 406Q251 406 275.5 402.0Q300 398 330 398Q386 398 388 408Q388 418 390 461ZM656 491Q656 496 644.0 508.0Q632 520 632 524Q632 530 615.5 542.5Q599 555 579.5 567.5Q560 580 558 583Q550 591 500 597Q493 598 488 599L474 601L472 572Q470 557 467.0 537.5Q464 518 462.0 498.5Q460 479 460 449Q460 414 464.5 407.5Q469 401 488 401Q531 401 570.0 405.5Q609 410 632.5 414.0Q656 418 660 418Q677 418 680.5 418.5Q684 419 684 422Q684 430 675.5 453.0Q667 476 662 480Q656 485 656 491ZM680 345Q680 353 664 353Q655 353 632.0 346.5Q609 340 576 337Q532 333 520 331Q513 331 496.5 333.5Q480 336 474 336Q468 336 466 334Q462 330 462 247Q462 168 468 168Q469 168 489.5 171.0Q510 174 532.5 179.0Q555 184 558 187Q563 194 572.5 194.0Q582 194 614.5 226.0Q647 258 652 272Q658 288 661.5 288.0Q665 288 672.5 311.5Q680 335 680 345ZM336 333Q318 333 302.5 334.0Q287 335 275.5 336.0Q264 337 254.0 338.5Q244 340 237.5 341.5Q231 343 226.5 344.0Q222 345 220.0 346.0Q218 347 218 347Q214 347 214 341Q214 336 218.0 317.0Q222 298 235.0 271.0Q248 244 266 236Q284 228 315.5 200.5Q347 173 370 172L388 171V334L340 333Z" transform="translate(1885.00,958.33) scale(0.9583,-0.9583)" fill="#000000" />
</svg>
