<?xml version="1.0" encoding="UTF-8" standalone="no"?>
<!--
Representation of "pona o" in sitelen kalama pona
Generated by generate_sitelen_kalama_pona.py

Description:
  Representation of "pona o" in sitelen kalama pona.
  Sources: pona: https://commons.wikimedia.org/wiki/File:Sitelen_seli_kiwen_-_pona.svg; o: https://commons.wikimedia.org/wiki/File:Sitelen_seli_kiwen_-_o.svg

Categories:
  [[Category:Sitelen kalama pona]]
  [[Category:Toki Pona text containing pona o]]

Sources:
  pona: https://commons.wikimedia.org/wiki/File:Sitelen_seli_kiwen_-_pona.svg
  o: https://commons.wikimedia.org/wiki/File:Sitelen_seli_kiwen_-_o.svg
-->
<svg version="1.1" width="1805" height="1000"
     viewBox="0 0 1805 1000"
     xmlns="http://www.w3.org/2000/svg">
  <path d="M664 435Q664 444 666.0 452.5Q668 461 679.0 469.0Q690 477 708 477Q742 477 742 453Q742 449 741.0 440.0Q740 431 733.5 407.5Q727 384 715.5 361.0Q704 338 680.5 307.5Q657 277 624 252Q617 246 567.5 227.0Q518 208 510 208Q504 208 477.5 206.0Q451 204 440 204Q393 204 344.5 224.5Q296 245 294 245Q288 245 288 250Q288 254 269.0 273.0Q250 292 245.5 292.0Q241 292 219.5 323.0Q198 354 198 360Q198 364 193.5 369.5Q189 375 184 389Q182 399 170.0 426.0Q158 453 158 460Q158 464 165.5 479.5Q173 495 180 495Q183 495 188 489Q190 486 192.0 487.0Q194 488 198.5 490.0Q203 492 206 492Q221 492 226 462Q228 447 244.5 411.5Q261 376 274 358Q293 332 311.0 319.0Q329 306 382 280Q413 265 454 265Q535 265 594 311Q618 329 626 335Q634 340 643.0 365.0Q652 390 658.0 411.5Q664 433 664 435Z" transform="translate(0.00,958.33) scale(0.9583,-0.9583)" fill="#000000" />
  <path d="M596 170Q596 145 587.0 128.0Q578 111 569.0 103.0Q560 95 560 92Q560 87 535.5 62.5Q511 38 494 26Q472 9 404 9Q376 9 376 16Q376 19 350 33Q324 47 314.0 64.5Q304 82 304 115Q304 148 311.5 167.5Q319 187 336 204Q354 222 358.5 222.0Q363 222 364 231Q364 233 371.0 241.0Q378 249 395.5 258.5Q413 268 434 268Q453 268 477.5 263.0Q502 258 530.0 248.0Q558 238 577.0 217.5Q596 197 596 170ZM366 127Q366 116 379.5 96.5Q393 77 416 77Q456 77 468.5 83.5Q481 90 502 118Q528 151 528 166Q528 176 524.0 182.0Q520 188 515.5 190.5Q511 193 500 197Q478 206 456 206Q447 206 435.5 202.5Q424 199 417.0 195.0Q410 191 410 189Q410 186 400 182Q394 180 385.0 166.5Q376 153 376 144Q376 140 371.0 136.5Q366 133 366 127ZM454 739Q461 739 472.0 736.0Q483 733 484 733Q486 733 490.0 714.5Q494 696 494 681V673Q494 657 495.0 637.5Q496 618 496 607Q496 578 492.0 527.0Q488 476 488 446Q488 431 488.5 420.0Q489 409 489.5 403.0Q490 397 490 396Q490 392 489.0 386.0Q488 380 483.0 370.0Q478 360 470 360Q466 360 460 363Q450 369 446.5 361.5Q443 354 430 363Q418 370 418 384Q418 388 424.5 404.5Q431 421 432 463Q432 492 435.0 529.5Q438 567 438 599Q438 603 432.0 641.0Q426 679 426 697Q426 739 454 739Z" transform="translate(942.50,958.33) scale(0.9583,-0.9583)" fill="#000000" />
</svg>
