<?xml version="1.0" encoding="UTF-8" standalone="no"?>
<!--
Representation of "tomo nasin" in sitelen kalama pona
Generated by generate_sitelen_kalama_pona.py

Description:
  Representation of "tomo nasin" in sitelen kalama pona.
  Sources: tomo-nasin: https://commons.wikimedia.org/wiki/File:Sitelen_seli_kiwen_-_tomo-nasin.svg

Categories:
  [[Category:Sitelen kalama pona]]
  [[Category:Toki Pona text containing tomo nasin]]

Sources:
  tomo-nasin: https://commons.wikimedia.org/wiki/File:Sitelen_seli_kiwen_-_tomo-nasin.svg
-->
<svg version="1.1" width="862" height="1000"
     viewBox="0 0 862 1000"
     xmlns="http://www.w3.org/2000/svg">
  <path d="M280 319Q280 329 277.5 338.0Q275 347 275 351Q275 359 283.0 364.0Q291 369 313 376Q341 384 356.0 393.5Q371 403 404 433L423 451V492Q423 523 419.0 545.0Q415 567 415 568Q415 575 422 586Q430 600 439 600Q471 600 478 593Q480 591 487.0 569.5Q494 548 494 537Q494 532 490.0 520.0Q486 508 486 494Q486 471 496.0 458.5Q506 446 506 445Q506 442 514.5 436.0Q523 430 533.5 421.5Q544 413 549 405Q557 390 583 374Q602 362 605.5 357.0Q609 352 609 336Q609 297 582 297Q568 297 548.0 313.5Q528 330 527 330Q524 330 508.0 347.0Q492 364 485 364Q483 364 481 361Q478 355 479.5 348.0Q481 341 476 335Q472 330 472 326Q472 325 474.0 319.5Q476 314 478.0 302.0Q480 290 480 271V234L452 227Q432 222 429 222Q423 222 415 231Q405 242 405 272V296Q405 330 403.0 330.0Q401 330 380.5 320.5Q360 311 354 311Q349 311 344.0 306.0Q339 301 327 301Q312 301 296.0 306.5Q280 312 280 319ZM478 96Q474 96 430.5 92.0Q387 88 338 88Q287 88 254.5 93.0Q222 98 209.5 103.5Q197 109 193 109Q191 109 188 108Q185 107 178 107Q164 107 145.0 112.0Q126 117 119 123Q101 139 101 165Q101 172 104 177Q109 186 111.0 220.5Q113 255 114.5 305.0Q116 355 119 382Q121 399 120.0 405.0Q119 411 113 415Q101 422 101 437Q101 450 112.0 466.0Q123 482 136 490Q149 496 149 504Q149 508 153.0 511.5Q157 515 170.5 524.5Q184 534 198.0 547.0Q212 560 248.0 584.0Q284 608 329 646Q386 696 391 696Q392 696 404.5 709.5Q417 723 438.0 736.5Q459 750 478 750Q501 750 534 718Q545 707 560 695Q566 691 584.0 671.5Q602 652 617.5 636.0Q633 620 636 620Q640 620 663.5 599.5Q687 579 718.0 550.0Q749 521 764 509Q799 481 799 459Q799 439 789 434Q784 431 779.5 413.5Q775 396 775 381Q775 376 776.0 371.5Q777 367 778.0 364.5Q779 362 780.0 360.5Q781 359 780.5 358.5Q780 358 778 358H777Q770 358 770 220Q770 152 773 139Q777 118 771 103Q761 80 721 80Q697 80 673.0 87.0Q649 94 647 94Q645 94 643 93Q641 92 638 92Q636 92 629.0 94.0Q622 96 608.0 98.0Q594 100 575 100Q545 100 525.0 95.5Q505 91 505 91Q501 91 496 93Q491 96 478 96ZM632 545Q632 548 622.5 552.0Q613 556 613 562Q613 566 602.0 572.0Q591 578 568.0 593.5Q545 609 524 629Q505 648 497 648Q491 648 491 654Q491 657 483 669L475 680L454 663Q437 649 400.5 615.0Q364 581 344 569Q331 561 300.0 536.0Q269 511 259 506Q215 487 206 444Q183 333 179 242L177 190L207 180Q227 173 262 160Q303 146 540 146Q547 146 560.5 146.0Q574 146 588.5 146.0Q603 146 616.5 146.5Q630 147 639 147H648Q662 147 676.0 147.0Q690 147 691 147Q699 147 700 148Q701 149 701 150Q701 151 699.0 157.5Q697 164 697 170Q697 180 701 191Q704 201 704 207Q704 211 702.0 219.5Q700 228 700 237Q700 242 702.5 256.0Q705 270 706 325Q706 384 708 426L710 463L671 502Q632 541 632 545Z" transform="translate(0.00,958.33) scale(0.9583,-0.9583)" fill="#000000" />
</svg>
