<?xml version="1.0" encoding="UTF-8" standalone="no"?>
<!--
Representation of "suwi pimeja" in sitelen ilo pona
Generated by generate_sitelen_kalama_pona.py

Description:
  Representation of "suwi pimeja" in sitelen ilo pona.
  Sources: suwi: https://commons.wikimedia.org/wiki/File:Sitelen_seli_kiwen_-_suwi.svg; pimeja: https://commons.wikimedia.org/wiki/File:Sitelen_seli_kiwen_-_pimeja.svg

Categories:
  [[Category:Sitelen kalama pona]]
  [[Category:Toki Pona text containing suwi pimeja]]

Sources:
  suwi: https://commons.wikimedia.org/wiki/File:Sitelen_seli_kiwen_-_suwi.svg
  pimeja: https://commons.wikimedia.org/wiki/File:Sitelen_seli_kiwen_-_pimeja.svg
-->
<svg version="1.1" width="1805" height="1000"
     viewBox="0 0 1805 1000"
     xmlns="http://www.w3.org/2000/svg">
  <path d="M476 164Q469 164 459.0 167.0Q449 170 436.5 177.5Q424 185 415.5 202.0Q407 219 407 243Q407 258 410.0 262.5Q413 267 430 278Q452 292 468 292Q475 292 480.0 287.5Q485 283 491 283Q499 283 514.0 259.0Q529 235 529 222Q529 197 513.5 180.5Q498 164 476 164ZM167 681Q185 681 248.5 611.0Q312 541 316 541Q318 541 339 524Q348 516 352.0 512.0Q356 508 360.0 495.5Q364 483 364 465Q364 442 344 442Q329 442 318.5 452.0Q308 462 301.5 473.5Q295 485 292 486Q285 488 285 496Q285 503 282.0 503.0Q279 503 263.5 517.0Q248 531 246.0 531.0Q244 531 214.5 559.5Q185 588 176 588Q168 588 159.5 573.0Q151 558 141.0 538.0Q131 518 123 511Q114 503 102.0 470.5Q90 438 80 437Q78 437 74.5 436.5Q71 436 69 436Q50 436 37.5 443.0Q25 450 22.0 456.0Q19 462 19 464Q19 468 30.0 483.0Q41 498 41 500Q41 501 49.0 510.5Q57 520 66.0 531.5Q75 543 77 549Q80 559 83 559Q87 559 97.0 579.0Q107 599 107 606Q107 612 116.5 623.5Q126 635 126.0 636.0Q126 637 132.5 648.0Q139 659 149.0 670.0Q159 681 167 681ZM641 658Q644 658 655.0 674.5Q666 691 678 691Q689 691 702.5 681.5Q716 672 719 662Q723 653 728 653Q735 653 735 645Q735 638 747.0 625.5Q759 613 759 610Q759 602 783.0 570.0Q807 538 809 532Q811 522 817 522Q821 522 830.5 503.0Q840 484 847 480Q856 475 868.5 453.0Q881 431 881 419Q881 409 874.5 404.0Q868 399 861 403Q860 404 843.0 407.0Q826 410 822 417Q820 419 795.5 446.5Q771 474 763 491Q757 503 746.5 518.0Q736 533 728.5 543.0Q721 553 721 556Q721 561 703.0 576.5Q685 592 678 592Q673 592 666.0 582.5Q659 573 649.5 558.5Q640 544 632 536Q619 523 616 510Q612 494 594.5 469.0Q577 444 564 444Q556 444 540.5 449.5Q525 455 525 464Q525 489 552 518Q570 536 579.0 556.0Q588 576 595 586Q609 605 609 610Q609 613 623.0 630.5Q637 648 637 652Q637 658 641 658Z" transform="translate(0.00,958.33) scale(0.9583,-0.9583)" fill="#000000" />
  <path d="M400 629Q400 631 416.0 652.5Q432 674 457.0 696.0Q482 718 500 718Q510 718 532 708Q546 701 551.5 695.5Q557 690 562 677Q567 666 571.5 642.5Q576 619 590 588L616 524Q619 520 663.5 435.0Q708 350 718 339Q724 331 724 321Q724 314 731.0 306.0Q738 298 738 296Q738 290 747.5 270.0Q757 250 760 248Q766 245 766 237Q766 232 783.0 209.0Q800 186 806 171Q810 157 825.0 135.0Q840 113 840 101Q840 100 839.5 97.5Q839 95 836.5 89.5Q834 84 830.5 80.0Q827 76 818.5 72.5Q810 69 800 69Q780 69 752.5 71.5Q725 74 720 77Q717 80 660.0 84.0Q603 88 558 88Q549 88 498.5 87.0Q448 86 386.5 83.0Q325 80 318 76Q308 71 178 71Q98 71 88 74Q78 77 69.0 92.0Q60 107 60 120Q60 130 81.5 155.0Q103 180 129.5 214.0Q156 248 166 277Q170 291 185.0 308.0Q200 325 202 335Q205 348 208 348Q211 348 237.5 387.5Q264 427 264 431Q264 434 280.0 449.0Q296 464 296.0 468.0Q296 472 312.0 488.0Q328 504 328 507Q328 514 341.0 530.5Q354 547 354 552Q354 556 368.0 571.0Q382 586 382.0 592.0Q382 598 391.0 612.0Q400 626 400 629ZM348 422Q348 406 379.5 361.5Q411 317 420 317Q430 317 446 340Q454 349 477.0 373.0Q500 397 518.5 417.0Q537 437 538 442Q541 449 552.0 455.0Q563 461 574 461Q582 461 582 464Q582 466 572.5 484.0Q563 502 552.0 522.5Q541 543 538 550Q536 558 530.5 564.5Q525 571 524.5 579.0Q524 587 516.0 601.0Q508 615 508 623Q508 627 506.0 632.0Q504 637 502 637Q497 637 481.5 622.0Q466 607 466 602Q466 594 438.0 559.0Q410 524 410 524Q410 523 396.0 503.0Q382 483 382 477Q382 472 365.0 450.0Q348 428 348 422ZM612 403Q598 403 557.5 364.0Q517 325 514 325Q508 325 508 319Q508 313 484 283L460 254L470 244Q476 238 496.0 202.5Q516 167 532 161Q549 154 684 154Q715 154 722.5 155.0Q730 156 730 161Q730 174 703.0 224.0Q676 274 672 285Q667 302 642.0 352.5Q617 403 612 403ZM342 310Q334 319 324.0 330.5Q314 342 308.5 347.5Q303 353 300 353Q290 352 273.0 321.5Q256 291 256 291Q253 290 232.0 258.5Q211 227 208 227Q204 227 204 215Q204 207 193.0 195.5Q182 184 178 163L174 149L226 150Q273 152 286 154Q294 155 306.0 170.0Q318 185 318.0 193.0Q318 201 326.0 203.5Q334 206 336 213Q338 218 354.0 233.5Q370 249 370 262Q370 284 342 310ZM438 180Q436 181 434.0 186.0Q432 191 429.0 194.5Q426 198 422 198Q417 197 396.5 178.0Q376 159 376.0 155.0Q376 151 422 151H434L456 152L448 164Q442 176 438 180Z" transform="translate(942.50,958.33) scale(0.9583,-0.9583)" fill="#000000" />
</svg>
