<?xml version="1.0" encoding="UTF-8" standalone="no"?>
<!--
Representation of "Siwen" in sitelen kalama pona
Generated by generate_sitelen_kalama_pona.py

Description:
  Representation of "Siwen" in sitelen kalama pona.
  Sources: si: https://commons.wikimedia.org/wiki/File:Sitelen_kalama_pona_-_si.svg; wen: https://commons.wikimedia.org/wiki/File:Sitelen_kalama_pona_-_wen.svg

Categories:
  [[Category:Sitelen kalama pona]]
  [[Category:Toki Pona text containing sound symbol Si]]
  [[Category:Toki Pona text containing sound symbol Wen]]

Sources:
  si: https://commons.wikimedia.org/wiki/File:Sitelen_kalama_pona_-_si.svg
  wen: https://commons.wikimedia.org/wiki/File:Sitelen_kalama_pona_-_wen.svg
-->
<svg version="1.1" width="3220" height="1000"
     viewBox="0 0 3220 1000"
     xmlns="http://www.w3.org/2000/svg">
  <path d="M 24.637998,12.488337 H 20.72216 q -1.48166,0 -2.54,-1.058333 -1.05833,-1.058333 -1.05833,-2.54 V 3.598338 q 0,-1.481667 1.05833,-2.54 Q 19.2405,4e-6 20.72216,4e-6 h 3.915838 V 0.846671 H 20.72216 q -1.13241,0 -1.94733,0.814917 -0.80433,0.804333 -0.80433,1.93675 v 5.291666 q 0,1.132417 0.80433,1.93675 0.81492,0.814917 1.94733,0.814917 h 3.915838 z" transform="translate(-1371.19,0.00) scale(80.0747,80.0747)" fill="#000000" />
  <path d="M 75.014662,0.846671 V 4e-6 h 13.123333 v 0.846667 z m 0,11.641666 v -0.846666 h 13.123333 v 0.846666 z" transform="translate(-5405.08,0.00) scale(80.0747,80.0747)" fill="#000000" />
  <path d="M 75.014662,0.846671 V 4e-6 h 13.123333 v 0.846667 z m 0,11.641666 v -0.846666 h 13.123333 v 0.846666 z" transform="translate(-4354.24,0.00) scale(80.0747,80.0747)" fill="#000000" />
  <path d="m 87.714667,4e-6 h 2.8575 q 1.481666,0 2.54,1.058334 1.058333,1.058333 1.058333,2.54 v 5.291666 q 0,1.481667 -1.058333,2.54 -1.058334,1.058333 -2.54,1.058333 h -2.8575 v -0.846666 h 2.8575 q 1.132416,0 1.93675,-0.814917 0.814916,-0.804333 0.814916,-1.93675 V 3.598338 q 0,-1.132417 -0.814916,-1.93675 -0.804334,-0.814917 -1.93675,-0.814917 h -2.8575 z" transform="translate(-4320.34,0.00) scale(80.0747,80.0747)" fill="#000000" />
  <path d="M 463.00,119.00 C 450.73,119.00 395.37,101.32 395.37,62.11 C 395.37,52.70 398.92,44.22 403.57,38.02 L 401.79,32.06 L 413.64,28.51 C 420.12,24.04 428.56,21.00 435.00,21.00 C 435.85,21.00 436.71,21.05 437.56,21.14 C 438.47,20.87 439.92,20.51 442.59,20.51 C 451.27,20.51 456.09,23.30 458.35,24.77 C 468.23,25.64 476.86,28.46 484.18,35.78 C 491.41,43.00 494.18,52.76 494.18,61.57 C 494.18,62.64 494.14,63.69 494.06,64.73 C 494.16,66.89 494.27,69.36 494.27,72.08 C 494.27,96.97 482.63,119.00 463.00,119.00  Z M 519.20,142.62 C 563.42,142.62 590.00,165.34 590.00,186.00 L 590.00,194.00 L 541.73,194.00 C 542.00,195.38 542.27,196.76 542.95,197.74 C 540.81,196.28 532.41,192.66 518.53,192.66 C 517.38,192.66 516.28,192.69 515.24,192.74 C 463.42,206.95 389.46,253.45 389.46,318.95 C 389.46,354.12 424.15,384.23 455.23,411.20 C 494.33,445.13 540.22,484.96 540.22,550.82 C 540.22,566.94 536.74,607.11 505.05,638.79 C 474.37,669.47 423.97,688.31 335.16,688.31 C 319.56,688.31 306.63,688.20 257.34,684.94 C 257.34,684.94 260.63,635.06 260.66,635.06 C 291.88,637.12 312.69,638.24 335.52,638.24 C 401.15,638.24 490.24,628.10 490.24,550.46 C 490.24,509.06 462.15,483.41 422.49,449.00 C 387.42,418.56 349.44,385.60 340.39,334.38 C 340.36,334.23 339.47,328.38 339.47,318.99 C 339.47,229.47 426.73,164.12 504.67,143.81 C 506.02,143.46 510.20,142.62 519.20,142.62 Z" transform="translate(727.12,100.00) scale(0.8000,0.8000)" fill="#000000" />
  <path d="M 427.60,902.87 C 389.78,902.87 353.14,925.73 345.61,968.37 C 345.61,968.37 296.38,959.68 296.39,959.63 C 307.82,894.86 363.43,852.88 427.55,852.88 C 429.20,852.88 430.85,852.91 432.51,852.97 C 434.36,852.84 436.19,852.78 437.99,852.78 C 480.36,852.78 501.45,883.93 516.73,906.51 C 531.67,928.57 539.40,938.05 553.12,938.05 C 564.33,938.05 570.54,933.00 579.00,933.00 C 582.08,933.00 583.38,933.56 587.73,933.56 C 603.39,933.56 618.75,925.01 637.89,909.68 L 684.62,859.05 L 721.38,892.95 C 672.14,946.30 672.14,946.30 670.72,947.44 C 649.72,964.45 622.72,983.58 588.06,983.58 C 586.01,983.58 583.93,983.51 581.83,983.38 C 571.83,986.40 562.14,987.94 552.89,987.94 C 511.48,987.94 490.96,957.64 475.30,934.51 C 458.85,910.21 451.66,902.71 439.15,902.71 C 436.30,902.71 435.16,903.00 433.00,903.00 C 432.95,903.00 429.39,902.87 427.60,902.87  Z M 49.97,136.08 C 58.81,161.41 86.65,169.58 138.41,169.58 C 142.31,169.58 198.53,168.32 199.14,168.32 C 215.53,168.32 225.95,169.55 226.22,169.55 C 235.88,169.55 244.22,167.81 253.07,167.81 C 288.01,167.81 293.31,192.77 293.31,203.56 C 293.31,220.27 275.97,257.20 275.97,323.38 C 275.97,325.65 276.00,327.95 276.00,328.00 C 276.00,330.84 275.45,332.60 275.45,337.96 C 275.45,377.33 309.08,420.19 350.77,420.19 C 358.26,420.19 360.81,419.00 365.00,419.00 C 366.94,419.00 369.56,419.36 374.79,419.36 C 441.92,419.36 457.80,345.40 472.06,259.00 C 473.38,251.05 474.66,243.26 476.00,235.75 L 476.00,214.00 C 476.00,200.19 487.19,189.00 501.00,189.00 C 513.59,189.00 524.13,198.32 525.78,210.68 C 527.27,221.90 528.35,233.80 529.46,246.02 C 536.41,322.00 545.09,378.87 595.15,382.78 C 648.66,361.39 661.85,284.26 672.84,216.29 C 679.29,176.36 679.41,176.23 685.32,170.32 C 690.20,165.44 696.60,163.00 703.00,163.00 C 713.96,163.00 723.39,170.08 726.72,180.09 C 752.95,259.03 756.10,340.89 756.10,420.52 C 756.10,420.90 755.76,499.79 755.76,500.59 C 755.76,510.96 755.81,521.27 755.96,531.51 C 758.12,543.52 759.17,554.99 759.17,565.89 C 759.17,711.51 583.43,716.30 477.52,716.30 C 458.76,716.30 439.93,716.08 422.42,716.08 C 407.10,716.08 393.18,716.25 381.41,716.90 C 370.65,718.34 360.19,718.93 349.97,718.93 C 306.09,718.93 265.29,707.95 222.44,706.99 C 222.44,706.99 223.56,657.01 223.56,657.01 C 270.26,658.06 310.38,668.89 350.49,668.89 C 375.27,668.89 363.10,666.08 421.48,666.08 C 437.73,666.08 455.07,666.29 474.09,666.29 C 539.64,666.29 645.58,664.86 688.40,622.03 C 700.96,609.48 709.41,592.98 709.41,567.41 C 709.41,550.68 706.09,539.35 706.01,534.40 C 705.83,523.12 705.77,511.84 705.77,500.57 C 705.77,500.34 706.08,425.99 706.08,425.24 C 706.08,388.79 705.45,352.80 702.52,317.63 C 691.90,351.94 668.62,410.90 607.02,431.68 C 604.42,432.56 601.71,433.00 599.00,433.00 C 576.59,433.00 526.25,425.48 500.62,362.02 C 491.92,388.51 464.01,469.31 373.85,469.31 C 371.31,469.31 368.75,469.25 366.14,469.11 C 360.95,469.84 355.82,470.18 350.77,470.18 C 282.09,470.18 225.42,405.83 225.42,338.50 C 225.42,334.62 225.61,330.73 225.99,326.82 C 225.98,325.67 225.98,324.51 225.98,323.35 C 225.98,287.83 230.71,252.65 239.21,219.03 C 235.68,219.39 231.75,219.73 227.44,219.73 C 217.37,219.73 220.12,218.35 199.36,218.35 C 180.03,218.35 158.29,219.66 137.37,219.66 C 97.76,219.66 20.97,216.78 0.97,146.91 C 0.03,143.62 -0.04,140.92 -0.04,137.68 C -0.04,93.89 33.51,60.15 85.12,51.29 C 212.94,29.35 212.58,27.01 214.90,27.01 L 722.90,25.01 L 723.10,74.99 L 217.42,76.99 C 118.62,95.81 93.22,100.67 91.96,100.82 C 86.11,101.51 51.03,106.87 49.97,136.08 Z" transform="translate(1777.97,100.00) scale(0.8000,0.8000)" fill="#000000" />
</svg>
