<?xml version="1.0" encoding="UTF-8" standalone="no"?>
<!--
Representation of "lipu kule" in sitelen ilo pona
Generated by generate_sitelen_kalama_pona.py

Description:
  Representation of "lipu kule" in sitelen ilo pona.
  Sources: lipu-kule: https://commons.wikimedia.org/wiki/File:Sitelen_seli_kiwen_-_lipu-kule.svg

Categories:
  [[Category:Sitelen kalama pona]]
  [[Category:Toki Pona text containing lipu kule]]

Sources:
  lipu-kule: https://commons.wikimedia.org/wiki/File:Sitelen_seli_kiwen_-_lipu-kule.svg
-->
<svg version="1.1" width="862" height="1000"
     viewBox="0 0 862 1000"
     xmlns="http://www.w3.org/2000/svg">
  <path d="M635 267Q635 260 623.0 246.5Q611 233 604 233Q601 233 584.0 236.0Q567 239 562 239Q547 239 528 241Q509 244 385 252Q377 253 365 253Q346 253 337 247Q325 240 316 243Q309 245 301.5 241.0Q294 237 290 237Q277 237 269 252Q264 264 257 264Q249 264 249 270Q249 278 262 294Q288 326 311 378Q312 379 310 380Q307 381 302 379Q295 377 286.0 381.5Q277 386 271 385Q262 383 249 389Q237 395 237 411Q237 426 249.5 432.0Q262 438 295 438Q323 438 334.5 443.5Q346 449 354 468Q355 470 361.5 480.5Q368 491 372.5 500.5Q377 510 377 516Q377 526 382 529Q384 530 384.5 531.0Q385 532 384.5 534.0Q384 536 384 537Q384 545 397.5 566.0Q411 587 419 591Q429 596 443 596Q455 596 461 591Q467 586 476.0 568.0Q485 550 485 542Q485 532 497.0 506.5Q509 481 522 464Q538 442 548 445Q569 451 583 451Q593 451 593 447Q593 442 600 442Q607 442 616 430Q625 418 619 409Q613 400 608 400Q601 400 585 393Q574 388 572.0 386.0Q570 384 574 376Q580 364 586 361Q593 356 593 352Q593 348 603 336Q612 327 614 313Q615 304 625.0 290.5Q635 277 635 267ZM472 441Q472 451 453.5 468.0Q435 485 428 485Q420 485 415 474Q412 465 399 450Q393 442 393 438Q393 429 421 429Q472 429 472 441ZM421 376Q408 376 388.5 377.5Q369 379 366 379Q351 379 351 351Q351 330 360.0 321.0Q369 312 391 308Q448 299 511 299H528Q544 299 544 309Q544 320 539.0 330.0Q534 340 524.0 352.0Q514 364 512 368Q505 379 494 379Q484 379 459.5 377.5Q435 376 421 376ZM462 762Q490 762 549.5 758.5Q609 755 628 755Q647 755 656 764Q668 776 679 771Q691 767 696 773Q701 779 704.0 779.0Q707 779 718 773Q750 755 750 726Q750 712 741 698Q731 684 729 677Q722 648 722 546Q722 472 728 464Q731 460 739.0 364.0Q747 268 747 236V229Q747 209 752 184Q758 149 762.5 136.5Q767 124 771 97Q773 87 774.5 72.0Q776 57 777 55Q778 47 771.5 41.0Q765 35 754.0 35.0Q743 35 741 31Q739 28 708 28Q677 28 630.0 32.0Q583 36 555 37Q370 45 370 48Q370 48 342.0 49.5Q314 51 277.0 52.0Q240 53 219 53H216Q151 53 131 75Q123 83 123 92Q123 106 141 124L153 137L149 267Q146 360 146 429Q146 442 146.5 466.0Q147 490 147 498V591Q147 618 141.5 662.5Q136 707 131 720Q131 720 130.5 722.0Q130 724 130 724Q130 732 141.5 739.5Q153 747 163 747Q170 747 173 742Q176 737 184.0 738.0Q192 739 197 745Q202 752 214 754Q225 756 225 756Q225 756 271.0 757.5Q317 759 375.5 760.5Q434 762 462 762ZM561 709Q528 709 463.5 710.5Q399 712 377 712Q364 712 301.5 709.5Q239 707 238 704Q237 703 214 703Q204 703 195.5 698.0Q187 693 187 688Q187 685 189.0 680.0Q191 675 192 672Q192 665 199 644Q204 629 204 572Q204 558 203.5 524.0Q203 490 203 481Q203 466 205.0 436.5Q207 407 207 392Q207 375 205.0 364.0Q203 353 203 343Q203 334 206.0 304.0Q209 274 209 270Q209 258 208.0 236.0Q207 214 207 205Q207 167 211 147Q215 129 225.5 123.5Q236 118 272 116Q312 113 344 112Q394 109 429.0 105.5Q464 102 477.0 101.0Q490 100 523.5 99.0Q557 98 622 98Q669 98 674 99L693 102V166Q693 200 689.0 245.5Q685 291 685 315Q685 320 685.5 336.0Q686 352 686 359Q686 406 677 440Q663 496 661 634Q660 686 655.0 697.5Q650 709 626 709Z" transform="translate(0.00,958.33) scale(0.9583,-0.9583)" fill="#000000" />
</svg>
