<?xml version="1.0" encoding="UTF-8" standalone="no"?>
<!--
Representation of "kulupu ma Piten" in sitelen ilo pona
Generated by generate_sitelen_kalama_pona.py

Description:
  Representation of "kulupu ma Piten" in sitelen ilo pona.
  Sources: kulupu: https://commons.wikimedia.org/wiki/File:Sitelen_seli_kiwen_-_kulupu.svg; ma: https://commons.wikimedia.org/wiki/File:Sitelen_seli_kiwen_-_ma.svg; pi: https://commons.wikimedia.org/wiki/File:Sitelen_kalama_pona_-_pi.svg; ten: https://commons.wikimedia.org/wiki/File:Sitelen_kalama_pona_-_ten.svg

Categories:
  [[Category:Sitelen kalama pona]]
  [[Category:Toki Pona text containing kulupu ma]]
  [[Category:Toki Pona text containing sound symbol Pi]]
  [[Category:Toki Pona text containing sound symbol Ten]]

Sources:
  kulupu: https://commons.wikimedia.org/wiki/File:Sitelen_seli_kiwen_-_kulupu.svg
  ma: https://commons.wikimedia.org/wiki/File:Sitelen_seli_kiwen_-_ma.svg
  pi: https://commons.wikimedia.org/wiki/File:Sitelen_kalama_pona_-_pi.svg
  ten: https://commons.wikimedia.org/wiki/File:Sitelen_kalama_pona_-_ten.svg
-->
<svg version="1.1" width="5105" height="1000"
     viewBox="0 0 5105 1000"
     xmlns="http://www.w3.org/2000/svg">
  <path d="M416 252Q416 226 407.0 204.5Q398 183 390.0 174.5Q382 166 380 166Q377 166 354 144Q332 124 310.5 115.5Q289 107 246 107Q172 107 138 138Q97 175 88.5 188.5Q80 202 80 234Q80 270 82.5 280.0Q85 290 92 296Q99 302 101.0 304.0Q103 306 103.5 307.5Q104 309 106.5 312.0Q109 315 120.5 326.0Q132 337 152 354Q178 379 238 379Q319 379 360 358Q386 344 401.0 315.0Q416 286 416 252ZM346 263Q346 280 338.0 291.0Q330 302 315.0 307.0Q300 312 286.0 313.5Q272 315 252 315Q214 315 189.5 302.0Q165 289 160 278Q155 264 148 264Q142 264 142 255Q142 241 153.5 220.0Q165 199 178 196Q182 195 207.5 185.5Q233 176 252 176Q279 176 295.0 187.5Q311 199 317.5 210.5Q324 222 326 222Q333 222 339.5 235.0Q346 248 346 263ZM820 263Q820 245 817.0 233.0Q814 221 811.0 217.5Q808 214 805.0 211.0Q802 208 802 204Q802 198 794.0 182.0Q786 166 784 166Q781 166 758.0 144.5Q735 123 728 123Q718 123 706.0 117.5Q694 112 694 108Q694 106 676 106Q625 106 598.0 116.0Q571 126 538 153Q527 162 522.0 168.5Q517 175 512.5 194.0Q508 213 508 244Q508 286 520 297Q540 313 540 340Q540 357 561.0 375.5Q582 394 600 394Q629 394 643.5 399.0Q658 404 682 404Q709 404 727.5 399.0Q746 394 760.5 379.5Q775 365 783.0 352.0Q791 339 806 310Q813 297 816 297Q820 297 820 263ZM666 182Q669 182 673.5 181.0Q678 180 680 180Q690 180 702.0 189.0Q714 198 716 198Q721 198 735.5 228.0Q750 258 750 269Q750 273 748 273Q746 273 741.0 285.0Q736 297 728.0 312.5Q720 328 710 335Q706 338 678 338Q653 338 642.0 335.5Q631 333 616 323Q604 316 590 310Q585 309 583.5 303.0Q582 297 582 281Q582 255 578 255Q574 255 574 251Q574 248 578.0 235.5Q582 223 582 217Q582 203 600.0 191.5Q618 180 633.0 176.0Q648 172 652 172Q656 172 659.0 177.0Q662 182 666 182ZM470 732Q500 732 527.0 722.5Q554 713 566.0 705.0Q578 697 578 695Q578 692 585.0 685.0Q592 678 602.0 665.0Q612 652 618 639Q628 617 636 611Q642 605 642 580Q642 520 602 484Q589 473 578.5 466.0Q568 459 563.5 457.0Q559 455 556.0 452.5Q553 450 552 444Q549 433 536 433Q525 433 494.0 431.5Q463 430 456 430Q419 430 398.5 438.0Q378 446 358 467Q338 487 330.0 504.0Q322 521 322 522Q308 538 308 579Q308 597 314 597Q317 597 320.0 603.0Q323 609 329.0 620.0Q335 631 344 640Q355 651 357.0 657.5Q359 664 352 670Q349 674 354 693L360 712L400 717Q430 721 442.0 726.5Q454 732 470 732ZM578 577Q578 607 539.0 641.5Q500 676 438 676Q428 676 428 668Q428 662 416.0 647.5Q404 633 404 626Q404 620 391.0 605.0Q378 590 378 573Q378 546 402 523Q414 510 421.0 507.5Q428 505 450 505Q464 505 474.0 504.0Q484 503 487 502L490 501Q504 501 541.0 528.0Q578 555 578 577Z" transform="translate(0.00,958.33) scale(0.9583,-0.9583)" fill="#000000" />
  <path d="M152 340Q152 341 154.5 344.0Q157 347 156 359V367Q156 391 167.5 424.0Q179 457 192.5 485.0Q206 513 208 517Q213 534 245.0 555.5Q277 577 278 583Q280 589 289.0 594.0Q298 599 302 607Q305 615 318.0 619.5Q331 624 336 632Q340 639 350.0 644.0Q360 649 373.5 653.5Q387 658 394 661Q400 665 424 665Q455 665 491.0 659.0Q527 653 532 645Q536 640 548 640Q551 640 554 640Q576 640 606 621Q618 613 634 603Q645 598 671.5 565.5Q698 533 698 526Q698 520 705.0 515.5Q712 511 712 506Q712 499 718 495Q724 492 732.0 475.0Q740 458 740 450Q740 447 744.0 439.0Q748 431 748 405Q748 372 741.0 333.0Q734 294 725.5 269.5Q717 245 712 245Q712 245 704.5 230.5Q697 216 684.5 199.5Q672 183 660 178Q652 174 652 168Q652 161 646 161Q641 161 624 145Q606 129 570 121Q490 105 480 105Q464 105 452.5 93.0Q441 81 434 81Q423 81 406.0 88.0Q389 95 388 100Q386 108 356 116Q327 124 282.5 146.0Q238 168 238.0 174.0Q238 180 208.5 210.5Q179 241 176 255Q174 268 163.0 301.0Q152 334 152 340ZM390 461Q391 481 392.0 500.0Q393 519 394.5 532.5Q396 546 397.5 558.0Q399 570 400.5 578.0Q402 586 403.0 591.0Q404 596 405.0 599.0Q406 602 406 602Q406 606 400 606Q390 606 375.0 597.0Q360 588 354 578Q349 567 310.0 527.5Q271 488 270 482Q266 474 264 477Q261 479 256.0 475.5Q251 472 247.5 466.0Q244 460 244 456Q244 451 240.5 447.0Q237 443 233.5 441.0Q230 439 226.5 431.5Q223 424 222 411L220 390L232 399Q241 406 250 406Q251 406 275.5 402.0Q300 398 330 398Q386 398 388 408Q388 418 390 461ZM656 491Q656 496 644.0 508.0Q632 520 632 524Q632 530 615.5 542.5Q599 555 579.5 567.5Q560 580 558 583Q550 591 500 597Q493 598 488 599L474 601L472 572Q470 557 467.0 537.5Q464 518 462.0 498.5Q460 479 460 449Q460 414 464.5 407.5Q469 401 488 401Q531 401 570.0 405.5Q609 410 632.5 414.0Q656 418 660 418Q677 418 680.5 418.5Q684 419 684 422Q684 430 675.5 453.0Q667 476 662 480Q656 485 656 491ZM680 345Q680 353 664 353Q655 353 632.0 346.5Q609 340 576 337Q532 333 520 331Q513 331 496.5 333.5Q480 336 474 336Q468 336 466 334Q462 330 462 247Q462 168 468 168Q469 168 489.5 171.0Q510 174 532.5 179.0Q555 184 558 187Q563 194 572.5 194.0Q582 194 614.5 226.0Q647 258 652 272Q658 288 661.5 288.0Q665 288 672.5 311.5Q680 335 680 345ZM336 333Q318 333 302.5 334.0Q287 335 275.5 336.0Q264 337 254.0 338.5Q244 340 237.5 341.5Q231 343 226.5 344.0Q222 345 220.0 346.0Q218 347 218 347Q214 347 214 341Q214 336 218.0 317.0Q222 298 235.0 271.0Q248 244 266 236Q284 228 315.5 200.5Q347 173 370 172L388 171V334L340 333Z" transform="translate(942.50,958.33) scale(0.9583,-0.9583)" fill="#000000" />
  <path d="M 24.637998,12.488337 H 20.72216 q -1.48166,0 -2.54,-1.058333 -1.05833,-1.058333 -1.05833,-2.54 V 3.598338 q 0,-1.481667 1.05833,-2.54 Q 19.2405,4e-6 20.72216,4e-6 h 3.915838 V 0.846671 H 20.72216 q -1.13241,0 -1.94733,0.814917 -0.80433,0.804333 -0.80433,1.93675 v 5.291666 q 0,1.132417 0.80433,1.93675 0.81492,0.814917 1.94733,0.814917 h 3.915838 z" transform="translate(513.81,0.00) scale(80.0747,80.0747)" fill="#000000" />
  <path d="M 75.014662,0.846671 V 4e-6 h 13.123333 v 0.846667 z m 0,11.641666 v -0.846666 h 13.123333 v 0.846666 z" transform="translate(-3520.08,0.00) scale(80.0747,80.0747)" fill="#000000" />
  <path d="M 75.014662,0.846671 V 4e-6 h 13.123333 v 0.846667 z m 0,11.641666 v -0.846666 h 13.123333 v 0.846666 z" transform="translate(-2469.24,0.00) scale(80.0747,80.0747)" fill="#000000" />
  <path d="m 87.714667,4e-6 h 2.8575 q 1.481666,0 2.54,1.058334 1.058333,1.058333 1.058333,2.54 v 5.291666 q 0,1.481667 -1.058333,2.54 -1.058334,1.058333 -2.54,1.058333 h -2.8575 v -0.846666 h 2.8575 q 1.132416,0 1.93675,-0.814917 0.814916,-0.804333 0.814916,-1.93675 V 3.598338 q 0,-1.132417 -0.814916,-1.93675 -0.804334,-0.814917 -1.93675,-0.814917 h -2.8575 z" transform="translate(-2435.34,0.00) scale(80.0747,80.0747)" fill="#000000" />
  <path d="M 485.00,189.00 C 469.68,189.00 438.00,176.21 438.00,126.00 C 438.00,117.97 440.75,112.11 452.24,100.63 C 456.31,96.55 469.86,83.00 483.00,83.00 L 493.00,83.00 L 493.00,85.32 C 505.32,87.38 524.11,100.20 524.11,122.52 C 524.11,123.23 524.09,123.95 524.04,124.66 C 524.08,125.75 524.10,126.85 524.10,127.96 C 524.10,165.31 504.14,189.00 485.00,189.00  Z M 606.10,279.81 C 606.10,279.81 655.90,284.16 655.90,284.19 C 637.90,490.19 637.90,490.19 637.90,490.19 C 637.90,490.19 588.10,485.84 588.10,485.81 C 606.10,279.81 606.10,279.81 606.10,279.81  Z M 429.49,786.96 C 319.70,786.96 228.59,722.79 228.59,616.05 C 228.59,604.31 229.71,592.09 232.04,579.47 C 233.26,492.01 243.62,404.21 258.00,319.86 L 258.00,314.00 L 308.00,314.00 L 308.00,322.00 C 308.00,330.48 283.64,447.79 281.99,582.31 C 281.93,587.51 278.43,598.69 278.43,617.13 C 278.43,699.49 355.82,736.84 430.49,736.84 C 461.27,736.84 478.65,731.00 485.00,731.00 L 679.20,731.00 C 730.13,731.41 774.29,739.46 821.76,739.46 C 827.75,739.46 833.74,739.33 839.77,739.04 L 842.23,788.96 C 835.21,789.31 828.30,789.46 821.48,789.46 C 771.89,789.46 726.49,781.38 678.90,781.00 L 487.62,781.00 C 468.37,784.96 448.81,786.96 429.49,786.96  Z M 733.76,308.43 C 557.65,308.43 334.30,328.57 169.67,332.99 L 168.33,283.01 C 245.61,280.94 324.81,276.25 404.79,271.50 C 513.82,265.02 624.29,258.44 733.52,258.44 C 751.48,258.44 769.40,258.62 787.27,259.00 L 857.80,259.00 C 857.80,259.00 940.61,251.12 940.65,251.12 L 945.39,300.88 C 860.20,309.00 860.20,309.00 859.00,309.00 L 787.00,309.00 C 786.47,309.00 764.15,308.43 733.76,308.43 Z" transform="translate(2612.12,100.00) scale(0.8000,0.8000)" fill="#000000" />
  <path d="M 427.60,902.87 C 389.78,902.87 353.14,925.73 345.61,968.37 C 345.61,968.37 296.38,959.68 296.39,959.63 C 307.82,894.86 363.43,852.88 427.55,852.88 C 429.20,852.88 430.85,852.91 432.51,852.97 C 434.36,852.84 436.19,852.78 437.99,852.78 C 480.36,852.78 501.45,883.93 516.73,906.51 C 531.67,928.57 539.40,938.05 553.12,938.05 C 564.33,938.05 570.54,933.00 579.00,933.00 C 582.08,933.00 583.38,933.56 587.73,933.56 C 603.39,933.56 618.75,925.01 637.89,909.68 L 684.62,859.05 L 721.38,892.95 C 672.14,946.30 672.14,946.30 670.72,947.44 C 649.72,964.45 622.72,983.58 588.06,983.58 C 586.01,983.58 583.93,983.51 581.83,983.38 C 571.83,986.40 562.14,987.94 552.89,987.94 C 511.48,987.94 490.96,957.64 475.30,934.51 C 458.85,910.21 451.66,902.71 439.15,902.71 C 436.30,902.71 435.16,903.00 433.00,903.00 C 432.95,903.00 429.39,902.87 427.60,902.87  Z M 479.09,590.36 C 479.09,643.24 509.54,709.81 571.22,709.00 C 722.67,707.01 722.67,707.01 722.67,707.01 L 723.33,756.99 L 571.00,759.00 C 558.22,759.00 515.83,756.03 479.27,719.47 C 446.14,686.35 428.97,638.48 428.97,591.43 C 428.97,580.21 429.95,569.05 431.91,558.13 C 431.49,546.92 431.27,535.70 431.27,524.49 C 431.27,466.24 437.23,408.06 452.00,350.77 L 452.00,318.00 L 502.00,318.00 L 502.00,354.00 C 502.00,363.96 481.26,419.14 481.26,524.49 C 481.26,543.08 482.00,559.64 482.00,560.00 C 482.00,565.45 479.09,572.95 479.09,590.36  Z M 532.63,332.49 C 492.65,332.49 447.35,336.76 403.87,336.76 C 342.51,336.76 239.46,330.35 216.68,233.77 C 216.23,231.87 216.00,229.94 216.00,228.00 C 216.00,216.26 232.94,184.74 256.56,161.12 C 327.23,90.44 448.48,81.81 553.35,74.35 C 619.90,69.61 636.16,67.00 637.00,67.00 L 671.00,67.00 L 671.00,117.00 L 638.61,117.00 C 566.33,126.18 469.10,125.46 390.99,145.81 C 317.70,164.89 284.37,196.70 267.56,230.15 C 281.60,272.29 326.30,286.67 403.85,286.67 C 448.30,286.67 494.32,282.36 532.40,282.36 C 569.80,282.36 563.43,285.31 593.01,285.31 C 608.00,285.31 623.08,284.79 637.66,284.79 C 661.03,284.79 685.80,286.09 712.32,293.00 L 733.00,293.00 C 734.57,293.00 734.57,293.00 784.12,299.20 C 784.12,299.20 777.92,348.81 777.88,348.80 C 731.43,343.00 731.43,343.00 731.43,343.00 L 709.00,343.00 C 698.30,343.00 690.13,334.81 636.65,334.81 C 636.55,334.81 593.51,335.30 593.07,335.30 C 557.87,335.30 569.73,332.49 532.63,332.49 Z" transform="translate(3662.97,100.00) scale(0.8000,0.8000)" fill="#000000" />
</svg>
