<?xml version="1.0" encoding="UTF-8" standalone="no"?>
<!--
Representation of "sewi Elowin" in sitelen ilo pona
Generated by generate_sitelen_kalama_pona.py

Description:
  Representation of "sewi Elowin" in sitelen ilo pona.
  Sources: sewi: https://commons.wikimedia.org/wiki/File:Sitelen_seli_kiwen_-_sewi.svg; e: https://commons.wikimedia.org/wiki/File:Sitelen_kalama_pona_-_xe.svg; lo: https://commons.wikimedia.org/wiki/File:Sitelen_kalama_pona_-_lo.svg; win: https://commons.wikimedia.org/wiki/File:Sitelen_kalama_pona_-_win.svg

Categories:
  [[Category:Sitelen kalama pona]]
  [[Category:Toki Pona text containing sewi]]
  [[Category:Toki Pona text containing sound symbol E]]
  [[Category:Toki Pona text containing sound symbol Lo]]
  [[Category:Toki Pona text containing sound symbol Win]]

Sources:
  sewi: https://commons.wikimedia.org/wiki/File:Sitelen_seli_kiwen_-_sewi.svg
  e: https://commons.wikimedia.org/wiki/File:Sitelen_kalama_pona_-_xe.svg
  lo: https://commons.wikimedia.org/wiki/File:Sitelen_kalama_pona_-_lo.svg
  win: https://commons.wikimedia.org/wiki/File:Sitelen_kalama_pona_-_win.svg
-->
<svg version="1.1" width="5214" height="1000"
     viewBox="0 0 5214 1000"
     xmlns="http://www.w3.org/2000/svg">
  <path d="M550 540Q550 563 560.5 570.0Q571 577 591 577Q605 577 608.0 564.0Q611 551 611 492Q611 457 609.5 437.5Q608 418 606.5 414.0Q605 410 603.5 406.0Q602 402 602 395Q596 290 590 288Q588 287 588.5 283.0Q589 279 589.5 276.5Q590 274 587 273Q581 273 575 205Q574 196 556.5 165.0Q539 134 531 129Q525 125 510 113Q500 105 480 105Q413 105 374 161L366 173L354 159Q342 145 342 137Q342 124 317.0 113.0Q292 102 268 102Q248 102 248 108Q248 112 232 123L216 134L200 122Q183 109 169 109Q164 109 152.0 111.5Q140 114 131 115Q117 117 107.5 126.0Q98 135 94.5 143.0Q91 151 90 151H88Q82 151 82 157Q82 165 91.0 176.0Q100 187 108 187Q109 187 112.5 185.5Q116 184 123.5 182.0Q131 180 143 180Q161 180 166.5 182.0Q172 184 178 196Q187 210 187 220Q187 223 189.5 230.5Q192 238 202.0 248.0Q212 258 228 258Q240 258 247.0 248.5Q254 239 255.5 231.5Q257 224 257 217Q257 216 256.5 213.5Q256 211 256.0 210.0Q256 209 255.5 207.0Q255 205 255 204Q255 193 262.0 185.5Q269 178 276 177L283 175Q292 175 300.5 189.0Q309 203 313.0 217.0Q317 231 315 231Q312 231 318 235Q323 238 328.5 273.0Q334 308 334 332Q334 346 342.5 357.5Q351 369 358 369Q363 369 366.5 364.0Q370 359 370 355Q370 348 375.0 348.0Q380 348 380 353Q380 362 390 357Q394 354 396 349Q397 347 397 329Q397 314 396.5 300.5Q396 287 395.5 277.0Q395 267 394.5 259.0Q394 251 393.5 246.0Q393 241 392.5 237.5Q392 234 391.5 232.0Q391 230 391 230Q391 227 416 195Q422 188 437.5 183.0Q453 178 463.0 177.0Q473 176 476 176Q488 176 499.5 186.5Q511 197 513 209Q515 219 519.0 228.5Q523 238 524 249Q524 251 531.5 279.0Q539 307 546.0 353.5Q553 400 553 448Q553 494 548 494Q545 494 545 495Q545 495 546.5 498.0Q548 501 549.0 507.0Q550 513 550 521ZM763 739Q795 739 795 690Q795 690 794.5 679.5Q794 669 794.0 652.5Q794 636 793.5 617.0Q793 598 792.5 578.5Q792 559 792 546Q793 519 793 513Q793 465 790.5 430.0Q788 395 788 387V294Q788 261 795.0 201.0Q802 141 802 131Q802 120 803.5 116.0Q805 112 811 111Q820 108 817 100Q814 94 813.0 76.5Q812 59 807.5 47.5Q803 36 791 36Q783 36 771 42Q759 48 755.0 53.5Q751 59 749 74Q735 162 735 278Q735 298 737.5 388.5Q740 479 742 483Q744 487 741.0 502.0Q738 517 740 519Q741 520 741 545Q741 572 740.5 595.0Q740 618 738.5 633.5Q737 649 736.0 661.5Q735 674 733.5 681.5Q732 689 730.5 694.0Q729 699 728.5 701.5Q728 704 728 704Q728 717 739.0 728.0Q750 739 763 739Z" transform="translate(0.00,958.33) scale(0.9583,-0.9583)" fill="#000000" />
  <path d="M 24.637998,12.488337 H 20.72216 q -1.48166,0 -2.54,-1.058333 -1.05833,-1.058333 -1.05833,-2.54 V 3.598338 q 0,-1.481667 1.05833,-2.54 Q 19.2405,4e-6 20.72216,4e-6 h 3.915838 V 0.846671 H 20.72216 q -1.13241,0 -1.94733,0.814917 -0.80433,0.804333 -0.80433,1.93675 v 5.291666 q 0,1.132417 0.80433,1.93675 0.81492,0.814917 1.94733,0.814917 h 3.915838 z" transform="translate(-428.69,0.00) scale(80.0747,80.0747)" fill="#000000" />
  <path d="M 75.014662,0.846671 V 4e-6 h 13.123333 v 0.846667 z m 0,11.641666 v -0.846666 h 13.123333 v 0.846666 z" transform="translate(-4462.58,0.00) scale(80.0747,80.0747)" fill="#000000" />
  <path d="M 75.014662,0.846671 V 4e-6 h 13.123333 v 0.846667 z m 0,11.641666 v -0.846666 h 13.123333 v 0.846666 z" transform="translate(-3411.74,0.00) scale(80.0747,80.0747)" fill="#000000" />
  <path d="M 75.014662,0.846671 V 4e-6 h 13.123333 v 0.846667 z m 0,11.641666 v -0.846666 h 13.123333 v 0.846666 z" transform="translate(-2360.89,0.00) scale(80.0747,80.0747)" fill="#000000" />
  <path d="m 87.714667,4e-6 h 2.8575 q 1.481666,0 2.54,1.058334 1.058333,1.058333 1.058333,2.54 v 5.291666 q 0,1.481667 -1.058333,2.54 -1.058334,1.058333 -2.54,1.058333 h -2.8575 v -0.846666 h 2.8575 q 1.132416,0 1.93675,-0.814917 0.814916,-0.804333 0.814916,-1.93675 V 3.598338 q 0,-1.132417 -0.814916,-1.93675 -0.804334,-0.814917 -1.93675,-0.814917 h -2.8575 z" transform="translate(-2326.99,0.00) scale(80.0747,80.0747)" fill="#000000" />
  <path d="M 312.05,735.45 C 394.84,735.45 484.55,719.15 572.98,719.15 C 589.31,719.15 605.66,719.70 622.01,721.00 L 623.20,721.00 C 576.40,642.58 526.57,564.31 474.64,486.78 C 444.44,551.54 400.48,608.47 358.62,663.16 C 339.95,687.54 321.63,711.50 304.90,735.40 C 307.28,735.43 309.66,735.45 312.05,735.45  Z M 739.76,83.70 C 730.46,83.67 709.10,91.78 690.85,91.78 C 683.12,91.78 672.75,90.37 663.58,83.64 C 661.10,83.43 658.46,83.33 655.69,83.33 C 621.21,83.33 564.31,99.00 545.00,99.00 C 543.85,99.00 527.25,98.70 511.53,98.70 C 477.64,98.70 451.60,98.70 401.87,108.52 C 358.79,117.03 315.06,118.01 276.61,123.99 C 424.60,319.18 567.32,525.74 688.60,733.40 C 690.86,737.28 692.00,741.64 692.00,746.00 C 692.00,759.81 680.81,771.00 667.00,771.00 L 621.00,771.00 C 618.01,771.00 602.36,769.17 573.58,769.17 C 487.28,769.17 397.97,785.45 312.50,785.45 C 304.61,785.45 296.73,785.31 288.88,785.01 C 288.82,785.01 288.76,785.01 288.70,785.01 C 286.84,785.07 284.60,785.17 282.04,785.17 C 261.02,785.17 253.42,778.71 248.90,774.19 C 242.73,768.02 239.91,759.18 239.91,751.19 C 239.91,744.50 241.81,739.86 243.92,736.54 C 307.31,637.40 400.41,545.42 441.22,437.41 C 368.07,330.47 291.24,225.20 213.13,123.18 C 209.71,118.71 208.00,113.36 208.00,108.00 C 208.00,107.19 208.20,89.35 225.78,84.07 C 280.29,67.68 336.88,70.35 391.87,59.53 C 432.78,50.54 470.46,48.70 510.99,48.70 C 521.76,48.70 532.73,48.83 544.02,48.99 C 574.88,45.99 616.18,33.06 653.36,33.06 C 662.23,33.06 671.10,33.76 679.84,35.48 C 684.29,36.35 688.54,38.43 692.06,41.73 C 703.48,41.11 721.01,33.68 739.18,33.68 C 744.43,33.68 761.06,34.05 772.54,48.41 L 733.49,79.63 C 735.06,81.51 737.70,82.31 739.76,83.70 Z" transform="translate(1669.62,100.00) scale(0.8000,0.8000)" fill="#000000" />
  <path d="M 465.44,167.91 C 432.23,167.91 400.97,147.23 400.97,111.94 C 400.97,109.21 401.17,106.45 401.59,103.66 C 401.20,100.67 401.02,97.69 401.02,94.72 C 401.02,66.23 417.87,33.05 448.66,29.30 C 448.67,29.14 448.68,29.06 448.68,29.06 L 450.07,29.15 C 450.61,29.11 451.16,29.07 451.71,29.04 C 465.05,30.75 477.97,30.17 484.28,32.08 C 512.10,40.52 536.45,65.06 536.45,94.79 C 536.45,96.81 536.34,98.86 536.10,100.96 C 536.14,101.94 536.16,102.92 536.16,103.91 C 536.16,137.97 511.76,167.28 479.03,167.28 C 477.99,167.28 476.94,167.25 475.88,167.19 C 472.42,167.67 468.93,167.91 465.44,167.91  Z M 455.48,79.62 C 454.05,81.72 451.13,87.02 451.13,95.21 C 451.13,99.17 452.00,99.64 452.00,104.00 C 452.00,108.84 450.64,111.66 450.64,112.96 C 450.64,113.25 455.41,117.85 465.72,117.85 C 470.10,117.85 470.84,117.00 475.00,117.00 C 476.95,117.00 479.69,117.39 479.73,117.39 C 482.11,117.39 486.14,109.21 486.14,103.14 C 486.14,102.13 486.00,101.63 486.00,100.00 C 486.00,97.04 486.47,95.74 486.47,94.64 C 486.47,89.74 478.69,83.61 471.86,80.71 L 455.48,79.62  Z M 208.00,154.00 L 258.00,154.00 L 258.00,661.62 L 711.63,673.01 C 711.63,673.01 710.38,722.99 710.37,722.99 C 232.37,710.99 232.37,710.99 232.37,710.99 C 218.81,710.65 208.00,699.57 208.00,686.00 L 208.00,154.00 Z" transform="translate(2720.47,100.00) scale(0.8000,0.8000)" fill="#000000" />
  <path d="M 427.60,902.87 C 389.78,902.87 353.14,925.73 345.61,968.37 C 345.61,968.37 296.38,959.68 296.39,959.63 C 307.82,894.86 363.43,852.88 427.55,852.88 C 429.20,852.88 430.85,852.91 432.51,852.97 C 434.36,852.84 436.19,852.78 437.99,852.78 C 480.36,852.78 501.45,883.93 516.73,906.51 C 531.67,928.57 539.40,938.05 553.12,938.05 C 564.33,938.05 570.54,933.00 579.00,933.00 C 582.08,933.00 583.38,933.56 587.73,933.56 C 603.39,933.56 618.75,925.01 637.89,909.68 L 684.62,859.05 L 721.38,892.95 C 672.14,946.30 672.14,946.30 670.72,947.44 C 649.72,964.45 622.72,983.58 588.06,983.58 C 586.01,983.58 583.93,983.51 581.83,983.38 C 571.83,986.40 562.14,987.94 552.89,987.94 C 511.48,987.94 490.96,957.64 475.30,934.51 C 458.85,910.21 451.66,902.71 439.15,902.71 C 436.30,902.71 435.16,903.00 433.00,903.00 C 432.95,903.00 429.39,902.87 427.60,902.87  Z M 178.29,277.39 C 178.29,276.09 177.65,255.13 177.65,254.90 C 177.65,234.20 182.19,225.03 189.87,217.79 L 224.13,254.21 C 225.61,252.44 226.72,250.31 228.05,248.40 C 227.90,249.14 227.78,251.99 227.78,255.85 C 227.78,258.59 228.38,276.70 228.38,276.91 C 228.38,286.09 227.13,288.79 227.13,302.45 C 227.13,326.43 231.74,354.12 240.88,379.68 C 246.27,394.78 273.28,466.05 332.27,469.04 C 338.14,469.33 351.83,474.59 371.42,474.59 C 396.46,474.59 445.27,467.99 461.84,354.49 C 461.26,346.85 460.98,339.20 460.98,331.62 C 460.98,307.86 463.74,284.71 468.70,264.11 C 471.38,253.03 481.33,245.00 493.00,245.00 C 506.81,245.00 518.00,256.19 518.00,270.00 C 518.00,270.86 517.54,316.01 512.18,355.80 C 514.66,382.35 526.76,456.09 584.57,456.09 C 590.84,456.09 597.81,455.30 605.61,453.59 C 606.28,453.44 606.95,453.32 607.63,453.23 C 703.50,440.29 739.18,318.31 748.29,258.23 C 750.13,246.09 760.58,237.00 773.00,237.00 C 785.39,237.00 795.81,246.03 797.70,258.13 C 809.13,331.57 802.56,409.36 807.88,481.56 C 810.07,499.84 811.15,517.12 811.15,533.43 C 811.15,742.33 635.97,762.20 510.75,762.20 C 428.76,762.20 340.51,752.43 267.51,752.43 C 258.04,752.43 248.87,752.60 240.06,752.97 L 237.92,703.03 C 247.75,702.61 257.81,702.42 268.09,702.42 C 342.07,702.42 428.91,712.11 511.12,712.11 C 671.94,712.11 761.25,672.71 761.25,534.39 C 761.25,519.95 760.27,504.20 758.19,487.03 C 756.72,474.93 755.66,438.72 755.32,396.17 C 738.81,426.01 696.51,491.18 615.38,502.63 C 605.21,504.79 595.40,505.83 586.01,505.83 C 565.78,505.83 518.64,501.25 487.51,447.06 C 476.62,469.94 445.60,524.58 371.44,524.58 C 357.52,524.58 342.74,522.66 327.12,518.80 C 229.63,511.80 177.10,394.51 177.10,303.13 C 177.10,288.31 178.29,283.12 178.29,277.39  Z M 482.30,108.14 C 483.59,111.08 486.57,118.29 486.57,127.60 C 486.57,129.56 486.43,131.56 486.14,133.60 C 486.19,134.69 486.21,135.80 486.21,136.92 C 486.21,172.64 462.69,186.48 449.67,192.62 C 446.30,194.20 442.65,195.00 439.00,195.00 C 431.66,195.00 430.03,192.63 424.28,191.27 C 415.92,189.30 389.88,183.14 389.88,153.76 C 389.88,119.99 410.49,102.84 431.07,86.65 C 438.71,80.63 443.00,77.05 445.85,73.91 C 445.85,73.91 446.30,72.79 446.34,72.81 C 447.07,73.10 467.42,81.42 479.61,102.81 L 483.80,106.49 C 483.30,107.05 482.80,107.60 482.30,108.14 Z" transform="translate(3771.31,100.00) scale(0.8000,0.8000)" fill="#000000" />
</svg>
