<?xml version="1.0" encoding="UTF-8" standalone="no"?>
<!--
Representation of "tenpo pi kiwen mani walo" in sitelen ilo pona
Generated by generate_sitelen_kalama_pona.py

Description:
  Representation of "tenpo pi kiwen mani walo" in sitelen ilo pona.
  Sources: tenpo: https://commons.wikimedia.org/wiki/File:Sitelen_seli_kiwen_-_tenpo.svg; pi: https://commons.wikimedia.org/wiki/File:Sitelen_seli_kiwen_-_pi.svg; kiwen: https://commons.wikimedia.org/wiki/File:Sitelen_seli_kiwen_-_kiwen.svg; mani: https://commons.wikimedia.org/wiki/File:Sitelen_seli_kiwen_-_mani.svg; walo: https://commons.wikimedia.org/wiki/File:Sitelen_seli_kiwen_-_walo.svg

Categories:
  [[Category:Sitelen kalama pona]]
  [[Category:Toki Pona text containing tenpo pi kiwen mani walo]]

Sources:
  tenpo: https://commons.wikimedia.org/wiki/File:Sitelen_seli_kiwen_-_tenpo.svg
  pi: https://commons.wikimedia.org/wiki/File:Sitelen_seli_kiwen_-_pi.svg
  kiwen: https://commons.wikimedia.org/wiki/File:Sitelen_seli_kiwen_-_kiwen.svg
  mani: https://commons.wikimedia.org/wiki/File:Sitelen_seli_kiwen_-_mani.svg
  walo: https://commons.wikimedia.org/wiki/File:Sitelen_seli_kiwen_-_walo.svg
-->
<svg version="1.1" width="4632" height="1000"
     viewBox="0 0 4632 1000"
     xmlns="http://www.w3.org/2000/svg">
  <path d="M376 453Q376 473 372.0 493.5Q368 514 368 521Q368 531 376.0 540.0Q384 549 394 549Q399 549 406.5 543.0Q414 537 422 535Q428 534 430.0 526.0Q432 518 436 487Q438 459 438 448Q438 430 436.0 416.0Q434 402 434 397Q434 381 442.5 376.5Q451 372 478 372Q508 372 547.0 377.5Q586 383 594 383Q603 383 612.5 373.0Q622 363 622 352Q622 345 619.5 338.0Q617 331 605.5 322.5Q594 314 574 313Q565 313 529.5 307.5Q494 302 448 302Q404 302 394.5 303.5Q385 305 378 313L368 324L374 392Q376 432 376 453ZM532 74H528Q525 74 513.5 71.0Q502 68 480.0 65.5Q458 63 430 63Q400 63 381.0 67.5Q362 72 351.0 77.5Q340 83 334 84Q323 85 307.0 90.0Q291 95 276.0 101.5Q261 108 248.0 114.0Q235 120 227.0 124.0Q219 128 218 128Q213 128 187.5 152.0Q162 176 162 182Q162 183 147.5 201.0Q133 219 118.5 251.0Q104 283 104 317Q104 339 112.0 373.5Q120 408 120 417Q120 447 124.5 464.5Q129 482 142 505Q162 536 162 540Q162 543 183.0 567.0Q204 591 204.0 594.0Q204 597 221.0 613.5Q238 630 238 634Q238 639 242 639Q246 639 255.0 646.0Q264 653 276.5 663.5Q289 674 298 679Q307 684 324.5 695.0Q342 706 356.0 713.5Q370 721 378 723Q385 725 422 725Q478 725 504.0 720.0Q530 715 534 715Q546 715 580.0 699.5Q614 684 640 678Q649 676 659.5 668.5Q670 661 678 658Q687 655 710.5 628.5Q734 602 734 595Q734 592 748.0 570.5Q762 549 762 544Q762 543 766.0 533.5Q770 524 775.5 506.0Q781 488 784 468Q785 453 788 446Q794 436 795.0 422.5Q796 409 796 339Q796 337 790.5 319.0Q785 301 784 291Q784 278 780 278Q778 278 774.0 261.5Q770 245 766 243Q764 242 758.0 229.0Q752 216 740.5 198.0Q729 180 716 168Q694 148 688 141Q681 133 676 133Q674 133 653.5 120.0Q633 107 626 106Q615 104 577.0 89.0Q539 74 532 74ZM442 131Q445 131 461.0 132.0Q477 133 501.0 135.5Q525 138 542.5 142.5Q560 147 560 154Q560 159 570.5 160.0Q581 161 598.5 165.0Q616 169 628 180Q644 194 648 194Q656 194 670.5 210.0Q685 226 697.5 242.5Q710 259 710 259Q716 259 726.0 296.5Q736 334 736 352Q736 355 732.5 375.5Q729 396 728 424Q726 459 713.5 494.0Q701 529 690.0 546.5Q679 564 678 564Q674 564 674 571Q674 578 655.5 594.5Q637 611 630 611Q622 611 622 616Q622 620 614 620Q607 620 604 627Q596 641 542.5 653.5Q489 666 448 666Q424 666 388.5 658.5Q353 651 340 636Q333 629 313.0 617.5Q293 606 282 593Q258 567 250 559Q232 544 232 534Q232 528 213.0 509.5Q194 491 194 487Q194 485 187.0 467.0Q180 449 178 430Q177 411 170.5 371.5Q164 332 164 323Q164 316 168.5 298.5Q173 281 193.0 245.5Q213 210 246 185Q282 156 290 156Q293 156 342.5 143.5Q392 131 442 131Z" transform="translate(0.00,958.33) scale(0.9583,-0.9583)" fill="#000000" />
  <path d="M178 600Q178 613 172.0 629.5Q166 646 166 651Q166 660 178 675Q187 686 191.5 688.0Q196 690 206 688Q221 685 228.5 675.5Q236 666 237.0 657.5Q238 649 238 634V602Q238 561 244.0 524.5Q250 488 250 466Q250 451 248.0 418.5Q246 386 246 369Q246 369 246.0 367.0Q246 365 246.5 361.5Q247 358 247.5 353.0Q248 348 248.0 339.5Q248 331 248.5 321.0Q249 311 249.5 296.5Q250 282 250 266Q250 179 252 177Q260 168 392 168Q392 168 438.0 168.0Q484 168 532.0 168.5Q580 169 584 169Q698 169 704 167Q710 164 716 164Q722 163 728.0 144.5Q734 126 734 111Q734 109 733.0 103.5Q732 98 727.5 90.5Q723 83 716 83Q714 83 683.5 92.5Q653 102 624 102Q612 102 594.0 100.0Q576 98 562 98Q562 98 558.5 98.5Q555 99 548.0 99.5Q541 100 532.0 100.5Q523 101 510.5 101.5Q498 102 486 102Q485 102 480.5 102.0Q476 102 469.0 101.5Q462 101 454.5 100.5Q447 100 439.5 100.0Q432 100 428 100Q344 100 230 92L190 90L184 104Q180 114 180 131Q180 157 185.0 176.5Q190 196 190 218Q190 218 190.0 225.0Q190 232 190.0 242.5Q190 253 189.5 264.5Q189 276 188.5 287.0Q188 298 188 304Q188 326 190.0 374.0Q192 422 192 441Q192 517 178 540Q176 543 177.0 544.0Q178 545 180.0 545.5Q182 546 182.5 549.5Q183 553 180 562Q176 571 176 578Q176 581 177.0 588.5Q178 596 178 600Z" transform="translate(942.50,958.33) scale(0.9583,-0.9583)" fill="#000000" />
  <path d="M74 487Q74 498 123.0 543.0Q172 588 172 597Q172 603 184.0 623.0Q196 643 198 651Q200 659 207.0 664.0Q214 669 214 674Q214 681 220 681Q225 681 226.5 686.0Q228 691 227.5 697.0Q227 703 231.5 708.0Q236 713 246 713Q247 713 256.5 712.0Q266 711 272.0 711.0Q278 711 278 713Q278 716 312 716H340Q370 716 389.5 718.0Q409 720 416 720Q417 720 430.0 719.0Q443 718 465.0 716.0Q487 714 512.0 712.0Q537 710 565.5 709.0Q594 708 616 708Q622 708 637.5 708.5Q653 709 662 709Q706 709 706 683Q706 675 720.0 656.0Q734 637 734 633Q734 626 738 624Q740 623 748.5 605.5Q757 588 771.5 562.5Q786 537 800 521Q811 509 815.0 503.0Q819 497 822.5 486.0Q826 475 826 461Q826 445 821.5 434.0Q817 423 810 423Q806 423 793.0 405.5Q780 388 780 382Q780 377 776 377Q773 377 738.0 325.0Q703 273 700 273Q700 273 696.5 267.0Q693 261 684.0 248.0Q675 235 662.5 219.0Q650 203 629.5 178.5Q609 154 584 128Q576 119 562.0 91.5Q548 64 545.0 62.0Q542 60 542.0 55.0Q542 50 542.5 47.5Q543 45 540 44Q535 44 528.0 33.5Q521 23 510.5 13.0Q500 3 486 3Q473 3 460.5 5.5Q448 8 448 11Q448 14 434.0 20.0Q420 26 420 37Q420 46 409.5 68.5Q399 91 396 91Q394 91 388.0 100.0Q382 109 370.5 123.0Q359 137 346 146Q328 160 322 170Q320 177 293.0 204.0Q266 231 262 231Q259 231 246.0 247.0Q233 263 221 279L208 295Q208 297 190.0 323.0Q172 349 172 351Q172 355 137.0 390.5Q102 426 98 436Q97 440 90.5 446.5Q84 453 79.0 462.5Q74 472 74 487ZM700 381Q700 387 707.0 395.5Q714 404 714 408Q714 412 726.0 421.0Q738 430 738 438Q738 452 746 465L754 480L740 494Q724 509 724 517Q724 524 715.0 538.0Q706 552 704 558Q701 566 679.5 588.5Q658 611 658 614Q658 619 642 631Q630 641 614.5 643.5Q599 646 502 651Q431 655 374 655Q306 655 302 646Q299 643 296.5 642.0Q294 641 292.5 642.0Q291 643 289.5 642.5Q288 642 288 640Q288 637 283.0 635.5Q278 634 270.5 629.5Q263 625 258 616Q249 602 246 602Q244 602 226.0 577.0Q208 552 208 548Q208 542 204 540Q196 537 183.0 511.5Q170 486 170.0 469.0Q170 452 199.0 415.0Q228 378 232 369Q237 359 241.5 353.0Q246 347 249.0 345.0Q252 343 254.0 341.5Q256 340 256 338Q256 333 281.0 305.5Q306 278 310 278Q316 278 316 272Q316 267 333.0 248.0Q350 229 350 228Q350 227 385.0 192.0Q420 157 420 151Q420 143 428 137Q433 132 442.5 120.5Q452 109 459.0 102.0Q466 95 474 95Q480 95 483.5 97.5Q487 100 492.5 109.0Q498 118 505.5 130.0Q513 142 531.5 165.0Q550 188 576 214Q613 253 614 261Q616 269 622 269Q624 269 630.0 278.5Q636 288 647.0 304.5Q658 321 668 333Q677 343 681.0 350.5Q685 358 684.5 360.5Q684 363 685.0 365.0Q686 367 692 369Q700 373 700 381Z" transform="translate(1885.00,958.33) scale(0.9583,-0.9583)" fill="#000000" />
  <path d="M397 576Q399 576 403.0 574.0Q407 572 413 572Q424 572 443.0 576.5Q462 581 471 581Q478 581 490.5 579.0Q503 577 518 577Q528 577 538.5 578.0Q549 579 555 579Q567 579 597.0 567.5Q627 556 630 553Q636 547 650.0 540.5Q664 534 670 534Q672 534 674.0 535.5Q676 537 684.5 548.5Q693 560 707 583Q734 626 734 680Q734 708 735.5 714.5Q737 721 745 729Q757 741 770 741Q784 741 784 737Q784 736 798.0 711.5Q812 687 812 675Q812 662 796.5 614.5Q781 567 766 549Q757 538 743.5 516.5Q730 495 723 488Q705 470 721 463Q728 461 728 452L746 409Q764 366 764 344Q764 329 758.5 293.5Q753 258 749 248Q743 233 711 169Q701 148 683.0 134.5Q665 121 629 106Q550 73 529 73Q522 73 513.0 76.0Q504 79 492 79Q484 79 471.0 77.5Q458 76 447 76Q402 76 371 93Q355 102 339.5 109.0Q324 116 318.0 119.0Q312 122 309 127Q308 128 277.5 149.0Q247 170 237 187Q232 194 221.5 214.0Q211 234 197.0 275.5Q183 317 183 350Q183 351 185.0 360.5Q187 370 188 388Q190 416 200 443L211 470L199 479Q192 484 182.0 496.5Q172 509 164.5 518.0Q157 527 154 527Q142 527 123.5 561.0Q105 595 99 629Q97 643 94.5 653.0Q92 663 91.0 666.0Q90 669 89.0 672.5Q88 676 88 681Q88 697 97.0 708.0Q106 719 121 719Q144 719 154.0 674.0Q164 629 165 628Q170 623 170 615Q170 611 174.0 605.0Q178 599 185.5 588.5Q193 578 199 568Q206 555 224.5 540.0Q243 525 254 525Q261 525 265.5 533.0Q270 541 279 541Q287 541 308.5 551.0Q330 561 341 562Q351 563 371.0 569.5Q391 576 397 576ZM451 144Q477 144 503.0 147.0Q529 150 548.5 155.0Q568 160 583.5 164.5Q599 169 608.5 172.0Q618 175 619 175Q626 175 642.0 190.5Q658 206 658 212Q658 219 667 226Q676 234 685.0 269.0Q694 304 694 326Q694 344 686 374Q678 401 671.5 412.5Q665 424 643 446Q625 464 625 470Q625 483 586.0 500.0Q547 517 518 517Q502 517 492.0 517.5Q482 518 479.0 518.5Q476 519 474.0 519.5Q472 520 471 520Q467 520 461 519Q423 513 397.5 507.0Q372 501 363.5 497.5Q355 494 348.0 491.5Q341 489 334 489Q325 489 311.5 480.0Q298 471 285.0 460.0Q272 449 271 448Q265 445 258.5 423.0Q252 401 252.0 384.0Q252 367 249 367Q247 367 247 357Q247 278 314.0 211.0Q381 144 451 144Z" transform="translate(2827.50,958.33) scale(0.9583,-0.9583)" fill="#000000" />
  <path d="M242 396Q242 406 200.0 426.0Q158 446 116.5 469.5Q75 493 75 511Q75 521 87.0 535.0Q99 549 107 549Q109 549 119.5 546.0Q130 543 142.5 536.5Q155 530 158 524Q161 517 171.5 512.0Q182 507 197.5 501.0Q213 495 222 490Q239 482 257 475Q273 470 277.0 470.5Q281 471 289 482Q300 497 300 500Q300 502 311.5 520.0Q323 538 323.0 545.0Q323 552 335.0 573.0Q347 594 349 603Q353 616 356.0 616.0Q359 616 373.0 644.5Q387 673 387 679Q387 681 391.5 688.5Q396 696 409.5 705.0Q423 714 440 714Q456 714 469.5 708.0Q483 702 483 694Q483 689 501.5 662.5Q520 636 520 632Q520 629 529.5 618.5Q539 608 541 597Q543 587 554.0 570.5Q565 554 574 535Q587 508 591.0 508.0Q595 508 595 501Q595 497 601.5 491.5Q608 486 618 486Q642 486 689.0 520.5Q736 555 750 555Q759 555 775.0 548.5Q791 542 791 532Q791 528 788.0 522.0Q785 516 784.0 514.0Q783 512 786 509Q791 507 791.5 500.5Q792 494 786 494Q782 494 757.0 482.5Q732 471 729 471Q717 471 668 430L650 415L659 400Q719 297 722 297Q723 297 724.0 296.5Q725 296 726.0 294.5Q727 293 728.0 291.0Q729 289 732.0 284.5Q735 280 738.5 274.5Q742 269 749.0 261.0Q756 253 764 243Q786 217 795.5 197.0Q805 177 811 168Q825 148 825 130Q825 109 811 109Q805 109 798.5 102.5Q792 96 761 96Q737 96 705.0 91.0Q673 86 668 86H667L644 85Q620 84 584.0 82.0Q548 80 508.5 78.5Q469 77 430.0 76.0Q391 75 367 75Q352 75 336.5 75.5Q321 76 308.0 77.0Q295 78 282.5 79.0Q270 80 260.0 80.5Q250 81 242.5 82.0Q235 83 231 84H227Q207 84 182.0 67.5Q157 51 153 51Q150 51 141.0 53.0Q132 55 120.5 64.5Q109 74 109 89Q109 98 126.0 150.0Q143 202 153 218Q162 231 162 242V248Q162 252 166 253Q172 255 202.0 315.5Q232 376 234 377Q242 382 242 396ZM412 146Q451 146 485.5 147.0Q520 148 544.5 149.0Q569 150 589.5 152.0Q610 154 623.5 155.5Q637 157 646.0 158.0Q655 159 660 160L664 161Q677 161 701.5 168.0Q726 175 726 179Q726 187 710.0 211.0Q694 235 674.0 262.0Q654 289 650 297Q640 316 632.5 328.5Q625 341 622.0 345.5Q619 350 616.0 354.5Q613 359 611 367Q607 381 589.5 401.0Q572 421 572 426Q572 434 560.0 452.5Q548 471 533.0 492.0Q518 513 513 522Q508 532 497.5 547.5Q487 563 480.0 573.5Q473 584 473.0 587.0Q473 590 469.5 593.0Q466 596 460.0 603.0Q454 610 450 619L443 635L432 624Q422 614 422 603Q422 596 417.0 590.0Q412 584 412.0 579.0Q412 574 398.0 555.0Q384 536 384 530Q384 522 380 520Q375 517 362.0 488.5Q349 460 349 453Q349 447 343.0 444.0Q337 441 337 436Q337 428 323.0 403.5Q309 379 303 377Q295 373 295 370Q295 363 248.0 269.0Q201 175 201 160Q201 153 206.5 149.5Q212 146 216 151Q219 154 220.0 154.0Q221 154 225.5 152.0Q230 150 241.5 148.5Q253 147 271 147H290Q295 147 309.0 147.0Q323 147 340.0 146.5Q357 146 373.5 146.0Q390 146 401 146Z" transform="translate(3770.00,958.33) scale(0.9583,-0.9583)" fill="#000000" />
</svg>
