<?xml version="1.0" encoding="UTF-8" standalone="no"?>
<!--
Representation of "kulupu:ma Sasali" in sitelen kalama pona
Generated by generate_sitelen_kalama_pona.py

Description:
  Representation of "kulupu:ma Sasali" in sitelen kalama pona.
  Sources: sa: https://commons.wikimedia.org/wiki/File:Sitelen_kalama_pona_-_sa.svg; sa: https://commons.wikimedia.org/wiki/File:Sitelen_kalama_pona_-_sa.svg; li: https://commons.wikimedia.org/wiki/File:Sitelen_kalama_pona_-_li.svg

Categories:
  [[Category:Sitelen kalama pona]]
  [[Category:Toki Pona text containing kulupu:ma]]
  [[Category:Toki Pona text containing sound symbol Sa]]
  [[Category:Toki Pona text containing sound symbol Sa]]
  [[Category:Toki Pona text containing sound symbol Li]]

Sources:
  sa: https://commons.wikimedia.org/wiki/File:Sitelen_kalama_pona_-_sa.svg
  sa: https://commons.wikimedia.org/wiki/File:Sitelen_kalama_pona_-_sa.svg
  li: https://commons.wikimedia.org/wiki/File:Sitelen_kalama_pona_-_li.svg
-->
<svg version="1.1" width="4271" height="1000"
     viewBox="0 0 4271 1000"
     xmlns="http://www.w3.org/2000/svg">
  <path d="M 24.637998,12.488337 H 20.72216 q -1.48166,0 -2.54,-1.058333 -1.05833,-1.058333 -1.05833,-2.54 V 3.598338 q 0,-1.481667 1.05833,-2.54 Q 19.2405,4e-6 20.72216,4e-6 h 3.915838 V 0.846671 H 20.72216 q -1.13241,0 -1.94733,0.814917 -0.80433,0.804333 -0.80433,1.93675 v 5.291666 q 0,1.132417 0.80433,1.93675 0.81492,0.814917 1.94733,0.814917 h 3.915838 z" transform="translate(-1371.19,0.00) scale(80.0747,80.0747)" fill="#000000" />
  <path d="M 75.014662,0.846671 V 4e-6 h 13.123333 v 0.846667 z m 0,11.641666 v -0.846666 h 13.123333 v 0.846666 z" transform="translate(-5405.08,0.00) scale(80.0747,80.0747)" fill="#000000" />
  <path d="M 75.014662,0.846671 V 4e-6 h 13.123333 v 0.846667 z m 0,11.641666 v -0.846666 h 13.123333 v 0.846666 z" transform="translate(-4354.24,0.00) scale(80.0747,80.0747)" fill="#000000" />
  <path d="M 75.014662,0.846671 V 4e-6 h 13.123333 v 0.846667 z m 0,11.641666 v -0.846666 h 13.123333 v 0.846666 z" transform="translate(-3303.39,0.00) scale(80.0747,80.0747)" fill="#000000" />
  <path d="m 87.714667,4e-6 h 2.8575 q 1.481666,0 2.54,1.058334 1.058333,1.058333 1.058333,2.54 v 5.291666 q 0,1.481667 -1.058333,2.54 -1.058334,1.058333 -2.54,1.058333 h -2.8575 v -0.846666 h 2.8575 q 1.132416,0 1.93675,-0.814917 0.814916,-0.804333 0.814916,-1.93675 V 3.598338 q 0,-1.132417 -0.814916,-1.93675 -0.804334,-0.814917 -1.93675,-0.814917 h -2.8575 z" transform="translate(-3269.49,0.00) scale(80.0747,80.0747)" fill="#000000" />
  <path d="M 577.64,565.25 C 577.64,456.40 383.33,439.54 383.33,286.00 C 383.33,215.36 440.44,158.77 504.81,136.38 L 521.24,183.61 C 500.67,190.76 479.72,203.37 463.83,219.27 C 444.85,238.24 433.32,260.88 433.32,285.95 C 433.32,342.59 469.36,371.28 522.33,411.26 C 572.69,449.26 627.55,490.67 627.55,565.94 C 627.55,572.64 627.10,579.52 626.16,586.58 C 626.55,591.04 626.73,595.49 626.73,599.92 C 626.73,670.56 579.14,737.39 510.17,757.95 C 506.95,758.91 506.95,758.91 415.57,760.99 L 414.43,711.01 L 498.87,709.09 C 546.17,693.40 576.72,646.05 576.72,599.58 C 576.72,594.79 576.00,586.14 576.00,586.00 C 576.00,581.85 577.64,576.17 577.64,565.25  Z M 197.72,446.47 C 197.72,492.62 208.00,522.50 208.00,530.00 C 208.00,532.16 186.84,735.12 185.86,744.60 C 185.86,744.60 136.14,739.44 136.14,739.40 C 157.70,531.63 157.70,531.63 157.70,531.63 C 151.03,502.59 147.85,474.33 147.85,447.12 C 147.85,258.30 300.17,123.35 494.47,123.35 C 520.32,123.35 546.83,125.74 573.72,130.70 C 575.87,130.50 577.95,130.42 579.99,130.42 C 597.86,130.42 618.35,135.00 635.00,135.00 C 637.38,135.00 637.38,135.00 723.71,151.45 C 723.71,151.45 714.35,200.56 714.29,200.55 C 633.32,185.13 633.32,185.13 633.32,185.13 C 632.48,185.15 631.65,185.17 630.82,185.17 C 617.86,185.17 593.41,180.49 579.47,180.49 C 576.64,180.49 576.40,181.00 573.00,181.00 C 566.76,181.00 538.47,173.33 494.42,173.33 C 329.07,173.33 197.72,285.24 197.72,446.47 Z" transform="translate(727.12,100.00) scale(0.8000,0.8000)" fill="#000000" />
  <path d="M 577.64,565.25 C 577.64,456.40 383.33,439.54 383.33,286.00 C 383.33,215.36 440.44,158.77 504.81,136.38 L 521.24,183.61 C 500.67,190.76 479.72,203.37 463.83,219.27 C 444.85,238.24 433.32,260.88 433.32,285.95 C 433.32,342.59 469.36,371.28 522.33,411.26 C 572.69,449.26 627.55,490.67 627.55,565.94 C 627.55,572.64 627.10,579.52 626.16,586.58 C 626.55,591.04 626.73,595.49 626.73,599.92 C 626.73,670.56 579.14,737.39 510.17,757.95 C 506.95,758.91 506.95,758.91 415.57,760.99 L 414.43,711.01 L 498.87,709.09 C 546.17,693.40 576.72,646.05 576.72,599.58 C 576.72,594.79 576.00,586.14 576.00,586.00 C 576.00,581.85 577.64,576.17 577.64,565.25  Z M 197.72,446.47 C 197.72,492.62 208.00,522.50 208.00,530.00 C 208.00,532.16 186.84,735.12 185.86,744.60 C 185.86,744.60 136.14,739.44 136.14,739.40 C 157.70,531.63 157.70,531.63 157.70,531.63 C 151.03,502.59 147.85,474.33 147.85,447.12 C 147.85,258.30 300.17,123.35 494.47,123.35 C 520.32,123.35 546.83,125.74 573.72,130.70 C 575.87,130.50 577.95,130.42 579.99,130.42 C 597.86,130.42 618.35,135.00 635.00,135.00 C 637.38,135.00 637.38,135.00 723.71,151.45 C 723.71,151.45 714.35,200.56 714.29,200.55 C 633.32,185.13 633.32,185.13 633.32,185.13 C 632.48,185.15 631.65,185.17 630.82,185.17 C 617.86,185.17 593.41,180.49 579.47,180.49 C 576.64,180.49 576.40,181.00 573.00,181.00 C 566.76,181.00 538.47,173.33 494.42,173.33 C 329.07,173.33 197.72,285.24 197.72,446.47 Z" transform="translate(1777.97,100.00) scale(0.8000,0.8000)" fill="#000000" />
  <path d="M 490.97,116.68 C 507.51,116.68 518.00,128.65 518.00,142.00 L 518.00,146.00 L 503.91,146.00 C 514.22,161.14 518.21,183.94 520.65,198.12 C 522.37,201.36 524.11,206.03 524.11,211.66 C 524.11,225.12 513.64,239.32 492.85,239.32 C 481.98,239.32 460.08,230.11 449.92,211.61 C 444.91,207.48 433.75,196.28 433.75,178.71 C 433.75,177.16 433.87,172.75 435.07,168.76 C 435.02,166.24 434.80,162.75 434.80,160.51 C 434.80,134.81 452.06,124.93 467.71,124.93 C 468.08,124.93 468.44,124.94 468.79,124.95 C 473.94,120.83 481.70,116.68 490.97,116.68  Z M 245.19,504.85 C 245.19,459.77 249.85,413.17 249.85,367.96 C 249.85,345.20 248.58,325.85 244.93,312.74 C 244.31,310.54 244.00,308.27 244.00,306.00 L 244.00,190.00 L 294.00,190.00 L 294.00,302.73 C 298.79,321.70 300.29,343.15 300.29,365.89 C 300.29,405.89 295.27,458.13 295.27,505.25 C 295.27,583.07 310.87,609.09 334.21,614.73 C 362.30,611.83 391.34,611.18 420.49,611.18 C 421.23,611.18 492.77,611.63 494.51,611.63 C 574.16,611.63 605.06,605.05 606.18,605.02 L 790.19,599.02 L 791.82,648.98 L 609.36,654.93 C 572.87,660.56 534.76,661.66 496.90,661.66 C 472.39,661.66 447.05,661.19 421.87,661.19 C 360.88,661.19 333.89,665.00 333.00,665.00 C 329.22,665.00 303.16,661.94 282.04,640.81 C 256.99,615.77 245.19,575.70 245.19,504.85 Z" transform="translate(2828.81,100.00) scale(0.8000,0.8000)" fill="#000000" />
</svg>
