<?xml version="1.0" encoding="UTF-8" standalone="no"?>
<!--
Representation of "lupa lipu:ma Tona" in sitelen kalama pona
Generated by generate_sitelen_kalama_pona.py

Description:
  Representation of "lupa lipu:ma Tona" in sitelen kalama pona.
  Sources: lupa: https://commons.wikimedia.org/wiki/File:Sitelen_seli_kiwen_-_lupa.svg; to: https://commons.wikimedia.org/wiki/File:Sitelen_kalama_pona_-_to.svg; na: https://commons.wikimedia.org/wiki/File:Sitelen_kalama_pona_-_na.svg

Categories:
  [[Category:Sitelen kalama pona]]
  [[Category:Toki Pona text containing lupa lipu:ma]]
  [[Category:Toki Pona text containing sound symbol To]]
  [[Category:Toki Pona text containing sound symbol Na]]

Sources:
  lupa: https://commons.wikimedia.org/wiki/File:Sitelen_seli_kiwen_-_lupa.svg
  to: https://commons.wikimedia.org/wiki/File:Sitelen_kalama_pona_-_to.svg
  na: https://commons.wikimedia.org/wiki/File:Sitelen_kalama_pona_-_na.svg
-->
<svg version="1.1" width="4163" height="1000"
     viewBox="0 0 4163 1000"
     xmlns="http://www.w3.org/2000/svg">
  <path d="M248 626Q248 623 242.0 619.0Q236 615 236 602Q236 592 233.0 566.5Q230 541 230 525Q230 506 233.0 492.0Q236 478 236 473Q236 472 233.0 449.5Q230 427 234 420Q238 407 241.5 381.0Q245 355 249.0 335.5Q253 316 260 306Q268 294 268 287Q268 278 273.0 278.0Q278 278 278.0 272.0Q278 266 300.5 245.5Q323 225 338 217Q349 212 365.0 201.5Q381 191 392.0 184.0Q403 177 408 177Q409 177 437.0 170.5Q465 164 494 164Q524 164 545.5 172.0Q567 180 568 180Q573 180 596.5 203.0Q620 226 620 230Q620 232 625.0 238.0Q630 244 637.5 255.5Q645 267 650 283Q656 302 663.0 310.0Q670 318 670 322Q670 326 668 330Q666 342 671.0 351.0Q676 360 674 364Q674 364 674.0 366.0Q674 368 674 370Q674 378 678.0 416.0Q682 454 682 494Q682 511 681.5 524.5Q681 538 680.0 544.5Q679 551 677.5 555.5Q676 560 675.0 561.0Q674 562 673.0 563.0Q672 564 672 565Q672 567 674 570Q675 575 670.5 580.5Q666 586 668 601Q670 605 670 611Q670 620 663.0 632.5Q656 645 656 659Q656 666 657.0 670.5Q658 675 662.0 682.5Q666 690 676.5 694.5Q687 699 704 699Q732 699 734 649Q735 635 738.5 592.5Q742 550 742 506Q742 458 737.5 414.0Q733 370 729.5 351.0Q726 332 724 329Q721 324 719.0 287.5Q717 251 704 237Q694 225 694 219Q694 212 689.0 212.0Q684 212 684.0 206.0Q684 200 660.5 169.0Q637 138 632 138Q630 138 626.5 134.5Q623 131 612.5 123.5Q602 116 584 109Q559 98 508 98Q460 98 460 95Q459 94 451.5 94.5Q444 95 432 97Q414 101 366.5 124.0Q319 147 316 153Q315 155 294.5 168.5Q274 182 249.5 203.0Q225 224 214 243Q195 279 182.5 335.0Q170 391 170 422V431Q170 461 166.0 495.0Q162 529 162 539Q162 541 164.0 561.0Q166 581 166 605Q166 630 164 630Q158 630 158 651Q158 666 164.0 671.0Q170 676 182 676Q230 676 230 663Q230 657 239.0 644.0Q248 631 248 626Z" transform="translate(0.00,958.33) scale(0.9583,-0.9583)" fill="#000000" />
  <path d="M 24.637998,12.488337 H 20.72216 q -1.48166,0 -2.54,-1.058333 -1.05833,-1.058333 -1.05833,-2.54 V 3.598338 q 0,-1.481667 1.05833,-2.54 Q 19.2405,4e-6 20.72216,4e-6 h 3.915838 V 0.846671 H 20.72216 q -1.13241,0 -1.94733,0.814917 -0.80433,0.804333 -0.80433,1.93675 v 5.291666 q 0,1.132417 0.80433,1.93675 0.81492,0.814917 1.94733,0.814917 h 3.915838 z" transform="translate(-428.69,0.00) scale(80.0747,80.0747)" fill="#000000" />
  <path d="M 75.014662,0.846671 V 4e-6 h 13.123333 v 0.846667 z m 0,11.641666 v -0.846666 h 13.123333 v 0.846666 z" transform="translate(-4462.58,0.00) scale(80.0747,80.0747)" fill="#000000" />
  <path d="M 75.014662,0.846671 V 4e-6 h 13.123333 v 0.846667 z m 0,11.641666 v -0.846666 h 13.123333 v 0.846666 z" transform="translate(-3411.74,0.00) scale(80.0747,80.0747)" fill="#000000" />
  <path d="m 87.714667,4e-6 h 2.8575 q 1.481666,0 2.54,1.058334 1.058333,1.058333 1.058333,2.54 v 5.291666 q 0,1.481667 -1.058333,2.54 -1.058334,1.058333 -2.54,1.058333 h -2.8575 v -0.846666 h 2.8575 q 1.132416,0 1.93675,-0.814917 0.814916,-0.804333 0.814916,-1.93675 V 3.598338 q 0,-1.132417 -0.814916,-1.93675 -0.804334,-0.814917 -1.93675,-0.814917 h -2.8575 z" transform="translate(-3377.84,0.00) scale(80.0747,80.0747)" fill="#000000" />
  <path d="M 394.00,124.00 C 394.00,81.45 444.29,65.03 462.44,59.10 C 462.44,59.10 462.90,53.08 462.93,53.08 C 494.27,55.49 494.27,55.49 498.95,58.04 C 514.72,66.62 544.03,82.57 544.03,118.54 C 544.03,118.87 544.02,119.19 544.02,119.52 C 544.10,120.95 544.14,122.38 544.14,123.81 C 544.14,157.82 521.51,193.00 485.48,193.00 C 467.69,193.00 430.32,180.54 399.02,139.03 C 395.68,134.60 394.00,129.30 394.00,124.00  Z M 486.35,142.95 C 488.73,142.04 494.13,133.57 494.13,123.32 C 494.13,121.96 494.00,121.60 494.00,120.00 C 494.00,118.93 494.08,118.15 494.08,117.18 C 494.08,115.59 494.08,113.18 481.33,105.54 C 468.40,109.74 456.48,113.88 448.31,119.91 C 453.65,125.47 469.09,140.05 486.35,142.95  Z M 446.02,428.68 C 446.02,427.98 445.86,367.32 445.86,366.70 C 445.86,326.74 446.47,286.29 450.11,245.75 C 450.11,245.75 499.90,250.22 499.89,250.25 C 496.44,288.67 495.85,328.01 495.85,367.85 C 495.85,368.62 496.01,428.05 496.01,428.66 C 496.01,441.70 496.01,442.63 494.33,446.99 C 483.61,474.89 479.21,498.48 479.21,518.20 C 479.21,626.87 616.98,643.92 686.53,643.92 C 703.77,643.92 715.09,643.00 717.00,643.00 L 827.46,645.01 C 827.46,645.01 826.55,694.99 826.54,694.99 C 717.52,693.01 717.52,693.01 717.52,693.01 C 707.08,693.62 696.55,693.94 685.98,693.94 C 541.10,693.94 429.22,635.50 429.22,518.13 C 429.22,492.19 434.72,463.99 446.01,433.40 C 446.02,431.83 446.02,430.26 446.02,428.68  Z M 162.45,275.00 C 332.96,267.45 512.54,213.00 685.47,213.00 C 685.98,213.00 686.49,213.00 687.00,213.00 C 687.04,213.00 802.32,213.00 834.66,213.00 L 844.02,205.98 C 844.02,205.98 874.02,245.99 873.98,246.02 C 857.98,258.02 857.98,258.02 857.98,258.02 C 853.56,261.34 848.28,263.00 843.00,263.00 L 685.59,263.00 C 518.31,263.00 339.14,317.32 164.10,324.97 C 163.73,324.99 163.37,325.00 163.00,325.00 L 151.00,325.00 L 151.00,275.00 L 162.45,275.00 Z" transform="translate(1669.62,100.00) scale(0.8000,0.8000)" fill="#000000" />
  <path d="M 108.86,305.66 C 108.86,140.71 217.05,29.02 382.26,29.02 C 406.69,29.02 432.26,31.46 458.75,36.48 C 466.58,34.95 474.37,34.15 481.97,34.15 C 504.36,34.15 525.15,41.06 540.69,56.60 C 556.29,72.20 564.00,93.97 564.00,117.76 C 564.00,198.00 564.00,198.00 564.00,198.00 L 514.00,198.00 L 514.00,118.13 C 513.84,103.00 509.17,84.05 482.21,84.05 C 470.85,84.05 465.10,87.00 459.00,87.00 C 452.60,87.00 423.64,78.92 381.75,78.92 C 312.70,78.92 258.11,101.70 220.49,139.32 C 181.81,178.00 158.76,234.92 158.76,305.48 C 158.76,363.36 173.81,405.43 173.99,413.43 C 174.23,423.87 174.31,434.33 174.31,444.78 C 174.31,445.67 173.61,532.64 173.61,533.63 C 173.61,585.78 176.00,603.58 176.00,608.00 L 176.00,614.00 C 176.00,615.62 176.00,615.62 167.79,679.22 C 167.30,683.02 167.30,683.02 153.70,712.49 C 153.70,712.49 108.30,691.54 108.30,691.51 L 118.70,668.98 L 126.00,612.38 L 126.00,608.97 C 124.12,584.19 123.61,559.12 123.61,534.10 C 123.61,533.20 124.32,445.72 124.32,444.72 C 124.32,435.58 124.25,426.52 124.07,417.55 C 113.84,378.59 108.86,341.04 108.86,305.66  Z M 352.00,718.00 L 302.00,718.00 L 302.00,640.00 C 302.00,639.03 305.44,621.22 312.06,543.07 C 321.82,427.82 333.32,293.02 407.76,218.57 C 441.23,185.11 487.33,164.99 546.36,164.99 C 600.67,164.99 677.60,192.32 709.46,334.91 C 721.26,387.71 724.14,443.07 724.14,486.85 C 724.14,492.87 724.09,498.67 724.00,504.21 L 724.00,584.39 L 721.99,714.39 L 672.01,713.62 L 674.00,583.81 L 674.00,503.57 C 674.09,498.51 674.14,493.23 674.14,487.76 C 674.14,417.46 665.81,295.69 612.01,241.89 C 600.85,230.73 580.92,214.98 546.17,214.98 C 478.05,214.98 418.91,245.23 387.76,363.33 C 364.12,452.96 363.73,564.23 352.00,641.91 L 352.00,718.00 Z" transform="translate(2720.47,100.00) scale(0.8000,0.8000)" fill="#000000" />
</svg>
