<?xml version="1.0" encoding="UTF-8" standalone="no"?>
<!--
Representation of "kasi pi tenpo lete o" in sitelen ilo pona
Generated by generate_sitelen_kalama_pona.py

Description:
  Representation of "kasi pi tenpo lete o" in sitelen ilo pona.
  Sources: kasi: https://commons.wikimedia.org/wiki/File:Sitelen_seli_kiwen_-_kasi.svg; pi: https://commons.wikimedia.org/wiki/File:Sitelen_seli_kiwen_-_pi.svg; tenpo: https://commons.wikimedia.org/wiki/File:Sitelen_seli_kiwen_-_tenpo.svg; lete: https://commons.wikimedia.org/wiki/File:Sitelen_seli_kiwen_-_lete.svg; o: https://commons.wikimedia.org/wiki/File:Sitelen_seli_kiwen_-_o.svg

Categories:
  [[Category:Sitelen kalama pona]]
  [[Category:Toki Pona text containing kasi pi tenpo lete o]]

Sources:
  kasi: https://commons.wikimedia.org/wiki/File:Sitelen_seli_kiwen_-_kasi.svg
  pi: https://commons.wikimedia.org/wiki/File:Sitelen_seli_kiwen_-_pi.svg
  tenpo: https://commons.wikimedia.org/wiki/File:Sitelen_seli_kiwen_-_tenpo.svg
  lete: https://commons.wikimedia.org/wiki/File:Sitelen_seli_kiwen_-_lete.svg
  o: https://commons.wikimedia.org/wiki/File:Sitelen_seli_kiwen_-_o.svg
-->
<svg version="1.1" width="4632" height="1000"
     viewBox="0 0 4632 1000"
     xmlns="http://www.w3.org/2000/svg">
  <path d="M420 121Q420 127 423.0 131.5Q426 136 426 140Q426 148 436 166Q444 184 444 208Q444 260 438 284Q434 293 434 368Q434 439 428 445Q423 450 389.0 459.5Q355 469 338 469Q324 469 295.5 483.0Q267 497 260 499Q239 505 228 514Q217 523 210 523Q200 523 164.5 556.5Q129 590 122 606Q112 626 101.0 661.0Q90 696 90 707Q90 718 97.5 722.0Q105 726 136 733Q164 739 206 739Q314 739 342 716Q391 676 416 649Q436 628 446 628Q454 628 464 645Q488 687 544 714Q579 731 597.0 734.5Q615 738 654 738Q711 738 755.0 733.5Q799 729 806 722Q810 718 810 710Q810 698 801.5 668.5Q793 639 790 634Q782 627 782 624Q782 611 740.0 568.5Q698 526 680 521Q670 518 670 512Q670 508 662 508Q653 508 630 495Q619 488 610.0 484.5Q601 481 587.0 477.0Q573 473 566 470Q561 468 544.5 465.0Q528 462 515.0 458.5Q502 455 500 450Q497 447 492.5 400.5Q488 354 488 345Q488 340 490 329Q500 302 500 145V117Q500 85 492.5 72.5Q485 60 458 60Q441 60 434 68Q429 74 424.5 91.5Q420 109 420 121ZM738 676Q738 682 690 682H666Q645 682 635.5 682.0Q626 682 616.5 680.0Q607 678 604.0 676.0Q601 674 589.5 668.0Q578 662 568 657L532 639L514 602Q492 559 492 547Q492 539 502.5 534.5Q513 530 526 530Q549 530 576.0 537.0Q603 544 616 555Q625 563 638.0 572.0Q651 581 658 586Q659 588 679.0 600.0Q699 612 702 620Q705 625 721.5 646.5Q738 668 738 676ZM334 648Q322 658 289.0 668.0Q256 678 238 678Q234 678 223.5 675.5Q213 673 198 673Q168 673 168.0 667.0Q168 661 182.5 637.5Q197 614 212 597Q227 576 254 569Q269 565 276.0 562.0Q283 559 292.5 554.0Q302 549 316 543Q345 532 350 527Q354 523 378 523Q402 523 410 532Q416 538 415.5 543.5Q415 549 404 563Q397 574 382 594Q378 598 372.0 610.0Q366 622 360.0 630.5Q354 639 348 639Q342 639 334 648Z" transform="translate(0.00,958.33) scale(0.9583,-0.9583)" fill="#000000" />
  <path d="M178 600Q178 613 172.0 629.5Q166 646 166 651Q166 660 178 675Q187 686 191.5 688.0Q196 690 206 688Q221 685 228.5 675.5Q236 666 237.0 657.5Q238 649 238 634V602Q238 561 244.0 524.5Q250 488 250 466Q250 451 248.0 418.5Q246 386 246 369Q246 369 246.0 367.0Q246 365 246.5 361.5Q247 358 247.5 353.0Q248 348 248.0 339.5Q248 331 248.5 321.0Q249 311 249.5 296.5Q250 282 250 266Q250 179 252 177Q260 168 392 168Q392 168 438.0 168.0Q484 168 532.0 168.5Q580 169 584 169Q698 169 704 167Q710 164 716 164Q722 163 728.0 144.5Q734 126 734 111Q734 109 733.0 103.5Q732 98 727.5 90.5Q723 83 716 83Q714 83 683.5 92.5Q653 102 624 102Q612 102 594.0 100.0Q576 98 562 98Q562 98 558.5 98.5Q555 99 548.0 99.5Q541 100 532.0 100.5Q523 101 510.5 101.5Q498 102 486 102Q485 102 480.5 102.0Q476 102 469.0 101.5Q462 101 454.5 100.5Q447 100 439.5 100.0Q432 100 428 100Q344 100 230 92L190 90L184 104Q180 114 180 131Q180 157 185.0 176.5Q190 196 190 218Q190 218 190.0 225.0Q190 232 190.0 242.5Q190 253 189.5 264.5Q189 276 188.5 287.0Q188 298 188 304Q188 326 190.0 374.0Q192 422 192 441Q192 517 178 540Q176 543 177.0 544.0Q178 545 180.0 545.5Q182 546 182.5 549.5Q183 553 180 562Q176 571 176 578Q176 581 177.0 588.5Q178 596 178 600Z" transform="translate(942.50,958.33) scale(0.9583,-0.9583)" fill="#000000" />
  <path d="M376 453Q376 473 372.0 493.5Q368 514 368 521Q368 531 376.0 540.0Q384 549 394 549Q399 549 406.5 543.0Q414 537 422 535Q428 534 430.0 526.0Q432 518 436 487Q438 459 438 448Q438 430 436.0 416.0Q434 402 434 397Q434 381 442.5 376.5Q451 372 478 372Q508 372 547.0 377.5Q586 383 594 383Q603 383 612.5 373.0Q622 363 622 352Q622 345 619.5 338.0Q617 331 605.5 322.5Q594 314 574 313Q565 313 529.5 307.5Q494 302 448 302Q404 302 394.5 303.5Q385 305 378 313L368 324L374 392Q376 432 376 453ZM532 74H528Q525 74 513.5 71.0Q502 68 480.0 65.5Q458 63 430 63Q400 63 381.0 67.5Q362 72 351.0 77.5Q340 83 334 84Q323 85 307.0 90.0Q291 95 276.0 101.5Q261 108 248.0 114.0Q235 120 227.0 124.0Q219 128 218 128Q213 128 187.5 152.0Q162 176 162 182Q162 183 147.5 201.0Q133 219 118.5 251.0Q104 283 104 317Q104 339 112.0 373.5Q120 408 120 417Q120 447 124.5 464.5Q129 482 142 505Q162 536 162 540Q162 543 183.0 567.0Q204 591 204.0 594.0Q204 597 221.0 613.5Q238 630 238 634Q238 639 242 639Q246 639 255.0 646.0Q264 653 276.5 663.5Q289 674 298 679Q307 684 324.5 695.0Q342 706 356.0 713.5Q370 721 378 723Q385 725 422 725Q478 725 504.0 720.0Q530 715 534 715Q546 715 580.0 699.5Q614 684 640 678Q649 676 659.5 668.5Q670 661 678 658Q687 655 710.5 628.5Q734 602 734 595Q734 592 748.0 570.5Q762 549 762 544Q762 543 766.0 533.5Q770 524 775.5 506.0Q781 488 784 468Q785 453 788 446Q794 436 795.0 422.5Q796 409 796 339Q796 337 790.5 319.0Q785 301 784 291Q784 278 780 278Q778 278 774.0 261.5Q770 245 766 243Q764 242 758.0 229.0Q752 216 740.5 198.0Q729 180 716 168Q694 148 688 141Q681 133 676 133Q674 133 653.5 120.0Q633 107 626 106Q615 104 577.0 89.0Q539 74 532 74ZM442 131Q445 131 461.0 132.0Q477 133 501.0 135.5Q525 138 542.5 142.5Q560 147 560 154Q560 159 570.5 160.0Q581 161 598.5 165.0Q616 169 628 180Q644 194 648 194Q656 194 670.5 210.0Q685 226 697.5 242.5Q710 259 710 259Q716 259 726.0 296.5Q736 334 736 352Q736 355 732.5 375.5Q729 396 728 424Q726 459 713.5 494.0Q701 529 690.0 546.5Q679 564 678 564Q674 564 674 571Q674 578 655.5 594.5Q637 611 630 611Q622 611 622 616Q622 620 614 620Q607 620 604 627Q596 641 542.5 653.5Q489 666 448 666Q424 666 388.5 658.5Q353 651 340 636Q333 629 313.0 617.5Q293 606 282 593Q258 567 250 559Q232 544 232 534Q232 528 213.0 509.5Q194 491 194 487Q194 485 187.0 467.0Q180 449 178 430Q177 411 170.5 371.5Q164 332 164 323Q164 316 168.5 298.5Q173 281 193.0 245.5Q213 210 246 185Q282 156 290 156Q293 156 342.5 143.5Q392 131 442 131Z" transform="translate(1885.00,958.33) scale(0.9583,-0.9583)" fill="#000000" />
  <path d="M452 322Q449 322 431.5 296.0Q414 270 414 265Q414 262 411.5 260.0Q409 258 404.0 251.0Q399 244 394 231Q378 195 374 185Q364 166 364 159Q364 157 365.0 155.0Q366 153 366 153Q366 151 364 149Q361 146 358.0 128.0Q355 110 347.0 95.5Q339 81 324 81Q304 81 283.0 95.0Q262 109 262 121Q262 127 270.0 135.5Q278 144 278.0 149.0Q278 154 283.5 159.5Q289 165 292 172Q298 185 325.5 234.0Q353 283 376.5 326.5Q400 370 400 375Q400 380 392 380Q370 380 283.5 373.5Q197 367 182 367Q157 367 137.5 370.0Q118 373 108.5 376.5Q99 380 92.5 384.0Q86 388 85.0 390.5Q84 393 84 394Q84 402 91.5 415.0Q99 428 104 430Q132 440 268 440H278Q354 440 354.0 445.0Q354 450 340.0 465.0Q326 480 322 480Q316 480 316 488Q316 497 304 508Q296 515 280.5 533.0Q265 551 252.5 563.5Q240 576 236 576Q236 576 234 576Q232 576 232.0 576.5Q232 577 232 580Q232 588 225.0 588.0Q218 588 218 600Q218 615 226.5 625.5Q235 636 248 636Q263 636 283.5 619.0Q304 602 317.0 585.0Q330 568 330 566Q330 562 359.0 524.0Q388 486 396 479Q402 474 407.5 466.0Q413 458 416.5 453.0Q420 448 424 448Q431 448 441.0 460.5Q451 473 458.5 485.5Q466 498 466 498Q469 498 482.0 523.0Q495 548 514.5 583.5Q534 619 546 638Q560 656 560 662Q560 667 577.0 681.5Q594 696 604 696Q610 696 614 691Q615 688 625.5 682.5Q636 677 636 667Q636 655 629.0 645.0Q622 635 602.5 609.5Q583 584 564 548Q550 523 534.5 500.5Q519 478 511.5 467.5Q504 457 504 454Q504 449 515.5 445.0Q527 441 532 445Q540 450 648.5 453.0Q757 456 770 460Q778 462 782 462Q796 462 806.0 452.5Q816 443 816 430Q816 405 786.5 397.5Q757 390 696 390H680Q612 390 564.0 383.5Q516 377 510 377Q496 377 496 371Q496 361 526.0 328.0Q556 295 556 290Q556 286 574.0 267.0Q592 248 594 242Q594 234 604.0 233.0Q614 232 614 223Q614 217 636.0 194.0Q658 171 658 167Q658 161 662 161Q668 161 669.5 149.0Q671 137 666 127Q662 116 651.5 115.5Q641 115 631.0 120.5Q621 126 611.0 132.0Q601 138 598 138Q592 138 578 150Q570 157 569.0 160.5Q568 164 568 177Q568 187 560.0 202.0Q552 217 546 217Q544 217 538.5 224.5Q533 232 522.0 246.5Q511 261 498 274Q488 285 476.5 298.5Q465 312 460.0 317.0Q455 322 452 322Z" transform="translate(2827.50,958.33) scale(0.9583,-0.9583)" fill="#000000" />
  <path d="M596 170Q596 145 587.0 128.0Q578 111 569.0 103.0Q560 95 560 92Q560 87 535.5 62.5Q511 38 494 26Q472 9 404 9Q376 9 376 16Q376 19 350 33Q324 47 314.0 64.5Q304 82 304 115Q304 148 311.5 167.5Q319 187 336 204Q354 222 358.5 222.0Q363 222 364 231Q364 233 371.0 241.0Q378 249 395.5 258.5Q413 268 434 268Q453 268 477.5 263.0Q502 258 530.0 248.0Q558 238 577.0 217.5Q596 197 596 170ZM366 127Q366 116 379.5 96.5Q393 77 416 77Q456 77 468.5 83.5Q481 90 502 118Q528 151 528 166Q528 176 524.0 182.0Q520 188 515.5 190.5Q511 193 500 197Q478 206 456 206Q447 206 435.5 202.5Q424 199 417.0 195.0Q410 191 410 189Q410 186 400 182Q394 180 385.0 166.5Q376 153 376 144Q376 140 371.0 136.5Q366 133 366 127ZM454 739Q461 739 472.0 736.0Q483 733 484 733Q486 733 490.0 714.5Q494 696 494 681V673Q494 657 495.0 637.5Q496 618 496 607Q496 578 492.0 527.0Q488 476 488 446Q488 431 488.5 420.0Q489 409 489.5 403.0Q490 397 490 396Q490 392 489.0 386.0Q488 380 483.0 370.0Q478 360 470 360Q466 360 460 363Q450 369 446.5 361.5Q443 354 430 363Q418 370 418 384Q418 388 424.5 404.5Q431 421 432 463Q432 492 435.0 529.5Q438 567 438 599Q438 603 432.0 641.0Q426 679 426 697Q426 739 454 739Z" transform="translate(3770.00,958.33) scale(0.9583,-0.9583)" fill="#000000" />
</svg>
