<?xml version="1.0" encoding="UTF-8" standalone="no"?>
<!--
Representation of "palisa Wa" in sitelen ilo pona
Generated by generate_sitelen_kalama_pona.py

Description:
  Representation of "palisa Wa" in sitelen ilo pona.
  Sources: palisa: https://commons.wikimedia.org/wiki/File:Sitelen_seli_kiwen_-_palisa.svg; wa: https://commons.wikimedia.org/wiki/File:Sitelen_kalama_pona_-_wa.svg

Categories:
  [[Category:Sitelen kalama pona]]
  [[Category:Toki Pona text containing palisa]]
  [[Category:Toki Pona text containing sound symbol Wa]]

Sources:
  palisa: https://commons.wikimedia.org/wiki/File:Sitelen_seli_kiwen_-_palisa.svg
  wa: https://commons.wikimedia.org/wiki/File:Sitelen_kalama_pona_-_wa.svg
-->
<svg version="1.1" width="3112" height="1000"
     viewBox="0 0 3112 1000"
     xmlns="http://www.w3.org/2000/svg">
  <path d="M354 109Q354 119 349.0 125.5Q344 132 344 137Q344 148 343 149Q342 149 340 146Q335 139 334 151Q334 157 334 167Q334 176 325.0 200.5Q316 225 316 236Q316 264 311.0 293.5Q306 323 306 371Q306 414 302.0 433.5Q298 453 298 466Q298 480 295.0 499.5Q292 519 292 523Q292 526 294 532Q296 537 298.0 559.5Q300 582 302.0 612.5Q304 643 308 660Q312 683 312 700Q312 717 322 726Q334 738 328 738Q326 738 334.5 746.5Q343 755 354.0 764.5Q365 774 368 776Q375 778 406 778Q466 778 474 769Q478 761 484 761Q488 761 493.0 754.0Q498 747 504 747Q512 747 532.5 723.5Q553 700 554 690Q554 688 561.0 677.5Q568 667 568 660Q569 658 577.0 622.0Q585 586 586 552Q593 409 604 402Q606 400 605.0 396.0Q604 392 602.0 386.5Q600 381 602 373Q608 358 608 282Q608 146 598 136Q594 131 594 120Q594 97 566.0 72.0Q538 47 484 47Q483 47 447.0 54.0Q411 61 410 62Q409 64 397.0 69.5Q385 75 376 84Q364 95 359.0 95.0Q354 95 354 109ZM540 188Q540 215 545.0 231.5Q550 248 550 260Q550 262 548.5 295.5Q547 329 544.0 365.5Q541 402 540 405Q534 414 530 500Q527 589 511.5 628.5Q496 668 446 714Q432 726 414 726Q394 726 382 712Q378 707 371.5 688.0Q365 669 358.5 630.5Q352 592 352 550Q352 536 353.5 536.0Q355 536 358.0 503.0Q361 470 364.5 412.5Q368 355 370 299Q371 255 376.0 237.0Q381 219 406 164Q411 152 416.5 145.0Q422 138 442.5 129.0Q463 120 494 120Q528 120 528 133Q528 142 532 142Q535 142 539.0 152.0Q543 162 542 168Q540 173 540 188Z" transform="translate(0.00,958.33) scale(0.9583,-0.9583)" fill="#000000" />
  <path d="M 24.637998,12.488337 H 20.72216 q -1.48166,0 -2.54,-1.058333 -1.05833,-1.058333 -1.05833,-2.54 V 3.598338 q 0,-1.481667 1.05833,-2.54 Q 19.2405,4e-6 20.72216,4e-6 h 3.915838 V 0.846671 H 20.72216 q -1.13241,0 -1.94733,0.814917 -0.80433,0.804333 -0.80433,1.93675 v 5.291666 q 0,1.132417 0.80433,1.93675 0.81492,0.814917 1.94733,0.814917 h 3.915838 z" transform="translate(-428.69,0.00) scale(80.0747,80.0747)" fill="#000000" />
  <path d="M 75.014662,0.846671 V 4e-6 h 13.123333 v 0.846667 z m 0,11.641666 v -0.846666 h 13.123333 v 0.846666 z" transform="translate(-4462.58,0.00) scale(80.0747,80.0747)" fill="#000000" />
  <path d="m 87.714667,4e-6 h 2.8575 q 1.481666,0 2.54,1.058334 1.058333,1.058333 1.058333,2.54 v 5.291666 q 0,1.481667 -1.058333,2.54 -1.058334,1.058333 -2.54,1.058333 h -2.8575 v -0.846666 h 2.8575 q 1.132416,0 1.93675,-0.814917 0.814916,-0.804333 0.814916,-1.93675 V 3.598338 q 0,-1.132417 -0.814916,-1.93675 -0.804334,-0.814917 -1.93675,-0.814917 h -2.8575 z" transform="translate(-4428.68,0.00) scale(80.0747,80.0747)" fill="#000000" />
  <path d="M 184.38,603.07 C 184.38,619.66 179.99,631.36 179.99,643.91 L 130.01,644.09 C 130.00,643.96 130.00,643.83 130.00,643.71 C 130.00,626.09 134.39,613.74 134.39,602.97 C 134.39,599.52 134.00,598.63 134.00,596.00 C 134.00,572.39 141.02,494.57 141.02,442.55 C 141.02,413.96 139.64,414.42 139.64,377.95 C 139.64,286.32 150.35,77.39 291.04,30.30 C 293.62,29.44 296.31,29.00 299.00,29.00 C 311.77,29.00 332.18,43.47 342.91,54.20 C 382.83,94.12 386.03,157.56 386.03,208.75 C 386.03,220.90 386.03,221.95 385.64,224.21 C 384.66,229.95 384.20,235.81 384.20,241.67 C 384.20,281.58 406.11,325.38 443.03,332.30 C 479.72,311.28 489.71,225.28 492.11,195.29 C 490.31,167.55 488.39,132.39 488.39,108.14 C 488.39,87.09 489.71,79.35 497.01,72.05 C 500.14,68.92 506.81,64.66 515.07,64.66 C 540.07,64.66 541.82,91.26 543.05,109.98 C 543.69,119.81 544.13,131.97 544.13,145.70 C 544.13,152.27 544.07,171.76 542.25,195.89 C 542.27,196.15 544.00,221.22 544.00,222.00 C 544.00,224.14 543.34,230.15 543.34,239.79 C 543.34,275.62 553.16,320.92 602.86,320.92 C 653.85,320.92 724.98,271.74 737.04,203.54 C 737.05,201.81 737.06,199.97 737.06,198.04 C 737.06,185.63 736.66,174.01 735.62,156.45 C 732.53,143.32 730.11,141.35 730.01,134.36 C 729.94,129.75 729.91,125.76 729.91,122.31 C 729.91,101.66 730.91,96.13 738.02,89.02 C 741.14,85.90 747.81,81.67 756.02,81.67 C 759.85,81.67 777.38,82.91 781.26,105.15 C 782.36,111.46 783.87,126.13 785.32,149.67 C 787.64,161.00 788.73,172.15 788.73,183.05 C 788.73,190.45 788.23,197.73 787.27,204.87 C 787.28,206.17 787.29,207.43 787.29,208.66 C 787.29,215.10 787.09,220.65 786.04,226.36 C 786.78,262.00 789.77,310.15 789.77,353.76 C 789.77,445.84 780.66,614.38 612.04,614.38 C 598.56,614.38 584.27,613.27 569.18,611.01 L 321.20,612.99 L 320.80,563.01 L 571.00,561.00 C 571.42,561.00 595.53,564.55 613.31,564.55 C 709.24,564.55 739.69,492.00 739.69,353.34 C 739.69,337.31 739.32,321.18 738.80,305.28 C 726.08,319.20 674.06,370.93 603.47,370.93 C 563.61,370.93 532.13,353.09 513.47,322.82 C 490.16,371.46 456.59,383.00 447.00,383.00 C 444.66,383.00 408.52,382.47 376.67,350.62 C 349.08,323.03 334.11,282.95 334.11,242.61 C 334.11,225.02 336.02,225.35 336.02,212.10 C 336.02,161.49 333.44,104.28 297.37,81.39 C 205.31,121.59 189.64,277.46 189.64,378.93 C 189.64,383.95 191.03,442.24 191.03,442.88 C 191.03,474.28 189.09,504.89 187.22,534.95 C 185.96,555.23 184.71,575.27 184.04,595.17 C 184.28,597.90 184.38,600.54 184.38,603.07 Z" transform="translate(1669.62,100.00) scale(0.8000,0.8000)" fill="#000000" />
</svg>
