<?xml version="1.0" encoding="UTF-8" standalone="no"?>
<!--
Representation of "toki luka Esalasi" in sitelen ilo pona
Generated by generate_sitelen_kalama_pona.py

Description:
  Representation of "toki luka Esalasi" in sitelen ilo pona.
  Sources: toki: https://commons.wikimedia.org/wiki/File:Sitelen_seli_kiwen_-_toki.svg; luka: https://commons.wikimedia.org/wiki/File:Sitelen_seli_kiwen_-_luka.svg; e: https://commons.wikimedia.org/wiki/File:Sitelen_kalama_pona_-_xe.svg; sa: https://commons.wikimedia.org/wiki/File:Sitelen_kalama_pona_-_sa.svg; la: https://commons.wikimedia.org/wiki/File:Sitelen_kalama_pona_-_la.svg; si: https://commons.wikimedia.org/wiki/File:Sitelen_kalama_pona_-_si.svg

Categories:
  [[Category:Sitelen kalama pona]]
  [[Category:Toki Pona text containing toki luka]]
  [[Category:Toki Pona text containing sound symbol E]]
  [[Category:Toki Pona text containing sound symbol Sa]]
  [[Category:Toki Pona text containing sound symbol La]]
  [[Category:Toki Pona text containing sound symbol Si]]

Sources:
  toki: https://commons.wikimedia.org/wiki/File:Sitelen_seli_kiwen_-_toki.svg
  luka: https://commons.wikimedia.org/wiki/File:Sitelen_seli_kiwen_-_luka.svg
  e: https://commons.wikimedia.org/wiki/File:Sitelen_kalama_pona_-_xe.svg
  sa: https://commons.wikimedia.org/wiki/File:Sitelen_kalama_pona_-_sa.svg
  la: https://commons.wikimedia.org/wiki/File:Sitelen_kalama_pona_-_la.svg
  si: https://commons.wikimedia.org/wiki/File:Sitelen_kalama_pona_-_si.svg
-->
<svg version="1.1" width="7207" height="1000"
     viewBox="0 0 7207 1000"
     xmlns="http://www.w3.org/2000/svg">
  <path d="M222 295Q222 320 228.0 339.0Q234 358 240.0 368.0Q246 378 246 382Q246 395 265.0 421.5Q284 448 300 456Q316 465 325.0 475.0Q334 485 335.5 491.0Q337 497 344.0 502.0Q351 507 366 509Q385 512 401.0 516.5Q417 521 428 521Q445 521 487.0 512.0Q529 503 540 503Q552 503 571.5 496.0Q591 489 608.0 481.5Q625 474 628 473Q640 469 640 463Q640 457 647.0 453.0Q654 449 654.0 445.0Q654 441 660.5 434.5Q667 428 676.0 416.0Q685 404 690 391Q700 367 702 365Q706 361 706 347Q706 339 709.0 330.5Q712 322 713.0 320.0Q714 318 712 314Q709 312 707.0 303.0Q705 294 700.0 278.5Q695 263 686 250Q678 237 671.0 219.5Q664 202 654 192Q647 185 644.5 179.5Q642 174 642.5 171.0Q643 168 639.5 165.0Q636 162 626 158Q608 150 608 146Q608 141 586.5 133.0Q565 125 538.0 117.0Q511 109 504 106Q488 98 458 98Q419 98 389.5 107.0Q360 116 345.5 124.5Q331 133 330 133Q322 133 305.0 142.5Q288 152 286 157Q285 165 278 167Q265 172 249.0 217.5Q233 263 230 265Q222 270 222 295ZM584 428Q581 428 570.5 436.0Q560 444 534.0 452.5Q508 461 468 461Q434 461 405.0 452.5Q376 444 361.0 435.0Q346 426 333.0 411.5Q320 397 317.5 393.0Q315 389 312 384Q308 374 302 374Q297 374 289.5 351.5Q282 329 282 313Q282 289 313.5 236.0Q345 183 378 177Q397 173 402 170Q416 163 460 163Q496 163 511.0 169.0Q526 175 528 175Q533 175 548.0 180.5Q563 186 588.0 205.5Q613 225 626 254Q643 288 645.5 296.5Q648 305 648 318Q648 349 638 370Q633 383 611.5 405.5Q590 428 584 428ZM144 612Q144 622 151.5 632.5Q159 643 172 643Q181 643 202.5 624.5Q224 606 227.5 606.0Q231 606 235.0 599.0Q239 592 244 592Q249 592 258.5 579.0Q268 566 268 555Q268 545 259.5 539.5Q251 534 243 533L234 532Q226 532 207.5 550.5Q189 569 182 569Q175 569 170.5 576.0Q166 583 162 583Q144 595 144 612ZM622 636Q645 645 677.0 671.5Q709 698 726 698Q740 698 748.0 689.5Q756 681 756 667Q756 654 752.0 648.5Q748 643 734 636Q722 629 700.0 615.0Q678 601 661.5 591.5Q645 582 638 580Q629 577 623.5 573.0Q618 569 608 569Q580 569 580 589Q580 601 592.0 615.0Q604 629 622 636ZM400 600Q400 601 403.0 615.0Q406 629 409.0 652.0Q412 675 412 697Q412 706 410 712Q405 729 429 742Q447 751 448 740Q448 734 458 730Q464 729 465.0 725.0Q466 721 466 708Q466 673 461.0 651.5Q456 630 456 608Q456 595 444.0 583.0Q432 571 420 571Q410 571 405.0 580.0Q400 589 400 600Z" transform="translate(0.00,958.33) scale(0.9583,-0.9583)" fill="#000000" />
  <path d="M742 177Q742 182 740.0 186.0Q738 190 738 197Q738 205 740.0 221.5Q742 238 742 242Q742 243 742.0 244.5Q742 246 742 246Q740 248 736.0 328.5Q732 409 726 412Q723 414 724 423Q724 423 725.0 425.5Q726 428 726 429Q726 457 705.5 519.0Q685 581 662 605Q649 617 624.0 630.5Q599 644 588 644Q580 644 581 646Q581 646 585 648Q594 653 580 654Q570 654 556 656Q549 657 521.0 648.5Q493 640 468.5 630.0Q444 620 444 618Q444 614 430 610Q420 608 402.0 592.5Q384 577 384 571Q384 569 381.0 565.5Q378 562 373.0 551.5Q368 541 364 524Q364 523 348.0 468.5Q332 414 332 413Q326 401 326 300Q326 204 334.0 172.0Q342 140 342 70Q342 57 341.5 51.0Q341 45 339.0 36.0Q337 27 333.5 23.5Q330 20 322.5 17.0Q315 14 304 14Q278 14 266 38Q261 47 248.5 60.0Q236 73 228 87Q218 105 214 105Q210 105 210 110Q210 116 193.0 141.0Q176 166 172.0 166.0Q168 166 168.0 172.0Q168 178 148.0 197.5Q128 217 108.0 239.5Q88 262 88 276Q88 292 98.5 302.0Q109 312 124 312Q142 312 173.5 273.5Q205 235 231.0 196.0Q257 157 262 157Q270 157 270 186Q270 191 269.0 212.0Q268 233 267.0 267.0Q266 301 266 335Q266 371 267.0 379.5Q268 388 274 393Q279 397 282.5 426.0Q286 455 290 458Q294 463 294 486Q294 499 297.5 511.5Q301 524 304.5 531.5Q308 539 308 540L306 541L307 546L308 547Q315 555 330.5 588.5Q346 622 346 627Q346 632 356.0 636.5Q366 641 366 646Q366 650 386.0 666.0Q406 682 438.5 697.5Q471 713 496 713H504Q520 713 530.0 717.5Q540 722 558 722Q584 722 611.0 713.0Q638 704 652.5 694.5Q667 685 668 682Q670 677 676 677Q681 677 702.0 655.5Q723 634 734 618Q751 595 766.0 548.5Q781 502 782 501Q784 497 784 490Q784 488 783.0 484.0Q782 480 782 478Q782 471 786.0 461.0Q790 451 794.0 432.5Q798 414 802.0 343.5Q806 273 806 161Q806 156 809.0 130.5Q812 105 812 92Q812 77 809.0 65.5Q806 54 802.0 48.0Q798 42 793.0 38.0Q788 34 785.0 33.0Q782 32 780 32Q770 32 750 49Q740 58 738.0 65.5Q736 73 736 99Q736 124 739.0 149.0Q742 174 742 177Z" transform="translate(942.50,958.33) scale(0.9583,-0.9583)" fill="#000000" />
  <path d="M 24.637998,12.488337 H 20.72216 q -1.48166,0 -2.54,-1.058333 -1.05833,-1.058333 -1.05833,-2.54 V 3.598338 q 0,-1.481667 1.05833,-2.54 Q 19.2405,4e-6 20.72216,4e-6 h 3.915838 V 0.846671 H 20.72216 q -1.13241,0 -1.94733,0.814917 -0.80433,0.804333 -0.80433,1.93675 v 5.291666 q 0,1.132417 0.80433,1.93675 0.81492,0.814917 1.94733,0.814917 h 3.915838 z" transform="translate(513.81,0.00) scale(80.0747,80.0747)" fill="#000000" />
  <path d="M 75.014662,0.846671 V 4e-6 h 13.123333 v 0.846667 z m 0,11.641666 v -0.846666 h 13.123333 v 0.846666 z" transform="translate(-3520.08,0.00) scale(80.0747,80.0747)" fill="#000000" />
  <path d="M 75.014662,0.846671 V 4e-6 h 13.123333 v 0.846667 z m 0,11.641666 v -0.846666 h 13.123333 v 0.846666 z" transform="translate(-2469.24,0.00) scale(80.0747,80.0747)" fill="#000000" />
  <path d="M 75.014662,0.846671 V 4e-6 h 13.123333 v 0.846667 z m 0,11.641666 v -0.846666 h 13.123333 v 0.846666 z" transform="translate(-1418.39,0.00) scale(80.0747,80.0747)" fill="#000000" />
  <path d="M 75.014662,0.846671 V 4e-6 h 13.123333 v 0.846667 z m 0,11.641666 v -0.846666 h 13.123333 v 0.846666 z" transform="translate(-367.54,0.00) scale(80.0747,80.0747)" fill="#000000" />
  <path d="m 87.714667,4e-6 h 2.8575 q 1.481666,0 2.54,1.058334 1.058333,1.058333 1.058333,2.54 v 5.291666 q 0,1.481667 -1.058333,2.54 -1.058334,1.058333 -2.54,1.058333 h -2.8575 v -0.846666 h 2.8575 q 1.132416,0 1.93675,-0.814917 0.814916,-0.804333 0.814916,-1.93675 V 3.598338 q 0,-1.132417 -0.814916,-1.93675 -0.804334,-0.814917 -1.93675,-0.814917 h -2.8575 z" transform="translate(-333.64,0.00) scale(80.0747,80.0747)" fill="#000000" />
  <path d="M 312.05,735.45 C 394.84,735.45 484.55,719.15 572.98,719.15 C 589.31,719.15 605.66,719.70 622.01,721.00 L 623.20,721.00 C 576.40,642.58 526.57,564.31 474.64,486.78 C 444.44,551.54 400.48,608.47 358.62,663.16 C 339.95,687.54 321.63,711.50 304.90,735.40 C 307.28,735.43 309.66,735.45 312.05,735.45  Z M 739.76,83.70 C 730.46,83.67 709.10,91.78 690.85,91.78 C 683.12,91.78 672.75,90.37 663.58,83.64 C 661.10,83.43 658.46,83.33 655.69,83.33 C 621.21,83.33 564.31,99.00 545.00,99.00 C 543.85,99.00 527.25,98.70 511.53,98.70 C 477.64,98.70 451.60,98.70 401.87,108.52 C 358.79,117.03 315.06,118.01 276.61,123.99 C 424.60,319.18 567.32,525.74 688.60,733.40 C 690.86,737.28 692.00,741.64 692.00,746.00 C 692.00,759.81 680.81,771.00 667.00,771.00 L 621.00,771.00 C 618.01,771.00 602.36,769.17 573.58,769.17 C 487.28,769.17 397.97,785.45 312.50,785.45 C 304.61,785.45 296.73,785.31 288.88,785.01 C 288.82,785.01 288.76,785.01 288.70,785.01 C 286.84,785.07 284.60,785.17 282.04,785.17 C 261.02,785.17 253.42,778.71 248.90,774.19 C 242.73,768.02 239.91,759.18 239.91,751.19 C 239.91,744.50 241.81,739.86 243.92,736.54 C 307.31,637.40 400.41,545.42 441.22,437.41 C 368.07,330.47 291.24,225.20 213.13,123.18 C 209.71,118.71 208.00,113.36 208.00,108.00 C 208.00,107.19 208.20,89.35 225.78,84.07 C 280.29,67.68 336.88,70.35 391.87,59.53 C 432.78,50.54 470.46,48.70 510.99,48.70 C 521.76,48.70 532.73,48.83 544.02,48.99 C 574.88,45.99 616.18,33.06 653.36,33.06 C 662.23,33.06 671.10,33.76 679.84,35.48 C 684.29,36.35 688.54,38.43 692.06,41.73 C 703.48,41.11 721.01,33.68 739.18,33.68 C 744.43,33.68 761.06,34.05 772.54,48.41 L 733.49,79.63 C 735.06,81.51 737.70,82.31 739.76,83.70 Z" transform="translate(2612.12,100.00) scale(0.8000,0.8000)" fill="#000000" />
  <path d="M 577.64,565.25 C 577.64,456.40 383.33,439.54 383.33,286.00 C 383.33,215.36 440.44,158.77 504.81,136.38 L 521.24,183.61 C 500.67,190.76 479.72,203.37 463.83,219.27 C 444.85,238.24 433.32,260.88 433.32,285.95 C 433.32,342.59 469.36,371.28 522.33,411.26 C 572.69,449.26 627.55,490.67 627.55,565.94 C 627.55,572.64 627.10,579.52 626.16,586.58 C 626.55,591.04 626.73,595.49 626.73,599.92 C 626.73,670.56 579.14,737.39 510.17,757.95 C 506.95,758.91 506.95,758.91 415.57,760.99 L 414.43,711.01 L 498.87,709.09 C 546.17,693.40 576.72,646.05 576.72,599.58 C 576.72,594.79 576.00,586.14 576.00,586.00 C 576.00,581.85 577.64,576.17 577.64,565.25  Z M 197.72,446.47 C 197.72,492.62 208.00,522.50 208.00,530.00 C 208.00,532.16 186.84,735.12 185.86,744.60 C 185.86,744.60 136.14,739.44 136.14,739.40 C 157.70,531.63 157.70,531.63 157.70,531.63 C 151.03,502.59 147.85,474.33 147.85,447.12 C 147.85,258.30 300.17,123.35 494.47,123.35 C 520.32,123.35 546.83,125.74 573.72,130.70 C 575.87,130.50 577.95,130.42 579.99,130.42 C 597.86,130.42 618.35,135.00 635.00,135.00 C 637.38,135.00 637.38,135.00 723.71,151.45 C 723.71,151.45 714.35,200.56 714.29,200.55 C 633.32,185.13 633.32,185.13 633.32,185.13 C 632.48,185.15 631.65,185.17 630.82,185.17 C 617.86,185.17 593.41,180.49 579.47,180.49 C 576.64,180.49 576.40,181.00 573.00,181.00 C 566.76,181.00 538.47,173.33 494.42,173.33 C 329.07,173.33 197.72,285.24 197.72,446.47 Z" transform="translate(3662.97,100.00) scale(0.8000,0.8000)" fill="#000000" />
  <path d="M 137.42,727.97 C 137.42,724.96 138.01,720.78 140.14,716.64 C 140.05,715.76 140.00,714.88 140.00,714.00 C 140.00,711.03 140.53,708.05 141.59,705.23 C 204.75,536.10 130.88,250.01 265.37,116.27 C 270.25,111.43 276.62,109.00 283.00,109.00 C 296.38,109.00 327.97,129.53 348.28,149.84 C 428.95,230.51 430.02,370.47 430.97,494.26 C 431.32,539.74 431.72,582.36 435.82,617.05 C 435.84,617.20 436.43,623.29 436.43,632.20 C 436.43,646.65 434.85,661.28 431.77,675.17 L 813.12,677.01 C 813.12,677.01 812.88,726.99 812.88,726.99 C 396.88,724.99 396.88,724.99 396.88,724.99 C 383.11,724.93 372.00,713.77 372.00,700.00 C 372.00,696.20 372.86,692.40 374.58,688.92 C 381.54,674.85 386.39,651.83 386.39,630.82 C 386.39,627.95 386.30,625.12 386.11,622.35 C 375.38,530.47 388.56,401.56 367.48,299.97 C 352.35,227.03 323.36,187.73 288.31,165.45 C 195.08,281.64 246.48,525.80 197.36,695.64 C 205.96,698.41 220.41,705.61 220.41,722.72 C 220.41,749.15 190.99,751.32 176.67,752.37 C 173.09,752.64 169.85,752.84 167.41,752.99 C 166.78,753.03 166.20,753.00 165.66,753.00 C 165.55,753.00 165.45,753.00 165.35,753.00 C 165.26,753.00 165.17,753.01 165.08,753.01 C 164.00,753.05 163.35,753.07 163.07,753.08 C 162.26,752.98 160.88,753.14 158.62,752.80 C 141.18,750.15 137.42,734.26 137.42,727.97  Z M 177.36,709.28 L 177.27,739.64 L 180.08,741.72 L 180.08,710.41 L 177.36,709.28  Z M 167.35,748.98 C 173.05,747.32 180.08,745.77 180.08,745.77 L 180.08,742.68 C 177.55,742.00 173.21,740.98 167.20,739.81 L 167.35,748.98 Z" transform="translate(4713.81,100.00) scale(0.8000,0.8000)" fill="#000000" />
  <path d="M 463.00,119.00 C 450.73,119.00 395.37,101.32 395.37,62.11 C 395.37,52.70 398.92,44.22 403.57,38.02 L 401.79,32.06 L 413.64,28.51 C 420.12,24.04 428.56,21.00 435.00,21.00 C 435.85,21.00 436.71,21.05 437.56,21.14 C 438.47,20.87 439.92,20.51 442.59,20.51 C 451.27,20.51 456.09,23.30 458.35,24.77 C 468.23,25.64 476.86,28.46 484.18,35.78 C 491.41,43.00 494.18,52.76 494.18,61.57 C 494.18,62.64 494.14,63.69 494.06,64.73 C 494.16,66.89 494.27,69.36 494.27,72.08 C 494.27,96.97 482.63,119.00 463.00,119.00  Z M 519.20,142.62 C 563.42,142.62 590.00,165.34 590.00,186.00 L 590.00,194.00 L 541.73,194.00 C 542.00,195.38 542.27,196.76 542.95,197.74 C 540.81,196.28 532.41,192.66 518.53,192.66 C 517.38,192.66 516.28,192.69 515.24,192.74 C 463.42,206.95 389.46,253.45 389.46,318.95 C 389.46,354.12 424.15,384.23 455.23,411.20 C 494.33,445.13 540.22,484.96 540.22,550.82 C 540.22,566.94 536.74,607.11 505.05,638.79 C 474.37,669.47 423.97,688.31 335.16,688.31 C 319.56,688.31 306.63,688.20 257.34,684.94 C 257.34,684.94 260.63,635.06 260.66,635.06 C 291.88,637.12 312.69,638.24 335.52,638.24 C 401.15,638.24 490.24,628.10 490.24,550.46 C 490.24,509.06 462.15,483.41 422.49,449.00 C 387.42,418.56 349.44,385.60 340.39,334.38 C 340.36,334.23 339.47,328.38 339.47,318.99 C 339.47,229.47 426.73,164.12 504.67,143.81 C 506.02,143.46 510.20,142.62 519.20,142.62 Z" transform="translate(5764.66,100.00) scale(0.8000,0.8000)" fill="#000000" />
</svg>
