<?xml version="1.0" encoding="UTF-8" standalone="no"?>
<!--
Representation of "nena seli Takana" in sitelen kalama pona
Generated by generate_sitelen_kalama_pona.py

Description:
  Representation of "nena seli Takana" in sitelen kalama pona.
  Sources: nena: https://commons.wikimedia.org/wiki/File:Sitelen_seli_kiwen_-_nena.svg; seli: https://commons.wikimedia.org/wiki/File:Sitelen_seli_kiwen_-_seli.svg; ta: https://commons.wikimedia.org/wiki/File:Sitelen_kalama_pona_-_ta.svg; ka: https://commons.wikimedia.org/wiki/File:Sitelen_kalama_pona_-_ka.svg; na: https://commons.wikimedia.org/wiki/File:Sitelen_kalama_pona_-_na.svg

Categories:
  [[Category:Sitelen kalama pona]]
  [[Category:Toki Pona text containing nena seli]]
  [[Category:Toki Pona text containing sound symbol Ta]]
  [[Category:Toki Pona text containing sound symbol Ka]]
  [[Category:Toki Pona text containing sound symbol Na]]

Sources:
  nena: https://commons.wikimedia.org/wiki/File:Sitelen_seli_kiwen_-_nena.svg
  seli: https://commons.wikimedia.org/wiki/File:Sitelen_seli_kiwen_-_seli.svg
  ta: https://commons.wikimedia.org/wiki/File:Sitelen_kalama_pona_-_ta.svg
  ka: https://commons.wikimedia.org/wiki/File:Sitelen_kalama_pona_-_ka.svg
  na: https://commons.wikimedia.org/wiki/File:Sitelen_kalama_pona_-_na.svg
-->
<svg version="1.1" width="6156" height="1000"
     viewBox="0 0 6156 1000"
     xmlns="http://www.w3.org/2000/svg">
  <path d="M186 290Q186 288 185.0 285.0Q184 282 184 280Q184 279 187.0 270.5Q190 262 190 250Q188 230 188 216Q188 198 194 190Q201 183 195.0 180.5Q189 178 192 171Q194 163 194.0 144.0Q194 125 181.0 105.5Q168 86 148 86Q144 86 137.0 87.0Q130 88 120.0 95.0Q110 102 110 114Q110 128 114 128Q115 128 119.0 142.0Q123 156 126.5 174.0Q130 192 130 201Q130 208 126.0 227.0Q122 246 122 269Q122 276 123.0 292.0Q124 308 124 314Q124 322 120.0 339.5Q116 357 116 363Q116 368 118.0 372.5Q120 377 120 381V393Q120 407 126 417Q131 430 139.0 472.5Q147 515 152 521Q157 526 162.5 541.5Q168 557 188 574Q208 590 208 595Q208 602 223.0 616.0Q238 630 248 632Q255 634 265.5 645.0Q276 656 292.5 666.0Q309 676 332 678Q334 678 379.5 690.0Q425 702 462 702Q501 702 548 698Q556 697 593.5 678.0Q631 659 636 652Q639 649 647.0 643.0Q655 637 660.5 632.0Q666 627 666.0 624.0Q666 621 673.5 612.5Q681 604 694.5 587.0Q708 570 720 549Q738 514 742 512Q747 508 757.0 473.0Q767 438 774.0 405.0Q781 372 782 372Q784 368 787.0 325.5Q790 283 790 247Q790 197 780 133Q773 97 769.5 91.0Q766 85 746 85H742Q723 85 717.5 87.5Q712 90 706 100Q700 113 700 125Q700 136 707.0 140.5Q714 145 714 160V173Q714 185 717.0 196.0Q720 207 720 211Q720 216 717.0 223.0Q714 230 714 233Q714 233 720.0 245.0Q726 257 726 280Q726 290 723.0 301.0Q720 312 720.0 314.0Q720 316 724.0 320.0Q728 324 728 335Q728 350 721.0 375.5Q714 401 714 408Q714 417 707.0 428.5Q700 440 700 447Q700 458 681.5 494.5Q663 531 648 550Q629 574 610.5 592.5Q592 611 586 611Q582 611 574.0 616.0Q566 621 555.5 627.5Q545 634 516.0 639.0Q487 644 446 644Q410 644 397.5 642.5Q385 641 374 635Q354 625 346 625Q338 625 328.0 615.5Q318 606 312 606Q308 606 293.5 593.5Q279 581 262.5 565.5Q246 550 240 546Q230 539 230 533Q230 527 226 527Q220 527 208.0 503.0Q196 479 196 466Q196 449 192 446Q186 442 182.0 406.0Q178 370 178 336Q178 324 179.0 315.5Q180 307 180.5 302.5Q181 298 182.5 295.5Q184 293 184.5 292.5Q185 292 185.5 291.5Q186 291 186 290Z" transform="translate(0.00,958.33) scale(0.9583,-0.9583)" fill="#000000" />
  <path d="M431 26Q404 26 379.0 51.5Q354 77 354 100Q354 110 364.5 126.0Q375 142 385 147Q389 149 397.0 161.5Q405 174 416.5 183.5Q428 193 443 193Q449 193 461.5 189.5Q474 186 491.5 167.5Q509 149 509 119Q509 93 501.5 74.5Q494 56 484.5 47.0Q475 38 462.0 33.0Q449 28 442.5 27.0Q436 26 431 26ZM183 628Q183 662 214 662Q229 662 236.5 655.0Q244 648 253 625Q303 506 303 485Q303 479 314.5 454.5Q326 430 326 423Q326 413 332.0 392.5Q338 372 341 372Q345 372 345 364Q345 358 354.0 348.5Q363 339 369 339Q372 339 371 336Q370 333 369.0 330.5Q368 328 367.0 320.5Q366 313 366 305Q365 284 357.5 276.5Q350 269 330 269Q317 269 312.0 271.5Q307 274 299.0 285.0Q291 296 291 310Q291 320 288.5 334.0Q286 348 282.0 361.5Q278 375 274.0 386.5Q270 398 268 406L265 413Q265 416 258.0 433.0Q251 450 250 462Q250 473 243.5 486.5Q237 500 237 513Q237 531 233.0 531.0Q229 531 221.5 545.0Q214 559 214 565Q214 568 198.5 590.0Q183 612 183 628ZM489 314Q489 317 501.5 341.5Q514 366 514 371Q514 378 535.0 408.5Q556 439 561 452Q565 462 574.5 483.0Q584 504 591.0 520.5Q598 537 598 540Q598 545 603 545Q609 545 617.5 567.5Q626 590 627 607Q629 628 637 636Q643 642 650 654Q653 660 662.0 665.5Q671 671 678 674L686 676Q690 677 703.5 666.0Q717 655 717 652Q712 648 709 626Q707 608 695.0 590.5Q683 573 678 558Q673 538 659 518Q648 502 632.0 468.5Q616 435 604.0 409.0Q592 383 589 381Q576 372 576 334Q576 332 576.5 329.5Q577 327 577 326Q580 308 571 300Q555 286 523 286Q508 286 498.5 296.0Q489 306 489 314ZM400 698Q400 712 409.0 720.5Q418 729 427 730L436 732Q444 732 447 725Q451 716 457 708Q464 700 465.0 662.5Q466 625 469 621Q472 615 468 612Q452 602 452 463V431Q452 346 458 341Q463 338 463 331Q463 327 461.0 317.0Q459 307 450.0 293.5Q441 280 426 280Q409 280 398.5 288.5Q388 297 386.5 303.0Q385 309 385 312Q385 313 388.0 323.0Q391 333 391 353Q391 370 394.0 410.5Q397 451 397 466Q397 482 395.0 488.0Q393 494 393 506Q393 549 400.5 575.5Q408 602 408 613Q408 628 404.0 657.5Q400 687 400 698Z" transform="translate(942.50,958.33) scale(0.9583,-0.9583)" fill="#000000" />
  <path d="M 24.637998,12.488337 H 20.72216 q -1.48166,0 -2.54,-1.058333 -1.05833,-1.058333 -1.05833,-2.54 V 3.598338 q 0,-1.481667 1.05833,-2.54 Q 19.2405,4e-6 20.72216,4e-6 h 3.915838 V 0.846671 H 20.72216 q -1.13241,0 -1.94733,0.814917 -0.80433,0.804333 -0.80433,1.93675 v 5.291666 q 0,1.132417 0.80433,1.93675 0.81492,0.814917 1.94733,0.814917 h 3.915838 z" transform="translate(513.81,0.00) scale(80.0747,80.0747)" fill="#000000" />
  <path d="M 75.014662,0.846671 V 4e-6 h 13.123333 v 0.846667 z m 0,11.641666 v -0.846666 h 13.123333 v 0.846666 z" transform="translate(-3520.08,0.00) scale(80.0747,80.0747)" fill="#000000" />
  <path d="M 75.014662,0.846671 V 4e-6 h 13.123333 v 0.846667 z m 0,11.641666 v -0.846666 h 13.123333 v 0.846666 z" transform="translate(-2469.24,0.00) scale(80.0747,80.0747)" fill="#000000" />
  <path d="M 75.014662,0.846671 V 4e-6 h 13.123333 v 0.846667 z m 0,11.641666 v -0.846666 h 13.123333 v 0.846666 z" transform="translate(-1418.39,0.00) scale(80.0747,80.0747)" fill="#000000" />
  <path d="m 87.714667,4e-6 h 2.8575 q 1.481666,0 2.54,1.058334 1.058333,1.058333 1.058333,2.54 v 5.291666 q 0,1.481667 -1.058333,2.54 -1.058334,1.058333 -2.54,1.058333 h -2.8575 v -0.846666 h 2.8575 q 1.132416,0 1.93675,-0.814917 0.814916,-0.804333 0.814916,-1.93675 V 3.598338 q 0,-1.132417 -0.814916,-1.93675 -0.804334,-0.814917 -1.93675,-0.814917 h -2.8575 z" transform="translate(-1384.49,0.00) scale(80.0747,80.0747)" fill="#000000" />
  <path d="M 606.00,542.00 C 606.00,546.18 603.91,554.87 603.91,568.08 C 603.91,626.37 650.88,632.48 740.82,636.50 C 786.76,638.55 832.37,640.59 866.94,657.93 L 914.83,665.30 C 914.83,665.30 907.22,714.71 907.17,714.70 C 855.17,706.70 855.17,706.70 855.17,706.70 C 845.62,705.23 841.04,697.37 807.61,691.96 C 759.76,684.22 697.95,688.78 646.90,677.14 C 616.57,670.23 554.06,650.54 554.06,566.86 C 554.06,558.44 554.70,549.61 555.98,540.37 C 555.66,515.94 555.39,491.39 555.39,466.76 C 555.39,362.05 560.27,255.89 586.78,151.80 C 586.78,151.80 635.23,164.14 635.22,164.20 C 610.19,262.47 605.41,365.06 605.41,468.94 C 605.41,502.99 606.00,541.27 606.00,542.00  Z M 188.61,713.52 C 253.17,713.52 264.03,634.00 272.00,554.74 L 272.00,472.00 C 272.00,458.65 280.28,461.80 280.28,420.74 C 280.28,419.96 279.71,388.35 279.71,388.02 C 279.71,353.88 280.47,395.07 291.49,306.05 C 298.20,251.85 305.43,193.50 340.54,158.39 C 358.87,140.06 384.10,129.89 414.62,129.89 C 420.36,129.89 426.27,130.25 432.37,130.98 L 791.06,125.03 C 791.06,125.03 991.54,97.24 991.59,97.24 L 998.46,146.76 C 804.56,173.63 795.49,174.96 793.42,174.99 L 431.00,181.00 C 427.46,181.00 422.24,179.74 413.12,179.74 C 360.94,179.74 351.03,232.07 341.10,312.24 C 338.20,335.68 335.46,358.94 329.84,379.96 C 329.75,382.50 329.71,385.14 329.71,387.86 C 329.71,389.00 330.44,424.31 330.44,424.67 C 330.44,441.15 329.05,459.17 322.00,477.10 L 322.00,556.00 C 322.00,557.04 317.74,616.22 305.93,658.28 C 298.73,683.89 274.89,763.28 187.01,763.28 C 178.49,763.28 169.59,762.51 160.32,760.91 C 114.76,759.15 63.76,752.23 19.97,735.32 C 19.97,735.32 37.99,688.67 38.03,688.68 C 93.01,709.92 166.24,711.18 167.53,711.42 C 175.39,712.86 182.37,713.52 188.61,713.52 Z" transform="translate(2612.12,100.00) scale(0.8000,0.8000)" fill="#000000" />
  <path d="M 235.77,643.31 C 235.77,651.79 236.00,656.96 236.00,658.00 L 236.00,704.00 L 186.00,704.00 L 186.00,658.38 C 185.85,653.24 185.78,648.11 185.78,643.00 C 185.78,589.09 193.92,537.14 201.71,486.75 C 204.73,467.20 207.71,447.87 210.22,428.73 C 210.91,423.48 212.27,424.09 212.27,414.93 C 212.27,414.74 211.69,397.42 211.69,396.83 C 211.69,389.56 211.69,389.56 215.39,367.94 C 217.73,354.27 220.20,339.84 222.06,327.75 C 223.09,292.37 228.16,260.48 228.16,227.82 C 228.16,223.01 228.00,218.10 228.00,218.00 C 228.00,213.64 229.45,210.87 229.45,189.48 C 229.45,188.94 228.50,136.10 228.50,135.56 C 228.50,104.77 228.50,20.54 303.91,11.20 C 304.93,11.07 305.97,11.00 307.00,11.00 C 417.90,11.00 500.44,96.50 559.09,160.73 L 572.68,174.32 L 537.32,209.68 C 522.91,195.27 522.91,195.27 522.52,194.84 C 464.36,131.12 395.62,62.39 308.58,61.01 C 288.87,64.03 278.57,79.66 278.57,136.86 C 278.57,156.11 279.53,174.47 279.53,190.46 C 279.53,200.32 279.18,209.97 278.04,219.26 C 278.12,222.22 278.15,225.16 278.15,228.08 C 278.15,264.05 272.86,296.47 271.99,330.64 C 271.82,337.02 261.71,389.45 261.71,396.59 C 261.71,402.78 262.37,409.14 262.37,415.72 C 262.37,422.05 261.80,429.41 259.51,437.37 C 256.96,456.56 254.02,475.57 251.11,494.44 C 243.30,544.98 235.77,594.40 235.77,643.31  Z M 543.81,527.98 L 582.22,559.99 L 484.07,677.76 L 477.36,691.19 L 432.63,668.82 C 436.42,661.91 439.21,654.17 443.78,648.01 C 443.78,648.01 543.78,528.01 543.81,527.98  Z M 733.00,639.00 C 733.15,639.00 740.71,639.31 747.60,639.31 C 757.58,639.31 797.07,639.31 818.26,623.81 C 818.26,623.81 847.78,664.17 847.74,664.19 C 833.58,674.56 805.84,689.32 748.28,689.32 C 742.85,689.32 737.68,689.20 732.83,689.01 C 731.20,689.05 729.57,689.07 727.95,689.07 C 665.32,689.07 582.68,659.26 527.28,529.52 C 507.20,482.51 495.14,432.68 488.32,389.97 C 488.28,389.75 487.39,382.24 487.39,368.25 C 487.39,245.04 565.29,108.32 695.60,101.04 C 696.06,101.02 696.53,101.00 697.00,101.00 L 727.00,101.00 L 727.00,151.00 L 697.73,151.00 C 592.35,157.37 537.41,278.21 537.41,369.06 C 537.41,373.82 537.56,378.52 537.86,383.15 C 548.86,451.23 591.53,639.08 727.73,639.08 C 729.89,639.08 732.95,639.00 733.00,639.00 Z" transform="translate(3662.97,100.00) scale(0.8000,0.8000)" fill="#000000" />
  <path d="M 108.86,305.66 C 108.86,140.71 217.05,29.02 382.26,29.02 C 406.69,29.02 432.26,31.46 458.75,36.48 C 466.58,34.95 474.37,34.15 481.97,34.15 C 504.36,34.15 525.15,41.06 540.69,56.60 C 556.29,72.20 564.00,93.97 564.00,117.76 C 564.00,198.00 564.00,198.00 564.00,198.00 L 514.00,198.00 L 514.00,118.13 C 513.84,103.00 509.17,84.05 482.21,84.05 C 470.85,84.05 465.10,87.00 459.00,87.00 C 452.60,87.00 423.64,78.92 381.75,78.92 C 312.70,78.92 258.11,101.70 220.49,139.32 C 181.81,178.00 158.76,234.92 158.76,305.48 C 158.76,363.36 173.81,405.43 173.99,413.43 C 174.23,423.87 174.31,434.33 174.31,444.78 C 174.31,445.67 173.61,532.64 173.61,533.63 C 173.61,585.78 176.00,603.58 176.00,608.00 L 176.00,614.00 C 176.00,615.62 176.00,615.62 167.79,679.22 C 167.30,683.02 167.30,683.02 153.70,712.49 C 153.70,712.49 108.30,691.54 108.30,691.51 L 118.70,668.98 L 126.00,612.38 L 126.00,608.97 C 124.12,584.19 123.61,559.12 123.61,534.10 C 123.61,533.20 124.32,445.72 124.32,444.72 C 124.32,435.58 124.25,426.52 124.07,417.55 C 113.84,378.59 108.86,341.04 108.86,305.66  Z M 352.00,718.00 L 302.00,718.00 L 302.00,640.00 C 302.00,639.03 305.44,621.22 312.06,543.07 C 321.82,427.82 333.32,293.02 407.76,218.57 C 441.23,185.11 487.33,164.99 546.36,164.99 C 600.67,164.99 677.60,192.32 709.46,334.91 C 721.26,387.71 724.14,443.07 724.14,486.85 C 724.14,492.87 724.09,498.67 724.00,504.21 L 724.00,584.39 L 721.99,714.39 L 672.01,713.62 L 674.00,583.81 L 674.00,503.57 C 674.09,498.51 674.14,493.23 674.14,487.76 C 674.14,417.46 665.81,295.69 612.01,241.89 C 600.85,230.73 580.92,214.98 546.17,214.98 C 478.05,214.98 418.91,245.23 387.76,363.33 C 364.12,452.96 363.73,564.23 352.00,641.91 L 352.00,718.00 Z" transform="translate(4713.81,100.00) scale(0.8000,0.8000)" fill="#000000" />
</svg>
