<?xml version="1.0" encoding="UTF-8" standalone="no"?>
<!--
Representation of "soweli ilo Potosen" in sitelen ilo pona
Generated by generate_sitelen_kalama_pona.py

Description:
  Representation of "soweli ilo Potosen" in sitelen ilo pona.
  Sources: soweli: https://commons.wikimedia.org/wiki/File:Sitelen_seli_kiwen_-_soweli.svg; ilo: https://commons.wikimedia.org/wiki/File:Sitelen_seli_kiwen_-_ilo.svg; po: https://commons.wikimedia.org/wiki/File:Sitelen_kalama_pona_-_po.svg; to: https://commons.wikimedia.org/wiki/File:Sitelen_kalama_pona_-_to.svg; sen: https://commons.wikimedia.org/wiki/File:Sitelen_kalama_pona_-_sen.svg

Categories:
  [[Category:Sitelen kalama pona]]
  [[Category:Toki Pona text containing soweli ilo]]
  [[Category:Toki Pona text containing sound symbol Po]]
  [[Category:Toki Pona text containing sound symbol To]]
  [[Category:Toki Pona text containing sound symbol Sen]]

Sources:
  soweli: https://commons.wikimedia.org/wiki/File:Sitelen_seli_kiwen_-_soweli.svg
  ilo: https://commons.wikimedia.org/wiki/File:Sitelen_seli_kiwen_-_ilo.svg
  po: https://commons.wikimedia.org/wiki/File:Sitelen_kalama_pona_-_po.svg
  to: https://commons.wikimedia.org/wiki/File:Sitelen_kalama_pona_-_to.svg
  sen: https://commons.wikimedia.org/wiki/File:Sitelen_kalama_pona_-_sen.svg
-->
<svg version="1.1" width="6156" height="1000"
     viewBox="0 0 6156 1000"
     xmlns="http://www.w3.org/2000/svg">
  <path d="M39 176Q39 190 48.5 203.0Q58 216 71 216Q85 216 98 203L111 190L112 102V78Q112 28 107.5 13.0Q103 -2 80 -2Q66 -2 57.5 9.5Q49 21 49 41Q49 45 50.0 57.5Q51 70 51 85Q51 122 45.0 147.5Q39 173 39 176ZM206 188Q206 193 210.5 201.5Q215 210 215 214Q215 226 230 226Q232 226 236.5 224.0Q241 222 247.0 216.5Q253 211 258.0 202.5Q263 194 266.5 179.0Q270 164 270.0 145.0Q270 126 266.5 92.0Q263 58 263 47Q263 37 267.5 29.0Q272 21 266 14Q260 -2 237 -2Q235 -2 232.0 -1.5Q229 -1 220.0 0.5Q211 2 207.0 5.0Q203 8 198.5 14.0Q194 20 200 29Q212 51 212 123Q212 149 209.0 168.5Q206 188 206 188ZM393 218Q393 230 411 230Q422 230 431.0 225.0Q440 220 440 213Q440 207 446.5 202.0Q453 197 453 190Q453 184 446.0 165.0Q439 146 439 131Q439 119 436.0 104.5Q433 90 433 61Q433 47 434.0 38.5Q435 30 435.5 28.0Q436 26 436.5 24.5Q437 23 437 22Q437 16 428.0 9.5Q419 3 409 3Q408 3 399.0 4.5Q390 6 386 6Q367 6 367 41Q367 70 371 76Q377 84 381.0 142.5Q385 201 388 205Q393 210 393 218ZM367 526Q390 526 413.5 504.5Q437 483 437 464Q437 443 414 431Q394 421 389 416Q384 411 370.5 410.0Q357 409 354 413Q353 416 342.5 422.0Q332 428 323.0 436.5Q314 445 314 456Q314 472 326.5 497.0Q339 522 348 523Q350 523 357.0 524.5Q364 526 367 526ZM491 477Q491 498 502.5 518.5Q514 539 533 539Q546 539 568 528Q582 521 585.5 512.5Q589 504 589 473Q589 461 587.0 455.5Q585 450 576 442Q567 433 560.5 430.5Q554 428 537 428Q529 428 523.5 429.0Q518 430 509.5 434.0Q501 438 496.0 449.0Q491 460 491 477ZM570 238H584Q642 238 682 259Q701 269 739.0 306.5Q777 344 785 361Q793 377 793 414Q793 452 787.5 471.5Q782 491 773.5 505.5Q765 520 761 536Q758 549 727.5 580.5Q697 612 679 620Q666 625 656.5 632.5Q647 640 642.0 644.0Q637 648 632 648Q625 648 620 653Q613 661 491.5 664.5Q370 668 321 668Q311 668 272.0 666.0Q233 664 198.5 662.0Q164 660 163 660L85 656L72 670Q61 682 61 692Q61 701 72 712Q81 721 104.0 723.0Q127 725 256 726Q272 726 287.0 726.5Q302 727 312.5 727.5Q323 728 332.0 728.0Q341 728 347.0 728.5Q353 729 357.5 729.5Q362 730 364.0 730.0Q366 730 366 730Q376 730 431.0 728.0Q486 726 555.0 721.5Q624 717 637 712Q654 705 657 708Q660 710 660 705Q660 700 666 700Q671 700 690.5 688.0Q710 676 718 674Q727 672 737.0 660.0Q747 648 751 648Q758 648 758 642Q758 636 779 619Q796 606 810.0 582.5Q824 559 824 546Q824 542 828.0 536.0Q832 530 837.5 515.0Q843 500 846 477Q848 466 850.0 458.5Q852 451 853.0 444.0Q854 437 854 419V398Q854 370 858 364Q863 358 858 358Q856 358 853.0 354.0Q850 350 841.5 335.5Q833 321 822 306Q813 294 808.5 285.5Q804 277 804.0 275.0Q804 273 803.0 272.0Q802 271 798 270Q794 268 794.5 263.0Q795 258 788 256Q782 254 754.0 226.5Q726 199 715 196Q706 194 700.0 189.0Q694 184 686 184Q681 184 665.5 177.5Q650 171 624 168Q595 165 590.0 158.5Q585 152 582 112Q581 94 579.0 79.5Q577 65 575.5 58.5Q574 52 574 50Q574 47 576 46Q579 44 578.5 30.0Q578 16 574 12Q571 9 540 9Q526 9 518.0 16.5Q510 24 509 31L507 38Q507 44 512.0 70.0Q517 96 517 104Q517 104 517.0 106.5Q517 109 516.0 114.0Q515 119 514.5 126.5Q514 134 513.5 145.5Q513 157 513 171Q513 189 514.0 197.0Q515 205 520.0 217.0Q525 229 537.5 233.5Q550 238 570 238Z" transform="translate(0.00,958.33) scale(0.9583,-0.9583)" fill="#000000" />
  <path d="M411 266Q411 271 407.5 280.5Q404 290 404 294Q404 295 407.0 304.0Q410 313 411 330L412 356L384 359Q377 360 357 360Q281 360 281 353Q281 350 246 352Q238 353 226 353Q209 353 193.0 343.5Q177 334 161 334Q141 334 130.0 345.5Q119 357 119 367Q119 380 109 387Q102 393 100.0 398.0Q98 403 100 417Q102 432 108.5 448.0Q115 464 115 492Q115 514 112.5 591.5Q110 669 106 675Q104 679 106.0 688.0Q108 697 104 701Q96 711 96 724Q96 730 98.0 737.0Q100 744 110.5 752.5Q121 761 139 761Q164 761 164 765Q164 770 168 768Q171 767 298.0 760.5Q425 754 431 754Q451 754 474.0 757.0Q497 760 513 760Q536 760 574.5 755.5Q613 751 631 751Q645 751 685.0 753.0Q725 755 738 755Q761 755 770.0 741.0Q779 727 780 677Q786 494 788.5 456.0Q791 418 799 403Q804 391 804 383Q804 364 789.0 358.0Q774 352 734 352Q692 352 616.5 359.5Q541 367 515 367Q498 367 490.5 366.0Q483 365 481.5 363.0Q480 361 480 357Q480 346 477.5 311.0Q475 276 475 257Q475 217 481.0 184.0Q487 151 493.0 133.5Q499 116 499 111Q499 102 489.5 87.5Q480 73 461 73Q439 73 425.0 91.0Q411 109 409 138L408 160Q406 181 404.5 204.0Q403 227 403 230Q403 246 407.0 255.0Q411 264 411 266ZM387 698Q363 702 305 702Q272 702 251.5 699.0Q231 696 215 695Q186 694 179.5 682.5Q173 671 169 618Q166 573 166 536Q166 477 174 463Q180 445 182 437L188 415L226 417Q268 419 323 419Q369 419 399 422L416 424L414 500Q412 576 412 592Q412 614 413.0 628.0Q414 642 415.0 647.0Q416 652 416 654Q416 657 412 672Q408 688 404.5 692.0Q401 696 387 698ZM725 438Q725 441 723.5 445.0Q722 449 720.0 451.5Q718 454 717.0 456.5Q716 459 717.5 460.0Q719 461 723 461Q733 461 733 479Q733 484 729.0 515.0Q725 546 723 585Q719 657 710.0 672.0Q701 687 658 689Q639 690 624.0 693.0Q609 696 608.0 697.0Q607 698 603 696Q602 694 562 694H542L485 695L483 670Q482 651 477.0 627.5Q472 604 472 602V592Q473 581 474.5 564.0Q476 547 477.0 526.0Q478 505 478.5 479.0Q479 453 479 429Q479 423 501 426Q513 428 552 428Q566 428 586.0 427.0Q606 426 625.0 425.0Q644 424 660.5 422.5Q677 421 688 420L698 419Q725 419 725 438Z" transform="translate(942.50,958.33) scale(0.9583,-0.9583)" fill="#000000" />
  <path d="M 24.637998,12.488337 H 20.72216 q -1.48166,0 -2.54,-1.058333 -1.05833,-1.058333 -1.05833,-2.54 V 3.598338 q 0,-1.481667 1.05833,-2.54 Q 19.2405,4e-6 20.72216,4e-6 h 3.915838 V 0.846671 H 20.72216 q -1.13241,0 -1.94733,0.814917 -0.80433,0.804333 -0.80433,1.93675 v 5.291666 q 0,1.132417 0.80433,1.93675 0.81492,0.814917 1.94733,0.814917 h 3.915838 z" transform="translate(513.81,0.00) scale(80.0747,80.0747)" fill="#000000" />
  <path d="M 75.014662,0.846671 V 4e-6 h 13.123333 v 0.846667 z m 0,11.641666 v -0.846666 h 13.123333 v 0.846666 z" transform="translate(-3520.08,0.00) scale(80.0747,80.0747)" fill="#000000" />
  <path d="M 75.014662,0.846671 V 4e-6 h 13.123333 v 0.846667 z m 0,11.641666 v -0.846666 h 13.123333 v 0.846666 z" transform="translate(-2469.24,0.00) scale(80.0747,80.0747)" fill="#000000" />
  <path d="M 75.014662,0.846671 V 4e-6 h 13.123333 v 0.846667 z m 0,11.641666 v -0.846666 h 13.123333 v 0.846666 z" transform="translate(-1418.39,0.00) scale(80.0747,80.0747)" fill="#000000" />
  <path d="m 87.714667,4e-6 h 2.8575 q 1.481666,0 2.54,1.058334 1.058333,1.058333 1.058333,2.54 v 5.291666 q 0,1.481667 -1.058333,2.54 -1.058334,1.058333 -2.54,1.058333 h -2.8575 v -0.846666 h 2.8575 q 1.132416,0 1.93675,-0.814917 0.814916,-0.804333 0.814916,-1.93675 V 3.598338 q 0,-1.132417 -0.814916,-1.93675 -0.804334,-0.814917 -1.93675,-0.814917 h -2.8575 z" transform="translate(-1384.49,0.00) scale(80.0747,80.0747)" fill="#000000" />
  <path d="M 406.00,138.00 C 406.00,140.69 406.00,140.69 404.24,147.49 C 406.55,148.67 412.23,150.03 418.10,150.03 C 423.55,150.03 424.53,149.00 429.00,149.00 C 431.12,149.00 433.23,149.27 435.30,149.81 C 439.73,149.81 446.67,144.08 446.67,138.37 C 446.67,137.07 446.00,135.56 446.00,132.00 C 446.00,125.92 447.91,124.20 447.91,119.16 C 447.91,109.21 439.01,100.80 430.06,97.90 C 413.57,108.32 405.72,123.22 405.72,133.14 C 405.72,135.03 406.00,135.64 406.00,138.00  Z M 416.96,200.19 C 381.00,200.19 354.13,179.20 354.13,148.66 C 354.13,144.22 354.70,139.79 355.75,135.45 C 355.71,134.48 355.69,133.51 355.69,132.55 C 355.69,107.83 368.47,86.53 383.75,71.25 C 389.45,65.55 395.72,60.41 402.45,56.02 L 400.45,50.50 C 407.17,48.07 413.94,46.81 420.61,46.55 C 420.82,46.46 434.57,41.00 443.00,41.00 L 447.00,41.00 L 447.00,50.66 C 476.09,60.97 497.84,88.20 497.84,119.55 C 497.84,124.02 497.40,128.59 496.44,133.22 C 496.62,135.03 496.70,136.82 496.70,138.58 C 496.70,171.62 467.03,199.90 435.98,199.90 C 433.58,199.90 431.15,199.73 428.68,199.39 C 424.82,199.91 420.90,200.19 416.96,200.19  Z M 510.22,318.48 C 510.22,313.24 510.00,308.10 510.00,308.00 L 510.00,272.00 L 560.00,272.00 L 560.00,307.44 C 560.16,311.26 560.22,314.99 560.22,318.65 C 560.22,330.41 559.57,341.35 559.57,353.04 C 559.57,371.00 561.93,382.13 561.95,382.43 L 563.95,414.45 L 514.05,417.57 L 512.15,387.07 C 510.07,375.39 509.53,364.25 509.53,353.78 C 509.53,342.13 510.22,330.05 510.22,318.48  Z M 262.00,588.00 C 262.00,590.55 261.51,592.50 261.51,598.12 C 261.51,619.41 271.01,666.82 306.04,667.01 C 679.13,669.01 679.13,669.01 679.13,669.01 L 678.87,718.99 C 304.05,716.99 304.05,716.99 303.23,716.93 C 246.41,712.93 211.46,658.55 211.46,599.37 C 211.46,595.29 211.63,591.27 211.96,587.35 C 211.63,578.56 211.47,569.80 211.47,561.05 C 211.47,455.79 234.78,354.11 265.14,256.54 C 265.14,256.54 312.88,271.40 312.86,271.46 C 283.23,366.68 261.46,463.35 261.46,561.21 C 261.46,576.57 262.00,586.52 262.00,588.00  Z M 753.08,241.01 L 752.92,290.99 L 140.92,288.99 L 141.08,239.01 L 753.08,241.01 Z" transform="translate(2612.12,100.00) scale(0.8000,0.8000)" fill="#000000" />
  <path d="M 394.00,124.00 C 394.00,81.45 444.29,65.03 462.44,59.10 C 462.44,59.10 462.90,53.08 462.93,53.08 C 494.27,55.49 494.27,55.49 498.95,58.04 C 514.72,66.62 544.03,82.57 544.03,118.54 C 544.03,118.87 544.02,119.19 544.02,119.52 C 544.10,120.95 544.14,122.38 544.14,123.81 C 544.14,157.82 521.51,193.00 485.48,193.00 C 467.69,193.00 430.32,180.54 399.02,139.03 C 395.68,134.60 394.00,129.30 394.00,124.00  Z M 486.35,142.95 C 488.73,142.04 494.13,133.57 494.13,123.32 C 494.13,121.96 494.00,121.60 494.00,120.00 C 494.00,118.93 494.08,118.15 494.08,117.18 C 494.08,115.59 494.08,113.18 481.33,105.54 C 468.40,109.74 456.48,113.88 448.31,119.91 C 453.65,125.47 469.09,140.05 486.35,142.95  Z M 446.02,428.68 C 446.02,427.98 445.86,367.32 445.86,366.70 C 445.86,326.74 446.47,286.29 450.11,245.75 C 450.11,245.75 499.90,250.22 499.89,250.25 C 496.44,288.67 495.85,328.01 495.85,367.85 C 495.85,368.62 496.01,428.05 496.01,428.66 C 496.01,441.70 496.01,442.63 494.33,446.99 C 483.61,474.89 479.21,498.48 479.21,518.20 C 479.21,626.87 616.98,643.92 686.53,643.92 C 703.77,643.92 715.09,643.00 717.00,643.00 L 827.46,645.01 C 827.46,645.01 826.55,694.99 826.54,694.99 C 717.52,693.01 717.52,693.01 717.52,693.01 C 707.08,693.62 696.55,693.94 685.98,693.94 C 541.10,693.94 429.22,635.50 429.22,518.13 C 429.22,492.19 434.72,463.99 446.01,433.40 C 446.02,431.83 446.02,430.26 446.02,428.68  Z M 162.45,275.00 C 332.96,267.45 512.54,213.00 685.47,213.00 C 685.98,213.00 686.49,213.00 687.00,213.00 C 687.04,213.00 802.32,213.00 834.66,213.00 L 844.02,205.98 C 844.02,205.98 874.02,245.99 873.98,246.02 C 857.98,258.02 857.98,258.02 857.98,258.02 C 853.56,261.34 848.28,263.00 843.00,263.00 L 685.59,263.00 C 518.31,263.00 339.14,317.32 164.10,324.97 C 163.73,324.99 163.37,325.00 163.00,325.00 L 151.00,325.00 L 151.00,275.00 L 162.45,275.00 Z" transform="translate(3662.97,100.00) scale(0.8000,0.8000)" fill="#000000" />
  <path d="M 427.60,902.87 C 389.78,902.87 353.14,925.73 345.61,968.37 C 345.61,968.37 296.38,959.68 296.39,959.63 C 307.82,894.86 363.43,852.88 427.55,852.88 C 429.20,852.88 430.85,852.91 432.51,852.97 C 434.36,852.84 436.19,852.78 437.99,852.78 C 480.36,852.78 501.45,883.93 516.73,906.51 C 531.67,928.57 539.40,938.05 553.12,938.05 C 564.33,938.05 570.54,933.00 579.00,933.00 C 582.08,933.00 583.38,933.56 587.73,933.56 C 603.39,933.56 618.75,925.01 637.89,909.68 L 684.62,859.05 L 721.38,892.95 C 672.14,946.30 672.14,946.30 670.72,947.44 C 649.72,964.45 622.72,983.58 588.06,983.58 C 586.01,983.58 583.93,983.51 581.83,983.38 C 571.83,986.40 562.14,987.94 552.89,987.94 C 511.48,987.94 490.96,957.64 475.30,934.51 C 458.85,910.21 451.66,902.71 439.15,902.71 C 436.30,902.71 435.16,903.00 433.00,903.00 C 432.95,903.00 429.39,902.87 427.60,902.87  Z M 263.20,147.66 C 263.20,211.90 311.50,261.37 366.33,278.10 C 366.33,278.10 351.73,325.92 351.67,325.90 C 274.13,302.24 213.22,232.48 213.22,147.57 C 213.22,141.74 213.46,129.20 215.45,123.60 C 238.60,58.47 315.71,43.96 377.90,32.25 C 392.95,29.42 407.02,26.75 418.85,23.77 C 420.82,23.27 422.83,23.02 424.85,23.01 L 752.85,21.01 L 753.15,70.99 L 428.14,72.98 C 393.59,81.37 348.87,86.55 314.49,98.75 C 277.38,111.93 267.59,128.15 263.58,137.72 C 263.33,141.07 263.20,144.38 263.20,147.66  Z M 542.52,135.87 C 542.94,135.87 584.45,134.64 584.74,134.64 C 605.27,134.64 628.28,137.16 652.57,149.83 C 654.87,151.03 666.00,157.59 666.00,172.00 L 666.00,178.00 L 619.64,178.00 L 629.43,194.17 C 614.66,186.46 601.63,184.61 585.72,184.61 C 585.29,184.61 545.13,185.88 542.64,185.88 C 536.98,185.88 531.05,185.71 524.87,185.25 C 467.43,199.78 394.55,260.59 393.93,325.38 C 414.96,379.12 488.04,408.98 537.68,458.62 C 564.56,485.50 586.02,520.64 586.02,567.44 C 586.02,579.35 578.60,613.12 553.16,638.56 C 511.82,679.90 445.48,682.62 385.37,685.08 C 365.18,685.90 346.18,686.73 330.22,688.79 C 329.11,688.93 325.42,689.23 320.82,689.23 C 293.47,689.23 268.84,678.85 249.93,671.60 C 247.93,670.83 245.98,670.08 244.11,669.37 C 244.11,669.37 261.84,622.61 261.89,622.63 C 284.84,631.33 305.59,639.20 321.90,639.20 C 322.51,639.20 336.22,637.06 383.31,635.13 C 465.86,631.75 523.68,626.30 536.03,567.38 C 536.03,567.34 536.03,567.29 536.03,567.24 C 536.03,516.08 500.02,487.99 447.25,449.83 C 406.13,420.09 362.68,388.66 345.36,338.13 C 344.12,334.52 343.93,331.80 343.93,325.97 C 343.93,232.87 438.85,152.93 517.60,135.59 C 519.37,135.20 521.19,135.00 523.00,135.00 C 523.20,135.00 533.14,135.87 542.52,135.87 Z" transform="translate(4713.81,100.00) scale(0.8000,0.8000)" fill="#000000" />
</svg>
