<?xml version="1.0" encoding="UTF-8" standalone="no"?>
<!--
Representation of "waso mije Gallus gallus domesticus" in sitelen kalama pona
Generated by generate_sitelen_kalama_pona.py

Description:
  Representation of "waso mije Gallus gallus domesticus" in sitelen kalama pona.
  Sources: waso: https://commons.wikimedia.org/wiki/File:Sitelen_seli_kiwen_-_waso.svg; mije: https://commons.wikimedia.org/wiki/File:Sitelen_seli_kiwen_-_mije.svg; a: https://commons.wikimedia.org/wiki/File:Sitelen_kalama_pona_-_xa.svg; lu: https://commons.wikimedia.org/wiki/File:Sitelen_kalama_pona_-_lu.svg; a: https://commons.wikimedia.org/wiki/File:Sitelen_kalama_pona_-_xa.svg; lu: https://commons.wikimedia.org/wiki/File:Sitelen_kalama_pona_-_lu.svg; o: https://commons.wikimedia.org/wiki/File:Sitelen_kalama_pona_-_xo.svg; me: https://commons.wikimedia.org/wiki/File:Sitelen_kalama_pona_-_me.svg; ti: https://commons.wikimedia.org/wiki/File:Sitelen_kalama_pona_-_ti.svg; u: https://commons.wikimedia.org/wiki/File:Sitelen_kalama_pona_-_xu.svg

Categories:
  [[Category:Sitelen kalama pona]]
  [[Category:Toki Pona text containing waso mije]]
  [[Category:Toki Pona text containing sound symbol A]]
  [[Category:Toki Pona text containing sound symbol L]]
  [[Category:Toki Pona text containing sound symbol Lu]]
  [[Category:Toki Pona text containing sound symbol S]]
  [[Category:Toki Pona text containing sound symbol A]]
  [[Category:Toki Pona text containing sound symbol L]]
  [[Category:Toki Pona text containing sound symbol Lu]]
  [[Category:Toki Pona text containing sound symbol S]]
  [[Category:Toki Pona text containing sound symbol O]]
  [[Category:Toki Pona text containing sound symbol Me]]
  [[Category:Toki Pona text containing sound symbol S]]
  [[Category:Toki Pona text containing sound symbol Ti]]
  [[Category:Toki Pona text containing sound symbol U]]
  [[Category:Toki Pona text containing sound symbol S]]

Sources:
  waso: https://commons.wikimedia.org/wiki/File:Sitelen_seli_kiwen_-_waso.svg
  mije: https://commons.wikimedia.org/wiki/File:Sitelen_seli_kiwen_-_mije.svg
  a: https://commons.wikimedia.org/wiki/File:Sitelen_kalama_pona_-_xa.svg
  lu: https://commons.wikimedia.org/wiki/File:Sitelen_kalama_pona_-_lu.svg
  a: https://commons.wikimedia.org/wiki/File:Sitelen_kalama_pona_-_xa.svg
  lu: https://commons.wikimedia.org/wiki/File:Sitelen_kalama_pona_-_lu.svg
  o: https://commons.wikimedia.org/wiki/File:Sitelen_kalama_pona_-_xo.svg
  me: https://commons.wikimedia.org/wiki/File:Sitelen_kalama_pona_-_me.svg
  ti: https://commons.wikimedia.org/wiki/File:Sitelen_kalama_pona_-_ti.svg
  u: https://commons.wikimedia.org/wiki/File:Sitelen_kalama_pona_-_xu.svg
-->
<svg version="1.1" width="11410" height="1000"
     viewBox="0 0 11410 1000"
     xmlns="http://www.w3.org/2000/svg">
  <path d="M276 413Q276 366 227 366Q218 366 210.0 371.5Q202 377 194 377Q174 377 174 405Q174 421 178.5 430.0Q183 439 198 457Q212 474 223 474Q276 474 276 413ZM333 432Q333 454 345.0 468.5Q357 483 374 483Q394 483 410 465Q425 450 425 422Q425 397 414.5 388.0Q404 379 376 379Q349 379 344 384Q333 395 333 432ZM519 258Q529 258 565.5 265.0Q602 272 612 280Q619 285 619.0 288.5Q619 292 613 306Q604 325 601 325Q599 325 593.5 334.5Q588 344 580.0 357.5Q572 371 566 378Q558 386 539.5 421.5Q521 457 518 461Q488 495 488 515Q488 520 487.0 522.5Q486 525 483.0 528.0Q480 531 472.0 543.5Q464 556 454 575Q446 591 438.5 604.0Q431 617 426.5 623.5Q422 630 419.0 634.5Q416 639 415.0 641.5Q414 644 414 646Q414 649 395.5 678.5Q377 708 377 725Q377 736 383.5 743.5Q390 751 402 751Q435 751 449 727Q472 693 483.5 662.0Q495 631 514 597Q528 573 551 527Q564 500 576.0 481.5Q588 463 594.0 457.0Q600 451 603.0 447.0Q606 443 606 439Q606 436 608.0 434.0Q610 432 617.0 423.0Q624 414 632 398Q642 378 652.0 365.0Q662 352 665 344Q671 332 698.5 300.5Q726 269 726 244Q726 226 716.0 219.0Q706 212 681 212Q670 212 629.5 200.0Q589 188 516 188Q497 188 477.0 189.0Q457 190 451 190Q427 190 405.0 185.0Q383 180 372 180H357L360 125Q364 44 364 40Q364 0 339 0Q330 0 319.5 4.5Q309 9 302.5 13.5Q296 18 296 19Q296 21 289.0 80.0Q282 139 282 154Q282 160 278.0 181.0Q274 202 274 212Q274 234 288.0 243.0Q302 252 336 252Q343 252 353.5 251.5Q364 251 372 251Q392 251 402.5 254.0Q413 257 420 257H437Q448 257 461.0 260.5Q474 264 481.0 264.0Q488 264 499.0 261.0Q510 258 519 258Z" transform="translate(0.00,958.33) scale(0.9583,-0.9583)" fill="#000000" />
  <path d="M145 380Q145 380 145 394Q145 400 143.5 408.0Q142 416 142 426Q142 511 159 523Q163 525 182.0 571.5Q201 618 219 632Q232 641 249.5 658.5Q267 676 279.5 685.5Q292 695 303 695Q318 695 336.5 714.0Q355 733 361.0 733.0Q367 733 386.5 742.0Q406 751 456 751Q496 751 520.5 747.5Q545 744 551.5 739.5Q558 735 565.0 731.5Q572 728 582 728Q588 728 613.0 709.5Q638 691 646 691Q651 691 698.0 643.0Q745 595 747 587Q749 581 753.5 571.5Q758 562 763 545Q765 536 774.0 512.5Q783 489 783 474Q783 436 765.5 371.5Q748 307 730 296Q721 290 729 289Q735 288 745 292Q756 296 760.0 294.5Q764 293 775 280Q796 257 796 232Q796 228 790.0 208.0Q784 188 784 173Q784 161 790.0 149.0Q796 137 796.0 133.0Q796 129 787 111Q777 91 771.5 86.0Q766 81 754 81Q732 81 718.5 91.0Q705 101 705 118Q705 125 708.5 135.0Q712 145 712 150Q712 153 711.0 157.0Q710 161 710 165Q710 172 712.5 186.0Q715 200 715 203Q715 212 708.0 214.5Q701 217 680 217Q656 217 648 220L641 224Q629 224 594.0 209.0Q559 194 540 191Q525 189 516.5 185.0Q508 181 503.0 178.0Q498 175 474.5 173.0Q451 171 406.0 171.0Q361 171 361 175Q361 180 351 180Q334 180 277.5 202.0Q221 224 209 224Q200 224 193.5 218.5Q187 213 187 208Q187 207 183.0 196.0Q179 185 178 154Q178 150 177.0 140.5Q176 131 173.5 114.5Q171 98 164.0 86.5Q157 75 147 75Q127 75 117.0 80.0Q107 85 105.5 89.5Q104 94 104 102V109Q105 116 106.0 127.0Q107 138 107.5 151.0Q108 164 109.0 178.0Q110 192 110 203Q112 256 122.0 278.5Q132 301 153 301Q168 301 170.5 301.5Q173 302 173 307Q173 316 166.0 316.0Q159 316 159 339Q159 361 152.0 365.0Q145 369 145 380ZM277 278Q284 278 303.0 268.0Q322 258 357.5 248.5Q393 239 440 239Q474 239 502.5 246.0Q531 253 551.0 261.5Q571 270 574 271Q592 276 624.5 293.5Q657 311 667.0 322.0Q677 333 687.0 352.5Q697 372 703.5 386.0Q710 400 712 400Q715 400 715 441Q715 507 704 522Q694 535 694 538Q694 551 671.5 583.5Q649 616 640 616Q632 616 625 625Q614 637 586.5 654.5Q559 672 551 672Q544 672 535.0 677.5Q526 683 510 686Q466 694 455 694Q451 694 448 691Q445 687 432 687Q421 687 407.5 683.5Q394 680 394 677Q394 670 376.0 656.5Q358 643 347 641Q322 636 306.0 627.5Q290 619 268 598Q239 570 228 544Q205 489 198 489Q194 489 194 461Q194 436 197.5 425.5Q201 415 201 404Q201 391 208.0 381.5Q215 372 215 364Q215 348 240.5 313.0Q266 278 277 278Z" transform="translate(942.50,958.33) scale(0.9583,-0.9583)" fill="#000000" />
  <path d="M 24.637998,12.488337 H 20.72216 q -1.48166,0 -2.54,-1.058333 -1.05833,-1.058333 -1.05833,-2.54 V 3.598338 q 0,-1.481667 1.05833,-2.54 Q 19.2405,4e-6 20.72216,4e-6 h 3.915838 V 0.846671 H 20.72216 q -1.13241,0 -1.94733,0.814917 -0.80433,0.804333 -0.80433,1.93675 v 5.291666 q 0,1.132417 0.80433,1.93675 0.81492,0.814917 1.94733,0.814917 h 3.915838 z" transform="translate(513.81,0.00) scale(80.0747,80.0747)" fill="#000000" />
  <path d="M 75.014662,0.846671 V 4e-6 h 13.123333 v 0.846667 z m 0,11.641666 v -0.846666 h 13.123333 v 0.846666 z" transform="translate(-3520.08,0.00) scale(80.0747,80.0747)" fill="#000000" />
  <path d="M 75.014662,0.846671 V 4e-6 h 13.123333 v 0.846667 z m 0,11.641666 v -0.846666 h 13.123333 v 0.846666 z" transform="translate(-2469.24,0.00) scale(80.0747,80.0747)" fill="#000000" />
  <path d="M 75.014662,0.846671 V 4e-6 h 13.123333 v 0.846667 z m 0,11.641666 v -0.846666 h 13.123333 v 0.846666 z" transform="translate(-1418.39,0.00) scale(80.0747,80.0747)" fill="#000000" />
  <path d="M 75.014662,0.846671 V 4e-6 h 13.123333 v 0.846667 z m 0,11.641666 v -0.846666 h 13.123333 v 0.846666 z" transform="translate(-367.54,0.00) scale(80.0747,80.0747)" fill="#000000" />
  <path d="M 75.014662,0.846671 V 4e-6 h 13.123333 v 0.846667 z m 0,11.641666 v -0.846666 h 13.123333 v 0.846666 z" transform="translate(683.31,0.00) scale(80.0747,80.0747)" fill="#000000" />
  <path d="M 75.014662,0.846671 V 4e-6 h 13.123333 v 0.846667 z m 0,11.641666 v -0.846666 h 13.123333 v 0.846666 z" transform="translate(1734.15,0.00) scale(80.0747,80.0747)" fill="#000000" />
  <path d="M 75.014662,0.846671 V 4e-6 h 13.123333 v 0.846667 z m 0,11.641666 v -0.846666 h 13.123333 v 0.846666 z" transform="translate(2785.00,0.00) scale(80.0747,80.0747)" fill="#000000" />
  <path d="M 75.014662,0.846671 V 4e-6 h 13.123333 v 0.846667 z m 0,11.641666 v -0.846666 h 13.123333 v 0.846666 z" transform="translate(3835.85,0.00) scale(80.0747,80.0747)" fill="#000000" />
  <path d="m 87.714667,4e-6 h 2.8575 q 1.481666,0 2.54,1.058334 1.058333,1.058333 1.058333,2.54 v 5.291666 q 0,1.481667 -1.058333,2.54 -1.058334,1.058333 -2.54,1.058333 h -2.8575 v -0.846666 h 2.8575 q 1.132416,0 1.93675,-0.814917 0.814916,-0.804333 0.814916,-1.93675 V 3.598338 q 0,-1.132417 -0.814916,-1.93675 -0.804334,-0.814917 -1.93675,-0.814917 h -2.8575 z" transform="translate(3869.75,0.00) scale(80.0747,80.0747)" fill="#000000" />
  <path d="M 457.02,666.69 C 456.60,667.48 420.13,731.68 413.26,744.54 C 480.65,733.33 546.25,731.82 631.91,730.04 C 706.68,719.20 787.62,721.53 861.83,716.02 C 849.49,692.25 843.96,681.58 833.54,668.70 C 824.91,658.02 720.62,468.66 629.58,334.03 C 626.67,338.61 626.20,339.35 623.73,341.58 C 535.96,420.70 537.88,561.78 457.02,666.69  Z M 370.00,804.00 C 356.19,804.00 345.00,792.81 345.00,779.00 C 345.00,776.62 345.34,774.23 346.02,771.93 C 354.08,744.47 375.01,709.50 393.75,676.97 C 393.97,676.57 415.60,638.50 416.29,637.62 C 491.15,541.89 488.84,398.52 587.58,306.88 C 591.73,300.38 594.73,296.42 598.83,289.73 C 546.46,216.35 495.83,156.12 444.47,105.06 C 391.17,198.47 349.00,299.17 306.58,400.64 C 306.07,401.86 263.39,503.93 254.64,522.62 L 143.64,759.62 C 143.64,759.62 98.36,738.41 98.36,738.38 L 209.24,501.64 C 226.73,462.00 243.55,421.75 260.45,381.32 C 307.00,269.97 354.06,157.15 417.60,52.07 C 419.15,49.50 425.79,40.00 439.00,40.00 C 445.15,40.00 451.30,42.26 456.10,46.77 C 605.10,186.66 707.52,354.94 831.60,567.16 C 845.71,591.30 859.69,615.21 873.63,638.77 C 897.87,669.36 906.72,700.11 923.64,721.52 C 927.21,726.05 929.00,731.52 929.00,737.00 C 929.00,749.65 919.58,760.24 907.14,761.80 C 818.95,772.88 722.27,767.24 637.68,779.73 C 621.18,782.16 480.15,776.97 376.15,803.23 C 374.13,803.74 372.07,804.00 370.00,804.00 Z" transform="translate(2612.12,100.00) scale(0.8000,0.8000)" fill="#000000" />
  <path d="M 380.01,703.34 C 381.20,658.74 390.39,597.94 390.39,547.24 C 390.39,538.20 390.00,530.17 390.00,530.00 C 390.00,529.80 390.33,520.66 390.33,510.09 C 390.33,459.86 384.19,408.91 377.90,357.41 C 373.99,325.41 372.06,308.80 372.01,306.50 L 368.01,106.50 L 417.99,105.50 L 421.97,304.37 C 423.68,319.87 425.59,335.52 427.52,351.31 C 433.79,402.68 440.32,455.57 440.32,509.76 C 440.32,516.43 440.22,523.12 440.01,529.82 C 440.28,535.79 440.40,541.85 440.40,547.97 C 440.40,601.26 431.12,662.21 429.99,704.67 L 380.01,703.34  Z M 271.27,681.76 C 301.94,681.76 322.40,675.00 329.00,675.00 L 556.38,675.00 C 563.82,674.64 571.28,674.47 578.74,674.47 C 676.75,674.47 778.69,704.33 871.24,708.99 L 936.25,707.02 L 937.76,756.98 C 871.38,759.00 871.38,759.00 871.00,759.00 C 838.40,759.00 757.28,745.64 734.17,741.84 C 680.39,732.99 627.61,724.48 578.13,724.48 C 567.24,724.48 557.21,725.00 557.00,725.00 L 331.71,725.00 C 310.81,729.46 290.76,731.64 271.76,731.64 C 160.30,731.64 90.72,656.83 90.72,552.48 C 90.72,526.10 95.15,498.24 104.08,469.84 C 104.42,450.94 104.60,431.95 104.79,412.89 C 105.71,317.67 106.49,220.46 128.00,123.22 L 128.00,80.00 L 178.00,80.00 L 178.00,126.00 C 178.00,127.85 177.79,129.71 177.38,131.53 C 156.80,222.86 155.71,317.17 154.78,413.38 C 154.15,477.52 154.15,477.52 152.75,481.80 C 144.43,507.23 140.62,530.93 140.62,552.44 C 140.62,627.73 187.13,681.76 271.27,681.76 Z" transform="translate(3662.97,100.00) scale(0.8000,0.8000)" fill="#000000" />
  <path d="M 457.02,666.69 C 456.60,667.48 420.13,731.68 413.26,744.54 C 480.65,733.33 546.25,731.82 631.91,730.04 C 706.68,719.20 787.62,721.53 861.83,716.02 C 849.49,692.25 843.96,681.58 833.54,668.70 C 824.91,658.02 720.62,468.66 629.58,334.03 C 626.67,338.61 626.20,339.35 623.73,341.58 C 535.96,420.70 537.88,561.78 457.02,666.69  Z M 370.00,804.00 C 356.19,804.00 345.00,792.81 345.00,779.00 C 345.00,776.62 345.34,774.23 346.02,771.93 C 354.08,744.47 375.01,709.50 393.75,676.97 C 393.97,676.57 415.60,638.50 416.29,637.62 C 491.15,541.89 488.84,398.52 587.58,306.88 C 591.73,300.38 594.73,296.42 598.83,289.73 C 546.46,216.35 495.83,156.12 444.47,105.06 C 391.17,198.47 349.00,299.17 306.58,400.64 C 306.07,401.86 263.39,503.93 254.64,522.62 L 143.64,759.62 C 143.64,759.62 98.36,738.41 98.36,738.38 L 209.24,501.64 C 226.73,462.00 243.55,421.75 260.45,381.32 C 307.00,269.97 354.06,157.15 417.60,52.07 C 419.15,49.50 425.79,40.00 439.00,40.00 C 445.15,40.00 451.30,42.26 456.10,46.77 C 605.10,186.66 707.52,354.94 831.60,567.16 C 845.71,591.30 859.69,615.21 873.63,638.77 C 897.87,669.36 906.72,700.11 923.64,721.52 C 927.21,726.05 929.00,731.52 929.00,737.00 C 929.00,749.65 919.58,760.24 907.14,761.80 C 818.95,772.88 722.27,767.24 637.68,779.73 C 621.18,782.16 480.15,776.97 376.15,803.23 C 374.13,803.74 372.07,804.00 370.00,804.00 Z" transform="translate(4713.81,100.00) scale(0.8000,0.8000)" fill="#000000" />
  <path d="M 380.01,703.34 C 381.20,658.74 390.39,597.94 390.39,547.24 C 390.39,538.20 390.00,530.17 390.00,530.00 C 390.00,529.80 390.33,520.66 390.33,510.09 C 390.33,459.86 384.19,408.91 377.90,357.41 C 373.99,325.41 372.06,308.80 372.01,306.50 L 368.01,106.50 L 417.99,105.50 L 421.97,304.37 C 423.68,319.87 425.59,335.52 427.52,351.31 C 433.79,402.68 440.32,455.57 440.32,509.76 C 440.32,516.43 440.22,523.12 440.01,529.82 C 440.28,535.79 440.40,541.85 440.40,547.97 C 440.40,601.26 431.12,662.21 429.99,704.67 L 380.01,703.34  Z M 271.27,681.76 C 301.94,681.76 322.40,675.00 329.00,675.00 L 556.38,675.00 C 563.82,674.64 571.28,674.47 578.74,674.47 C 676.75,674.47 778.69,704.33 871.24,708.99 L 936.25,707.02 L 937.76,756.98 C 871.38,759.00 871.38,759.00 871.00,759.00 C 838.40,759.00 757.28,745.64 734.17,741.84 C 680.39,732.99 627.61,724.48 578.13,724.48 C 567.24,724.48 557.21,725.00 557.00,725.00 L 331.71,725.00 C 310.81,729.46 290.76,731.64 271.76,731.64 C 160.30,731.64 90.72,656.83 90.72,552.48 C 90.72,526.10 95.15,498.24 104.08,469.84 C 104.42,450.94 104.60,431.95 104.79,412.89 C 105.71,317.67 106.49,220.46 128.00,123.22 L 128.00,80.00 L 178.00,80.00 L 178.00,126.00 C 178.00,127.85 177.79,129.71 177.38,131.53 C 156.80,222.86 155.71,317.17 154.78,413.38 C 154.15,477.52 154.15,477.52 152.75,481.80 C 144.43,507.23 140.62,530.93 140.62,552.44 C 140.62,627.73 187.13,681.76 271.27,681.76 Z" transform="translate(5764.66,100.00) scale(0.8000,0.8000)" fill="#000000" />
  <path d="M 562.37,129.59 C 562.37,168.42 541.80,203.48 504.34,203.48 C 457.22,203.48 422.03,167.43 420.10,131.54 C 418.20,123.70 417.31,115.86 417.31,108.15 C 417.31,75.57 433.17,45.44 455.80,26.84 C 455.84,25.68 455.87,25.02 455.87,25.02 L 458.00,25.09 C 471.42,14.70 487.79,7.71 506.07,7.02 L 506.81,26.78 C 518.12,27.17 525.86,27.43 538.13,39.71 C 543.11,44.69 562.69,67.03 562.69,110.58 C 562.69,114.54 562.50,118.47 562.11,122.33 C 562.28,124.71 562.37,127.13 562.37,129.59  Z M 512.00,122.00 C 512.00,118.86 512.63,117.38 512.63,111.28 C 512.63,98.56 509.72,84.93 504.08,76.70 L 478.03,75.80 C 471.40,85.23 467.42,97.04 467.42,108.69 C 467.42,118.90 470.00,121.32 469.99,128.10 C 469.99,140.27 488.52,152.83 499.42,153.01 C 502.46,153.06 504.00,153.60 505.06,153.60 C 506.61,153.60 512.33,144.59 512.33,128.93 C 512.33,127.53 512.00,122.07 512.00,122.00  Z M 392.18,710.51 C 394.59,710.51 440.05,711.08 440.54,711.08 C 545.86,711.08 656.56,700.02 760.54,677.69 C 713.81,557.34 588.95,474.11 520.96,354.41 C 441.54,473.78 341.82,588.03 269.78,710.52 C 282.93,711.18 296.19,711.41 309.68,711.41 C 336.82,711.41 363.77,710.51 392.18,710.51  Z M 392.24,760.51 C 363.89,760.51 336.11,761.42 309.05,761.42 C 281.74,761.42 254.16,760.50 225.73,756.78 C 213.35,755.16 204.00,744.61 204.00,732.00 C 204.00,727.93 204.99,723.86 206.97,720.18 C 291.31,563.03 421.08,425.84 509.59,279.08 L 537.54,295.93 L 546.08,292.38 C 547.74,296.37 549.48,300.32 551.30,304.23 L 552.42,304.90 C 552.27,305.15 552.12,305.40 551.97,305.65 C 616.04,441.50 772.25,529.99 817.06,689.20 C 817.68,691.42 818.00,693.71 818.00,696.00 C 818.00,707.71 809.92,717.69 798.78,720.32 C 683.01,747.68 558.80,761.07 440.63,761.07 C 440.15,761.07 393.01,760.51 392.24,760.51 Z" transform="translate(6815.51,100.00) scale(0.8000,0.8000)" fill="#000000" />
  <path d="M 364.94,209.41 C 375.73,209.41 384.02,211.63 393.01,211.63 C 395.34,211.63 396.21,211.44 396.21,211.44 L 417.81,256.55 C 408.95,260.79 400.47,261.96 393.08,261.96 C 382.90,261.96 374.08,259.61 364.58,259.61 C 357.46,259.61 349.46,264.17 330.67,264.17 C 269.65,264.17 228.60,209.95 228.60,149.33 C 228.60,143.52 228.98,137.69 229.75,131.90 C 229.28,128.02 229.05,124.20 229.05,120.48 C 229.05,63.07 278.38,52.14 311.75,44.74 C 321.26,42.63 330.03,40.63 337.07,38.29 C 339.54,37.47 342.11,37.04 344.69,37.01 L 835.45,31.02 C 835.45,31.02 870.22,27.16 870.26,27.15 L 875.78,76.84 C 838.55,80.98 838.55,80.98 837.31,80.99 L 349.06,86.95 C 330.18,92.74 308.29,95.71 294.09,101.18 C 279.65,106.74 278.83,112.46 278.83,118.82 C 278.83,124.69 280.00,128.01 280.00,132.00 C 280.00,136.24 278.66,139.51 278.66,148.61 C 278.66,179.65 296.94,214.40 329.66,214.40 C 343.66,214.40 348.22,209.41 364.94,209.41  Z M 513.64,671.27 C 513.64,660.92 514.58,650.57 514.58,640.46 C 514.58,637.43 514.49,634.58 514.26,631.90 C 492.27,530.71 516.64,355.14 445.06,283.56 C 430.95,269.45 413.00,258.99 388.04,253.67 C 301.00,280.26 274.72,404.27 254.30,503.81 C 252.84,510.90 251.42,517.85 250.00,524.62 L 250.00,700.00 L 200.00,700.00 L 200.00,522.00 C 200.00,520.24 218.12,416.56 242.42,351.26 C 260.23,303.38 297.13,225.23 380.76,203.79 C 382.80,203.27 384.90,203.00 387.00,203.00 C 388.04,203.00 439.55,207.34 480.41,248.20 C 531.19,298.98 544.26,380.02 549.90,465.20 C 568.85,382.83 601.66,302.01 665.61,240.04 C 670.45,235.35 676.72,233.00 683.00,233.00 C 687.16,233.00 691.32,234.04 695.06,236.10 C 871.49,333.31 813.99,604.01 869.53,719.15 L 824.48,740.87 C 764.89,617.31 815.14,380.20 686.95,289.90 C 596.68,389.98 583.82,537.97 569.90,698.18 C 568.78,711.06 558.00,721.00 545.00,721.00 C 537.22,721.00 520.34,715.31 516.67,699.76 C 514.28,689.59 513.64,680.02 513.64,671.27 Z" transform="translate(7866.35,100.00) scale(0.8000,0.8000)" fill="#000000" />
  <path d="M 463.00,157.00 C 432.91,157.00 417.18,139.83 417.18,120.52 C 417.18,118.25 417.40,116.04 417.77,113.94 C 417.75,113.31 417.74,112.69 417.74,112.07 C 417.74,106.11 418.73,100.45 420.44,95.18 C 420.44,95.18 417.27,94.12 417.29,94.07 C 423.09,76.67 424.07,73.73 431.50,68.95 C 435.92,66.11 440.33,64.27 444.53,63.08 C 447.65,60.87 450.98,58.94 454.50,57.31 L 456.26,61.11 C 458.68,61.11 460.90,60.97 462.87,60.97 C 463.05,60.97 463.22,60.97 463.39,60.97 C 464.97,60.89 465.90,60.85 466.89,60.85 C 495.57,60.85 503.38,79.45 503.38,91.06 C 503.38,100.98 500.26,98.07 499.88,109.54 C 499.53,120.42 498.59,148.74 469.20,156.22 C 467.17,156.74 465.08,157.00 463.00,157.00  Z M 745.49,749.99 C 728.25,749.99 709.87,759.75 686.36,759.75 C 683.89,759.75 681.36,759.64 678.76,759.41 C 653.92,765.86 630.81,768.93 609.46,768.93 C 550.07,768.93 457.96,743.88 430.18,596.43 C 424.85,568.16 422.54,538.59 422.54,509.15 C 422.54,476.21 425.43,443.44 430.19,412.85 C 434.32,369.78 436.17,326.34 436.17,282.88 C 436.17,275.37 436.12,267.87 436.01,260.36 L 485.99,259.64 C 486.10,267.38 486.16,275.14 486.16,282.90 C 486.16,328.03 484.23,373.32 479.88,418.42 C 479.83,418.91 479.77,419.41 479.69,419.90 C 475.23,448.35 472.61,478.93 472.61,509.19 C 472.61,585.65 489.58,719.32 608.26,719.32 C 643.16,719.32 668.92,709.00 677.00,709.00 C 680.68,709.00 681.55,709.70 685.77,709.70 C 701.29,709.70 720.35,699.98 745.22,699.98 C 750.36,699.98 755.76,700.39 761.41,701.39 C 761.41,701.39 752.65,750.62 752.59,750.61 C 750.23,750.19 747.89,749.99 745.49,749.99  Z M 206.42,336.76 L 199.53,287.25 C 517.17,243.02 517.17,243.02 518.83,243.01 L 806.83,241.01 L 807.17,290.99 L 520.83,292.98 C 520.83,292.98 206.47,336.75 206.42,336.76 Z" transform="translate(8917.20,100.00) scale(0.8000,0.8000)" fill="#000000" />
  <path d="M 158.86,260.96 C 158.86,375.30 172.34,489.24 172.34,605.15 C 172.34,612.62 172.28,620.11 172.16,627.61 C 314.43,454.35 415.10,210.75 555.34,32.56 C 560.08,26.53 567.27,23.00 575.00,23.00 C 576.69,23.00 592.25,23.43 598.28,38.88 C 690.29,274.49 789.49,460.57 895.99,710.17 C 897.33,713.30 898.00,716.65 898.00,720.00 L 898.00,724.00 C 898.00,737.57 887.19,748.65 873.63,748.99 C 761.86,752.10 647.89,753.01 535.00,755.00 C 534.77,755.00 534.77,755.00 239.55,747.02 C 232.96,747.47 226.43,747.73 219.99,747.73 C 190.91,747.73 163.07,742.38 143.35,726.91 C 143.35,726.91 140.93,727.71 140.88,727.73 L 139.54,723.70 C 130.76,715.79 116.52,699.23 116.52,668.14 C 116.52,656.75 118.44,644.61 122.08,632.03 C 122.26,623.14 122.34,614.25 122.34,605.35 C 122.34,491.21 108.87,377.16 108.87,261.26 C 108.87,213.49 110.62,210.87 110.62,171.38 C 110.62,164.03 110.58,156.36 110.58,149.79 C 110.58,119.40 111.33,87.26 120.00,54.62 L 120.00,46.00 L 170.00,46.00 L 170.00,58.00 C 170.00,73.77 160.59,69.55 160.59,154.29 C 160.59,160.59 160.61,165.97 160.61,172.20 C 160.61,183.61 160.52,195.22 159.97,207.08 C 159.20,225.03 158.86,242.99 158.86,260.96  Z M 182.63,692.16 C 193.68,696.58 208.26,697.69 220.64,697.69 C 230.57,697.69 236.84,697.00 239.00,697.00 C 239.34,697.00 239.32,700.35 535.15,705.00 C 635.72,706.58 737.20,702.33 837.13,699.89 C 746.58,491.18 651.15,303.64 568.18,98.52 C 434.81,282.24 334.57,523.73 182.63,692.16 Z" transform="translate(9968.05,100.00) scale(0.8000,0.8000)" fill="#000000" />
</svg>
