<?xml version="1.0" encoding="UTF-8" standalone="no"?>
<!--
Representation of "kulupu kule" in sitelen kalama pona
Generated by generate_sitelen_kalama_pona.py

Description:
  Representation of "kulupu kule" in sitelen kalama pona.
  Sources: kulupu: https://commons.wikimedia.org/wiki/File:Sitelen_seli_kiwen_-_kulupu.svg; kule: https://commons.wikimedia.org/wiki/File:Sitelen_seli_kiwen_-_kule.svg

Categories:
  [[Category:Toki Pona text containing kulupu kule]]

Sources:
  kulupu: https://commons.wikimedia.org/wiki/File:Sitelen_seli_kiwen_-_kulupu.svg
  kule: https://commons.wikimedia.org/wiki/File:Sitelen_seli_kiwen_-_kule.svg
-->
<svg version="1.1" width="1805" height="1000"
     viewBox="0 0 1805 1000"
     xmlns="http://www.w3.org/2000/svg">
  <path d="M416 252Q416 226 407.0 204.5Q398 183 390.0 174.5Q382 166 380 166Q377 166 354 144Q332 124 310.5 115.5Q289 107 246 107Q172 107 138 138Q97 175 88.5 188.5Q80 202 80 234Q80 270 82.5 280.0Q85 290 92 296Q99 302 101.0 304.0Q103 306 103.5 307.5Q104 309 106.5 312.0Q109 315 120.5 326.0Q132 337 152 354Q178 379 238 379Q319 379 360 358Q386 344 401.0 315.0Q416 286 416 252ZM346 263Q346 280 338.0 291.0Q330 302 315.0 307.0Q300 312 286.0 313.5Q272 315 252 315Q214 315 189.5 302.0Q165 289 160 278Q155 264 148 264Q142 264 142 255Q142 241 153.5 220.0Q165 199 178 196Q182 195 207.5 185.5Q233 176 252 176Q279 176 295.0 187.5Q311 199 317.5 210.5Q324 222 326 222Q333 222 339.5 235.0Q346 248 346 263ZM820 263Q820 245 817.0 233.0Q814 221 811.0 217.5Q808 214 805.0 211.0Q802 208 802 204Q802 198 794.0 182.0Q786 166 784 166Q781 166 758.0 144.5Q735 123 728 123Q718 123 706.0 117.5Q694 112 694 108Q694 106 676 106Q625 106 598.0 116.0Q571 126 538 153Q527 162 522.0 168.5Q517 175 512.5 194.0Q508 213 508 244Q508 286 520 297Q540 313 540 340Q540 357 561.0 375.5Q582 394 600 394Q629 394 643.5 399.0Q658 404 682 404Q709 404 727.5 399.0Q746 394 760.5 379.5Q775 365 783.0 352.0Q791 339 806 310Q813 297 816 297Q820 297 820 263ZM666 182Q669 182 673.5 181.0Q678 180 680 180Q690 180 702.0 189.0Q714 198 716 198Q721 198 735.5 228.0Q750 258 750 269Q750 273 748 273Q746 273 741.0 285.0Q736 297 728.0 312.5Q720 328 710 335Q706 338 678 338Q653 338 642.0 335.5Q631 333 616 323Q604 316 590 310Q585 309 583.5 303.0Q582 297 582 281Q582 255 578 255Q574 255 574 251Q574 248 578.0 235.5Q582 223 582 217Q582 203 600.0 191.5Q618 180 633.0 176.0Q648 172 652 172Q656 172 659.0 177.0Q662 182 666 182ZM470 732Q500 732 527.0 722.5Q554 713 566.0 705.0Q578 697 578 695Q578 692 585.0 685.0Q592 678 602.0 665.0Q612 652 618 639Q628 617 636 611Q642 605 642 580Q642 520 602 484Q589 473 578.5 466.0Q568 459 563.5 457.0Q559 455 556.0 452.5Q553 450 552 444Q549 433 536 433Q525 433 494.0 431.5Q463 430 456 430Q419 430 398.5 438.0Q378 446 358 467Q338 487 330.0 504.0Q322 521 322 522Q308 538 308 579Q308 597 314 597Q317 597 320.0 603.0Q323 609 329.0 620.0Q335 631 344 640Q355 651 357.0 657.5Q359 664 352 670Q349 674 354 693L360 712L400 717Q430 721 442.0 726.5Q454 732 470 732ZM578 577Q578 607 539.0 641.5Q500 676 438 676Q428 676 428 668Q428 662 416.0 647.5Q404 633 404 626Q404 620 391.0 605.0Q378 590 378 573Q378 546 402 523Q414 510 421.0 507.5Q428 505 450 505Q464 505 474.0 504.0Q484 503 487 502L490 501Q504 501 541.0 528.0Q578 555 578 577Z" transform="translate(0.00,958.33) scale(0.9583,-0.9583)" fill="#000000" />
  <path d="M429 716Q440 716 457.0 695.0Q474 674 474 670Q474 668 496.0 631.5Q518 595 522 591Q529 584 545.0 553.5Q561 523 574.5 496.5Q588 470 591 470Q595 470 595 460Q595 448 620.0 416.5Q645 385 648 376Q654 359 686 359Q702 359 731.0 364.5Q760 370 767 370L798 373Q815 373 830.5 362.0Q846 351 846.0 337.0Q846 323 832.0 309.5Q818 296 805 296Q795 296 776 302L758 307Q748 307 726.0 304.0Q704 301 704 299Q704 293 722.5 261.0Q741 229 746 226Q750 224 752.5 220.5Q755 217 757.5 211.5Q760 206 769.0 191.5Q778 177 790 158L817 117L811 92Q804 62 790.5 52.5Q777 43 729 43Q710 43 683.0 45.0Q656 47 624 47L609 46Q594 46 570.5 45.5Q547 45 520.5 44.0Q494 43 466.0 42.5Q438 42 418 42Q407 42 387.0 42.5Q367 43 345.5 43.5Q324 44 304.5 44.0Q285 44 272 44L258 45Q178 45 166 39Q162 37 156 37Q140 37 122.5 49.0Q105 61 105 78Q105 86 112.0 113.0Q119 140 127 154Q135 167 156.5 211.0Q178 255 178 258Q178 260 187.0 279.0Q196 298 196.0 303.0Q196 308 174.5 308.0Q153 308 118.5 310.5Q84 313 61 325Q54 328 54 344Q54 365 67.5 374.5Q81 384 97 384Q111 384 158.0 373.0Q205 362 215 362Q229 362 232 378Q234 389 250.5 425.0Q267 461 267 467Q267 475 272 475Q275 475 286.5 496.0Q298 517 301 517Q305 517 305 523Q305 524 326.0 560.0Q347 596 347 605Q347 607 350.5 616.0Q354 625 360.0 638.5Q366 652 370 662Q379 685 396.5 700.5Q414 716 429 716ZM554 419Q551 419 546.0 437.5Q541 456 539.0 456.0Q537 456 524.5 478.5Q512 501 498.0 526.5Q484 552 478 557Q469 566 469.0 572.0Q469 578 464 578Q462 578 461.0 579.0Q460 580 459.5 582.5Q459 585 455.5 591.5Q452 598 446 606L433 622L423 610Q417 602 408.5 581.0Q400 560 393.0 543.5Q386 527 384 527Q380 527 380 520Q380 516 372.5 505.0Q365 494 354.5 478.0Q344 462 339 450Q332 433 313.5 406.0Q295 379 295 372Q295 367 359 367Q377 367 399.5 368.0Q422 369 444 369Q453 369 468.5 368.5Q484 368 500.5 367.5Q517 367 531.5 366.5Q546 366 556 366L566 365Q583 365 583 367Q583 372 570.5 395.5Q558 419 554 419ZM575 100Q606 100 659.0 104.5Q712 109 721 109Q728 109 729.5 112.5Q731 116 731 129Q731 143 724.5 154.0Q718 165 706.0 180.0Q694 195 686 212L678 225Q669 238 660.5 254.0Q652 270 652 277Q652 283 634 294Q622 301 607.5 303.5Q593 306 540 308Q438 313 428 313H408Q301 304 282.0 300.5Q263 297 260 287V286Q256 271 239.5 239.5Q223 208 220 208Q216 208 216.0 196.0Q216 184 212 184Q209 184 200.0 163.0Q191 142 191 133Q191 121 214.0 118.0Q237 115 280.5 114.5Q324 114 349 110Q405 100 575 100Z" transform="translate(942.50,958.33) scale(0.9583,-0.9583)" fill="#000000" />
</svg>
