<?xml version="1.0" encoding="UTF-8" standalone="no"?>
<!--
Representation of "meli pi mama sama" in sitelen kalama pona
Generated by generate_sitelen_kalama_pona.py

Description:
  Representation of "meli pi mama sama" in sitelen kalama pona.
  Sources: meli: https://commons.wikimedia.org/wiki/File:Sitelen_seli_kiwen_-_meli.svg; pi: https://commons.wikimedia.org/wiki/File:Sitelen_seli_kiwen_-_pi.svg; mama: https://commons.wikimedia.org/wiki/File:Sitelen_seli_kiwen_-_mama.svg; sama: https://commons.wikimedia.org/wiki/File:Sitelen_seli_kiwen_-_sama.svg

Categories:
  [[Category:Toki Pona text containing meli pi mama sama]]

Sources:
  meli: https://commons.wikimedia.org/wiki/File:Sitelen_seli_kiwen_-_meli.svg
  pi: https://commons.wikimedia.org/wiki/File:Sitelen_seli_kiwen_-_pi.svg
  mama: https://commons.wikimedia.org/wiki/File:Sitelen_seli_kiwen_-_mama.svg
  sama: https://commons.wikimedia.org/wiki/File:Sitelen_seli_kiwen_-_sama.svg
-->
<svg version="1.1" width="3690" height="1000"
     viewBox="0 0 3690 1000"
     xmlns="http://www.w3.org/2000/svg">
  <path d="M496 609Q509 609 540.0 596.0Q571 583 576 583Q587 583 624.0 547.0Q661 511 674 487Q708 420 708 334Q708 300 705.5 284.5Q703 269 696 258Q686 245 686 236Q686 234 676.0 219.5Q666 205 639.5 181.0Q613 157 580 141Q540 122 520 122Q505 122 462.5 124.0Q420 126 418 130Q414 135 377.5 142.0Q341 149 338 152Q337 155 315.5 166.5Q294 178 271.5 195.5Q249 213 242 230Q237 240 231.5 247.5Q226 255 224.0 259.0Q222 263 222 269Q222 273 217.0 287.5Q212 302 210 330Q206 365 204.5 367.5Q203 370 207.5 374.0Q212 378 206 386Q204 392 204 397Q204 402 207.0 411.5Q210 421 210 424Q210 427 208.0 429.5Q206 432 206 433Q206 434 208.5 436.0Q211 438 214.5 446.0Q218 454 218 468Q220 496 233.0 516.0Q246 536 264.0 552.5Q282 569 288 578Q296 592 310 592Q320 592 328.5 599.0Q337 606 342.5 606.0Q348 606 369.5 609.0Q391 612 410 612Q432 612 447.0 610.0Q462 608 469.0 605.5Q476 603 478.5 603.0Q481 603 485.5 606.0Q490 609 496 609ZM596 489Q596 491 593.0 496.5Q590 502 578.0 511.5Q566 521 547.5 529.5Q529 538 494.0 544.5Q459 551 414 551H406Q357 551 330 538Q315 531 293.5 510.0Q272 489 272 482Q272 476 266 474Q260 472 259.0 423.5Q258 375 256 372Q256 371 256 368Q256 366 257.5 362.0Q259 358 262.0 347.5Q265 337 268 324Q271 308 277.0 296.5Q283 285 287.5 279.5Q292 274 292 271Q292 263 319.5 242.5Q347 222 358 222Q367 222 376.0 214.5Q385 207 394 206Q400 205 417.5 200.5Q435 196 450.0 193.0Q465 190 476 190Q526 190 532 193Q536 195 554 200Q556 200 565.0 204.0Q574 208 588.0 218.5Q602 229 615.0 244.0Q628 259 637.0 284.0Q646 309 646 339Q646 369 641.0 395.0Q636 421 629.0 437.0Q622 453 614.5 464.5Q607 476 601.5 482.0Q596 488 596 489ZM96 29Q96 19 89.5 10.5Q83 2 72 2Q65 2 57.0 5.5Q49 9 45 12L40 16Q35 23 29.5 43.0Q24 63 24 76Q24 78 30.0 97.0Q36 116 36.0 127.0Q36 138 30 143Q25 151 25.5 153.0Q26 155 28.5 161.0Q31 167 30 173Q24 243 24 250Q24 255 19.0 283.0Q14 311 14 343Q14 514 26 541Q34 555 34 562Q34 566 43.0 579.5Q52 593 52 599Q52 603 58.5 609.5Q65 616 74.5 626.5Q84 637 90 650Q101 673 125.5 699.5Q150 726 158 731Q186 747 219.0 762.0Q252 777 315.0 793.5Q378 810 434 810Q438 810 451.0 809.5Q464 809 481.0 807.0Q498 805 500 802Q501 801 510.0 802.0Q519 803 530 795Q538 790 554.0 783.5Q570 777 576 777H578Q578 778 587.5 773.0Q597 768 611.5 762.0Q626 756 636 756Q652 756 656 752Q657 751 711.5 719.5Q766 688 772 675Q774 672 781.5 658.5Q789 645 792 638Q807 611 804 611H802Q802 611 806.0 606.5Q810 602 816.0 592.5Q822 583 826 570Q828 560 831.0 554.0Q834 548 836.0 546.5Q838 545 839.5 543.5Q841 542 842.0 539.0Q843 536 843.5 527.5Q844 519 844 504Q844 478 851.0 464.0Q858 450 858 444Q858 443 858.0 440.5Q858 438 858 436V431Q858 418 862.0 395.0Q866 372 866 366V360Q866 356 869.0 327.0Q872 298 875.5 246.0Q879 194 880 137Q880 106 883.0 93.0Q886 80 886 67Q886 49 879.0 39.0Q872 29 867.0 27.5Q862 26 858 26Q851 26 844.5 30.0Q838 34 835 38L832 42Q827 53 822 59Q818 65 818 85Q818 102 814.0 172.0Q810 242 806 249Q804 250 804 254Q804 257 807.0 267.0Q810 277 810 282Q810 288 808 293Q804 301 804.5 303.5Q805 306 807.5 311.5Q810 317 810.0 323.0Q810 329 805.0 357.5Q800 386 800 409Q799 437 792.0 467.5Q785 498 780 498Q778 498 777 501Q775 521 758 555Q742 593 742 594Q742 597 732.5 610.5Q723 624 706.0 641.0Q689 658 672 662Q662 664 624.5 685.5Q587 707 576 707Q572 707 570 706Q568 704 566 704Q561 704 532.5 718.5Q504 733 478 734Q461 735 453.5 741.0Q446 747 434 747Q425 747 413.5 741.5Q402 736 374 735Q342 734 309.5 720.5Q277 707 264 704Q202 691 174 653Q142 609 142 607Q142 607 127.0 588.0Q112 569 112 556Q112 550 106.0 544.0Q100 538 100 531Q100 525 95.0 520.5Q90 516 90 502Q90 502 89.5 491.0Q89 480 88.5 461.5Q88 443 87.0 421.5Q86 400 85.0 374.5Q84 349 84 328Q84 245 94 227Q99 219 98.0 211.0Q97 203 100 195Q103 187 99.0 182.0Q95 177 98 174Q102 167 102 107Q102 90 101.5 78.0Q101 66 100.5 59.5Q100 53 99.0 49.0Q98 45 97.0 43.5Q96 42 96 41Z" transform="translate(0.00,958.33) scale(0.9583,-0.9583)" fill="#000000" />
  <path d="M178 600Q178 613 172.0 629.5Q166 646 166 651Q166 660 178 675Q187 686 191.5 688.0Q196 690 206 688Q221 685 228.5 675.5Q236 666 237.0 657.5Q238 649 238 634V602Q238 561 244.0 524.5Q250 488 250 466Q250 451 248.0 418.5Q246 386 246 369Q246 369 246.0 367.0Q246 365 246.5 361.5Q247 358 247.5 353.0Q248 348 248.0 339.5Q248 331 248.5 321.0Q249 311 249.5 296.5Q250 282 250 266Q250 179 252 177Q260 168 392 168Q392 168 438.0 168.0Q484 168 532.0 168.5Q580 169 584 169Q698 169 704 167Q710 164 716 164Q722 163 728.0 144.5Q734 126 734 111Q734 109 733.0 103.5Q732 98 727.5 90.5Q723 83 716 83Q714 83 683.5 92.5Q653 102 624 102Q612 102 594.0 100.0Q576 98 562 98Q562 98 558.5 98.5Q555 99 548.0 99.5Q541 100 532.0 100.5Q523 101 510.5 101.5Q498 102 486 102Q485 102 480.5 102.0Q476 102 469.0 101.5Q462 101 454.5 100.5Q447 100 439.5 100.0Q432 100 428 100Q344 100 230 92L190 90L184 104Q180 114 180 131Q180 157 185.0 176.5Q190 196 190 218Q190 218 190.0 225.0Q190 232 190.0 242.5Q190 253 189.5 264.5Q189 276 188.5 287.0Q188 298 188 304Q188 326 190.0 374.0Q192 422 192 441Q192 517 178 540Q176 543 177.0 544.0Q178 545 180.0 545.5Q182 546 182.5 549.5Q183 553 180 562Q176 571 176 578Q176 581 177.0 588.5Q178 596 178 600Z" transform="translate(942.50,958.33) scale(0.9583,-0.9583)" fill="#000000" />
  <path d="M444 84Q399 84 370.5 102.0Q342 120 342 156Q342 188 350 193Q354 196 354 212Q354 229 362 238Q370 248 370 254Q370 259 346.0 266.5Q322 274 296 278Q280 280 256.0 295.0Q232 310 224 313Q193 327 154 399Q143 419 140.5 429.5Q138 440 138 466Q138 523 148 543Q152 554 156.5 570.0Q161 586 168 597Q170 599 178.5 612.5Q187 626 191.5 632.0Q196 638 205.0 645.0Q214 652 224 653Q224 653 226.5 655.0Q229 657 233.5 660.0Q238 663 242 666Q258 678 334 692Q352 696 422 696Q487 696 502 692Q503 692 521.5 689.0Q540 686 554.0 683.5Q568 681 568 678Q570 676 588 676Q600 676 626.0 660.5Q652 645 656 644Q673 638 712 595Q735 569 743.0 556.5Q751 544 756 525Q762 504 762 479Q762 421 740 396Q733 390 733.0 385.5Q733 381 724 375Q720 372 687.0 343.0Q654 314 644 310Q634 306 619.5 298.0Q605 290 590 285Q566 278 562 274Q556 270 546 270Q537 270 523.5 262.0Q510 254 510 249Q510 246 524 240Q534 236 545.0 219.0Q556 202 556 187Q556 180 552 160Q547 129 542.5 119.0Q538 109 526 102Q491 84 444 84ZM694 491Q694 505 681.0 526.0Q668 547 654.0 561.5Q640 576 638 576Q632 576 614 595Q567 639 402 639Q372 639 360.5 636.5Q349 634 337.5 626.5Q326 619 310 614Q282 605 275.0 598.0Q268 591 262 591Q252 591 210 550Q196 536 196 466Q196 442 200 427Q205 410 226.0 385.5Q247 361 270 348Q277 345 282.5 342.5Q288 340 291.0 338.5Q294 337 294 338L322 329Q368 311 436 311Q510 311 542 332Q556 341 560 341Q568 341 602.0 358.5Q636 376 646 385Q656 395 662 395Q667 395 680.5 432.5Q694 470 694 491ZM400 169Q400 143 450 143Q466 143 480.0 149.0Q494 155 494 166Q494 178 474.5 192.0Q455 206 438 213Q437 215 420 202Q400 184 400 169Z" transform="translate(1885.00,958.33) scale(0.9583,-0.9583)" fill="#000000" />
  <path d="M302 320Q436 320 483.0 327.0Q530 334 540 334Q586 334 656.5 331.5Q727 329 740 327Q752 325 757.0 321.5Q762 318 766 308Q772 293 772 279Q772 272 771.0 268.0Q770 264 764.0 259.0Q758 254 746 253Q731 251 726 248Q721 244 708 253Q700 258 685.0 259.5Q670 261 622 261Q541 261 468.5 253.5Q396 246 284 243Q268 243 249.0 242.0Q230 241 217.5 240.0Q205 239 202 239Q198 239 187.0 242.0Q176 245 163.0 255.0Q150 265 150 279Q150 292 156.5 303.0Q163 314 174 318Q178 320 224 320ZM128 518Q128 522 130.0 530.5Q132 539 141.0 550.5Q150 562 164 562Q169 562 192.5 559.0Q216 556 263.5 553.0Q311 550 374 550Q454 550 545.5 555.5Q637 561 702 561Q732 561 738 560Q750 559 759.0 546.0Q768 533 768 519Q768 507 761.0 499.5Q754 492 747 490L740 489Q678 487 626.5 485.5Q575 484 541.5 482.5Q508 481 482.0 480.0Q456 479 442.0 478.0Q428 477 419.5 476.5Q411 476 408.0 475.5Q405 475 404 475L358 474H354Q302 474 246 478Q175 483 151.5 490.0Q128 497 128 518Z" transform="translate(2827.50,958.33) scale(0.9583,-0.9583)" fill="#000000" />
</svg>
