<?xml version="1.0" encoding="UTF-8" standalone="no"?>
<!--
Representation of "nena ma Ilu" in sitelen kalama pona
Generated by generate_sitelen_kalama_pona.py

Description:
  Representation of "nena ma Ilu" in sitelen kalama pona.
  Sources: nena: https://commons.wikimedia.org/wiki/File:Sitelen_seli_kiwen_-_nena.svg; ma: https://commons.wikimedia.org/wiki/File:Sitelen_seli_kiwen_-_ma.svg; i: https://commons.wikimedia.org/wiki/File:Sitelen_kalama_pona_-_xi.svg; lu: https://commons.wikimedia.org/wiki/File:Sitelen_kalama_pona_-_lu.svg

Categories:
  [[Category:Sitelen kalama pona]]
  [[Category:Toki Pona text containing nena ma]]
  [[Category:Toki Pona text containing sound symbol I]]
  [[Category:Toki Pona text containing sound symbol Lu]]

Sources:
  nena: https://commons.wikimedia.org/wiki/File:Sitelen_seli_kiwen_-_nena.svg
  ma: https://commons.wikimedia.org/wiki/File:Sitelen_seli_kiwen_-_ma.svg
  i: https://commons.wikimedia.org/wiki/File:Sitelen_kalama_pona_-_xi.svg
  lu: https://commons.wikimedia.org/wiki/File:Sitelen_kalama_pona_-_lu.svg
-->
<svg version="1.1" width="5105" height="1000"
     viewBox="0 0 5105 1000"
     xmlns="http://www.w3.org/2000/svg">
  <path d="M186 290Q186 288 185.0 285.0Q184 282 184 280Q184 279 187.0 270.5Q190 262 190 250Q188 230 188 216Q188 198 194 190Q201 183 195.0 180.5Q189 178 192 171Q194 163 194.0 144.0Q194 125 181.0 105.5Q168 86 148 86Q144 86 137.0 87.0Q130 88 120.0 95.0Q110 102 110 114Q110 128 114 128Q115 128 119.0 142.0Q123 156 126.5 174.0Q130 192 130 201Q130 208 126.0 227.0Q122 246 122 269Q122 276 123.0 292.0Q124 308 124 314Q124 322 120.0 339.5Q116 357 116 363Q116 368 118.0 372.5Q120 377 120 381V393Q120 407 126 417Q131 430 139.0 472.5Q147 515 152 521Q157 526 162.5 541.5Q168 557 188 574Q208 590 208 595Q208 602 223.0 616.0Q238 630 248 632Q255 634 265.5 645.0Q276 656 292.5 666.0Q309 676 332 678Q334 678 379.5 690.0Q425 702 462 702Q501 702 548 698Q556 697 593.5 678.0Q631 659 636 652Q639 649 647.0 643.0Q655 637 660.5 632.0Q666 627 666.0 624.0Q666 621 673.5 612.5Q681 604 694.5 587.0Q708 570 720 549Q738 514 742 512Q747 508 757.0 473.0Q767 438 774.0 405.0Q781 372 782 372Q784 368 787.0 325.5Q790 283 790 247Q790 197 780 133Q773 97 769.5 91.0Q766 85 746 85H742Q723 85 717.5 87.5Q712 90 706 100Q700 113 700 125Q700 136 707.0 140.5Q714 145 714 160V173Q714 185 717.0 196.0Q720 207 720 211Q720 216 717.0 223.0Q714 230 714 233Q714 233 720.0 245.0Q726 257 726 280Q726 290 723.0 301.0Q720 312 720.0 314.0Q720 316 724.0 320.0Q728 324 728 335Q728 350 721.0 375.5Q714 401 714 408Q714 417 707.0 428.5Q700 440 700 447Q700 458 681.5 494.5Q663 531 648 550Q629 574 610.5 592.5Q592 611 586 611Q582 611 574.0 616.0Q566 621 555.5 627.5Q545 634 516.0 639.0Q487 644 446 644Q410 644 397.5 642.5Q385 641 374 635Q354 625 346 625Q338 625 328.0 615.5Q318 606 312 606Q308 606 293.5 593.5Q279 581 262.5 565.5Q246 550 240 546Q230 539 230 533Q230 527 226 527Q220 527 208.0 503.0Q196 479 196 466Q196 449 192 446Q186 442 182.0 406.0Q178 370 178 336Q178 324 179.0 315.5Q180 307 180.5 302.5Q181 298 182.5 295.5Q184 293 184.5 292.5Q185 292 185.5 291.5Q186 291 186 290Z" transform="translate(0.00,958.33) scale(0.9583,-0.9583)" fill="#000000" />
  <path d="M152 340Q152 341 154.5 344.0Q157 347 156 359V367Q156 391 167.5 424.0Q179 457 192.5 485.0Q206 513 208 517Q213 534 245.0 555.5Q277 577 278 583Q280 589 289.0 594.0Q298 599 302 607Q305 615 318.0 619.5Q331 624 336 632Q340 639 350.0 644.0Q360 649 373.5 653.5Q387 658 394 661Q400 665 424 665Q455 665 491.0 659.0Q527 653 532 645Q536 640 548 640Q551 640 554 640Q576 640 606 621Q618 613 634 603Q645 598 671.5 565.5Q698 533 698 526Q698 520 705.0 515.5Q712 511 712 506Q712 499 718 495Q724 492 732.0 475.0Q740 458 740 450Q740 447 744.0 439.0Q748 431 748 405Q748 372 741.0 333.0Q734 294 725.5 269.5Q717 245 712 245Q712 245 704.5 230.5Q697 216 684.5 199.5Q672 183 660 178Q652 174 652 168Q652 161 646 161Q641 161 624 145Q606 129 570 121Q490 105 480 105Q464 105 452.5 93.0Q441 81 434 81Q423 81 406.0 88.0Q389 95 388 100Q386 108 356 116Q327 124 282.5 146.0Q238 168 238.0 174.0Q238 180 208.5 210.5Q179 241 176 255Q174 268 163.0 301.0Q152 334 152 340ZM390 461Q391 481 392.0 500.0Q393 519 394.5 532.5Q396 546 397.5 558.0Q399 570 400.5 578.0Q402 586 403.0 591.0Q404 596 405.0 599.0Q406 602 406 602Q406 606 400 606Q390 606 375.0 597.0Q360 588 354 578Q349 567 310.0 527.5Q271 488 270 482Q266 474 264 477Q261 479 256.0 475.5Q251 472 247.5 466.0Q244 460 244 456Q244 451 240.5 447.0Q237 443 233.5 441.0Q230 439 226.5 431.5Q223 424 222 411L220 390L232 399Q241 406 250 406Q251 406 275.5 402.0Q300 398 330 398Q386 398 388 408Q388 418 390 461ZM656 491Q656 496 644.0 508.0Q632 520 632 524Q632 530 615.5 542.5Q599 555 579.5 567.5Q560 580 558 583Q550 591 500 597Q493 598 488 599L474 601L472 572Q470 557 467.0 537.5Q464 518 462.0 498.5Q460 479 460 449Q460 414 464.5 407.5Q469 401 488 401Q531 401 570.0 405.5Q609 410 632.5 414.0Q656 418 660 418Q677 418 680.5 418.5Q684 419 684 422Q684 430 675.5 453.0Q667 476 662 480Q656 485 656 491ZM680 345Q680 353 664 353Q655 353 632.0 346.5Q609 340 576 337Q532 333 520 331Q513 331 496.5 333.5Q480 336 474 336Q468 336 466 334Q462 330 462 247Q462 168 468 168Q469 168 489.5 171.0Q510 174 532.5 179.0Q555 184 558 187Q563 194 572.5 194.0Q582 194 614.5 226.0Q647 258 652 272Q658 288 661.5 288.0Q665 288 672.5 311.5Q680 335 680 345ZM336 333Q318 333 302.5 334.0Q287 335 275.5 336.0Q264 337 254.0 338.5Q244 340 237.5 341.5Q231 343 226.5 344.0Q222 345 220.0 346.0Q218 347 218 347Q214 347 214 341Q214 336 218.0 317.0Q222 298 235.0 271.0Q248 244 266 236Q284 228 315.5 200.5Q347 173 370 172L388 171V334L340 333Z" transform="translate(942.50,958.33) scale(0.9583,-0.9583)" fill="#000000" />
  <path d="M 24.637998,12.488337 H 20.72216 q -1.48166,0 -2.54,-1.058333 -1.05833,-1.058333 -1.05833,-2.54 V 3.598338 q 0,-1.481667 1.05833,-2.54 Q 19.2405,4e-6 20.72216,4e-6 h 3.915838 V 0.846671 H 20.72216 q -1.13241,0 -1.94733,0.814917 -0.80433,0.804333 -0.80433,1.93675 v 5.291666 q 0,1.132417 0.80433,1.93675 0.81492,0.814917 1.94733,0.814917 h 3.915838 z" transform="translate(513.81,0.00) scale(80.0747,80.0747)" fill="#000000" />
  <path d="M 75.014662,0.846671 V 4e-6 h 13.123333 v 0.846667 z m 0,11.641666 v -0.846666 h 13.123333 v 0.846666 z" transform="translate(-3520.08,0.00) scale(80.0747,80.0747)" fill="#000000" />
  <path d="M 75.014662,0.846671 V 4e-6 h 13.123333 v 0.846667 z m 0,11.641666 v -0.846666 h 13.123333 v 0.846666 z" transform="translate(-2469.24,0.00) scale(80.0747,80.0747)" fill="#000000" />
  <path d="m 87.714667,4e-6 h 2.8575 q 1.481666,0 2.54,1.058334 1.058333,1.058333 1.058333,2.54 v 5.291666 q 0,1.481667 -1.058333,2.54 -1.058334,1.058333 -2.54,1.058333 h -2.8575 v -0.846666 h 2.8575 q 1.132416,0 1.93675,-0.814917 0.814916,-0.804333 0.814916,-1.93675 V 3.598338 q 0,-1.132417 -0.814916,-1.93675 -0.804334,-0.814917 -1.93675,-0.814917 h -2.8575 z" transform="translate(-2435.34,0.00) scale(80.0747,80.0747)" fill="#000000" />
  <path d="M 478.60,155.05 L 490.39,124.73 L 508.13,67.56 C 508.13,67.56 555.89,82.38 555.87,82.44 C 537.61,141.27 537.61,141.27 537.30,142.08 L 523.30,178.08 C 521.40,182.95 521.40,182.95 507.68,196.68 L 472.32,161.32 L 478.60,155.05  Z M 461.00,47.00 L 511.00,47.00 L 511.00,59.00 C 511.00,61.02 511.00,61.02 500.88,123.71 L 498.96,158.40 L 449.04,155.62 C 451.12,118.29 451.12,118.29 451.33,116.99 L 461.00,56.98 L 461.00,47.00  Z M 562.37,129.59 C 562.37,168.42 541.80,203.48 504.34,203.48 C 457.22,203.48 422.03,167.43 420.10,131.54 C 418.20,123.70 417.31,115.86 417.31,108.15 C 417.31,75.57 433.17,45.44 455.80,26.84 C 455.84,25.68 455.87,25.02 455.87,25.02 L 458.00,25.09 C 471.42,14.70 487.79,7.71 506.07,7.02 L 506.81,26.78 C 518.12,27.17 525.86,27.43 538.13,39.71 C 543.11,44.69 562.69,67.03 562.69,110.58 C 562.69,114.54 562.50,118.47 562.11,122.33 C 562.28,124.71 562.37,127.13 562.37,129.59  Z M 512.00,122.00 C 512.00,118.86 512.63,117.38 512.63,111.28 C 512.63,98.56 509.72,84.93 504.08,76.70 L 478.03,75.80 C 471.40,85.23 467.42,97.04 467.42,108.69 C 467.42,118.90 470.00,121.32 469.99,128.10 C 469.99,140.27 488.52,152.83 499.42,153.01 C 502.46,153.06 504.00,153.60 505.06,153.60 C 506.61,153.60 512.33,144.59 512.33,128.93 C 512.33,127.53 512.00,122.07 512.00,122.00  Z M 392.18,710.51 C 394.59,710.51 440.05,711.08 440.54,711.08 C 545.86,711.08 656.56,700.02 760.54,677.69 C 713.81,557.34 588.95,474.11 520.96,354.41 C 441.54,473.78 341.82,588.03 269.78,710.52 C 282.93,711.18 296.19,711.41 309.68,711.41 C 336.82,711.41 363.77,710.51 392.18,710.51  Z M 392.24,760.51 C 363.89,760.51 336.11,761.42 309.05,761.42 C 281.74,761.42 254.16,760.50 225.73,756.78 C 213.35,755.16 204.00,744.61 204.00,732.00 C 204.00,727.93 204.99,723.86 206.97,720.18 C 291.31,563.03 421.08,425.84 509.59,279.08 L 537.54,295.93 L 546.08,292.38 C 547.74,296.37 549.48,300.32 551.30,304.23 L 552.42,304.90 C 552.27,305.15 552.12,305.40 551.97,305.65 C 616.04,441.50 772.25,529.99 817.06,689.20 C 817.68,691.42 818.00,693.71 818.00,696.00 C 818.00,707.71 809.92,717.69 798.78,720.32 C 683.01,747.68 558.80,761.07 440.63,761.07 C 440.15,761.07 393.01,760.51 392.24,760.51 Z" transform="translate(2612.12,100.00) scale(0.8000,0.8000)" fill="#000000" />
  <path d="M 380.01,703.34 C 381.20,658.74 390.39,597.94 390.39,547.24 C 390.39,538.20 390.00,530.17 390.00,530.00 C 390.00,529.80 390.33,520.66 390.33,510.09 C 390.33,459.86 384.19,408.91 377.90,357.41 C 373.99,325.41 372.06,308.80 372.01,306.50 L 368.01,106.50 L 417.99,105.50 L 421.97,304.37 C 423.68,319.87 425.59,335.52 427.52,351.31 C 433.79,402.68 440.32,455.57 440.32,509.76 C 440.32,516.43 440.22,523.12 440.01,529.82 C 440.28,535.79 440.40,541.85 440.40,547.97 C 440.40,601.26 431.12,662.21 429.99,704.67 L 380.01,703.34  Z M 271.27,681.76 C 301.94,681.76 322.40,675.00 329.00,675.00 L 556.38,675.00 C 563.82,674.64 571.28,674.47 578.74,674.47 C 676.75,674.47 778.69,704.33 871.24,708.99 L 936.25,707.02 L 937.76,756.98 C 871.38,759.00 871.38,759.00 871.00,759.00 C 838.40,759.00 757.28,745.64 734.17,741.84 C 680.39,732.99 627.61,724.48 578.13,724.48 C 567.24,724.48 557.21,725.00 557.00,725.00 L 331.71,725.00 C 310.81,729.46 290.76,731.64 271.76,731.64 C 160.30,731.64 90.72,656.83 90.72,552.48 C 90.72,526.10 95.15,498.24 104.08,469.84 C 104.42,450.94 104.60,431.95 104.79,412.89 C 105.71,317.67 106.49,220.46 128.00,123.22 L 128.00,80.00 L 178.00,80.00 L 178.00,126.00 C 178.00,127.85 177.79,129.71 177.38,131.53 C 156.80,222.86 155.71,317.17 154.78,413.38 C 154.15,477.52 154.15,477.52 152.75,481.80 C 144.43,507.23 140.62,530.93 140.62,552.44 C 140.62,627.73 187.13,681.76 271.27,681.76 Z" transform="translate(3662.97,100.00) scale(0.8000,0.8000)" fill="#000000" />
</svg>
