<?xml version="1.0" encoding="UTF-8" standalone="no"?>
<!--
Representation of "kama tawa sewi" in sitelen ilo pona
Generated by generate_sitelen_kalama_pona.py

Description:
  Representation of "kama tawa sewi" in sitelen ilo pona.
  Sources: kama: https://commons.wikimedia.org/wiki/File:Sitelen_seli_kiwen_-_kama.svg; tawa: https://commons.wikimedia.org/wiki/File:Sitelen_seli_kiwen_-_tawa.svg; sewi: https://commons.wikimedia.org/wiki/File:Sitelen_seli_kiwen_-_sewi.svg

Categories:
  [[Category:Sitelen kalama pona]]
  [[Category:Toki Pona text containing kama tawa sewi]]

Sources:
  kama: https://commons.wikimedia.org/wiki/File:Sitelen_seli_kiwen_-_kama.svg
  tawa: https://commons.wikimedia.org/wiki/File:Sitelen_seli_kiwen_-_tawa.svg
  sewi: https://commons.wikimedia.org/wiki/File:Sitelen_seli_kiwen_-_sewi.svg
-->
<svg version="1.1" width="2747" height="1000"
     viewBox="0 0 2747 1000"
     xmlns="http://www.w3.org/2000/svg">
  <path d="M610 170 655 175Q700 180 719 180H722Q742 180 742 186Q742 190 728.5 205.0Q715 220 715 226Q715 230 709.0 234.5Q703 239 703 246Q703 249 685.5 269.5Q668 290 668 294Q668 299 644.5 337.5Q621 376 621 379Q621 384 606.0 403.0Q591 422 572.0 447.0Q553 472 547 489Q542 502 537.0 510.0Q532 518 529.5 521.0Q527 524 527 526Q527 531 506.0 561.5Q485 592 477 592Q475 592 465.5 574.5Q456 557 447.0 536.0Q438 515 438.0 507.0Q438 499 420.0 461.5Q402 424 396 400Q381 339 365.5 311.0Q350 283 347 269Q344 254 333.5 228.0Q323 202 309 154Q296 106 261 106H258Q254 107 246.0 107.5Q238 108 227.5 108.5Q217 109 199.0 109.5Q181 110 160 111Q127 112 113.0 113.0Q99 114 84.0 118.0Q69 122 64.0 129.5Q59 137 59 151Q59 167 71.0 177.5Q83 188 92.0 190.0Q101 192 105 192H106Q108 191 111.5 190.5Q115 190 119.5 189.5Q124 189 132.0 188.5Q140 188 149.5 187.5Q159 187 173.0 186.5Q187 186 203 186Q238 186 249.0 191.0Q260 196 260 211Q260 225 283.5 275.0Q307 325 307 329Q307 338 315.0 356.0Q323 374 329.0 378.0Q335 382 335.0 391.0Q335 400 330 403Q323 407 333 410Q343 414 355.5 453.0Q368 492 368 499Q368 504 374.5 513.5Q381 523 384 540Q386 553 388.0 558.0Q390 563 394.0 569.5Q398 576 402 590Q407 606 413.5 624.0Q420 642 423.0 651.0Q426 660 426 666Q426 671 423.5 679.0Q421 687 421 693Q421 707 429.5 716.0Q438 725 446 726L454 728Q458 728 474.0 717.5Q490 707 490 704Q490 700 508.5 679.0Q527 658 527 651Q527 647 528.5 645.0Q530 643 534.5 637.0Q539 631 544.0 621.0Q549 611 557.0 597.0Q565 583 569.5 574.5Q574 566 574.0 562.0Q574 558 582.0 545.5Q590 533 599.5 518.0Q609 503 612 497Q621 476 635.5 456.5Q650 437 659.5 427.0Q669 417 669 414Q669 408 673.0 399.5Q677 391 681.5 386.0Q686 381 687 381Q689 381 710.5 341.0Q732 301 739 299Q747 297 747 287Q747 276 775.5 247.0Q804 218 804 212Q804 207 822.5 184.0Q841 161 841 145Q841 127 823.0 116.0Q805 105 774 105Q767 105 758.0 106.0Q749 107 740 107Q719 107 682.5 102.5Q646 98 639 92Q631 85 620 85Q612 85 604.5 88.5Q597 92 597.0 95.0Q597 98 588.0 109.5Q579 121 579.0 130.0Q579 139 586.5 149.0Q594 159 601.5 164.5Q609 170 610 170Z" transform="translate(0.00,958.33) scale(0.9583,-0.9583)" fill="#000000" />
  <path d="M284 89Q284 88 283.5 84.0Q283 80 281.5 73.0Q280 66 277.0 59.5Q274 53 268.0 48.5Q262 44 254 44Q242 44 203.0 55.5Q164 67 159 67Q155 67 150.0 71.0Q145 75 130.0 85.0Q115 95 93 106Q38 134 38 155Q38 164 52.0 173.5Q66 183 69 199Q71 213 84.5 223.0Q98 233 103 243Q108 254 120.5 269.0Q133 284 154 327Q159 338 171.5 353.5Q184 369 188 384Q194 405 197 405Q201 405 206.0 417.5Q211 430 211 438Q211 447 216 447Q218 447 220.0 451.5Q222 456 225.5 464.5Q229 473 235 480Q242 488 268.0 530.5Q294 573 299 578Q316 596 333.0 625.5Q350 655 355 673Q358 686 370.5 695.0Q383 704 393.5 708.5Q404 713 404 715Q404 719 414.0 730.5Q424 742 432 742Q436 742 450 735Q462 729 465.0 720.5Q468 712 472.0 686.5Q476 661 486 632L504 578Q511 555 550.0 480.0Q589 405 594 381Q597 366 610.5 337.0Q624 308 624 302Q624 298 633.5 281.5Q643 265 643 260Q643 256 657.5 224.0Q672 192 674 177Q679 145 699 143Q712 143 765 138Q820 133 832.0 130.5Q844 128 844 121Q844 116 853.0 116.0Q862 116 862 91Q862 82 858.0 74.0Q854 66 854 61Q854 50 818 50Q795 50 781.0 57.0Q767 64 735 64Q700 64 679.0 59.5Q658 55 657 55Q641 55 628.0 68.0Q615 81 615 97Q615 103 616.0 109.0Q617 115 617 121Q617 133 612.0 143.0Q607 153 607 160Q607 168 591.5 210.5Q576 253 571 259Q562 270 557.0 292.5Q552 315 539 340Q538 343 537.5 345.5Q537 348 537.0 350.0Q537 352 537.5 353.5Q538 355 538.0 356.5Q538 358 536.5 359.0Q535 360 533 361Q526 363 526 372Q526 389 512.0 425.0Q498 461 487.0 474.0Q476 487 462.0 514.0Q448 541 444 557Q441 571 428.0 600.5Q415 630 412 630Q410 630 403.0 616.0Q396 602 393 602Q392 602 376.5 579.0Q361 556 361 555Q361 551 344 534Q330 519 313.0 493.5Q296 468 286.5 449.0Q277 430 277.0 427.0Q277 424 267.5 410.5Q258 397 258 390Q258 381 254 381Q249 381 249 374Q249 369 237.5 348.5Q226 328 224 321Q221 311 216.0 311.0Q211 311 211 306Q211 303 208.5 299.0Q206 295 201.0 285.5Q196 276 191 263Q184 245 161.5 220.5Q139 196 139 183Q139 173 147.5 162.5Q156 152 164 152Q171 152 194.0 142.5Q217 133 219 133Q226 133 249.0 124.5Q272 116 272 113Q272 108 278.0 102.5Q284 97 284 89Z" transform="translate(942.50,958.33) scale(0.9583,-0.9583)" fill="#000000" />
  <path d="M550 540Q550 563 560.5 570.0Q571 577 591 577Q605 577 608.0 564.0Q611 551 611 492Q611 457 609.5 437.5Q608 418 606.5 414.0Q605 410 603.5 406.0Q602 402 602 395Q596 290 590 288Q588 287 588.5 283.0Q589 279 589.5 276.5Q590 274 587 273Q581 273 575 205Q574 196 556.5 165.0Q539 134 531 129Q525 125 510 113Q500 105 480 105Q413 105 374 161L366 173L354 159Q342 145 342 137Q342 124 317.0 113.0Q292 102 268 102Q248 102 248 108Q248 112 232 123L216 134L200 122Q183 109 169 109Q164 109 152.0 111.5Q140 114 131 115Q117 117 107.5 126.0Q98 135 94.5 143.0Q91 151 90 151H88Q82 151 82 157Q82 165 91.0 176.0Q100 187 108 187Q109 187 112.5 185.5Q116 184 123.5 182.0Q131 180 143 180Q161 180 166.5 182.0Q172 184 178 196Q187 210 187 220Q187 223 189.5 230.5Q192 238 202.0 248.0Q212 258 228 258Q240 258 247.0 248.5Q254 239 255.5 231.5Q257 224 257 217Q257 216 256.5 213.5Q256 211 256.0 210.0Q256 209 255.5 207.0Q255 205 255 204Q255 193 262.0 185.5Q269 178 276 177L283 175Q292 175 300.5 189.0Q309 203 313.0 217.0Q317 231 315 231Q312 231 318 235Q323 238 328.5 273.0Q334 308 334 332Q334 346 342.5 357.5Q351 369 358 369Q363 369 366.5 364.0Q370 359 370 355Q370 348 375.0 348.0Q380 348 380 353Q380 362 390 357Q394 354 396 349Q397 347 397 329Q397 314 396.5 300.5Q396 287 395.5 277.0Q395 267 394.5 259.0Q394 251 393.5 246.0Q393 241 392.5 237.5Q392 234 391.5 232.0Q391 230 391 230Q391 227 416 195Q422 188 437.5 183.0Q453 178 463.0 177.0Q473 176 476 176Q488 176 499.5 186.5Q511 197 513 209Q515 219 519.0 228.5Q523 238 524 249Q524 251 531.5 279.0Q539 307 546.0 353.5Q553 400 553 448Q553 494 548 494Q545 494 545 495Q545 495 546.5 498.0Q548 501 549.0 507.0Q550 513 550 521ZM763 739Q795 739 795 690Q795 690 794.5 679.5Q794 669 794.0 652.5Q794 636 793.5 617.0Q793 598 792.5 578.5Q792 559 792 546Q793 519 793 513Q793 465 790.5 430.0Q788 395 788 387V294Q788 261 795.0 201.0Q802 141 802 131Q802 120 803.5 116.0Q805 112 811 111Q820 108 817 100Q814 94 813.0 76.5Q812 59 807.5 47.5Q803 36 791 36Q783 36 771 42Q759 48 755.0 53.5Q751 59 749 74Q735 162 735 278Q735 298 737.5 388.5Q740 479 742 483Q744 487 741.0 502.0Q738 517 740 519Q741 520 741 545Q741 572 740.5 595.0Q740 618 738.5 633.5Q737 649 736.0 661.5Q735 674 733.5 681.5Q732 689 730.5 694.0Q729 699 728.5 701.5Q728 704 728 704Q728 717 739.0 728.0Q750 739 763 739Z" transform="translate(1885.00,958.33) scale(0.9583,-0.9583)" fill="#000000" />
</svg>
