<?xml version="1.0" encoding="UTF-8" standalone="no"?>
<!--
Representation of "pona ala" in sitelen kalama pona
Generated by generate_sitelen_kalama_pona.py

Description:
  Representation of "pona ala" in sitelen kalama pona.
  Sources: pona-ala: https://commons.wikimedia.org/wiki/File:Sitelen_seli_kiwen_-_pona-ala.svg

Categories:
  [[Category:Sitelen kalama pona]]
  [[Category:Toki Pona text containing pona ala]]

Sources:
  pona-ala: https://commons.wikimedia.org/wiki/File:Sitelen_seli_kiwen_-_pona-ala.svg
-->
<svg version="1.1" width="862" height="1000"
     viewBox="0 0 862 1000"
     xmlns="http://www.w3.org/2000/svg">
  <path d="M248 292Q250 292 252.5 284.0Q255 276 259.0 264.5Q263 253 268 246Q276 236 276 229Q276 223 308.0 198.5Q340 174 361 163Q403 143 447 143Q471 143 501.0 149.0Q531 155 539 155Q555 155 574.0 169.5Q593 184 604.0 197.0Q615 210 615 212Q671 322 673 334Q675 347 682 360Q689 370 702 370Q714 370 725.0 361.5Q736 353 736 342Q736 326 721.5 295.0Q707 264 707 258Q707 245 704.0 245.0Q701 245 692.5 228.5Q684 212 680 212Q675 212 675.0 198.0Q675 184 661.0 170.0Q647 156 647 151Q647 147 637.0 135.5Q627 124 601.0 109.0Q575 94 541 90Q514 87 501.0 82.5Q488 78 478 78Q462 78 450 76Q449 76 448 76Q434 76 400.5 82.0Q367 88 357 95Q348 102 337.5 104.5Q327 107 321 112Q312 119 303 119Q295 119 291 128Q288 136 268.5 152.5Q249 169 239 172Q233 174 228.0 184.5Q223 195 215.0 214.0Q207 233 197 248Q191 258 188.0 268.0Q185 278 176 292Q164 312 164 318Q164 327 176.5 334.0Q189 341 203.0 341.0Q217 341 226.0 328.5Q235 316 239.5 304.0Q244 292 248 292ZM311 653Q311 663 319.0 672.0Q327 681 337 681Q344 681 364.5 667.5Q385 654 397 641L409 628L417 639Q418 642 425.0 650.5Q432 659 445.0 669.0Q458 679 468 679Q480 679 489.5 669.5Q499 660 499 649Q499 641 494.0 635.5Q489 630 485.0 630.0Q481 630 476.0 612.5Q471 595 464 591Q455 586 455 576Q455 565 465.5 546.0Q476 527 484 522Q495 516 503.0 499.0Q511 482 511 466Q511 442 486 442Q472 442 458.5 448.0Q445 454 445 462Q445 467 431.0 484.5Q417 502 417 506Q417 512 414 512Q410 512 404.0 505.0Q398 498 398.0 494.0Q398 490 386.5 476.0Q375 462 375 458Q375 447 349 447Q315 447 315 463Q315 486 331.0 508.0Q347 530 347 531Q347 536 354.0 536.0Q361 536 361 542Q361 547 368.0 554.0Q375 561 375 568Q375 582 357 594Q337 608 324.0 625.0Q311 642 311 653Z" transform="translate(0.00,958.33) scale(0.9583,-0.9583)" fill="#000000" />
</svg>
