<?xml version="1.0" encoding="UTF-8" standalone="no"?>
<!--
Representation of "ijo lili nanpa 24" in sitelen ilo pona
Generated by generate_sitelen_kalama_pona.py

Description:
  Representation of "ijo lili nanpa 24" in sitelen ilo pona.
  Sources: ijo-lili: https://commons.wikimedia.org/wiki/File:Sitelen_seli_kiwen_-_ijo-lili.svg; nanpa: https://commons.wikimedia.org/wiki/File:Sitelen_seli_kiwen_-_nanpa.svg

Categories:
  [[Category:Sitelen kalama pona]]
  [[Category:Toki Pona text containing ijo lili nanpa 24]]

Sources:
  ijo-lili: https://commons.wikimedia.org/wiki/File:Sitelen_seli_kiwen_-_ijo-lili.svg
  nanpa: https://commons.wikimedia.org/wiki/File:Sitelen_seli_kiwen_-_nanpa.svg
-->
<svg version="1.1" width="1805" height="1000"
     viewBox="0 0 1805 1000"
     xmlns="http://www.w3.org/2000/svg">
  <path d="M340 428Q340 451 358 451Q368 451 380.0 441.0Q392 431 400 415Q405 405 409.0 401.5Q413 398 422 398Q436 398 440 407Q440 408 447.5 419.5Q455 431 467.5 443.5Q480 456 490 456Q500 456 512.5 444.5Q525 433 525 427Q525 426 524 425Q518 423 518 418Q518 414 497.0 394.5Q476 375 476 373Q476 361 467.5 351.0Q459 341 450.5 334.0Q442 327 442 322Q442 318 434.0 315.5Q426 313 416 313Q406 313 397.0 323.0Q388 333 376.0 353.0Q364 373 354 384Q340 399 340 428ZM152 276Q152 282 135.0 328.5Q118 375 118 396Q118 419 125.5 466.0Q133 513 138 520Q141 523 144.0 542.5Q147 562 156 570Q162 575 173.0 595.0Q184 615 195.5 631.5Q207 648 214 648Q220 648 231.0 659.0Q242 670 242 675Q242 679 249.5 681.5Q257 684 268.0 686.5Q279 689 284 693Q291 698 325.5 703.5Q360 709 362 712Q366 715 380 715Q410 715 439.0 708.0Q468 701 489.5 693.0Q511 685 518 684Q534 681 547.5 675.5Q561 670 562 670Q574 669 607.0 649.5Q640 630 654 616Q674 596 692 580Q708 566 716 549Q718 545 740 503Q758 471 770.0 434.5Q782 398 782 376Q782 358 780.0 341.5Q778 325 775.0 314.5Q772 304 769.0 296.0Q766 288 764.0 283.5Q762 279 762 279Q762 259 724.0 212.0Q686 165 662 154Q653 150 647.5 146.0Q642 142 640.5 139.5Q639 137 637.5 135.5Q636 134 632 135Q632 135 630 135Q625 135 598.0 126.0Q571 117 554 114Q530 110 508 105Q487 100 444 100Q403 100 364.5 103.5Q326 107 318 113Q312 117 304 117Q281 118 235.5 159.0Q190 200 190 211Q190 214 176.0 230.5Q162 247 162 252Q162 256 157.0 261.5Q152 267 152 276ZM428 615Q393 615 376.5 619.5Q360 624 359.5 629.5Q359 635 354.5 639.5Q350 644 336 644Q295 644 258.0 609.0Q221 574 214 552Q210 543 195.0 513.5Q180 484 180 473Q180 466 186 466Q191 466 185.0 461.0Q179 456 182 453Q183 449 182.5 448.5Q182 448 179.0 441.5Q176 435 174 426Q170 405 170 402Q170 382 180.0 357.5Q190 333 198.0 321.0Q206 309 208 306Q213 302 219.0 290.0Q225 278 230.5 268.5Q236 259 238 259Q242 259 257.5 235.5Q273 212 278 212Q283 212 286 205Q290 201 300.0 195.0Q310 189 342.5 180.0Q375 171 414 171Q456 171 482.0 178.0Q508 185 526 187Q544 189 552.5 191.0Q561 193 569.0 197.0Q577 201 590 204Q607 208 619.0 218.0Q631 228 635 228Q636 228 636 228Q637 228 637 228Q646 228 664.0 246.5Q682 265 698.0 297.5Q714 330 714 362Q714 396 704.0 428.5Q694 461 684.0 477.5Q674 494 672 494Q668 494 668 500Q668 505 649.0 523.5Q630 542 630 543Q630 546 623.5 554.0Q617 562 603.0 572.5Q589 583 570.0 592.5Q551 602 523.5 608.5Q496 615 466 615Z" transform="translate(0.00,958.33) scale(0.9583,-0.9583)" fill="#000000" />
  <path d="M239 654Q239 656 240.5 658.5Q242 661 242 672Q242 678 255.0 682.5Q268 687 282 687Q300 687 305.5 678.5Q311 670 313 634Q314 621 317.0 591.0Q320 561 322 536L325 512V495L352 491Q368 489 396.0 488.0Q424 487 443.5 486.0Q463 485 468 482Q475 479 485.0 483.5Q495 488 501 486Q502 486 502 486L504 485Q507 485 507 494Q507 552 498 570Q494 578 490.5 606.5Q487 635 486.0 655.0Q485 675 485 680Q485 727 516 727Q517 727 519.0 726.5Q521 726 522 726Q536 724 538.5 723.0Q541 722 541 717Q541 710 543 710H544Q552 710 553 662Q555 614 560 559Q564 518 566.0 508.0Q568 498 575 494Q589 487 650 487Q674 487 703.0 493.5Q732 500 753 500Q802 500 802 451Q802 430 797.0 424.5Q792 419 776 419Q752 419 730.0 425.0Q708 431 695 431Q686 431 647.5 427.5Q609 424 586 424L564 423V371Q564 319 568 311Q571 307 604.0 303.0Q637 299 664 299Q678 299 686.5 301.5Q695 304 713 304Q719 304 727.5 303.5Q736 303 741 303Q763 303 776.5 307.5Q790 312 800 312Q802 312 808.0 311.5Q814 311 825.5 308.5Q837 306 846.5 301.5Q856 297 863.5 288.5Q871 280 871 269Q871 231 828 231Q824 231 794.0 234.0Q764 237 727 237Q582 237 577 230Q574 224 574 202Q574 172 580.5 138.5Q587 105 587 94Q587 76 578.5 69.5Q570 63 551 63Q509 63 509 89V90Q509 92 509.5 95.0Q510 98 510.5 103.0Q511 108 511.5 115.5Q512 123 512.5 132.0Q513 141 513.0 154.0Q513 167 513 181Q513 233 511 235Q507 239 393 242L346 243L348 199Q349 170 351.0 161.0Q353 152 361 144Q372 133 367 124Q363 117 363 104Q363 77 319 77Q292 77 292 80Q290 94 290 102Q290 115 292.5 129.5Q295 144 295 152Q295 164 289.5 194.0Q284 224 284 233Q284 240 280.5 241.5Q277 243 259 242Q247 241 210 241Q104 241 66.5 248.0Q29 255 29 277Q29 282 32 290Q41 311 55.0 316.0Q69 321 111.0 321.0Q153 321 184.5 315.0Q216 309 251 309Q280 309 282.0 313.0Q284 317 284 337Q284 345 283.0 358.0Q282 371 280.5 383.5Q279 396 277.5 408.0Q276 420 275 428L274 435Q274 440 158 445Q51 449 39 456Q30 461 30 482Q30 490 32.5 494.5Q35 499 52.5 505.0Q70 511 103 511Q150 511 216 506L274 502L271 520Q269 530 264.5 542.5Q260 555 258 576Q255 600 250.5 617.5Q246 635 242.5 643.0Q239 651 239 654ZM357 430Q333 430 333 417Q333 411 336.0 388.5Q339 366 339 355Q339 336 347 315Q353 299 356.0 296.0Q359 293 371 294Q381 294 390.5 297.5Q400 301 409 301Q416 301 436.5 298.0Q457 295 461 296Q465 296 481.5 298.0Q498 300 502 301Q507 301 507 319Q507 328 505.5 351.0Q504 374 503 393L502 412Q501 416 471.5 422.0Q442 428 425 428Q399 426 395 426Q385 426 374.0 428.0Q363 430 357 430Z" transform="translate(942.50,958.33) scale(0.9583,-0.9583)" fill="#000000" />
</svg>
