<?xml version="1.0" encoding="UTF-8" standalone="no"?>
<!--
Representation of "wawa tawa pi ijo suli" in sitelen kalama pona
Generated by generate_sitelen_kalama_pona.py

Description:
  Representation of "wawa tawa pi ijo suli" in sitelen kalama pona.
  Sources: wawa: https://commons.wikimedia.org/wiki/File:Sitelen_seli_kiwen_-_wawa.svg; tawa: https://commons.wikimedia.org/wiki/File:Sitelen_seli_kiwen_-_tawa.svg; pi: https://commons.wikimedia.org/wiki/File:Sitelen_seli_kiwen_-_pi.svg; ijo-suli: https://commons.wikimedia.org/wiki/File:Sitelen_seli_kiwen_-_ijo-suli.svg

Categories:
  [[Category:Sitelen kalama pona]]
  [[Category:Toki Pona text containing wawa tawa pi ijo suli]]

Sources:
  wawa: https://commons.wikimedia.org/wiki/File:Sitelen_seli_kiwen_-_wawa.svg
  tawa: https://commons.wikimedia.org/wiki/File:Sitelen_seli_kiwen_-_tawa.svg
  pi: https://commons.wikimedia.org/wiki/File:Sitelen_seli_kiwen_-_pi.svg
  ijo-suli: https://commons.wikimedia.org/wiki/File:Sitelen_seli_kiwen_-_ijo-suli.svg
-->
<svg version="1.1" width="3690" height="1000"
     viewBox="0 0 3690 1000"
     xmlns="http://www.w3.org/2000/svg">
  <path d="M442 37Q439 37 431.0 40.5Q423 44 415.0 44.0Q407 44 393.0 52.5Q379 61 373 61Q365 61 348.0 72.0Q331 83 331 88Q331 92 324.0 100.5Q317 109 315.0 121.0Q313 133 305.5 142.0Q298 151 298 154Q298 159 296.0 161.0Q294 163 292.0 164.0Q290 165 288.0 173.0Q286 181 286 198Q286 244 290.5 272.0Q295 300 300.5 310.0Q306 320 317 335Q336 362 336 367Q336 378 386.5 424.0Q437 470 466 470Q482 470 508 453Q530 439 545.0 419.5Q560 400 587 349Q619 289 619 259Q619 250 615.5 206.5Q612 163 608 162Q603 160 603 151Q603 145 598 140Q597 139 597.0 128.0Q597 117 538 72Q506 48 488 48Q474 48 460.0 42.5Q446 37 442 37ZM346 219Q346 212 350.5 196.5Q355 181 355 174Q355 170 380 143L406 115H443Q478 116 503.0 132.0Q528 148 528 152Q528 154 537.5 158.5Q547 163 547 173Q547 175 552.5 192.0Q558 209 558 236Q558 300 538 315Q527 323 511.0 353.5Q495 384 476 392Q457 399 452 399Q444 399 435.5 390.5Q427 382 391 335Q354 287 354 258Q354 245 350.0 234.5Q346 224 346 219ZM764 381Q764 380 765.0 377.0Q766 374 766.0 373.0Q766 372 764.0 368.5Q762 365 760.0 357.5Q758 350 758 337Q755 205 734 200Q725 198 725 193Q725 191 718 191Q669 191 669 223Q669 236 678 256Q692 284 697.0 340.5Q702 397 706 402Q708 405 712.0 430.0Q716 455 720 459Q725 465 732.5 509.0Q740 553 744.0 557.0Q748 561 748 571Q748 577 758.0 599.5Q768 622 770 643Q773 684 782.5 701.0Q792 718 813 718Q830 718 847.5 700.5Q865 683 865 673Q865 666 857 664Q850 662 836.0 635.0Q822 608 821 593Q820 584 799.5 513.0Q779 442 778 434Q776 417 772.5 405.0Q769 393 766.5 388.0Q764 383 764 381ZM35 711Q35 725 45.0 735.5Q55 746 67 746Q87 746 101.0 716.5Q115 687 115 673Q115 662 162.0 548.5Q209 435 209 428Q209 417 214 409L223 391Q226 385 231.0 345.0Q236 305 241 294Q245 286 247.0 269.0Q249 252 250.5 232.0Q252 212 252 208Q253 200 249.5 198.0Q246 196 227 196Q201 196 196 201Q192 205 188.5 235.5Q185 266 184 268Q183 269 175.0 314.5Q167 360 154.0 411.5Q141 463 127 480Q124 484 112.5 511.5Q101 539 101 541Q101 546 93.0 564.5Q85 583 85 587Q85 596 79.0 599.0Q73 602 73 606Q73 609 54.0 651.5Q35 694 35 711Z" transform="translate(0.00,958.33) scale(0.9583,-0.9583)" fill="#000000" />
  <path d="M284 89Q284 88 283.5 84.0Q283 80 281.5 73.0Q280 66 277.0 59.5Q274 53 268.0 48.5Q262 44 254 44Q242 44 203.0 55.5Q164 67 159 67Q155 67 150.0 71.0Q145 75 130.0 85.0Q115 95 93 106Q38 134 38 155Q38 164 52.0 173.5Q66 183 69 199Q71 213 84.5 223.0Q98 233 103 243Q108 254 120.5 269.0Q133 284 154 327Q159 338 171.5 353.5Q184 369 188 384Q194 405 197 405Q201 405 206.0 417.5Q211 430 211 438Q211 447 216 447Q218 447 220.0 451.5Q222 456 225.5 464.5Q229 473 235 480Q242 488 268.0 530.5Q294 573 299 578Q316 596 333.0 625.5Q350 655 355 673Q358 686 370.5 695.0Q383 704 393.5 708.5Q404 713 404 715Q404 719 414.0 730.5Q424 742 432 742Q436 742 450 735Q462 729 465.0 720.5Q468 712 472.0 686.5Q476 661 486 632L504 578Q511 555 550.0 480.0Q589 405 594 381Q597 366 610.5 337.0Q624 308 624 302Q624 298 633.5 281.5Q643 265 643 260Q643 256 657.5 224.0Q672 192 674 177Q679 145 699 143Q712 143 765 138Q820 133 832.0 130.5Q844 128 844 121Q844 116 853.0 116.0Q862 116 862 91Q862 82 858.0 74.0Q854 66 854 61Q854 50 818 50Q795 50 781.0 57.0Q767 64 735 64Q700 64 679.0 59.5Q658 55 657 55Q641 55 628.0 68.0Q615 81 615 97Q615 103 616.0 109.0Q617 115 617 121Q617 133 612.0 143.0Q607 153 607 160Q607 168 591.5 210.5Q576 253 571 259Q562 270 557.0 292.5Q552 315 539 340Q538 343 537.5 345.5Q537 348 537.0 350.0Q537 352 537.5 353.5Q538 355 538.0 356.5Q538 358 536.5 359.0Q535 360 533 361Q526 363 526 372Q526 389 512.0 425.0Q498 461 487.0 474.0Q476 487 462.0 514.0Q448 541 444 557Q441 571 428.0 600.5Q415 630 412 630Q410 630 403.0 616.0Q396 602 393 602Q392 602 376.5 579.0Q361 556 361 555Q361 551 344 534Q330 519 313.0 493.5Q296 468 286.5 449.0Q277 430 277.0 427.0Q277 424 267.5 410.5Q258 397 258 390Q258 381 254 381Q249 381 249 374Q249 369 237.5 348.5Q226 328 224 321Q221 311 216.0 311.0Q211 311 211 306Q211 303 208.5 299.0Q206 295 201.0 285.5Q196 276 191 263Q184 245 161.5 220.5Q139 196 139 183Q139 173 147.5 162.5Q156 152 164 152Q171 152 194.0 142.5Q217 133 219 133Q226 133 249.0 124.5Q272 116 272 113Q272 108 278.0 102.5Q284 97 284 89Z" transform="translate(942.50,958.33) scale(0.9583,-0.9583)" fill="#000000" />
  <path d="M178 600Q178 613 172.0 629.5Q166 646 166 651Q166 660 178 675Q187 686 191.5 688.0Q196 690 206 688Q221 685 228.5 675.5Q236 666 237.0 657.5Q238 649 238 634V602Q238 561 244.0 524.5Q250 488 250 466Q250 451 248.0 418.5Q246 386 246 369Q246 369 246.0 367.0Q246 365 246.5 361.5Q247 358 247.5 353.0Q248 348 248.0 339.5Q248 331 248.5 321.0Q249 311 249.5 296.5Q250 282 250 266Q250 179 252 177Q260 168 392 168Q392 168 438.0 168.0Q484 168 532.0 168.5Q580 169 584 169Q698 169 704 167Q710 164 716 164Q722 163 728.0 144.5Q734 126 734 111Q734 109 733.0 103.5Q732 98 727.5 90.5Q723 83 716 83Q714 83 683.5 92.5Q653 102 624 102Q612 102 594.0 100.0Q576 98 562 98Q562 98 558.5 98.5Q555 99 548.0 99.5Q541 100 532.0 100.5Q523 101 510.5 101.5Q498 102 486 102Q485 102 480.5 102.0Q476 102 469.0 101.5Q462 101 454.5 100.5Q447 100 439.5 100.0Q432 100 428 100Q344 100 230 92L190 90L184 104Q180 114 180 131Q180 157 185.0 176.5Q190 196 190 218Q190 218 190.0 225.0Q190 232 190.0 242.5Q190 253 189.5 264.5Q189 276 188.5 287.0Q188 298 188 304Q188 326 190.0 374.0Q192 422 192 441Q192 517 178 540Q176 543 177.0 544.0Q178 545 180.0 545.5Q182 546 182.5 549.5Q183 553 180 562Q176 571 176 578Q176 581 177.0 588.5Q178 596 178 600Z" transform="translate(1885.00,958.33) scale(0.9583,-0.9583)" fill="#000000" />
  <path d="M404 343Q404 332 411.0 326.5Q418 321 418 318Q418 313 424 307Q425 306 427 306Q433 306 444.5 325.5Q456 345 456 349Q456 351 476.5 383.5Q497 416 519.0 458.5Q541 501 544 523Q546 539 557.0 548.5Q568 558 568 563Q568 567 574.0 573.0Q580 579 586 583L591 587Q594 587 616 575Q637 564 637 554Q637 543 620 522Q611 511 600.5 493.0Q590 475 583 468Q575 461 568.0 433.0Q561 405 555 398Q550 391 525.5 346.0Q501 301 496 297Q492 294 487.5 274.5Q483 255 483 244Q483 234 481.0 229.0Q479 224 475.0 218.5Q471 213 469 203Q464 183 436 183Q415 183 405.0 198.5Q395 214 392.0 229.5Q389 245 385.0 245.0Q381 245 381.0 251.0Q381 257 371.0 277.0Q361 297 357.0 299.0Q353 301 353 313Q353 321 341.0 336.0Q329 351 329 357Q329 364 310.5 404.0Q292 444 292 446Q292 455 269.5 493.0Q247 531 247 542Q247 558 278 558Q293 558 307.0 546.0Q321 534 328.0 523.5Q335 513 335 511Q338 504 350.0 481.0Q362 458 367 440Q371 425 387.5 389.0Q404 353 404 343ZM123 272Q123 278 111.5 306.0Q100 334 100 357Q100 373 105.5 395.0Q111 417 111.0 418.5Q111 420 110 421V424Q110 448 160 555Q165 565 182.5 585.0Q200 605 215.5 621.5Q231 638 231.0 641.0Q231 644 245.5 652.5Q260 661 281.0 673.0Q302 685 313 695Q336 714 351.0 721.0Q366 728 410 737Q428 740 430 743Q431 744 446 744Q490 744 540.5 736.0Q591 728 598 728Q619 728 622 723Q626 717 650 707Q684 691 722.5 659.0Q761 627 761 615Q761 606 765 606Q770 606 770 598Q770 591 778.5 582.5Q787 574 787 568Q787 563 793.5 526.0Q800 489 800 464Q800 459 798.0 423.5Q796 388 791.5 342.5Q787 297 782 283Q775 264 750.0 237.0Q725 210 723 206Q709 173 653.0 139.0Q597 105 582 105Q577 105 557.5 98.0Q538 91 527 91Q518 91 510.5 87.0Q503 83 491 85Q486 86 481 86Q474 86 464.0 82.0Q454 78 445 78Q437 78 426 81Q412 84 386.0 86.0Q360 88 340.5 90.0Q321 92 318 94Q311 98 285 109Q246 125 203.5 162.5Q161 200 161 219Q161 224 142.0 244.5Q123 265 123 272ZM739 456Q739 513 727.5 550.0Q716 587 703.0 598.0Q690 609 678.5 616.5Q667 624 667 628Q667 633 654 639Q633 648 615 657Q564 684 457 684Q387 684 320 640Q223 576 218 556Q217 550 201.0 527.5Q185 505 185 478Q185 472 187.0 455.0Q189 438 189 428Q189 406 173.5 392.0Q158 378 158 360Q158 338 171 312L184 286Q184 281 196.0 261.5Q208 242 208 238Q208 233 223.0 225.5Q238 218 238 211Q238 202 271.0 184.5Q304 167 332 161Q359 156 368 151Q382 144 427 144Q493 144 566.0 168.5Q639 193 678 247Q683 254 703 279Q722 303 726.0 316.0Q730 329 735 381Q739 437 739 456Z" transform="translate(2827.50,958.33) scale(0.9583,-0.9583)" fill="#000000" />
</svg>
