<?xml version="1.0" encoding="UTF-8" standalone="no"?>
<!--
Representation of "kulupu li awen e sijelo pona tan ma ale" in sitelen ilo pona
Generated by generate_sitelen_kalama_pona.py

Description:
  Representation of "kulupu li awen e sijelo pona tan ma ale" in sitelen ilo pona.
  Sources: kulupu: https://commons.wikimedia.org/wiki/File:Sitelen_seli_kiwen_-_kulupu.svg; li: https://commons.wikimedia.org/wiki/File:Sitelen_seli_kiwen_-_li.svg; awen: https://commons.wikimedia.org/wiki/File:Sitelen_seli_kiwen_-_awen.svg; e: https://commons.wikimedia.org/wiki/File:Sitelen_seli_kiwen_-_e.svg; sijelo: https://commons.wikimedia.org/wiki/File:Sitelen_seli_kiwen_-_sijelo.svg; pona: https://commons.wikimedia.org/wiki/File:Sitelen_seli_kiwen_-_pona.svg; tan: https://commons.wikimedia.org/wiki/File:Sitelen_seli_kiwen_-_tan.svg; ma-ale: https://commons.wikimedia.org/wiki/File:Sitelen_seli_kiwen_-_ma-ale.svg

Categories:
  [[Category:Sitelen kalama pona]]
  [[Category:Toki Pona text containing kulupu li awen e sijelo pona tan ma ale]]

Sources:
  kulupu: https://commons.wikimedia.org/wiki/File:Sitelen_seli_kiwen_-_kulupu.svg
  li: https://commons.wikimedia.org/wiki/File:Sitelen_seli_kiwen_-_li.svg
  awen: https://commons.wikimedia.org/wiki/File:Sitelen_seli_kiwen_-_awen.svg
  e: https://commons.wikimedia.org/wiki/File:Sitelen_seli_kiwen_-_e.svg
  sijelo: https://commons.wikimedia.org/wiki/File:Sitelen_seli_kiwen_-_sijelo.svg
  pona: https://commons.wikimedia.org/wiki/File:Sitelen_seli_kiwen_-_pona.svg
  tan: https://commons.wikimedia.org/wiki/File:Sitelen_seli_kiwen_-_tan.svg
  ma-ale: https://commons.wikimedia.org/wiki/File:Sitelen_seli_kiwen_-_ma-ale.svg
-->
<svg version="1.1" width="7460" height="1000"
     viewBox="0 0 7460 1000"
     xmlns="http://www.w3.org/2000/svg">
  <path d="M416 252Q416 226 407.0 204.5Q398 183 390.0 174.5Q382 166 380 166Q377 166 354 144Q332 124 310.5 115.5Q289 107 246 107Q172 107 138 138Q97 175 88.5 188.5Q80 202 80 234Q80 270 82.5 280.0Q85 290 92 296Q99 302 101.0 304.0Q103 306 103.5 307.5Q104 309 106.5 312.0Q109 315 120.5 326.0Q132 337 152 354Q178 379 238 379Q319 379 360 358Q386 344 401.0 315.0Q416 286 416 252ZM346 263Q346 280 338.0 291.0Q330 302 315.0 307.0Q300 312 286.0 313.5Q272 315 252 315Q214 315 189.5 302.0Q165 289 160 278Q155 264 148 264Q142 264 142 255Q142 241 153.5 220.0Q165 199 178 196Q182 195 207.5 185.5Q233 176 252 176Q279 176 295.0 187.5Q311 199 317.5 210.5Q324 222 326 222Q333 222 339.5 235.0Q346 248 346 263ZM820 263Q820 245 817.0 233.0Q814 221 811.0 217.5Q808 214 805.0 211.0Q802 208 802 204Q802 198 794.0 182.0Q786 166 784 166Q781 166 758.0 144.5Q735 123 728 123Q718 123 706.0 117.5Q694 112 694 108Q694 106 676 106Q625 106 598.0 116.0Q571 126 538 153Q527 162 522.0 168.5Q517 175 512.5 194.0Q508 213 508 244Q508 286 520 297Q540 313 540 340Q540 357 561.0 375.5Q582 394 600 394Q629 394 643.5 399.0Q658 404 682 404Q709 404 727.5 399.0Q746 394 760.5 379.5Q775 365 783.0 352.0Q791 339 806 310Q813 297 816 297Q820 297 820 263ZM666 182Q669 182 673.5 181.0Q678 180 680 180Q690 180 702.0 189.0Q714 198 716 198Q721 198 735.5 228.0Q750 258 750 269Q750 273 748 273Q746 273 741.0 285.0Q736 297 728.0 312.5Q720 328 710 335Q706 338 678 338Q653 338 642.0 335.5Q631 333 616 323Q604 316 590 310Q585 309 583.5 303.0Q582 297 582 281Q582 255 578 255Q574 255 574 251Q574 248 578.0 235.5Q582 223 582 217Q582 203 600.0 191.5Q618 180 633.0 176.0Q648 172 652 172Q656 172 659.0 177.0Q662 182 666 182ZM470 732Q500 732 527.0 722.5Q554 713 566.0 705.0Q578 697 578 695Q578 692 585.0 685.0Q592 678 602.0 665.0Q612 652 618 639Q628 617 636 611Q642 605 642 580Q642 520 602 484Q589 473 578.5 466.0Q568 459 563.5 457.0Q559 455 556.0 452.5Q553 450 552 444Q549 433 536 433Q525 433 494.0 431.5Q463 430 456 430Q419 430 398.5 438.0Q378 446 358 467Q338 487 330.0 504.0Q322 521 322 522Q308 538 308 579Q308 597 314 597Q317 597 320.0 603.0Q323 609 329.0 620.0Q335 631 344 640Q355 651 357.0 657.5Q359 664 352 670Q349 674 354 693L360 712L400 717Q430 721 442.0 726.5Q454 732 470 732ZM578 577Q578 607 539.0 641.5Q500 676 438 676Q428 676 428 668Q428 662 416.0 647.5Q404 633 404 626Q404 620 391.0 605.0Q378 590 378 573Q378 546 402 523Q414 510 421.0 507.5Q428 505 450 505Q464 505 474.0 504.0Q484 503 487 502L490 501Q504 501 541.0 528.0Q578 555 578 577Z" transform="translate(0.00,958.33) scale(0.9583,-0.9583)" fill="#000000" />
  <path d="M281 756Q295 756 318.5 734.0Q342 712 359.0 691.0Q376 670 376 668Q376 665 384.0 657.0Q392 649 404.0 636.5Q416 624 423 615Q435 600 479.0 553.0Q523 506 531 501Q539 496 539 492Q539 488 585.5 446.0Q632 404 641 399Q647 396 649.0 391.5Q651 387 649 375Q648 360 638.0 348.0Q628 336 619.0 329.0Q610 322 610 317Q610 314 580.5 291.5Q551 269 549 269Q544 269 544.0 263.0Q544 257 533.5 246.5Q523 236 518 236Q512 236 512 231Q512 227 505 227Q501 227 495.0 216.5Q489 206 478 202Q465 197 465 191Q465 184 461 184Q457 184 441.5 169.0Q426 154 406.0 133.0Q386 112 378 105Q345 76 345 62Q345 50 339.0 42.0Q333 34 324.0 31.5Q315 29 309.5 28.0Q304 27 300 27Q286 27 273.0 35.5Q260 44 257 45Q250 48 250 58Q250 70 259.5 84.5Q269 99 282 106Q295 112 314.5 133.5Q334 155 340 160Q362 179 385.0 203.0Q408 227 408 230Q408 233 419.5 242.5Q431 252 451.0 268.5Q471 285 485 299Q537 352 550.0 366.0Q563 380 563 385Q563 387 549.5 399.5Q536 412 520.0 425.5Q504 439 502 441Q465 481 465 485Q465 488 418.0 535.0Q371 582 371 586Q371 589 354.5 600.5Q338 612 338 619Q338 626 294.5 666.5Q251 707 251 718Q251 730 260.0 743.0Q269 756 281 756Z" transform="translate(942.50,958.33) scale(0.9583,-0.9583)" fill="#000000" />
  <path d="M71 100Q76 100 79.5 103.5Q83 107 86.0 111.5Q89 116 103.5 119.5Q118 123 143 123Q152 123 170.0 122.5Q188 122 195 122Q229 122 229 132Q229 138 236.0 143.5Q243 149 243 162Q243 174 255.5 199.5Q268 225 273 243L276 249Q278 255 281.5 265.5Q285 276 289.0 288.5Q293 301 296.5 316.0Q300 331 302 344Q305 360 316.5 388.0Q328 416 330.0 428.0Q332 440 342.0 456.0Q352 472 352 480Q352 490 356 494Q368 505 383.0 561.5Q398 618 399 619Q404 622 399.5 629.0Q395 636 395 641Q395 654 412.5 681.0Q430 708 448 708Q461 708 474.0 698.0Q487 688 491 673Q511 590 513 573Q515 559 524.0 535.5Q533 512 533 507Q533 505 532.0 503.5Q531 502 531 501Q531 499 533.5 496.0Q536 493 539.5 486.0Q543 479 545 469Q548 454 557.0 434.0Q566 414 570 398Q574 380 582.0 365.0Q590 350 592 339Q610 259 613 243Q623 182 645 139Q650 129 695.0 125.5Q740 122 751 116Q759 112 765 112Q768 112 774.0 114.5Q780 117 787 117Q809 117 821.0 100.0Q833 83 833 68Q833 62 829 62Q824 62 822 54Q819 46 803.5 40.5Q788 35 771 35Q751 35 744 42Q736 50 675 51Q621 52 608.0 57.0Q595 62 595 81Q595 95 590.0 102.0Q585 109 585 116Q585 124 573.5 160.0Q562 196 562.0 205.0Q562 214 557.0 227.5Q552 241 552 249Q552 265 547.5 268.5Q543 272 543.0 284.0Q543 296 531.5 324.5Q520 353 520 358Q520 369 501.0 411.5Q482 454 482 461Q482 466 480.5 468.0Q479 470 475.0 477.0Q471 484 466 499Q453 539 442 539Q435 539 435 528Q435 523 427.5 512.0Q420 501 419 491Q417 477 413.0 468.5Q409 460 396.5 431.5Q384 403 369 353Q360 324 350.0 296.5Q340 269 335.5 256.0Q331 243 331 233Q331 225 320.0 203.5Q309 182 308 159Q307 148 303.0 135.5Q299 123 299 91Q299 50 293 45Q288 42 231 42Q112 42 97 48Q67 59 67 93Q67 100 71 100Z" transform="translate(1885.00,958.33) scale(0.9583,-0.9583)" fill="#000000" />
  <path d="M156 75Q144 75 126.0 90.0Q108 105 108 115Q108 118 109.0 127.5Q110 137 114.5 149.5Q119 162 124 164Q131 166 151.5 186.0Q172 206 180 210Q192 216 207.0 231.5Q222 247 222 252Q222 260 253.5 283.0Q285 306 292 316Q298 327 314.5 339.0Q331 351 334 356Q336 363 359.5 386.0Q383 409 388 409Q392 409 392 418Q392 423 370.5 439.5Q349 456 342 456Q340 456 297.0 498.0Q254 540 246 543Q238 546 212.5 570.0Q187 594 170 602Q169 602 157.5 609.5Q146 617 133.0 629.5Q120 642 120 652Q120 667 124.0 671.0Q128 675 142 679Q166 685 168 685Q170 685 186.5 669.0Q203 653 208 653Q211 653 224.0 641.0Q237 629 257.0 610.5Q277 592 292 580Q303 573 310.5 566.5Q318 560 322.0 556.0Q326 552 328.5 549.5Q331 547 332.5 546.0Q334 545 336 545Q340 545 378.5 510.0Q417 475 426 472Q434 470 434 466Q434 463 452.5 453.5Q471 444 474 433Q475 427 475.5 422.5Q476 418 477.0 416.0Q478 414 478.0 412.5Q478 411 478.0 410.5Q478 410 478 410Q478 402 467.5 384.5Q457 367 452 367Q448 367 448 361Q448 357 431.0 344.5Q414 332 414 329Q414 324 410 327Q410 327 409.5 327.5Q409 328 408 328Q405 328 298 231Q229 168 204.5 142.0Q180 116 180 98Q180 90 172.0 82.5Q164 75 156 75ZM356 681Q356 693 366.0 704.0Q376 715 392 715Q412 715 449.0 686.0Q486 657 518.0 625.5Q550 594 554 592Q564 588 590.0 566.5Q616 545 637.5 526.5Q659 508 662 508Q664 508 672.5 495.5Q681 483 692 480Q700 477 715.0 465.5Q730 454 752 443Q792 423 792 399Q792 396 791.5 389.5Q791 383 790.5 380.0Q790 377 790 375Q793 373 789.5 367.5Q786 362 779.0 357.0Q772 352 766 351Q752 348 752 344Q752 342 739.0 335.5Q726 329 711.5 320.5Q697 312 694 306Q689 298 674.0 288.0Q659 278 656 275Q647 265 619.5 247.5Q592 230 562.5 207.0Q533 184 514 157Q508 147 502 147Q494 147 494.0 140.0Q494 133 490 133Q486 133 486 126Q486 122 482.0 119.0Q478 116 469.5 108.5Q461 101 454 89Q441 69 428 69Q417 69 400.5 87.5Q384 106 384 116Q384 130 398.5 143.5Q413 157 431.5 168.5Q450 180 454 186Q461 197 500.5 237.5Q540 278 544 278Q546 278 562.5 290.0Q579 302 582 302Q585 302 592.0 313.5Q599 325 604 325Q612 325 612 330Q612 334 618 334Q623 334 658 367L692 400L674 418Q660 431 639.5 443.0Q619 455 614 462Q610 468 600.0 475.0Q590 482 582.0 487.5Q574 493 574 497Q574 502 559.5 513.5Q545 525 518.0 544.0Q491 563 474 576Q443 602 408 627Q406 628 402 631Q383 645 375.5 651.5Q368 658 362.0 666.0Q356 674 356 681Z" transform="translate(2827.50,958.33) scale(0.9583,-0.9583)" fill="#000000" />
  <path d="M477 305Q477 305 478 291Q479 277 481.0 256.0Q483 235 485.0 212.5Q487 190 488.0 169.0Q489 148 489 137Q489 114 492 114Q501 114 490 93Q484 83 456 82L427 81L420 99Q415 110 415 126Q415 132 418.5 163.0Q422 194 422 210Q422 224 418.0 230.5Q414 237 414 243V271L415 310Q415 322 414.5 338.0Q414 354 414 356Q414 379 417.0 397.0Q420 415 420 436V444Q419 451 418.5 462.0Q418 473 418.0 485.0Q418 497 417.5 508.5Q417 520 417 526Q417 578 415 588Q413 600 414.0 604.5Q415 609 417.0 613.5Q419 618 419 620Q419 630 354 630Q305 630 194 625Q187 625 185.5 622.0Q184 619 184 607V604Q185 601 185.5 595.0Q186 589 187.0 580.0Q188 571 189.0 556.5Q190 542 191.0 524.5Q192 507 193.0 482.0Q194 457 194 428Q194 422 198.0 411.5Q202 401 202 374V360Q202 292 206.0 240.5Q210 189 214.5 165.0Q219 141 219 139Q219 105 187 105Q174 105 154.5 122.0Q135 139 135 150Q135 151 137.0 155.0Q139 159 140 167Q144 219 144 231Q144 233 141.5 240.0Q139 247 140 265Q140 271 140.5 277.5Q141 284 141.5 287.5Q142 291 142 295Q142 306 135.0 417.0Q128 528 125 532Q124 534 123.5 553.0Q123 572 121.5 597.0Q120 622 116 635Q113 646 113 654Q113 671 129.0 694.5Q145 718 160 718Q170 718 178 709Q184 702 206.5 700.0Q229 698 321 698Q683 698 717 709Q744 718 752 718Q764 718 775.5 702.5Q787 687 787 674Q787 663 776.5 643.5Q766 624 766 618L764 588Q763 557 761.5 525.0Q760 493 760 489Q760 434 772.0 281.0Q784 128 784 126Q784 114 782.5 109.0Q781 104 779.0 103.5Q777 103 772 103Q735 103 722 114Q718 117 713.0 145.5Q708 174 708 189Q708 206 704 216L700 225Q700 229 705.5 238.0Q711 247 711 250Q711 252 709.5 254.5Q708 257 706.0 264.0Q704 271 704 282Q704 291 705.5 309.0Q707 327 707 334Q707 342 705.5 345.0Q704 348 704 354V389Q704 409 700 424L697 440V441Q701 449 701 498Q701 618 695 623Q689 626 693 633Q693 634 693.5 634.0Q694 634 694 635Q694 638 682 638Q675 638 613.5 634.5Q552 631 518 630Q499 630 496.0 628.5Q493 627 495 618Q496 615 496 610L495 606Q494 603 493.0 596.0Q492 589 490.5 579.5Q489 570 487.5 555.5Q486 541 485.0 524.0Q484 507 483.0 484.5Q482 462 482 437Q482 400 484.0 400.0Q486 400 486 389Q486 371 481.5 340.5Q477 310 477 305Z" transform="translate(3770.00,958.33) scale(0.9583,-0.9583)" fill="#000000" />
  <path d="M664 435Q664 444 666.0 452.5Q668 461 679.0 469.0Q690 477 708 477Q742 477 742 453Q742 449 741.0 440.0Q740 431 733.5 407.5Q727 384 715.5 361.0Q704 338 680.5 307.5Q657 277 624 252Q617 246 567.5 227.0Q518 208 510 208Q504 208 477.5 206.0Q451 204 440 204Q393 204 344.5 224.5Q296 245 294 245Q288 245 288 250Q288 254 269.0 273.0Q250 292 245.5 292.0Q241 292 219.5 323.0Q198 354 198 360Q198 364 193.5 369.5Q189 375 184 389Q182 399 170.0 426.0Q158 453 158 460Q158 464 165.5 479.5Q173 495 180 495Q183 495 188 489Q190 486 192.0 487.0Q194 488 198.5 490.0Q203 492 206 492Q221 492 226 462Q228 447 244.5 411.5Q261 376 274 358Q293 332 311.0 319.0Q329 306 382 280Q413 265 454 265Q535 265 594 311Q618 329 626 335Q634 340 643.0 365.0Q652 390 658.0 411.5Q664 433 664 435Z" transform="translate(4712.50,958.33) scale(0.9583,-0.9583)" fill="#000000" />
  <path d="M730 427Q730 430 733.0 436.0Q736 442 736 447Q736 456 731.0 468.0Q726 480 721.0 487.0Q716 494 714 494Q712 494 702.5 510.5Q693 527 688 527Q682 527 682 531Q682 533 680.5 534.0Q679 535 670.0 540.0Q661 545 645.5 552.5Q630 560 596 575Q572 586 508 586Q470 586 464 583Q452 577 429.5 570.5Q407 564 400 564Q393 564 374.0 553.0Q355 542 352 537Q352 535 334.0 522.5Q316 510 314 503Q310 494 306 494Q298 494 281.0 447.0Q264 400 264 369Q264 344 280 344Q292 344 298 352Q301 356 323.5 367.5Q346 379 354 393Q363 409 372 409Q378 409 398 399Q414 391 416.5 388.0Q419 385 416 375Q414 363 402.0 352.5Q390 342 378 341Q370 340 358.0 329.5Q346 319 340 308Q337 305 309.5 290.5Q282 276 278 263Q274 252 263.0 248.0Q252 244 252 239Q252 236 236 236Q188 236 188 255Q188 261 184.0 266.0Q180 271 180 276Q180 280 159.0 303.0Q138 326 117.0 352.5Q96 379 96 393Q96 403 105.0 411.5Q114 420 126 420Q135 420 149.5 407.5Q164 395 166 395Q170 395 170 390Q170 382 179.0 373.5Q188 365 196 365Q210 365 210 395Q210 401 209 409Q209 419 211.5 419.0Q214 419 219.0 432.0Q224 445 232.5 468.0Q241 491 248 506Q258 525 275.0 544.5Q292 564 300 564Q303 564 313.5 573.5Q324 583 330 583Q336 583 369.5 604.5Q403 626 416 626Q425 626 426.5 626.5Q428 627 428 629Q428 630 433.5 632.0Q439 634 460.5 636.5Q482 639 514 639Q565 639 576 632Q588 624 610.0 623.0Q632 622 657.0 616.5Q682 611 702 592Q720 574 736 562Q775 534 789.5 490.0Q804 446 804 352Q804 338 786.0 297.0Q768 256 756 243Q742 229 742 220Q742 194 716 194Q700 194 700 198Q700 201 693.0 203.5Q686 206 679.0 213.0Q672 220 672 234Q672 250 698.0 282.0Q724 314 724 320Q724 322 731.0 339.5Q738 357 738 389Q738 409 734.0 418.0Q730 427 730 427Z" transform="translate(5655.00,958.33) scale(0.9583,-0.9583)" fill="#000000" />
  <path d="M224 229Q224 255 232.5 273.0Q241 291 248.5 296.5Q256 302 258 302Q262 302 282.0 322.0Q302 342 302 347Q302 354 333.5 366.0Q365 378 388 380Q409 382 422.0 387.5Q435 393 437 393Q439 393 441 393Q444 392 448 392Q454 392 483.5 395.5Q513 399 532 399Q546 399 557.0 395.5Q568 392 596 378Q637 358 658.0 338.5Q679 319 695 287Q704 267 704 254Q704 225 677.0 179.0Q650 133 636 133Q634 133 632.0 131.5Q630 130 627.0 127.0Q624 124 613.5 119.0Q603 114 587 109Q549 97 544 95Q505 80 440 80Q409 80 360.0 100.0Q311 120 287 143Q267 161 264 161Q259 161 243 177Q235 184 232.0 188.0Q229 192 226.5 202.0Q224 212 224 229ZM605 297Q604 302 585.5 312.0Q567 322 550.0 330.0Q533 338 532 338Q532 338 509 336L487 334L489 280L509 278Q521 276 548.0 275.0Q575 274 597.0 273.0Q619 272 623 270Q630 267 630 272Q630 279 619 284Q607 289 605 297ZM422 284Q422 288 419.0 289.5Q416 291 416 306Q416 315 399 315Q377 315 346.5 294.0Q316 273 316 262Q316 256 326 256Q329 256 334 257Q347 260 366 262Q422 270 422 284ZM507 157Q520 157 537.5 161.5Q555 166 566.5 170.5Q578 175 579 175Q585 175 596.5 186.0Q608 197 608 202Q608 206 578 206Q564 206 560 203Q551 199 524 202L494 205L495 182Q496 157 507 157ZM429 188Q429 198 427.0 200.5Q425 203 416 203Q410 203 370.0 195.5Q330 188 330 185Q330 184 349.5 175.5Q369 167 391.0 158.5Q413 150 417 150Q418 150 418 150Q429 155 429 188ZM278 669Q315 669 364.0 649.5Q413 630 423 630Q432 630 449.0 636.5Q466 643 469 648Q471 652 485.0 660.0Q499 668 524.0 675.5Q549 683 571 683Q588 683 623 674Q666 662 666 611Q666 575 657.0 548.0Q648 521 640.0 512.0Q632 503 630 503Q627 503 609.0 492.0Q591 481 578 481Q554 481 515.0 495.0Q476 509 471 518Q466 526 450 533L434 540L414 519Q393 498 390 498Q386 498 367 483Q359 477 354.0 474.0Q349 471 336.5 468.5Q324 466 305 466Q282 466 268 470Q255 475 241.0 489.5Q227 504 227 513Q227 514 211.5 541.0Q196 568 196 584Q196 592 200 598Q207 609 202 617Q201 619 201 623Q201 631 205.5 639.5Q210 648 215 648Q218 648 223.0 653.0Q228 658 241.5 663.5Q255 669 278 669ZM554 546Q612 546 612 598Q612 621 591 621Q587 621 583.0 620.0Q579 619 576.5 618.0Q574 617 574 617Q574 615 571.0 614.5Q568 614 551 614Q537 614 520.5 606.0Q504 598 494.5 590.0Q485 582 485 579Q485 574 511.0 560.0Q537 546 554 546ZM271 554Q271 543 282.0 537.0Q293 531 305 531Q317 531 324.0 535.0Q331 539 340.0 547.0Q349 555 358 560Q373 568 373 579Q373 593 350.5 601.0Q328 609 306 612L280 615L275 581Q271 555 271 554Z" transform="translate(6597.50,958.33) scale(0.9583,-0.9583)" fill="#000000" />
</svg>
