<?xml version="1.0" encoding="UTF-8" standalone="no"?>
<!--
Representation of "toki sewi" in sitelen ilo pona
Generated by generate_sitelen_kalama_pona.py

Description:
  Representation of "toki sewi" in sitelen ilo pona.
  Sources: toki: https://commons.wikimedia.org/wiki/File:Sitelen_seli_kiwen_-_toki.svg; sewi: https://commons.wikimedia.org/wiki/File:Sitelen_seli_kiwen_-_sewi.svg

Categories:
  [[Category:Sitelen kalama pona]]
  [[Category:Toki Pona text containing toki sewi]]

Sources:
  toki: https://commons.wikimedia.org/wiki/File:Sitelen_seli_kiwen_-_toki.svg
  sewi: https://commons.wikimedia.org/wiki/File:Sitelen_seli_kiwen_-_sewi.svg
-->
<svg version="1.1" width="1805" height="1000"
     viewBox="0 0 1805 1000"
     xmlns="http://www.w3.org/2000/svg">
  <path d="M222 295Q222 320 228.0 339.0Q234 358 240.0 368.0Q246 378 246 382Q246 395 265.0 421.5Q284 448 300 456Q316 465 325.0 475.0Q334 485 335.5 491.0Q337 497 344.0 502.0Q351 507 366 509Q385 512 401.0 516.5Q417 521 428 521Q445 521 487.0 512.0Q529 503 540 503Q552 503 571.5 496.0Q591 489 608.0 481.5Q625 474 628 473Q640 469 640 463Q640 457 647.0 453.0Q654 449 654.0 445.0Q654 441 660.5 434.5Q667 428 676.0 416.0Q685 404 690 391Q700 367 702 365Q706 361 706 347Q706 339 709.0 330.5Q712 322 713.0 320.0Q714 318 712 314Q709 312 707.0 303.0Q705 294 700.0 278.5Q695 263 686 250Q678 237 671.0 219.5Q664 202 654 192Q647 185 644.5 179.5Q642 174 642.5 171.0Q643 168 639.5 165.0Q636 162 626 158Q608 150 608 146Q608 141 586.5 133.0Q565 125 538.0 117.0Q511 109 504 106Q488 98 458 98Q419 98 389.5 107.0Q360 116 345.5 124.5Q331 133 330 133Q322 133 305.0 142.5Q288 152 286 157Q285 165 278 167Q265 172 249.0 217.5Q233 263 230 265Q222 270 222 295ZM584 428Q581 428 570.5 436.0Q560 444 534.0 452.5Q508 461 468 461Q434 461 405.0 452.5Q376 444 361.0 435.0Q346 426 333.0 411.5Q320 397 317.5 393.0Q315 389 312 384Q308 374 302 374Q297 374 289.5 351.5Q282 329 282 313Q282 289 313.5 236.0Q345 183 378 177Q397 173 402 170Q416 163 460 163Q496 163 511.0 169.0Q526 175 528 175Q533 175 548.0 180.5Q563 186 588.0 205.5Q613 225 626 254Q643 288 645.5 296.5Q648 305 648 318Q648 349 638 370Q633 383 611.5 405.5Q590 428 584 428ZM144 612Q144 622 151.5 632.5Q159 643 172 643Q181 643 202.5 624.5Q224 606 227.5 606.0Q231 606 235.0 599.0Q239 592 244 592Q249 592 258.5 579.0Q268 566 268 555Q268 545 259.5 539.5Q251 534 243 533L234 532Q226 532 207.5 550.5Q189 569 182 569Q175 569 170.5 576.0Q166 583 162 583Q144 595 144 612ZM622 636Q645 645 677.0 671.5Q709 698 726 698Q740 698 748.0 689.5Q756 681 756 667Q756 654 752.0 648.5Q748 643 734 636Q722 629 700.0 615.0Q678 601 661.5 591.5Q645 582 638 580Q629 577 623.5 573.0Q618 569 608 569Q580 569 580 589Q580 601 592.0 615.0Q604 629 622 636ZM400 600Q400 601 403.0 615.0Q406 629 409.0 652.0Q412 675 412 697Q412 706 410 712Q405 729 429 742Q447 751 448 740Q448 734 458 730Q464 729 465.0 725.0Q466 721 466 708Q466 673 461.0 651.5Q456 630 456 608Q456 595 444.0 583.0Q432 571 420 571Q410 571 405.0 580.0Q400 589 400 600Z" transform="translate(0.00,958.33) scale(0.9583,-0.9583)" fill="#000000" />
  <path d="M550 540Q550 563 560.5 570.0Q571 577 591 577Q605 577 608.0 564.0Q611 551 611 492Q611 457 609.5 437.5Q608 418 606.5 414.0Q605 410 603.5 406.0Q602 402 602 395Q596 290 590 288Q588 287 588.5 283.0Q589 279 589.5 276.5Q590 274 587 273Q581 273 575 205Q574 196 556.5 165.0Q539 134 531 129Q525 125 510 113Q500 105 480 105Q413 105 374 161L366 173L354 159Q342 145 342 137Q342 124 317.0 113.0Q292 102 268 102Q248 102 248 108Q248 112 232 123L216 134L200 122Q183 109 169 109Q164 109 152.0 111.5Q140 114 131 115Q117 117 107.5 126.0Q98 135 94.5 143.0Q91 151 90 151H88Q82 151 82 157Q82 165 91.0 176.0Q100 187 108 187Q109 187 112.5 185.5Q116 184 123.5 182.0Q131 180 143 180Q161 180 166.5 182.0Q172 184 178 196Q187 210 187 220Q187 223 189.5 230.5Q192 238 202.0 248.0Q212 258 228 258Q240 258 247.0 248.5Q254 239 255.5 231.5Q257 224 257 217Q257 216 256.5 213.5Q256 211 256.0 210.0Q256 209 255.5 207.0Q255 205 255 204Q255 193 262.0 185.5Q269 178 276 177L283 175Q292 175 300.5 189.0Q309 203 313.0 217.0Q317 231 315 231Q312 231 318 235Q323 238 328.5 273.0Q334 308 334 332Q334 346 342.5 357.5Q351 369 358 369Q363 369 366.5 364.0Q370 359 370 355Q370 348 375.0 348.0Q380 348 380 353Q380 362 390 357Q394 354 396 349Q397 347 397 329Q397 314 396.5 300.5Q396 287 395.5 277.0Q395 267 394.5 259.0Q394 251 393.5 246.0Q393 241 392.5 237.5Q392 234 391.5 232.0Q391 230 391 230Q391 227 416 195Q422 188 437.5 183.0Q453 178 463.0 177.0Q473 176 476 176Q488 176 499.5 186.5Q511 197 513 209Q515 219 519.0 228.5Q523 238 524 249Q524 251 531.5 279.0Q539 307 546.0 353.5Q553 400 553 448Q553 494 548 494Q545 494 545 495Q545 495 546.5 498.0Q548 501 549.0 507.0Q550 513 550 521ZM763 739Q795 739 795 690Q795 690 794.5 679.5Q794 669 794.0 652.5Q794 636 793.5 617.0Q793 598 792.5 578.5Q792 559 792 546Q793 519 793 513Q793 465 790.5 430.0Q788 395 788 387V294Q788 261 795.0 201.0Q802 141 802 131Q802 120 803.5 116.0Q805 112 811 111Q820 108 817 100Q814 94 813.0 76.5Q812 59 807.5 47.5Q803 36 791 36Q783 36 771 42Q759 48 755.0 53.5Q751 59 749 74Q735 162 735 278Q735 298 737.5 388.5Q740 479 742 483Q744 487 741.0 502.0Q738 517 740 519Q741 520 741 545Q741 572 740.5 595.0Q740 618 738.5 633.5Q737 649 736.0 661.5Q735 674 733.5 681.5Q732 689 730.5 694.0Q729 699 728.5 701.5Q728 704 728 704Q728 717 739.0 728.0Q750 739 763 739Z" transform="translate(942.50,958.33) scale(0.9583,-0.9583)" fill="#000000" />
</svg>
