<?xml version="1.0" encoding="UTF-8" standalone="no"?>
<!--
Representation of "tu luka" in sitelen ilo pona
Generated by generate_sitelen_kalama_pona.py

Description:
  Representation of "tu luka" in sitelen ilo pona.
  Sources: tu-luka: https://commons.wikimedia.org/wiki/File:Sitelen_seli_kiwen_-_tu-luka.svg

Categories:
  [[Category:Sitelen kalama pona]]
  [[Category:Toki Pona text containing tu luka]]

Sources:
  tu-luka: https://commons.wikimedia.org/wiki/File:Sitelen_seli_kiwen_-_tu-luka.svg
-->
<svg version="1.1" width="862" height="1000"
     viewBox="0 0 862 1000"
     xmlns="http://www.w3.org/2000/svg">
  <path d="M183 93Q183 102 184.0 119.5Q185 137 185 147Q185 174 179 198Q171 230 170.0 402.0Q169 574 161 616Q151 672 151 682Q151 692 160.0 701.0Q169 710 181 707Q199 702 205.5 691.0Q212 680 215 646Q230 518 230 492Q230 480 226.5 448.5Q223 417 223 383Q223 329 233.0 248.5Q243 168 243 161Q243 151 248.0 146.5Q253 142 255.5 142.0Q258 142 254 137Q251 131 251.5 128.0Q252 125 253.5 116.0Q255 107 255 101Q255 81 244.5 63.5Q234 46 217 46Q207 46 199.0 52.0Q191 58 191 66Q191 72 186 72Q183 72 183 93ZM567 71Q567 54 566.0 47.5Q565 41 559.5 36.5Q554 32 540 32Q521 32 504.5 46.5Q488 61 484 82Q482 99 455.5 135.5Q429 172 417 193Q411 205 415.0 214.5Q419 224 424.5 230.0Q430 236 432 236Q443 236 456.5 230.0Q470 224 473 217Q478 208 481.5 208.0Q485 208 485 218Q486 226 487.0 233.0Q488 240 488 244Q488 272 483.0 297.0Q478 322 478 366Q478 370 470.5 478.0Q463 586 461 587Q457 592 462.0 600.5Q467 609 474.5 618.0Q482 627 482 632Q482 636 496.5 654.5Q511 673 513 682Q513 684 516.5 691.5Q520 699 530.5 708.5Q541 718 555 718Q629 718 638 684Q639 681 647.5 666.0Q656 651 665.0 628.0Q674 605 677 580Q679 567 686.5 548.0Q694 529 698 469Q698 456 704.5 388.5Q711 321 716 318Q724 314 727.5 259.5Q731 205 734.5 143.0Q738 81 742 65Q749 42 748 41Q716 24 701 24Q687 24 674 40Q669 47 669.0 53.0Q669 59 671.5 72.5Q674 86 674 101Q674 120 671.0 132.0Q668 144 665.0 145.5Q662 147 661.5 151.5Q661 156 666 160Q672 168 672 185Q672 227 658.0 301.0Q644 375 636 383Q635 387 635.5 393.5Q636 400 637.0 414.0Q638 428 638 436Q638 475 631.5 495.5Q625 516 626 524Q628 536 622.5 551.0Q617 566 616 568Q612 590 604.5 606.5Q597 623 590.0 631.5Q583 640 575.5 645.0Q568 650 564.5 651.0Q561 652 559 652Q548 652 531 626Q524 614 521.0 609.0Q518 604 516.0 594.5Q514 585 514 568Q514 541 517.5 474.0Q521 407 525 399Q529 393 527.0 377.0Q525 361 529 343Q539 307 539 269Q539 249 536.5 222.5Q534 196 534 189Q534 166 550.5 136.5Q567 107 567 71ZM292 553Q292 565 292.0 578.0Q292 591 291.5 602.5Q291 614 290.5 625.0Q290 636 289.5 644.5Q289 653 288.5 659.5Q288 666 287.5 670.0Q287 674 287 674Q287 686 288.5 696.0Q290 706 294.5 717.0Q299 728 307.5 729.0Q316 730 330 724Q345 716 348 693Q351 674 351 656Q351 647 354.5 640.0Q358 633 359.0 631.5Q360 630 357 626Q354 624 349.0 546.0Q344 468 344 410Q344 330 347.0 280.5Q350 231 353.5 215.0Q357 199 361.5 177.5Q366 156 367 129Q369 99 376.0 73.0Q383 47 383 43Q383 34 373.0 29.0Q363 24 353 23L342 22Q326 22 308 40Q297 52 297.0 56.0Q297 60 302.5 70.5Q308 81 308 98Q308 110 304.0 135.0Q300 160 297 212Q295 254 290.0 283.5Q285 313 285 330Q285 335 287.0 369.0Q289 403 290.5 454.5Q292 506 292 553Z" transform="translate(0.00,958.33) scale(0.9583,-0.9583)" fill="#000000" />
</svg>
