<?xml version="1.0" encoding="UTF-8" standalone="no"?>
<!--
Representation of "telo suli pimeja" in sitelen kalama pona
Generated by generate_sitelen_kalama_pona.py

Description:
  Representation of "telo suli pimeja" in sitelen kalama pona.
  Sources: telo: https://commons.wikimedia.org/wiki/File:Sitelen_seli_kiwen_-_telo.svg; suli: https://commons.wikimedia.org/wiki/File:Sitelen_seli_kiwen_-_suli.svg; pimeja: https://commons.wikimedia.org/wiki/File:Sitelen_seli_kiwen_-_pimeja.svg

Categories:
  [[Category:Toki Pona text containing telo suli pimeja]]

Sources:
  telo: https://commons.wikimedia.org/wiki/File:Sitelen_seli_kiwen_-_telo.svg
  suli: https://commons.wikimedia.org/wiki/File:Sitelen_seli_kiwen_-_suli.svg
  pimeja: https://commons.wikimedia.org/wiki/File:Sitelen_seli_kiwen_-_pimeja.svg
-->
<svg version="1.1" width="2747" height="1000"
     viewBox="0 0 2747 1000"
     xmlns="http://www.w3.org/2000/svg">
  <path d="M554 195Q544 195 534.5 194.0Q525 193 521.5 192.5Q518 192 513 191Q506 189 506 193Q506 198 496 198Q488 198 475.5 205.0Q463 212 450 215Q436 218 415.0 227.5Q394 237 394 241Q394 250 354.0 256.5Q314 263 302 263Q288 263 254.0 245.5Q220 228 220 221Q220 217 214 217Q211 217 202.0 210.0Q193 203 178 203Q156 203 152 214Q152 217 154 217Q156 218 154.0 219.0Q152 220 149.0 226.0Q146 232 146 238Q146 249 171.0 272.0Q196 295 224 308Q237 315 246.0 318.0Q255 321 275.0 324.0Q295 327 324 327Q341 327 347.5 325.5Q354 324 364.0 319.5Q374 315 392 311Q411 306 426.0 297.5Q441 289 449.5 282.0Q458 275 487.5 270.0Q517 265 566 265Q598 265 622.0 274.5Q646 284 655.0 292.0Q664 300 664 302Q667 311 670.5 311.0Q674 311 693.0 329.5Q712 348 732 348Q745 348 753.0 341.5Q761 335 762.5 330.5Q764 326 764 323Q764 302 740.5 267.5Q717 233 698 233Q689 233 685.5 232.0Q682 231 681.0 229.5Q680 228 674.5 224.0Q669 220 658 215Q640 206 632 197Q622 187 604 191Q579 195 554 195ZM170 424Q163 424 149.5 441.0Q136 458 136 473Q136 486 151.5 508.0Q167 530 178 534Q193 540 204 549Q221 563 254.5 572.5Q288 582 304 582Q326 582 373.5 560.0Q421 538 430 528Q436 522 444 522Q446 522 477.5 506.0Q509 490 536 490Q614 490 638 520Q644 528 657.0 534.0Q670 540 680 540Q690 540 690 534Q690 529 704.0 522.5Q718 516 718 512Q717 497 710.0 489.5Q703 482 696.5 480.0Q690 478 690 475Q690 470 682 470Q677 470 672.0 463.0Q667 456 658 454Q648 452 648.0 447.0Q648 442 642 442Q637 442 616.5 432.0Q596 422 557.5 422.0Q519 422 504.0 426.5Q489 431 482 431Q470 431 424.5 457.5Q379 484 374 484Q368 484 342.5 498.0Q317 512 302 512Q270 512 246.0 498.0Q222 484 211.0 468.0Q200 452 189.0 438.0Q178 424 170 424Z" transform="translate(0.00,958.33) scale(0.9583,-0.9583)" fill="#000000" />
  <path d="M116 735Q138 735 165.0 692.5Q192 650 192 631Q192 624 206.0 606.5Q220 589 220 572Q220 559 225.0 559.0Q230 559 230 551Q230 544 239.0 530.0Q248 516 248 514Q248 508 295.0 417.0Q342 326 342 319Q342 314 354.0 290.0Q366 266 366 261Q366 258 367.5 256.0Q369 254 372.0 251.0Q375 248 381.0 238.0Q387 228 394 212Q412 173 424 173Q432 173 445.0 204.5Q458 236 460 236Q462 236 464.0 242.5Q466 249 470.5 260.0Q475 271 482 278Q492 291 492 298Q492 306 497.0 306.0Q502 306 502.0 313.0Q502 320 506 320Q510 320 541.0 382.5Q572 445 572 452Q572 458 598.0 492.5Q624 527 624 530Q624 534 639.0 553.5Q654 573 674.5 601.5Q695 630 706 651Q713 666 727.5 687.0Q742 708 744 720Q749 747 784 747Q797 747 805.5 736.0Q814 725 814 711Q814 696 803.0 681.5Q792 667 792 666Q792 664 786.5 657.5Q781 651 773.0 642.0Q765 633 762 629Q749 607 733.5 586.0Q718 565 711.0 555.0Q704 545 704 542Q704 536 700 536Q698 536 695.0 530.0Q692 524 684.5 511.0Q677 498 668 486Q652 468 652 462Q652 457 642 449Q634 441 620.0 413.0Q606 385 606 376Q606 370 599.0 362.5Q592 355 594 353Q594 352 594 350Q594 349 590.5 344.5Q587 340 575.5 320.5Q564 301 548 270Q542 256 536.5 247.5Q531 239 529.0 237.0Q527 235 526.5 233.0Q526 231 526 228Q526 223 518.5 214.0Q511 205 514 200Q515 196 508.5 191.0Q502 186 502 178Q502 171 492.0 156.0Q482 141 478 131Q476 125 472 113Q454 67 447.0 53.5Q440 40 430 40Q421 40 404 48Q388 54 384.5 59.5Q381 65 376 89Q371 113 364.5 126.5Q358 140 358 144Q358 161 356 161Q353 161 350.5 165.5Q348 170 343.0 180.5Q338 191 330 200Q322 212 322 219Q322 223 302.0 265.0Q282 307 280 318Q277 332 269.0 349.5Q261 367 258 367Q254 367 246.0 384.0Q238 401 238 409Q238 418 234 420Q228 422 206.0 465.5Q184 509 180 524Q178 535 166.0 554.0Q154 573 150 573Q148 573 145.0 582.0Q142 591 137.0 602.5Q132 614 126 619Q118 626 118 636Q118 643 110.5 650.5Q103 658 102 662Q102 667 94.0 677.0Q86 687 86 697Q86 711 96.0 723.0Q106 735 116 735Z" transform="translate(942.50,958.33) scale(0.9583,-0.9583)" fill="#000000" />
  <path d="M400 629Q400 631 416.0 652.5Q432 674 457.0 696.0Q482 718 500 718Q510 718 532 708Q546 701 551.5 695.5Q557 690 562 677Q567 666 571.5 642.5Q576 619 590 588L616 524Q619 520 663.5 435.0Q708 350 718 339Q724 331 724 321Q724 314 731.0 306.0Q738 298 738 296Q738 290 747.5 270.0Q757 250 760 248Q766 245 766 237Q766 232 783.0 209.0Q800 186 806 171Q810 157 825.0 135.0Q840 113 840 101Q840 100 839.5 97.5Q839 95 836.5 89.5Q834 84 830.5 80.0Q827 76 818.5 72.5Q810 69 800 69Q780 69 752.5 71.5Q725 74 720 77Q717 80 660.0 84.0Q603 88 558 88Q549 88 498.5 87.0Q448 86 386.5 83.0Q325 80 318 76Q308 71 178 71Q98 71 88 74Q78 77 69.0 92.0Q60 107 60 120Q60 130 81.5 155.0Q103 180 129.5 214.0Q156 248 166 277Q170 291 185.0 308.0Q200 325 202 335Q205 348 208 348Q211 348 237.5 387.5Q264 427 264 431Q264 434 280.0 449.0Q296 464 296.0 468.0Q296 472 312.0 488.0Q328 504 328 507Q328 514 341.0 530.5Q354 547 354 552Q354 556 368.0 571.0Q382 586 382.0 592.0Q382 598 391.0 612.0Q400 626 400 629ZM348 422Q348 406 379.5 361.5Q411 317 420 317Q430 317 446 340Q454 349 477.0 373.0Q500 397 518.5 417.0Q537 437 538 442Q541 449 552.0 455.0Q563 461 574 461Q582 461 582 464Q582 466 572.5 484.0Q563 502 552.0 522.5Q541 543 538 550Q536 558 530.5 564.5Q525 571 524.5 579.0Q524 587 516.0 601.0Q508 615 508 623Q508 627 506.0 632.0Q504 637 502 637Q497 637 481.5 622.0Q466 607 466 602Q466 594 438.0 559.0Q410 524 410 524Q410 523 396.0 503.0Q382 483 382 477Q382 472 365.0 450.0Q348 428 348 422ZM612 403Q598 403 557.5 364.0Q517 325 514 325Q508 325 508 319Q508 313 484 283L460 254L470 244Q476 238 496.0 202.5Q516 167 532 161Q549 154 684 154Q715 154 722.5 155.0Q730 156 730 161Q730 174 703.0 224.0Q676 274 672 285Q667 302 642.0 352.5Q617 403 612 403ZM342 310Q334 319 324.0 330.5Q314 342 308.5 347.5Q303 353 300 353Q290 352 273.0 321.5Q256 291 256 291Q253 290 232.0 258.5Q211 227 208 227Q204 227 204 215Q204 207 193.0 195.5Q182 184 178 163L174 149L226 150Q273 152 286 154Q294 155 306.0 170.0Q318 185 318.0 193.0Q318 201 326.0 203.5Q334 206 336 213Q338 218 354.0 233.5Q370 249 370 262Q370 284 342 310ZM438 180Q436 181 434.0 186.0Q432 191 429.0 194.5Q426 198 422 198Q417 197 396.5 178.0Q376 159 376.0 155.0Q376 151 422 151H434L456 152L448 164Q442 176 438 180Z" transform="translate(1885.00,958.33) scale(0.9583,-0.9583)" fill="#000000" />
</svg>
