<?xml version="1.0" encoding="UTF-8" standalone="no"?>
<!--
Representation of "musi pi leko tawa" in sitelen kalama pona
Generated by generate_sitelen_kalama_pona.py

Description:
  Representation of "musi pi leko tawa" in sitelen kalama pona.
  Sources: musi: https://commons.wikimedia.org/wiki/File:Sitelen_seli_kiwen_-_musi.svg; pi: https://commons.wikimedia.org/wiki/File:Sitelen_seli_kiwen_-_pi.svg; leko: https://commons.wikimedia.org/wiki/File:Sitelen_seli_kiwen_-_leko.svg; tawa: https://commons.wikimedia.org/wiki/File:Sitelen_seli_kiwen_-_tawa.svg

Categories:
  [[Category:Toki Pona text containing musi pi leko tawa]]

Sources:
  musi: https://commons.wikimedia.org/wiki/File:Sitelen_seli_kiwen_-_musi.svg
  pi: https://commons.wikimedia.org/wiki/File:Sitelen_seli_kiwen_-_pi.svg
  leko: https://commons.wikimedia.org/wiki/File:Sitelen_seli_kiwen_-_leko.svg
  tawa: https://commons.wikimedia.org/wiki/File:Sitelen_seli_kiwen_-_tawa.svg
-->
<svg version="1.1" width="3690" height="1000"
     viewBox="0 0 3690 1000"
     xmlns="http://www.w3.org/2000/svg">
  <path d="M286 410Q282 410 276.5 411.5Q271 413 268 413Q258 413 251.5 406.0Q245 399 236 380Q206 321 206 304Q206 301 210.0 294.5Q214 288 212 272Q212 268 212 262Q212 252 218.5 243.0Q225 234 228 222Q231 205 238 198Q248 189 256 178Q270 158 297.5 144.5Q325 131 347.0 125.5Q369 120 370 119Q373 115 394.5 110.0Q416 105 432.5 105.0Q449 105 480.5 114.0Q512 123 526 125Q551 128 580.5 145.0Q610 162 616 176Q618 184 626.0 184.0Q634 184 640.0 221.5Q646 259 646 270Q646 275 643.0 278.5Q640 282 639.0 282.0Q638 282 642 285Q642 285 642 289Q642 305 628.5 348.0Q615 391 610 391Q607 391 606.0 395.0Q605 399 599.0 406.0Q593 413 580 419Q558 430 547.0 442.5Q536 455 524 479Q512 506 512 518Q512 523 517.5 532.0Q523 541 524 558Q524 577 528 582Q534 586 541.0 602.5Q548 619 548 628Q548 629 549.5 633.5Q551 638 556.0 646.0Q561 654 569.5 661.0Q578 668 594.5 673.0Q611 678 632 678Q670 678 670 671Q670 667 682 667Q702 667 721.5 652.0Q741 637 750.5 623.0Q760 609 760 606Q760 600 764.5 594.5Q769 589 772 578Q775 564 778 564Q780 564 780 557Q780 544 774.5 518.5Q769 493 762 479Q752 460 737.5 445.5Q723 431 711.0 424.0Q699 417 689.5 410.0Q680 403 680 397Q680 389 692 380Q701 371 704.5 354.5Q708 338 710 273Q712 261 712 242Q712 211 703.0 195.0Q694 179 694.0 173.0Q694 167 696 163Q696 162 696.0 160.0Q696 158 696 157Q696 147 676 131Q611 78 595.0 69.5Q579 61 518 48Q470 37 420 37Q385 37 365.0 41.0Q345 45 331.5 51.5Q318 58 310 60Q298 62 282.5 73.5Q267 85 244 96Q212 111 212 116Q212 120 197.5 136.5Q183 153 180 165Q177 180 174 180Q170 180 170 189Q170 194 169.0 195.0Q168 196 164 196Q157 196 152.0 213.0Q147 230 145.0 253.0Q143 276 142.5 291.0Q142 306 142 310Q142 328 151.0 352.0Q160 376 160 384Q160 395 166 400Q173 406 173.0 416.5Q173 427 166 430Q162 431 161.0 432.5Q160 434 160.5 435.0Q161 436 158.5 440.5Q156 445 150 452Q137 466 128.5 490.5Q120 515 120 534Q120 537 123.0 551.5Q126 566 133.0 585.0Q140 604 148 612Q156 621 156 628Q156 636 170.5 655.0Q185 674 196 679Q205 683 226.0 686.0Q247 689 263.5 690.0Q280 691 282 693Q283 694 310.0 691.0Q337 688 367.0 676.5Q397 665 402 648Q403 639 408 639Q412 639 412 628Q412 619 422 609Q432 601 432 569Q432 497 400 466Q379 443 344.0 426.5Q309 410 286 410ZM368 555Q368 565 365.5 575.0Q363 585 356.0 600.0Q349 615 331.0 624.5Q313 634 286 634Q285 634 276.5 633.5Q268 633 256.0 632.0Q244 631 235.0 629.0Q226 627 226 624Q226 618 215.5 602.0Q205 586 196 576Q182 562 182 540Q182 519 196 505Q210 492 216.5 487.5Q223 483 236.0 479.0Q249 475 270 475Q288 475 314 489Q345 504 356.5 517.5Q368 531 368 555ZM712 546Q712 567 691.0 590.5Q670 614 634 614Q626 614 598 604Q588 600 581.0 574.5Q574 549 574.0 526.0Q574 503 598.5 489.0Q623 475 644 475Q677 475 694.5 499.5Q712 524 712 546Z" transform="translate(0.00,958.33) scale(0.9583,-0.9583)" fill="#000000" />
  <path d="M178 600Q178 613 172.0 629.5Q166 646 166 651Q166 660 178 675Q187 686 191.5 688.0Q196 690 206 688Q221 685 228.5 675.5Q236 666 237.0 657.5Q238 649 238 634V602Q238 561 244.0 524.5Q250 488 250 466Q250 451 248.0 418.5Q246 386 246 369Q246 369 246.0 367.0Q246 365 246.5 361.5Q247 358 247.5 353.0Q248 348 248.0 339.5Q248 331 248.5 321.0Q249 311 249.5 296.5Q250 282 250 266Q250 179 252 177Q260 168 392 168Q392 168 438.0 168.0Q484 168 532.0 168.5Q580 169 584 169Q698 169 704 167Q710 164 716 164Q722 163 728.0 144.5Q734 126 734 111Q734 109 733.0 103.5Q732 98 727.5 90.5Q723 83 716 83Q714 83 683.5 92.5Q653 102 624 102Q612 102 594.0 100.0Q576 98 562 98Q562 98 558.5 98.5Q555 99 548.0 99.5Q541 100 532.0 100.5Q523 101 510.5 101.5Q498 102 486 102Q485 102 480.5 102.0Q476 102 469.0 101.5Q462 101 454.5 100.5Q447 100 439.5 100.0Q432 100 428 100Q344 100 230 92L190 90L184 104Q180 114 180 131Q180 157 185.0 176.5Q190 196 190 218Q190 218 190.0 225.0Q190 232 190.0 242.5Q190 253 189.5 264.5Q189 276 188.5 287.0Q188 298 188 304Q188 326 190.0 374.0Q192 422 192 441Q192 517 178 540Q176 543 177.0 544.0Q178 545 180.0 545.5Q182 546 182.5 549.5Q183 553 180 562Q176 571 176 578Q176 581 177.0 588.5Q178 596 178 600Z" transform="translate(942.50,958.33) scale(0.9583,-0.9583)" fill="#000000" />
  <path d="M301 470Q301 470 301.0 474.5Q301 479 301.5 485.5Q302 492 302.0 499.0Q302 506 302.5 513.5Q303 521 303 525Q303 546 308.5 554.0Q314 562 328 562Q332 562 338.5 561.0Q345 560 365.5 559.0Q386 558 422 558Q446 558 467.0 558.5Q488 559 502.5 560.0Q517 561 528.5 562.0Q540 563 547.5 564.0Q555 565 559.5 566.0Q564 567 566.5 567.5Q569 568 569 568Q586 568 595.5 555.5Q605 543 605 527Q605 517 596.0 504.0Q587 491 587 470Q587 463 588.5 449.0Q590 435 590 425Q590 414 586.5 380.0Q583 346 583 322Q583 296 582.0 291.0Q581 286 576 282Q560 268 522 268Q522 268 519.0 268.0Q516 268 510.0 268.5Q504 269 496.5 269.5Q489 270 478.5 270.5Q468 271 456.5 271.5Q445 272 430.5 272.5Q416 273 402 273Q399 273 395 273Q370 274 357.0 274.5Q344 275 326.0 277.0Q308 279 300.5 284.0Q293 289 293 297Q293 311 301.0 337.0Q309 363 309 400Q309 435 305.0 449.0Q301 463 301 470ZM524 459Q524 479 520.5 489.0Q517 499 513.5 500.5Q510 502 504 502Q494 502 474.5 503.5Q455 505 434 505Q428 505 416.5 504.5Q405 504 400 504L357 503L358 460Q358 389 364.5 360.5Q371 332 387 328Q413 322 437 322Q449 322 449 324Q449 327 479 331Q508 334 518.0 339.5Q528 345 529 359Q529 367 530.0 376.5Q531 386 532.0 393.0Q533 400 534.0 405.5Q535 411 536.0 414.5Q537 418 537 418Q537 426 530.5 436.5Q524 447 524 459ZM217 712Q233 712 309.0 709.0Q385 706 454.5 703.0Q524 700 525 700Q562 700 582.0 703.0Q602 706 649 708Q678 709 698.5 711.5Q719 714 726.0 716.0Q733 718 738.5 720.0Q744 722 748 722Q753 722 766 709L779 695L778 619Q778 618 777.0 598.0Q776 578 775.0 547.5Q774 517 773.0 484.0Q772 451 771.5 418.5Q771 386 771 367Q771 186 779 123L783 96L757 91Q735 87 711 87Q710 87 584.0 94.0Q458 101 434 101Q404 101 367.0 100.0Q330 99 298.0 97.5Q266 96 239.0 94.0Q212 92 195.5 91.0Q179 90 179 90Q160 90 154.0 107.0Q148 124 148 173Q148 201 148.0 234.0Q148 267 148.0 295.0Q148 323 148.0 346.5Q148 370 148.5 384.0Q149 398 149 398Q149 442 143 456Q135 469 139 475Q139 475 139.5 477.0Q140 479 140 481Q140 499 136.0 524.5Q132 550 128.5 569.0Q125 588 125 590Q125 594 120.0 600.0Q115 606 121 617Q125 630 125 643Q125 658 120 659Q116 662 119.0 666.0Q122 670 128.5 676.5Q135 683 135 686Q135 691 147 703L160 715ZM716 227Q716 239 717.0 310.0Q718 381 719.0 446.5Q720 512 720 513Q720 588 718.0 613.0Q716 638 710 650Q707 655 699.0 656.5Q691 658 667 658Q654 658 596.5 653.0Q539 648 481 648Q481 648 466.5 648.0Q452 648 436.0 648.5Q420 649 415 649H376Q361 649 345.5 649.0Q330 649 315.5 649.0Q301 649 287.5 649.5Q274 650 263.0 650.0Q252 650 243.5 650.0Q235 650 230.5 650.0Q226 650 226 650Q200 650 189.0 645.5Q178 641 178 630Q178 629 180.5 615.5Q183 602 184 585Q184 575 185.5 559.0Q187 543 189.5 526.5Q192 510 194.5 495.5Q197 481 198.5 471.0Q200 461 200 461Q200 453 202.5 447.0Q205 441 205 432Q205 418 201.5 385.5Q198 353 198 338Q198 335 198.5 330.0Q199 325 199.5 311.5Q200 298 200 276V245Q200 233 207.5 198.0Q215 163 227 159Q227 159 229.0 158.5Q231 158 234.0 158.0Q237 158 240 158Q240 158 256.0 158.5Q272 159 296.5 160.0Q321 161 347.0 162.0Q373 163 397.5 163.5Q422 164 435 164Q447 164 539.5 161.5Q632 159 680 159Q696 159 704.0 160.0Q712 161 714.5 162.0Q717 163 717 166Q717 166 717.0 166.5Q717 167 716.5 167.5Q716 168 716.0 170.0Q716 172 716.0 174.0Q716 176 716.0 180.5Q716 185 716.0 191.0Q716 197 716.0 206.5Q716 216 716 227Z" transform="translate(1885.00,958.33) scale(0.9583,-0.9583)" fill="#000000" />
  <path d="M284 89Q284 88 283.5 84.0Q283 80 281.5 73.0Q280 66 277.0 59.5Q274 53 268.0 48.5Q262 44 254 44Q242 44 203.0 55.5Q164 67 159 67Q155 67 150.0 71.0Q145 75 130.0 85.0Q115 95 93 106Q38 134 38 155Q38 164 52.0 173.5Q66 183 69 199Q71 213 84.5 223.0Q98 233 103 243Q108 254 120.5 269.0Q133 284 154 327Q159 338 171.5 353.5Q184 369 188 384Q194 405 197 405Q201 405 206.0 417.5Q211 430 211 438Q211 447 216 447Q218 447 220.0 451.5Q222 456 225.5 464.5Q229 473 235 480Q242 488 268.0 530.5Q294 573 299 578Q316 596 333.0 625.5Q350 655 355 673Q358 686 370.5 695.0Q383 704 393.5 708.5Q404 713 404 715Q404 719 414.0 730.5Q424 742 432 742Q436 742 450 735Q462 729 465.0 720.5Q468 712 472.0 686.5Q476 661 486 632L504 578Q511 555 550.0 480.0Q589 405 594 381Q597 366 610.5 337.0Q624 308 624 302Q624 298 633.5 281.5Q643 265 643 260Q643 256 657.5 224.0Q672 192 674 177Q679 145 699 143Q712 143 765 138Q820 133 832.0 130.5Q844 128 844 121Q844 116 853.0 116.0Q862 116 862 91Q862 82 858.0 74.0Q854 66 854 61Q854 50 818 50Q795 50 781.0 57.0Q767 64 735 64Q700 64 679.0 59.5Q658 55 657 55Q641 55 628.0 68.0Q615 81 615 97Q615 103 616.0 109.0Q617 115 617 121Q617 133 612.0 143.0Q607 153 607 160Q607 168 591.5 210.5Q576 253 571 259Q562 270 557.0 292.5Q552 315 539 340Q538 343 537.5 345.5Q537 348 537.0 350.0Q537 352 537.5 353.5Q538 355 538.0 356.5Q538 358 536.5 359.0Q535 360 533 361Q526 363 526 372Q526 389 512.0 425.0Q498 461 487.0 474.0Q476 487 462.0 514.0Q448 541 444 557Q441 571 428.0 600.5Q415 630 412 630Q410 630 403.0 616.0Q396 602 393 602Q392 602 376.5 579.0Q361 556 361 555Q361 551 344 534Q330 519 313.0 493.5Q296 468 286.5 449.0Q277 430 277.0 427.0Q277 424 267.5 410.5Q258 397 258 390Q258 381 254 381Q249 381 249 374Q249 369 237.5 348.5Q226 328 224 321Q221 311 216.0 311.0Q211 311 211 306Q211 303 208.5 299.0Q206 295 201.0 285.5Q196 276 191 263Q184 245 161.5 220.5Q139 196 139 183Q139 173 147.5 162.5Q156 152 164 152Q171 152 194.0 142.5Q217 133 219 133Q226 133 249.0 124.5Q272 116 272 113Q272 108 278.0 102.5Q284 97 284 89Z" transform="translate(2827.50,958.33) scale(0.9583,-0.9583)" fill="#000000" />
</svg>
