<?xml version="1.0" encoding="UTF-8" standalone="no"?>
<!--
Representation of "pilin lon pimeja pi kalama ala" in sitelen kalama pona
Generated by generate_sitelen_kalama_pona.py

Description:
  Representation of "pilin lon pimeja pi kalama ala" in sitelen kalama pona.
  Sources: pilin: https://commons.wikimedia.org/wiki/File:Sitelen_seli_kiwen_-_pilin.svg; lon: https://commons.wikimedia.org/wiki/File:Sitelen_seli_kiwen_-_lon.svg; pimeja: https://commons.wikimedia.org/wiki/File:Sitelen_seli_kiwen_-_pimeja.svg; pi: https://commons.wikimedia.org/wiki/File:Sitelen_seli_kiwen_-_pi.svg; kalama: https://commons.wikimedia.org/wiki/File:Sitelen_seli_kiwen_-_kalama.svg; ala: https://commons.wikimedia.org/wiki/File:Sitelen_seli_kiwen_-_ala.svg

Categories:
  [[Category:Toki Pona text containing pilin lon pimeja pi kalama ala]]

Sources:
  pilin: https://commons.wikimedia.org/wiki/File:Sitelen_seli_kiwen_-_pilin.svg
  lon: https://commons.wikimedia.org/wiki/File:Sitelen_seli_kiwen_-_lon.svg
  pimeja: https://commons.wikimedia.org/wiki/File:Sitelen_seli_kiwen_-_pimeja.svg
  pi: https://commons.wikimedia.org/wiki/File:Sitelen_seli_kiwen_-_pi.svg
  kalama: https://commons.wikimedia.org/wiki/File:Sitelen_seli_kiwen_-_kalama.svg
  ala: https://commons.wikimedia.org/wiki/File:Sitelen_seli_kiwen_-_ala.svg
-->
<svg version="1.1" width="5575" height="1000"
     viewBox="0 0 5575 1000"
     xmlns="http://www.w3.org/2000/svg">
  <path d="M656 705Q694 705 721.5 699.0Q749 693 760.5 687.0Q772 681 772 681Q779 681 793.5 666.5Q808 652 808 646Q808 642 817.0 634.0Q826 626 826.0 621.5Q826 617 832.0 609.5Q838 602 843.0 587.0Q848 572 848 550Q848 526 842.0 506.0Q836 486 829.0 474.5Q822 463 822 458Q822 450 797.0 414.0Q772 378 756 364Q738 347 738 341Q738 334 732 334Q726 334 719.0 322.5Q712 311 710 311Q708 311 630.5 251.0Q553 191 548 185Q543 177 524.5 159.5Q506 142 502 142Q496 142 476.0 118.5Q456 95 456 87Q456 80 453.0 78.5Q450 77 436 77Q420 77 408.0 85.0Q396 93 396 103Q396 110 379.5 127.0Q363 144 350 150Q333 159 300.0 193.5Q267 228 254 232Q245 236 237.0 245.5Q229 255 224.5 255.0Q220 255 207.0 270.0Q194 285 182 290Q174 294 166.0 303.0Q158 312 143.0 329.0Q128 346 112 361Q102 372 90.5 386.5Q79 401 65.5 435.5Q52 470 52 507Q52 526 61.5 559.0Q71 592 82 606Q112 642 137.0 660.5Q162 679 176.5 685.0Q191 691 196 698Q204 709 230 709Q254 709 280.0 702.0Q306 695 312 686Q312 685 332.0 673.5Q352 662 377.5 639.0Q403 616 418 586L428 568L472 611Q502 641 535.5 663.0Q569 685 584 687Q592 687 592 691Q592 692 596.5 695.0Q601 698 616.5 701.5Q632 705 656 705ZM248 644Q231 644 216.0 634.5Q201 625 198 625Q193 625 178.5 610.5Q164 596 126 553Q112 536 112 511Q112 488 123.0 461.5Q134 435 146.0 416.5Q158 398 158 398Q160 392 165.5 387.5Q171 383 188.0 368.5Q205 354 224 334Q256 302 265.5 293.0Q275 284 302 264Q336 238 340 234Q346 227 352.0 227.0Q358 227 358 222Q358 219 365.5 213.5Q373 208 385.5 198.5Q398 189 406 182Q420 170 430 170Q446 170 509.5 229.0Q573 288 576 288Q584 288 584 291Q584 295 616.5 321.5Q649 348 652 348Q660 348 706.0 397.0Q752 446 752 454Q752 458 766.0 475.0Q780 492 780 498Q780 504 783.0 509.0Q786 514 786 525Q786 553 778.0 577.0Q770 601 760 604Q756 606 750.5 615.5Q745 625 728 630Q687 641 678 641Q674 641 666.5 640.5Q659 640 656 640Q650 640 648.0 642.0Q646 644 644 644Q637 644 612.5 634.5Q588 625 582 625Q575 625 562.5 615.0Q550 605 550 599Q550 591 544 589Q534 586 493.0 546.0Q452 506 452 489Q452 488 453.0 487.0Q454 486 454 484Q454 475 448.5 463.0Q443 451 430 451Q389 451 376 507Q373 522 368.5 534.0Q364 546 361.0 552.5Q358 559 358 562Q358 566 349.0 575.5Q340 585 338 594Q335 603 310.0 621.0Q285 639 274 639Q268 639 259.5 641.5Q251 644 248 644Z" transform="translate(0.00,958.33) scale(0.9583,-0.9583)" fill="#000000" />
  <path d="M150 252Q150 262 160.5 276.5Q171 291 190 291Q216 291 250.5 285.5Q285 280 296 280Q319 279 382.5 276.0Q446 273 458 273Q470 273 485.5 275.0Q501 277 506 277Q514 277 524.5 272.5Q535 268 538 269Q542 270 614.0 271.0Q686 272 702 278Q713 282 717.5 281.5Q722 281 730 276Q750 263 750 244Q750 213 712 213Q712 213 708.0 213.0Q704 213 695.5 213.5Q687 214 677.0 214.0Q667 214 652.0 214.0Q637 214 622 214Q611 214 601.0 214.0Q591 214 584.5 214.0Q578 214 573.0 213.5Q568 213 566.0 213.0Q564 213 563.5 213.0Q563 213 547.0 213.5Q531 214 505.5 214.5Q480 215 451.5 215.5Q423 216 394.0 216.5Q365 217 346 217Q333 217 322.0 217.0Q311 217 304.0 216.5Q297 216 291.5 216.0Q286 216 283.5 216.0Q281 216 280 216Q273 216 234.5 219.5Q196 223 184 224Q169 225 159.5 233.0Q150 241 150 252ZM388 467Q388 471 393.0 483.0Q398 495 412.5 508.0Q427 521 446 521Q471 521 489.5 491.0Q508 461 508 441Q508 422 487.5 410.0Q467 398 446.0 398.0Q425 398 406.5 422.5Q388 447 388 467Z" transform="translate(942.50,958.33) scale(0.9583,-0.9583)" fill="#000000" />
  <path d="M400 629Q400 631 416.0 652.5Q432 674 457.0 696.0Q482 718 500 718Q510 718 532 708Q546 701 551.5 695.5Q557 690 562 677Q567 666 571.5 642.5Q576 619 590 588L616 524Q619 520 663.5 435.0Q708 350 718 339Q724 331 724 321Q724 314 731.0 306.0Q738 298 738 296Q738 290 747.5 270.0Q757 250 760 248Q766 245 766 237Q766 232 783.0 209.0Q800 186 806 171Q810 157 825.0 135.0Q840 113 840 101Q840 100 839.5 97.5Q839 95 836.5 89.5Q834 84 830.5 80.0Q827 76 818.5 72.5Q810 69 800 69Q780 69 752.5 71.5Q725 74 720 77Q717 80 660.0 84.0Q603 88 558 88Q549 88 498.5 87.0Q448 86 386.5 83.0Q325 80 318 76Q308 71 178 71Q98 71 88 74Q78 77 69.0 92.0Q60 107 60 120Q60 130 81.5 155.0Q103 180 129.5 214.0Q156 248 166 277Q170 291 185.0 308.0Q200 325 202 335Q205 348 208 348Q211 348 237.5 387.5Q264 427 264 431Q264 434 280.0 449.0Q296 464 296.0 468.0Q296 472 312.0 488.0Q328 504 328 507Q328 514 341.0 530.5Q354 547 354 552Q354 556 368.0 571.0Q382 586 382.0 592.0Q382 598 391.0 612.0Q400 626 400 629ZM348 422Q348 406 379.5 361.5Q411 317 420 317Q430 317 446 340Q454 349 477.0 373.0Q500 397 518.5 417.0Q537 437 538 442Q541 449 552.0 455.0Q563 461 574 461Q582 461 582 464Q582 466 572.5 484.0Q563 502 552.0 522.5Q541 543 538 550Q536 558 530.5 564.5Q525 571 524.5 579.0Q524 587 516.0 601.0Q508 615 508 623Q508 627 506.0 632.0Q504 637 502 637Q497 637 481.5 622.0Q466 607 466 602Q466 594 438.0 559.0Q410 524 410 524Q410 523 396.0 503.0Q382 483 382 477Q382 472 365.0 450.0Q348 428 348 422ZM612 403Q598 403 557.5 364.0Q517 325 514 325Q508 325 508 319Q508 313 484 283L460 254L470 244Q476 238 496.0 202.5Q516 167 532 161Q549 154 684 154Q715 154 722.5 155.0Q730 156 730 161Q730 174 703.0 224.0Q676 274 672 285Q667 302 642.0 352.5Q617 403 612 403ZM342 310Q334 319 324.0 330.5Q314 342 308.5 347.5Q303 353 300 353Q290 352 273.0 321.5Q256 291 256 291Q253 290 232.0 258.5Q211 227 208 227Q204 227 204 215Q204 207 193.0 195.5Q182 184 178 163L174 149L226 150Q273 152 286 154Q294 155 306.0 170.0Q318 185 318.0 193.0Q318 201 326.0 203.5Q334 206 336 213Q338 218 354.0 233.5Q370 249 370 262Q370 284 342 310ZM438 180Q436 181 434.0 186.0Q432 191 429.0 194.5Q426 198 422 198Q417 197 396.5 178.0Q376 159 376.0 155.0Q376 151 422 151H434L456 152L448 164Q442 176 438 180Z" transform="translate(1885.00,958.33) scale(0.9583,-0.9583)" fill="#000000" />
  <path d="M178 600Q178 613 172.0 629.5Q166 646 166 651Q166 660 178 675Q187 686 191.5 688.0Q196 690 206 688Q221 685 228.5 675.5Q236 666 237.0 657.5Q238 649 238 634V602Q238 561 244.0 524.5Q250 488 250 466Q250 451 248.0 418.5Q246 386 246 369Q246 369 246.0 367.0Q246 365 246.5 361.5Q247 358 247.5 353.0Q248 348 248.0 339.5Q248 331 248.5 321.0Q249 311 249.5 296.5Q250 282 250 266Q250 179 252 177Q260 168 392 168Q392 168 438.0 168.0Q484 168 532.0 168.5Q580 169 584 169Q698 169 704 167Q710 164 716 164Q722 163 728.0 144.5Q734 126 734 111Q734 109 733.0 103.5Q732 98 727.5 90.5Q723 83 716 83Q714 83 683.5 92.5Q653 102 624 102Q612 102 594.0 100.0Q576 98 562 98Q562 98 558.5 98.5Q555 99 548.0 99.5Q541 100 532.0 100.5Q523 101 510.5 101.5Q498 102 486 102Q485 102 480.5 102.0Q476 102 469.0 101.5Q462 101 454.5 100.5Q447 100 439.5 100.0Q432 100 428 100Q344 100 230 92L190 90L184 104Q180 114 180 131Q180 157 185.0 176.5Q190 196 190 218Q190 218 190.0 225.0Q190 232 190.0 242.5Q190 253 189.5 264.5Q189 276 188.5 287.0Q188 298 188 304Q188 326 190.0 374.0Q192 422 192 441Q192 517 178 540Q176 543 177.0 544.0Q178 545 180.0 545.5Q182 546 182.5 549.5Q183 553 180 562Q176 571 176 578Q176 581 177.0 588.5Q178 596 178 600Z" transform="translate(2827.50,958.33) scale(0.9583,-0.9583)" fill="#000000" />
  <path d="M386 402Q392 402 435.0 403.0Q478 404 518.5 405.0Q559 406 560 406Q664 406 696 401Q718 397 725.0 393.0Q732 389 738 376Q744 366 744 359Q744 348 730.0 328.0Q716 308 716 290Q716 249 699.5 202.5Q683 156 670 156Q666 156 634.5 128.5Q603 101 590 98Q581 97 578.5 94.0Q576 91 576 84Q576 74 574.0 72.0Q572 70 558 69Q556 69 516.0 62.0Q476 55 460 55Q437 58 420 58Q389 59 366.5 66.0Q344 73 327.0 82.0Q310 91 300 93Q279 97 259.5 108.0Q240 119 236 130Q233 136 205.5 176.0Q178 216 178 225Q178 225 176.5 228.0Q175 231 173.0 236.5Q171 242 169.0 249.0Q167 256 165.0 266.0Q163 276 161.0 287.0Q159 298 157.5 311.5Q156 325 156 338Q156 363 172.5 381.0Q189 399 202 402Q208 403 264 403Q264 403 324.0 402.5Q384 402 386 402ZM664 315Q664 325 656.0 331.0Q648 337 629.0 339.5Q610 342 596.5 342.5Q583 343 556 343Q463 343 405.5 337.0Q348 331 260 330H228L230 305Q234 280 230 275Q225 269 242 243Q258 220 270 199Q278 186 292.0 175.0Q306 164 314 164Q324 164 324 162Q324 157 340.0 148.0Q356 139 390.0 131.0Q424 123 462 123Q486 123 503.5 128.5Q521 134 531.5 140.5Q542 147 546 147Q549 147 562.0 159.0Q575 171 590 173Q602 174 606.0 177.0Q610 180 610 187Q610 196 619.0 201.5Q628 207 630 212Q631 216 638.0 227.0Q645 238 651.0 254.0Q657 270 660 289Q664 315 664 315ZM214 632Q237 632 277.0 593.5Q317 555 324 555Q333 555 342.5 541.5Q352 528 352 514Q352 490 328 490Q311 490 287.5 506.0Q264 522 258 524Q252 526 243.5 535.5Q235 545 222 549Q209 553 191.5 565.5Q174 578 174 587Q174 589 174.5 592.5Q175 596 177.0 603.5Q179 611 183.0 617.0Q187 623 195.0 627.5Q203 632 214 632ZM532 547Q532 549 532.0 551.5Q532 554 533.5 561.0Q535 568 538.0 573.5Q541 579 547.0 583.5Q553 588 560 588Q571 588 616.5 634.5Q662 681 676 687Q686 690 698 690Q710 690 716.5 681.0Q723 672 723.5 666.0Q724 660 724 656Q724 640 698 623Q685 614 657.0 587.0Q629 560 606.0 538.0Q583 516 578 516Q564 524 556 524Q553 524 548.5 525.0Q544 526 538.0 531.5Q532 537 532 547ZM396 680Q396 689 394.0 706.0Q392 723 392 732Q392 748 401.0 759.0Q410 770 417.5 774.0Q425 778 428 778L440 772Q456 766 456 676Q456 616 452.5 600.0Q449 584 436 584Q415 584 406.5 594.5Q398 605 397.0 617.5Q396 630 392 631Q388 632 388 636Q388 638 392.0 652.0Q396 666 396 680Z" transform="translate(3770.00,958.33) scale(0.9583,-0.9583)" fill="#000000" />
  <path d="M211 109Q170 109 170 144Q170 152 181.0 166.5Q192 181 202.0 191.5Q212 202 214 203Q224 207 255.5 238.5Q287 270 290 280Q292 288 300 288Q306 288 336.5 318.5Q367 349 367 355Q367 359 388.0 381.0Q409 403 409.0 407.0Q409 411 392.5 430.0Q376 449 376.0 451.0Q376 453 363.5 468.0Q351 483 336.5 501.0Q322 519 319 525Q314 536 310 536Q307 536 291.0 559.5Q275 583 272 583Q266 583 246.5 607.0Q227 631 227 638Q227 667 250 667Q268 667 291.0 650.0Q314 633 325 611Q331 599 346.0 583.5Q361 568 365 559Q373 543 395.5 518.0Q418 493 423 483Q442 450 456 450Q468 450 490 479Q501 493 553.5 550.5Q606 608 611 615Q617 621 672 661Q682 668 693 668Q708 668 719.0 655.5Q730 643 730.0 627.0Q730 611 720 611Q715 611 702.0 599.5Q689 588 686 588Q685 588 673.0 579.0Q661 570 642.5 551.5Q624 533 612 515Q602 500 575.0 473.0Q548 446 528.0 423.0Q508 400 508 388Q508 378 522.0 362.5Q536 347 536.0 345.0Q536 343 554.5 317.5Q573 292 573 291Q573 289 581.0 280.5Q589 272 600.0 259.0Q611 246 617 235Q625 219 665.0 183.5Q705 148 709 141Q718 127 711 114Q701 93 681 93Q662 93 650.0 105.0Q638 117 631.0 130.5Q624 144 619 146Q616 148 616 152Q616 155 606.0 166.5Q596 178 579.5 197.5Q563 217 552 234Q542 249 520.5 276.0Q499 303 481.5 323.5Q464 344 462.0 344.0Q460 344 445.0 329.5Q430 315 424 313Q419 311 397.0 286.5Q375 262 365.0 255.0Q355 248 334.5 224.5Q314 201 303 194Q291 187 280.5 168.5Q270 150 264 148Q260 147 247.0 128.0Q234 109 211 109Z" transform="translate(4712.50,958.33) scale(0.9583,-0.9583)" fill="#000000" />
</svg>
