<?xml version="1.0" encoding="UTF-8" standalone="no"?>
<!--
Representation of "kala pi telo pimeja" in sitelen kalama pona
Generated by generate_sitelen_kalama_pona.py

Description:
  Representation of "kala pi telo pimeja" in sitelen kalama pona.
  Sources: kala: https://commons.wikimedia.org/wiki/File:Sitelen_seli_kiwen_-_kala.svg; pi: https://commons.wikimedia.org/wiki/File:Sitelen_seli_kiwen_-_pi.svg; telo: https://commons.wikimedia.org/wiki/File:Sitelen_seli_kiwen_-_telo.svg; pimeja: https://commons.wikimedia.org/wiki/File:Sitelen_seli_kiwen_-_pimeja.svg

Categories:
  [[Category:Sitelen kalama pona]]
  [[Category:Toki Pona text containing kala pi telo pimeja]]

Sources:
  kala: https://commons.wikimedia.org/wiki/File:Sitelen_seli_kiwen_-_kala.svg
  pi: https://commons.wikimedia.org/wiki/File:Sitelen_seli_kiwen_-_pi.svg
  telo: https://commons.wikimedia.org/wiki/File:Sitelen_seli_kiwen_-_telo.svg
  pimeja: https://commons.wikimedia.org/wiki/File:Sitelen_seli_kiwen_-_pimeja.svg
-->
<svg version="1.1" width="3690" height="1000"
     viewBox="0 0 3690 1000"
     xmlns="http://www.w3.org/2000/svg">
  <path d="M156 153Q148 153 138.0 156.5Q128 160 128 163Q128 169 112 173Q100 176 96.0 180.0Q92 184 92 196Q92 205 99.0 213.5Q106 222 130 245Q205 317 224.5 337.5Q244 358 244 367Q244 374 221.0 390.5Q198 407 196 413Q195 415 169.5 449.5Q144 484 130 514Q124 531 118 531Q117 531 120.5 537.5Q124 544 132.0 550.0Q140 556 150 556Q176 556 194.5 537.0Q213 518 221.0 499.0Q229 480 232 480Q236 480 236 473Q236 468 248.0 457.0Q260 446 260 443Q260 439 277.0 422.0Q294 405 298 405Q304 405 324.5 417.0Q345 429 354.0 438.0Q363 447 408.0 471.5Q453 496 456 501Q462 508 472 508Q479 508 493.0 515.0Q507 522 535.5 529.0Q564 536 604 536Q648 536 678.0 528.0Q708 520 718.5 512.5Q729 505 744 491Q764 472 772.0 458.5Q780 445 781.5 438.0Q783 431 790 425Q808 409 808 359Q808 337 805.0 319.5Q802 302 798.5 293.0Q795 284 790.5 278.0Q786 272 783.5 270.5Q781 269 780 269Q777 269 774 258Q770 247 751.0 234.5Q732 222 712 219Q688 215 618 215Q573 215 552.5 217.5Q532 220 496 231Q468 240 440 246Q415 251 381.5 267.0Q348 283 324 300L302 316L288 305Q282 300 264.0 278.5Q246 257 232 248Q212 237 212 229Q212 225 211.0 223.5Q210 222 207.0 220.0Q204 218 199.0 211.0Q194 204 188 192Q175 168 169.0 160.5Q163 153 156 153ZM484 290H488Q494 290 504.0 284.5Q514 279 532 279Q552 279 588.0 273.0Q624 267 632 267Q640 267 642.0 269.0Q644 271 665.0 272.0Q686 273 709.0 282.5Q732 292 742 315Q745 321 748.0 324.5Q751 328 753.0 329.0Q755 330 756.5 331.0Q758 332 759.0 335.0Q760 338 760 344Q760 366 752 384Q732 425 709.5 444.0Q687 463 644 473Q620 479 610 479Q567 474 520.5 456.0Q474 438 444.0 420.0Q414 402 388.5 385.0Q363 368 362 367Q350 362 350.0 358.0Q350 354 359.0 348.0Q368 342 380.5 335.5Q393 329 397.5 324.0Q402 319 436.5 304.5Q471 290 484 290Z" transform="translate(0.00,958.33) scale(0.9583,-0.9583)" fill="#000000" />
  <path d="M178 600Q178 613 172.0 629.5Q166 646 166 651Q166 660 178 675Q187 686 191.5 688.0Q196 690 206 688Q221 685 228.5 675.5Q236 666 237.0 657.5Q238 649 238 634V602Q238 561 244.0 524.5Q250 488 250 466Q250 451 248.0 418.5Q246 386 246 369Q246 369 246.0 367.0Q246 365 246.5 361.5Q247 358 247.5 353.0Q248 348 248.0 339.5Q248 331 248.5 321.0Q249 311 249.5 296.5Q250 282 250 266Q250 179 252 177Q260 168 392 168Q392 168 438.0 168.0Q484 168 532.0 168.5Q580 169 584 169Q698 169 704 167Q710 164 716 164Q722 163 728.0 144.5Q734 126 734 111Q734 109 733.0 103.5Q732 98 727.5 90.5Q723 83 716 83Q714 83 683.5 92.5Q653 102 624 102Q612 102 594.0 100.0Q576 98 562 98Q562 98 558.5 98.5Q555 99 548.0 99.5Q541 100 532.0 100.5Q523 101 510.5 101.5Q498 102 486 102Q485 102 480.5 102.0Q476 102 469.0 101.5Q462 101 454.5 100.5Q447 100 439.5 100.0Q432 100 428 100Q344 100 230 92L190 90L184 104Q180 114 180 131Q180 157 185.0 176.5Q190 196 190 218Q190 218 190.0 225.0Q190 232 190.0 242.5Q190 253 189.5 264.5Q189 276 188.5 287.0Q188 298 188 304Q188 326 190.0 374.0Q192 422 192 441Q192 517 178 540Q176 543 177.0 544.0Q178 545 180.0 545.5Q182 546 182.5 549.5Q183 553 180 562Q176 571 176 578Q176 581 177.0 588.5Q178 596 178 600Z" transform="translate(942.50,958.33) scale(0.9583,-0.9583)" fill="#000000" />
  <path d="M554 195Q544 195 534.5 194.0Q525 193 521.5 192.5Q518 192 513 191Q506 189 506 193Q506 198 496 198Q488 198 475.5 205.0Q463 212 450 215Q436 218 415.0 227.5Q394 237 394 241Q394 250 354.0 256.5Q314 263 302 263Q288 263 254.0 245.5Q220 228 220 221Q220 217 214 217Q211 217 202.0 210.0Q193 203 178 203Q156 203 152 214Q152 217 154 217Q156 218 154.0 219.0Q152 220 149.0 226.0Q146 232 146 238Q146 249 171.0 272.0Q196 295 224 308Q237 315 246.0 318.0Q255 321 275.0 324.0Q295 327 324 327Q341 327 347.5 325.5Q354 324 364.0 319.5Q374 315 392 311Q411 306 426.0 297.5Q441 289 449.5 282.0Q458 275 487.5 270.0Q517 265 566 265Q598 265 622.0 274.5Q646 284 655.0 292.0Q664 300 664 302Q667 311 670.5 311.0Q674 311 693.0 329.5Q712 348 732 348Q745 348 753.0 341.5Q761 335 762.5 330.5Q764 326 764 323Q764 302 740.5 267.5Q717 233 698 233Q689 233 685.5 232.0Q682 231 681.0 229.5Q680 228 674.5 224.0Q669 220 658 215Q640 206 632 197Q622 187 604 191Q579 195 554 195ZM170 424Q163 424 149.5 441.0Q136 458 136 473Q136 486 151.5 508.0Q167 530 178 534Q193 540 204 549Q221 563 254.5 572.5Q288 582 304 582Q326 582 373.5 560.0Q421 538 430 528Q436 522 444 522Q446 522 477.5 506.0Q509 490 536 490Q614 490 638 520Q644 528 657.0 534.0Q670 540 680 540Q690 540 690 534Q690 529 704.0 522.5Q718 516 718 512Q717 497 710.0 489.5Q703 482 696.5 480.0Q690 478 690 475Q690 470 682 470Q677 470 672.0 463.0Q667 456 658 454Q648 452 648.0 447.0Q648 442 642 442Q637 442 616.5 432.0Q596 422 557.5 422.0Q519 422 504.0 426.5Q489 431 482 431Q470 431 424.5 457.5Q379 484 374 484Q368 484 342.5 498.0Q317 512 302 512Q270 512 246.0 498.0Q222 484 211.0 468.0Q200 452 189.0 438.0Q178 424 170 424Z" transform="translate(1885.00,958.33) scale(0.9583,-0.9583)" fill="#000000" />
  <path d="M400 629Q400 631 416.0 652.5Q432 674 457.0 696.0Q482 718 500 718Q510 718 532 708Q546 701 551.5 695.5Q557 690 562 677Q567 666 571.5 642.5Q576 619 590 588L616 524Q619 520 663.5 435.0Q708 350 718 339Q724 331 724 321Q724 314 731.0 306.0Q738 298 738 296Q738 290 747.5 270.0Q757 250 760 248Q766 245 766 237Q766 232 783.0 209.0Q800 186 806 171Q810 157 825.0 135.0Q840 113 840 101Q840 100 839.5 97.5Q839 95 836.5 89.5Q834 84 830.5 80.0Q827 76 818.5 72.5Q810 69 800 69Q780 69 752.5 71.5Q725 74 720 77Q717 80 660.0 84.0Q603 88 558 88Q549 88 498.5 87.0Q448 86 386.5 83.0Q325 80 318 76Q308 71 178 71Q98 71 88 74Q78 77 69.0 92.0Q60 107 60 120Q60 130 81.5 155.0Q103 180 129.5 214.0Q156 248 166 277Q170 291 185.0 308.0Q200 325 202 335Q205 348 208 348Q211 348 237.5 387.5Q264 427 264 431Q264 434 280.0 449.0Q296 464 296.0 468.0Q296 472 312.0 488.0Q328 504 328 507Q328 514 341.0 530.5Q354 547 354 552Q354 556 368.0 571.0Q382 586 382.0 592.0Q382 598 391.0 612.0Q400 626 400 629ZM348 422Q348 406 379.5 361.5Q411 317 420 317Q430 317 446 340Q454 349 477.0 373.0Q500 397 518.5 417.0Q537 437 538 442Q541 449 552.0 455.0Q563 461 574 461Q582 461 582 464Q582 466 572.5 484.0Q563 502 552.0 522.5Q541 543 538 550Q536 558 530.5 564.5Q525 571 524.5 579.0Q524 587 516.0 601.0Q508 615 508 623Q508 627 506.0 632.0Q504 637 502 637Q497 637 481.5 622.0Q466 607 466 602Q466 594 438.0 559.0Q410 524 410 524Q410 523 396.0 503.0Q382 483 382 477Q382 472 365.0 450.0Q348 428 348 422ZM612 403Q598 403 557.5 364.0Q517 325 514 325Q508 325 508 319Q508 313 484 283L460 254L470 244Q476 238 496.0 202.5Q516 167 532 161Q549 154 684 154Q715 154 722.5 155.0Q730 156 730 161Q730 174 703.0 224.0Q676 274 672 285Q667 302 642.0 352.5Q617 403 612 403ZM342 310Q334 319 324.0 330.5Q314 342 308.5 347.5Q303 353 300 353Q290 352 273.0 321.5Q256 291 256 291Q253 290 232.0 258.5Q211 227 208 227Q204 227 204 215Q204 207 193.0 195.5Q182 184 178 163L174 149L226 150Q273 152 286 154Q294 155 306.0 170.0Q318 185 318.0 193.0Q318 201 326.0 203.5Q334 206 336 213Q338 218 354.0 233.5Q370 249 370 262Q370 284 342 310ZM438 180Q436 181 434.0 186.0Q432 191 429.0 194.5Q426 198 422 198Q417 197 396.5 178.0Q376 159 376.0 155.0Q376 151 422 151H434L456 152L448 164Q442 176 438 180Z" transform="translate(2827.50,958.33) scale(0.9583,-0.9583)" fill="#000000" />
</svg>
