<?xml version="1.0" encoding="UTF-8" standalone="no"?>
<!--
Representation of "ko jaki" in sitelen ilo pona
Generated by generate_sitelen_kalama_pona.py

Description:
  Representation of "ko jaki" in sitelen ilo pona.
  Sources: ko-jaki: https://commons.wikimedia.org/wiki/File:Sitelen_seli_kiwen_-_ko-jaki.svg

Categories:
  [[Category:Sitelen kalama pona]]
  [[Category:Toki Pona text containing ko jaki]]

Sources:
  ko-jaki: https://commons.wikimedia.org/wiki/File:Sitelen_seli_kiwen_-_ko-jaki.svg
-->
<svg version="1.1" width="862" height="1000"
     viewBox="0 0 862 1000"
     xmlns="http://www.w3.org/2000/svg">
  <path d="M566 393Q566 378 550.0 366.0Q534 354 534 346Q534 336 556 316Q563 309 567.0 304.5Q571 300 574.5 288.0Q578 276 578 259Q578 231 560 231Q553 231 538.5 244.5Q524 258 524 265Q524 271 517.0 278.0Q510 285 502 277Q493 264 451.5 253.5Q410 243 408 241Q404 237 383 237Q355 237 330 254Q313 267 300.5 287.0Q288 307 288 322Q288 334 300.0 353.5Q312 373 320 375Q326 377 328.5 390.0Q331 403 336.5 417.0Q342 431 354 435Q365 438 360 443Q357 447 350 447Q341 447 331.5 435.0Q322 423 322 413Q322 402 314.0 386.5Q306 371 298 367Q295 365 292 365Q286 365 281.0 370.5Q276 376 276 383Q276 386 276 388Q278 394 280.0 405.0Q282 416 284.0 424.0Q286 432 288 435Q294 440 294 447Q294 458 309.5 468.5Q325 479 342.5 486.5Q360 494 360 494Q366 499 376.0 498.0Q386 497 388 491Q392 485 402 485Q405 485 407 485Q410 485 414.0 484.5Q418 484 428.5 483.0Q439 482 458 482Q505 480 514.5 479.0Q524 478 524.0 473.5Q524 469 534.5 458.0Q545 447 555.5 430.0Q566 413 566 393ZM510 411Q510 420 491.5 429.0Q473 438 463 438Q459 438 459 436Q459 435 462 432Q466 427 466 415Q466 405 474 405Q480 405 485.0 399.5Q490 394 492.0 393.0Q494 392 504 400Q510 406 510 411ZM403.0 391.0Q410 391 410.0 398.0Q410 405 403.0 405.0Q396 405 396.0 398.0Q396 391 403.0 391.0ZM418 322Q418 328 393.5 333.0Q369 338 362 338Q350 338 350 329Q350 321 361.0 309.0Q372 297 384 297Q396 297 407.0 307.0Q418 317 418 322ZM486 311Q486 316 480 316Q474 316 469.5 306.5Q465 297 468 294Q471 292 478.5 299.0Q486 306 486 311ZM82 463Q82 470 86 470Q89 470 92.0 474.0Q95 478 105.5 492.5Q116 507 132 525Q151 546 159.5 551.0Q168 556 188 560Q219 566 224.5 572.0Q230 578 232 610Q234 629 236.5 640.5Q239 652 241.5 655.5Q244 659 247.5 664.0Q251 669 254 676Q260 695 298.5 723.5Q337 752 356 752Q359 752 362.5 755.5Q366 759 371.0 763.0Q376 767 392.5 770.5Q409 774 436 774Q448 774 455.5 772.5Q463 771 465.0 769.5Q467 768 468.0 767.0Q469 766 469 766Q471 766 474 767Q474 767 475.5 767.5Q477 768 478 768Q493 768 518.0 756.0Q543 744 550 724Q556 709 560 709Q561 709 574.5 690.5Q588 672 590 672Q592 672 592 652Q592 645 595.0 642.5Q598 640 606 640Q609 640 615.5 640.5Q622 641 626 641Q646 641 682.0 628.0Q718 615 726 613Q740 609 748 600Q761 586 778 573Q846 505 846 422Q846 403 843.5 392.0Q841 381 837.5 378.0Q834 375 830.5 370.0Q827 365 826 359Q823 346 805.5 325.5Q788 305 772 296Q758 288 758 279Q758 273 768.0 255.5Q778 238 778 235Q778 228 780 225Q788 217 795.0 186.5Q802 156 802 137Q802 130 798.5 123.0Q795 116 794 104Q792 91 785.0 81.5Q778 72 772 72Q769 72 762.0 62.5Q755 53 748 53Q744 53 731.5 34.5Q719 16 704 16Q702 16 666.0 10.5Q630 5 584 5Q542 5 536 10Q522 22 468 22Q437 22 403.0 12.0Q369 2 360 -5Q358 -7 340 -7Q313 -7 249.5 -1.0Q186 5 186 17Q186 20 178 20Q168 20 158 40Q139 71 126 85Q114 96 114 108Q114 117 112.0 131.0Q110 145 110 158Q110 192 116.5 209.5Q123 227 138 242Q160 264 144 264Q136 264 114.5 288.0Q93 312 73.5 347.5Q54 383 54 409Q54 420 61.0 425.0Q68 430 68.0 439.0Q68 448 75.0 453.0Q82 458 82 463ZM502 565Q502 578 513.0 593.0Q524 608 524 632Q524 657 520 659Q516 660 509.5 668.5Q503 677 495.5 685.5Q488 694 470.5 701.0Q453 708 430 708Q381 708 348 682Q337 673 323.0 663.5Q309 654 303.0 649.5Q297 645 296 640Q294 634 291.0 628.5Q288 623 287.0 619.5Q286 616 286 611Q286 602 296.0 585.0Q306 568 306 543Q306 531 292 514Q283 503 276.5 500.0Q270 497 254 497Q252 497 237.5 497.5Q223 498 209.5 499.0Q196 500 196 500Q186 500 181.5 497.5Q177 495 168 487Q150 468 130.0 437.5Q110 407 110 398Q110 394 116.0 382.0Q122 370 129.0 359.0Q136 348 138 348Q143 348 149.5 341.0Q156 334 168.0 325.5Q180 317 198 314Q214 312 230.0 305.5Q246 299 246 295Q246 287 252.0 278.0Q258 269 258 258Q258 247 244.5 239.0Q231 231 219.5 228.5Q208 226 204 226Q198 226 182.0 203.0Q166 180 166 164Q166 159 168 156Q171 150 169.0 142.0Q167 134 172 129Q178 122 181.5 111.5Q185 101 191.0 93.0Q197 85 212 78Q228 70 228 67Q228 63 236 63Q242 63 276.5 61.0Q311 59 320 59Q343 59 366.5 70.0Q390 81 394 81Q402 81 414.0 93.5Q426 106 426 113V115Q420 121 420 127Q420 135 429.0 146.5Q438 158 438 160Q438 166 456 164Q459 165 460 166Q459 168 460.5 169.0Q462 170 466 170Q471 170 482.5 152.5Q494 135 494 126Q494 104 501.0 95.0Q508 86 526 80Q564 68 614 68Q654 68 672.5 77.5Q691 87 726 120Q732 127 732 144Q732 159 730.0 178.0Q728 197 725.5 198.5Q723 200 715.5 211.0Q708 222 696.0 239.0Q684 256 672 268Q656 285 656 294Q656 300 658.0 307.0Q660 314 672.5 325.0Q685 336 706 342Q746 354 753.0 360.5Q760 367 776 402Q784 420 784 430Q784 455 756.0 497.5Q728 540 702 549Q655 566 628 566Q609 566 591.0 559.5Q573 553 564.5 546.5Q556 540 556 537Q556 531 546 531Q532 531 524 528Q523 528 521 528Q512 528 507.0 542.0Q502 556 502 565Z" transform="translate(0.00,958.33) scale(0.9583,-0.9583)" fill="#000000" />
</svg>
