<?xml version="1.0" encoding="UTF-8" standalone="no"?>
<!--
Representation of "telo suli Kapiki" in sitelen kalama pona
Generated by generate_sitelen_kalama_pona.py

Description:
  Representation of "telo suli Kapiki" in sitelen kalama pona.
  Sources: telo: https://commons.wikimedia.org/wiki/File:Sitelen_seli_kiwen_-_telo.svg; suli: https://commons.wikimedia.org/wiki/File:Sitelen_seli_kiwen_-_suli.svg; ka: https://commons.wikimedia.org/wiki/File:Sitelen_kalama_pona_-_ka.svg; pi: https://commons.wikimedia.org/wiki/File:Sitelen_kalama_pona_-_pi.svg; ki: https://commons.wikimedia.org/wiki/File:Sitelen_kalama_pona_-_ki.svg

Categories:
  [[Category:Sitelen kalama pona]]
  [[Category:Toki Pona text containing telo suli]]
  [[Category:Toki Pona text containing sound symbol Ka]]
  [[Category:Toki Pona text containing sound symbol Pi]]
  [[Category:Toki Pona text containing sound symbol Ki]]

Sources:
  telo: https://commons.wikimedia.org/wiki/File:Sitelen_seli_kiwen_-_telo.svg
  suli: https://commons.wikimedia.org/wiki/File:Sitelen_seli_kiwen_-_suli.svg
  ka: https://commons.wikimedia.org/wiki/File:Sitelen_kalama_pona_-_ka.svg
  pi: https://commons.wikimedia.org/wiki/File:Sitelen_kalama_pona_-_pi.svg
  ki: https://commons.wikimedia.org/wiki/File:Sitelen_kalama_pona_-_ki.svg
-->
<svg version="1.1" width="6156" height="1000"
     viewBox="0 0 6156 1000"
     xmlns="http://www.w3.org/2000/svg">
  <path d="M554 195Q544 195 534.5 194.0Q525 193 521.5 192.5Q518 192 513 191Q506 189 506 193Q506 198 496 198Q488 198 475.5 205.0Q463 212 450 215Q436 218 415.0 227.5Q394 237 394 241Q394 250 354.0 256.5Q314 263 302 263Q288 263 254.0 245.5Q220 228 220 221Q220 217 214 217Q211 217 202.0 210.0Q193 203 178 203Q156 203 152 214Q152 217 154 217Q156 218 154.0 219.0Q152 220 149.0 226.0Q146 232 146 238Q146 249 171.0 272.0Q196 295 224 308Q237 315 246.0 318.0Q255 321 275.0 324.0Q295 327 324 327Q341 327 347.5 325.5Q354 324 364.0 319.5Q374 315 392 311Q411 306 426.0 297.5Q441 289 449.5 282.0Q458 275 487.5 270.0Q517 265 566 265Q598 265 622.0 274.5Q646 284 655.0 292.0Q664 300 664 302Q667 311 670.5 311.0Q674 311 693.0 329.5Q712 348 732 348Q745 348 753.0 341.5Q761 335 762.5 330.5Q764 326 764 323Q764 302 740.5 267.5Q717 233 698 233Q689 233 685.5 232.0Q682 231 681.0 229.5Q680 228 674.5 224.0Q669 220 658 215Q640 206 632 197Q622 187 604 191Q579 195 554 195ZM170 424Q163 424 149.5 441.0Q136 458 136 473Q136 486 151.5 508.0Q167 530 178 534Q193 540 204 549Q221 563 254.5 572.5Q288 582 304 582Q326 582 373.5 560.0Q421 538 430 528Q436 522 444 522Q446 522 477.5 506.0Q509 490 536 490Q614 490 638 520Q644 528 657.0 534.0Q670 540 680 540Q690 540 690 534Q690 529 704.0 522.5Q718 516 718 512Q717 497 710.0 489.5Q703 482 696.5 480.0Q690 478 690 475Q690 470 682 470Q677 470 672.0 463.0Q667 456 658 454Q648 452 648.0 447.0Q648 442 642 442Q637 442 616.5 432.0Q596 422 557.5 422.0Q519 422 504.0 426.5Q489 431 482 431Q470 431 424.5 457.5Q379 484 374 484Q368 484 342.5 498.0Q317 512 302 512Q270 512 246.0 498.0Q222 484 211.0 468.0Q200 452 189.0 438.0Q178 424 170 424Z" transform="translate(0.00,958.33) scale(0.9583,-0.9583)" fill="#000000" />
  <path d="M116 735Q138 735 165.0 692.5Q192 650 192 631Q192 624 206.0 606.5Q220 589 220 572Q220 559 225.0 559.0Q230 559 230 551Q230 544 239.0 530.0Q248 516 248 514Q248 508 295.0 417.0Q342 326 342 319Q342 314 354.0 290.0Q366 266 366 261Q366 258 367.5 256.0Q369 254 372.0 251.0Q375 248 381.0 238.0Q387 228 394 212Q412 173 424 173Q432 173 445.0 204.5Q458 236 460 236Q462 236 464.0 242.5Q466 249 470.5 260.0Q475 271 482 278Q492 291 492 298Q492 306 497.0 306.0Q502 306 502.0 313.0Q502 320 506 320Q510 320 541.0 382.5Q572 445 572 452Q572 458 598.0 492.5Q624 527 624 530Q624 534 639.0 553.5Q654 573 674.5 601.5Q695 630 706 651Q713 666 727.5 687.0Q742 708 744 720Q749 747 784 747Q797 747 805.5 736.0Q814 725 814 711Q814 696 803.0 681.5Q792 667 792 666Q792 664 786.5 657.5Q781 651 773.0 642.0Q765 633 762 629Q749 607 733.5 586.0Q718 565 711.0 555.0Q704 545 704 542Q704 536 700 536Q698 536 695.0 530.0Q692 524 684.5 511.0Q677 498 668 486Q652 468 652 462Q652 457 642 449Q634 441 620.0 413.0Q606 385 606 376Q606 370 599.0 362.5Q592 355 594 353Q594 352 594 350Q594 349 590.5 344.5Q587 340 575.5 320.5Q564 301 548 270Q542 256 536.5 247.5Q531 239 529.0 237.0Q527 235 526.5 233.0Q526 231 526 228Q526 223 518.5 214.0Q511 205 514 200Q515 196 508.5 191.0Q502 186 502 178Q502 171 492.0 156.0Q482 141 478 131Q476 125 472 113Q454 67 447.0 53.5Q440 40 430 40Q421 40 404 48Q388 54 384.5 59.5Q381 65 376 89Q371 113 364.5 126.5Q358 140 358 144Q358 161 356 161Q353 161 350.5 165.5Q348 170 343.0 180.5Q338 191 330 200Q322 212 322 219Q322 223 302.0 265.0Q282 307 280 318Q277 332 269.0 349.5Q261 367 258 367Q254 367 246.0 384.0Q238 401 238 409Q238 418 234 420Q228 422 206.0 465.5Q184 509 180 524Q178 535 166.0 554.0Q154 573 150 573Q148 573 145.0 582.0Q142 591 137.0 602.5Q132 614 126 619Q118 626 118 636Q118 643 110.5 650.5Q103 658 102 662Q102 667 94.0 677.0Q86 687 86 697Q86 711 96.0 723.0Q106 735 116 735Z" transform="translate(942.50,958.33) scale(0.9583,-0.9583)" fill="#000000" />
  <path d="M 24.637998,12.488337 H 20.72216 q -1.48166,0 -2.54,-1.058333 -1.05833,-1.058333 -1.05833,-2.54 V 3.598338 q 0,-1.481667 1.05833,-2.54 Q 19.2405,4e-6 20.72216,4e-6 h 3.915838 V 0.846671 H 20.72216 q -1.13241,0 -1.94733,0.814917 -0.80433,0.804333 -0.80433,1.93675 v 5.291666 q 0,1.132417 0.80433,1.93675 0.81492,0.814917 1.94733,0.814917 h 3.915838 z" transform="translate(513.81,0.00) scale(80.0747,80.0747)" fill="#000000" />
  <path d="M 75.014662,0.846671 V 4e-6 h 13.123333 v 0.846667 z m 0,11.641666 v -0.846666 h 13.123333 v 0.846666 z" transform="translate(-3520.08,0.00) scale(80.0747,80.0747)" fill="#000000" />
  <path d="M 75.014662,0.846671 V 4e-6 h 13.123333 v 0.846667 z m 0,11.641666 v -0.846666 h 13.123333 v 0.846666 z" transform="translate(-2469.24,0.00) scale(80.0747,80.0747)" fill="#000000" />
  <path d="M 75.014662,0.846671 V 4e-6 h 13.123333 v 0.846667 z m 0,11.641666 v -0.846666 h 13.123333 v 0.846666 z" transform="translate(-1418.39,0.00) scale(80.0747,80.0747)" fill="#000000" />
  <path d="m 87.714667,4e-6 h 2.8575 q 1.481666,0 2.54,1.058334 1.058333,1.058333 1.058333,2.54 v 5.291666 q 0,1.481667 -1.058333,2.54 -1.058334,1.058333 -2.54,1.058333 h -2.8575 v -0.846666 h 2.8575 q 1.132416,0 1.93675,-0.814917 0.814916,-0.804333 0.814916,-1.93675 V 3.598338 q 0,-1.132417 -0.814916,-1.93675 -0.804334,-0.814917 -1.93675,-0.814917 h -2.8575 z" transform="translate(-1384.49,0.00) scale(80.0747,80.0747)" fill="#000000" />
  <path d="M 235.77,643.31 C 235.77,651.79 236.00,656.96 236.00,658.00 L 236.00,704.00 L 186.00,704.00 L 186.00,658.38 C 185.85,653.24 185.78,648.11 185.78,643.00 C 185.78,589.09 193.92,537.14 201.71,486.75 C 204.73,467.20 207.71,447.87 210.22,428.73 C 210.91,423.48 212.27,424.09 212.27,414.93 C 212.27,414.74 211.69,397.42 211.69,396.83 C 211.69,389.56 211.69,389.56 215.39,367.94 C 217.73,354.27 220.20,339.84 222.06,327.75 C 223.09,292.37 228.16,260.48 228.16,227.82 C 228.16,223.01 228.00,218.10 228.00,218.00 C 228.00,213.64 229.45,210.87 229.45,189.48 C 229.45,188.94 228.50,136.10 228.50,135.56 C 228.50,104.77 228.50,20.54 303.91,11.20 C 304.93,11.07 305.97,11.00 307.00,11.00 C 417.90,11.00 500.44,96.50 559.09,160.73 L 572.68,174.32 L 537.32,209.68 C 522.91,195.27 522.91,195.27 522.52,194.84 C 464.36,131.12 395.62,62.39 308.58,61.01 C 288.87,64.03 278.57,79.66 278.57,136.86 C 278.57,156.11 279.53,174.47 279.53,190.46 C 279.53,200.32 279.18,209.97 278.04,219.26 C 278.12,222.22 278.15,225.16 278.15,228.08 C 278.15,264.05 272.86,296.47 271.99,330.64 C 271.82,337.02 261.71,389.45 261.71,396.59 C 261.71,402.78 262.37,409.14 262.37,415.72 C 262.37,422.05 261.80,429.41 259.51,437.37 C 256.96,456.56 254.02,475.57 251.11,494.44 C 243.30,544.98 235.77,594.40 235.77,643.31  Z M 543.81,527.98 L 582.22,559.99 L 484.07,677.76 L 477.36,691.19 L 432.63,668.82 C 436.42,661.91 439.21,654.17 443.78,648.01 C 443.78,648.01 543.78,528.01 543.81,527.98  Z M 733.00,639.00 C 733.15,639.00 740.71,639.31 747.60,639.31 C 757.58,639.31 797.07,639.31 818.26,623.81 C 818.26,623.81 847.78,664.17 847.74,664.19 C 833.58,674.56 805.84,689.32 748.28,689.32 C 742.85,689.32 737.68,689.20 732.83,689.01 C 731.20,689.05 729.57,689.07 727.95,689.07 C 665.32,689.07 582.68,659.26 527.28,529.52 C 507.20,482.51 495.14,432.68 488.32,389.97 C 488.28,389.75 487.39,382.24 487.39,368.25 C 487.39,245.04 565.29,108.32 695.60,101.04 C 696.06,101.02 696.53,101.00 697.00,101.00 L 727.00,101.00 L 727.00,151.00 L 697.73,151.00 C 592.35,157.37 537.41,278.21 537.41,369.06 C 537.41,373.82 537.56,378.52 537.86,383.15 C 548.86,451.23 591.53,639.08 727.73,639.08 C 729.89,639.08 732.95,639.00 733.00,639.00 Z" transform="translate(2612.12,100.00) scale(0.8000,0.8000)" fill="#000000" />
  <path d="M 485.00,189.00 C 469.68,189.00 438.00,176.21 438.00,126.00 C 438.00,117.97 440.75,112.11 452.24,100.63 C 456.31,96.55 469.86,83.00 483.00,83.00 L 493.00,83.00 L 493.00,85.32 C 505.32,87.38 524.11,100.20 524.11,122.52 C 524.11,123.23 524.09,123.95 524.04,124.66 C 524.08,125.75 524.10,126.85 524.10,127.96 C 524.10,165.31 504.14,189.00 485.00,189.00  Z M 606.10,279.81 C 606.10,279.81 655.90,284.16 655.90,284.19 C 637.90,490.19 637.90,490.19 637.90,490.19 C 637.90,490.19 588.10,485.84 588.10,485.81 C 606.10,279.81 606.10,279.81 606.10,279.81  Z M 429.49,786.96 C 319.70,786.96 228.59,722.79 228.59,616.05 C 228.59,604.31 229.71,592.09 232.04,579.47 C 233.26,492.01 243.62,404.21 258.00,319.86 L 258.00,314.00 L 308.00,314.00 L 308.00,322.00 C 308.00,330.48 283.64,447.79 281.99,582.31 C 281.93,587.51 278.43,598.69 278.43,617.13 C 278.43,699.49 355.82,736.84 430.49,736.84 C 461.27,736.84 478.65,731.00 485.00,731.00 L 679.20,731.00 C 730.13,731.41 774.29,739.46 821.76,739.46 C 827.75,739.46 833.74,739.33 839.77,739.04 L 842.23,788.96 C 835.21,789.31 828.30,789.46 821.48,789.46 C 771.89,789.46 726.49,781.38 678.90,781.00 L 487.62,781.00 C 468.37,784.96 448.81,786.96 429.49,786.96  Z M 733.76,308.43 C 557.65,308.43 334.30,328.57 169.67,332.99 L 168.33,283.01 C 245.61,280.94 324.81,276.25 404.79,271.50 C 513.82,265.02 624.29,258.44 733.52,258.44 C 751.48,258.44 769.40,258.62 787.27,259.00 L 857.80,259.00 C 857.80,259.00 940.61,251.12 940.65,251.12 L 945.39,300.88 C 860.20,309.00 860.20,309.00 859.00,309.00 L 787.00,309.00 C 786.47,309.00 764.15,308.43 733.76,308.43 Z" transform="translate(3662.97,100.00) scale(0.8000,0.8000)" fill="#000000" />
  <path d="M 401.00,131.00 C 376.66,131.00 351.33,107.86 351.33,84.01 C 351.33,81.77 351.54,79.45 352.00,77.06 C 353.02,48.40 378.36,33.25 392.71,24.67 C 393.22,24.36 398.21,21.37 399.37,20.49 L 422.46,49.25 C 427.47,52.78 438.12,62.38 438.12,80.17 C 438.12,81.22 438.08,82.28 437.99,83.32 C 437.99,83.51 437.99,83.70 437.99,83.90 C 438.00,84.93 438.01,86.06 438.01,87.29 C 438.01,130.35 403.09,131.00 401.00,131.00  Z M 201.42,181.56 L 232.54,142.41 L 388.58,266.44 L 357.46,305.59 C 357.46,305.59 201.46,181.59 201.42,181.56  Z M 408.05,512.35 L 449.97,539.62 L 341.95,705.65 L 300.03,678.38 C 300.03,678.38 408.03,512.38 408.05,512.35  Z M 603.52,100.45 C 617.37,100.45 630.21,111.06 630.21,126.54 C 630.21,131.42 628.96,135.38 628.29,137.09 L 611.57,130.58 C 610.87,134.39 609.27,138.07 606.79,141.28 L 605.30,128.14 L 581.72,118.96 L 587.27,143.62 L 606.10,150.24 C 601.54,151.34 598.35,153.47 590.37,154.38 C 589.39,154.49 588.26,154.63 586.82,154.63 C 584.68,154.63 578.80,154.30 573.26,151.03 C 462.15,156.17 403.43,286.67 403.43,386.40 C 403.43,391.40 403.58,396.35 403.87,401.24 C 421.69,511.78 515.35,602.55 619.46,625.39 L 632.56,627.26 C 632.56,627.26 625.49,676.75 625.44,676.74 C 610.56,674.62 610.56,674.62 609.70,674.43 C 484.63,647.45 374.92,539.74 354.31,407.89 C 354.27,407.67 353.42,400.12 353.42,385.59 C 353.42,249.92 438.68,100.88 580.40,100.88 C 585.35,100.88 589.69,100.88 593.24,101.79 C 593.35,101.76 598.57,100.45 603.52,100.45 Z" transform="translate(4713.81,100.00) scale(0.8000,0.8000)" fill="#000000" />
</svg>
