<?xml version="1.0" encoding="UTF-8" standalone="no"?>
<!--
Representation of "ilo tenpo ko" in sitelen ilo pona
Generated by generate_sitelen_kalama_pona.py

Description:
  Representation of "ilo tenpo ko" in sitelen ilo pona.
  Sources: ilo: https://commons.wikimedia.org/wiki/File:Sitelen_seli_kiwen_-_ilo.svg; tenpo: https://commons.wikimedia.org/wiki/File:Sitelen_seli_kiwen_-_tenpo.svg; ko: https://commons.wikimedia.org/wiki/File:Sitelen_seli_kiwen_-_ko.svg

Categories:
  [[Category:Sitelen kalama pona]]
  [[Category:Toki Pona text containing ilo tenpo ko]]

Sources:
  ilo: https://commons.wikimedia.org/wiki/File:Sitelen_seli_kiwen_-_ilo.svg
  tenpo: https://commons.wikimedia.org/wiki/File:Sitelen_seli_kiwen_-_tenpo.svg
  ko: https://commons.wikimedia.org/wiki/File:Sitelen_seli_kiwen_-_ko.svg
-->
<svg version="1.1" width="2747" height="1000"
     viewBox="0 0 2747 1000"
     xmlns="http://www.w3.org/2000/svg">
  <path d="M411 266Q411 271 407.5 280.5Q404 290 404 294Q404 295 407.0 304.0Q410 313 411 330L412 356L384 359Q377 360 357 360Q281 360 281 353Q281 350 246 352Q238 353 226 353Q209 353 193.0 343.5Q177 334 161 334Q141 334 130.0 345.5Q119 357 119 367Q119 380 109 387Q102 393 100.0 398.0Q98 403 100 417Q102 432 108.5 448.0Q115 464 115 492Q115 514 112.5 591.5Q110 669 106 675Q104 679 106.0 688.0Q108 697 104 701Q96 711 96 724Q96 730 98.0 737.0Q100 744 110.5 752.5Q121 761 139 761Q164 761 164 765Q164 770 168 768Q171 767 298.0 760.5Q425 754 431 754Q451 754 474.0 757.0Q497 760 513 760Q536 760 574.5 755.5Q613 751 631 751Q645 751 685.0 753.0Q725 755 738 755Q761 755 770.0 741.0Q779 727 780 677Q786 494 788.5 456.0Q791 418 799 403Q804 391 804 383Q804 364 789.0 358.0Q774 352 734 352Q692 352 616.5 359.5Q541 367 515 367Q498 367 490.5 366.0Q483 365 481.5 363.0Q480 361 480 357Q480 346 477.5 311.0Q475 276 475 257Q475 217 481.0 184.0Q487 151 493.0 133.5Q499 116 499 111Q499 102 489.5 87.5Q480 73 461 73Q439 73 425.0 91.0Q411 109 409 138L408 160Q406 181 404.5 204.0Q403 227 403 230Q403 246 407.0 255.0Q411 264 411 266ZM387 698Q363 702 305 702Q272 702 251.5 699.0Q231 696 215 695Q186 694 179.5 682.5Q173 671 169 618Q166 573 166 536Q166 477 174 463Q180 445 182 437L188 415L226 417Q268 419 323 419Q369 419 399 422L416 424L414 500Q412 576 412 592Q412 614 413.0 628.0Q414 642 415.0 647.0Q416 652 416 654Q416 657 412 672Q408 688 404.5 692.0Q401 696 387 698ZM725 438Q725 441 723.5 445.0Q722 449 720.0 451.5Q718 454 717.0 456.5Q716 459 717.5 460.0Q719 461 723 461Q733 461 733 479Q733 484 729.0 515.0Q725 546 723 585Q719 657 710.0 672.0Q701 687 658 689Q639 690 624.0 693.0Q609 696 608.0 697.0Q607 698 603 696Q602 694 562 694H542L485 695L483 670Q482 651 477.0 627.5Q472 604 472 602V592Q473 581 474.5 564.0Q476 547 477.0 526.0Q478 505 478.5 479.0Q479 453 479 429Q479 423 501 426Q513 428 552 428Q566 428 586.0 427.0Q606 426 625.0 425.0Q644 424 660.5 422.5Q677 421 688 420L698 419Q725 419 725 438Z" transform="translate(0.00,958.33) scale(0.9583,-0.9583)" fill="#000000" />
  <path d="M376 453Q376 473 372.0 493.5Q368 514 368 521Q368 531 376.0 540.0Q384 549 394 549Q399 549 406.5 543.0Q414 537 422 535Q428 534 430.0 526.0Q432 518 436 487Q438 459 438 448Q438 430 436.0 416.0Q434 402 434 397Q434 381 442.5 376.5Q451 372 478 372Q508 372 547.0 377.5Q586 383 594 383Q603 383 612.5 373.0Q622 363 622 352Q622 345 619.5 338.0Q617 331 605.5 322.5Q594 314 574 313Q565 313 529.5 307.5Q494 302 448 302Q404 302 394.5 303.5Q385 305 378 313L368 324L374 392Q376 432 376 453ZM532 74H528Q525 74 513.5 71.0Q502 68 480.0 65.5Q458 63 430 63Q400 63 381.0 67.5Q362 72 351.0 77.5Q340 83 334 84Q323 85 307.0 90.0Q291 95 276.0 101.5Q261 108 248.0 114.0Q235 120 227.0 124.0Q219 128 218 128Q213 128 187.5 152.0Q162 176 162 182Q162 183 147.5 201.0Q133 219 118.5 251.0Q104 283 104 317Q104 339 112.0 373.5Q120 408 120 417Q120 447 124.5 464.5Q129 482 142 505Q162 536 162 540Q162 543 183.0 567.0Q204 591 204.0 594.0Q204 597 221.0 613.5Q238 630 238 634Q238 639 242 639Q246 639 255.0 646.0Q264 653 276.5 663.5Q289 674 298 679Q307 684 324.5 695.0Q342 706 356.0 713.5Q370 721 378 723Q385 725 422 725Q478 725 504.0 720.0Q530 715 534 715Q546 715 580.0 699.5Q614 684 640 678Q649 676 659.5 668.5Q670 661 678 658Q687 655 710.5 628.5Q734 602 734 595Q734 592 748.0 570.5Q762 549 762 544Q762 543 766.0 533.5Q770 524 775.5 506.0Q781 488 784 468Q785 453 788 446Q794 436 795.0 422.5Q796 409 796 339Q796 337 790.5 319.0Q785 301 784 291Q784 278 780 278Q778 278 774.0 261.5Q770 245 766 243Q764 242 758.0 229.0Q752 216 740.5 198.0Q729 180 716 168Q694 148 688 141Q681 133 676 133Q674 133 653.5 120.0Q633 107 626 106Q615 104 577.0 89.0Q539 74 532 74ZM442 131Q445 131 461.0 132.0Q477 133 501.0 135.5Q525 138 542.5 142.5Q560 147 560 154Q560 159 570.5 160.0Q581 161 598.5 165.0Q616 169 628 180Q644 194 648 194Q656 194 670.5 210.0Q685 226 697.5 242.5Q710 259 710 259Q716 259 726.0 296.5Q736 334 736 352Q736 355 732.5 375.5Q729 396 728 424Q726 459 713.5 494.0Q701 529 690.0 546.5Q679 564 678 564Q674 564 674 571Q674 578 655.5 594.5Q637 611 630 611Q622 611 622 616Q622 620 614 620Q607 620 604 627Q596 641 542.5 653.5Q489 666 448 666Q424 666 388.5 658.5Q353 651 340 636Q333 629 313.0 617.5Q293 606 282 593Q258 567 250 559Q232 544 232 534Q232 528 213.0 509.5Q194 491 194 487Q194 485 187.0 467.0Q180 449 178 430Q177 411 170.5 371.5Q164 332 164 323Q164 316 168.5 298.5Q173 281 193.0 245.5Q213 210 246 185Q282 156 290 156Q293 156 342.5 143.5Q392 131 442 131Z" transform="translate(942.50,958.33) scale(0.9583,-0.9583)" fill="#000000" />
  <path d="M658 58Q651 58 644.5 49.5Q638 41 617.5 32.5Q597 24 556 24Q539 24 526 25Q508 27 477.5 44.0Q447 61 430 80Q416 95 407 95Q402 95 394.5 88.0Q387 81 381 81Q377 81 364.0 71.0Q351 61 323 58Q302 56 285.5 50.0Q269 44 262 44Q251 44 219.0 51.5Q187 59 177 64Q157 75 137.0 101.5Q117 128 103.0 153.0Q89 178 86 181Q73 193 73 225Q73 260 87.5 287.0Q102 314 102 317Q102 322 97.5 331.0Q93 340 86.5 350.0Q80 360 73.0 369.5Q66 379 62 385L57 391H58Q59 391 59 392L52 410Q45 428 45 442Q45 452 48.0 459.5Q51 467 57.5 480.5Q64 494 69 510Q76 529 86 543L97 557Q101 564 119.0 575.0Q137 586 143 592Q155 602 164 602Q171 602 201.0 611.0Q231 620 255 620Q289 620 302 607Q323 587 325 605Q327 625 334.5 641.5Q342 658 348.5 665.0Q355 672 356 672Q362 672 362 677Q362 681 369.0 681.0Q376 681 376 687Q376 692 414.5 702.0Q453 712 454 716Q456 721 500 721Q535 721 535 724Q538 724 551.0 716.5Q564 709 574 709Q588 709 615 681Q639 656 645.0 643.5Q651 631 659 596Q665 571 665 558Q665 549 662.5 538.0Q660 527 660 524Q660 518 666.0 515.5Q672 513 694 510Q711 507 732 507Q744 507 758.0 493.5Q772 480 776.0 480.0Q780 480 803.0 460.5Q826 441 826 437Q826 432 840 415Q850 403 852.5 390.5Q855 378 855 334Q855 301 849 294Q845 289 839.5 279.5Q834 270 830.0 264.0Q826 258 822 256Q819 255 807.5 245.5Q796 236 788.0 236.0Q780 236 762.5 229.0Q745 222 739 221Q731 220 729.5 204.0Q728 188 725.5 162.0Q723 136 714 117Q706 100 686.0 79.0Q666 58 658 58ZM659 175Q659 199 631.5 214.5Q604 230 604 253Q604 269 617.0 279.0Q630 289 639.5 291.5Q649 294 653 294Q656 294 673.5 288.5Q691 283 707 283Q720 283 725.0 287.5Q730 292 736 292Q749 292 770.0 306.0Q791 320 791 346Q791 365 778.5 387.0Q766 409 756 413Q744 419 737 424Q718 437 668 439Q665 439 637.5 427.0Q610 415 597 415Q579 415 567.0 435.5Q555 456 564 465Q572 474 582.0 496.0Q592 518 592 527Q592 538 595.5 542.0Q599 546 599 558Q599 576 594.0 590.0Q589 604 589 613Q589 617 578.0 629.0Q567 641 540.5 653.5Q514 666 481 666Q434 666 418 647Q413 641 399.5 635.5Q386 630 376.5 618.0Q367 606 362 580Q360 566 360 564Q360 558 367.0 547.0Q374 536 374 507Q374 486 370 474Q366 461 362.5 458.5Q359 456 344 456Q326 456 315.5 465.0Q305 474 304.0 479.5Q303 485 303 489Q308 507 308 512Q308 524 283.0 540.5Q258 557 251 557Q241 554 203 545Q161 535 145.5 523.5Q130 512 119 484Q109 456 109 443Q109 424 118.0 408.0Q127 392 138 388Q146 386 146.0 381.0Q146 376 156 366Q165 357 193 357H214Q239 357 244.0 352.5Q249 348 249 326Q249 310 247.0 304.0Q245 298 233.0 292.5Q221 287 194 285Q177 283 168.0 281.5Q159 280 146.5 269.0Q134 258 134 238Q134 203 174.0 157.5Q214 112 261 112Q270 112 297 120Q328 129 353.5 151.5Q379 174 394.0 191.0Q409 208 420 208Q429 208 437.5 199.5Q446 191 446 181Q446 155 470.5 135.5Q495 116 515.5 109.0Q536 102 541 102Q542 102 544.5 103.5Q547 105 553.5 106.0Q560 107 571 106H580Q615 106 637.0 129.0Q659 152 659 175Z" transform="translate(1885.00,958.33) scale(0.9583,-0.9583)" fill="#000000" />
</svg>
