<?xml version="1.0" encoding="UTF-8" standalone="no"?>
<!--
Representation of "nasin lawa li lon ma Juke li lon ma Juwese" in sitelen ilo pona
Generated by generate_sitelen_kalama_pona.py

Description:
  Representation of "nasin lawa li lon ma Juke li lon ma Juwese" in sitelen ilo pona.
  Sources: nasin: https://commons.wikimedia.org/wiki/File:Sitelen_seli_kiwen_-_nasin.svg; lawa: https://commons.wikimedia.org/wiki/File:Sitelen_seli_kiwen_-_lawa.svg; li: https://commons.wikimedia.org/wiki/File:Sitelen_seli_kiwen_-_li.svg; lon: https://commons.wikimedia.org/wiki/File:Sitelen_seli_kiwen_-_lon.svg; ma: https://commons.wikimedia.org/wiki/File:Sitelen_seli_kiwen_-_ma.svg; ju: https://commons.wikimedia.org/wiki/File:Sitelen_kalama_pona_-_ju.svg; ke: https://commons.wikimedia.org/wiki/File:Sitelen_kalama_pona_-_ke.svg; li: https://commons.wikimedia.org/wiki/File:Sitelen_kalama_pona_-_li.svg; lon: https://commons.wikimedia.org/wiki/File:Sitelen_kalama_pona_-_lon.svg; ma: https://commons.wikimedia.org/wiki/File:Sitelen_kalama_pona_-_ma.svg; ju: https://commons.wikimedia.org/wiki/File:Sitelen_kalama_pona_-_ju.svg; we: https://commons.wikimedia.org/wiki/File:Sitelen_kalama_pona_-_we.svg; se: https://commons.wikimedia.org/wiki/File:Sitelen_kalama_pona_-_se.svg

Categories:
  [[Category:Sitelen kalama pona]]
  [[Category:Toki Pona text containing nasin lawa li lon ma]]
  [[Category:Toki Pona text containing sound symbol Ju]]
  [[Category:Toki Pona text containing sound symbol Ke]]
  [[Category:Toki Pona text containing sound symbol Li]]
  [[Category:Toki Pona text containing sound symbol Lon]]
  [[Category:Toki Pona text containing sound symbol Ma]]
  [[Category:Toki Pona text containing sound symbol Ju]]
  [[Category:Toki Pona text containing sound symbol We]]
  [[Category:Toki Pona text containing sound symbol Se]]

Sources:
  nasin: https://commons.wikimedia.org/wiki/File:Sitelen_seli_kiwen_-_nasin.svg
  lawa: https://commons.wikimedia.org/wiki/File:Sitelen_seli_kiwen_-_lawa.svg
  li: https://commons.wikimedia.org/wiki/File:Sitelen_seli_kiwen_-_li.svg
  lon: https://commons.wikimedia.org/wiki/File:Sitelen_seli_kiwen_-_lon.svg
  ma: https://commons.wikimedia.org/wiki/File:Sitelen_seli_kiwen_-_ma.svg
  ju: https://commons.wikimedia.org/wiki/File:Sitelen_kalama_pona_-_ju.svg
  ke: https://commons.wikimedia.org/wiki/File:Sitelen_kalama_pona_-_ke.svg
  li: https://commons.wikimedia.org/wiki/File:Sitelen_kalama_pona_-_li.svg
  lon: https://commons.wikimedia.org/wiki/File:Sitelen_kalama_pona_-_lon.svg
  ma: https://commons.wikimedia.org/wiki/File:Sitelen_kalama_pona_-_ma.svg
  ju: https://commons.wikimedia.org/wiki/File:Sitelen_kalama_pona_-_ju.svg
  we: https://commons.wikimedia.org/wiki/File:Sitelen_kalama_pona_-_we.svg
  se: https://commons.wikimedia.org/wiki/File:Sitelen_kalama_pona_-_se.svg
-->
<svg version="1.1" width="14238" height="1000"
     viewBox="0 0 14238 1000"
     xmlns="http://www.w3.org/2000/svg">
  <path d="M428 210Q428 226 424.0 300.5Q420 375 416 375Q412 375 396.0 361.5Q380 348 378 348Q376 348 353.0 334.0Q330 320 328 320Q322 320 320 312Q318 304 308.0 301.0Q298 298 292 304Q285 311 274 314Q260 317 260 329Q260 354 310 380Q328 389 358.0 411.0Q388 433 388 438Q388 440 404 459L422 477L418 552Q412 678 412 679Q412 694 423.0 706.5Q434 719 448 719Q469 719 476 693Q482 677 480 673Q472 664 472 578V562Q473 500 474.5 488.5Q476 477 484 473Q493 470 502 456Q510 445 546.5 412.5Q583 380 612 358Q629 345 634.5 336.0Q640 327 640 310Q640 291 620 291Q597 291 582 308Q570 321 537.0 348.0Q504 375 492 382Q486 385 482 385Q474 385 474 359Q474 342 474 330Q476 306 477.0 248.5Q478 191 484 156Q488 131 488 111Q488 81 472 81Q462 81 462 86Q462 92 446 90Q434 89 430.0 91.0Q426 93 420 102Q412 116 415.5 123.0Q419 130 423.5 161.0Q428 192 428 210Z" transform="translate(0.00,958.33) scale(0.9583,-0.9583)" fill="#000000" />
  <path d="M352 711Q358 711 368.0 710.5Q378 710 396.0 709.0Q414 708 429 707Q496 703 504 683Q510 672 516 672Q518 672 530.0 662.5Q542 653 562.5 627.5Q583 602 598 569Q601 563 603.0 561.0Q605 559 613.5 557.5Q622 556 641 556Q667 556 701.5 560.5Q736 565 743 565Q751 565 761.5 563.0Q772 561 785.0 551.0Q798 541 798 524L795 495Q795 490 778 494Q774 495 760.0 495.0Q746 495 726.5 492.5Q707 490 697 490Q695 490 692 490L689 491Q687 492 677.0 491.5Q667 491 658 489Q643 486 639.0 483.0Q635 480 637 473Q639 467 645.0 432.0Q651 397 653.0 391.0Q655 385 655.0 382.0Q655 379 653.5 371.0Q652 363 650.5 346.5Q649 330 648 308Q647 282 635.5 252.5Q624 223 613.5 206.5Q603 190 602 190Q597 188 572.0 163.0Q547 138 547 135Q547 130 528.5 112.5Q510 95 504.0 95.0Q498 95 482.0 83.5Q466 72 462 72Q459 72 454.0 69.0Q449 66 442.5 62.0Q436 58 418.0 55.0Q400 52 374 52Q335 52 299.5 59.0Q264 66 253 78Q247 86 239 86Q233 86 233 90Q233 93 221.0 99.5Q209 106 209 111Q209 114 207.5 115.5Q206 117 203.0 119.0Q200 121 193.5 129.0Q187 137 179 149Q163 174 158 177Q149 182 130.5 230.0Q112 278 110 299Q109 310 106 318Q102 326 102 442Q102 484 108.0 511.5Q114 539 120.5 547.0Q127 555 133.0 561.0Q139 567 139 572Q139 579 154.0 599.5Q169 620 174 620Q176 620 202.0 648.5Q228 677 244 677Q248 677 257.0 685.5Q266 694 289.0 694.0Q312 694 322.0 702.5Q332 711 352 711ZM218 537Q235 537 254.0 534.0Q273 531 274.0 531.0Q275 531 297.5 538.0Q320 545 365 545Q374 545 389.5 544.0Q405 543 421.5 542.0Q438 541 453.5 540.0Q469 539 479 538L489 537Q500 537 516 541L537 546L530 560Q525 570 512.5 578.5Q500 587 500 592Q500 601 485.5 615.5Q471 630 440.5 642.5Q410 655 375 655Q363 655 352.5 648.0Q342 641 323 641H316Q296 641 286.5 633.0Q277 625 270 625Q254 625 211.0 585.5Q168 546 168 535Q168 532 172 532Q174 532 178.5 533.0Q183 534 193.0 535.5Q203 537 218 537ZM162 338Q162 312 171.5 296.5Q181 281 183 271Q185 260 206.0 228.0Q227 196 237 188Q240 185 261.5 158.0Q283 131 303 123Q312 119 347 119Q371 119 385.0 121.0Q399 123 403.5 125.0Q408 127 410 127Q413 127 415 126H417Q428 126 471.0 158.0Q514 190 519 201Q523 209 544.0 225.5Q565 242 565 252Q565 260 572.5 267.0Q580 274 582 280Q588 295 588 368Q588 389 586.5 395.5Q585 402 582.0 408.5Q579 415 577 430Q573 455 568.5 465.0Q564 475 557.0 476.5Q550 478 539 475Q531 473 523 473Q521 473 508.5 474.5Q496 476 462.0 477.0Q428 478 375 478Q304 478 302 475Q301 471 281.5 470.5Q262 470 235.0 469.5Q208 469 194 465Q178 461 167 461Q162 461 159.5 460.0Q157 459 154.0 451.0Q151 443 151.0 428.0Q151 413 156.5 385.5Q162 358 162 338Z" transform="translate(942.50,958.33) scale(0.9583,-0.9583)" fill="#000000" />
  <path d="M281 756Q295 756 318.5 734.0Q342 712 359.0 691.0Q376 670 376 668Q376 665 384.0 657.0Q392 649 404.0 636.5Q416 624 423 615Q435 600 479.0 553.0Q523 506 531 501Q539 496 539 492Q539 488 585.5 446.0Q632 404 641 399Q647 396 649.0 391.5Q651 387 649 375Q648 360 638.0 348.0Q628 336 619.0 329.0Q610 322 610 317Q610 314 580.5 291.5Q551 269 549 269Q544 269 544.0 263.0Q544 257 533.5 246.5Q523 236 518 236Q512 236 512 231Q512 227 505 227Q501 227 495.0 216.5Q489 206 478 202Q465 197 465 191Q465 184 461 184Q457 184 441.5 169.0Q426 154 406.0 133.0Q386 112 378 105Q345 76 345 62Q345 50 339.0 42.0Q333 34 324.0 31.5Q315 29 309.5 28.0Q304 27 300 27Q286 27 273.0 35.5Q260 44 257 45Q250 48 250 58Q250 70 259.5 84.5Q269 99 282 106Q295 112 314.5 133.5Q334 155 340 160Q362 179 385.0 203.0Q408 227 408 230Q408 233 419.5 242.5Q431 252 451.0 268.5Q471 285 485 299Q537 352 550.0 366.0Q563 380 563 385Q563 387 549.5 399.5Q536 412 520.0 425.5Q504 439 502 441Q465 481 465 485Q465 488 418.0 535.0Q371 582 371 586Q371 589 354.5 600.5Q338 612 338 619Q338 626 294.5 666.5Q251 707 251 718Q251 730 260.0 743.0Q269 756 281 756Z" transform="translate(1885.00,958.33) scale(0.9583,-0.9583)" fill="#000000" />
  <path d="M150 252Q150 262 160.5 276.5Q171 291 190 291Q216 291 250.5 285.5Q285 280 296 280Q319 279 382.5 276.0Q446 273 458 273Q470 273 485.5 275.0Q501 277 506 277Q514 277 524.5 272.5Q535 268 538 269Q542 270 614.0 271.0Q686 272 702 278Q713 282 717.5 281.5Q722 281 730 276Q750 263 750 244Q750 213 712 213Q712 213 708.0 213.0Q704 213 695.5 213.5Q687 214 677.0 214.0Q667 214 652.0 214.0Q637 214 622 214Q611 214 601.0 214.0Q591 214 584.5 214.0Q578 214 573.0 213.5Q568 213 566.0 213.0Q564 213 563.5 213.0Q563 213 547.0 213.5Q531 214 505.5 214.5Q480 215 451.5 215.5Q423 216 394.0 216.5Q365 217 346 217Q333 217 322.0 217.0Q311 217 304.0 216.5Q297 216 291.5 216.0Q286 216 283.5 216.0Q281 216 280 216Q273 216 234.5 219.5Q196 223 184 224Q169 225 159.5 233.0Q150 241 150 252ZM388 467Q388 471 393.0 483.0Q398 495 412.5 508.0Q427 521 446 521Q471 521 489.5 491.0Q508 461 508 441Q508 422 487.5 410.0Q467 398 446.0 398.0Q425 398 406.5 422.5Q388 447 388 467Z" transform="translate(2827.50,958.33) scale(0.9583,-0.9583)" fill="#000000" />
  <path d="M152 340Q152 341 154.5 344.0Q157 347 156 359V367Q156 391 167.5 424.0Q179 457 192.5 485.0Q206 513 208 517Q213 534 245.0 555.5Q277 577 278 583Q280 589 289.0 594.0Q298 599 302 607Q305 615 318.0 619.5Q331 624 336 632Q340 639 350.0 644.0Q360 649 373.5 653.5Q387 658 394 661Q400 665 424 665Q455 665 491.0 659.0Q527 653 532 645Q536 640 548 640Q551 640 554 640Q576 640 606 621Q618 613 634 603Q645 598 671.5 565.5Q698 533 698 526Q698 520 705.0 515.5Q712 511 712 506Q712 499 718 495Q724 492 732.0 475.0Q740 458 740 450Q740 447 744.0 439.0Q748 431 748 405Q748 372 741.0 333.0Q734 294 725.5 269.5Q717 245 712 245Q712 245 704.5 230.5Q697 216 684.5 199.5Q672 183 660 178Q652 174 652 168Q652 161 646 161Q641 161 624 145Q606 129 570 121Q490 105 480 105Q464 105 452.5 93.0Q441 81 434 81Q423 81 406.0 88.0Q389 95 388 100Q386 108 356 116Q327 124 282.5 146.0Q238 168 238.0 174.0Q238 180 208.5 210.5Q179 241 176 255Q174 268 163.0 301.0Q152 334 152 340ZM390 461Q391 481 392.0 500.0Q393 519 394.5 532.5Q396 546 397.5 558.0Q399 570 400.5 578.0Q402 586 403.0 591.0Q404 596 405.0 599.0Q406 602 406 602Q406 606 400 606Q390 606 375.0 597.0Q360 588 354 578Q349 567 310.0 527.5Q271 488 270 482Q266 474 264 477Q261 479 256.0 475.5Q251 472 247.5 466.0Q244 460 244 456Q244 451 240.5 447.0Q237 443 233.5 441.0Q230 439 226.5 431.5Q223 424 222 411L220 390L232 399Q241 406 250 406Q251 406 275.5 402.0Q300 398 330 398Q386 398 388 408Q388 418 390 461ZM656 491Q656 496 644.0 508.0Q632 520 632 524Q632 530 615.5 542.5Q599 555 579.5 567.5Q560 580 558 583Q550 591 500 597Q493 598 488 599L474 601L472 572Q470 557 467.0 537.5Q464 518 462.0 498.5Q460 479 460 449Q460 414 464.5 407.5Q469 401 488 401Q531 401 570.0 405.5Q609 410 632.5 414.0Q656 418 660 418Q677 418 680.5 418.5Q684 419 684 422Q684 430 675.5 453.0Q667 476 662 480Q656 485 656 491ZM680 345Q680 353 664 353Q655 353 632.0 346.5Q609 340 576 337Q532 333 520 331Q513 331 496.5 333.5Q480 336 474 336Q468 336 466 334Q462 330 462 247Q462 168 468 168Q469 168 489.5 171.0Q510 174 532.5 179.0Q555 184 558 187Q563 194 572.5 194.0Q582 194 614.5 226.0Q647 258 652 272Q658 288 661.5 288.0Q665 288 672.5 311.5Q680 335 680 345ZM336 333Q318 333 302.5 334.0Q287 335 275.5 336.0Q264 337 254.0 338.5Q244 340 237.5 341.5Q231 343 226.5 344.0Q222 345 220.0 346.0Q218 347 218 347Q214 347 214 341Q214 336 218.0 317.0Q222 298 235.0 271.0Q248 244 266 236Q284 228 315.5 200.5Q347 173 370 172L388 171V334L340 333Z" transform="translate(3770.00,958.33) scale(0.9583,-0.9583)" fill="#000000" />
  <path d="M 24.637998,12.488337 H 20.72216 q -1.48166,0 -2.54,-1.058333 -1.05833,-1.058333 -1.05833,-2.54 V 3.598338 q 0,-1.481667 1.05833,-2.54 Q 19.2405,4e-6 20.72216,4e-6 h 3.915838 V 0.846671 H 20.72216 q -1.13241,0 -1.94733,0.814917 -0.80433,0.804333 -0.80433,1.93675 v 5.291666 q 0,1.132417 0.80433,1.93675 0.81492,0.814917 1.94733,0.814917 h 3.915838 z" transform="translate(3341.31,0.00) scale(80.0747,80.0747)" fill="#000000" />
  <path d="M 75.014662,0.846671 V 4e-6 h 13.123333 v 0.846667 z m 0,11.641666 v -0.846666 h 13.123333 v 0.846666 z" transform="translate(-692.58,0.00) scale(80.0747,80.0747)" fill="#000000" />
  <path d="M 75.014662,0.846671 V 4e-6 h 13.123333 v 0.846667 z m 0,11.641666 v -0.846666 h 13.123333 v 0.846666 z" transform="translate(358.26,0.00) scale(80.0747,80.0747)" fill="#000000" />
  <path d="M 75.014662,0.846671 V 4e-6 h 13.123333 v 0.846667 z m 0,11.641666 v -0.846666 h 13.123333 v 0.846666 z" transform="translate(1409.11,0.00) scale(80.0747,80.0747)" fill="#000000" />
  <path d="M 75.014662,0.846671 V 4e-6 h 13.123333 v 0.846667 z m 0,11.641666 v -0.846666 h 13.123333 v 0.846666 z" transform="translate(2459.96,0.00) scale(80.0747,80.0747)" fill="#000000" />
  <path d="M 75.014662,0.846671 V 4e-6 h 13.123333 v 0.846667 z m 0,11.641666 v -0.846666 h 13.123333 v 0.846666 z" transform="translate(3510.81,0.00) scale(80.0747,80.0747)" fill="#000000" />
  <path d="M 75.014662,0.846671 V 4e-6 h 13.123333 v 0.846667 z m 0,11.641666 v -0.846666 h 13.123333 v 0.846666 z" transform="translate(4561.65,0.00) scale(80.0747,80.0747)" fill="#000000" />
  <path d="M 75.014662,0.846671 V 4e-6 h 13.123333 v 0.846667 z m 0,11.641666 v -0.846666 h 13.123333 v 0.846666 z" transform="translate(5612.50,0.00) scale(80.0747,80.0747)" fill="#000000" />
  <path d="M 75.014662,0.846671 V 4e-6 h 13.123333 v 0.846667 z m 0,11.641666 v -0.846666 h 13.123333 v 0.846666 z" transform="translate(6663.35,0.00) scale(80.0747,80.0747)" fill="#000000" />
  <path d="m 87.714667,4e-6 h 2.8575 q 1.481666,0 2.54,1.058334 1.058333,1.058333 1.058333,2.54 v 5.291666 q 0,1.481667 -1.058333,2.54 -1.058334,1.058333 -2.54,1.058333 h -2.8575 v -0.846666 h 2.8575 q 1.132416,0 1.93675,-0.814917 0.814916,-0.804333 0.814916,-1.93675 V 3.598338 q 0,-1.132417 -0.814916,-1.93675 -0.804334,-0.814917 -1.93675,-0.814917 h -2.8575 z" transform="translate(6697.25,0.00) scale(80.0747,80.0747)" fill="#000000" />
  <path d="M 167.69,173.56 C 167.69,139.89 176.01,108.32 176.01,78.65 C 176.01,78.46 176.01,78.28 176.01,78.09 L 176.01,64.00 L 226.00,64.00 L 226.00,77.91 C 226.00,78.17 226.00,78.43 226.00,78.69 C 226.00,112.94 217.70,144.27 217.70,174.06 C 217.70,178.19 218.00,183.90 218.00,184.00 C 218.00,193.28 215.90,198.47 215.90,278.42 C 215.90,278.79 215.91,299.95 215.91,300.16 C 215.91,328.70 215.75,357.52 214.22,386.55 C 220.37,405.01 226.06,425.40 232.03,446.70 C 264.20,561.55 299.11,675.01 397.30,675.01 C 397.97,675.01 398.98,675.00 399.00,675.00 C 399.97,675.00 404.07,675.18 410.59,675.18 C 493.67,675.18 555.18,645.78 602.18,598.78 C 658.62,542.33 699.30,453.39 718.43,340.40 C 697.57,367.99 663.31,397.09 611.58,397.09 C 610.07,397.09 608.55,397.06 607.03,397.01 C 604.86,397.09 602.71,397.13 600.57,397.13 C 460.98,397.13 392.08,234.55 392.00,110.01 L 442.00,109.99 C 442.05,203.91 491.67,347.15 600.32,347.15 C 602.89,347.15 606.93,347.00 607.00,347.00 C 607.05,347.00 610.33,347.11 611.94,347.11 C 626.29,347.11 675.65,347.11 709.79,247.57 C 719.07,220.51 725.38,191.35 729.73,165.25 C 729.36,154.62 726.96,116.70 726.96,116.21 C 726.96,99.31 731.08,93.15 735.83,88.39 C 739.62,84.61 746.76,80.86 754.59,80.86 C 765.35,80.86 784.24,87.05 784.24,130.50 C 784.24,140.98 782.32,153.19 779.87,168.58 C 780.14,177.81 780.28,187.16 780.28,196.60 C 780.28,285.43 766.39,505.28 637.54,634.13 C 581.67,690.00 506.18,725.17 410.25,725.17 C 406.44,725.17 402.61,725.11 398.74,725.00 C 398.30,725.00 397.86,725.00 397.42,725.00 C 291.51,725.00 245.14,631.91 225.72,587.05 C 197.45,521.75 182.85,449.05 165.36,398.15 C 164.46,395.51 164.00,392.76 164.00,390.00 C 164.00,381.16 165.92,375.99 165.92,299.10 C 165.92,298.74 165.91,277.53 165.91,277.32 C 165.91,246.60 166.08,215.44 167.96,183.96 C 167.78,180.45 167.69,176.98 167.69,173.56 Z" transform="translate(5439.62,100.00) scale(0.8000,0.8000)" fill="#000000" />
  <path d="M 223.73,118.89 C 223.73,219.81 358.16,259.90 422.73,342.64 C 422.73,342.64 383.31,373.40 383.27,373.36 C 325.30,299.08 173.75,250.23 173.75,118.52 C 173.75,116.12 173.80,113.69 173.91,111.24 C 173.53,108.37 173.28,105.26 173.28,101.99 C 173.28,73.47 193.91,57.00 210.18,55.16 C 335.25,41.04 335.25,41.04 336.34,41.01 C 473.68,37.62 609.98,33.19 748.53,31.01 L 749.47,80.99 C 611.42,83.17 475.59,87.57 338.75,90.96 L 223.40,103.98 C 223.56,105.80 224.00,107.13 224.00,110.00 C 224.00,110.09 223.73,115.58 223.73,118.89  Z M 437.75,579.91 L 472.27,616.08 L 384.25,700.09 C 381.93,702.31 381.93,702.31 307.14,743.86 L 282.85,700.14 L 352.07,661.69 L 437.75,579.91  Z M 609.00,155.00 C 622.81,155.00 634.00,166.19 634.00,180.00 L 634.00,184.00 L 588.00,184.00 L 609.00,205.00 L 600.32,205.00 C 564.02,214.91 428.69,259.50 428.69,373.49 C 428.69,392.21 432.00,402.69 432.00,408.00 C 432.00,410.90 430.81,418.65 430.81,432.71 C 430.81,532.88 493.70,640.11 597.56,657.42 C 705.14,675.35 705.14,675.35 705.14,675.35 C 705.14,675.35 696.92,724.66 696.86,724.65 C 588.46,706.58 588.46,706.58 588.05,706.50 C 462.74,681.35 380.80,559.13 380.80,433.14 C 380.80,425.13 381.13,417.10 381.80,409.10 C 379.78,397.21 378.82,385.67 378.82,374.50 C 378.82,319.38 402.25,273.33 437.08,238.50 C 478.69,196.89 535.39,170.39 590.60,155.83 C 592.69,155.28 594.85,155.00 597.00,155.00 L 609.00,155.00 Z" transform="translate(6490.47,100.00) scale(0.8000,0.8000)" fill="#000000" />
  <path d="M 490.97,116.68 C 507.51,116.68 518.00,128.65 518.00,142.00 L 518.00,146.00 L 503.91,146.00 C 514.22,161.14 518.21,183.94 520.65,198.12 C 522.37,201.36 524.11,206.03 524.11,211.66 C 524.11,225.12 513.64,239.32 492.85,239.32 C 481.98,239.32 460.08,230.11 449.92,211.61 C 444.91,207.48 433.75,196.28 433.75,178.71 C 433.75,177.16 433.87,172.75 435.07,168.76 C 435.02,166.24 434.80,162.75 434.80,160.51 C 434.80,134.81 452.06,124.93 467.71,124.93 C 468.08,124.93 468.44,124.94 468.79,124.95 C 473.94,120.83 481.70,116.68 490.97,116.68  Z M 245.19,504.85 C 245.19,459.77 249.85,413.17 249.85,367.96 C 249.85,345.20 248.58,325.85 244.93,312.74 C 244.31,310.54 244.00,308.27 244.00,306.00 L 244.00,190.00 L 294.00,190.00 L 294.00,302.73 C 298.79,321.70 300.29,343.15 300.29,365.89 C 300.29,405.89 295.27,458.13 295.27,505.25 C 295.27,583.07 310.87,609.09 334.21,614.73 C 362.30,611.83 391.34,611.18 420.49,611.18 C 421.23,611.18 492.77,611.63 494.51,611.63 C 574.16,611.63 605.06,605.05 606.18,605.02 L 790.19,599.02 L 791.82,648.98 L 609.36,654.93 C 572.87,660.56 534.76,661.66 496.90,661.66 C 472.39,661.66 447.05,661.19 421.87,661.19 C 360.88,661.19 333.89,665.00 333.00,665.00 C 329.22,665.00 303.16,661.94 282.04,640.81 C 256.99,615.77 245.19,575.70 245.19,504.85 Z" transform="translate(7541.31,100.00) scale(0.8000,0.8000)" fill="#000000" />
  <path d="M 427.60,902.87 C 389.78,902.87 353.14,925.73 345.61,968.37 C 345.61,968.37 296.38,959.68 296.39,959.63 C 307.82,894.86 363.43,852.88 427.55,852.88 C 429.20,852.88 430.85,852.91 432.51,852.97 C 434.36,852.84 436.19,852.78 437.99,852.78 C 480.36,852.78 501.45,883.93 516.73,906.51 C 531.67,928.57 539.40,938.05 553.12,938.05 C 564.33,938.05 570.54,933.00 579.00,933.00 C 582.08,933.00 583.38,933.56 587.73,933.56 C 603.39,933.56 618.75,925.01 637.89,909.68 L 684.62,859.05 L 721.38,892.95 C 672.14,946.30 672.14,946.30 670.72,947.44 C 649.72,964.45 622.72,983.58 588.06,983.58 C 586.01,983.58 583.93,983.51 581.83,983.38 C 571.83,986.40 562.14,987.94 552.89,987.94 C 511.48,987.94 490.96,957.64 475.30,934.51 C 458.85,910.21 451.66,902.71 439.15,902.71 C 436.30,902.71 435.16,903.00 433.00,903.00 C 432.95,903.00 429.39,902.87 427.60,902.87  Z M 465.44,167.91 C 432.23,167.91 400.97,147.23 400.97,111.94 C 400.97,109.21 401.17,106.45 401.59,103.66 C 401.20,100.67 401.02,97.69 401.02,94.72 C 401.02,66.23 417.87,33.05 448.66,29.30 C 448.67,29.14 448.68,29.06 448.68,29.06 L 450.07,29.15 C 450.61,29.11 451.16,29.07 451.71,29.04 C 465.05,30.75 477.97,30.17 484.28,32.08 C 512.10,40.52 536.45,65.06 536.45,94.79 C 536.45,96.81 536.34,98.86 536.10,100.96 C 536.14,101.94 536.16,102.92 536.16,103.91 C 536.16,137.97 511.76,167.28 479.03,167.28 C 477.99,167.28 476.94,167.25 475.88,167.19 C 472.42,167.67 468.93,167.91 465.44,167.91  Z M 455.48,79.62 C 454.05,81.72 451.13,87.02 451.13,95.21 C 451.13,99.17 452.00,99.64 452.00,104.00 C 452.00,108.84 450.64,111.66 450.64,112.96 C 450.64,113.25 455.41,117.85 465.72,117.85 C 470.10,117.85 470.84,117.00 475.00,117.00 C 476.95,117.00 479.69,117.39 479.73,117.39 C 482.11,117.39 486.14,109.21 486.14,103.14 C 486.14,102.13 486.00,101.63 486.00,100.00 C 486.00,97.04 486.47,95.74 486.47,94.64 C 486.47,89.74 478.69,83.61 471.86,80.71 L 455.48,79.62  Z M 208.00,154.00 L 258.00,154.00 L 258.00,661.62 L 711.63,673.01 C 711.63,673.01 710.38,722.99 710.37,722.99 C 232.37,710.99 232.37,710.99 232.37,710.99 C 218.81,710.65 208.00,699.57 208.00,686.00 L 208.00,154.00 Z" transform="translate(8592.16,100.00) scale(0.8000,0.8000)" fill="#000000" />
  <path d="M 522.00,558.00 C 522.00,558.14 521.73,566.22 521.73,572.30 C 521.73,584.12 522.48,594.41 525.00,603.00 L 477.02,617.06 C 472.64,602.14 471.66,587.63 471.66,574.12 C 471.66,568.77 471.81,563.59 471.97,558.60 C 471.09,547.25 470.72,536.08 470.72,525.05 C 470.72,464.30 482.14,406.66 482.14,348.98 C 482.14,342.62 482.00,338.85 482.00,338.00 C 482.00,336.47 482.27,333.61 482.27,327.81 C 482.27,232.28 405.65,104.59 308.07,100.98 C 287.06,100.20 287.06,100.20 286.79,100.20 C 199.98,100.20 129.26,141.64 97.83,286.69 C 74.28,395.40 79.55,527.94 71.91,622.04 L 22.09,617.99 L 22.09,617.96 C 29.63,525.03 24.03,391.17 48.98,276.04 C 66.30,196.08 112.34,50.25 287.76,50.25 C 317.75,50.25 377.94,50.25 441.13,113.44 C 497.05,169.35 532.28,252.44 532.28,327.17 C 532.28,330.91 532.19,334.63 532.01,338.33 C 532.10,341.97 532.14,345.60 532.14,349.21 C 532.14,410.00 520.73,467.35 520.73,525.49 C 520.73,542.54 522.00,557.67 522.00,558.00  Z M 503.68,361.35 C 513.06,336.93 546.33,255.47 629.36,255.47 C 636.20,255.47 643.24,256.04 650.48,257.24 C 753.85,268.91 788.18,355.43 802.57,401.96 C 828.62,486.23 830.28,589.08 848.98,652.94 C 849.66,655.24 850.00,657.62 850.00,660.00 L 850.00,708.00 L 800.00,708.00 L 800.00,663.53 C 773.06,567.33 779.47,405.33 712.11,337.97 C 695.42,321.28 674.43,310.14 644.27,306.85 C 630.12,305.30 630.12,305.30 628.03,305.30 C 609.34,305.30 595.54,312.49 582.92,325.11 C 560.64,347.39 543.89,390.03 533.87,437.20 C 521.40,495.81 518.69,558.66 517.28,592.44 C 516.12,620.45 515.90,625.72 508.15,633.47 C 505.02,636.59 498.32,640.84 490.10,640.84 C 487.33,640.84 467.92,639.96 464.28,615.73 C 462.26,602.27 461.58,587.67 461.58,572.31 C 461.58,555.15 462.43,537.03 463.22,518.46 C 464.06,498.61 464.87,478.30 464.87,458.73 C 464.87,367.02 445.25,331.52 402.27,324.87 C 397.57,324.56 393.02,324.40 388.63,324.40 C 352.32,324.40 276.29,332.40 250.66,463.04 C 244.69,493.49 242.38,526.44 242.38,558.52 C 242.38,583.23 243.75,607.44 245.88,629.63 L 196.12,634.41 C 193.85,610.78 192.32,584.90 192.32,558.14 C 192.32,473.76 207.33,379.47 263.75,323.05 C 294.19,292.61 336.34,274.45 389.51,274.45 C 428.86,274.45 481.87,289.08 503.68,361.35 Z" transform="translate(9643.01,100.00) scale(0.8000,0.8000)" fill="#000000" />
  <path d="M 167.69,173.56 C 167.69,139.89 176.01,108.32 176.01,78.65 C 176.01,78.46 176.01,78.28 176.01,78.09 L 176.01,64.00 L 226.00,64.00 L 226.00,77.91 C 226.00,78.17 226.00,78.43 226.00,78.69 C 226.00,112.94 217.70,144.27 217.70,174.06 C 217.70,178.19 218.00,183.90 218.00,184.00 C 218.00,193.28 215.90,198.47 215.90,278.42 C 215.90,278.79 215.91,299.95 215.91,300.16 C 215.91,328.70 215.75,357.52 214.22,386.55 C 220.37,405.01 226.06,425.40 232.03,446.70 C 264.20,561.55 299.11,675.01 397.30,675.01 C 397.97,675.01 398.98,675.00 399.00,675.00 C 399.97,675.00 404.07,675.18 410.59,675.18 C 493.67,675.18 555.18,645.78 602.18,598.78 C 658.62,542.33 699.30,453.39 718.43,340.40 C 697.57,367.99 663.31,397.09 611.58,397.09 C 610.07,397.09 608.55,397.06 607.03,397.01 C 604.86,397.09 602.71,397.13 600.57,397.13 C 460.98,397.13 392.08,234.55 392.00,110.01 L 442.00,109.99 C 442.05,203.91 491.67,347.15 600.32,347.15 C 602.89,347.15 606.93,347.00 607.00,347.00 C 607.05,347.00 610.33,347.11 611.94,347.11 C 626.29,347.11 675.65,347.11 709.79,247.57 C 719.07,220.51 725.38,191.35 729.73,165.25 C 729.36,154.62 726.96,116.70 726.96,116.21 C 726.96,99.31 731.08,93.15 735.83,88.39 C 739.62,84.61 746.76,80.86 754.59,80.86 C 765.35,80.86 784.24,87.05 784.24,130.50 C 784.24,140.98 782.32,153.19 779.87,168.58 C 780.14,177.81 780.28,187.16 780.28,196.60 C 780.28,285.43 766.39,505.28 637.54,634.13 C 581.67,690.00 506.18,725.17 410.25,725.17 C 406.44,725.17 402.61,725.11 398.74,725.00 C 398.30,725.00 397.86,725.00 397.42,725.00 C 291.51,725.00 245.14,631.91 225.72,587.05 C 197.45,521.75 182.85,449.05 165.36,398.15 C 164.46,395.51 164.00,392.76 164.00,390.00 C 164.00,381.16 165.92,375.99 165.92,299.10 C 165.92,298.74 165.91,277.53 165.91,277.32 C 165.91,246.60 166.08,215.44 167.96,183.96 C 167.78,180.45 167.69,176.98 167.69,173.56 Z" transform="translate(10693.85,100.00) scale(0.8000,0.8000)" fill="#000000" />
  <path d="M 49.97,136.08 C 58.81,161.41 86.65,169.58 138.41,169.58 C 142.31,169.58 198.53,168.32 199.14,168.32 C 215.53,168.32 225.95,169.55 226.22,169.55 C 235.88,169.55 244.22,167.81 253.07,167.81 C 288.01,167.81 293.31,192.77 293.31,203.56 C 293.31,220.27 275.97,257.20 275.97,323.38 C 275.97,325.65 276.00,327.95 276.00,328.00 C 276.00,330.84 275.45,332.60 275.45,337.96 C 275.45,377.33 309.08,420.19 350.77,420.19 C 358.26,420.19 360.81,419.00 365.00,419.00 C 366.94,419.00 369.56,419.36 374.79,419.36 C 441.92,419.36 457.80,345.40 472.06,259.00 C 473.38,251.05 474.66,243.26 476.00,235.75 L 476.00,214.00 C 476.00,200.19 487.19,189.00 501.00,189.00 C 513.59,189.00 524.13,198.32 525.78,210.68 C 527.27,221.90 528.35,233.80 529.46,246.02 C 536.41,322.00 545.09,378.87 595.15,382.78 C 648.66,361.39 661.85,284.26 672.84,216.29 C 679.29,176.36 679.41,176.23 685.32,170.32 C 690.20,165.44 696.60,163.00 703.00,163.00 C 713.96,163.00 723.39,170.08 726.72,180.09 C 752.95,259.03 756.10,340.89 756.10,420.52 C 756.10,420.90 755.76,499.79 755.76,500.59 C 755.76,510.96 755.81,521.27 755.96,531.51 C 758.12,543.52 759.17,554.99 759.17,565.89 C 759.17,711.51 583.43,716.30 477.52,716.30 C 458.76,716.30 439.93,716.08 422.42,716.08 C 407.10,716.08 393.18,716.25 381.41,716.90 C 370.65,718.34 360.19,718.93 349.97,718.93 C 306.09,718.93 265.29,707.95 222.44,706.99 C 222.44,706.99 223.56,657.01 223.56,657.01 C 270.26,658.06 310.38,668.89 350.49,668.89 C 375.27,668.89 363.10,666.08 421.48,666.08 C 437.73,666.08 455.07,666.29 474.09,666.29 C 539.64,666.29 645.58,664.86 688.40,622.03 C 700.96,609.48 709.41,592.98 709.41,567.41 C 709.41,550.68 706.09,539.35 706.01,534.40 C 705.83,523.12 705.77,511.84 705.77,500.57 C 705.77,500.34 706.08,425.99 706.08,425.24 C 706.08,388.79 705.45,352.80 702.52,317.63 C 691.90,351.94 668.62,410.90 607.02,431.68 C 604.42,432.56 601.71,433.00 599.00,433.00 C 576.59,433.00 526.25,425.48 500.62,362.02 C 491.92,388.51 464.01,469.31 373.85,469.31 C 371.31,469.31 368.75,469.25 366.14,469.11 C 360.95,469.84 355.82,470.18 350.77,470.18 C 282.09,470.18 225.42,405.83 225.42,338.50 C 225.42,334.62 225.61,330.73 225.99,326.82 C 225.98,325.67 225.98,324.51 225.98,323.35 C 225.98,287.83 230.71,252.65 239.21,219.03 C 235.68,219.39 231.75,219.73 227.44,219.73 C 217.37,219.73 220.12,218.35 199.36,218.35 C 180.03,218.35 158.29,219.66 137.37,219.66 C 97.76,219.66 20.97,216.78 0.97,146.91 C 0.03,143.62 -0.04,140.92 -0.04,137.68 C -0.04,93.89 33.51,60.15 85.12,51.29 C 212.94,29.35 212.58,27.01 214.90,27.01 L 722.90,25.01 L 723.10,74.99 L 217.42,76.99 C 118.62,95.81 93.22,100.67 91.96,100.82 C 86.11,101.51 51.03,106.87 49.97,136.08 Z" transform="translate(11744.70,100.00) scale(0.8000,0.8000)" fill="#000000" />
  <path d="M 263.20,147.66 C 263.20,211.90 311.50,261.37 366.33,278.10 C 366.33,278.10 351.73,325.92 351.67,325.90 C 274.13,302.24 213.22,232.48 213.22,147.57 C 213.22,141.74 213.46,129.20 215.45,123.60 C 238.60,58.47 315.71,43.96 377.90,32.25 C 392.95,29.42 407.02,26.75 418.85,23.77 C 420.82,23.27 422.83,23.02 424.85,23.01 L 752.85,21.01 L 753.15,70.99 L 428.14,72.98 C 393.59,81.37 348.87,86.55 314.49,98.75 C 277.38,111.93 267.59,128.15 263.58,137.72 C 263.33,141.07 263.20,144.38 263.20,147.66  Z M 542.52,135.87 C 542.94,135.87 584.45,134.64 584.74,134.64 C 605.27,134.64 628.28,137.16 652.57,149.83 C 654.87,151.03 666.00,157.59 666.00,172.00 L 666.00,178.00 L 619.64,178.00 L 629.43,194.17 C 614.66,186.46 601.63,184.61 585.72,184.61 C 585.29,184.61 545.13,185.88 542.64,185.88 C 536.98,185.88 531.05,185.71 524.87,185.25 C 467.43,199.78 394.55,260.59 393.93,325.38 C 414.96,379.12 488.04,408.98 537.68,458.62 C 564.56,485.50 586.02,520.64 586.02,567.44 C 586.02,579.35 578.60,613.12 553.16,638.56 C 511.82,679.90 445.48,682.62 385.37,685.08 C 365.18,685.90 346.18,686.73 330.22,688.79 C 329.11,688.93 325.42,689.23 320.82,689.23 C 293.47,689.23 268.84,678.85 249.93,671.60 C 247.93,670.83 245.98,670.08 244.11,669.37 C 244.11,669.37 261.84,622.61 261.89,622.63 C 284.84,631.33 305.59,639.20 321.90,639.20 C 322.51,639.20 336.22,637.06 383.31,635.13 C 465.86,631.75 523.68,626.30 536.03,567.38 C 536.03,567.34 536.03,567.29 536.03,567.24 C 536.03,516.08 500.02,487.99 447.25,449.83 C 406.13,420.09 362.68,388.66 345.36,338.13 C 344.12,334.52 343.93,331.80 343.93,325.97 C 343.93,232.87 438.85,152.93 517.60,135.59 C 519.37,135.20 521.19,135.00 523.00,135.00 C 523.20,135.00 533.14,135.87 542.52,135.87 Z" transform="translate(12795.55,100.00) scale(0.8000,0.8000)" fill="#000000" />
</svg>
