<?xml version="1.0" encoding="UTF-8" standalone="no"?>
<!--
Representation of "palisa suno" in sitelen ilo pona
Generated by generate_sitelen_kalama_pona.py

Description:
  Representation of "palisa suno" in sitelen ilo pona.
  Sources: palisa: https://commons.wikimedia.org/wiki/File:Sitelen_seli_kiwen_-_palisa.svg; suno: https://commons.wikimedia.org/wiki/File:Sitelen_seli_kiwen_-_suno.svg

Categories:
  [[Category:Sitelen kalama pona]]
  [[Category:Toki Pona text containing palisa suno]]

Sources:
  palisa: https://commons.wikimedia.org/wiki/File:Sitelen_seli_kiwen_-_palisa.svg
  suno: https://commons.wikimedia.org/wiki/File:Sitelen_seli_kiwen_-_suno.svg
-->
<svg version="1.1" width="1805" height="1000"
     viewBox="0 0 1805 1000"
     xmlns="http://www.w3.org/2000/svg">
  <path d="M354 109Q354 119 349.0 125.5Q344 132 344 137Q344 148 343 149Q342 149 340 146Q335 139 334 151Q334 157 334 167Q334 176 325.0 200.5Q316 225 316 236Q316 264 311.0 293.5Q306 323 306 371Q306 414 302.0 433.5Q298 453 298 466Q298 480 295.0 499.5Q292 519 292 523Q292 526 294 532Q296 537 298.0 559.5Q300 582 302.0 612.5Q304 643 308 660Q312 683 312 700Q312 717 322 726Q334 738 328 738Q326 738 334.5 746.5Q343 755 354.0 764.5Q365 774 368 776Q375 778 406 778Q466 778 474 769Q478 761 484 761Q488 761 493.0 754.0Q498 747 504 747Q512 747 532.5 723.5Q553 700 554 690Q554 688 561.0 677.5Q568 667 568 660Q569 658 577.0 622.0Q585 586 586 552Q593 409 604 402Q606 400 605.0 396.0Q604 392 602.0 386.5Q600 381 602 373Q608 358 608 282Q608 146 598 136Q594 131 594 120Q594 97 566.0 72.0Q538 47 484 47Q483 47 447.0 54.0Q411 61 410 62Q409 64 397.0 69.5Q385 75 376 84Q364 95 359.0 95.0Q354 95 354 109ZM540 188Q540 215 545.0 231.5Q550 248 550 260Q550 262 548.5 295.5Q547 329 544.0 365.5Q541 402 540 405Q534 414 530 500Q527 589 511.5 628.5Q496 668 446 714Q432 726 414 726Q394 726 382 712Q378 707 371.5 688.0Q365 669 358.5 630.5Q352 592 352 550Q352 536 353.5 536.0Q355 536 358.0 503.0Q361 470 364.5 412.5Q368 355 370 299Q371 255 376.0 237.0Q381 219 406 164Q411 152 416.5 145.0Q422 138 442.5 129.0Q463 120 494 120Q528 120 528 133Q528 142 532 142Q535 142 539.0 152.0Q543 162 542 168Q540 173 540 188Z" transform="translate(0.00,958.33) scale(0.9583,-0.9583)" fill="#000000" />
  <path d="M493 37Q493 33 492.0 27.5Q491 22 483.0 12.5Q475 3 461 3Q445 3 431.5 15.0Q418 27 418 39Q418 46 425.0 61.0Q432 76 432 90Q432 94 430 120Q426 160 421.5 169.0Q417 178 400 181Q376 185 335.5 207.0Q295 229 268 253Q256 263 243.0 287.0Q230 311 230 322Q230 330 212 328Q128 317 109 317Q96 317 76.5 323.5Q57 330 51 330Q47 330 41.0 339.5Q35 349 35 360Q35 369 39.0 376.0Q43 383 47.5 386.5Q52 390 54 389Q58 387 71.0 389.5Q84 392 91 392Q100 392 113.5 389.5Q127 387 138 387Q145 387 173 391Q206 396 215.0 401.0Q224 406 230 420Q238 441 248.5 461.5Q259 482 267.5 495.5Q276 509 283.5 519.5Q291 530 296 536L300 541Q300 546 341.0 564.5Q382 583 394 583Q407 583 410.0 586.0Q413 589 415 607Q418 626 418 644Q418 655 417.0 666.5Q416 678 415.0 686.5Q414 695 413.0 701.5Q412 708 411 712L410 716Q410 719 411.0 724.0Q412 729 421.0 737.5Q430 746 446 746Q458 746 470.0 731.0Q482 716 482 703Q482 701 481.0 698.5Q480 696 479.5 693.0Q479 690 478.0 678.0Q477 666 477.0 647.0Q477 628 478.0 615.0Q479 602 480.5 592.0Q482 582 482 577Q482 570 503 567Q532 563 553.0 555.0Q574 547 581.5 540.0Q589 533 595.0 527.5Q601 522 604 522Q608 522 623.0 507.5Q638 493 638 490Q638 488 644.0 480.0Q650 472 660.0 454.0Q670 436 677 413Q680 405 690.0 406.5Q700 408 707 404Q712 399 742 399Q746 399 781.5 400.0Q817 401 822 401Q844 401 850 392Q854 385 859.5 368.0Q865 351 865 343Q865 338 835 336Q817 335 789.0 332.0Q761 329 747.0 329.0Q733 329 716.5 331.5Q700 334 691 334Q680 334 668.5 326.0Q657 318 655 310Q654 304 637.5 284.0Q621 264 616 254Q612 245 602.0 238.5Q592 232 584.5 228.5Q577 225 577 222Q577 217 569 217Q564 217 560.5 215.0Q557 213 547.0 206.0Q537 199 522 192Q501 182 497.0 170.0Q493 158 490 100Q490 95 489.5 86.5Q489 78 489 74Q489 60 490.0 52.5Q491 45 492.0 42.0Q493 39 493 37ZM600 356Q600 364 603.5 368.0Q607 372 607 379Q607 383 606.0 392.0Q605 401 599.0 419.5Q593 438 582.5 453.0Q572 468 551.0 480.0Q530 492 502 493Q462 494 434.0 503.0Q406 512 394 512Q367 512 336.0 489.5Q305 467 305 456Q305 449 291 421L277 391L289 354Q300 317 317.0 299.5Q334 282 377 264Q389 260 406 251Q422 243 449 243Q487 243 501 254Q530 274 534 277Q555 289 570.5 303.5Q586 318 586 325Q586 330 593.0 338.5Q600 347 600 356Z" transform="translate(942.50,958.33) scale(0.9583,-0.9583)" fill="#000000" />
</svg>
