<?xml version="1.0" encoding="UTF-8" standalone="no"?>
<!--
Representation of "jan utala" in sitelen ilo pona
Generated by generate_sitelen_kalama_pona.py

Description:
  Representation of "jan utala" in sitelen ilo pona.
  Sources: jan-utala: https://commons.wikimedia.org/wiki/File:Sitelen_seli_kiwen_-_jan-utala.svg

Categories:
  [[Category:Sitelen kalama pona]]
  [[Category:Toki Pona text containing jan utala]]

Sources:
  jan-utala: https://commons.wikimedia.org/wiki/File:Sitelen_seli_kiwen_-_jan-utala.svg
-->
<svg version="1.1" width="862" height="1000"
     viewBox="0 0 862 1000"
     xmlns="http://www.w3.org/2000/svg">
  <path d="M420 504Q420 512 397.0 546.5Q374 581 374 596Q374 608 387.5 618.5Q401 629 416.0 629.0Q431 629 440 617Q446 608 451.0 592.5Q456 577 459.5 566.5Q463 556 468 556Q472 556 477 562Q482 567 493.0 587.0Q504 607 515.0 620.5Q526 634 536 634Q545 634 554.5 624.0Q564 614 564 600Q564 591 537.5 550.5Q511 510 511 497Q511 488 523.5 477.5Q536 467 542.0 467.0Q548 467 564.0 475.5Q580 484 588 484Q600 484 609.5 475.0Q619 466 619 453Q619 441 609.5 425.5Q600 410 591 407Q586 406 570.5 384.5Q555 363 529 358Q519 356 515.5 358.5Q512 361 504 375Q493 395 493 405Q493 414 488.0 414.0Q483 414 483 423Q483 430 477.0 434.5Q471 439 464 439Q455 439 455 432Q455 428 433.0 396.5Q411 365 404.0 359.0Q397 353 388 353Q369 353 339.0 381.5Q309 410 309 428Q309 441 322.5 453.0Q336 465 346 465Q355 465 365.0 455.0Q375 445 380 445Q384 445 389 448Q395 452 396.5 456.5Q398 461 396.5 463.0Q395 465 399 466Q405 466 412.5 480.0Q420 494 420 504ZM230 620Q230 622 246.5 642.0Q263 662 288.5 683.0Q314 704 333 704Q345 704 355.5 710.0Q366 716 367 724Q369 735 388.5 737.5Q408 740 414 744Q420 749 492 749Q596 749 645 728Q694 705 694 702Q694 697 708.0 688.0Q722 679 722 676Q722 672 734.0 656.0Q746 640 746 634Q746 625 753 620Q776 601 776 525Q776 478 773.0 460.0Q770 442 759 415Q746 383 707 344L670 308L679 292Q684 282 695.0 266.0Q706 250 713.0 238.5Q720 227 720 225Q720 222 733.0 205.0Q746 188 746 187Q746 183 761.0 162.0Q776 141 786 130Q805 110 810.0 101.5Q815 93 815 77Q815 47 781 47Q766 47 747.5 73.0Q729 99 715.5 125.5Q702 152 699 152Q694 152 694 158Q694 162 689.5 167.0Q685 172 674.5 183.5Q664 195 654 210Q641 229 620 254L601 275L580 265Q560 255 553 255Q551 255 543.5 250.5Q536 246 518.0 242.0Q500 238 470 238Q456 238 439.5 240.0Q423 242 409.0 244.0Q395 246 383.0 248.5Q371 251 364 253L357 255Q348 255 330 269L311 282L305 271Q302 266 298.0 262.0Q294 258 290.5 256.5Q287 255 284.5 253.5Q282 252 282 250Q282 247 268 238Q258 231 244.0 213.5Q230 196 230 189Q230 186 221.0 179.5Q212 173 212 168Q212 166 194.0 142.0Q176 118 152.5 93.5Q129 69 116 69Q106 69 95.5 79.5Q85 90 85 109Q85 129 97.5 138.5Q110 148 111 152Q115 161 118 161Q126 161 164.0 207.5Q202 254 202 264Q202 266 224.5 290.0Q247 314 247 327Q247 335 239.0 346.0Q231 357 231 362Q231 363 232 365Q234 372 230 372Q227 372 225.0 376.5Q223 381 219.0 389.0Q215 397 211 403Q199 420 199 449Q199 457 201.5 462.5Q204 468 205.0 468.0Q206 468 203 472Q200 474 200 484Q200 485 200.0 490.0Q200 495 200 498Q200 509 198 516Q197 520 197 524Q197 531 204.5 546.0Q212 561 212 573Q212 585 221.0 600.5Q230 616 230 620ZM690 596Q690 603 671.0 620.5Q652 638 652 644Q652 654 635 661Q594 677 582 679Q574 680 539.0 685.0Q504 690 488 690Q457 690 419.0 679.5Q381 669 366 655Q358 648 341.0 640.0Q324 632 301 616Q280 601 273.0 593.0Q266 585 259 564Q249 537 249 500Q249 488 251.0 480.5Q253 473 254.5 470.5Q256 468 256 467Q256 465 253 462Q250 460 250.0 457.5Q250 455 252.0 454.0Q254 453 256.0 449.0Q258 445 258 438Q258 428 274.5 398.5Q291 369 291 367Q291 362 296.0 362.0Q301 362 301.0 356.0Q301 350 321 335Q339 323 381.5 315.0Q424 307 465.0 307.0Q506 307 525.5 316.0Q545 325 546 325Q555 325 589.0 342.5Q623 360 636 371Q651 384 660 388Q666 390 675.5 406.5Q685 423 690 427Q717 447 717 530Q717 551 703.5 569.5Q690 588 690 596Z" transform="translate(0.00,958.33) scale(0.9583,-0.9583)" fill="#000000" />
</svg>
