<?xml version="1.0" encoding="UTF-8" standalone="no"?>
<!--
Representation of "ilo musi Enije" in sitelen kalama pona
Generated by generate_sitelen_kalama_pona.py

Description:
  Representation of "ilo musi Enije" in sitelen kalama pona.
  Sources: ilo-musi: https://commons.wikimedia.org/wiki/File:Sitelen_seli_kiwen_-_ilo-musi.svg; e: https://commons.wikimedia.org/wiki/File:Sitelen_kalama_pona_-_xe.svg; ni: https://commons.wikimedia.org/wiki/File:Sitelen_kalama_pona_-_ni.svg; je: https://commons.wikimedia.org/wiki/File:Sitelen_kalama_pona_-_je.svg

Categories:
  [[Category:Toki Pona text containing ilo musi]]
  [[Category:Toki Pona text containing sound symbol E]]
  [[Category:Toki Pona text containing sound symbol Ni]]
  [[Category:Toki Pona text containing sound symbol Je]]

Sources:
  ilo-musi: https://commons.wikimedia.org/wiki/File:Sitelen_seli_kiwen_-_ilo-musi.svg
  e: https://commons.wikimedia.org/wiki/File:Sitelen_kalama_pona_-_xe.svg
  ni: https://commons.wikimedia.org/wiki/File:Sitelen_kalama_pona_-_ni.svg
  je: https://commons.wikimedia.org/wiki/File:Sitelen_kalama_pona_-_je.svg
-->
<svg version="1.1" width="5214" height="1000"
     viewBox="0 0 5214 1000"
     xmlns="http://www.w3.org/2000/svg">
  <path d="M480 53Q463 53 450.5 66.0Q438 79 438 92Q438 98 443.0 102.5Q448 107 445 113Q443 118 438 138Q437 148 434.5 151.0Q432 154 426 153Q423 152 384.5 151.5Q346 151 339 148Q337 147 330 147Q272 147 231 158Q215 163 209.0 183.5Q203 204 203 263V272Q203 342 200 346Q196 352 191 367Q190 373 190 378Q190 396 210.0 406.5Q230 417 240 417Q249 417 274.0 412.0Q299 407 348 407Q413 407 419 412Q421 413 423.0 413.0Q425 413 430.0 411.0Q435 409 445.0 406.5Q455 404 469 403Q486 402 499.0 399.5Q512 397 515 397Q520 397 526 399Q534 402 577 402Q637 402 661.0 397.5Q685 393 692.0 383.5Q699 374 699 348Q701 299 705.5 276.5Q710 254 710 227Q710 209 710.0 202.0Q710 195 707.5 183.5Q705 172 700.0 168.0Q695 164 685.5 158.5Q676 153 660.5 151.5Q645 150 623 150Q605 150 590.5 155.0Q576 160 567 160Q557 160 533.0 154.5Q509 149 509 141Q509 140 514.0 129.0Q519 118 519 103Q519 93 517.5 83.5Q516 74 506.5 63.5Q497 53 480 53ZM352 347Q288 347 272 351L258 354L259 324Q260 309 260 270V260Q260 244 262.0 238.0Q264 232 270 227Q290 212 330 212Q335 212 385.5 217.0Q436 222 438 225Q440 226 440 230Q440 235 437.5 246.0Q435 257 430.5 276.5Q426 296 423 313L417 346ZM579 344Q579 344 573.5 344.0Q568 344 559.5 344.5Q551 345 541.0 345.0Q531 345 521.0 345.5Q511 346 503 346Q489 346 488 345Q485 342 485 327Q485 301 491 262L497 224L560 225Q616 225 629.5 229.0Q643 233 643 253Q643 271 640.5 283.5Q638 296 635.0 302.0Q632 308 632 310Q632 322 627 330Q622 339 615.0 341.0Q608 343 579 344ZM382 545Q389 545 400.5 539.5Q412 534 443 534Q474 534 489 543L504 553L486 565Q472 574 457.5 599.0Q443 624 443 639Q443 658 467.0 688.5Q491 719 505 719Q513 719 513 723Q513 728 542 728Q582 728 588 722Q594 715 609.5 708.5Q625 702 634.5 691.5Q644 681 644 659Q644 657 644.0 652.0Q644 647 641.5 635.5Q639 624 634.5 614.0Q630 604 621.5 594.0Q613 584 600 580Q591 577 587.0 570.5Q583 564 582.5 559.5Q582 555 579 555Q571 554 571 527Q571 524 559.0 514.0Q547 504 537 499Q525 494 504 482Q489 473 445 473Q389 473 371.0 476.0Q353 479 343 488Q334 496 323 500Q307 505 299.5 515.5Q292 526 291.5 537.5Q291 549 286.0 565.0Q281 581 270 594Q258 608 248.5 624.0Q239 640 239 647L244 673Q245 683 245 696Q246 713 266.5 729.0Q287 745 306 745Q311 745 314 744Q329 741 336 740Q338 740 345.5 738.0Q353 736 366.0 730.5Q379 725 390.5 716.5Q402 708 410.5 693.0Q419 678 419 660Q419 643 409.5 626.0Q400 609 388.0 599.0Q376 589 366.0 579.0Q356 569 356 564Q356 559 364.5 552.0Q373 545 382 545ZM348 658Q348 680 327 680Q317 680 313 672Q311 663 307 657Q302 648 308 639Q314 631 318.0 630.5Q322 630 333 635Q348 641 348 658ZM579 650Q579 655 565.5 661.0Q552 667 544.5 667.0Q537 667 524 656Q516 649 515.5 645.5Q515 642 518 635Q524 625 537.5 625.0Q551 625 565.0 633.5Q579 642 579 650Z" transform="translate(0.00,958.33) scale(0.9583,-0.9583)" fill="#000000" />
  <path d="M 24.637998,12.488337 H 20.72216 q -1.48166,0 -2.54,-1.058333 -1.05833,-1.058333 -1.05833,-2.54 V 3.598338 q 0,-1.481667 1.05833,-2.54 Q 19.2405,4e-6 20.72216,4e-6 h 3.915838 V 0.846671 H 20.72216 q -1.13241,0 -1.94733,0.814917 -0.80433,0.804333 -0.80433,1.93675 v 5.291666 q 0,1.132417 0.80433,1.93675 0.81492,0.814917 1.94733,0.814917 h 3.915838 z" transform="translate(-428.69,0.00) scale(80.0747,80.0747)" fill="#000000" />
  <path d="M 75.014662,0.846671 V 4e-6 h 13.123333 v 0.846667 z m 0,11.641666 v -0.846666 h 13.123333 v 0.846666 z" transform="translate(-4462.58,0.00) scale(80.0747,80.0747)" fill="#000000" />
  <path d="M 75.014662,0.846671 V 4e-6 h 13.123333 v 0.846667 z m 0,11.641666 v -0.846666 h 13.123333 v 0.846666 z" transform="translate(-3411.74,0.00) scale(80.0747,80.0747)" fill="#000000" />
  <path d="M 75.014662,0.846671 V 4e-6 h 13.123333 v 0.846667 z m 0,11.641666 v -0.846666 h 13.123333 v 0.846666 z" transform="translate(-2360.89,0.00) scale(80.0747,80.0747)" fill="#000000" />
  <path d="m 87.714667,4e-6 h 2.8575 q 1.481666,0 2.54,1.058334 1.058333,1.058333 1.058333,2.54 v 5.291666 q 0,1.481667 -1.058333,2.54 -1.058334,1.058333 -2.54,1.058333 h -2.8575 v -0.846666 h 2.8575 q 1.132416,0 1.93675,-0.814917 0.814916,-0.804333 0.814916,-1.93675 V 3.598338 q 0,-1.132417 -0.814916,-1.93675 -0.804334,-0.814917 -1.93675,-0.814917 h -2.8575 z" transform="translate(-2326.99,0.00) scale(80.0747,80.0747)" fill="#000000" />
  <path d="M 312.05,735.45 C 394.84,735.45 484.55,719.15 572.98,719.15 C 589.31,719.15 605.66,719.70 622.01,721.00 L 623.20,721.00 C 576.40,642.58 526.57,564.31 474.64,486.78 C 444.44,551.54 400.48,608.47 358.62,663.16 C 339.95,687.54 321.63,711.50 304.90,735.40 C 307.28,735.43 309.66,735.45 312.05,735.45  Z M 739.76,83.70 C 730.46,83.67 709.10,91.78 690.85,91.78 C 683.12,91.78 672.75,90.37 663.58,83.64 C 661.10,83.43 658.46,83.33 655.69,83.33 C 621.21,83.33 564.31,99.00 545.00,99.00 C 543.85,99.00 527.25,98.70 511.53,98.70 C 477.64,98.70 451.60,98.70 401.87,108.52 C 358.79,117.03 315.06,118.01 276.61,123.99 C 424.60,319.18 567.32,525.74 688.60,733.40 C 690.86,737.28 692.00,741.64 692.00,746.00 C 692.00,759.81 680.81,771.00 667.00,771.00 L 621.00,771.00 C 618.01,771.00 602.36,769.17 573.58,769.17 C 487.28,769.17 397.97,785.45 312.50,785.45 C 304.61,785.45 296.73,785.31 288.88,785.01 C 288.82,785.01 288.76,785.01 288.70,785.01 C 286.84,785.07 284.60,785.17 282.04,785.17 C 261.02,785.17 253.42,778.71 248.90,774.19 C 242.73,768.02 239.91,759.18 239.91,751.19 C 239.91,744.50 241.81,739.86 243.92,736.54 C 307.31,637.40 400.41,545.42 441.22,437.41 C 368.07,330.47 291.24,225.20 213.13,123.18 C 209.71,118.71 208.00,113.36 208.00,108.00 C 208.00,107.19 208.20,89.35 225.78,84.07 C 280.29,67.68 336.88,70.35 391.87,59.53 C 432.78,50.54 470.46,48.70 510.99,48.70 C 521.76,48.70 532.73,48.83 544.02,48.99 C 574.88,45.99 616.18,33.06 653.36,33.06 C 662.23,33.06 671.10,33.76 679.84,35.48 C 684.29,36.35 688.54,38.43 692.06,41.73 C 703.48,41.11 721.01,33.68 739.18,33.68 C 744.43,33.68 761.06,34.05 772.54,48.41 L 733.49,79.63 C 735.06,81.51 737.70,82.31 739.76,83.70 Z" transform="translate(1669.62,100.00) scale(0.8000,0.8000)" fill="#000000" />
  <path d="M 474.34,104.34 C 474.49,104.33 475.05,104.30 475.85,104.30 C 478.10,104.30 480.15,104.54 482.03,104.91 C 483.35,104.83 485.02,104.73 487.04,104.73 C 521.74,104.73 522.55,132.59 522.55,135.21 C 522.55,137.88 522.21,140.31 521.70,142.49 C 521.83,147.38 522.26,149.86 522.26,154.03 C 522.26,180.65 504.37,190.15 489.71,190.15 C 486.01,190.15 482.51,189.63 479.50,188.93 C 476.61,188.98 473.81,189.13 470.84,189.13 C 449.83,189.13 441.65,182.14 437.34,177.83 C 430.73,171.23 427.88,161.97 427.88,153.61 C 427.88,153.45 427.88,153.30 427.88,153.14 C 427.57,150.66 427.42,148.21 427.42,145.78 C 427.42,121.84 442.42,88.73 472.05,85.18 L 474.34,104.34  Z M 323.00,494.91 C 323.00,568.75 342.00,664.06 342.00,678.00 L 342.00,710.00 L 292.00,710.00 L 292.00,679.66 C 290.37,667.36 288.62,655.00 286.85,642.57 C 280.06,594.88 272.99,546.02 272.99,495.42 C 272.99,485.73 273.25,475.97 273.82,466.14 C 271.03,453.63 269.72,441.43 269.72,429.62 C 269.72,324.96 371.67,252.82 474.34,252.82 C 484.93,252.82 495.49,253.59 505.92,255.16 C 713.64,272.30 723.43,515.14 723.43,625.09 C 723.43,651.13 722.00,707.55 721.99,708.38 L 672.01,707.62 C 672.02,706.80 673.39,652.31 673.39,626.34 C 673.39,450.27 636.84,315.63 501.02,304.92 C 500.39,304.87 499.76,304.79 499.13,304.70 C 491.31,303.48 483.31,302.89 475.25,302.89 C 401.47,302.89 319.58,352.45 319.58,428.82 C 319.58,447.80 324.00,457.29 324.00,464.00 C 324.00,466.26 323.00,476.76 323.00,494.91 Z" transform="translate(2720.47,100.00) scale(0.8000,0.8000)" fill="#000000" />
  <path d="M 595.87,550.10 C 595.50,550.42 566.99,575.00 551.00,575.00 C 547.02,575.00 494.88,565.66 451.28,522.07 C 396.85,467.64 378.77,386.47 365.41,311.18 C 349.34,315.90 332.80,319.04 314.61,319.04 C 295.26,319.04 250.00,311.77 229.40,305.11 C 203.86,296.85 171.86,278.36 171.86,237.51 C 171.86,164.16 230.95,107.91 327.73,103.04 C 328.16,103.02 328.58,103.00 329.00,103.00 L 356.41,103.00 C 377.43,95.92 401.74,100.33 412.84,94.15 C 415.58,92.62 418.55,91.65 421.58,91.24 C 421.58,91.24 771.58,43.24 771.63,43.23 L 778.42,92.76 L 432.57,140.19 C 408.36,151.46 381.57,146.36 370.91,150.96 C 367.75,152.32 364.38,153.00 361.00,153.00 L 329.65,153.00 C 309.99,154.05 221.81,162.99 221.81,238.52 C 221.81,255.46 256.88,261.47 282.99,265.41 C 308.26,269.23 308.26,269.23 315.84,269.23 C 348.82,269.23 372.62,253.00 385.00,253.00 C 397.23,253.00 407.55,261.81 409.62,273.68 C 429.34,386.85 447.69,492.12 548.02,523.20 C 555.88,518.51 562.84,513.02 568.99,506.87 C 592.69,483.17 605.34,448.15 606.00,411.78 L 606.00,356.00 C 606.00,355.23 609.87,316.36 616.39,279.60 C 618.49,267.77 628.80,259.00 641.00,259.00 C 652.15,259.00 661.72,266.32 664.89,276.62 C 667.93,286.51 668.69,296.07 668.69,305.02 C 668.69,314.37 667.72,326.17 667.72,337.16 C 667.72,343.74 668.11,342.82 668.11,356.54 C 668.11,435.29 648.73,514.62 641.91,588.11 C 640.24,610.23 639.95,632.76 639.95,655.71 C 639.95,656.06 640.03,690.03 640.03,690.27 C 640.03,706.05 640.03,707.05 638.00,711.81 C 613.73,768.83 541.79,776.22 484.51,782.10 C 452.90,785.35 445.40,786.88 445.01,786.92 C 438.76,787.41 432.55,787.64 426.39,787.64 C 357.33,787.64 290.00,758.24 226.75,758.24 C 221.50,758.24 216.32,758.45 211.21,758.90 L 211.17,758.90 L 206.79,709.10 C 213.77,708.49 220.70,708.21 227.56,708.21 C 297.31,708.21 364.80,737.62 427.19,737.62 C 431.50,737.62 435.76,737.47 439.97,737.16 C 472.21,731.88 516.07,730.66 548.70,721.56 C 568.64,716.00 583.29,707.79 590.03,696.14 C 590.03,694.20 590.04,692.24 590.04,690.29 C 590.04,689.94 589.96,655.02 589.96,654.79 C 589.96,621.95 589.96,595.98 595.87,550.10 Z" transform="translate(3771.31,100.00) scale(0.8000,0.8000)" fill="#000000" />
</svg>
