<?xml version="1.0" encoding="UTF-8" standalone="no"?>
<!--
Representation of "loje ma" in sitelen ilo pona
Generated by generate_sitelen_kalama_pona.py

Description:
  Representation of "loje ma" in sitelen ilo pona.
  Sources: loje: https://commons.wikimedia.org/wiki/File:Sitelen_seli_kiwen_-_loje.svg; ma: https://commons.wikimedia.org/wiki/File:Sitelen_seli_kiwen_-_ma.svg

Categories:
  [[Category:Sitelen kalama pona]]
  [[Category:Toki Pona text containing loje ma]]

Sources:
  loje: https://commons.wikimedia.org/wiki/File:Sitelen_seli_kiwen_-_loje.svg
  ma: https://commons.wikimedia.org/wiki/File:Sitelen_seli_kiwen_-_ma.svg
-->
<svg version="1.1" width="1805" height="1000"
     viewBox="0 0 1805 1000"
     xmlns="http://www.w3.org/2000/svg">
  <path d="M221 198Q223 198 251.5 224.0Q280 250 284 250Q289 250 289.0 257.0Q289 264 293 264Q298 264 298 272Q298 278 310.0 294.5Q322 311 327 311Q329 311 358.0 340.0Q387 369 387 372Q387 373 378.0 377.0Q369 381 354.0 389.0Q339 397 328 408Q303 431 284 447Q252 474 239.5 495.5Q227 517 213 573Q208 589 208.0 597.0Q208 605 206 610Q197 633 197 666Q197 674 200.0 678.0Q203 682 215 693L234 711L286 708Q331 705 355.5 702.5Q380 700 384.5 698.5Q389 697 406.0 696.0Q423 695 461 695Q461 695 474.5 695.0Q488 695 508.5 695.5Q529 696 551.0 696.5Q573 697 593.5 697.0Q614 697 624 697Q648 697 658.5 696.5Q669 696 683.0 692.0Q697 688 705.0 678.5Q713 669 722 653Q733 629 727 627Q725 627 718.0 621.0Q711 615 703.5 599.0Q696 583 696 563Q696 542 689.0 528.5Q682 515 682 510Q682 501 667 471Q657 454 647.5 443.5Q638 433 618 419Q584 396 584 390Q584 387 580.0 387.0Q576 387 568.0 387.5Q560 388 549 385Q522 378 543 360Q546 357 556.5 336.0Q567 315 572 312Q575 310 581.0 300.0Q587 290 596.0 274.5Q605 259 614 248Q628 229 628 227Q628 222 643.0 197.5Q658 173 666 166Q678 156 678 150Q678 146 690.5 131.0Q703 116 703 104Q703 96 696 85L686 72L575 74H528Q476 74 449.5 70.0Q423 66 360 66Q306 66 282.5 68.0Q259 70 250.5 75.0Q242 80 239 91Q236 100 220 100Q205 100 188.0 110.5Q171 121 171 130Q171 143 191.0 170.5Q211 198 221 198ZM317 510Q317 509 322.5 501.0Q328 493 340.5 481.0Q353 469 368.5 457.5Q384 446 406.5 438.0Q429 430 452 430Q472 430 500.0 438.0Q528 446 539 456Q549 466 559 466Q570 466 590.0 485.0Q610 504 616 520Q624 545 630.0 569.5Q636 594 638 598Q641 607 637 617Q633 624 618.0 625.5Q603 627 532 628Q506 628 472.5 629.5Q439 631 409.0 633.0Q379 635 353.5 637.0Q328 639 312.0 640.5Q296 642 296 642Q279 642 275.5 639.5Q272 637 272 629Q272 612 279 580Q284 555 289.0 544.5Q294 534 306 525Q317 516 317 510ZM554 149H579Q600 149 600 157Q600 164 578.5 194.5Q557 225 553 228Q546 233 546 238Q546 242 536.5 254.5Q527 267 525 277Q522 287 506.0 300.0Q490 313 490 322Q490 339 480 339Q470 339 435.5 315.5Q401 292 401 288Q401 286 393.5 278.5Q386 271 373.5 258.0Q361 245 354 234Q340 214 315.0 188.0Q290 162 283 160Q274 156 274 150Q274 136 394 136Q479 136 509.0 142.5Q539 149 554 149Z" transform="translate(0.00,958.33) scale(0.9583,-0.9583)" fill="#000000" />
  <path d="M152 340Q152 341 154.5 344.0Q157 347 156 359V367Q156 391 167.5 424.0Q179 457 192.5 485.0Q206 513 208 517Q213 534 245.0 555.5Q277 577 278 583Q280 589 289.0 594.0Q298 599 302 607Q305 615 318.0 619.5Q331 624 336 632Q340 639 350.0 644.0Q360 649 373.5 653.5Q387 658 394 661Q400 665 424 665Q455 665 491.0 659.0Q527 653 532 645Q536 640 548 640Q551 640 554 640Q576 640 606 621Q618 613 634 603Q645 598 671.5 565.5Q698 533 698 526Q698 520 705.0 515.5Q712 511 712 506Q712 499 718 495Q724 492 732.0 475.0Q740 458 740 450Q740 447 744.0 439.0Q748 431 748 405Q748 372 741.0 333.0Q734 294 725.5 269.5Q717 245 712 245Q712 245 704.5 230.5Q697 216 684.5 199.5Q672 183 660 178Q652 174 652 168Q652 161 646 161Q641 161 624 145Q606 129 570 121Q490 105 480 105Q464 105 452.5 93.0Q441 81 434 81Q423 81 406.0 88.0Q389 95 388 100Q386 108 356 116Q327 124 282.5 146.0Q238 168 238.0 174.0Q238 180 208.5 210.5Q179 241 176 255Q174 268 163.0 301.0Q152 334 152 340ZM390 461Q391 481 392.0 500.0Q393 519 394.5 532.5Q396 546 397.5 558.0Q399 570 400.5 578.0Q402 586 403.0 591.0Q404 596 405.0 599.0Q406 602 406 602Q406 606 400 606Q390 606 375.0 597.0Q360 588 354 578Q349 567 310.0 527.5Q271 488 270 482Q266 474 264 477Q261 479 256.0 475.5Q251 472 247.5 466.0Q244 460 244 456Q244 451 240.5 447.0Q237 443 233.5 441.0Q230 439 226.5 431.5Q223 424 222 411L220 390L232 399Q241 406 250 406Q251 406 275.5 402.0Q300 398 330 398Q386 398 388 408Q388 418 390 461ZM656 491Q656 496 644.0 508.0Q632 520 632 524Q632 530 615.5 542.5Q599 555 579.5 567.5Q560 580 558 583Q550 591 500 597Q493 598 488 599L474 601L472 572Q470 557 467.0 537.5Q464 518 462.0 498.5Q460 479 460 449Q460 414 464.5 407.5Q469 401 488 401Q531 401 570.0 405.5Q609 410 632.5 414.0Q656 418 660 418Q677 418 680.5 418.5Q684 419 684 422Q684 430 675.5 453.0Q667 476 662 480Q656 485 656 491ZM680 345Q680 353 664 353Q655 353 632.0 346.5Q609 340 576 337Q532 333 520 331Q513 331 496.5 333.5Q480 336 474 336Q468 336 466 334Q462 330 462 247Q462 168 468 168Q469 168 489.5 171.0Q510 174 532.5 179.0Q555 184 558 187Q563 194 572.5 194.0Q582 194 614.5 226.0Q647 258 652 272Q658 288 661.5 288.0Q665 288 672.5 311.5Q680 335 680 345ZM336 333Q318 333 302.5 334.0Q287 335 275.5 336.0Q264 337 254.0 338.5Q244 340 237.5 341.5Q231 343 226.5 344.0Q222 345 220.0 346.0Q218 347 218 347Q214 347 214 341Q214 336 218.0 317.0Q222 298 235.0 271.0Q248 244 266 236Q284 228 315.5 200.5Q347 173 370 172L388 171V334L340 333Z" transform="translate(942.50,958.33) scale(0.9583,-0.9583)" fill="#000000" />
</svg>
