<?xml version="1.0" encoding="UTF-8" standalone="no"?>
<!--
Representation of "tomo nimi 1 lon nasin Wall" in sitelen kalama pona
Generated by generate_sitelen_kalama_pona.py

Description:
  Representation of "tomo nimi 1 lon nasin Wall" in sitelen kalama pona.
  Sources: tomo: https://commons.wikimedia.org/wiki/File:Sitelen_seli_kiwen_-_tomo.svg; nimi: https://commons.wikimedia.org/wiki/File:Sitelen_seli_kiwen_-_nimi.svg; lon: https://commons.wikimedia.org/wiki/File:Sitelen_seli_kiwen_-_lon.svg; nasin: https://commons.wikimedia.org/wiki/File:Sitelen_seli_kiwen_-_nasin.svg; wa: https://commons.wikimedia.org/wiki/File:Sitelen_kalama_pona_-_wa.svg

Categories:
  [[Category:Toki Pona text containing tomo nimi 1 lon nasin]]
  [[Category:Toki Pona text containing sound symbol Wa]]
  [[Category:Toki Pona text containing sound symbol L]]
  [[Category:Toki Pona text containing sound symbol L]]

Sources:
  tomo: https://commons.wikimedia.org/wiki/File:Sitelen_seli_kiwen_-_tomo.svg
  nimi: https://commons.wikimedia.org/wiki/File:Sitelen_seli_kiwen_-_nimi.svg
  lon: https://commons.wikimedia.org/wiki/File:Sitelen_seli_kiwen_-_lon.svg
  nasin: https://commons.wikimedia.org/wiki/File:Sitelen_seli_kiwen_-_nasin.svg
  wa: https://commons.wikimedia.org/wiki/File:Sitelen_kalama_pona_-_wa.svg
-->
<svg version="1.1" width="5939" height="1000"
     viewBox="0 0 5939 1000"
     xmlns="http://www.w3.org/2000/svg">
  <path d="M126 137Q126 137 126 151Q126 160 128.0 169.0Q130 178 130 182Q130 184 128 192Q124 208 122.5 266.0Q121 324 120.5 375.0Q120 426 117 430Q116 433 116.0 443.5Q116 454 112 461Q111 462 111 465Q111 475 128.0 489.0Q145 503 157 503Q168 503 179.0 512.5Q190 522 195.5 531.0Q201 540 201 541Q201 543 207.5 547.0Q214 551 225.5 560.5Q237 570 246 583Q256 596 275.5 611.5Q295 627 309.0 637.5Q323 648 323 651Q323 655 332.5 662.5Q342 670 342 675Q342 681 349 681Q354 681 363.5 694.0Q373 707 385.5 720.0Q398 733 410 733Q419 733 432.5 742.5Q446 752 454 752Q466 752 483.0 737.5Q500 723 513.5 708.5Q527 694 530 694Q533 694 533.5 693.5Q534 693 534 691Q534 688 567.0 666.5Q600 645 600 641Q600 638 614.0 630.5Q628 623 650.0 609.5Q672 596 687 581Q711 559 733.0 540.5Q755 522 758 522Q762 522 767.5 520.5Q773 519 781.5 511.0Q790 503 788 489Q788 472 787.0 440.0Q786 408 784.0 374.0Q782 340 780.5 309.0Q779 278 777.5 257.5Q776 237 776 236Q776 221 777.5 199.5Q779 178 780.5 159.0Q782 140 784.0 123.0Q786 106 787.0 95.0Q788 84 788 84Q788 75 777 64Q766 54 748.0 51.5Q730 49 647 49Q529 49 475.0 55.5Q421 62 370 62Q237 62 161 46Q147 43 129 58Q119 67 116.0 72.5Q113 78 113 89Q113 114 119.5 120.0Q126 126 126 137ZM291 124Q320 124 351.5 123.0Q383 122 408.5 121.0Q434 120 455.0 118.5Q476 117 488.5 116.0Q501 115 501 115Q506 115 513.5 116.5Q521 118 544.5 119.5Q568 121 609 121Q674 122 698.5 124.5Q723 127 723 134Q723 134 722.5 136.5Q722 139 721.0 144.0Q720 149 718.5 156.0Q717 163 715.5 172.5Q714 182 713.0 193.0Q712 204 711.0 217.5Q710 231 710 245Q710 259 711.5 276.5Q713 294 715.0 310.0Q717 326 719.5 339.5Q722 353 723.0 361.5Q724 370 724 370Q724 374 720.0 399.5Q716 425 715.5 444.0Q715 463 712.0 469.5Q709 476 696 487Q693 490 686.0 496.0Q679 502 674.0 506.5Q669 511 666 514Q650 530 618.0 551.5Q586 573 578 580Q561 597 555 597Q552 597 548.0 600.5Q544 604 535.0 610.5Q526 617 514 623Q501 629 473.5 648.0Q446 667 438 667Q429 667 404.0 643.5Q379 620 376 620Q374 620 362.5 606.0Q351 592 346 592Q340 592 301.0 553.5Q262 515 262 507Q262 503 253 503Q245 503 239 494Q237 489 227.0 477.5Q217 466 209.5 452.5Q202 439 199 424Q196 404 188 402Q184 400 182.0 389.5Q180 379 180 344Q180 267 186.5 249.0Q193 231 193 197Q193 151 200.0 136.0Q207 121 237 121Q241 121 256.5 122.5Q272 124 291 124Z" transform="translate(0.00,958.33) scale(0.9583,-0.9583)" fill="#000000" />
  <path d="M373 213Q337 213 302.5 204.0Q268 195 264 195Q223 195 183 216Q138 239 125.5 268.0Q113 297 111 375Q109 439 103.5 454.0Q98 469 98 479Q98 515 114 533Q123 542 133 560Q143 579 158.0 584.0Q173 589 225 589H278Q339 589 357.5 592.5Q376 596 399 596Q459 597 524.5 605.0Q590 613 600 613Q627 613 657.0 602.5Q687 592 692 592Q704 592 720.5 585.0Q737 578 744 578Q759 578 773 558Q783 544 792.5 485.5Q802 427 802 383Q802 369 800.0 352.0Q798 335 798 322V303Q798 286 792.0 276.0Q786 266 786 255Q786 253 786.5 250.0Q787 247 787 246Q787 241 774 241Q762 241 757.5 236.5Q753 232 750 234H748Q744 234 701.0 222.5Q658 211 640 211Q638 211 636.0 212.0Q634 213 625.0 214.0Q616 215 598 215Q569 215 548.5 212.5Q528 210 518.5 208.0Q509 206 506 206Q504 206 491.5 209.5Q479 213 455 213Q439 213 428.5 211.0Q418 209 413.5 207.0Q409 205 408.0 205.0Q407 205 404.0 207.0Q401 209 393.5 211.0Q386 213 373 213ZM724 386Q724 387 727.5 393.5Q731 400 731 413Q731 421 729.0 447.5Q727 474 727 483Q727 520 701 525Q693 526 682.5 531.0Q672 536 653 538Q618 543 587 543L580 542Q574 541 562.0 539.5Q550 538 533.0 536.5Q516 535 491.5 533.0Q467 531 439.0 529.5Q411 528 374.0 526.5Q337 525 298 525Q198 523 188 517Q183 513 183 499Q183 489 179 489Q176 489 176 451Q176 343 184 317Q189 303 201.5 293.0Q214 283 227 283Q236 283 245.0 278.5Q254 274 264 274Q277 274 311.5 278.5Q346 283 367 283Q380 283 423.0 281.5Q466 280 500 280Q563 280 617.5 283.5Q672 287 675 292Q679 298 686 294H690Q698 294 710.5 301.0Q723 308 727 315Q731 323 731 346Q731 363 728 374Z" transform="translate(942.50,958.33) scale(0.9583,-0.9583)" fill="#000000" />
  <path d="M150 252Q150 262 160.5 276.5Q171 291 190 291Q216 291 250.5 285.5Q285 280 296 280Q319 279 382.5 276.0Q446 273 458 273Q470 273 485.5 275.0Q501 277 506 277Q514 277 524.5 272.5Q535 268 538 269Q542 270 614.0 271.0Q686 272 702 278Q713 282 717.5 281.5Q722 281 730 276Q750 263 750 244Q750 213 712 213Q712 213 708.0 213.0Q704 213 695.5 213.5Q687 214 677.0 214.0Q667 214 652.0 214.0Q637 214 622 214Q611 214 601.0 214.0Q591 214 584.5 214.0Q578 214 573.0 213.5Q568 213 566.0 213.0Q564 213 563.5 213.0Q563 213 547.0 213.5Q531 214 505.5 214.5Q480 215 451.5 215.5Q423 216 394.0 216.5Q365 217 346 217Q333 217 322.0 217.0Q311 217 304.0 216.5Q297 216 291.5 216.0Q286 216 283.5 216.0Q281 216 280 216Q273 216 234.5 219.5Q196 223 184 224Q169 225 159.5 233.0Q150 241 150 252ZM388 467Q388 471 393.0 483.0Q398 495 412.5 508.0Q427 521 446 521Q471 521 489.5 491.0Q508 461 508 441Q508 422 487.5 410.0Q467 398 446.0 398.0Q425 398 406.5 422.5Q388 447 388 467Z" transform="translate(1885.00,958.33) scale(0.9583,-0.9583)" fill="#000000" />
  <path d="M428 210Q428 226 424.0 300.5Q420 375 416 375Q412 375 396.0 361.5Q380 348 378 348Q376 348 353.0 334.0Q330 320 328 320Q322 320 320 312Q318 304 308.0 301.0Q298 298 292 304Q285 311 274 314Q260 317 260 329Q260 354 310 380Q328 389 358.0 411.0Q388 433 388 438Q388 440 404 459L422 477L418 552Q412 678 412 679Q412 694 423.0 706.5Q434 719 448 719Q469 719 476 693Q482 677 480 673Q472 664 472 578V562Q473 500 474.5 488.5Q476 477 484 473Q493 470 502 456Q510 445 546.5 412.5Q583 380 612 358Q629 345 634.5 336.0Q640 327 640 310Q640 291 620 291Q597 291 582 308Q570 321 537.0 348.0Q504 375 492 382Q486 385 482 385Q474 385 474 359Q474 342 474 330Q476 306 477.0 248.5Q478 191 484 156Q488 131 488 111Q488 81 472 81Q462 81 462 86Q462 92 446 90Q434 89 430.0 91.0Q426 93 420 102Q412 116 415.5 123.0Q419 130 423.5 161.0Q428 192 428 210Z" transform="translate(2827.50,958.33) scale(0.9583,-0.9583)" fill="#000000" />
  <path d="M 24.637998,12.488337 H 20.72216 q -1.48166,0 -2.54,-1.058333 -1.05833,-1.058333 -1.05833,-2.54 V 3.598338 q 0,-1.481667 1.05833,-2.54 Q 19.2405,4e-6 20.72216,4e-6 h 3.915838 V 0.846671 H 20.72216 q -1.13241,0 -1.94733,0.814917 -0.80433,0.804333 -0.80433,1.93675 v 5.291666 q 0,1.132417 0.80433,1.93675 0.81492,0.814917 1.94733,0.814917 h 3.915838 z" transform="translate(2398.81,0.00) scale(80.0747,80.0747)" fill="#000000" />
  <path d="M 75.014662,0.846671 V 4e-6 h 13.123333 v 0.846667 z m 0,11.641666 v -0.846666 h 13.123333 v 0.846666 z" transform="translate(-1635.08,0.00) scale(80.0747,80.0747)" fill="#000000" />
  <path d="m 87.714667,4e-6 h 2.8575 q 1.481666,0 2.54,1.058334 1.058333,1.058333 1.058333,2.54 v 5.291666 q 0,1.481667 -1.058333,2.54 -1.058334,1.058333 -2.54,1.058333 h -2.8575 v -0.846666 h 2.8575 q 1.132416,0 1.93675,-0.814917 0.814916,-0.804333 0.814916,-1.93675 V 3.598338 q 0,-1.132417 -0.814916,-1.93675 -0.804334,-0.814917 -1.93675,-0.814917 h -2.8575 z" transform="translate(-1601.18,0.00) scale(80.0747,80.0747)" fill="#000000" />
  <path d="M 184.38,603.07 C 184.38,619.66 179.99,631.36 179.99,643.91 L 130.01,644.09 C 130.00,643.96 130.00,643.83 130.00,643.71 C 130.00,626.09 134.39,613.74 134.39,602.97 C 134.39,599.52 134.00,598.63 134.00,596.00 C 134.00,572.39 141.02,494.57 141.02,442.55 C 141.02,413.96 139.64,414.42 139.64,377.95 C 139.64,286.32 150.35,77.39 291.04,30.30 C 293.62,29.44 296.31,29.00 299.00,29.00 C 311.77,29.00 332.18,43.47 342.91,54.20 C 382.83,94.12 386.03,157.56 386.03,208.75 C 386.03,220.90 386.03,221.95 385.64,224.21 C 384.66,229.95 384.20,235.81 384.20,241.67 C 384.20,281.58 406.11,325.38 443.03,332.30 C 479.72,311.28 489.71,225.28 492.11,195.29 C 490.31,167.55 488.39,132.39 488.39,108.14 C 488.39,87.09 489.71,79.35 497.01,72.05 C 500.14,68.92 506.81,64.66 515.07,64.66 C 540.07,64.66 541.82,91.26 543.05,109.98 C 543.69,119.81 544.13,131.97 544.13,145.70 C 544.13,152.27 544.07,171.76 542.25,195.89 C 542.27,196.15 544.00,221.22 544.00,222.00 C 544.00,224.14 543.34,230.15 543.34,239.79 C 543.34,275.62 553.16,320.92 602.86,320.92 C 653.85,320.92 724.98,271.74 737.04,203.54 C 737.05,201.81 737.06,199.97 737.06,198.04 C 737.06,185.63 736.66,174.01 735.62,156.45 C 732.53,143.32 730.11,141.35 730.01,134.36 C 729.94,129.75 729.91,125.76 729.91,122.31 C 729.91,101.66 730.91,96.13 738.02,89.02 C 741.14,85.90 747.81,81.67 756.02,81.67 C 759.85,81.67 777.38,82.91 781.26,105.15 C 782.36,111.46 783.87,126.13 785.32,149.67 C 787.64,161.00 788.73,172.15 788.73,183.05 C 788.73,190.45 788.23,197.73 787.27,204.87 C 787.28,206.17 787.29,207.43 787.29,208.66 C 787.29,215.10 787.09,220.65 786.04,226.36 C 786.78,262.00 789.77,310.15 789.77,353.76 C 789.77,445.84 780.66,614.38 612.04,614.38 C 598.56,614.38 584.27,613.27 569.18,611.01 L 321.20,612.99 L 320.80,563.01 L 571.00,561.00 C 571.42,561.00 595.53,564.55 613.31,564.55 C 709.24,564.55 739.69,492.00 739.69,353.34 C 739.69,337.31 739.32,321.18 738.80,305.28 C 726.08,319.20 674.06,370.93 603.47,370.93 C 563.61,370.93 532.13,353.09 513.47,322.82 C 490.16,371.46 456.59,383.00 447.00,383.00 C 444.66,383.00 408.52,382.47 376.67,350.62 C 349.08,323.03 334.11,282.95 334.11,242.61 C 334.11,225.02 336.02,225.35 336.02,212.10 C 336.02,161.49 333.44,104.28 297.37,81.39 C 205.31,121.59 189.64,277.46 189.64,378.93 C 189.64,383.95 191.03,442.24 191.03,442.88 C 191.03,474.28 189.09,504.89 187.22,534.95 C 185.96,555.23 184.71,575.27 184.04,595.17 C 184.28,597.90 184.38,600.54 184.38,603.07 Z" transform="translate(4497.12,100.00) scale(0.8000,0.8000)" fill="#000000" />
</svg>
