<?xml version="1.0" encoding="UTF-8" standalone="no"?>
<!--
Representation of "ijo Kapipo" in sitelen ilo pona
Generated by generate_sitelen_kalama_pona.py

Description:
  Representation of "ijo Kapipo" in sitelen ilo pona.
  Sources: ijo: https://commons.wikimedia.org/wiki/File:Sitelen_seli_kiwen_-_ijo.svg; ka: https://commons.wikimedia.org/wiki/File:Sitelen_kalama_pona_-_ka.svg; pi: https://commons.wikimedia.org/wiki/File:Sitelen_kalama_pona_-_pi.svg; po: https://commons.wikimedia.org/wiki/File:Sitelen_kalama_pona_-_po.svg

Categories:
  [[Category:Sitelen kalama pona]]
  [[Category:Toki Pona text containing ijo]]
  [[Category:Toki Pona text containing sound symbol Ka]]
  [[Category:Toki Pona text containing sound symbol Pi]]
  [[Category:Toki Pona text containing sound symbol Po]]

Sources:
  ijo: https://commons.wikimedia.org/wiki/File:Sitelen_seli_kiwen_-_ijo.svg
  ka: https://commons.wikimedia.org/wiki/File:Sitelen_kalama_pona_-_ka.svg
  pi: https://commons.wikimedia.org/wiki/File:Sitelen_kalama_pona_-_pi.svg
  po: https://commons.wikimedia.org/wiki/File:Sitelen_kalama_pona_-_po.svg
-->
<svg version="1.1" width="5214" height="1000"
     viewBox="0 0 5214 1000"
     xmlns="http://www.w3.org/2000/svg">
  <path d="M467 716Q467 716 469.0 716.0Q471 716 475.5 715.5Q480 715 485.5 714.5Q491 714 500.5 714.0Q510 714 521 714L564 713L606 686Q651 657 688.0 624.0Q725 591 733 572Q738 559 740.5 559.0Q743 559 752.0 544.0Q761 529 773.5 486.5Q786 444 791 390Q792 382 793.5 376.5Q795 371 795.0 370.5Q795 370 794 365Q782 347 782 326Q782 308 771.0 283.0Q760 258 758 243Q756 227 721.0 193.5Q686 160 686 157Q686 152 677 152Q668 152 666 147Q664 141 629.0 121.5Q594 102 531.5 81.5Q469 61 413 61Q354 61 291 79Q264 87 253.5 93.5Q243 100 226 117Q209 134 194.0 144.0Q179 154 170.0 162.0Q161 170 151 187Q134 215 124 227Q105 250 105 345Q105 382 106.5 404.0Q108 426 110.0 431.0Q112 436 114.0 438.5Q116 441 116 444Q116 457 145 538Q153 562 163.0 575.0Q173 588 196 604Q204 610 216.5 621.0Q229 632 237.5 640.0Q246 648 248 648Q255 648 277.0 659.5Q299 671 301 671Q321 672 346.0 678.0Q371 684 376 688Q384 695 419.0 705.5Q454 716 467 716ZM676 545Q676 551 650.0 575.5Q624 600 588.0 624.0Q552 648 530 648Q516 648 498.5 638.0Q481 628 473 628Q469 628 462.5 631.0Q456 634 439.0 634.0Q422 634 414.5 632.5Q407 631 395.0 627.5Q383 624 361 621Q324 616 289.0 598.5Q254 581 254 563Q254 555 245 555Q238 555 231.5 549.5Q225 544 219 541Q211 538 200.0 517.0Q189 496 184 491Q176 482 169.5 435.0Q163 388 156 379Q149 372 149 331Q149 301 154 300Q158 298 157.0 290.5Q156 283 159 277Q164 269 167 259Q170 242 211.5 204.5Q253 167 277 159Q285 156 306.5 144.0Q328 132 353 129Q381 126 428 126Q495 126 505 131Q552 156 564 156Q565 156 579.5 164.0Q594 172 616.5 188.5Q639 205 661.0 226.0Q683 247 700.5 276.0Q718 305 721 335Q724 364 724 390Q724 420 719.0 446.5Q714 473 707.0 490.0Q700 507 693.0 519.0Q686 531 681.0 537.5Q676 544 676 545Z" transform="translate(0.00,958.33) scale(0.9583,-0.9583)" fill="#000000" />
  <path d="M 24.637998,12.488337 H 20.72216 q -1.48166,0 -2.54,-1.058333 -1.05833,-1.058333 -1.05833,-2.54 V 3.598338 q 0,-1.481667 1.05833,-2.54 Q 19.2405,4e-6 20.72216,4e-6 h 3.915838 V 0.846671 H 20.72216 q -1.13241,0 -1.94733,0.814917 -0.80433,0.804333 -0.80433,1.93675 v 5.291666 q 0,1.132417 0.80433,1.93675 0.81492,0.814917 1.94733,0.814917 h 3.915838 z" transform="translate(-428.69,0.00) scale(80.0747,80.0747)" fill="#000000" />
  <path d="M 75.014662,0.846671 V 4e-6 h 13.123333 v 0.846667 z m 0,11.641666 v -0.846666 h 13.123333 v 0.846666 z" transform="translate(-4462.58,0.00) scale(80.0747,80.0747)" fill="#000000" />
  <path d="M 75.014662,0.846671 V 4e-6 h 13.123333 v 0.846667 z m 0,11.641666 v -0.846666 h 13.123333 v 0.846666 z" transform="translate(-3411.74,0.00) scale(80.0747,80.0747)" fill="#000000" />
  <path d="M 75.014662,0.846671 V 4e-6 h 13.123333 v 0.846667 z m 0,11.641666 v -0.846666 h 13.123333 v 0.846666 z" transform="translate(-2360.89,0.00) scale(80.0747,80.0747)" fill="#000000" />
  <path d="m 87.714667,4e-6 h 2.8575 q 1.481666,0 2.54,1.058334 1.058333,1.058333 1.058333,2.54 v 5.291666 q 0,1.481667 -1.058333,2.54 -1.058334,1.058333 -2.54,1.058333 h -2.8575 v -0.846666 h 2.8575 q 1.132416,0 1.93675,-0.814917 0.814916,-0.804333 0.814916,-1.93675 V 3.598338 q 0,-1.132417 -0.814916,-1.93675 -0.804334,-0.814917 -1.93675,-0.814917 h -2.8575 z" transform="translate(-2326.99,0.00) scale(80.0747,80.0747)" fill="#000000" />
  <path d="M 235.77,643.31 C 235.77,651.79 236.00,656.96 236.00,658.00 L 236.00,704.00 L 186.00,704.00 L 186.00,658.38 C 185.85,653.24 185.78,648.11 185.78,643.00 C 185.78,589.09 193.92,537.14 201.71,486.75 C 204.73,467.20 207.71,447.87 210.22,428.73 C 210.91,423.48 212.27,424.09 212.27,414.93 C 212.27,414.74 211.69,397.42 211.69,396.83 C 211.69,389.56 211.69,389.56 215.39,367.94 C 217.73,354.27 220.20,339.84 222.06,327.75 C 223.09,292.37 228.16,260.48 228.16,227.82 C 228.16,223.01 228.00,218.10 228.00,218.00 C 228.00,213.64 229.45,210.87 229.45,189.48 C 229.45,188.94 228.50,136.10 228.50,135.56 C 228.50,104.77 228.50,20.54 303.91,11.20 C 304.93,11.07 305.97,11.00 307.00,11.00 C 417.90,11.00 500.44,96.50 559.09,160.73 L 572.68,174.32 L 537.32,209.68 C 522.91,195.27 522.91,195.27 522.52,194.84 C 464.36,131.12 395.62,62.39 308.58,61.01 C 288.87,64.03 278.57,79.66 278.57,136.86 C 278.57,156.11 279.53,174.47 279.53,190.46 C 279.53,200.32 279.18,209.97 278.04,219.26 C 278.12,222.22 278.15,225.16 278.15,228.08 C 278.15,264.05 272.86,296.47 271.99,330.64 C 271.82,337.02 261.71,389.45 261.71,396.59 C 261.71,402.78 262.37,409.14 262.37,415.72 C 262.37,422.05 261.80,429.41 259.51,437.37 C 256.96,456.56 254.02,475.57 251.11,494.44 C 243.30,544.98 235.77,594.40 235.77,643.31  Z M 543.81,527.98 L 582.22,559.99 L 484.07,677.76 L 477.36,691.19 L 432.63,668.82 C 436.42,661.91 439.21,654.17 443.78,648.01 C 443.78,648.01 543.78,528.01 543.81,527.98  Z M 733.00,639.00 C 733.15,639.00 740.71,639.31 747.60,639.31 C 757.58,639.31 797.07,639.31 818.26,623.81 C 818.26,623.81 847.78,664.17 847.74,664.19 C 833.58,674.56 805.84,689.32 748.28,689.32 C 742.85,689.32 737.68,689.20 732.83,689.01 C 731.20,689.05 729.57,689.07 727.95,689.07 C 665.32,689.07 582.68,659.26 527.28,529.52 C 507.20,482.51 495.14,432.68 488.32,389.97 C 488.28,389.75 487.39,382.24 487.39,368.25 C 487.39,245.04 565.29,108.32 695.60,101.04 C 696.06,101.02 696.53,101.00 697.00,101.00 L 727.00,101.00 L 727.00,151.00 L 697.73,151.00 C 592.35,157.37 537.41,278.21 537.41,369.06 C 537.41,373.82 537.56,378.52 537.86,383.15 C 548.86,451.23 591.53,639.08 727.73,639.08 C 729.89,639.08 732.95,639.00 733.00,639.00 Z" transform="translate(1669.62,100.00) scale(0.8000,0.8000)" fill="#000000" />
  <path d="M 485.00,189.00 C 469.68,189.00 438.00,176.21 438.00,126.00 C 438.00,117.97 440.75,112.11 452.24,100.63 C 456.31,96.55 469.86,83.00 483.00,83.00 L 493.00,83.00 L 493.00,85.32 C 505.32,87.38 524.11,100.20 524.11,122.52 C 524.11,123.23 524.09,123.95 524.04,124.66 C 524.08,125.75 524.10,126.85 524.10,127.96 C 524.10,165.31 504.14,189.00 485.00,189.00  Z M 606.10,279.81 C 606.10,279.81 655.90,284.16 655.90,284.19 C 637.90,490.19 637.90,490.19 637.90,490.19 C 637.90,490.19 588.10,485.84 588.10,485.81 C 606.10,279.81 606.10,279.81 606.10,279.81  Z M 429.49,786.96 C 319.70,786.96 228.59,722.79 228.59,616.05 C 228.59,604.31 229.71,592.09 232.04,579.47 C 233.26,492.01 243.62,404.21 258.00,319.86 L 258.00,314.00 L 308.00,314.00 L 308.00,322.00 C 308.00,330.48 283.64,447.79 281.99,582.31 C 281.93,587.51 278.43,598.69 278.43,617.13 C 278.43,699.49 355.82,736.84 430.49,736.84 C 461.27,736.84 478.65,731.00 485.00,731.00 L 679.20,731.00 C 730.13,731.41 774.29,739.46 821.76,739.46 C 827.75,739.46 833.74,739.33 839.77,739.04 L 842.23,788.96 C 835.21,789.31 828.30,789.46 821.48,789.46 C 771.89,789.46 726.49,781.38 678.90,781.00 L 487.62,781.00 C 468.37,784.96 448.81,786.96 429.49,786.96  Z M 733.76,308.43 C 557.65,308.43 334.30,328.57 169.67,332.99 L 168.33,283.01 C 245.61,280.94 324.81,276.25 404.79,271.50 C 513.82,265.02 624.29,258.44 733.52,258.44 C 751.48,258.44 769.40,258.62 787.27,259.00 L 857.80,259.00 C 857.80,259.00 940.61,251.12 940.65,251.12 L 945.39,300.88 C 860.20,309.00 860.20,309.00 859.00,309.00 L 787.00,309.00 C 786.47,309.00 764.15,308.43 733.76,308.43 Z" transform="translate(2720.47,100.00) scale(0.8000,0.8000)" fill="#000000" />
  <path d="M 406.00,138.00 C 406.00,140.69 406.00,140.69 404.24,147.49 C 406.55,148.67 412.23,150.03 418.10,150.03 C 423.55,150.03 424.53,149.00 429.00,149.00 C 431.12,149.00 433.23,149.27 435.30,149.81 C 439.73,149.81 446.67,144.08 446.67,138.37 C 446.67,137.07 446.00,135.56 446.00,132.00 C 446.00,125.92 447.91,124.20 447.91,119.16 C 447.91,109.21 439.01,100.80 430.06,97.90 C 413.57,108.32 405.72,123.22 405.72,133.14 C 405.72,135.03 406.00,135.64 406.00,138.00  Z M 416.96,200.19 C 381.00,200.19 354.13,179.20 354.13,148.66 C 354.13,144.22 354.70,139.79 355.75,135.45 C 355.71,134.48 355.69,133.51 355.69,132.55 C 355.69,107.83 368.47,86.53 383.75,71.25 C 389.45,65.55 395.72,60.41 402.45,56.02 L 400.45,50.50 C 407.17,48.07 413.94,46.81 420.61,46.55 C 420.82,46.46 434.57,41.00 443.00,41.00 L 447.00,41.00 L 447.00,50.66 C 476.09,60.97 497.84,88.20 497.84,119.55 C 497.84,124.02 497.40,128.59 496.44,133.22 C 496.62,135.03 496.70,136.82 496.70,138.58 C 496.70,171.62 467.03,199.90 435.98,199.90 C 433.58,199.90 431.15,199.73 428.68,199.39 C 424.82,199.91 420.90,200.19 416.96,200.19  Z M 510.22,318.48 C 510.22,313.24 510.00,308.10 510.00,308.00 L 510.00,272.00 L 560.00,272.00 L 560.00,307.44 C 560.16,311.26 560.22,314.99 560.22,318.65 C 560.22,330.41 559.57,341.35 559.57,353.04 C 559.57,371.00 561.93,382.13 561.95,382.43 L 563.95,414.45 L 514.05,417.57 L 512.15,387.07 C 510.07,375.39 509.53,364.25 509.53,353.78 C 509.53,342.13 510.22,330.05 510.22,318.48  Z M 262.00,588.00 C 262.00,590.55 261.51,592.50 261.51,598.12 C 261.51,619.41 271.01,666.82 306.04,667.01 C 679.13,669.01 679.13,669.01 679.13,669.01 L 678.87,718.99 C 304.05,716.99 304.05,716.99 303.23,716.93 C 246.41,712.93 211.46,658.55 211.46,599.37 C 211.46,595.29 211.63,591.27 211.96,587.35 C 211.63,578.56 211.47,569.80 211.47,561.05 C 211.47,455.79 234.78,354.11 265.14,256.54 C 265.14,256.54 312.88,271.40 312.86,271.46 C 283.23,366.68 261.46,463.35 261.46,561.21 C 261.46,576.57 262.00,586.52 262.00,588.00  Z M 753.08,241.01 L 752.92,290.99 L 140.92,288.99 L 141.08,239.01 L 753.08,241.01 Z" transform="translate(3771.31,100.00) scale(0.8000,0.8000)" fill="#000000" />
</svg>
