<?xml version="1.0" encoding="UTF-8" standalone="no"?>
<!--
Representation of "nimi pali" in sitelen ilo pona
Generated by generate_sitelen_kalama_pona.py

Description:
  Representation of "nimi pali" in sitelen ilo pona.
  Sources: nimi: https://commons.wikimedia.org/wiki/File:Sitelen_seli_kiwen_-_nimi.svg; pali: https://commons.wikimedia.org/wiki/File:Sitelen_seli_kiwen_-_pali.svg

Categories:
  [[Category:Sitelen kalama pona]]
  [[Category:Toki Pona text containing nimi pali]]

Sources:
  nimi: https://commons.wikimedia.org/wiki/File:Sitelen_seli_kiwen_-_nimi.svg
  pali: https://commons.wikimedia.org/wiki/File:Sitelen_seli_kiwen_-_pali.svg
-->
<svg version="1.1" width="1805" height="1000"
     viewBox="0 0 1805 1000"
     xmlns="http://www.w3.org/2000/svg">
  <path d="M373 213Q337 213 302.5 204.0Q268 195 264 195Q223 195 183 216Q138 239 125.5 268.0Q113 297 111 375Q109 439 103.5 454.0Q98 469 98 479Q98 515 114 533Q123 542 133 560Q143 579 158.0 584.0Q173 589 225 589H278Q339 589 357.5 592.5Q376 596 399 596Q459 597 524.5 605.0Q590 613 600 613Q627 613 657.0 602.5Q687 592 692 592Q704 592 720.5 585.0Q737 578 744 578Q759 578 773 558Q783 544 792.5 485.5Q802 427 802 383Q802 369 800.0 352.0Q798 335 798 322V303Q798 286 792.0 276.0Q786 266 786 255Q786 253 786.5 250.0Q787 247 787 246Q787 241 774 241Q762 241 757.5 236.5Q753 232 750 234H748Q744 234 701.0 222.5Q658 211 640 211Q638 211 636.0 212.0Q634 213 625.0 214.0Q616 215 598 215Q569 215 548.5 212.5Q528 210 518.5 208.0Q509 206 506 206Q504 206 491.5 209.5Q479 213 455 213Q439 213 428.5 211.0Q418 209 413.5 207.0Q409 205 408.0 205.0Q407 205 404.0 207.0Q401 209 393.5 211.0Q386 213 373 213ZM724 386Q724 387 727.5 393.5Q731 400 731 413Q731 421 729.0 447.5Q727 474 727 483Q727 520 701 525Q693 526 682.5 531.0Q672 536 653 538Q618 543 587 543L580 542Q574 541 562.0 539.5Q550 538 533.0 536.5Q516 535 491.5 533.0Q467 531 439.0 529.5Q411 528 374.0 526.5Q337 525 298 525Q198 523 188 517Q183 513 183 499Q183 489 179 489Q176 489 176 451Q176 343 184 317Q189 303 201.5 293.0Q214 283 227 283Q236 283 245.0 278.5Q254 274 264 274Q277 274 311.5 278.5Q346 283 367 283Q380 283 423.0 281.5Q466 280 500 280Q563 280 617.5 283.5Q672 287 675 292Q679 298 686 294H690Q698 294 710.5 301.0Q723 308 727 315Q731 323 731 346Q731 363 728 374Z" transform="translate(0.00,958.33) scale(0.9583,-0.9583)" fill="#000000" />
  <path d="M390 744Q397 744 399.5 747.5Q402 751 404.0 754.5Q406 758 421.5 761.5Q437 765 466 765Q507 765 518 760Q525 757 566.0 748.5Q607 740 638 719Q668 700 672 690Q682 674 692.0 650.5Q702 627 702 622Q702 620 706.0 609.5Q710 599 714.0 578.5Q718 558 718 532Q718 499 692.5 464.0Q667 429 640 419Q627 413 627 410Q627 408 646.0 391.0Q665 374 665 367Q665 358 674 353Q683 348 692.5 329.5Q702 311 705 292Q708 279 715.0 194.0Q722 109 723 98Q727 82 722 65Q719 56 716.0 53.5Q713 51 702 52Q686 54 671 61Q664 65 661.0 68.0Q658 71 655.0 85.5Q652 100 651.0 118.5Q650 137 648 182Q647 254 642 271Q636 292 629.0 305.0Q622 318 618.0 321.5Q614 325 611.0 327.5Q608 330 608 333Q608 337 606.0 339.0Q604 341 594.5 346.0Q585 351 575 359L558 372L501 369Q463 367 451.0 364.5Q439 362 429 355Q413 343 392 329Q369 313 364 303Q362 296 357.5 289.0Q353 282 350.0 278.0Q347 274 347 272Q347 271 348 270Q352 266 344 259Q341 255 337.5 227.5Q334 200 331.5 175.5Q329 151 329 149Q329 146 333.0 128.5Q337 111 337 104Q337 79 305 79Q292 79 279.0 84.5Q266 90 266 97Q266 100 256.5 111.0Q247 122 247 132Q247 145 231.5 176.0Q216 207 202 220Q175 247 175 267Q175 280 180.0 284.5Q185 289 195 289Q216 289 224.5 284.5Q233 280 250 261Q270 239 275 239Q284 240 284 255Q284 279 314 337Q328 364 335.0 372.0Q342 380 363 391Q376 398 382.0 402.0Q388 406 390.0 410.0Q392 414 387.5 416.5Q383 419 372 421Q354 426 331.5 448.5Q309 471 306 489Q306 493 298.0 512.0Q290 531 283.5 555.5Q277 580 277 603Q277 622 286.0 650.0Q295 678 305 686Q312 692 312 700Q312 703 311.0 708.5Q310 714 310 717Q310 730 330.0 739.0Q350 748 367 748Q376 748 381.0 746.0Q386 744 390 744ZM646 587Q646 592 636.5 606.5Q627 621 627 631Q627 643 614 652Q606 658 596.5 665.5Q587 673 581 676Q564 685 504.0 696.0Q444 707 422 707Q404 707 388.5 695.0Q373 683 366.5 672.0Q360 661 360 659Q360 655 349.0 637.5Q338 620 338 608Q338 574 352.5 533.0Q367 492 382 490Q391 489 399.5 480.5Q408 472 420.0 464.5Q432 457 450 457Q485 457 546.0 466.5Q607 476 620 484Q636 493 646.5 515.0Q657 537 657 556Q657 567 651.5 574.0Q646 581 646 587Z" transform="translate(942.50,958.33) scale(0.9583,-0.9583)" fill="#000000" />
</svg>
