<?xml version="1.0" encoding="UTF-8" standalone="no"?>
<!--
Representation of "tomo pi wawa telo" in sitelen ilo pona
Generated by generate_sitelen_kalama_pona.py

Description:
  Representation of "tomo pi wawa telo" in sitelen ilo pona.
  Sources: tomo: https://commons.wikimedia.org/wiki/File:Sitelen_seli_kiwen_-_tomo.svg; pi: https://commons.wikimedia.org/wiki/File:Sitelen_seli_kiwen_-_pi.svg; wawa: https://commons.wikimedia.org/wiki/File:Sitelen_seli_kiwen_-_wawa.svg; telo: https://commons.wikimedia.org/wiki/File:Sitelen_seli_kiwen_-_telo.svg

Categories:
  [[Category:Sitelen kalama pona]]
  [[Category:Toki Pona text containing tomo pi wawa telo]]

Sources:
  tomo: https://commons.wikimedia.org/wiki/File:Sitelen_seli_kiwen_-_tomo.svg
  pi: https://commons.wikimedia.org/wiki/File:Sitelen_seli_kiwen_-_pi.svg
  wawa: https://commons.wikimedia.org/wiki/File:Sitelen_seli_kiwen_-_wawa.svg
  telo: https://commons.wikimedia.org/wiki/File:Sitelen_seli_kiwen_-_telo.svg
-->
<svg version="1.1" width="3690" height="1000"
     viewBox="0 0 3690 1000"
     xmlns="http://www.w3.org/2000/svg">
  <path d="M126 137Q126 137 126 151Q126 160 128.0 169.0Q130 178 130 182Q130 184 128 192Q124 208 122.5 266.0Q121 324 120.5 375.0Q120 426 117 430Q116 433 116.0 443.5Q116 454 112 461Q111 462 111 465Q111 475 128.0 489.0Q145 503 157 503Q168 503 179.0 512.5Q190 522 195.5 531.0Q201 540 201 541Q201 543 207.5 547.0Q214 551 225.5 560.5Q237 570 246 583Q256 596 275.5 611.5Q295 627 309.0 637.5Q323 648 323 651Q323 655 332.5 662.5Q342 670 342 675Q342 681 349 681Q354 681 363.5 694.0Q373 707 385.5 720.0Q398 733 410 733Q419 733 432.5 742.5Q446 752 454 752Q466 752 483.0 737.5Q500 723 513.5 708.5Q527 694 530 694Q533 694 533.5 693.5Q534 693 534 691Q534 688 567.0 666.5Q600 645 600 641Q600 638 614.0 630.5Q628 623 650.0 609.5Q672 596 687 581Q711 559 733.0 540.5Q755 522 758 522Q762 522 767.5 520.5Q773 519 781.5 511.0Q790 503 788 489Q788 472 787.0 440.0Q786 408 784.0 374.0Q782 340 780.5 309.0Q779 278 777.5 257.5Q776 237 776 236Q776 221 777.5 199.5Q779 178 780.5 159.0Q782 140 784.0 123.0Q786 106 787.0 95.0Q788 84 788 84Q788 75 777 64Q766 54 748.0 51.5Q730 49 647 49Q529 49 475.0 55.5Q421 62 370 62Q237 62 161 46Q147 43 129 58Q119 67 116.0 72.5Q113 78 113 89Q113 114 119.5 120.0Q126 126 126 137ZM291 124Q320 124 351.5 123.0Q383 122 408.5 121.0Q434 120 455.0 118.5Q476 117 488.5 116.0Q501 115 501 115Q506 115 513.5 116.5Q521 118 544.5 119.5Q568 121 609 121Q674 122 698.5 124.5Q723 127 723 134Q723 134 722.5 136.5Q722 139 721.0 144.0Q720 149 718.5 156.0Q717 163 715.5 172.5Q714 182 713.0 193.0Q712 204 711.0 217.5Q710 231 710 245Q710 259 711.5 276.5Q713 294 715.0 310.0Q717 326 719.5 339.5Q722 353 723.0 361.5Q724 370 724 370Q724 374 720.0 399.5Q716 425 715.5 444.0Q715 463 712.0 469.5Q709 476 696 487Q693 490 686.0 496.0Q679 502 674.0 506.5Q669 511 666 514Q650 530 618.0 551.5Q586 573 578 580Q561 597 555 597Q552 597 548.0 600.5Q544 604 535.0 610.5Q526 617 514 623Q501 629 473.5 648.0Q446 667 438 667Q429 667 404.0 643.5Q379 620 376 620Q374 620 362.5 606.0Q351 592 346 592Q340 592 301.0 553.5Q262 515 262 507Q262 503 253 503Q245 503 239 494Q237 489 227.0 477.5Q217 466 209.5 452.5Q202 439 199 424Q196 404 188 402Q184 400 182.0 389.5Q180 379 180 344Q180 267 186.5 249.0Q193 231 193 197Q193 151 200.0 136.0Q207 121 237 121Q241 121 256.5 122.5Q272 124 291 124Z" transform="translate(0.00,958.33) scale(0.9583,-0.9583)" fill="#000000" />
  <path d="M178 600Q178 613 172.0 629.5Q166 646 166 651Q166 660 178 675Q187 686 191.5 688.0Q196 690 206 688Q221 685 228.5 675.5Q236 666 237.0 657.5Q238 649 238 634V602Q238 561 244.0 524.5Q250 488 250 466Q250 451 248.0 418.5Q246 386 246 369Q246 369 246.0 367.0Q246 365 246.5 361.5Q247 358 247.5 353.0Q248 348 248.0 339.5Q248 331 248.5 321.0Q249 311 249.5 296.5Q250 282 250 266Q250 179 252 177Q260 168 392 168Q392 168 438.0 168.0Q484 168 532.0 168.5Q580 169 584 169Q698 169 704 167Q710 164 716 164Q722 163 728.0 144.5Q734 126 734 111Q734 109 733.0 103.5Q732 98 727.5 90.5Q723 83 716 83Q714 83 683.5 92.5Q653 102 624 102Q612 102 594.0 100.0Q576 98 562 98Q562 98 558.5 98.5Q555 99 548.0 99.5Q541 100 532.0 100.5Q523 101 510.5 101.5Q498 102 486 102Q485 102 480.5 102.0Q476 102 469.0 101.5Q462 101 454.5 100.5Q447 100 439.5 100.0Q432 100 428 100Q344 100 230 92L190 90L184 104Q180 114 180 131Q180 157 185.0 176.5Q190 196 190 218Q190 218 190.0 225.0Q190 232 190.0 242.5Q190 253 189.5 264.5Q189 276 188.5 287.0Q188 298 188 304Q188 326 190.0 374.0Q192 422 192 441Q192 517 178 540Q176 543 177.0 544.0Q178 545 180.0 545.5Q182 546 182.5 549.5Q183 553 180 562Q176 571 176 578Q176 581 177.0 588.5Q178 596 178 600Z" transform="translate(942.50,958.33) scale(0.9583,-0.9583)" fill="#000000" />
  <path d="M442 37Q439 37 431.0 40.5Q423 44 415.0 44.0Q407 44 393.0 52.5Q379 61 373 61Q365 61 348.0 72.0Q331 83 331 88Q331 92 324.0 100.5Q317 109 315.0 121.0Q313 133 305.5 142.0Q298 151 298 154Q298 159 296.0 161.0Q294 163 292.0 164.0Q290 165 288.0 173.0Q286 181 286 198Q286 244 290.5 272.0Q295 300 300.5 310.0Q306 320 317 335Q336 362 336 367Q336 378 386.5 424.0Q437 470 466 470Q482 470 508 453Q530 439 545.0 419.5Q560 400 587 349Q619 289 619 259Q619 250 615.5 206.5Q612 163 608 162Q603 160 603 151Q603 145 598 140Q597 139 597.0 128.0Q597 117 538 72Q506 48 488 48Q474 48 460.0 42.5Q446 37 442 37ZM346 219Q346 212 350.5 196.5Q355 181 355 174Q355 170 380 143L406 115H443Q478 116 503.0 132.0Q528 148 528 152Q528 154 537.5 158.5Q547 163 547 173Q547 175 552.5 192.0Q558 209 558 236Q558 300 538 315Q527 323 511.0 353.5Q495 384 476 392Q457 399 452 399Q444 399 435.5 390.5Q427 382 391 335Q354 287 354 258Q354 245 350.0 234.5Q346 224 346 219ZM764 381Q764 380 765.0 377.0Q766 374 766.0 373.0Q766 372 764.0 368.5Q762 365 760.0 357.5Q758 350 758 337Q755 205 734 200Q725 198 725 193Q725 191 718 191Q669 191 669 223Q669 236 678 256Q692 284 697.0 340.5Q702 397 706 402Q708 405 712.0 430.0Q716 455 720 459Q725 465 732.5 509.0Q740 553 744.0 557.0Q748 561 748 571Q748 577 758.0 599.5Q768 622 770 643Q773 684 782.5 701.0Q792 718 813 718Q830 718 847.5 700.5Q865 683 865 673Q865 666 857 664Q850 662 836.0 635.0Q822 608 821 593Q820 584 799.5 513.0Q779 442 778 434Q776 417 772.5 405.0Q769 393 766.5 388.0Q764 383 764 381ZM35 711Q35 725 45.0 735.5Q55 746 67 746Q87 746 101.0 716.5Q115 687 115 673Q115 662 162.0 548.5Q209 435 209 428Q209 417 214 409L223 391Q226 385 231.0 345.0Q236 305 241 294Q245 286 247.0 269.0Q249 252 250.5 232.0Q252 212 252 208Q253 200 249.5 198.0Q246 196 227 196Q201 196 196 201Q192 205 188.5 235.5Q185 266 184 268Q183 269 175.0 314.5Q167 360 154.0 411.5Q141 463 127 480Q124 484 112.5 511.5Q101 539 101 541Q101 546 93.0 564.5Q85 583 85 587Q85 596 79.0 599.0Q73 602 73 606Q73 609 54.0 651.5Q35 694 35 711Z" transform="translate(1885.00,958.33) scale(0.9583,-0.9583)" fill="#000000" />
  <path d="M554 195Q544 195 534.5 194.0Q525 193 521.5 192.5Q518 192 513 191Q506 189 506 193Q506 198 496 198Q488 198 475.5 205.0Q463 212 450 215Q436 218 415.0 227.5Q394 237 394 241Q394 250 354.0 256.5Q314 263 302 263Q288 263 254.0 245.5Q220 228 220 221Q220 217 214 217Q211 217 202.0 210.0Q193 203 178 203Q156 203 152 214Q152 217 154 217Q156 218 154.0 219.0Q152 220 149.0 226.0Q146 232 146 238Q146 249 171.0 272.0Q196 295 224 308Q237 315 246.0 318.0Q255 321 275.0 324.0Q295 327 324 327Q341 327 347.5 325.5Q354 324 364.0 319.5Q374 315 392 311Q411 306 426.0 297.5Q441 289 449.5 282.0Q458 275 487.5 270.0Q517 265 566 265Q598 265 622.0 274.5Q646 284 655.0 292.0Q664 300 664 302Q667 311 670.5 311.0Q674 311 693.0 329.5Q712 348 732 348Q745 348 753.0 341.5Q761 335 762.5 330.5Q764 326 764 323Q764 302 740.5 267.5Q717 233 698 233Q689 233 685.5 232.0Q682 231 681.0 229.5Q680 228 674.5 224.0Q669 220 658 215Q640 206 632 197Q622 187 604 191Q579 195 554 195ZM170 424Q163 424 149.5 441.0Q136 458 136 473Q136 486 151.5 508.0Q167 530 178 534Q193 540 204 549Q221 563 254.5 572.5Q288 582 304 582Q326 582 373.5 560.0Q421 538 430 528Q436 522 444 522Q446 522 477.5 506.0Q509 490 536 490Q614 490 638 520Q644 528 657.0 534.0Q670 540 680 540Q690 540 690 534Q690 529 704.0 522.5Q718 516 718 512Q717 497 710.0 489.5Q703 482 696.5 480.0Q690 478 690 475Q690 470 682 470Q677 470 672.0 463.0Q667 456 658 454Q648 452 648.0 447.0Q648 442 642 442Q637 442 616.5 432.0Q596 422 557.5 422.0Q519 422 504.0 426.5Q489 431 482 431Q470 431 424.5 457.5Q379 484 374 484Q368 484 342.5 498.0Q317 512 302 512Q270 512 246.0 498.0Q222 484 211.0 468.0Q200 452 189.0 438.0Q178 424 170 424Z" transform="translate(2827.50,958.33) scale(0.9583,-0.9583)" fill="#000000" />
</svg>
