<?xml version="1.0" encoding="UTF-8" standalone="no"?>
<!--
Representation of "musi lili" in sitelen ilo pona
Generated by generate_sitelen_kalama_pona.py

Description:
  Representation of "musi lili" in sitelen ilo pona.
  Sources: musi-lili: https://commons.wikimedia.org/wiki/File:Sitelen_seli_kiwen_-_musi-lili.svg

Categories:
  [[Category:Sitelen kalama pona]]
  [[Category:Toki Pona text containing musi lili]]

Sources:
  musi-lili: https://commons.wikimedia.org/wiki/File:Sitelen_seli_kiwen_-_musi-lili.svg
-->
<svg version="1.1" width="862" height="1000"
     viewBox="0 0 862 1000"
     xmlns="http://www.w3.org/2000/svg">
  <path d="M412 305Q412 311 402.0 324.5Q392 338 392 346Q392 358 401.5 365.0Q411 372 420 372Q426 372 426 369Q426 366 442.0 346.5Q458 327 458 324Q458 313 473 326Q477 330 482 335Q507 367 522 367Q534 367 541.0 359.5Q548 352 548 341Q548 324 536.0 311.0Q524 298 512.0 291.0Q500 284 500 282Q500 277 485.5 264.5Q471 252 464 252Q452 252 441.5 263.0Q431 274 424.5 285.5Q418 297 416 297Q412 297 412 305ZM706 279Q706 281 720.0 313.5Q734 346 734 362Q734 363 732.0 368.0Q730 373 728.0 384.5Q726 396 726 415Q726 428 710.5 457.5Q695 487 680 487Q677 487 674 485Q665 480 622 480Q588 480 557.5 487.5Q527 495 522 505Q521 506 514.5 515.5Q508 525 504 530Q484 555 484 576Q484 604 493.5 629.0Q503 654 511.0 664.5Q519 675 534 692Q552 711 581.0 722.0Q610 733 624.5 734.5Q639 736 646 736Q698 736 730 706Q738 697 742 695Q747 693 758 670L768 648L760 607Q754 573 746.0 560.0Q738 547 738 542Q738 534 748.5 516.5Q759 499 770.5 471.0Q782 443 784 412Q784 398 786.0 388.5Q788 379 789.0 374.5Q790 370 790 368Q790 349 779.5 315.5Q769 282 769 276Q769 274 769.5 272.5Q770 271 770 269Q770 260 751.0 230.5Q732 201 732 195Q731 190 710.5 168.5Q690 147 656.0 124.5Q622 102 594 99Q588 98 569.5 93.0Q551 88 527.0 84.0Q503 80 478 80Q470 80 444.0 81.0Q418 82 379.5 85.0Q341 88 332 92Q326 94 317.5 98.0Q309 102 305.5 103.5Q302 105 296.0 107.5Q290 110 287.5 111.5Q285 113 281.0 115.0Q277 117 275.0 118.5Q273 120 270.0 122.5Q267 125 264.5 127.0Q262 129 260 132Q210 185 210 195Q210 202 206 204Q205 204 205 204Q201 207 197.0 211.0Q193 215 183.5 227.0Q174 239 167.0 254.0Q160 269 155.0 294.5Q150 320 150 350Q150 402 154 402Q156 402 162 432Q163 441 160.5 445.0Q158 449 148 456Q130 467 124.5 475.0Q119 483 114 506Q110 521 110 532Q110 538 112.0 552.5Q114 567 127.5 598.5Q141 630 164 653Q172 661 173.0 663.0Q174 665 174 673Q174 681 184.5 692.0Q195 703 204 705Q226 709 242 709Q267 709 274.0 704.5Q281 700 286 700Q305 700 352 663Q385 638 393.5 623.5Q402 609 402 572Q402 532 394 517Q376 488 343.0 463.0Q310 438 290 438Q281 438 263.0 430.0Q245 422 236 414Q229 406 221.5 381.5Q214 357 214 321Q214 298 218 295Q223 293 232 272Q239 258 264.0 230.5Q289 203 296 203Q298 203 298 197Q298 189 305.0 185.5Q312 182 325.0 177.0Q338 172 346 164Q357 154 369.0 153.0Q381 152 484 150Q486 150 488 150Q507 150 516.5 157.0Q526 164 530 164Q533 164 538 163Q541 162 545 162Q556 162 579.0 168.5Q602 175 608 175Q609 175 610 175Q617 173 626.5 180.5Q636 188 636 194Q636 200 653.0 207.0Q670 214 670 222Q670 231 678 236Q685 240 695.5 256.0Q706 272 706 279ZM702 622Q702 634 701.5 640.0Q701 646 696.5 655.0Q692 664 679.5 668.0Q667 672 648 672Q632 672 620.0 667.5Q608 663 608 656Q608 650 588 643Q570 637 564.5 631.0Q559 625 554 606Q550 595 550 587Q550 577 558.0 569.0Q566 561 576.0 556.5Q586 552 598.0 549.5Q610 547 616.5 546.5Q623 546 624 546Q642 546 672 575Q693 595 697.5 602.0Q702 609 702 622ZM340 576Q340 590 327.5 604.5Q315 619 303.0 626.5Q291 634 288 634Q282 634 265.0 641.0Q248 648 247 648Q238 648 231.0 640.5Q224 633 217.5 621.5Q211 610 206 606Q196 595 196 589Q196 586 186.0 573.0Q176 560 176 541Q176 529 180 524Q183 519 198.5 511.0Q214 503 220 503Q224 503 229.5 498.0Q235 493 252 493Q263 493 272.5 497.5Q282 502 302 517Q328 537 334.0 546.5Q340 556 340 576Z" transform="translate(0.00,958.33) scale(0.9583,-0.9583)" fill="#000000" />
</svg>
