<?xml version="1.0" encoding="UTF-8" standalone="no"?>
<!--
Representation of "nasin sewi pi jan Mani" in sitelen kalama pona
Generated by generate_sitelen_kalama_pona.py

Description:
  Representation of "nasin sewi pi jan Mani" in sitelen kalama pona.
  Sources: nasin: https://commons.wikimedia.org/wiki/File:Sitelen_seli_kiwen_-_nasin.svg; sewi: https://commons.wikimedia.org/wiki/File:Sitelen_seli_kiwen_-_sewi.svg; pi: https://commons.wikimedia.org/wiki/File:Sitelen_seli_kiwen_-_pi.svg; jan: https://commons.wikimedia.org/wiki/File:Sitelen_seli_kiwen_-_jan.svg; ma: https://commons.wikimedia.org/wiki/File:Sitelen_kalama_pona_-_ma.svg; ni: https://commons.wikimedia.org/wiki/File:Sitelen_kalama_pona_-_ni.svg

Categories:
  [[Category:Sitelen kalama pona]]
  [[Category:Toki Pona text containing nasin sewi pi jan]]
  [[Category:Toki Pona text containing sound symbol Ma]]
  [[Category:Toki Pona text containing sound symbol Ni]]

Sources:
  nasin: https://commons.wikimedia.org/wiki/File:Sitelen_seli_kiwen_-_nasin.svg
  sewi: https://commons.wikimedia.org/wiki/File:Sitelen_seli_kiwen_-_sewi.svg
  pi: https://commons.wikimedia.org/wiki/File:Sitelen_seli_kiwen_-_pi.svg
  jan: https://commons.wikimedia.org/wiki/File:Sitelen_seli_kiwen_-_jan.svg
  ma: https://commons.wikimedia.org/wiki/File:Sitelen_kalama_pona_-_ma.svg
  ni: https://commons.wikimedia.org/wiki/File:Sitelen_kalama_pona_-_ni.svg
-->
<svg version="1.1" width="6990" height="1000"
     viewBox="0 0 6990 1000"
     xmlns="http://www.w3.org/2000/svg">
  <path d="M428 210Q428 226 424.0 300.5Q420 375 416 375Q412 375 396.0 361.5Q380 348 378 348Q376 348 353.0 334.0Q330 320 328 320Q322 320 320 312Q318 304 308.0 301.0Q298 298 292 304Q285 311 274 314Q260 317 260 329Q260 354 310 380Q328 389 358.0 411.0Q388 433 388 438Q388 440 404 459L422 477L418 552Q412 678 412 679Q412 694 423.0 706.5Q434 719 448 719Q469 719 476 693Q482 677 480 673Q472 664 472 578V562Q473 500 474.5 488.5Q476 477 484 473Q493 470 502 456Q510 445 546.5 412.5Q583 380 612 358Q629 345 634.5 336.0Q640 327 640 310Q640 291 620 291Q597 291 582 308Q570 321 537.0 348.0Q504 375 492 382Q486 385 482 385Q474 385 474 359Q474 342 474 330Q476 306 477.0 248.5Q478 191 484 156Q488 131 488 111Q488 81 472 81Q462 81 462 86Q462 92 446 90Q434 89 430.0 91.0Q426 93 420 102Q412 116 415.5 123.0Q419 130 423.5 161.0Q428 192 428 210Z" transform="translate(0.00,958.33) scale(0.9583,-0.9583)" fill="#000000" />
  <path d="M550 540Q550 563 560.5 570.0Q571 577 591 577Q605 577 608.0 564.0Q611 551 611 492Q611 457 609.5 437.5Q608 418 606.5 414.0Q605 410 603.5 406.0Q602 402 602 395Q596 290 590 288Q588 287 588.5 283.0Q589 279 589.5 276.5Q590 274 587 273Q581 273 575 205Q574 196 556.5 165.0Q539 134 531 129Q525 125 510 113Q500 105 480 105Q413 105 374 161L366 173L354 159Q342 145 342 137Q342 124 317.0 113.0Q292 102 268 102Q248 102 248 108Q248 112 232 123L216 134L200 122Q183 109 169 109Q164 109 152.0 111.5Q140 114 131 115Q117 117 107.5 126.0Q98 135 94.5 143.0Q91 151 90 151H88Q82 151 82 157Q82 165 91.0 176.0Q100 187 108 187Q109 187 112.5 185.5Q116 184 123.5 182.0Q131 180 143 180Q161 180 166.5 182.0Q172 184 178 196Q187 210 187 220Q187 223 189.5 230.5Q192 238 202.0 248.0Q212 258 228 258Q240 258 247.0 248.5Q254 239 255.5 231.5Q257 224 257 217Q257 216 256.5 213.5Q256 211 256.0 210.0Q256 209 255.5 207.0Q255 205 255 204Q255 193 262.0 185.5Q269 178 276 177L283 175Q292 175 300.5 189.0Q309 203 313.0 217.0Q317 231 315 231Q312 231 318 235Q323 238 328.5 273.0Q334 308 334 332Q334 346 342.5 357.5Q351 369 358 369Q363 369 366.5 364.0Q370 359 370 355Q370 348 375.0 348.0Q380 348 380 353Q380 362 390 357Q394 354 396 349Q397 347 397 329Q397 314 396.5 300.5Q396 287 395.5 277.0Q395 267 394.5 259.0Q394 251 393.5 246.0Q393 241 392.5 237.5Q392 234 391.5 232.0Q391 230 391 230Q391 227 416 195Q422 188 437.5 183.0Q453 178 463.0 177.0Q473 176 476 176Q488 176 499.5 186.5Q511 197 513 209Q515 219 519.0 228.5Q523 238 524 249Q524 251 531.5 279.0Q539 307 546.0 353.5Q553 400 553 448Q553 494 548 494Q545 494 545 495Q545 495 546.5 498.0Q548 501 549.0 507.0Q550 513 550 521ZM763 739Q795 739 795 690Q795 690 794.5 679.5Q794 669 794.0 652.5Q794 636 793.5 617.0Q793 598 792.5 578.5Q792 559 792 546Q793 519 793 513Q793 465 790.5 430.0Q788 395 788 387V294Q788 261 795.0 201.0Q802 141 802 131Q802 120 803.5 116.0Q805 112 811 111Q820 108 817 100Q814 94 813.0 76.5Q812 59 807.5 47.5Q803 36 791 36Q783 36 771 42Q759 48 755.0 53.5Q751 59 749 74Q735 162 735 278Q735 298 737.5 388.5Q740 479 742 483Q744 487 741.0 502.0Q738 517 740 519Q741 520 741 545Q741 572 740.5 595.0Q740 618 738.5 633.5Q737 649 736.0 661.5Q735 674 733.5 681.5Q732 689 730.5 694.0Q729 699 728.5 701.5Q728 704 728 704Q728 717 739.0 728.0Q750 739 763 739Z" transform="translate(942.50,958.33) scale(0.9583,-0.9583)" fill="#000000" />
  <path d="M178 600Q178 613 172.0 629.5Q166 646 166 651Q166 660 178 675Q187 686 191.5 688.0Q196 690 206 688Q221 685 228.5 675.5Q236 666 237.0 657.5Q238 649 238 634V602Q238 561 244.0 524.5Q250 488 250 466Q250 451 248.0 418.5Q246 386 246 369Q246 369 246.0 367.0Q246 365 246.5 361.5Q247 358 247.5 353.0Q248 348 248.0 339.5Q248 331 248.5 321.0Q249 311 249.5 296.5Q250 282 250 266Q250 179 252 177Q260 168 392 168Q392 168 438.0 168.0Q484 168 532.0 168.5Q580 169 584 169Q698 169 704 167Q710 164 716 164Q722 163 728.0 144.5Q734 126 734 111Q734 109 733.0 103.5Q732 98 727.5 90.5Q723 83 716 83Q714 83 683.5 92.5Q653 102 624 102Q612 102 594.0 100.0Q576 98 562 98Q562 98 558.5 98.5Q555 99 548.0 99.5Q541 100 532.0 100.5Q523 101 510.5 101.5Q498 102 486 102Q485 102 480.5 102.0Q476 102 469.0 101.5Q462 101 454.5 100.5Q447 100 439.5 100.0Q432 100 428 100Q344 100 230 92L190 90L184 104Q180 114 180 131Q180 157 185.0 176.5Q190 196 190 218Q190 218 190.0 225.0Q190 232 190.0 242.5Q190 253 189.5 264.5Q189 276 188.5 287.0Q188 298 188 304Q188 326 190.0 374.0Q192 422 192 441Q192 517 178 540Q176 543 177.0 544.0Q178 545 180.0 545.5Q182 546 182.5 549.5Q183 553 180 562Q176 571 176 578Q176 581 177.0 588.5Q178 596 178 600Z" transform="translate(1885.00,958.33) scale(0.9583,-0.9583)" fill="#000000" />
  <path d="M342 672Q345 672 355.5 678.0Q366 684 393.0 690.5Q420 697 463 697Q487 697 550 690Q586 686 595.0 682.5Q604 679 619 663Q641 641 641 638Q641 634 648.0 634.0Q655 634 655 630Q655 626 676.0 610.0Q697 594 697 591Q697 589 703.0 576.5Q709 564 715.5 548.0Q722 532 723 521Q727 503 730 501Q734 498 734 448Q734 420 733.0 405.0Q732 390 730.0 388.0Q728 386 726.5 383.0Q725 380 725 374Q725 365 718.0 357.5Q711 350 711 346Q711 341 680.5 301.0Q650 261 650.0 257.0Q650 253 676.0 224.5Q702 196 702 194Q702 192 718.0 172.5Q734 153 734 146Q734 140 751.5 119.5Q769 99 769 85Q769 50 748 50Q726 50 715.0 59.0Q704 68 704 77Q704 82 686.5 103.0Q669 124 668 126Q663 140 624.0 182.5Q585 225 577 225Q577 225 574.5 222.5Q572 220 563.0 216.0Q554 212 538 210Q532 209 525.0 206.5Q518 204 504.5 202.5Q491 201 465 201Q413 201 370.5 206.0Q328 211 320 211Q307 211 291.5 190.0Q276 169 272 167Q266 166 266 156Q266 151 264.0 148.0Q262 145 256.5 139.5Q251 134 245 126Q240 118 229.5 105.5Q219 93 211.5 83.0Q204 73 202 66Q199 51 194 51Q187 51 163.0 56.5Q139 62 136 64Q133 67 131 85Q130 97 132.5 102.0Q135 107 145 115Q167 132 186.0 152.0Q205 172 209 184Q209 186 224.0 215.5Q239 245 242 247Q246 250 246.0 253.0Q246 256 234.5 264.0Q223 272 221.5 278.0Q220 284 202.0 305.5Q184 327 184 329Q184 331 177 340Q170 347 161.5 378.0Q153 409 153 427Q153 427 153.5 432.5Q154 438 154.0 445.5Q154 453 154 458Q154 475 173.5 510.5Q193 546 200 549Q213 554 226.5 578.0Q240 602 242 602Q244 602 288.0 637.0Q332 672 342 672ZM567 616Q544 628 527.0 631.0Q510 634 457 634Q428 634 416.0 627.5Q404 621 388 621Q353 621 308.5 590.0Q264 559 232.5 514.5Q201 470 201 435Q201 422 210.0 408.5Q219 395 219 390Q219 383 239.0 360.5Q259 338 268 334Q276 331 285.5 317.0Q295 303 301 302Q311 300 327.5 292.5Q344 285 351 278Q363 268 407.0 262.0Q451 256 483 256Q514 256 540.0 266.0Q566 276 579.5 286.5Q593 297 594 297Q600 297 611.0 306.0Q622 315 622 320Q622 322 624.5 324.0Q627 326 631.0 329.0Q635 332 643.0 344.0Q651 356 660 375Q672 399 675.0 409.0Q678 419 678 433Q678 455 675.0 471.0Q672 487 668.0 496.5Q664 506 653 528Q641 554 632.0 566.5Q623 579 619.0 579.5Q615 580 611.5 582.0Q608 584 604 591Q601 599 567 616Z" transform="translate(2827.50,958.33) scale(0.9583,-0.9583)" fill="#000000" />
  <path d="M 24.637998,12.488337 H 20.72216 q -1.48166,0 -2.54,-1.058333 -1.05833,-1.058333 -1.05833,-2.54 V 3.598338 q 0,-1.481667 1.05833,-2.54 Q 19.2405,4e-6 20.72216,4e-6 h 3.915838 V 0.846671 H 20.72216 q -1.13241,0 -1.94733,0.814917 -0.80433,0.804333 -0.80433,1.93675 v 5.291666 q 0,1.132417 0.80433,1.93675 0.81492,0.814917 1.94733,0.814917 h 3.915838 z" transform="translate(2398.81,0.00) scale(80.0747,80.0747)" fill="#000000" />
  <path d="M 75.014662,0.846671 V 4e-6 h 13.123333 v 0.846667 z m 0,11.641666 v -0.846666 h 13.123333 v 0.846666 z" transform="translate(-1635.08,0.00) scale(80.0747,80.0747)" fill="#000000" />
  <path d="M 75.014662,0.846671 V 4e-6 h 13.123333 v 0.846667 z m 0,11.641666 v -0.846666 h 13.123333 v 0.846666 z" transform="translate(-584.24,0.00) scale(80.0747,80.0747)" fill="#000000" />
  <path d="m 87.714667,4e-6 h 2.8575 q 1.481666,0 2.54,1.058334 1.058333,1.058333 1.058333,2.54 v 5.291666 q 0,1.481667 -1.058333,2.54 -1.058334,1.058333 -2.54,1.058333 h -2.8575 v -0.846666 h 2.8575 q 1.132416,0 1.93675,-0.814917 0.814916,-0.804333 0.814916,-1.93675 V 3.598338 q 0,-1.132417 -0.814916,-1.93675 -0.804334,-0.814917 -1.93675,-0.814917 h -2.8575 z" transform="translate(-550.34,0.00) scale(80.0747,80.0747)" fill="#000000" />
  <path d="M 522.00,558.00 C 522.00,558.14 521.73,566.22 521.73,572.30 C 521.73,584.12 522.48,594.41 525.00,603.00 L 477.02,617.06 C 472.64,602.14 471.66,587.63 471.66,574.12 C 471.66,568.77 471.81,563.59 471.97,558.60 C 471.09,547.25 470.72,536.08 470.72,525.05 C 470.72,464.30 482.14,406.66 482.14,348.98 C 482.14,342.62 482.00,338.85 482.00,338.00 C 482.00,336.47 482.27,333.61 482.27,327.81 C 482.27,232.28 405.65,104.59 308.07,100.98 C 287.06,100.20 287.06,100.20 286.79,100.20 C 199.98,100.20 129.26,141.64 97.83,286.69 C 74.28,395.40 79.55,527.94 71.91,622.04 L 22.09,617.99 L 22.09,617.96 C 29.63,525.03 24.03,391.17 48.98,276.04 C 66.30,196.08 112.34,50.25 287.76,50.25 C 317.75,50.25 377.94,50.25 441.13,113.44 C 497.05,169.35 532.28,252.44 532.28,327.17 C 532.28,330.91 532.19,334.63 532.01,338.33 C 532.10,341.97 532.14,345.60 532.14,349.21 C 532.14,410.00 520.73,467.35 520.73,525.49 C 520.73,542.54 522.00,557.67 522.00,558.00  Z M 503.68,361.35 C 513.06,336.93 546.33,255.47 629.36,255.47 C 636.20,255.47 643.24,256.04 650.48,257.24 C 753.85,268.91 788.18,355.43 802.57,401.96 C 828.62,486.23 830.28,589.08 848.98,652.94 C 849.66,655.24 850.00,657.62 850.00,660.00 L 850.00,708.00 L 800.00,708.00 L 800.00,663.53 C 773.06,567.33 779.47,405.33 712.11,337.97 C 695.42,321.28 674.43,310.14 644.27,306.85 C 630.12,305.30 630.12,305.30 628.03,305.30 C 609.34,305.30 595.54,312.49 582.92,325.11 C 560.64,347.39 543.89,390.03 533.87,437.20 C 521.40,495.81 518.69,558.66 517.28,592.44 C 516.12,620.45 515.90,625.72 508.15,633.47 C 505.02,636.59 498.32,640.84 490.10,640.84 C 487.33,640.84 467.92,639.96 464.28,615.73 C 462.26,602.27 461.58,587.67 461.58,572.31 C 461.58,555.15 462.43,537.03 463.22,518.46 C 464.06,498.61 464.87,478.30 464.87,458.73 C 464.87,367.02 445.25,331.52 402.27,324.87 C 397.57,324.56 393.02,324.40 388.63,324.40 C 352.32,324.40 276.29,332.40 250.66,463.04 C 244.69,493.49 242.38,526.44 242.38,558.52 C 242.38,583.23 243.75,607.44 245.88,629.63 L 196.12,634.41 C 193.85,610.78 192.32,584.90 192.32,558.14 C 192.32,473.76 207.33,379.47 263.75,323.05 C 294.19,292.61 336.34,274.45 389.51,274.45 C 428.86,274.45 481.87,289.08 503.68,361.35 Z" transform="translate(4497.12,100.00) scale(0.8000,0.8000)" fill="#000000" />
  <path d="M 474.34,104.34 C 474.49,104.33 475.05,104.30 475.85,104.30 C 478.10,104.30 480.15,104.54 482.03,104.91 C 483.35,104.83 485.02,104.73 487.04,104.73 C 521.74,104.73 522.55,132.59 522.55,135.21 C 522.55,137.88 522.21,140.31 521.70,142.49 C 521.83,147.38 522.26,149.86 522.26,154.03 C 522.26,180.65 504.37,190.15 489.71,190.15 C 486.01,190.15 482.51,189.63 479.50,188.93 C 476.61,188.98 473.81,189.13 470.84,189.13 C 449.83,189.13 441.65,182.14 437.34,177.83 C 430.73,171.23 427.88,161.97 427.88,153.61 C 427.88,153.45 427.88,153.30 427.88,153.14 C 427.57,150.66 427.42,148.21 427.42,145.78 C 427.42,121.84 442.42,88.73 472.05,85.18 L 474.34,104.34  Z M 323.00,494.91 C 323.00,568.75 342.00,664.06 342.00,678.00 L 342.00,710.00 L 292.00,710.00 L 292.00,679.66 C 290.37,667.36 288.62,655.00 286.85,642.57 C 280.06,594.88 272.99,546.02 272.99,495.42 C 272.99,485.73 273.25,475.97 273.82,466.14 C 271.03,453.63 269.72,441.43 269.72,429.62 C 269.72,324.96 371.67,252.82 474.34,252.82 C 484.93,252.82 495.49,253.59 505.92,255.16 C 713.64,272.30 723.43,515.14 723.43,625.09 C 723.43,651.13 722.00,707.55 721.99,708.38 L 672.01,707.62 C 672.02,706.80 673.39,652.31 673.39,626.34 C 673.39,450.27 636.84,315.63 501.02,304.92 C 500.39,304.87 499.76,304.79 499.13,304.70 C 491.31,303.48 483.31,302.89 475.25,302.89 C 401.47,302.89 319.58,352.45 319.58,428.82 C 319.58,447.80 324.00,457.29 324.00,464.00 C 324.00,466.26 323.00,476.76 323.00,494.91 Z" transform="translate(5547.97,100.00) scale(0.8000,0.8000)" fill="#000000" />
</svg>
