<?xml version="1.0" encoding="UTF-8" standalone="no"?>
<!--
Representation of "tonsi olin" in sitelen ilo pona
Generated by generate_sitelen_kalama_pona.py

Description:
  Representation of "tonsi olin" in sitelen ilo pona.
  Sources: tonsi: https://commons.wikimedia.org/wiki/File:Sitelen_seli_kiwen_-_tonsi.svg; olin: https://commons.wikimedia.org/wiki/File:Sitelen_seli_kiwen_-_olin.svg

Categories:
  [[Category:Sitelen kalama pona]]
  [[Category:Toki Pona text containing tonsi olin]]

Sources:
  tonsi: https://commons.wikimedia.org/wiki/File:Sitelen_seli_kiwen_-_tonsi.svg
  olin: https://commons.wikimedia.org/wiki/File:Sitelen_seli_kiwen_-_olin.svg
-->
<svg version="1.1" width="1805" height="1000"
     viewBox="0 0 1805 1000"
     xmlns="http://www.w3.org/2000/svg">
  <path d="M372 182Q366 182 349.0 190.0Q332 198 326 198Q319 198 290.5 213.0Q262 228 262 232Q262 234 252.0 238.0Q242 242 242 248Q242 255 240 255Q234 255 220 279Q205 305 203.0 345.0Q201 385 196 397Q192 410 196 416Q200 420 211.0 467.0Q222 514 227.5 522.0Q233 530 232.0 533.5Q231 537 220 545Q210 552 194.0 568.0Q178 584 164.5 595.5Q151 607 144 609Q128 614 112 623Q99 630 95.5 635.0Q92 640 92 652Q92 672 98.5 677.5Q105 683 126 683H130Q142 683 148.5 680.5Q155 678 156.0 675.0Q157 672 159.0 669.5Q161 667 166 667Q171 667 181.0 657.0Q191 647 205.5 634.0Q220 621 232 615Q262 599 268 594Q282 585 294 585Q308 585 318 598Q325 606 358.0 609.5Q391 613 396 617Q403 622 450 622Q492 622 524.0 611.0Q556 600 573.0 588.5Q590 577 596 577Q610 577 646.0 608.0Q682 639 684 639Q688 639 688 645Q688 647 702.5 660.0Q717 673 737.0 686.5Q757 700 770 700Q786 700 797.0 689.0Q808 678 808 665Q808 643 786 634Q774 629 748.5 610.5Q723 592 718 592Q714 592 706.0 580.5Q698 569 694 567Q688 564 688 557Q688 554 686.0 552.0Q684 550 680.5 548.5Q677 547 670.5 542.5Q664 538 658 531Q645 517 650 509Q680 454 680 388Q680 362 668.5 331.0Q657 300 647.5 284.5Q638 269 636 266Q631 263 626.0 253.5Q621 244 614.5 235.0Q608 226 586.5 214.5Q565 203 532 196Q498 189 492 182Q487 178 485.5 161.0Q484 144 484 90Q483 26 480.5 9.0Q478 -8 466 -8Q464 -8 459.5 -7.5Q455 -7 446.0 -4.5Q437 -2 429.5 1.5Q422 5 416.0 12.0Q410 19 410 28Q410 34 412 37Q415 53 410 57Q406 62 410 62Q415 62 419.5 77.0Q424 92 424 113V126Q420 166 415.0 174.5Q410 183 386 183Q382 183 377.5 182.5Q373 182 372 182ZM494 559H490Q486 559 472.5 563.5Q459 568 448 568Q421 568 384.5 550.0Q348 532 338 532Q338 532 336 532Q334 533 332 533H328Q303 533 278.5 492.0Q254 451 254 434Q254 428 258 428Q264 428 264 398V388Q264 358 270.0 338.5Q276 319 276 317V313Q276 307 290.0 298.0Q304 289 304 284Q304 279 312 275Q329 267 338 261Q361 247 436 247Q468 247 474 250Q485 254 524 264Q552 271 560.5 276.5Q569 282 586 303Q599 320 608.5 340.5Q618 361 618 375Q618 380 616 382Q615 386 618.5 396.5Q622 407 618 407Q614 410 614 422Q614 439 582 495Q577 505 557.0 523.0Q537 541 532 541Q530 541 515.0 550.0Q500 559 494 559Z" transform="translate(0.00,958.33) scale(0.9583,-0.9583)" fill="#000000" />
  <path d="M259 385Q267 396 279.5 399.0Q292 402 322 402H328L369 401L409 374Q447 348 455 340Q469 324 475 324Q482 324 495 337Q526 366 564 374Q566 374 580.5 378.5Q595 383 612 383Q679 383 694 342Q696 336 701.0 325.0Q706 314 708.5 305.0Q711 296 711 285Q711 254 701 244Q692 235 688 223Q685 214 660 187Q645 171 582 101Q575 94 575 89Q575 85 561 73Q548 61 543 52Q538 41 515 41Q476 41 464 69Q456 86 451 86Q448 86 420 110Q379 146 360 157Q353 160 327.0 183.5Q301 207 293 211Q281 216 272 223Q265 229 252.0 250.0Q239 271 237 279Q236 283 231.0 295.5Q226 308 226 318Q226 352 242 366Q256 380 259 385ZM507 259Q507 256 500.0 252.0Q493 248 487 248Q461 248 422 285Q393 312 343 329Q326 334 322 334Q315 334 308.0 325.0Q301 316 301 308Q301 296 318.0 279.5Q335 263 361.5 244.0Q388 225 393 220Q408 206 442.5 187.0Q477 168 492 153Q498 147 502 147Q508 147 524 163Q541 180 546 177Q548 176 549.0 176.5Q550 177 548 179Q545 183 557 192Q570 200 593.0 223.0Q616 246 616 251Q616 255 619 255Q628 255 628 285Q628 313 593 313Q577 313 560 306Q544 299 525.5 282.5Q507 266 507 259ZM220 602Q218 602 212.0 613.5Q206 625 203 625Q198 625 191.5 648.0Q185 671 185 683Q185 694 190.0 710.0Q195 726 201 733Q210 744 270 768Q284 774 292 774Q298 774 327.0 765.0Q356 756 361.0 756.0Q366 756 377.0 747.0Q388 738 392 738Q397 738 417 716Q437 696 451 696Q459 696 465.0 703.0Q471 710 487.5 720.5Q504 731 514 734Q595 757 606 757Q623 757 634.0 754.5Q645 752 650.0 749.5Q655 747 664.5 740.0Q674 733 683 728Q702 717 708.5 707.5Q715 698 715 679Q711 637 707.0 626.5Q703 616 686 598Q663 573 659 573Q654 573 631.5 547.5Q609 522 605 512Q600 500 578.0 490.0Q556 480 548 464Q542 449 533 443Q526 438 528 428Q530 419 515 402Q505 391 500.5 389.0Q496 387 487 389Q472 393 454 413Q441 427 427.5 439.0Q414 451 405.0 457.5Q396 464 377.0 477.5Q358 491 346 500Q310 527 304 527Q290 527 272.5 540.5Q255 554 242 573Q223 602 220 602ZM362 667Q362 672 328.0 685.5Q294 699 287 699Q278 699 271 692Q267 688 265.0 682.0Q263 676 263.5 671.5Q264 667 267 667Q272 667 275 655Q279 639 297.0 618.0Q315 597 329 592Q342 588 365 573Q387 559 389 559Q394 559 396.0 553.0Q398 547 411 543Q425 539 451 520Q473 503 479 503Q486 503 493 516Q506 541 542 566Q601 607 601 617Q601 620 620 639Q638 657 638 669Q638 677 634.0 678.5Q630 680 609 679Q594 679 534 670Q516 666 516 662Q516 657 503 644Q484 625 474 601Q466 583 438 583Q428 583 422.0 585.5Q416 588 414.0 591.0Q412 594 409.0 601.5Q406 609 404 612Q399 624 399 630Q399 638 380 651Q362 664 362 667Z" transform="translate(942.50,958.33) scale(0.9583,-0.9583)" fill="#000000" />
</svg>
