<?xml version="1.0" encoding="UTF-8" standalone="no"?>
<!--
Representation of "pali jan" in sitelen kalama pona
Generated by generate_sitelen_kalama_pona.py

Description:
  Representation of "pali jan" in sitelen kalama pona.
  Sources: pali: https://commons.wikimedia.org/wiki/File:Sitelen_seli_kiwen_-_pali.svg; jan: https://commons.wikimedia.org/wiki/File:Sitelen_seli_kiwen_-_jan.svg

Categories:
  [[Category:Toki Pona text containing pali jan]]

Sources:
  pali: https://commons.wikimedia.org/wiki/File:Sitelen_seli_kiwen_-_pali.svg
  jan: https://commons.wikimedia.org/wiki/File:Sitelen_seli_kiwen_-_jan.svg
-->
<svg version="1.1" width="1805" height="1000"
     viewBox="0 0 1805 1000"
     xmlns="http://www.w3.org/2000/svg">
  <path d="M390 744Q397 744 399.5 747.5Q402 751 404.0 754.5Q406 758 421.5 761.5Q437 765 466 765Q507 765 518 760Q525 757 566.0 748.5Q607 740 638 719Q668 700 672 690Q682 674 692.0 650.5Q702 627 702 622Q702 620 706.0 609.5Q710 599 714.0 578.5Q718 558 718 532Q718 499 692.5 464.0Q667 429 640 419Q627 413 627 410Q627 408 646.0 391.0Q665 374 665 367Q665 358 674 353Q683 348 692.5 329.5Q702 311 705 292Q708 279 715.0 194.0Q722 109 723 98Q727 82 722 65Q719 56 716.0 53.5Q713 51 702 52Q686 54 671 61Q664 65 661.0 68.0Q658 71 655.0 85.5Q652 100 651.0 118.5Q650 137 648 182Q647 254 642 271Q636 292 629.0 305.0Q622 318 618.0 321.5Q614 325 611.0 327.5Q608 330 608 333Q608 337 606.0 339.0Q604 341 594.5 346.0Q585 351 575 359L558 372L501 369Q463 367 451.0 364.5Q439 362 429 355Q413 343 392 329Q369 313 364 303Q362 296 357.5 289.0Q353 282 350.0 278.0Q347 274 347 272Q347 271 348 270Q352 266 344 259Q341 255 337.5 227.5Q334 200 331.5 175.5Q329 151 329 149Q329 146 333.0 128.5Q337 111 337 104Q337 79 305 79Q292 79 279.0 84.5Q266 90 266 97Q266 100 256.5 111.0Q247 122 247 132Q247 145 231.5 176.0Q216 207 202 220Q175 247 175 267Q175 280 180.0 284.5Q185 289 195 289Q216 289 224.5 284.5Q233 280 250 261Q270 239 275 239Q284 240 284 255Q284 279 314 337Q328 364 335.0 372.0Q342 380 363 391Q376 398 382.0 402.0Q388 406 390.0 410.0Q392 414 387.5 416.5Q383 419 372 421Q354 426 331.5 448.5Q309 471 306 489Q306 493 298.0 512.0Q290 531 283.5 555.5Q277 580 277 603Q277 622 286.0 650.0Q295 678 305 686Q312 692 312 700Q312 703 311.0 708.5Q310 714 310 717Q310 730 330.0 739.0Q350 748 367 748Q376 748 381.0 746.0Q386 744 390 744ZM646 587Q646 592 636.5 606.5Q627 621 627 631Q627 643 614 652Q606 658 596.5 665.5Q587 673 581 676Q564 685 504.0 696.0Q444 707 422 707Q404 707 388.5 695.0Q373 683 366.5 672.0Q360 661 360 659Q360 655 349.0 637.5Q338 620 338 608Q338 574 352.5 533.0Q367 492 382 490Q391 489 399.5 480.5Q408 472 420.0 464.5Q432 457 450 457Q485 457 546.0 466.5Q607 476 620 484Q636 493 646.5 515.0Q657 537 657 556Q657 567 651.5 574.0Q646 581 646 587Z" transform="translate(0.00,958.33) scale(0.9583,-0.9583)" fill="#000000" />
  <path d="M342 672Q345 672 355.5 678.0Q366 684 393.0 690.5Q420 697 463 697Q487 697 550 690Q586 686 595.0 682.5Q604 679 619 663Q641 641 641 638Q641 634 648.0 634.0Q655 634 655 630Q655 626 676.0 610.0Q697 594 697 591Q697 589 703.0 576.5Q709 564 715.5 548.0Q722 532 723 521Q727 503 730 501Q734 498 734 448Q734 420 733.0 405.0Q732 390 730.0 388.0Q728 386 726.5 383.0Q725 380 725 374Q725 365 718.0 357.5Q711 350 711 346Q711 341 680.5 301.0Q650 261 650.0 257.0Q650 253 676.0 224.5Q702 196 702 194Q702 192 718.0 172.5Q734 153 734 146Q734 140 751.5 119.5Q769 99 769 85Q769 50 748 50Q726 50 715.0 59.0Q704 68 704 77Q704 82 686.5 103.0Q669 124 668 126Q663 140 624.0 182.5Q585 225 577 225Q577 225 574.5 222.5Q572 220 563.0 216.0Q554 212 538 210Q532 209 525.0 206.5Q518 204 504.5 202.5Q491 201 465 201Q413 201 370.5 206.0Q328 211 320 211Q307 211 291.5 190.0Q276 169 272 167Q266 166 266 156Q266 151 264.0 148.0Q262 145 256.5 139.5Q251 134 245 126Q240 118 229.5 105.5Q219 93 211.5 83.0Q204 73 202 66Q199 51 194 51Q187 51 163.0 56.5Q139 62 136 64Q133 67 131 85Q130 97 132.5 102.0Q135 107 145 115Q167 132 186.0 152.0Q205 172 209 184Q209 186 224.0 215.5Q239 245 242 247Q246 250 246.0 253.0Q246 256 234.5 264.0Q223 272 221.5 278.0Q220 284 202.0 305.5Q184 327 184 329Q184 331 177 340Q170 347 161.5 378.0Q153 409 153 427Q153 427 153.5 432.5Q154 438 154.0 445.5Q154 453 154 458Q154 475 173.5 510.5Q193 546 200 549Q213 554 226.5 578.0Q240 602 242 602Q244 602 288.0 637.0Q332 672 342 672ZM567 616Q544 628 527.0 631.0Q510 634 457 634Q428 634 416.0 627.5Q404 621 388 621Q353 621 308.5 590.0Q264 559 232.5 514.5Q201 470 201 435Q201 422 210.0 408.5Q219 395 219 390Q219 383 239.0 360.5Q259 338 268 334Q276 331 285.5 317.0Q295 303 301 302Q311 300 327.5 292.5Q344 285 351 278Q363 268 407.0 262.0Q451 256 483 256Q514 256 540.0 266.0Q566 276 579.5 286.5Q593 297 594 297Q600 297 611.0 306.0Q622 315 622 320Q622 322 624.5 324.0Q627 326 631.0 329.0Q635 332 643.0 344.0Q651 356 660 375Q672 399 675.0 409.0Q678 419 678 433Q678 455 675.0 471.0Q672 487 668.0 496.5Q664 506 653 528Q641 554 632.0 566.5Q623 579 619.0 579.5Q615 580 611.5 582.0Q608 584 604 591Q601 599 567 616Z" transform="translate(942.50,958.33) scale(0.9583,-0.9583)" fill="#000000" />
</svg>
