<?xml version="1.0" encoding="UTF-8" standalone="no"?>
<!--
Representation of "ma Northern Territory" in sitelen kalama pona
Generated by generate_sitelen_kalama_pona.py

Description:
  Representation of "ma Northern Territory" in sitelen kalama pona.
  Sources: ma: https://commons.wikimedia.org/wiki/File:Sitelen_seli_kiwen_-_ma.svg; no: https://commons.wikimedia.org/wiki/File:Sitelen_kalama_pona_-_no.svg; e: https://commons.wikimedia.org/wiki/File:Sitelen_kalama_pona_-_xe.svg; te: https://commons.wikimedia.org/wiki/File:Sitelen_kalama_pona_-_te.svg; i: https://commons.wikimedia.org/wiki/File:Sitelen_kalama_pona_-_xi.svg; to: https://commons.wikimedia.org/wiki/File:Sitelen_kalama_pona_-_to.svg

Categories:
  [[Category:Toki Pona text containing ma]]
  [[Category:Toki Pona text containing sound symbol No]]
  [[Category:Toki Pona text containing sound symbol T]]
  [[Category:Toki Pona text containing sound symbol E]]
  [[Category:Toki Pona text containing sound symbol N]]
  [[Category:Toki Pona text containing sound symbol Te]]
  [[Category:Toki Pona text containing sound symbol I]]
  [[Category:Toki Pona text containing sound symbol To]]

Sources:
  ma: https://commons.wikimedia.org/wiki/File:Sitelen_seli_kiwen_-_ma.svg
  no: https://commons.wikimedia.org/wiki/File:Sitelen_kalama_pona_-_no.svg
  e: https://commons.wikimedia.org/wiki/File:Sitelen_kalama_pona_-_xe.svg
  te: https://commons.wikimedia.org/wiki/File:Sitelen_kalama_pona_-_te.svg
  i: https://commons.wikimedia.org/wiki/File:Sitelen_kalama_pona_-_xi.svg
  to: https://commons.wikimedia.org/wiki/File:Sitelen_kalama_pona_-_to.svg
-->
<svg version="1.1" width="7315" height="1000"
     viewBox="0 0 7315 1000"
     xmlns="http://www.w3.org/2000/svg">
  <path d="M152 340Q152 341 154.5 344.0Q157 347 156 359V367Q156 391 167.5 424.0Q179 457 192.5 485.0Q206 513 208 517Q213 534 245.0 555.5Q277 577 278 583Q280 589 289.0 594.0Q298 599 302 607Q305 615 318.0 619.5Q331 624 336 632Q340 639 350.0 644.0Q360 649 373.5 653.5Q387 658 394 661Q400 665 424 665Q455 665 491.0 659.0Q527 653 532 645Q536 640 548 640Q551 640 554 640Q576 640 606 621Q618 613 634 603Q645 598 671.5 565.5Q698 533 698 526Q698 520 705.0 515.5Q712 511 712 506Q712 499 718 495Q724 492 732.0 475.0Q740 458 740 450Q740 447 744.0 439.0Q748 431 748 405Q748 372 741.0 333.0Q734 294 725.5 269.5Q717 245 712 245Q712 245 704.5 230.5Q697 216 684.5 199.5Q672 183 660 178Q652 174 652 168Q652 161 646 161Q641 161 624 145Q606 129 570 121Q490 105 480 105Q464 105 452.5 93.0Q441 81 434 81Q423 81 406.0 88.0Q389 95 388 100Q386 108 356 116Q327 124 282.5 146.0Q238 168 238.0 174.0Q238 180 208.5 210.5Q179 241 176 255Q174 268 163.0 301.0Q152 334 152 340ZM390 461Q391 481 392.0 500.0Q393 519 394.5 532.5Q396 546 397.5 558.0Q399 570 400.5 578.0Q402 586 403.0 591.0Q404 596 405.0 599.0Q406 602 406 602Q406 606 400 606Q390 606 375.0 597.0Q360 588 354 578Q349 567 310.0 527.5Q271 488 270 482Q266 474 264 477Q261 479 256.0 475.5Q251 472 247.5 466.0Q244 460 244 456Q244 451 240.5 447.0Q237 443 233.5 441.0Q230 439 226.5 431.5Q223 424 222 411L220 390L232 399Q241 406 250 406Q251 406 275.5 402.0Q300 398 330 398Q386 398 388 408Q388 418 390 461ZM656 491Q656 496 644.0 508.0Q632 520 632 524Q632 530 615.5 542.5Q599 555 579.5 567.5Q560 580 558 583Q550 591 500 597Q493 598 488 599L474 601L472 572Q470 557 467.0 537.5Q464 518 462.0 498.5Q460 479 460 449Q460 414 464.5 407.5Q469 401 488 401Q531 401 570.0 405.5Q609 410 632.5 414.0Q656 418 660 418Q677 418 680.5 418.5Q684 419 684 422Q684 430 675.5 453.0Q667 476 662 480Q656 485 656 491ZM680 345Q680 353 664 353Q655 353 632.0 346.5Q609 340 576 337Q532 333 520 331Q513 331 496.5 333.5Q480 336 474 336Q468 336 466 334Q462 330 462 247Q462 168 468 168Q469 168 489.5 171.0Q510 174 532.5 179.0Q555 184 558 187Q563 194 572.5 194.0Q582 194 614.5 226.0Q647 258 652 272Q658 288 661.5 288.0Q665 288 672.5 311.5Q680 335 680 345ZM336 333Q318 333 302.5 334.0Q287 335 275.5 336.0Q264 337 254.0 338.5Q244 340 237.5 341.5Q231 343 226.5 344.0Q222 345 220.0 346.0Q218 347 218 347Q214 347 214 341Q214 336 218.0 317.0Q222 298 235.0 271.0Q248 244 266 236Q284 228 315.5 200.5Q347 173 370 172L388 171V334L340 333Z" transform="translate(0.00,958.33) scale(0.9583,-0.9583)" fill="#000000" />
  <path d="M 24.637998,12.488337 H 20.72216 q -1.48166,0 -2.54,-1.058333 -1.05833,-1.058333 -1.05833,-2.54 V 3.598338 q 0,-1.481667 1.05833,-2.54 Q 19.2405,4e-6 20.72216,4e-6 h 3.915838 V 0.846671 H 20.72216 q -1.13241,0 -1.94733,0.814917 -0.80433,0.804333 -0.80433,1.93675 v 5.291666 q 0,1.132417 0.80433,1.93675 0.81492,0.814917 1.94733,0.814917 h 3.915838 z" transform="translate(-428.69,0.00) scale(80.0747,80.0747)" fill="#000000" />
  <path d="M 75.014662,0.846671 V 4e-6 h 13.123333 v 0.846667 z m 0,11.641666 v -0.846666 h 13.123333 v 0.846666 z" transform="translate(-4462.58,0.00) scale(80.0747,80.0747)" fill="#000000" />
  <path d="M 75.014662,0.846671 V 4e-6 h 13.123333 v 0.846667 z m 0,11.641666 v -0.846666 h 13.123333 v 0.846666 z" transform="translate(-3411.74,0.00) scale(80.0747,80.0747)" fill="#000000" />
  <path d="M 75.014662,0.846671 V 4e-6 h 13.123333 v 0.846667 z m 0,11.641666 v -0.846666 h 13.123333 v 0.846666 z" transform="translate(-2360.89,0.00) scale(80.0747,80.0747)" fill="#000000" />
  <path d="M 75.014662,0.846671 V 4e-6 h 13.123333 v 0.846667 z m 0,11.641666 v -0.846666 h 13.123333 v 0.846666 z" transform="translate(-1310.04,0.00) scale(80.0747,80.0747)" fill="#000000" />
  <path d="M 75.014662,0.846671 V 4e-6 h 13.123333 v 0.846667 z m 0,11.641666 v -0.846666 h 13.123333 v 0.846666 z" transform="translate(-259.19,0.00) scale(80.0747,80.0747)" fill="#000000" />
  <path d="m 87.714667,4e-6 h 2.8575 q 1.481666,0 2.54,1.058334 1.058333,1.058333 1.058333,2.54 v 5.291666 q 0,1.481667 -1.058333,2.54 -1.058334,1.058333 -2.54,1.058333 h -2.8575 v -0.846666 h 2.8575 q 1.132416,0 1.93675,-0.814917 0.814916,-0.804333 0.814916,-1.93675 V 3.598338 q 0,-1.132417 -0.814916,-1.93675 -0.804334,-0.814917 -1.93675,-0.814917 h -2.8575 z" transform="translate(-225.30,0.00) scale(80.0747,80.0747)" fill="#000000" />
  <path d="M 484.85,140.72 C 498.91,135.89 508.23,120.14 508.23,108.48 C 508.23,106.67 508.00,106.13 508.00,104.00 C 508.00,101.90 508.27,99.80 508.79,97.76 C 507.10,97.00 506.12,97.00 505.00,97.00 C 504.40,97.00 504.40,97.00 467.34,95.23 C 460.88,102.77 457.18,113.06 457.18,123.45 C 457.18,128.76 458.00,130.25 458.00,134.00 C 458.00,135.67 457.83,137.34 457.50,138.99 C 467.93,140.38 479.80,140.38 484.85,140.72  Z M 407.16,123.19 C 407.16,64.28 457.98,35.00 477.00,35.00 L 489.00,35.00 L 489.00,46.21 L 505.38,46.99 C 505.57,46.99 505.75,46.99 505.94,46.99 C 535.01,46.99 558.86,68.41 558.86,97.33 C 558.86,100.07 558.64,102.85 558.18,105.65 C 558.23,106.79 558.26,107.93 558.26,109.06 C 558.26,146.76 528.94,182.95 492.03,190.49 C 490.37,190.83 488.69,191.00 487.00,191.00 C 486.58,191.00 456.43,190.11 444.99,187.77 C 425.76,183.84 405.91,171.34 405.91,144.93 C 405.91,140.47 406.52,136.15 407.56,131.93 C 407.29,129.02 407.16,126.10 407.16,123.19  Z M 475.99,304.03 C 367.51,354.20 275.90,489.17 275.90,607.03 C 275.90,608.96 275.92,610.89 275.97,612.81 C 275.97,612.81 283.94,730.30 283.94,730.32 L 234.06,733.70 C 225.90,613.35 225.90,613.35 225.90,606.73 C 225.90,460.75 338.22,308.22 463.19,255.00 C 466.31,253.67 469.66,253.00 473.00,253.00 C 474.28,253.00 535.68,258.03 587.30,309.65 C 665.60,387.94 681.85,525.26 695.34,640.23 C 698.12,663.90 700.75,686.25 703.72,706.31 L 703.73,706.36 L 654.28,713.69 C 651.14,692.55 648.47,669.77 645.70,646.10 C 628.28,497.70 606.66,331.93 475.99,304.03 Z" transform="translate(1669.62,100.00) scale(0.8000,0.8000)" fill="#000000" />
  <path d="M 312.05,735.45 C 394.84,735.45 484.55,719.15 572.98,719.15 C 589.31,719.15 605.66,719.70 622.01,721.00 L 623.20,721.00 C 576.40,642.58 526.57,564.31 474.64,486.78 C 444.44,551.54 400.48,608.47 358.62,663.16 C 339.95,687.54 321.63,711.50 304.90,735.40 C 307.28,735.43 309.66,735.45 312.05,735.45  Z M 739.76,83.70 C 730.46,83.67 709.10,91.78 690.85,91.78 C 683.12,91.78 672.75,90.37 663.58,83.64 C 661.10,83.43 658.46,83.33 655.69,83.33 C 621.21,83.33 564.31,99.00 545.00,99.00 C 543.85,99.00 527.25,98.70 511.53,98.70 C 477.64,98.70 451.60,98.70 401.87,108.52 C 358.79,117.03 315.06,118.01 276.61,123.99 C 424.60,319.18 567.32,525.74 688.60,733.40 C 690.86,737.28 692.00,741.64 692.00,746.00 C 692.00,759.81 680.81,771.00 667.00,771.00 L 621.00,771.00 C 618.01,771.00 602.36,769.17 573.58,769.17 C 487.28,769.17 397.97,785.45 312.50,785.45 C 304.61,785.45 296.73,785.31 288.88,785.01 C 288.82,785.01 288.76,785.01 288.70,785.01 C 286.84,785.07 284.60,785.17 282.04,785.17 C 261.02,785.17 253.42,778.71 248.90,774.19 C 242.73,768.02 239.91,759.18 239.91,751.19 C 239.91,744.50 241.81,739.86 243.92,736.54 C 307.31,637.40 400.41,545.42 441.22,437.41 C 368.07,330.47 291.24,225.20 213.13,123.18 C 209.71,118.71 208.00,113.36 208.00,108.00 C 208.00,107.19 208.20,89.35 225.78,84.07 C 280.29,67.68 336.88,70.35 391.87,59.53 C 432.78,50.54 470.46,48.70 510.99,48.70 C 521.76,48.70 532.73,48.83 544.02,48.99 C 574.88,45.99 616.18,33.06 653.36,33.06 C 662.23,33.06 671.10,33.76 679.84,35.48 C 684.29,36.35 688.54,38.43 692.06,41.73 C 703.48,41.11 721.01,33.68 739.18,33.68 C 744.43,33.68 761.06,34.05 772.54,48.41 L 733.49,79.63 C 735.06,81.51 737.70,82.31 739.76,83.70 Z" transform="translate(2720.47,100.00) scale(0.8000,0.8000)" fill="#000000" />
  <path d="M 479.09,590.36 C 479.09,643.24 509.54,709.81 571.22,709.00 C 722.67,707.01 722.67,707.01 722.67,707.01 L 723.33,756.99 L 571.00,759.00 C 558.22,759.00 515.83,756.03 479.27,719.47 C 446.14,686.35 428.97,638.48 428.97,591.43 C 428.97,580.21 429.95,569.05 431.91,558.13 C 431.49,546.92 431.27,535.70 431.27,524.49 C 431.27,466.24 437.23,408.06 452.00,350.77 L 452.00,318.00 L 502.00,318.00 L 502.00,354.00 C 502.00,363.96 481.26,419.14 481.26,524.49 C 481.26,543.08 482.00,559.64 482.00,560.00 C 482.00,565.45 479.09,572.95 479.09,590.36  Z M 532.63,332.49 C 492.65,332.49 447.35,336.76 403.87,336.76 C 342.51,336.76 239.46,330.35 216.68,233.77 C 216.23,231.87 216.00,229.94 216.00,228.00 C 216.00,216.26 232.94,184.74 256.56,161.12 C 327.23,90.44 448.48,81.81 553.35,74.35 C 619.90,69.61 636.16,67.00 637.00,67.00 L 671.00,67.00 L 671.00,117.00 L 638.61,117.00 C 566.33,126.18 469.10,125.46 390.99,145.81 C 317.70,164.89 284.37,196.70 267.56,230.15 C 281.60,272.29 326.30,286.67 403.85,286.67 C 448.30,286.67 494.32,282.36 532.40,282.36 C 569.80,282.36 563.43,285.31 593.01,285.31 C 608.00,285.31 623.08,284.79 637.66,284.79 C 661.03,284.79 685.80,286.09 712.32,293.00 L 733.00,293.00 C 734.57,293.00 734.57,293.00 784.12,299.20 C 784.12,299.20 777.92,348.81 777.88,348.80 C 731.43,343.00 731.43,343.00 731.43,343.00 L 709.00,343.00 C 698.30,343.00 690.13,334.81 636.65,334.81 C 636.55,334.81 593.51,335.30 593.07,335.30 C 557.87,335.30 569.73,332.49 532.63,332.49 Z" transform="translate(3771.31,100.00) scale(0.8000,0.8000)" fill="#000000" />
  <path d="M 478.60,155.05 L 490.39,124.73 L 508.13,67.56 C 508.13,67.56 555.89,82.38 555.87,82.44 C 537.61,141.27 537.61,141.27 537.30,142.08 L 523.30,178.08 C 521.40,182.95 521.40,182.95 507.68,196.68 L 472.32,161.32 L 478.60,155.05  Z M 461.00,47.00 L 511.00,47.00 L 511.00,59.00 C 511.00,61.02 511.00,61.02 500.88,123.71 L 498.96,158.40 L 449.04,155.62 C 451.12,118.29 451.12,118.29 451.33,116.99 L 461.00,56.98 L 461.00,47.00  Z M 562.37,129.59 C 562.37,168.42 541.80,203.48 504.34,203.48 C 457.22,203.48 422.03,167.43 420.10,131.54 C 418.20,123.70 417.31,115.86 417.31,108.15 C 417.31,75.57 433.17,45.44 455.80,26.84 C 455.84,25.68 455.87,25.02 455.87,25.02 L 458.00,25.09 C 471.42,14.70 487.79,7.71 506.07,7.02 L 506.81,26.78 C 518.12,27.17 525.86,27.43 538.13,39.71 C 543.11,44.69 562.69,67.03 562.69,110.58 C 562.69,114.54 562.50,118.47 562.11,122.33 C 562.28,124.71 562.37,127.13 562.37,129.59  Z M 512.00,122.00 C 512.00,118.86 512.63,117.38 512.63,111.28 C 512.63,98.56 509.72,84.93 504.08,76.70 L 478.03,75.80 C 471.40,85.23 467.42,97.04 467.42,108.69 C 467.42,118.90 470.00,121.32 469.99,128.10 C 469.99,140.27 488.52,152.83 499.42,153.01 C 502.46,153.06 504.00,153.60 505.06,153.60 C 506.61,153.60 512.33,144.59 512.33,128.93 C 512.33,127.53 512.00,122.07 512.00,122.00  Z M 392.18,710.51 C 394.59,710.51 440.05,711.08 440.54,711.08 C 545.86,711.08 656.56,700.02 760.54,677.69 C 713.81,557.34 588.95,474.11 520.96,354.41 C 441.54,473.78 341.82,588.03 269.78,710.52 C 282.93,711.18 296.19,711.41 309.68,711.41 C 336.82,711.41 363.77,710.51 392.18,710.51  Z M 392.24,760.51 C 363.89,760.51 336.11,761.42 309.05,761.42 C 281.74,761.42 254.16,760.50 225.73,756.78 C 213.35,755.16 204.00,744.61 204.00,732.00 C 204.00,727.93 204.99,723.86 206.97,720.18 C 291.31,563.03 421.08,425.84 509.59,279.08 L 537.54,295.93 L 546.08,292.38 C 547.74,296.37 549.48,300.32 551.30,304.23 L 552.42,304.90 C 552.27,305.15 552.12,305.40 551.97,305.65 C 616.04,441.50 772.25,529.99 817.06,689.20 C 817.68,691.42 818.00,693.71 818.00,696.00 C 818.00,707.71 809.92,717.69 798.78,720.32 C 683.01,747.68 558.80,761.07 440.63,761.07 C 440.15,761.07 393.01,760.51 392.24,760.51 Z" transform="translate(4822.16,100.00) scale(0.8000,0.8000)" fill="#000000" />
  <path d="M 394.00,124.00 C 394.00,81.45 444.29,65.03 462.44,59.10 C 462.44,59.10 462.90,53.08 462.93,53.08 C 494.27,55.49 494.27,55.49 498.95,58.04 C 514.72,66.62 544.03,82.57 544.03,118.54 C 544.03,118.87 544.02,119.19 544.02,119.52 C 544.10,120.95 544.14,122.38 544.14,123.81 C 544.14,157.82 521.51,193.00 485.48,193.00 C 467.69,193.00 430.32,180.54 399.02,139.03 C 395.68,134.60 394.00,129.30 394.00,124.00  Z M 486.35,142.95 C 488.73,142.04 494.13,133.57 494.13,123.32 C 494.13,121.96 494.00,121.60 494.00,120.00 C 494.00,118.93 494.08,118.15 494.08,117.18 C 494.08,115.59 494.08,113.18 481.33,105.54 C 468.40,109.74 456.48,113.88 448.31,119.91 C 453.65,125.47 469.09,140.05 486.35,142.95  Z M 446.02,428.68 C 446.02,427.98 445.86,367.32 445.86,366.70 C 445.86,326.74 446.47,286.29 450.11,245.75 C 450.11,245.75 499.90,250.22 499.89,250.25 C 496.44,288.67 495.85,328.01 495.85,367.85 C 495.85,368.62 496.01,428.05 496.01,428.66 C 496.01,441.70 496.01,442.63 494.33,446.99 C 483.61,474.89 479.21,498.48 479.21,518.20 C 479.21,626.87 616.98,643.92 686.53,643.92 C 703.77,643.92 715.09,643.00 717.00,643.00 L 827.46,645.01 C 827.46,645.01 826.55,694.99 826.54,694.99 C 717.52,693.01 717.52,693.01 717.52,693.01 C 707.08,693.62 696.55,693.94 685.98,693.94 C 541.10,693.94 429.22,635.50 429.22,518.13 C 429.22,492.19 434.72,463.99 446.01,433.40 C 446.02,431.83 446.02,430.26 446.02,428.68  Z M 162.45,275.00 C 332.96,267.45 512.54,213.00 685.47,213.00 C 685.98,213.00 686.49,213.00 687.00,213.00 C 687.04,213.00 802.32,213.00 834.66,213.00 L 844.02,205.98 C 844.02,205.98 874.02,245.99 873.98,246.02 C 857.98,258.02 857.98,258.02 857.98,258.02 C 853.56,261.34 848.28,263.00 843.00,263.00 L 685.59,263.00 C 518.31,263.00 339.14,317.32 164.10,324.97 C 163.73,324.99 163.37,325.00 163.00,325.00 L 151.00,325.00 L 151.00,275.00 L 162.45,275.00 Z" transform="translate(5873.01,100.00) scale(0.8000,0.8000)" fill="#000000" />
</svg>
