<?xml version="1.0" encoding="UTF-8" standalone="no"?>
<!--
Representation of "kili pi palisa pimeja" in sitelen ilo pona
Generated by generate_sitelen_kalama_pona.py

Description:
  Representation of "kili pi palisa pimeja" in sitelen ilo pona.
  Sources: kili: https://commons.wikimedia.org/wiki/File:Sitelen_seli_kiwen_-_kili.svg; pi: https://commons.wikimedia.org/wiki/File:Sitelen_seli_kiwen_-_pi.svg; palisa: https://commons.wikimedia.org/wiki/File:Sitelen_seli_kiwen_-_palisa.svg; pimeja: https://commons.wikimedia.org/wiki/File:Sitelen_seli_kiwen_-_pimeja.svg

Categories:
  [[Category:Sitelen kalama pona]]
  [[Category:Toki Pona text containing kili pi palisa pimeja]]

Sources:
  kili: https://commons.wikimedia.org/wiki/File:Sitelen_seli_kiwen_-_kili.svg
  pi: https://commons.wikimedia.org/wiki/File:Sitelen_seli_kiwen_-_pi.svg
  palisa: https://commons.wikimedia.org/wiki/File:Sitelen_seli_kiwen_-_palisa.svg
  pimeja: https://commons.wikimedia.org/wiki/File:Sitelen_seli_kiwen_-_pimeja.svg
-->
<svg version="1.1" width="3690" height="1000"
     viewBox="0 0 3690 1000"
     xmlns="http://www.w3.org/2000/svg">
  <path d="M774 414Q774 401 781.0 351.0Q788 301 788 275Q788 258 776.5 233.0Q765 208 762 177Q761 169 737.0 141.5Q713 114 706 114Q704 114 692.5 106.5Q681 99 663.5 88.0Q646 77 632 71Q620 65 601.0 52.5Q582 40 556 31Q514 17 468 17Q441 17 412.5 21.0Q384 25 362.0 30.0Q340 35 288 47Q280 49 260.0 67.5Q240 86 238 86Q226 86 179.0 146.5Q132 207 132 221Q132 232 126.0 239.0Q120 246 118 256Q117 266 114 273Q112 276 112 322Q112 349 113.0 365.5Q114 382 123.0 407.5Q132 433 150 452Q166 470 172 470Q174 470 182.0 476.0Q190 482 201.5 491.5Q213 501 224 506Q237 514 242 519Q244 523 292 523Q327 523 338 516Q360 504 388 489Q410 478 410 473Q410 471 415 477Q436 509 436 523Q436 528 436.5 529.5Q437 531 440 531Q448 531 448 541Q448 548 455.0 557.5Q462 567 462 573Q462 587 502.5 638.0Q543 689 558 689Q570 689 584.0 678.0Q598 667 598.0 659.0Q598 651 590.5 638.0Q583 625 578 625Q570 625 570 618Q570 614 543.0 583.5Q516 553 512 534Q509 526 510.5 524.0Q512 522 522 522Q531 522 561.0 529.5Q591 537 618 537Q641 537 657.5 532.5Q674 528 679.0 524.0Q684 520 694 512Q705 500 716.5 493.0Q728 486 733.0 483.5Q738 481 738.0 479.0Q738 477 739.0 476.5Q740 476 746 476Q752 476 761.0 454.5Q770 433 772 433Q774 433 774 420ZM686 171Q687 171 691.5 174.5Q696 178 703.0 187.0Q710 196 716.5 208.5Q723 221 727.5 243.5Q732 266 732 292Q732 370 714 413Q708 426 689.0 446.5Q670 467 664 467Q659 467 655.5 473.5Q652 480 636 479Q616 478 591.0 473.0Q566 468 566 465Q566 461 558 461Q544 461 515.0 437.5Q486 414 486 393Q486 381 482 381Q476 381 476 374Q476 368 470 368Q460 368 436 372Q416 376 411.0 379.0Q406 382 404 391Q403 398 399.5 401.5Q396 405 387.0 410.0Q378 415 370 423Q358 437 354 437Q350 437 341.5 441.5Q333 446 319.0 450.0Q305 454 288 454Q266 454 262 448Q258 442 246.0 437.5Q234 433 218.5 422.5Q203 412 190 392Q180 377 177.0 369.5Q174 362 174 346Q174 301 184 271Q197 235 200 224Q202 213 219.0 192.0Q236 171 260.0 148.0Q284 125 317.5 107.0Q351 89 382 88Q422 86 438 86Q494 86 529.0 95.0Q564 104 580.0 112.5Q596 121 606 121Q608 121 609.0 120.5Q610 120 610 120Q619 120 637.0 130.5Q655 141 660 149Q674 171 686 171Z" transform="translate(0.00,958.33) scale(0.9583,-0.9583)" fill="#000000" />
  <path d="M178 600Q178 613 172.0 629.5Q166 646 166 651Q166 660 178 675Q187 686 191.5 688.0Q196 690 206 688Q221 685 228.5 675.5Q236 666 237.0 657.5Q238 649 238 634V602Q238 561 244.0 524.5Q250 488 250 466Q250 451 248.0 418.5Q246 386 246 369Q246 369 246.0 367.0Q246 365 246.5 361.5Q247 358 247.5 353.0Q248 348 248.0 339.5Q248 331 248.5 321.0Q249 311 249.5 296.5Q250 282 250 266Q250 179 252 177Q260 168 392 168Q392 168 438.0 168.0Q484 168 532.0 168.5Q580 169 584 169Q698 169 704 167Q710 164 716 164Q722 163 728.0 144.5Q734 126 734 111Q734 109 733.0 103.5Q732 98 727.5 90.5Q723 83 716 83Q714 83 683.5 92.5Q653 102 624 102Q612 102 594.0 100.0Q576 98 562 98Q562 98 558.5 98.5Q555 99 548.0 99.5Q541 100 532.0 100.5Q523 101 510.5 101.5Q498 102 486 102Q485 102 480.5 102.0Q476 102 469.0 101.5Q462 101 454.5 100.5Q447 100 439.5 100.0Q432 100 428 100Q344 100 230 92L190 90L184 104Q180 114 180 131Q180 157 185.0 176.5Q190 196 190 218Q190 218 190.0 225.0Q190 232 190.0 242.5Q190 253 189.5 264.5Q189 276 188.5 287.0Q188 298 188 304Q188 326 190.0 374.0Q192 422 192 441Q192 517 178 540Q176 543 177.0 544.0Q178 545 180.0 545.5Q182 546 182.5 549.5Q183 553 180 562Q176 571 176 578Q176 581 177.0 588.5Q178 596 178 600Z" transform="translate(942.50,958.33) scale(0.9583,-0.9583)" fill="#000000" />
  <path d="M354 109Q354 119 349.0 125.5Q344 132 344 137Q344 148 343 149Q342 149 340 146Q335 139 334 151Q334 157 334 167Q334 176 325.0 200.5Q316 225 316 236Q316 264 311.0 293.5Q306 323 306 371Q306 414 302.0 433.5Q298 453 298 466Q298 480 295.0 499.5Q292 519 292 523Q292 526 294 532Q296 537 298.0 559.5Q300 582 302.0 612.5Q304 643 308 660Q312 683 312 700Q312 717 322 726Q334 738 328 738Q326 738 334.5 746.5Q343 755 354.0 764.5Q365 774 368 776Q375 778 406 778Q466 778 474 769Q478 761 484 761Q488 761 493.0 754.0Q498 747 504 747Q512 747 532.5 723.5Q553 700 554 690Q554 688 561.0 677.5Q568 667 568 660Q569 658 577.0 622.0Q585 586 586 552Q593 409 604 402Q606 400 605.0 396.0Q604 392 602.0 386.5Q600 381 602 373Q608 358 608 282Q608 146 598 136Q594 131 594 120Q594 97 566.0 72.0Q538 47 484 47Q483 47 447.0 54.0Q411 61 410 62Q409 64 397.0 69.5Q385 75 376 84Q364 95 359.0 95.0Q354 95 354 109ZM540 188Q540 215 545.0 231.5Q550 248 550 260Q550 262 548.5 295.5Q547 329 544.0 365.5Q541 402 540 405Q534 414 530 500Q527 589 511.5 628.5Q496 668 446 714Q432 726 414 726Q394 726 382 712Q378 707 371.5 688.0Q365 669 358.5 630.5Q352 592 352 550Q352 536 353.5 536.0Q355 536 358.0 503.0Q361 470 364.5 412.5Q368 355 370 299Q371 255 376.0 237.0Q381 219 406 164Q411 152 416.5 145.0Q422 138 442.5 129.0Q463 120 494 120Q528 120 528 133Q528 142 532 142Q535 142 539.0 152.0Q543 162 542 168Q540 173 540 188Z" transform="translate(1885.00,958.33) scale(0.9583,-0.9583)" fill="#000000" />
  <path d="M400 629Q400 631 416.0 652.5Q432 674 457.0 696.0Q482 718 500 718Q510 718 532 708Q546 701 551.5 695.5Q557 690 562 677Q567 666 571.5 642.5Q576 619 590 588L616 524Q619 520 663.5 435.0Q708 350 718 339Q724 331 724 321Q724 314 731.0 306.0Q738 298 738 296Q738 290 747.5 270.0Q757 250 760 248Q766 245 766 237Q766 232 783.0 209.0Q800 186 806 171Q810 157 825.0 135.0Q840 113 840 101Q840 100 839.5 97.5Q839 95 836.5 89.5Q834 84 830.5 80.0Q827 76 818.5 72.5Q810 69 800 69Q780 69 752.5 71.5Q725 74 720 77Q717 80 660.0 84.0Q603 88 558 88Q549 88 498.5 87.0Q448 86 386.5 83.0Q325 80 318 76Q308 71 178 71Q98 71 88 74Q78 77 69.0 92.0Q60 107 60 120Q60 130 81.5 155.0Q103 180 129.5 214.0Q156 248 166 277Q170 291 185.0 308.0Q200 325 202 335Q205 348 208 348Q211 348 237.5 387.5Q264 427 264 431Q264 434 280.0 449.0Q296 464 296.0 468.0Q296 472 312.0 488.0Q328 504 328 507Q328 514 341.0 530.5Q354 547 354 552Q354 556 368.0 571.0Q382 586 382.0 592.0Q382 598 391.0 612.0Q400 626 400 629ZM348 422Q348 406 379.5 361.5Q411 317 420 317Q430 317 446 340Q454 349 477.0 373.0Q500 397 518.5 417.0Q537 437 538 442Q541 449 552.0 455.0Q563 461 574 461Q582 461 582 464Q582 466 572.5 484.0Q563 502 552.0 522.5Q541 543 538 550Q536 558 530.5 564.5Q525 571 524.5 579.0Q524 587 516.0 601.0Q508 615 508 623Q508 627 506.0 632.0Q504 637 502 637Q497 637 481.5 622.0Q466 607 466 602Q466 594 438.0 559.0Q410 524 410 524Q410 523 396.0 503.0Q382 483 382 477Q382 472 365.0 450.0Q348 428 348 422ZM612 403Q598 403 557.5 364.0Q517 325 514 325Q508 325 508 319Q508 313 484 283L460 254L470 244Q476 238 496.0 202.5Q516 167 532 161Q549 154 684 154Q715 154 722.5 155.0Q730 156 730 161Q730 174 703.0 224.0Q676 274 672 285Q667 302 642.0 352.5Q617 403 612 403ZM342 310Q334 319 324.0 330.5Q314 342 308.5 347.5Q303 353 300 353Q290 352 273.0 321.5Q256 291 256 291Q253 290 232.0 258.5Q211 227 208 227Q204 227 204 215Q204 207 193.0 195.5Q182 184 178 163L174 149L226 150Q273 152 286 154Q294 155 306.0 170.0Q318 185 318.0 193.0Q318 201 326.0 203.5Q334 206 336 213Q338 218 354.0 233.5Q370 249 370 262Q370 284 342 310ZM438 180Q436 181 434.0 186.0Q432 191 429.0 194.5Q426 198 422 198Q417 197 396.5 178.0Q376 159 376.0 155.0Q376 151 422 151H434L456 152L448 164Q442 176 438 180Z" transform="translate(2827.50,958.33) scale(0.9583,-0.9583)" fill="#000000" />
</svg>
