<?xml version="1.0" encoding="UTF-8" standalone="no"?>
<!--
Representation of "meli kon" in sitelen kalama pona
Generated by generate_sitelen_kalama_pona.py

Description:
  Representation of "meli kon" in sitelen kalama pona.
  Sources: meli: https://commons.wikimedia.org/wiki/File:Sitelen_seli_kiwen_-_meli.svg; kon: https://commons.wikimedia.org/wiki/File:Sitelen_seli_kiwen_-_kon.svg

Categories:
  [[Category:Sitelen kalama pona]]
  [[Category:Toki Pona text containing meli kon]]

Sources:
  meli: https://commons.wikimedia.org/wiki/File:Sitelen_seli_kiwen_-_meli.svg
  kon: https://commons.wikimedia.org/wiki/File:Sitelen_seli_kiwen_-_kon.svg
-->
<svg version="1.1" width="1805" height="1000"
     viewBox="0 0 1805 1000"
     xmlns="http://www.w3.org/2000/svg">
  <path d="M496 609Q509 609 540.0 596.0Q571 583 576 583Q587 583 624.0 547.0Q661 511 674 487Q708 420 708 334Q708 300 705.5 284.5Q703 269 696 258Q686 245 686 236Q686 234 676.0 219.5Q666 205 639.5 181.0Q613 157 580 141Q540 122 520 122Q505 122 462.5 124.0Q420 126 418 130Q414 135 377.5 142.0Q341 149 338 152Q337 155 315.5 166.5Q294 178 271.5 195.5Q249 213 242 230Q237 240 231.5 247.5Q226 255 224.0 259.0Q222 263 222 269Q222 273 217.0 287.5Q212 302 210 330Q206 365 204.5 367.5Q203 370 207.5 374.0Q212 378 206 386Q204 392 204 397Q204 402 207.0 411.5Q210 421 210 424Q210 427 208.0 429.5Q206 432 206 433Q206 434 208.5 436.0Q211 438 214.5 446.0Q218 454 218 468Q220 496 233.0 516.0Q246 536 264.0 552.5Q282 569 288 578Q296 592 310 592Q320 592 328.5 599.0Q337 606 342.5 606.0Q348 606 369.5 609.0Q391 612 410 612Q432 612 447.0 610.0Q462 608 469.0 605.5Q476 603 478.5 603.0Q481 603 485.5 606.0Q490 609 496 609ZM596 489Q596 491 593.0 496.5Q590 502 578.0 511.5Q566 521 547.5 529.5Q529 538 494.0 544.5Q459 551 414 551H406Q357 551 330 538Q315 531 293.5 510.0Q272 489 272 482Q272 476 266 474Q260 472 259.0 423.5Q258 375 256 372Q256 371 256 368Q256 366 257.5 362.0Q259 358 262.0 347.5Q265 337 268 324Q271 308 277.0 296.5Q283 285 287.5 279.5Q292 274 292 271Q292 263 319.5 242.5Q347 222 358 222Q367 222 376.0 214.5Q385 207 394 206Q400 205 417.5 200.5Q435 196 450.0 193.0Q465 190 476 190Q526 190 532 193Q536 195 554 200Q556 200 565.0 204.0Q574 208 588.0 218.5Q602 229 615.0 244.0Q628 259 637.0 284.0Q646 309 646 339Q646 369 641.0 395.0Q636 421 629.0 437.0Q622 453 614.5 464.5Q607 476 601.5 482.0Q596 488 596 489ZM96 29Q96 19 89.5 10.5Q83 2 72 2Q65 2 57.0 5.5Q49 9 45 12L40 16Q35 23 29.5 43.0Q24 63 24 76Q24 78 30.0 97.0Q36 116 36.0 127.0Q36 138 30 143Q25 151 25.5 153.0Q26 155 28.5 161.0Q31 167 30 173Q24 243 24 250Q24 255 19.0 283.0Q14 311 14 343Q14 514 26 541Q34 555 34 562Q34 566 43.0 579.5Q52 593 52 599Q52 603 58.5 609.5Q65 616 74.5 626.5Q84 637 90 650Q101 673 125.5 699.5Q150 726 158 731Q186 747 219.0 762.0Q252 777 315.0 793.5Q378 810 434 810Q438 810 451.0 809.5Q464 809 481.0 807.0Q498 805 500 802Q501 801 510.0 802.0Q519 803 530 795Q538 790 554.0 783.5Q570 777 576 777H578Q578 778 587.5 773.0Q597 768 611.5 762.0Q626 756 636 756Q652 756 656 752Q657 751 711.5 719.5Q766 688 772 675Q774 672 781.5 658.5Q789 645 792 638Q807 611 804 611H802Q802 611 806.0 606.5Q810 602 816.0 592.5Q822 583 826 570Q828 560 831.0 554.0Q834 548 836.0 546.5Q838 545 839.5 543.5Q841 542 842.0 539.0Q843 536 843.5 527.5Q844 519 844 504Q844 478 851.0 464.0Q858 450 858 444Q858 443 858.0 440.5Q858 438 858 436V431Q858 418 862.0 395.0Q866 372 866 366V360Q866 356 869.0 327.0Q872 298 875.5 246.0Q879 194 880 137Q880 106 883.0 93.0Q886 80 886 67Q886 49 879.0 39.0Q872 29 867.0 27.5Q862 26 858 26Q851 26 844.5 30.0Q838 34 835 38L832 42Q827 53 822 59Q818 65 818 85Q818 102 814.0 172.0Q810 242 806 249Q804 250 804 254Q804 257 807.0 267.0Q810 277 810 282Q810 288 808 293Q804 301 804.5 303.5Q805 306 807.5 311.5Q810 317 810.0 323.0Q810 329 805.0 357.5Q800 386 800 409Q799 437 792.0 467.5Q785 498 780 498Q778 498 777 501Q775 521 758 555Q742 593 742 594Q742 597 732.5 610.5Q723 624 706.0 641.0Q689 658 672 662Q662 664 624.5 685.5Q587 707 576 707Q572 707 570 706Q568 704 566 704Q561 704 532.5 718.5Q504 733 478 734Q461 735 453.5 741.0Q446 747 434 747Q425 747 413.5 741.5Q402 736 374 735Q342 734 309.5 720.5Q277 707 264 704Q202 691 174 653Q142 609 142 607Q142 607 127.0 588.0Q112 569 112 556Q112 550 106.0 544.0Q100 538 100 531Q100 525 95.0 520.5Q90 516 90 502Q90 502 89.5 491.0Q89 480 88.5 461.5Q88 443 87.0 421.5Q86 400 85.0 374.5Q84 349 84 328Q84 245 94 227Q99 219 98.0 211.0Q97 203 100 195Q103 187 99.0 182.0Q95 177 98 174Q102 167 102 107Q102 90 101.5 78.0Q101 66 100.5 59.5Q100 53 99.0 49.0Q98 45 97.0 43.5Q96 42 96 41Z" transform="translate(0.00,958.33) scale(0.9583,-0.9583)" fill="#000000" />
  <path d="M531 60Q522 60 505.0 73.5Q488 87 488 95Q488 101 497.0 114.5Q506 128 514 133Q538 151 605 218Q613 226 613.5 236.5Q614 247 620 250Q628 255 629.0 274.0Q630 293 631 295Q632 296 632 300Q632 316 611.0 348.5Q590 381 579 381Q574 381 563.0 391.5Q552 402 535.0 417.0Q518 432 504 440Q488 450 488 455Q488 459 481.5 470.5Q475 482 475 497Q475 513 479.0 531.5Q483 550 488.0 561.5Q493 573 497 573Q500 573 531.0 613.0Q562 653 564.0 653.0Q566 653 576.0 669.5Q586 686 588 686Q591 686 591.0 692.0Q591 698 609.0 708.0Q627 718 634 718Q642 718 654.0 710.0Q666 702 667 696Q668 687 668 677Q668 665 656 657Q641 647 623.5 629.0Q606 611 606 606Q606 602 573.0 565.0Q540 528 540 516Q540 512 543.5 505.5Q547 499 553.0 492.0Q559 485 566.5 477.0Q574 469 581.5 461.5Q589 454 597.0 447.0Q605 440 610.5 435.0Q616 430 620 427L624 424Q656 400 671.5 378.5Q687 357 691.5 339.5Q696 322 699 318Q701 314 701 297Q701 291 699.5 264.0Q698 237 698 235Q697 225 688.5 220.5Q680 216 680 211Q680 203 676 203Q671 203 669 195Q665 181 620.0 139.5Q575 98 575 95Q575 91 573 91Q570 91 566.5 81.5Q563 72 554 72Q544 72 539.0 66.0Q534 60 531 60ZM296 665Q296 678 330.0 702.5Q364 727 382 727Q385 727 388.5 720.5Q392 714 397 714Q406 714 406 698Q406 688 374.5 655.5Q343 623 343 618Q343 614 326.5 599.0Q310 584 310 580Q310 577 304.5 572.0Q299 567 293.5 557.0Q288 547 288 529Q288 518 299.0 500.0Q310 482 310.0 477.0Q310 472 326.5 463.0Q343 454 343 450Q343 445 376.0 411.0Q409 377 409 374L416 355Q424 336 424 302Q424 273 419.5 255.0Q415 237 409.5 227.0Q404 217 403 212Q402 202 388.0 186.0Q374 170 366 170Q357 170 357.0 161.0Q357 152 339.5 135.5Q322 119 300.0 102.5Q278 86 276 84Q267 75 243 78Q217 82 210 82Q199 82 199 97Q199 119 205.5 128.0Q212 137 221.5 138.5Q231 140 251.0 150.0Q271 160 290 180Q315 205 315 210Q315 214 325.5 223.0Q336 232 346.5 246.5Q357 261 357 278Q357 288 360.0 293.0Q363 298 363 301Q363 312 359.0 321.5Q355 331 348.5 343.0Q342 355 338 364Q331 384 299.5 401.0Q268 418 268 424Q268 427 257.0 439.0Q246 451 246 455Q246 463 244.5 466.5Q243 470 240.5 469.5Q238 469 236.5 470.5Q235 472 235.0 478.0Q235 484 231.0 484.0Q227 484 223.0 503.0Q219 522 219 536Q219 544 222.5 549.5Q226 555 226.0 562.0Q226 569 233.0 577.5Q240 586 242 596Q244 607 270.0 634.5Q296 662 296 665Z" transform="translate(942.50,958.33) scale(0.9583,-0.9583)" fill="#000000" />
</svg>
