<?xml version="1.0" encoding="UTF-8" standalone="no"?>
<!--
Representation of "jan lawa Pansisu" in sitelen kalama pona
Generated by generate_sitelen_kalama_pona.py

Description:
  Representation of "jan lawa Pansisu" in sitelen kalama pona.
  Sources: jan-lawa: https://commons.wikimedia.org/wiki/File:Sitelen_seli_kiwen_-_jan-lawa.svg; pan: https://commons.wikimedia.org/wiki/File:Sitelen_kalama_pona_-_pan.svg; si: https://commons.wikimedia.org/wiki/File:Sitelen_kalama_pona_-_si.svg; su: https://commons.wikimedia.org/wiki/File:Sitelen_kalama_pona_-_su.svg

Categories:
  [[Category:Toki Pona text containing jan lawa]]
  [[Category:Toki Pona text containing sound symbol Pan]]
  [[Category:Toki Pona text containing sound symbol Si]]
  [[Category:Toki Pona text containing sound symbol Su]]

Sources:
  jan-lawa: https://commons.wikimedia.org/wiki/File:Sitelen_seli_kiwen_-_jan-lawa.svg
  pan: https://commons.wikimedia.org/wiki/File:Sitelen_kalama_pona_-_pan.svg
  si: https://commons.wikimedia.org/wiki/File:Sitelen_kalama_pona_-_si.svg
  su: https://commons.wikimedia.org/wiki/File:Sitelen_kalama_pona_-_su.svg
-->
<svg version="1.1" width="5214" height="1000"
     viewBox="0 0 5214 1000"
     xmlns="http://www.w3.org/2000/svg">
  <path d="M357 401Q357 405 349.0 414.5Q341 424 333.0 440.0Q325 456 325 476Q325 509 334 518Q337 521 350.5 545.5Q364 570 379.0 591.0Q394 612 404 612Q404 612 410.0 609.0Q416 606 419 610Q430 619 443 619Q457 619 471.5 610.0Q486 601 494.0 592.0Q502 583 502 581Q502 576 513.0 565.5Q524 555 529 555Q536 555 559.0 542.0Q582 529 582 525Q582 522 583.5 515.0Q585 508 585 507Q585 499 575.5 492.0Q566 485 552 484Q543 483 539.5 478.0Q536 473 531 455Q526 437 519.5 426.0Q513 415 494 395Q458 359 437 359Q419 359 388.0 377.0Q357 395 357 401ZM453 550Q450 554 443.5 554.0Q437 554 437 550Q437 545 430 545Q421 545 421 541Q421 538 433 538Q454 538 454 546Q454 548 453 550ZM467 474Q469 482 465.5 485.5Q462 489 457 484Q454 481 423.0 477.0Q392 473 388 470Q388 469 388 468Q388 461 400.5 448.0Q413 435 423 435Q425 435 426 435Q436 438 450.0 451.5Q464 465 467 474ZM221 617Q221 629 240.0 647.5Q259 666 259 670Q259 673 261.0 674.5Q263 676 269.0 679.0Q275 682 283.0 686.0Q291 690 307.5 699.0Q324 708 343 721Q370 739 416 739Q434 739 453.5 735.5Q473 732 475 732Q480 732 482.0 734.0Q484 736 493 736Q500 736 518.5 734.0Q537 732 544 732Q552 732 554 734Q559 739 559 732Q559 726 568.5 720.0Q578 714 605 703Q642 688 692 630Q718 601 718 569Q718 562 720.0 558.5Q722 555 724.0 552.0Q726 549 728.0 534.0Q730 519 730 492Q730 428 722 414Q714 399 693.0 374.5Q672 350 656.0 331.5Q640 313 640 308Q640 299 658.0 270.0Q676 241 681 241Q683 241 687.5 232.5Q692 224 704.0 206.0Q716 188 732 171Q759 143 768.0 128.5Q777 114 777 94Q777 82 771.0 79.5Q765 77 750 77Q733 77 728.5 79.5Q724 82 714 96Q706 108 692.0 125.0Q678 142 664 163Q650 184 633.5 199.0Q617 214 613 222Q607 236 591.5 252.5Q576 269 568 269Q561 269 556.5 265.0Q552 261 549.0 255.5Q546 250 533.0 246.0Q520 242 498 242Q449 242 419.0 248.5Q389 255 372.5 261.5Q356 268 339 268Q320 268 320 259Q320 257 288 223Q258 192 225.5 149.0Q193 106 193 96Q193 91 180.0 86.0Q167 81 156 81Q144 81 139.5 90.5Q135 100 130 100Q124 100 123.0 109.0Q122 118 127 121Q132 124 132 133Q132 140 148.5 158.0Q165 176 165 178Q165 181 179.0 193.5Q193 206 193 209Q193 210 209.5 229.5Q226 249 242.5 272.0Q259 295 259 306Q259 310 246.5 324.5Q234 339 230 348Q225 362 216.0 414.5Q207 467 207 486Q207 520 210.5 550.0Q214 580 217.5 597.5Q221 615 221 617ZM268 566Q268 556 263.0 538.0Q258 520 258 508Q258 483 267.0 439.5Q276 396 284 386Q292 376 293 371Q295 365 309.5 359.5Q324 354 327 351Q334 343 385.0 328.0Q436 313 471 313Q512 313 565 343Q594 360 604.0 371.0Q614 382 618.5 393.5Q623 405 636 417Q650 430 660.5 450.5Q671 471 671 485Q671 489 668.0 497.5Q665 506 664 520Q661 575 633 603Q615 621 615 630Q615 641 600.0 647.5Q585 654 567.0 658.0Q549 662 546 664Q539 670 509.5 674.5Q480 679 442 679Q408 679 390.5 673.5Q373 668 370 668Q364 668 347.0 657.5Q330 647 321 638Q268 584 268 566Z" transform="translate(0.00,958.33) scale(0.9583,-0.9583)" fill="#000000" />
  <path d="M 24.637998,12.488337 H 20.72216 q -1.48166,0 -2.54,-1.058333 -1.05833,-1.058333 -1.05833,-2.54 V 3.598338 q 0,-1.481667 1.05833,-2.54 Q 19.2405,4e-6 20.72216,4e-6 h 3.915838 V 0.846671 H 20.72216 q -1.13241,0 -1.94733,0.814917 -0.80433,0.804333 -0.80433,1.93675 v 5.291666 q 0,1.132417 0.80433,1.93675 0.81492,0.814917 1.94733,0.814917 h 3.915838 z" transform="translate(-428.69,0.00) scale(80.0747,80.0747)" fill="#000000" />
  <path d="M 75.014662,0.846671 V 4e-6 h 13.123333 v 0.846667 z m 0,11.641666 v -0.846666 h 13.123333 v 0.846666 z" transform="translate(-4462.58,0.00) scale(80.0747,80.0747)" fill="#000000" />
  <path d="M 75.014662,0.846671 V 4e-6 h 13.123333 v 0.846667 z m 0,11.641666 v -0.846666 h 13.123333 v 0.846666 z" transform="translate(-3411.74,0.00) scale(80.0747,80.0747)" fill="#000000" />
  <path d="M 75.014662,0.846671 V 4e-6 h 13.123333 v 0.846667 z m 0,11.641666 v -0.846666 h 13.123333 v 0.846666 z" transform="translate(-2360.89,0.00) scale(80.0747,80.0747)" fill="#000000" />
  <path d="m 87.714667,4e-6 h 2.8575 q 1.481666,0 2.54,1.058334 1.058333,1.058333 1.058333,2.54 v 5.291666 q 0,1.481667 -1.058333,2.54 -1.058334,1.058333 -2.54,1.058333 h -2.8575 v -0.846666 h 2.8575 q 1.132416,0 1.93675,-0.814917 0.814916,-0.804333 0.814916,-1.93675 V 3.598338 q 0,-1.132417 -0.814916,-1.93675 -0.804334,-0.814917 -1.93675,-0.814917 h -2.8575 z" transform="translate(-2326.99,0.00) scale(80.0747,80.0747)" fill="#000000" />
  <path d="M 427.60,902.87 C 389.78,902.87 353.14,925.73 345.61,968.37 C 345.61,968.37 296.38,959.68 296.39,959.63 C 307.82,894.86 363.43,852.88 427.55,852.88 C 429.20,852.88 430.85,852.91 432.51,852.97 C 434.36,852.84 436.19,852.78 437.99,852.78 C 480.36,852.78 501.45,883.93 516.73,906.51 C 531.67,928.57 539.40,938.05 553.12,938.05 C 564.33,938.05 570.54,933.00 579.00,933.00 C 582.08,933.00 583.38,933.56 587.73,933.56 C 603.39,933.56 618.75,925.01 637.89,909.68 L 684.62,859.05 L 721.38,892.95 C 672.14,946.30 672.14,946.30 670.72,947.44 C 649.72,964.45 622.72,983.58 588.06,983.58 C 586.01,983.58 583.93,983.51 581.83,983.38 C 571.83,986.40 562.14,987.94 552.89,987.94 C 511.48,987.94 490.96,957.64 475.30,934.51 C 458.85,910.21 451.66,902.71 439.15,902.71 C 436.30,902.71 435.16,903.00 433.00,903.00 C 432.95,903.00 429.39,902.87 427.60,902.87  Z M 641.19,97.96 C 641.19,97.96 690.82,103.99 690.81,104.04 C 664.81,318.04 664.81,318.04 664.81,318.04 C 664.81,318.04 615.18,312.01 615.19,311.96 C 641.19,97.96 641.19,97.96 641.19,97.96  Z M 411.00,461.00 C 411.00,464.00 409.68,472.65 409.68,486.21 C 409.68,544.12 434.55,594.35 534.11,615.43 C 580.87,625.34 631.08,626.79 694.49,628.01 C 695.13,628.02 695.13,628.02 865.77,640.07 L 862.25,689.93 C 692.86,677.98 692.86,677.98 687.79,677.88 C 592.87,676.08 472.28,673.73 405.87,607.31 C 376.65,578.09 359.77,537.33 359.77,484.99 C 359.77,476.93 360.17,468.60 360.98,459.99 C 360.93,456.67 360.91,453.35 360.91,450.04 C 360.91,369.17 376.08,290.09 390.64,213.35 C 397.44,177.48 404.15,142.11 409.27,107.33 C 409.27,107.33 458.73,114.62 458.73,114.67 C 453.40,150.83 446.55,186.86 439.75,222.72 C 425.16,299.60 410.90,375.66 410.90,450.25 C 410.90,456.42 411.00,460.35 411.00,461.00  Z M 154.85,624.93 C 154.85,625.77 155.74,670.06 155.74,670.52 C 155.74,682.89 155.15,695.78 153.00,709.10 L 153.00,741.00 L 103.00,741.00 L 103.00,707.00 C 103.00,701.32 105.69,695.82 105.69,669.82 C 105.69,669.12 104.82,624.91 104.82,624.46 C 104.82,613.09 105.30,601.26 107.02,589.05 C 107.14,577.90 107.19,566.69 107.19,555.43 C 107.19,542.39 107.12,529.27 107.01,516.10 C 106.11,504.49 105.66,492.98 105.66,481.57 C 105.66,273.32 253.88,102.94 467.33,80.15 C 468.60,80.01 468.60,80.01 899.88,78.01 L 900.12,127.99 L 471.42,129.99 C 283.90,150.61 155.65,299.39 155.65,481.49 C 155.65,500.64 156.97,511.82 156.99,514.79 C 157.11,528.36 157.18,541.91 157.18,555.43 C 157.18,586.69 156.98,593.01 156.72,594.74 C 155.29,604.25 154.85,614.31 154.85,624.93 Z" transform="translate(1669.62,100.00) scale(0.8000,0.8000)" fill="#000000" />
  <path d="M 463.00,119.00 C 450.73,119.00 395.37,101.32 395.37,62.11 C 395.37,52.70 398.92,44.22 403.57,38.02 L 401.79,32.06 L 413.64,28.51 C 420.12,24.04 428.56,21.00 435.00,21.00 C 435.85,21.00 436.71,21.05 437.56,21.14 C 438.47,20.87 439.92,20.51 442.59,20.51 C 451.27,20.51 456.09,23.30 458.35,24.77 C 468.23,25.64 476.86,28.46 484.18,35.78 C 491.41,43.00 494.18,52.76 494.18,61.57 C 494.18,62.64 494.14,63.69 494.06,64.73 C 494.16,66.89 494.27,69.36 494.27,72.08 C 494.27,96.97 482.63,119.00 463.00,119.00  Z M 519.20,142.62 C 563.42,142.62 590.00,165.34 590.00,186.00 L 590.00,194.00 L 541.73,194.00 C 542.00,195.38 542.27,196.76 542.95,197.74 C 540.81,196.28 532.41,192.66 518.53,192.66 C 517.38,192.66 516.28,192.69 515.24,192.74 C 463.42,206.95 389.46,253.45 389.46,318.95 C 389.46,354.12 424.15,384.23 455.23,411.20 C 494.33,445.13 540.22,484.96 540.22,550.82 C 540.22,566.94 536.74,607.11 505.05,638.79 C 474.37,669.47 423.97,688.31 335.16,688.31 C 319.56,688.31 306.63,688.20 257.34,684.94 C 257.34,684.94 260.63,635.06 260.66,635.06 C 291.88,637.12 312.69,638.24 335.52,638.24 C 401.15,638.24 490.24,628.10 490.24,550.46 C 490.24,509.06 462.15,483.41 422.49,449.00 C 387.42,418.56 349.44,385.60 340.39,334.38 C 340.36,334.23 339.47,328.38 339.47,318.99 C 339.47,229.47 426.73,164.12 504.67,143.81 C 506.02,143.46 510.20,142.62 519.20,142.62 Z" transform="translate(2720.47,100.00) scale(0.8000,0.8000)" fill="#000000" />
  <path d="M 184.24,533.83 C 184.24,625.71 260.73,704.65 353.68,712.97 C 386.01,711.86 464.94,701.15 535.02,628.63 C 537.22,626.35 539.76,624.84 545.35,619.26 C 562.88,601.72 575.03,577.42 588.80,548.64 C 589.72,541.69 590.16,535.23 590.16,529.19 C 590.16,400.93 382.04,405.91 331.67,275.00 C 330.56,272.11 330.00,269.06 330.00,266.00 C 330.00,262.47 337.91,210.91 383.37,165.45 C 429.90,118.93 496.36,96.16 561.36,96.16 C 574.48,96.16 587.54,97.08 600.36,98.93 C 602.73,98.85 605.61,98.80 608.75,98.80 C 626.95,98.80 648.41,99.18 654.71,118.07 L 656.73,124.12 L 611.20,139.30 L 616.21,146.16 L 622.71,149.41 C 620.15,149.03 612.31,148.88 606.38,148.88 C 602.05,148.88 599.07,149.00 599.00,149.00 C 594.46,149.00 583.23,146.21 562.12,146.21 C 508.64,146.21 454.28,165.26 418.73,200.81 C 401.61,217.92 388.57,238.85 381.34,264.00 C 428.37,362.57 640.09,367.23 640.09,529.57 C 640.09,529.95 639.99,557.54 635.55,566.81 C 616.30,606.98 601.26,638.38 569.96,664.42 C 538.90,696.29 463.48,759.87 353.72,762.98 C 353.48,762.99 353.24,763.00 353.00,763.00 C 351.34,763.00 269.86,761.28 202.01,693.43 C 160.55,651.98 134.24,595.37 134.24,533.91 C 134.24,524.93 134.80,515.85 135.96,506.70 C 135.90,504.18 135.87,501.68 135.87,499.18 C 135.87,417.44 167.52,344.27 178.02,270.18 C 178.19,252.24 180.44,234.48 180.44,218.20 C 180.44,212.86 180.00,206.12 180.00,206.00 C 180.00,199.53 186.50,179.43 186.50,146.18 C 186.50,141.31 186.35,136.42 186.05,131.52 L 235.95,128.46 C 236.31,134.39 236.49,140.29 236.49,146.17 C 236.49,167.20 234.22,187.81 230.17,207.78 C 230.37,211.46 230.45,215.07 230.45,218.61 C 230.45,222.78 227.84,274.86 227.76,275.42 C 217.14,352.79 185.87,425.83 185.87,499.48 C 185.87,503.48 186.00,507.91 186.00,508.00 C 186.00,511.91 184.24,519.34 184.24,533.83 Z" transform="translate(3771.31,100.00) scale(0.8000,0.8000)" fill="#000000" />
</svg>
