<?xml version="1.0" encoding="UTF-8" standalone="no"?>
<!--
Representation of "kule olin unpa tonsi" in sitelen kalama pona
Generated by generate_sitelen_kalama_pona.py

Description:
  Representation of "kule olin unpa tonsi" in sitelen kalama pona.
  Sources: kule: https://commons.wikimedia.org/wiki/File:Sitelen_seli_kiwen_-_kule.svg; olin: https://commons.wikimedia.org/wiki/File:Sitelen_seli_kiwen_-_olin.svg; unpa: https://commons.wikimedia.org/wiki/File:Sitelen_seli_kiwen_-_unpa.svg; tonsi: https://commons.wikimedia.org/wiki/File:Sitelen_seli_kiwen_-_tonsi.svg

Categories:
  [[Category:Toki Pona text containing kule olin unpa tonsi]]

Sources:
  kule: https://commons.wikimedia.org/wiki/File:Sitelen_seli_kiwen_-_kule.svg
  olin: https://commons.wikimedia.org/wiki/File:Sitelen_seli_kiwen_-_olin.svg
  unpa: https://commons.wikimedia.org/wiki/File:Sitelen_seli_kiwen_-_unpa.svg
  tonsi: https://commons.wikimedia.org/wiki/File:Sitelen_seli_kiwen_-_tonsi.svg
-->
<svg version="1.1" width="3690" height="1000"
     viewBox="0 0 3690 1000"
     xmlns="http://www.w3.org/2000/svg">
  <path d="M429 716Q440 716 457.0 695.0Q474 674 474 670Q474 668 496.0 631.5Q518 595 522 591Q529 584 545.0 553.5Q561 523 574.5 496.5Q588 470 591 470Q595 470 595 460Q595 448 620.0 416.5Q645 385 648 376Q654 359 686 359Q702 359 731.0 364.5Q760 370 767 370L798 373Q815 373 830.5 362.0Q846 351 846.0 337.0Q846 323 832.0 309.5Q818 296 805 296Q795 296 776 302L758 307Q748 307 726.0 304.0Q704 301 704 299Q704 293 722.5 261.0Q741 229 746 226Q750 224 752.5 220.5Q755 217 757.5 211.5Q760 206 769.0 191.5Q778 177 790 158L817 117L811 92Q804 62 790.5 52.5Q777 43 729 43Q710 43 683.0 45.0Q656 47 624 47L609 46Q594 46 570.5 45.5Q547 45 520.5 44.0Q494 43 466.0 42.5Q438 42 418 42Q407 42 387.0 42.5Q367 43 345.5 43.5Q324 44 304.5 44.0Q285 44 272 44L258 45Q178 45 166 39Q162 37 156 37Q140 37 122.5 49.0Q105 61 105 78Q105 86 112.0 113.0Q119 140 127 154Q135 167 156.5 211.0Q178 255 178 258Q178 260 187.0 279.0Q196 298 196.0 303.0Q196 308 174.5 308.0Q153 308 118.5 310.5Q84 313 61 325Q54 328 54 344Q54 365 67.5 374.5Q81 384 97 384Q111 384 158.0 373.0Q205 362 215 362Q229 362 232 378Q234 389 250.5 425.0Q267 461 267 467Q267 475 272 475Q275 475 286.5 496.0Q298 517 301 517Q305 517 305 523Q305 524 326.0 560.0Q347 596 347 605Q347 607 350.5 616.0Q354 625 360.0 638.5Q366 652 370 662Q379 685 396.5 700.5Q414 716 429 716ZM554 419Q551 419 546.0 437.5Q541 456 539.0 456.0Q537 456 524.5 478.5Q512 501 498.0 526.5Q484 552 478 557Q469 566 469.0 572.0Q469 578 464 578Q462 578 461.0 579.0Q460 580 459.5 582.5Q459 585 455.5 591.5Q452 598 446 606L433 622L423 610Q417 602 408.5 581.0Q400 560 393.0 543.5Q386 527 384 527Q380 527 380 520Q380 516 372.5 505.0Q365 494 354.5 478.0Q344 462 339 450Q332 433 313.5 406.0Q295 379 295 372Q295 367 359 367Q377 367 399.5 368.0Q422 369 444 369Q453 369 468.5 368.5Q484 368 500.5 367.5Q517 367 531.5 366.5Q546 366 556 366L566 365Q583 365 583 367Q583 372 570.5 395.5Q558 419 554 419ZM575 100Q606 100 659.0 104.5Q712 109 721 109Q728 109 729.5 112.5Q731 116 731 129Q731 143 724.5 154.0Q718 165 706.0 180.0Q694 195 686 212L678 225Q669 238 660.5 254.0Q652 270 652 277Q652 283 634 294Q622 301 607.5 303.5Q593 306 540 308Q438 313 428 313H408Q301 304 282.0 300.5Q263 297 260 287V286Q256 271 239.5 239.5Q223 208 220 208Q216 208 216.0 196.0Q216 184 212 184Q209 184 200.0 163.0Q191 142 191 133Q191 121 214.0 118.0Q237 115 280.5 114.5Q324 114 349 110Q405 100 575 100Z" transform="translate(0.00,958.33) scale(0.9583,-0.9583)" fill="#000000" />
  <path d="M259 385Q267 396 279.5 399.0Q292 402 322 402H328L369 401L409 374Q447 348 455 340Q469 324 475 324Q482 324 495 337Q526 366 564 374Q566 374 580.5 378.5Q595 383 612 383Q679 383 694 342Q696 336 701.0 325.0Q706 314 708.5 305.0Q711 296 711 285Q711 254 701 244Q692 235 688 223Q685 214 660 187Q645 171 582 101Q575 94 575 89Q575 85 561 73Q548 61 543 52Q538 41 515 41Q476 41 464 69Q456 86 451 86Q448 86 420 110Q379 146 360 157Q353 160 327.0 183.5Q301 207 293 211Q281 216 272 223Q265 229 252.0 250.0Q239 271 237 279Q236 283 231.0 295.5Q226 308 226 318Q226 352 242 366Q256 380 259 385ZM507 259Q507 256 500.0 252.0Q493 248 487 248Q461 248 422 285Q393 312 343 329Q326 334 322 334Q315 334 308.0 325.0Q301 316 301 308Q301 296 318.0 279.5Q335 263 361.5 244.0Q388 225 393 220Q408 206 442.5 187.0Q477 168 492 153Q498 147 502 147Q508 147 524 163Q541 180 546 177Q548 176 549.0 176.5Q550 177 548 179Q545 183 557 192Q570 200 593.0 223.0Q616 246 616 251Q616 255 619 255Q628 255 628 285Q628 313 593 313Q577 313 560 306Q544 299 525.5 282.5Q507 266 507 259ZM220 602Q218 602 212.0 613.5Q206 625 203 625Q198 625 191.5 648.0Q185 671 185 683Q185 694 190.0 710.0Q195 726 201 733Q210 744 270 768Q284 774 292 774Q298 774 327.0 765.0Q356 756 361.0 756.0Q366 756 377.0 747.0Q388 738 392 738Q397 738 417 716Q437 696 451 696Q459 696 465.0 703.0Q471 710 487.5 720.5Q504 731 514 734Q595 757 606 757Q623 757 634.0 754.5Q645 752 650.0 749.5Q655 747 664.5 740.0Q674 733 683 728Q702 717 708.5 707.5Q715 698 715 679Q711 637 707.0 626.5Q703 616 686 598Q663 573 659 573Q654 573 631.5 547.5Q609 522 605 512Q600 500 578.0 490.0Q556 480 548 464Q542 449 533 443Q526 438 528 428Q530 419 515 402Q505 391 500.5 389.0Q496 387 487 389Q472 393 454 413Q441 427 427.5 439.0Q414 451 405.0 457.5Q396 464 377.0 477.5Q358 491 346 500Q310 527 304 527Q290 527 272.5 540.5Q255 554 242 573Q223 602 220 602ZM362 667Q362 672 328.0 685.5Q294 699 287 699Q278 699 271 692Q267 688 265.0 682.0Q263 676 263.5 671.5Q264 667 267 667Q272 667 275 655Q279 639 297.0 618.0Q315 597 329 592Q342 588 365 573Q387 559 389 559Q394 559 396.0 553.0Q398 547 411 543Q425 539 451 520Q473 503 479 503Q486 503 493 516Q506 541 542 566Q601 607 601 617Q601 620 620 639Q638 657 638 669Q638 677 634.0 678.5Q630 680 609 679Q594 679 534 670Q516 666 516 662Q516 657 503 644Q484 625 474 601Q466 583 438 583Q428 583 422.0 585.5Q416 588 414.0 591.0Q412 594 409.0 601.5Q406 609 404 612Q399 624 399 630Q399 638 380 651Q362 664 362 667Z" transform="translate(942.50,958.33) scale(0.9583,-0.9583)" fill="#000000" />
  <path d="M332 364Q332 368 334.5 377.0Q337 386 337 390Q337 397 333.0 401.0Q329 405 322.5 407.5Q316 410 315 411Q305 418 276 428Q257 435 249.5 440.0Q242 445 232 457Q215 480 205 480Q200 480 194.5 484.5Q189 489 184.5 497.0Q180 505 176.5 512.5Q173 520 168.5 530.5Q164 541 161 546Q152 564 152 590Q152 598 152.5 613.0Q153 628 153 640Q153 654 156.5 662.5Q160 671 176 693Q193 716 206.0 725.5Q219 735 238 742Q248 745 254 745Q310 745 368 722Q395 711 407.0 701.5Q419 692 437 667L448 650L486 685Q516 712 543.0 721.5Q570 731 618 731Q622 731 625.5 730.5Q629 730 632 730H634Q640 723 651 723Q664 723 691.0 706.0Q718 689 731 671L748 648L746 611Q745 603 744.5 596.0Q744 589 743.0 584.5Q742 580 740.0 574.0Q738 568 737.5 565.5Q737 563 734.0 557.0Q731 551 730.5 549.5Q730 548 726.0 541.5Q722 535 721 533Q709 513 700.0 503.5Q691 494 675.5 484.5Q660 475 649 466L630 453Q621 451 612.0 443.5Q603 436 592 433L569 426L572 398Q574 381 579.0 363.5Q584 346 586 321Q590 278 595 269Q597 265 594 260Q589 254 589 230Q589 198 581 190Q575 185 575 171Q575 165 568.0 158.5Q561 152 561 141Q561 122 504 88Q477 72 450 72Q424 72 411 82Q390 96 386 97Q375 101 356.5 130.0Q338 159 338 173Q338 174 338.5 176.0Q339 178 339 181Q339 190 333.5 220.0Q328 250 328.0 259.0Q328 268 330.5 299.0Q333 330 333 341Q333 345 332.5 353.0Q332 361 332 364ZM331 675Q304 684 266 684Q244 684 235.0 678.5Q226 673 216 655Q206 635 206 621Q206 562 257 519Q276 503 302.0 491.0Q328 479 345 479Q360 479 370.5 499.0Q381 519 388.5 548.5Q396 578 399 584Q406 595 406 606Q406 618 377.5 643.5Q349 669 331 675ZM514 553Q514 543 521.0 537.5Q528 532 528 531Q528 516 533.5 503.5Q539 491 550 491Q567 491 580 502Q592 512 654 552Q664 558 664 570L665 573Q670 574 675.5 585.5Q681 597 686 609L690 621Q694 626 694 635Q694 651 677 653Q672 655 664 662Q651 675 600 675Q571 675 534.0 656.5Q497 638 497 609Q497 592 507 572Q514 556 514 553ZM473 485Q473 492 467.0 505.0Q461 518 455.5 526.5Q450 535 449 536H446Q438 536 428.5 509.5Q419 483 419 475Q419 468 429 468Q442 468 457.5 472.5Q473 477 473 485ZM462 142Q492 142 512.5 188.0Q533 234 533 278Q533 296 527.5 320.0Q522 344 522 359Q520 409 486 409Q478 409 456.0 403.0Q434 397 425 397H413Q397 397 394 379Q391 360 391 319Q391 279 392.5 256.5Q394 234 400.0 203.0Q406 172 421.5 157.0Q437 142 462 142Z" transform="translate(1885.00,958.33) scale(0.9583,-0.9583)" fill="#000000" />
  <path d="M372 182Q366 182 349.0 190.0Q332 198 326 198Q319 198 290.5 213.0Q262 228 262 232Q262 234 252.0 238.0Q242 242 242 248Q242 255 240 255Q234 255 220 279Q205 305 203.0 345.0Q201 385 196 397Q192 410 196 416Q200 420 211.0 467.0Q222 514 227.5 522.0Q233 530 232.0 533.5Q231 537 220 545Q210 552 194.0 568.0Q178 584 164.5 595.5Q151 607 144 609Q128 614 112 623Q99 630 95.5 635.0Q92 640 92 652Q92 672 98.5 677.5Q105 683 126 683H130Q142 683 148.5 680.5Q155 678 156.0 675.0Q157 672 159.0 669.5Q161 667 166 667Q171 667 181.0 657.0Q191 647 205.5 634.0Q220 621 232 615Q262 599 268 594Q282 585 294 585Q308 585 318 598Q325 606 358.0 609.5Q391 613 396 617Q403 622 450 622Q492 622 524.0 611.0Q556 600 573.0 588.5Q590 577 596 577Q610 577 646.0 608.0Q682 639 684 639Q688 639 688 645Q688 647 702.5 660.0Q717 673 737.0 686.5Q757 700 770 700Q786 700 797.0 689.0Q808 678 808 665Q808 643 786 634Q774 629 748.5 610.5Q723 592 718 592Q714 592 706.0 580.5Q698 569 694 567Q688 564 688 557Q688 554 686.0 552.0Q684 550 680.5 548.5Q677 547 670.5 542.5Q664 538 658 531Q645 517 650 509Q680 454 680 388Q680 362 668.5 331.0Q657 300 647.5 284.5Q638 269 636 266Q631 263 626.0 253.5Q621 244 614.5 235.0Q608 226 586.5 214.5Q565 203 532 196Q498 189 492 182Q487 178 485.5 161.0Q484 144 484 90Q483 26 480.5 9.0Q478 -8 466 -8Q464 -8 459.5 -7.5Q455 -7 446.0 -4.5Q437 -2 429.5 1.5Q422 5 416.0 12.0Q410 19 410 28Q410 34 412 37Q415 53 410 57Q406 62 410 62Q415 62 419.5 77.0Q424 92 424 113V126Q420 166 415.0 174.5Q410 183 386 183Q382 183 377.5 182.5Q373 182 372 182ZM494 559H490Q486 559 472.5 563.5Q459 568 448 568Q421 568 384.5 550.0Q348 532 338 532Q338 532 336 532Q334 533 332 533H328Q303 533 278.5 492.0Q254 451 254 434Q254 428 258 428Q264 428 264 398V388Q264 358 270.0 338.5Q276 319 276 317V313Q276 307 290.0 298.0Q304 289 304 284Q304 279 312 275Q329 267 338 261Q361 247 436 247Q468 247 474 250Q485 254 524 264Q552 271 560.5 276.5Q569 282 586 303Q599 320 608.5 340.5Q618 361 618 375Q618 380 616 382Q615 386 618.5 396.5Q622 407 618 407Q614 410 614 422Q614 439 582 495Q577 505 557.0 523.0Q537 541 532 541Q530 541 515.0 550.0Q500 559 494 559Z" transform="translate(2827.50,958.33) scale(0.9583,-0.9583)" fill="#000000" />
</svg>
