<?xml version="1.0" encoding="UTF-8" standalone="no"?>
<!--
Representation of "wan luka" in sitelen kalama pona
Generated by generate_sitelen_kalama_pona.py

Description:
  Representation of "wan luka" in sitelen kalama pona.
  Sources: wan-luka: https://commons.wikimedia.org/wiki/File:Sitelen_seli_kiwen_-_wan-luka.svg

Categories:
  [[Category:Sitelen kalama pona]]
  [[Category:Toki Pona text containing wan luka]]

Sources:
  wan-luka: https://commons.wikimedia.org/wiki/File:Sitelen_seli_kiwen_-_wan-luka.svg
-->
<svg version="1.1" width="862" height="1000"
     viewBox="0 0 862 1000"
     xmlns="http://www.w3.org/2000/svg">
  <path d="M475 524Q475 552 489.5 584.5Q504 617 518.5 638.5Q533 660 533 662Q533 668 570 708Q579 718 605 718Q631 718 639.0 713.5Q647 709 650 709Q662 709 677.0 692.0Q692 675 688 647Q688 645 694.5 636.0Q701 627 701.0 621.0Q701 615 709.0 591.0Q717 567 718 559Q722 530 728 496Q731 484 731 423Q731 403 730.5 378.5Q730 354 729.0 333.5Q728 313 727.0 295.0Q726 277 725.0 266.0Q724 255 724 255Q724 247 725.0 236.5Q726 226 726 213Q726 207 725.5 193.5Q725 180 724.0 169.5Q723 159 723 159Q723 135 731.5 97.0Q740 59 740 58Q740 51 723.0 42.5Q706 34 691 34Q675 34 668.5 42.0Q662 50 662 71Q662 71 662.5 75.0Q663 79 663.0 84.5Q663 90 663.0 97.0Q663 104 663.0 111.0Q663 118 663 123Q663 145 664.0 182.0Q665 219 666.0 256.5Q667 294 668.5 328.0Q670 362 670.5 384.5Q671 407 671 407Q671 424 670.0 449.5Q669 475 659.5 527.5Q650 580 633 612Q626 626 628 628Q631 632 629.0 636.5Q627 641 620.5 644.5Q614 648 606 648Q596 648 591.0 644.5Q586 641 579 626Q566 600 554 582Q539 560 534.5 535.0Q530 510 530.5 493.0Q531 476 527 473Q526 472 526 458Q526 430 530.5 403.0Q535 376 535 374L542 304Q543 304 544.0 295.0Q545 286 546.5 275.0Q548 264 549 260Q551 255 546.0 245.0Q541 235 546 224Q553 215 547.5 202.5Q542 190 544 178Q546 170 549.5 142.0Q553 114 557 104Q559 100 559 86Q559 44 534 44Q521 44 506 52Q495 58 493.0 67.0Q491 76 492.0 87.5Q493 99 480.5 127.0Q468 155 440 193Q421 218 421 234Q421 245 430.0 251.5Q439 258 448 258Q461 258 470.0 251.5Q479 245 483.0 238.5Q487 232 488 232Q491 232 491 245Q491 245 490.5 250.5Q490 256 489.0 270.5Q488 285 486.5 306.0Q485 327 483.0 364.0Q481 401 479 447Q479 467 478.0 486.0Q477 505 476.0 514.5Q475 524 475 524ZM375 259V239Q375 214 372 211Q370 208 373.0 203.0Q376 198 379.5 189.5Q383 181 383 171Q383 160 388.0 151.0Q393 142 395.0 140.0Q397 138 393 132Q387 125 390.5 120.5Q394 116 392.5 106.5Q391 97 378 86Q369 77 363.0 75.0Q357 73 348 75Q333 78 326.5 85.0Q320 92 320 107Q320 108 320.5 112.0Q321 116 321 118Q323 135 320.0 145.0Q317 155 314.5 155.0Q312 155 315 162Q318 166 318 230Q318 265 313.5 413.5Q309 562 303 573Q298 581 298 592Q298 607 276 595Q230 569 215 565Q204 562 193 562Q191 562 188.0 562.5Q185 563 177.5 564.5Q170 566 166.0 569.5Q162 573 159.5 579.0Q157 585 163 594Q172 611 185.0 613.5Q198 616 214.5 618.5Q231 621 244 638Q250 645 258.5 650.0Q267 655 275.0 663.5Q283 672 292 692Q301 710 306.5 716.5Q312 723 318 723Q330 723 334 720Q352 709 357 640Q359 603 361 580Q366 530 366 491Q366 460 363 458Q362 455 362.5 454.5Q363 454 365.0 446.5Q367 439 369.0 430.5Q371 422 373.5 404.5Q376 387 376 366Q378 338 379 337Q381 332 380.0 326.0Q379 320 377.0 299.0Q375 278 375 259Z" transform="translate(0.00,958.33) scale(0.9583,-0.9583)" fill="#000000" />
</svg>
