<?xml version="1.0" encoding="UTF-8" standalone="no"?>
<!--
Representation of "Tsundoku" in sitelen ilo pona
Generated by generate_sitelen_kalama_pona.py

Description:
  Representation of "Tsundoku" in sitelen ilo pona.
  Sources: sun: https://commons.wikimedia.org/wiki/File:Sitelen_kalama_pona_-_sun.svg; o: https://commons.wikimedia.org/wiki/File:Sitelen_kalama_pona_-_xo.svg; ku: https://commons.wikimedia.org/wiki/File:Sitelen_kalama_pona_-_ku.svg

Categories:
  [[Category:Sitelen kalama pona]]
  [[Category:Toki Pona text containing sound symbol T]]
  [[Category:Toki Pona text containing sound symbol Sun]]
  [[Category:Toki Pona text containing sound symbol O]]
  [[Category:Toki Pona text containing sound symbol Ku]]

Sources:
  sun: https://commons.wikimedia.org/wiki/File:Sitelen_kalama_pona_-_sun.svg
  o: https://commons.wikimedia.org/wiki/File:Sitelen_kalama_pona_-_xo.svg
  ku: https://commons.wikimedia.org/wiki/File:Sitelen_kalama_pona_-_ku.svg
-->
<svg version="1.1" width="4271" height="1000"
     viewBox="0 0 4271 1000"
     xmlns="http://www.w3.org/2000/svg">
  <path d="M 24.637998,12.488337 H 20.72216 q -1.48166,0 -2.54,-1.058333 -1.05833,-1.058333 -1.05833,-2.54 V 3.598338 q 0,-1.481667 1.05833,-2.54 Q 19.2405,4e-6 20.72216,4e-6 h 3.915838 V 0.846671 H 20.72216 q -1.13241,0 -1.94733,0.814917 -0.80433,0.804333 -0.80433,1.93675 v 5.291666 q 0,1.132417 0.80433,1.93675 0.81492,0.814917 1.94733,0.814917 h 3.915838 z" transform="translate(-1371.19,0.00) scale(80.0747,80.0747)" fill="#000000" />
  <path d="M 75.014662,0.846671 V 4e-6 h 13.123333 v 0.846667 z m 0,11.641666 v -0.846666 h 13.123333 v 0.846666 z" transform="translate(-5405.08,0.00) scale(80.0747,80.0747)" fill="#000000" />
  <path d="M 75.014662,0.846671 V 4e-6 h 13.123333 v 0.846667 z m 0,11.641666 v -0.846666 h 13.123333 v 0.846666 z" transform="translate(-4354.24,0.00) scale(80.0747,80.0747)" fill="#000000" />
  <path d="M 75.014662,0.846671 V 4e-6 h 13.123333 v 0.846667 z m 0,11.641666 v -0.846666 h 13.123333 v 0.846666 z" transform="translate(-3303.39,0.00) scale(80.0747,80.0747)" fill="#000000" />
  <path d="m 87.714667,4e-6 h 2.8575 q 1.481666,0 2.54,1.058334 1.058333,1.058333 1.058333,2.54 v 5.291666 q 0,1.481667 -1.058333,2.54 -1.058334,1.058333 -2.54,1.058333 h -2.8575 v -0.846666 h 2.8575 q 1.132416,0 1.93675,-0.814917 0.814916,-0.804333 0.814916,-1.93675 V 3.598338 q 0,-1.132417 -0.814916,-1.93675 -0.804334,-0.814917 -1.93675,-0.814917 h -2.8575 z" transform="translate(-3269.49,0.00) scale(80.0747,80.0747)" fill="#000000" />
  <path d="M 427.60,902.87 C 389.78,902.87 353.14,925.73 345.61,968.37 C 345.61,968.37 296.38,959.68 296.39,959.63 C 307.82,894.86 363.43,852.88 427.55,852.88 C 429.20,852.88 430.85,852.91 432.51,852.97 C 434.36,852.84 436.19,852.78 437.99,852.78 C 480.36,852.78 501.45,883.93 516.73,906.51 C 531.67,928.57 539.40,938.05 553.12,938.05 C 564.33,938.05 570.54,933.00 579.00,933.00 C 582.08,933.00 583.38,933.56 587.73,933.56 C 603.39,933.56 618.75,925.01 637.89,909.68 L 684.62,859.05 L 721.38,892.95 C 672.14,946.30 672.14,946.30 670.72,947.44 C 649.72,964.45 622.72,983.58 588.06,983.58 C 586.01,983.58 583.93,983.51 581.83,983.38 C 571.83,986.40 562.14,987.94 552.89,987.94 C 511.48,987.94 490.96,957.64 475.30,934.51 C 458.85,910.21 451.66,902.71 439.15,902.71 C 436.30,902.71 435.16,903.00 433.00,903.00 C 432.95,903.00 429.39,902.87 427.60,902.87  Z M 184.24,533.83 C 184.24,625.71 260.73,704.65 353.68,712.97 C 386.01,711.86 464.94,701.15 535.02,628.63 C 537.22,626.35 539.76,624.84 545.35,619.26 C 562.88,601.72 575.03,577.42 588.80,548.64 C 589.72,541.69 590.16,535.23 590.16,529.19 C 590.16,400.93 382.04,405.91 331.67,275.00 C 330.56,272.11 330.00,269.06 330.00,266.00 C 330.00,262.47 337.91,210.91 383.37,165.45 C 429.90,118.93 496.36,96.16 561.36,96.16 C 574.48,96.16 587.54,97.08 600.36,98.93 C 602.73,98.85 605.61,98.80 608.75,98.80 C 626.95,98.80 648.41,99.18 654.71,118.07 L 656.73,124.12 L 611.20,139.30 L 616.21,146.16 L 622.71,149.41 C 620.15,149.03 612.31,148.88 606.38,148.88 C 602.05,148.88 599.07,149.00 599.00,149.00 C 594.46,149.00 583.23,146.21 562.12,146.21 C 508.64,146.21 454.28,165.26 418.73,200.81 C 401.61,217.92 388.57,238.85 381.34,264.00 C 428.37,362.57 640.09,367.23 640.09,529.57 C 640.09,529.95 639.99,557.54 635.55,566.81 C 616.30,606.98 601.26,638.38 569.96,664.42 C 538.90,696.29 463.48,759.87 353.72,762.98 C 353.48,762.99 353.24,763.00 353.00,763.00 C 351.34,763.00 269.86,761.28 202.01,693.43 C 160.55,651.98 134.24,595.37 134.24,533.91 C 134.24,524.93 134.80,515.85 135.96,506.70 C 135.90,504.18 135.87,501.68 135.87,499.18 C 135.87,417.44 167.52,344.27 178.02,270.18 C 178.19,252.24 180.44,234.48 180.44,218.20 C 180.44,212.86 180.00,206.12 180.00,206.00 C 180.00,199.53 186.50,179.43 186.50,146.18 C 186.50,141.31 186.35,136.42 186.05,131.52 L 235.95,128.46 C 236.31,134.39 236.49,140.29 236.49,146.17 C 236.49,167.20 234.22,187.81 230.17,207.78 C 230.37,211.46 230.45,215.07 230.45,218.61 C 230.45,222.78 227.84,274.86 227.76,275.42 C 217.14,352.79 185.87,425.83 185.87,499.48 C 185.87,503.48 186.00,507.91 186.00,508.00 C 186.00,511.91 184.24,519.34 184.24,533.83 Z" transform="translate(727.12,100.00) scale(0.8000,0.8000)" fill="#000000" />
  <path d="M 562.37,129.59 C 562.37,168.42 541.80,203.48 504.34,203.48 C 457.22,203.48 422.03,167.43 420.10,131.54 C 418.20,123.70 417.31,115.86 417.31,108.15 C 417.31,75.57 433.17,45.44 455.80,26.84 C 455.84,25.68 455.87,25.02 455.87,25.02 L 458.00,25.09 C 471.42,14.70 487.79,7.71 506.07,7.02 L 506.81,26.78 C 518.12,27.17 525.86,27.43 538.13,39.71 C 543.11,44.69 562.69,67.03 562.69,110.58 C 562.69,114.54 562.50,118.47 562.11,122.33 C 562.28,124.71 562.37,127.13 562.37,129.59  Z M 512.00,122.00 C 512.00,118.86 512.63,117.38 512.63,111.28 C 512.63,98.56 509.72,84.93 504.08,76.70 L 478.03,75.80 C 471.40,85.23 467.42,97.04 467.42,108.69 C 467.42,118.90 470.00,121.32 469.99,128.10 C 469.99,140.27 488.52,152.83 499.42,153.01 C 502.46,153.06 504.00,153.60 505.06,153.60 C 506.61,153.60 512.33,144.59 512.33,128.93 C 512.33,127.53 512.00,122.07 512.00,122.00  Z M 392.18,710.51 C 394.59,710.51 440.05,711.08 440.54,711.08 C 545.86,711.08 656.56,700.02 760.54,677.69 C 713.81,557.34 588.95,474.11 520.96,354.41 C 441.54,473.78 341.82,588.03 269.78,710.52 C 282.93,711.18 296.19,711.41 309.68,711.41 C 336.82,711.41 363.77,710.51 392.18,710.51  Z M 392.24,760.51 C 363.89,760.51 336.11,761.42 309.05,761.42 C 281.74,761.42 254.16,760.50 225.73,756.78 C 213.35,755.16 204.00,744.61 204.00,732.00 C 204.00,727.93 204.99,723.86 206.97,720.18 C 291.31,563.03 421.08,425.84 509.59,279.08 L 537.54,295.93 L 546.08,292.38 C 547.74,296.37 549.48,300.32 551.30,304.23 L 552.42,304.90 C 552.27,305.15 552.12,305.40 551.97,305.65 C 616.04,441.50 772.25,529.99 817.06,689.20 C 817.68,691.42 818.00,693.71 818.00,696.00 C 818.00,707.71 809.92,717.69 798.78,720.32 C 683.01,747.68 558.80,761.07 440.63,761.07 C 440.15,761.07 393.01,760.51 392.24,760.51 Z" transform="translate(1777.97,100.00) scale(0.8000,0.8000)" fill="#000000" />
  <path d="M 326.60,734.72 C 319.64,734.72 313.08,735.35 306.03,735.35 C 290.50,735.35 281.70,732.36 275.98,729.55 C 224.69,716.66 183.34,674.17 172.55,623.21 C 172.19,621.52 172.01,619.81 172.01,618.10 L 170.01,108.10 L 219.99,107.90 L 221.98,615.13 C 229.75,646.90 257.23,674.19 290.47,681.61 C 293.10,682.19 295.73,683.21 298.09,684.65 C 299.15,684.96 302.66,685.22 307.62,685.22 C 315.16,685.22 319.66,684.67 326.22,684.67 C 328.33,684.67 330.53,684.73 332.84,684.89 C 379.92,679.45 428.74,629.60 450.36,583.40 C 450.36,583.40 495.64,604.58 495.64,604.60 C 470.04,659.35 408.74,728.48 335.19,734.90 C 334.46,734.96 333.73,735.00 333.00,735.00 C 330.45,735.00 330.78,734.72 326.60,734.72  Z M 337.51,157.62 L 368.45,118.35 C 435.62,171.26 435.62,171.26 436.68,172.32 C 438.15,173.80 438.15,173.80 469.36,217.49 L 428.67,246.55 L 400.72,207.43 C 400.72,207.43 337.55,157.65 337.51,157.62  Z M 608.92,96.87 C 640.41,96.87 640.78,124.23 640.78,125.50 C 640.78,130.07 639.66,134.44 637.50,138.91 L 592.49,117.11 L 597.39,141.00 L 608.17,146.48 C 606.84,146.50 548.86,159.22 493.93,214.15 C 449.45,258.62 419.99,317.66 419.99,375.50 C 419.99,375.64 419.99,375.79 420.00,376.00 C 420.00,377.19 419.79,380.45 419.79,386.20 C 419.79,529.02 550.65,639.25 681.43,657.10 L 714.48,659.05 L 711.54,708.95 C 676.59,706.90 676.59,706.90 675.67,706.77 C 518.21,685.79 369.80,553.70 369.80,386.23 C 369.80,382.68 369.87,379.12 370.00,375.48 C 370.00,246.47 480.72,126.37 596.99,97.73 C 598.96,97.25 600.98,97.00 603.00,97.00 C 603.18,97.00 603.37,97.01 603.55,97.01 C 603.60,97.01 608.32,96.87 608.92,96.87 Z" transform="translate(2828.81,100.00) scale(0.8000,0.8000)" fill="#000000" />
</svg>
