<?xml version="1.0" encoding="UTF-8" standalone="no"?>
<!--
Representation of "jan li lon musi taso" in sitelen kalama pona
Generated by generate_sitelen_kalama_pona.py

Description:
  Representation of "jan li lon musi taso" in sitelen kalama pona.
  Sources: jan: https://commons.wikimedia.org/wiki/File:Sitelen_seli_kiwen_-_jan.svg; li: https://commons.wikimedia.org/wiki/File:Sitelen_seli_kiwen_-_li.svg; lon: https://commons.wikimedia.org/wiki/File:Sitelen_seli_kiwen_-_lon.svg; musi: https://commons.wikimedia.org/wiki/File:Sitelen_seli_kiwen_-_musi.svg; taso: https://commons.wikimedia.org/wiki/File:Sitelen_seli_kiwen_-_taso.svg

Categories:
  [[Category:Sitelen kalama pona]]
  [[Category:Toki Pona text containing jan li lon musi taso]]

Sources:
  jan: https://commons.wikimedia.org/wiki/File:Sitelen_seli_kiwen_-_jan.svg
  li: https://commons.wikimedia.org/wiki/File:Sitelen_seli_kiwen_-_li.svg
  lon: https://commons.wikimedia.org/wiki/File:Sitelen_seli_kiwen_-_lon.svg
  musi: https://commons.wikimedia.org/wiki/File:Sitelen_seli_kiwen_-_musi.svg
  taso: https://commons.wikimedia.org/wiki/File:Sitelen_seli_kiwen_-_taso.svg
-->
<svg version="1.1" width="4632" height="1000"
     viewBox="0 0 4632 1000"
     xmlns="http://www.w3.org/2000/svg">
  <path d="M342 672Q345 672 355.5 678.0Q366 684 393.0 690.5Q420 697 463 697Q487 697 550 690Q586 686 595.0 682.5Q604 679 619 663Q641 641 641 638Q641 634 648.0 634.0Q655 634 655 630Q655 626 676.0 610.0Q697 594 697 591Q697 589 703.0 576.5Q709 564 715.5 548.0Q722 532 723 521Q727 503 730 501Q734 498 734 448Q734 420 733.0 405.0Q732 390 730.0 388.0Q728 386 726.5 383.0Q725 380 725 374Q725 365 718.0 357.5Q711 350 711 346Q711 341 680.5 301.0Q650 261 650.0 257.0Q650 253 676.0 224.5Q702 196 702 194Q702 192 718.0 172.5Q734 153 734 146Q734 140 751.5 119.5Q769 99 769 85Q769 50 748 50Q726 50 715.0 59.0Q704 68 704 77Q704 82 686.5 103.0Q669 124 668 126Q663 140 624.0 182.5Q585 225 577 225Q577 225 574.5 222.5Q572 220 563.0 216.0Q554 212 538 210Q532 209 525.0 206.5Q518 204 504.5 202.5Q491 201 465 201Q413 201 370.5 206.0Q328 211 320 211Q307 211 291.5 190.0Q276 169 272 167Q266 166 266 156Q266 151 264.0 148.0Q262 145 256.5 139.5Q251 134 245 126Q240 118 229.5 105.5Q219 93 211.5 83.0Q204 73 202 66Q199 51 194 51Q187 51 163.0 56.5Q139 62 136 64Q133 67 131 85Q130 97 132.5 102.0Q135 107 145 115Q167 132 186.0 152.0Q205 172 209 184Q209 186 224.0 215.5Q239 245 242 247Q246 250 246.0 253.0Q246 256 234.5 264.0Q223 272 221.5 278.0Q220 284 202.0 305.5Q184 327 184 329Q184 331 177 340Q170 347 161.5 378.0Q153 409 153 427Q153 427 153.5 432.5Q154 438 154.0 445.5Q154 453 154 458Q154 475 173.5 510.5Q193 546 200 549Q213 554 226.5 578.0Q240 602 242 602Q244 602 288.0 637.0Q332 672 342 672ZM567 616Q544 628 527.0 631.0Q510 634 457 634Q428 634 416.0 627.5Q404 621 388 621Q353 621 308.5 590.0Q264 559 232.5 514.5Q201 470 201 435Q201 422 210.0 408.5Q219 395 219 390Q219 383 239.0 360.5Q259 338 268 334Q276 331 285.5 317.0Q295 303 301 302Q311 300 327.5 292.5Q344 285 351 278Q363 268 407.0 262.0Q451 256 483 256Q514 256 540.0 266.0Q566 276 579.5 286.5Q593 297 594 297Q600 297 611.0 306.0Q622 315 622 320Q622 322 624.5 324.0Q627 326 631.0 329.0Q635 332 643.0 344.0Q651 356 660 375Q672 399 675.0 409.0Q678 419 678 433Q678 455 675.0 471.0Q672 487 668.0 496.5Q664 506 653 528Q641 554 632.0 566.5Q623 579 619.0 579.5Q615 580 611.5 582.0Q608 584 604 591Q601 599 567 616Z" transform="translate(0.00,958.33) scale(0.9583,-0.9583)" fill="#000000" />
  <path d="M281 756Q295 756 318.5 734.0Q342 712 359.0 691.0Q376 670 376 668Q376 665 384.0 657.0Q392 649 404.0 636.5Q416 624 423 615Q435 600 479.0 553.0Q523 506 531 501Q539 496 539 492Q539 488 585.5 446.0Q632 404 641 399Q647 396 649.0 391.5Q651 387 649 375Q648 360 638.0 348.0Q628 336 619.0 329.0Q610 322 610 317Q610 314 580.5 291.5Q551 269 549 269Q544 269 544.0 263.0Q544 257 533.5 246.5Q523 236 518 236Q512 236 512 231Q512 227 505 227Q501 227 495.0 216.5Q489 206 478 202Q465 197 465 191Q465 184 461 184Q457 184 441.5 169.0Q426 154 406.0 133.0Q386 112 378 105Q345 76 345 62Q345 50 339.0 42.0Q333 34 324.0 31.5Q315 29 309.5 28.0Q304 27 300 27Q286 27 273.0 35.5Q260 44 257 45Q250 48 250 58Q250 70 259.5 84.5Q269 99 282 106Q295 112 314.5 133.5Q334 155 340 160Q362 179 385.0 203.0Q408 227 408 230Q408 233 419.5 242.5Q431 252 451.0 268.5Q471 285 485 299Q537 352 550.0 366.0Q563 380 563 385Q563 387 549.5 399.5Q536 412 520.0 425.5Q504 439 502 441Q465 481 465 485Q465 488 418.0 535.0Q371 582 371 586Q371 589 354.5 600.5Q338 612 338 619Q338 626 294.5 666.5Q251 707 251 718Q251 730 260.0 743.0Q269 756 281 756Z" transform="translate(942.50,958.33) scale(0.9583,-0.9583)" fill="#000000" />
  <path d="M150 252Q150 262 160.5 276.5Q171 291 190 291Q216 291 250.5 285.5Q285 280 296 280Q319 279 382.5 276.0Q446 273 458 273Q470 273 485.5 275.0Q501 277 506 277Q514 277 524.5 272.5Q535 268 538 269Q542 270 614.0 271.0Q686 272 702 278Q713 282 717.5 281.5Q722 281 730 276Q750 263 750 244Q750 213 712 213Q712 213 708.0 213.0Q704 213 695.5 213.5Q687 214 677.0 214.0Q667 214 652.0 214.0Q637 214 622 214Q611 214 601.0 214.0Q591 214 584.5 214.0Q578 214 573.0 213.5Q568 213 566.0 213.0Q564 213 563.5 213.0Q563 213 547.0 213.5Q531 214 505.5 214.5Q480 215 451.5 215.5Q423 216 394.0 216.5Q365 217 346 217Q333 217 322.0 217.0Q311 217 304.0 216.5Q297 216 291.5 216.0Q286 216 283.5 216.0Q281 216 280 216Q273 216 234.5 219.5Q196 223 184 224Q169 225 159.5 233.0Q150 241 150 252ZM388 467Q388 471 393.0 483.0Q398 495 412.5 508.0Q427 521 446 521Q471 521 489.5 491.0Q508 461 508 441Q508 422 487.5 410.0Q467 398 446.0 398.0Q425 398 406.5 422.5Q388 447 388 467Z" transform="translate(1885.00,958.33) scale(0.9583,-0.9583)" fill="#000000" />
  <path d="M286 410Q282 410 276.5 411.5Q271 413 268 413Q258 413 251.5 406.0Q245 399 236 380Q206 321 206 304Q206 301 210.0 294.5Q214 288 212 272Q212 268 212 262Q212 252 218.5 243.0Q225 234 228 222Q231 205 238 198Q248 189 256 178Q270 158 297.5 144.5Q325 131 347.0 125.5Q369 120 370 119Q373 115 394.5 110.0Q416 105 432.5 105.0Q449 105 480.5 114.0Q512 123 526 125Q551 128 580.5 145.0Q610 162 616 176Q618 184 626.0 184.0Q634 184 640.0 221.5Q646 259 646 270Q646 275 643.0 278.5Q640 282 639.0 282.0Q638 282 642 285Q642 285 642 289Q642 305 628.5 348.0Q615 391 610 391Q607 391 606.0 395.0Q605 399 599.0 406.0Q593 413 580 419Q558 430 547.0 442.5Q536 455 524 479Q512 506 512 518Q512 523 517.5 532.0Q523 541 524 558Q524 577 528 582Q534 586 541.0 602.5Q548 619 548 628Q548 629 549.5 633.5Q551 638 556.0 646.0Q561 654 569.5 661.0Q578 668 594.5 673.0Q611 678 632 678Q670 678 670 671Q670 667 682 667Q702 667 721.5 652.0Q741 637 750.5 623.0Q760 609 760 606Q760 600 764.5 594.5Q769 589 772 578Q775 564 778 564Q780 564 780 557Q780 544 774.5 518.5Q769 493 762 479Q752 460 737.5 445.5Q723 431 711.0 424.0Q699 417 689.5 410.0Q680 403 680 397Q680 389 692 380Q701 371 704.5 354.5Q708 338 710 273Q712 261 712 242Q712 211 703.0 195.0Q694 179 694.0 173.0Q694 167 696 163Q696 162 696.0 160.0Q696 158 696 157Q696 147 676 131Q611 78 595.0 69.5Q579 61 518 48Q470 37 420 37Q385 37 365.0 41.0Q345 45 331.5 51.5Q318 58 310 60Q298 62 282.5 73.5Q267 85 244 96Q212 111 212 116Q212 120 197.5 136.5Q183 153 180 165Q177 180 174 180Q170 180 170 189Q170 194 169.0 195.0Q168 196 164 196Q157 196 152.0 213.0Q147 230 145.0 253.0Q143 276 142.5 291.0Q142 306 142 310Q142 328 151.0 352.0Q160 376 160 384Q160 395 166 400Q173 406 173.0 416.5Q173 427 166 430Q162 431 161.0 432.5Q160 434 160.5 435.0Q161 436 158.5 440.5Q156 445 150 452Q137 466 128.5 490.5Q120 515 120 534Q120 537 123.0 551.5Q126 566 133.0 585.0Q140 604 148 612Q156 621 156 628Q156 636 170.5 655.0Q185 674 196 679Q205 683 226.0 686.0Q247 689 263.5 690.0Q280 691 282 693Q283 694 310.0 691.0Q337 688 367.0 676.5Q397 665 402 648Q403 639 408 639Q412 639 412 628Q412 619 422 609Q432 601 432 569Q432 497 400 466Q379 443 344.0 426.5Q309 410 286 410ZM368 555Q368 565 365.5 575.0Q363 585 356.0 600.0Q349 615 331.0 624.5Q313 634 286 634Q285 634 276.5 633.5Q268 633 256.0 632.0Q244 631 235.0 629.0Q226 627 226 624Q226 618 215.5 602.0Q205 586 196 576Q182 562 182 540Q182 519 196 505Q210 492 216.5 487.5Q223 483 236.0 479.0Q249 475 270 475Q288 475 314 489Q345 504 356.5 517.5Q368 531 368 555ZM712 546Q712 567 691.0 590.5Q670 614 634 614Q626 614 598 604Q588 600 581.0 574.5Q574 549 574.0 526.0Q574 503 598.5 489.0Q623 475 644 475Q677 475 694.5 499.5Q712 524 712 546Z" transform="translate(2827.50,958.33) scale(0.9583,-0.9583)" fill="#000000" />
  <path d="M580 506Q580 510 583.0 514.0Q586 518 586 522Q586 524 584.0 535.0Q582 546 582 559Q582 567 584.0 587.0Q586 607 586 624Q586 646 583.0 671.5Q580 697 580 701Q580 712 592.0 724.0Q604 736 613 736Q615 736 621.5 733.0Q628 730 632 729Q651 723 651 659Q651 625 646.5 583.5Q642 542 642 515Q642 474 650.0 380.0Q658 286 658 283Q658 269 654.0 252.0Q650 235 650.0 229.0Q650 223 652.5 216.5Q655 210 655 207Q655 206 653.5 198.0Q652 190 652 179Q652 171 653.0 158.0Q654 145 654 136Q654 87 625 87Q608 87 593.0 99.5Q578 112 578 127Q578 137 585.0 185.0Q592 233 592 250Q592 258 590.5 265.0Q589 272 587.5 275.0Q586 278 586.0 280.5Q586 283 589 285Q592 286 592 295Q592 301 590.0 316.0Q588 331 588 335Q588 338 589.5 342.0Q591 346 591 349Q593 358 591.0 360.0Q589 362 579 362Q567 362 490.5 364.5Q414 367 394 367Q375 366 372 366Q251 366 251 393Q251 400 246 400Q242 400 242.0 407.0Q242 414 246 414Q247 414 254.5 432.0Q262 450 277 450Q278 450 288.0 448.0Q298 446 318.5 443.5Q339 441 366 441H370Q396 441 406.0 436.5Q416 432 430 432Q436 432 454.5 433.0Q473 434 490 434H548Q577 434 582.0 437.0Q587 440 587.0 456.0Q587 472 583.5 488.0Q580 504 580 506Z" transform="translate(3770.00,958.33) scale(0.9583,-0.9583)" fill="#000000" />
</svg>
