<?xml version="1.0" encoding="UTF-8" standalone="no"?>
<!--
Representation of "ijo apeja" in sitelen kalama pona
Generated by generate_sitelen_kalama_pona.py

Description:
  Representation of "ijo apeja" in sitelen kalama pona.
  Sources: ijo-apeja: https://commons.wikimedia.org/wiki/File:Sitelen_seli_kiwen_-_ijo-apeja.svg

Categories:
  [[Category:Sitelen kalama pona]]
  [[Category:Toki Pona text containing ijo apeja]]

Sources:
  ijo-apeja: https://commons.wikimedia.org/wiki/File:Sitelen_seli_kiwen_-_ijo-apeja.svg
-->
<svg version="1.1" width="862" height="1000"
     viewBox="0 0 862 1000"
     xmlns="http://www.w3.org/2000/svg">
  <path d="M474 341Q486 341 498.0 330.5Q510 320 512 320Q515 320 523.5 297.5Q532 275 532 265Q532 249 515.0 240.0Q498 231 475.5 226.5Q453 222 448 219Q441 213 430 213Q423 213 418.5 215.5Q414 218 408.5 223.0Q403 228 396 231Q374 244 374 280Q374 304 386 314Q411 338 428 338Q475 338 474 341ZM448 269Q454 269 454 271Q456 275 450 277Q447 278 444 278Q438 278 438 273Q438 269 448 269ZM438 438Q446 438 486.0 422.5Q526 407 528 403Q533 397 563.5 382.5Q594 368 618 360Q645 351 653.5 344.0Q662 337 662 322Q662 300 657.0 292.0Q652 284 636 284Q615 284 591.0 300.5Q567 317 548 323Q518 333 518 334Q516 336 493.5 347.5Q471 359 466 365Q460 372 454 367Q451 364 422.5 352.5Q394 341 386 334Q340 297 328 297Q322 297 307.5 287.5Q293 278 276 278Q242 278 242 305Q242 323 257.0 339.5Q272 356 290 357Q303 358 320.0 365.0Q337 372 342 373Q349 374 371.0 394.0Q393 414 395.5 414.0Q398 414 416.5 426.0Q435 438 438 438ZM258 493Q258 513 284.0 535.5Q310 558 326 558Q358 558 385.0 530.5Q412 503 412 485Q412 457 388.5 426.5Q365 396 348 396Q330 396 311.5 408.0Q293 420 290 420Q284 421 276.0 439.5Q268 458 263.0 474.5Q258 491 258 493ZM356 484Q356 493 350.0 498.0Q344 503 338 503Q332 503 328.5 500.0Q325 497 325 488Q325 466 340 466Q346 466 351.0 471.5Q356 477 356 484ZM500 519Q500 521 505.0 531.5Q510 542 523.0 553.5Q536 565 550 565Q582 565 612.0 536.0Q642 507 642 483Q642 472 630.5 453.5Q619 435 616 428Q606 406 574 406Q521 406 512 437Q507 450 497.5 464.5Q488 479 488 484Q488 487 490 489Q500 507 500 519ZM580 493Q577 503 568.0 503.0Q559 503 556 494Q550 475 568 475Q584 475 580 493ZM106 419Q106 437 115.0 463.0Q124 489 124 494Q124 499 138.0 520.5Q152 542 154 555Q159 579 173.0 593.5Q187 608 206.0 619.0Q225 630 232 639Q245 653 248 653Q253 653 268.5 664.0Q284 675 306.5 690.5Q329 706 348 713Q371 721 404 721Q428 721 444 720Q520 718 536.5 715.5Q553 713 578 701Q608 686 616 686Q622 686 627.0 683.0Q632 680 641.0 672.0Q650 664 660 658Q678 647 702.0 625.5Q726 604 728 596Q730 591 742.5 580.5Q755 570 758 560Q759 551 771.0 534.5Q783 518 784 497Q784 486 789.0 468.0Q794 450 794 401Q794 352 790 330Q778 285 740.0 225.5Q702 166 686 166Q681 166 644.5 152.0Q608 138 604 138Q602 138 572 124Q538 106 452 106Q418 106 395.5 113.5Q373 121 361.5 128.5Q350 136 343 136Q340 136 336 135H332Q318 135 267.5 157.5Q217 180 212 191Q209 198 187.0 214.0Q165 230 162 242Q160 252 151.0 261.5Q142 271 138 278Q120 313 116.0 329.0Q112 345 106 403Q106 409 106 419ZM736 405Q736 437 731.5 456.5Q727 476 722.5 484.0Q718 492 718 497Q718 508 714 508Q711 508 709.5 510.0Q708 512 702.0 522.5Q696 533 686 547Q669 567 666 572Q663 579 641.0 593.5Q619 608 604 613Q585 619 554 634Q528 646 496.5 647.0Q465 648 462 650Q462 650 447.5 652.5Q433 655 417.0 657.5Q401 660 398 660Q385 660 370.0 655.0Q355 650 346.0 644.5Q337 639 336 639Q331 639 314.5 626.5Q298 614 275.5 597.0Q253 580 240 573Q228 567 220.5 556.0Q213 545 196 512Q178 476 172.0 451.0Q166 426 166 392Q166 359 173.0 338.5Q180 318 187.0 310.0Q194 302 194 300Q194 295 203.0 284.5Q212 274 212 270Q212 264 218 264Q223 264 240 249Q266 226 311.5 211.0Q357 196 364 192Q386 178 458 178Q493 178 516.0 181.0Q539 184 549.0 187.5Q559 191 578 200Q614 217 634 222Q651 227 670.5 242.0Q690 257 690 265Q690 267 699.5 280.5Q709 294 718.5 313.0Q728 332 728 347Q728 352 726 353Q725 356 725 356Q725 357 725.5 357.5Q726 358 726.5 358.0Q727 358 728.0 359.5Q729 361 730.0 362.5Q731 364 732.0 368.0Q733 372 734.0 376.5Q735 381 735.5 388.5Q736 396 736 405Z" transform="translate(0.00,958.33) scale(0.9583,-0.9583)" fill="#000000" />
</svg>
