<?xml version="1.0" encoding="UTF-8" standalone="no"?>
<!--
Representation of "kili pi selo mute" in sitelen ilo pona
Generated by generate_sitelen_kalama_pona.py

Description:
  Representation of "kili pi selo mute" in sitelen ilo pona.
  Sources: kili: https://commons.wikimedia.org/wiki/File:Sitelen_seli_kiwen_-_kili.svg; pi: https://commons.wikimedia.org/wiki/File:Sitelen_seli_kiwen_-_pi.svg; selo: https://commons.wikimedia.org/wiki/File:Sitelen_seli_kiwen_-_selo.svg; mute: https://commons.wikimedia.org/wiki/File:Sitelen_seli_kiwen_-_mute.svg

Categories:
  [[Category:Sitelen kalama pona]]
  [[Category:Toki Pona text containing kili pi selo mute]]

Sources:
  kili: https://commons.wikimedia.org/wiki/File:Sitelen_seli_kiwen_-_kili.svg
  pi: https://commons.wikimedia.org/wiki/File:Sitelen_seli_kiwen_-_pi.svg
  selo: https://commons.wikimedia.org/wiki/File:Sitelen_seli_kiwen_-_selo.svg
  mute: https://commons.wikimedia.org/wiki/File:Sitelen_seli_kiwen_-_mute.svg
-->
<svg version="1.1" width="3690" height="1000"
     viewBox="0 0 3690 1000"
     xmlns="http://www.w3.org/2000/svg">
  <path d="M774 414Q774 401 781.0 351.0Q788 301 788 275Q788 258 776.5 233.0Q765 208 762 177Q761 169 737.0 141.5Q713 114 706 114Q704 114 692.5 106.5Q681 99 663.5 88.0Q646 77 632 71Q620 65 601.0 52.5Q582 40 556 31Q514 17 468 17Q441 17 412.5 21.0Q384 25 362.0 30.0Q340 35 288 47Q280 49 260.0 67.5Q240 86 238 86Q226 86 179.0 146.5Q132 207 132 221Q132 232 126.0 239.0Q120 246 118 256Q117 266 114 273Q112 276 112 322Q112 349 113.0 365.5Q114 382 123.0 407.5Q132 433 150 452Q166 470 172 470Q174 470 182.0 476.0Q190 482 201.5 491.5Q213 501 224 506Q237 514 242 519Q244 523 292 523Q327 523 338 516Q360 504 388 489Q410 478 410 473Q410 471 415 477Q436 509 436 523Q436 528 436.5 529.5Q437 531 440 531Q448 531 448 541Q448 548 455.0 557.5Q462 567 462 573Q462 587 502.5 638.0Q543 689 558 689Q570 689 584.0 678.0Q598 667 598.0 659.0Q598 651 590.5 638.0Q583 625 578 625Q570 625 570 618Q570 614 543.0 583.5Q516 553 512 534Q509 526 510.5 524.0Q512 522 522 522Q531 522 561.0 529.5Q591 537 618 537Q641 537 657.5 532.5Q674 528 679.0 524.0Q684 520 694 512Q705 500 716.5 493.0Q728 486 733.0 483.5Q738 481 738.0 479.0Q738 477 739.0 476.5Q740 476 746 476Q752 476 761.0 454.5Q770 433 772 433Q774 433 774 420ZM686 171Q687 171 691.5 174.5Q696 178 703.0 187.0Q710 196 716.5 208.5Q723 221 727.5 243.5Q732 266 732 292Q732 370 714 413Q708 426 689.0 446.5Q670 467 664 467Q659 467 655.5 473.5Q652 480 636 479Q616 478 591.0 473.0Q566 468 566 465Q566 461 558 461Q544 461 515.0 437.5Q486 414 486 393Q486 381 482 381Q476 381 476 374Q476 368 470 368Q460 368 436 372Q416 376 411.0 379.0Q406 382 404 391Q403 398 399.5 401.5Q396 405 387.0 410.0Q378 415 370 423Q358 437 354 437Q350 437 341.5 441.5Q333 446 319.0 450.0Q305 454 288 454Q266 454 262 448Q258 442 246.0 437.5Q234 433 218.5 422.5Q203 412 190 392Q180 377 177.0 369.5Q174 362 174 346Q174 301 184 271Q197 235 200 224Q202 213 219.0 192.0Q236 171 260.0 148.0Q284 125 317.5 107.0Q351 89 382 88Q422 86 438 86Q494 86 529.0 95.0Q564 104 580.0 112.5Q596 121 606 121Q608 121 609.0 120.5Q610 120 610 120Q619 120 637.0 130.5Q655 141 660 149Q674 171 686 171Z" transform="translate(0.00,958.33) scale(0.9583,-0.9583)" fill="#000000" />
  <path d="M178 600Q178 613 172.0 629.5Q166 646 166 651Q166 660 178 675Q187 686 191.5 688.0Q196 690 206 688Q221 685 228.5 675.5Q236 666 237.0 657.5Q238 649 238 634V602Q238 561 244.0 524.5Q250 488 250 466Q250 451 248.0 418.5Q246 386 246 369Q246 369 246.0 367.0Q246 365 246.5 361.5Q247 358 247.5 353.0Q248 348 248.0 339.5Q248 331 248.5 321.0Q249 311 249.5 296.5Q250 282 250 266Q250 179 252 177Q260 168 392 168Q392 168 438.0 168.0Q484 168 532.0 168.5Q580 169 584 169Q698 169 704 167Q710 164 716 164Q722 163 728.0 144.5Q734 126 734 111Q734 109 733.0 103.5Q732 98 727.5 90.5Q723 83 716 83Q714 83 683.5 92.5Q653 102 624 102Q612 102 594.0 100.0Q576 98 562 98Q562 98 558.5 98.5Q555 99 548.0 99.5Q541 100 532.0 100.5Q523 101 510.5 101.5Q498 102 486 102Q485 102 480.5 102.0Q476 102 469.0 101.5Q462 101 454.5 100.5Q447 100 439.5 100.0Q432 100 428 100Q344 100 230 92L190 90L184 104Q180 114 180 131Q180 157 185.0 176.5Q190 196 190 218Q190 218 190.0 225.0Q190 232 190.0 242.5Q190 253 189.5 264.5Q189 276 188.5 287.0Q188 298 188 304Q188 326 190.0 374.0Q192 422 192 441Q192 517 178 540Q176 543 177.0 544.0Q178 545 180.0 545.5Q182 546 182.5 549.5Q183 553 180 562Q176 571 176 578Q176 581 177.0 588.5Q178 596 178 600Z" transform="translate(942.50,958.33) scale(0.9583,-0.9583)" fill="#000000" />
  <path d="M106 461Q106 461 106 472Q106 531 120 531Q125 531 130.5 540.0Q136 549 148 545Q157 542 262.0 535.5Q367 529 381 529Q392 529 486.0 538.0Q580 547 596.0 550.0Q612 553 642.5 555.0Q673 557 696.0 558.0Q719 559 721.0 561.0Q723 563 729 563Q751 563 762 550Q770 542 770 490Q770 472 769.5 442.5Q769 413 768.5 390.0Q768 367 768 366Q768 347 772.5 327.5Q777 308 781.5 295.0Q786 282 786 281V280Q785 279 785 278Q785 275 789.5 259.0Q794 243 794 236Q794 226 788.0 220.0Q782 214 774 214Q767 214 756.0 222.0Q745 230 733 233Q722 235 719.5 240.0Q717 245 715 268Q711 306 709.5 361.5Q708 417 706.0 448.5Q704 480 700 485Q691 496 661 496Q644 496 622 491L593 483L595 459Q595 455 610.0 382.0Q625 309 625 268Q625 242 616.5 232.0Q608 222 586 222Q560 222 555.5 231.5Q551 241 551 298Q551 352 544.5 388.5Q538 425 532.0 442.0Q526 459 526 466Q526 476 522.5 478.0Q519 480 499 480Q481 480 443.5 475.0Q406 470 377 469Q336 468 328.5 457.0Q321 446 321 383Q321 346 324.5 335.0Q328 324 328 302Q328 264 322.5 254.5Q317 245 297 245Q281 245 275.0 250.5Q269 256 264.0 284.5Q259 313 256 379Q252 464 240 466Q224 470 201 470Q176 470 172 466Q164 458 164 352Q164 321 172.5 304.0Q181 287 181 257Q181 235 173.5 226.0Q166 217 146 217Q129 217 122.0 223.0Q115 229 115 245Q115 250 115.5 258.0Q116 266 116 275Q116 288 111.0 344.0Q106 400 106 461Z" transform="translate(1885.00,958.33) scale(0.9583,-0.9583)" fill="#000000" />
  <path d="M464 121Q464 96 461.5 80.0Q459 64 453.5 58.0Q448 52 444.5 50.5Q441 49 434 49Q421 49 409.0 58.0Q397 67 397 79Q397 79 399.0 90.0Q401 101 400 109Q399 123 399 159Q399 199 403.0 239.0Q407 279 408 323Q409 345 410.5 374.5Q412 404 414.0 430.0Q416 456 417.5 479.0Q419 502 420.0 516.0Q421 530 421 530Q421 545 419.0 569.0Q417 593 417 603Q417 657 446 657Q469 657 475.5 644.5Q482 632 482 599Q482 595 476.5 526.5Q471 458 465.5 377.5Q460 297 460 264Q460 245 462 243Q467 240 466.5 229.5Q466 219 461 214Q455 208 455 179Q455 157 459.5 146.5Q464 136 464 121ZM246 153Q246 149 242.5 141.5Q239 134 239 124V113Q239 80 209 84Q190 86 184.5 94.5Q179 103 179 135Q179 186 185.0 227.0Q191 268 191 337Q191 366 190.0 397.0Q189 428 187.0 451.5Q185 475 183.5 493.5Q182 512 180.5 523.0Q179 534 179 534Q179 539 180.5 547.0Q182 555 182 571Q182 618 175 627Q170 634 177.0 637.5Q184 641 184 646Q184 652 190.5 654.5Q197 657 203 655Q223 650 223 650Q234 648 243.5 634.5Q253 621 253 611Q253 607 250.5 604.0Q248 601 248.0 600.5Q248 600 251 596Q257 593 250 588Q244 584 244 533Q244 533 244.5 523.0Q245 513 245.0 496.0Q245 479 245.0 458.5Q245 438 245.0 411.0Q245 384 245 359Q245 335 245.0 312.5Q245 290 245.0 273.0Q245 256 244.5 241.5Q244 227 244.0 217.0Q244 207 244.0 200.0Q244 193 243.5 189.5Q243 186 243 186Q243 174 244.5 164.0Q246 154 246 153ZM661 553Q661 560 663.5 575.5Q666 591 666 608L665 627Q665 643 672.5 656.5Q680 670 690 670Q692 670 698.5 668.5Q705 667 708 667Q713 667 720.0 650.5Q727 634 727 624Q727 623 726.0 619.5Q725 616 723.5 607.5Q722 599 721 588Q714 507 710 502Q700 490 700 330Q700 234 701.5 205.0Q703 176 707 160Q707 159 707.5 157.0Q708 155 708 153Q708 140 701.0 129.0Q694 118 679 118Q669 118 654 124L639 129L642 163Q645 188 645 202Q645 202 645.0 205.0Q645 208 644.5 214.0Q644 220 644 229Q644 272 646.5 343.0Q649 414 650 426Q652 438 654.0 460.0Q656 482 658.0 498.5Q660 515 662 520Q664 523 664 528Q664 530 662.5 538.0Q661 546 661 553Z" transform="translate(2827.50,958.33) scale(0.9583,-0.9583)" fill="#000000" />
</svg>
