<?xml version="1.0" encoding="UTF-8" standalone="no"?>
<!--
Representation of "tenpo ijo" in sitelen ilo pona
Generated by generate_sitelen_kalama_pona.py

Description:
  Representation of "tenpo ijo" in sitelen ilo pona.
  Sources: tenpo: https://commons.wikimedia.org/wiki/File:Sitelen_seli_kiwen_-_tenpo.svg; ijo: https://commons.wikimedia.org/wiki/File:Sitelen_seli_kiwen_-_ijo.svg

Categories:
  [[Category:Sitelen kalama pona]]
  [[Category:Toki Pona text containing tenpo ijo]]

Sources:
  tenpo: https://commons.wikimedia.org/wiki/File:Sitelen_seli_kiwen_-_tenpo.svg
  ijo: https://commons.wikimedia.org/wiki/File:Sitelen_seli_kiwen_-_ijo.svg
-->
<svg version="1.1" width="1805" height="1000"
     viewBox="0 0 1805 1000"
     xmlns="http://www.w3.org/2000/svg">
  <path d="M376 453Q376 473 372.0 493.5Q368 514 368 521Q368 531 376.0 540.0Q384 549 394 549Q399 549 406.5 543.0Q414 537 422 535Q428 534 430.0 526.0Q432 518 436 487Q438 459 438 448Q438 430 436.0 416.0Q434 402 434 397Q434 381 442.5 376.5Q451 372 478 372Q508 372 547.0 377.5Q586 383 594 383Q603 383 612.5 373.0Q622 363 622 352Q622 345 619.5 338.0Q617 331 605.5 322.5Q594 314 574 313Q565 313 529.5 307.5Q494 302 448 302Q404 302 394.5 303.5Q385 305 378 313L368 324L374 392Q376 432 376 453ZM532 74H528Q525 74 513.5 71.0Q502 68 480.0 65.5Q458 63 430 63Q400 63 381.0 67.5Q362 72 351.0 77.5Q340 83 334 84Q323 85 307.0 90.0Q291 95 276.0 101.5Q261 108 248.0 114.0Q235 120 227.0 124.0Q219 128 218 128Q213 128 187.5 152.0Q162 176 162 182Q162 183 147.5 201.0Q133 219 118.5 251.0Q104 283 104 317Q104 339 112.0 373.5Q120 408 120 417Q120 447 124.5 464.5Q129 482 142 505Q162 536 162 540Q162 543 183.0 567.0Q204 591 204.0 594.0Q204 597 221.0 613.5Q238 630 238 634Q238 639 242 639Q246 639 255.0 646.0Q264 653 276.5 663.5Q289 674 298 679Q307 684 324.5 695.0Q342 706 356.0 713.5Q370 721 378 723Q385 725 422 725Q478 725 504.0 720.0Q530 715 534 715Q546 715 580.0 699.5Q614 684 640 678Q649 676 659.5 668.5Q670 661 678 658Q687 655 710.5 628.5Q734 602 734 595Q734 592 748.0 570.5Q762 549 762 544Q762 543 766.0 533.5Q770 524 775.5 506.0Q781 488 784 468Q785 453 788 446Q794 436 795.0 422.5Q796 409 796 339Q796 337 790.5 319.0Q785 301 784 291Q784 278 780 278Q778 278 774.0 261.5Q770 245 766 243Q764 242 758.0 229.0Q752 216 740.5 198.0Q729 180 716 168Q694 148 688 141Q681 133 676 133Q674 133 653.5 120.0Q633 107 626 106Q615 104 577.0 89.0Q539 74 532 74ZM442 131Q445 131 461.0 132.0Q477 133 501.0 135.5Q525 138 542.5 142.5Q560 147 560 154Q560 159 570.5 160.0Q581 161 598.5 165.0Q616 169 628 180Q644 194 648 194Q656 194 670.5 210.0Q685 226 697.5 242.5Q710 259 710 259Q716 259 726.0 296.5Q736 334 736 352Q736 355 732.5 375.5Q729 396 728 424Q726 459 713.5 494.0Q701 529 690.0 546.5Q679 564 678 564Q674 564 674 571Q674 578 655.5 594.5Q637 611 630 611Q622 611 622 616Q622 620 614 620Q607 620 604 627Q596 641 542.5 653.5Q489 666 448 666Q424 666 388.5 658.5Q353 651 340 636Q333 629 313.0 617.5Q293 606 282 593Q258 567 250 559Q232 544 232 534Q232 528 213.0 509.5Q194 491 194 487Q194 485 187.0 467.0Q180 449 178 430Q177 411 170.5 371.5Q164 332 164 323Q164 316 168.5 298.5Q173 281 193.0 245.5Q213 210 246 185Q282 156 290 156Q293 156 342.5 143.5Q392 131 442 131Z" transform="translate(0.00,958.33) scale(0.9583,-0.9583)" fill="#000000" />
  <path d="M467 716Q467 716 469.0 716.0Q471 716 475.5 715.5Q480 715 485.5 714.5Q491 714 500.5 714.0Q510 714 521 714L564 713L606 686Q651 657 688.0 624.0Q725 591 733 572Q738 559 740.5 559.0Q743 559 752.0 544.0Q761 529 773.5 486.5Q786 444 791 390Q792 382 793.5 376.5Q795 371 795.0 370.5Q795 370 794 365Q782 347 782 326Q782 308 771.0 283.0Q760 258 758 243Q756 227 721.0 193.5Q686 160 686 157Q686 152 677 152Q668 152 666 147Q664 141 629.0 121.5Q594 102 531.5 81.5Q469 61 413 61Q354 61 291 79Q264 87 253.5 93.5Q243 100 226 117Q209 134 194.0 144.0Q179 154 170.0 162.0Q161 170 151 187Q134 215 124 227Q105 250 105 345Q105 382 106.5 404.0Q108 426 110.0 431.0Q112 436 114.0 438.5Q116 441 116 444Q116 457 145 538Q153 562 163.0 575.0Q173 588 196 604Q204 610 216.5 621.0Q229 632 237.5 640.0Q246 648 248 648Q255 648 277.0 659.5Q299 671 301 671Q321 672 346.0 678.0Q371 684 376 688Q384 695 419.0 705.5Q454 716 467 716ZM676 545Q676 551 650.0 575.5Q624 600 588.0 624.0Q552 648 530 648Q516 648 498.5 638.0Q481 628 473 628Q469 628 462.5 631.0Q456 634 439.0 634.0Q422 634 414.5 632.5Q407 631 395.0 627.5Q383 624 361 621Q324 616 289.0 598.5Q254 581 254 563Q254 555 245 555Q238 555 231.5 549.5Q225 544 219 541Q211 538 200.0 517.0Q189 496 184 491Q176 482 169.5 435.0Q163 388 156 379Q149 372 149 331Q149 301 154 300Q158 298 157.0 290.5Q156 283 159 277Q164 269 167 259Q170 242 211.5 204.5Q253 167 277 159Q285 156 306.5 144.0Q328 132 353 129Q381 126 428 126Q495 126 505 131Q552 156 564 156Q565 156 579.5 164.0Q594 172 616.5 188.5Q639 205 661.0 226.0Q683 247 700.5 276.0Q718 305 721 335Q724 364 724 390Q724 420 719.0 446.5Q714 473 707.0 490.0Q700 507 693.0 519.0Q686 531 681.0 537.5Q676 544 676 545Z" transform="translate(942.50,958.33) scale(0.9583,-0.9583)" fill="#000000" />
</svg>
