<?xml version="1.0" encoding="UTF-8" standalone="no"?>
<!--
Representation of "sona mun" in sitelen ilo pona
Generated by generate_sitelen_kalama_pona.py

Description:
  Representation of "sona mun" in sitelen ilo pona.
  Sources: sona: https://commons.wikimedia.org/wiki/File:Sitelen_seli_kiwen_-_sona.svg; mun: https://commons.wikimedia.org/wiki/File:Sitelen_seli_kiwen_-_mun.svg

Categories:
  [[Category:Sitelen kalama pona]]
  [[Category:Toki Pona text containing sona mun]]

Sources:
  sona: https://commons.wikimedia.org/wiki/File:Sitelen_seli_kiwen_-_sona.svg
  mun: https://commons.wikimedia.org/wiki/File:Sitelen_seli_kiwen_-_mun.svg
-->
<svg version="1.1" width="1805" height="1000"
     viewBox="0 0 1805 1000"
     xmlns="http://www.w3.org/2000/svg">
  <path d="M598 442Q623 442 626.0 444.5Q629 447 635 447Q643 447 650 458Q652 461 653 457Q655 451 660 451Q667 451 680.5 437.5Q694 424 694 408Q694 398 688 388Q678 374 678 269Q678 212 683.5 188.0Q689 164 689 140Q689 125 686.5 119.5Q684 114 685 104Q687 91 687 69Q687 18 661 18Q648 18 593.0 29.5Q538 41 479 41L448 40Q418 40 386.5 40.0Q355 40 352 40Q289 40 255.5 43.5Q222 47 211.5 53.0Q201 59 201 70Q201 74 203 84Q207 97 205.5 106.5Q204 116 208 117Q212 122 212 137Q212 141 211.5 149.0Q211 157 211 160Q211 166 213 166Q216 166 218.5 247.0Q221 328 221 344Q221 374 216.5 390.0Q212 406 212 411Q212 413 212.5 416.0Q213 419 216.0 426.0Q219 433 223.5 438.5Q228 444 238.0 448.5Q248 453 261 453L266 452Q272 452 281.0 451.0Q290 450 301.0 449.0Q312 448 325.0 447.5Q338 447 349 447Q416 446 438 442Q454 440 457 440Q462 440 466.5 441.0Q471 442 473.0 442.5Q475 443 476.5 444.0Q478 445 479 445L480 442Q481 440 483.5 439.0Q486 438 494 441Q502 443 531 443Q532 443 565 442ZM271 324Q271 323 274.0 308.5Q277 294 277 280Q277 267 272.0 233.0Q267 199 267 169Q267 148 270.5 143.5Q274 139 274 133Q274 123 279 123Q283 123 283.0 117.0Q283 111 294 104Q303 98 334 98Q340 98 369.0 99.0Q398 100 443.5 100.5Q489 101 536 101H553Q604 101 616.5 102.5Q629 104 629 112Q629 113 626.0 127.5Q623 142 625 146Q626 147 626 154Q626 157 620.5 262.0Q615 367 614 368Q611 376 549.0 380.0Q487 384 461 384Q449 384 440.5 382.0Q432 380 425 380Q417 380 403.5 381.5Q390 383 384 383Q372 383 362.5 380.0Q353 377 351 377L346 378Q341 380 330.0 381.5Q319 383 305 383Q287 383 283.0 380.5Q279 378 281 370Q281 369 281.5 367.5Q282 366 282 365Q282 358 276.5 344.0Q271 330 271 324ZM106 644Q106 671 139 671Q149 671 165.5 657.5Q182 644 189 631Q196 617 222.5 588.0Q249 559 249 549Q249 523 234 523Q218 523 198.5 538.5Q179 554 177 554Q171 554 171.0 559.0Q171 564 152.5 582.5Q134 601 123 608Q106 619 106 644ZM755 708Q773 708 782.0 704.0Q791 700 792.5 696.0Q794 692 794 684Q794 669 773.0 646.5Q752 624 752 621Q752 619 747.0 617.0Q742 615 729.0 607.0Q716 599 702 586Q678 564 675.0 564.0Q672 564 662 556Q653 548 635 557L617 565L624 586Q631 606 635 606Q636 606 656.5 622.5Q677 639 698.0 658.0Q719 677 719 681Q719 684 720.0 688.5Q721 693 730.0 700.5Q739 708 755 708ZM402 725Q402 744 409.5 757.5Q417 771 424.0 775.0Q431 779 435 779Q445 779 459.0 767.5Q473 756 473 742L470 734Q468 727 465.0 715.5Q462 704 458.5 690.5Q455 677 452.5 663.0Q450 649 450 639Q450 630 454.0 617.0Q458 604 458 598Q458 590 451.0 584.5Q444 579 438.5 577.5Q433 576 431 576Q415 576 403.5 596.5Q392 617 392 643Q392 648 394.0 663.5Q396 679 398 693L400 707Q402 707 402 713Z" transform="translate(0.00,958.33) scale(0.9583,-0.9583)" fill="#000000" />
  <path d="M366 427Q366 428 367.0 429.0Q368 430 368 432Q368 448 308 512Q291 530 254.0 537.5Q217 545 183.0 547.0Q149 549 144 552Q140 555 140 572Q140 586 152.0 601.0Q164 616 176 616Q182 616 203.5 632.0Q225 648 230 648Q238 648 273.0 671.0Q308 694 308 699Q308 705 314 705Q318 705 373.0 711.5Q428 718 432 718Q448 718 491.0 706.5Q534 695 556 685Q587 671 614 660Q635 653 652.5 642.0Q670 631 670 624Q670 618 686 602Q709 578 734.5 511.5Q760 445 760 402Q760 287 728 245Q689 191 678.5 177.0Q668 163 660 159Q657 157 638.5 141.0Q620 125 600.5 112.5Q581 100 566 100Q561 100 551.5 93.0Q542 86 532 86Q522 86 502 78Q484 70 404 70H324L278 90Q233 110 204.5 134.0Q176 158 176 176Q176 204 187.0 215.5Q198 227 222 227Q232 227 239.0 233.0Q246 239 256 239Q256 239 259.5 238.5Q263 238 264.5 238.0Q266 238 269.0 237.5Q272 237 274 237Q284 237 300 252Q314 264 340 284Q380 313 380 370Q380 382 373.0 403.5Q366 425 366 427ZM284 167Q284 166 286.0 163.0Q288 160 296.0 155.0Q304 150 317.5 146.0Q331 142 357.5 138.5Q384 135 418 135Q448 135 459.0 139.5Q470 144 486 145Q513 146 535.0 155.0Q557 164 567.5 172.0Q578 180 578 180Q584 180 608.5 203.0Q633 226 652 248Q672 273 679.5 286.0Q687 299 692.5 327.5Q698 356 698 408Q698 419 697.0 423.5Q696 428 694.5 429.5Q693 431 690.5 441.0Q688 451 686 470Q685 472 684.5 475.5Q684 479 684.0 480.0Q684 481 683.5 484.0Q683 487 682.5 487.5Q682 488 681.5 490.0Q681 492 680.5 492.5Q680 493 679.5 494.5Q679 496 677.5 497.5Q676 499 674.5 500.5Q673 502 672 504Q665 512 656.5 530.0Q648 548 630 569Q607 596 575.5 611.5Q544 627 480 642Q438 652 414 652Q383 652 351.5 642.5Q320 633 302.0 622.5Q284 612 284 606Q284 603 323.5 585.0Q363 567 366 554Q369 547 379.5 534.0Q390 521 390 518Q390 512 398 506Q410 499 422.0 473.5Q434 448 434 431Q434 416 438.0 395.5Q442 375 442 373L440 370Q440 369 436 303Q434 288 401.0 253.5Q368 219 368 218Q368 214 355.5 204.0Q343 194 338 194Q332 194 332 190Q332 186 317.5 178.0Q303 170 294 170Q284 170 284 167Z" transform="translate(942.50,958.33) scale(0.9583,-0.9583)" fill="#000000" />
</svg>
