<?xml version="1.0" encoding="UTF-8" standalone="no"?>
<!--
Representation of "weka ale" in sitelen kalama pona
Generated by generate_sitelen_kalama_pona.py

Description:
  Representation of "weka ale" in sitelen kalama pona.
  Sources: weka: https://commons.wikimedia.org/wiki/File:Sitelen_seli_kiwen_-_weka.svg; ale: https://commons.wikimedia.org/wiki/File:Sitelen_seli_kiwen_-_ale.svg

Categories:
  [[Category:Sitelen kalama pona]]
  [[Category:Toki Pona text containing weka ale]]

Sources:
  weka: https://commons.wikimedia.org/wiki/File:Sitelen_seli_kiwen_-_weka.svg
  ale: https://commons.wikimedia.org/wiki/File:Sitelen_seli_kiwen_-_ale.svg
-->
<svg version="1.1" width="1805" height="1000"
     viewBox="0 0 1805 1000"
     xmlns="http://www.w3.org/2000/svg">
  <path d="M218 187Q230 194 271.5 241.0Q313 288 336 288Q348 288 360 279Q368 272 369.0 268.0Q370 264 366.0 250.0Q362 236 351.0 226.0Q340 216 331.5 211.0Q323 206 323 203Q323 199 259 135L196 71L173 74Q142 78 142 96Q142 108 153.0 124.0Q164 140 174 145Q182 149 192.0 163.5Q202 178 218 187ZM576 314Q613 312 613 295Q613 292 625.0 283.5Q637 275 656.0 261.5Q675 248 686.0 238.0Q697 228 712.0 219.0Q727 210 736.0 205.0Q745 200 745 198Q745 194 787 171Q798 165 804.0 160.5Q810 156 816.0 145.5Q822 135 822 120Q822 108 813.0 101.0Q804 94 797.5 93.0Q791 92 787 92Q761 92 755 105Q751 114 733.5 128.0Q716 142 700 152L684 162Q684 166 677.0 166.0Q670 166 670 170Q670 172 664.0 175.0Q658 178 639.0 190.5Q620 203 597 225Q577 241 564 250Q539 268 539 283Q539 285 541.5 291.5Q544 298 553.0 306.0Q562 314 576 314ZM315 515Q306 515 300.5 518.5Q295 522 289 522Q282 522 266.5 532.0Q251 542 247 549Q243 555 236 555Q232 555 228.0 558.5Q224 562 214.0 571.0Q204 580 189 590Q143 620 110.5 649.5Q78 679 78 692Q78 701 90.0 713.5Q102 726 115 726Q126 726 134.0 719.0Q142 712 164.5 691.0Q187 670 219 648Q264 617 286 595Q298 583 309.0 583.0Q320 583 335 566Q345 555 347.0 550.0Q349 545 346 536Q339 515 315 515ZM646 683Q646 688 676.5 712.0Q707 736 707 741Q707 747 724 747Q737 747 750.0 735.5Q763 724 763 712Q763 703 753.5 687.5Q744 672 738 672Q734 672 730.5 668.5Q727 665 720.5 658.0Q714 651 705 646Q652 613 640 592Q615 551 585 551Q574 551 561.5 557.0Q549 563 549 574Q549 580 552.5 587.0Q556 594 562.0 602.0Q568 610 576.0 618.0Q584 626 592.0 633.5Q600 641 608.0 648.0Q616 655 622.0 660.0Q628 665 632 668L636 671Q646 676 646 683Z" transform="translate(0.00,958.33) scale(0.9583,-0.9583)" fill="#000000" />
  <path d="M140 245Q140 250 130.0 262.0Q120 274 110.0 291.5Q100 309 100 326Q100 337 104.0 370.0Q108 403 112 405Q112 405 127.0 437.5Q142 470 152 470Q157 470 162 479Q165 483 177.0 491.5Q189 500 213.0 509.0Q237 518 262 518Q297 518 333.0 500.0Q369 482 378 472Q382 467 389 458Q413 431 416 421L422 408L446 435Q471 461 480 461Q486 461 508.0 477.5Q530 494 534 494Q536 494 551.5 503.5Q567 513 594 513Q636 513 668 497Q692 484 716 475Q755 460 772 427Q783 408 788 404Q800 390 800 353Q800 298 750 254Q722 229 701.0 222.0Q680 215 610 206L590 202Q585 202 557.5 211.5Q530 221 505.0 230.5Q480 240 480 241Q478 244 470.5 247.5Q463 251 451.0 258.0Q439 265 428 276L410 295L400 282Q389 269 386 269Q383 269 364.0 254.5Q345 240 336 238Q327 236 321.5 229.5Q316 223 306 225H302Q288 225 253.0 219.0Q218 213 200 213Q176 213 158.0 224.0Q140 235 140 245ZM248 450Q220 450 202.0 443.0Q184 436 177.0 422.0Q170 408 168.0 397.5Q166 387 166 370Q166 332 176 308Q182 290 186.0 286.5Q190 283 206 280Q229 276 232 276Q239 276 271.5 287.5Q304 299 304 302Q304 306 312 306Q322 306 331.5 313.5Q341 321 338 327Q335 334 342 334Q351 334 357.5 343.0Q364 352 364 364Q364 384 338.0 412.0Q312 440 296 444Q274 450 248 450ZM468 334Q471 334 480.5 320.0Q490 306 500 306Q510 306 512 301Q512 298 528.0 290.5Q544 283 570.0 275.5Q596 268 618 268Q648 268 682 279Q703 286 710.0 291.0Q717 296 728 313Q744 336 744 353Q744 374 714.5 405.5Q685 437 646 440L604 445Q592 445 573.5 438.0Q555 431 546 424Q541 419 526.5 408.5Q512 398 502.0 390.0Q492 382 492 379Q492 377 477.0 360.5Q462 344 462 338Q462 334 468 334Z" transform="translate(942.50,958.33) scale(0.9583,-0.9583)" fill="#000000" />
</svg>
