<?xml version="1.0" encoding="UTF-8" standalone="no"?>
<!--
Representation of "lipu open:toki pona/sona meso" in sitelen kalama pona
Generated by generate_sitelen_kalama_pona.py

Description:
  Representation of "lipu open:toki pona/sona meso" in sitelen kalama pona.
  Sources: lipu: https://commons.wikimedia.org/wiki/File:Sitelen_seli_kiwen_-_lipu.svg; meso: https://commons.wikimedia.org/wiki/File:Sitelen_seli_kiwen_-_meso.svg

Categories:
  [[Category:Toki Pona text containing lipu open:toki pona/sona meso]]

Sources:
  lipu: https://commons.wikimedia.org/wiki/File:Sitelen_seli_kiwen_-_lipu.svg
  meso: https://commons.wikimedia.org/wiki/File:Sitelen_seli_kiwen_-_meso.svg
-->
<svg version="1.1" width="1805" height="1000"
     viewBox="0 0 1805 1000"
     xmlns="http://www.w3.org/2000/svg">
  <path d="M461 87Q346 87 316.5 82.0Q287 77 262 77Q248 77 234.0 77.0Q220 77 209.5 76.5Q199 76 191.0 75.5Q183 75 178.5 75.0Q174 75 174 75Q159 75 152.0 78.5Q145 82 134 93L118 111L126 135Q135 157 137.0 215.0Q139 273 139.5 322.0Q140 371 143 374Q145 376 145 402Q145 402 144.5 435.0Q144 468 143.0 516.0Q142 564 141 596L140 697L166 723L252 720Q307 718 349 718Q349 718 353.0 718.0Q357 718 364.5 718.5Q372 719 383.0 719.0Q394 719 411.5 719.0Q429 719 449.5 719.5Q470 720 499.0 720.0Q528 720 560 720Q569 720 581.0 720.0Q593 720 605.0 719.5Q617 719 627.5 718.5Q638 718 644.5 718.0Q651 718 651 718Q676 718 691.5 720.0Q707 722 713.0 724.5Q719 727 721.5 727.0Q724 727 731.5 725.0Q739 723 742 723Q750 723 757.0 704.0Q764 685 764 669Q764 663 762.0 656.5Q760 650 760 645Q760 640 762.5 625.5Q765 611 765 587Q765 572 763.5 546.0Q762 520 760.0 493.5Q758 467 756.0 443.0Q754 419 752.5 403.0Q751 387 751 387Q751 382 752.0 375.0Q753 368 753 361Q753 349 752 340Q752 338 751.5 333.0Q751 328 751 325Q751 289 759.0 233.0Q767 177 775 153Q785 127 779 121Q776 117 777.5 110.5Q779 104 774 101Q766 93 651.0 89.5Q536 86 490 86ZM687 311Q687 330 689.0 364.5Q691 399 694.0 434.0Q697 469 699.5 501.5Q702 534 704.0 555.5Q706 577 706 577Q706 588 701.5 601.5Q697 615 694 631L690 653L650 654Q597 655 375 655Q230 655 224 654Q212 653 208 642Q202 621 202 458Q202 429 202.5 401.5Q203 374 203.5 355.5Q204 337 204.5 323.5Q205 310 205.0 302.5Q205 295 205 295Q205 281 199.5 252.0Q194 223 194 179Q194 167 195.0 162.5Q196 158 202.5 153.5Q209 149 221.0 148.5Q233 148 257 148Q292 148 292 151Q292 153 342 153Q359 153 375.5 153.0Q392 153 404.0 152.5Q416 152 427.0 151.5Q438 151 445.5 150.5Q453 150 458.5 149.5Q464 149 466.5 149.0Q469 149 469 149Q488 149 528.5 154.5Q569 160 593 160Q600 160 606.5 159.5Q613 159 620 159Q647 159 676.0 163.5Q705 168 705 172Q705 174 696.0 225.5Q687 277 687 311Z" transform="translate(0.00,958.33) scale(0.9583,-0.9583)" fill="#000000" />
  <path d="M451 335Q423 335 400.5 358.0Q378 381 378 396Q378 402 384.5 410.5Q391 419 393 427Q396 436 409.5 446.0Q423 456 437 456Q444 456 467 449Q484 443 494.0 428.0Q504 413 505 401L506 389Q506 365 490.0 350.0Q474 335 451 335ZM201 123Q201 132 202.5 153.0Q204 174 206.0 197.0Q208 220 209.5 242.0Q211 264 212 279L214 294V300Q214 306 213.5 315.5Q213 325 213 334Q213 378 219.5 436.0Q226 494 228 586Q230 669 236.0 697.0Q242 725 267 725Q275 725 280 724L295 721L294 688Q294 668 291.5 629.0Q289 590 285.5 548.5Q282 507 279.0 469.0Q276 431 274 406L271 380Q271 365 272.5 335.5Q274 306 274 290Q274 282 271.0 261.5Q268 241 267 191Q266 117 258 99L251 82L231 87Q210 91 205.5 96.5Q201 102 201 123ZM622 449Q622 456 620.0 470.0Q618 484 618 492Q618 498 620.0 510.5Q622 523 624.0 551.5Q626 580 626 625Q627 697 631.5 712.0Q636 727 657 729Q661 729 665.5 730.0Q670 731 673.0 731.5Q676 732 677 732Q696 732 696 684Q696 667 691.0 626.0Q686 585 684.0 535.0Q682 485 679 480Q676 476 679 470Q680 469 686.5 317.5Q693 166 696 160Q700 152 694.5 144.0Q689 136 695 130Q699 126 699 113Q699 68 669 68Q646 68 635 79Q629 85 627.5 127.5Q626 170 626.0 232.0Q626 294 623 325Q619 368 619 406Q619 421 620.5 433.0Q622 445 622 449Z" transform="translate(942.50,958.33) scale(0.9583,-0.9583)" fill="#000000" />
</svg>
