<?xml version="1.0" encoding="UTF-8" standalone="no"?>
<!--
Representation of "poki tona" in sitelen kalama pona
Generated by generate_sitelen_kalama_pona.py

Description:
  Representation of "poki tona" in sitelen kalama pona.
  Sources: poki: https://commons.wikimedia.org/wiki/File:Sitelen_seli_kiwen_-_poki.svg

Categories:
  [[Category:Sitelen kalama pona]]
  [[Category:Toki Pona text containing poki tona]]

Sources:
  poki: https://commons.wikimedia.org/wiki/File:Sitelen_seli_kiwen_-_poki.svg
-->
<svg version="1.1" width="862" height="1000"
     viewBox="0 0 862 1000"
     xmlns="http://www.w3.org/2000/svg">
  <path d="M695 320Q695 324 693.0 333.5Q691 343 691 352Q691 364 693.0 377.5Q695 391 695 399Q695 408 692.5 416.0Q690 424 690 438Q690 440 692.0 470.0Q694 500 697.5 534.0Q701 568 704.0 572.0Q707 576 707 597Q707 610 709.0 634.5Q711 659 711 668Q711 679 719.5 689.0Q728 699 735 699Q739 699 739 695Q739 692 757 690Q770 689 773.0 684.5Q776 680 776.0 660.0Q776 640 769.5 607.0Q763 574 763 571L762 566Q762 561 761.0 551.0Q760 541 759.0 527.5Q758 514 756.5 495.0Q755 476 754.0 454.5Q753 433 752.5 405.0Q752 377 752 347Q752 343 754.5 295.5Q757 248 761.0 192.0Q765 136 768 125Q775 107 768.0 98.5Q761 90 756.0 88.0Q751 86 745 86Q735 86 723.5 92.5Q712 99 676 99Q583 99 388.5 87.0Q194 75 193 75L143 74L133 88Q124 100 124 116Q130 235 130 295V367Q130 397 130.5 429.0Q131 461 132.0 485.5Q133 510 134.0 530.0Q135 550 136 562V573Q136 598 131.0 631.5Q126 665 126 671Q126 682 136.0 687.5Q146 693 156 693Q170 693 178.0 689.0Q186 685 189.5 675.5Q193 666 193.5 658.0Q194 650 194 633Q194 612 192.0 514.5Q190 417 190 397V269Q190 184 191.5 167.5Q193 151 201 149Q210 146 286 146Q367 146 394.5 152.0Q422 158 541 158Q672 158 680 165Q688 171 688 195V236L687 276Q687 290 691.0 302.0Q695 314 695 320Z" transform="translate(0.00,958.33) scale(0.9583,-0.9583)" fill="#000000" />
</svg>
