<?xml version="1.0" encoding="UTF-8" standalone="no"?>
<!--
Representation of "kalama musi Einheitsfrontlied" in sitelen kalama pona
Generated by generate_sitelen_kalama_pona.py

Description:
  Representation of "kalama musi Einheitsfrontlied" in sitelen kalama pona.
  Sources: kalama-musi: https://commons.wikimedia.org/wiki/File:Sitelen_seli_kiwen_-_kalama-musi.svg; e: https://commons.wikimedia.org/wiki/File:Sitelen_kalama_pona_-_xe.svg; in: https://commons.wikimedia.org/wiki/File:Sitelen_kalama_pona_-_xin.svg; e: https://commons.wikimedia.org/wiki/File:Sitelen_kalama_pona_-_xe.svg; i: https://commons.wikimedia.org/wiki/File:Sitelen_kalama_pona_-_xi.svg; on: https://commons.wikimedia.org/wiki/File:Sitelen_kalama_pona_-_xon.svg; li: https://commons.wikimedia.org/wiki/File:Sitelen_kalama_pona_-_li.svg; e: https://commons.wikimedia.org/wiki/File:Sitelen_kalama_pona_-_xe.svg

Categories:
  [[Category:Sitelen kalama pona]]
  [[Category:Toki Pona text containing kalama musi]]
  [[Category:Toki Pona text containing sound symbol E]]
  [[Category:Toki Pona text containing sound symbol In]]
  [[Category:Toki Pona text containing sound symbol E]]
  [[Category:Toki Pona text containing sound symbol I]]
  [[Category:Toki Pona text containing sound symbol T]]
  [[Category:Toki Pona text containing sound symbol S]]
  [[Category:Toki Pona text containing sound symbol On]]
  [[Category:Toki Pona text containing sound symbol T]]
  [[Category:Toki Pona text containing sound symbol Li]]
  [[Category:Toki Pona text containing sound symbol E]]

Sources:
  kalama-musi: https://commons.wikimedia.org/wiki/File:Sitelen_seli_kiwen_-_kalama-musi.svg
  e: https://commons.wikimedia.org/wiki/File:Sitelen_kalama_pona_-_xe.svg
  in: https://commons.wikimedia.org/wiki/File:Sitelen_kalama_pona_-_xin.svg
  e: https://commons.wikimedia.org/wiki/File:Sitelen_kalama_pona_-_xe.svg
  i: https://commons.wikimedia.org/wiki/File:Sitelen_kalama_pona_-_xi.svg
  on: https://commons.wikimedia.org/wiki/File:Sitelen_kalama_pona_-_xon.svg
  li: https://commons.wikimedia.org/wiki/File:Sitelen_kalama_pona_-_li.svg
  e: https://commons.wikimedia.org/wiki/File:Sitelen_kalama_pona_-_xe.svg
-->
<svg version="1.1" width="9417" height="1000"
     viewBox="0 0 9417 1000"
     xmlns="http://www.w3.org/2000/svg">
  <path d="M173 461Q173 451 166.5 444.5Q160 438 154 437L147 436Q137 436 116.5 465.5Q96 495 81 504Q65 513 65 526Q65 549 84 556Q93 559 95.5 558.5Q98 558 110 550Q145 529 145 521Q145 520 159.0 497.5Q173 475 173 461ZM726 512Q734 512 741.0 524.0Q748 536 750 536Q753 536 753.0 537.5Q753 539 753 547Q753 558 771.5 567.5Q790 577 798 577Q806 577 815.5 568.5Q825 560 830 558Q835 556 834.0 551.0Q833 546 824 528Q816 511 810.0 504.5Q804 498 796 497Q782 494 782 487Q782 480 777 480Q774 480 770.0 468.5Q766 457 754 457Q743 457 732.5 465.0Q722 473 720 485Q717 502 718.0 507.0Q719 512 726 512ZM396 560Q396 570 407.5 581.0Q419 592 428 592Q442 592 452.5 570.0Q463 548 463 532Q463 514 468.0 499.5Q473 485 473 483Q473 477 467 469Q458 458 443 458Q440 458 431.5 459.5Q423 461 411.5 468.5Q400 476 400 487Q400 490 400.5 496.0Q401 502 401 507Q401 525 398.5 541.5Q396 558 396 560ZM479 642Q479 676 504.0 707.0Q529 738 553 738Q593 738 621.0 711.5Q649 685 649 650Q649 640 646.5 629.5Q644 619 641.5 611.5Q639 604 639 603Q639 594 657.0 556.5Q675 519 677 486Q681 453 676 451Q672 449 652 420L632 391H655Q673 391 681.0 395.5Q689 400 704 400Q712 400 721.0 399.0Q730 398 746.0 394.5Q762 391 772.0 381.0Q782 371 782 356Q782 346 764.5 331.0Q747 316 747 305Q747 302 749 300Q753 295 751.0 293.5Q749 292 744.5 284.5Q740 277 740 267Q740 255 733.0 245.5Q726 236 726 231Q726 224 713.5 203.0Q701 182 697 172Q692 156 685 156Q679 156 679 152Q679 145 655.5 120.0Q632 95 617 85Q604 78 604 69Q604 64 602 64Q601 64 597.5 64.5Q594 65 590 65Q580 65 566 60Q515 40 458 40Q446 40 428.5 41.5Q411 43 379.0 52.0Q347 61 331 77Q320 88 313 90Q304 91 278.5 121.0Q253 151 250 162Q248 176 230 184Q232 184 226.5 200.0Q221 216 215.0 232.5Q209 249 209 249Q203 257 191.0 291.5Q179 326 179 339Q179 348 185 361Q192 375 200.0 378.0Q208 381 254 389L276 393L267 403Q257 415 257 417Q257 417 254.0 421.0Q251 425 247.0 431.5Q243 438 238.5 447.5Q234 457 231.0 471.0Q228 485 228 501Q228 508 237.5 542.5Q247 577 247 579Q247 587 235.5 606.0Q224 625 224 632Q224 638 221.0 645.0Q218 652 218 656Q218 670 230.5 687.5Q243 705 253 705Q258 705 268.5 714.0Q279 723 295 723Q329 723 355.0 698.5Q381 674 381 644Q381 627 374.5 616.0Q368 605 360.0 600.0Q352 595 341.0 585.0Q330 575 323 561Q319 552 316.0 548.5Q313 545 311.5 544.5Q310 544 306 544Q300 544 294.0 531.0Q288 518 288 505Q288 463 336.5 431.0Q385 399 445 399Q472 399 505 405Q534 410 553.0 420.5Q572 431 590 453Q607 472 607 485Q607 493 606 498Q600 541 588.0 555.0Q576 569 545 569Q521 569 513.5 572.5Q506 576 494 594Q479 616 479 642ZM595 657Q595 660 579.5 670.5Q564 681 562 681Q558 681 549.0 671.0Q540 661 541 658Q543 654 537 652Q527 649 541 639Q549 634 557 634Q566 634 580.5 643.0Q595 652 595 657ZM308 663Q294 671 291.0 671.0Q288 671 282.5 666.0Q277 661 277 653Q277 636 291 636Q299 636 309 644L323 655ZM613 180Q613 183 625.0 189.0Q637 195 637 203Q637 209 647.0 217.5Q657 226 663 244Q674 270 675 271Q679 275 679 282Q679 289 672.0 305.0Q665 321 665 329Q665 336 662.0 337.5Q659 339 645 339Q595 339 553.5 332.0Q512 325 501 325Q487 325 474.5 325.0Q462 325 453.5 324.5Q445 324 439.0 323.5Q433 323 429.5 323.0Q426 323 425 323Q413 323 393.0 327.0Q373 331 364 331Q359 331 341.0 327.5Q323 324 297 322Q257 320 257 316Q257 299 298 215Q309 193 341.0 157.0Q373 121 389 121Q422 121 432 117Q442 113 466 113Q490 113 513.5 117.0Q537 121 544 127Q546 129 562.0 134.5Q578 140 586 154Q591 162 596.5 167.0Q602 172 605.5 173.5Q609 175 611.0 176.5Q613 178 613 180Z" transform="translate(0.00,958.33) scale(0.9583,-0.9583)" fill="#000000" />
  <path d="M 24.637998,12.488337 H 20.72216 q -1.48166,0 -2.54,-1.058333 -1.05833,-1.058333 -1.05833,-2.54 V 3.598338 q 0,-1.481667 1.05833,-2.54 Q 19.2405,4e-6 20.72216,4e-6 h 3.915838 V 0.846671 H 20.72216 q -1.13241,0 -1.94733,0.814917 -0.80433,0.804333 -0.80433,1.93675 v 5.291666 q 0,1.132417 0.80433,1.93675 0.81492,0.814917 1.94733,0.814917 h 3.915838 z" transform="translate(-428.69,0.00) scale(80.0747,80.0747)" fill="#000000" />
  <path d="M 75.014662,0.846671 V 4e-6 h 13.123333 v 0.846667 z m 0,11.641666 v -0.846666 h 13.123333 v 0.846666 z" transform="translate(-4462.58,0.00) scale(80.0747,80.0747)" fill="#000000" />
  <path d="M 75.014662,0.846671 V 4e-6 h 13.123333 v 0.846667 z m 0,11.641666 v -0.846666 h 13.123333 v 0.846666 z" transform="translate(-3411.74,0.00) scale(80.0747,80.0747)" fill="#000000" />
  <path d="M 75.014662,0.846671 V 4e-6 h 13.123333 v 0.846667 z m 0,11.641666 v -0.846666 h 13.123333 v 0.846666 z" transform="translate(-2360.89,0.00) scale(80.0747,80.0747)" fill="#000000" />
  <path d="M 75.014662,0.846671 V 4e-6 h 13.123333 v 0.846667 z m 0,11.641666 v -0.846666 h 13.123333 v 0.846666 z" transform="translate(-1310.04,0.00) scale(80.0747,80.0747)" fill="#000000" />
  <path d="M 75.014662,0.846671 V 4e-6 h 13.123333 v 0.846667 z m 0,11.641666 v -0.846666 h 13.123333 v 0.846666 z" transform="translate(-259.19,0.00) scale(80.0747,80.0747)" fill="#000000" />
  <path d="M 75.014662,0.846671 V 4e-6 h 13.123333 v 0.846667 z m 0,11.641666 v -0.846666 h 13.123333 v 0.846666 z" transform="translate(791.65,0.00) scale(80.0747,80.0747)" fill="#000000" />
  <path d="M 75.014662,0.846671 V 4e-6 h 13.123333 v 0.846667 z m 0,11.641666 v -0.846666 h 13.123333 v 0.846666 z" transform="translate(1842.50,0.00) scale(80.0747,80.0747)" fill="#000000" />
  <path d="m 87.714667,4e-6 h 2.8575 q 1.481666,0 2.54,1.058334 1.058333,1.058333 1.058333,2.54 v 5.291666 q 0,1.481667 -1.058333,2.54 -1.058334,1.058333 -2.54,1.058333 h -2.8575 v -0.846666 h 2.8575 q 1.132416,0 1.93675,-0.814917 0.814916,-0.804333 0.814916,-1.93675 V 3.598338 q 0,-1.132417 -0.814916,-1.93675 -0.804334,-0.814917 -1.93675,-0.814917 h -2.8575 z" transform="translate(1876.40,0.00) scale(80.0747,80.0747)" fill="#000000" />
  <path d="M 312.05,735.45 C 394.84,735.45 484.55,719.15 572.98,719.15 C 589.31,719.15 605.66,719.70 622.01,721.00 L 623.20,721.00 C 576.40,642.58 526.57,564.31 474.64,486.78 C 444.44,551.54 400.48,608.47 358.62,663.16 C 339.95,687.54 321.63,711.50 304.90,735.40 C 307.28,735.43 309.66,735.45 312.05,735.45  Z M 739.76,83.70 C 730.46,83.67 709.10,91.78 690.85,91.78 C 683.12,91.78 672.75,90.37 663.58,83.64 C 661.10,83.43 658.46,83.33 655.69,83.33 C 621.21,83.33 564.31,99.00 545.00,99.00 C 543.85,99.00 527.25,98.70 511.53,98.70 C 477.64,98.70 451.60,98.70 401.87,108.52 C 358.79,117.03 315.06,118.01 276.61,123.99 C 424.60,319.18 567.32,525.74 688.60,733.40 C 690.86,737.28 692.00,741.64 692.00,746.00 C 692.00,759.81 680.81,771.00 667.00,771.00 L 621.00,771.00 C 618.01,771.00 602.36,769.17 573.58,769.17 C 487.28,769.17 397.97,785.45 312.50,785.45 C 304.61,785.45 296.73,785.31 288.88,785.01 C 288.82,785.01 288.76,785.01 288.70,785.01 C 286.84,785.07 284.60,785.17 282.04,785.17 C 261.02,785.17 253.42,778.71 248.90,774.19 C 242.73,768.02 239.91,759.18 239.91,751.19 C 239.91,744.50 241.81,739.86 243.92,736.54 C 307.31,637.40 400.41,545.42 441.22,437.41 C 368.07,330.47 291.24,225.20 213.13,123.18 C 209.71,118.71 208.00,113.36 208.00,108.00 C 208.00,107.19 208.20,89.35 225.78,84.07 C 280.29,67.68 336.88,70.35 391.87,59.53 C 432.78,50.54 470.46,48.70 510.99,48.70 C 521.76,48.70 532.73,48.83 544.02,48.99 C 574.88,45.99 616.18,33.06 653.36,33.06 C 662.23,33.06 671.10,33.76 679.84,35.48 C 684.29,36.35 688.54,38.43 692.06,41.73 C 703.48,41.11 721.01,33.68 739.18,33.68 C 744.43,33.68 761.06,34.05 772.54,48.41 L 733.49,79.63 C 735.06,81.51 737.70,82.31 739.76,83.70 Z" transform="translate(1669.62,100.00) scale(0.8000,0.8000)" fill="#000000" />
  <path d="M 273.16,931.57 C 297.79,903.37 355.52,848.87 433.75,848.87 C 469.22,848.87 487.99,865.83 511.70,891.40 C 524.84,905.56 535.59,916.88 547.72,916.88 C 553.68,916.88 556.40,915.00 562.00,915.00 C 566.49,915.00 568.26,916.13 572.76,916.13 C 595.00,916.13 612.63,874.02 639.84,850.92 L 638.67,879.33 L 669.68,848.32 C 676.16,854.80 681.00,859.64 681.00,870.00 C 681.00,873.64 680.09,882.35 672.16,889.08 C 659.61,899.73 646.60,922.34 629.00,939.93 C 615.61,953.33 596.22,965.99 571.72,965.99 C 568.75,965.99 565.70,965.80 562.58,965.41 C 557.80,966.25 553.10,966.65 548.53,966.65 C 513.29,966.65 492.71,944.45 475.02,925.38 C 455.10,903.90 448.31,898.86 434.04,898.86 C 389.40,898.86 344.49,925.91 310.81,964.46 L 273.16,931.57  Z M 478.60,155.05 L 490.39,124.73 L 508.13,67.56 C 508.13,67.56 555.89,82.38 555.87,82.44 C 537.61,141.27 537.61,141.27 537.30,142.08 L 523.30,178.08 C 521.40,182.95 521.40,182.95 507.68,196.68 L 472.32,161.32 L 478.60,155.05  Z M 461.00,47.00 L 511.00,47.00 L 511.00,59.00 C 511.00,61.02 511.00,61.02 500.88,123.71 L 498.96,158.40 L 449.04,155.62 C 451.12,118.29 451.12,118.29 451.33,116.99 L 461.00,56.98 L 461.00,47.00  Z M 562.37,129.59 C 562.37,168.42 541.80,203.48 504.34,203.48 C 457.22,203.48 422.03,167.43 420.10,131.54 C 418.20,123.70 417.31,115.86 417.31,108.15 C 417.31,75.57 433.17,45.44 455.80,26.84 C 455.84,25.68 455.87,25.02 455.87,25.02 L 458.00,25.09 C 471.42,14.70 487.79,7.71 506.07,7.02 L 506.81,26.78 C 518.12,27.17 525.86,27.43 538.13,39.71 C 543.11,44.69 562.69,67.03 562.69,110.58 C 562.69,114.54 562.50,118.47 562.11,122.33 C 562.28,124.71 562.37,127.13 562.37,129.59  Z M 512.00,122.00 C 512.00,118.86 512.63,117.38 512.63,111.28 C 512.63,98.56 509.72,84.93 504.08,76.70 L 478.03,75.80 C 471.40,85.23 467.42,97.04 467.42,108.69 C 467.42,118.90 470.00,121.32 469.99,128.10 C 469.99,140.27 488.52,152.83 499.42,153.01 C 502.46,153.06 504.00,153.60 505.06,153.60 C 506.61,153.60 512.33,144.59 512.33,128.93 C 512.33,127.53 512.00,122.07 512.00,122.00  Z M 392.18,710.51 C 394.59,710.51 440.05,711.08 440.54,711.08 C 545.86,711.08 656.56,700.02 760.54,677.69 C 713.81,557.34 588.95,474.11 520.96,354.41 C 441.54,473.78 341.82,588.03 269.78,710.52 C 282.93,711.18 296.19,711.41 309.68,711.41 C 336.82,711.41 363.77,710.51 392.18,710.51  Z M 392.24,760.51 C 363.89,760.51 336.11,761.42 309.05,761.42 C 281.74,761.42 254.16,760.50 225.73,756.78 C 213.35,755.16 204.00,744.61 204.00,732.00 C 204.00,727.93 204.99,723.86 206.97,720.18 C 291.31,563.03 421.08,425.84 509.59,279.08 L 537.54,295.93 L 546.08,292.38 C 547.74,296.37 549.48,300.32 551.30,304.23 L 552.42,304.90 C 552.27,305.15 552.12,305.40 551.97,305.65 C 616.04,441.50 772.25,529.99 817.06,689.20 C 817.68,691.42 818.00,693.71 818.00,696.00 C 818.00,707.71 809.92,717.69 798.78,720.32 C 683.01,747.68 558.80,761.07 440.63,761.07 C 440.15,761.07 393.01,760.51 392.24,760.51 Z" transform="translate(2720.47,100.00) scale(0.8000,0.8000)" fill="#000000" />
  <path d="M 312.05,735.45 C 394.84,735.45 484.55,719.15 572.98,719.15 C 589.31,719.15 605.66,719.70 622.01,721.00 L 623.20,721.00 C 576.40,642.58 526.57,564.31 474.64,486.78 C 444.44,551.54 400.48,608.47 358.62,663.16 C 339.95,687.54 321.63,711.50 304.90,735.40 C 307.28,735.43 309.66,735.45 312.05,735.45  Z M 739.76,83.70 C 730.46,83.67 709.10,91.78 690.85,91.78 C 683.12,91.78 672.75,90.37 663.58,83.64 C 661.10,83.43 658.46,83.33 655.69,83.33 C 621.21,83.33 564.31,99.00 545.00,99.00 C 543.85,99.00 527.25,98.70 511.53,98.70 C 477.64,98.70 451.60,98.70 401.87,108.52 C 358.79,117.03 315.06,118.01 276.61,123.99 C 424.60,319.18 567.32,525.74 688.60,733.40 C 690.86,737.28 692.00,741.64 692.00,746.00 C 692.00,759.81 680.81,771.00 667.00,771.00 L 621.00,771.00 C 618.01,771.00 602.36,769.17 573.58,769.17 C 487.28,769.17 397.97,785.45 312.50,785.45 C 304.61,785.45 296.73,785.31 288.88,785.01 C 288.82,785.01 288.76,785.01 288.70,785.01 C 286.84,785.07 284.60,785.17 282.04,785.17 C 261.02,785.17 253.42,778.71 248.90,774.19 C 242.73,768.02 239.91,759.18 239.91,751.19 C 239.91,744.50 241.81,739.86 243.92,736.54 C 307.31,637.40 400.41,545.42 441.22,437.41 C 368.07,330.47 291.24,225.20 213.13,123.18 C 209.71,118.71 208.00,113.36 208.00,108.00 C 208.00,107.19 208.20,89.35 225.78,84.07 C 280.29,67.68 336.88,70.35 391.87,59.53 C 432.78,50.54 470.46,48.70 510.99,48.70 C 521.76,48.70 532.73,48.83 544.02,48.99 C 574.88,45.99 616.18,33.06 653.36,33.06 C 662.23,33.06 671.10,33.76 679.84,35.48 C 684.29,36.35 688.54,38.43 692.06,41.73 C 703.48,41.11 721.01,33.68 739.18,33.68 C 744.43,33.68 761.06,34.05 772.54,48.41 L 733.49,79.63 C 735.06,81.51 737.70,82.31 739.76,83.70 Z" transform="translate(3771.31,100.00) scale(0.8000,0.8000)" fill="#000000" />
  <path d="M 478.60,155.05 L 490.39,124.73 L 508.13,67.56 C 508.13,67.56 555.89,82.38 555.87,82.44 C 537.61,141.27 537.61,141.27 537.30,142.08 L 523.30,178.08 C 521.40,182.95 521.40,182.95 507.68,196.68 L 472.32,161.32 L 478.60,155.05  Z M 461.00,47.00 L 511.00,47.00 L 511.00,59.00 C 511.00,61.02 511.00,61.02 500.88,123.71 L 498.96,158.40 L 449.04,155.62 C 451.12,118.29 451.12,118.29 451.33,116.99 L 461.00,56.98 L 461.00,47.00  Z M 562.37,129.59 C 562.37,168.42 541.80,203.48 504.34,203.48 C 457.22,203.48 422.03,167.43 420.10,131.54 C 418.20,123.70 417.31,115.86 417.31,108.15 C 417.31,75.57 433.17,45.44 455.80,26.84 C 455.84,25.68 455.87,25.02 455.87,25.02 L 458.00,25.09 C 471.42,14.70 487.79,7.71 506.07,7.02 L 506.81,26.78 C 518.12,27.17 525.86,27.43 538.13,39.71 C 543.11,44.69 562.69,67.03 562.69,110.58 C 562.69,114.54 562.50,118.47 562.11,122.33 C 562.28,124.71 562.37,127.13 562.37,129.59  Z M 512.00,122.00 C 512.00,118.86 512.63,117.38 512.63,111.28 C 512.63,98.56 509.72,84.93 504.08,76.70 L 478.03,75.80 C 471.40,85.23 467.42,97.04 467.42,108.69 C 467.42,118.90 470.00,121.32 469.99,128.10 C 469.99,140.27 488.52,152.83 499.42,153.01 C 502.46,153.06 504.00,153.60 505.06,153.60 C 506.61,153.60 512.33,144.59 512.33,128.93 C 512.33,127.53 512.00,122.07 512.00,122.00  Z M 392.18,710.51 C 394.59,710.51 440.05,711.08 440.54,711.08 C 545.86,711.08 656.56,700.02 760.54,677.69 C 713.81,557.34 588.95,474.11 520.96,354.41 C 441.54,473.78 341.82,588.03 269.78,710.52 C 282.93,711.18 296.19,711.41 309.68,711.41 C 336.82,711.41 363.77,710.51 392.18,710.51  Z M 392.24,760.51 C 363.89,760.51 336.11,761.42 309.05,761.42 C 281.74,761.42 254.16,760.50 225.73,756.78 C 213.35,755.16 204.00,744.61 204.00,732.00 C 204.00,727.93 204.99,723.86 206.97,720.18 C 291.31,563.03 421.08,425.84 509.59,279.08 L 537.54,295.93 L 546.08,292.38 C 547.74,296.37 549.48,300.32 551.30,304.23 L 552.42,304.90 C 552.27,305.15 552.12,305.40 551.97,305.65 C 616.04,441.50 772.25,529.99 817.06,689.20 C 817.68,691.42 818.00,693.71 818.00,696.00 C 818.00,707.71 809.92,717.69 798.78,720.32 C 683.01,747.68 558.80,761.07 440.63,761.07 C 440.15,761.07 393.01,760.51 392.24,760.51 Z" transform="translate(4822.16,100.00) scale(0.8000,0.8000)" fill="#000000" />
  <path d="M 696.97,919.05 C 674.44,948.87 632.91,993.83 576.63,993.83 C 572.95,993.83 569.21,993.63 565.42,993.23 C 561.47,993.77 557.57,994.03 553.76,994.03 C 488.41,994.03 476.89,920.82 445.97,905.03 C 442.41,905.11 356.92,907.67 328.90,963.95 L 327.51,970.93 C 327.51,970.93 278.48,961.13 278.49,961.07 C 281.06,948.25 281.06,948.25 282.24,945.65 C 309.44,885.75 381.06,855.00 449.40,855.00 C 452.31,855.00 455.42,855.00 459.59,856.52 C 514.08,876.38 521.77,944.13 553.32,944.13 C 558.45,944.13 560.74,943.00 565.00,943.00 C 568.53,943.00 570.42,943.80 576.29,943.80 C 597.35,943.80 624.89,931.51 657.06,888.91 L 696.97,919.05  Z M 405.57,45.42 C 405.57,31.84 411.12,11.03 439.72,-6.05 C 437.75,-9.45 436.49,-11.65 436.49,-11.65 C 437.81,-12.41 439.67,-13.62 441.95,-15.11 C 449.96,-20.36 465.44,-30.65 485.97,-30.65 C 490.00,-30.65 494.23,-30.26 498.63,-29.35 C 499.93,-29.44 501.22,-29.48 502.50,-29.48 C 534.82,-29.48 566.26,-0.74 566.26,33.81 C 566.26,35.31 566.20,36.83 566.08,38.36 C 566.26,41.15 566.35,44.05 566.35,47.02 C 566.35,94.44 544.00,119.21 515.75,119.21 C 510.35,119.21 505.06,118.28 500.01,116.72 C 453.60,113.40 433.22,101.72 421.59,90.09 C 412.22,80.72 405.93,67.15 405.93,52.04 C 405.93,51.83 405.94,51.63 405.94,51.42 C 405.69,49.38 405.57,47.38 405.57,45.42  Z M 497.00,21.00 C 491.07,21.00 488.90,19.13 485.11,19.13 C 483.17,19.13 481.33,19.65 479.00,20.82 L 479.00,29.09 L 482.30,28.31 C 481.19,28.87 480.10,29.41 479.00,29.94 L 479.00,31.00 L 476.84,31.00 C 470.82,33.95 457.58,40.86 455.53,45.18 C 456.00,48.78 456.00,48.78 456.00,50.00 C 456.00,50.91 455.86,53.06 455.86,53.09 C 455.86,54.15 463.18,64.32 506.58,67.05 C 508.76,67.19 510.92,67.61 513.00,68.31 C 514.78,63.88 516.32,56.96 516.32,46.42 C 516.32,43.62 516.00,38.08 516.00,38.00 C 516.00,35.79 516.26,34.92 516.26,33.95 C 516.26,26.63 506.83,20.59 501.68,20.59 C 501.22,20.59 499.67,21.00 497.00,21.00  Z M 726.07,683.11 C 645.27,548.17 550.45,364.51 474.13,237.67 C 394.80,382.97 319.93,539.95 257.34,684.76 L 726.07,683.11  Z M 473.00,163.00 C 476.09,163.00 487.35,163.79 494.20,174.75 C 589.58,327.13 677.89,507.44 778.38,673.04 C 780.79,677.01 782.00,681.50 782.00,686.00 L 782.00,708.00 C 782.00,721.78 770.87,732.95 757.09,732.99 L 189.09,734.99 L 188.91,685.01 L 203.47,684.95 L 199.81,677.64 L 207.63,673.73 C 276.96,512.63 361.51,336.11 451.17,175.80 C 455.46,168.14 463.66,163.00 473.00,163.00 Z" transform="translate(5873.01,100.00) scale(0.8000,0.8000)" fill="#000000" />
  <path d="M 490.97,116.68 C 507.51,116.68 518.00,128.65 518.00,142.00 L 518.00,146.00 L 503.91,146.00 C 514.22,161.14 518.21,183.94 520.65,198.12 C 522.37,201.36 524.11,206.03 524.11,211.66 C 524.11,225.12 513.64,239.32 492.85,239.32 C 481.98,239.32 460.08,230.11 449.92,211.61 C 444.91,207.48 433.75,196.28 433.75,178.71 C 433.75,177.16 433.87,172.75 435.07,168.76 C 435.02,166.24 434.80,162.75 434.80,160.51 C 434.80,134.81 452.06,124.93 467.71,124.93 C 468.08,124.93 468.44,124.94 468.79,124.95 C 473.94,120.83 481.70,116.68 490.97,116.68  Z M 245.19,504.85 C 245.19,459.77 249.85,413.17 249.85,367.96 C 249.85,345.20 248.58,325.85 244.93,312.74 C 244.31,310.54 244.00,308.27 244.00,306.00 L 244.00,190.00 L 294.00,190.00 L 294.00,302.73 C 298.79,321.70 300.29,343.15 300.29,365.89 C 300.29,405.89 295.27,458.13 295.27,505.25 C 295.27,583.07 310.87,609.09 334.21,614.73 C 362.30,611.83 391.34,611.18 420.49,611.18 C 421.23,611.18 492.77,611.63 494.51,611.63 C 574.16,611.63 605.06,605.05 606.18,605.02 L 790.19,599.02 L 791.82,648.98 L 609.36,654.93 C 572.87,660.56 534.76,661.66 496.90,661.66 C 472.39,661.66 447.05,661.19 421.87,661.19 C 360.88,661.19 333.89,665.00 333.00,665.00 C 329.22,665.00 303.16,661.94 282.04,640.81 C 256.99,615.77 245.19,575.70 245.19,504.85 Z" transform="translate(6923.85,100.00) scale(0.8000,0.8000)" fill="#000000" />
  <path d="M 312.05,735.45 C 394.84,735.45 484.55,719.15 572.98,719.15 C 589.31,719.15 605.66,719.70 622.01,721.00 L 623.20,721.00 C 576.40,642.58 526.57,564.31 474.64,486.78 C 444.44,551.54 400.48,608.47 358.62,663.16 C 339.95,687.54 321.63,711.50 304.90,735.40 C 307.28,735.43 309.66,735.45 312.05,735.45  Z M 739.76,83.70 C 730.46,83.67 709.10,91.78 690.85,91.78 C 683.12,91.78 672.75,90.37 663.58,83.64 C 661.10,83.43 658.46,83.33 655.69,83.33 C 621.21,83.33 564.31,99.00 545.00,99.00 C 543.85,99.00 527.25,98.70 511.53,98.70 C 477.64,98.70 451.60,98.70 401.87,108.52 C 358.79,117.03 315.06,118.01 276.61,123.99 C 424.60,319.18 567.32,525.74 688.60,733.40 C 690.86,737.28 692.00,741.64 692.00,746.00 C 692.00,759.81 680.81,771.00 667.00,771.00 L 621.00,771.00 C 618.01,771.00 602.36,769.17 573.58,769.17 C 487.28,769.17 397.97,785.45 312.50,785.45 C 304.61,785.45 296.73,785.31 288.88,785.01 C 288.82,785.01 288.76,785.01 288.70,785.01 C 286.84,785.07 284.60,785.17 282.04,785.17 C 261.02,785.17 253.42,778.71 248.90,774.19 C 242.73,768.02 239.91,759.18 239.91,751.19 C 239.91,744.50 241.81,739.86 243.92,736.54 C 307.31,637.40 400.41,545.42 441.22,437.41 C 368.07,330.47 291.24,225.20 213.13,123.18 C 209.71,118.71 208.00,113.36 208.00,108.00 C 208.00,107.19 208.20,89.35 225.78,84.07 C 280.29,67.68 336.88,70.35 391.87,59.53 C 432.78,50.54 470.46,48.70 510.99,48.70 C 521.76,48.70 532.73,48.83 544.02,48.99 C 574.88,45.99 616.18,33.06 653.36,33.06 C 662.23,33.06 671.10,33.76 679.84,35.48 C 684.29,36.35 688.54,38.43 692.06,41.73 C 703.48,41.11 721.01,33.68 739.18,33.68 C 744.43,33.68 761.06,34.05 772.54,48.41 L 733.49,79.63 C 735.06,81.51 737.70,82.31 739.76,83.70 Z" transform="translate(7974.70,100.00) scale(0.8000,0.8000)" fill="#000000" />
</svg>
