<?xml version="1.0" encoding="UTF-8" standalone="no"?>
<!--
Representation of "kulupu:tenpo seme la jan li kama lon" in sitelen ilo pona
Generated by generate_sitelen_kalama_pona.py

Description:
  Representation of "kulupu:tenpo seme la jan li kama lon" in sitelen ilo pona.
  Sources: seme: https://commons.wikimedia.org/wiki/File:Sitelen_seli_kiwen_-_seme.svg; la: https://commons.wikimedia.org/wiki/File:Sitelen_seli_kiwen_-_la.svg; jan: https://commons.wikimedia.org/wiki/File:Sitelen_seli_kiwen_-_jan.svg; li: https://commons.wikimedia.org/wiki/File:Sitelen_seli_kiwen_-_li.svg; kama: https://commons.wikimedia.org/wiki/File:Sitelen_seli_kiwen_-_kama.svg; lon: https://commons.wikimedia.org/wiki/File:Sitelen_seli_kiwen_-_lon.svg

Categories:
  [[Category:Sitelen kalama pona]]
  [[Category:Toki Pona text containing kulupu:tenpo seme la jan li kama lon]]

Sources:
  seme: https://commons.wikimedia.org/wiki/File:Sitelen_seli_kiwen_-_seme.svg
  la: https://commons.wikimedia.org/wiki/File:Sitelen_seli_kiwen_-_la.svg
  jan: https://commons.wikimedia.org/wiki/File:Sitelen_seli_kiwen_-_jan.svg
  li: https://commons.wikimedia.org/wiki/File:Sitelen_seli_kiwen_-_li.svg
  kama: https://commons.wikimedia.org/wiki/File:Sitelen_seli_kiwen_-_kama.svg
  lon: https://commons.wikimedia.org/wiki/File:Sitelen_seli_kiwen_-_lon.svg
-->
<svg version="1.1" width="5575" height="1000"
     viewBox="0 0 5575 1000"
     xmlns="http://www.w3.org/2000/svg">
  <path d="M409 100Q409 102 414.5 110.0Q420 118 432.0 127.0Q444 136 457 136Q472 136 482.0 129.5Q492 123 497 123Q503 123 513.5 112.0Q524 101 524 85Q524 20 481 20Q467 20 449.0 27.0Q431 34 431 39Q431 41 416.5 56.5Q402 72 402 83Q402 89 405.5 91.0Q409 93 409 100ZM173 651Q173 660 205.5 696.0Q238 732 238 734Q238 738 247.0 738.0Q256 738 269 746Q286 756 329.0 761.0Q372 766 376 770Q380 773 405.0 780.5Q430 788 440 788Q448 788 467.5 783.0Q487 778 499 778Q508 778 519.0 780.0Q530 782 535 782Q544 782 567.5 771.5Q591 761 606 757Q625 752 640.0 742.5Q655 733 655.0 726.0Q655 719 662 719Q664 719 675.5 711.0Q687 703 705.0 681.5Q723 660 733.0 633.0Q743 606 743 596Q743 591 739.5 574.0Q736 557 736 543Q736 541 736.5 538.0Q737 535 737 534Q741 517 736 517Q734 517 730.5 510.0Q727 503 718.5 488.5Q710 474 698 461Q663 422 656 411Q644 395 638 395Q633 395 609.0 383.0Q585 371 563.5 359.0Q542 347 541.0 346.0Q540 345 517.5 326.5Q495 308 493 296Q491 283 486 283Q482 283 482 267Q482 230 436 230Q410 230 410 255Q410 261 414.5 280.5Q419 300 434.5 331.5Q450 363 473 381Q497 400 503 400Q507 400 514.5 409.5Q522 419 529 419Q534 419 540.5 424.0Q547 429 562 433Q581 439 581 444Q581 450 598 461Q625 478 647.5 510.0Q670 542 670 574Q670 610 646.5 639.0Q623 668 599.5 683.0Q576 698 576 699Q576 702 568.0 703.0Q560 704 550.0 705.0Q540 706 536 709Q526 717 450 717Q388 717 344.5 701.5Q301 686 294 686Q288 686 278.0 677.5Q268 669 254.5 655.5Q241 642 234 637Q213 619 213 584Q213 563 220.5 535.5Q228 508 228 505Q228 498 220.0 491.0Q212 484 203 484Q188 484 173 500Q162 512 159.5 521.0Q157 530 157 563Q157 594 159.5 612.0Q162 630 165.0 633.0Q168 636 170.5 640.0Q173 644 173 651Z" transform="translate(0.00,958.33) scale(0.9583,-0.9583)" fill="#000000" />
  <path d="M360 766Q370 766 398.0 751.0Q426 736 427 729Q428 728 430 728Q434 728 438.5 724.0Q443 720 446.5 715.0Q450 710 454 705L457 700Q473 697 504 651Q517 630 525 625Q535 617 535 606Q535 601 551 581Q568 559 568 543Q568 534 573.5 525.0Q579 516 580 506Q590 399 590 374Q590 356 589.0 344.0Q588 332 587.0 327.0Q586 322 583.5 312.5Q581 303 580 296Q579 290 560.0 245.0Q541 200 540 194Q538 183 522 165Q509 150 494.5 130.0Q480 110 479 106Q478 95 452.5 73.5Q427 52 409 44Q401 40 392.0 33.0Q383 26 373.5 23.0Q364 20 347 20Q326 20 318.0 27.5Q310 35 310 56Q310 92 346 103Q356 106 393.5 130.5Q431 155 444 168Q460 184 460 190Q460 199 469.0 207.0Q478 215 478 217Q478 227 484 233Q487 237 491.5 254.0Q496 271 500 275Q510 285 520 328Q521 330 522.5 383.5Q524 437 527 443Q522 446 522 457Q521 469 516.0 490.5Q511 512 508 516Q502 521 502 530Q502 532 490.0 558.5Q478 585 478 591V592Q469 595 469 604Q469 606 466 606Q458 606 452.0 614.0Q446 622 436 643Q434 648 429 653Q422 654 408 666Q377 695 347 706Q339 709 330.0 717.0Q321 725 321.0 732.0Q321 739 337.0 752.5Q353 766 360 766Z" transform="translate(942.50,958.33) scale(0.9583,-0.9583)" fill="#000000" />
  <path d="M342 672Q345 672 355.5 678.0Q366 684 393.0 690.5Q420 697 463 697Q487 697 550 690Q586 686 595.0 682.5Q604 679 619 663Q641 641 641 638Q641 634 648.0 634.0Q655 634 655 630Q655 626 676.0 610.0Q697 594 697 591Q697 589 703.0 576.5Q709 564 715.5 548.0Q722 532 723 521Q727 503 730 501Q734 498 734 448Q734 420 733.0 405.0Q732 390 730.0 388.0Q728 386 726.5 383.0Q725 380 725 374Q725 365 718.0 357.5Q711 350 711 346Q711 341 680.5 301.0Q650 261 650.0 257.0Q650 253 676.0 224.5Q702 196 702 194Q702 192 718.0 172.5Q734 153 734 146Q734 140 751.5 119.5Q769 99 769 85Q769 50 748 50Q726 50 715.0 59.0Q704 68 704 77Q704 82 686.5 103.0Q669 124 668 126Q663 140 624.0 182.5Q585 225 577 225Q577 225 574.5 222.5Q572 220 563.0 216.0Q554 212 538 210Q532 209 525.0 206.5Q518 204 504.5 202.5Q491 201 465 201Q413 201 370.5 206.0Q328 211 320 211Q307 211 291.5 190.0Q276 169 272 167Q266 166 266 156Q266 151 264.0 148.0Q262 145 256.5 139.5Q251 134 245 126Q240 118 229.5 105.5Q219 93 211.5 83.0Q204 73 202 66Q199 51 194 51Q187 51 163.0 56.5Q139 62 136 64Q133 67 131 85Q130 97 132.5 102.0Q135 107 145 115Q167 132 186.0 152.0Q205 172 209 184Q209 186 224.0 215.5Q239 245 242 247Q246 250 246.0 253.0Q246 256 234.5 264.0Q223 272 221.5 278.0Q220 284 202.0 305.5Q184 327 184 329Q184 331 177 340Q170 347 161.5 378.0Q153 409 153 427Q153 427 153.5 432.5Q154 438 154.0 445.5Q154 453 154 458Q154 475 173.5 510.5Q193 546 200 549Q213 554 226.5 578.0Q240 602 242 602Q244 602 288.0 637.0Q332 672 342 672ZM567 616Q544 628 527.0 631.0Q510 634 457 634Q428 634 416.0 627.5Q404 621 388 621Q353 621 308.5 590.0Q264 559 232.5 514.5Q201 470 201 435Q201 422 210.0 408.5Q219 395 219 390Q219 383 239.0 360.5Q259 338 268 334Q276 331 285.5 317.0Q295 303 301 302Q311 300 327.5 292.5Q344 285 351 278Q363 268 407.0 262.0Q451 256 483 256Q514 256 540.0 266.0Q566 276 579.5 286.5Q593 297 594 297Q600 297 611.0 306.0Q622 315 622 320Q622 322 624.5 324.0Q627 326 631.0 329.0Q635 332 643.0 344.0Q651 356 660 375Q672 399 675.0 409.0Q678 419 678 433Q678 455 675.0 471.0Q672 487 668.0 496.5Q664 506 653 528Q641 554 632.0 566.5Q623 579 619.0 579.5Q615 580 611.5 582.0Q608 584 604 591Q601 599 567 616Z" transform="translate(1885.00,958.33) scale(0.9583,-0.9583)" fill="#000000" />
  <path d="M281 756Q295 756 318.5 734.0Q342 712 359.0 691.0Q376 670 376 668Q376 665 384.0 657.0Q392 649 404.0 636.5Q416 624 423 615Q435 600 479.0 553.0Q523 506 531 501Q539 496 539 492Q539 488 585.5 446.0Q632 404 641 399Q647 396 649.0 391.5Q651 387 649 375Q648 360 638.0 348.0Q628 336 619.0 329.0Q610 322 610 317Q610 314 580.5 291.5Q551 269 549 269Q544 269 544.0 263.0Q544 257 533.5 246.5Q523 236 518 236Q512 236 512 231Q512 227 505 227Q501 227 495.0 216.5Q489 206 478 202Q465 197 465 191Q465 184 461 184Q457 184 441.5 169.0Q426 154 406.0 133.0Q386 112 378 105Q345 76 345 62Q345 50 339.0 42.0Q333 34 324.0 31.5Q315 29 309.5 28.0Q304 27 300 27Q286 27 273.0 35.5Q260 44 257 45Q250 48 250 58Q250 70 259.5 84.5Q269 99 282 106Q295 112 314.5 133.5Q334 155 340 160Q362 179 385.0 203.0Q408 227 408 230Q408 233 419.5 242.5Q431 252 451.0 268.5Q471 285 485 299Q537 352 550.0 366.0Q563 380 563 385Q563 387 549.5 399.5Q536 412 520.0 425.5Q504 439 502 441Q465 481 465 485Q465 488 418.0 535.0Q371 582 371 586Q371 589 354.5 600.5Q338 612 338 619Q338 626 294.5 666.5Q251 707 251 718Q251 730 260.0 743.0Q269 756 281 756Z" transform="translate(2827.50,958.33) scale(0.9583,-0.9583)" fill="#000000" />
  <path d="M610 170 655 175Q700 180 719 180H722Q742 180 742 186Q742 190 728.5 205.0Q715 220 715 226Q715 230 709.0 234.5Q703 239 703 246Q703 249 685.5 269.5Q668 290 668 294Q668 299 644.5 337.5Q621 376 621 379Q621 384 606.0 403.0Q591 422 572.0 447.0Q553 472 547 489Q542 502 537.0 510.0Q532 518 529.5 521.0Q527 524 527 526Q527 531 506.0 561.5Q485 592 477 592Q475 592 465.5 574.5Q456 557 447.0 536.0Q438 515 438.0 507.0Q438 499 420.0 461.5Q402 424 396 400Q381 339 365.5 311.0Q350 283 347 269Q344 254 333.5 228.0Q323 202 309 154Q296 106 261 106H258Q254 107 246.0 107.5Q238 108 227.5 108.5Q217 109 199.0 109.5Q181 110 160 111Q127 112 113.0 113.0Q99 114 84.0 118.0Q69 122 64.0 129.5Q59 137 59 151Q59 167 71.0 177.5Q83 188 92.0 190.0Q101 192 105 192H106Q108 191 111.5 190.5Q115 190 119.5 189.5Q124 189 132.0 188.5Q140 188 149.5 187.5Q159 187 173.0 186.5Q187 186 203 186Q238 186 249.0 191.0Q260 196 260 211Q260 225 283.5 275.0Q307 325 307 329Q307 338 315.0 356.0Q323 374 329.0 378.0Q335 382 335.0 391.0Q335 400 330 403Q323 407 333 410Q343 414 355.5 453.0Q368 492 368 499Q368 504 374.5 513.5Q381 523 384 540Q386 553 388.0 558.0Q390 563 394.0 569.5Q398 576 402 590Q407 606 413.5 624.0Q420 642 423.0 651.0Q426 660 426 666Q426 671 423.5 679.0Q421 687 421 693Q421 707 429.5 716.0Q438 725 446 726L454 728Q458 728 474.0 717.5Q490 707 490 704Q490 700 508.5 679.0Q527 658 527 651Q527 647 528.5 645.0Q530 643 534.5 637.0Q539 631 544.0 621.0Q549 611 557.0 597.0Q565 583 569.5 574.5Q574 566 574.0 562.0Q574 558 582.0 545.5Q590 533 599.5 518.0Q609 503 612 497Q621 476 635.5 456.5Q650 437 659.5 427.0Q669 417 669 414Q669 408 673.0 399.5Q677 391 681.5 386.0Q686 381 687 381Q689 381 710.5 341.0Q732 301 739 299Q747 297 747 287Q747 276 775.5 247.0Q804 218 804 212Q804 207 822.5 184.0Q841 161 841 145Q841 127 823.0 116.0Q805 105 774 105Q767 105 758.0 106.0Q749 107 740 107Q719 107 682.5 102.5Q646 98 639 92Q631 85 620 85Q612 85 604.5 88.5Q597 92 597.0 95.0Q597 98 588.0 109.5Q579 121 579.0 130.0Q579 139 586.5 149.0Q594 159 601.5 164.5Q609 170 610 170Z" transform="translate(3770.00,958.33) scale(0.9583,-0.9583)" fill="#000000" />
  <path d="M150 252Q150 262 160.5 276.5Q171 291 190 291Q216 291 250.5 285.5Q285 280 296 280Q319 279 382.5 276.0Q446 273 458 273Q470 273 485.5 275.0Q501 277 506 277Q514 277 524.5 272.5Q535 268 538 269Q542 270 614.0 271.0Q686 272 702 278Q713 282 717.5 281.5Q722 281 730 276Q750 263 750 244Q750 213 712 213Q712 213 708.0 213.0Q704 213 695.5 213.5Q687 214 677.0 214.0Q667 214 652.0 214.0Q637 214 622 214Q611 214 601.0 214.0Q591 214 584.5 214.0Q578 214 573.0 213.5Q568 213 566.0 213.0Q564 213 563.5 213.0Q563 213 547.0 213.5Q531 214 505.5 214.5Q480 215 451.5 215.5Q423 216 394.0 216.5Q365 217 346 217Q333 217 322.0 217.0Q311 217 304.0 216.5Q297 216 291.5 216.0Q286 216 283.5 216.0Q281 216 280 216Q273 216 234.5 219.5Q196 223 184 224Q169 225 159.5 233.0Q150 241 150 252ZM388 467Q388 471 393.0 483.0Q398 495 412.5 508.0Q427 521 446 521Q471 521 489.5 491.0Q508 461 508 441Q508 422 487.5 410.0Q467 398 446.0 398.0Q425 398 406.5 422.5Q388 447 388 467Z" transform="translate(4712.50,958.33) scale(0.9583,-0.9583)" fill="#000000" />
</svg>
