<?xml version="1.0" encoding="UTF-8" standalone="no"?>
<!--
Representation of "utala musi lete pi ma ale pi tenpo sike 2026" in sitelen kalama pona
Generated by generate_sitelen_kalama_pona.py

Description:
  Representation of "utala musi lete pi ma ale pi tenpo sike 2026" in sitelen kalama pona.
  Sources: utala: https://commons.wikimedia.org/wiki/File:Sitelen_seli_kiwen_-_utala.svg; musi: https://commons.wikimedia.org/wiki/File:Sitelen_seli_kiwen_-_musi.svg; lete: https://commons.wikimedia.org/wiki/File:Sitelen_seli_kiwen_-_lete.svg; pi: https://commons.wikimedia.org/wiki/File:Sitelen_seli_kiwen_-_pi.svg; ma-ale: https://commons.wikimedia.org/wiki/File:Sitelen_seli_kiwen_-_ma-ale.svg; pi: https://commons.wikimedia.org/wiki/File:Sitelen_seli_kiwen_-_pi.svg; tenpo: https://commons.wikimedia.org/wiki/File:Sitelen_seli_kiwen_-_tenpo.svg; sike: https://commons.wikimedia.org/wiki/File:Sitelen_seli_kiwen_-_sike.svg

Categories:
  [[Category:Sitelen kalama pona]]
  [[Category:Toki Pona text containing utala musi lete pi ma ale pi tenpo sike 2026]]

Sources:
  utala: https://commons.wikimedia.org/wiki/File:Sitelen_seli_kiwen_-_utala.svg
  musi: https://commons.wikimedia.org/wiki/File:Sitelen_seli_kiwen_-_musi.svg
  lete: https://commons.wikimedia.org/wiki/File:Sitelen_seli_kiwen_-_lete.svg
  pi: https://commons.wikimedia.org/wiki/File:Sitelen_seli_kiwen_-_pi.svg
  ma-ale: https://commons.wikimedia.org/wiki/File:Sitelen_seli_kiwen_-_ma-ale.svg
  pi: https://commons.wikimedia.org/wiki/File:Sitelen_seli_kiwen_-_pi.svg
  tenpo: https://commons.wikimedia.org/wiki/File:Sitelen_seli_kiwen_-_tenpo.svg
  sike: https://commons.wikimedia.org/wiki/File:Sitelen_seli_kiwen_-_sike.svg
-->
<svg version="1.1" width="7460" height="1000"
     viewBox="0 0 7460 1000"
     xmlns="http://www.w3.org/2000/svg">
  <path d="M164 655Q164 681 196 681Q211 681 226.0 670.0Q241 659 249.5 649.0Q258 639 258 638Q258 636 285.0 595.5Q312 555 316 555Q318 555 323.5 546.0Q329 537 336.0 525.5Q343 514 348 509Q356 503 370.0 485.0Q384 467 384 464Q384 460 395.0 449.0Q406 438 409.5 438.0Q413 438 424.5 452.5Q436 467 436 472Q436 478 454.0 513.5Q472 549 476 553Q480 556 480.5 564.0Q481 572 492 585Q501 597 515.0 622.5Q529 648 540 660Q551 671 557.5 674.0Q564 677 582 677H608L610 657Q612 644 610.0 638.5Q608 633 600 624Q586 610 586 606Q586 604 554.0 555.0Q522 506 522 498Q522 488 512.0 478.0Q502 468 502 463Q502 461 500.0 458.5Q498 456 496 456Q492 456 482 436Q475 421 464 399L454 382L474 350Q485 330 496.5 318.0Q508 306 514.0 301.5Q520 297 522 293Q529 271 575.0 216.0Q621 161 632 161Q635 161 645.5 172.0Q656 183 656 187Q656 191 666.0 196.5Q676 202 682 215Q691 232 711.0 250.5Q731 269 742 269Q759 269 768.5 260.0Q778 251 778 236Q778 221 767.5 209.5Q757 198 748.5 193.5Q740 189 738 189Q730 189 730 180Q730 175 728.0 171.5Q726 168 721.5 162.5Q717 157 704.0 137.0Q691 117 674 86Q668 75 665.5 71.5Q663 68 656.0 65.5Q649 63 636 63Q595 63 586 92Q582 104 577.0 110.5Q572 117 558.5 133.0Q545 149 528 176Q518 192 507.5 202.5Q497 213 492.5 217.5Q488 222 488 226Q488 232 473.5 251.5Q459 271 454 273Q450 275 450 280Q450 284 432 306L412 327L402 316Q394 303 394 299Q394 296 382.0 278.0Q370 260 370 249Q370 236 366.0 236.0Q362 236 350.0 204.5Q338 173 338 168Q338 156 322.5 117.5Q307 79 302 78Q294 76 294 72Q294 68 281.5 67.5Q269 67 260 70Q255 72 239.5 92.5Q224 113 224 118Q224 122 174 171L122 220L128 239Q131 253 138.0 258.5Q145 264 162 264Q171 264 183.5 254.0Q196 244 196 236Q196 231 203.0 225.0Q210 219 224.0 209.0Q238 199 248 190Q262 175 270 175Q273 175 290.5 208.0Q308 241 308 248Q308 254 337.0 311.5Q366 369 366 377Q366 388 338.0 425.0Q310 462 306 471Q302 479 289.5 487.0Q277 495 272 507Q266 516 257.0 526.5Q248 537 241.0 544.0Q234 551 234.0 553.0Q234 555 226.5 561.5Q219 568 209.0 578.5Q199 589 194 599Q187 616 182.5 616.0Q178 616 171.0 630.5Q164 645 164 655Z" transform="translate(0.00,958.33) scale(0.9583,-0.9583)" fill="#000000" />
  <path d="M286 410Q282 410 276.5 411.5Q271 413 268 413Q258 413 251.5 406.0Q245 399 236 380Q206 321 206 304Q206 301 210.0 294.5Q214 288 212 272Q212 268 212 262Q212 252 218.5 243.0Q225 234 228 222Q231 205 238 198Q248 189 256 178Q270 158 297.5 144.5Q325 131 347.0 125.5Q369 120 370 119Q373 115 394.5 110.0Q416 105 432.5 105.0Q449 105 480.5 114.0Q512 123 526 125Q551 128 580.5 145.0Q610 162 616 176Q618 184 626.0 184.0Q634 184 640.0 221.5Q646 259 646 270Q646 275 643.0 278.5Q640 282 639.0 282.0Q638 282 642 285Q642 285 642 289Q642 305 628.5 348.0Q615 391 610 391Q607 391 606.0 395.0Q605 399 599.0 406.0Q593 413 580 419Q558 430 547.0 442.5Q536 455 524 479Q512 506 512 518Q512 523 517.5 532.0Q523 541 524 558Q524 577 528 582Q534 586 541.0 602.5Q548 619 548 628Q548 629 549.5 633.5Q551 638 556.0 646.0Q561 654 569.5 661.0Q578 668 594.5 673.0Q611 678 632 678Q670 678 670 671Q670 667 682 667Q702 667 721.5 652.0Q741 637 750.5 623.0Q760 609 760 606Q760 600 764.5 594.5Q769 589 772 578Q775 564 778 564Q780 564 780 557Q780 544 774.5 518.5Q769 493 762 479Q752 460 737.5 445.5Q723 431 711.0 424.0Q699 417 689.5 410.0Q680 403 680 397Q680 389 692 380Q701 371 704.5 354.5Q708 338 710 273Q712 261 712 242Q712 211 703.0 195.0Q694 179 694.0 173.0Q694 167 696 163Q696 162 696.0 160.0Q696 158 696 157Q696 147 676 131Q611 78 595.0 69.5Q579 61 518 48Q470 37 420 37Q385 37 365.0 41.0Q345 45 331.5 51.5Q318 58 310 60Q298 62 282.5 73.5Q267 85 244 96Q212 111 212 116Q212 120 197.5 136.5Q183 153 180 165Q177 180 174 180Q170 180 170 189Q170 194 169.0 195.0Q168 196 164 196Q157 196 152.0 213.0Q147 230 145.0 253.0Q143 276 142.5 291.0Q142 306 142 310Q142 328 151.0 352.0Q160 376 160 384Q160 395 166 400Q173 406 173.0 416.5Q173 427 166 430Q162 431 161.0 432.5Q160 434 160.5 435.0Q161 436 158.5 440.5Q156 445 150 452Q137 466 128.5 490.5Q120 515 120 534Q120 537 123.0 551.5Q126 566 133.0 585.0Q140 604 148 612Q156 621 156 628Q156 636 170.5 655.0Q185 674 196 679Q205 683 226.0 686.0Q247 689 263.5 690.0Q280 691 282 693Q283 694 310.0 691.0Q337 688 367.0 676.5Q397 665 402 648Q403 639 408 639Q412 639 412 628Q412 619 422 609Q432 601 432 569Q432 497 400 466Q379 443 344.0 426.5Q309 410 286 410ZM368 555Q368 565 365.5 575.0Q363 585 356.0 600.0Q349 615 331.0 624.5Q313 634 286 634Q285 634 276.5 633.5Q268 633 256.0 632.0Q244 631 235.0 629.0Q226 627 226 624Q226 618 215.5 602.0Q205 586 196 576Q182 562 182 540Q182 519 196 505Q210 492 216.5 487.5Q223 483 236.0 479.0Q249 475 270 475Q288 475 314 489Q345 504 356.5 517.5Q368 531 368 555ZM712 546Q712 567 691.0 590.5Q670 614 634 614Q626 614 598 604Q588 600 581.0 574.5Q574 549 574.0 526.0Q574 503 598.5 489.0Q623 475 644 475Q677 475 694.5 499.5Q712 524 712 546Z" transform="translate(942.50,958.33) scale(0.9583,-0.9583)" fill="#000000" />
  <path d="M452 322Q449 322 431.5 296.0Q414 270 414 265Q414 262 411.5 260.0Q409 258 404.0 251.0Q399 244 394 231Q378 195 374 185Q364 166 364 159Q364 157 365.0 155.0Q366 153 366 153Q366 151 364 149Q361 146 358.0 128.0Q355 110 347.0 95.5Q339 81 324 81Q304 81 283.0 95.0Q262 109 262 121Q262 127 270.0 135.5Q278 144 278.0 149.0Q278 154 283.5 159.5Q289 165 292 172Q298 185 325.5 234.0Q353 283 376.5 326.5Q400 370 400 375Q400 380 392 380Q370 380 283.5 373.5Q197 367 182 367Q157 367 137.5 370.0Q118 373 108.5 376.5Q99 380 92.5 384.0Q86 388 85.0 390.5Q84 393 84 394Q84 402 91.5 415.0Q99 428 104 430Q132 440 268 440H278Q354 440 354.0 445.0Q354 450 340.0 465.0Q326 480 322 480Q316 480 316 488Q316 497 304 508Q296 515 280.5 533.0Q265 551 252.5 563.5Q240 576 236 576Q236 576 234 576Q232 576 232.0 576.5Q232 577 232 580Q232 588 225.0 588.0Q218 588 218 600Q218 615 226.5 625.5Q235 636 248 636Q263 636 283.5 619.0Q304 602 317.0 585.0Q330 568 330 566Q330 562 359.0 524.0Q388 486 396 479Q402 474 407.5 466.0Q413 458 416.5 453.0Q420 448 424 448Q431 448 441.0 460.5Q451 473 458.5 485.5Q466 498 466 498Q469 498 482.0 523.0Q495 548 514.5 583.5Q534 619 546 638Q560 656 560 662Q560 667 577.0 681.5Q594 696 604 696Q610 696 614 691Q615 688 625.5 682.5Q636 677 636 667Q636 655 629.0 645.0Q622 635 602.5 609.5Q583 584 564 548Q550 523 534.5 500.5Q519 478 511.5 467.5Q504 457 504 454Q504 449 515.5 445.0Q527 441 532 445Q540 450 648.5 453.0Q757 456 770 460Q778 462 782 462Q796 462 806.0 452.5Q816 443 816 430Q816 405 786.5 397.5Q757 390 696 390H680Q612 390 564.0 383.5Q516 377 510 377Q496 377 496 371Q496 361 526.0 328.0Q556 295 556 290Q556 286 574.0 267.0Q592 248 594 242Q594 234 604.0 233.0Q614 232 614 223Q614 217 636.0 194.0Q658 171 658 167Q658 161 662 161Q668 161 669.5 149.0Q671 137 666 127Q662 116 651.5 115.5Q641 115 631.0 120.5Q621 126 611.0 132.0Q601 138 598 138Q592 138 578 150Q570 157 569.0 160.5Q568 164 568 177Q568 187 560.0 202.0Q552 217 546 217Q544 217 538.5 224.5Q533 232 522.0 246.5Q511 261 498 274Q488 285 476.5 298.5Q465 312 460.0 317.0Q455 322 452 322Z" transform="translate(1885.00,958.33) scale(0.9583,-0.9583)" fill="#000000" />
  <path d="M178 600Q178 613 172.0 629.5Q166 646 166 651Q166 660 178 675Q187 686 191.5 688.0Q196 690 206 688Q221 685 228.5 675.5Q236 666 237.0 657.5Q238 649 238 634V602Q238 561 244.0 524.5Q250 488 250 466Q250 451 248.0 418.5Q246 386 246 369Q246 369 246.0 367.0Q246 365 246.5 361.5Q247 358 247.5 353.0Q248 348 248.0 339.5Q248 331 248.5 321.0Q249 311 249.5 296.5Q250 282 250 266Q250 179 252 177Q260 168 392 168Q392 168 438.0 168.0Q484 168 532.0 168.5Q580 169 584 169Q698 169 704 167Q710 164 716 164Q722 163 728.0 144.5Q734 126 734 111Q734 109 733.0 103.5Q732 98 727.5 90.5Q723 83 716 83Q714 83 683.5 92.5Q653 102 624 102Q612 102 594.0 100.0Q576 98 562 98Q562 98 558.5 98.5Q555 99 548.0 99.5Q541 100 532.0 100.5Q523 101 510.5 101.5Q498 102 486 102Q485 102 480.5 102.0Q476 102 469.0 101.5Q462 101 454.5 100.5Q447 100 439.5 100.0Q432 100 428 100Q344 100 230 92L190 90L184 104Q180 114 180 131Q180 157 185.0 176.5Q190 196 190 218Q190 218 190.0 225.0Q190 232 190.0 242.5Q190 253 189.5 264.5Q189 276 188.5 287.0Q188 298 188 304Q188 326 190.0 374.0Q192 422 192 441Q192 517 178 540Q176 543 177.0 544.0Q178 545 180.0 545.5Q182 546 182.5 549.5Q183 553 180 562Q176 571 176 578Q176 581 177.0 588.5Q178 596 178 600Z" transform="translate(2827.50,958.33) scale(0.9583,-0.9583)" fill="#000000" />
  <path d="M224 229Q224 255 232.5 273.0Q241 291 248.5 296.5Q256 302 258 302Q262 302 282.0 322.0Q302 342 302 347Q302 354 333.5 366.0Q365 378 388 380Q409 382 422.0 387.5Q435 393 437 393Q439 393 441 393Q444 392 448 392Q454 392 483.5 395.5Q513 399 532 399Q546 399 557.0 395.5Q568 392 596 378Q637 358 658.0 338.5Q679 319 695 287Q704 267 704 254Q704 225 677.0 179.0Q650 133 636 133Q634 133 632.0 131.5Q630 130 627.0 127.0Q624 124 613.5 119.0Q603 114 587 109Q549 97 544 95Q505 80 440 80Q409 80 360.0 100.0Q311 120 287 143Q267 161 264 161Q259 161 243 177Q235 184 232.0 188.0Q229 192 226.5 202.0Q224 212 224 229ZM605 297Q604 302 585.5 312.0Q567 322 550.0 330.0Q533 338 532 338Q532 338 509 336L487 334L489 280L509 278Q521 276 548.0 275.0Q575 274 597.0 273.0Q619 272 623 270Q630 267 630 272Q630 279 619 284Q607 289 605 297ZM422 284Q422 288 419.0 289.5Q416 291 416 306Q416 315 399 315Q377 315 346.5 294.0Q316 273 316 262Q316 256 326 256Q329 256 334 257Q347 260 366 262Q422 270 422 284ZM507 157Q520 157 537.5 161.5Q555 166 566.5 170.5Q578 175 579 175Q585 175 596.5 186.0Q608 197 608 202Q608 206 578 206Q564 206 560 203Q551 199 524 202L494 205L495 182Q496 157 507 157ZM429 188Q429 198 427.0 200.5Q425 203 416 203Q410 203 370.0 195.5Q330 188 330 185Q330 184 349.5 175.5Q369 167 391.0 158.5Q413 150 417 150Q418 150 418 150Q429 155 429 188ZM278 669Q315 669 364.0 649.5Q413 630 423 630Q432 630 449.0 636.5Q466 643 469 648Q471 652 485.0 660.0Q499 668 524.0 675.5Q549 683 571 683Q588 683 623 674Q666 662 666 611Q666 575 657.0 548.0Q648 521 640.0 512.0Q632 503 630 503Q627 503 609.0 492.0Q591 481 578 481Q554 481 515.0 495.0Q476 509 471 518Q466 526 450 533L434 540L414 519Q393 498 390 498Q386 498 367 483Q359 477 354.0 474.0Q349 471 336.5 468.5Q324 466 305 466Q282 466 268 470Q255 475 241.0 489.5Q227 504 227 513Q227 514 211.5 541.0Q196 568 196 584Q196 592 200 598Q207 609 202 617Q201 619 201 623Q201 631 205.5 639.5Q210 648 215 648Q218 648 223.0 653.0Q228 658 241.5 663.5Q255 669 278 669ZM554 546Q612 546 612 598Q612 621 591 621Q587 621 583.0 620.0Q579 619 576.5 618.0Q574 617 574 617Q574 615 571.0 614.5Q568 614 551 614Q537 614 520.5 606.0Q504 598 494.5 590.0Q485 582 485 579Q485 574 511.0 560.0Q537 546 554 546ZM271 554Q271 543 282.0 537.0Q293 531 305 531Q317 531 324.0 535.0Q331 539 340.0 547.0Q349 555 358 560Q373 568 373 579Q373 593 350.5 601.0Q328 609 306 612L280 615L275 581Q271 555 271 554Z" transform="translate(3770.00,958.33) scale(0.9583,-0.9583)" fill="#000000" />
  <path d="M178 600Q178 613 172.0 629.5Q166 646 166 651Q166 660 178 675Q187 686 191.5 688.0Q196 690 206 688Q221 685 228.5 675.5Q236 666 237.0 657.5Q238 649 238 634V602Q238 561 244.0 524.5Q250 488 250 466Q250 451 248.0 418.5Q246 386 246 369Q246 369 246.0 367.0Q246 365 246.5 361.5Q247 358 247.5 353.0Q248 348 248.0 339.5Q248 331 248.5 321.0Q249 311 249.5 296.5Q250 282 250 266Q250 179 252 177Q260 168 392 168Q392 168 438.0 168.0Q484 168 532.0 168.5Q580 169 584 169Q698 169 704 167Q710 164 716 164Q722 163 728.0 144.5Q734 126 734 111Q734 109 733.0 103.5Q732 98 727.5 90.5Q723 83 716 83Q714 83 683.5 92.5Q653 102 624 102Q612 102 594.0 100.0Q576 98 562 98Q562 98 558.5 98.5Q555 99 548.0 99.5Q541 100 532.0 100.5Q523 101 510.5 101.5Q498 102 486 102Q485 102 480.5 102.0Q476 102 469.0 101.5Q462 101 454.5 100.5Q447 100 439.5 100.0Q432 100 428 100Q344 100 230 92L190 90L184 104Q180 114 180 131Q180 157 185.0 176.5Q190 196 190 218Q190 218 190.0 225.0Q190 232 190.0 242.5Q190 253 189.5 264.5Q189 276 188.5 287.0Q188 298 188 304Q188 326 190.0 374.0Q192 422 192 441Q192 517 178 540Q176 543 177.0 544.0Q178 545 180.0 545.5Q182 546 182.5 549.5Q183 553 180 562Q176 571 176 578Q176 581 177.0 588.5Q178 596 178 600Z" transform="translate(4712.50,958.33) scale(0.9583,-0.9583)" fill="#000000" />
  <path d="M376 453Q376 473 372.0 493.5Q368 514 368 521Q368 531 376.0 540.0Q384 549 394 549Q399 549 406.5 543.0Q414 537 422 535Q428 534 430.0 526.0Q432 518 436 487Q438 459 438 448Q438 430 436.0 416.0Q434 402 434 397Q434 381 442.5 376.5Q451 372 478 372Q508 372 547.0 377.5Q586 383 594 383Q603 383 612.5 373.0Q622 363 622 352Q622 345 619.5 338.0Q617 331 605.5 322.5Q594 314 574 313Q565 313 529.5 307.5Q494 302 448 302Q404 302 394.5 303.5Q385 305 378 313L368 324L374 392Q376 432 376 453ZM532 74H528Q525 74 513.5 71.0Q502 68 480.0 65.5Q458 63 430 63Q400 63 381.0 67.5Q362 72 351.0 77.5Q340 83 334 84Q323 85 307.0 90.0Q291 95 276.0 101.5Q261 108 248.0 114.0Q235 120 227.0 124.0Q219 128 218 128Q213 128 187.5 152.0Q162 176 162 182Q162 183 147.5 201.0Q133 219 118.5 251.0Q104 283 104 317Q104 339 112.0 373.5Q120 408 120 417Q120 447 124.5 464.5Q129 482 142 505Q162 536 162 540Q162 543 183.0 567.0Q204 591 204.0 594.0Q204 597 221.0 613.5Q238 630 238 634Q238 639 242 639Q246 639 255.0 646.0Q264 653 276.5 663.5Q289 674 298 679Q307 684 324.5 695.0Q342 706 356.0 713.5Q370 721 378 723Q385 725 422 725Q478 725 504.0 720.0Q530 715 534 715Q546 715 580.0 699.5Q614 684 640 678Q649 676 659.5 668.5Q670 661 678 658Q687 655 710.5 628.5Q734 602 734 595Q734 592 748.0 570.5Q762 549 762 544Q762 543 766.0 533.5Q770 524 775.5 506.0Q781 488 784 468Q785 453 788 446Q794 436 795.0 422.5Q796 409 796 339Q796 337 790.5 319.0Q785 301 784 291Q784 278 780 278Q778 278 774.0 261.5Q770 245 766 243Q764 242 758.0 229.0Q752 216 740.5 198.0Q729 180 716 168Q694 148 688 141Q681 133 676 133Q674 133 653.5 120.0Q633 107 626 106Q615 104 577.0 89.0Q539 74 532 74ZM442 131Q445 131 461.0 132.0Q477 133 501.0 135.5Q525 138 542.5 142.5Q560 147 560 154Q560 159 570.5 160.0Q581 161 598.5 165.0Q616 169 628 180Q644 194 648 194Q656 194 670.5 210.0Q685 226 697.5 242.5Q710 259 710 259Q716 259 726.0 296.5Q736 334 736 352Q736 355 732.5 375.5Q729 396 728 424Q726 459 713.5 494.0Q701 529 690.0 546.5Q679 564 678 564Q674 564 674 571Q674 578 655.5 594.5Q637 611 630 611Q622 611 622 616Q622 620 614 620Q607 620 604 627Q596 641 542.5 653.5Q489 666 448 666Q424 666 388.5 658.5Q353 651 340 636Q333 629 313.0 617.5Q293 606 282 593Q258 567 250 559Q232 544 232 534Q232 528 213.0 509.5Q194 491 194 487Q194 485 187.0 467.0Q180 449 178 430Q177 411 170.5 371.5Q164 332 164 323Q164 316 168.5 298.5Q173 281 193.0 245.5Q213 210 246 185Q282 156 290 156Q293 156 342.5 143.5Q392 131 442 131Z" transform="translate(5655.00,958.33) scale(0.9583,-0.9583)" fill="#000000" />
  <path d="M386 517Q390 517 406.0 525.0Q422 533 434 533Q444 533 461.0 529.0Q478 525 500.5 514.5Q523 504 542.0 489.0Q561 474 574.5 448.0Q588 422 588 391Q588 371 580.0 345.5Q572 320 565 320Q563 320 554.0 304.0Q545 288 542 288Q540 288 533.0 276.0Q526 264 520 264Q516 264 508.0 256.0Q500 248 484.0 240.5Q468 233 444 233Q423 233 403.0 241.5Q383 250 376 250Q358 250 324.0 271.5Q290 293 285 315Q285 316 273.5 343.5Q262 371 262 397Q262 419 270 419Q274 419 274 431Q274 441 286.0 458.0Q298 475 305 475Q311 475 325.0 483.5Q339 492 339.0 495.0Q339 498 359.5 507.5Q380 517 386 517ZM433 475Q420 475 413.5 472.5Q407 470 399 461Q385 447 377 447Q372 447 368.0 443.5Q364 440 356.5 432.5Q349 425 340 419Q329 411 327.5 407.0Q326 403 328 391Q332 367 348.0 347.0Q364 327 381 322Q387 321 404.5 310.5Q422 300 441 300Q472 300 500.0 330.0Q528 360 528 396Q528 425 497.0 450.0Q466 475 433 475ZM478 74Q477 74 462.0 70.0Q447 66 420 66Q394 66 351.5 73.5Q309 81 295 81Q285 81 274.0 87.5Q263 94 205 134Q191 143 182.0 152.0Q173 161 170.5 165.5Q168 170 165.0 172.5Q162 175 157 175Q147 175 147 180Q147 185 140.5 191.5Q134 198 129 198Q124 198 124 212Q124 222 119.0 229.0Q114 236 114 246Q114 259 111 259Q107 259 101.5 271.0Q96 283 98 287Q100 289 94.0 299.0Q88 309 92 314Q97 319 93 325Q90 329 90 400Q90 505 108 527Q112 532 119.0 553.0Q126 574 131 576Q136 578 145.0 592.0Q154 606 159 606Q164 606 178.5 622.5Q193 639 200.0 639.0Q207 639 225.5 653.0Q244 667 249 667Q255 667 271.0 682.5Q287 698 300 698Q312 698 330.0 703.0Q348 708 351 712Q355 717 378.5 726.5Q402 736 403 738Q404 739 409 739Q419 739 475.0 730.5Q531 722 559 720Q579 718 608.0 706.0Q637 694 642 693Q653 690 702.5 641.0Q752 592 752 585Q752 580 767.5 553.0Q783 526 787 499Q793 454 801.5 432.5Q810 411 810 402Q810 390 805.5 378.0Q801 366 801 364Q801 361 802.5 359.0Q804 357 804 352Q804 333 782.0 288.0Q760 243 737 217Q716 192 711 183Q705 173 690.0 164.5Q675 156 672 153Q669 149 657.0 143.0Q645 137 635.0 132.0Q625 127 625 124Q625 119 566.5 99.0Q508 79 508 75Q508 73 502 73Q499 73 490.5 73.5Q482 74 478 74ZM161 280Q161 274 175.0 254.5Q189 235 189 230Q189 226 194.0 223.0Q199 220 211.0 211.5Q223 203 234 189Q252 166 269 161Q284 156 302 146Q314 139 336.5 137.5Q359 136 429 136Q491 136 508 144Q515 148 543.5 158.5Q572 169 598.5 182.0Q625 195 644 212Q658 224 672.5 238.5Q687 253 695.0 261.0Q703 269 703 269Q708 271 716.0 287.5Q724 304 724 311Q724 320 728 320Q734 320 738.5 337.0Q743 354 743 370Q743 382 738.0 388.5Q733 395 739 404Q744 418 739 434Q735 445 731 473Q727 503 711.5 529.5Q696 556 675.5 578.5Q655 601 651 609Q647 616 636.0 622.0Q625 628 625.0 631.0Q625 634 614.0 641.0Q603 648 567.0 657.5Q531 667 480 670Q469 671 457.5 671.5Q446 672 438.5 672.5Q431 673 425.0 673.5Q419 674 415.5 674.5Q412 675 412 675Q404 675 399.0 671.0Q394 667 391.5 661.5Q389 656 379.0 651.0Q369 646 353 645Q329 643 318 639Q299 631 291 629Q280 625 253.5 608.0Q227 591 206.5 575.5Q186 560 185 558Q185 557 169.0 539.0Q153 521 151 510Q135 427 135 394Q135 372 143.5 348.5Q152 325 152.0 311.0Q152 297 156.5 290.5Q161 284 161 280Z" transform="translate(6597.50,958.33) scale(0.9583,-0.9583)" fill="#000000" />
</svg>
