<?xml version="1.0" encoding="UTF-8" standalone="no"?>
<!--
Representation of "kulupu:ma Sile" in sitelen ilo pona
Generated by generate_sitelen_kalama_pona.py

Description:
  Representation of "kulupu:ma Sile" in sitelen ilo pona.
  Sources: si: https://commons.wikimedia.org/wiki/File:Sitelen_kalama_pona_-_si.svg; le: https://commons.wikimedia.org/wiki/File:Sitelen_kalama_pona_-_le.svg

Categories:
  [[Category:Sitelen kalama pona]]
  [[Category:Toki Pona text containing kulupu:ma]]
  [[Category:Toki Pona text containing sound symbol Si]]
  [[Category:Toki Pona text containing sound symbol Le]]

Sources:
  si: https://commons.wikimedia.org/wiki/File:Sitelen_kalama_pona_-_si.svg
  le: https://commons.wikimedia.org/wiki/File:Sitelen_kalama_pona_-_le.svg
-->
<svg version="1.1" width="3220" height="1000"
     viewBox="0 0 3220 1000"
     xmlns="http://www.w3.org/2000/svg">
  <path d="M 24.637998,12.488337 H 20.72216 q -1.48166,0 -2.54,-1.058333 -1.05833,-1.058333 -1.05833,-2.54 V 3.598338 q 0,-1.481667 1.05833,-2.54 Q 19.2405,4e-6 20.72216,4e-6 h 3.915838 V 0.846671 H 20.72216 q -1.13241,0 -1.94733,0.814917 -0.80433,0.804333 -0.80433,1.93675 v 5.291666 q 0,1.132417 0.80433,1.93675 0.81492,0.814917 1.94733,0.814917 h 3.915838 z" transform="translate(-1371.19,0.00) scale(80.0747,80.0747)" fill="#000000" />
  <path d="M 75.014662,0.846671 V 4e-6 h 13.123333 v 0.846667 z m 0,11.641666 v -0.846666 h 13.123333 v 0.846666 z" transform="translate(-5405.08,0.00) scale(80.0747,80.0747)" fill="#000000" />
  <path d="M 75.014662,0.846671 V 4e-6 h 13.123333 v 0.846667 z m 0,11.641666 v -0.846666 h 13.123333 v 0.846666 z" transform="translate(-4354.24,0.00) scale(80.0747,80.0747)" fill="#000000" />
  <path d="m 87.714667,4e-6 h 2.8575 q 1.481666,0 2.54,1.058334 1.058333,1.058333 1.058333,2.54 v 5.291666 q 0,1.481667 -1.058333,2.54 -1.058334,1.058333 -2.54,1.058333 h -2.8575 v -0.846666 h 2.8575 q 1.132416,0 1.93675,-0.814917 0.814916,-0.804333 0.814916,-1.93675 V 3.598338 q 0,-1.132417 -0.814916,-1.93675 -0.804334,-0.814917 -1.93675,-0.814917 h -2.8575 z" transform="translate(-4320.34,0.00) scale(80.0747,80.0747)" fill="#000000" />
  <path d="M 463.00,119.00 C 450.73,119.00 395.37,101.32 395.37,62.11 C 395.37,52.70 398.92,44.22 403.57,38.02 L 401.79,32.06 L 413.64,28.51 C 420.12,24.04 428.56,21.00 435.00,21.00 C 435.85,21.00 436.71,21.05 437.56,21.14 C 438.47,20.87 439.92,20.51 442.59,20.51 C 451.27,20.51 456.09,23.30 458.35,24.77 C 468.23,25.64 476.86,28.46 484.18,35.78 C 491.41,43.00 494.18,52.76 494.18,61.57 C 494.18,62.64 494.14,63.69 494.06,64.73 C 494.16,66.89 494.27,69.36 494.27,72.08 C 494.27,96.97 482.63,119.00 463.00,119.00  Z M 519.20,142.62 C 563.42,142.62 590.00,165.34 590.00,186.00 L 590.00,194.00 L 541.73,194.00 C 542.00,195.38 542.27,196.76 542.95,197.74 C 540.81,196.28 532.41,192.66 518.53,192.66 C 517.38,192.66 516.28,192.69 515.24,192.74 C 463.42,206.95 389.46,253.45 389.46,318.95 C 389.46,354.12 424.15,384.23 455.23,411.20 C 494.33,445.13 540.22,484.96 540.22,550.82 C 540.22,566.94 536.74,607.11 505.05,638.79 C 474.37,669.47 423.97,688.31 335.16,688.31 C 319.56,688.31 306.63,688.20 257.34,684.94 C 257.34,684.94 260.63,635.06 260.66,635.06 C 291.88,637.12 312.69,638.24 335.52,638.24 C 401.15,638.24 490.24,628.10 490.24,550.46 C 490.24,509.06 462.15,483.41 422.49,449.00 C 387.42,418.56 349.44,385.60 340.39,334.38 C 340.36,334.23 339.47,328.38 339.47,318.99 C 339.47,229.47 426.73,164.12 504.67,143.81 C 506.02,143.46 510.20,142.62 519.20,142.62 Z" transform="translate(727.12,100.00) scale(0.8000,0.8000)" fill="#000000" />
  <path d="M 343.19,189.78 C 350.46,188.99 362.38,177.00 375.00,177.00 C 384.17,177.00 392.26,181.96 396.60,189.41 C 413.55,218.45 417.13,249.29 417.13,278.19 C 417.13,300.61 414.86,324.58 414.86,347.27 C 414.86,369.37 417.92,380.56 417.92,421.13 C 417.92,491.17 406.90,562.19 386.24,625.33 C 386.23,628.12 385.97,630.69 385.58,633.01 C 446.87,650.04 526.52,651.25 631.16,651.34 C 670.52,651.37 709.57,651.39 746.13,653.03 C 746.13,653.03 743.89,702.97 743.87,702.97 C 657.21,699.08 554.64,704.51 464.61,696.62 C 422.12,692.89 382.36,686.29 348.15,673.39 C 341.62,670.92 331.71,664.27 331.71,646.60 C 331.71,638.11 334.11,631.67 335.13,628.47 C 335.72,626.62 336.04,625.44 336.17,624.90 C 336.06,623.94 336.00,622.97 336.00,622.00 C 336.00,619.29 336.44,616.58 337.32,613.99 C 357.13,555.19 367.90,487.13 367.90,420.60 C 367.90,381.30 364.83,372.40 364.83,347.02 C 364.83,324.74 366.91,303.38 366.91,280.59 C 366.91,264.42 365.81,249.67 362.27,236.33 C 357.81,237.88 351.05,239.78 343.04,239.78 C 339.78,239.78 336.36,239.46 332.85,238.71 C 325.07,237.97 315.74,237.50 305.63,237.00 C 262.11,234.87 211.09,232.36 180.42,201.69 C 160.91,182.19 158.00,158.01 158.00,154.00 C 158.00,153.03 158.88,109.71 201.59,66.99 C 232.10,36.48 271.59,16.68 305.55,2.85 C 308.57,1.62 311.79,0.99 315.00,1.00 C 647.15,3.01 647.15,3.01 647.15,3.01 C 647.15,3.01 646.85,52.99 646.85,52.99 C 319.92,51.03 319.92,51.03 319.92,51.03 C 263.90,74.58 216.45,107.69 208.39,153.29 C 215.59,181.11 259.39,184.68 308.10,187.07 C 324.62,187.88 338.78,188.66 343.19,189.78 Z" transform="translate(1777.97,100.00) scale(0.8000,0.8000)" fill="#000000" />
</svg>
