<?xml version="1.0" encoding="UTF-8" standalone="no"?>
<!--
Representation of "ma lili li lon ma ni" in sitelen kalama pona
Generated by generate_sitelen_kalama_pona.py

Description:
  Representation of "ma lili li lon ma ni" in sitelen kalama pona.
  Sources: ma: https://commons.wikimedia.org/wiki/File:Sitelen_seli_kiwen_-_ma.svg; lili: https://commons.wikimedia.org/wiki/File:Sitelen_seli_kiwen_-_lili.svg; li: https://commons.wikimedia.org/wiki/File:Sitelen_seli_kiwen_-_li.svg; lon: https://commons.wikimedia.org/wiki/File:Sitelen_seli_kiwen_-_lon.svg; ma-ni: https://commons.wikimedia.org/wiki/File:Sitelen_seli_kiwen_-_ma-ni.svg

Categories:
  [[Category:Toki Pona text containing ma lili li lon ma ni]]

Sources:
  ma: https://commons.wikimedia.org/wiki/File:Sitelen_seli_kiwen_-_ma.svg
  lili: https://commons.wikimedia.org/wiki/File:Sitelen_seli_kiwen_-_lili.svg
  li: https://commons.wikimedia.org/wiki/File:Sitelen_seli_kiwen_-_li.svg
  lon: https://commons.wikimedia.org/wiki/File:Sitelen_seli_kiwen_-_lon.svg
  ma-ni: https://commons.wikimedia.org/wiki/File:Sitelen_seli_kiwen_-_ma-ni.svg
-->
<svg version="1.1" width="4632" height="1000"
     viewBox="0 0 4632 1000"
     xmlns="http://www.w3.org/2000/svg">
  <path d="M152 340Q152 341 154.5 344.0Q157 347 156 359V367Q156 391 167.5 424.0Q179 457 192.5 485.0Q206 513 208 517Q213 534 245.0 555.5Q277 577 278 583Q280 589 289.0 594.0Q298 599 302 607Q305 615 318.0 619.5Q331 624 336 632Q340 639 350.0 644.0Q360 649 373.5 653.5Q387 658 394 661Q400 665 424 665Q455 665 491.0 659.0Q527 653 532 645Q536 640 548 640Q551 640 554 640Q576 640 606 621Q618 613 634 603Q645 598 671.5 565.5Q698 533 698 526Q698 520 705.0 515.5Q712 511 712 506Q712 499 718 495Q724 492 732.0 475.0Q740 458 740 450Q740 447 744.0 439.0Q748 431 748 405Q748 372 741.0 333.0Q734 294 725.5 269.5Q717 245 712 245Q712 245 704.5 230.5Q697 216 684.5 199.5Q672 183 660 178Q652 174 652 168Q652 161 646 161Q641 161 624 145Q606 129 570 121Q490 105 480 105Q464 105 452.5 93.0Q441 81 434 81Q423 81 406.0 88.0Q389 95 388 100Q386 108 356 116Q327 124 282.5 146.0Q238 168 238.0 174.0Q238 180 208.5 210.5Q179 241 176 255Q174 268 163.0 301.0Q152 334 152 340ZM390 461Q391 481 392.0 500.0Q393 519 394.5 532.5Q396 546 397.5 558.0Q399 570 400.5 578.0Q402 586 403.0 591.0Q404 596 405.0 599.0Q406 602 406 602Q406 606 400 606Q390 606 375.0 597.0Q360 588 354 578Q349 567 310.0 527.5Q271 488 270 482Q266 474 264 477Q261 479 256.0 475.5Q251 472 247.5 466.0Q244 460 244 456Q244 451 240.5 447.0Q237 443 233.5 441.0Q230 439 226.5 431.5Q223 424 222 411L220 390L232 399Q241 406 250 406Q251 406 275.5 402.0Q300 398 330 398Q386 398 388 408Q388 418 390 461ZM656 491Q656 496 644.0 508.0Q632 520 632 524Q632 530 615.5 542.5Q599 555 579.5 567.5Q560 580 558 583Q550 591 500 597Q493 598 488 599L474 601L472 572Q470 557 467.0 537.5Q464 518 462.0 498.5Q460 479 460 449Q460 414 464.5 407.5Q469 401 488 401Q531 401 570.0 405.5Q609 410 632.5 414.0Q656 418 660 418Q677 418 680.5 418.5Q684 419 684 422Q684 430 675.5 453.0Q667 476 662 480Q656 485 656 491ZM680 345Q680 353 664 353Q655 353 632.0 346.5Q609 340 576 337Q532 333 520 331Q513 331 496.5 333.5Q480 336 474 336Q468 336 466 334Q462 330 462 247Q462 168 468 168Q469 168 489.5 171.0Q510 174 532.5 179.0Q555 184 558 187Q563 194 572.5 194.0Q582 194 614.5 226.0Q647 258 652 272Q658 288 661.5 288.0Q665 288 672.5 311.5Q680 335 680 345ZM336 333Q318 333 302.5 334.0Q287 335 275.5 336.0Q264 337 254.0 338.5Q244 340 237.5 341.5Q231 343 226.5 344.0Q222 345 220.0 346.0Q218 347 218 347Q214 347 214 341Q214 336 218.0 317.0Q222 298 235.0 271.0Q248 244 266 236Q284 228 315.5 200.5Q347 173 370 172L388 171V334L340 333Z" transform="translate(0.00,958.33) scale(0.9583,-0.9583)" fill="#000000" />
  <path d="M354 494Q373 494 402.0 458.5Q431 423 431 414Q431 410 433.5 408.0Q436 406 440.5 408.0Q445 410 449 414Q456 421 462 424Q465 425 478.5 445.0Q492 465 509.5 483.5Q527 502 541 502Q551 502 563.5 490.5Q576 479 576 468Q576 433 563 433Q556 433 519.5 393.5Q483 354 483 349Q483 345 462.0 325.5Q441 306 437 306Q431 306 414.5 314.0Q398 322 394 327Q391 330 381.5 362.0Q372 394 347 422Q339 431 331.5 445.5Q324 460 324 468Q324 474 333.5 484.0Q343 494 354 494Z" transform="translate(942.50,958.33) scale(0.9583,-0.9583)" fill="#000000" />
  <path d="M281 756Q295 756 318.5 734.0Q342 712 359.0 691.0Q376 670 376 668Q376 665 384.0 657.0Q392 649 404.0 636.5Q416 624 423 615Q435 600 479.0 553.0Q523 506 531 501Q539 496 539 492Q539 488 585.5 446.0Q632 404 641 399Q647 396 649.0 391.5Q651 387 649 375Q648 360 638.0 348.0Q628 336 619.0 329.0Q610 322 610 317Q610 314 580.5 291.5Q551 269 549 269Q544 269 544.0 263.0Q544 257 533.5 246.5Q523 236 518 236Q512 236 512 231Q512 227 505 227Q501 227 495.0 216.5Q489 206 478 202Q465 197 465 191Q465 184 461 184Q457 184 441.5 169.0Q426 154 406.0 133.0Q386 112 378 105Q345 76 345 62Q345 50 339.0 42.0Q333 34 324.0 31.5Q315 29 309.5 28.0Q304 27 300 27Q286 27 273.0 35.5Q260 44 257 45Q250 48 250 58Q250 70 259.5 84.5Q269 99 282 106Q295 112 314.5 133.5Q334 155 340 160Q362 179 385.0 203.0Q408 227 408 230Q408 233 419.5 242.5Q431 252 451.0 268.5Q471 285 485 299Q537 352 550.0 366.0Q563 380 563 385Q563 387 549.5 399.5Q536 412 520.0 425.5Q504 439 502 441Q465 481 465 485Q465 488 418.0 535.0Q371 582 371 586Q371 589 354.5 600.5Q338 612 338 619Q338 626 294.5 666.5Q251 707 251 718Q251 730 260.0 743.0Q269 756 281 756Z" transform="translate(1885.00,958.33) scale(0.9583,-0.9583)" fill="#000000" />
  <path d="M150 252Q150 262 160.5 276.5Q171 291 190 291Q216 291 250.5 285.5Q285 280 296 280Q319 279 382.5 276.0Q446 273 458 273Q470 273 485.5 275.0Q501 277 506 277Q514 277 524.5 272.5Q535 268 538 269Q542 270 614.0 271.0Q686 272 702 278Q713 282 717.5 281.5Q722 281 730 276Q750 263 750 244Q750 213 712 213Q712 213 708.0 213.0Q704 213 695.5 213.5Q687 214 677.0 214.0Q667 214 652.0 214.0Q637 214 622 214Q611 214 601.0 214.0Q591 214 584.5 214.0Q578 214 573.0 213.5Q568 213 566.0 213.0Q564 213 563.5 213.0Q563 213 547.0 213.5Q531 214 505.5 214.5Q480 215 451.5 215.5Q423 216 394.0 216.5Q365 217 346 217Q333 217 322.0 217.0Q311 217 304.0 216.5Q297 216 291.5 216.0Q286 216 283.5 216.0Q281 216 280 216Q273 216 234.5 219.5Q196 223 184 224Q169 225 159.5 233.0Q150 241 150 252ZM388 467Q388 471 393.0 483.0Q398 495 412.5 508.0Q427 521 446 521Q471 521 489.5 491.0Q508 461 508 441Q508 422 487.5 410.0Q467 398 446.0 398.0Q425 398 406.5 422.5Q388 447 388 467Z" transform="translate(2827.50,958.33) scale(0.9583,-0.9583)" fill="#000000" />
  <path d="M402 806Q402 817 414.0 825.0Q426 833 440 833Q451 833 464 822Q473 815 474 770Q478 667 491 618Q496 601 496 573V560Q496 534 501 534Q510 534 540.0 555.0Q570 576 585 593Q598 607 617.0 620.5Q636 634 643 634Q652 634 662.0 623.0Q672 612 672 600Q672 583 654 570Q646 565 646 557Q646 551 635 547Q622 543 610 532Q601 524 579.0 506.5Q557 489 547 479L532 464L548 456Q562 447 569 447Q574 447 592.0 435.0Q610 423 618 414Q629 403 643 392Q660 379 677 346Q697 306 700 266Q705 218 705 213Q705 164 688 149Q678 139 678 135Q678 130 646.5 97.0Q615 64 605 59Q603 58 591.5 55.5Q580 53 570.5 50.0Q561 47 560 44Q559 40 506.5 29.5Q454 19 434 19Q406 19 375 35Q352 47 340 50Q330 52 309.5 71.5Q289 91 289 97Q289 101 253 137Q229 160 223.0 167.5Q217 175 217 184Q217 216 215 218Q210 225 202.5 255.0Q195 285 195 299Q195 310 216.0 338.5Q237 367 243 367Q247 367 247 374Q247 378 263.5 391.5Q280 405 280.0 410.0Q280 415 305.5 429.0Q331 443 332 445Q333 446 344.5 453.0Q356 460 367.0 467.0Q378 474 378.0 475.0Q378 476 357.0 500.0Q336 524 336 525Q336 529 323 535Q307 542 288.0 556.0Q269 570 257 576Q246 581 244.5 584.0Q243 587 245 598Q252 635 274 635Q282 635 294.0 630.0Q306 625 319.5 617.5Q333 610 335 609Q346 604 346 599Q346 593 368 575Q394 553 406 540Q431 514 429 524Q429 526 428 528Q426 536 430 538Q434 539 434 551Q434 561 430.5 582.5Q427 604 427 606Q425 651 406 768Q402 798 402 806ZM414 351V402L401 404Q391 405 383.5 400.0Q376 395 370 394Q361 392 351.5 379.5Q342 367 333 365Q318 361 301 342Q261 300 267 294Q353 290 376 290Q407 290 410 294Q414 300 414 351ZM574 287Q581 287 598.5 292.0Q616 297 618 297Q628 297 628 302Q628 309 607 336Q557 399 498 399Q486 399 483.5 388.0Q481 377 480 336V321Q480 301 483.0 294.5Q486 288 496 288Q497 288 506.5 289.0Q516 290 523.0 289.5Q530 289 531 287Q532 286 536.0 286.0Q540 286 550.0 287.5Q560 289 563.0 289.0Q566 289 569.0 288.0Q572 287 574 287ZM642 222Q635 229 581 229Q568 229 535.5 225.5Q503 222 498 218Q491 212 491 191Q491 169 498 149Q503 133 503 127Q503 116 506 109Q509 99 512.5 97.5Q516 96 527 98Q556 103 593 139Q598 144 606.0 151.5Q614 159 619.5 164.0Q625 169 627 171Q633 176 638.5 191.5Q644 207 644 216Q644 220 642 222ZM421 200Q421 218 416.0 222.0Q411 226 390 226H376Q266 226 266 217Q266 215 275.5 203.5Q285 192 285 189Q285 183 295.5 167.5Q306 152 310 152Q312 152 337.5 135.5Q363 119 367 119Q374 119 374 112Q374 102 412 97L436 94L433 112Q429 130 426 132Q425 132 426.5 139.0Q428 146 430.0 154.5Q432 163 432 166Q432 184 425 184Q421 184 421 200Z" transform="translate(3770.00,958.33) scale(0.9583,-0.9583)" fill="#000000" />
</svg>
