<?xml version="1.0" encoding="UTF-8" standalone="no"?>
<!--
Representation of "awen ale" in sitelen kalama pona
Generated by generate_sitelen_kalama_pona.py

Description:
  Representation of "awen ale" in sitelen kalama pona.
  Sources: awen: https://commons.wikimedia.org/wiki/File:Sitelen_seli_kiwen_-_awen.svg; ale: https://commons.wikimedia.org/wiki/File:Sitelen_seli_kiwen_-_ale.svg

Categories:
  [[Category:Sitelen kalama pona]]
  [[Category:Toki Pona text containing awen ale]]

Sources:
  awen: https://commons.wikimedia.org/wiki/File:Sitelen_seli_kiwen_-_awen.svg
  ale: https://commons.wikimedia.org/wiki/File:Sitelen_seli_kiwen_-_ale.svg
-->
<svg version="1.1" width="1805" height="1000"
     viewBox="0 0 1805 1000"
     xmlns="http://www.w3.org/2000/svg">
  <path d="M71 100Q76 100 79.5 103.5Q83 107 86.0 111.5Q89 116 103.5 119.5Q118 123 143 123Q152 123 170.0 122.5Q188 122 195 122Q229 122 229 132Q229 138 236.0 143.5Q243 149 243 162Q243 174 255.5 199.5Q268 225 273 243L276 249Q278 255 281.5 265.5Q285 276 289.0 288.5Q293 301 296.5 316.0Q300 331 302 344Q305 360 316.5 388.0Q328 416 330.0 428.0Q332 440 342.0 456.0Q352 472 352 480Q352 490 356 494Q368 505 383.0 561.5Q398 618 399 619Q404 622 399.5 629.0Q395 636 395 641Q395 654 412.5 681.0Q430 708 448 708Q461 708 474.0 698.0Q487 688 491 673Q511 590 513 573Q515 559 524.0 535.5Q533 512 533 507Q533 505 532.0 503.5Q531 502 531 501Q531 499 533.5 496.0Q536 493 539.5 486.0Q543 479 545 469Q548 454 557.0 434.0Q566 414 570 398Q574 380 582.0 365.0Q590 350 592 339Q610 259 613 243Q623 182 645 139Q650 129 695.0 125.5Q740 122 751 116Q759 112 765 112Q768 112 774.0 114.5Q780 117 787 117Q809 117 821.0 100.0Q833 83 833 68Q833 62 829 62Q824 62 822 54Q819 46 803.5 40.5Q788 35 771 35Q751 35 744 42Q736 50 675 51Q621 52 608.0 57.0Q595 62 595 81Q595 95 590.0 102.0Q585 109 585 116Q585 124 573.5 160.0Q562 196 562.0 205.0Q562 214 557.0 227.5Q552 241 552 249Q552 265 547.5 268.5Q543 272 543.0 284.0Q543 296 531.5 324.5Q520 353 520 358Q520 369 501.0 411.5Q482 454 482 461Q482 466 480.5 468.0Q479 470 475.0 477.0Q471 484 466 499Q453 539 442 539Q435 539 435 528Q435 523 427.5 512.0Q420 501 419 491Q417 477 413.0 468.5Q409 460 396.5 431.5Q384 403 369 353Q360 324 350.0 296.5Q340 269 335.5 256.0Q331 243 331 233Q331 225 320.0 203.5Q309 182 308 159Q307 148 303.0 135.5Q299 123 299 91Q299 50 293 45Q288 42 231 42Q112 42 97 48Q67 59 67 93Q67 100 71 100Z" transform="translate(0.00,958.33) scale(0.9583,-0.9583)" fill="#000000" />
  <path d="M140 245Q140 250 130.0 262.0Q120 274 110.0 291.5Q100 309 100 326Q100 337 104.0 370.0Q108 403 112 405Q112 405 127.0 437.5Q142 470 152 470Q157 470 162 479Q165 483 177.0 491.5Q189 500 213.0 509.0Q237 518 262 518Q297 518 333.0 500.0Q369 482 378 472Q382 467 389 458Q413 431 416 421L422 408L446 435Q471 461 480 461Q486 461 508.0 477.5Q530 494 534 494Q536 494 551.5 503.5Q567 513 594 513Q636 513 668 497Q692 484 716 475Q755 460 772 427Q783 408 788 404Q800 390 800 353Q800 298 750 254Q722 229 701.0 222.0Q680 215 610 206L590 202Q585 202 557.5 211.5Q530 221 505.0 230.5Q480 240 480 241Q478 244 470.5 247.5Q463 251 451.0 258.0Q439 265 428 276L410 295L400 282Q389 269 386 269Q383 269 364.0 254.5Q345 240 336 238Q327 236 321.5 229.5Q316 223 306 225H302Q288 225 253.0 219.0Q218 213 200 213Q176 213 158.0 224.0Q140 235 140 245ZM248 450Q220 450 202.0 443.0Q184 436 177.0 422.0Q170 408 168.0 397.5Q166 387 166 370Q166 332 176 308Q182 290 186.0 286.5Q190 283 206 280Q229 276 232 276Q239 276 271.5 287.5Q304 299 304 302Q304 306 312 306Q322 306 331.5 313.5Q341 321 338 327Q335 334 342 334Q351 334 357.5 343.0Q364 352 364 364Q364 384 338.0 412.0Q312 440 296 444Q274 450 248 450ZM468 334Q471 334 480.5 320.0Q490 306 500 306Q510 306 512 301Q512 298 528.0 290.5Q544 283 570.0 275.5Q596 268 618 268Q648 268 682 279Q703 286 710.0 291.0Q717 296 728 313Q744 336 744 353Q744 374 714.5 405.5Q685 437 646 440L604 445Q592 445 573.5 438.0Q555 431 546 424Q541 419 526.5 408.5Q512 398 502.0 390.0Q492 382 492 379Q492 377 477.0 360.5Q462 344 462 338Q462 334 468 334Z" transform="translate(942.50,958.33) scale(0.9583,-0.9583)" fill="#000000" />
</svg>
