<?xml version="1.0" encoding="UTF-8" standalone="no"?>
<!--
Representation of "kulupu:ma Onkon" in sitelen kalama pona
Generated by generate_sitelen_kalama_pona.py

Description:
  Representation of "kulupu:ma Onkon" in sitelen kalama pona.
  Sources: on: https://commons.wikimedia.org/wiki/File:Sitelen_kalama_pona_-_xon.svg; kon: https://commons.wikimedia.org/wiki/File:Sitelen_kalama_pona_-_kon.svg

Categories:
  [[Category:Sitelen kalama pona]]
  [[Category:Toki Pona text containing kulupu:ma]]
  [[Category:Toki Pona text containing sound symbol On]]
  [[Category:Toki Pona text containing sound symbol Kon]]

Sources:
  on: https://commons.wikimedia.org/wiki/File:Sitelen_kalama_pona_-_xon.svg
  kon: https://commons.wikimedia.org/wiki/File:Sitelen_kalama_pona_-_kon.svg
-->
<svg version="1.1" width="3220" height="1000"
     viewBox="0 0 3220 1000"
     xmlns="http://www.w3.org/2000/svg">
  <path d="M 24.637998,12.488337 H 20.72216 q -1.48166,0 -2.54,-1.058333 -1.05833,-1.058333 -1.05833,-2.54 V 3.598338 q 0,-1.481667 1.05833,-2.54 Q 19.2405,4e-6 20.72216,4e-6 h 3.915838 V 0.846671 H 20.72216 q -1.13241,0 -1.94733,0.814917 -0.80433,0.804333 -0.80433,1.93675 v 5.291666 q 0,1.132417 0.80433,1.93675 0.81492,0.814917 1.94733,0.814917 h 3.915838 z" transform="translate(-1371.19,0.00) scale(80.0747,80.0747)" fill="#000000" />
  <path d="M 75.014662,0.846671 V 4e-6 h 13.123333 v 0.846667 z m 0,11.641666 v -0.846666 h 13.123333 v 0.846666 z" transform="translate(-5405.08,0.00) scale(80.0747,80.0747)" fill="#000000" />
  <path d="M 75.014662,0.846671 V 4e-6 h 13.123333 v 0.846667 z m 0,11.641666 v -0.846666 h 13.123333 v 0.846666 z" transform="translate(-4354.24,0.00) scale(80.0747,80.0747)" fill="#000000" />
  <path d="m 87.714667,4e-6 h 2.8575 q 1.481666,0 2.54,1.058334 1.058333,1.058333 1.058333,2.54 v 5.291666 q 0,1.481667 -1.058333,2.54 -1.058334,1.058333 -2.54,1.058333 h -2.8575 v -0.846666 h 2.8575 q 1.132416,0 1.93675,-0.814917 0.814916,-0.804333 0.814916,-1.93675 V 3.598338 q 0,-1.132417 -0.814916,-1.93675 -0.804334,-0.814917 -1.93675,-0.814917 h -2.8575 z" transform="translate(-4320.34,0.00) scale(80.0747,80.0747)" fill="#000000" />
  <path d="M 696.97,919.05 C 674.44,948.87 632.91,993.83 576.63,993.83 C 572.95,993.83 569.21,993.63 565.42,993.23 C 561.47,993.77 557.57,994.03 553.76,994.03 C 488.41,994.03 476.89,920.82 445.97,905.03 C 442.41,905.11 356.92,907.67 328.90,963.95 L 327.51,970.93 C 327.51,970.93 278.48,961.13 278.49,961.07 C 281.06,948.25 281.06,948.25 282.24,945.65 C 309.44,885.75 381.06,855.00 449.40,855.00 C 452.31,855.00 455.42,855.00 459.59,856.52 C 514.08,876.38 521.77,944.13 553.32,944.13 C 558.45,944.13 560.74,943.00 565.00,943.00 C 568.53,943.00 570.42,943.80 576.29,943.80 C 597.35,943.80 624.89,931.51 657.06,888.91 L 696.97,919.05  Z M 405.57,45.42 C 405.57,31.84 411.12,11.03 439.72,-6.05 C 437.75,-9.45 436.49,-11.65 436.49,-11.65 C 437.81,-12.41 439.67,-13.62 441.95,-15.11 C 449.96,-20.36 465.44,-30.65 485.97,-30.65 C 490.00,-30.65 494.23,-30.26 498.63,-29.35 C 499.93,-29.44 501.22,-29.48 502.50,-29.48 C 534.82,-29.48 566.26,-0.74 566.26,33.81 C 566.26,35.31 566.20,36.83 566.08,38.36 C 566.26,41.15 566.35,44.05 566.35,47.02 C 566.35,94.44 544.00,119.21 515.75,119.21 C 510.35,119.21 505.06,118.28 500.01,116.72 C 453.60,113.40 433.22,101.72 421.59,90.09 C 412.22,80.72 405.93,67.15 405.93,52.04 C 405.93,51.83 405.94,51.63 405.94,51.42 C 405.69,49.38 405.57,47.38 405.57,45.42  Z M 497.00,21.00 C 491.07,21.00 488.90,19.13 485.11,19.13 C 483.17,19.13 481.33,19.65 479.00,20.82 L 479.00,29.09 L 482.30,28.31 C 481.19,28.87 480.10,29.41 479.00,29.94 L 479.00,31.00 L 476.84,31.00 C 470.82,33.95 457.58,40.86 455.53,45.18 C 456.00,48.78 456.00,48.78 456.00,50.00 C 456.00,50.91 455.86,53.06 455.86,53.09 C 455.86,54.15 463.18,64.32 506.58,67.05 C 508.76,67.19 510.92,67.61 513.00,68.31 C 514.78,63.88 516.32,56.96 516.32,46.42 C 516.32,43.62 516.00,38.08 516.00,38.00 C 516.00,35.79 516.26,34.92 516.26,33.95 C 516.26,26.63 506.83,20.59 501.68,20.59 C 501.22,20.59 499.67,21.00 497.00,21.00  Z M 726.07,683.11 C 645.27,548.17 550.45,364.51 474.13,237.67 C 394.80,382.97 319.93,539.95 257.34,684.76 L 726.07,683.11  Z M 473.00,163.00 C 476.09,163.00 487.35,163.79 494.20,174.75 C 589.58,327.13 677.89,507.44 778.38,673.04 C 780.79,677.01 782.00,681.50 782.00,686.00 L 782.00,708.00 C 782.00,721.78 770.87,732.95 757.09,732.99 L 189.09,734.99 L 188.91,685.01 L 203.47,684.95 L 199.81,677.64 L 207.63,673.73 C 276.96,512.63 361.51,336.11 451.17,175.80 C 455.46,168.14 463.66,163.00 473.00,163.00 Z" transform="translate(727.12,100.00) scale(0.8000,0.8000)" fill="#000000" />
  <path d="M 427.60,902.87 C 389.78,902.87 353.14,925.73 345.61,968.37 C 345.61,968.37 296.38,959.68 296.39,959.63 C 307.82,894.86 363.43,852.88 427.55,852.88 C 429.20,852.88 430.85,852.91 432.51,852.97 C 434.36,852.84 436.19,852.78 437.99,852.78 C 480.36,852.78 501.45,883.93 516.73,906.51 C 531.67,928.57 539.40,938.05 553.12,938.05 C 564.33,938.05 570.54,933.00 579.00,933.00 C 582.08,933.00 583.38,933.56 587.73,933.56 C 603.39,933.56 618.75,925.01 637.89,909.68 L 684.62,859.05 L 721.38,892.95 C 672.14,946.30 672.14,946.30 670.72,947.44 C 649.72,964.45 622.72,983.58 588.06,983.58 C 586.01,983.58 583.93,983.51 581.83,983.38 C 571.83,986.40 562.14,987.94 552.89,987.94 C 511.48,987.94 490.96,957.64 475.30,934.51 C 458.85,910.21 451.66,902.71 439.15,902.71 C 436.30,902.71 435.16,903.00 433.00,903.00 C 432.95,903.00 429.39,902.87 427.60,902.87  Z M 426.34,506.44 L 451.67,549.56 L 291.66,643.56 C 290.58,644.20 289.45,644.75 288.31,645.21 C 288.31,645.21 258.31,657.21 258.27,657.22 L 239.69,610.79 L 267.95,599.49 L 426.34,506.44  Z M 220.32,92.24 L 249.64,51.73 C 403.26,162.90 403.26,162.90 404.68,164.32 L 426.68,186.32 L 391.32,221.68 L 370.74,201.10 C 370.74,201.10 220.36,92.27 220.32,92.24  Z M 412.42,1.79 C 425.88,-17.66 453.81,-37.10 480.37,-37.10 C 481.06,-37.10 481.75,-37.09 482.45,-37.07 C 483.56,-37.15 484.68,-37.19 485.81,-37.19 C 496.20,-37.19 526.13,-33.36 526.13,10.70 C 526.13,11.12 526.00,19.91 526.00,20.00 C 526.00,20.91 524.70,83.19 489.56,103.62 C 485.77,105.82 481.44,107.15 474.34,107.15 C 460.69,107.15 452.48,102.45 442.02,96.45 C 430.78,95.15 396.62,88.28 396.62,52.87 C 396.62,36.99 404.11,21.80 416.69,4.75 L 412.42,1.79  Z M 467.18,23.70 C 466.63,23.82 465.05,24.28 465.03,24.28 C 456.88,33.96 451.87,41.16 449.01,46.91 C 455.31,47.58 458.35,47.90 468.48,53.98 C 475.41,38.82 476.08,14.20 476.08,13.79 C 474.23,14.35 472.46,15.10 470.60,16.07 L 471.65,16.64 C 469.86,18.65 467.90,20.88 465.90,23.24 L 467.18,23.70  Z M 350.38,315.35 C 350.38,177.00 476.98,82.97 616.69,82.97 C 618.25,82.97 619.82,82.98 621.38,83.01 L 620.62,132.99 C 619.34,132.97 618.06,132.96 616.78,132.96 C 508.34,132.96 400.29,202.94 400.29,314.65 C 400.29,336.19 403.98,348.62 403.99,353.91 C 404.54,499.96 526.18,607.44 666.19,617.03 L 739.68,619.01 L 738.33,668.99 C 689.91,667.68 664.07,666.99 663.32,666.94 C 496.06,655.76 355.88,526.43 354.02,356.34 C 351.56,342.32 350.38,328.64 350.38,315.35 Z" transform="translate(1777.97,100.00) scale(0.8000,0.8000)" fill="#000000" />
</svg>
