<?xml version="1.0" encoding="UTF-8" standalone="no"?>
<!--
Representation of "tomo sewi suli Kinokuma" in sitelen kalama pona
Generated by generate_sitelen_kalama_pona.py

Description:
  Representation of "tomo sewi suli Kinokuma" in sitelen kalama pona.
  Sources: tomo-sewi: https://commons.wikimedia.org/wiki/File:Tomo_sewi_old.svg; suli: https://commons.wikimedia.org/wiki/File:Sitelen_seli_kiwen_-_suli.svg; ki: https://commons.wikimedia.org/wiki/File:Sitelen_kalama_pona_-_ki.svg; no: https://commons.wikimedia.org/wiki/File:Sitelen_kalama_pona_-_no.svg; ku: https://commons.wikimedia.org/wiki/File:Sitelen_kalama_pona_-_ku.svg; ma: https://commons.wikimedia.org/wiki/File:Sitelen_kalama_pona_-_ma.svg

Categories:
  [[Category:Sitelen kalama pona]]
  [[Category:Toki Pona text containing tomo sewi suli]]
  [[Category:Toki Pona text containing sound symbol Ki]]
  [[Category:Toki Pona text containing sound symbol No]]
  [[Category:Toki Pona text containing sound symbol Ku]]
  [[Category:Toki Pona text containing sound symbol Ma]]

Sources:
  tomo-sewi: https://commons.wikimedia.org/wiki/File:Tomo_sewi_old.svg
  suli: https://commons.wikimedia.org/wiki/File:Sitelen_seli_kiwen_-_suli.svg
  ki: https://commons.wikimedia.org/wiki/File:Sitelen_kalama_pona_-_ki.svg
  no: https://commons.wikimedia.org/wiki/File:Sitelen_kalama_pona_-_no.svg
  ku: https://commons.wikimedia.org/wiki/File:Sitelen_kalama_pona_-_ku.svg
  ma: https://commons.wikimedia.org/wiki/File:Sitelen_kalama_pona_-_ma.svg
-->
<svg version="1.1" width="7207" height="1000"
     viewBox="0 0 7207 1000"
     xmlns="http://www.w3.org/2000/svg">
  <path d="M126 137Q126 137 126 151Q126 160 128.0 169.0Q130 178 130 182Q130 184 128 192Q124 208 122.5 266.0Q121 324 120.5 375.0Q120 426 117 430Q116 433 116.0 443.5Q116 454 112 461Q111 462 111 465Q111 475 128.0 489.0Q145 503 157 503Q168 503 179.0 512.5Q190 522 195.5 531.0Q201 540 201 541Q201 543 207.5 547.0Q214 551 225.5 560.5Q237 570 246 583Q256 596 275.5 611.5Q295 627 309.0 637.5Q323 648 323 651Q323 655 332.5 662.5Q342 670 342 675Q342 681 349 681Q354 681 363.5 694.0Q373 707 385.5 720.0Q398 733 410 733Q419 733 432.5 742.5Q446 752 454 752Q466 752 483.0 737.5Q500 723 513.5 708.5Q527 694 530 694Q533 694 533.5 693.5Q534 693 534 691Q534 688 567.0 666.5Q600 645 600 641Q600 638 614.0 630.5Q628 623 650.0 609.5Q672 596 687 581Q711 559 733.0 540.5Q755 522 758 522Q762 522 767.5 520.5Q773 519 781.5 511.0Q790 503 788 489Q788 472 787.0 440.0Q786 408 784.0 374.0Q782 340 780.5 309.0Q779 278 777.5 257.5Q776 237 776 236Q776 221 777.5 199.5Q779 178 780.5 159.0Q782 140 784.0 123.0Q786 106 787.0 95.0Q788 84 788 84Q788 75 777 64Q766 54 748.0 51.5Q730 49 647 49Q529 49 475.0 55.5Q421 62 370 62Q237 62 161 46Q147 43 129 58Q119 67 116.0 72.5Q113 78 113 89Q113 114 119.5 120.0Q126 126 126 137ZM291 124Q320 124 351.5 123.0Q383 122 408.5 121.0Q434 120 455.0 118.5Q476 117 488.5 116.0Q501 115 501 115Q506 115 513.5 116.5Q521 118 544.5 119.5Q568 121 609 121Q674 122 698.5 124.5Q723 127 723 134Q723 134 722.5 136.5Q722 139 721.0 144.0Q720 149 718.5 156.0Q717 163 715.5 172.5Q714 182 713.0 193.0Q712 204 711.0 217.5Q710 231 710 245Q710 259 711.5 276.5Q713 294 715.0 310.0Q717 326 719.5 339.5Q722 353 723.0 361.5Q724 370 724 370Q724 374 720.0 399.5Q716 425 715.5 444.0Q715 463 712.0 469.5Q709 476 696 487Q693 490 686.0 496.0Q679 502 674.0 506.5Q669 511 666 514Q650 530 618.0 551.5Q586 573 578 580Q561 597 555 597Q552 597 548.0 600.5Q544 604 535.0 610.5Q526 617 514 623Q501 629 473.5 648.0Q446 667 438 667Q429 667 404.0 643.5Q379 620 376 620Q374 620 362.5 606.0Q351 592 346 592Q340 592 301.0 553.5Q262 515 262 507Q262 503 253 503Q245 503 239 494Q237 489 227.0 477.5Q217 466 209.5 452.5Q202 439 199 424Q196 404 188 402Q184 400 182.0 389.5Q180 379 180 344Q180 267 186.5 249.0Q193 231 193 197Q193 151 200.0 136.0Q207 121 237 121Q241 121 256.5 122.5Q272 124 291 124Z" transform="translate(0.00,958.33) scale(0.9583,-0.9583)" fill="#000000" />
  <path d="m 432.42725,-300.25904 c 0,-4 2.16667,-11.83333 6.5,-23.5 4.33333,-11.66667 6.5,-22.83333 6.5,-33.5 0,-10 2.5,-19.5 7.5,-28.5 5,-9 12.16667,-13.5 21.5,-13.5 4.66667,0 10,1.66667 16,5 14.00002,7.33333 21.00002,19 21.00002,35 0,18 -4.1667,37 -12.5,57 -8.33335,20 -15.66669,34.5 -22.00002,43.5 -6.33333,9 -11.5,15.5 -15.5,19.5 -6,6 -11.66667,9.66667 -17,11 -5.33333,1.33333 -18,2 -38,2 -45.33333,0 -74.33333,-1 -87,-3 -9.33333,-1.33333 -17.66667,-8.83333 -25,-22.5 -7.33333,-13.66667 -11,-26.5 -11,-38.5 0,-16 7.33333,-24 22,-24 6,0 11.83333,2.83333 17.5,8.5 5.66667,5.66667 10.83333,8.5 15.5,8.5 10.66667,0 16,-7.33333 16,-22 v -7 c -1.33333,-7.33333 -1.33333,-12.33333 0,-15 1.33333,-2.66667 4.33333,-5.66667 9,-9 5.33333,-3.33333 10.33333,-5 15,-5 8,0 15,5.33333 21,16 6,10.66667 11.33333,21.33333 16,32 4.66667,10.66667 9,16 13,16 2.66667,0 4,-3 4,-9 z m 95.00002,-126 c 0.6667,-18.66667 2.8333,-31 6.5,-37 3.6667,-6 12.5,-9 26.5,-9 14,0 23.3333,2.33333 28,7 2.6667,2.66667 4,16.33333 4,41 0,32.66667 -2.3334,62 -7,88 l -7,39 c 0,6.66667 3,12 9,16 6,4.66667 8.3333,9.33333 7,14 -2.6667,11.33333 -4.3333,20.33333 -5,27 -1.3333,12.66667 -4.5,21.33333 -9.5,26 -5,4.66667 -13.8333,7 -26.5,7 -10,0 -16.8333,-2 -20.5,-6 -3.6667,-4 -5.5,-11.66667 -5.5,-23 0,-24.66667 -1,-38 -3,-40 -2,-2 -3,-8.66667 -3,-20 0,-8 0.3333,-14.33333 1,-19 0.6667,-7.33333 1,-13.33333 1,-18 0,-6 -0.5,-11 -1.5,-15 -1,-4 -1.5,-6.66667 -1.5,-8 0,-3.33333 0.6666,-8.33333 2,-15 2,-7.33333 3.6667,-25.66667 5,-55 z" transform="translate(0.00,958.33) scale(0.9583,0.9583)" fill="#000000" />
  <path d="M116 735Q138 735 165.0 692.5Q192 650 192 631Q192 624 206.0 606.5Q220 589 220 572Q220 559 225.0 559.0Q230 559 230 551Q230 544 239.0 530.0Q248 516 248 514Q248 508 295.0 417.0Q342 326 342 319Q342 314 354.0 290.0Q366 266 366 261Q366 258 367.5 256.0Q369 254 372.0 251.0Q375 248 381.0 238.0Q387 228 394 212Q412 173 424 173Q432 173 445.0 204.5Q458 236 460 236Q462 236 464.0 242.5Q466 249 470.5 260.0Q475 271 482 278Q492 291 492 298Q492 306 497.0 306.0Q502 306 502.0 313.0Q502 320 506 320Q510 320 541.0 382.5Q572 445 572 452Q572 458 598.0 492.5Q624 527 624 530Q624 534 639.0 553.5Q654 573 674.5 601.5Q695 630 706 651Q713 666 727.5 687.0Q742 708 744 720Q749 747 784 747Q797 747 805.5 736.0Q814 725 814 711Q814 696 803.0 681.5Q792 667 792 666Q792 664 786.5 657.5Q781 651 773.0 642.0Q765 633 762 629Q749 607 733.5 586.0Q718 565 711.0 555.0Q704 545 704 542Q704 536 700 536Q698 536 695.0 530.0Q692 524 684.5 511.0Q677 498 668 486Q652 468 652 462Q652 457 642 449Q634 441 620.0 413.0Q606 385 606 376Q606 370 599.0 362.5Q592 355 594 353Q594 352 594 350Q594 349 590.5 344.5Q587 340 575.5 320.5Q564 301 548 270Q542 256 536.5 247.5Q531 239 529.0 237.0Q527 235 526.5 233.0Q526 231 526 228Q526 223 518.5 214.0Q511 205 514 200Q515 196 508.5 191.0Q502 186 502 178Q502 171 492.0 156.0Q482 141 478 131Q476 125 472 113Q454 67 447.0 53.5Q440 40 430 40Q421 40 404 48Q388 54 384.5 59.5Q381 65 376 89Q371 113 364.5 126.5Q358 140 358 144Q358 161 356 161Q353 161 350.5 165.5Q348 170 343.0 180.5Q338 191 330 200Q322 212 322 219Q322 223 302.0 265.0Q282 307 280 318Q277 332 269.0 349.5Q261 367 258 367Q254 367 246.0 384.0Q238 401 238 409Q238 418 234 420Q228 422 206.0 465.5Q184 509 180 524Q178 535 166.0 554.0Q154 573 150 573Q148 573 145.0 582.0Q142 591 137.0 602.5Q132 614 126 619Q118 626 118 636Q118 643 110.5 650.5Q103 658 102 662Q102 667 94.0 677.0Q86 687 86 697Q86 711 96.0 723.0Q106 735 116 735Z" transform="translate(942.50,958.33) scale(0.9583,-0.9583)" fill="#000000" />
  <path d="M 24.637998,12.488337 H 20.72216 q -1.48166,0 -2.54,-1.058333 -1.05833,-1.058333 -1.05833,-2.54 V 3.598338 q 0,-1.481667 1.05833,-2.54 Q 19.2405,4e-6 20.72216,4e-6 h 3.915838 V 0.846671 H 20.72216 q -1.13241,0 -1.94733,0.814917 -0.80433,0.804333 -0.80433,1.93675 v 5.291666 q 0,1.132417 0.80433,1.93675 0.81492,0.814917 1.94733,0.814917 h 3.915838 z" transform="translate(513.81,0.00) scale(80.0747,80.0747)" fill="#000000" />
  <path d="M 75.014662,0.846671 V 4e-6 h 13.123333 v 0.846667 z m 0,11.641666 v -0.846666 h 13.123333 v 0.846666 z" transform="translate(-3520.08,0.00) scale(80.0747,80.0747)" fill="#000000" />
  <path d="M 75.014662,0.846671 V 4e-6 h 13.123333 v 0.846667 z m 0,11.641666 v -0.846666 h 13.123333 v 0.846666 z" transform="translate(-2469.24,0.00) scale(80.0747,80.0747)" fill="#000000" />
  <path d="M 75.014662,0.846671 V 4e-6 h 13.123333 v 0.846667 z m 0,11.641666 v -0.846666 h 13.123333 v 0.846666 z" transform="translate(-1418.39,0.00) scale(80.0747,80.0747)" fill="#000000" />
  <path d="M 75.014662,0.846671 V 4e-6 h 13.123333 v 0.846667 z m 0,11.641666 v -0.846666 h 13.123333 v 0.846666 z" transform="translate(-367.54,0.00) scale(80.0747,80.0747)" fill="#000000" />
  <path d="m 87.714667,4e-6 h 2.8575 q 1.481666,0 2.54,1.058334 1.058333,1.058333 1.058333,2.54 v 5.291666 q 0,1.481667 -1.058333,2.54 -1.058334,1.058333 -2.54,1.058333 h -2.8575 v -0.846666 h 2.8575 q 1.132416,0 1.93675,-0.814917 0.814916,-0.804333 0.814916,-1.93675 V 3.598338 q 0,-1.132417 -0.814916,-1.93675 -0.804334,-0.814917 -1.93675,-0.814917 h -2.8575 z" transform="translate(-333.64,0.00) scale(80.0747,80.0747)" fill="#000000" />
  <path d="M 401.00,131.00 C 376.66,131.00 351.33,107.86 351.33,84.01 C 351.33,81.77 351.54,79.45 352.00,77.06 C 353.02,48.40 378.36,33.25 392.71,24.67 C 393.22,24.36 398.21,21.37 399.37,20.49 L 422.46,49.25 C 427.47,52.78 438.12,62.38 438.12,80.17 C 438.12,81.22 438.08,82.28 437.99,83.32 C 437.99,83.51 437.99,83.70 437.99,83.90 C 438.00,84.93 438.01,86.06 438.01,87.29 C 438.01,130.35 403.09,131.00 401.00,131.00  Z M 201.42,181.56 L 232.54,142.41 L 388.58,266.44 L 357.46,305.59 C 357.46,305.59 201.46,181.59 201.42,181.56  Z M 408.05,512.35 L 449.97,539.62 L 341.95,705.65 L 300.03,678.38 C 300.03,678.38 408.03,512.38 408.05,512.35  Z M 603.52,100.45 C 617.37,100.45 630.21,111.06 630.21,126.54 C 630.21,131.42 628.96,135.38 628.29,137.09 L 611.57,130.58 C 610.87,134.39 609.27,138.07 606.79,141.28 L 605.30,128.14 L 581.72,118.96 L 587.27,143.62 L 606.10,150.24 C 601.54,151.34 598.35,153.47 590.37,154.38 C 589.39,154.49 588.26,154.63 586.82,154.63 C 584.68,154.63 578.80,154.30 573.26,151.03 C 462.15,156.17 403.43,286.67 403.43,386.40 C 403.43,391.40 403.58,396.35 403.87,401.24 C 421.69,511.78 515.35,602.55 619.46,625.39 L 632.56,627.26 C 632.56,627.26 625.49,676.75 625.44,676.74 C 610.56,674.62 610.56,674.62 609.70,674.43 C 484.63,647.45 374.92,539.74 354.31,407.89 C 354.27,407.67 353.42,400.12 353.42,385.59 C 353.42,249.92 438.68,100.88 580.40,100.88 C 585.35,100.88 589.69,100.88 593.24,101.79 C 593.35,101.76 598.57,100.45 603.52,100.45 Z" transform="translate(2612.12,100.00) scale(0.8000,0.8000)" fill="#000000" />
  <path d="M 484.85,140.72 C 498.91,135.89 508.23,120.14 508.23,108.48 C 508.23,106.67 508.00,106.13 508.00,104.00 C 508.00,101.90 508.27,99.80 508.79,97.76 C 507.10,97.00 506.12,97.00 505.00,97.00 C 504.40,97.00 504.40,97.00 467.34,95.23 C 460.88,102.77 457.18,113.06 457.18,123.45 C 457.18,128.76 458.00,130.25 458.00,134.00 C 458.00,135.67 457.83,137.34 457.50,138.99 C 467.93,140.38 479.80,140.38 484.85,140.72  Z M 407.16,123.19 C 407.16,64.28 457.98,35.00 477.00,35.00 L 489.00,35.00 L 489.00,46.21 L 505.38,46.99 C 505.57,46.99 505.75,46.99 505.94,46.99 C 535.01,46.99 558.86,68.41 558.86,97.33 C 558.86,100.07 558.64,102.85 558.18,105.65 C 558.23,106.79 558.26,107.93 558.26,109.06 C 558.26,146.76 528.94,182.95 492.03,190.49 C 490.37,190.83 488.69,191.00 487.00,191.00 C 486.58,191.00 456.43,190.11 444.99,187.77 C 425.76,183.84 405.91,171.34 405.91,144.93 C 405.91,140.47 406.52,136.15 407.56,131.93 C 407.29,129.02 407.16,126.10 407.16,123.19  Z M 475.99,304.03 C 367.51,354.20 275.90,489.17 275.90,607.03 C 275.90,608.96 275.92,610.89 275.97,612.81 C 275.97,612.81 283.94,730.30 283.94,730.32 L 234.06,733.70 C 225.90,613.35 225.90,613.35 225.90,606.73 C 225.90,460.75 338.22,308.22 463.19,255.00 C 466.31,253.67 469.66,253.00 473.00,253.00 C 474.28,253.00 535.68,258.03 587.30,309.65 C 665.60,387.94 681.85,525.26 695.34,640.23 C 698.12,663.90 700.75,686.25 703.72,706.31 L 703.73,706.36 L 654.28,713.69 C 651.14,692.55 648.47,669.77 645.70,646.10 C 628.28,497.70 606.66,331.93 475.99,304.03 Z" transform="translate(3662.97,100.00) scale(0.8000,0.8000)" fill="#000000" />
  <path d="M 326.60,734.72 C 319.64,734.72 313.08,735.35 306.03,735.35 C 290.50,735.35 281.70,732.36 275.98,729.55 C 224.69,716.66 183.34,674.17 172.55,623.21 C 172.19,621.52 172.01,619.81 172.01,618.10 L 170.01,108.10 L 219.99,107.90 L 221.98,615.13 C 229.75,646.90 257.23,674.19 290.47,681.61 C 293.10,682.19 295.73,683.21 298.09,684.65 C 299.15,684.96 302.66,685.22 307.62,685.22 C 315.16,685.22 319.66,684.67 326.22,684.67 C 328.33,684.67 330.53,684.73 332.84,684.89 C 379.92,679.45 428.74,629.60 450.36,583.40 C 450.36,583.40 495.64,604.58 495.64,604.60 C 470.04,659.35 408.74,728.48 335.19,734.90 C 334.46,734.96 333.73,735.00 333.00,735.00 C 330.45,735.00 330.78,734.72 326.60,734.72  Z M 337.51,157.62 L 368.45,118.35 C 435.62,171.26 435.62,171.26 436.68,172.32 C 438.15,173.80 438.15,173.80 469.36,217.49 L 428.67,246.55 L 400.72,207.43 C 400.72,207.43 337.55,157.65 337.51,157.62  Z M 608.92,96.87 C 640.41,96.87 640.78,124.23 640.78,125.50 C 640.78,130.07 639.66,134.44 637.50,138.91 L 592.49,117.11 L 597.39,141.00 L 608.17,146.48 C 606.84,146.50 548.86,159.22 493.93,214.15 C 449.45,258.62 419.99,317.66 419.99,375.50 C 419.99,375.64 419.99,375.79 420.00,376.00 C 420.00,377.19 419.79,380.45 419.79,386.20 C 419.79,529.02 550.65,639.25 681.43,657.10 L 714.48,659.05 L 711.54,708.95 C 676.59,706.90 676.59,706.90 675.67,706.77 C 518.21,685.79 369.80,553.70 369.80,386.23 C 369.80,382.68 369.87,379.12 370.00,375.48 C 370.00,246.47 480.72,126.37 596.99,97.73 C 598.96,97.25 600.98,97.00 603.00,97.00 C 603.18,97.00 603.37,97.01 603.55,97.01 C 603.60,97.01 608.32,96.87 608.92,96.87 Z" transform="translate(4713.81,100.00) scale(0.8000,0.8000)" fill="#000000" />
  <path d="M 522.00,558.00 C 522.00,558.14 521.73,566.22 521.73,572.30 C 521.73,584.12 522.48,594.41 525.00,603.00 L 477.02,617.06 C 472.64,602.14 471.66,587.63 471.66,574.12 C 471.66,568.77 471.81,563.59 471.97,558.60 C 471.09,547.25 470.72,536.08 470.72,525.05 C 470.72,464.30 482.14,406.66 482.14,348.98 C 482.14,342.62 482.00,338.85 482.00,338.00 C 482.00,336.47 482.27,333.61 482.27,327.81 C 482.27,232.28 405.65,104.59 308.07,100.98 C 287.06,100.20 287.06,100.20 286.79,100.20 C 199.98,100.20 129.26,141.64 97.83,286.69 C 74.28,395.40 79.55,527.94 71.91,622.04 L 22.09,617.99 L 22.09,617.96 C 29.63,525.03 24.03,391.17 48.98,276.04 C 66.30,196.08 112.34,50.25 287.76,50.25 C 317.75,50.25 377.94,50.25 441.13,113.44 C 497.05,169.35 532.28,252.44 532.28,327.17 C 532.28,330.91 532.19,334.63 532.01,338.33 C 532.10,341.97 532.14,345.60 532.14,349.21 C 532.14,410.00 520.73,467.35 520.73,525.49 C 520.73,542.54 522.00,557.67 522.00,558.00  Z M 503.68,361.35 C 513.06,336.93 546.33,255.47 629.36,255.47 C 636.20,255.47 643.24,256.04 650.48,257.24 C 753.85,268.91 788.18,355.43 802.57,401.96 C 828.62,486.23 830.28,589.08 848.98,652.94 C 849.66,655.24 850.00,657.62 850.00,660.00 L 850.00,708.00 L 800.00,708.00 L 800.00,663.53 C 773.06,567.33 779.47,405.33 712.11,337.97 C 695.42,321.28 674.43,310.14 644.27,306.85 C 630.12,305.30 630.12,305.30 628.03,305.30 C 609.34,305.30 595.54,312.49 582.92,325.11 C 560.64,347.39 543.89,390.03 533.87,437.20 C 521.40,495.81 518.69,558.66 517.28,592.44 C 516.12,620.45 515.90,625.72 508.15,633.47 C 505.02,636.59 498.32,640.84 490.10,640.84 C 487.33,640.84 467.92,639.96 464.28,615.73 C 462.26,602.27 461.58,587.67 461.58,572.31 C 461.58,555.15 462.43,537.03 463.22,518.46 C 464.06,498.61 464.87,478.30 464.87,458.73 C 464.87,367.02 445.25,331.52 402.27,324.87 C 397.57,324.56 393.02,324.40 388.63,324.40 C 352.32,324.40 276.29,332.40 250.66,463.04 C 244.69,493.49 242.38,526.44 242.38,558.52 C 242.38,583.23 243.75,607.44 245.88,629.63 L 196.12,634.41 C 193.85,610.78 192.32,584.90 192.32,558.14 C 192.32,473.76 207.33,379.47 263.75,323.05 C 294.19,292.61 336.34,274.45 389.51,274.45 C 428.86,274.45 481.87,289.08 503.68,361.35 Z" transform="translate(5764.66,100.00) scale(0.8000,0.8000)" fill="#000000" />
</svg>
