<?xml version="1.0" encoding="UTF-8" standalone="no"?>
<!--
Representation of "lukin" in sitelen kalama pona
Generated by generate_sitelen_kalama_pona.py

Description:
  Representation of "lukin" in sitelen kalama pona.
  Sources: lukin: https://commons.wikimedia.org/wiki/File:Sitelen_seli_kiwen_-_lukin.svg

Categories:
  [[Category:Toki Pona text containing lukin]]

Sources:
  lukin: https://commons.wikimedia.org/wiki/File:Sitelen_seli_kiwen_-_lukin.svg
-->
<svg version="1.1" width="862" height="1000"
     viewBox="0 0 862 1000"
     xmlns="http://www.w3.org/2000/svg">
  <path d="M408 381Q408 389 423.5 395.0Q439 401 451 401Q474 401 489.5 381.0Q505 361 505 350Q505 341 503.0 331.5Q501 322 489.5 311.0Q478 300 459 300Q438 300 418.5 307.5Q399 315 398 325Q396 345 396 349Q396 363 402.0 369.0Q408 375 408 381ZM76 333Q76 336 79.0 338.5Q82 341 82 351Q82 355 81.5 366.0Q81 377 81 383Q81 393 82 398Q84 407 105.5 430.0Q127 453 133 453Q138 453 156.5 473.5Q175 494 180 494Q187 494 195 504Q208 518 241.0 531.5Q274 545 294 545Q312 545 334.0 555.5Q356 566 387 566Q432 566 472.5 563.5Q513 561 516 561Q528 561 537.0 564.5Q546 568 550 568Q568 568 633.5 545.5Q699 523 708 513Q709 512 725.0 499.5Q741 487 758.0 473.5Q775 460 790.5 440.0Q806 420 809 403Q813 386 816.0 386.0Q819 386 821.5 368.5Q824 351 824 340Q824 326 805.5 298.0Q787 270 787.0 264.0Q787 258 750.5 228.0Q714 198 709 198Q703 198 703 195Q703 191 676.5 186.0Q650 181 612.5 174.5Q575 168 560 163Q529 153 431 153Q313 153 298 165Q296 167 253.5 174.5Q211 182 201 191Q200 192 183.0 201.5Q166 211 149.5 224.0Q133 237 129 250Q125 259 122 259Q117 259 117 268Q117 274 108.5 285.5Q100 297 95 297Q94 297 89.5 303.5Q85 310 80.5 319.0Q76 328 76 333ZM215 259Q217 259 244.0 246.0Q271 233 281 233Q297 233 299 232Q339 211 404 211Q429 211 485.5 215.5Q542 220 546.0 223.0Q550 226 573.5 229.5Q597 233 605 236Q608 237 615.0 239.0Q622 241 633.0 244.5Q644 248 652 250Q691 261 716.5 288.5Q742 316 747.5 332.5Q753 349 753 355Q753 371 732.0 404.0Q711 437 703 440Q696 442 678 458Q654 480 593.5 493.0Q533 506 507 506Q497 506 429.5 501.5Q362 497 356 494Q347 489 328.5 485.5Q310 482 307 479Q303 475 292 475Q276 475 250.5 456.5Q225 438 222 438Q217 438 159 384Q143 369 144 352Q146 333 150.0 326.0Q154 319 167 311Q183 300 183 294Q183 289 196.5 274.0Q210 259 215 259Z" transform="translate(0.00,958.33) scale(0.9583,-0.9583)" fill="#000000" />
</svg>
