<?xml version="1.0" encoding="UTF-8" standalone="no"?>
<!--
Representation of "kule pilin" in sitelen kalama pona
Generated by generate_sitelen_kalama_pona.py

Description:
  Representation of "kule pilin" in sitelen kalama pona.
  Sources: kule-pilin: https://commons.wikimedia.org/wiki/File:Sitelen_seli_kiwen_-_kule-pilin.svg

Categories:
  [[Category:Sitelen kalama pona]]
  [[Category:Toki Pona text containing kule pilin]]

Sources:
  kule-pilin: https://commons.wikimedia.org/wiki/File:Sitelen_seli_kiwen_-_kule-pilin.svg
-->
<svg version="1.1" width="862" height="1000"
     viewBox="0 0 862 1000"
     xmlns="http://www.w3.org/2000/svg">
  <path d="M314 175Q315 175 318.5 178.0Q322 181 322 184Q322 188 312 188Q306 188 294.0 186.5Q282 185 278 185Q266 185 252 198Q241 207 238.0 213.0Q235 219 236 228Q243 272 312 272Q314 272 320.0 271.5Q326 271 330 271L364 268L374 288Q382 306 390 315Q398 321 398 326Q398 332 408 345Q436 383 436 397Q436 404 422.0 430.0Q408 456 402 460Q396 465 371.5 472.0Q347 479 328 494Q311 508 306 508Q302 508 294 526Q285 544 264 559Q244 574 244.0 578.0Q244 582 232 596Q194 641 194 683Q194 708 208 736Q217 752 226.5 761.5Q236 771 256 785Q276 799 284.5 803.0Q293 807 306 807Q365 807 388 774Q396 763 409.0 751.5Q422 740 428 734Q437 724 444 729Q450 735 450 740Q450 744 459.0 751.5Q468 759 468 763Q468 770 480 775Q492 781 497.0 791.0Q502 801 520 811Q527 815 534.5 820.0Q542 825 547.0 827.5Q552 830 560 830Q570 830 584 826Q618 818 636.0 804.5Q654 791 668 764Q678 744 678 719Q678 680 674 660Q670 642 657.5 615.0Q645 588 641.5 588.0Q638 588 638 581Q638 577 619.5 556.5Q601 536 598 536Q594 536 555.5 495.0Q517 454 514 448Q510 436 510 426Q510 408 517.0 394.0Q524 380 524.0 375.0Q524 370 536 359Q545 350 552.5 331.5Q560 313 564 306Q576 286 576 281Q576 259 636 258Q674 256 690.0 248.5Q706 241 706 220Q706 211 693.5 195.0Q681 179 670 179Q668 179 662.0 180.0Q656 181 650 181Q624 181 624 177Q624 176 635.0 156.0Q646 136 646 135Q646 132 654 124Q666 112 677.0 97.5Q688 83 688 80Q688 75 696 68Q704 58 704 38Q704 20 690.5 10.0Q677 0 658 0Q652 0 644 2Q633 6 559.0 9.0Q485 12 412 12Q382 12 344.0 10.0Q306 8 290 8Q274 8 258.0 15.5Q242 23 242 32Q242 36 244 42Q268 86 278 94Q292 107 304 155Q310 175 314 175ZM618 711Q618 731 606.5 748.0Q595 765 578 765Q564 765 540.0 753.0Q516 741 516 737Q516 734 495.0 711.0Q474 688 474 679Q474 670 466.0 659.0Q458 648 452 648Q446 648 440 638L432 628L422 639Q412 649 412 659Q412 666 404 670Q396 674 386 699Q378 715 372.5 721.0Q367 727 354 733Q336 741 316 741Q290 741 274.0 725.5Q258 710 258 684Q258 658 286.0 617.5Q314 577 342 564Q351 559 374.5 541.0Q398 523 404 520Q448 487 458 487Q462 487 472 506Q479 522 496 532Q516 543 516 548Q516 554 530 565Q540 572 551.5 589.0Q563 606 570 612Q580 619 580 625Q580 631 596 652Q618 680 618 711ZM498 284Q492 298 482 310L474 321L464 302Q454 283 450 280Q446 277 446 275Q446 270 460.0 266.5Q474 263 486.5 263.0Q499 263 501.5 267.5Q504 272 498 284ZM548 93Q553 93 566.0 91.5Q579 90 584 90Q594 90 594 94Q594 96 588 104Q583 109 564 147Q549 173 544.0 178.0Q539 183 522 185Q476 191 424 191Q406 191 404 189Q400 187 390 166Q380 148 364 120Q356 103 356 98Q356 88 388 88Q398 88 431.0 85.5Q464 83 478 83Q489 83 513.0 88.0Q537 93 548 93Z" transform="translate(0.00,958.33) scale(0.9583,-0.9583)" fill="#000000" />
</svg>
