<?xml version="1.0" encoding="UTF-8" standalone="no"?>
<!--
Representation of "lawa pi ken ala pilin e ijo wan taso" in sitelen kalama pona
Generated by generate_sitelen_kalama_pona.py

Description:
  Representation of "lawa pi ken ala pilin e ijo wan taso" in sitelen kalama pona.
  Sources: lawa: https://commons.wikimedia.org/wiki/File:Sitelen_seli_kiwen_-_lawa.svg; pi: https://commons.wikimedia.org/wiki/File:Sitelen_seli_kiwen_-_pi.svg; ken: https://commons.wikimedia.org/wiki/File:Sitelen_seli_kiwen_-_ken.svg; ala: https://commons.wikimedia.org/wiki/File:Sitelen_seli_kiwen_-_ala.svg; pilin: https://commons.wikimedia.org/wiki/File:Sitelen_seli_kiwen_-_pilin.svg; e: https://commons.wikimedia.org/wiki/File:Sitelen_seli_kiwen_-_e.svg; ijo-wan: https://commons.wikimedia.org/wiki/File:Sitelen_seli_kiwen_-_ijo-wan.svg; taso: https://commons.wikimedia.org/wiki/File:Sitelen_seli_kiwen_-_taso.svg

Categories:
  [[Category:Toki Pona text containing lawa pi ken ala pilin e ijo wan taso]]

Sources:
  lawa: https://commons.wikimedia.org/wiki/File:Sitelen_seli_kiwen_-_lawa.svg
  pi: https://commons.wikimedia.org/wiki/File:Sitelen_seli_kiwen_-_pi.svg
  ken: https://commons.wikimedia.org/wiki/File:Sitelen_seli_kiwen_-_ken.svg
  ala: https://commons.wikimedia.org/wiki/File:Sitelen_seli_kiwen_-_ala.svg
  pilin: https://commons.wikimedia.org/wiki/File:Sitelen_seli_kiwen_-_pilin.svg
  e: https://commons.wikimedia.org/wiki/File:Sitelen_seli_kiwen_-_e.svg
  ijo-wan: https://commons.wikimedia.org/wiki/File:Sitelen_seli_kiwen_-_ijo-wan.svg
  taso: https://commons.wikimedia.org/wiki/File:Sitelen_seli_kiwen_-_taso.svg
-->
<svg version="1.1" width="7460" height="1000"
     viewBox="0 0 7460 1000"
     xmlns="http://www.w3.org/2000/svg">
  <path d="M352 711Q358 711 368.0 710.5Q378 710 396.0 709.0Q414 708 429 707Q496 703 504 683Q510 672 516 672Q518 672 530.0 662.5Q542 653 562.5 627.5Q583 602 598 569Q601 563 603.0 561.0Q605 559 613.5 557.5Q622 556 641 556Q667 556 701.5 560.5Q736 565 743 565Q751 565 761.5 563.0Q772 561 785.0 551.0Q798 541 798 524L795 495Q795 490 778 494Q774 495 760.0 495.0Q746 495 726.5 492.5Q707 490 697 490Q695 490 692 490L689 491Q687 492 677.0 491.5Q667 491 658 489Q643 486 639.0 483.0Q635 480 637 473Q639 467 645.0 432.0Q651 397 653.0 391.0Q655 385 655.0 382.0Q655 379 653.5 371.0Q652 363 650.5 346.5Q649 330 648 308Q647 282 635.5 252.5Q624 223 613.5 206.5Q603 190 602 190Q597 188 572.0 163.0Q547 138 547 135Q547 130 528.5 112.5Q510 95 504.0 95.0Q498 95 482.0 83.5Q466 72 462 72Q459 72 454.0 69.0Q449 66 442.5 62.0Q436 58 418.0 55.0Q400 52 374 52Q335 52 299.5 59.0Q264 66 253 78Q247 86 239 86Q233 86 233 90Q233 93 221.0 99.5Q209 106 209 111Q209 114 207.5 115.5Q206 117 203.0 119.0Q200 121 193.5 129.0Q187 137 179 149Q163 174 158 177Q149 182 130.5 230.0Q112 278 110 299Q109 310 106 318Q102 326 102 442Q102 484 108.0 511.5Q114 539 120.5 547.0Q127 555 133.0 561.0Q139 567 139 572Q139 579 154.0 599.5Q169 620 174 620Q176 620 202.0 648.5Q228 677 244 677Q248 677 257.0 685.5Q266 694 289.0 694.0Q312 694 322.0 702.5Q332 711 352 711ZM218 537Q235 537 254.0 534.0Q273 531 274.0 531.0Q275 531 297.5 538.0Q320 545 365 545Q374 545 389.5 544.0Q405 543 421.5 542.0Q438 541 453.5 540.0Q469 539 479 538L489 537Q500 537 516 541L537 546L530 560Q525 570 512.5 578.5Q500 587 500 592Q500 601 485.5 615.5Q471 630 440.5 642.5Q410 655 375 655Q363 655 352.5 648.0Q342 641 323 641H316Q296 641 286.5 633.0Q277 625 270 625Q254 625 211.0 585.5Q168 546 168 535Q168 532 172 532Q174 532 178.5 533.0Q183 534 193.0 535.5Q203 537 218 537ZM162 338Q162 312 171.5 296.5Q181 281 183 271Q185 260 206.0 228.0Q227 196 237 188Q240 185 261.5 158.0Q283 131 303 123Q312 119 347 119Q371 119 385.0 121.0Q399 123 403.5 125.0Q408 127 410 127Q413 127 415 126H417Q428 126 471.0 158.0Q514 190 519 201Q523 209 544.0 225.5Q565 242 565 252Q565 260 572.5 267.0Q580 274 582 280Q588 295 588 368Q588 389 586.5 395.5Q585 402 582.0 408.5Q579 415 577 430Q573 455 568.5 465.0Q564 475 557.0 476.5Q550 478 539 475Q531 473 523 473Q521 473 508.5 474.5Q496 476 462.0 477.0Q428 478 375 478Q304 478 302 475Q301 471 281.5 470.5Q262 470 235.0 469.5Q208 469 194 465Q178 461 167 461Q162 461 159.5 460.0Q157 459 154.0 451.0Q151 443 151.0 428.0Q151 413 156.5 385.5Q162 358 162 338Z" transform="translate(0.00,958.33) scale(0.9583,-0.9583)" fill="#000000" />
  <path d="M178 600Q178 613 172.0 629.5Q166 646 166 651Q166 660 178 675Q187 686 191.5 688.0Q196 690 206 688Q221 685 228.5 675.5Q236 666 237.0 657.5Q238 649 238 634V602Q238 561 244.0 524.5Q250 488 250 466Q250 451 248.0 418.5Q246 386 246 369Q246 369 246.0 367.0Q246 365 246.5 361.5Q247 358 247.5 353.0Q248 348 248.0 339.5Q248 331 248.5 321.0Q249 311 249.5 296.5Q250 282 250 266Q250 179 252 177Q260 168 392 168Q392 168 438.0 168.0Q484 168 532.0 168.5Q580 169 584 169Q698 169 704 167Q710 164 716 164Q722 163 728.0 144.5Q734 126 734 111Q734 109 733.0 103.5Q732 98 727.5 90.5Q723 83 716 83Q714 83 683.5 92.5Q653 102 624 102Q612 102 594.0 100.0Q576 98 562 98Q562 98 558.5 98.5Q555 99 548.0 99.5Q541 100 532.0 100.5Q523 101 510.5 101.5Q498 102 486 102Q485 102 480.5 102.0Q476 102 469.0 101.5Q462 101 454.5 100.5Q447 100 439.5 100.0Q432 100 428 100Q344 100 230 92L190 90L184 104Q180 114 180 131Q180 157 185.0 176.5Q190 196 190 218Q190 218 190.0 225.0Q190 232 190.0 242.5Q190 253 189.5 264.5Q189 276 188.5 287.0Q188 298 188 304Q188 326 190.0 374.0Q192 422 192 441Q192 517 178 540Q176 543 177.0 544.0Q178 545 180.0 545.5Q182 546 182.5 549.5Q183 553 180 562Q176 571 176 578Q176 581 177.0 588.5Q178 596 178 600Z" transform="translate(942.50,958.33) scale(0.9583,-0.9583)" fill="#000000" />
  <path d="M650 200Q650 216 638.5 234.0Q627 252 615.5 264.0Q604 276 604 278Q604 282 584.0 296.5Q564 311 558 311Q554 311 541.5 322.0Q529 333 504.0 344.0Q479 355 444 355Q427 355 389.0 351.5Q351 348 316 346Q250 343 250 327Q250 326 253.0 309.0Q256 292 256 280Q256 279 251.0 240.5Q246 202 246 154Q246 137 248.5 128.5Q251 120 253.5 119.5Q256 119 258.0 115.5Q260 112 260 103Q260 102 260.0 98.0Q260 94 258.0 87.0Q256 80 252.5 74.0Q249 68 242.0 63.5Q235 59 226 59Q216 59 202 65L184 73L186 151Q190 254 190 286Q190 299 187.0 312.5Q184 326 184 367Q184 373 184.0 381.5Q184 390 184.0 397.5Q184 405 184.0 412.0Q184 419 184.0 423.0Q184 427 184 427Q184 450 182 459Q176 475 173.5 560.5Q171 646 164 656Q160 661 160 670Q160 688 178 701Q188 708 191.5 707.5Q195 707 212 698Q238 684 238 664Q238 658 235.0 651.5Q232 645 232 644L233 642Q233 639 233.5 634.0Q234 629 235.0 621.5Q236 614 236.0 601.0Q236 588 236 572Q236 556 234.0 550.5Q232 545 232 526Q232 497 236.0 461.5Q240 426 244 421Q247 417 252 417Q254 417 276.5 420.0Q299 423 326 424Q354 425 368.0 428.0Q382 431 398.5 431.0Q415 431 430.0 433.5Q445 436 455.5 439.0Q466 442 475.5 445.5Q485 449 491.0 452.5Q497 456 501.5 459.0Q506 462 508.0 464.0Q510 466 510 466Q521 466 554.5 496.5Q588 527 588 536Q588 541 592 541Q597 541 600.5 546.5Q604 552 608.0 560.5Q612 569 616 573Q630 593 630 623Q630 642 626 675L624 699L642 706Q659 713 662 713Q668 713 682 702L696 691V629Q694 568 690 565Q687 562 686 557Q682 538 662.0 511.0Q642 484 632 484Q629 484 623.5 472.5Q618 461 614 461Q610 461 610 455Q610 450 589.0 437.0Q568 424 568 422Q568 419 562 419Q560 419 558.5 418.0Q557 417 554.0 415.0Q551 413 549.5 410.0Q548 407 550.0 402.0Q552 397 558 392Q571 381 578 381Q582 381 618.0 348.5Q654 316 656 316Q659 316 681.5 288.5Q704 261 704 257Q704 252 710 246Q715 240 720.5 210.0Q726 180 726 158Q726 142 733.0 126.0Q740 110 740 107Q740 100 728.0 86.0Q716 72 702 72Q687 72 671.5 79.0Q656 86 656 94Q656 99 653.0 104.5Q650 110 648.5 112.0Q647 114 650 118Q654 120 654 154Q654 165 653.0 173.0Q652 181 651.0 183.5Q650 186 649.0 187.5Q648 189 648.0 190.0Q648 191 649.0 194.0Q650 197 650 200Z" transform="translate(1885.00,958.33) scale(0.9583,-0.9583)" fill="#000000" />
  <path d="M211 109Q170 109 170 144Q170 152 181.0 166.5Q192 181 202.0 191.5Q212 202 214 203Q224 207 255.5 238.5Q287 270 290 280Q292 288 300 288Q306 288 336.5 318.5Q367 349 367 355Q367 359 388.0 381.0Q409 403 409.0 407.0Q409 411 392.5 430.0Q376 449 376.0 451.0Q376 453 363.5 468.0Q351 483 336.5 501.0Q322 519 319 525Q314 536 310 536Q307 536 291.0 559.5Q275 583 272 583Q266 583 246.5 607.0Q227 631 227 638Q227 667 250 667Q268 667 291.0 650.0Q314 633 325 611Q331 599 346.0 583.5Q361 568 365 559Q373 543 395.5 518.0Q418 493 423 483Q442 450 456 450Q468 450 490 479Q501 493 553.5 550.5Q606 608 611 615Q617 621 672 661Q682 668 693 668Q708 668 719.0 655.5Q730 643 730.0 627.0Q730 611 720 611Q715 611 702.0 599.5Q689 588 686 588Q685 588 673.0 579.0Q661 570 642.5 551.5Q624 533 612 515Q602 500 575.0 473.0Q548 446 528.0 423.0Q508 400 508 388Q508 378 522.0 362.5Q536 347 536.0 345.0Q536 343 554.5 317.5Q573 292 573 291Q573 289 581.0 280.5Q589 272 600.0 259.0Q611 246 617 235Q625 219 665.0 183.5Q705 148 709 141Q718 127 711 114Q701 93 681 93Q662 93 650.0 105.0Q638 117 631.0 130.5Q624 144 619 146Q616 148 616 152Q616 155 606.0 166.5Q596 178 579.5 197.5Q563 217 552 234Q542 249 520.5 276.0Q499 303 481.5 323.5Q464 344 462.0 344.0Q460 344 445.0 329.5Q430 315 424 313Q419 311 397.0 286.5Q375 262 365.0 255.0Q355 248 334.5 224.5Q314 201 303 194Q291 187 280.5 168.5Q270 150 264 148Q260 147 247.0 128.0Q234 109 211 109Z" transform="translate(2827.50,958.33) scale(0.9583,-0.9583)" fill="#000000" />
  <path d="M656 705Q694 705 721.5 699.0Q749 693 760.5 687.0Q772 681 772 681Q779 681 793.5 666.5Q808 652 808 646Q808 642 817.0 634.0Q826 626 826.0 621.5Q826 617 832.0 609.5Q838 602 843.0 587.0Q848 572 848 550Q848 526 842.0 506.0Q836 486 829.0 474.5Q822 463 822 458Q822 450 797.0 414.0Q772 378 756 364Q738 347 738 341Q738 334 732 334Q726 334 719.0 322.5Q712 311 710 311Q708 311 630.5 251.0Q553 191 548 185Q543 177 524.5 159.5Q506 142 502 142Q496 142 476.0 118.5Q456 95 456 87Q456 80 453.0 78.5Q450 77 436 77Q420 77 408.0 85.0Q396 93 396 103Q396 110 379.5 127.0Q363 144 350 150Q333 159 300.0 193.5Q267 228 254 232Q245 236 237.0 245.5Q229 255 224.5 255.0Q220 255 207.0 270.0Q194 285 182 290Q174 294 166.0 303.0Q158 312 143.0 329.0Q128 346 112 361Q102 372 90.5 386.5Q79 401 65.5 435.5Q52 470 52 507Q52 526 61.5 559.0Q71 592 82 606Q112 642 137.0 660.5Q162 679 176.5 685.0Q191 691 196 698Q204 709 230 709Q254 709 280.0 702.0Q306 695 312 686Q312 685 332.0 673.5Q352 662 377.5 639.0Q403 616 418 586L428 568L472 611Q502 641 535.5 663.0Q569 685 584 687Q592 687 592 691Q592 692 596.5 695.0Q601 698 616.5 701.5Q632 705 656 705ZM248 644Q231 644 216.0 634.5Q201 625 198 625Q193 625 178.5 610.5Q164 596 126 553Q112 536 112 511Q112 488 123.0 461.5Q134 435 146.0 416.5Q158 398 158 398Q160 392 165.5 387.5Q171 383 188.0 368.5Q205 354 224 334Q256 302 265.5 293.0Q275 284 302 264Q336 238 340 234Q346 227 352.0 227.0Q358 227 358 222Q358 219 365.5 213.5Q373 208 385.5 198.5Q398 189 406 182Q420 170 430 170Q446 170 509.5 229.0Q573 288 576 288Q584 288 584 291Q584 295 616.5 321.5Q649 348 652 348Q660 348 706.0 397.0Q752 446 752 454Q752 458 766.0 475.0Q780 492 780 498Q780 504 783.0 509.0Q786 514 786 525Q786 553 778.0 577.0Q770 601 760 604Q756 606 750.5 615.5Q745 625 728 630Q687 641 678 641Q674 641 666.5 640.5Q659 640 656 640Q650 640 648.0 642.0Q646 644 644 644Q637 644 612.5 634.5Q588 625 582 625Q575 625 562.5 615.0Q550 605 550 599Q550 591 544 589Q534 586 493.0 546.0Q452 506 452 489Q452 488 453.0 487.0Q454 486 454 484Q454 475 448.5 463.0Q443 451 430 451Q389 451 376 507Q373 522 368.5 534.0Q364 546 361.0 552.5Q358 559 358 562Q358 566 349.0 575.5Q340 585 338 594Q335 603 310.0 621.0Q285 639 274 639Q268 639 259.5 641.5Q251 644 248 644Z" transform="translate(3770.00,958.33) scale(0.9583,-0.9583)" fill="#000000" />
  <path d="M156 75Q144 75 126.0 90.0Q108 105 108 115Q108 118 109.0 127.5Q110 137 114.5 149.5Q119 162 124 164Q131 166 151.5 186.0Q172 206 180 210Q192 216 207.0 231.5Q222 247 222 252Q222 260 253.5 283.0Q285 306 292 316Q298 327 314.5 339.0Q331 351 334 356Q336 363 359.5 386.0Q383 409 388 409Q392 409 392 418Q392 423 370.5 439.5Q349 456 342 456Q340 456 297.0 498.0Q254 540 246 543Q238 546 212.5 570.0Q187 594 170 602Q169 602 157.5 609.5Q146 617 133.0 629.5Q120 642 120 652Q120 667 124.0 671.0Q128 675 142 679Q166 685 168 685Q170 685 186.5 669.0Q203 653 208 653Q211 653 224.0 641.0Q237 629 257.0 610.5Q277 592 292 580Q303 573 310.5 566.5Q318 560 322.0 556.0Q326 552 328.5 549.5Q331 547 332.5 546.0Q334 545 336 545Q340 545 378.5 510.0Q417 475 426 472Q434 470 434 466Q434 463 452.5 453.5Q471 444 474 433Q475 427 475.5 422.5Q476 418 477.0 416.0Q478 414 478.0 412.5Q478 411 478.0 410.5Q478 410 478 410Q478 402 467.5 384.5Q457 367 452 367Q448 367 448 361Q448 357 431.0 344.5Q414 332 414 329Q414 324 410 327Q410 327 409.5 327.5Q409 328 408 328Q405 328 298 231Q229 168 204.5 142.0Q180 116 180 98Q180 90 172.0 82.5Q164 75 156 75ZM356 681Q356 693 366.0 704.0Q376 715 392 715Q412 715 449.0 686.0Q486 657 518.0 625.5Q550 594 554 592Q564 588 590.0 566.5Q616 545 637.5 526.5Q659 508 662 508Q664 508 672.5 495.5Q681 483 692 480Q700 477 715.0 465.5Q730 454 752 443Q792 423 792 399Q792 396 791.5 389.5Q791 383 790.5 380.0Q790 377 790 375Q793 373 789.5 367.5Q786 362 779.0 357.0Q772 352 766 351Q752 348 752 344Q752 342 739.0 335.5Q726 329 711.5 320.5Q697 312 694 306Q689 298 674.0 288.0Q659 278 656 275Q647 265 619.5 247.5Q592 230 562.5 207.0Q533 184 514 157Q508 147 502 147Q494 147 494.0 140.0Q494 133 490 133Q486 133 486 126Q486 122 482.0 119.0Q478 116 469.5 108.5Q461 101 454 89Q441 69 428 69Q417 69 400.5 87.5Q384 106 384 116Q384 130 398.5 143.5Q413 157 431.5 168.5Q450 180 454 186Q461 197 500.5 237.5Q540 278 544 278Q546 278 562.5 290.0Q579 302 582 302Q585 302 592.0 313.5Q599 325 604 325Q612 325 612 330Q612 334 618 334Q623 334 658 367L692 400L674 418Q660 431 639.5 443.0Q619 455 614 462Q610 468 600.0 475.0Q590 482 582.0 487.5Q574 493 574 497Q574 502 559.5 513.5Q545 525 518.0 544.0Q491 563 474 576Q443 602 408 627Q406 628 402 631Q383 645 375.5 651.5Q368 658 362.0 666.0Q356 674 356 681Z" transform="translate(4712.50,958.33) scale(0.9583,-0.9583)" fill="#000000" />
  <path d="M348 442Q339 442 331.5 446.0Q324 450 324.0 453.0Q324 456 322.5 463.0Q321 470 321 471Q321 481 375.0 514.0Q429 547 431.0 554.0Q433 561 444.5 566.5Q456 572 464 572Q474 572 484 563Q490 558 492.5 551.5Q495 545 497.0 514.0Q499 483 499 422Q499 244 488 233Q482 227 441 227Q429 227 420 242L409 259L420 279Q434 304 434 334Q434 344 431 347Q429 349 436.0 358.0Q443 367 438 374Q434 378 434 381Q434 383 435.5 386.5Q437 390 438.5 398.0Q440 406 440 418Q440 456 433 475Q431 480 424 480Q415 480 402.0 473.0Q389 466 386 462Q371 442 348 442ZM151 279Q151 286 139.5 304.0Q128 322 128.0 349.0Q128 376 121 380Q117 383 110.5 393.5Q104 404 104 411Q104 412 111.5 435.5Q119 459 129.0 486.0Q139 513 143 521Q152 534 159 551Q165 564 170.0 564.0Q175 564 181 577Q186 589 221.5 622.5Q257 656 268 660Q276 662 304.5 679.0Q333 696 369.5 709.5Q406 723 446 723Q447 723 452 722Q484 719 562 712Q570 711 596.5 695.5Q623 680 633 676Q648 670 648 667Q648 663 672 648Q689 637 713.0 611.0Q737 585 737 578L752 557Q766 536 781.0 496.5Q796 457 796 413Q796 382 791.0 359.5Q786 337 781.5 325.5Q777 314 777 311Q777 301 775.5 296.0Q774 291 772.5 290.0Q771 289 769.0 289.0Q767 289 766.0 286.5Q765 284 765 278Q765 272 760.5 266.5Q756 261 756 255Q756 248 735.0 222.0Q714 196 714 191Q714 189 705.0 179.0Q696 169 673.5 153.0Q651 137 624 128Q600 120 575.0 104.5Q550 89 523 86Q507 84 493 84Q407 84 367 95Q342 102 324 104Q323 104 310.5 113.5Q298 123 292 123Q283 123 266.5 130.5Q250 138 245 144Q239 152 219 163Q203 173 186.0 202.0Q169 231 160.0 254.0Q151 277 151 279ZM740 431Q740 448 731.5 464.0Q723 480 723 485Q723 492 699 527Q657 588 656 588Q651 588 627.0 605.0Q603 622 600 627Q596 634 590 634Q586 634 578.0 641.0Q570 648 565 646Q564 645 562 645Q556 645 528.0 654.0Q500 663 487 663Q485 663 484.0 663.0Q483 663 482 662Q481 662 480.0 661.5Q479 661 477.5 660.5Q476 660 472.5 659.5Q469 659 464.0 658.5Q459 658 450.5 657.5Q442 657 432 656Q352 650 332 630Q327 625 317 625Q300 625 241 564Q190 512 190 480Q190 478 190.5 474.0Q191 470 191 468Q191 457 182 448Q175 441 175 427Q175 423 176.5 401.0Q178 379 181.5 350.5Q185 322 189 317Q207 295 207 273Q207 266 233.0 238.5Q259 211 259 208Q259 203 266.0 203.0Q273 203 279 197Q286 190 338.5 174.0Q391 158 409 157Q411 157 441.5 155.0Q472 153 483 153Q546 153 606.5 189.0Q667 225 691 268Q712 305 716 311Q722 319 731.0 357.5Q740 396 740 431Z" transform="translate(5655.00,958.33) scale(0.9583,-0.9583)" fill="#000000" />
  <path d="M580 506Q580 510 583.0 514.0Q586 518 586 522Q586 524 584.0 535.0Q582 546 582 559Q582 567 584.0 587.0Q586 607 586 624Q586 646 583.0 671.5Q580 697 580 701Q580 712 592.0 724.0Q604 736 613 736Q615 736 621.5 733.0Q628 730 632 729Q651 723 651 659Q651 625 646.5 583.5Q642 542 642 515Q642 474 650.0 380.0Q658 286 658 283Q658 269 654.0 252.0Q650 235 650.0 229.0Q650 223 652.5 216.5Q655 210 655 207Q655 206 653.5 198.0Q652 190 652 179Q652 171 653.0 158.0Q654 145 654 136Q654 87 625 87Q608 87 593.0 99.5Q578 112 578 127Q578 137 585.0 185.0Q592 233 592 250Q592 258 590.5 265.0Q589 272 587.5 275.0Q586 278 586.0 280.5Q586 283 589 285Q592 286 592 295Q592 301 590.0 316.0Q588 331 588 335Q588 338 589.5 342.0Q591 346 591 349Q593 358 591.0 360.0Q589 362 579 362Q567 362 490.5 364.5Q414 367 394 367Q375 366 372 366Q251 366 251 393Q251 400 246 400Q242 400 242.0 407.0Q242 414 246 414Q247 414 254.5 432.0Q262 450 277 450Q278 450 288.0 448.0Q298 446 318.5 443.5Q339 441 366 441H370Q396 441 406.0 436.5Q416 432 430 432Q436 432 454.5 433.0Q473 434 490 434H548Q577 434 582.0 437.0Q587 440 587.0 456.0Q587 472 583.5 488.0Q580 504 580 506Z" transform="translate(6597.50,958.33) scale(0.9583,-0.9583)" fill="#000000" />
</svg>
