<?xml version="1.0" encoding="UTF-8" standalone="no"?>
<!--
Representation of "kiwen lon pimeja mun" in sitelen ilo pona
Generated by generate_sitelen_kalama_pona.py

Description:
  Representation of "kiwen lon pimeja mun" in sitelen ilo pona.
  Sources: kiwen: https://commons.wikimedia.org/wiki/File:Sitelen_seli_kiwen_-_kiwen.svg; lon: https://commons.wikimedia.org/wiki/File:Sitelen_seli_kiwen_-_lon.svg; pimeja: https://commons.wikimedia.org/wiki/File:Sitelen_seli_kiwen_-_pimeja.svg; mun: https://commons.wikimedia.org/wiki/File:Sitelen_seli_kiwen_-_mun.svg

Categories:
  [[Category:Sitelen kalama pona]]
  [[Category:Toki Pona text containing kiwen lon pimeja mun]]

Sources:
  kiwen: https://commons.wikimedia.org/wiki/File:Sitelen_seli_kiwen_-_kiwen.svg
  lon: https://commons.wikimedia.org/wiki/File:Sitelen_seli_kiwen_-_lon.svg
  pimeja: https://commons.wikimedia.org/wiki/File:Sitelen_seli_kiwen_-_pimeja.svg
  mun: https://commons.wikimedia.org/wiki/File:Sitelen_seli_kiwen_-_mun.svg
-->
<svg version="1.1" width="3690" height="1000"
     viewBox="0 0 3690 1000"
     xmlns="http://www.w3.org/2000/svg">
  <path d="M74 487Q74 498 123.0 543.0Q172 588 172 597Q172 603 184.0 623.0Q196 643 198 651Q200 659 207.0 664.0Q214 669 214 674Q214 681 220 681Q225 681 226.5 686.0Q228 691 227.5 697.0Q227 703 231.5 708.0Q236 713 246 713Q247 713 256.5 712.0Q266 711 272.0 711.0Q278 711 278 713Q278 716 312 716H340Q370 716 389.5 718.0Q409 720 416 720Q417 720 430.0 719.0Q443 718 465.0 716.0Q487 714 512.0 712.0Q537 710 565.5 709.0Q594 708 616 708Q622 708 637.5 708.5Q653 709 662 709Q706 709 706 683Q706 675 720.0 656.0Q734 637 734 633Q734 626 738 624Q740 623 748.5 605.5Q757 588 771.5 562.5Q786 537 800 521Q811 509 815.0 503.0Q819 497 822.5 486.0Q826 475 826 461Q826 445 821.5 434.0Q817 423 810 423Q806 423 793.0 405.5Q780 388 780 382Q780 377 776 377Q773 377 738.0 325.0Q703 273 700 273Q700 273 696.5 267.0Q693 261 684.0 248.0Q675 235 662.5 219.0Q650 203 629.5 178.5Q609 154 584 128Q576 119 562.0 91.5Q548 64 545.0 62.0Q542 60 542.0 55.0Q542 50 542.5 47.5Q543 45 540 44Q535 44 528.0 33.5Q521 23 510.5 13.0Q500 3 486 3Q473 3 460.5 5.5Q448 8 448 11Q448 14 434.0 20.0Q420 26 420 37Q420 46 409.5 68.5Q399 91 396 91Q394 91 388.0 100.0Q382 109 370.5 123.0Q359 137 346 146Q328 160 322 170Q320 177 293.0 204.0Q266 231 262 231Q259 231 246.0 247.0Q233 263 221 279L208 295Q208 297 190.0 323.0Q172 349 172 351Q172 355 137.0 390.5Q102 426 98 436Q97 440 90.5 446.5Q84 453 79.0 462.5Q74 472 74 487ZM700 381Q700 387 707.0 395.5Q714 404 714 408Q714 412 726.0 421.0Q738 430 738 438Q738 452 746 465L754 480L740 494Q724 509 724 517Q724 524 715.0 538.0Q706 552 704 558Q701 566 679.5 588.5Q658 611 658 614Q658 619 642 631Q630 641 614.5 643.5Q599 646 502 651Q431 655 374 655Q306 655 302 646Q299 643 296.5 642.0Q294 641 292.5 642.0Q291 643 289.5 642.5Q288 642 288 640Q288 637 283.0 635.5Q278 634 270.5 629.5Q263 625 258 616Q249 602 246 602Q244 602 226.0 577.0Q208 552 208 548Q208 542 204 540Q196 537 183.0 511.5Q170 486 170.0 469.0Q170 452 199.0 415.0Q228 378 232 369Q237 359 241.5 353.0Q246 347 249.0 345.0Q252 343 254.0 341.5Q256 340 256 338Q256 333 281.0 305.5Q306 278 310 278Q316 278 316 272Q316 267 333.0 248.0Q350 229 350 228Q350 227 385.0 192.0Q420 157 420 151Q420 143 428 137Q433 132 442.5 120.5Q452 109 459.0 102.0Q466 95 474 95Q480 95 483.5 97.5Q487 100 492.5 109.0Q498 118 505.5 130.0Q513 142 531.5 165.0Q550 188 576 214Q613 253 614 261Q616 269 622 269Q624 269 630.0 278.5Q636 288 647.0 304.5Q658 321 668 333Q677 343 681.0 350.5Q685 358 684.5 360.5Q684 363 685.0 365.0Q686 367 692 369Q700 373 700 381Z" transform="translate(0.00,958.33) scale(0.9583,-0.9583)" fill="#000000" />
  <path d="M150 252Q150 262 160.5 276.5Q171 291 190 291Q216 291 250.5 285.5Q285 280 296 280Q319 279 382.5 276.0Q446 273 458 273Q470 273 485.5 275.0Q501 277 506 277Q514 277 524.5 272.5Q535 268 538 269Q542 270 614.0 271.0Q686 272 702 278Q713 282 717.5 281.5Q722 281 730 276Q750 263 750 244Q750 213 712 213Q712 213 708.0 213.0Q704 213 695.5 213.5Q687 214 677.0 214.0Q667 214 652.0 214.0Q637 214 622 214Q611 214 601.0 214.0Q591 214 584.5 214.0Q578 214 573.0 213.5Q568 213 566.0 213.0Q564 213 563.5 213.0Q563 213 547.0 213.5Q531 214 505.5 214.5Q480 215 451.5 215.5Q423 216 394.0 216.5Q365 217 346 217Q333 217 322.0 217.0Q311 217 304.0 216.5Q297 216 291.5 216.0Q286 216 283.5 216.0Q281 216 280 216Q273 216 234.5 219.5Q196 223 184 224Q169 225 159.5 233.0Q150 241 150 252ZM388 467Q388 471 393.0 483.0Q398 495 412.5 508.0Q427 521 446 521Q471 521 489.5 491.0Q508 461 508 441Q508 422 487.5 410.0Q467 398 446.0 398.0Q425 398 406.5 422.5Q388 447 388 467Z" transform="translate(942.50,958.33) scale(0.9583,-0.9583)" fill="#000000" />
  <path d="M400 629Q400 631 416.0 652.5Q432 674 457.0 696.0Q482 718 500 718Q510 718 532 708Q546 701 551.5 695.5Q557 690 562 677Q567 666 571.5 642.5Q576 619 590 588L616 524Q619 520 663.5 435.0Q708 350 718 339Q724 331 724 321Q724 314 731.0 306.0Q738 298 738 296Q738 290 747.5 270.0Q757 250 760 248Q766 245 766 237Q766 232 783.0 209.0Q800 186 806 171Q810 157 825.0 135.0Q840 113 840 101Q840 100 839.5 97.5Q839 95 836.5 89.5Q834 84 830.5 80.0Q827 76 818.5 72.5Q810 69 800 69Q780 69 752.5 71.5Q725 74 720 77Q717 80 660.0 84.0Q603 88 558 88Q549 88 498.5 87.0Q448 86 386.5 83.0Q325 80 318 76Q308 71 178 71Q98 71 88 74Q78 77 69.0 92.0Q60 107 60 120Q60 130 81.5 155.0Q103 180 129.5 214.0Q156 248 166 277Q170 291 185.0 308.0Q200 325 202 335Q205 348 208 348Q211 348 237.5 387.5Q264 427 264 431Q264 434 280.0 449.0Q296 464 296.0 468.0Q296 472 312.0 488.0Q328 504 328 507Q328 514 341.0 530.5Q354 547 354 552Q354 556 368.0 571.0Q382 586 382.0 592.0Q382 598 391.0 612.0Q400 626 400 629ZM348 422Q348 406 379.5 361.5Q411 317 420 317Q430 317 446 340Q454 349 477.0 373.0Q500 397 518.5 417.0Q537 437 538 442Q541 449 552.0 455.0Q563 461 574 461Q582 461 582 464Q582 466 572.5 484.0Q563 502 552.0 522.5Q541 543 538 550Q536 558 530.5 564.5Q525 571 524.5 579.0Q524 587 516.0 601.0Q508 615 508 623Q508 627 506.0 632.0Q504 637 502 637Q497 637 481.5 622.0Q466 607 466 602Q466 594 438.0 559.0Q410 524 410 524Q410 523 396.0 503.0Q382 483 382 477Q382 472 365.0 450.0Q348 428 348 422ZM612 403Q598 403 557.5 364.0Q517 325 514 325Q508 325 508 319Q508 313 484 283L460 254L470 244Q476 238 496.0 202.5Q516 167 532 161Q549 154 684 154Q715 154 722.5 155.0Q730 156 730 161Q730 174 703.0 224.0Q676 274 672 285Q667 302 642.0 352.5Q617 403 612 403ZM342 310Q334 319 324.0 330.5Q314 342 308.5 347.5Q303 353 300 353Q290 352 273.0 321.5Q256 291 256 291Q253 290 232.0 258.5Q211 227 208 227Q204 227 204 215Q204 207 193.0 195.5Q182 184 178 163L174 149L226 150Q273 152 286 154Q294 155 306.0 170.0Q318 185 318.0 193.0Q318 201 326.0 203.5Q334 206 336 213Q338 218 354.0 233.5Q370 249 370 262Q370 284 342 310ZM438 180Q436 181 434.0 186.0Q432 191 429.0 194.5Q426 198 422 198Q417 197 396.5 178.0Q376 159 376.0 155.0Q376 151 422 151H434L456 152L448 164Q442 176 438 180Z" transform="translate(1885.00,958.33) scale(0.9583,-0.9583)" fill="#000000" />
  <path d="M366 427Q366 428 367.0 429.0Q368 430 368 432Q368 448 308 512Q291 530 254.0 537.5Q217 545 183.0 547.0Q149 549 144 552Q140 555 140 572Q140 586 152.0 601.0Q164 616 176 616Q182 616 203.5 632.0Q225 648 230 648Q238 648 273.0 671.0Q308 694 308 699Q308 705 314 705Q318 705 373.0 711.5Q428 718 432 718Q448 718 491.0 706.5Q534 695 556 685Q587 671 614 660Q635 653 652.5 642.0Q670 631 670 624Q670 618 686 602Q709 578 734.5 511.5Q760 445 760 402Q760 287 728 245Q689 191 678.5 177.0Q668 163 660 159Q657 157 638.5 141.0Q620 125 600.5 112.5Q581 100 566 100Q561 100 551.5 93.0Q542 86 532 86Q522 86 502 78Q484 70 404 70H324L278 90Q233 110 204.5 134.0Q176 158 176 176Q176 204 187.0 215.5Q198 227 222 227Q232 227 239.0 233.0Q246 239 256 239Q256 239 259.5 238.5Q263 238 264.5 238.0Q266 238 269.0 237.5Q272 237 274 237Q284 237 300 252Q314 264 340 284Q380 313 380 370Q380 382 373.0 403.5Q366 425 366 427ZM284 167Q284 166 286.0 163.0Q288 160 296.0 155.0Q304 150 317.5 146.0Q331 142 357.5 138.5Q384 135 418 135Q448 135 459.0 139.5Q470 144 486 145Q513 146 535.0 155.0Q557 164 567.5 172.0Q578 180 578 180Q584 180 608.5 203.0Q633 226 652 248Q672 273 679.5 286.0Q687 299 692.5 327.5Q698 356 698 408Q698 419 697.0 423.5Q696 428 694.5 429.5Q693 431 690.5 441.0Q688 451 686 470Q685 472 684.5 475.5Q684 479 684.0 480.0Q684 481 683.5 484.0Q683 487 682.5 487.5Q682 488 681.5 490.0Q681 492 680.5 492.5Q680 493 679.5 494.5Q679 496 677.5 497.5Q676 499 674.5 500.5Q673 502 672 504Q665 512 656.5 530.0Q648 548 630 569Q607 596 575.5 611.5Q544 627 480 642Q438 652 414 652Q383 652 351.5 642.5Q320 633 302.0 622.5Q284 612 284 606Q284 603 323.5 585.0Q363 567 366 554Q369 547 379.5 534.0Q390 521 390 518Q390 512 398 506Q410 499 422.0 473.5Q434 448 434 431Q434 416 438.0 395.5Q442 375 442 373L440 370Q440 369 436 303Q434 288 401.0 253.5Q368 219 368 218Q368 214 355.5 204.0Q343 194 338 194Q332 194 332 190Q332 186 317.5 178.0Q303 170 294 170Q284 170 284 167Z" transform="translate(2827.50,958.33) scale(0.9583,-0.9583)" fill="#000000" />
</svg>
