<?xml version="1.0" encoding="UTF-8" standalone="no"?>
<!--
Representation of "kipisi:ma ante la namako" in sitelen ilo pona
Generated by generate_sitelen_kalama_pona.py

Description:
  Representation of "kipisi:ma ante la namako" in sitelen ilo pona.
  Sources: ante: https://commons.wikimedia.org/wiki/File:Sitelen_seli_kiwen_-_ante.svg; la: https://commons.wikimedia.org/wiki/File:Sitelen_seli_kiwen_-_la.svg; namako: https://commons.wikimedia.org/wiki/File:Sitelen_seli_kiwen_-_namako.svg

Categories:
  [[Category:Sitelen kalama pona]]
  [[Category:Toki Pona text containing kipisi:ma ante la namako]]

Sources:
  ante: https://commons.wikimedia.org/wiki/File:Sitelen_seli_kiwen_-_ante.svg
  la: https://commons.wikimedia.org/wiki/File:Sitelen_seli_kiwen_-_la.svg
  namako: https://commons.wikimedia.org/wiki/File:Sitelen_seli_kiwen_-_namako.svg
-->
<svg version="1.1" width="2747" height="1000"
     viewBox="0 0 2747 1000"
     xmlns="http://www.w3.org/2000/svg">
  <path d="M840 87Q840 73 833.5 66.0Q827 59 819.0 59.0Q811 59 804 59Q781 61 766.5 75.5Q752 90 742 95Q728 102 728 107Q728 114 710.5 123.0Q693 132 667.5 143.0Q642 154 630 162Q629 163 606.0 177.0Q583 191 550.0 207.5Q517 224 500 229Q480 234 459.0 244.5Q438 255 432 255Q412 255 361.0 224.5Q310 194 298 194Q290 194 238.5 163.5Q187 133 178 133Q175 133 160.0 119.0Q145 105 140 105Q134 105 134 100Q134 96 112.5 88.5Q91 81 80 81Q70 81 58.0 92.5Q46 104 46 112Q46 129 83.0 149.5Q120 170 128 170Q131 170 133.0 172.5Q135 175 146.0 182.0Q157 189 178 197Q202 206 221.0 219.0Q240 232 272 243Q315 258 318 263Q326 275 366.0 290.5Q406 306 412 313Q430 329 446 329Q455 329 459.5 327.0Q464 325 470.5 320.5Q477 316 503.0 301.0Q529 286 568 266Q661 219 682 205Q693 198 706.0 194.0Q719 190 732 179Q749 166 756 166Q761 166 776.0 154.0Q791 142 798 142Q812 142 826.0 124.0Q840 106 840 87ZM226 611Q221 611 172.0 636.5Q123 662 116 662Q105 662 92.5 675.5Q80 689 80 699Q80 711 102 717Q124 723 126 723Q139 723 186.5 698.5Q234 674 234 667Q234 662 238 662Q243 662 267.5 650.5Q292 639 296 639Q297 639 309.5 630.0Q322 621 342.0 607.0Q362 593 380 584Q389 579 419.5 550.5Q450 522 462 522Q474 522 478.5 531.5Q483 541 489.5 541.0Q496 541 507.0 547.5Q518 554 522 554Q526 554 559.5 574.0Q593 594 606 598Q619 601 643.5 615.5Q668 630 676 630Q707 630 763.5 668.5Q820 707 834 707Q842 707 847.0 697.5Q852 688 854 679V670Q854 661 844.0 647.5Q834 634 824 634Q814 634 814 631Q814 627 791.0 615.0Q768 603 756 600Q745 598 728.5 585.5Q712 573 702 573Q693 573 681.0 567.5Q669 562 652.5 553.0Q636 544 626 540Q616 535 609.5 530.5Q603 526 601.0 523.0Q599 520 597.0 518.5Q595 517 592 517Q584 517 584 510Q584 506 572.5 499.5Q561 493 543.5 484.0Q526 475 518 469Q491 449 476 449Q459 449 444.5 457.5Q430 466 416.5 477.5Q403 489 396 492Q381 498 351.0 526.5Q321 555 288 571Q271 579 257.0 589.5Q243 600 236.0 605.5Q229 611 226 611Z" transform="translate(0.00,958.33) scale(0.9583,-0.9583)" fill="#000000" />
  <path d="M360 766Q370 766 398.0 751.0Q426 736 427 729Q428 728 430 728Q434 728 438.5 724.0Q443 720 446.5 715.0Q450 710 454 705L457 700Q473 697 504 651Q517 630 525 625Q535 617 535 606Q535 601 551 581Q568 559 568 543Q568 534 573.5 525.0Q579 516 580 506Q590 399 590 374Q590 356 589.0 344.0Q588 332 587.0 327.0Q586 322 583.5 312.5Q581 303 580 296Q579 290 560.0 245.0Q541 200 540 194Q538 183 522 165Q509 150 494.5 130.0Q480 110 479 106Q478 95 452.5 73.5Q427 52 409 44Q401 40 392.0 33.0Q383 26 373.5 23.0Q364 20 347 20Q326 20 318.0 27.5Q310 35 310 56Q310 92 346 103Q356 106 393.5 130.5Q431 155 444 168Q460 184 460 190Q460 199 469.0 207.0Q478 215 478 217Q478 227 484 233Q487 237 491.5 254.0Q496 271 500 275Q510 285 520 328Q521 330 522.5 383.5Q524 437 527 443Q522 446 522 457Q521 469 516.0 490.5Q511 512 508 516Q502 521 502 530Q502 532 490.0 558.5Q478 585 478 591V592Q469 595 469 604Q469 606 466 606Q458 606 452.0 614.0Q446 622 436 643Q434 648 429 653Q422 654 408 666Q377 695 347 706Q339 709 330.0 717.0Q321 725 321.0 732.0Q321 739 337.0 752.5Q353 766 360 766Z" transform="translate(942.50,958.33) scale(0.9583,-0.9583)" fill="#000000" />
  <path d="M426 303Q426 339 459 339Q474 339 480 331Q485 324 491.0 306.0Q497 288 497 279Q497 279 496.5 277.5Q496 276 495.5 272.0Q495 268 494.5 261.5Q494 255 493.0 242.0Q492 229 491 212Q489 152 485.0 131.5Q481 111 470 111Q467 111 458.0 114.0Q449 117 437.5 126.0Q426 135 426 148Q426 156 430.5 174.5Q435 193 435 206Q435 219 430.5 254.5Q426 290 426 303ZM608 438Q647 438 678.0 444.5Q709 451 716 451Q742 451 750 424Q753 411 752.5 406.5Q752 402 745 398Q736 391 723 391Q719 391 716.0 390.0Q713 389 710.5 388.0Q708 387 706.5 386.0Q705 385 703 383Q700 380 700 385Q700 389 688 389Q670 389 650.5 381.5Q631 374 620 374Q608 373 590.0 370.5Q572 368 569 368Q556 368 543.5 382.0Q531 396 529 405Q527 412 529.5 416.0Q532 420 543 427Q555 434 566.0 436.0Q577 438 608 438ZM326 391Q316 391 307.0 385.5Q298 380 278.5 375.0Q259 370 223 370Q188 370 179.5 372.0Q171 374 160 385Q149 395 148.0 399.0Q147 403 151 414Q161 438 189 438Q201 438 217.0 434.0Q233 430 237 430Q242 430 266.5 442.5Q291 455 315 455Q319 455 324.5 454.0Q330 453 340.0 450.0Q350 447 356.5 438.0Q363 429 363 416Q363 391 326 391ZM407 663Q407 676 410.5 684.5Q414 693 420.5 696.0Q427 699 431.0 699.5Q435 700 441 700Q455 700 461.0 692.0Q467 684 470.0 657.5Q473 631 473 573Q473 558 472.5 549.5Q472 541 469.0 528.5Q466 516 459.0 509.5Q452 503 440 503Q431 503 420.5 510.5Q410 518 410 531Q410 534 412.0 553.5Q414 573 414 593Q414 620 410.5 640.0Q407 660 407 663Z" transform="translate(1885.00,958.33) scale(0.9583,-0.9583)" fill="#000000" />
</svg>
