<?xml version="1.0" encoding="UTF-8" standalone="no"?>
<!--
Representation of "tomo sewi Osepikawa" in sitelen kalama pona
Generated by generate_sitelen_kalama_pona.py

Description:
  Representation of "tomo sewi Osepikawa" in sitelen kalama pona.
  Sources: tomo-sewi: https://commons.wikimedia.org/wiki/File:Tomo_sewi_old.svg; o: https://commons.wikimedia.org/wiki/File:Sitelen_kalama_pona_-_xo.svg; se: https://commons.wikimedia.org/wiki/File:Sitelen_kalama_pona_-_se.svg; pi: https://commons.wikimedia.org/wiki/File:Sitelen_kalama_pona_-_pi.svg; ka: https://commons.wikimedia.org/wiki/File:Sitelen_kalama_pona_-_ka.svg; wa: https://commons.wikimedia.org/wiki/File:Sitelen_kalama_pona_-_wa.svg

Categories:
  [[Category:Sitelen kalama pona]]
  [[Category:Toki Pona text containing tomo sewi]]
  [[Category:Toki Pona text containing sound symbol O]]
  [[Category:Toki Pona text containing sound symbol Se]]
  [[Category:Toki Pona text containing sound symbol Pi]]
  [[Category:Toki Pona text containing sound symbol Ka]]
  [[Category:Toki Pona text containing sound symbol Wa]]

Sources:
  tomo-sewi: https://commons.wikimedia.org/wiki/File:Tomo_sewi_old.svg
  o: https://commons.wikimedia.org/wiki/File:Sitelen_kalama_pona_-_xo.svg
  se: https://commons.wikimedia.org/wiki/File:Sitelen_kalama_pona_-_se.svg
  pi: https://commons.wikimedia.org/wiki/File:Sitelen_kalama_pona_-_pi.svg
  ka: https://commons.wikimedia.org/wiki/File:Sitelen_kalama_pona_-_ka.svg
  wa: https://commons.wikimedia.org/wiki/File:Sitelen_kalama_pona_-_wa.svg
-->
<svg version="1.1" width="7315" height="1000"
     viewBox="0 0 7315 1000"
     xmlns="http://www.w3.org/2000/svg">
  <path d="M126 137Q126 137 126 151Q126 160 128.0 169.0Q130 178 130 182Q130 184 128 192Q124 208 122.5 266.0Q121 324 120.5 375.0Q120 426 117 430Q116 433 116.0 443.5Q116 454 112 461Q111 462 111 465Q111 475 128.0 489.0Q145 503 157 503Q168 503 179.0 512.5Q190 522 195.5 531.0Q201 540 201 541Q201 543 207.5 547.0Q214 551 225.5 560.5Q237 570 246 583Q256 596 275.5 611.5Q295 627 309.0 637.5Q323 648 323 651Q323 655 332.5 662.5Q342 670 342 675Q342 681 349 681Q354 681 363.5 694.0Q373 707 385.5 720.0Q398 733 410 733Q419 733 432.5 742.5Q446 752 454 752Q466 752 483.0 737.5Q500 723 513.5 708.5Q527 694 530 694Q533 694 533.5 693.5Q534 693 534 691Q534 688 567.0 666.5Q600 645 600 641Q600 638 614.0 630.5Q628 623 650.0 609.5Q672 596 687 581Q711 559 733.0 540.5Q755 522 758 522Q762 522 767.5 520.5Q773 519 781.5 511.0Q790 503 788 489Q788 472 787.0 440.0Q786 408 784.0 374.0Q782 340 780.5 309.0Q779 278 777.5 257.5Q776 237 776 236Q776 221 777.5 199.5Q779 178 780.5 159.0Q782 140 784.0 123.0Q786 106 787.0 95.0Q788 84 788 84Q788 75 777 64Q766 54 748.0 51.5Q730 49 647 49Q529 49 475.0 55.5Q421 62 370 62Q237 62 161 46Q147 43 129 58Q119 67 116.0 72.5Q113 78 113 89Q113 114 119.5 120.0Q126 126 126 137ZM291 124Q320 124 351.5 123.0Q383 122 408.5 121.0Q434 120 455.0 118.5Q476 117 488.5 116.0Q501 115 501 115Q506 115 513.5 116.5Q521 118 544.5 119.5Q568 121 609 121Q674 122 698.5 124.5Q723 127 723 134Q723 134 722.5 136.5Q722 139 721.0 144.0Q720 149 718.5 156.0Q717 163 715.5 172.5Q714 182 713.0 193.0Q712 204 711.0 217.5Q710 231 710 245Q710 259 711.5 276.5Q713 294 715.0 310.0Q717 326 719.5 339.5Q722 353 723.0 361.5Q724 370 724 370Q724 374 720.0 399.5Q716 425 715.5 444.0Q715 463 712.0 469.5Q709 476 696 487Q693 490 686.0 496.0Q679 502 674.0 506.5Q669 511 666 514Q650 530 618.0 551.5Q586 573 578 580Q561 597 555 597Q552 597 548.0 600.5Q544 604 535.0 610.5Q526 617 514 623Q501 629 473.5 648.0Q446 667 438 667Q429 667 404.0 643.5Q379 620 376 620Q374 620 362.5 606.0Q351 592 346 592Q340 592 301.0 553.5Q262 515 262 507Q262 503 253 503Q245 503 239 494Q237 489 227.0 477.5Q217 466 209.5 452.5Q202 439 199 424Q196 404 188 402Q184 400 182.0 389.5Q180 379 180 344Q180 267 186.5 249.0Q193 231 193 197Q193 151 200.0 136.0Q207 121 237 121Q241 121 256.5 122.5Q272 124 291 124Z" transform="translate(0.00,958.33) scale(0.9583,-0.9583)" fill="#000000" />
  <path d="m 432.42725,-300.25904 c 0,-4 2.16667,-11.83333 6.5,-23.5 4.33333,-11.66667 6.5,-22.83333 6.5,-33.5 0,-10 2.5,-19.5 7.5,-28.5 5,-9 12.16667,-13.5 21.5,-13.5 4.66667,0 10,1.66667 16,5 14.00002,7.33333 21.00002,19 21.00002,35 0,18 -4.1667,37 -12.5,57 -8.33335,20 -15.66669,34.5 -22.00002,43.5 -6.33333,9 -11.5,15.5 -15.5,19.5 -6,6 -11.66667,9.66667 -17,11 -5.33333,1.33333 -18,2 -38,2 -45.33333,0 -74.33333,-1 -87,-3 -9.33333,-1.33333 -17.66667,-8.83333 -25,-22.5 -7.33333,-13.66667 -11,-26.5 -11,-38.5 0,-16 7.33333,-24 22,-24 6,0 11.83333,2.83333 17.5,8.5 5.66667,5.66667 10.83333,8.5 15.5,8.5 10.66667,0 16,-7.33333 16,-22 v -7 c -1.33333,-7.33333 -1.33333,-12.33333 0,-15 1.33333,-2.66667 4.33333,-5.66667 9,-9 5.33333,-3.33333 10.33333,-5 15,-5 8,0 15,5.33333 21,16 6,10.66667 11.33333,21.33333 16,32 4.66667,10.66667 9,16 13,16 2.66667,0 4,-3 4,-9 z m 95.00002,-126 c 0.6667,-18.66667 2.8333,-31 6.5,-37 3.6667,-6 12.5,-9 26.5,-9 14,0 23.3333,2.33333 28,7 2.6667,2.66667 4,16.33333 4,41 0,32.66667 -2.3334,62 -7,88 l -7,39 c 0,6.66667 3,12 9,16 6,4.66667 8.3333,9.33333 7,14 -2.6667,11.33333 -4.3333,20.33333 -5,27 -1.3333,12.66667 -4.5,21.33333 -9.5,26 -5,4.66667 -13.8333,7 -26.5,7 -10,0 -16.8333,-2 -20.5,-6 -3.6667,-4 -5.5,-11.66667 -5.5,-23 0,-24.66667 -1,-38 -3,-40 -2,-2 -3,-8.66667 -3,-20 0,-8 0.3333,-14.33333 1,-19 0.6667,-7.33333 1,-13.33333 1,-18 0,-6 -0.5,-11 -1.5,-15 -1,-4 -1.5,-6.66667 -1.5,-8 0,-3.33333 0.6666,-8.33333 2,-15 2,-7.33333 3.6667,-25.66667 5,-55 z" transform="translate(0.00,958.33) scale(0.9583,0.9583)" fill="#000000" />
  <path d="M 24.637998,12.488337 H 20.72216 q -1.48166,0 -2.54,-1.058333 -1.05833,-1.058333 -1.05833,-2.54 V 3.598338 q 0,-1.481667 1.05833,-2.54 Q 19.2405,4e-6 20.72216,4e-6 h 3.915838 V 0.846671 H 20.72216 q -1.13241,0 -1.94733,0.814917 -0.80433,0.804333 -0.80433,1.93675 v 5.291666 q 0,1.132417 0.80433,1.93675 0.81492,0.814917 1.94733,0.814917 h 3.915838 z" transform="translate(-428.69,0.00) scale(80.0747,80.0747)" fill="#000000" />
  <path d="M 75.014662,0.846671 V 4e-6 h 13.123333 v 0.846667 z m 0,11.641666 v -0.846666 h 13.123333 v 0.846666 z" transform="translate(-4462.58,0.00) scale(80.0747,80.0747)" fill="#000000" />
  <path d="M 75.014662,0.846671 V 4e-6 h 13.123333 v 0.846667 z m 0,11.641666 v -0.846666 h 13.123333 v 0.846666 z" transform="translate(-3411.74,0.00) scale(80.0747,80.0747)" fill="#000000" />
  <path d="M 75.014662,0.846671 V 4e-6 h 13.123333 v 0.846667 z m 0,11.641666 v -0.846666 h 13.123333 v 0.846666 z" transform="translate(-2360.89,0.00) scale(80.0747,80.0747)" fill="#000000" />
  <path d="M 75.014662,0.846671 V 4e-6 h 13.123333 v 0.846667 z m 0,11.641666 v -0.846666 h 13.123333 v 0.846666 z" transform="translate(-1310.04,0.00) scale(80.0747,80.0747)" fill="#000000" />
  <path d="M 75.014662,0.846671 V 4e-6 h 13.123333 v 0.846667 z m 0,11.641666 v -0.846666 h 13.123333 v 0.846666 z" transform="translate(-259.19,0.00) scale(80.0747,80.0747)" fill="#000000" />
  <path d="m 87.714667,4e-6 h 2.8575 q 1.481666,0 2.54,1.058334 1.058333,1.058333 1.058333,2.54 v 5.291666 q 0,1.481667 -1.058333,2.54 -1.058334,1.058333 -2.54,1.058333 h -2.8575 v -0.846666 h 2.8575 q 1.132416,0 1.93675,-0.814917 0.814916,-0.804333 0.814916,-1.93675 V 3.598338 q 0,-1.132417 -0.814916,-1.93675 -0.804334,-0.814917 -1.93675,-0.814917 h -2.8575 z" transform="translate(-225.30,0.00) scale(80.0747,80.0747)" fill="#000000" />
  <path d="M 562.37,129.59 C 562.37,168.42 541.80,203.48 504.34,203.48 C 457.22,203.48 422.03,167.43 420.10,131.54 C 418.20,123.70 417.31,115.86 417.31,108.15 C 417.31,75.57 433.17,45.44 455.80,26.84 C 455.84,25.68 455.87,25.02 455.87,25.02 L 458.00,25.09 C 471.42,14.70 487.79,7.71 506.07,7.02 L 506.81,26.78 C 518.12,27.17 525.86,27.43 538.13,39.71 C 543.11,44.69 562.69,67.03 562.69,110.58 C 562.69,114.54 562.50,118.47 562.11,122.33 C 562.28,124.71 562.37,127.13 562.37,129.59  Z M 512.00,122.00 C 512.00,118.86 512.63,117.38 512.63,111.28 C 512.63,98.56 509.72,84.93 504.08,76.70 L 478.03,75.80 C 471.40,85.23 467.42,97.04 467.42,108.69 C 467.42,118.90 470.00,121.32 469.99,128.10 C 469.99,140.27 488.52,152.83 499.42,153.01 C 502.46,153.06 504.00,153.60 505.06,153.60 C 506.61,153.60 512.33,144.59 512.33,128.93 C 512.33,127.53 512.00,122.07 512.00,122.00  Z M 392.18,710.51 C 394.59,710.51 440.05,711.08 440.54,711.08 C 545.86,711.08 656.56,700.02 760.54,677.69 C 713.81,557.34 588.95,474.11 520.96,354.41 C 441.54,473.78 341.82,588.03 269.78,710.52 C 282.93,711.18 296.19,711.41 309.68,711.41 C 336.82,711.41 363.77,710.51 392.18,710.51  Z M 392.24,760.51 C 363.89,760.51 336.11,761.42 309.05,761.42 C 281.74,761.42 254.16,760.50 225.73,756.78 C 213.35,755.16 204.00,744.61 204.00,732.00 C 204.00,727.93 204.99,723.86 206.97,720.18 C 291.31,563.03 421.08,425.84 509.59,279.08 L 537.54,295.93 L 546.08,292.38 C 547.74,296.37 549.48,300.32 551.30,304.23 L 552.42,304.90 C 552.27,305.15 552.12,305.40 551.97,305.65 C 616.04,441.50 772.25,529.99 817.06,689.20 C 817.68,691.42 818.00,693.71 818.00,696.00 C 818.00,707.71 809.92,717.69 798.78,720.32 C 683.01,747.68 558.80,761.07 440.63,761.07 C 440.15,761.07 393.01,760.51 392.24,760.51 Z" transform="translate(1669.62,100.00) scale(0.8000,0.8000)" fill="#000000" />
  <path d="M 263.20,147.66 C 263.20,211.90 311.50,261.37 366.33,278.10 C 366.33,278.10 351.73,325.92 351.67,325.90 C 274.13,302.24 213.22,232.48 213.22,147.57 C 213.22,141.74 213.46,129.20 215.45,123.60 C 238.60,58.47 315.71,43.96 377.90,32.25 C 392.95,29.42 407.02,26.75 418.85,23.77 C 420.82,23.27 422.83,23.02 424.85,23.01 L 752.85,21.01 L 753.15,70.99 L 428.14,72.98 C 393.59,81.37 348.87,86.55 314.49,98.75 C 277.38,111.93 267.59,128.15 263.58,137.72 C 263.33,141.07 263.20,144.38 263.20,147.66  Z M 542.52,135.87 C 542.94,135.87 584.45,134.64 584.74,134.64 C 605.27,134.64 628.28,137.16 652.57,149.83 C 654.87,151.03 666.00,157.59 666.00,172.00 L 666.00,178.00 L 619.64,178.00 L 629.43,194.17 C 614.66,186.46 601.63,184.61 585.72,184.61 C 585.29,184.61 545.13,185.88 542.64,185.88 C 536.98,185.88 531.05,185.71 524.87,185.25 C 467.43,199.78 394.55,260.59 393.93,325.38 C 414.96,379.12 488.04,408.98 537.68,458.62 C 564.56,485.50 586.02,520.64 586.02,567.44 C 586.02,579.35 578.60,613.12 553.16,638.56 C 511.82,679.90 445.48,682.62 385.37,685.08 C 365.18,685.90 346.18,686.73 330.22,688.79 C 329.11,688.93 325.42,689.23 320.82,689.23 C 293.47,689.23 268.84,678.85 249.93,671.60 C 247.93,670.83 245.98,670.08 244.11,669.37 C 244.11,669.37 261.84,622.61 261.89,622.63 C 284.84,631.33 305.59,639.20 321.90,639.20 C 322.51,639.20 336.22,637.06 383.31,635.13 C 465.86,631.75 523.68,626.30 536.03,567.38 C 536.03,567.34 536.03,567.29 536.03,567.24 C 536.03,516.08 500.02,487.99 447.25,449.83 C 406.13,420.09 362.68,388.66 345.36,338.13 C 344.12,334.52 343.93,331.80 343.93,325.97 C 343.93,232.87 438.85,152.93 517.60,135.59 C 519.37,135.20 521.19,135.00 523.00,135.00 C 523.20,135.00 533.14,135.87 542.52,135.87 Z" transform="translate(2720.47,100.00) scale(0.8000,0.8000)" fill="#000000" />
  <path d="M 485.00,189.00 C 469.68,189.00 438.00,176.21 438.00,126.00 C 438.00,117.97 440.75,112.11 452.24,100.63 C 456.31,96.55 469.86,83.00 483.00,83.00 L 493.00,83.00 L 493.00,85.32 C 505.32,87.38 524.11,100.20 524.11,122.52 C 524.11,123.23 524.09,123.95 524.04,124.66 C 524.08,125.75 524.10,126.85 524.10,127.96 C 524.10,165.31 504.14,189.00 485.00,189.00  Z M 606.10,279.81 C 606.10,279.81 655.90,284.16 655.90,284.19 C 637.90,490.19 637.90,490.19 637.90,490.19 C 637.90,490.19 588.10,485.84 588.10,485.81 C 606.10,279.81 606.10,279.81 606.10,279.81  Z M 429.49,786.96 C 319.70,786.96 228.59,722.79 228.59,616.05 C 228.59,604.31 229.71,592.09 232.04,579.47 C 233.26,492.01 243.62,404.21 258.00,319.86 L 258.00,314.00 L 308.00,314.00 L 308.00,322.00 C 308.00,330.48 283.64,447.79 281.99,582.31 C 281.93,587.51 278.43,598.69 278.43,617.13 C 278.43,699.49 355.82,736.84 430.49,736.84 C 461.27,736.84 478.65,731.00 485.00,731.00 L 679.20,731.00 C 730.13,731.41 774.29,739.46 821.76,739.46 C 827.75,739.46 833.74,739.33 839.77,739.04 L 842.23,788.96 C 835.21,789.31 828.30,789.46 821.48,789.46 C 771.89,789.46 726.49,781.38 678.90,781.00 L 487.62,781.00 C 468.37,784.96 448.81,786.96 429.49,786.96  Z M 733.76,308.43 C 557.65,308.43 334.30,328.57 169.67,332.99 L 168.33,283.01 C 245.61,280.94 324.81,276.25 404.79,271.50 C 513.82,265.02 624.29,258.44 733.52,258.44 C 751.48,258.44 769.40,258.62 787.27,259.00 L 857.80,259.00 C 857.80,259.00 940.61,251.12 940.65,251.12 L 945.39,300.88 C 860.20,309.00 860.20,309.00 859.00,309.00 L 787.00,309.00 C 786.47,309.00 764.15,308.43 733.76,308.43 Z" transform="translate(3771.31,100.00) scale(0.8000,0.8000)" fill="#000000" />
  <path d="M 235.77,643.31 C 235.77,651.79 236.00,656.96 236.00,658.00 L 236.00,704.00 L 186.00,704.00 L 186.00,658.38 C 185.85,653.24 185.78,648.11 185.78,643.00 C 185.78,589.09 193.92,537.14 201.71,486.75 C 204.73,467.20 207.71,447.87 210.22,428.73 C 210.91,423.48 212.27,424.09 212.27,414.93 C 212.27,414.74 211.69,397.42 211.69,396.83 C 211.69,389.56 211.69,389.56 215.39,367.94 C 217.73,354.27 220.20,339.84 222.06,327.75 C 223.09,292.37 228.16,260.48 228.16,227.82 C 228.16,223.01 228.00,218.10 228.00,218.00 C 228.00,213.64 229.45,210.87 229.45,189.48 C 229.45,188.94 228.50,136.10 228.50,135.56 C 228.50,104.77 228.50,20.54 303.91,11.20 C 304.93,11.07 305.97,11.00 307.00,11.00 C 417.90,11.00 500.44,96.50 559.09,160.73 L 572.68,174.32 L 537.32,209.68 C 522.91,195.27 522.91,195.27 522.52,194.84 C 464.36,131.12 395.62,62.39 308.58,61.01 C 288.87,64.03 278.57,79.66 278.57,136.86 C 278.57,156.11 279.53,174.47 279.53,190.46 C 279.53,200.32 279.18,209.97 278.04,219.26 C 278.12,222.22 278.15,225.16 278.15,228.08 C 278.15,264.05 272.86,296.47 271.99,330.64 C 271.82,337.02 261.71,389.45 261.71,396.59 C 261.71,402.78 262.37,409.14 262.37,415.72 C 262.37,422.05 261.80,429.41 259.51,437.37 C 256.96,456.56 254.02,475.57 251.11,494.44 C 243.30,544.98 235.77,594.40 235.77,643.31  Z M 543.81,527.98 L 582.22,559.99 L 484.07,677.76 L 477.36,691.19 L 432.63,668.82 C 436.42,661.91 439.21,654.17 443.78,648.01 C 443.78,648.01 543.78,528.01 543.81,527.98  Z M 733.00,639.00 C 733.15,639.00 740.71,639.31 747.60,639.31 C 757.58,639.31 797.07,639.31 818.26,623.81 C 818.26,623.81 847.78,664.17 847.74,664.19 C 833.58,674.56 805.84,689.32 748.28,689.32 C 742.85,689.32 737.68,689.20 732.83,689.01 C 731.20,689.05 729.57,689.07 727.95,689.07 C 665.32,689.07 582.68,659.26 527.28,529.52 C 507.20,482.51 495.14,432.68 488.32,389.97 C 488.28,389.75 487.39,382.24 487.39,368.25 C 487.39,245.04 565.29,108.32 695.60,101.04 C 696.06,101.02 696.53,101.00 697.00,101.00 L 727.00,101.00 L 727.00,151.00 L 697.73,151.00 C 592.35,157.37 537.41,278.21 537.41,369.06 C 537.41,373.82 537.56,378.52 537.86,383.15 C 548.86,451.23 591.53,639.08 727.73,639.08 C 729.89,639.08 732.95,639.00 733.00,639.00 Z" transform="translate(4822.16,100.00) scale(0.8000,0.8000)" fill="#000000" />
  <path d="M 184.38,603.07 C 184.38,619.66 179.99,631.36 179.99,643.91 L 130.01,644.09 C 130.00,643.96 130.00,643.83 130.00,643.71 C 130.00,626.09 134.39,613.74 134.39,602.97 C 134.39,599.52 134.00,598.63 134.00,596.00 C 134.00,572.39 141.02,494.57 141.02,442.55 C 141.02,413.96 139.64,414.42 139.64,377.95 C 139.64,286.32 150.35,77.39 291.04,30.30 C 293.62,29.44 296.31,29.00 299.00,29.00 C 311.77,29.00 332.18,43.47 342.91,54.20 C 382.83,94.12 386.03,157.56 386.03,208.75 C 386.03,220.90 386.03,221.95 385.64,224.21 C 384.66,229.95 384.20,235.81 384.20,241.67 C 384.20,281.58 406.11,325.38 443.03,332.30 C 479.72,311.28 489.71,225.28 492.11,195.29 C 490.31,167.55 488.39,132.39 488.39,108.14 C 488.39,87.09 489.71,79.35 497.01,72.05 C 500.14,68.92 506.81,64.66 515.07,64.66 C 540.07,64.66 541.82,91.26 543.05,109.98 C 543.69,119.81 544.13,131.97 544.13,145.70 C 544.13,152.27 544.07,171.76 542.25,195.89 C 542.27,196.15 544.00,221.22 544.00,222.00 C 544.00,224.14 543.34,230.15 543.34,239.79 C 543.34,275.62 553.16,320.92 602.86,320.92 C 653.85,320.92 724.98,271.74 737.04,203.54 C 737.05,201.81 737.06,199.97 737.06,198.04 C 737.06,185.63 736.66,174.01 735.62,156.45 C 732.53,143.32 730.11,141.35 730.01,134.36 C 729.94,129.75 729.91,125.76 729.91,122.31 C 729.91,101.66 730.91,96.13 738.02,89.02 C 741.14,85.90 747.81,81.67 756.02,81.67 C 759.85,81.67 777.38,82.91 781.26,105.15 C 782.36,111.46 783.87,126.13 785.32,149.67 C 787.64,161.00 788.73,172.15 788.73,183.05 C 788.73,190.45 788.23,197.73 787.27,204.87 C 787.28,206.17 787.29,207.43 787.29,208.66 C 787.29,215.10 787.09,220.65 786.04,226.36 C 786.78,262.00 789.77,310.15 789.77,353.76 C 789.77,445.84 780.66,614.38 612.04,614.38 C 598.56,614.38 584.27,613.27 569.18,611.01 L 321.20,612.99 L 320.80,563.01 L 571.00,561.00 C 571.42,561.00 595.53,564.55 613.31,564.55 C 709.24,564.55 739.69,492.00 739.69,353.34 C 739.69,337.31 739.32,321.18 738.80,305.28 C 726.08,319.20 674.06,370.93 603.47,370.93 C 563.61,370.93 532.13,353.09 513.47,322.82 C 490.16,371.46 456.59,383.00 447.00,383.00 C 444.66,383.00 408.52,382.47 376.67,350.62 C 349.08,323.03 334.11,282.95 334.11,242.61 C 334.11,225.02 336.02,225.35 336.02,212.10 C 336.02,161.49 333.44,104.28 297.37,81.39 C 205.31,121.59 189.64,277.46 189.64,378.93 C 189.64,383.95 191.03,442.24 191.03,442.88 C 191.03,474.28 189.09,504.89 187.22,534.95 C 185.96,555.23 184.71,575.27 184.04,595.17 C 184.28,597.90 184.38,600.54 184.38,603.07 Z" transform="translate(5873.01,100.00) scale(0.8000,0.8000)" fill="#000000" />
</svg>
