<?xml version="1.0" encoding="UTF-8" standalone="no"?>
<!--
Representation of "pana e pilin ike tawa palisa unpa" in sitelen ilo pona
Generated by generate_sitelen_kalama_pona.py

Description:
  Representation of "pana e pilin ike tawa palisa unpa" in sitelen ilo pona.
  Sources: pana: https://commons.wikimedia.org/wiki/File:Sitelen_seli_kiwen_-_pana.svg; e: https://commons.wikimedia.org/wiki/File:Sitelen_seli_kiwen_-_e.svg; pilin-ike: https://commons.wikimedia.org/wiki/File:Sitelen_seli_kiwen_-_pilin-ike.svg; tawa: https://commons.wikimedia.org/wiki/File:Sitelen_seli_kiwen_-_tawa.svg; palisa: https://commons.wikimedia.org/wiki/File:Sitelen_seli_kiwen_-_palisa.svg; unpa: https://commons.wikimedia.org/wiki/File:Sitelen_seli_kiwen_-_unpa.svg

Categories:
  [[Category:Sitelen kalama pona]]
  [[Category:Toki Pona text containing pana e pilin ike tawa palisa unpa]]

Sources:
  pana: https://commons.wikimedia.org/wiki/File:Sitelen_seli_kiwen_-_pana.svg
  e: https://commons.wikimedia.org/wiki/File:Sitelen_seli_kiwen_-_e.svg
  pilin-ike: https://commons.wikimedia.org/wiki/File:Sitelen_seli_kiwen_-_pilin-ike.svg
  tawa: https://commons.wikimedia.org/wiki/File:Sitelen_seli_kiwen_-_tawa.svg
  palisa: https://commons.wikimedia.org/wiki/File:Sitelen_seli_kiwen_-_palisa.svg
  unpa: https://commons.wikimedia.org/wiki/File:Sitelen_seli_kiwen_-_unpa.svg
-->
<svg version="1.1" width="5575" height="1000"
     viewBox="0 0 5575 1000"
     xmlns="http://www.w3.org/2000/svg">
  <path d="M231 198Q231 203 238.0 218.5Q245 234 245 242Q245 260 276.0 307.5Q307 355 308 359Q312 377 335.5 394.0Q359 411 378.5 419.5Q398 428 401 428Q412 428 423.5 431.0Q435 434 457 434Q484 434 502.0 430.0Q520 426 528.5 422.5Q537 419 540 419Q545 419 545.0 415.0Q545 411 562 405Q575 401 600.0 380.5Q625 360 625 353Q625 350 632.0 346.0Q639 342 639 336Q639 327 645 321Q653 312 665.0 269.5Q677 227 677.0 207.0Q677 187 683.5 153.5Q690 120 695 109Q700 100 695 100Q690 100 690.0 87.0Q690 74 685.5 69.0Q681 64 666 56Q653 50 650.0 49.5Q647 49 637 55Q628 60 628 70Q628 71 627.0 73.5Q626 76 625.0 81.5Q624 87 622.5 95.5Q621 104 620.0 121.5Q619 139 618 161Q617 223 609 240Q605 249 601.5 260.0Q598 271 596.0 277.0Q594 283 591 285Q587 287 587 296Q587 300 573.5 317.0Q560 334 537.5 352.0Q515 370 496 374Q486 376 473.5 381.5Q461 387 451 387Q431 387 407.5 377.0Q384 367 372 353L356 342Q339 332 339 325Q339 319 332.0 311.5Q325 304 325 299Q325 295 321.0 287.5Q317 280 313.5 274.5Q310 269 312 269Q313 269 308.5 261.5Q304 254 298.0 241.5Q292 229 292 221Q292 217 284.5 187.5Q277 158 277 138Q277 137 278.5 118.5Q280 100 280 90Q280 70 270.5 58.5Q261 47 255.0 45.5Q249 44 245 44Q234 44 221.0 53.5Q208 63 208 71Q208 77 202.0 84.5Q196 92 196 94Q195 105 190.5 119.0Q186 133 184 133Q180 133 161.0 158.0Q142 183 142 188Q142 190 128.0 203.0Q114 216 114 229Q114 241 122.5 248.5Q131 256 145 256Q158 256 189.5 222.0Q221 188 227 188Q231 188 231 198ZM135 556Q135 566 142.0 574.0Q149 582 162 582Q184 582 227.0 540.0Q270 498 273 498Q274 498 275.5 495.0Q277 492 278.5 487.0Q280 482 280 477Q280 459 259 459Q243 459 227.0 469.5Q211 480 192.5 496.5Q174 513 162 520Q135 536 135 556ZM599 482Q599 509 614.5 530.0Q630 551 666 583Q749 657 766 657Q771 657 778.5 649.5Q786 642 786 630Q786 612 763.5 589.5Q741 567 719.5 554.0Q698 541 696 541Q692 541 685.5 531.5Q679 522 674.0 522.0Q669 522 643.0 495.0Q617 468 608.0 468.0Q599 468 599 482ZM383 616Q383 622 383.5 632.0Q384 642 384 649Q384 672 379.5 686.0Q375 700 375 701Q375 707 380 717Q385 728 389.0 730.5Q393 733 403 732Q422 731 427 720Q428 717 426 715Q425 714 425.0 713.0Q425 712 433.0 702.5Q441 693 441 682Q441 680 438.0 649.5Q435 619 435 597Q435 560 421 560Q415 560 408.0 562.0Q401 564 392.0 578.0Q383 592 383 616Z" transform="translate(0.00,958.33) scale(0.9583,-0.9583)" fill="#000000" />
  <path d="M156 75Q144 75 126.0 90.0Q108 105 108 115Q108 118 109.0 127.5Q110 137 114.5 149.5Q119 162 124 164Q131 166 151.5 186.0Q172 206 180 210Q192 216 207.0 231.5Q222 247 222 252Q222 260 253.5 283.0Q285 306 292 316Q298 327 314.5 339.0Q331 351 334 356Q336 363 359.5 386.0Q383 409 388 409Q392 409 392 418Q392 423 370.5 439.5Q349 456 342 456Q340 456 297.0 498.0Q254 540 246 543Q238 546 212.5 570.0Q187 594 170 602Q169 602 157.5 609.5Q146 617 133.0 629.5Q120 642 120 652Q120 667 124.0 671.0Q128 675 142 679Q166 685 168 685Q170 685 186.5 669.0Q203 653 208 653Q211 653 224.0 641.0Q237 629 257.0 610.5Q277 592 292 580Q303 573 310.5 566.5Q318 560 322.0 556.0Q326 552 328.5 549.5Q331 547 332.5 546.0Q334 545 336 545Q340 545 378.5 510.0Q417 475 426 472Q434 470 434 466Q434 463 452.5 453.5Q471 444 474 433Q475 427 475.5 422.5Q476 418 477.0 416.0Q478 414 478.0 412.5Q478 411 478.0 410.5Q478 410 478 410Q478 402 467.5 384.5Q457 367 452 367Q448 367 448 361Q448 357 431.0 344.5Q414 332 414 329Q414 324 410 327Q410 327 409.5 327.5Q409 328 408 328Q405 328 298 231Q229 168 204.5 142.0Q180 116 180 98Q180 90 172.0 82.5Q164 75 156 75ZM356 681Q356 693 366.0 704.0Q376 715 392 715Q412 715 449.0 686.0Q486 657 518.0 625.5Q550 594 554 592Q564 588 590.0 566.5Q616 545 637.5 526.5Q659 508 662 508Q664 508 672.5 495.5Q681 483 692 480Q700 477 715.0 465.5Q730 454 752 443Q792 423 792 399Q792 396 791.5 389.5Q791 383 790.5 380.0Q790 377 790 375Q793 373 789.5 367.5Q786 362 779.0 357.0Q772 352 766 351Q752 348 752 344Q752 342 739.0 335.5Q726 329 711.5 320.5Q697 312 694 306Q689 298 674.0 288.0Q659 278 656 275Q647 265 619.5 247.5Q592 230 562.5 207.0Q533 184 514 157Q508 147 502 147Q494 147 494.0 140.0Q494 133 490 133Q486 133 486 126Q486 122 482.0 119.0Q478 116 469.5 108.5Q461 101 454 89Q441 69 428 69Q417 69 400.5 87.5Q384 106 384 116Q384 130 398.5 143.5Q413 157 431.5 168.5Q450 180 454 186Q461 197 500.5 237.5Q540 278 544 278Q546 278 562.5 290.0Q579 302 582 302Q585 302 592.0 313.5Q599 325 604 325Q612 325 612 330Q612 334 618 334Q623 334 658 367L692 400L674 418Q660 431 639.5 443.0Q619 455 614 462Q610 468 600.0 475.0Q590 482 582.0 487.5Q574 493 574 497Q574 502 559.5 513.5Q545 525 518.0 544.0Q491 563 474 576Q443 602 408 627Q406 628 402 631Q383 645 375.5 651.5Q368 658 362.0 666.0Q356 674 356 681Z" transform="translate(942.50,958.33) scale(0.9583,-0.9583)" fill="#000000" />
  <path d="M326 336Q322 336 313.5 337.5Q305 339 293.0 346.0Q281 353 281 364Q281 376 284.5 392.5Q288 409 291 409Q293 409 302.5 425.5Q312 442 329.5 463.5Q347 485 367 494Q379 499 401 499Q449 499 473 488Q487 482 506.5 462.0Q526 442 537 423Q549 402 549 366Q549 348 539.0 338.5Q529 329 515 329Q501 329 491.0 338.0Q481 347 481 363Q481 366 481.5 370.0Q482 374 482 376Q482 395 468.0 412.5Q454 430 454 432Q454 440 421 440Q403 440 388.5 435.0Q374 430 367.0 423.5Q360 417 355.0 409.0Q350 401 349.0 396.0Q348 391 348 389V386Q349 382 349.0 378.0Q349 374 349.0 368.0Q349 362 348 356Q346 336 326 336ZM37 488Q37 497 34.5 503.5Q32 510 32 524Q32 662 95 708Q122 728 135.5 733.5Q149 739 176 742Q204 745 212.0 748.0Q220 751 224 751Q227 751 242.0 749.5Q257 748 279.0 744.0Q301 740 311 735Q324 729 347.5 721.5Q371 714 377 714Q382 714 400.5 695.0Q419 676 429.0 660.0Q439 644 440 644Q446 644 461.5 658.0Q477 672 480 672Q487 672 494 681Q504 692 556.0 706.5Q608 721 637 721Q638 721 652.5 719.5Q667 718 686 718L699 719Q730 719 748 712Q763 707 793.5 686.0Q824 665 825 660Q825 658 838.5 642.0Q852 626 857 607Q861 592 864.5 585.0Q868 578 868 574Q868 535 853 501Q846 483 845 480Q842 471 827.5 450.0Q813 429 805 413Q794 391 791 391Q789 391 759.5 355.5Q730 320 726 320Q720 320 690.0 295.5Q660 271 647 255Q633 239 613.5 231.0Q594 223 587 209Q579 194 570 194Q566 194 564.0 192.5Q562 191 560.5 188.0Q559 185 551.5 178.5Q544 172 532 164Q473 125 473 105Q473 94 468.0 85.5Q463 77 457 77Q452 77 447.0 72.5Q442 68 439 68Q428 68 408.5 81.0Q389 94 386 104Q383 115 366.0 131.0Q349 147 341 147Q337 147 291.5 189.0Q246 231 238 231Q231 231 217.5 252.0Q204 273 194 276Q183 279 183 285Q183 290 168.5 299.5Q154 309 154 312Q154 314 144.0 324.0Q134 334 121.5 347.5Q109 361 105 370Q100 382 89.5 390.5Q79 399 79 403Q79 408 67.5 417.0Q56 426 56 430Q56 433 46.5 455.0Q37 477 37 488ZM373 557Q373 566 383.0 580.5Q393 595 393 602Q393 610 378.5 626.5Q364 643 351 648Q342 652 326.5 661.5Q311 671 298.5 677.5Q286 684 277 684Q271 684 268 683Q259 681 253.5 684.5Q248 688 241 686Q231 682 200 682Q178 682 170.0 679.0Q162 676 144 662Q103 630 100 599Q96 551 96 523Q96 496 104 481Q117 458 139.0 429.5Q161 401 176.5 383.5Q192 366 192 364Q192 359 222.0 332.5Q252 306 257 306Q260 306 262.0 302.5Q264 299 273.5 289.5Q283 280 299 270Q337 245 337 237Q337 235 353.5 223.0Q370 211 370 208Q370 206 377.5 201.5Q385 197 396.0 190.5Q407 184 413 177Q422 167 431.0 167.0Q440 167 453.5 185.0Q467 203 471 203Q474 203 482.0 212.5Q490 222 494 222Q500 222 535.0 255.0Q570 288 577 288Q581 288 586.5 292.5Q592 297 603.0 306.0Q614 315 625 323Q649 340 694.5 383.0Q740 426 740 430Q740 435 754 449Q766 461 781.5 489.5Q797 518 797 528Q797 534 800.0 542.0Q803 550 803 557Q803 582 791.0 601.0Q779 620 770 620Q765 620 753 634Q734 654 673 654Q652 653 625 651Q567 647 534.0 635.0Q501 623 480 598Q461 575 459.0 567.0Q457 559 438.5 545.5Q420 532 407 529Q405 528 402 528Q391 528 382.0 537.5Q373 547 373 557Z" transform="translate(1885.00,958.33) scale(0.9583,-0.9583)" fill="#000000" />
  <path d="M284 89Q284 88 283.5 84.0Q283 80 281.5 73.0Q280 66 277.0 59.5Q274 53 268.0 48.5Q262 44 254 44Q242 44 203.0 55.5Q164 67 159 67Q155 67 150.0 71.0Q145 75 130.0 85.0Q115 95 93 106Q38 134 38 155Q38 164 52.0 173.5Q66 183 69 199Q71 213 84.5 223.0Q98 233 103 243Q108 254 120.5 269.0Q133 284 154 327Q159 338 171.5 353.5Q184 369 188 384Q194 405 197 405Q201 405 206.0 417.5Q211 430 211 438Q211 447 216 447Q218 447 220.0 451.5Q222 456 225.5 464.5Q229 473 235 480Q242 488 268.0 530.5Q294 573 299 578Q316 596 333.0 625.5Q350 655 355 673Q358 686 370.5 695.0Q383 704 393.5 708.5Q404 713 404 715Q404 719 414.0 730.5Q424 742 432 742Q436 742 450 735Q462 729 465.0 720.5Q468 712 472.0 686.5Q476 661 486 632L504 578Q511 555 550.0 480.0Q589 405 594 381Q597 366 610.5 337.0Q624 308 624 302Q624 298 633.5 281.5Q643 265 643 260Q643 256 657.5 224.0Q672 192 674 177Q679 145 699 143Q712 143 765 138Q820 133 832.0 130.5Q844 128 844 121Q844 116 853.0 116.0Q862 116 862 91Q862 82 858.0 74.0Q854 66 854 61Q854 50 818 50Q795 50 781.0 57.0Q767 64 735 64Q700 64 679.0 59.5Q658 55 657 55Q641 55 628.0 68.0Q615 81 615 97Q615 103 616.0 109.0Q617 115 617 121Q617 133 612.0 143.0Q607 153 607 160Q607 168 591.5 210.5Q576 253 571 259Q562 270 557.0 292.5Q552 315 539 340Q538 343 537.5 345.5Q537 348 537.0 350.0Q537 352 537.5 353.5Q538 355 538.0 356.5Q538 358 536.5 359.0Q535 360 533 361Q526 363 526 372Q526 389 512.0 425.0Q498 461 487.0 474.0Q476 487 462.0 514.0Q448 541 444 557Q441 571 428.0 600.5Q415 630 412 630Q410 630 403.0 616.0Q396 602 393 602Q392 602 376.5 579.0Q361 556 361 555Q361 551 344 534Q330 519 313.0 493.5Q296 468 286.5 449.0Q277 430 277.0 427.0Q277 424 267.5 410.5Q258 397 258 390Q258 381 254 381Q249 381 249 374Q249 369 237.5 348.5Q226 328 224 321Q221 311 216.0 311.0Q211 311 211 306Q211 303 208.5 299.0Q206 295 201.0 285.5Q196 276 191 263Q184 245 161.5 220.5Q139 196 139 183Q139 173 147.5 162.5Q156 152 164 152Q171 152 194.0 142.5Q217 133 219 133Q226 133 249.0 124.5Q272 116 272 113Q272 108 278.0 102.5Q284 97 284 89Z" transform="translate(2827.50,958.33) scale(0.9583,-0.9583)" fill="#000000" />
  <path d="M354 109Q354 119 349.0 125.5Q344 132 344 137Q344 148 343 149Q342 149 340 146Q335 139 334 151Q334 157 334 167Q334 176 325.0 200.5Q316 225 316 236Q316 264 311.0 293.5Q306 323 306 371Q306 414 302.0 433.5Q298 453 298 466Q298 480 295.0 499.5Q292 519 292 523Q292 526 294 532Q296 537 298.0 559.5Q300 582 302.0 612.5Q304 643 308 660Q312 683 312 700Q312 717 322 726Q334 738 328 738Q326 738 334.5 746.5Q343 755 354.0 764.5Q365 774 368 776Q375 778 406 778Q466 778 474 769Q478 761 484 761Q488 761 493.0 754.0Q498 747 504 747Q512 747 532.5 723.5Q553 700 554 690Q554 688 561.0 677.5Q568 667 568 660Q569 658 577.0 622.0Q585 586 586 552Q593 409 604 402Q606 400 605.0 396.0Q604 392 602.0 386.5Q600 381 602 373Q608 358 608 282Q608 146 598 136Q594 131 594 120Q594 97 566.0 72.0Q538 47 484 47Q483 47 447.0 54.0Q411 61 410 62Q409 64 397.0 69.5Q385 75 376 84Q364 95 359.0 95.0Q354 95 354 109ZM540 188Q540 215 545.0 231.5Q550 248 550 260Q550 262 548.5 295.5Q547 329 544.0 365.5Q541 402 540 405Q534 414 530 500Q527 589 511.5 628.5Q496 668 446 714Q432 726 414 726Q394 726 382 712Q378 707 371.5 688.0Q365 669 358.5 630.5Q352 592 352 550Q352 536 353.5 536.0Q355 536 358.0 503.0Q361 470 364.5 412.5Q368 355 370 299Q371 255 376.0 237.0Q381 219 406 164Q411 152 416.5 145.0Q422 138 442.5 129.0Q463 120 494 120Q528 120 528 133Q528 142 532 142Q535 142 539.0 152.0Q543 162 542 168Q540 173 540 188Z" transform="translate(3770.00,958.33) scale(0.9583,-0.9583)" fill="#000000" />
  <path d="M332 364Q332 368 334.5 377.0Q337 386 337 390Q337 397 333.0 401.0Q329 405 322.5 407.5Q316 410 315 411Q305 418 276 428Q257 435 249.5 440.0Q242 445 232 457Q215 480 205 480Q200 480 194.5 484.5Q189 489 184.5 497.0Q180 505 176.5 512.5Q173 520 168.5 530.5Q164 541 161 546Q152 564 152 590Q152 598 152.5 613.0Q153 628 153 640Q153 654 156.5 662.5Q160 671 176 693Q193 716 206.0 725.5Q219 735 238 742Q248 745 254 745Q310 745 368 722Q395 711 407.0 701.5Q419 692 437 667L448 650L486 685Q516 712 543.0 721.5Q570 731 618 731Q622 731 625.5 730.5Q629 730 632 730H634Q640 723 651 723Q664 723 691.0 706.0Q718 689 731 671L748 648L746 611Q745 603 744.5 596.0Q744 589 743.0 584.5Q742 580 740.0 574.0Q738 568 737.5 565.5Q737 563 734.0 557.0Q731 551 730.5 549.5Q730 548 726.0 541.5Q722 535 721 533Q709 513 700.0 503.5Q691 494 675.5 484.5Q660 475 649 466L630 453Q621 451 612.0 443.5Q603 436 592 433L569 426L572 398Q574 381 579.0 363.5Q584 346 586 321Q590 278 595 269Q597 265 594 260Q589 254 589 230Q589 198 581 190Q575 185 575 171Q575 165 568.0 158.5Q561 152 561 141Q561 122 504 88Q477 72 450 72Q424 72 411 82Q390 96 386 97Q375 101 356.5 130.0Q338 159 338 173Q338 174 338.5 176.0Q339 178 339 181Q339 190 333.5 220.0Q328 250 328.0 259.0Q328 268 330.5 299.0Q333 330 333 341Q333 345 332.5 353.0Q332 361 332 364ZM331 675Q304 684 266 684Q244 684 235.0 678.5Q226 673 216 655Q206 635 206 621Q206 562 257 519Q276 503 302.0 491.0Q328 479 345 479Q360 479 370.5 499.0Q381 519 388.5 548.5Q396 578 399 584Q406 595 406 606Q406 618 377.5 643.5Q349 669 331 675ZM514 553Q514 543 521.0 537.5Q528 532 528 531Q528 516 533.5 503.5Q539 491 550 491Q567 491 580 502Q592 512 654 552Q664 558 664 570L665 573Q670 574 675.5 585.5Q681 597 686 609L690 621Q694 626 694 635Q694 651 677 653Q672 655 664 662Q651 675 600 675Q571 675 534.0 656.5Q497 638 497 609Q497 592 507 572Q514 556 514 553ZM473 485Q473 492 467.0 505.0Q461 518 455.5 526.5Q450 535 449 536H446Q438 536 428.5 509.5Q419 483 419 475Q419 468 429 468Q442 468 457.5 472.5Q473 477 473 485ZM462 142Q492 142 512.5 188.0Q533 234 533 278Q533 296 527.5 320.0Q522 344 522 359Q520 409 486 409Q478 409 456.0 403.0Q434 397 425 397H413Q397 397 394 379Q391 360 391 319Q391 279 392.5 256.5Q394 234 400.0 203.0Q406 172 421.5 157.0Q437 142 462 142Z" transform="translate(4712.50,958.33) scale(0.9583,-0.9583)" fill="#000000" />
</svg>
