<?xml version="1.0" encoding="UTF-8" standalone="no"?>
<!--
Representation of "meli sama" in sitelen kalama pona
Generated by generate_sitelen_kalama_pona.py

Description:
  Representation of "meli sama" in sitelen kalama pona.
  Sources: meli-sama: https://commons.wikimedia.org/wiki/File:Sitelen_seli_kiwen_-_meli-sama.svg

Categories:
  [[Category:Sitelen kalama pona]]
  [[Category:Toki Pona text containing meli sama]]

Sources:
  meli-sama: https://commons.wikimedia.org/wiki/File:Sitelen_seli_kiwen_-_meli-sama.svg
-->
<svg version="1.1" width="862" height="1000"
     viewBox="0 0 862 1000"
     xmlns="http://www.w3.org/2000/svg">
  <path d="M318 376Q318 403 346 403Q358 403 384.5 398.0Q411 393 428 393Q440 393 444 394Q449 394 452 394Q467 394 476.5 388.5Q486 383 489.5 374.5Q493 366 493.5 361.5Q494 357 494 353Q494 337 466 337Q464 337 449.0 340.0Q434 343 402 343Q381 343 370.5 343.5Q360 344 345.5 347.0Q331 350 324.5 357.0Q318 364 318 376ZM400 431Q390 431 371.0 429.5Q352 428 346 428Q337 428 334.0 430.0Q331 432 326 439Q320 448 320.0 451.0Q320 454 326 461Q337 472 376.5 477.5Q416 483 450 483Q476 483 489.0 476.5Q502 470 502 451Q502 427 478 427Q461 427 458.5 424.0Q456 421 446 421Q435 421 426.0 426.0Q417 431 400 431ZM254 265Q254 267 239.0 291.5Q224 316 208.0 349.5Q192 383 192 407Q192 436 208 475Q217 501 225.0 513.5Q233 526 252 544Q280 570 305.0 583.5Q330 597 344.5 598.0Q359 599 371.0 600.5Q383 602 388 607Q390 610 414 610Q415 610 418.0 610.0Q421 610 422 610Q470 610 496 594Q524 577 536 573Q552 568 590.0 530.0Q628 492 636 475Q654 433 654 400Q654 385 647.0 365.5Q640 346 640 333Q638 306 610.0 275.0Q582 244 557.0 226.0Q532 208 529.0 208.0Q526 208 503.5 199.5Q481 191 473 191Q472 191 470 191Q462 193 431.5 194.0Q401 195 365.5 201.5Q330 208 302 225Q286 234 270.0 247.5Q254 261 254 265ZM252 422Q252 398 262.0 374.5Q272 351 282.0 337.0Q292 323 292 321Q292 317 310.0 302.5Q328 288 334 288Q338 288 338 283Q338 276 377.5 266.5Q417 257 446 257Q489 257 532.5 290.5Q576 324 582 359Q586 379 592 388Q593 390 593 400Q593 431 562 463Q559 467 552.0 474.5Q545 482 542.0 485.0Q539 488 533.5 494.0Q528 500 525.0 502.5Q522 505 518.0 509.0Q514 513 511.5 515.0Q509 517 505.5 520.0Q502 523 499.5 525.0Q497 527 494.0 529.0Q491 531 488 532Q481 536 455.0 541.5Q429 547 420 547Q418 547 416.5 546.0Q415 545 410.0 544.0Q405 543 396 542Q386 541 371.5 538.5Q357 536 332.0 529.0Q307 522 290.5 509.0Q274 496 274 478Q274 471 263.0 452.0Q252 433 252 422ZM86 265Q86 265 85.5 290.0Q85 315 84.5 343.0Q84 371 84 378Q84 412 91.0 451.0Q98 490 98 491Q98 493 97.5 494.0Q97 495 97 497Q97 503 103.5 520.5Q110 538 120.0 560.5Q130 583 134 595Q138 608 154.5 628.0Q171 648 188 660Q192 663 200 669Q227 689 235.5 694.0Q244 699 260 705Q281 712 306.0 728.0Q331 744 358 747Q370 749 396 749Q494 749 522 736Q525 734 532.5 731.5Q540 729 549.5 725.0Q559 721 564 719Q585 711 607.5 696.5Q630 682 636 679Q656 669 687.0 643.0Q718 617 718 610Q718 607 728.0 593.0Q738 579 750.0 558.5Q762 538 768 524Q770 517 776.0 500.5Q782 484 784 478Q791 461 791 451Q791 448 791.0 446.0Q791 444 791 443Q791 441 792 440Q799 436 804.5 374.0Q810 312 812 308Q814 306 814 299Q814 291 811.5 271.0Q809 251 809 246Q809 243 809.5 242.0Q810 241 810.0 241.0Q810 241 807.5 235.5Q805 230 802.5 217.0Q800 204 800 184Q800 170 804.5 155.0Q809 140 810 112Q811 102 812.0 93.0Q813 84 813.5 78.0Q814 72 814.5 67.0Q815 62 815.5 59.5Q816 57 816 57Q816 44 802.5 35.0Q789 26 770 26Q770 26 749 29Q742 32 744 37Q744 39 744 42Q744 45 741.0 53.0Q738 61 738 67Q738 73 740 80Q743 90 742.0 95.0Q741 100 738.5 101.5Q736 103 736.0 104.5Q736 106 742 109Q748 113 742 120Q736 128 736 170Q736 218 744 222Q747 227 745.5 227.5Q744 228 741.5 236.0Q739 244 742 257Q744 266 744 295Q744 335 738.5 381.0Q733 427 726 439Q721 450 720 463Q715 504 686.0 548.0Q657 592 622 610Q610 617 583.5 636.0Q557 655 554 660Q551 663 547.0 661.5Q543 660 538 663Q528 671 490.5 678.5Q453 686 422 686Q380 686 358.5 680.0Q337 674 296 651Q250 625 244 625Q236 625 236 621Q236 618 215.0 602.0Q194 586 194 582Q194 580 187.0 570.5Q180 561 169.5 532.5Q159 504 150 457Q147 435 142 423Q136 413 136 376Q136 365 139.0 329.5Q142 294 142 252V230Q142 217 151.0 163.5Q160 110 162 106Q165 102 164.0 93.5Q163 85 168 79Q173 71 166 57Q160 47 154.5 44.0Q149 41 130 37Q118 34 118 41Q118 48 112 48Q103 48 100.5 65.5Q98 83 96.0 116.0Q94 149 90 170Q84 192 84 207Q84 207 84.5 210.0Q85 213 85.0 218.0Q85 223 85.0 229.5Q85 236 85.5 245.5Q86 255 86 265Z" transform="translate(0.00,958.33) scale(0.9583,-0.9583)" fill="#000000" />
</svg>
