<?xml version="1.0" encoding="UTF-8" standalone="no"?>
<!--
Representation of "kulupu pi wan ilo pi ma ale" in sitelen ilo pona
Generated by generate_sitelen_kalama_pona.py

Description:
  Representation of "kulupu pi wan ilo pi ma ale" in sitelen ilo pona.
  Sources: kulupu: https://commons.wikimedia.org/wiki/File:Sitelen_seli_kiwen_-_kulupu.svg; pi: https://commons.wikimedia.org/wiki/File:Sitelen_seli_kiwen_-_pi.svg; wan: https://commons.wikimedia.org/wiki/File:Sitelen_seli_kiwen_-_wan.svg; ilo: https://commons.wikimedia.org/wiki/File:Sitelen_seli_kiwen_-_ilo.svg; pi: https://commons.wikimedia.org/wiki/File:Sitelen_seli_kiwen_-_pi.svg; ma-ale: https://commons.wikimedia.org/wiki/File:Sitelen_seli_kiwen_-_ma-ale.svg

Categories:
  [[Category:Sitelen kalama pona]]
  [[Category:Toki Pona text containing kulupu pi wan ilo pi ma ale]]

Sources:
  kulupu: https://commons.wikimedia.org/wiki/File:Sitelen_seli_kiwen_-_kulupu.svg
  pi: https://commons.wikimedia.org/wiki/File:Sitelen_seli_kiwen_-_pi.svg
  wan: https://commons.wikimedia.org/wiki/File:Sitelen_seli_kiwen_-_wan.svg
  ilo: https://commons.wikimedia.org/wiki/File:Sitelen_seli_kiwen_-_ilo.svg
  pi: https://commons.wikimedia.org/wiki/File:Sitelen_seli_kiwen_-_pi.svg
  ma-ale: https://commons.wikimedia.org/wiki/File:Sitelen_seli_kiwen_-_ma-ale.svg
-->
<svg version="1.1" width="5575" height="1000"
     viewBox="0 0 5575 1000"
     xmlns="http://www.w3.org/2000/svg">
  <path d="M416 252Q416 226 407.0 204.5Q398 183 390.0 174.5Q382 166 380 166Q377 166 354 144Q332 124 310.5 115.5Q289 107 246 107Q172 107 138 138Q97 175 88.5 188.5Q80 202 80 234Q80 270 82.5 280.0Q85 290 92 296Q99 302 101.0 304.0Q103 306 103.5 307.5Q104 309 106.5 312.0Q109 315 120.5 326.0Q132 337 152 354Q178 379 238 379Q319 379 360 358Q386 344 401.0 315.0Q416 286 416 252ZM346 263Q346 280 338.0 291.0Q330 302 315.0 307.0Q300 312 286.0 313.5Q272 315 252 315Q214 315 189.5 302.0Q165 289 160 278Q155 264 148 264Q142 264 142 255Q142 241 153.5 220.0Q165 199 178 196Q182 195 207.5 185.5Q233 176 252 176Q279 176 295.0 187.5Q311 199 317.5 210.5Q324 222 326 222Q333 222 339.5 235.0Q346 248 346 263ZM820 263Q820 245 817.0 233.0Q814 221 811.0 217.5Q808 214 805.0 211.0Q802 208 802 204Q802 198 794.0 182.0Q786 166 784 166Q781 166 758.0 144.5Q735 123 728 123Q718 123 706.0 117.5Q694 112 694 108Q694 106 676 106Q625 106 598.0 116.0Q571 126 538 153Q527 162 522.0 168.5Q517 175 512.5 194.0Q508 213 508 244Q508 286 520 297Q540 313 540 340Q540 357 561.0 375.5Q582 394 600 394Q629 394 643.5 399.0Q658 404 682 404Q709 404 727.5 399.0Q746 394 760.5 379.5Q775 365 783.0 352.0Q791 339 806 310Q813 297 816 297Q820 297 820 263ZM666 182Q669 182 673.5 181.0Q678 180 680 180Q690 180 702.0 189.0Q714 198 716 198Q721 198 735.5 228.0Q750 258 750 269Q750 273 748 273Q746 273 741.0 285.0Q736 297 728.0 312.5Q720 328 710 335Q706 338 678 338Q653 338 642.0 335.5Q631 333 616 323Q604 316 590 310Q585 309 583.5 303.0Q582 297 582 281Q582 255 578 255Q574 255 574 251Q574 248 578.0 235.5Q582 223 582 217Q582 203 600.0 191.5Q618 180 633.0 176.0Q648 172 652 172Q656 172 659.0 177.0Q662 182 666 182ZM470 732Q500 732 527.0 722.5Q554 713 566.0 705.0Q578 697 578 695Q578 692 585.0 685.0Q592 678 602.0 665.0Q612 652 618 639Q628 617 636 611Q642 605 642 580Q642 520 602 484Q589 473 578.5 466.0Q568 459 563.5 457.0Q559 455 556.0 452.5Q553 450 552 444Q549 433 536 433Q525 433 494.0 431.5Q463 430 456 430Q419 430 398.5 438.0Q378 446 358 467Q338 487 330.0 504.0Q322 521 322 522Q308 538 308 579Q308 597 314 597Q317 597 320.0 603.0Q323 609 329.0 620.0Q335 631 344 640Q355 651 357.0 657.5Q359 664 352 670Q349 674 354 693L360 712L400 717Q430 721 442.0 726.5Q454 732 470 732ZM578 577Q578 607 539.0 641.5Q500 676 438 676Q428 676 428 668Q428 662 416.0 647.5Q404 633 404 626Q404 620 391.0 605.0Q378 590 378 573Q378 546 402 523Q414 510 421.0 507.5Q428 505 450 505Q464 505 474.0 504.0Q484 503 487 502L490 501Q504 501 541.0 528.0Q578 555 578 577Z" transform="translate(0.00,958.33) scale(0.9583,-0.9583)" fill="#000000" />
  <path d="M178 600Q178 613 172.0 629.5Q166 646 166 651Q166 660 178 675Q187 686 191.5 688.0Q196 690 206 688Q221 685 228.5 675.5Q236 666 237.0 657.5Q238 649 238 634V602Q238 561 244.0 524.5Q250 488 250 466Q250 451 248.0 418.5Q246 386 246 369Q246 369 246.0 367.0Q246 365 246.5 361.5Q247 358 247.5 353.0Q248 348 248.0 339.5Q248 331 248.5 321.0Q249 311 249.5 296.5Q250 282 250 266Q250 179 252 177Q260 168 392 168Q392 168 438.0 168.0Q484 168 532.0 168.5Q580 169 584 169Q698 169 704 167Q710 164 716 164Q722 163 728.0 144.5Q734 126 734 111Q734 109 733.0 103.5Q732 98 727.5 90.5Q723 83 716 83Q714 83 683.5 92.5Q653 102 624 102Q612 102 594.0 100.0Q576 98 562 98Q562 98 558.5 98.5Q555 99 548.0 99.5Q541 100 532.0 100.5Q523 101 510.5 101.5Q498 102 486 102Q485 102 480.5 102.0Q476 102 469.0 101.5Q462 101 454.5 100.5Q447 100 439.5 100.0Q432 100 428 100Q344 100 230 92L190 90L184 104Q180 114 180 131Q180 157 185.0 176.5Q190 196 190 218Q190 218 190.0 225.0Q190 232 190.0 242.5Q190 253 189.5 264.5Q189 276 188.5 287.0Q188 298 188 304Q188 326 190.0 374.0Q192 422 192 441Q192 517 178 540Q176 543 177.0 544.0Q178 545 180.0 545.5Q182 546 182.5 549.5Q183 553 180 562Q176 571 176 578Q176 581 177.0 588.5Q178 596 178 600Z" transform="translate(942.50,958.33) scale(0.9583,-0.9583)" fill="#000000" />
  <path d="M338 528Q338 540 347.5 551.0Q357 562 365.5 567.5Q374 573 377 573Q380 573 381.5 574.0Q383 575 386.0 578.5Q389 582 392.0 586.5Q395 591 402.5 599.5Q410 608 419 618Q452 652 467.0 674.5Q482 697 485.0 705.5Q488 714 495 718Q505 723 512 723Q531 723 539 705Q545 691 545 586Q545 533 542.0 486.0Q539 439 539 412Q539 366 544.0 312.5Q549 259 554.0 227.5Q559 196 560 193Q564 184 558 184Q555 184 554.5 178.5Q554 173 554.0 165.0Q554 157 552 153Q551 152 551 147Q551 145 553.5 126.5Q556 108 556 90Q556 76 549.5 68.0Q543 60 538.5 59.0Q534 58 530 58Q520 58 505.5 69.5Q491 81 488 82Q485 83 483.5 133.0Q482 183 480.5 235.5Q479 288 475 294Q473 297 473 305Q473 310 476.0 326.5Q479 343 479 355Q479 360 478.0 368.0Q477 376 476.5 379.5Q476 383 477 387Q479 391 479 507Q479 556 478.5 564.5Q478 573 472 573Q462 573 446.0 553.5Q430 534 413.5 514.5Q397 495 385 495Q370 495 354.0 503.0Q338 511 338 528Z" transform="translate(1885.00,958.33) scale(0.9583,-0.9583)" fill="#000000" />
  <path d="M411 266Q411 271 407.5 280.5Q404 290 404 294Q404 295 407.0 304.0Q410 313 411 330L412 356L384 359Q377 360 357 360Q281 360 281 353Q281 350 246 352Q238 353 226 353Q209 353 193.0 343.5Q177 334 161 334Q141 334 130.0 345.5Q119 357 119 367Q119 380 109 387Q102 393 100.0 398.0Q98 403 100 417Q102 432 108.5 448.0Q115 464 115 492Q115 514 112.5 591.5Q110 669 106 675Q104 679 106.0 688.0Q108 697 104 701Q96 711 96 724Q96 730 98.0 737.0Q100 744 110.5 752.5Q121 761 139 761Q164 761 164 765Q164 770 168 768Q171 767 298.0 760.5Q425 754 431 754Q451 754 474.0 757.0Q497 760 513 760Q536 760 574.5 755.5Q613 751 631 751Q645 751 685.0 753.0Q725 755 738 755Q761 755 770.0 741.0Q779 727 780 677Q786 494 788.5 456.0Q791 418 799 403Q804 391 804 383Q804 364 789.0 358.0Q774 352 734 352Q692 352 616.5 359.5Q541 367 515 367Q498 367 490.5 366.0Q483 365 481.5 363.0Q480 361 480 357Q480 346 477.5 311.0Q475 276 475 257Q475 217 481.0 184.0Q487 151 493.0 133.5Q499 116 499 111Q499 102 489.5 87.5Q480 73 461 73Q439 73 425.0 91.0Q411 109 409 138L408 160Q406 181 404.5 204.0Q403 227 403 230Q403 246 407.0 255.0Q411 264 411 266ZM387 698Q363 702 305 702Q272 702 251.5 699.0Q231 696 215 695Q186 694 179.5 682.5Q173 671 169 618Q166 573 166 536Q166 477 174 463Q180 445 182 437L188 415L226 417Q268 419 323 419Q369 419 399 422L416 424L414 500Q412 576 412 592Q412 614 413.0 628.0Q414 642 415.0 647.0Q416 652 416 654Q416 657 412 672Q408 688 404.5 692.0Q401 696 387 698ZM725 438Q725 441 723.5 445.0Q722 449 720.0 451.5Q718 454 717.0 456.5Q716 459 717.5 460.0Q719 461 723 461Q733 461 733 479Q733 484 729.0 515.0Q725 546 723 585Q719 657 710.0 672.0Q701 687 658 689Q639 690 624.0 693.0Q609 696 608.0 697.0Q607 698 603 696Q602 694 562 694H542L485 695L483 670Q482 651 477.0 627.5Q472 604 472 602V592Q473 581 474.5 564.0Q476 547 477.0 526.0Q478 505 478.5 479.0Q479 453 479 429Q479 423 501 426Q513 428 552 428Q566 428 586.0 427.0Q606 426 625.0 425.0Q644 424 660.5 422.5Q677 421 688 420L698 419Q725 419 725 438Z" transform="translate(2827.50,958.33) scale(0.9583,-0.9583)" fill="#000000" />
  <path d="M178 600Q178 613 172.0 629.5Q166 646 166 651Q166 660 178 675Q187 686 191.5 688.0Q196 690 206 688Q221 685 228.5 675.5Q236 666 237.0 657.5Q238 649 238 634V602Q238 561 244.0 524.5Q250 488 250 466Q250 451 248.0 418.5Q246 386 246 369Q246 369 246.0 367.0Q246 365 246.5 361.5Q247 358 247.5 353.0Q248 348 248.0 339.5Q248 331 248.5 321.0Q249 311 249.5 296.5Q250 282 250 266Q250 179 252 177Q260 168 392 168Q392 168 438.0 168.0Q484 168 532.0 168.5Q580 169 584 169Q698 169 704 167Q710 164 716 164Q722 163 728.0 144.5Q734 126 734 111Q734 109 733.0 103.5Q732 98 727.5 90.5Q723 83 716 83Q714 83 683.5 92.5Q653 102 624 102Q612 102 594.0 100.0Q576 98 562 98Q562 98 558.5 98.5Q555 99 548.0 99.5Q541 100 532.0 100.5Q523 101 510.5 101.5Q498 102 486 102Q485 102 480.5 102.0Q476 102 469.0 101.5Q462 101 454.5 100.5Q447 100 439.5 100.0Q432 100 428 100Q344 100 230 92L190 90L184 104Q180 114 180 131Q180 157 185.0 176.5Q190 196 190 218Q190 218 190.0 225.0Q190 232 190.0 242.5Q190 253 189.5 264.5Q189 276 188.5 287.0Q188 298 188 304Q188 326 190.0 374.0Q192 422 192 441Q192 517 178 540Q176 543 177.0 544.0Q178 545 180.0 545.5Q182 546 182.5 549.5Q183 553 180 562Q176 571 176 578Q176 581 177.0 588.5Q178 596 178 600Z" transform="translate(3770.00,958.33) scale(0.9583,-0.9583)" fill="#000000" />
  <path d="M224 229Q224 255 232.5 273.0Q241 291 248.5 296.5Q256 302 258 302Q262 302 282.0 322.0Q302 342 302 347Q302 354 333.5 366.0Q365 378 388 380Q409 382 422.0 387.5Q435 393 437 393Q439 393 441 393Q444 392 448 392Q454 392 483.5 395.5Q513 399 532 399Q546 399 557.0 395.5Q568 392 596 378Q637 358 658.0 338.5Q679 319 695 287Q704 267 704 254Q704 225 677.0 179.0Q650 133 636 133Q634 133 632.0 131.5Q630 130 627.0 127.0Q624 124 613.5 119.0Q603 114 587 109Q549 97 544 95Q505 80 440 80Q409 80 360.0 100.0Q311 120 287 143Q267 161 264 161Q259 161 243 177Q235 184 232.0 188.0Q229 192 226.5 202.0Q224 212 224 229ZM605 297Q604 302 585.5 312.0Q567 322 550.0 330.0Q533 338 532 338Q532 338 509 336L487 334L489 280L509 278Q521 276 548.0 275.0Q575 274 597.0 273.0Q619 272 623 270Q630 267 630 272Q630 279 619 284Q607 289 605 297ZM422 284Q422 288 419.0 289.5Q416 291 416 306Q416 315 399 315Q377 315 346.5 294.0Q316 273 316 262Q316 256 326 256Q329 256 334 257Q347 260 366 262Q422 270 422 284ZM507 157Q520 157 537.5 161.5Q555 166 566.5 170.5Q578 175 579 175Q585 175 596.5 186.0Q608 197 608 202Q608 206 578 206Q564 206 560 203Q551 199 524 202L494 205L495 182Q496 157 507 157ZM429 188Q429 198 427.0 200.5Q425 203 416 203Q410 203 370.0 195.5Q330 188 330 185Q330 184 349.5 175.5Q369 167 391.0 158.5Q413 150 417 150Q418 150 418 150Q429 155 429 188ZM278 669Q315 669 364.0 649.5Q413 630 423 630Q432 630 449.0 636.5Q466 643 469 648Q471 652 485.0 660.0Q499 668 524.0 675.5Q549 683 571 683Q588 683 623 674Q666 662 666 611Q666 575 657.0 548.0Q648 521 640.0 512.0Q632 503 630 503Q627 503 609.0 492.0Q591 481 578 481Q554 481 515.0 495.0Q476 509 471 518Q466 526 450 533L434 540L414 519Q393 498 390 498Q386 498 367 483Q359 477 354.0 474.0Q349 471 336.5 468.5Q324 466 305 466Q282 466 268 470Q255 475 241.0 489.5Q227 504 227 513Q227 514 211.5 541.0Q196 568 196 584Q196 592 200 598Q207 609 202 617Q201 619 201 623Q201 631 205.5 639.5Q210 648 215 648Q218 648 223.0 653.0Q228 658 241.5 663.5Q255 669 278 669ZM554 546Q612 546 612 598Q612 621 591 621Q587 621 583.0 620.0Q579 619 576.5 618.0Q574 617 574 617Q574 615 571.0 614.5Q568 614 551 614Q537 614 520.5 606.0Q504 598 494.5 590.0Q485 582 485 579Q485 574 511.0 560.0Q537 546 554 546ZM271 554Q271 543 282.0 537.0Q293 531 305 531Q317 531 324.0 535.0Q331 539 340.0 547.0Q349 555 358 560Q373 568 373 579Q373 593 350.5 601.0Q328 609 306 612L280 615L275 581Q271 555 271 554Z" transform="translate(4712.50,958.33) scale(0.9583,-0.9583)" fill="#000000" />
</svg>
