<?xml version="1.0" encoding="UTF-8" standalone="no"?>
<!--
Representation of "tenpo kama pi jan Jesu" in sitelen kalama pona
Generated by generate_sitelen_kalama_pona.py

Description:
  Representation of "tenpo kama pi jan Jesu" in sitelen kalama pona.
  Sources: tenpo: https://commons.wikimedia.org/wiki/File:Sitelen_seli_kiwen_-_tenpo.svg; kama: https://commons.wikimedia.org/wiki/File:Sitelen_seli_kiwen_-_kama.svg; pi: https://commons.wikimedia.org/wiki/File:Sitelen_seli_kiwen_-_pi.svg; jan: https://commons.wikimedia.org/wiki/File:Sitelen_seli_kiwen_-_jan.svg; je: https://commons.wikimedia.org/wiki/File:Sitelen_kalama_pona_-_je.svg; su: https://commons.wikimedia.org/wiki/File:Sitelen_kalama_pona_-_su.svg

Categories:
  [[Category:Sitelen kalama pona]]
  [[Category:Toki Pona text containing tenpo kama pi jan]]
  [[Category:Toki Pona text containing sound symbol Je]]
  [[Category:Toki Pona text containing sound symbol Su]]

Sources:
  tenpo: https://commons.wikimedia.org/wiki/File:Sitelen_seli_kiwen_-_tenpo.svg
  kama: https://commons.wikimedia.org/wiki/File:Sitelen_seli_kiwen_-_kama.svg
  pi: https://commons.wikimedia.org/wiki/File:Sitelen_seli_kiwen_-_pi.svg
  jan: https://commons.wikimedia.org/wiki/File:Sitelen_seli_kiwen_-_jan.svg
  je: https://commons.wikimedia.org/wiki/File:Sitelen_kalama_pona_-_je.svg
  su: https://commons.wikimedia.org/wiki/File:Sitelen_kalama_pona_-_su.svg
-->
<svg version="1.1" width="6990" height="1000"
     viewBox="0 0 6990 1000"
     xmlns="http://www.w3.org/2000/svg">
  <path d="M376 453Q376 473 372.0 493.5Q368 514 368 521Q368 531 376.0 540.0Q384 549 394 549Q399 549 406.5 543.0Q414 537 422 535Q428 534 430.0 526.0Q432 518 436 487Q438 459 438 448Q438 430 436.0 416.0Q434 402 434 397Q434 381 442.5 376.5Q451 372 478 372Q508 372 547.0 377.5Q586 383 594 383Q603 383 612.5 373.0Q622 363 622 352Q622 345 619.5 338.0Q617 331 605.5 322.5Q594 314 574 313Q565 313 529.5 307.5Q494 302 448 302Q404 302 394.5 303.5Q385 305 378 313L368 324L374 392Q376 432 376 453ZM532 74H528Q525 74 513.5 71.0Q502 68 480.0 65.5Q458 63 430 63Q400 63 381.0 67.5Q362 72 351.0 77.5Q340 83 334 84Q323 85 307.0 90.0Q291 95 276.0 101.5Q261 108 248.0 114.0Q235 120 227.0 124.0Q219 128 218 128Q213 128 187.5 152.0Q162 176 162 182Q162 183 147.5 201.0Q133 219 118.5 251.0Q104 283 104 317Q104 339 112.0 373.5Q120 408 120 417Q120 447 124.5 464.5Q129 482 142 505Q162 536 162 540Q162 543 183.0 567.0Q204 591 204.0 594.0Q204 597 221.0 613.5Q238 630 238 634Q238 639 242 639Q246 639 255.0 646.0Q264 653 276.5 663.5Q289 674 298 679Q307 684 324.5 695.0Q342 706 356.0 713.5Q370 721 378 723Q385 725 422 725Q478 725 504.0 720.0Q530 715 534 715Q546 715 580.0 699.5Q614 684 640 678Q649 676 659.5 668.5Q670 661 678 658Q687 655 710.5 628.5Q734 602 734 595Q734 592 748.0 570.5Q762 549 762 544Q762 543 766.0 533.5Q770 524 775.5 506.0Q781 488 784 468Q785 453 788 446Q794 436 795.0 422.5Q796 409 796 339Q796 337 790.5 319.0Q785 301 784 291Q784 278 780 278Q778 278 774.0 261.5Q770 245 766 243Q764 242 758.0 229.0Q752 216 740.5 198.0Q729 180 716 168Q694 148 688 141Q681 133 676 133Q674 133 653.5 120.0Q633 107 626 106Q615 104 577.0 89.0Q539 74 532 74ZM442 131Q445 131 461.0 132.0Q477 133 501.0 135.5Q525 138 542.5 142.5Q560 147 560 154Q560 159 570.5 160.0Q581 161 598.5 165.0Q616 169 628 180Q644 194 648 194Q656 194 670.5 210.0Q685 226 697.5 242.5Q710 259 710 259Q716 259 726.0 296.5Q736 334 736 352Q736 355 732.5 375.5Q729 396 728 424Q726 459 713.5 494.0Q701 529 690.0 546.5Q679 564 678 564Q674 564 674 571Q674 578 655.5 594.5Q637 611 630 611Q622 611 622 616Q622 620 614 620Q607 620 604 627Q596 641 542.5 653.5Q489 666 448 666Q424 666 388.5 658.5Q353 651 340 636Q333 629 313.0 617.5Q293 606 282 593Q258 567 250 559Q232 544 232 534Q232 528 213.0 509.5Q194 491 194 487Q194 485 187.0 467.0Q180 449 178 430Q177 411 170.5 371.5Q164 332 164 323Q164 316 168.5 298.5Q173 281 193.0 245.5Q213 210 246 185Q282 156 290 156Q293 156 342.5 143.5Q392 131 442 131Z" transform="translate(0.00,958.33) scale(0.9583,-0.9583)" fill="#000000" />
  <path d="M610 170 655 175Q700 180 719 180H722Q742 180 742 186Q742 190 728.5 205.0Q715 220 715 226Q715 230 709.0 234.5Q703 239 703 246Q703 249 685.5 269.5Q668 290 668 294Q668 299 644.5 337.5Q621 376 621 379Q621 384 606.0 403.0Q591 422 572.0 447.0Q553 472 547 489Q542 502 537.0 510.0Q532 518 529.5 521.0Q527 524 527 526Q527 531 506.0 561.5Q485 592 477 592Q475 592 465.5 574.5Q456 557 447.0 536.0Q438 515 438.0 507.0Q438 499 420.0 461.5Q402 424 396 400Q381 339 365.5 311.0Q350 283 347 269Q344 254 333.5 228.0Q323 202 309 154Q296 106 261 106H258Q254 107 246.0 107.5Q238 108 227.5 108.5Q217 109 199.0 109.5Q181 110 160 111Q127 112 113.0 113.0Q99 114 84.0 118.0Q69 122 64.0 129.5Q59 137 59 151Q59 167 71.0 177.5Q83 188 92.0 190.0Q101 192 105 192H106Q108 191 111.5 190.5Q115 190 119.5 189.5Q124 189 132.0 188.5Q140 188 149.5 187.5Q159 187 173.0 186.5Q187 186 203 186Q238 186 249.0 191.0Q260 196 260 211Q260 225 283.5 275.0Q307 325 307 329Q307 338 315.0 356.0Q323 374 329.0 378.0Q335 382 335.0 391.0Q335 400 330 403Q323 407 333 410Q343 414 355.5 453.0Q368 492 368 499Q368 504 374.5 513.5Q381 523 384 540Q386 553 388.0 558.0Q390 563 394.0 569.5Q398 576 402 590Q407 606 413.5 624.0Q420 642 423.0 651.0Q426 660 426 666Q426 671 423.5 679.0Q421 687 421 693Q421 707 429.5 716.0Q438 725 446 726L454 728Q458 728 474.0 717.5Q490 707 490 704Q490 700 508.5 679.0Q527 658 527 651Q527 647 528.5 645.0Q530 643 534.5 637.0Q539 631 544.0 621.0Q549 611 557.0 597.0Q565 583 569.5 574.5Q574 566 574.0 562.0Q574 558 582.0 545.5Q590 533 599.5 518.0Q609 503 612 497Q621 476 635.5 456.5Q650 437 659.5 427.0Q669 417 669 414Q669 408 673.0 399.5Q677 391 681.5 386.0Q686 381 687 381Q689 381 710.5 341.0Q732 301 739 299Q747 297 747 287Q747 276 775.5 247.0Q804 218 804 212Q804 207 822.5 184.0Q841 161 841 145Q841 127 823.0 116.0Q805 105 774 105Q767 105 758.0 106.0Q749 107 740 107Q719 107 682.5 102.5Q646 98 639 92Q631 85 620 85Q612 85 604.5 88.5Q597 92 597.0 95.0Q597 98 588.0 109.5Q579 121 579.0 130.0Q579 139 586.5 149.0Q594 159 601.5 164.5Q609 170 610 170Z" transform="translate(942.50,958.33) scale(0.9583,-0.9583)" fill="#000000" />
  <path d="M178 600Q178 613 172.0 629.5Q166 646 166 651Q166 660 178 675Q187 686 191.5 688.0Q196 690 206 688Q221 685 228.5 675.5Q236 666 237.0 657.5Q238 649 238 634V602Q238 561 244.0 524.5Q250 488 250 466Q250 451 248.0 418.5Q246 386 246 369Q246 369 246.0 367.0Q246 365 246.5 361.5Q247 358 247.5 353.0Q248 348 248.0 339.5Q248 331 248.5 321.0Q249 311 249.5 296.5Q250 282 250 266Q250 179 252 177Q260 168 392 168Q392 168 438.0 168.0Q484 168 532.0 168.5Q580 169 584 169Q698 169 704 167Q710 164 716 164Q722 163 728.0 144.5Q734 126 734 111Q734 109 733.0 103.5Q732 98 727.5 90.5Q723 83 716 83Q714 83 683.5 92.5Q653 102 624 102Q612 102 594.0 100.0Q576 98 562 98Q562 98 558.5 98.5Q555 99 548.0 99.5Q541 100 532.0 100.5Q523 101 510.5 101.5Q498 102 486 102Q485 102 480.5 102.0Q476 102 469.0 101.5Q462 101 454.5 100.5Q447 100 439.5 100.0Q432 100 428 100Q344 100 230 92L190 90L184 104Q180 114 180 131Q180 157 185.0 176.5Q190 196 190 218Q190 218 190.0 225.0Q190 232 190.0 242.5Q190 253 189.5 264.5Q189 276 188.5 287.0Q188 298 188 304Q188 326 190.0 374.0Q192 422 192 441Q192 517 178 540Q176 543 177.0 544.0Q178 545 180.0 545.5Q182 546 182.5 549.5Q183 553 180 562Q176 571 176 578Q176 581 177.0 588.5Q178 596 178 600Z" transform="translate(1885.00,958.33) scale(0.9583,-0.9583)" fill="#000000" />
  <path d="M342 672Q345 672 355.5 678.0Q366 684 393.0 690.5Q420 697 463 697Q487 697 550 690Q586 686 595.0 682.5Q604 679 619 663Q641 641 641 638Q641 634 648.0 634.0Q655 634 655 630Q655 626 676.0 610.0Q697 594 697 591Q697 589 703.0 576.5Q709 564 715.5 548.0Q722 532 723 521Q727 503 730 501Q734 498 734 448Q734 420 733.0 405.0Q732 390 730.0 388.0Q728 386 726.5 383.0Q725 380 725 374Q725 365 718.0 357.5Q711 350 711 346Q711 341 680.5 301.0Q650 261 650.0 257.0Q650 253 676.0 224.5Q702 196 702 194Q702 192 718.0 172.5Q734 153 734 146Q734 140 751.5 119.5Q769 99 769 85Q769 50 748 50Q726 50 715.0 59.0Q704 68 704 77Q704 82 686.5 103.0Q669 124 668 126Q663 140 624.0 182.5Q585 225 577 225Q577 225 574.5 222.5Q572 220 563.0 216.0Q554 212 538 210Q532 209 525.0 206.5Q518 204 504.5 202.5Q491 201 465 201Q413 201 370.5 206.0Q328 211 320 211Q307 211 291.5 190.0Q276 169 272 167Q266 166 266 156Q266 151 264.0 148.0Q262 145 256.5 139.5Q251 134 245 126Q240 118 229.5 105.5Q219 93 211.5 83.0Q204 73 202 66Q199 51 194 51Q187 51 163.0 56.5Q139 62 136 64Q133 67 131 85Q130 97 132.5 102.0Q135 107 145 115Q167 132 186.0 152.0Q205 172 209 184Q209 186 224.0 215.5Q239 245 242 247Q246 250 246.0 253.0Q246 256 234.5 264.0Q223 272 221.5 278.0Q220 284 202.0 305.5Q184 327 184 329Q184 331 177 340Q170 347 161.5 378.0Q153 409 153 427Q153 427 153.5 432.5Q154 438 154.0 445.5Q154 453 154 458Q154 475 173.5 510.5Q193 546 200 549Q213 554 226.5 578.0Q240 602 242 602Q244 602 288.0 637.0Q332 672 342 672ZM567 616Q544 628 527.0 631.0Q510 634 457 634Q428 634 416.0 627.5Q404 621 388 621Q353 621 308.5 590.0Q264 559 232.5 514.5Q201 470 201 435Q201 422 210.0 408.5Q219 395 219 390Q219 383 239.0 360.5Q259 338 268 334Q276 331 285.5 317.0Q295 303 301 302Q311 300 327.5 292.5Q344 285 351 278Q363 268 407.0 262.0Q451 256 483 256Q514 256 540.0 266.0Q566 276 579.5 286.5Q593 297 594 297Q600 297 611.0 306.0Q622 315 622 320Q622 322 624.5 324.0Q627 326 631.0 329.0Q635 332 643.0 344.0Q651 356 660 375Q672 399 675.0 409.0Q678 419 678 433Q678 455 675.0 471.0Q672 487 668.0 496.5Q664 506 653 528Q641 554 632.0 566.5Q623 579 619.0 579.5Q615 580 611.5 582.0Q608 584 604 591Q601 599 567 616Z" transform="translate(2827.50,958.33) scale(0.9583,-0.9583)" fill="#000000" />
  <path d="M 24.637998,12.488337 H 20.72216 q -1.48166,0 -2.54,-1.058333 -1.05833,-1.058333 -1.05833,-2.54 V 3.598338 q 0,-1.481667 1.05833,-2.54 Q 19.2405,4e-6 20.72216,4e-6 h 3.915838 V 0.846671 H 20.72216 q -1.13241,0 -1.94733,0.814917 -0.80433,0.804333 -0.80433,1.93675 v 5.291666 q 0,1.132417 0.80433,1.93675 0.81492,0.814917 1.94733,0.814917 h 3.915838 z" transform="translate(2398.81,0.00) scale(80.0747,80.0747)" fill="#000000" />
  <path d="M 75.014662,0.846671 V 4e-6 h 13.123333 v 0.846667 z m 0,11.641666 v -0.846666 h 13.123333 v 0.846666 z" transform="translate(-1635.08,0.00) scale(80.0747,80.0747)" fill="#000000" />
  <path d="M 75.014662,0.846671 V 4e-6 h 13.123333 v 0.846667 z m 0,11.641666 v -0.846666 h 13.123333 v 0.846666 z" transform="translate(-584.24,0.00) scale(80.0747,80.0747)" fill="#000000" />
  <path d="m 87.714667,4e-6 h 2.8575 q 1.481666,0 2.54,1.058334 1.058333,1.058333 1.058333,2.54 v 5.291666 q 0,1.481667 -1.058333,2.54 -1.058334,1.058333 -2.54,1.058333 h -2.8575 v -0.846666 h 2.8575 q 1.132416,0 1.93675,-0.814917 0.814916,-0.804333 0.814916,-1.93675 V 3.598338 q 0,-1.132417 -0.814916,-1.93675 -0.804334,-0.814917 -1.93675,-0.814917 h -2.8575 z" transform="translate(-550.34,0.00) scale(80.0747,80.0747)" fill="#000000" />
  <path d="M 595.87,550.10 C 595.50,550.42 566.99,575.00 551.00,575.00 C 547.02,575.00 494.88,565.66 451.28,522.07 C 396.85,467.64 378.77,386.47 365.41,311.18 C 349.34,315.90 332.80,319.04 314.61,319.04 C 295.26,319.04 250.00,311.77 229.40,305.11 C 203.86,296.85 171.86,278.36 171.86,237.51 C 171.86,164.16 230.95,107.91 327.73,103.04 C 328.16,103.02 328.58,103.00 329.00,103.00 L 356.41,103.00 C 377.43,95.92 401.74,100.33 412.84,94.15 C 415.58,92.62 418.55,91.65 421.58,91.24 C 421.58,91.24 771.58,43.24 771.63,43.23 L 778.42,92.76 L 432.57,140.19 C 408.36,151.46 381.57,146.36 370.91,150.96 C 367.75,152.32 364.38,153.00 361.00,153.00 L 329.65,153.00 C 309.99,154.05 221.81,162.99 221.81,238.52 C 221.81,255.46 256.88,261.47 282.99,265.41 C 308.26,269.23 308.26,269.23 315.84,269.23 C 348.82,269.23 372.62,253.00 385.00,253.00 C 397.23,253.00 407.55,261.81 409.62,273.68 C 429.34,386.85 447.69,492.12 548.02,523.20 C 555.88,518.51 562.84,513.02 568.99,506.87 C 592.69,483.17 605.34,448.15 606.00,411.78 L 606.00,356.00 C 606.00,355.23 609.87,316.36 616.39,279.60 C 618.49,267.77 628.80,259.00 641.00,259.00 C 652.15,259.00 661.72,266.32 664.89,276.62 C 667.93,286.51 668.69,296.07 668.69,305.02 C 668.69,314.37 667.72,326.17 667.72,337.16 C 667.72,343.74 668.11,342.82 668.11,356.54 C 668.11,435.29 648.73,514.62 641.91,588.11 C 640.24,610.23 639.95,632.76 639.95,655.71 C 639.95,656.06 640.03,690.03 640.03,690.27 C 640.03,706.05 640.03,707.05 638.00,711.81 C 613.73,768.83 541.79,776.22 484.51,782.10 C 452.90,785.35 445.40,786.88 445.01,786.92 C 438.76,787.41 432.55,787.64 426.39,787.64 C 357.33,787.64 290.00,758.24 226.75,758.24 C 221.50,758.24 216.32,758.45 211.21,758.90 L 211.17,758.90 L 206.79,709.10 C 213.77,708.49 220.70,708.21 227.56,708.21 C 297.31,708.21 364.80,737.62 427.19,737.62 C 431.50,737.62 435.76,737.47 439.97,737.16 C 472.21,731.88 516.07,730.66 548.70,721.56 C 568.64,716.00 583.29,707.79 590.03,696.14 C 590.03,694.20 590.04,692.24 590.04,690.29 C 590.04,689.94 589.96,655.02 589.96,654.79 C 589.96,621.95 589.96,595.98 595.87,550.10 Z" transform="translate(4497.12,100.00) scale(0.8000,0.8000)" fill="#000000" />
  <path d="M 184.24,533.83 C 184.24,625.71 260.73,704.65 353.68,712.97 C 386.01,711.86 464.94,701.15 535.02,628.63 C 537.22,626.35 539.76,624.84 545.35,619.26 C 562.88,601.72 575.03,577.42 588.80,548.64 C 589.72,541.69 590.16,535.23 590.16,529.19 C 590.16,400.93 382.04,405.91 331.67,275.00 C 330.56,272.11 330.00,269.06 330.00,266.00 C 330.00,262.47 337.91,210.91 383.37,165.45 C 429.90,118.93 496.36,96.16 561.36,96.16 C 574.48,96.16 587.54,97.08 600.36,98.93 C 602.73,98.85 605.61,98.80 608.75,98.80 C 626.95,98.80 648.41,99.18 654.71,118.07 L 656.73,124.12 L 611.20,139.30 L 616.21,146.16 L 622.71,149.41 C 620.15,149.03 612.31,148.88 606.38,148.88 C 602.05,148.88 599.07,149.00 599.00,149.00 C 594.46,149.00 583.23,146.21 562.12,146.21 C 508.64,146.21 454.28,165.26 418.73,200.81 C 401.61,217.92 388.57,238.85 381.34,264.00 C 428.37,362.57 640.09,367.23 640.09,529.57 C 640.09,529.95 639.99,557.54 635.55,566.81 C 616.30,606.98 601.26,638.38 569.96,664.42 C 538.90,696.29 463.48,759.87 353.72,762.98 C 353.48,762.99 353.24,763.00 353.00,763.00 C 351.34,763.00 269.86,761.28 202.01,693.43 C 160.55,651.98 134.24,595.37 134.24,533.91 C 134.24,524.93 134.80,515.85 135.96,506.70 C 135.90,504.18 135.87,501.68 135.87,499.18 C 135.87,417.44 167.52,344.27 178.02,270.18 C 178.19,252.24 180.44,234.48 180.44,218.20 C 180.44,212.86 180.00,206.12 180.00,206.00 C 180.00,199.53 186.50,179.43 186.50,146.18 C 186.50,141.31 186.35,136.42 186.05,131.52 L 235.95,128.46 C 236.31,134.39 236.49,140.29 236.49,146.17 C 236.49,167.20 234.22,187.81 230.17,207.78 C 230.37,211.46 230.45,215.07 230.45,218.61 C 230.45,222.78 227.84,274.86 227.76,275.42 C 217.14,352.79 185.87,425.83 185.87,499.48 C 185.87,503.48 186.00,507.91 186.00,508.00 C 186.00,511.91 184.24,519.34 184.24,533.83 Z" transform="translate(5547.97,100.00) scale(0.8000,0.8000)" fill="#000000" />
</svg>
