<?xml version="1.0" encoding="UTF-8" standalone="no"?>
<!--
Representation of "nasa" in sitelen ilo pona
Generated by generate_sitelen_kalama_pona.py

Description:
  Representation of "nasa" in sitelen ilo pona.
  Sources: nasa: https://commons.wikimedia.org/wiki/File:Sitelen_seli_kiwen_-_nasa.svg

Categories:
  [[Category:Sitelen kalama pona]]
  [[Category:Toki Pona text containing nasa]]

Sources:
  nasa: https://commons.wikimedia.org/wiki/File:Sitelen_seli_kiwen_-_nasa.svg
-->
<svg version="1.1" width="862" height="1000"
     viewBox="0 0 862 1000"
     xmlns="http://www.w3.org/2000/svg">
  <path d="M556 367Q556 384 530.0 412.0Q504 440 462 440L437 437Q431 434 425.0 419.0Q419 404 419 394Q419 388 425.0 372.0Q431 356 431 354L430 353Q428 353 432.0 349.0Q436 345 441.5 337.0Q447 329 447 322Q447 307 433 302Q427 300 425 305Q423 311 415 311Q406 311 393.0 321.0Q380 331 379 338Q378 344 372.5 370.0Q367 396 367 403Q367 416 380.0 442.0Q393 468 405 481Q423 502 453 502Q491 502 530.5 483.5Q570 465 583 440Q588 428 597 426Q603 425 612.0 407.0Q621 389 621 379Q621 374 624.0 367.0Q627 360 628.0 357.0Q629 354 626 353Q623 353 616.0 332.0Q609 311 604 311Q598 311 586.0 283.5Q574 256 565.0 253.0Q556 250 525 229Q510 219 467.5 201.5Q425 184 414 184Q406 184 399.0 188.5Q392 193 381.0 193.0Q370 193 346.0 200.5Q322 208 316 208Q307 208 307 212Q307 217 291.0 233.5Q275 250 271 250Q259 250 257.0 251.0Q255 252 257 257Q259 264 256 264Q255 264 247.5 276.5Q240 289 232.5 312.5Q225 336 225 358Q225 383 228.5 396.5Q232 410 232 422Q232 438 242.5 466.0Q253 494 259 494Q262 494 264.5 501.5Q267 509 273.5 521.5Q280 534 291 543Q309 559 325 575Q342 592 352 592Q359 592 366.0 596.5Q373 601 380.0 602.0Q387 603 400.0 611.5Q413 620 417.0 620.0Q421 620 446.0 631.0Q471 642 486 642Q499 642 530.5 633.5Q562 625 568 625Q582 625 624.0 599.0Q666 573 677 569Q696 563 696 555Q696 548 738 506Q765 480 772.5 469.0Q780 458 782 444Q786 423 790 423Q795 423 788 414Q786 410 786 409Q786 408 788.0 404.5Q790 401 791.5 391.0Q793 381 793 365Q793 318 786 301Q770 254 765.0 243.5Q760 233 745 217Q710 176 705 170Q692 153 667.0 133.5Q642 114 638 107Q631 95 587.5 80.0Q544 65 537 61Q522 52 481 52Q436 52 414.0 55.0Q392 58 338 72Q313 78 289.0 93.5Q265 109 251.0 121.0Q237 133 234 133Q232 133 213.5 149.0Q195 165 174.5 188.0Q154 211 150 224Q146 241 134.5 263.5Q123 286 115.0 314.5Q107 343 107 387Q107 440 113.0 459.5Q119 479 119 480Q119 492 123 494Q126 496 143 529Q156 556 163.5 566.5Q171 577 194 603Q225 637 254.5 661.5Q284 686 304.5 696.5Q325 707 340.5 713.0Q356 719 365.0 720.5Q374 722 375 724Q377 728 390.0 728.0Q403 728 468.0 743.5Q533 759 544 759Q567 759 583.0 752.5Q599 746 614 744Q638 742 666.0 730.5Q694 719 705 708Q718 695 723 695Q730 695 736.0 683.0Q742 671 742 658Q742 644 733.5 635.5Q725 627 716 626L708 624Q697 624 679.0 638.5Q661 653 657 653Q655 653 645.5 662.5Q636 672 622 675Q612 677 599.5 682.0Q587 687 572.5 689.5Q558 692 534 692Q491 692 428.5 668.0Q366 644 351 644Q345 644 342.0 642.0Q339 640 329.5 632.5Q320 625 304.0 617.0Q288 609 278.5 600.0Q269 591 265.0 587.0Q261 583 258 583Q253 583 228.5 560.0Q204 537 204 532Q204 528 196.5 520.5Q189 513 180.5 502.0Q172 491 164.5 462.5Q157 434 157 394Q157 363 160.0 342.0Q163 321 166.5 314.0Q170 307 173.0 302.0Q176 297 176 293Q176 282 213.0 240.0Q250 198 260 198Q264 198 293.0 175.0Q322 152 328 152L332 150Q335 149 341.5 146.5Q348 144 357.0 141.0Q366 138 378.5 135.0Q391 132 404.5 129.5Q418 127 435.0 125.5Q452 124 470 124Q501 124 533.5 135.5Q566 147 569 147Q600 147 698 261Q716 280 722.0 295.0Q728 310 728 334Q728 428 712 446L709 450Q706 453 701.0 458.5Q696 464 689.5 470.5Q683 477 676.0 484.0Q669 491 662.0 498.0Q655 505 649.0 510.5Q643 516 638.0 519.0Q633 522 631 522Q628 522 621.0 529.0Q614 536 607 536Q601 536 590.0 545.0Q579 554 570 556Q563 557 549.0 561.5Q535 566 515.5 569.5Q496 573 469 573Q439 573 429.0 566.0Q419 559 414 559Q407 559 384.0 547.0Q361 535 359 530Q358 527 351 527Q347 527 340.0 515.0Q333 503 326 501Q320 499 316.0 491.0Q312 483 306.5 470.5Q301 458 295 450Q288 442 285.5 437.0Q283 432 281.0 420.0Q279 408 279 387Q279 339 289 332L292 328Q296 323 301.5 316.5Q307 310 314.5 301.5Q322 293 333.0 285.0Q344 277 355.5 270.0Q367 263 382.0 259.0Q397 255 413 255Q426 255 431.0 259.5Q436 264 442 264Q454 264 473.5 274.5Q493 285 508 296L523 306Q526 306 536.0 325.5Q546 345 546 352Q546 358 551.0 358.0Q556 358 556 367Z" transform="translate(0.00,958.33) scale(0.9583,-0.9583)" fill="#000000" />
</svg>
