<?xml version="1.0" encoding="UTF-8" standalone="no"?>
<!--
Representation of "soweli Mi Piki" in sitelen ilo pona
Generated by generate_sitelen_kalama_pona.py

Description:
  Representation of "soweli Mi Piki" in sitelen ilo pona.
  Sources: soweli: https://commons.wikimedia.org/wiki/File:Sitelen_seli_kiwen_-_soweli.svg; mi: https://commons.wikimedia.org/wiki/File:Sitelen_kalama_pona_-_mi.svg; pi: https://commons.wikimedia.org/wiki/File:Sitelen_kalama_pona_-_pi.svg; ki: https://commons.wikimedia.org/wiki/File:Sitelen_kalama_pona_-_ki.svg

Categories:
  [[Category:Sitelen kalama pona]]
  [[Category:Toki Pona text containing soweli]]
  [[Category:Toki Pona text containing sound symbol Mi]]
  [[Category:Toki Pona text containing sound symbol Pi]]
  [[Category:Toki Pona text containing sound symbol Ki]]

Sources:
  soweli: https://commons.wikimedia.org/wiki/File:Sitelen_seli_kiwen_-_soweli.svg
  mi: https://commons.wikimedia.org/wiki/File:Sitelen_kalama_pona_-_mi.svg
  pi: https://commons.wikimedia.org/wiki/File:Sitelen_kalama_pona_-_pi.svg
  ki: https://commons.wikimedia.org/wiki/File:Sitelen_kalama_pona_-_ki.svg
-->
<svg version="1.1" width="5214" height="1000"
     viewBox="0 0 5214 1000"
     xmlns="http://www.w3.org/2000/svg">
  <path d="M39 176Q39 190 48.5 203.0Q58 216 71 216Q85 216 98 203L111 190L112 102V78Q112 28 107.5 13.0Q103 -2 80 -2Q66 -2 57.5 9.5Q49 21 49 41Q49 45 50.0 57.5Q51 70 51 85Q51 122 45.0 147.5Q39 173 39 176ZM206 188Q206 193 210.5 201.5Q215 210 215 214Q215 226 230 226Q232 226 236.5 224.0Q241 222 247.0 216.5Q253 211 258.0 202.5Q263 194 266.5 179.0Q270 164 270.0 145.0Q270 126 266.5 92.0Q263 58 263 47Q263 37 267.5 29.0Q272 21 266 14Q260 -2 237 -2Q235 -2 232.0 -1.5Q229 -1 220.0 0.5Q211 2 207.0 5.0Q203 8 198.5 14.0Q194 20 200 29Q212 51 212 123Q212 149 209.0 168.5Q206 188 206 188ZM393 218Q393 230 411 230Q422 230 431.0 225.0Q440 220 440 213Q440 207 446.5 202.0Q453 197 453 190Q453 184 446.0 165.0Q439 146 439 131Q439 119 436.0 104.5Q433 90 433 61Q433 47 434.0 38.5Q435 30 435.5 28.0Q436 26 436.5 24.5Q437 23 437 22Q437 16 428.0 9.5Q419 3 409 3Q408 3 399.0 4.5Q390 6 386 6Q367 6 367 41Q367 70 371 76Q377 84 381.0 142.5Q385 201 388 205Q393 210 393 218ZM367 526Q390 526 413.5 504.5Q437 483 437 464Q437 443 414 431Q394 421 389 416Q384 411 370.5 410.0Q357 409 354 413Q353 416 342.5 422.0Q332 428 323.0 436.5Q314 445 314 456Q314 472 326.5 497.0Q339 522 348 523Q350 523 357.0 524.5Q364 526 367 526ZM491 477Q491 498 502.5 518.5Q514 539 533 539Q546 539 568 528Q582 521 585.5 512.5Q589 504 589 473Q589 461 587.0 455.5Q585 450 576 442Q567 433 560.5 430.5Q554 428 537 428Q529 428 523.5 429.0Q518 430 509.5 434.0Q501 438 496.0 449.0Q491 460 491 477ZM570 238H584Q642 238 682 259Q701 269 739.0 306.5Q777 344 785 361Q793 377 793 414Q793 452 787.5 471.5Q782 491 773.5 505.5Q765 520 761 536Q758 549 727.5 580.5Q697 612 679 620Q666 625 656.5 632.5Q647 640 642.0 644.0Q637 648 632 648Q625 648 620 653Q613 661 491.5 664.5Q370 668 321 668Q311 668 272.0 666.0Q233 664 198.5 662.0Q164 660 163 660L85 656L72 670Q61 682 61 692Q61 701 72 712Q81 721 104.0 723.0Q127 725 256 726Q272 726 287.0 726.5Q302 727 312.5 727.5Q323 728 332.0 728.0Q341 728 347.0 728.5Q353 729 357.5 729.5Q362 730 364.0 730.0Q366 730 366 730Q376 730 431.0 728.0Q486 726 555.0 721.5Q624 717 637 712Q654 705 657 708Q660 710 660 705Q660 700 666 700Q671 700 690.5 688.0Q710 676 718 674Q727 672 737.0 660.0Q747 648 751 648Q758 648 758 642Q758 636 779 619Q796 606 810.0 582.5Q824 559 824 546Q824 542 828.0 536.0Q832 530 837.5 515.0Q843 500 846 477Q848 466 850.0 458.5Q852 451 853.0 444.0Q854 437 854 419V398Q854 370 858 364Q863 358 858 358Q856 358 853.0 354.0Q850 350 841.5 335.5Q833 321 822 306Q813 294 808.5 285.5Q804 277 804.0 275.0Q804 273 803.0 272.0Q802 271 798 270Q794 268 794.5 263.0Q795 258 788 256Q782 254 754.0 226.5Q726 199 715 196Q706 194 700.0 189.0Q694 184 686 184Q681 184 665.5 177.5Q650 171 624 168Q595 165 590.0 158.5Q585 152 582 112Q581 94 579.0 79.5Q577 65 575.5 58.5Q574 52 574 50Q574 47 576 46Q579 44 578.5 30.0Q578 16 574 12Q571 9 540 9Q526 9 518.0 16.5Q510 24 509 31L507 38Q507 44 512.0 70.0Q517 96 517 104Q517 104 517.0 106.5Q517 109 516.0 114.0Q515 119 514.5 126.5Q514 134 513.5 145.5Q513 157 513 171Q513 189 514.0 197.0Q515 205 520.0 217.0Q525 229 537.5 233.5Q550 238 570 238Z" transform="translate(0.00,958.33) scale(0.9583,-0.9583)" fill="#000000" />
  <path d="M 24.637998,12.488337 H 20.72216 q -1.48166,0 -2.54,-1.058333 -1.05833,-1.058333 -1.05833,-2.54 V 3.598338 q 0,-1.481667 1.05833,-2.54 Q 19.2405,4e-6 20.72216,4e-6 h 3.915838 V 0.846671 H 20.72216 q -1.13241,0 -1.94733,0.814917 -0.80433,0.804333 -0.80433,1.93675 v 5.291666 q 0,1.132417 0.80433,1.93675 0.81492,0.814917 1.94733,0.814917 h 3.915838 z" transform="translate(-428.69,0.00) scale(80.0747,80.0747)" fill="#000000" />
  <path d="M 75.014662,0.846671 V 4e-6 h 13.123333 v 0.846667 z m 0,11.641666 v -0.846666 h 13.123333 v 0.846666 z" transform="translate(-4462.58,0.00) scale(80.0747,80.0747)" fill="#000000" />
  <path d="M 75.014662,0.846671 V 4e-6 h 13.123333 v 0.846667 z m 0,11.641666 v -0.846666 h 13.123333 v 0.846666 z" transform="translate(-3411.74,0.00) scale(80.0747,80.0747)" fill="#000000" />
  <path d="M 75.014662,0.846671 V 4e-6 h 13.123333 v 0.846667 z m 0,11.641666 v -0.846666 h 13.123333 v 0.846666 z" transform="translate(-2360.89,0.00) scale(80.0747,80.0747)" fill="#000000" />
  <path d="m 87.714667,4e-6 h 2.8575 q 1.481666,0 2.54,1.058334 1.058333,1.058333 1.058333,2.54 v 5.291666 q 0,1.481667 -1.058333,2.54 -1.058334,1.058333 -2.54,1.058333 h -2.8575 v -0.846666 h 2.8575 q 1.132416,0 1.93675,-0.814917 0.814916,-0.804333 0.814916,-1.93675 V 3.598338 q 0,-1.132417 -0.814916,-1.93675 -0.804334,-0.814917 -1.93675,-0.814917 h -2.8575 z" transform="translate(-2326.99,0.00) scale(80.0747,80.0747)" fill="#000000" />
  <path d="M 427.55,94.97 C 427.55,55.04 457.98,19.33 497.55,17.05 C 498.19,17.05 498.84,17.02 499.48,17.02 C 499.76,17.02 500.03,17.02 500.31,17.04 C 501.70,16.77 503.43,16.55 505.42,16.55 C 512.92,16.55 521.38,19.31 528.65,28.55 L 515.53,38.88 C 517.84,40.97 520.50,44.04 522.59,48.32 C 527.23,53.30 532.48,62.20 532.48,76.94 C 532.48,77.90 532.45,78.86 532.39,79.82 C 533.22,83.45 533.60,87.05 533.60,90.56 C 533.60,118.82 509.41,141.89 483.02,141.89 C 480.67,141.89 478.27,141.71 475.85,141.32 C 473.67,141.53 471.43,141.66 469.11,141.66 C 441.30,141.66 427.76,124.29 427.76,104.67 C 427.76,103.76 427.79,102.85 427.85,101.95 C 427.65,99.61 427.55,97.29 427.55,94.97  Z M 368.22,303.39 C 263.48,313.18 197.70,441.18 197.70,534.24 C 197.70,569.26 205.50,605.88 213.69,643.20 C 217.21,659.26 220.77,675.42 223.63,691.71 L 174.38,700.35 C 171.79,685.54 168.39,670.03 164.87,653.97 C 156.74,616.93 147.70,576.76 147.70,534.62 C 147.70,409.97 236.45,259.73 371.76,253.04 C 372.17,253.02 372.59,253.00 373.00,253.00 C 385.45,253.00 413.33,269.77 433.92,290.37 C 465.61,322.06 486.27,364.46 500.64,409.82 C 508.12,337.95 528.43,242.64 612.05,210.66 C 614.92,209.55 617.96,209.00 621.00,209.00 C 623.39,209.00 690.14,209.54 749.07,268.47 C 833.42,352.82 863.52,508.41 875.89,641.67 L 875.89,641.71 L 826.11,646.33 C 811.09,484.53 766.94,276.22 624.80,259.49 C 517.35,308.06 559.56,548.17 535.23,644.17 C 532.45,655.11 522.57,663.00 511.00,663.00 C 497.76,663.00 486.86,652.71 486.05,639.53 C 480.19,543.46 464.60,352.32 368.22,303.39 Z" transform="translate(1669.62,100.00) scale(0.8000,0.8000)" fill="#000000" />
  <path d="M 485.00,189.00 C 469.68,189.00 438.00,176.21 438.00,126.00 C 438.00,117.97 440.75,112.11 452.24,100.63 C 456.31,96.55 469.86,83.00 483.00,83.00 L 493.00,83.00 L 493.00,85.32 C 505.32,87.38 524.11,100.20 524.11,122.52 C 524.11,123.23 524.09,123.95 524.04,124.66 C 524.08,125.75 524.10,126.85 524.10,127.96 C 524.10,165.31 504.14,189.00 485.00,189.00  Z M 606.10,279.81 C 606.10,279.81 655.90,284.16 655.90,284.19 C 637.90,490.19 637.90,490.19 637.90,490.19 C 637.90,490.19 588.10,485.84 588.10,485.81 C 606.10,279.81 606.10,279.81 606.10,279.81  Z M 429.49,786.96 C 319.70,786.96 228.59,722.79 228.59,616.05 C 228.59,604.31 229.71,592.09 232.04,579.47 C 233.26,492.01 243.62,404.21 258.00,319.86 L 258.00,314.00 L 308.00,314.00 L 308.00,322.00 C 308.00,330.48 283.64,447.79 281.99,582.31 C 281.93,587.51 278.43,598.69 278.43,617.13 C 278.43,699.49 355.82,736.84 430.49,736.84 C 461.27,736.84 478.65,731.00 485.00,731.00 L 679.20,731.00 C 730.13,731.41 774.29,739.46 821.76,739.46 C 827.75,739.46 833.74,739.33 839.77,739.04 L 842.23,788.96 C 835.21,789.31 828.30,789.46 821.48,789.46 C 771.89,789.46 726.49,781.38 678.90,781.00 L 487.62,781.00 C 468.37,784.96 448.81,786.96 429.49,786.96  Z M 733.76,308.43 C 557.65,308.43 334.30,328.57 169.67,332.99 L 168.33,283.01 C 245.61,280.94 324.81,276.25 404.79,271.50 C 513.82,265.02 624.29,258.44 733.52,258.44 C 751.48,258.44 769.40,258.62 787.27,259.00 L 857.80,259.00 C 857.80,259.00 940.61,251.12 940.65,251.12 L 945.39,300.88 C 860.20,309.00 860.20,309.00 859.00,309.00 L 787.00,309.00 C 786.47,309.00 764.15,308.43 733.76,308.43 Z" transform="translate(2720.47,100.00) scale(0.8000,0.8000)" fill="#000000" />
  <path d="M 401.00,131.00 C 376.66,131.00 351.33,107.86 351.33,84.01 C 351.33,81.77 351.54,79.45 352.00,77.06 C 353.02,48.40 378.36,33.25 392.71,24.67 C 393.22,24.36 398.21,21.37 399.37,20.49 L 422.46,49.25 C 427.47,52.78 438.12,62.38 438.12,80.17 C 438.12,81.22 438.08,82.28 437.99,83.32 C 437.99,83.51 437.99,83.70 437.99,83.90 C 438.00,84.93 438.01,86.06 438.01,87.29 C 438.01,130.35 403.09,131.00 401.00,131.00  Z M 201.42,181.56 L 232.54,142.41 L 388.58,266.44 L 357.46,305.59 C 357.46,305.59 201.46,181.59 201.42,181.56  Z M 408.05,512.35 L 449.97,539.62 L 341.95,705.65 L 300.03,678.38 C 300.03,678.38 408.03,512.38 408.05,512.35  Z M 603.52,100.45 C 617.37,100.45 630.21,111.06 630.21,126.54 C 630.21,131.42 628.96,135.38 628.29,137.09 L 611.57,130.58 C 610.87,134.39 609.27,138.07 606.79,141.28 L 605.30,128.14 L 581.72,118.96 L 587.27,143.62 L 606.10,150.24 C 601.54,151.34 598.35,153.47 590.37,154.38 C 589.39,154.49 588.26,154.63 586.82,154.63 C 584.68,154.63 578.80,154.30 573.26,151.03 C 462.15,156.17 403.43,286.67 403.43,386.40 C 403.43,391.40 403.58,396.35 403.87,401.24 C 421.69,511.78 515.35,602.55 619.46,625.39 L 632.56,627.26 C 632.56,627.26 625.49,676.75 625.44,676.74 C 610.56,674.62 610.56,674.62 609.70,674.43 C 484.63,647.45 374.92,539.74 354.31,407.89 C 354.27,407.67 353.42,400.12 353.42,385.59 C 353.42,249.92 438.68,100.88 580.40,100.88 C 585.35,100.88 589.69,100.88 593.24,101.79 C 593.35,101.76 598.57,100.45 603.52,100.45 Z" transform="translate(3771.31,100.00) scale(0.8000,0.8000)" fill="#000000" />
</svg>
