<?xml version="1.0" encoding="UTF-8" standalone="no"?>
<!--
Representation of "loje jelo" in sitelen ilo pona
Generated by generate_sitelen_kalama_pona.py

Description:
  Representation of "loje jelo" in sitelen ilo pona.
  Sources: loje-jelo: https://commons.wikimedia.org/wiki/File:Sitelen_seli_kiwen_-_loje-jelo.svg

Categories:
  [[Category:Sitelen kalama pona]]
  [[Category:Toki Pona text containing loje jelo]]

Sources:
  loje-jelo: https://commons.wikimedia.org/wiki/File:Sitelen_seli_kiwen_-_loje-jelo.svg
-->
<svg version="1.1" width="862" height="1000"
     viewBox="0 0 862 1000"
     xmlns="http://www.w3.org/2000/svg">
  <path d="M666 383Q666 382 667.0 381.0Q668 380 668 377Q668 362 655.0 347.5Q642 333 612 310Q600 299 585.0 290.5Q570 282 564.0 277.0Q558 272 558 266Q558 257 578.5 233.5Q599 210 599 205Q599 202 607.0 196.5Q615 191 619 181Q625 167 644.5 141.0Q664 115 680.5 95.0Q697 75 697 73L712 56Q727 38 727 19Q727 -9 686 -9Q636 -9 510.5 1.0Q385 11 346 11Q323 11 304.0 9.0Q285 7 281 7Q266 7 250.5 19.5Q235 32 235.0 43.0Q235 54 242.0 66.0Q249 78 259 82Q271 87 271 103Q271 118 283 126Q301 138 347.5 183.5Q394 229 399 243Q401 252 391 253Q387 253 368.5 255.5Q350 258 326.0 265.0Q302 272 296 281Q289 292 282 292Q277 292 272.0 299.5Q267 307 261 309Q254 311 244.0 332.0Q234 353 232 353Q229 353 229.0 360.0Q229 367 221 367Q215 367 208.0 382.0Q201 397 201 409Q201 433 239.5 441.0Q278 449 316.5 449.0Q355 449 355 452Q355 453 343.0 460.5Q331 468 329 476Q327 482 313.5 498.5Q300 515 300 520V521L301 522Q304 526 298 525Q296 525 291 524Q276 520 271 521Q267 522 232 524Q173 529 173 556Q172 567 189 573Q187 573 190.5 577.5Q194 582 200.0 584.0Q206 586 217 583Q230 578 239 578Q249 578 259.5 581.5Q270 585 281.5 590.5Q293 596 299 598Q306 600 313 625Q317 644 332.5 665.0Q348 686 357.0 686.0Q366 686 366 701Q366 714 360.0 724.5Q354 735 354 741Q354 746 355.0 752.0Q356 758 364.5 768.5Q373 779 389 779Q402 779 410.0 761.5Q418 744 418 734V732Q417 729 417 727Q417 712 437.0 692.5Q457 673 489 665Q508 660 518.0 652.5Q528 645 528.5 639.0Q529 633 533.0 628.5Q537 624 547 624H552H560Q567 625 578.5 625.5Q590 626 603.0 626.0Q616 626 631.0 626.5Q646 627 657 627Q676 627 682.0 625.0Q688 623 695 615Q709 599 709 590Q709 571 667.5 566.5Q626 562 584.5 559.0Q543 556 543 542Q543 535 534.5 516.5Q526 498 523 498Q521 498 520.5 496.5Q520 495 519.5 492.5Q519 490 514.0 485.0Q509 480 500 475Q481 463 481 461Q481 455 575 455H664L675 439Q684 426 684 412Q684 399 675 391ZM490 575Q490 605 459.5 619.5Q429 634 402 634Q388 634 388 627Q388 622 378.5 617.5Q369 613 371 608L372 606V604Q372 600 365.5 586.0Q359 572 359 561Q359 542 375.5 523.0Q392 504 403 504Q418 504 445 520L472 536Q473 536 477.5 541.0Q482 546 486.0 556.0Q490 566 490 575ZM596 387Q572 393 491 393Q438 393 416.5 388.0Q395 383 333 382Q299 381 299.0 374.0Q299 367 304 367Q308 367 308 358Q308 351 320.5 340.5Q333 330 342 330Q345 330 354.5 323.5Q364 317 383 316Q399 315 417.0 312.5Q435 310 439 310Q466 310 475 325Q478 330 501 327Q506 326 514 326Q532 326 558.0 341.5Q584 357 593 367L609 384ZM500 224Q500 229 495.5 232.0Q491 235 486 236H482Q479 236 473.5 230.0Q468 224 468 220Q468 217 430.0 178.5Q392 140 390.0 134.0Q388 128 377.5 121.0Q367 114 363 107Q356 96 351 92Q345 88 356 84Q367 81 429.0 73.5Q491 66 547.0 60.5Q603 55 605 55Q615 53 617.5 53.0Q620 53 621.5 56.0Q623 59 621 66Q619 79 595.5 110.0Q572 141 566 154Q561 163 538.0 187.0Q515 211 508 214Q500 218 500 224Z" transform="translate(0.00,958.33) scale(0.9583,-0.9583)" fill="#000000" />
</svg>
