<?xml version="1.0" encoding="UTF-8" standalone="no"?>
<!--
Representation of "kulupu Jelo Masikokesa" in sitelen kalama pona
Generated by generate_sitelen_kalama_pona.py

Description:
  Representation of "kulupu Jelo Masikokesa" in sitelen kalama pona.
  Sources: kulupu: https://commons.wikimedia.org/wiki/File:Sitelen_seli_kiwen_-_kulupu.svg; je: https://commons.wikimedia.org/wiki/File:Sitelen_kalama_pona_-_je.svg; lo: https://commons.wikimedia.org/wiki/File:Sitelen_kalama_pona_-_lo.svg; ma: https://commons.wikimedia.org/wiki/File:Sitelen_kalama_pona_-_ma.svg; si: https://commons.wikimedia.org/wiki/File:Sitelen_kalama_pona_-_si.svg; ko: https://commons.wikimedia.org/wiki/File:Sitelen_kalama_pona_-_ko.svg; ke: https://commons.wikimedia.org/wiki/File:Sitelen_kalama_pona_-_ke.svg; sa: https://commons.wikimedia.org/wiki/File:Sitelen_kalama_pona_-_sa.svg

Categories:
  [[Category:Sitelen kalama pona]]
  [[Category:Toki Pona text containing kulupu]]
  [[Category:Toki Pona text containing sound symbol Je]]
  [[Category:Toki Pona text containing sound symbol Lo]]
  [[Category:Toki Pona text containing sound symbol Ma]]
  [[Category:Toki Pona text containing sound symbol Si]]
  [[Category:Toki Pona text containing sound symbol Ko]]
  [[Category:Toki Pona text containing sound symbol Ke]]
  [[Category:Toki Pona text containing sound symbol Sa]]

Sources:
  kulupu: https://commons.wikimedia.org/wiki/File:Sitelen_seli_kiwen_-_kulupu.svg
  je: https://commons.wikimedia.org/wiki/File:Sitelen_kalama_pona_-_je.svg
  lo: https://commons.wikimedia.org/wiki/File:Sitelen_kalama_pona_-_lo.svg
  ma: https://commons.wikimedia.org/wiki/File:Sitelen_kalama_pona_-_ma.svg
  si: https://commons.wikimedia.org/wiki/File:Sitelen_kalama_pona_-_si.svg
  ko: https://commons.wikimedia.org/wiki/File:Sitelen_kalama_pona_-_ko.svg
  ke: https://commons.wikimedia.org/wiki/File:Sitelen_kalama_pona_-_ke.svg
  sa: https://commons.wikimedia.org/wiki/File:Sitelen_kalama_pona_-_sa.svg
-->
<svg version="1.1" width="9417" height="1000"
     viewBox="0 0 9417 1000"
     xmlns="http://www.w3.org/2000/svg">
  <path d="M416 252Q416 226 407.0 204.5Q398 183 390.0 174.5Q382 166 380 166Q377 166 354 144Q332 124 310.5 115.5Q289 107 246 107Q172 107 138 138Q97 175 88.5 188.5Q80 202 80 234Q80 270 82.5 280.0Q85 290 92 296Q99 302 101.0 304.0Q103 306 103.5 307.5Q104 309 106.5 312.0Q109 315 120.5 326.0Q132 337 152 354Q178 379 238 379Q319 379 360 358Q386 344 401.0 315.0Q416 286 416 252ZM346 263Q346 280 338.0 291.0Q330 302 315.0 307.0Q300 312 286.0 313.5Q272 315 252 315Q214 315 189.5 302.0Q165 289 160 278Q155 264 148 264Q142 264 142 255Q142 241 153.5 220.0Q165 199 178 196Q182 195 207.5 185.5Q233 176 252 176Q279 176 295.0 187.5Q311 199 317.5 210.5Q324 222 326 222Q333 222 339.5 235.0Q346 248 346 263ZM820 263Q820 245 817.0 233.0Q814 221 811.0 217.5Q808 214 805.0 211.0Q802 208 802 204Q802 198 794.0 182.0Q786 166 784 166Q781 166 758.0 144.5Q735 123 728 123Q718 123 706.0 117.5Q694 112 694 108Q694 106 676 106Q625 106 598.0 116.0Q571 126 538 153Q527 162 522.0 168.5Q517 175 512.5 194.0Q508 213 508 244Q508 286 520 297Q540 313 540 340Q540 357 561.0 375.5Q582 394 600 394Q629 394 643.5 399.0Q658 404 682 404Q709 404 727.5 399.0Q746 394 760.5 379.5Q775 365 783.0 352.0Q791 339 806 310Q813 297 816 297Q820 297 820 263ZM666 182Q669 182 673.5 181.0Q678 180 680 180Q690 180 702.0 189.0Q714 198 716 198Q721 198 735.5 228.0Q750 258 750 269Q750 273 748 273Q746 273 741.0 285.0Q736 297 728.0 312.5Q720 328 710 335Q706 338 678 338Q653 338 642.0 335.5Q631 333 616 323Q604 316 590 310Q585 309 583.5 303.0Q582 297 582 281Q582 255 578 255Q574 255 574 251Q574 248 578.0 235.5Q582 223 582 217Q582 203 600.0 191.5Q618 180 633.0 176.0Q648 172 652 172Q656 172 659.0 177.0Q662 182 666 182ZM470 732Q500 732 527.0 722.5Q554 713 566.0 705.0Q578 697 578 695Q578 692 585.0 685.0Q592 678 602.0 665.0Q612 652 618 639Q628 617 636 611Q642 605 642 580Q642 520 602 484Q589 473 578.5 466.0Q568 459 563.5 457.0Q559 455 556.0 452.5Q553 450 552 444Q549 433 536 433Q525 433 494.0 431.5Q463 430 456 430Q419 430 398.5 438.0Q378 446 358 467Q338 487 330.0 504.0Q322 521 322 522Q308 538 308 579Q308 597 314 597Q317 597 320.0 603.0Q323 609 329.0 620.0Q335 631 344 640Q355 651 357.0 657.5Q359 664 352 670Q349 674 354 693L360 712L400 717Q430 721 442.0 726.5Q454 732 470 732ZM578 577Q578 607 539.0 641.5Q500 676 438 676Q428 676 428 668Q428 662 416.0 647.5Q404 633 404 626Q404 620 391.0 605.0Q378 590 378 573Q378 546 402 523Q414 510 421.0 507.5Q428 505 450 505Q464 505 474.0 504.0Q484 503 487 502L490 501Q504 501 541.0 528.0Q578 555 578 577Z" transform="translate(0.00,958.33) scale(0.9583,-0.9583)" fill="#000000" />
  <path d="M 24.637998,12.488337 H 20.72216 q -1.48166,0 -2.54,-1.058333 -1.05833,-1.058333 -1.05833,-2.54 V 3.598338 q 0,-1.481667 1.05833,-2.54 Q 19.2405,4e-6 20.72216,4e-6 h 3.915838 V 0.846671 H 20.72216 q -1.13241,0 -1.94733,0.814917 -0.80433,0.804333 -0.80433,1.93675 v 5.291666 q 0,1.132417 0.80433,1.93675 0.81492,0.814917 1.94733,0.814917 h 3.915838 z" transform="translate(-428.69,0.00) scale(80.0747,80.0747)" fill="#000000" />
  <path d="M 75.014662,0.846671 V 4e-6 h 13.123333 v 0.846667 z m 0,11.641666 v -0.846666 h 13.123333 v 0.846666 z" transform="translate(-4462.58,0.00) scale(80.0747,80.0747)" fill="#000000" />
  <path d="M 75.014662,0.846671 V 4e-6 h 13.123333 v 0.846667 z m 0,11.641666 v -0.846666 h 13.123333 v 0.846666 z" transform="translate(-3411.74,0.00) scale(80.0747,80.0747)" fill="#000000" />
  <path d="M 75.014662,0.846671 V 4e-6 h 13.123333 v 0.846667 z m 0,11.641666 v -0.846666 h 13.123333 v 0.846666 z" transform="translate(-2360.89,0.00) scale(80.0747,80.0747)" fill="#000000" />
  <path d="M 75.014662,0.846671 V 4e-6 h 13.123333 v 0.846667 z m 0,11.641666 v -0.846666 h 13.123333 v 0.846666 z" transform="translate(-1310.04,0.00) scale(80.0747,80.0747)" fill="#000000" />
  <path d="M 75.014662,0.846671 V 4e-6 h 13.123333 v 0.846667 z m 0,11.641666 v -0.846666 h 13.123333 v 0.846666 z" transform="translate(-259.19,0.00) scale(80.0747,80.0747)" fill="#000000" />
  <path d="M 75.014662,0.846671 V 4e-6 h 13.123333 v 0.846667 z m 0,11.641666 v -0.846666 h 13.123333 v 0.846666 z" transform="translate(791.65,0.00) scale(80.0747,80.0747)" fill="#000000" />
  <path d="M 75.014662,0.846671 V 4e-6 h 13.123333 v 0.846667 z m 0,11.641666 v -0.846666 h 13.123333 v 0.846666 z" transform="translate(1842.50,0.00) scale(80.0747,80.0747)" fill="#000000" />
  <path d="m 87.714667,4e-6 h 2.8575 q 1.481666,0 2.54,1.058334 1.058333,1.058333 1.058333,2.54 v 5.291666 q 0,1.481667 -1.058333,2.54 -1.058334,1.058333 -2.54,1.058333 h -2.8575 v -0.846666 h 2.8575 q 1.132416,0 1.93675,-0.814917 0.814916,-0.804333 0.814916,-1.93675 V 3.598338 q 0,-1.132417 -0.814916,-1.93675 -0.804334,-0.814917 -1.93675,-0.814917 h -2.8575 z" transform="translate(1876.40,0.00) scale(80.0747,80.0747)" fill="#000000" />
  <path d="M 595.87,550.10 C 595.50,550.42 566.99,575.00 551.00,575.00 C 547.02,575.00 494.88,565.66 451.28,522.07 C 396.85,467.64 378.77,386.47 365.41,311.18 C 349.34,315.90 332.80,319.04 314.61,319.04 C 295.26,319.04 250.00,311.77 229.40,305.11 C 203.86,296.85 171.86,278.36 171.86,237.51 C 171.86,164.16 230.95,107.91 327.73,103.04 C 328.16,103.02 328.58,103.00 329.00,103.00 L 356.41,103.00 C 377.43,95.92 401.74,100.33 412.84,94.15 C 415.58,92.62 418.55,91.65 421.58,91.24 C 421.58,91.24 771.58,43.24 771.63,43.23 L 778.42,92.76 L 432.57,140.19 C 408.36,151.46 381.57,146.36 370.91,150.96 C 367.75,152.32 364.38,153.00 361.00,153.00 L 329.65,153.00 C 309.99,154.05 221.81,162.99 221.81,238.52 C 221.81,255.46 256.88,261.47 282.99,265.41 C 308.26,269.23 308.26,269.23 315.84,269.23 C 348.82,269.23 372.62,253.00 385.00,253.00 C 397.23,253.00 407.55,261.81 409.62,273.68 C 429.34,386.85 447.69,492.12 548.02,523.20 C 555.88,518.51 562.84,513.02 568.99,506.87 C 592.69,483.17 605.34,448.15 606.00,411.78 L 606.00,356.00 C 606.00,355.23 609.87,316.36 616.39,279.60 C 618.49,267.77 628.80,259.00 641.00,259.00 C 652.15,259.00 661.72,266.32 664.89,276.62 C 667.93,286.51 668.69,296.07 668.69,305.02 C 668.69,314.37 667.72,326.17 667.72,337.16 C 667.72,343.74 668.11,342.82 668.11,356.54 C 668.11,435.29 648.73,514.62 641.91,588.11 C 640.24,610.23 639.95,632.76 639.95,655.71 C 639.95,656.06 640.03,690.03 640.03,690.27 C 640.03,706.05 640.03,707.05 638.00,711.81 C 613.73,768.83 541.79,776.22 484.51,782.10 C 452.90,785.35 445.40,786.88 445.01,786.92 C 438.76,787.41 432.55,787.64 426.39,787.64 C 357.33,787.64 290.00,758.24 226.75,758.24 C 221.50,758.24 216.32,758.45 211.21,758.90 L 211.17,758.90 L 206.79,709.10 C 213.77,708.49 220.70,708.21 227.56,708.21 C 297.31,708.21 364.80,737.62 427.19,737.62 C 431.50,737.62 435.76,737.47 439.97,737.16 C 472.21,731.88 516.07,730.66 548.70,721.56 C 568.64,716.00 583.29,707.79 590.03,696.14 C 590.03,694.20 590.04,692.24 590.04,690.29 C 590.04,689.94 589.96,655.02 589.96,654.79 C 589.96,621.95 589.96,595.98 595.87,550.10 Z" transform="translate(1669.62,100.00) scale(0.8000,0.8000)" fill="#000000" />
  <path d="M 465.44,167.91 C 432.23,167.91 400.97,147.23 400.97,111.94 C 400.97,109.21 401.17,106.45 401.59,103.66 C 401.20,100.67 401.02,97.69 401.02,94.72 C 401.02,66.23 417.87,33.05 448.66,29.30 C 448.67,29.14 448.68,29.06 448.68,29.06 L 450.07,29.15 C 450.61,29.11 451.16,29.07 451.71,29.04 C 465.05,30.75 477.97,30.17 484.28,32.08 C 512.10,40.52 536.45,65.06 536.45,94.79 C 536.45,96.81 536.34,98.86 536.10,100.96 C 536.14,101.94 536.16,102.92 536.16,103.91 C 536.16,137.97 511.76,167.28 479.03,167.28 C 477.99,167.28 476.94,167.25 475.88,167.19 C 472.42,167.67 468.93,167.91 465.44,167.91  Z M 455.48,79.62 C 454.05,81.72 451.13,87.02 451.13,95.21 C 451.13,99.17 452.00,99.64 452.00,104.00 C 452.00,108.84 450.64,111.66 450.64,112.96 C 450.64,113.25 455.41,117.85 465.72,117.85 C 470.10,117.85 470.84,117.00 475.00,117.00 C 476.95,117.00 479.69,117.39 479.73,117.39 C 482.11,117.39 486.14,109.21 486.14,103.14 C 486.14,102.13 486.00,101.63 486.00,100.00 C 486.00,97.04 486.47,95.74 486.47,94.64 C 486.47,89.74 478.69,83.61 471.86,80.71 L 455.48,79.62  Z M 208.00,154.00 L 258.00,154.00 L 258.00,661.62 L 711.63,673.01 C 711.63,673.01 710.38,722.99 710.37,722.99 C 232.37,710.99 232.37,710.99 232.37,710.99 C 218.81,710.65 208.00,699.57 208.00,686.00 L 208.00,154.00 Z" transform="translate(2720.47,100.00) scale(0.8000,0.8000)" fill="#000000" />
  <path d="M 522.00,558.00 C 522.00,558.14 521.73,566.22 521.73,572.30 C 521.73,584.12 522.48,594.41 525.00,603.00 L 477.02,617.06 C 472.64,602.14 471.66,587.63 471.66,574.12 C 471.66,568.77 471.81,563.59 471.97,558.60 C 471.09,547.25 470.72,536.08 470.72,525.05 C 470.72,464.30 482.14,406.66 482.14,348.98 C 482.14,342.62 482.00,338.85 482.00,338.00 C 482.00,336.47 482.27,333.61 482.27,327.81 C 482.27,232.28 405.65,104.59 308.07,100.98 C 287.06,100.20 287.06,100.20 286.79,100.20 C 199.98,100.20 129.26,141.64 97.83,286.69 C 74.28,395.40 79.55,527.94 71.91,622.04 L 22.09,617.99 L 22.09,617.96 C 29.63,525.03 24.03,391.17 48.98,276.04 C 66.30,196.08 112.34,50.25 287.76,50.25 C 317.75,50.25 377.94,50.25 441.13,113.44 C 497.05,169.35 532.28,252.44 532.28,327.17 C 532.28,330.91 532.19,334.63 532.01,338.33 C 532.10,341.97 532.14,345.60 532.14,349.21 C 532.14,410.00 520.73,467.35 520.73,525.49 C 520.73,542.54 522.00,557.67 522.00,558.00  Z M 503.68,361.35 C 513.06,336.93 546.33,255.47 629.36,255.47 C 636.20,255.47 643.24,256.04 650.48,257.24 C 753.85,268.91 788.18,355.43 802.57,401.96 C 828.62,486.23 830.28,589.08 848.98,652.94 C 849.66,655.24 850.00,657.62 850.00,660.00 L 850.00,708.00 L 800.00,708.00 L 800.00,663.53 C 773.06,567.33 779.47,405.33 712.11,337.97 C 695.42,321.28 674.43,310.14 644.27,306.85 C 630.12,305.30 630.12,305.30 628.03,305.30 C 609.34,305.30 595.54,312.49 582.92,325.11 C 560.64,347.39 543.89,390.03 533.87,437.20 C 521.40,495.81 518.69,558.66 517.28,592.44 C 516.12,620.45 515.90,625.72 508.15,633.47 C 505.02,636.59 498.32,640.84 490.10,640.84 C 487.33,640.84 467.92,639.96 464.28,615.73 C 462.26,602.27 461.58,587.67 461.58,572.31 C 461.58,555.15 462.43,537.03 463.22,518.46 C 464.06,498.61 464.87,478.30 464.87,458.73 C 464.87,367.02 445.25,331.52 402.27,324.87 C 397.57,324.56 393.02,324.40 388.63,324.40 C 352.32,324.40 276.29,332.40 250.66,463.04 C 244.69,493.49 242.38,526.44 242.38,558.52 C 242.38,583.23 243.75,607.44 245.88,629.63 L 196.12,634.41 C 193.85,610.78 192.32,584.90 192.32,558.14 C 192.32,473.76 207.33,379.47 263.75,323.05 C 294.19,292.61 336.34,274.45 389.51,274.45 C 428.86,274.45 481.87,289.08 503.68,361.35 Z" transform="translate(3771.31,100.00) scale(0.8000,0.8000)" fill="#000000" />
  <path d="M 463.00,119.00 C 450.73,119.00 395.37,101.32 395.37,62.11 C 395.37,52.70 398.92,44.22 403.57,38.02 L 401.79,32.06 L 413.64,28.51 C 420.12,24.04 428.56,21.00 435.00,21.00 C 435.85,21.00 436.71,21.05 437.56,21.14 C 438.47,20.87 439.92,20.51 442.59,20.51 C 451.27,20.51 456.09,23.30 458.35,24.77 C 468.23,25.64 476.86,28.46 484.18,35.78 C 491.41,43.00 494.18,52.76 494.18,61.57 C 494.18,62.64 494.14,63.69 494.06,64.73 C 494.16,66.89 494.27,69.36 494.27,72.08 C 494.27,96.97 482.63,119.00 463.00,119.00  Z M 519.20,142.62 C 563.42,142.62 590.00,165.34 590.00,186.00 L 590.00,194.00 L 541.73,194.00 C 542.00,195.38 542.27,196.76 542.95,197.74 C 540.81,196.28 532.41,192.66 518.53,192.66 C 517.38,192.66 516.28,192.69 515.24,192.74 C 463.42,206.95 389.46,253.45 389.46,318.95 C 389.46,354.12 424.15,384.23 455.23,411.20 C 494.33,445.13 540.22,484.96 540.22,550.82 C 540.22,566.94 536.74,607.11 505.05,638.79 C 474.37,669.47 423.97,688.31 335.16,688.31 C 319.56,688.31 306.63,688.20 257.34,684.94 C 257.34,684.94 260.63,635.06 260.66,635.06 C 291.88,637.12 312.69,638.24 335.52,638.24 C 401.15,638.24 490.24,628.10 490.24,550.46 C 490.24,509.06 462.15,483.41 422.49,449.00 C 387.42,418.56 349.44,385.60 340.39,334.38 C 340.36,334.23 339.47,328.38 339.47,318.99 C 339.47,229.47 426.73,164.12 504.67,143.81 C 506.02,143.46 510.20,142.62 519.20,142.62 Z" transform="translate(4822.16,100.00) scale(0.8000,0.8000)" fill="#000000" />
  <path d="M 426.34,506.44 L 451.67,549.56 L 291.66,643.56 C 290.58,644.20 289.45,644.75 288.31,645.21 C 288.31,645.21 258.31,657.21 258.27,657.22 L 239.69,610.79 L 267.95,599.49 L 426.34,506.44  Z M 220.32,92.24 L 249.64,51.73 C 403.26,162.90 403.26,162.90 404.68,164.32 L 426.68,186.32 L 391.32,221.68 L 370.74,201.10 C 370.74,201.10 220.36,92.27 220.32,92.24  Z M 412.42,1.79 C 425.88,-17.66 453.81,-37.10 480.37,-37.10 C 481.06,-37.10 481.75,-37.09 482.45,-37.07 C 483.56,-37.15 484.68,-37.19 485.81,-37.19 C 496.20,-37.19 526.13,-33.36 526.13,10.70 C 526.13,11.12 526.00,19.91 526.00,20.00 C 526.00,20.91 524.70,83.19 489.56,103.62 C 485.77,105.82 481.44,107.15 474.34,107.15 C 460.69,107.15 452.48,102.45 442.02,96.45 C 430.78,95.15 396.62,88.28 396.62,52.87 C 396.62,36.99 404.11,21.80 416.69,4.75 L 412.42,1.79  Z M 467.18,23.70 C 466.63,23.82 465.05,24.28 465.03,24.28 C 456.88,33.96 451.87,41.16 449.01,46.91 C 455.31,47.58 458.35,47.90 468.48,53.98 C 475.41,38.82 476.08,14.20 476.08,13.79 C 474.23,14.35 472.46,15.10 470.60,16.07 L 471.65,16.64 C 469.86,18.65 467.90,20.88 465.90,23.24 L 467.18,23.70  Z M 350.38,315.35 C 350.38,177.00 476.98,82.97 616.69,82.97 C 618.25,82.97 619.82,82.98 621.38,83.01 L 620.62,132.99 C 619.34,132.97 618.06,132.96 616.78,132.96 C 508.34,132.96 400.29,202.94 400.29,314.65 C 400.29,336.19 403.98,348.62 403.99,353.91 C 404.54,499.96 526.18,607.44 666.19,617.03 L 739.68,619.01 L 738.33,668.99 C 689.91,667.68 664.07,666.99 663.32,666.94 C 496.06,655.76 355.88,526.43 354.02,356.34 C 351.56,342.32 350.38,328.64 350.38,315.35 Z" transform="translate(5873.01,100.00) scale(0.8000,0.8000)" fill="#000000" />
  <path d="M 223.73,118.89 C 223.73,219.81 358.16,259.90 422.73,342.64 C 422.73,342.64 383.31,373.40 383.27,373.36 C 325.30,299.08 173.75,250.23 173.75,118.52 C 173.75,116.12 173.80,113.69 173.91,111.24 C 173.53,108.37 173.28,105.26 173.28,101.99 C 173.28,73.47 193.91,57.00 210.18,55.16 C 335.25,41.04 335.25,41.04 336.34,41.01 C 473.68,37.62 609.98,33.19 748.53,31.01 L 749.47,80.99 C 611.42,83.17 475.59,87.57 338.75,90.96 L 223.40,103.98 C 223.56,105.80 224.00,107.13 224.00,110.00 C 224.00,110.09 223.73,115.58 223.73,118.89  Z M 437.75,579.91 L 472.27,616.08 L 384.25,700.09 C 381.93,702.31 381.93,702.31 307.14,743.86 L 282.85,700.14 L 352.07,661.69 L 437.75,579.91  Z M 609.00,155.00 C 622.81,155.00 634.00,166.19 634.00,180.00 L 634.00,184.00 L 588.00,184.00 L 609.00,205.00 L 600.32,205.00 C 564.02,214.91 428.69,259.50 428.69,373.49 C 428.69,392.21 432.00,402.69 432.00,408.00 C 432.00,410.90 430.81,418.65 430.81,432.71 C 430.81,532.88 493.70,640.11 597.56,657.42 C 705.14,675.35 705.14,675.35 705.14,675.35 C 705.14,675.35 696.92,724.66 696.86,724.65 C 588.46,706.58 588.46,706.58 588.05,706.50 C 462.74,681.35 380.80,559.13 380.80,433.14 C 380.80,425.13 381.13,417.10 381.80,409.10 C 379.78,397.21 378.82,385.67 378.82,374.50 C 378.82,319.38 402.25,273.33 437.08,238.50 C 478.69,196.89 535.39,170.39 590.60,155.83 C 592.69,155.28 594.85,155.00 597.00,155.00 L 609.00,155.00 Z" transform="translate(6923.85,100.00) scale(0.8000,0.8000)" fill="#000000" />
  <path d="M 577.64,565.25 C 577.64,456.40 383.33,439.54 383.33,286.00 C 383.33,215.36 440.44,158.77 504.81,136.38 L 521.24,183.61 C 500.67,190.76 479.72,203.37 463.83,219.27 C 444.85,238.24 433.32,260.88 433.32,285.95 C 433.32,342.59 469.36,371.28 522.33,411.26 C 572.69,449.26 627.55,490.67 627.55,565.94 C 627.55,572.64 627.10,579.52 626.16,586.58 C 626.55,591.04 626.73,595.49 626.73,599.92 C 626.73,670.56 579.14,737.39 510.17,757.95 C 506.95,758.91 506.95,758.91 415.57,760.99 L 414.43,711.01 L 498.87,709.09 C 546.17,693.40 576.72,646.05 576.72,599.58 C 576.72,594.79 576.00,586.14 576.00,586.00 C 576.00,581.85 577.64,576.17 577.64,565.25  Z M 197.72,446.47 C 197.72,492.62 208.00,522.50 208.00,530.00 C 208.00,532.16 186.84,735.12 185.86,744.60 C 185.86,744.60 136.14,739.44 136.14,739.40 C 157.70,531.63 157.70,531.63 157.70,531.63 C 151.03,502.59 147.85,474.33 147.85,447.12 C 147.85,258.30 300.17,123.35 494.47,123.35 C 520.32,123.35 546.83,125.74 573.72,130.70 C 575.87,130.50 577.95,130.42 579.99,130.42 C 597.86,130.42 618.35,135.00 635.00,135.00 C 637.38,135.00 637.38,135.00 723.71,151.45 C 723.71,151.45 714.35,200.56 714.29,200.55 C 633.32,185.13 633.32,185.13 633.32,185.13 C 632.48,185.15 631.65,185.17 630.82,185.17 C 617.86,185.17 593.41,180.49 579.47,180.49 C 576.64,180.49 576.40,181.00 573.00,181.00 C 566.76,181.00 538.47,173.33 494.42,173.33 C 329.07,173.33 197.72,285.24 197.72,446.47 Z" transform="translate(7974.70,100.00) scale(0.8000,0.8000)" fill="#000000" />
</svg>
