<?xml version="1.0" encoding="UTF-8" standalone="no"?>
<!--
Representation of "kon Kami" in sitelen kalama pona
Generated by generate_sitelen_kalama_pona.py

Description:
  Representation of "kon Kami" in sitelen kalama pona.
  Sources: kon: https://commons.wikimedia.org/wiki/File:Sitelen_seli_kiwen_-_kon.svg; ka: https://commons.wikimedia.org/wiki/File:Sitelen_kalama_pona_-_ka.svg; mi: https://commons.wikimedia.org/wiki/File:Sitelen_kalama_pona_-_mi.svg

Categories:
  [[Category:Sitelen kalama pona]]
  [[Category:Toki Pona text containing kon]]
  [[Category:Toki Pona text containing sound symbol Ka]]
  [[Category:Toki Pona text containing sound symbol Mi]]

Sources:
  kon: https://commons.wikimedia.org/wiki/File:Sitelen_seli_kiwen_-_kon.svg
  ka: https://commons.wikimedia.org/wiki/File:Sitelen_kalama_pona_-_ka.svg
  mi: https://commons.wikimedia.org/wiki/File:Sitelen_kalama_pona_-_mi.svg
-->
<svg version="1.1" width="4163" height="1000"
     viewBox="0 0 4163 1000"
     xmlns="http://www.w3.org/2000/svg">
  <path d="M531 60Q522 60 505.0 73.5Q488 87 488 95Q488 101 497.0 114.5Q506 128 514 133Q538 151 605 218Q613 226 613.5 236.5Q614 247 620 250Q628 255 629.0 274.0Q630 293 631 295Q632 296 632 300Q632 316 611.0 348.5Q590 381 579 381Q574 381 563.0 391.5Q552 402 535.0 417.0Q518 432 504 440Q488 450 488 455Q488 459 481.5 470.5Q475 482 475 497Q475 513 479.0 531.5Q483 550 488.0 561.5Q493 573 497 573Q500 573 531.0 613.0Q562 653 564.0 653.0Q566 653 576.0 669.5Q586 686 588 686Q591 686 591.0 692.0Q591 698 609.0 708.0Q627 718 634 718Q642 718 654.0 710.0Q666 702 667 696Q668 687 668 677Q668 665 656 657Q641 647 623.5 629.0Q606 611 606 606Q606 602 573.0 565.0Q540 528 540 516Q540 512 543.5 505.5Q547 499 553.0 492.0Q559 485 566.5 477.0Q574 469 581.5 461.5Q589 454 597.0 447.0Q605 440 610.5 435.0Q616 430 620 427L624 424Q656 400 671.5 378.5Q687 357 691.5 339.5Q696 322 699 318Q701 314 701 297Q701 291 699.5 264.0Q698 237 698 235Q697 225 688.5 220.5Q680 216 680 211Q680 203 676 203Q671 203 669 195Q665 181 620.0 139.5Q575 98 575 95Q575 91 573 91Q570 91 566.5 81.5Q563 72 554 72Q544 72 539.0 66.0Q534 60 531 60ZM296 665Q296 678 330.0 702.5Q364 727 382 727Q385 727 388.5 720.5Q392 714 397 714Q406 714 406 698Q406 688 374.5 655.5Q343 623 343 618Q343 614 326.5 599.0Q310 584 310 580Q310 577 304.5 572.0Q299 567 293.5 557.0Q288 547 288 529Q288 518 299.0 500.0Q310 482 310.0 477.0Q310 472 326.5 463.0Q343 454 343 450Q343 445 376.0 411.0Q409 377 409 374L416 355Q424 336 424 302Q424 273 419.5 255.0Q415 237 409.5 227.0Q404 217 403 212Q402 202 388.0 186.0Q374 170 366 170Q357 170 357.0 161.0Q357 152 339.5 135.5Q322 119 300.0 102.5Q278 86 276 84Q267 75 243 78Q217 82 210 82Q199 82 199 97Q199 119 205.5 128.0Q212 137 221.5 138.5Q231 140 251.0 150.0Q271 160 290 180Q315 205 315 210Q315 214 325.5 223.0Q336 232 346.5 246.5Q357 261 357 278Q357 288 360.0 293.0Q363 298 363 301Q363 312 359.0 321.5Q355 331 348.5 343.0Q342 355 338 364Q331 384 299.5 401.0Q268 418 268 424Q268 427 257.0 439.0Q246 451 246 455Q246 463 244.5 466.5Q243 470 240.5 469.5Q238 469 236.5 470.5Q235 472 235.0 478.0Q235 484 231.0 484.0Q227 484 223.0 503.0Q219 522 219 536Q219 544 222.5 549.5Q226 555 226.0 562.0Q226 569 233.0 577.5Q240 586 242 596Q244 607 270.0 634.5Q296 662 296 665Z" transform="translate(0.00,958.33) scale(0.9583,-0.9583)" fill="#000000" />
  <path d="M 24.637998,12.488337 H 20.72216 q -1.48166,0 -2.54,-1.058333 -1.05833,-1.058333 -1.05833,-2.54 V 3.598338 q 0,-1.481667 1.05833,-2.54 Q 19.2405,4e-6 20.72216,4e-6 h 3.915838 V 0.846671 H 20.72216 q -1.13241,0 -1.94733,0.814917 -0.80433,0.804333 -0.80433,1.93675 v 5.291666 q 0,1.132417 0.80433,1.93675 0.81492,0.814917 1.94733,0.814917 h 3.915838 z" transform="translate(-428.69,0.00) scale(80.0747,80.0747)" fill="#000000" />
  <path d="M 75.014662,0.846671 V 4e-6 h 13.123333 v 0.846667 z m 0,11.641666 v -0.846666 h 13.123333 v 0.846666 z" transform="translate(-4462.58,0.00) scale(80.0747,80.0747)" fill="#000000" />
  <path d="M 75.014662,0.846671 V 4e-6 h 13.123333 v 0.846667 z m 0,11.641666 v -0.846666 h 13.123333 v 0.846666 z" transform="translate(-3411.74,0.00) scale(80.0747,80.0747)" fill="#000000" />
  <path d="m 87.714667,4e-6 h 2.8575 q 1.481666,0 2.54,1.058334 1.058333,1.058333 1.058333,2.54 v 5.291666 q 0,1.481667 -1.058333,2.54 -1.058334,1.058333 -2.54,1.058333 h -2.8575 v -0.846666 h 2.8575 q 1.132416,0 1.93675,-0.814917 0.814916,-0.804333 0.814916,-1.93675 V 3.598338 q 0,-1.132417 -0.814916,-1.93675 -0.804334,-0.814917 -1.93675,-0.814917 h -2.8575 z" transform="translate(-3377.84,0.00) scale(80.0747,80.0747)" fill="#000000" />
  <path d="M 235.77,643.31 C 235.77,651.79 236.00,656.96 236.00,658.00 L 236.00,704.00 L 186.00,704.00 L 186.00,658.38 C 185.85,653.24 185.78,648.11 185.78,643.00 C 185.78,589.09 193.92,537.14 201.71,486.75 C 204.73,467.20 207.71,447.87 210.22,428.73 C 210.91,423.48 212.27,424.09 212.27,414.93 C 212.27,414.74 211.69,397.42 211.69,396.83 C 211.69,389.56 211.69,389.56 215.39,367.94 C 217.73,354.27 220.20,339.84 222.06,327.75 C 223.09,292.37 228.16,260.48 228.16,227.82 C 228.16,223.01 228.00,218.10 228.00,218.00 C 228.00,213.64 229.45,210.87 229.45,189.48 C 229.45,188.94 228.50,136.10 228.50,135.56 C 228.50,104.77 228.50,20.54 303.91,11.20 C 304.93,11.07 305.97,11.00 307.00,11.00 C 417.90,11.00 500.44,96.50 559.09,160.73 L 572.68,174.32 L 537.32,209.68 C 522.91,195.27 522.91,195.27 522.52,194.84 C 464.36,131.12 395.62,62.39 308.58,61.01 C 288.87,64.03 278.57,79.66 278.57,136.86 C 278.57,156.11 279.53,174.47 279.53,190.46 C 279.53,200.32 279.18,209.97 278.04,219.26 C 278.12,222.22 278.15,225.16 278.15,228.08 C 278.15,264.05 272.86,296.47 271.99,330.64 C 271.82,337.02 261.71,389.45 261.71,396.59 C 261.71,402.78 262.37,409.14 262.37,415.72 C 262.37,422.05 261.80,429.41 259.51,437.37 C 256.96,456.56 254.02,475.57 251.11,494.44 C 243.30,544.98 235.77,594.40 235.77,643.31  Z M 543.81,527.98 L 582.22,559.99 L 484.07,677.76 L 477.36,691.19 L 432.63,668.82 C 436.42,661.91 439.21,654.17 443.78,648.01 C 443.78,648.01 543.78,528.01 543.81,527.98  Z M 733.00,639.00 C 733.15,639.00 740.71,639.31 747.60,639.31 C 757.58,639.31 797.07,639.31 818.26,623.81 C 818.26,623.81 847.78,664.17 847.74,664.19 C 833.58,674.56 805.84,689.32 748.28,689.32 C 742.85,689.32 737.68,689.20 732.83,689.01 C 731.20,689.05 729.57,689.07 727.95,689.07 C 665.32,689.07 582.68,659.26 527.28,529.52 C 507.20,482.51 495.14,432.68 488.32,389.97 C 488.28,389.75 487.39,382.24 487.39,368.25 C 487.39,245.04 565.29,108.32 695.60,101.04 C 696.06,101.02 696.53,101.00 697.00,101.00 L 727.00,101.00 L 727.00,151.00 L 697.73,151.00 C 592.35,157.37 537.41,278.21 537.41,369.06 C 537.41,373.82 537.56,378.52 537.86,383.15 C 548.86,451.23 591.53,639.08 727.73,639.08 C 729.89,639.08 732.95,639.00 733.00,639.00 Z" transform="translate(1669.62,100.00) scale(0.8000,0.8000)" fill="#000000" />
  <path d="M 427.55,94.97 C 427.55,55.04 457.98,19.33 497.55,17.05 C 498.19,17.05 498.84,17.02 499.48,17.02 C 499.76,17.02 500.03,17.02 500.31,17.04 C 501.70,16.77 503.43,16.55 505.42,16.55 C 512.92,16.55 521.38,19.31 528.65,28.55 L 515.53,38.88 C 517.84,40.97 520.50,44.04 522.59,48.32 C 527.23,53.30 532.48,62.20 532.48,76.94 C 532.48,77.90 532.45,78.86 532.39,79.82 C 533.22,83.45 533.60,87.05 533.60,90.56 C 533.60,118.82 509.41,141.89 483.02,141.89 C 480.67,141.89 478.27,141.71 475.85,141.32 C 473.67,141.53 471.43,141.66 469.11,141.66 C 441.30,141.66 427.76,124.29 427.76,104.67 C 427.76,103.76 427.79,102.85 427.85,101.95 C 427.65,99.61 427.55,97.29 427.55,94.97  Z M 368.22,303.39 C 263.48,313.18 197.70,441.18 197.70,534.24 C 197.70,569.26 205.50,605.88 213.69,643.20 C 217.21,659.26 220.77,675.42 223.63,691.71 L 174.38,700.35 C 171.79,685.54 168.39,670.03 164.87,653.97 C 156.74,616.93 147.70,576.76 147.70,534.62 C 147.70,409.97 236.45,259.73 371.76,253.04 C 372.17,253.02 372.59,253.00 373.00,253.00 C 385.45,253.00 413.33,269.77 433.92,290.37 C 465.61,322.06 486.27,364.46 500.64,409.82 C 508.12,337.95 528.43,242.64 612.05,210.66 C 614.92,209.55 617.96,209.00 621.00,209.00 C 623.39,209.00 690.14,209.54 749.07,268.47 C 833.42,352.82 863.52,508.41 875.89,641.67 L 875.89,641.71 L 826.11,646.33 C 811.09,484.53 766.94,276.22 624.80,259.49 C 517.35,308.06 559.56,548.17 535.23,644.17 C 532.45,655.11 522.57,663.00 511.00,663.00 C 497.76,663.00 486.86,652.71 486.05,639.53 C 480.19,543.46 464.60,352.32 368.22,303.39 Z" transform="translate(2720.47,100.00) scale(0.8000,0.8000)" fill="#000000" />
</svg>
