<?xml version="1.0" encoding="UTF-8" standalone="no"?>
<!--
Representation of "ilo mun li tawa sike" in sitelen kalama pona
Generated by generate_sitelen_kalama_pona.py

Description:
  Representation of "ilo mun li tawa sike" in sitelen kalama pona.
  Sources: ilo: https://commons.wikimedia.org/wiki/File:Sitelen_seli_kiwen_-_ilo.svg; mun: https://commons.wikimedia.org/wiki/File:Sitelen_seli_kiwen_-_mun.svg; li: https://commons.wikimedia.org/wiki/File:Sitelen_seli_kiwen_-_li.svg; tawa: https://commons.wikimedia.org/wiki/File:Sitelen_seli_kiwen_-_tawa.svg; sike: https://commons.wikimedia.org/wiki/File:Sitelen_seli_kiwen_-_sike.svg

Categories:
  [[Category:Toki Pona text containing ilo mun li tawa sike]]

Sources:
  ilo: https://commons.wikimedia.org/wiki/File:Sitelen_seli_kiwen_-_ilo.svg
  mun: https://commons.wikimedia.org/wiki/File:Sitelen_seli_kiwen_-_mun.svg
  li: https://commons.wikimedia.org/wiki/File:Sitelen_seli_kiwen_-_li.svg
  tawa: https://commons.wikimedia.org/wiki/File:Sitelen_seli_kiwen_-_tawa.svg
  sike: https://commons.wikimedia.org/wiki/File:Sitelen_seli_kiwen_-_sike.svg
-->
<svg version="1.1" width="4632" height="1000"
     viewBox="0 0 4632 1000"
     xmlns="http://www.w3.org/2000/svg">
  <path d="M411 266Q411 271 407.5 280.5Q404 290 404 294Q404 295 407.0 304.0Q410 313 411 330L412 356L384 359Q377 360 357 360Q281 360 281 353Q281 350 246 352Q238 353 226 353Q209 353 193.0 343.5Q177 334 161 334Q141 334 130.0 345.5Q119 357 119 367Q119 380 109 387Q102 393 100.0 398.0Q98 403 100 417Q102 432 108.5 448.0Q115 464 115 492Q115 514 112.5 591.5Q110 669 106 675Q104 679 106.0 688.0Q108 697 104 701Q96 711 96 724Q96 730 98.0 737.0Q100 744 110.5 752.5Q121 761 139 761Q164 761 164 765Q164 770 168 768Q171 767 298.0 760.5Q425 754 431 754Q451 754 474.0 757.0Q497 760 513 760Q536 760 574.5 755.5Q613 751 631 751Q645 751 685.0 753.0Q725 755 738 755Q761 755 770.0 741.0Q779 727 780 677Q786 494 788.5 456.0Q791 418 799 403Q804 391 804 383Q804 364 789.0 358.0Q774 352 734 352Q692 352 616.5 359.5Q541 367 515 367Q498 367 490.5 366.0Q483 365 481.5 363.0Q480 361 480 357Q480 346 477.5 311.0Q475 276 475 257Q475 217 481.0 184.0Q487 151 493.0 133.5Q499 116 499 111Q499 102 489.5 87.5Q480 73 461 73Q439 73 425.0 91.0Q411 109 409 138L408 160Q406 181 404.5 204.0Q403 227 403 230Q403 246 407.0 255.0Q411 264 411 266ZM387 698Q363 702 305 702Q272 702 251.5 699.0Q231 696 215 695Q186 694 179.5 682.5Q173 671 169 618Q166 573 166 536Q166 477 174 463Q180 445 182 437L188 415L226 417Q268 419 323 419Q369 419 399 422L416 424L414 500Q412 576 412 592Q412 614 413.0 628.0Q414 642 415.0 647.0Q416 652 416 654Q416 657 412 672Q408 688 404.5 692.0Q401 696 387 698ZM725 438Q725 441 723.5 445.0Q722 449 720.0 451.5Q718 454 717.0 456.5Q716 459 717.5 460.0Q719 461 723 461Q733 461 733 479Q733 484 729.0 515.0Q725 546 723 585Q719 657 710.0 672.0Q701 687 658 689Q639 690 624.0 693.0Q609 696 608.0 697.0Q607 698 603 696Q602 694 562 694H542L485 695L483 670Q482 651 477.0 627.5Q472 604 472 602V592Q473 581 474.5 564.0Q476 547 477.0 526.0Q478 505 478.5 479.0Q479 453 479 429Q479 423 501 426Q513 428 552 428Q566 428 586.0 427.0Q606 426 625.0 425.0Q644 424 660.5 422.5Q677 421 688 420L698 419Q725 419 725 438Z" transform="translate(0.00,958.33) scale(0.9583,-0.9583)" fill="#000000" />
  <path d="M366 427Q366 428 367.0 429.0Q368 430 368 432Q368 448 308 512Q291 530 254.0 537.5Q217 545 183.0 547.0Q149 549 144 552Q140 555 140 572Q140 586 152.0 601.0Q164 616 176 616Q182 616 203.5 632.0Q225 648 230 648Q238 648 273.0 671.0Q308 694 308 699Q308 705 314 705Q318 705 373.0 711.5Q428 718 432 718Q448 718 491.0 706.5Q534 695 556 685Q587 671 614 660Q635 653 652.5 642.0Q670 631 670 624Q670 618 686 602Q709 578 734.5 511.5Q760 445 760 402Q760 287 728 245Q689 191 678.5 177.0Q668 163 660 159Q657 157 638.5 141.0Q620 125 600.5 112.5Q581 100 566 100Q561 100 551.5 93.0Q542 86 532 86Q522 86 502 78Q484 70 404 70H324L278 90Q233 110 204.5 134.0Q176 158 176 176Q176 204 187.0 215.5Q198 227 222 227Q232 227 239.0 233.0Q246 239 256 239Q256 239 259.5 238.5Q263 238 264.5 238.0Q266 238 269.0 237.5Q272 237 274 237Q284 237 300 252Q314 264 340 284Q380 313 380 370Q380 382 373.0 403.5Q366 425 366 427ZM284 167Q284 166 286.0 163.0Q288 160 296.0 155.0Q304 150 317.5 146.0Q331 142 357.5 138.5Q384 135 418 135Q448 135 459.0 139.5Q470 144 486 145Q513 146 535.0 155.0Q557 164 567.5 172.0Q578 180 578 180Q584 180 608.5 203.0Q633 226 652 248Q672 273 679.5 286.0Q687 299 692.5 327.5Q698 356 698 408Q698 419 697.0 423.5Q696 428 694.5 429.5Q693 431 690.5 441.0Q688 451 686 470Q685 472 684.5 475.5Q684 479 684.0 480.0Q684 481 683.5 484.0Q683 487 682.5 487.5Q682 488 681.5 490.0Q681 492 680.5 492.5Q680 493 679.5 494.5Q679 496 677.5 497.5Q676 499 674.5 500.5Q673 502 672 504Q665 512 656.5 530.0Q648 548 630 569Q607 596 575.5 611.5Q544 627 480 642Q438 652 414 652Q383 652 351.5 642.5Q320 633 302.0 622.5Q284 612 284 606Q284 603 323.5 585.0Q363 567 366 554Q369 547 379.5 534.0Q390 521 390 518Q390 512 398 506Q410 499 422.0 473.5Q434 448 434 431Q434 416 438.0 395.5Q442 375 442 373L440 370Q440 369 436 303Q434 288 401.0 253.5Q368 219 368 218Q368 214 355.5 204.0Q343 194 338 194Q332 194 332 190Q332 186 317.5 178.0Q303 170 294 170Q284 170 284 167Z" transform="translate(942.50,958.33) scale(0.9583,-0.9583)" fill="#000000" />
  <path d="M281 756Q295 756 318.5 734.0Q342 712 359.0 691.0Q376 670 376 668Q376 665 384.0 657.0Q392 649 404.0 636.5Q416 624 423 615Q435 600 479.0 553.0Q523 506 531 501Q539 496 539 492Q539 488 585.5 446.0Q632 404 641 399Q647 396 649.0 391.5Q651 387 649 375Q648 360 638.0 348.0Q628 336 619.0 329.0Q610 322 610 317Q610 314 580.5 291.5Q551 269 549 269Q544 269 544.0 263.0Q544 257 533.5 246.5Q523 236 518 236Q512 236 512 231Q512 227 505 227Q501 227 495.0 216.5Q489 206 478 202Q465 197 465 191Q465 184 461 184Q457 184 441.5 169.0Q426 154 406.0 133.0Q386 112 378 105Q345 76 345 62Q345 50 339.0 42.0Q333 34 324.0 31.5Q315 29 309.5 28.0Q304 27 300 27Q286 27 273.0 35.5Q260 44 257 45Q250 48 250 58Q250 70 259.5 84.5Q269 99 282 106Q295 112 314.5 133.5Q334 155 340 160Q362 179 385.0 203.0Q408 227 408 230Q408 233 419.5 242.5Q431 252 451.0 268.5Q471 285 485 299Q537 352 550.0 366.0Q563 380 563 385Q563 387 549.5 399.5Q536 412 520.0 425.5Q504 439 502 441Q465 481 465 485Q465 488 418.0 535.0Q371 582 371 586Q371 589 354.5 600.5Q338 612 338 619Q338 626 294.5 666.5Q251 707 251 718Q251 730 260.0 743.0Q269 756 281 756Z" transform="translate(1885.00,958.33) scale(0.9583,-0.9583)" fill="#000000" />
  <path d="M284 89Q284 88 283.5 84.0Q283 80 281.5 73.0Q280 66 277.0 59.5Q274 53 268.0 48.5Q262 44 254 44Q242 44 203.0 55.5Q164 67 159 67Q155 67 150.0 71.0Q145 75 130.0 85.0Q115 95 93 106Q38 134 38 155Q38 164 52.0 173.5Q66 183 69 199Q71 213 84.5 223.0Q98 233 103 243Q108 254 120.5 269.0Q133 284 154 327Q159 338 171.5 353.5Q184 369 188 384Q194 405 197 405Q201 405 206.0 417.5Q211 430 211 438Q211 447 216 447Q218 447 220.0 451.5Q222 456 225.5 464.5Q229 473 235 480Q242 488 268.0 530.5Q294 573 299 578Q316 596 333.0 625.5Q350 655 355 673Q358 686 370.5 695.0Q383 704 393.5 708.5Q404 713 404 715Q404 719 414.0 730.5Q424 742 432 742Q436 742 450 735Q462 729 465.0 720.5Q468 712 472.0 686.5Q476 661 486 632L504 578Q511 555 550.0 480.0Q589 405 594 381Q597 366 610.5 337.0Q624 308 624 302Q624 298 633.5 281.5Q643 265 643 260Q643 256 657.5 224.0Q672 192 674 177Q679 145 699 143Q712 143 765 138Q820 133 832.0 130.5Q844 128 844 121Q844 116 853.0 116.0Q862 116 862 91Q862 82 858.0 74.0Q854 66 854 61Q854 50 818 50Q795 50 781.0 57.0Q767 64 735 64Q700 64 679.0 59.5Q658 55 657 55Q641 55 628.0 68.0Q615 81 615 97Q615 103 616.0 109.0Q617 115 617 121Q617 133 612.0 143.0Q607 153 607 160Q607 168 591.5 210.5Q576 253 571 259Q562 270 557.0 292.5Q552 315 539 340Q538 343 537.5 345.5Q537 348 537.0 350.0Q537 352 537.5 353.5Q538 355 538.0 356.5Q538 358 536.5 359.0Q535 360 533 361Q526 363 526 372Q526 389 512.0 425.0Q498 461 487.0 474.0Q476 487 462.0 514.0Q448 541 444 557Q441 571 428.0 600.5Q415 630 412 630Q410 630 403.0 616.0Q396 602 393 602Q392 602 376.5 579.0Q361 556 361 555Q361 551 344 534Q330 519 313.0 493.5Q296 468 286.5 449.0Q277 430 277.0 427.0Q277 424 267.5 410.5Q258 397 258 390Q258 381 254 381Q249 381 249 374Q249 369 237.5 348.5Q226 328 224 321Q221 311 216.0 311.0Q211 311 211 306Q211 303 208.5 299.0Q206 295 201.0 285.5Q196 276 191 263Q184 245 161.5 220.5Q139 196 139 183Q139 173 147.5 162.5Q156 152 164 152Q171 152 194.0 142.5Q217 133 219 133Q226 133 249.0 124.5Q272 116 272 113Q272 108 278.0 102.5Q284 97 284 89Z" transform="translate(2827.50,958.33) scale(0.9583,-0.9583)" fill="#000000" />
  <path d="M386 517Q390 517 406.0 525.0Q422 533 434 533Q444 533 461.0 529.0Q478 525 500.5 514.5Q523 504 542.0 489.0Q561 474 574.5 448.0Q588 422 588 391Q588 371 580.0 345.5Q572 320 565 320Q563 320 554.0 304.0Q545 288 542 288Q540 288 533.0 276.0Q526 264 520 264Q516 264 508.0 256.0Q500 248 484.0 240.5Q468 233 444 233Q423 233 403.0 241.5Q383 250 376 250Q358 250 324.0 271.5Q290 293 285 315Q285 316 273.5 343.5Q262 371 262 397Q262 419 270 419Q274 419 274 431Q274 441 286.0 458.0Q298 475 305 475Q311 475 325.0 483.5Q339 492 339.0 495.0Q339 498 359.5 507.5Q380 517 386 517ZM433 475Q420 475 413.5 472.5Q407 470 399 461Q385 447 377 447Q372 447 368.0 443.5Q364 440 356.5 432.5Q349 425 340 419Q329 411 327.5 407.0Q326 403 328 391Q332 367 348.0 347.0Q364 327 381 322Q387 321 404.5 310.5Q422 300 441 300Q472 300 500.0 330.0Q528 360 528 396Q528 425 497.0 450.0Q466 475 433 475ZM478 74Q477 74 462.0 70.0Q447 66 420 66Q394 66 351.5 73.5Q309 81 295 81Q285 81 274.0 87.5Q263 94 205 134Q191 143 182.0 152.0Q173 161 170.5 165.5Q168 170 165.0 172.5Q162 175 157 175Q147 175 147 180Q147 185 140.5 191.5Q134 198 129 198Q124 198 124 212Q124 222 119.0 229.0Q114 236 114 246Q114 259 111 259Q107 259 101.5 271.0Q96 283 98 287Q100 289 94.0 299.0Q88 309 92 314Q97 319 93 325Q90 329 90 400Q90 505 108 527Q112 532 119.0 553.0Q126 574 131 576Q136 578 145.0 592.0Q154 606 159 606Q164 606 178.5 622.5Q193 639 200.0 639.0Q207 639 225.5 653.0Q244 667 249 667Q255 667 271.0 682.5Q287 698 300 698Q312 698 330.0 703.0Q348 708 351 712Q355 717 378.5 726.5Q402 736 403 738Q404 739 409 739Q419 739 475.0 730.5Q531 722 559 720Q579 718 608.0 706.0Q637 694 642 693Q653 690 702.5 641.0Q752 592 752 585Q752 580 767.5 553.0Q783 526 787 499Q793 454 801.5 432.5Q810 411 810 402Q810 390 805.5 378.0Q801 366 801 364Q801 361 802.5 359.0Q804 357 804 352Q804 333 782.0 288.0Q760 243 737 217Q716 192 711 183Q705 173 690.0 164.5Q675 156 672 153Q669 149 657.0 143.0Q645 137 635.0 132.0Q625 127 625 124Q625 119 566.5 99.0Q508 79 508 75Q508 73 502 73Q499 73 490.5 73.5Q482 74 478 74ZM161 280Q161 274 175.0 254.5Q189 235 189 230Q189 226 194.0 223.0Q199 220 211.0 211.5Q223 203 234 189Q252 166 269 161Q284 156 302 146Q314 139 336.5 137.5Q359 136 429 136Q491 136 508 144Q515 148 543.5 158.5Q572 169 598.5 182.0Q625 195 644 212Q658 224 672.5 238.5Q687 253 695.0 261.0Q703 269 703 269Q708 271 716.0 287.5Q724 304 724 311Q724 320 728 320Q734 320 738.5 337.0Q743 354 743 370Q743 382 738.0 388.5Q733 395 739 404Q744 418 739 434Q735 445 731 473Q727 503 711.5 529.5Q696 556 675.5 578.5Q655 601 651 609Q647 616 636.0 622.0Q625 628 625.0 631.0Q625 634 614.0 641.0Q603 648 567.0 657.5Q531 667 480 670Q469 671 457.5 671.5Q446 672 438.5 672.5Q431 673 425.0 673.5Q419 674 415.5 674.5Q412 675 412 675Q404 675 399.0 671.0Q394 667 391.5 661.5Q389 656 379.0 651.0Q369 646 353 645Q329 643 318 639Q299 631 291 629Q280 625 253.5 608.0Q227 591 206.5 575.5Q186 560 185 558Q185 557 169.0 539.0Q153 521 151 510Q135 427 135 394Q135 372 143.5 348.5Q152 325 152.0 311.0Q152 297 156.5 290.5Q161 284 161 280Z" transform="translate(3770.00,958.33) scale(0.9583,-0.9583)" fill="#000000" />
</svg>
