<?xml version="1.0" encoding="UTF-8" standalone="no"?>
<!--
Representation of "akesi" in sitelen kalama pona
Generated by generate_sitelen_kalama_pona.py

Description:
  Representation of "akesi" in sitelen kalama pona.
  Sources: akesi: https://commons.wikimedia.org/wiki/File:Sitelen_seli_kiwen_-_akesi.svg

Categories:
  [[Category:Toki Pona text containing akesi]]

Sources:
  akesi: https://commons.wikimedia.org/wiki/File:Sitelen_seli_kiwen_-_akesi.svg
-->
<svg version="1.1" width="862" height="1000"
     viewBox="0 0 862 1000"
     xmlns="http://www.w3.org/2000/svg">
  <path d="M230 345Q250 345 250 365Q250 376 245.0 382.5Q240 389 240 396Q240 403 242 408L244 428L194 427H176Q135 427 121.5 432.5Q108 438 108 458Q108 474 119.0 484.0Q130 494 148 494Q161 494 181.0 496.5Q201 499 210 499Q217 499 226.5 498.0Q236 497 239.5 497.0Q243 497 248 498Q253 502 258.5 513.5Q264 525 264 533Q264 539 268.0 551.5Q272 564 278.0 578.0Q284 592 290.5 605.0Q297 618 301.5 627.0Q306 636 306 636Q306 640 320.0 652.5Q334 665 334 670Q334 673 344.0 681.0Q354 689 365 695L376 701Q383 704 408 704Q464 704 510 694Q541 687 550.0 682.0Q559 677 578 657Q606 630 606 623Q606 620 608.0 616.0Q610 612 613.5 606.5Q617 601 622.0 586.5Q627 572 632 551L640 508L686 506Q736 504 748.0 496.0Q760 488 760 456Q760 444 751.0 436.5Q742 429 733 427L724 425Q722 425 704.5 428.5Q687 432 676 432H670L654 430V374H720Q784 374 795.5 372.0Q807 370 813 359Q813 358 814 358Q820 344 820 336Q820 325 810 306Q803 292 799.5 290.0Q796 288 784 289Q775 291 761.5 298.5Q748 306 728 308Q723 309 706.0 311.0Q689 313 682 314L662 317L660 284Q658 250 654 236Q652 225 653.0 223.5Q654 222 660 224Q664 226 681.5 228.0Q699 230 712 237Q725 244 738 244Q748 244 759.0 241.5Q770 239 770 236Q770 231 776 231Q786 231 786 205Q786 176 774 168Q770 165 706 163L640 160L628 146Q614 131 614 125Q614 118 601.0 111.0Q588 104 576.0 91.0Q564 78 548.0 68.5Q532 59 502 52Q452 41 442 41Q432 41 416.0 49.5Q400 58 394 58Q374 58 347.5 79.5Q321 101 303.5 123.0Q286 145 286 151Q286 159 242 159Q230 159 215.0 156.0Q200 153 180 153Q156 153 144.0 156.5Q132 160 130.0 164.0Q128 168 128 177Q128 190 134 205Q140 221 148.5 225.0Q157 229 184 229Q206 230 217.0 232.0Q228 234 234 234H240Q254 233 256.0 235.5Q258 238 258 252Q258 274 251.0 279.0Q244 284 206 284H150Q131 284 121.5 284.5Q112 285 100.5 288.0Q89 291 84.5 298.0Q80 305 80.0 317.0Q80 329 93.0 338.5Q106 348 117.0 351.5Q128 355 130 355Q131 355 132.0 354.5Q133 354 135.5 353.0Q138 352 142.5 351.5Q147 351 155.5 350.0Q164 349 176 349Q196 349 208.0 348.0Q220 347 224.0 346.0Q228 345 230 345ZM540 603Q540 610 520.5 625.0Q501 640 480 640Q476 640 469.5 637.0Q463 634 438 634Q418 634 399.0 629.0Q380 624 380 619Q380 616 374 616Q371 616 365.5 608.0Q360 600 353.0 588.0Q346 576 340 570Q328 559 328 553Q328 548 319.0 530.0Q310 512 310 505Q310 498 314.5 497.0Q319 496 340 497Q359 498 374.0 499.5Q389 501 396 501Q416 501 449.0 498.5Q482 496 498 496Q515 496 544.5 501.0Q574 506 574 510Q574 521 560.5 559.0Q547 597 544 597Q540 597 540 603ZM590 417V436H488Q384 436 346 431L304 426L302 407Q300 390 304 373L306 356L342 360Q415 367 514 368L594 370L592 384Q590 400 590 417ZM602 293Q602 306 597.0 308.5Q592 311 568 311Q552 311 541.5 312.0Q531 313 527.0 314.0Q523 315 522 315Q522 315 520 314Q519 312 491.5 310.5Q464 309 430.5 306.5Q397 304 384 301Q366 296 340 296H314L316 272Q317 254 324 236L330 224L416 225Q462 226 510 226Q548 226 566 224L592 221V237Q592 249 597.0 267.5Q602 286 602 293ZM552 154Q552 157 484.0 160.0Q416 163 404 163Q372 163 372 152Q372 147 376 147Q378 147 379.5 145.0Q381 143 382.5 139.5Q384 136 392.0 129.5Q400 123 414 117Q437 106 448 106Q458 106 482.5 111.0Q507 116 516 120Q526 125 539.0 137.5Q552 150 552 154ZM222 644Q219 644 206.5 648.5Q194 653 179.0 666.0Q164 679 164 696Q164 731 200 747Q223 757 239.5 735.0Q256 713 256 692Q256 675 244.5 659.5Q233 644 222 644ZM642 740Q642 755 670 755Q689 755 705.5 745.0Q722 735 722 718Q722 708 726.0 703.0Q730 698 730 694Q730 676 711.0 661.0Q692 646 672 646Q660 646 646 658Q636 668 633.0 674.5Q630 681 630 698Q630 721 636.0 729.0Q642 737 642 740Z" transform="translate(0.00,958.33) scale(0.9583,-0.9583)" fill="#000000" />
</svg>
