<?xml version="1.0" encoding="UTF-8" standalone="no"?>
<!--
Representation of "ma kipisi Kenesi" in sitelen ilo pona
Generated by generate_sitelen_kalama_pona.py

Description:
  Representation of "ma kipisi Kenesi" in sitelen ilo pona.
  Sources: ma: https://commons.wikimedia.org/wiki/File:Sitelen_seli_kiwen_-_ma.svg; kipisi: https://commons.wikimedia.org/wiki/File:Sitelen_seli_kiwen_-_kipisi.svg; ke: https://commons.wikimedia.org/wiki/File:Sitelen_kalama_pona_-_ke.svg; ne: https://commons.wikimedia.org/wiki/File:Sitelen_kalama_pona_-_ne.svg; si: https://commons.wikimedia.org/wiki/File:Sitelen_kalama_pona_-_si.svg

Categories:
  [[Category:Sitelen kalama pona]]
  [[Category:Toki Pona text containing ma kipisi]]
  [[Category:Toki Pona text containing sound symbol Ke]]
  [[Category:Toki Pona text containing sound symbol Ne]]
  [[Category:Toki Pona text containing sound symbol Si]]

Sources:
  ma: https://commons.wikimedia.org/wiki/File:Sitelen_seli_kiwen_-_ma.svg
  kipisi: https://commons.wikimedia.org/wiki/File:Sitelen_seli_kiwen_-_kipisi.svg
  ke: https://commons.wikimedia.org/wiki/File:Sitelen_kalama_pona_-_ke.svg
  ne: https://commons.wikimedia.org/wiki/File:Sitelen_kalama_pona_-_ne.svg
  si: https://commons.wikimedia.org/wiki/File:Sitelen_kalama_pona_-_si.svg
-->
<svg version="1.1" width="6156" height="1000"
     viewBox="0 0 6156 1000"
     xmlns="http://www.w3.org/2000/svg">
  <path d="M152 340Q152 341 154.5 344.0Q157 347 156 359V367Q156 391 167.5 424.0Q179 457 192.5 485.0Q206 513 208 517Q213 534 245.0 555.5Q277 577 278 583Q280 589 289.0 594.0Q298 599 302 607Q305 615 318.0 619.5Q331 624 336 632Q340 639 350.0 644.0Q360 649 373.5 653.5Q387 658 394 661Q400 665 424 665Q455 665 491.0 659.0Q527 653 532 645Q536 640 548 640Q551 640 554 640Q576 640 606 621Q618 613 634 603Q645 598 671.5 565.5Q698 533 698 526Q698 520 705.0 515.5Q712 511 712 506Q712 499 718 495Q724 492 732.0 475.0Q740 458 740 450Q740 447 744.0 439.0Q748 431 748 405Q748 372 741.0 333.0Q734 294 725.5 269.5Q717 245 712 245Q712 245 704.5 230.5Q697 216 684.5 199.5Q672 183 660 178Q652 174 652 168Q652 161 646 161Q641 161 624 145Q606 129 570 121Q490 105 480 105Q464 105 452.5 93.0Q441 81 434 81Q423 81 406.0 88.0Q389 95 388 100Q386 108 356 116Q327 124 282.5 146.0Q238 168 238.0 174.0Q238 180 208.5 210.5Q179 241 176 255Q174 268 163.0 301.0Q152 334 152 340ZM390 461Q391 481 392.0 500.0Q393 519 394.5 532.5Q396 546 397.5 558.0Q399 570 400.5 578.0Q402 586 403.0 591.0Q404 596 405.0 599.0Q406 602 406 602Q406 606 400 606Q390 606 375.0 597.0Q360 588 354 578Q349 567 310.0 527.5Q271 488 270 482Q266 474 264 477Q261 479 256.0 475.5Q251 472 247.5 466.0Q244 460 244 456Q244 451 240.5 447.0Q237 443 233.5 441.0Q230 439 226.5 431.5Q223 424 222 411L220 390L232 399Q241 406 250 406Q251 406 275.5 402.0Q300 398 330 398Q386 398 388 408Q388 418 390 461ZM656 491Q656 496 644.0 508.0Q632 520 632 524Q632 530 615.5 542.5Q599 555 579.5 567.5Q560 580 558 583Q550 591 500 597Q493 598 488 599L474 601L472 572Q470 557 467.0 537.5Q464 518 462.0 498.5Q460 479 460 449Q460 414 464.5 407.5Q469 401 488 401Q531 401 570.0 405.5Q609 410 632.5 414.0Q656 418 660 418Q677 418 680.5 418.5Q684 419 684 422Q684 430 675.5 453.0Q667 476 662 480Q656 485 656 491ZM680 345Q680 353 664 353Q655 353 632.0 346.5Q609 340 576 337Q532 333 520 331Q513 331 496.5 333.5Q480 336 474 336Q468 336 466 334Q462 330 462 247Q462 168 468 168Q469 168 489.5 171.0Q510 174 532.5 179.0Q555 184 558 187Q563 194 572.5 194.0Q582 194 614.5 226.0Q647 258 652 272Q658 288 661.5 288.0Q665 288 672.5 311.5Q680 335 680 345ZM336 333Q318 333 302.5 334.0Q287 335 275.5 336.0Q264 337 254.0 338.5Q244 340 237.5 341.5Q231 343 226.5 344.0Q222 345 220.0 346.0Q218 347 218 347Q214 347 214 341Q214 336 218.0 317.0Q222 298 235.0 271.0Q248 244 266 236Q284 228 315.5 200.5Q347 173 370 172L388 171V334L340 333Z" transform="translate(0.00,958.33) scale(0.9583,-0.9583)" fill="#000000" />
  <path d="M722 192Q722 188 719.0 180.0Q716 172 716 166Q716 156 689.0 141.5Q662 127 641 127Q628 127 621.0 131.0Q614 135 600 149Q581 169 581 181Q581 206 599.0 230.0Q617 254 629 256Q645 258 650 258Q683 258 702.5 235.5Q722 213 722 192ZM327 539Q327 507 315.0 489.0Q303 471 295.0 468.5Q287 466 282 466Q271 466 251.5 476.0Q232 486 228 487Q205 495 205 541Q205 570 204 575Q201 588 208 588L224 599Q240 610 262 610Q280 610 304 587Q321 570 324.0 563.5Q327 557 327 539ZM285 172Q285 161 272 153Q258 144 248.0 135.5Q238 127 234.5 123.5Q231 120 227 120Q224 120 214.5 129.0Q205 138 193 141Q178 145 178 160Q178 170 188.0 180.5Q198 191 212.5 201.0Q227 211 231 216Q234 220 242.0 227.5Q250 235 272.5 258.0Q295 281 327 317Q362 356 411 402Q431 420 431 424Q431 426 445.0 436.0Q459 446 481.0 463.0Q503 480 517.0 496.0Q531 512 556.0 533.0Q581 554 606 584Q625 608 638.0 619.0Q651 630 656.0 632.0Q661 634 669 634Q686 634 696.0 620.0Q706 606 706 593Q706 576 689 567Q676 560 663.5 548.5Q651 537 651 532Q651 529 647 526Q626 512 589 475Q552 439 507.0 404.0Q462 369 446 348Q441 342 407.5 311.0Q374 280 368 267Q363 258 350.5 245.0Q338 232 328.0 222.5Q318 213 318.0 210.0Q318 207 301.5 194.5Q285 182 285 172Z" transform="translate(942.50,958.33) scale(0.9583,-0.9583)" fill="#000000" />
  <path d="M 24.637998,12.488337 H 20.72216 q -1.48166,0 -2.54,-1.058333 -1.05833,-1.058333 -1.05833,-2.54 V 3.598338 q 0,-1.481667 1.05833,-2.54 Q 19.2405,4e-6 20.72216,4e-6 h 3.915838 V 0.846671 H 20.72216 q -1.13241,0 -1.94733,0.814917 -0.80433,0.804333 -0.80433,1.93675 v 5.291666 q 0,1.132417 0.80433,1.93675 0.81492,0.814917 1.94733,0.814917 h 3.915838 z" transform="translate(513.81,0.00) scale(80.0747,80.0747)" fill="#000000" />
  <path d="M 75.014662,0.846671 V 4e-6 h 13.123333 v 0.846667 z m 0,11.641666 v -0.846666 h 13.123333 v 0.846666 z" transform="translate(-3520.08,0.00) scale(80.0747,80.0747)" fill="#000000" />
  <path d="M 75.014662,0.846671 V 4e-6 h 13.123333 v 0.846667 z m 0,11.641666 v -0.846666 h 13.123333 v 0.846666 z" transform="translate(-2469.24,0.00) scale(80.0747,80.0747)" fill="#000000" />
  <path d="M 75.014662,0.846671 V 4e-6 h 13.123333 v 0.846667 z m 0,11.641666 v -0.846666 h 13.123333 v 0.846666 z" transform="translate(-1418.39,0.00) scale(80.0747,80.0747)" fill="#000000" />
  <path d="m 87.714667,4e-6 h 2.8575 q 1.481666,0 2.54,1.058334 1.058333,1.058333 1.058333,2.54 v 5.291666 q 0,1.481667 -1.058333,2.54 -1.058334,1.058333 -2.54,1.058333 h -2.8575 v -0.846666 h 2.8575 q 1.132416,0 1.93675,-0.814917 0.814916,-0.804333 0.814916,-1.93675 V 3.598338 q 0,-1.132417 -0.814916,-1.93675 -0.804334,-0.814917 -1.93675,-0.814917 h -2.8575 z" transform="translate(-1384.49,0.00) scale(80.0747,80.0747)" fill="#000000" />
  <path d="M 223.73,118.89 C 223.73,219.81 358.16,259.90 422.73,342.64 C 422.73,342.64 383.31,373.40 383.27,373.36 C 325.30,299.08 173.75,250.23 173.75,118.52 C 173.75,116.12 173.80,113.69 173.91,111.24 C 173.53,108.37 173.28,105.26 173.28,101.99 C 173.28,73.47 193.91,57.00 210.18,55.16 C 335.25,41.04 335.25,41.04 336.34,41.01 C 473.68,37.62 609.98,33.19 748.53,31.01 L 749.47,80.99 C 611.42,83.17 475.59,87.57 338.75,90.96 L 223.40,103.98 C 223.56,105.80 224.00,107.13 224.00,110.00 C 224.00,110.09 223.73,115.58 223.73,118.89  Z M 437.75,579.91 L 472.27,616.08 L 384.25,700.09 C 381.93,702.31 381.93,702.31 307.14,743.86 L 282.85,700.14 L 352.07,661.69 L 437.75,579.91  Z M 609.00,155.00 C 622.81,155.00 634.00,166.19 634.00,180.00 L 634.00,184.00 L 588.00,184.00 L 609.00,205.00 L 600.32,205.00 C 564.02,214.91 428.69,259.50 428.69,373.49 C 428.69,392.21 432.00,402.69 432.00,408.00 C 432.00,410.90 430.81,418.65 430.81,432.71 C 430.81,532.88 493.70,640.11 597.56,657.42 C 705.14,675.35 705.14,675.35 705.14,675.35 C 705.14,675.35 696.92,724.66 696.86,724.65 C 588.46,706.58 588.46,706.58 588.05,706.50 C 462.74,681.35 380.80,559.13 380.80,433.14 C 380.80,425.13 381.13,417.10 381.80,409.10 C 379.78,397.21 378.82,385.67 378.82,374.50 C 378.82,319.38 402.25,273.33 437.08,238.50 C 478.69,196.89 535.39,170.39 590.60,155.83 C 592.69,155.28 594.85,155.00 597.00,155.00 L 609.00,155.00 Z" transform="translate(2612.12,100.00) scale(0.8000,0.8000)" fill="#000000" />
  <path d="M 500.12,250.98 C 500.12,266.60 488.23,277.00 475.00,277.00 L 430.66,277.00 C 421.38,278.19 412.09,278.78 402.87,278.78 C 305.15,278.78 221.25,213.09 221.25,116.66 C 221.25,111.79 221.46,106.85 221.91,101.84 C 221.86,101.00 221.84,100.16 221.84,99.32 C 221.84,87.34 226.25,62.22 262.02,55.21 C 278.19,52.04 290.50,53.53 307.42,51.84 C 311.03,49.95 315.02,49.00 319.00,49.00 L 479.40,49.00 C 516.08,44.39 565.48,42.96 603.53,42.96 C 607.52,42.96 611.39,42.98 615.10,43.00 L 793.52,43.00 C 793.52,43.00 826.06,39.18 826.10,39.17 L 831.94,88.82 C 796.48,93.00 796.48,93.00 795.00,93.00 L 614.80,93.00 C 611.58,92.97 608.22,92.96 604.76,92.96 C 524.98,92.96 482.77,99.00 481.00,99.00 L 324.85,99.00 C 311.17,104.12 290.64,101.46 271.88,104.41 C 271.49,108.44 271.21,112.08 271.21,117.12 C 271.21,187.97 336.92,228.76 403.29,228.76 C 417.73,228.76 425.09,227.00 429.00,227.00 L 462.83,227.00 C 465.66,225.64 469.24,224.34 474.33,224.34 C 485.17,224.34 500.12,232.64 500.12,250.98  Z M 488.60,269.54 L 463.02,237.57 L 450.20,248.88 L 457.07,267.18 L 488.60,269.54  Z M 650.69,544.79 C 650.69,432.61 589.60,305.59 476.21,273.16 C 415.29,277.72 374.75,357.44 367.98,413.63 L 363.99,714.33 L 314.01,713.67 C 318.02,410.42 318.02,410.42 318.16,409.18 C 327.86,323.18 388.89,225.48 478.31,223.01 C 478.54,223.01 478.77,223.00 479.00,223.00 C 483.13,223.00 544.05,234.34 601.33,291.62 C 666.50,356.79 700.69,452.64 700.69,544.26 C 700.69,551.68 700.12,559.07 700.02,566.43 C 699.90,574.74 700.38,583.17 700.38,591.66 C 700.38,651.69 694.37,715.06 681.31,769.83 C 681.31,769.83 632.68,758.23 632.69,758.17 C 644.58,708.29 650.37,647.85 650.37,591.00 C 650.37,576.63 650.00,567.18 650.00,566.00 C 650.00,563.97 650.69,556.91 650.69,544.79 Z" transform="translate(3662.97,100.00) scale(0.8000,0.8000)" fill="#000000" />
  <path d="M 463.00,119.00 C 450.73,119.00 395.37,101.32 395.37,62.11 C 395.37,52.70 398.92,44.22 403.57,38.02 L 401.79,32.06 L 413.64,28.51 C 420.12,24.04 428.56,21.00 435.00,21.00 C 435.85,21.00 436.71,21.05 437.56,21.14 C 438.47,20.87 439.92,20.51 442.59,20.51 C 451.27,20.51 456.09,23.30 458.35,24.77 C 468.23,25.64 476.86,28.46 484.18,35.78 C 491.41,43.00 494.18,52.76 494.18,61.57 C 494.18,62.64 494.14,63.69 494.06,64.73 C 494.16,66.89 494.27,69.36 494.27,72.08 C 494.27,96.97 482.63,119.00 463.00,119.00  Z M 519.20,142.62 C 563.42,142.62 590.00,165.34 590.00,186.00 L 590.00,194.00 L 541.73,194.00 C 542.00,195.38 542.27,196.76 542.95,197.74 C 540.81,196.28 532.41,192.66 518.53,192.66 C 517.38,192.66 516.28,192.69 515.24,192.74 C 463.42,206.95 389.46,253.45 389.46,318.95 C 389.46,354.12 424.15,384.23 455.23,411.20 C 494.33,445.13 540.22,484.96 540.22,550.82 C 540.22,566.94 536.74,607.11 505.05,638.79 C 474.37,669.47 423.97,688.31 335.16,688.31 C 319.56,688.31 306.63,688.20 257.34,684.94 C 257.34,684.94 260.63,635.06 260.66,635.06 C 291.88,637.12 312.69,638.24 335.52,638.24 C 401.15,638.24 490.24,628.10 490.24,550.46 C 490.24,509.06 462.15,483.41 422.49,449.00 C 387.42,418.56 349.44,385.60 340.39,334.38 C 340.36,334.23 339.47,328.38 339.47,318.99 C 339.47,229.47 426.73,164.12 504.67,143.81 C 506.02,143.46 510.20,142.62 519.20,142.62 Z" transform="translate(4713.81,100.00) scale(0.8000,0.8000)" fill="#000000" />
</svg>
