<?xml version="1.0" encoding="UTF-8" standalone="no"?>
<!--
Representation of "ijo ala" in sitelen kalama pona
Generated by generate_sitelen_kalama_pona.py

Description:
  Representation of "ijo ala" in sitelen kalama pona.
  Sources: ijo-ala: https://commons.wikimedia.org/wiki/File:Sitelen_seli_kiwen_-_ijo-ala.svg

Categories:
  [[Category:Sitelen kalama pona]]
  [[Category:Toki Pona text containing ijo ala]]

Sources:
  ijo-ala: https://commons.wikimedia.org/wiki/File:Sitelen_seli_kiwen_-_ijo-ala.svg
-->
<svg version="1.1" width="862" height="1000"
     viewBox="0 0 862 1000"
     xmlns="http://www.w3.org/2000/svg">
  <path d="M309 515Q309 529 318.0 538.5Q327 548 338 548Q341 548 344 547Q359 544 384.5 509.5Q410 475 414 475Q419 475 419 468Q419 462 422 462Q429 462 470.0 503.5Q511 545 529 545Q541 545 545.0 542.0Q549 539 555 526L563 506L547 487Q501 433 491 433Q486 433 480.5 425.0Q475 417 475 410Q475 407 527.5 348.5Q580 290 580 273Q580 264 570.0 255.5Q560 247 551 247Q549 247 548 247Q539 250 526 250Q514 250 492 280Q472 308 449.0 333.0Q426 358 420 358Q413 358 392.5 340.0Q372 322 369 307Q367 295 354.5 287.5Q342 280 327 280Q307 280 297.5 291.5Q288 303 288 313Q288 326 311.0 348.5Q334 371 334.0 374.0Q334 377 355.0 394.5Q376 412 376.0 414.0Q376 416 359.0 432.5Q342 449 325.5 472.5Q309 496 309 515ZM385 686Q395 686 405.0 694.5Q415 703 454 703Q496 703 546.0 696.0Q596 689 603 682Q608 677 616 677Q630 677 668.0 650.0Q706 623 716 606Q728 586 748 561Q755 552 767.5 512.5Q780 473 780 434Q780 383 768.5 342.5Q757 302 742.5 283.0Q728 264 716.5 249.0Q705 234 705 228Q705 225 697.5 220.0Q690 215 680.0 209.5Q670 204 667 200Q662 194 655.0 194.0Q648 194 648 190Q648 188 639.0 183.0Q630 178 617.0 170.5Q604 163 597 155Q587 143 568.5 139.0Q550 135 547 132Q536 122 446 122Q367 122 352 132Q349 135 327.5 142.0Q306 149 297 155Q290 159 284.5 161.5Q279 164 277.5 165.0Q276 166 272 171Q270 173 250.5 189.0Q231 205 226 217Q222 226 191.5 264.5Q161 303 161 311Q161 314 150.0 334.0Q139 354 139 357Q139 358 140 358Q141 358 136.5 367.5Q132 377 126.0 393.0Q120 409 120 422Q120 428 122 428Q123 428 125.5 448.0Q128 468 133.5 492.0Q139 516 149 524Q153 528 168.0 559.5Q183 591 202 597Q211 600 215.5 602.5Q220 605 223.0 607.5Q226 610 236.0 616.5Q246 623 262 632Q301 654 313 662Q349 686 385 686ZM203 507Q203 503 192.5 476.5Q182 450 182 429Q182 424 183.0 410.5Q184 397 188.5 378.0Q193 359 201 356Q208 354 208 349Q208 346 222.5 321.0Q237 296 267.5 261.5Q298 227 331 211Q383 185 434 185Q514 185 551 203Q575 214 590.0 228.0Q605 242 618 250Q637 262 659.0 282.5Q681 303 681 308Q681 310 692.0 326.0Q703 342 703 349Q703 362 708 370Q715 381 715 418Q715 421 715.0 427.5Q715 434 715 437Q715 493 705 506Q695 520 695 529Q695 539 660 574Q637 597 624.5 605.0Q612 613 589 621Q538 639 484 639Q470 639 461.0 637.0Q452 635 449.0 632.5Q446 630 444.0 628.0Q442 626 441.0 626.0Q440 626 438 627Q436 628 436 628Q435 628 433.0 626.0Q431 624 422.5 622.0Q414 620 398 620Q368 620 364 616Q363 615 321.5 593.5Q280 572 241.5 546.5Q203 521 203 507Z" transform="translate(0.00,958.33) scale(0.9583,-0.9583)" fill="#000000" />
</svg>
