<?xml version="1.0" encoding="UTF-8" standalone="no"?>
<!--
Representation of "jan li pana e wile pi jan lawa" in sitelen ilo pona
Generated by generate_sitelen_kalama_pona.py

Description:
  Representation of "jan li pana e wile pi jan lawa" in sitelen ilo pona.
  Sources: jan: https://commons.wikimedia.org/wiki/File:Sitelen_seli_kiwen_-_jan.svg; li: https://commons.wikimedia.org/wiki/File:Sitelen_seli_kiwen_-_li.svg; pana: https://commons.wikimedia.org/wiki/File:Sitelen_seli_kiwen_-_pana.svg; e: https://commons.wikimedia.org/wiki/File:Sitelen_seli_kiwen_-_e.svg; wile: https://commons.wikimedia.org/wiki/File:Sitelen_seli_kiwen_-_wile.svg; pi: https://commons.wikimedia.org/wiki/File:Sitelen_seli_kiwen_-_pi.svg; jan-lawa: https://commons.wikimedia.org/wiki/File:Sitelen_seli_kiwen_-_jan-lawa.svg

Categories:
  [[Category:Sitelen kalama pona]]
  [[Category:Toki Pona text containing jan li pana e wile pi jan lawa]]

Sources:
  jan: https://commons.wikimedia.org/wiki/File:Sitelen_seli_kiwen_-_jan.svg
  li: https://commons.wikimedia.org/wiki/File:Sitelen_seli_kiwen_-_li.svg
  pana: https://commons.wikimedia.org/wiki/File:Sitelen_seli_kiwen_-_pana.svg
  e: https://commons.wikimedia.org/wiki/File:Sitelen_seli_kiwen_-_e.svg
  wile: https://commons.wikimedia.org/wiki/File:Sitelen_seli_kiwen_-_wile.svg
  pi: https://commons.wikimedia.org/wiki/File:Sitelen_seli_kiwen_-_pi.svg
  jan-lawa: https://commons.wikimedia.org/wiki/File:Sitelen_seli_kiwen_-_jan-lawa.svg
-->
<svg version="1.1" width="6517" height="1000"
     viewBox="0 0 6517 1000"
     xmlns="http://www.w3.org/2000/svg">
  <path d="M342 672Q345 672 355.5 678.0Q366 684 393.0 690.5Q420 697 463 697Q487 697 550 690Q586 686 595.0 682.5Q604 679 619 663Q641 641 641 638Q641 634 648.0 634.0Q655 634 655 630Q655 626 676.0 610.0Q697 594 697 591Q697 589 703.0 576.5Q709 564 715.5 548.0Q722 532 723 521Q727 503 730 501Q734 498 734 448Q734 420 733.0 405.0Q732 390 730.0 388.0Q728 386 726.5 383.0Q725 380 725 374Q725 365 718.0 357.5Q711 350 711 346Q711 341 680.5 301.0Q650 261 650.0 257.0Q650 253 676.0 224.5Q702 196 702 194Q702 192 718.0 172.5Q734 153 734 146Q734 140 751.5 119.5Q769 99 769 85Q769 50 748 50Q726 50 715.0 59.0Q704 68 704 77Q704 82 686.5 103.0Q669 124 668 126Q663 140 624.0 182.5Q585 225 577 225Q577 225 574.5 222.5Q572 220 563.0 216.0Q554 212 538 210Q532 209 525.0 206.5Q518 204 504.5 202.5Q491 201 465 201Q413 201 370.5 206.0Q328 211 320 211Q307 211 291.5 190.0Q276 169 272 167Q266 166 266 156Q266 151 264.0 148.0Q262 145 256.5 139.5Q251 134 245 126Q240 118 229.5 105.5Q219 93 211.5 83.0Q204 73 202 66Q199 51 194 51Q187 51 163.0 56.5Q139 62 136 64Q133 67 131 85Q130 97 132.5 102.0Q135 107 145 115Q167 132 186.0 152.0Q205 172 209 184Q209 186 224.0 215.5Q239 245 242 247Q246 250 246.0 253.0Q246 256 234.5 264.0Q223 272 221.5 278.0Q220 284 202.0 305.5Q184 327 184 329Q184 331 177 340Q170 347 161.5 378.0Q153 409 153 427Q153 427 153.5 432.5Q154 438 154.0 445.5Q154 453 154 458Q154 475 173.5 510.5Q193 546 200 549Q213 554 226.5 578.0Q240 602 242 602Q244 602 288.0 637.0Q332 672 342 672ZM567 616Q544 628 527.0 631.0Q510 634 457 634Q428 634 416.0 627.5Q404 621 388 621Q353 621 308.5 590.0Q264 559 232.5 514.5Q201 470 201 435Q201 422 210.0 408.5Q219 395 219 390Q219 383 239.0 360.5Q259 338 268 334Q276 331 285.5 317.0Q295 303 301 302Q311 300 327.5 292.5Q344 285 351 278Q363 268 407.0 262.0Q451 256 483 256Q514 256 540.0 266.0Q566 276 579.5 286.5Q593 297 594 297Q600 297 611.0 306.0Q622 315 622 320Q622 322 624.5 324.0Q627 326 631.0 329.0Q635 332 643.0 344.0Q651 356 660 375Q672 399 675.0 409.0Q678 419 678 433Q678 455 675.0 471.0Q672 487 668.0 496.5Q664 506 653 528Q641 554 632.0 566.5Q623 579 619.0 579.5Q615 580 611.5 582.0Q608 584 604 591Q601 599 567 616Z" transform="translate(0.00,958.33) scale(0.9583,-0.9583)" fill="#000000" />
  <path d="M281 756Q295 756 318.5 734.0Q342 712 359.0 691.0Q376 670 376 668Q376 665 384.0 657.0Q392 649 404.0 636.5Q416 624 423 615Q435 600 479.0 553.0Q523 506 531 501Q539 496 539 492Q539 488 585.5 446.0Q632 404 641 399Q647 396 649.0 391.5Q651 387 649 375Q648 360 638.0 348.0Q628 336 619.0 329.0Q610 322 610 317Q610 314 580.5 291.5Q551 269 549 269Q544 269 544.0 263.0Q544 257 533.5 246.5Q523 236 518 236Q512 236 512 231Q512 227 505 227Q501 227 495.0 216.5Q489 206 478 202Q465 197 465 191Q465 184 461 184Q457 184 441.5 169.0Q426 154 406.0 133.0Q386 112 378 105Q345 76 345 62Q345 50 339.0 42.0Q333 34 324.0 31.5Q315 29 309.5 28.0Q304 27 300 27Q286 27 273.0 35.5Q260 44 257 45Q250 48 250 58Q250 70 259.5 84.5Q269 99 282 106Q295 112 314.5 133.5Q334 155 340 160Q362 179 385.0 203.0Q408 227 408 230Q408 233 419.5 242.5Q431 252 451.0 268.5Q471 285 485 299Q537 352 550.0 366.0Q563 380 563 385Q563 387 549.5 399.5Q536 412 520.0 425.5Q504 439 502 441Q465 481 465 485Q465 488 418.0 535.0Q371 582 371 586Q371 589 354.5 600.5Q338 612 338 619Q338 626 294.5 666.5Q251 707 251 718Q251 730 260.0 743.0Q269 756 281 756Z" transform="translate(942.50,958.33) scale(0.9583,-0.9583)" fill="#000000" />
  <path d="M231 198Q231 203 238.0 218.5Q245 234 245 242Q245 260 276.0 307.5Q307 355 308 359Q312 377 335.5 394.0Q359 411 378.5 419.5Q398 428 401 428Q412 428 423.5 431.0Q435 434 457 434Q484 434 502.0 430.0Q520 426 528.5 422.5Q537 419 540 419Q545 419 545.0 415.0Q545 411 562 405Q575 401 600.0 380.5Q625 360 625 353Q625 350 632.0 346.0Q639 342 639 336Q639 327 645 321Q653 312 665.0 269.5Q677 227 677.0 207.0Q677 187 683.5 153.5Q690 120 695 109Q700 100 695 100Q690 100 690.0 87.0Q690 74 685.5 69.0Q681 64 666 56Q653 50 650.0 49.5Q647 49 637 55Q628 60 628 70Q628 71 627.0 73.5Q626 76 625.0 81.5Q624 87 622.5 95.5Q621 104 620.0 121.5Q619 139 618 161Q617 223 609 240Q605 249 601.5 260.0Q598 271 596.0 277.0Q594 283 591 285Q587 287 587 296Q587 300 573.5 317.0Q560 334 537.5 352.0Q515 370 496 374Q486 376 473.5 381.5Q461 387 451 387Q431 387 407.5 377.0Q384 367 372 353L356 342Q339 332 339 325Q339 319 332.0 311.5Q325 304 325 299Q325 295 321.0 287.5Q317 280 313.5 274.5Q310 269 312 269Q313 269 308.5 261.5Q304 254 298.0 241.5Q292 229 292 221Q292 217 284.5 187.5Q277 158 277 138Q277 137 278.5 118.5Q280 100 280 90Q280 70 270.5 58.5Q261 47 255.0 45.5Q249 44 245 44Q234 44 221.0 53.5Q208 63 208 71Q208 77 202.0 84.5Q196 92 196 94Q195 105 190.5 119.0Q186 133 184 133Q180 133 161.0 158.0Q142 183 142 188Q142 190 128.0 203.0Q114 216 114 229Q114 241 122.5 248.5Q131 256 145 256Q158 256 189.5 222.0Q221 188 227 188Q231 188 231 198ZM135 556Q135 566 142.0 574.0Q149 582 162 582Q184 582 227.0 540.0Q270 498 273 498Q274 498 275.5 495.0Q277 492 278.5 487.0Q280 482 280 477Q280 459 259 459Q243 459 227.0 469.5Q211 480 192.5 496.5Q174 513 162 520Q135 536 135 556ZM599 482Q599 509 614.5 530.0Q630 551 666 583Q749 657 766 657Q771 657 778.5 649.5Q786 642 786 630Q786 612 763.5 589.5Q741 567 719.5 554.0Q698 541 696 541Q692 541 685.5 531.5Q679 522 674.0 522.0Q669 522 643.0 495.0Q617 468 608.0 468.0Q599 468 599 482ZM383 616Q383 622 383.5 632.0Q384 642 384 649Q384 672 379.5 686.0Q375 700 375 701Q375 707 380 717Q385 728 389.0 730.5Q393 733 403 732Q422 731 427 720Q428 717 426 715Q425 714 425.0 713.0Q425 712 433.0 702.5Q441 693 441 682Q441 680 438.0 649.5Q435 619 435 597Q435 560 421 560Q415 560 408.0 562.0Q401 564 392.0 578.0Q383 592 383 616Z" transform="translate(1885.00,958.33) scale(0.9583,-0.9583)" fill="#000000" />
  <path d="M156 75Q144 75 126.0 90.0Q108 105 108 115Q108 118 109.0 127.5Q110 137 114.5 149.5Q119 162 124 164Q131 166 151.5 186.0Q172 206 180 210Q192 216 207.0 231.5Q222 247 222 252Q222 260 253.5 283.0Q285 306 292 316Q298 327 314.5 339.0Q331 351 334 356Q336 363 359.5 386.0Q383 409 388 409Q392 409 392 418Q392 423 370.5 439.5Q349 456 342 456Q340 456 297.0 498.0Q254 540 246 543Q238 546 212.5 570.0Q187 594 170 602Q169 602 157.5 609.5Q146 617 133.0 629.5Q120 642 120 652Q120 667 124.0 671.0Q128 675 142 679Q166 685 168 685Q170 685 186.5 669.0Q203 653 208 653Q211 653 224.0 641.0Q237 629 257.0 610.5Q277 592 292 580Q303 573 310.5 566.5Q318 560 322.0 556.0Q326 552 328.5 549.5Q331 547 332.5 546.0Q334 545 336 545Q340 545 378.5 510.0Q417 475 426 472Q434 470 434 466Q434 463 452.5 453.5Q471 444 474 433Q475 427 475.5 422.5Q476 418 477.0 416.0Q478 414 478.0 412.5Q478 411 478.0 410.5Q478 410 478 410Q478 402 467.5 384.5Q457 367 452 367Q448 367 448 361Q448 357 431.0 344.5Q414 332 414 329Q414 324 410 327Q410 327 409.5 327.5Q409 328 408 328Q405 328 298 231Q229 168 204.5 142.0Q180 116 180 98Q180 90 172.0 82.5Q164 75 156 75ZM356 681Q356 693 366.0 704.0Q376 715 392 715Q412 715 449.0 686.0Q486 657 518.0 625.5Q550 594 554 592Q564 588 590.0 566.5Q616 545 637.5 526.5Q659 508 662 508Q664 508 672.5 495.5Q681 483 692 480Q700 477 715.0 465.5Q730 454 752 443Q792 423 792 399Q792 396 791.5 389.5Q791 383 790.5 380.0Q790 377 790 375Q793 373 789.5 367.5Q786 362 779.0 357.0Q772 352 766 351Q752 348 752 344Q752 342 739.0 335.5Q726 329 711.5 320.5Q697 312 694 306Q689 298 674.0 288.0Q659 278 656 275Q647 265 619.5 247.5Q592 230 562.5 207.0Q533 184 514 157Q508 147 502 147Q494 147 494.0 140.0Q494 133 490 133Q486 133 486 126Q486 122 482.0 119.0Q478 116 469.5 108.5Q461 101 454 89Q441 69 428 69Q417 69 400.5 87.5Q384 106 384 116Q384 130 398.5 143.5Q413 157 431.5 168.5Q450 180 454 186Q461 197 500.5 237.5Q540 278 544 278Q546 278 562.5 290.0Q579 302 582 302Q585 302 592.0 313.5Q599 325 604 325Q612 325 612 330Q612 334 618 334Q623 334 658 367L692 400L674 418Q660 431 639.5 443.0Q619 455 614 462Q610 468 600.0 475.0Q590 482 582.0 487.5Q574 493 574 497Q574 502 559.5 513.5Q545 525 518.0 544.0Q491 563 474 576Q443 602 408 627Q406 628 402 631Q383 645 375.5 651.5Q368 658 362.0 666.0Q356 674 356 681Z" transform="translate(2827.50,958.33) scale(0.9583,-0.9583)" fill="#000000" />
  <path d="M209 650Q209 657 225.5 671.5Q242 686 252 686Q259 686 271.5 675.0Q284 664 284 657Q284 649 270.0 624.0Q256 599 250 596Q241 592 241 586Q241 583 237.5 580.5Q234 578 221.5 566.0Q209 554 194 532Q182 515 171.5 501.0Q161 487 156.5 482.0Q152 477 148.5 472.0Q145 467 144.0 461.0Q143 455 131.0 427.0Q119 399 117 384Q115 371 109.0 343.5Q103 316 103 302Q103 290 106 269Q110 243 113.5 233.5Q117 224 129 212Q147 194 152.0 194.0Q157 194 157 187Q157 181 171.5 172.5Q186 164 210.5 157.0Q235 150 259 150Q284 150 299.5 157.0Q315 164 335 184Q357 205 362.0 219.0Q367 233 379 295Q381 307 396 321Q406 330 410.5 331.0Q415 332 426 328Q450 318 450 291Q450 287 448.5 273.5Q447 260 447 250Q447 231 456.0 216.0Q465 201 472.5 195.0Q480 189 482 189Q486 188 492 184L499 180Q518 168 555.5 159.5Q593 151 622 151Q636 151 667.5 164.5Q699 178 722.5 191.0Q746 204 747 205Q755 210 763.5 220.5Q772 231 781.5 257.0Q791 283 791 315Q791 363 766.0 420.5Q741 478 729 486Q721 491 719.5 494.0Q718 497 717.0 501.0Q716 505 698.5 525.5Q681 546 647 580Q613 615 613 623Q613 625 615.5 632.0Q618 639 626.5 647.0Q635 655 647 655Q671 655 710.0 614.0Q749 573 760 551Q767 536 776.0 525.5Q785 515 790.0 510.0Q795 505 795 502Q795 500 795.5 498.5Q796 497 797.0 496.0Q798 495 800.5 491.0Q803 487 806.0 481.0Q809 475 813.5 462.5Q818 450 824 433Q857 338 857 303Q857 289 849.0 269.5Q841 250 837 233Q833 218 829.5 211.0Q826 204 820.0 196.5Q814 189 809 179Q802 166 782.0 152.0Q762 138 751 138Q748 138 721.0 117.5Q694 97 668 93Q601 83 586 83Q574 83 544.0 94.0Q514 105 502 105Q491 105 460.0 123.0Q429 141 429 147Q429 154 414 154Q392 154 367 122Q337 83 236 83Q215 83 188.0 96.0Q161 109 157 109Q152 109 152.0 114.0Q152 119 143 119Q129 119 101.5 142.5Q74 166 64 187Q43 231 43 291Q43 314 49 323Q52 328 55.5 360.5Q59 393 63 398Q64 400 69.5 415.5Q75 431 82 438Q91 447 91 461Q91 471 96.0 477.5Q101 484 101 489Q101 495 116.5 517.0Q132 539 132 544Q132 551 138 552Q146 554 158.5 570.0Q171 586 171 594Q171 598 190.0 619.0Q209 640 209 650Z" transform="translate(3770.00,958.33) scale(0.9583,-0.9583)" fill="#000000" />
  <path d="M178 600Q178 613 172.0 629.5Q166 646 166 651Q166 660 178 675Q187 686 191.5 688.0Q196 690 206 688Q221 685 228.5 675.5Q236 666 237.0 657.5Q238 649 238 634V602Q238 561 244.0 524.5Q250 488 250 466Q250 451 248.0 418.5Q246 386 246 369Q246 369 246.0 367.0Q246 365 246.5 361.5Q247 358 247.5 353.0Q248 348 248.0 339.5Q248 331 248.5 321.0Q249 311 249.5 296.5Q250 282 250 266Q250 179 252 177Q260 168 392 168Q392 168 438.0 168.0Q484 168 532.0 168.5Q580 169 584 169Q698 169 704 167Q710 164 716 164Q722 163 728.0 144.5Q734 126 734 111Q734 109 733.0 103.5Q732 98 727.5 90.5Q723 83 716 83Q714 83 683.5 92.5Q653 102 624 102Q612 102 594.0 100.0Q576 98 562 98Q562 98 558.5 98.5Q555 99 548.0 99.5Q541 100 532.0 100.5Q523 101 510.5 101.5Q498 102 486 102Q485 102 480.5 102.0Q476 102 469.0 101.5Q462 101 454.5 100.5Q447 100 439.5 100.0Q432 100 428 100Q344 100 230 92L190 90L184 104Q180 114 180 131Q180 157 185.0 176.5Q190 196 190 218Q190 218 190.0 225.0Q190 232 190.0 242.5Q190 253 189.5 264.5Q189 276 188.5 287.0Q188 298 188 304Q188 326 190.0 374.0Q192 422 192 441Q192 517 178 540Q176 543 177.0 544.0Q178 545 180.0 545.5Q182 546 182.5 549.5Q183 553 180 562Q176 571 176 578Q176 581 177.0 588.5Q178 596 178 600Z" transform="translate(4712.50,958.33) scale(0.9583,-0.9583)" fill="#000000" />
  <path d="M357 401Q357 405 349.0 414.5Q341 424 333.0 440.0Q325 456 325 476Q325 509 334 518Q337 521 350.5 545.5Q364 570 379.0 591.0Q394 612 404 612Q404 612 410.0 609.0Q416 606 419 610Q430 619 443 619Q457 619 471.5 610.0Q486 601 494.0 592.0Q502 583 502 581Q502 576 513.0 565.5Q524 555 529 555Q536 555 559.0 542.0Q582 529 582 525Q582 522 583.5 515.0Q585 508 585 507Q585 499 575.5 492.0Q566 485 552 484Q543 483 539.5 478.0Q536 473 531 455Q526 437 519.5 426.0Q513 415 494 395Q458 359 437 359Q419 359 388.0 377.0Q357 395 357 401ZM453 550Q450 554 443.5 554.0Q437 554 437 550Q437 545 430 545Q421 545 421 541Q421 538 433 538Q454 538 454 546Q454 548 453 550ZM467 474Q469 482 465.5 485.5Q462 489 457 484Q454 481 423.0 477.0Q392 473 388 470Q388 469 388 468Q388 461 400.5 448.0Q413 435 423 435Q425 435 426 435Q436 438 450.0 451.5Q464 465 467 474ZM221 617Q221 629 240.0 647.5Q259 666 259 670Q259 673 261.0 674.5Q263 676 269.0 679.0Q275 682 283.0 686.0Q291 690 307.5 699.0Q324 708 343 721Q370 739 416 739Q434 739 453.5 735.5Q473 732 475 732Q480 732 482.0 734.0Q484 736 493 736Q500 736 518.5 734.0Q537 732 544 732Q552 732 554 734Q559 739 559 732Q559 726 568.5 720.0Q578 714 605 703Q642 688 692 630Q718 601 718 569Q718 562 720.0 558.5Q722 555 724.0 552.0Q726 549 728.0 534.0Q730 519 730 492Q730 428 722 414Q714 399 693.0 374.5Q672 350 656.0 331.5Q640 313 640 308Q640 299 658.0 270.0Q676 241 681 241Q683 241 687.5 232.5Q692 224 704.0 206.0Q716 188 732 171Q759 143 768.0 128.5Q777 114 777 94Q777 82 771.0 79.5Q765 77 750 77Q733 77 728.5 79.5Q724 82 714 96Q706 108 692.0 125.0Q678 142 664 163Q650 184 633.5 199.0Q617 214 613 222Q607 236 591.5 252.5Q576 269 568 269Q561 269 556.5 265.0Q552 261 549.0 255.5Q546 250 533.0 246.0Q520 242 498 242Q449 242 419.0 248.5Q389 255 372.5 261.5Q356 268 339 268Q320 268 320 259Q320 257 288 223Q258 192 225.5 149.0Q193 106 193 96Q193 91 180.0 86.0Q167 81 156 81Q144 81 139.5 90.5Q135 100 130 100Q124 100 123.0 109.0Q122 118 127 121Q132 124 132 133Q132 140 148.5 158.0Q165 176 165 178Q165 181 179.0 193.5Q193 206 193 209Q193 210 209.5 229.5Q226 249 242.5 272.0Q259 295 259 306Q259 310 246.5 324.5Q234 339 230 348Q225 362 216.0 414.5Q207 467 207 486Q207 520 210.5 550.0Q214 580 217.5 597.5Q221 615 221 617ZM268 566Q268 556 263.0 538.0Q258 520 258 508Q258 483 267.0 439.5Q276 396 284 386Q292 376 293 371Q295 365 309.5 359.5Q324 354 327 351Q334 343 385.0 328.0Q436 313 471 313Q512 313 565 343Q594 360 604.0 371.0Q614 382 618.5 393.5Q623 405 636 417Q650 430 660.5 450.5Q671 471 671 485Q671 489 668.0 497.5Q665 506 664 520Q661 575 633 603Q615 621 615 630Q615 641 600.0 647.5Q585 654 567.0 658.0Q549 662 546 664Q539 670 509.5 674.5Q480 679 442 679Q408 679 390.5 673.5Q373 668 370 668Q364 668 347.0 657.5Q330 647 321 638Q268 584 268 566Z" transform="translate(5655.00,958.33) scale(0.9583,-0.9583)" fill="#000000" />
</svg>
