<?xml version="1.0" encoding="UTF-8" standalone="no"?>
<!--
Representation of "nasin telo Utun" in sitelen ilo pona
Generated by generate_sitelen_kalama_pona.py

Description:
  Representation of "nasin telo Utun" in sitelen ilo pona.
  Sources: nasin: https://commons.wikimedia.org/wiki/File:Sitelen_seli_kiwen_-_nasin.svg; telo: https://commons.wikimedia.org/wiki/File:Sitelen_seli_kiwen_-_telo.svg; u: https://commons.wikimedia.org/wiki/File:Sitelen_kalama_pona_-_xu.svg; tun: https://commons.wikimedia.org/wiki/File:Sitelen_kalama_pona_-_tun.svg

Categories:
  [[Category:Sitelen kalama pona]]
  [[Category:Toki Pona text containing nasin telo]]
  [[Category:Toki Pona text containing sound symbol U]]
  [[Category:Toki Pona text containing sound symbol Tun]]

Sources:
  nasin: https://commons.wikimedia.org/wiki/File:Sitelen_seli_kiwen_-_nasin.svg
  telo: https://commons.wikimedia.org/wiki/File:Sitelen_seli_kiwen_-_telo.svg
  u: https://commons.wikimedia.org/wiki/File:Sitelen_kalama_pona_-_xu.svg
  tun: https://commons.wikimedia.org/wiki/File:Sitelen_kalama_pona_-_tun.svg
-->
<svg version="1.1" width="5105" height="1000"
     viewBox="0 0 5105 1000"
     xmlns="http://www.w3.org/2000/svg">
  <path d="M428 210Q428 226 424.0 300.5Q420 375 416 375Q412 375 396.0 361.5Q380 348 378 348Q376 348 353.0 334.0Q330 320 328 320Q322 320 320 312Q318 304 308.0 301.0Q298 298 292 304Q285 311 274 314Q260 317 260 329Q260 354 310 380Q328 389 358.0 411.0Q388 433 388 438Q388 440 404 459L422 477L418 552Q412 678 412 679Q412 694 423.0 706.5Q434 719 448 719Q469 719 476 693Q482 677 480 673Q472 664 472 578V562Q473 500 474.5 488.5Q476 477 484 473Q493 470 502 456Q510 445 546.5 412.5Q583 380 612 358Q629 345 634.5 336.0Q640 327 640 310Q640 291 620 291Q597 291 582 308Q570 321 537.0 348.0Q504 375 492 382Q486 385 482 385Q474 385 474 359Q474 342 474 330Q476 306 477.0 248.5Q478 191 484 156Q488 131 488 111Q488 81 472 81Q462 81 462 86Q462 92 446 90Q434 89 430.0 91.0Q426 93 420 102Q412 116 415.5 123.0Q419 130 423.5 161.0Q428 192 428 210Z" transform="translate(0.00,958.33) scale(0.9583,-0.9583)" fill="#000000" />
  <path d="M554 195Q544 195 534.5 194.0Q525 193 521.5 192.5Q518 192 513 191Q506 189 506 193Q506 198 496 198Q488 198 475.5 205.0Q463 212 450 215Q436 218 415.0 227.5Q394 237 394 241Q394 250 354.0 256.5Q314 263 302 263Q288 263 254.0 245.5Q220 228 220 221Q220 217 214 217Q211 217 202.0 210.0Q193 203 178 203Q156 203 152 214Q152 217 154 217Q156 218 154.0 219.0Q152 220 149.0 226.0Q146 232 146 238Q146 249 171.0 272.0Q196 295 224 308Q237 315 246.0 318.0Q255 321 275.0 324.0Q295 327 324 327Q341 327 347.5 325.5Q354 324 364.0 319.5Q374 315 392 311Q411 306 426.0 297.5Q441 289 449.5 282.0Q458 275 487.5 270.0Q517 265 566 265Q598 265 622.0 274.5Q646 284 655.0 292.0Q664 300 664 302Q667 311 670.5 311.0Q674 311 693.0 329.5Q712 348 732 348Q745 348 753.0 341.5Q761 335 762.5 330.5Q764 326 764 323Q764 302 740.5 267.5Q717 233 698 233Q689 233 685.5 232.0Q682 231 681.0 229.5Q680 228 674.5 224.0Q669 220 658 215Q640 206 632 197Q622 187 604 191Q579 195 554 195ZM170 424Q163 424 149.5 441.0Q136 458 136 473Q136 486 151.5 508.0Q167 530 178 534Q193 540 204 549Q221 563 254.5 572.5Q288 582 304 582Q326 582 373.5 560.0Q421 538 430 528Q436 522 444 522Q446 522 477.5 506.0Q509 490 536 490Q614 490 638 520Q644 528 657.0 534.0Q670 540 680 540Q690 540 690 534Q690 529 704.0 522.5Q718 516 718 512Q717 497 710.0 489.5Q703 482 696.5 480.0Q690 478 690 475Q690 470 682 470Q677 470 672.0 463.0Q667 456 658 454Q648 452 648.0 447.0Q648 442 642 442Q637 442 616.5 432.0Q596 422 557.5 422.0Q519 422 504.0 426.5Q489 431 482 431Q470 431 424.5 457.5Q379 484 374 484Q368 484 342.5 498.0Q317 512 302 512Q270 512 246.0 498.0Q222 484 211.0 468.0Q200 452 189.0 438.0Q178 424 170 424Z" transform="translate(942.50,958.33) scale(0.9583,-0.9583)" fill="#000000" />
  <path d="M 24.637998,12.488337 H 20.72216 q -1.48166,0 -2.54,-1.058333 -1.05833,-1.058333 -1.05833,-2.54 V 3.598338 q 0,-1.481667 1.05833,-2.54 Q 19.2405,4e-6 20.72216,4e-6 h 3.915838 V 0.846671 H 20.72216 q -1.13241,0 -1.94733,0.814917 -0.80433,0.804333 -0.80433,1.93675 v 5.291666 q 0,1.132417 0.80433,1.93675 0.81492,0.814917 1.94733,0.814917 h 3.915838 z" transform="translate(513.81,0.00) scale(80.0747,80.0747)" fill="#000000" />
  <path d="M 75.014662,0.846671 V 4e-6 h 13.123333 v 0.846667 z m 0,11.641666 v -0.846666 h 13.123333 v 0.846666 z" transform="translate(-3520.08,0.00) scale(80.0747,80.0747)" fill="#000000" />
  <path d="M 75.014662,0.846671 V 4e-6 h 13.123333 v 0.846667 z m 0,11.641666 v -0.846666 h 13.123333 v 0.846666 z" transform="translate(-2469.24,0.00) scale(80.0747,80.0747)" fill="#000000" />
  <path d="m 87.714667,4e-6 h 2.8575 q 1.481666,0 2.54,1.058334 1.058333,1.058333 1.058333,2.54 v 5.291666 q 0,1.481667 -1.058333,2.54 -1.058334,1.058333 -2.54,1.058333 h -2.8575 v -0.846666 h 2.8575 q 1.132416,0 1.93675,-0.814917 0.814916,-0.804333 0.814916,-1.93675 V 3.598338 q 0,-1.132417 -0.814916,-1.93675 -0.804334,-0.814917 -1.93675,-0.814917 h -2.8575 z" transform="translate(-2435.34,0.00) scale(80.0747,80.0747)" fill="#000000" />
  <path d="M 158.86,260.96 C 158.86,375.30 172.34,489.24 172.34,605.15 C 172.34,612.62 172.28,620.11 172.16,627.61 C 314.43,454.35 415.10,210.75 555.34,32.56 C 560.08,26.53 567.27,23.00 575.00,23.00 C 576.69,23.00 592.25,23.43 598.28,38.88 C 690.29,274.49 789.49,460.57 895.99,710.17 C 897.33,713.30 898.00,716.65 898.00,720.00 L 898.00,724.00 C 898.00,737.57 887.19,748.65 873.63,748.99 C 761.86,752.10 647.89,753.01 535.00,755.00 C 534.77,755.00 534.77,755.00 239.55,747.02 C 232.96,747.47 226.43,747.73 219.99,747.73 C 190.91,747.73 163.07,742.38 143.35,726.91 C 143.35,726.91 140.93,727.71 140.88,727.73 L 139.54,723.70 C 130.76,715.79 116.52,699.23 116.52,668.14 C 116.52,656.75 118.44,644.61 122.08,632.03 C 122.26,623.14 122.34,614.25 122.34,605.35 C 122.34,491.21 108.87,377.16 108.87,261.26 C 108.87,213.49 110.62,210.87 110.62,171.38 C 110.62,164.03 110.58,156.36 110.58,149.79 C 110.58,119.40 111.33,87.26 120.00,54.62 L 120.00,46.00 L 170.00,46.00 L 170.00,58.00 C 170.00,73.77 160.59,69.55 160.59,154.29 C 160.59,160.59 160.61,165.97 160.61,172.20 C 160.61,183.61 160.52,195.22 159.97,207.08 C 159.20,225.03 158.86,242.99 158.86,260.96  Z M 182.63,692.16 C 193.68,696.58 208.26,697.69 220.64,697.69 C 230.57,697.69 236.84,697.00 239.00,697.00 C 239.34,697.00 239.32,700.35 535.15,705.00 C 635.72,706.58 737.20,702.33 837.13,699.89 C 746.58,491.18 651.15,303.64 568.18,98.52 C 434.81,282.24 334.57,523.73 182.63,692.16 Z" transform="translate(2612.12,100.00) scale(0.8000,0.8000)" fill="#000000" />
  <path d="M 427.60,902.87 C 389.78,902.87 353.14,925.73 345.61,968.37 C 345.61,968.37 296.38,959.68 296.39,959.63 C 307.82,894.86 363.43,852.88 427.55,852.88 C 429.20,852.88 430.85,852.91 432.51,852.97 C 434.36,852.84 436.19,852.78 437.99,852.78 C 480.36,852.78 501.45,883.93 516.73,906.51 C 531.67,928.57 539.40,938.05 553.12,938.05 C 564.33,938.05 570.54,933.00 579.00,933.00 C 582.08,933.00 583.38,933.56 587.73,933.56 C 603.39,933.56 618.75,925.01 637.89,909.68 L 684.62,859.05 L 721.38,892.95 C 672.14,946.30 672.14,946.30 670.72,947.44 C 649.72,964.45 622.72,983.58 588.06,983.58 C 586.01,983.58 583.93,983.51 581.83,983.38 C 571.83,986.40 562.14,987.94 552.89,987.94 C 511.48,987.94 490.96,957.64 475.30,934.51 C 458.85,910.21 451.66,902.71 439.15,902.71 C 436.30,902.71 435.16,903.00 433.00,903.00 C 432.95,903.00 429.39,902.87 427.60,902.87  Z M 260.09,560.44 C 259.70,560.44 235.36,560.07 221.70,555.91 C 124.94,526.48 97.36,437.72 86.48,385.09 C 74.15,325.46 73.79,260.88 73.30,204.44 C 73.10,181.64 72.91,160.18 72.03,141.16 L 121.97,138.84 C 122.91,159.23 123.09,181.19 123.29,204.01 C 124.42,335.38 128.02,474.38 235.35,507.79 C 243.78,509.57 252.00,510.42 260.03,510.42 C 331.63,510.42 387.84,442.62 437.05,382.33 C 447.11,370.02 456.77,358.17 466.30,347.40 L 503.73,380.56 C 479.22,408.22 450.07,448.28 414.87,483.48 C 374.92,523.44 323.50,560.44 260.09,560.44  Z M 801.30,744.78 C 792.75,748.64 745.85,751.82 714.58,751.82 C 650.00,751.82 547.29,741.74 489.44,683.90 C 468.82,663.28 448.35,630.59 448.35,582.09 C 448.35,562.72 451.59,541.96 458.15,519.80 L 470.02,215.02 C 470.02,215.02 519.98,216.97 519.98,216.98 C 507.98,524.98 507.98,524.98 507.98,524.98 C 507.68,532.68 498.34,553.25 498.34,582.09 C 498.34,616.35 512.50,636.25 524.80,648.54 C 542.19,665.94 592.83,701.75 714.80,701.75 C 738.75,701.75 762.01,700.28 782.88,697.81 C 789.54,694.80 795.71,694.71 799.93,694.71 C 811.98,694.71 822.02,697.88 831.92,698.52 L 823.47,703.12 L 818.34,715.92 L 867.68,708.02 C 867.99,709.96 868.18,712.13 868.18,714.43 C 868.18,724.70 863.00,748.50 831.61,748.50 C 820.29,748.50 811.02,745.68 801.30,744.78  Z M 275.00,239.00 L 275.00,189.00 L 769.74,189.00 L 784.49,187.53 C 784.49,187.53 798.83,181.16 798.86,181.14 L 819.17,226.84 C 797.51,236.47 797.51,236.47 793.51,236.87 C 772.26,239.00 772.26,239.00 771.00,239.00 L 275.00,239.00 Z" transform="translate(3662.97,100.00) scale(0.8000,0.8000)" fill="#000000" />
</svg>
