<?xml version="1.0" encoding="UTF-8" standalone="no"?>
<!--
Representation of "nanpa lon nasin lipu pi ma Tosi" in sitelen kalama pona
Generated by generate_sitelen_kalama_pona.py

Description:
  Representation of "nanpa lon nasin lipu pi ma Tosi" in sitelen kalama pona.
  Sources: nanpa: https://commons.wikimedia.org/wiki/File:Sitelen_seli_kiwen_-_nanpa.svg; lon: https://commons.wikimedia.org/wiki/File:Sitelen_seli_kiwen_-_lon.svg; nasin: https://commons.wikimedia.org/wiki/File:Sitelen_seli_kiwen_-_nasin.svg; lipu: https://commons.wikimedia.org/wiki/File:Sitelen_seli_kiwen_-_lipu.svg; pi: https://commons.wikimedia.org/wiki/File:Sitelen_seli_kiwen_-_pi.svg; ma: https://commons.wikimedia.org/wiki/File:Sitelen_seli_kiwen_-_ma.svg; to: https://commons.wikimedia.org/wiki/File:Sitelen_kalama_pona_-_to.svg; si: https://commons.wikimedia.org/wiki/File:Sitelen_kalama_pona_-_si.svg

Categories:
  [[Category:Toki Pona text containing nanpa lon nasin lipu pi ma]]
  [[Category:Toki Pona text containing sound symbol To]]
  [[Category:Toki Pona text containing sound symbol Si]]

Sources:
  nanpa: https://commons.wikimedia.org/wiki/File:Sitelen_seli_kiwen_-_nanpa.svg
  lon: https://commons.wikimedia.org/wiki/File:Sitelen_seli_kiwen_-_lon.svg
  nasin: https://commons.wikimedia.org/wiki/File:Sitelen_seli_kiwen_-_nasin.svg
  lipu: https://commons.wikimedia.org/wiki/File:Sitelen_seli_kiwen_-_lipu.svg
  pi: https://commons.wikimedia.org/wiki/File:Sitelen_seli_kiwen_-_pi.svg
  ma: https://commons.wikimedia.org/wiki/File:Sitelen_seli_kiwen_-_ma.svg
  to: https://commons.wikimedia.org/wiki/File:Sitelen_kalama_pona_-_to.svg
  si: https://commons.wikimedia.org/wiki/File:Sitelen_kalama_pona_-_si.svg
-->
<svg version="1.1" width="8875" height="1000"
     viewBox="0 0 8875 1000"
     xmlns="http://www.w3.org/2000/svg">
  <path d="M239 654Q239 656 240.5 658.5Q242 661 242 672Q242 678 255.0 682.5Q268 687 282 687Q300 687 305.5 678.5Q311 670 313 634Q314 621 317.0 591.0Q320 561 322 536L325 512V495L352 491Q368 489 396.0 488.0Q424 487 443.5 486.0Q463 485 468 482Q475 479 485.0 483.5Q495 488 501 486Q502 486 502 486L504 485Q507 485 507 494Q507 552 498 570Q494 578 490.5 606.5Q487 635 486.0 655.0Q485 675 485 680Q485 727 516 727Q517 727 519.0 726.5Q521 726 522 726Q536 724 538.5 723.0Q541 722 541 717Q541 710 543 710H544Q552 710 553 662Q555 614 560 559Q564 518 566.0 508.0Q568 498 575 494Q589 487 650 487Q674 487 703.0 493.5Q732 500 753 500Q802 500 802 451Q802 430 797.0 424.5Q792 419 776 419Q752 419 730.0 425.0Q708 431 695 431Q686 431 647.5 427.5Q609 424 586 424L564 423V371Q564 319 568 311Q571 307 604.0 303.0Q637 299 664 299Q678 299 686.5 301.5Q695 304 713 304Q719 304 727.5 303.5Q736 303 741 303Q763 303 776.5 307.5Q790 312 800 312Q802 312 808.0 311.5Q814 311 825.5 308.5Q837 306 846.5 301.5Q856 297 863.5 288.5Q871 280 871 269Q871 231 828 231Q824 231 794.0 234.0Q764 237 727 237Q582 237 577 230Q574 224 574 202Q574 172 580.5 138.5Q587 105 587 94Q587 76 578.5 69.5Q570 63 551 63Q509 63 509 89V90Q509 92 509.5 95.0Q510 98 510.5 103.0Q511 108 511.5 115.5Q512 123 512.5 132.0Q513 141 513.0 154.0Q513 167 513 181Q513 233 511 235Q507 239 393 242L346 243L348 199Q349 170 351.0 161.0Q353 152 361 144Q372 133 367 124Q363 117 363 104Q363 77 319 77Q292 77 292 80Q290 94 290 102Q290 115 292.5 129.5Q295 144 295 152Q295 164 289.5 194.0Q284 224 284 233Q284 240 280.5 241.5Q277 243 259 242Q247 241 210 241Q104 241 66.5 248.0Q29 255 29 277Q29 282 32 290Q41 311 55.0 316.0Q69 321 111.0 321.0Q153 321 184.5 315.0Q216 309 251 309Q280 309 282.0 313.0Q284 317 284 337Q284 345 283.0 358.0Q282 371 280.5 383.5Q279 396 277.5 408.0Q276 420 275 428L274 435Q274 440 158 445Q51 449 39 456Q30 461 30 482Q30 490 32.5 494.5Q35 499 52.5 505.0Q70 511 103 511Q150 511 216 506L274 502L271 520Q269 530 264.5 542.5Q260 555 258 576Q255 600 250.5 617.5Q246 635 242.5 643.0Q239 651 239 654ZM357 430Q333 430 333 417Q333 411 336.0 388.5Q339 366 339 355Q339 336 347 315Q353 299 356.0 296.0Q359 293 371 294Q381 294 390.5 297.5Q400 301 409 301Q416 301 436.5 298.0Q457 295 461 296Q465 296 481.5 298.0Q498 300 502 301Q507 301 507 319Q507 328 505.5 351.0Q504 374 503 393L502 412Q501 416 471.5 422.0Q442 428 425 428Q399 426 395 426Q385 426 374.0 428.0Q363 430 357 430Z" transform="translate(0.00,958.33) scale(0.9583,-0.9583)" fill="#000000" />
  <path d="M150 252Q150 262 160.5 276.5Q171 291 190 291Q216 291 250.5 285.5Q285 280 296 280Q319 279 382.5 276.0Q446 273 458 273Q470 273 485.5 275.0Q501 277 506 277Q514 277 524.5 272.5Q535 268 538 269Q542 270 614.0 271.0Q686 272 702 278Q713 282 717.5 281.5Q722 281 730 276Q750 263 750 244Q750 213 712 213Q712 213 708.0 213.0Q704 213 695.5 213.5Q687 214 677.0 214.0Q667 214 652.0 214.0Q637 214 622 214Q611 214 601.0 214.0Q591 214 584.5 214.0Q578 214 573.0 213.5Q568 213 566.0 213.0Q564 213 563.5 213.0Q563 213 547.0 213.5Q531 214 505.5 214.5Q480 215 451.5 215.5Q423 216 394.0 216.5Q365 217 346 217Q333 217 322.0 217.0Q311 217 304.0 216.5Q297 216 291.5 216.0Q286 216 283.5 216.0Q281 216 280 216Q273 216 234.5 219.5Q196 223 184 224Q169 225 159.5 233.0Q150 241 150 252ZM388 467Q388 471 393.0 483.0Q398 495 412.5 508.0Q427 521 446 521Q471 521 489.5 491.0Q508 461 508 441Q508 422 487.5 410.0Q467 398 446.0 398.0Q425 398 406.5 422.5Q388 447 388 467Z" transform="translate(942.50,958.33) scale(0.9583,-0.9583)" fill="#000000" />
  <path d="M428 210Q428 226 424.0 300.5Q420 375 416 375Q412 375 396.0 361.5Q380 348 378 348Q376 348 353.0 334.0Q330 320 328 320Q322 320 320 312Q318 304 308.0 301.0Q298 298 292 304Q285 311 274 314Q260 317 260 329Q260 354 310 380Q328 389 358.0 411.0Q388 433 388 438Q388 440 404 459L422 477L418 552Q412 678 412 679Q412 694 423.0 706.5Q434 719 448 719Q469 719 476 693Q482 677 480 673Q472 664 472 578V562Q473 500 474.5 488.5Q476 477 484 473Q493 470 502 456Q510 445 546.5 412.5Q583 380 612 358Q629 345 634.5 336.0Q640 327 640 310Q640 291 620 291Q597 291 582 308Q570 321 537.0 348.0Q504 375 492 382Q486 385 482 385Q474 385 474 359Q474 342 474 330Q476 306 477.0 248.5Q478 191 484 156Q488 131 488 111Q488 81 472 81Q462 81 462 86Q462 92 446 90Q434 89 430.0 91.0Q426 93 420 102Q412 116 415.5 123.0Q419 130 423.5 161.0Q428 192 428 210Z" transform="translate(1885.00,958.33) scale(0.9583,-0.9583)" fill="#000000" />
  <path d="M461 87Q346 87 316.5 82.0Q287 77 262 77Q248 77 234.0 77.0Q220 77 209.5 76.5Q199 76 191.0 75.5Q183 75 178.5 75.0Q174 75 174 75Q159 75 152.0 78.5Q145 82 134 93L118 111L126 135Q135 157 137.0 215.0Q139 273 139.5 322.0Q140 371 143 374Q145 376 145 402Q145 402 144.5 435.0Q144 468 143.0 516.0Q142 564 141 596L140 697L166 723L252 720Q307 718 349 718Q349 718 353.0 718.0Q357 718 364.5 718.5Q372 719 383.0 719.0Q394 719 411.5 719.0Q429 719 449.5 719.5Q470 720 499.0 720.0Q528 720 560 720Q569 720 581.0 720.0Q593 720 605.0 719.5Q617 719 627.5 718.5Q638 718 644.5 718.0Q651 718 651 718Q676 718 691.5 720.0Q707 722 713.0 724.5Q719 727 721.5 727.0Q724 727 731.5 725.0Q739 723 742 723Q750 723 757.0 704.0Q764 685 764 669Q764 663 762.0 656.5Q760 650 760 645Q760 640 762.5 625.5Q765 611 765 587Q765 572 763.5 546.0Q762 520 760.0 493.5Q758 467 756.0 443.0Q754 419 752.5 403.0Q751 387 751 387Q751 382 752.0 375.0Q753 368 753 361Q753 349 752 340Q752 338 751.5 333.0Q751 328 751 325Q751 289 759.0 233.0Q767 177 775 153Q785 127 779 121Q776 117 777.5 110.5Q779 104 774 101Q766 93 651.0 89.5Q536 86 490 86ZM687 311Q687 330 689.0 364.5Q691 399 694.0 434.0Q697 469 699.5 501.5Q702 534 704.0 555.5Q706 577 706 577Q706 588 701.5 601.5Q697 615 694 631L690 653L650 654Q597 655 375 655Q230 655 224 654Q212 653 208 642Q202 621 202 458Q202 429 202.5 401.5Q203 374 203.5 355.5Q204 337 204.5 323.5Q205 310 205.0 302.5Q205 295 205 295Q205 281 199.5 252.0Q194 223 194 179Q194 167 195.0 162.5Q196 158 202.5 153.5Q209 149 221.0 148.5Q233 148 257 148Q292 148 292 151Q292 153 342 153Q359 153 375.5 153.0Q392 153 404.0 152.5Q416 152 427.0 151.5Q438 151 445.5 150.5Q453 150 458.5 149.5Q464 149 466.5 149.0Q469 149 469 149Q488 149 528.5 154.5Q569 160 593 160Q600 160 606.5 159.5Q613 159 620 159Q647 159 676.0 163.5Q705 168 705 172Q705 174 696.0 225.5Q687 277 687 311Z" transform="translate(2827.50,958.33) scale(0.9583,-0.9583)" fill="#000000" />
  <path d="M178 600Q178 613 172.0 629.5Q166 646 166 651Q166 660 178 675Q187 686 191.5 688.0Q196 690 206 688Q221 685 228.5 675.5Q236 666 237.0 657.5Q238 649 238 634V602Q238 561 244.0 524.5Q250 488 250 466Q250 451 248.0 418.5Q246 386 246 369Q246 369 246.0 367.0Q246 365 246.5 361.5Q247 358 247.5 353.0Q248 348 248.0 339.5Q248 331 248.5 321.0Q249 311 249.5 296.5Q250 282 250 266Q250 179 252 177Q260 168 392 168Q392 168 438.0 168.0Q484 168 532.0 168.5Q580 169 584 169Q698 169 704 167Q710 164 716 164Q722 163 728.0 144.5Q734 126 734 111Q734 109 733.0 103.5Q732 98 727.5 90.5Q723 83 716 83Q714 83 683.5 92.5Q653 102 624 102Q612 102 594.0 100.0Q576 98 562 98Q562 98 558.5 98.5Q555 99 548.0 99.5Q541 100 532.0 100.5Q523 101 510.5 101.5Q498 102 486 102Q485 102 480.5 102.0Q476 102 469.0 101.5Q462 101 454.5 100.5Q447 100 439.5 100.0Q432 100 428 100Q344 100 230 92L190 90L184 104Q180 114 180 131Q180 157 185.0 176.5Q190 196 190 218Q190 218 190.0 225.0Q190 232 190.0 242.5Q190 253 189.5 264.5Q189 276 188.5 287.0Q188 298 188 304Q188 326 190.0 374.0Q192 422 192 441Q192 517 178 540Q176 543 177.0 544.0Q178 545 180.0 545.5Q182 546 182.5 549.5Q183 553 180 562Q176 571 176 578Q176 581 177.0 588.5Q178 596 178 600Z" transform="translate(3770.00,958.33) scale(0.9583,-0.9583)" fill="#000000" />
  <path d="M152 340Q152 341 154.5 344.0Q157 347 156 359V367Q156 391 167.5 424.0Q179 457 192.5 485.0Q206 513 208 517Q213 534 245.0 555.5Q277 577 278 583Q280 589 289.0 594.0Q298 599 302 607Q305 615 318.0 619.5Q331 624 336 632Q340 639 350.0 644.0Q360 649 373.5 653.5Q387 658 394 661Q400 665 424 665Q455 665 491.0 659.0Q527 653 532 645Q536 640 548 640Q551 640 554 640Q576 640 606 621Q618 613 634 603Q645 598 671.5 565.5Q698 533 698 526Q698 520 705.0 515.5Q712 511 712 506Q712 499 718 495Q724 492 732.0 475.0Q740 458 740 450Q740 447 744.0 439.0Q748 431 748 405Q748 372 741.0 333.0Q734 294 725.5 269.5Q717 245 712 245Q712 245 704.5 230.5Q697 216 684.5 199.5Q672 183 660 178Q652 174 652 168Q652 161 646 161Q641 161 624 145Q606 129 570 121Q490 105 480 105Q464 105 452.5 93.0Q441 81 434 81Q423 81 406.0 88.0Q389 95 388 100Q386 108 356 116Q327 124 282.5 146.0Q238 168 238.0 174.0Q238 180 208.5 210.5Q179 241 176 255Q174 268 163.0 301.0Q152 334 152 340ZM390 461Q391 481 392.0 500.0Q393 519 394.5 532.5Q396 546 397.5 558.0Q399 570 400.5 578.0Q402 586 403.0 591.0Q404 596 405.0 599.0Q406 602 406 602Q406 606 400 606Q390 606 375.0 597.0Q360 588 354 578Q349 567 310.0 527.5Q271 488 270 482Q266 474 264 477Q261 479 256.0 475.5Q251 472 247.5 466.0Q244 460 244 456Q244 451 240.5 447.0Q237 443 233.5 441.0Q230 439 226.5 431.5Q223 424 222 411L220 390L232 399Q241 406 250 406Q251 406 275.5 402.0Q300 398 330 398Q386 398 388 408Q388 418 390 461ZM656 491Q656 496 644.0 508.0Q632 520 632 524Q632 530 615.5 542.5Q599 555 579.5 567.5Q560 580 558 583Q550 591 500 597Q493 598 488 599L474 601L472 572Q470 557 467.0 537.5Q464 518 462.0 498.5Q460 479 460 449Q460 414 464.5 407.5Q469 401 488 401Q531 401 570.0 405.5Q609 410 632.5 414.0Q656 418 660 418Q677 418 680.5 418.5Q684 419 684 422Q684 430 675.5 453.0Q667 476 662 480Q656 485 656 491ZM680 345Q680 353 664 353Q655 353 632.0 346.5Q609 340 576 337Q532 333 520 331Q513 331 496.5 333.5Q480 336 474 336Q468 336 466 334Q462 330 462 247Q462 168 468 168Q469 168 489.5 171.0Q510 174 532.5 179.0Q555 184 558 187Q563 194 572.5 194.0Q582 194 614.5 226.0Q647 258 652 272Q658 288 661.5 288.0Q665 288 672.5 311.5Q680 335 680 345ZM336 333Q318 333 302.5 334.0Q287 335 275.5 336.0Q264 337 254.0 338.5Q244 340 237.5 341.5Q231 343 226.5 344.0Q222 345 220.0 346.0Q218 347 218 347Q214 347 214 341Q214 336 218.0 317.0Q222 298 235.0 271.0Q248 244 266 236Q284 228 315.5 200.5Q347 173 370 172L388 171V334L340 333Z" transform="translate(4712.50,958.33) scale(0.9583,-0.9583)" fill="#000000" />
  <path d="M 24.637998,12.488337 H 20.72216 q -1.48166,0 -2.54,-1.058333 -1.05833,-1.058333 -1.05833,-2.54 V 3.598338 q 0,-1.481667 1.05833,-2.54 Q 19.2405,4e-6 20.72216,4e-6 h 3.915838 V 0.846671 H 20.72216 q -1.13241,0 -1.94733,0.814917 -0.80433,0.804333 -0.80433,1.93675 v 5.291666 q 0,1.132417 0.80433,1.93675 0.81492,0.814917 1.94733,0.814917 h 3.915838 z" transform="translate(4283.81,0.00) scale(80.0747,80.0747)" fill="#000000" />
  <path d="M 75.014662,0.846671 V 4e-6 h 13.123333 v 0.846667 z m 0,11.641666 v -0.846666 h 13.123333 v 0.846666 z" transform="translate(249.92,0.00) scale(80.0747,80.0747)" fill="#000000" />
  <path d="M 75.014662,0.846671 V 4e-6 h 13.123333 v 0.846667 z m 0,11.641666 v -0.846666 h 13.123333 v 0.846666 z" transform="translate(1300.76,0.00) scale(80.0747,80.0747)" fill="#000000" />
  <path d="m 87.714667,4e-6 h 2.8575 q 1.481666,0 2.54,1.058334 1.058333,1.058333 1.058333,2.54 v 5.291666 q 0,1.481667 -1.058333,2.54 -1.058334,1.058333 -2.54,1.058333 h -2.8575 v -0.846666 h 2.8575 q 1.132416,0 1.93675,-0.814917 0.814916,-0.804333 0.814916,-1.93675 V 3.598338 q 0,-1.132417 -0.814916,-1.93675 -0.804334,-0.814917 -1.93675,-0.814917 h -2.8575 z" transform="translate(1334.66,0.00) scale(80.0747,80.0747)" fill="#000000" />
  <path d="M 394.00,124.00 C 394.00,81.45 444.29,65.03 462.44,59.10 C 462.44,59.10 462.90,53.08 462.93,53.08 C 494.27,55.49 494.27,55.49 498.95,58.04 C 514.72,66.62 544.03,82.57 544.03,118.54 C 544.03,118.87 544.02,119.19 544.02,119.52 C 544.10,120.95 544.14,122.38 544.14,123.81 C 544.14,157.82 521.51,193.00 485.48,193.00 C 467.69,193.00 430.32,180.54 399.02,139.03 C 395.68,134.60 394.00,129.30 394.00,124.00  Z M 486.35,142.95 C 488.73,142.04 494.13,133.57 494.13,123.32 C 494.13,121.96 494.00,121.60 494.00,120.00 C 494.00,118.93 494.08,118.15 494.08,117.18 C 494.08,115.59 494.08,113.18 481.33,105.54 C 468.40,109.74 456.48,113.88 448.31,119.91 C 453.65,125.47 469.09,140.05 486.35,142.95  Z M 446.02,428.68 C 446.02,427.98 445.86,367.32 445.86,366.70 C 445.86,326.74 446.47,286.29 450.11,245.75 C 450.11,245.75 499.90,250.22 499.89,250.25 C 496.44,288.67 495.85,328.01 495.85,367.85 C 495.85,368.62 496.01,428.05 496.01,428.66 C 496.01,441.70 496.01,442.63 494.33,446.99 C 483.61,474.89 479.21,498.48 479.21,518.20 C 479.21,626.87 616.98,643.92 686.53,643.92 C 703.77,643.92 715.09,643.00 717.00,643.00 L 827.46,645.01 C 827.46,645.01 826.55,694.99 826.54,694.99 C 717.52,693.01 717.52,693.01 717.52,693.01 C 707.08,693.62 696.55,693.94 685.98,693.94 C 541.10,693.94 429.22,635.50 429.22,518.13 C 429.22,492.19 434.72,463.99 446.01,433.40 C 446.02,431.83 446.02,430.26 446.02,428.68  Z M 162.45,275.00 C 332.96,267.45 512.54,213.00 685.47,213.00 C 685.98,213.00 686.49,213.00 687.00,213.00 C 687.04,213.00 802.32,213.00 834.66,213.00 L 844.02,205.98 C 844.02,205.98 874.02,245.99 873.98,246.02 C 857.98,258.02 857.98,258.02 857.98,258.02 C 853.56,261.34 848.28,263.00 843.00,263.00 L 685.59,263.00 C 518.31,263.00 339.14,317.32 164.10,324.97 C 163.73,324.99 163.37,325.00 163.00,325.00 L 151.00,325.00 L 151.00,275.00 L 162.45,275.00 Z" transform="translate(6382.12,100.00) scale(0.8000,0.8000)" fill="#000000" />
  <path d="M 463.00,119.00 C 450.73,119.00 395.37,101.32 395.37,62.11 C 395.37,52.70 398.92,44.22 403.57,38.02 L 401.79,32.06 L 413.64,28.51 C 420.12,24.04 428.56,21.00 435.00,21.00 C 435.85,21.00 436.71,21.05 437.56,21.14 C 438.47,20.87 439.92,20.51 442.59,20.51 C 451.27,20.51 456.09,23.30 458.35,24.77 C 468.23,25.64 476.86,28.46 484.18,35.78 C 491.41,43.00 494.18,52.76 494.18,61.57 C 494.18,62.64 494.14,63.69 494.06,64.73 C 494.16,66.89 494.27,69.36 494.27,72.08 C 494.27,96.97 482.63,119.00 463.00,119.00  Z M 519.20,142.62 C 563.42,142.62 590.00,165.34 590.00,186.00 L 590.00,194.00 L 541.73,194.00 C 542.00,195.38 542.27,196.76 542.95,197.74 C 540.81,196.28 532.41,192.66 518.53,192.66 C 517.38,192.66 516.28,192.69 515.24,192.74 C 463.42,206.95 389.46,253.45 389.46,318.95 C 389.46,354.12 424.15,384.23 455.23,411.20 C 494.33,445.13 540.22,484.96 540.22,550.82 C 540.22,566.94 536.74,607.11 505.05,638.79 C 474.37,669.47 423.97,688.31 335.16,688.31 C 319.56,688.31 306.63,688.20 257.34,684.94 C 257.34,684.94 260.63,635.06 260.66,635.06 C 291.88,637.12 312.69,638.24 335.52,638.24 C 401.15,638.24 490.24,628.10 490.24,550.46 C 490.24,509.06 462.15,483.41 422.49,449.00 C 387.42,418.56 349.44,385.60 340.39,334.38 C 340.36,334.23 339.47,328.38 339.47,318.99 C 339.47,229.47 426.73,164.12 504.67,143.81 C 506.02,143.46 510.20,142.62 519.20,142.62 Z" transform="translate(7432.97,100.00) scale(0.8000,0.8000)" fill="#000000" />
</svg>
