<?xml version="1.0" encoding="UTF-8" standalone="no"?>
<!--
Representation of "ijo telo" in sitelen kalama pona
Generated by generate_sitelen_kalama_pona.py

Description:
  Representation of "ijo telo" in sitelen kalama pona.
  Sources: ijo-telo: https://commons.wikimedia.org/wiki/File:Sitelen_seli_kiwen_-_ijo-telo.svg

Categories:
  [[Category:Sitelen kalama pona]]
  [[Category:Toki Pona text containing ijo telo]]

Sources:
  ijo-telo: https://commons.wikimedia.org/wiki/File:Sitelen_seli_kiwen_-_ijo-telo.svg
-->
<svg version="1.1" width="862" height="1000"
     viewBox="0 0 862 1000"
     xmlns="http://www.w3.org/2000/svg">
  <path d="M282 233Q271 233 265.0 242.0Q259 251 258 260V269Q258 283 291 318L321 348H351Q373 348 382.0 344.5Q391 341 399.5 334.5Q408 328 421 324Q427 322 452.5 308.0Q478 294 497 294Q514 294 530.5 321.0Q547 348 560 348Q570 348 584.5 334.5Q599 321 599 306Q599 293 588 284Q575 272 562 255Q536 225 500 225Q472 225 420 251Q393 268 382 273Q369 279 369 283Q369 288 364 288Q356 288 340.5 276.0Q325 264 316 250Q306 233 282 233ZM373 442Q373 443 369.5 446.0Q366 449 359.0 452.0Q352 455 346 455Q333 455 322.5 446.0Q312 437 308 423Q304 408 299.0 403.5Q294 399 277 395Q266 393 262.5 394.5Q259 396 254.0 406.0Q249 416 249.5 420.5Q250 425 258 439Q301 512 357 512Q368 512 401.5 495.5Q435 479 439 471Q444 461 451 461Q455 461 456.5 459.5Q458 458 459.0 455.5Q460 453 465.5 451.5Q471 450 482 450Q484 450 486 450Q507 450 520.0 460.5Q533 471 535.5 477.5Q538 484 538 488Q538 498 544 498Q550 498 557.0 506.5Q564 515 574 515Q577 515 581 514Q597 510 599 508Q605 502 605 471Q605 461 603 459Q601 458 585.0 431.5Q569 405 563 405Q556 405 556 397Q555 392 553 392Q552 393 550 393Q550 393 532.5 387.5Q515 382 495 382Q465 382 444.0 390.0Q423 398 413.5 406.0Q404 414 402 414Q397 414 397 421Q397 427 385.0 433.5Q373 440 373 442ZM158 510Q158 515 172.0 528.5Q186 542 186.0 545.0Q186 548 197.5 558.0Q209 568 211 578Q214 590 241.5 619.0Q269 648 283 653Q298 659 298.0 663.0Q298 667 309 667Q323 667 377.5 692.5Q432 718 486 718Q506 718 544.5 707.0Q583 696 599 686Q623 672 627 672Q632 672 648.5 659.5Q665 647 685.0 630.5Q705 614 712 609Q723 601 747.0 558.5Q771 516 778 489L780 481Q782 473 784.0 460.0Q786 447 788.5 432.5Q791 418 793.0 401.5Q795 385 795 373Q795 357 786.0 322.0Q777 287 777 281Q777 250 728 201Q727 201 715.0 184.5Q703 168 691 163Q689 163 653.0 142.5Q617 122 617 118Q616 114 614.0 115.5Q612 117 605.0 116.5Q598 116 591 109Q582 100 560.5 97.0Q539 94 535 89Q529 81 519 81Q515 81 499.5 76.0Q484 71 451 71H442Q422 71 406.5 69.5Q391 68 384.0 66.5Q377 65 375 65Q372 65 371 68Q370 70 353 70Q335 70 302.5 81.5Q270 93 264 103Q260 109 250 109Q242 109 217.0 128.0Q192 147 190 147Q186 147 186 153Q186 157 176.5 164.5Q167 172 167 177Q167 184 157 189Q144 195 130.5 232.0Q117 269 116 301Q115 321 110.0 329.5Q105 338 105 355Q105 388 122.5 424.0Q140 460 143 479Q145 493 151.5 500.0Q158 507 158 510ZM585 620Q584 620 577.5 623.0Q571 626 559.5 630.0Q548 634 533.0 638.0Q518 642 495.5 645.0Q473 648 449 648Q412 648 357.0 621.0Q302 594 294 584Q287 573 282 573Q278 573 258.0 551.5Q238 530 238 526Q238 523 221.0 499.5Q204 476 202 467Q200 456 195 456Q193 456 191.0 443.0Q189 430 185.0 409.5Q181 389 176 377Q169 362 169 349Q169 346 169.5 342.0Q170 338 170 337Q170 334 168 333Q165 332 165 318Q165 299 171.0 287.5Q177 276 177 269Q177 261 186.0 248.5Q195 236 208.5 221.5Q222 207 227 200Q234 189 240.0 189.0Q246 189 250 183Q254 179 267.5 170.5Q281 162 315.5 150.0Q350 138 386 138Q392 138 419.5 139.5Q447 141 482.5 145.5Q518 150 523 156Q525 159 567.0 177.5Q609 196 613 195Q614 195 636.0 210.5Q658 226 680.0 243.5Q702 261 702 266Q702 268 710.0 284.5Q718 301 725.5 330.0Q733 359 733 391Q733 434 721.5 469.5Q710 505 699 524L688 542Q688 552 642.5 586.0Q597 620 585 620Z" transform="translate(0.00,958.33) scale(0.9583,-0.9583)" fill="#000000" />
</svg>
