<?xml version="1.0" encoding="UTF-8" standalone="no"?>
<!--
Representation of "ijo nanpa" in sitelen kalama pona
Generated by generate_sitelen_kalama_pona.py

Description:
  Representation of "ijo nanpa" in sitelen kalama pona.
  Sources: ijo-nanpa: https://commons.wikimedia.org/wiki/File:Sitelen_seli_kiwen_-_ijo-nanpa.svg

Categories:
  [[Category:Sitelen kalama pona]]
  [[Category:Toki Pona text containing ijo nanpa]]

Sources:
  ijo-nanpa: https://commons.wikimedia.org/wiki/File:Sitelen_seli_kiwen_-_ijo-nanpa.svg
-->
<svg version="1.1" width="862" height="1000"
     viewBox="0 0 862 1000"
     xmlns="http://www.w3.org/2000/svg">
  <path d="M459 573Q464 573 471.5 580.5Q479 588 488 588Q508 588 508 573Q508 568 514.0 560.5Q520 553 520 535Q520 532 520.0 529.0Q520 526 520 524Q520 499 539 499Q547 499 559 504Q572 509 587 509Q616 509 624 490Q628 479 627.5 476.0Q627 473 620 466Q597 443 585 443Q584 443 581.5 443.5Q579 444 577 444Q574 444 562.5 442.0Q551 440 537.5 433.5Q524 427 524 419Q524 417 525 414Q526 411 527.0 407.5Q528 404 528.0 401.0Q528 398 528.0 396.0Q528 394 529.0 392.5Q530 391 531 392Q583 418 601 418Q610 418 623.0 404.0Q636 390 636 383Q636 381 635 380Q630 375 630 366Q630 359 610 353Q604 351 587.0 346.0Q570 341 565 340L539 332V291Q539 262 537.0 254.0Q535 246 528 240Q517 231 510 233Q498 236 494 236Q485 236 477.0 269.5Q469 303 469 311Q469 318 445 319L421 321L418 295Q416 274 407.5 260.5Q399 247 389 247Q386 247 378.0 251.0Q370 255 366 255Q359 255 354.0 267.0Q349 279 349 292Q349 302 352 308L356 314Q356 324 317 324Q312 324 305.0 323.5Q298 323 293 323Q238 323 238 355Q238 373 251.0 386.0Q264 399 282 399Q289 399 307.5 396.5Q326 394 337 394Q344 394 346.0 396.5Q348 399 345 415L341 430H292Q250 430 238.5 435.0Q227 440 227 458Q227 472 238.0 483.5Q249 495 259 495Q263 495 276.0 493.0Q289 491 299 491Q311 491 320 494Q333 498 335.5 501.0Q338 504 338 516Q338 520 339.5 528.5Q341 537 348.5 548.5Q356 560 369.0 560.0Q382 560 387.5 552.0Q393 544 398 520L403 497L433 488Q438 487 442.5 485.5Q447 484 452.5 483.0Q458 482 461.5 482.0Q465 482 465 484Q465 488 461.5 510.0Q458 532 458 540Q458 544 459 546Q461 554 457 557Q454 559 453.0 563.0Q452 567 453.5 570.0Q455 573 459 573ZM462 423Q456 423 446.5 431.5Q437 440 425 440Q422 440 418 439Q409 438 407.5 434.5Q406 431 408 415Q408 410 409.0 403.5Q410 397 410.5 392.5Q411 388 411 386Q411 380 436 381Q452 382 457.5 384.0Q463 386 466 394Q477 423 462 423ZM273 677Q277 677 301.0 688.0Q325 699 336 699Q346 699 355.5 705.5Q365 712 369 712Q372 712 376 710Q383 706 388 708Q400 717 436 717Q500 717 522 705Q535 698 567.0 688.5Q599 679 604 676Q679 635 718 580Q728 566 734.5 559.0Q741 552 743.5 549.5Q746 547 749 540Q769 502 773.0 483.5Q777 465 777 407Q777 314 765 295Q757 281 757.0 276.0Q757 271 744.0 244.0Q731 217 731 213Q731 208 727.5 205.5Q724 203 712.0 193.5Q700 184 686 169Q665 146 630.5 130.5Q596 115 568.0 107.5Q540 100 538 99Q534 96 510 96Q478 96 443.5 102.0Q409 108 400 108Q377 108 335.5 116.5Q294 125 288 130Q280 138 277 138Q269 138 250.5 155.5Q232 173 210.5 196.0Q189 219 183 224Q166 239 166 248Q166 250 155.5 274.5Q145 299 134.5 329.5Q124 360 124 375Q123 403 123 440Q123 492 137 520Q152 550 152 554Q152 565 171.0 592.5Q190 620 198 620Q202 620 234.5 648.5Q267 677 273 677ZM222 259Q225 259 232.0 247.5Q239 236 243 236Q246 236 269.0 214.5Q292 193 311 187Q344 177 410.0 169.5Q476 162 511 162Q536 162 586 184Q612 194 614 195Q629 200 649.0 222.5Q669 245 681.5 265.0Q694 285 694 288Q694 293 700.0 304.0Q706 315 706 330Q706 350 713.0 357.0Q720 364 720 400Q720 455 705.0 495.0Q690 535 677 542Q668 547 668 552Q668 556 660.0 564.5Q652 573 641.0 581.0Q630 589 618.5 597.0Q607 605 599 610L591 615Q589 617 579.0 619.5Q569 622 554.0 625.5Q539 629 530 635Q504 650 448 650Q429 650 415 647Q396 643 370.5 642.5Q345 642 328.5 640.5Q312 639 305 632L288 621Q271 610 251.5 597.5Q232 585 215.5 571.0Q199 557 199 550Q199 547 182 509L165 473L170 425Q174 386 179.5 366.5Q185 347 185 339Q185 328 201.5 297.0Q218 266 218 264Q218 259 222 259Z" transform="translate(0.00,958.33) scale(0.9583,-0.9583)" fill="#000000" />
</svg>
