<?xml version="1.0" encoding="UTF-8" standalone="no"?>
<!--
Representation of "kulupu:ma Lesepu" in sitelen kalama pona
Generated by generate_sitelen_kalama_pona.py

Description:
  Representation of "kulupu:ma Lesepu" in sitelen kalama pona.
  Sources: le: https://commons.wikimedia.org/wiki/File:Sitelen_kalama_pona_-_le.svg; se: https://commons.wikimedia.org/wiki/File:Sitelen_kalama_pona_-_se.svg; pu: https://commons.wikimedia.org/wiki/File:Sitelen_kalama_pona_-_pu.svg

Categories:
  [[Category:Sitelen kalama pona]]
  [[Category:Toki Pona text containing kulupu:ma]]
  [[Category:Toki Pona text containing sound symbol Le]]
  [[Category:Toki Pona text containing sound symbol Se]]
  [[Category:Toki Pona text containing sound symbol Pu]]

Sources:
  le: https://commons.wikimedia.org/wiki/File:Sitelen_kalama_pona_-_le.svg
  se: https://commons.wikimedia.org/wiki/File:Sitelen_kalama_pona_-_se.svg
  pu: https://commons.wikimedia.org/wiki/File:Sitelen_kalama_pona_-_pu.svg
-->
<svg version="1.1" width="4271" height="1000"
     viewBox="0 0 4271 1000"
     xmlns="http://www.w3.org/2000/svg">
  <path d="M 24.637998,12.488337 H 20.72216 q -1.48166,0 -2.54,-1.058333 -1.05833,-1.058333 -1.05833,-2.54 V 3.598338 q 0,-1.481667 1.05833,-2.54 Q 19.2405,4e-6 20.72216,4e-6 h 3.915838 V 0.846671 H 20.72216 q -1.13241,0 -1.94733,0.814917 -0.80433,0.804333 -0.80433,1.93675 v 5.291666 q 0,1.132417 0.80433,1.93675 0.81492,0.814917 1.94733,0.814917 h 3.915838 z" transform="translate(-1371.19,0.00) scale(80.0747,80.0747)" fill="#000000" />
  <path d="M 75.014662,0.846671 V 4e-6 h 13.123333 v 0.846667 z m 0,11.641666 v -0.846666 h 13.123333 v 0.846666 z" transform="translate(-5405.08,0.00) scale(80.0747,80.0747)" fill="#000000" />
  <path d="M 75.014662,0.846671 V 4e-6 h 13.123333 v 0.846667 z m 0,11.641666 v -0.846666 h 13.123333 v 0.846666 z" transform="translate(-4354.24,0.00) scale(80.0747,80.0747)" fill="#000000" />
  <path d="M 75.014662,0.846671 V 4e-6 h 13.123333 v 0.846667 z m 0,11.641666 v -0.846666 h 13.123333 v 0.846666 z" transform="translate(-3303.39,0.00) scale(80.0747,80.0747)" fill="#000000" />
  <path d="m 87.714667,4e-6 h 2.8575 q 1.481666,0 2.54,1.058334 1.058333,1.058333 1.058333,2.54 v 5.291666 q 0,1.481667 -1.058333,2.54 -1.058334,1.058333 -2.54,1.058333 h -2.8575 v -0.846666 h 2.8575 q 1.132416,0 1.93675,-0.814917 0.814916,-0.804333 0.814916,-1.93675 V 3.598338 q 0,-1.132417 -0.814916,-1.93675 -0.804334,-0.814917 -1.93675,-0.814917 h -2.8575 z" transform="translate(-3269.49,0.00) scale(80.0747,80.0747)" fill="#000000" />
  <path d="M 343.19,189.78 C 350.46,188.99 362.38,177.00 375.00,177.00 C 384.17,177.00 392.26,181.96 396.60,189.41 C 413.55,218.45 417.13,249.29 417.13,278.19 C 417.13,300.61 414.86,324.58 414.86,347.27 C 414.86,369.37 417.92,380.56 417.92,421.13 C 417.92,491.17 406.90,562.19 386.24,625.33 C 386.23,628.12 385.97,630.69 385.58,633.01 C 446.87,650.04 526.52,651.25 631.16,651.34 C 670.52,651.37 709.57,651.39 746.13,653.03 C 746.13,653.03 743.89,702.97 743.87,702.97 C 657.21,699.08 554.64,704.51 464.61,696.62 C 422.12,692.89 382.36,686.29 348.15,673.39 C 341.62,670.92 331.71,664.27 331.71,646.60 C 331.71,638.11 334.11,631.67 335.13,628.47 C 335.72,626.62 336.04,625.44 336.17,624.90 C 336.06,623.94 336.00,622.97 336.00,622.00 C 336.00,619.29 336.44,616.58 337.32,613.99 C 357.13,555.19 367.90,487.13 367.90,420.60 C 367.90,381.30 364.83,372.40 364.83,347.02 C 364.83,324.74 366.91,303.38 366.91,280.59 C 366.91,264.42 365.81,249.67 362.27,236.33 C 357.81,237.88 351.05,239.78 343.04,239.78 C 339.78,239.78 336.36,239.46 332.85,238.71 C 325.07,237.97 315.74,237.50 305.63,237.00 C 262.11,234.87 211.09,232.36 180.42,201.69 C 160.91,182.19 158.00,158.01 158.00,154.00 C 158.00,153.03 158.88,109.71 201.59,66.99 C 232.10,36.48 271.59,16.68 305.55,2.85 C 308.57,1.62 311.79,0.99 315.00,1.00 C 647.15,3.01 647.15,3.01 647.15,3.01 C 647.15,3.01 646.85,52.99 646.85,52.99 C 319.92,51.03 319.92,51.03 319.92,51.03 C 263.90,74.58 216.45,107.69 208.39,153.29 C 215.59,181.11 259.39,184.68 308.10,187.07 C 324.62,187.88 338.78,188.66 343.19,189.78 Z" transform="translate(727.12,100.00) scale(0.8000,0.8000)" fill="#000000" />
  <path d="M 263.20,147.66 C 263.20,211.90 311.50,261.37 366.33,278.10 C 366.33,278.10 351.73,325.92 351.67,325.90 C 274.13,302.24 213.22,232.48 213.22,147.57 C 213.22,141.74 213.46,129.20 215.45,123.60 C 238.60,58.47 315.71,43.96 377.90,32.25 C 392.95,29.42 407.02,26.75 418.85,23.77 C 420.82,23.27 422.83,23.02 424.85,23.01 L 752.85,21.01 L 753.15,70.99 L 428.14,72.98 C 393.59,81.37 348.87,86.55 314.49,98.75 C 277.38,111.93 267.59,128.15 263.58,137.72 C 263.33,141.07 263.20,144.38 263.20,147.66  Z M 542.52,135.87 C 542.94,135.87 584.45,134.64 584.74,134.64 C 605.27,134.64 628.28,137.16 652.57,149.83 C 654.87,151.03 666.00,157.59 666.00,172.00 L 666.00,178.00 L 619.64,178.00 L 629.43,194.17 C 614.66,186.46 601.63,184.61 585.72,184.61 C 585.29,184.61 545.13,185.88 542.64,185.88 C 536.98,185.88 531.05,185.71 524.87,185.25 C 467.43,199.78 394.55,260.59 393.93,325.38 C 414.96,379.12 488.04,408.98 537.68,458.62 C 564.56,485.50 586.02,520.64 586.02,567.44 C 586.02,579.35 578.60,613.12 553.16,638.56 C 511.82,679.90 445.48,682.62 385.37,685.08 C 365.18,685.90 346.18,686.73 330.22,688.79 C 329.11,688.93 325.42,689.23 320.82,689.23 C 293.47,689.23 268.84,678.85 249.93,671.60 C 247.93,670.83 245.98,670.08 244.11,669.37 C 244.11,669.37 261.84,622.61 261.89,622.63 C 284.84,631.33 305.59,639.20 321.90,639.20 C 322.51,639.20 336.22,637.06 383.31,635.13 C 465.86,631.75 523.68,626.30 536.03,567.38 C 536.03,567.34 536.03,567.29 536.03,567.24 C 536.03,516.08 500.02,487.99 447.25,449.83 C 406.13,420.09 362.68,388.66 345.36,338.13 C 344.12,334.52 343.93,331.80 343.93,325.97 C 343.93,232.87 438.85,152.93 517.60,135.59 C 519.37,135.20 521.19,135.00 523.00,135.00 C 523.20,135.00 533.14,135.87 542.52,135.87 Z" transform="translate(1777.97,100.00) scale(0.8000,0.8000)" fill="#000000" />
  <path d="M 183.66,382.67 C 183.66,383.30 182.84,441.66 182.84,445.48 C 182.84,494.11 186.80,542.80 214.85,556.13 C 224.74,558.23 234.36,559.24 243.67,559.24 C 280.08,559.24 311.81,543.87 337.09,518.60 C 354.24,501.45 368.27,479.50 377.66,455.02 C 377.66,455.02 424.35,472.93 424.34,472.98 C 412.60,503.56 395.05,531.35 372.44,553.96 C 338.88,587.52 293.86,609.15 243.08,609.15 C 242.62,609.15 210.20,608.43 197.35,603.07 C 137.70,578.18 132.79,503.55 132.79,447.39 C 132.79,426.19 133.61,404.52 133.61,383.67 C 133.61,359.41 132.00,346.38 132.00,346.00 C 132.00,345.78 132.65,335.85 132.65,323.75 C 132.65,300.59 130.90,276.43 130.90,253.56 C 130.90,218.64 134.83,181.40 155.29,145.60 L 198.71,170.40 C 184.25,195.70 181.02,223.76 181.02,255.55 C 181.02,278.58 182.65,300.50 182.65,323.53 C 182.65,330.73 182.49,338.02 182.08,345.40 C 183.30,357.21 183.66,369.73 183.66,382.67  Z M 432.62,452.22 C 432.62,524.37 456.63,578.09 495.48,616.94 C 548.37,669.84 633.32,697.68 733.10,697.68 C 750.46,697.68 768.27,696.83 786.43,695.13 C 786.43,695.13 804.22,693.16 804.26,693.15 L 809.78,742.84 C 776.86,746.50 759.44,747.70 732.46,747.70 C 623.80,747.70 525.57,717.75 460.12,652.30 C 410.92,603.09 382.76,535.23 382.76,451.16 C 382.76,430.34 384.48,408.53 388.05,385.76 C 389.71,307.36 393.87,224.58 406.33,147.96 C 406.33,147.96 455.68,155.99 455.67,156.04 C 438.93,258.96 438.05,389.64 437.68,391.98 C 434.26,413.35 432.62,433.41 432.62,452.22  Z M 636.00,149.02 C 636.00,148.87 636.00,137.98 636.00,134.02 L 686.00,133.98 C 686.00,134.62 686.00,135.26 686.00,135.89 C 686.00,139.83 685.99,143.29 685.99,147.25 C 685.99,165.84 686.13,183.80 687.64,201.02 C 690.26,209.90 691.12,218.39 691.12,226.23 C 691.12,242.52 687.28,257.17 687.28,270.85 C 687.28,272.32 687.33,273.72 687.43,275.05 C 694.67,282.40 697.13,290.69 698.98,296.92 L 652.73,310.63 L 660.10,314.51 C 657.07,313.91 654.13,312.74 651.45,311.01 L 651.04,311.13 C 650.69,309.94 644.17,306.89 641.21,297.68 C 638.12,288.08 637.13,278.92 637.13,270.51 C 637.13,254.23 640.97,239.59 640.97,225.93 C 640.97,209.87 636.00,224.53 636.00,149.02  Z M 296.72,186.94 L 293.28,137.06 L 526.96,121.09 L 759.27,99.24 C 759.27,99.24 825.93,85.52 825.99,85.51 L 836.07,134.48 C 766.73,148.76 766.73,148.76 765.36,148.88 C 531.04,170.91 531.04,170.91 530.72,170.94 L 296.72,186.94 Z" transform="translate(2828.81,100.00) scale(0.8000,0.8000)" fill="#000000" />
</svg>
