<?xml version="1.0" encoding="UTF-8" standalone="no"?>
<!--
Representation of "noka" in sitelen kalama pona
Generated by generate_sitelen_kalama_pona.py

Description:
  Representation of "noka" in sitelen kalama pona.
  Sources: noka: https://commons.wikimedia.org/wiki/File:Sitelen_seli_kiwen_-_noka.svg

Categories:
  [[Category:Toki Pona text containing noka]]

Sources:
  noka: https://commons.wikimedia.org/wiki/File:Sitelen_seli_kiwen_-_noka.svg
-->
<svg version="1.1" width="862" height="1000"
     viewBox="0 0 862 1000"
     xmlns="http://www.w3.org/2000/svg">
  <path d="M368 668Q368 675 366.0 679.0Q364 683 364 685Q364 696 376.5 709.5Q389 723 400 723Q411 723 421.5 718.0Q432 713 436 706Q442 697 442 660Q442 658 438.0 634.5Q434 611 434 548Q434 515 442 430Q444 403 448.0 395.5Q452 388 466 388Q478 388 498.5 391.0Q519 394 530 394Q558 394 611.0 390.5Q664 387 684 383Q698 381 722.0 371.0Q746 361 750 356Q751 354 757.5 346.0Q764 338 768.0 331.5Q772 325 772 321Q772 312 779.0 292.5Q786 273 786 248Q786 170 776 157Q768 147 768 139Q768 126 731.5 106.0Q695 86 676 86Q659 86 650 81Q642 77 526.0 70.5Q410 64 360 64Q310 64 232 68Q173 72 158.0 74.5Q143 77 140 84Q124 112 124 133Q124 138 126 140Q127 144 126.5 147.5Q126 151 125.0 153.5Q124 156 123.0 158.0Q122 160 122.5 160.5Q123 161 126 161Q132 161 130 188Q128 228 128 237V293Q128 296 128.0 301.0Q128 306 128 312Q128 321 130.0 327.5Q132 334 132 336Q132 338 130.0 344.5Q128 351 128 360Q128 365 129.0 374.0Q130 383 130 386Q130 396 124 396Q116 396 126 401Q137 408 135 416Q134 419 132 419Q128 419 127.5 459.5Q127 500 126.0 543.5Q125 587 120 593Q114 599 114 641Q114 722 152 722Q159 722 173.5 706.0Q188 690 188 680Q188 677 186.0 664.5Q184 652 184 647Q184 647 185.0 630.0Q186 613 187.5 586.5Q189 560 190.5 530.5Q192 501 193.0 470.0Q194 439 194 419V393Q194 228 202 218Q205 213 199.5 200.0Q194 187 200 185Q204 182 202 167Q201 156 204.0 153.5Q207 151 226 149Q234 148 246 148Q252 148 259.0 149.0Q266 150 266 150Q269 150 274 147Q277 144 327.0 140.5Q377 137 410 137Q435 137 461.5 138.0Q488 139 511.5 140.0Q535 141 557.5 142.5Q580 144 598.0 146.0Q616 148 629.5 149.0Q643 150 650.5 151.0Q658 152 658 152Q679 152 686.5 163.5Q694 175 700 175Q709 175 717.5 183.5Q726 192 726 201Q726 208 730.0 215.0Q734 222 730 232Q726 247 728 250Q731 255 727.0 266.5Q723 278 718 278Q714 278 714.0 279.0Q714 280 714 286Q714 297 682.0 305.0Q650 313 618.0 316.5Q586 320 586 320Q586 321 574 321Q545 321 516.0 317.5Q487 314 446 314Q420 314 392 316Q380 317 377.0 320.5Q374 324 370 340Q364 363 366 366Q367 368 370.5 418.5Q374 469 374 484Q374 493 372.0 517.5Q370 542 366 545Q362 548 362 586Q362 614 365.0 640.0Q368 666 368 668Z" transform="translate(0.00,958.33) scale(0.9583,-0.9583)" fill="#000000" />
</svg>
