<?xml version="1.0" encoding="UTF-8" standalone="no"?>
<!--
Representation of "kili Kiwi" in sitelen kalama pona
Generated by generate_sitelen_kalama_pona.py

Description:
  Representation of "kili Kiwi" in sitelen kalama pona.
  Sources: kili: https://commons.wikimedia.org/wiki/File:Sitelen_seli_kiwen_-_kili.svg; ki: https://commons.wikimedia.org/wiki/File:Sitelen_kalama_pona_-_ki.svg; wi: https://commons.wikimedia.org/wiki/File:Sitelen_kalama_pona_-_wi.svg

Categories:
  [[Category:Sitelen kalama pona]]
  [[Category:Toki Pona text containing kili]]
  [[Category:Toki Pona text containing sound symbol Ki]]
  [[Category:Toki Pona text containing sound symbol Wi]]

Sources:
  kili: https://commons.wikimedia.org/wiki/File:Sitelen_seli_kiwen_-_kili.svg
  ki: https://commons.wikimedia.org/wiki/File:Sitelen_kalama_pona_-_ki.svg
  wi: https://commons.wikimedia.org/wiki/File:Sitelen_kalama_pona_-_wi.svg
-->
<svg version="1.1" width="4163" height="1000"
     viewBox="0 0 4163 1000"
     xmlns="http://www.w3.org/2000/svg">
  <path d="M774 414Q774 401 781.0 351.0Q788 301 788 275Q788 258 776.5 233.0Q765 208 762 177Q761 169 737.0 141.5Q713 114 706 114Q704 114 692.5 106.5Q681 99 663.5 88.0Q646 77 632 71Q620 65 601.0 52.5Q582 40 556 31Q514 17 468 17Q441 17 412.5 21.0Q384 25 362.0 30.0Q340 35 288 47Q280 49 260.0 67.5Q240 86 238 86Q226 86 179.0 146.5Q132 207 132 221Q132 232 126.0 239.0Q120 246 118 256Q117 266 114 273Q112 276 112 322Q112 349 113.0 365.5Q114 382 123.0 407.5Q132 433 150 452Q166 470 172 470Q174 470 182.0 476.0Q190 482 201.5 491.5Q213 501 224 506Q237 514 242 519Q244 523 292 523Q327 523 338 516Q360 504 388 489Q410 478 410 473Q410 471 415 477Q436 509 436 523Q436 528 436.5 529.5Q437 531 440 531Q448 531 448 541Q448 548 455.0 557.5Q462 567 462 573Q462 587 502.5 638.0Q543 689 558 689Q570 689 584.0 678.0Q598 667 598.0 659.0Q598 651 590.5 638.0Q583 625 578 625Q570 625 570 618Q570 614 543.0 583.5Q516 553 512 534Q509 526 510.5 524.0Q512 522 522 522Q531 522 561.0 529.5Q591 537 618 537Q641 537 657.5 532.5Q674 528 679.0 524.0Q684 520 694 512Q705 500 716.5 493.0Q728 486 733.0 483.5Q738 481 738.0 479.0Q738 477 739.0 476.5Q740 476 746 476Q752 476 761.0 454.5Q770 433 772 433Q774 433 774 420ZM686 171Q687 171 691.5 174.5Q696 178 703.0 187.0Q710 196 716.5 208.5Q723 221 727.5 243.5Q732 266 732 292Q732 370 714 413Q708 426 689.0 446.5Q670 467 664 467Q659 467 655.5 473.5Q652 480 636 479Q616 478 591.0 473.0Q566 468 566 465Q566 461 558 461Q544 461 515.0 437.5Q486 414 486 393Q486 381 482 381Q476 381 476 374Q476 368 470 368Q460 368 436 372Q416 376 411.0 379.0Q406 382 404 391Q403 398 399.5 401.5Q396 405 387.0 410.0Q378 415 370 423Q358 437 354 437Q350 437 341.5 441.5Q333 446 319.0 450.0Q305 454 288 454Q266 454 262 448Q258 442 246.0 437.5Q234 433 218.5 422.5Q203 412 190 392Q180 377 177.0 369.5Q174 362 174 346Q174 301 184 271Q197 235 200 224Q202 213 219.0 192.0Q236 171 260.0 148.0Q284 125 317.5 107.0Q351 89 382 88Q422 86 438 86Q494 86 529.0 95.0Q564 104 580.0 112.5Q596 121 606 121Q608 121 609.0 120.5Q610 120 610 120Q619 120 637.0 130.5Q655 141 660 149Q674 171 686 171Z" transform="translate(0.00,958.33) scale(0.9583,-0.9583)" fill="#000000" />
  <path d="M 24.637998,12.488337 H 20.72216 q -1.48166,0 -2.54,-1.058333 -1.05833,-1.058333 -1.05833,-2.54 V 3.598338 q 0,-1.481667 1.05833,-2.54 Q 19.2405,4e-6 20.72216,4e-6 h 3.915838 V 0.846671 H 20.72216 q -1.13241,0 -1.94733,0.814917 -0.80433,0.804333 -0.80433,1.93675 v 5.291666 q 0,1.132417 0.80433,1.93675 0.81492,0.814917 1.94733,0.814917 h 3.915838 z" transform="translate(-428.69,0.00) scale(80.0747,80.0747)" fill="#000000" />
  <path d="M 75.014662,0.846671 V 4e-6 h 13.123333 v 0.846667 z m 0,11.641666 v -0.846666 h 13.123333 v 0.846666 z" transform="translate(-4462.58,0.00) scale(80.0747,80.0747)" fill="#000000" />
  <path d="M 75.014662,0.846671 V 4e-6 h 13.123333 v 0.846667 z m 0,11.641666 v -0.846666 h 13.123333 v 0.846666 z" transform="translate(-3411.74,0.00) scale(80.0747,80.0747)" fill="#000000" />
  <path d="m 87.714667,4e-6 h 2.8575 q 1.481666,0 2.54,1.058334 1.058333,1.058333 1.058333,2.54 v 5.291666 q 0,1.481667 -1.058333,2.54 -1.058334,1.058333 -2.54,1.058333 h -2.8575 v -0.846666 h 2.8575 q 1.132416,0 1.93675,-0.814917 0.814916,-0.804333 0.814916,-1.93675 V 3.598338 q 0,-1.132417 -0.814916,-1.93675 -0.804334,-0.814917 -1.93675,-0.814917 h -2.8575 z" transform="translate(-3377.84,0.00) scale(80.0747,80.0747)" fill="#000000" />
  <path d="M 401.00,131.00 C 376.66,131.00 351.33,107.86 351.33,84.01 C 351.33,81.77 351.54,79.45 352.00,77.06 C 353.02,48.40 378.36,33.25 392.71,24.67 C 393.22,24.36 398.21,21.37 399.37,20.49 L 422.46,49.25 C 427.47,52.78 438.12,62.38 438.12,80.17 C 438.12,81.22 438.08,82.28 437.99,83.32 C 437.99,83.51 437.99,83.70 437.99,83.90 C 438.00,84.93 438.01,86.06 438.01,87.29 C 438.01,130.35 403.09,131.00 401.00,131.00  Z M 201.42,181.56 L 232.54,142.41 L 388.58,266.44 L 357.46,305.59 C 357.46,305.59 201.46,181.59 201.42,181.56  Z M 408.05,512.35 L 449.97,539.62 L 341.95,705.65 L 300.03,678.38 C 300.03,678.38 408.03,512.38 408.05,512.35  Z M 603.52,100.45 C 617.37,100.45 630.21,111.06 630.21,126.54 C 630.21,131.42 628.96,135.38 628.29,137.09 L 611.57,130.58 C 610.87,134.39 609.27,138.07 606.79,141.28 L 605.30,128.14 L 581.72,118.96 L 587.27,143.62 L 606.10,150.24 C 601.54,151.34 598.35,153.47 590.37,154.38 C 589.39,154.49 588.26,154.63 586.82,154.63 C 584.68,154.63 578.80,154.30 573.26,151.03 C 462.15,156.17 403.43,286.67 403.43,386.40 C 403.43,391.40 403.58,396.35 403.87,401.24 C 421.69,511.78 515.35,602.55 619.46,625.39 L 632.56,627.26 C 632.56,627.26 625.49,676.75 625.44,676.74 C 610.56,674.62 610.56,674.62 609.70,674.43 C 484.63,647.45 374.92,539.74 354.31,407.89 C 354.27,407.67 353.42,400.12 353.42,385.59 C 353.42,249.92 438.68,100.88 580.40,100.88 C 585.35,100.88 589.69,100.88 593.24,101.79 C 593.35,101.76 598.57,100.45 603.52,100.45 Z" transform="translate(1669.62,100.00) scale(0.8000,0.8000)" fill="#000000" />
  <path d="M 178.29,277.39 C 178.29,276.09 177.65,255.13 177.65,254.90 C 177.65,234.20 182.19,225.03 189.87,217.79 L 224.13,254.21 C 225.61,252.44 226.72,250.31 228.05,248.40 C 227.90,249.14 227.78,251.99 227.78,255.85 C 227.78,258.59 228.38,276.70 228.38,276.91 C 228.38,286.09 227.13,288.79 227.13,302.45 C 227.13,326.43 231.74,354.12 240.88,379.68 C 246.27,394.78 273.28,466.05 332.27,469.04 C 338.14,469.33 351.83,474.59 371.42,474.59 C 396.46,474.59 445.27,467.99 461.84,354.49 C 461.26,346.85 460.98,339.20 460.98,331.62 C 460.98,307.86 463.74,284.71 468.70,264.11 C 471.38,253.03 481.33,245.00 493.00,245.00 C 506.81,245.00 518.00,256.19 518.00,270.00 C 518.00,270.86 517.54,316.01 512.18,355.80 C 514.66,382.35 526.76,456.09 584.57,456.09 C 590.84,456.09 597.81,455.30 605.61,453.59 C 606.28,453.44 606.95,453.32 607.63,453.23 C 703.50,440.29 739.18,318.31 748.29,258.23 C 750.13,246.09 760.58,237.00 773.00,237.00 C 785.39,237.00 795.81,246.03 797.70,258.13 C 809.13,331.57 802.56,409.36 807.88,481.56 C 810.07,499.84 811.15,517.12 811.15,533.43 C 811.15,742.33 635.97,762.20 510.75,762.20 C 428.76,762.20 340.51,752.43 267.51,752.43 C 258.04,752.43 248.87,752.60 240.06,752.97 L 237.92,703.03 C 247.75,702.61 257.81,702.42 268.09,702.42 C 342.07,702.42 428.91,712.11 511.12,712.11 C 671.94,712.11 761.25,672.71 761.25,534.39 C 761.25,519.95 760.27,504.20 758.19,487.03 C 756.72,474.93 755.66,438.72 755.32,396.17 C 738.81,426.01 696.51,491.18 615.38,502.63 C 605.21,504.79 595.40,505.83 586.01,505.83 C 565.78,505.83 518.64,501.25 487.51,447.06 C 476.62,469.94 445.60,524.58 371.44,524.58 C 357.52,524.58 342.74,522.66 327.12,518.80 C 229.63,511.80 177.10,394.51 177.10,303.13 C 177.10,288.31 178.29,283.12 178.29,277.39  Z M 482.30,108.14 C 483.59,111.08 486.57,118.29 486.57,127.60 C 486.57,129.56 486.43,131.56 486.14,133.60 C 486.19,134.69 486.21,135.80 486.21,136.92 C 486.21,172.64 462.69,186.48 449.67,192.62 C 446.30,194.20 442.65,195.00 439.00,195.00 C 431.66,195.00 430.03,192.63 424.28,191.27 C 415.92,189.30 389.88,183.14 389.88,153.76 C 389.88,119.99 410.49,102.84 431.07,86.65 C 438.71,80.63 443.00,77.05 445.85,73.91 C 445.85,73.91 446.30,72.79 446.34,72.81 C 447.07,73.10 467.42,81.42 479.61,102.81 L 483.80,106.49 C 483.30,107.05 482.80,107.60 482.30,108.14 Z" transform="translate(2720.47,100.00) scale(0.8000,0.8000)" fill="#000000" />
</svg>
