<?xml version="1.0" encoding="UTF-8" standalone="no"?>
<!--
Representation of "ma tomo pi lili ala lon ma Italija" in sitelen ilo pona
Generated by generate_sitelen_kalama_pona.py

Description:
  Representation of "ma tomo pi lili ala lon ma Italija" in sitelen ilo pona.
  Sources: ma-tomo: https://commons.wikimedia.org/wiki/File:Sitelen_seli_kiwen_-_ma-tomo.svg; pi: https://commons.wikimedia.org/wiki/File:Sitelen_seli_kiwen_-_pi.svg; lili: https://commons.wikimedia.org/wiki/File:Sitelen_seli_kiwen_-_lili.svg; ala: https://commons.wikimedia.org/wiki/File:Sitelen_seli_kiwen_-_ala.svg; lon: https://commons.wikimedia.org/wiki/File:Sitelen_seli_kiwen_-_lon.svg; ma: https://commons.wikimedia.org/wiki/File:Sitelen_seli_kiwen_-_ma.svg; i: https://commons.wikimedia.org/wiki/File:Sitelen_kalama_pona_-_xi.svg; ta: https://commons.wikimedia.org/wiki/File:Sitelen_kalama_pona_-_ta.svg; li: https://commons.wikimedia.org/wiki/File:Sitelen_kalama_pona_-_li.svg; ja: https://commons.wikimedia.org/wiki/File:Sitelen_kalama_pona_-_ja.svg

Categories:
  [[Category:Sitelen kalama pona]]
  [[Category:Toki Pona text containing ma tomo pi lili ala lon ma]]
  [[Category:Toki Pona text containing sound symbol I]]
  [[Category:Toki Pona text containing sound symbol Ta]]
  [[Category:Toki Pona text containing sound symbol Li]]
  [[Category:Toki Pona text containing sound symbol Ja]]

Sources:
  ma-tomo: https://commons.wikimedia.org/wiki/File:Sitelen_seli_kiwen_-_ma-tomo.svg
  pi: https://commons.wikimedia.org/wiki/File:Sitelen_seli_kiwen_-_pi.svg
  lili: https://commons.wikimedia.org/wiki/File:Sitelen_seli_kiwen_-_lili.svg
  ala: https://commons.wikimedia.org/wiki/File:Sitelen_seli_kiwen_-_ala.svg
  lon: https://commons.wikimedia.org/wiki/File:Sitelen_seli_kiwen_-_lon.svg
  ma: https://commons.wikimedia.org/wiki/File:Sitelen_seli_kiwen_-_ma.svg
  i: https://commons.wikimedia.org/wiki/File:Sitelen_kalama_pona_-_xi.svg
  ta: https://commons.wikimedia.org/wiki/File:Sitelen_kalama_pona_-_ta.svg
  li: https://commons.wikimedia.org/wiki/File:Sitelen_kalama_pona_-_li.svg
  ja: https://commons.wikimedia.org/wiki/File:Sitelen_kalama_pona_-_ja.svg
-->
<svg version="1.1" width="10977" height="1000"
     viewBox="0 0 10977 1000"
     xmlns="http://www.w3.org/2000/svg">
  <path d="M192 198Q192 228 198.0 244.0Q204 260 204 262Q204 287 230.5 313.0Q257 339 266 339Q273 339 284.0 348.5Q295 358 296 358Q298 358 312.0 363.5Q326 369 348.0 375.0Q370 381 390 383Q416 385 429.0 390.0Q442 395 450 395Q458 395 464.0 390.5Q470 386 487 386Q493 386 502 387Q505 387 510.5 387.5Q516 388 518 388Q539 388 559.5 380.0Q580 372 588 372Q601 372 637.0 344.5Q673 317 688 295Q694 286 701.0 255.0Q708 224 708 206Q708 199 705.0 194.5Q702 190 702 181Q702 168 694.5 156.5Q687 145 666 124Q625 81 620 81Q616 81 608 74Q601 68 566.5 58.5Q532 49 516 49Q503 49 500.0 44.0Q497 39 480 39Q335 39 268 72Q233 89 222.5 100.5Q212 112 206 139Q204 154 201.0 163.5Q198 173 196.0 175.5Q194 178 193.0 183.5Q192 189 192 198ZM588 302Q587 302 577.0 307.0Q567 312 550.0 316.5Q533 321 516 321Q502 321 495.0 315.5Q488 310 487.0 305.0Q486 300 486 290Q486 270 492.0 266.0Q498 262 522 262Q526 262 539.0 262.5Q552 263 573.5 264.0Q595 265 610.5 268.5Q626 272 626 276Q626 283 620 283Q615 283 604.5 292.5Q594 302 588 302ZM310 288Q306 288 302.0 278.5Q298 269 290 269Q281 269 276.5 261.5Q272 254 278 250Q280 249 296 249Q321 249 359.5 252.5Q398 256 406 260Q420 267 420 284Q420 300 414 305Q405 313 370 313Q350 313 339.0 310.5Q328 308 325.0 306.0Q322 304 320 299Q315 288 310 288ZM560 193H544Q500 193 496 190Q488 186 488 156Q488 131 493.5 123.0Q499 115 513 115Q518 115 530 116Q551 118 565.5 126.5Q580 135 590.0 144.5Q600 154 606 157Q610 159 621.0 173.0Q632 187 632 190Q632 192 615.0 194.5Q598 197 596 195Q594 193 560 193ZM418 188Q397 185 357.5 182.0Q318 179 291.0 177.0Q264 175 264 175Q262 173 270 156Q275 145 282.0 140.5Q289 136 308 129Q328 122 351.0 119.0Q374 116 388.5 115.0Q403 114 404 112Q408 109 410 109Q414 109 421.0 135.0Q428 161 428 174Q428 181 424.5 184.5Q421 188 418 188ZM332 728Q335 728 361.0 754.0Q387 780 398 780Q406 780 415.5 774.0Q425 768 426 763Q426 760 434.0 752.5Q442 745 453.5 736.5Q465 728 476.5 719.5Q488 711 496.0 705.5Q504 700 504 700Q509 695 541.0 672.5Q573 650 582 647Q592 644 604 629Q615 614 615.5 572.5Q616 531 619.0 526.0Q622 521 622 509Q622 501 632.5 492.5Q643 484 652 484Q655 484 660.5 477.0Q666 470 666 461Q666 438 642 430Q634 427 620.0 419.5Q606 412 596 412Q583 412 566 423Q554 430 484 430Q433 430 361.5 425.0Q290 420 270 420Q253 420 243.5 430.5Q234 441 232.0 448.0Q230 455 230 459Q230 459 231.0 464.5Q232 470 233.5 479.0Q235 488 236.5 498.5Q238 509 239.0 520.5Q240 532 240 541Q240 558 232.0 579.5Q224 601 224 605Q224 614 242.0 636.0Q260 658 270 662Q284 667 284 674Q284 677 286.0 679.5Q288 682 291.5 684.0Q295 686 301.5 692.5Q308 699 314 709Q328 728 332 728ZM436 672Q432 672 425.0 680.0Q418 688 406 688Q399 688 395.0 686.5Q391 685 379.5 676.0Q368 667 352 649Q321 614 315.5 607.5Q310 601 310 595Q306 577 302 524L300 497L316 494Q326 492 340 492Q353 492 448.0 495.0Q543 498 546 500Q550 503 550 522Q550 574 536 595Q529 607 494.5 630.0Q460 653 454 660Q443 672 436 672Z" transform="translate(0.00,958.33) scale(0.9583,-0.9583)" fill="#000000" />
  <path d="M178 600Q178 613 172.0 629.5Q166 646 166 651Q166 660 178 675Q187 686 191.5 688.0Q196 690 206 688Q221 685 228.5 675.5Q236 666 237.0 657.5Q238 649 238 634V602Q238 561 244.0 524.5Q250 488 250 466Q250 451 248.0 418.5Q246 386 246 369Q246 369 246.0 367.0Q246 365 246.5 361.5Q247 358 247.5 353.0Q248 348 248.0 339.5Q248 331 248.5 321.0Q249 311 249.5 296.5Q250 282 250 266Q250 179 252 177Q260 168 392 168Q392 168 438.0 168.0Q484 168 532.0 168.5Q580 169 584 169Q698 169 704 167Q710 164 716 164Q722 163 728.0 144.5Q734 126 734 111Q734 109 733.0 103.5Q732 98 727.5 90.5Q723 83 716 83Q714 83 683.5 92.5Q653 102 624 102Q612 102 594.0 100.0Q576 98 562 98Q562 98 558.5 98.5Q555 99 548.0 99.5Q541 100 532.0 100.5Q523 101 510.5 101.5Q498 102 486 102Q485 102 480.5 102.0Q476 102 469.0 101.5Q462 101 454.5 100.5Q447 100 439.5 100.0Q432 100 428 100Q344 100 230 92L190 90L184 104Q180 114 180 131Q180 157 185.0 176.5Q190 196 190 218Q190 218 190.0 225.0Q190 232 190.0 242.5Q190 253 189.5 264.5Q189 276 188.5 287.0Q188 298 188 304Q188 326 190.0 374.0Q192 422 192 441Q192 517 178 540Q176 543 177.0 544.0Q178 545 180.0 545.5Q182 546 182.5 549.5Q183 553 180 562Q176 571 176 578Q176 581 177.0 588.5Q178 596 178 600Z" transform="translate(942.50,958.33) scale(0.9583,-0.9583)" fill="#000000" />
  <path d="M354 494Q373 494 402.0 458.5Q431 423 431 414Q431 410 433.5 408.0Q436 406 440.5 408.0Q445 410 449 414Q456 421 462 424Q465 425 478.5 445.0Q492 465 509.5 483.5Q527 502 541 502Q551 502 563.5 490.5Q576 479 576 468Q576 433 563 433Q556 433 519.5 393.5Q483 354 483 349Q483 345 462.0 325.5Q441 306 437 306Q431 306 414.5 314.0Q398 322 394 327Q391 330 381.5 362.0Q372 394 347 422Q339 431 331.5 445.5Q324 460 324 468Q324 474 333.5 484.0Q343 494 354 494Z" transform="translate(1885.00,958.33) scale(0.9583,-0.9583)" fill="#000000" />
  <path d="M211 109Q170 109 170 144Q170 152 181.0 166.5Q192 181 202.0 191.5Q212 202 214 203Q224 207 255.5 238.5Q287 270 290 280Q292 288 300 288Q306 288 336.5 318.5Q367 349 367 355Q367 359 388.0 381.0Q409 403 409.0 407.0Q409 411 392.5 430.0Q376 449 376.0 451.0Q376 453 363.5 468.0Q351 483 336.5 501.0Q322 519 319 525Q314 536 310 536Q307 536 291.0 559.5Q275 583 272 583Q266 583 246.5 607.0Q227 631 227 638Q227 667 250 667Q268 667 291.0 650.0Q314 633 325 611Q331 599 346.0 583.5Q361 568 365 559Q373 543 395.5 518.0Q418 493 423 483Q442 450 456 450Q468 450 490 479Q501 493 553.5 550.5Q606 608 611 615Q617 621 672 661Q682 668 693 668Q708 668 719.0 655.5Q730 643 730.0 627.0Q730 611 720 611Q715 611 702.0 599.5Q689 588 686 588Q685 588 673.0 579.0Q661 570 642.5 551.5Q624 533 612 515Q602 500 575.0 473.0Q548 446 528.0 423.0Q508 400 508 388Q508 378 522.0 362.5Q536 347 536.0 345.0Q536 343 554.5 317.5Q573 292 573 291Q573 289 581.0 280.5Q589 272 600.0 259.0Q611 246 617 235Q625 219 665.0 183.5Q705 148 709 141Q718 127 711 114Q701 93 681 93Q662 93 650.0 105.0Q638 117 631.0 130.5Q624 144 619 146Q616 148 616 152Q616 155 606.0 166.5Q596 178 579.5 197.5Q563 217 552 234Q542 249 520.5 276.0Q499 303 481.5 323.5Q464 344 462.0 344.0Q460 344 445.0 329.5Q430 315 424 313Q419 311 397.0 286.5Q375 262 365.0 255.0Q355 248 334.5 224.5Q314 201 303 194Q291 187 280.5 168.5Q270 150 264 148Q260 147 247.0 128.0Q234 109 211 109Z" transform="translate(2827.50,958.33) scale(0.9583,-0.9583)" fill="#000000" />
  <path d="M150 252Q150 262 160.5 276.5Q171 291 190 291Q216 291 250.5 285.5Q285 280 296 280Q319 279 382.5 276.0Q446 273 458 273Q470 273 485.5 275.0Q501 277 506 277Q514 277 524.5 272.5Q535 268 538 269Q542 270 614.0 271.0Q686 272 702 278Q713 282 717.5 281.5Q722 281 730 276Q750 263 750 244Q750 213 712 213Q712 213 708.0 213.0Q704 213 695.5 213.5Q687 214 677.0 214.0Q667 214 652.0 214.0Q637 214 622 214Q611 214 601.0 214.0Q591 214 584.5 214.0Q578 214 573.0 213.5Q568 213 566.0 213.0Q564 213 563.5 213.0Q563 213 547.0 213.5Q531 214 505.5 214.5Q480 215 451.5 215.5Q423 216 394.0 216.5Q365 217 346 217Q333 217 322.0 217.0Q311 217 304.0 216.5Q297 216 291.5 216.0Q286 216 283.5 216.0Q281 216 280 216Q273 216 234.5 219.5Q196 223 184 224Q169 225 159.5 233.0Q150 241 150 252ZM388 467Q388 471 393.0 483.0Q398 495 412.5 508.0Q427 521 446 521Q471 521 489.5 491.0Q508 461 508 441Q508 422 487.5 410.0Q467 398 446.0 398.0Q425 398 406.5 422.5Q388 447 388 467Z" transform="translate(3770.00,958.33) scale(0.9583,-0.9583)" fill="#000000" />
  <path d="M152 340Q152 341 154.5 344.0Q157 347 156 359V367Q156 391 167.5 424.0Q179 457 192.5 485.0Q206 513 208 517Q213 534 245.0 555.5Q277 577 278 583Q280 589 289.0 594.0Q298 599 302 607Q305 615 318.0 619.5Q331 624 336 632Q340 639 350.0 644.0Q360 649 373.5 653.5Q387 658 394 661Q400 665 424 665Q455 665 491.0 659.0Q527 653 532 645Q536 640 548 640Q551 640 554 640Q576 640 606 621Q618 613 634 603Q645 598 671.5 565.5Q698 533 698 526Q698 520 705.0 515.5Q712 511 712 506Q712 499 718 495Q724 492 732.0 475.0Q740 458 740 450Q740 447 744.0 439.0Q748 431 748 405Q748 372 741.0 333.0Q734 294 725.5 269.5Q717 245 712 245Q712 245 704.5 230.5Q697 216 684.5 199.5Q672 183 660 178Q652 174 652 168Q652 161 646 161Q641 161 624 145Q606 129 570 121Q490 105 480 105Q464 105 452.5 93.0Q441 81 434 81Q423 81 406.0 88.0Q389 95 388 100Q386 108 356 116Q327 124 282.5 146.0Q238 168 238.0 174.0Q238 180 208.5 210.5Q179 241 176 255Q174 268 163.0 301.0Q152 334 152 340ZM390 461Q391 481 392.0 500.0Q393 519 394.5 532.5Q396 546 397.5 558.0Q399 570 400.5 578.0Q402 586 403.0 591.0Q404 596 405.0 599.0Q406 602 406 602Q406 606 400 606Q390 606 375.0 597.0Q360 588 354 578Q349 567 310.0 527.5Q271 488 270 482Q266 474 264 477Q261 479 256.0 475.5Q251 472 247.5 466.0Q244 460 244 456Q244 451 240.5 447.0Q237 443 233.5 441.0Q230 439 226.5 431.5Q223 424 222 411L220 390L232 399Q241 406 250 406Q251 406 275.5 402.0Q300 398 330 398Q386 398 388 408Q388 418 390 461ZM656 491Q656 496 644.0 508.0Q632 520 632 524Q632 530 615.5 542.5Q599 555 579.5 567.5Q560 580 558 583Q550 591 500 597Q493 598 488 599L474 601L472 572Q470 557 467.0 537.5Q464 518 462.0 498.5Q460 479 460 449Q460 414 464.5 407.5Q469 401 488 401Q531 401 570.0 405.5Q609 410 632.5 414.0Q656 418 660 418Q677 418 680.5 418.5Q684 419 684 422Q684 430 675.5 453.0Q667 476 662 480Q656 485 656 491ZM680 345Q680 353 664 353Q655 353 632.0 346.5Q609 340 576 337Q532 333 520 331Q513 331 496.5 333.5Q480 336 474 336Q468 336 466 334Q462 330 462 247Q462 168 468 168Q469 168 489.5 171.0Q510 174 532.5 179.0Q555 184 558 187Q563 194 572.5 194.0Q582 194 614.5 226.0Q647 258 652 272Q658 288 661.5 288.0Q665 288 672.5 311.5Q680 335 680 345ZM336 333Q318 333 302.5 334.0Q287 335 275.5 336.0Q264 337 254.0 338.5Q244 340 237.5 341.5Q231 343 226.5 344.0Q222 345 220.0 346.0Q218 347 218 347Q214 347 214 341Q214 336 218.0 317.0Q222 298 235.0 271.0Q248 244 266 236Q284 228 315.5 200.5Q347 173 370 172L388 171V334L340 333Z" transform="translate(4712.50,958.33) scale(0.9583,-0.9583)" fill="#000000" />
  <path d="M 24.637998,12.488337 H 20.72216 q -1.48166,0 -2.54,-1.058333 -1.05833,-1.058333 -1.05833,-2.54 V 3.598338 q 0,-1.481667 1.05833,-2.54 Q 19.2405,4e-6 20.72216,4e-6 h 3.915838 V 0.846671 H 20.72216 q -1.13241,0 -1.94733,0.814917 -0.80433,0.804333 -0.80433,1.93675 v 5.291666 q 0,1.132417 0.80433,1.93675 0.81492,0.814917 1.94733,0.814917 h 3.915838 z" transform="translate(4283.81,0.00) scale(80.0747,80.0747)" fill="#000000" />
  <path d="M 75.014662,0.846671 V 4e-6 h 13.123333 v 0.846667 z m 0,11.641666 v -0.846666 h 13.123333 v 0.846666 z" transform="translate(249.92,0.00) scale(80.0747,80.0747)" fill="#000000" />
  <path d="M 75.014662,0.846671 V 4e-6 h 13.123333 v 0.846667 z m 0,11.641666 v -0.846666 h 13.123333 v 0.846666 z" transform="translate(1300.76,0.00) scale(80.0747,80.0747)" fill="#000000" />
  <path d="M 75.014662,0.846671 V 4e-6 h 13.123333 v 0.846667 z m 0,11.641666 v -0.846666 h 13.123333 v 0.846666 z" transform="translate(2351.61,0.00) scale(80.0747,80.0747)" fill="#000000" />
  <path d="M 75.014662,0.846671 V 4e-6 h 13.123333 v 0.846667 z m 0,11.641666 v -0.846666 h 13.123333 v 0.846666 z" transform="translate(3402.46,0.00) scale(80.0747,80.0747)" fill="#000000" />
  <path d="m 87.714667,4e-6 h 2.8575 q 1.481666,0 2.54,1.058334 1.058333,1.058333 1.058333,2.54 v 5.291666 q 0,1.481667 -1.058333,2.54 -1.058334,1.058333 -2.54,1.058333 h -2.8575 v -0.846666 h 2.8575 q 1.132416,0 1.93675,-0.814917 0.814916,-0.804333 0.814916,-1.93675 V 3.598338 q 0,-1.132417 -0.814916,-1.93675 -0.804334,-0.814917 -1.93675,-0.814917 h -2.8575 z" transform="translate(3436.36,0.00) scale(80.0747,80.0747)" fill="#000000" />
  <path d="M 478.60,155.05 L 490.39,124.73 L 508.13,67.56 C 508.13,67.56 555.89,82.38 555.87,82.44 C 537.61,141.27 537.61,141.27 537.30,142.08 L 523.30,178.08 C 521.40,182.95 521.40,182.95 507.68,196.68 L 472.32,161.32 L 478.60,155.05  Z M 461.00,47.00 L 511.00,47.00 L 511.00,59.00 C 511.00,61.02 511.00,61.02 500.88,123.71 L 498.96,158.40 L 449.04,155.62 C 451.12,118.29 451.12,118.29 451.33,116.99 L 461.00,56.98 L 461.00,47.00  Z M 562.37,129.59 C 562.37,168.42 541.80,203.48 504.34,203.48 C 457.22,203.48 422.03,167.43 420.10,131.54 C 418.20,123.70 417.31,115.86 417.31,108.15 C 417.31,75.57 433.17,45.44 455.80,26.84 C 455.84,25.68 455.87,25.02 455.87,25.02 L 458.00,25.09 C 471.42,14.70 487.79,7.71 506.07,7.02 L 506.81,26.78 C 518.12,27.17 525.86,27.43 538.13,39.71 C 543.11,44.69 562.69,67.03 562.69,110.58 C 562.69,114.54 562.50,118.47 562.11,122.33 C 562.28,124.71 562.37,127.13 562.37,129.59  Z M 512.00,122.00 C 512.00,118.86 512.63,117.38 512.63,111.28 C 512.63,98.56 509.72,84.93 504.08,76.70 L 478.03,75.80 C 471.40,85.23 467.42,97.04 467.42,108.69 C 467.42,118.90 470.00,121.32 469.99,128.10 C 469.99,140.27 488.52,152.83 499.42,153.01 C 502.46,153.06 504.00,153.60 505.06,153.60 C 506.61,153.60 512.33,144.59 512.33,128.93 C 512.33,127.53 512.00,122.07 512.00,122.00  Z M 392.18,710.51 C 394.59,710.51 440.05,711.08 440.54,711.08 C 545.86,711.08 656.56,700.02 760.54,677.69 C 713.81,557.34 588.95,474.11 520.96,354.41 C 441.54,473.78 341.82,588.03 269.78,710.52 C 282.93,711.18 296.19,711.41 309.68,711.41 C 336.82,711.41 363.77,710.51 392.18,710.51  Z M 392.24,760.51 C 363.89,760.51 336.11,761.42 309.05,761.42 C 281.74,761.42 254.16,760.50 225.73,756.78 C 213.35,755.16 204.00,744.61 204.00,732.00 C 204.00,727.93 204.99,723.86 206.97,720.18 C 291.31,563.03 421.08,425.84 509.59,279.08 L 537.54,295.93 L 546.08,292.38 C 547.74,296.37 549.48,300.32 551.30,304.23 L 552.42,304.90 C 552.27,305.15 552.12,305.40 551.97,305.65 C 616.04,441.50 772.25,529.99 817.06,689.20 C 817.68,691.42 818.00,693.71 818.00,696.00 C 818.00,707.71 809.92,717.69 798.78,720.32 C 683.01,747.68 558.80,761.07 440.63,761.07 C 440.15,761.07 393.01,760.51 392.24,760.51 Z" transform="translate(6382.12,100.00) scale(0.8000,0.8000)" fill="#000000" />
  <path d="M 606.00,542.00 C 606.00,546.18 603.91,554.87 603.91,568.08 C 603.91,626.37 650.88,632.48 740.82,636.50 C 786.76,638.55 832.37,640.59 866.94,657.93 L 914.83,665.30 C 914.83,665.30 907.22,714.71 907.17,714.70 C 855.17,706.70 855.17,706.70 855.17,706.70 C 845.62,705.23 841.04,697.37 807.61,691.96 C 759.76,684.22 697.95,688.78 646.90,677.14 C 616.57,670.23 554.06,650.54 554.06,566.86 C 554.06,558.44 554.70,549.61 555.98,540.37 C 555.66,515.94 555.39,491.39 555.39,466.76 C 555.39,362.05 560.27,255.89 586.78,151.80 C 586.78,151.80 635.23,164.14 635.22,164.20 C 610.19,262.47 605.41,365.06 605.41,468.94 C 605.41,502.99 606.00,541.27 606.00,542.00  Z M 188.61,713.52 C 253.17,713.52 264.03,634.00 272.00,554.74 L 272.00,472.00 C 272.00,458.65 280.28,461.80 280.28,420.74 C 280.28,419.96 279.71,388.35 279.71,388.02 C 279.71,353.88 280.47,395.07 291.49,306.05 C 298.20,251.85 305.43,193.50 340.54,158.39 C 358.87,140.06 384.10,129.89 414.62,129.89 C 420.36,129.89 426.27,130.25 432.37,130.98 L 791.06,125.03 C 791.06,125.03 991.54,97.24 991.59,97.24 L 998.46,146.76 C 804.56,173.63 795.49,174.96 793.42,174.99 L 431.00,181.00 C 427.46,181.00 422.24,179.74 413.12,179.74 C 360.94,179.74 351.03,232.07 341.10,312.24 C 338.20,335.68 335.46,358.94 329.84,379.96 C 329.75,382.50 329.71,385.14 329.71,387.86 C 329.71,389.00 330.44,424.31 330.44,424.67 C 330.44,441.15 329.05,459.17 322.00,477.10 L 322.00,556.00 C 322.00,557.04 317.74,616.22 305.93,658.28 C 298.73,683.89 274.89,763.28 187.01,763.28 C 178.49,763.28 169.59,762.51 160.32,760.91 C 114.76,759.15 63.76,752.23 19.97,735.32 C 19.97,735.32 37.99,688.67 38.03,688.68 C 93.01,709.92 166.24,711.18 167.53,711.42 C 175.39,712.86 182.37,713.52 188.61,713.52 Z" transform="translate(7432.97,100.00) scale(0.8000,0.8000)" fill="#000000" />
  <path d="M 490.97,116.68 C 507.51,116.68 518.00,128.65 518.00,142.00 L 518.00,146.00 L 503.91,146.00 C 514.22,161.14 518.21,183.94 520.65,198.12 C 522.37,201.36 524.11,206.03 524.11,211.66 C 524.11,225.12 513.64,239.32 492.85,239.32 C 481.98,239.32 460.08,230.11 449.92,211.61 C 444.91,207.48 433.75,196.28 433.75,178.71 C 433.75,177.16 433.87,172.75 435.07,168.76 C 435.02,166.24 434.80,162.75 434.80,160.51 C 434.80,134.81 452.06,124.93 467.71,124.93 C 468.08,124.93 468.44,124.94 468.79,124.95 C 473.94,120.83 481.70,116.68 490.97,116.68  Z M 245.19,504.85 C 245.19,459.77 249.85,413.17 249.85,367.96 C 249.85,345.20 248.58,325.85 244.93,312.74 C 244.31,310.54 244.00,308.27 244.00,306.00 L 244.00,190.00 L 294.00,190.00 L 294.00,302.73 C 298.79,321.70 300.29,343.15 300.29,365.89 C 300.29,405.89 295.27,458.13 295.27,505.25 C 295.27,583.07 310.87,609.09 334.21,614.73 C 362.30,611.83 391.34,611.18 420.49,611.18 C 421.23,611.18 492.77,611.63 494.51,611.63 C 574.16,611.63 605.06,605.05 606.18,605.02 L 790.19,599.02 L 791.82,648.98 L 609.36,654.93 C 572.87,660.56 534.76,661.66 496.90,661.66 C 472.39,661.66 447.05,661.19 421.87,661.19 C 360.88,661.19 333.89,665.00 333.00,665.00 C 329.22,665.00 303.16,661.94 282.04,640.81 C 256.99,615.77 245.19,575.70 245.19,504.85 Z" transform="translate(8483.81,100.00) scale(0.8000,0.8000)" fill="#000000" />
  <path d="M 308.00,222.00 C 308.00,221.06 308.12,218.78 308.12,214.56 C 308.12,200.07 306.14,140.92 274.62,117.52 C 266.43,118.82 266.43,118.82 266.20,118.85 C 153.66,215.68 148.89,406.55 145.20,568.63 C 144.43,602.28 144.04,616.80 143.87,618.46 L 133.87,720.46 C 133.87,720.46 84.12,715.58 84.13,715.54 C 94.04,614.39 94.04,614.39 94.04,614.39 C 94.50,599.22 94.85,583.54 95.22,567.48 C 99.14,395.34 103.94,184.51 241.39,74.47 C 245.94,70.83 251.47,69.00 257.00,69.00 C 258.06,69.00 259.11,69.07 260.16,69.20 C 260.98,69.09 262.45,68.87 264.25,68.56 C 267.72,67.97 272.40,66.92 278.67,66.92 C 283.28,66.92 287.89,67.29 292.94,70.03 C 312.90,80.88 335.48,102.36 348.42,144.82 C 355.46,167.93 358.12,192.07 358.12,214.11 C 358.12,216.57 358.09,219.01 358.02,221.41 C 360.99,261.58 357.56,317.44 366.11,359.54 C 374.56,401.14 391.43,411.43 398.92,415.23 C 399.56,415.25 400.19,415.25 400.83,415.25 C 426.04,415.25 445.34,405.33 462.23,388.44 C 492.03,358.64 511.36,305.56 520.52,260.94 C 520.68,260.18 520.87,259.41 521.10,258.66 C 533.66,217.59 545.29,171.44 547.67,125.40 C 547.38,121.16 547.22,117.02 547.22,112.97 C 547.22,93.20 550.15,87.49 555.32,82.32 C 560.20,77.44 566.60,75.00 573.00,75.00 C 586.56,75.00 597.63,85.80 597.99,99.34 C 598.07,102.49 598.11,105.63 598.11,108.77 C 598.11,113.86 598.00,118.93 597.80,123.97 C 602.60,188.08 640.97,304.59 640.97,399.17 C 640.97,399.64 640.65,432.25 637.27,446.01 C 635.43,453.48 634.74,465.32 634.74,479.64 C 634.74,511.26 637.75,542.42 637.75,574.18 C 637.75,631.72 627.52,662.86 607.58,682.80 C 593.13,697.25 573.78,704.09 551.52,704.09 C 543.18,704.09 534.43,703.13 525.38,701.25 C 512.57,702.35 500.08,702.80 487.86,702.80 C 431.18,702.80 380.41,693.17 324.92,692.99 C 321.93,692.99 320.57,692.46 317.30,692.46 C 309.94,692.46 302.64,696.14 290.65,696.94 L 287.33,647.06 C 292.28,646.73 302.94,642.55 318.02,642.55 C 320.73,642.55 323.58,642.69 326.55,643.01 C 384.15,643.35 434.74,652.79 488.18,652.79 C 508.57,652.79 526.61,651.00 527.00,651.00 C 533.16,651.00 540.80,654.39 552.60,654.39 C 570.06,654.39 587.67,646.56 587.67,574.41 C 587.67,558.57 586.91,541.61 586.10,524.85 C 585.32,508.84 584.37,493.08 584.37,478.05 C 584.37,437.57 590.75,441.09 590.75,401.76 C 590.75,360.18 582.16,310.02 572.38,261.76 C 571.34,265.29 570.29,268.78 569.24,272.22 C 559.08,321.16 539.03,382.35 497.58,423.80 C 473.13,448.24 440.32,465.23 400.37,465.23 C 388.84,465.23 386.19,464.23 383.49,463.13 C 311.99,433.80 310.64,341.42 309.59,269.49 C 309.01,230.08 308.00,222.48 308.00,222.00 Z" transform="translate(9534.66,100.00) scale(0.8000,0.8000)" fill="#000000" />
</svg>
