<?xml version="1.0" encoding="UTF-8" standalone="no"?>
<!--
Representation of "musi kalama" in sitelen ilo pona
Generated by generate_sitelen_kalama_pona.py

Description:
  Representation of "musi kalama" in sitelen ilo pona.
  Sources: musi: https://commons.wikimedia.org/wiki/File:Sitelen_seli_kiwen_-_musi.svg; kalama: https://commons.wikimedia.org/wiki/File:Sitelen_seli_kiwen_-_kalama.svg

Categories:
  [[Category:Sitelen kalama pona]]
  [[Category:Toki Pona text containing musi kalama]]

Sources:
  musi: https://commons.wikimedia.org/wiki/File:Sitelen_seli_kiwen_-_musi.svg
  kalama: https://commons.wikimedia.org/wiki/File:Sitelen_seli_kiwen_-_kalama.svg
-->
<svg version="1.1" width="1805" height="1000"
     viewBox="0 0 1805 1000"
     xmlns="http://www.w3.org/2000/svg">
  <path d="M286 410Q282 410 276.5 411.5Q271 413 268 413Q258 413 251.5 406.0Q245 399 236 380Q206 321 206 304Q206 301 210.0 294.5Q214 288 212 272Q212 268 212 262Q212 252 218.5 243.0Q225 234 228 222Q231 205 238 198Q248 189 256 178Q270 158 297.5 144.5Q325 131 347.0 125.5Q369 120 370 119Q373 115 394.5 110.0Q416 105 432.5 105.0Q449 105 480.5 114.0Q512 123 526 125Q551 128 580.5 145.0Q610 162 616 176Q618 184 626.0 184.0Q634 184 640.0 221.5Q646 259 646 270Q646 275 643.0 278.5Q640 282 639.0 282.0Q638 282 642 285Q642 285 642 289Q642 305 628.5 348.0Q615 391 610 391Q607 391 606.0 395.0Q605 399 599.0 406.0Q593 413 580 419Q558 430 547.0 442.5Q536 455 524 479Q512 506 512 518Q512 523 517.5 532.0Q523 541 524 558Q524 577 528 582Q534 586 541.0 602.5Q548 619 548 628Q548 629 549.5 633.5Q551 638 556.0 646.0Q561 654 569.5 661.0Q578 668 594.5 673.0Q611 678 632 678Q670 678 670 671Q670 667 682 667Q702 667 721.5 652.0Q741 637 750.5 623.0Q760 609 760 606Q760 600 764.5 594.5Q769 589 772 578Q775 564 778 564Q780 564 780 557Q780 544 774.5 518.5Q769 493 762 479Q752 460 737.5 445.5Q723 431 711.0 424.0Q699 417 689.5 410.0Q680 403 680 397Q680 389 692 380Q701 371 704.5 354.5Q708 338 710 273Q712 261 712 242Q712 211 703.0 195.0Q694 179 694.0 173.0Q694 167 696 163Q696 162 696.0 160.0Q696 158 696 157Q696 147 676 131Q611 78 595.0 69.5Q579 61 518 48Q470 37 420 37Q385 37 365.0 41.0Q345 45 331.5 51.5Q318 58 310 60Q298 62 282.5 73.5Q267 85 244 96Q212 111 212 116Q212 120 197.5 136.5Q183 153 180 165Q177 180 174 180Q170 180 170 189Q170 194 169.0 195.0Q168 196 164 196Q157 196 152.0 213.0Q147 230 145.0 253.0Q143 276 142.5 291.0Q142 306 142 310Q142 328 151.0 352.0Q160 376 160 384Q160 395 166 400Q173 406 173.0 416.5Q173 427 166 430Q162 431 161.0 432.5Q160 434 160.5 435.0Q161 436 158.5 440.5Q156 445 150 452Q137 466 128.5 490.5Q120 515 120 534Q120 537 123.0 551.5Q126 566 133.0 585.0Q140 604 148 612Q156 621 156 628Q156 636 170.5 655.0Q185 674 196 679Q205 683 226.0 686.0Q247 689 263.5 690.0Q280 691 282 693Q283 694 310.0 691.0Q337 688 367.0 676.5Q397 665 402 648Q403 639 408 639Q412 639 412 628Q412 619 422 609Q432 601 432 569Q432 497 400 466Q379 443 344.0 426.5Q309 410 286 410ZM368 555Q368 565 365.5 575.0Q363 585 356.0 600.0Q349 615 331.0 624.5Q313 634 286 634Q285 634 276.5 633.5Q268 633 256.0 632.0Q244 631 235.0 629.0Q226 627 226 624Q226 618 215.5 602.0Q205 586 196 576Q182 562 182 540Q182 519 196 505Q210 492 216.5 487.5Q223 483 236.0 479.0Q249 475 270 475Q288 475 314 489Q345 504 356.5 517.5Q368 531 368 555ZM712 546Q712 567 691.0 590.5Q670 614 634 614Q626 614 598 604Q588 600 581.0 574.5Q574 549 574.0 526.0Q574 503 598.5 489.0Q623 475 644 475Q677 475 694.5 499.5Q712 524 712 546Z" transform="translate(0.00,958.33) scale(0.9583,-0.9583)" fill="#000000" />
  <path d="M386 402Q392 402 435.0 403.0Q478 404 518.5 405.0Q559 406 560 406Q664 406 696 401Q718 397 725.0 393.0Q732 389 738 376Q744 366 744 359Q744 348 730.0 328.0Q716 308 716 290Q716 249 699.5 202.5Q683 156 670 156Q666 156 634.5 128.5Q603 101 590 98Q581 97 578.5 94.0Q576 91 576 84Q576 74 574.0 72.0Q572 70 558 69Q556 69 516.0 62.0Q476 55 460 55Q437 58 420 58Q389 59 366.5 66.0Q344 73 327.0 82.0Q310 91 300 93Q279 97 259.5 108.0Q240 119 236 130Q233 136 205.5 176.0Q178 216 178 225Q178 225 176.5 228.0Q175 231 173.0 236.5Q171 242 169.0 249.0Q167 256 165.0 266.0Q163 276 161.0 287.0Q159 298 157.5 311.5Q156 325 156 338Q156 363 172.5 381.0Q189 399 202 402Q208 403 264 403Q264 403 324.0 402.5Q384 402 386 402ZM664 315Q664 325 656.0 331.0Q648 337 629.0 339.5Q610 342 596.5 342.5Q583 343 556 343Q463 343 405.5 337.0Q348 331 260 330H228L230 305Q234 280 230 275Q225 269 242 243Q258 220 270 199Q278 186 292.0 175.0Q306 164 314 164Q324 164 324 162Q324 157 340.0 148.0Q356 139 390.0 131.0Q424 123 462 123Q486 123 503.5 128.5Q521 134 531.5 140.5Q542 147 546 147Q549 147 562.0 159.0Q575 171 590 173Q602 174 606.0 177.0Q610 180 610 187Q610 196 619.0 201.5Q628 207 630 212Q631 216 638.0 227.0Q645 238 651.0 254.0Q657 270 660 289Q664 315 664 315ZM214 632Q237 632 277.0 593.5Q317 555 324 555Q333 555 342.5 541.5Q352 528 352 514Q352 490 328 490Q311 490 287.5 506.0Q264 522 258 524Q252 526 243.5 535.5Q235 545 222 549Q209 553 191.5 565.5Q174 578 174 587Q174 589 174.5 592.5Q175 596 177.0 603.5Q179 611 183.0 617.0Q187 623 195.0 627.5Q203 632 214 632ZM532 547Q532 549 532.0 551.5Q532 554 533.5 561.0Q535 568 538.0 573.5Q541 579 547.0 583.5Q553 588 560 588Q571 588 616.5 634.5Q662 681 676 687Q686 690 698 690Q710 690 716.5 681.0Q723 672 723.5 666.0Q724 660 724 656Q724 640 698 623Q685 614 657.0 587.0Q629 560 606.0 538.0Q583 516 578 516Q564 524 556 524Q553 524 548.5 525.0Q544 526 538.0 531.5Q532 537 532 547ZM396 680Q396 689 394.0 706.0Q392 723 392 732Q392 748 401.0 759.0Q410 770 417.5 774.0Q425 778 428 778L440 772Q456 766 456 676Q456 616 452.5 600.0Q449 584 436 584Q415 584 406.5 594.5Q398 605 397.0 617.5Q396 630 392 631Q388 632 388 636Q388 638 392.0 652.0Q396 666 396 680Z" transform="translate(942.50,958.33) scale(0.9583,-0.9583)" fill="#000000" />
</svg>
