<?xml version="1.0" encoding="UTF-8" standalone="no"?>
<!--
Representation of "kulupu:toki pi kulupu toki Loma" in sitelen kalama pona
Generated by generate_sitelen_kalama_pona.py

Description:
  Representation of "kulupu:toki pi kulupu toki Loma" in sitelen kalama pona.
  Sources: pi: https://commons.wikimedia.org/wiki/File:Sitelen_seli_kiwen_-_pi.svg; kulupu: https://commons.wikimedia.org/wiki/File:Sitelen_seli_kiwen_-_kulupu.svg; toki: https://commons.wikimedia.org/wiki/File:Sitelen_seli_kiwen_-_toki.svg; lo: https://commons.wikimedia.org/wiki/File:Sitelen_kalama_pona_-_lo.svg; ma: https://commons.wikimedia.org/wiki/File:Sitelen_kalama_pona_-_ma.svg

Categories:
  [[Category:Sitelen kalama pona]]
  [[Category:Toki Pona text containing kulupu:toki pi kulupu toki]]
  [[Category:Toki Pona text containing sound symbol Lo]]
  [[Category:Toki Pona text containing sound symbol Ma]]

Sources:
  pi: https://commons.wikimedia.org/wiki/File:Sitelen_seli_kiwen_-_pi.svg
  kulupu: https://commons.wikimedia.org/wiki/File:Sitelen_seli_kiwen_-_kulupu.svg
  toki: https://commons.wikimedia.org/wiki/File:Sitelen_seli_kiwen_-_toki.svg
  lo: https://commons.wikimedia.org/wiki/File:Sitelen_kalama_pona_-_lo.svg
  ma: https://commons.wikimedia.org/wiki/File:Sitelen_kalama_pona_-_ma.svg
-->
<svg version="1.1" width="6048" height="1000"
     viewBox="0 0 6048 1000"
     xmlns="http://www.w3.org/2000/svg">
  <path d="M178 600Q178 613 172.0 629.5Q166 646 166 651Q166 660 178 675Q187 686 191.5 688.0Q196 690 206 688Q221 685 228.5 675.5Q236 666 237.0 657.5Q238 649 238 634V602Q238 561 244.0 524.5Q250 488 250 466Q250 451 248.0 418.5Q246 386 246 369Q246 369 246.0 367.0Q246 365 246.5 361.5Q247 358 247.5 353.0Q248 348 248.0 339.5Q248 331 248.5 321.0Q249 311 249.5 296.5Q250 282 250 266Q250 179 252 177Q260 168 392 168Q392 168 438.0 168.0Q484 168 532.0 168.5Q580 169 584 169Q698 169 704 167Q710 164 716 164Q722 163 728.0 144.5Q734 126 734 111Q734 109 733.0 103.5Q732 98 727.5 90.5Q723 83 716 83Q714 83 683.5 92.5Q653 102 624 102Q612 102 594.0 100.0Q576 98 562 98Q562 98 558.5 98.5Q555 99 548.0 99.5Q541 100 532.0 100.5Q523 101 510.5 101.5Q498 102 486 102Q485 102 480.5 102.0Q476 102 469.0 101.5Q462 101 454.5 100.5Q447 100 439.5 100.0Q432 100 428 100Q344 100 230 92L190 90L184 104Q180 114 180 131Q180 157 185.0 176.5Q190 196 190 218Q190 218 190.0 225.0Q190 232 190.0 242.5Q190 253 189.5 264.5Q189 276 188.5 287.0Q188 298 188 304Q188 326 190.0 374.0Q192 422 192 441Q192 517 178 540Q176 543 177.0 544.0Q178 545 180.0 545.5Q182 546 182.5 549.5Q183 553 180 562Q176 571 176 578Q176 581 177.0 588.5Q178 596 178 600Z" transform="translate(0.00,958.33) scale(0.9583,-0.9583)" fill="#000000" />
  <path d="M416 252Q416 226 407.0 204.5Q398 183 390.0 174.5Q382 166 380 166Q377 166 354 144Q332 124 310.5 115.5Q289 107 246 107Q172 107 138 138Q97 175 88.5 188.5Q80 202 80 234Q80 270 82.5 280.0Q85 290 92 296Q99 302 101.0 304.0Q103 306 103.5 307.5Q104 309 106.5 312.0Q109 315 120.5 326.0Q132 337 152 354Q178 379 238 379Q319 379 360 358Q386 344 401.0 315.0Q416 286 416 252ZM346 263Q346 280 338.0 291.0Q330 302 315.0 307.0Q300 312 286.0 313.5Q272 315 252 315Q214 315 189.5 302.0Q165 289 160 278Q155 264 148 264Q142 264 142 255Q142 241 153.5 220.0Q165 199 178 196Q182 195 207.5 185.5Q233 176 252 176Q279 176 295.0 187.5Q311 199 317.5 210.5Q324 222 326 222Q333 222 339.5 235.0Q346 248 346 263ZM820 263Q820 245 817.0 233.0Q814 221 811.0 217.5Q808 214 805.0 211.0Q802 208 802 204Q802 198 794.0 182.0Q786 166 784 166Q781 166 758.0 144.5Q735 123 728 123Q718 123 706.0 117.5Q694 112 694 108Q694 106 676 106Q625 106 598.0 116.0Q571 126 538 153Q527 162 522.0 168.5Q517 175 512.5 194.0Q508 213 508 244Q508 286 520 297Q540 313 540 340Q540 357 561.0 375.5Q582 394 600 394Q629 394 643.5 399.0Q658 404 682 404Q709 404 727.5 399.0Q746 394 760.5 379.5Q775 365 783.0 352.0Q791 339 806 310Q813 297 816 297Q820 297 820 263ZM666 182Q669 182 673.5 181.0Q678 180 680 180Q690 180 702.0 189.0Q714 198 716 198Q721 198 735.5 228.0Q750 258 750 269Q750 273 748 273Q746 273 741.0 285.0Q736 297 728.0 312.5Q720 328 710 335Q706 338 678 338Q653 338 642.0 335.5Q631 333 616 323Q604 316 590 310Q585 309 583.5 303.0Q582 297 582 281Q582 255 578 255Q574 255 574 251Q574 248 578.0 235.5Q582 223 582 217Q582 203 600.0 191.5Q618 180 633.0 176.0Q648 172 652 172Q656 172 659.0 177.0Q662 182 666 182ZM470 732Q500 732 527.0 722.5Q554 713 566.0 705.0Q578 697 578 695Q578 692 585.0 685.0Q592 678 602.0 665.0Q612 652 618 639Q628 617 636 611Q642 605 642 580Q642 520 602 484Q589 473 578.5 466.0Q568 459 563.5 457.0Q559 455 556.0 452.5Q553 450 552 444Q549 433 536 433Q525 433 494.0 431.5Q463 430 456 430Q419 430 398.5 438.0Q378 446 358 467Q338 487 330.0 504.0Q322 521 322 522Q308 538 308 579Q308 597 314 597Q317 597 320.0 603.0Q323 609 329.0 620.0Q335 631 344 640Q355 651 357.0 657.5Q359 664 352 670Q349 674 354 693L360 712L400 717Q430 721 442.0 726.5Q454 732 470 732ZM578 577Q578 607 539.0 641.5Q500 676 438 676Q428 676 428 668Q428 662 416.0 647.5Q404 633 404 626Q404 620 391.0 605.0Q378 590 378 573Q378 546 402 523Q414 510 421.0 507.5Q428 505 450 505Q464 505 474.0 504.0Q484 503 487 502L490 501Q504 501 541.0 528.0Q578 555 578 577Z" transform="translate(942.50,958.33) scale(0.9583,-0.9583)" fill="#000000" />
  <path d="M222 295Q222 320 228.0 339.0Q234 358 240.0 368.0Q246 378 246 382Q246 395 265.0 421.5Q284 448 300 456Q316 465 325.0 475.0Q334 485 335.5 491.0Q337 497 344.0 502.0Q351 507 366 509Q385 512 401.0 516.5Q417 521 428 521Q445 521 487.0 512.0Q529 503 540 503Q552 503 571.5 496.0Q591 489 608.0 481.5Q625 474 628 473Q640 469 640 463Q640 457 647.0 453.0Q654 449 654.0 445.0Q654 441 660.5 434.5Q667 428 676.0 416.0Q685 404 690 391Q700 367 702 365Q706 361 706 347Q706 339 709.0 330.5Q712 322 713.0 320.0Q714 318 712 314Q709 312 707.0 303.0Q705 294 700.0 278.5Q695 263 686 250Q678 237 671.0 219.5Q664 202 654 192Q647 185 644.5 179.5Q642 174 642.5 171.0Q643 168 639.5 165.0Q636 162 626 158Q608 150 608 146Q608 141 586.5 133.0Q565 125 538.0 117.0Q511 109 504 106Q488 98 458 98Q419 98 389.5 107.0Q360 116 345.5 124.5Q331 133 330 133Q322 133 305.0 142.5Q288 152 286 157Q285 165 278 167Q265 172 249.0 217.5Q233 263 230 265Q222 270 222 295ZM584 428Q581 428 570.5 436.0Q560 444 534.0 452.5Q508 461 468 461Q434 461 405.0 452.5Q376 444 361.0 435.0Q346 426 333.0 411.5Q320 397 317.5 393.0Q315 389 312 384Q308 374 302 374Q297 374 289.5 351.5Q282 329 282 313Q282 289 313.5 236.0Q345 183 378 177Q397 173 402 170Q416 163 460 163Q496 163 511.0 169.0Q526 175 528 175Q533 175 548.0 180.5Q563 186 588.0 205.5Q613 225 626 254Q643 288 645.5 296.5Q648 305 648 318Q648 349 638 370Q633 383 611.5 405.5Q590 428 584 428ZM144 612Q144 622 151.5 632.5Q159 643 172 643Q181 643 202.5 624.5Q224 606 227.5 606.0Q231 606 235.0 599.0Q239 592 244 592Q249 592 258.5 579.0Q268 566 268 555Q268 545 259.5 539.5Q251 534 243 533L234 532Q226 532 207.5 550.5Q189 569 182 569Q175 569 170.5 576.0Q166 583 162 583Q144 595 144 612ZM622 636Q645 645 677.0 671.5Q709 698 726 698Q740 698 748.0 689.5Q756 681 756 667Q756 654 752.0 648.5Q748 643 734 636Q722 629 700.0 615.0Q678 601 661.5 591.5Q645 582 638 580Q629 577 623.5 573.0Q618 569 608 569Q580 569 580 589Q580 601 592.0 615.0Q604 629 622 636ZM400 600Q400 601 403.0 615.0Q406 629 409.0 652.0Q412 675 412 697Q412 706 410 712Q405 729 429 742Q447 751 448 740Q448 734 458 730Q464 729 465.0 725.0Q466 721 466 708Q466 673 461.0 651.5Q456 630 456 608Q456 595 444.0 583.0Q432 571 420 571Q410 571 405.0 580.0Q400 589 400 600Z" transform="translate(1885.00,958.33) scale(0.9583,-0.9583)" fill="#000000" />
  <path d="M 24.637998,12.488337 H 20.72216 q -1.48166,0 -2.54,-1.058333 -1.05833,-1.058333 -1.05833,-2.54 V 3.598338 q 0,-1.481667 1.05833,-2.54 Q 19.2405,4e-6 20.72216,4e-6 h 3.915838 V 0.846671 H 20.72216 q -1.13241,0 -1.94733,0.814917 -0.80433,0.804333 -0.80433,1.93675 v 5.291666 q 0,1.132417 0.80433,1.93675 0.81492,0.814917 1.94733,0.814917 h 3.915838 z" transform="translate(1456.31,0.00) scale(80.0747,80.0747)" fill="#000000" />
  <path d="M 75.014662,0.846671 V 4e-6 h 13.123333 v 0.846667 z m 0,11.641666 v -0.846666 h 13.123333 v 0.846666 z" transform="translate(-2577.58,0.00) scale(80.0747,80.0747)" fill="#000000" />
  <path d="M 75.014662,0.846671 V 4e-6 h 13.123333 v 0.846667 z m 0,11.641666 v -0.846666 h 13.123333 v 0.846666 z" transform="translate(-1526.74,0.00) scale(80.0747,80.0747)" fill="#000000" />
  <path d="m 87.714667,4e-6 h 2.8575 q 1.481666,0 2.54,1.058334 1.058333,1.058333 1.058333,2.54 v 5.291666 q 0,1.481667 -1.058333,2.54 -1.058334,1.058333 -2.54,1.058333 h -2.8575 v -0.846666 h 2.8575 q 1.132416,0 1.93675,-0.814917 0.814916,-0.804333 0.814916,-1.93675 V 3.598338 q 0,-1.132417 -0.814916,-1.93675 -0.804334,-0.814917 -1.93675,-0.814917 h -2.8575 z" transform="translate(-1492.84,0.00) scale(80.0747,80.0747)" fill="#000000" />
  <path d="M 465.44,167.91 C 432.23,167.91 400.97,147.23 400.97,111.94 C 400.97,109.21 401.17,106.45 401.59,103.66 C 401.20,100.67 401.02,97.69 401.02,94.72 C 401.02,66.23 417.87,33.05 448.66,29.30 C 448.67,29.14 448.68,29.06 448.68,29.06 L 450.07,29.15 C 450.61,29.11 451.16,29.07 451.71,29.04 C 465.05,30.75 477.97,30.17 484.28,32.08 C 512.10,40.52 536.45,65.06 536.45,94.79 C 536.45,96.81 536.34,98.86 536.10,100.96 C 536.14,101.94 536.16,102.92 536.16,103.91 C 536.16,137.97 511.76,167.28 479.03,167.28 C 477.99,167.28 476.94,167.25 475.88,167.19 C 472.42,167.67 468.93,167.91 465.44,167.91  Z M 455.48,79.62 C 454.05,81.72 451.13,87.02 451.13,95.21 C 451.13,99.17 452.00,99.64 452.00,104.00 C 452.00,108.84 450.64,111.66 450.64,112.96 C 450.64,113.25 455.41,117.85 465.72,117.85 C 470.10,117.85 470.84,117.00 475.00,117.00 C 476.95,117.00 479.69,117.39 479.73,117.39 C 482.11,117.39 486.14,109.21 486.14,103.14 C 486.14,102.13 486.00,101.63 486.00,100.00 C 486.00,97.04 486.47,95.74 486.47,94.64 C 486.47,89.74 478.69,83.61 471.86,80.71 L 455.48,79.62  Z M 208.00,154.00 L 258.00,154.00 L 258.00,661.62 L 711.63,673.01 C 711.63,673.01 710.38,722.99 710.37,722.99 C 232.37,710.99 232.37,710.99 232.37,710.99 C 218.81,710.65 208.00,699.57 208.00,686.00 L 208.00,154.00 Z" transform="translate(3554.62,100.00) scale(0.8000,0.8000)" fill="#000000" />
  <path d="M 522.00,558.00 C 522.00,558.14 521.73,566.22 521.73,572.30 C 521.73,584.12 522.48,594.41 525.00,603.00 L 477.02,617.06 C 472.64,602.14 471.66,587.63 471.66,574.12 C 471.66,568.77 471.81,563.59 471.97,558.60 C 471.09,547.25 470.72,536.08 470.72,525.05 C 470.72,464.30 482.14,406.66 482.14,348.98 C 482.14,342.62 482.00,338.85 482.00,338.00 C 482.00,336.47 482.27,333.61 482.27,327.81 C 482.27,232.28 405.65,104.59 308.07,100.98 C 287.06,100.20 287.06,100.20 286.79,100.20 C 199.98,100.20 129.26,141.64 97.83,286.69 C 74.28,395.40 79.55,527.94 71.91,622.04 L 22.09,617.99 L 22.09,617.96 C 29.63,525.03 24.03,391.17 48.98,276.04 C 66.30,196.08 112.34,50.25 287.76,50.25 C 317.75,50.25 377.94,50.25 441.13,113.44 C 497.05,169.35 532.28,252.44 532.28,327.17 C 532.28,330.91 532.19,334.63 532.01,338.33 C 532.10,341.97 532.14,345.60 532.14,349.21 C 532.14,410.00 520.73,467.35 520.73,525.49 C 520.73,542.54 522.00,557.67 522.00,558.00  Z M 503.68,361.35 C 513.06,336.93 546.33,255.47 629.36,255.47 C 636.20,255.47 643.24,256.04 650.48,257.24 C 753.85,268.91 788.18,355.43 802.57,401.96 C 828.62,486.23 830.28,589.08 848.98,652.94 C 849.66,655.24 850.00,657.62 850.00,660.00 L 850.00,708.00 L 800.00,708.00 L 800.00,663.53 C 773.06,567.33 779.47,405.33 712.11,337.97 C 695.42,321.28 674.43,310.14 644.27,306.85 C 630.12,305.30 630.12,305.30 628.03,305.30 C 609.34,305.30 595.54,312.49 582.92,325.11 C 560.64,347.39 543.89,390.03 533.87,437.20 C 521.40,495.81 518.69,558.66 517.28,592.44 C 516.12,620.45 515.90,625.72 508.15,633.47 C 505.02,636.59 498.32,640.84 490.10,640.84 C 487.33,640.84 467.92,639.96 464.28,615.73 C 462.26,602.27 461.58,587.67 461.58,572.31 C 461.58,555.15 462.43,537.03 463.22,518.46 C 464.06,498.61 464.87,478.30 464.87,458.73 C 464.87,367.02 445.25,331.52 402.27,324.87 C 397.57,324.56 393.02,324.40 388.63,324.40 C 352.32,324.40 276.29,332.40 250.66,463.04 C 244.69,493.49 242.38,526.44 242.38,558.52 C 242.38,583.23 243.75,607.44 245.88,629.63 L 196.12,634.41 C 193.85,610.78 192.32,584.90 192.32,558.14 C 192.32,473.76 207.33,379.47 263.75,323.05 C 294.19,292.61 336.34,274.45 389.51,274.45 C 428.86,274.45 481.87,289.08 503.68,361.35 Z" transform="translate(4605.47,100.00) scale(0.8000,0.8000)" fill="#000000" />
</svg>
