<?xml version="1.0" encoding="UTF-8" standalone="no"?>
<!--
Representation of "meli tonsi" in sitelen ilo pona
Generated by generate_sitelen_kalama_pona.py

Description:
  Representation of "meli tonsi" in sitelen ilo pona.
  Sources: meli-tonsi: https://commons.wikimedia.org/wiki/File:Sitelen_seli_kiwen_-_meli-tonsi.svg

Categories:
  [[Category:Sitelen kalama pona]]
  [[Category:Toki Pona text containing meli tonsi]]

Sources:
  meli-tonsi: https://commons.wikimedia.org/wiki/File:Sitelen_seli_kiwen_-_meli-tonsi.svg
-->
<svg version="1.1" width="862" height="1000"
     viewBox="0 0 862 1000"
     xmlns="http://www.w3.org/2000/svg">
  <path d="M427 453Q435 453 450.5 468.5Q466 484 472 484Q476 484 489.0 497.5Q502 511 518 511Q529 511 536.5 501.0Q544 491 544 479Q544 466 531.5 455.0Q519 444 519 439Q519 433 511 433Q494 433 494 414Q494 410 495.5 401.0Q497 392 497.5 387.5Q498 383 496 379Q493 377 494.0 370.0Q495 363 489 358Q482 353 482 343Q482 335 467.5 320.5Q453 306 446 306Q442 306 441.0 303.0Q440 300 440 284Q440 250 413 250Q404 250 397.0 253.5Q390 257 390 262Q390 263 390.5 264.0Q391 265 391 267Q391 271 385.5 290.0Q380 309 380 314Q380 322 370.5 330.5Q361 339 352.0 351.0Q343 363 343 380Q343 386 344 389Q345 396 343.0 398.0Q341 400 333 400Q321 400 308 413Q290 431 283 437Q272 447 272 459Q272 468 281.0 478.5Q290 489 303 489Q317 489 343.0 470.5Q369 452 372 452H373Q375 453 388.0 450.0Q401 447 405 452Q409 456 414 456Q416 456 420.0 454.5Q424 453 427 453ZM444 395Q438 395 433.0 399.0Q428 403 425.0 404.0Q422 405 412 400Q408 397 408 393Q408 387 415.0 382.0Q422 377 433 377Q441 377 447.0 381.5Q453 386 453 390Q453 395 444 395ZM233 564Q235 564 252.0 578.0Q269 592 284 592Q298 592 298 598Q298 602 309.0 608.0Q320 614 335.0 621.5Q350 629 357 634Q372 646 416 646Q445 646 473.0 642.0Q501 638 501 634Q501 630 507 630Q514 630 538.0 618.0Q562 606 565 601Q569 594 586 585Q608 573 638.0 542.5Q668 512 672 496Q674 487 679.0 476.5Q684 466 690 445Q699 415 699 370Q699 343 695.5 325.0Q692 307 688.5 301.5Q685 296 682.0 291.5Q679 287 679 282Q679 275 669.5 270.5Q660 266 658 260Q655 251 632.0 229.5Q609 208 603 208Q597 208 589.5 201.0Q582 194 578.0 194.0Q574 194 566.0 187.0Q558 180 552 180Q542 180 528 171Q513 163 471 163H444Q384 163 359.0 166.0Q334 169 308 180Q273 195 243.5 219.0Q214 243 205 263Q198 277 180.0 294.5Q162 312 160 324Q159 340 147 348Q150 348 150 356Q150 362 147.5 379.5Q145 397 145 404Q145 413 149.5 423.0Q154 433 156 442Q161 478 165.0 487.5Q169 497 189 518Q196 525 196 528Q196 532 212.5 548.0Q229 564 233 564ZM273 273Q276 273 298.5 259.0Q321 245 330 245Q337 245 354.0 239.0Q371 233 377 233Q378 233 379.0 233.5Q380 234 381 234Q386 236 394.5 231.5Q403 227 407 234Q410 238 410.5 238.5Q411 239 412.5 238.5Q414 238 416.0 236.5Q418 235 424.0 233.5Q430 232 440 232Q475 232 499.5 237.0Q524 242 534.0 248.5Q544 255 555.5 262.0Q567 269 577 271Q590 275 590 278Q590 281 605 290Q638 309 638 372Q638 419 632 423Q625 426 629 438V443Q629 477 564.5 527.5Q500 578 456 585L423 592Q419 592 406.0 582.5Q393 573 370 567Q352 562 337.0 555.5Q322 549 314.5 544.5Q307 540 303 540Q298 540 280.0 526.0Q262 512 260 512Q256 512 244.5 500.0Q233 488 233 484Q233 481 224.0 474.5Q215 468 215 460Q215 453 212.5 449.0Q210 445 206.5 442.5Q203 440 200.5 429.5Q198 419 198 401Q198 368 201 367Q203 366 211.5 353.5Q220 341 231.5 323.5Q243 306 251 297Q265 279 267.5 276.0Q270 273 273 273ZM135 147Q135 131 140.5 124.0Q146 117 146.0 116.0Q146 115 144.5 112.5Q143 110 141.5 104.0Q140 98 140 88Q140 42 113 42Q106 42 99.0 43.5Q92 45 83.5 54.0Q75 63 75 79V87Q75 103 74.0 119.5Q73 136 72.0 149.0Q71 162 70.0 174.0Q69 186 67.5 195.0Q66 204 65.0 210.5Q64 217 63.5 220.5Q63 224 63 224Q63 227 64.0 235.0Q65 243 65 247Q65 261 58.0 272.5Q51 284 51 296Q51 300 52.0 307.0Q53 314 53 316Q53 317 51.0 322.5Q49 328 49 349Q49 415 58.0 441.5Q67 468 68 490Q69 515 73.5 527.5Q78 540 78 541V546Q78 552 88.0 573.5Q98 595 98 603Q98 611 105.5 618.0Q113 625 119 635Q127 652 140.0 664.0Q153 676 162.0 683.0Q171 690 173 697Q174 703 180.5 707.0Q187 711 197.5 715.5Q208 720 216 727Q227 738 230 735Q234 731 244.0 736.5Q254 742 257 750Q261 761 276 761Q284 761 307.5 768.5Q331 776 358 777Q386 778 402.0 786.0Q418 794 439 794Q460 794 486.0 787.0Q512 780 518 780Q535 780 561.5 768.0Q588 756 607.5 744.5Q627 733 628 733Q632 733 632 725Q632 720 632.5 719.0Q633 718 634 721Q638 727 641 727Q644 727 653.5 718.0Q663 709 673 706Q687 702 699.0 690.0Q711 678 717.0 668.0Q723 658 727 658Q731 658 743.0 647.0Q755 636 760 636Q766 636 767.0 634.5Q768 633 768 625Q768 614 772.5 601.0Q777 588 782 588Q785 588 786.0 582.0Q787 576 789.5 563.0Q792 550 799 538Q807 522 815.5 463.0Q824 404 831 377Q839 347 839 193V164Q839 133 840.0 124.0Q841 115 846 111Q855 105 849.0 99.5Q843 94 848 88Q849 87 849 82Q849 81 848.0 76.5Q847 72 845.0 63.5Q843 55 839.0 48.0Q835 41 827.5 35.5Q820 30 811 30Q797 30 784.5 38.0Q772 46 772 57Q770 87 770 99Q770 123 773.0 123.0Q776 123 776 158Q775 201 775 205Q775 231 777.0 234.5Q779 238 779 242Q779 246 777.5 268.5Q776 291 773.0 319.5Q770 348 767 352Q761 357 765 362Q765 362 765.5 364.5Q766 367 766 369Q766 385 760.5 434.0Q755 483 755 494Q755 508 735.5 537.0Q716 566 716 572Q716 582 687.0 615.0Q658 648 649 648Q645 648 630.0 660.0Q615 672 608 674Q605 675 589.0 688.0Q573 701 550 707Q498 722 480.0 725.5Q462 729 428 729Q418 729 406.5 727.5Q395 726 385.0 724.0Q375 722 366.5 720.0Q358 718 353.0 716.5Q348 715 348 715Q345 714 308.5 702.5Q272 691 262 683Q248 672 228.5 659.0Q209 646 206 646L205 647L195 635L193 633Q175 606 172 606Q168 606 168.0 599.0Q168 592 162.0 592.0Q156 592 150.5 577.5Q145 563 145 548Q145 532 144.0 528.5Q143 525 139 521Q133 517 131.0 504.0Q129 491 128.0 480.5Q127 470 125 470Q124 470 119.5 456.5Q115 443 110.5 425.0Q106 407 106 397Q106 393 108 389Q113 384 113.5 345.5Q114 307 117.5 253.5Q121 200 134 166Q135 163 135 154Z" transform="translate(0.00,958.33) scale(0.9583,-0.9583)" fill="#000000" />
</svg>
