<?xml version="1.0" encoding="UTF-8" standalone="no"?>
<!--
Representation of "tawa ma lon ma palisa Kansaka lon tenpo sike nanpa mute ale mute luka" in sitelen ilo pona
Generated by generate_sitelen_kalama_pona.py

Description:
  Representation of "tawa ma lon ma palisa Kansaka lon tenpo sike nanpa mute ale mute luka" in sitelen ilo pona.
  Sources: tawa: https://commons.wikimedia.org/wiki/File:Sitelen_seli_kiwen_-_tawa.svg; ma: https://commons.wikimedia.org/wiki/File:Sitelen_seli_kiwen_-_ma.svg; lon: https://commons.wikimedia.org/wiki/File:Sitelen_seli_kiwen_-_lon.svg; ma: https://commons.wikimedia.org/wiki/File:Sitelen_seli_kiwen_-_ma.svg; palisa: https://commons.wikimedia.org/wiki/File:Sitelen_seli_kiwen_-_palisa.svg; kan: https://commons.wikimedia.org/wiki/File:Sitelen_kalama_pona_-_kan.svg; sa: https://commons.wikimedia.org/wiki/File:Sitelen_kalama_pona_-_sa.svg; ka: https://commons.wikimedia.org/wiki/File:Sitelen_kalama_pona_-_ka.svg; lon: https://commons.wikimedia.org/wiki/File:Sitelen_kalama_pona_-_lon.svg; ten: https://commons.wikimedia.org/wiki/File:Sitelen_kalama_pona_-_ten.svg; po: https://commons.wikimedia.org/wiki/File:Sitelen_kalama_pona_-_po.svg; si: https://commons.wikimedia.org/wiki/File:Sitelen_kalama_pona_-_si.svg; ke: https://commons.wikimedia.org/wiki/File:Sitelen_kalama_pona_-_ke.svg; nan: https://commons.wikimedia.org/wiki/File:Sitelen_kalama_pona_-_nan.svg; pa: https://commons.wikimedia.org/wiki/File:Sitelen_kalama_pona_-_pa.svg; mu: https://commons.wikimedia.org/wiki/File:Sitelen_kalama_pona_-_mu.svg; te: https://commons.wikimedia.org/wiki/File:Sitelen_kalama_pona_-_te.svg; a: https://commons.wikimedia.org/wiki/File:Sitelen_kalama_pona_-_xa.svg; le: https://commons.wikimedia.org/wiki/File:Sitelen_kalama_pona_-_le.svg; mu: https://commons.wikimedia.org/wiki/File:Sitelen_kalama_pona_-_mu.svg; te: https://commons.wikimedia.org/wiki/File:Sitelen_kalama_pona_-_te.svg; lu: https://commons.wikimedia.org/wiki/File:Sitelen_kalama_pona_-_lu.svg; ka: https://commons.wikimedia.org/wiki/File:Sitelen_kalama_pona_-_ka.svg

Categories:
  [[Category:Sitelen kalama pona]]
  [[Category:Toki Pona text containing tawa ma lon ma palisa]]
  [[Category:Toki Pona text containing sound symbol Kan]]
  [[Category:Toki Pona text containing sound symbol Sa]]
  [[Category:Toki Pona text containing sound symbol Ka]]
  [[Category:Toki Pona text containing sound symbol Lon]]
  [[Category:Toki Pona text containing sound symbol Ten]]
  [[Category:Toki Pona text containing sound symbol Po]]
  [[Category:Toki Pona text containing sound symbol Si]]
  [[Category:Toki Pona text containing sound symbol Ke]]
  [[Category:Toki Pona text containing sound symbol Nan]]
  [[Category:Toki Pona text containing sound symbol Pa]]
  [[Category:Toki Pona text containing sound symbol Mu]]
  [[Category:Toki Pona text containing sound symbol Te]]
  [[Category:Toki Pona text containing sound symbol A]]
  [[Category:Toki Pona text containing sound symbol Le]]
  [[Category:Toki Pona text containing sound symbol Mu]]
  [[Category:Toki Pona text containing sound symbol Te]]
  [[Category:Toki Pona text containing sound symbol Lu]]
  [[Category:Toki Pona text containing sound symbol Ka]]

Sources:
  tawa: https://commons.wikimedia.org/wiki/File:Sitelen_seli_kiwen_-_tawa.svg
  ma: https://commons.wikimedia.org/wiki/File:Sitelen_seli_kiwen_-_ma.svg
  lon: https://commons.wikimedia.org/wiki/File:Sitelen_seli_kiwen_-_lon.svg
  ma: https://commons.wikimedia.org/wiki/File:Sitelen_seli_kiwen_-_ma.svg
  palisa: https://commons.wikimedia.org/wiki/File:Sitelen_seli_kiwen_-_palisa.svg
  kan: https://commons.wikimedia.org/wiki/File:Sitelen_kalama_pona_-_kan.svg
  sa: https://commons.wikimedia.org/wiki/File:Sitelen_kalama_pona_-_sa.svg
  ka: https://commons.wikimedia.org/wiki/File:Sitelen_kalama_pona_-_ka.svg
  lon: https://commons.wikimedia.org/wiki/File:Sitelen_kalama_pona_-_lon.svg
  ten: https://commons.wikimedia.org/wiki/File:Sitelen_kalama_pona_-_ten.svg
  po: https://commons.wikimedia.org/wiki/File:Sitelen_kalama_pona_-_po.svg
  si: https://commons.wikimedia.org/wiki/File:Sitelen_kalama_pona_-_si.svg
  ke: https://commons.wikimedia.org/wiki/File:Sitelen_kalama_pona_-_ke.svg
  nan: https://commons.wikimedia.org/wiki/File:Sitelen_kalama_pona_-_nan.svg
  pa: https://commons.wikimedia.org/wiki/File:Sitelen_kalama_pona_-_pa.svg
  mu: https://commons.wikimedia.org/wiki/File:Sitelen_kalama_pona_-_mu.svg
  te: https://commons.wikimedia.org/wiki/File:Sitelen_kalama_pona_-_te.svg
  a: https://commons.wikimedia.org/wiki/File:Sitelen_kalama_pona_-_xa.svg
  le: https://commons.wikimedia.org/wiki/File:Sitelen_kalama_pona_-_le.svg
  mu: https://commons.wikimedia.org/wiki/File:Sitelen_kalama_pona_-_mu.svg
  te: https://commons.wikimedia.org/wiki/File:Sitelen_kalama_pona_-_te.svg
  lu: https://commons.wikimedia.org/wiki/File:Sitelen_kalama_pona_-_lu.svg
  ka: https://commons.wikimedia.org/wiki/File:Sitelen_kalama_pona_-_ka.svg
-->
<svg version="1.1" width="24746" height="1000"
     viewBox="0 0 24746 1000"
     xmlns="http://www.w3.org/2000/svg">
  <path d="M284 89Q284 88 283.5 84.0Q283 80 281.5 73.0Q280 66 277.0 59.5Q274 53 268.0 48.5Q262 44 254 44Q242 44 203.0 55.5Q164 67 159 67Q155 67 150.0 71.0Q145 75 130.0 85.0Q115 95 93 106Q38 134 38 155Q38 164 52.0 173.5Q66 183 69 199Q71 213 84.5 223.0Q98 233 103 243Q108 254 120.5 269.0Q133 284 154 327Q159 338 171.5 353.5Q184 369 188 384Q194 405 197 405Q201 405 206.0 417.5Q211 430 211 438Q211 447 216 447Q218 447 220.0 451.5Q222 456 225.5 464.5Q229 473 235 480Q242 488 268.0 530.5Q294 573 299 578Q316 596 333.0 625.5Q350 655 355 673Q358 686 370.5 695.0Q383 704 393.5 708.5Q404 713 404 715Q404 719 414.0 730.5Q424 742 432 742Q436 742 450 735Q462 729 465.0 720.5Q468 712 472.0 686.5Q476 661 486 632L504 578Q511 555 550.0 480.0Q589 405 594 381Q597 366 610.5 337.0Q624 308 624 302Q624 298 633.5 281.5Q643 265 643 260Q643 256 657.5 224.0Q672 192 674 177Q679 145 699 143Q712 143 765 138Q820 133 832.0 130.5Q844 128 844 121Q844 116 853.0 116.0Q862 116 862 91Q862 82 858.0 74.0Q854 66 854 61Q854 50 818 50Q795 50 781.0 57.0Q767 64 735 64Q700 64 679.0 59.5Q658 55 657 55Q641 55 628.0 68.0Q615 81 615 97Q615 103 616.0 109.0Q617 115 617 121Q617 133 612.0 143.0Q607 153 607 160Q607 168 591.5 210.5Q576 253 571 259Q562 270 557.0 292.5Q552 315 539 340Q538 343 537.5 345.5Q537 348 537.0 350.0Q537 352 537.5 353.5Q538 355 538.0 356.5Q538 358 536.5 359.0Q535 360 533 361Q526 363 526 372Q526 389 512.0 425.0Q498 461 487.0 474.0Q476 487 462.0 514.0Q448 541 444 557Q441 571 428.0 600.5Q415 630 412 630Q410 630 403.0 616.0Q396 602 393 602Q392 602 376.5 579.0Q361 556 361 555Q361 551 344 534Q330 519 313.0 493.5Q296 468 286.5 449.0Q277 430 277.0 427.0Q277 424 267.5 410.5Q258 397 258 390Q258 381 254 381Q249 381 249 374Q249 369 237.5 348.5Q226 328 224 321Q221 311 216.0 311.0Q211 311 211 306Q211 303 208.5 299.0Q206 295 201.0 285.5Q196 276 191 263Q184 245 161.5 220.5Q139 196 139 183Q139 173 147.5 162.5Q156 152 164 152Q171 152 194.0 142.5Q217 133 219 133Q226 133 249.0 124.5Q272 116 272 113Q272 108 278.0 102.5Q284 97 284 89Z" transform="translate(0.00,958.33) scale(0.9583,-0.9583)" fill="#000000" />
  <path d="M152 340Q152 341 154.5 344.0Q157 347 156 359V367Q156 391 167.5 424.0Q179 457 192.5 485.0Q206 513 208 517Q213 534 245.0 555.5Q277 577 278 583Q280 589 289.0 594.0Q298 599 302 607Q305 615 318.0 619.5Q331 624 336 632Q340 639 350.0 644.0Q360 649 373.5 653.5Q387 658 394 661Q400 665 424 665Q455 665 491.0 659.0Q527 653 532 645Q536 640 548 640Q551 640 554 640Q576 640 606 621Q618 613 634 603Q645 598 671.5 565.5Q698 533 698 526Q698 520 705.0 515.5Q712 511 712 506Q712 499 718 495Q724 492 732.0 475.0Q740 458 740 450Q740 447 744.0 439.0Q748 431 748 405Q748 372 741.0 333.0Q734 294 725.5 269.5Q717 245 712 245Q712 245 704.5 230.5Q697 216 684.5 199.5Q672 183 660 178Q652 174 652 168Q652 161 646 161Q641 161 624 145Q606 129 570 121Q490 105 480 105Q464 105 452.5 93.0Q441 81 434 81Q423 81 406.0 88.0Q389 95 388 100Q386 108 356 116Q327 124 282.5 146.0Q238 168 238.0 174.0Q238 180 208.5 210.5Q179 241 176 255Q174 268 163.0 301.0Q152 334 152 340ZM390 461Q391 481 392.0 500.0Q393 519 394.5 532.5Q396 546 397.5 558.0Q399 570 400.5 578.0Q402 586 403.0 591.0Q404 596 405.0 599.0Q406 602 406 602Q406 606 400 606Q390 606 375.0 597.0Q360 588 354 578Q349 567 310.0 527.5Q271 488 270 482Q266 474 264 477Q261 479 256.0 475.5Q251 472 247.5 466.0Q244 460 244 456Q244 451 240.5 447.0Q237 443 233.5 441.0Q230 439 226.5 431.5Q223 424 222 411L220 390L232 399Q241 406 250 406Q251 406 275.5 402.0Q300 398 330 398Q386 398 388 408Q388 418 390 461ZM656 491Q656 496 644.0 508.0Q632 520 632 524Q632 530 615.5 542.5Q599 555 579.5 567.5Q560 580 558 583Q550 591 500 597Q493 598 488 599L474 601L472 572Q470 557 467.0 537.5Q464 518 462.0 498.5Q460 479 460 449Q460 414 464.5 407.5Q469 401 488 401Q531 401 570.0 405.5Q609 410 632.5 414.0Q656 418 660 418Q677 418 680.5 418.5Q684 419 684 422Q684 430 675.5 453.0Q667 476 662 480Q656 485 656 491ZM680 345Q680 353 664 353Q655 353 632.0 346.5Q609 340 576 337Q532 333 520 331Q513 331 496.5 333.5Q480 336 474 336Q468 336 466 334Q462 330 462 247Q462 168 468 168Q469 168 489.5 171.0Q510 174 532.5 179.0Q555 184 558 187Q563 194 572.5 194.0Q582 194 614.5 226.0Q647 258 652 272Q658 288 661.5 288.0Q665 288 672.5 311.5Q680 335 680 345ZM336 333Q318 333 302.5 334.0Q287 335 275.5 336.0Q264 337 254.0 338.5Q244 340 237.5 341.5Q231 343 226.5 344.0Q222 345 220.0 346.0Q218 347 218 347Q214 347 214 341Q214 336 218.0 317.0Q222 298 235.0 271.0Q248 244 266 236Q284 228 315.5 200.5Q347 173 370 172L388 171V334L340 333Z" transform="translate(942.50,958.33) scale(0.9583,-0.9583)" fill="#000000" />
  <path d="M150 252Q150 262 160.5 276.5Q171 291 190 291Q216 291 250.5 285.5Q285 280 296 280Q319 279 382.5 276.0Q446 273 458 273Q470 273 485.5 275.0Q501 277 506 277Q514 277 524.5 272.5Q535 268 538 269Q542 270 614.0 271.0Q686 272 702 278Q713 282 717.5 281.5Q722 281 730 276Q750 263 750 244Q750 213 712 213Q712 213 708.0 213.0Q704 213 695.5 213.5Q687 214 677.0 214.0Q667 214 652.0 214.0Q637 214 622 214Q611 214 601.0 214.0Q591 214 584.5 214.0Q578 214 573.0 213.5Q568 213 566.0 213.0Q564 213 563.5 213.0Q563 213 547.0 213.5Q531 214 505.5 214.5Q480 215 451.5 215.5Q423 216 394.0 216.5Q365 217 346 217Q333 217 322.0 217.0Q311 217 304.0 216.5Q297 216 291.5 216.0Q286 216 283.5 216.0Q281 216 280 216Q273 216 234.5 219.5Q196 223 184 224Q169 225 159.5 233.0Q150 241 150 252ZM388 467Q388 471 393.0 483.0Q398 495 412.5 508.0Q427 521 446 521Q471 521 489.5 491.0Q508 461 508 441Q508 422 487.5 410.0Q467 398 446.0 398.0Q425 398 406.5 422.5Q388 447 388 467Z" transform="translate(1885.00,958.33) scale(0.9583,-0.9583)" fill="#000000" />
  <path d="M152 340Q152 341 154.5 344.0Q157 347 156 359V367Q156 391 167.5 424.0Q179 457 192.5 485.0Q206 513 208 517Q213 534 245.0 555.5Q277 577 278 583Q280 589 289.0 594.0Q298 599 302 607Q305 615 318.0 619.5Q331 624 336 632Q340 639 350.0 644.0Q360 649 373.5 653.5Q387 658 394 661Q400 665 424 665Q455 665 491.0 659.0Q527 653 532 645Q536 640 548 640Q551 640 554 640Q576 640 606 621Q618 613 634 603Q645 598 671.5 565.5Q698 533 698 526Q698 520 705.0 515.5Q712 511 712 506Q712 499 718 495Q724 492 732.0 475.0Q740 458 740 450Q740 447 744.0 439.0Q748 431 748 405Q748 372 741.0 333.0Q734 294 725.5 269.5Q717 245 712 245Q712 245 704.5 230.5Q697 216 684.5 199.5Q672 183 660 178Q652 174 652 168Q652 161 646 161Q641 161 624 145Q606 129 570 121Q490 105 480 105Q464 105 452.5 93.0Q441 81 434 81Q423 81 406.0 88.0Q389 95 388 100Q386 108 356 116Q327 124 282.5 146.0Q238 168 238.0 174.0Q238 180 208.5 210.5Q179 241 176 255Q174 268 163.0 301.0Q152 334 152 340ZM390 461Q391 481 392.0 500.0Q393 519 394.5 532.5Q396 546 397.5 558.0Q399 570 400.5 578.0Q402 586 403.0 591.0Q404 596 405.0 599.0Q406 602 406 602Q406 606 400 606Q390 606 375.0 597.0Q360 588 354 578Q349 567 310.0 527.5Q271 488 270 482Q266 474 264 477Q261 479 256.0 475.5Q251 472 247.5 466.0Q244 460 244 456Q244 451 240.5 447.0Q237 443 233.5 441.0Q230 439 226.5 431.5Q223 424 222 411L220 390L232 399Q241 406 250 406Q251 406 275.5 402.0Q300 398 330 398Q386 398 388 408Q388 418 390 461ZM656 491Q656 496 644.0 508.0Q632 520 632 524Q632 530 615.5 542.5Q599 555 579.5 567.5Q560 580 558 583Q550 591 500 597Q493 598 488 599L474 601L472 572Q470 557 467.0 537.5Q464 518 462.0 498.5Q460 479 460 449Q460 414 464.5 407.5Q469 401 488 401Q531 401 570.0 405.5Q609 410 632.5 414.0Q656 418 660 418Q677 418 680.5 418.5Q684 419 684 422Q684 430 675.5 453.0Q667 476 662 480Q656 485 656 491ZM680 345Q680 353 664 353Q655 353 632.0 346.5Q609 340 576 337Q532 333 520 331Q513 331 496.5 333.5Q480 336 474 336Q468 336 466 334Q462 330 462 247Q462 168 468 168Q469 168 489.5 171.0Q510 174 532.5 179.0Q555 184 558 187Q563 194 572.5 194.0Q582 194 614.5 226.0Q647 258 652 272Q658 288 661.5 288.0Q665 288 672.5 311.5Q680 335 680 345ZM336 333Q318 333 302.5 334.0Q287 335 275.5 336.0Q264 337 254.0 338.5Q244 340 237.5 341.5Q231 343 226.5 344.0Q222 345 220.0 346.0Q218 347 218 347Q214 347 214 341Q214 336 218.0 317.0Q222 298 235.0 271.0Q248 244 266 236Q284 228 315.5 200.5Q347 173 370 172L388 171V334L340 333Z" transform="translate(2827.50,958.33) scale(0.9583,-0.9583)" fill="#000000" />
  <path d="M354 109Q354 119 349.0 125.5Q344 132 344 137Q344 148 343 149Q342 149 340 146Q335 139 334 151Q334 157 334 167Q334 176 325.0 200.5Q316 225 316 236Q316 264 311.0 293.5Q306 323 306 371Q306 414 302.0 433.5Q298 453 298 466Q298 480 295.0 499.5Q292 519 292 523Q292 526 294 532Q296 537 298.0 559.5Q300 582 302.0 612.5Q304 643 308 660Q312 683 312 700Q312 717 322 726Q334 738 328 738Q326 738 334.5 746.5Q343 755 354.0 764.5Q365 774 368 776Q375 778 406 778Q466 778 474 769Q478 761 484 761Q488 761 493.0 754.0Q498 747 504 747Q512 747 532.5 723.5Q553 700 554 690Q554 688 561.0 677.5Q568 667 568 660Q569 658 577.0 622.0Q585 586 586 552Q593 409 604 402Q606 400 605.0 396.0Q604 392 602.0 386.5Q600 381 602 373Q608 358 608 282Q608 146 598 136Q594 131 594 120Q594 97 566.0 72.0Q538 47 484 47Q483 47 447.0 54.0Q411 61 410 62Q409 64 397.0 69.5Q385 75 376 84Q364 95 359.0 95.0Q354 95 354 109ZM540 188Q540 215 545.0 231.5Q550 248 550 260Q550 262 548.5 295.5Q547 329 544.0 365.5Q541 402 540 405Q534 414 530 500Q527 589 511.5 628.5Q496 668 446 714Q432 726 414 726Q394 726 382 712Q378 707 371.5 688.0Q365 669 358.5 630.5Q352 592 352 550Q352 536 353.5 536.0Q355 536 358.0 503.0Q361 470 364.5 412.5Q368 355 370 299Q371 255 376.0 237.0Q381 219 406 164Q411 152 416.5 145.0Q422 138 442.5 129.0Q463 120 494 120Q528 120 528 133Q528 142 532 142Q535 142 539.0 152.0Q543 162 542 168Q540 173 540 188Z" transform="translate(3770.00,958.33) scale(0.9583,-0.9583)" fill="#000000" />
  <path d="M 24.637998,12.488337 H 20.72216 q -1.48166,0 -2.54,-1.058333 -1.05833,-1.058333 -1.05833,-2.54 V 3.598338 q 0,-1.481667 1.05833,-2.54 Q 19.2405,4e-6 20.72216,4e-6 h 3.915838 V 0.846671 H 20.72216 q -1.13241,0 -1.94733,0.814917 -0.80433,0.804333 -0.80433,1.93675 v 5.291666 q 0,1.132417 0.80433,1.93675 0.81492,0.814917 1.94733,0.814917 h 3.915838 z" transform="translate(3341.31,0.00) scale(80.0747,80.0747)" fill="#000000" />
  <path d="M 75.014662,0.846671 V 4e-6 h 13.123333 v 0.846667 z m 0,11.641666 v -0.846666 h 13.123333 v 0.846666 z" transform="translate(-692.58,0.00) scale(80.0747,80.0747)" fill="#000000" />
  <path d="M 75.014662,0.846671 V 4e-6 h 13.123333 v 0.846667 z m 0,11.641666 v -0.846666 h 13.123333 v 0.846666 z" transform="translate(358.26,0.00) scale(80.0747,80.0747)" fill="#000000" />
  <path d="M 75.014662,0.846671 V 4e-6 h 13.123333 v 0.846667 z m 0,11.641666 v -0.846666 h 13.123333 v 0.846666 z" transform="translate(1409.11,0.00) scale(80.0747,80.0747)" fill="#000000" />
  <path d="M 75.014662,0.846671 V 4e-6 h 13.123333 v 0.846667 z m 0,11.641666 v -0.846666 h 13.123333 v 0.846666 z" transform="translate(2459.96,0.00) scale(80.0747,80.0747)" fill="#000000" />
  <path d="M 75.014662,0.846671 V 4e-6 h 13.123333 v 0.846667 z m 0,11.641666 v -0.846666 h 13.123333 v 0.846666 z" transform="translate(3510.81,0.00) scale(80.0747,80.0747)" fill="#000000" />
  <path d="M 75.014662,0.846671 V 4e-6 h 13.123333 v 0.846667 z m 0,11.641666 v -0.846666 h 13.123333 v 0.846666 z" transform="translate(4561.65,0.00) scale(80.0747,80.0747)" fill="#000000" />
  <path d="M 75.014662,0.846671 V 4e-6 h 13.123333 v 0.846667 z m 0,11.641666 v -0.846666 h 13.123333 v 0.846666 z" transform="translate(5612.50,0.00) scale(80.0747,80.0747)" fill="#000000" />
  <path d="M 75.014662,0.846671 V 4e-6 h 13.123333 v 0.846667 z m 0,11.641666 v -0.846666 h 13.123333 v 0.846666 z" transform="translate(6663.35,0.00) scale(80.0747,80.0747)" fill="#000000" />
  <path d="M 75.014662,0.846671 V 4e-6 h 13.123333 v 0.846667 z m 0,11.641666 v -0.846666 h 13.123333 v 0.846666 z" transform="translate(7714.19,0.00) scale(80.0747,80.0747)" fill="#000000" />
  <path d="M 75.014662,0.846671 V 4e-6 h 13.123333 v 0.846667 z m 0,11.641666 v -0.846666 h 13.123333 v 0.846666 z" transform="translate(8765.04,0.00) scale(80.0747,80.0747)" fill="#000000" />
  <path d="M 75.014662,0.846671 V 4e-6 h 13.123333 v 0.846667 z m 0,11.641666 v -0.846666 h 13.123333 v 0.846666 z" transform="translate(9815.89,0.00) scale(80.0747,80.0747)" fill="#000000" />
  <path d="M 75.014662,0.846671 V 4e-6 h 13.123333 v 0.846667 z m 0,11.641666 v -0.846666 h 13.123333 v 0.846666 z" transform="translate(10866.74,0.00) scale(80.0747,80.0747)" fill="#000000" />
  <path d="M 75.014662,0.846671 V 4e-6 h 13.123333 v 0.846667 z m 0,11.641666 v -0.846666 h 13.123333 v 0.846666 z" transform="translate(11917.58,0.00) scale(80.0747,80.0747)" fill="#000000" />
  <path d="M 75.014662,0.846671 V 4e-6 h 13.123333 v 0.846667 z m 0,11.641666 v -0.846666 h 13.123333 v 0.846666 z" transform="translate(12968.43,0.00) scale(80.0747,80.0747)" fill="#000000" />
  <path d="M 75.014662,0.846671 V 4e-6 h 13.123333 v 0.846667 z m 0,11.641666 v -0.846666 h 13.123333 v 0.846666 z" transform="translate(14019.28,0.00) scale(80.0747,80.0747)" fill="#000000" />
  <path d="M 75.014662,0.846671 V 4e-6 h 13.123333 v 0.846667 z m 0,11.641666 v -0.846666 h 13.123333 v 0.846666 z" transform="translate(15070.12,0.00) scale(80.0747,80.0747)" fill="#000000" />
  <path d="M 75.014662,0.846671 V 4e-6 h 13.123333 v 0.846667 z m 0,11.641666 v -0.846666 h 13.123333 v 0.846666 z" transform="translate(16120.97,0.00) scale(80.0747,80.0747)" fill="#000000" />
  <path d="M 75.014662,0.846671 V 4e-6 h 13.123333 v 0.846667 z m 0,11.641666 v -0.846666 h 13.123333 v 0.846666 z" transform="translate(17171.82,0.00) scale(80.0747,80.0747)" fill="#000000" />
  <path d="m 87.714667,4e-6 h 2.8575 q 1.481666,0 2.54,1.058334 1.058333,1.058333 1.058333,2.54 v 5.291666 q 0,1.481667 -1.058333,2.54 -1.058334,1.058333 -2.54,1.058333 h -2.8575 v -0.846666 h 2.8575 q 1.132416,0 1.93675,-0.814917 0.814916,-0.804333 0.814916,-1.93675 V 3.598338 q 0,-1.132417 -0.814916,-1.93675 -0.804334,-0.814917 -1.93675,-0.814917 h -2.8575 z" transform="translate(17205.72,0.00) scale(80.0747,80.0747)" fill="#000000" />
  <path d="M 427.60,902.87 C 389.78,902.87 353.14,925.73 345.61,968.37 C 345.61,968.37 296.38,959.68 296.39,959.63 C 307.82,894.86 363.43,852.88 427.55,852.88 C 429.20,852.88 430.85,852.91 432.51,852.97 C 434.36,852.84 436.19,852.78 437.99,852.78 C 480.36,852.78 501.45,883.93 516.73,906.51 C 531.67,928.57 539.40,938.05 553.12,938.05 C 564.33,938.05 570.54,933.00 579.00,933.00 C 582.08,933.00 583.38,933.56 587.73,933.56 C 603.39,933.56 618.75,925.01 637.89,909.68 L 684.62,859.05 L 721.38,892.95 C 672.14,946.30 672.14,946.30 670.72,947.44 C 649.72,964.45 622.72,983.58 588.06,983.58 C 586.01,983.58 583.93,983.51 581.83,983.38 C 571.83,986.40 562.14,987.94 552.89,987.94 C 511.48,987.94 490.96,957.64 475.30,934.51 C 458.85,910.21 451.66,902.71 439.15,902.71 C 436.30,902.71 435.16,903.00 433.00,903.00 C 432.95,903.00 429.39,902.87 427.60,902.87  Z M 235.77,643.31 C 235.77,651.79 236.00,656.96 236.00,658.00 L 236.00,704.00 L 186.00,704.00 L 186.00,658.38 C 185.85,653.24 185.78,648.11 185.78,643.00 C 185.78,589.09 193.92,537.14 201.71,486.75 C 204.73,467.20 207.71,447.87 210.22,428.73 C 210.91,423.48 212.27,424.09 212.27,414.93 C 212.27,414.74 211.69,397.42 211.69,396.83 C 211.69,389.56 211.69,389.56 215.39,367.94 C 217.73,354.27 220.20,339.84 222.06,327.75 C 223.09,292.37 228.16,260.48 228.16,227.82 C 228.16,223.01 228.00,218.10 228.00,218.00 C 228.00,213.64 229.45,210.87 229.45,189.48 C 229.45,188.94 228.50,136.10 228.50,135.56 C 228.50,104.77 228.50,20.54 303.91,11.20 C 304.93,11.07 305.97,11.00 307.00,11.00 C 417.90,11.00 500.44,96.50 559.09,160.73 L 572.68,174.32 L 537.32,209.68 C 522.91,195.27 522.91,195.27 522.52,194.84 C 464.36,131.12 395.62,62.39 308.58,61.01 C 288.87,64.03 278.57,79.66 278.57,136.86 C 278.57,156.11 279.53,174.47 279.53,190.46 C 279.53,200.32 279.18,209.97 278.04,219.26 C 278.12,222.22 278.15,225.16 278.15,228.08 C 278.15,264.05 272.86,296.47 271.99,330.64 C 271.82,337.02 261.71,389.45 261.71,396.59 C 261.71,402.78 262.37,409.14 262.37,415.72 C 262.37,422.05 261.80,429.41 259.51,437.37 C 256.96,456.56 254.02,475.57 251.11,494.44 C 243.30,544.98 235.77,594.40 235.77,643.31  Z M 543.81,527.98 L 582.22,559.99 L 484.07,677.76 L 477.36,691.19 L 432.63,668.82 C 436.42,661.91 439.21,654.17 443.78,648.01 C 443.78,648.01 543.78,528.01 543.81,527.98  Z M 733.00,639.00 C 733.15,639.00 740.71,639.31 747.60,639.31 C 757.58,639.31 797.07,639.31 818.26,623.81 C 818.26,623.81 847.78,664.17 847.74,664.19 C 833.58,674.56 805.84,689.32 748.28,689.32 C 742.85,689.32 737.68,689.20 732.83,689.01 C 731.20,689.05 729.57,689.07 727.95,689.07 C 665.32,689.07 582.68,659.26 527.28,529.52 C 507.20,482.51 495.14,432.68 488.32,389.97 C 488.28,389.75 487.39,382.24 487.39,368.25 C 487.39,245.04 565.29,108.32 695.60,101.04 C 696.06,101.02 696.53,101.00 697.00,101.00 L 727.00,101.00 L 727.00,151.00 L 697.73,151.00 C 592.35,157.37 537.41,278.21 537.41,369.06 C 537.41,373.82 537.56,378.52 537.86,383.15 C 548.86,451.23 591.53,639.08 727.73,639.08 C 729.89,639.08 732.95,639.00 733.00,639.00 Z" transform="translate(5439.62,100.00) scale(0.8000,0.8000)" fill="#000000" />
  <path d="M 577.64,565.25 C 577.64,456.40 383.33,439.54 383.33,286.00 C 383.33,215.36 440.44,158.77 504.81,136.38 L 521.24,183.61 C 500.67,190.76 479.72,203.37 463.83,219.27 C 444.85,238.24 433.32,260.88 433.32,285.95 C 433.32,342.59 469.36,371.28 522.33,411.26 C 572.69,449.26 627.55,490.67 627.55,565.94 C 627.55,572.64 627.10,579.52 626.16,586.58 C 626.55,591.04 626.73,595.49 626.73,599.92 C 626.73,670.56 579.14,737.39 510.17,757.95 C 506.95,758.91 506.95,758.91 415.57,760.99 L 414.43,711.01 L 498.87,709.09 C 546.17,693.40 576.72,646.05 576.72,599.58 C 576.72,594.79 576.00,586.14 576.00,586.00 C 576.00,581.85 577.64,576.17 577.64,565.25  Z M 197.72,446.47 C 197.72,492.62 208.00,522.50 208.00,530.00 C 208.00,532.16 186.84,735.12 185.86,744.60 C 185.86,744.60 136.14,739.44 136.14,739.40 C 157.70,531.63 157.70,531.63 157.70,531.63 C 151.03,502.59 147.85,474.33 147.85,447.12 C 147.85,258.30 300.17,123.35 494.47,123.35 C 520.32,123.35 546.83,125.74 573.72,130.70 C 575.87,130.50 577.95,130.42 579.99,130.42 C 597.86,130.42 618.35,135.00 635.00,135.00 C 637.38,135.00 637.38,135.00 723.71,151.45 C 723.71,151.45 714.35,200.56 714.29,200.55 C 633.32,185.13 633.32,185.13 633.32,185.13 C 632.48,185.15 631.65,185.17 630.82,185.17 C 617.86,185.17 593.41,180.49 579.47,180.49 C 576.64,180.49 576.40,181.00 573.00,181.00 C 566.76,181.00 538.47,173.33 494.42,173.33 C 329.07,173.33 197.72,285.24 197.72,446.47 Z" transform="translate(6490.47,100.00) scale(0.8000,0.8000)" fill="#000000" />
  <path d="M 235.77,643.31 C 235.77,651.79 236.00,656.96 236.00,658.00 L 236.00,704.00 L 186.00,704.00 L 186.00,658.38 C 185.85,653.24 185.78,648.11 185.78,643.00 C 185.78,589.09 193.92,537.14 201.71,486.75 C 204.73,467.20 207.71,447.87 210.22,428.73 C 210.91,423.48 212.27,424.09 212.27,414.93 C 212.27,414.74 211.69,397.42 211.69,396.83 C 211.69,389.56 211.69,389.56 215.39,367.94 C 217.73,354.27 220.20,339.84 222.06,327.75 C 223.09,292.37 228.16,260.48 228.16,227.82 C 228.16,223.01 228.00,218.10 228.00,218.00 C 228.00,213.64 229.45,210.87 229.45,189.48 C 229.45,188.94 228.50,136.10 228.50,135.56 C 228.50,104.77 228.50,20.54 303.91,11.20 C 304.93,11.07 305.97,11.00 307.00,11.00 C 417.90,11.00 500.44,96.50 559.09,160.73 L 572.68,174.32 L 537.32,209.68 C 522.91,195.27 522.91,195.27 522.52,194.84 C 464.36,131.12 395.62,62.39 308.58,61.01 C 288.87,64.03 278.57,79.66 278.57,136.86 C 278.57,156.11 279.53,174.47 279.53,190.46 C 279.53,200.32 279.18,209.97 278.04,219.26 C 278.12,222.22 278.15,225.16 278.15,228.08 C 278.15,264.05 272.86,296.47 271.99,330.64 C 271.82,337.02 261.71,389.45 261.71,396.59 C 261.71,402.78 262.37,409.14 262.37,415.72 C 262.37,422.05 261.80,429.41 259.51,437.37 C 256.96,456.56 254.02,475.57 251.11,494.44 C 243.30,544.98 235.77,594.40 235.77,643.31  Z M 543.81,527.98 L 582.22,559.99 L 484.07,677.76 L 477.36,691.19 L 432.63,668.82 C 436.42,661.91 439.21,654.17 443.78,648.01 C 443.78,648.01 543.78,528.01 543.81,527.98  Z M 733.00,639.00 C 733.15,639.00 740.71,639.31 747.60,639.31 C 757.58,639.31 797.07,639.31 818.26,623.81 C 818.26,623.81 847.78,664.17 847.74,664.19 C 833.58,674.56 805.84,689.32 748.28,689.32 C 742.85,689.32 737.68,689.20 732.83,689.01 C 731.20,689.05 729.57,689.07 727.95,689.07 C 665.32,689.07 582.68,659.26 527.28,529.52 C 507.20,482.51 495.14,432.68 488.32,389.97 C 488.28,389.75 487.39,382.24 487.39,368.25 C 487.39,245.04 565.29,108.32 695.60,101.04 C 696.06,101.02 696.53,101.00 697.00,101.00 L 727.00,101.00 L 727.00,151.00 L 697.73,151.00 C 592.35,157.37 537.41,278.21 537.41,369.06 C 537.41,373.82 537.56,378.52 537.86,383.15 C 548.86,451.23 591.53,639.08 727.73,639.08 C 729.89,639.08 732.95,639.00 733.00,639.00 Z" transform="translate(7541.31,100.00) scale(0.8000,0.8000)" fill="#000000" />
  <path d="M 427.60,902.87 C 389.78,902.87 353.14,925.73 345.61,968.37 C 345.61,968.37 296.38,959.68 296.39,959.63 C 307.82,894.86 363.43,852.88 427.55,852.88 C 429.20,852.88 430.85,852.91 432.51,852.97 C 434.36,852.84 436.19,852.78 437.99,852.78 C 480.36,852.78 501.45,883.93 516.73,906.51 C 531.67,928.57 539.40,938.05 553.12,938.05 C 564.33,938.05 570.54,933.00 579.00,933.00 C 582.08,933.00 583.38,933.56 587.73,933.56 C 603.39,933.56 618.75,925.01 637.89,909.68 L 684.62,859.05 L 721.38,892.95 C 672.14,946.30 672.14,946.30 670.72,947.44 C 649.72,964.45 622.72,983.58 588.06,983.58 C 586.01,983.58 583.93,983.51 581.83,983.38 C 571.83,986.40 562.14,987.94 552.89,987.94 C 511.48,987.94 490.96,957.64 475.30,934.51 C 458.85,910.21 451.66,902.71 439.15,902.71 C 436.30,902.71 435.16,903.00 433.00,903.00 C 432.95,903.00 429.39,902.87 427.60,902.87  Z M 465.44,167.91 C 432.23,167.91 400.97,147.23 400.97,111.94 C 400.97,109.21 401.17,106.45 401.59,103.66 C 401.20,100.67 401.02,97.69 401.02,94.72 C 401.02,66.23 417.87,33.05 448.66,29.30 C 448.67,29.14 448.68,29.06 448.68,29.06 L 450.07,29.15 C 450.61,29.11 451.16,29.07 451.71,29.04 C 465.05,30.75 477.97,30.17 484.28,32.08 C 512.10,40.52 536.45,65.06 536.45,94.79 C 536.45,96.81 536.34,98.86 536.10,100.96 C 536.14,101.94 536.16,102.92 536.16,103.91 C 536.16,137.97 511.76,167.28 479.03,167.28 C 477.99,167.28 476.94,167.25 475.88,167.19 C 472.42,167.67 468.93,167.91 465.44,167.91  Z M 455.48,79.62 C 454.05,81.72 451.13,87.02 451.13,95.21 C 451.13,99.17 452.00,99.64 452.00,104.00 C 452.00,108.84 450.64,111.66 450.64,112.96 C 450.64,113.25 455.41,117.85 465.72,117.85 C 470.10,117.85 470.84,117.00 475.00,117.00 C 476.95,117.00 479.69,117.39 479.73,117.39 C 482.11,117.39 486.14,109.21 486.14,103.14 C 486.14,102.13 486.00,101.63 486.00,100.00 C 486.00,97.04 486.47,95.74 486.47,94.64 C 486.47,89.74 478.69,83.61 471.86,80.71 L 455.48,79.62  Z M 208.00,154.00 L 258.00,154.00 L 258.00,661.62 L 711.63,673.01 C 711.63,673.01 710.38,722.99 710.37,722.99 C 232.37,710.99 232.37,710.99 232.37,710.99 C 218.81,710.65 208.00,699.57 208.00,686.00 L 208.00,154.00 Z" transform="translate(8592.16,100.00) scale(0.8000,0.8000)" fill="#000000" />
  <path d="M 427.60,902.87 C 389.78,902.87 353.14,925.73 345.61,968.37 C 345.61,968.37 296.38,959.68 296.39,959.63 C 307.82,894.86 363.43,852.88 427.55,852.88 C 429.20,852.88 430.85,852.91 432.51,852.97 C 434.36,852.84 436.19,852.78 437.99,852.78 C 480.36,852.78 501.45,883.93 516.73,906.51 C 531.67,928.57 539.40,938.05 553.12,938.05 C 564.33,938.05 570.54,933.00 579.00,933.00 C 582.08,933.00 583.38,933.56 587.73,933.56 C 603.39,933.56 618.75,925.01 637.89,909.68 L 684.62,859.05 L 721.38,892.95 C 672.14,946.30 672.14,946.30 670.72,947.44 C 649.72,964.45 622.72,983.58 588.06,983.58 C 586.01,983.58 583.93,983.51 581.83,983.38 C 571.83,986.40 562.14,987.94 552.89,987.94 C 511.48,987.94 490.96,957.64 475.30,934.51 C 458.85,910.21 451.66,902.71 439.15,902.71 C 436.30,902.71 435.16,903.00 433.00,903.00 C 432.95,903.00 429.39,902.87 427.60,902.87  Z M 479.09,590.36 C 479.09,643.24 509.54,709.81 571.22,709.00 C 722.67,707.01 722.67,707.01 722.67,707.01 L 723.33,756.99 L 571.00,759.00 C 558.22,759.00 515.83,756.03 479.27,719.47 C 446.14,686.35 428.97,638.48 428.97,591.43 C 428.97,580.21 429.95,569.05 431.91,558.13 C 431.49,546.92 431.27,535.70 431.27,524.49 C 431.27,466.24 437.23,408.06 452.00,350.77 L 452.00,318.00 L 502.00,318.00 L 502.00,354.00 C 502.00,363.96 481.26,419.14 481.26,524.49 C 481.26,543.08 482.00,559.64 482.00,560.00 C 482.00,565.45 479.09,572.95 479.09,590.36  Z M 532.63,332.49 C 492.65,332.49 447.35,336.76 403.87,336.76 C 342.51,336.76 239.46,330.35 216.68,233.77 C 216.23,231.87 216.00,229.94 216.00,228.00 C 216.00,216.26 232.94,184.74 256.56,161.12 C 327.23,90.44 448.48,81.81 553.35,74.35 C 619.90,69.61 636.16,67.00 637.00,67.00 L 671.00,67.00 L 671.00,117.00 L 638.61,117.00 C 566.33,126.18 469.10,125.46 390.99,145.81 C 317.70,164.89 284.37,196.70 267.56,230.15 C 281.60,272.29 326.30,286.67 403.85,286.67 C 448.30,286.67 494.32,282.36 532.40,282.36 C 569.80,282.36 563.43,285.31 593.01,285.31 C 608.00,285.31 623.08,284.79 637.66,284.79 C 661.03,284.79 685.80,286.09 712.32,293.00 L 733.00,293.00 C 734.57,293.00 734.57,293.00 784.12,299.20 C 784.12,299.20 777.92,348.81 777.88,348.80 C 731.43,343.00 731.43,343.00 731.43,343.00 L 709.00,343.00 C 698.30,343.00 690.13,334.81 636.65,334.81 C 636.55,334.81 593.51,335.30 593.07,335.30 C 557.87,335.30 569.73,332.49 532.63,332.49 Z" transform="translate(9643.01,100.00) scale(0.8000,0.8000)" fill="#000000" />
  <path d="M 406.00,138.00 C 406.00,140.69 406.00,140.69 404.24,147.49 C 406.55,148.67 412.23,150.03 418.10,150.03 C 423.55,150.03 424.53,149.00 429.00,149.00 C 431.12,149.00 433.23,149.27 435.30,149.81 C 439.73,149.81 446.67,144.08 446.67,138.37 C 446.67,137.07 446.00,135.56 446.00,132.00 C 446.00,125.92 447.91,124.20 447.91,119.16 C 447.91,109.21 439.01,100.80 430.06,97.90 C 413.57,108.32 405.72,123.22 405.72,133.14 C 405.72,135.03 406.00,135.64 406.00,138.00  Z M 416.96,200.19 C 381.00,200.19 354.13,179.20 354.13,148.66 C 354.13,144.22 354.70,139.79 355.75,135.45 C 355.71,134.48 355.69,133.51 355.69,132.55 C 355.69,107.83 368.47,86.53 383.75,71.25 C 389.45,65.55 395.72,60.41 402.45,56.02 L 400.45,50.50 C 407.17,48.07 413.94,46.81 420.61,46.55 C 420.82,46.46 434.57,41.00 443.00,41.00 L 447.00,41.00 L 447.00,50.66 C 476.09,60.97 497.84,88.20 497.84,119.55 C 497.84,124.02 497.40,128.59 496.44,133.22 C 496.62,135.03 496.70,136.82 496.70,138.58 C 496.70,171.62 467.03,199.90 435.98,199.90 C 433.58,199.90 431.15,199.73 428.68,199.39 C 424.82,199.91 420.90,200.19 416.96,200.19  Z M 510.22,318.48 C 510.22,313.24 510.00,308.10 510.00,308.00 L 510.00,272.00 L 560.00,272.00 L 560.00,307.44 C 560.16,311.26 560.22,314.99 560.22,318.65 C 560.22,330.41 559.57,341.35 559.57,353.04 C 559.57,371.00 561.93,382.13 561.95,382.43 L 563.95,414.45 L 514.05,417.57 L 512.15,387.07 C 510.07,375.39 509.53,364.25 509.53,353.78 C 509.53,342.13 510.22,330.05 510.22,318.48  Z M 262.00,588.00 C 262.00,590.55 261.51,592.50 261.51,598.12 C 261.51,619.41 271.01,666.82 306.04,667.01 C 679.13,669.01 679.13,669.01 679.13,669.01 L 678.87,718.99 C 304.05,716.99 304.05,716.99 303.23,716.93 C 246.41,712.93 211.46,658.55 211.46,599.37 C 211.46,595.29 211.63,591.27 211.96,587.35 C 211.63,578.56 211.47,569.80 211.47,561.05 C 211.47,455.79 234.78,354.11 265.14,256.54 C 265.14,256.54 312.88,271.40 312.86,271.46 C 283.23,366.68 261.46,463.35 261.46,561.21 C 261.46,576.57 262.00,586.52 262.00,588.00  Z M 753.08,241.01 L 752.92,290.99 L 140.92,288.99 L 141.08,239.01 L 753.08,241.01 Z" transform="translate(10693.85,100.00) scale(0.8000,0.8000)" fill="#000000" />
  <path d="M 463.00,119.00 C 450.73,119.00 395.37,101.32 395.37,62.11 C 395.37,52.70 398.92,44.22 403.57,38.02 L 401.79,32.06 L 413.64,28.51 C 420.12,24.04 428.56,21.00 435.00,21.00 C 435.85,21.00 436.71,21.05 437.56,21.14 C 438.47,20.87 439.92,20.51 442.59,20.51 C 451.27,20.51 456.09,23.30 458.35,24.77 C 468.23,25.64 476.86,28.46 484.18,35.78 C 491.41,43.00 494.18,52.76 494.18,61.57 C 494.18,62.64 494.14,63.69 494.06,64.73 C 494.16,66.89 494.27,69.36 494.27,72.08 C 494.27,96.97 482.63,119.00 463.00,119.00  Z M 519.20,142.62 C 563.42,142.62 590.00,165.34 590.00,186.00 L 590.00,194.00 L 541.73,194.00 C 542.00,195.38 542.27,196.76 542.95,197.74 C 540.81,196.28 532.41,192.66 518.53,192.66 C 517.38,192.66 516.28,192.69 515.24,192.74 C 463.42,206.95 389.46,253.45 389.46,318.95 C 389.46,354.12 424.15,384.23 455.23,411.20 C 494.33,445.13 540.22,484.96 540.22,550.82 C 540.22,566.94 536.74,607.11 505.05,638.79 C 474.37,669.47 423.97,688.31 335.16,688.31 C 319.56,688.31 306.63,688.20 257.34,684.94 C 257.34,684.94 260.63,635.06 260.66,635.06 C 291.88,637.12 312.69,638.24 335.52,638.24 C 401.15,638.24 490.24,628.10 490.24,550.46 C 490.24,509.06 462.15,483.41 422.49,449.00 C 387.42,418.56 349.44,385.60 340.39,334.38 C 340.36,334.23 339.47,328.38 339.47,318.99 C 339.47,229.47 426.73,164.12 504.67,143.81 C 506.02,143.46 510.20,142.62 519.20,142.62 Z" transform="translate(11744.70,100.00) scale(0.8000,0.8000)" fill="#000000" />
  <path d="M 223.73,118.89 C 223.73,219.81 358.16,259.90 422.73,342.64 C 422.73,342.64 383.31,373.40 383.27,373.36 C 325.30,299.08 173.75,250.23 173.75,118.52 C 173.75,116.12 173.80,113.69 173.91,111.24 C 173.53,108.37 173.28,105.26 173.28,101.99 C 173.28,73.47 193.91,57.00 210.18,55.16 C 335.25,41.04 335.25,41.04 336.34,41.01 C 473.68,37.62 609.98,33.19 748.53,31.01 L 749.47,80.99 C 611.42,83.17 475.59,87.57 338.75,90.96 L 223.40,103.98 C 223.56,105.80 224.00,107.13 224.00,110.00 C 224.00,110.09 223.73,115.58 223.73,118.89  Z M 437.75,579.91 L 472.27,616.08 L 384.25,700.09 C 381.93,702.31 381.93,702.31 307.14,743.86 L 282.85,700.14 L 352.07,661.69 L 437.75,579.91  Z M 609.00,155.00 C 622.81,155.00 634.00,166.19 634.00,180.00 L 634.00,184.00 L 588.00,184.00 L 609.00,205.00 L 600.32,205.00 C 564.02,214.91 428.69,259.50 428.69,373.49 C 428.69,392.21 432.00,402.69 432.00,408.00 C 432.00,410.90 430.81,418.65 430.81,432.71 C 430.81,532.88 493.70,640.11 597.56,657.42 C 705.14,675.35 705.14,675.35 705.14,675.35 C 705.14,675.35 696.92,724.66 696.86,724.65 C 588.46,706.58 588.46,706.58 588.05,706.50 C 462.74,681.35 380.80,559.13 380.80,433.14 C 380.80,425.13 381.13,417.10 381.80,409.10 C 379.78,397.21 378.82,385.67 378.82,374.50 C 378.82,319.38 402.25,273.33 437.08,238.50 C 478.69,196.89 535.39,170.39 590.60,155.83 C 592.69,155.28 594.85,155.00 597.00,155.00 L 609.00,155.00 Z" transform="translate(12795.55,100.00) scale(0.8000,0.8000)" fill="#000000" />
  <path d="M 427.60,902.87 C 389.78,902.87 353.14,925.73 345.61,968.37 C 345.61,968.37 296.38,959.68 296.39,959.63 C 307.82,894.86 363.43,852.88 427.55,852.88 C 429.20,852.88 430.85,852.91 432.51,852.97 C 434.36,852.84 436.19,852.78 437.99,852.78 C 480.36,852.78 501.45,883.93 516.73,906.51 C 531.67,928.57 539.40,938.05 553.12,938.05 C 564.33,938.05 570.54,933.00 579.00,933.00 C 582.08,933.00 583.38,933.56 587.73,933.56 C 603.39,933.56 618.75,925.01 637.89,909.68 L 684.62,859.05 L 721.38,892.95 C 672.14,946.30 672.14,946.30 670.72,947.44 C 649.72,964.45 622.72,983.58 588.06,983.58 C 586.01,983.58 583.93,983.51 581.83,983.38 C 571.83,986.40 562.14,987.94 552.89,987.94 C 511.48,987.94 490.96,957.64 475.30,934.51 C 458.85,910.21 451.66,902.71 439.15,902.71 C 436.30,902.71 435.16,903.00 433.00,903.00 C 432.95,903.00 429.39,902.87 427.60,902.87  Z M 108.86,305.66 C 108.86,140.71 217.05,29.02 382.26,29.02 C 406.69,29.02 432.26,31.46 458.75,36.48 C 466.58,34.95 474.37,34.15 481.97,34.15 C 504.36,34.15 525.15,41.06 540.69,56.60 C 556.29,72.20 564.00,93.97 564.00,117.76 C 564.00,198.00 564.00,198.00 564.00,198.00 L 514.00,198.00 L 514.00,118.13 C 513.84,103.00 509.17,84.05 482.21,84.05 C 470.85,84.05 465.10,87.00 459.00,87.00 C 452.60,87.00 423.64,78.92 381.75,78.92 C 312.70,78.92 258.11,101.70 220.49,139.32 C 181.81,178.00 158.76,234.92 158.76,305.48 C 158.76,363.36 173.81,405.43 173.99,413.43 C 174.23,423.87 174.31,434.33 174.31,444.78 C 174.31,445.67 173.61,532.64 173.61,533.63 C 173.61,585.78 176.00,603.58 176.00,608.00 L 176.00,614.00 C 176.00,615.62 176.00,615.62 167.79,679.22 C 167.30,683.02 167.30,683.02 153.70,712.49 C 153.70,712.49 108.30,691.54 108.30,691.51 L 118.70,668.98 L 126.00,612.38 L 126.00,608.97 C 124.12,584.19 123.61,559.12 123.61,534.10 C 123.61,533.20 124.32,445.72 124.32,444.72 C 124.32,435.58 124.25,426.52 124.07,417.55 C 113.84,378.59 108.86,341.04 108.86,305.66  Z M 352.00,718.00 L 302.00,718.00 L 302.00,640.00 C 302.00,639.03 305.44,621.22 312.06,543.07 C 321.82,427.82 333.32,293.02 407.76,218.57 C 441.23,185.11 487.33,164.99 546.36,164.99 C 600.67,164.99 677.60,192.32 709.46,334.91 C 721.26,387.71 724.14,443.07 724.14,486.85 C 724.14,492.87 724.09,498.67 724.00,504.21 L 724.00,584.39 L 721.99,714.39 L 672.01,713.62 L 674.00,583.81 L 674.00,503.57 C 674.09,498.51 674.14,493.23 674.14,487.76 C 674.14,417.46 665.81,295.69 612.01,241.89 C 600.85,230.73 580.92,214.98 546.17,214.98 C 478.05,214.98 418.91,245.23 387.76,363.33 C 364.12,452.96 363.73,564.23 352.00,641.91 L 352.00,718.00 Z" transform="translate(13846.40,100.00) scale(0.8000,0.8000)" fill="#000000" />
  <path d="M 641.19,97.96 C 641.19,97.96 690.82,103.99 690.81,104.04 C 664.81,318.04 664.81,318.04 664.81,318.04 C 664.81,318.04 615.18,312.01 615.19,311.96 C 641.19,97.96 641.19,97.96 641.19,97.96  Z M 411.00,461.00 C 411.00,464.00 409.68,472.65 409.68,486.21 C 409.68,544.12 434.55,594.35 534.11,615.43 C 580.87,625.34 631.08,626.79 694.49,628.01 C 695.13,628.02 695.13,628.02 865.77,640.07 L 862.25,689.93 C 692.86,677.98 692.86,677.98 687.79,677.88 C 592.87,676.08 472.28,673.73 405.87,607.31 C 376.65,578.09 359.77,537.33 359.77,484.99 C 359.77,476.93 360.17,468.60 360.98,459.99 C 360.93,456.67 360.91,453.35 360.91,450.04 C 360.91,369.17 376.08,290.09 390.64,213.35 C 397.44,177.48 404.15,142.11 409.27,107.33 C 409.27,107.33 458.73,114.62 458.73,114.67 C 453.40,150.83 446.55,186.86 439.75,222.72 C 425.16,299.60 410.90,375.66 410.90,450.25 C 410.90,456.42 411.00,460.35 411.00,461.00  Z M 154.85,624.93 C 154.85,625.77 155.74,670.06 155.74,670.52 C 155.74,682.89 155.15,695.78 153.00,709.10 L 153.00,741.00 L 103.00,741.00 L 103.00,707.00 C 103.00,701.32 105.69,695.82 105.69,669.82 C 105.69,669.12 104.82,624.91 104.82,624.46 C 104.82,613.09 105.30,601.26 107.02,589.05 C 107.14,577.90 107.19,566.69 107.19,555.43 C 107.19,542.39 107.12,529.27 107.01,516.10 C 106.11,504.49 105.66,492.98 105.66,481.57 C 105.66,273.32 253.88,102.94 467.33,80.15 C 468.60,80.01 468.60,80.01 899.88,78.01 L 900.12,127.99 L 471.42,129.99 C 283.90,150.61 155.65,299.39 155.65,481.49 C 155.65,500.64 156.97,511.82 156.99,514.79 C 157.11,528.36 157.18,541.91 157.18,555.43 C 157.18,586.69 156.98,593.01 156.72,594.74 C 155.29,604.25 154.85,614.31 154.85,624.93 Z" transform="translate(14897.24,100.00) scale(0.8000,0.8000)" fill="#000000" />
  <path d="M 226.14,693.55 C 344.46,671.50 381.98,554.65 381.98,461.23 C 381.98,419.25 377.20,432.53 377.20,356.62 C 377.20,280.33 385.63,174.23 476.31,131.40 C 479.68,129.80 483.34,129.00 487.00,129.00 C 491.00,129.00 495.00,129.96 498.63,131.87 C 558.75,163.46 582.76,215.37 593.93,255.30 C 612.67,201.18 641.58,148.71 688.01,105.66 C 692.80,101.22 698.90,99.00 705.00,99.00 C 708.67,99.00 712.35,99.81 715.74,101.42 C 860.24,170.04 870.79,343.27 870.79,487.87 C 870.79,518.87 870.27,550.63 870.27,580.57 C 870.27,605.40 870.63,628.94 871.95,650.48 L 822.05,653.54 C 820.64,630.56 820.26,606.26 820.26,581.16 C 820.26,552.35 820.76,522.74 820.76,491.35 C 820.76,352.09 810.72,214.37 709.53,154.68 C 632.65,235.90 613.89,357.05 606.41,479.28 C 606.44,482.77 606.45,486.29 606.45,489.83 C 606.45,547.65 602.48,611.93 597.87,658.48 C 596.61,671.23 585.89,681.00 573.00,681.00 C 559.19,681.00 548.00,669.81 548.00,656.00 C 548.00,655.07 549.49,640.44 552.47,563.17 C 553.55,535.12 554.64,506.28 556.39,477.14 C 556.28,467.05 556.00,458.19 556.00,458.00 C 556.00,457.22 557.54,402.30 557.54,380.25 C 557.54,298.43 547.41,222.07 486.57,182.68 C 434.84,215.20 427.26,287.65 427.26,358.30 C 427.26,372.30 427.48,382.45 427.96,403.93 C 430.65,423.04 432.07,442.70 432.07,462.47 C 432.07,543.00 408.56,625.61 352.14,682.02 C 293.51,740.66 220.47,745.00 219.00,745.00 C 213.79,745.00 206.60,745.00 185.75,724.14 C 128.99,667.38 117.99,579.03 107.63,495.84 C 103.42,462.04 99.32,429.65 92.69,401.83 C 92.23,399.91 92.00,397.96 92.00,396.00 L 92.00,373.66 C 90.98,365.96 89.88,358.20 88.77,350.35 C 84.20,318.11 79.34,284.51 79.34,249.25 C 79.34,241.97 79.55,234.63 80.00,227.21 L 80.00,156.00 L 130.00,156.00 L 130.00,228.00 C 130.00,228.21 129.35,238.44 129.35,248.77 C 129.35,298.52 142.00,361.60 142.00,372.00 L 142.00,393.09 C 158.09,462.79 159.13,548.38 180.07,615.22 C 191.30,651.05 206.62,676.12 226.14,693.55 Z" transform="translate(15948.09,100.00) scale(0.8000,0.8000)" fill="#000000" />
  <path d="M 479.09,590.36 C 479.09,643.24 509.54,709.81 571.22,709.00 C 722.67,707.01 722.67,707.01 722.67,707.01 L 723.33,756.99 L 571.00,759.00 C 558.22,759.00 515.83,756.03 479.27,719.47 C 446.14,686.35 428.97,638.48 428.97,591.43 C 428.97,580.21 429.95,569.05 431.91,558.13 C 431.49,546.92 431.27,535.70 431.27,524.49 C 431.27,466.24 437.23,408.06 452.00,350.77 L 452.00,318.00 L 502.00,318.00 L 502.00,354.00 C 502.00,363.96 481.26,419.14 481.26,524.49 C 481.26,543.08 482.00,559.64 482.00,560.00 C 482.00,565.45 479.09,572.95 479.09,590.36  Z M 532.63,332.49 C 492.65,332.49 447.35,336.76 403.87,336.76 C 342.51,336.76 239.46,330.35 216.68,233.77 C 216.23,231.87 216.00,229.94 216.00,228.00 C 216.00,216.26 232.94,184.74 256.56,161.12 C 327.23,90.44 448.48,81.81 553.35,74.35 C 619.90,69.61 636.16,67.00 637.00,67.00 L 671.00,67.00 L 671.00,117.00 L 638.61,117.00 C 566.33,126.18 469.10,125.46 390.99,145.81 C 317.70,164.89 284.37,196.70 267.56,230.15 C 281.60,272.29 326.30,286.67 403.85,286.67 C 448.30,286.67 494.32,282.36 532.40,282.36 C 569.80,282.36 563.43,285.31 593.01,285.31 C 608.00,285.31 623.08,284.79 637.66,284.79 C 661.03,284.79 685.80,286.09 712.32,293.00 L 733.00,293.00 C 734.57,293.00 734.57,293.00 784.12,299.20 C 784.12,299.20 777.92,348.81 777.88,348.80 C 731.43,343.00 731.43,343.00 731.43,343.00 L 709.00,343.00 C 698.30,343.00 690.13,334.81 636.65,334.81 C 636.55,334.81 593.51,335.30 593.07,335.30 C 557.87,335.30 569.73,332.49 532.63,332.49 Z" transform="translate(16998.94,100.00) scale(0.8000,0.8000)" fill="#000000" />
  <path d="M 457.02,666.69 C 456.60,667.48 420.13,731.68 413.26,744.54 C 480.65,733.33 546.25,731.82 631.91,730.04 C 706.68,719.20 787.62,721.53 861.83,716.02 C 849.49,692.25 843.96,681.58 833.54,668.70 C 824.91,658.02 720.62,468.66 629.58,334.03 C 626.67,338.61 626.20,339.35 623.73,341.58 C 535.96,420.70 537.88,561.78 457.02,666.69  Z M 370.00,804.00 C 356.19,804.00 345.00,792.81 345.00,779.00 C 345.00,776.62 345.34,774.23 346.02,771.93 C 354.08,744.47 375.01,709.50 393.75,676.97 C 393.97,676.57 415.60,638.50 416.29,637.62 C 491.15,541.89 488.84,398.52 587.58,306.88 C 591.73,300.38 594.73,296.42 598.83,289.73 C 546.46,216.35 495.83,156.12 444.47,105.06 C 391.17,198.47 349.00,299.17 306.58,400.64 C 306.07,401.86 263.39,503.93 254.64,522.62 L 143.64,759.62 C 143.64,759.62 98.36,738.41 98.36,738.38 L 209.24,501.64 C 226.73,462.00 243.55,421.75 260.45,381.32 C 307.00,269.97 354.06,157.15 417.60,52.07 C 419.15,49.50 425.79,40.00 439.00,40.00 C 445.15,40.00 451.30,42.26 456.10,46.77 C 605.10,186.66 707.52,354.94 831.60,567.16 C 845.71,591.30 859.69,615.21 873.63,638.77 C 897.87,669.36 906.72,700.11 923.64,721.52 C 927.21,726.05 929.00,731.52 929.00,737.00 C 929.00,749.65 919.58,760.24 907.14,761.80 C 818.95,772.88 722.27,767.24 637.68,779.73 C 621.18,782.16 480.15,776.97 376.15,803.23 C 374.13,803.74 372.07,804.00 370.00,804.00 Z" transform="translate(18049.78,100.00) scale(0.8000,0.8000)" fill="#000000" />
  <path d="M 343.19,189.78 C 350.46,188.99 362.38,177.00 375.00,177.00 C 384.17,177.00 392.26,181.96 396.60,189.41 C 413.55,218.45 417.13,249.29 417.13,278.19 C 417.13,300.61 414.86,324.58 414.86,347.27 C 414.86,369.37 417.92,380.56 417.92,421.13 C 417.92,491.17 406.90,562.19 386.24,625.33 C 386.23,628.12 385.97,630.69 385.58,633.01 C 446.87,650.04 526.52,651.25 631.16,651.34 C 670.52,651.37 709.57,651.39 746.13,653.03 C 746.13,653.03 743.89,702.97 743.87,702.97 C 657.21,699.08 554.64,704.51 464.61,696.62 C 422.12,692.89 382.36,686.29 348.15,673.39 C 341.62,670.92 331.71,664.27 331.71,646.60 C 331.71,638.11 334.11,631.67 335.13,628.47 C 335.72,626.62 336.04,625.44 336.17,624.90 C 336.06,623.94 336.00,622.97 336.00,622.00 C 336.00,619.29 336.44,616.58 337.32,613.99 C 357.13,555.19 367.90,487.13 367.90,420.60 C 367.90,381.30 364.83,372.40 364.83,347.02 C 364.83,324.74 366.91,303.38 366.91,280.59 C 366.91,264.42 365.81,249.67 362.27,236.33 C 357.81,237.88 351.05,239.78 343.04,239.78 C 339.78,239.78 336.36,239.46 332.85,238.71 C 325.07,237.97 315.74,237.50 305.63,237.00 C 262.11,234.87 211.09,232.36 180.42,201.69 C 160.91,182.19 158.00,158.01 158.00,154.00 C 158.00,153.03 158.88,109.71 201.59,66.99 C 232.10,36.48 271.59,16.68 305.55,2.85 C 308.57,1.62 311.79,0.99 315.00,1.00 C 647.15,3.01 647.15,3.01 647.15,3.01 C 647.15,3.01 646.85,52.99 646.85,52.99 C 319.92,51.03 319.92,51.03 319.92,51.03 C 263.90,74.58 216.45,107.69 208.39,153.29 C 215.59,181.11 259.39,184.68 308.10,187.07 C 324.62,187.88 338.78,188.66 343.19,189.78 Z" transform="translate(19100.63,100.00) scale(0.8000,0.8000)" fill="#000000" />
  <path d="M 226.14,693.55 C 344.46,671.50 381.98,554.65 381.98,461.23 C 381.98,419.25 377.20,432.53 377.20,356.62 C 377.20,280.33 385.63,174.23 476.31,131.40 C 479.68,129.80 483.34,129.00 487.00,129.00 C 491.00,129.00 495.00,129.96 498.63,131.87 C 558.75,163.46 582.76,215.37 593.93,255.30 C 612.67,201.18 641.58,148.71 688.01,105.66 C 692.80,101.22 698.90,99.00 705.00,99.00 C 708.67,99.00 712.35,99.81 715.74,101.42 C 860.24,170.04 870.79,343.27 870.79,487.87 C 870.79,518.87 870.27,550.63 870.27,580.57 C 870.27,605.40 870.63,628.94 871.95,650.48 L 822.05,653.54 C 820.64,630.56 820.26,606.26 820.26,581.16 C 820.26,552.35 820.76,522.74 820.76,491.35 C 820.76,352.09 810.72,214.37 709.53,154.68 C 632.65,235.90 613.89,357.05 606.41,479.28 C 606.44,482.77 606.45,486.29 606.45,489.83 C 606.45,547.65 602.48,611.93 597.87,658.48 C 596.61,671.23 585.89,681.00 573.00,681.00 C 559.19,681.00 548.00,669.81 548.00,656.00 C 548.00,655.07 549.49,640.44 552.47,563.17 C 553.55,535.12 554.64,506.28 556.39,477.14 C 556.28,467.05 556.00,458.19 556.00,458.00 C 556.00,457.22 557.54,402.30 557.54,380.25 C 557.54,298.43 547.41,222.07 486.57,182.68 C 434.84,215.20 427.26,287.65 427.26,358.30 C 427.26,372.30 427.48,382.45 427.96,403.93 C 430.65,423.04 432.07,442.70 432.07,462.47 C 432.07,543.00 408.56,625.61 352.14,682.02 C 293.51,740.66 220.47,745.00 219.00,745.00 C 213.79,745.00 206.60,745.00 185.75,724.14 C 128.99,667.38 117.99,579.03 107.63,495.84 C 103.42,462.04 99.32,429.65 92.69,401.83 C 92.23,399.91 92.00,397.96 92.00,396.00 L 92.00,373.66 C 90.98,365.96 89.88,358.20 88.77,350.35 C 84.20,318.11 79.34,284.51 79.34,249.25 C 79.34,241.97 79.55,234.63 80.00,227.21 L 80.00,156.00 L 130.00,156.00 L 130.00,228.00 C 130.00,228.21 129.35,238.44 129.35,248.77 C 129.35,298.52 142.00,361.60 142.00,372.00 L 142.00,393.09 C 158.09,462.79 159.13,548.38 180.07,615.22 C 191.30,651.05 206.62,676.12 226.14,693.55 Z" transform="translate(20151.48,100.00) scale(0.8000,0.8000)" fill="#000000" />
  <path d="M 479.09,590.36 C 479.09,643.24 509.54,709.81 571.22,709.00 C 722.67,707.01 722.67,707.01 722.67,707.01 L 723.33,756.99 L 571.00,759.00 C 558.22,759.00 515.83,756.03 479.27,719.47 C 446.14,686.35 428.97,638.48 428.97,591.43 C 428.97,580.21 429.95,569.05 431.91,558.13 C 431.49,546.92 431.27,535.70 431.27,524.49 C 431.27,466.24 437.23,408.06 452.00,350.77 L 452.00,318.00 L 502.00,318.00 L 502.00,354.00 C 502.00,363.96 481.26,419.14 481.26,524.49 C 481.26,543.08 482.00,559.64 482.00,560.00 C 482.00,565.45 479.09,572.95 479.09,590.36  Z M 532.63,332.49 C 492.65,332.49 447.35,336.76 403.87,336.76 C 342.51,336.76 239.46,330.35 216.68,233.77 C 216.23,231.87 216.00,229.94 216.00,228.00 C 216.00,216.26 232.94,184.74 256.56,161.12 C 327.23,90.44 448.48,81.81 553.35,74.35 C 619.90,69.61 636.16,67.00 637.00,67.00 L 671.00,67.00 L 671.00,117.00 L 638.61,117.00 C 566.33,126.18 469.10,125.46 390.99,145.81 C 317.70,164.89 284.37,196.70 267.56,230.15 C 281.60,272.29 326.30,286.67 403.85,286.67 C 448.30,286.67 494.32,282.36 532.40,282.36 C 569.80,282.36 563.43,285.31 593.01,285.31 C 608.00,285.31 623.08,284.79 637.66,284.79 C 661.03,284.79 685.80,286.09 712.32,293.00 L 733.00,293.00 C 734.57,293.00 734.57,293.00 784.12,299.20 C 784.12,299.20 777.92,348.81 777.88,348.80 C 731.43,343.00 731.43,343.00 731.43,343.00 L 709.00,343.00 C 698.30,343.00 690.13,334.81 636.65,334.81 C 636.55,334.81 593.51,335.30 593.07,335.30 C 557.87,335.30 569.73,332.49 532.63,332.49 Z" transform="translate(21202.33,100.00) scale(0.8000,0.8000)" fill="#000000" />
  <path d="M 380.01,703.34 C 381.20,658.74 390.39,597.94 390.39,547.24 C 390.39,538.20 390.00,530.17 390.00,530.00 C 390.00,529.80 390.33,520.66 390.33,510.09 C 390.33,459.86 384.19,408.91 377.90,357.41 C 373.99,325.41 372.06,308.80 372.01,306.50 L 368.01,106.50 L 417.99,105.50 L 421.97,304.37 C 423.68,319.87 425.59,335.52 427.52,351.31 C 433.79,402.68 440.32,455.57 440.32,509.76 C 440.32,516.43 440.22,523.12 440.01,529.82 C 440.28,535.79 440.40,541.85 440.40,547.97 C 440.40,601.26 431.12,662.21 429.99,704.67 L 380.01,703.34  Z M 271.27,681.76 C 301.94,681.76 322.40,675.00 329.00,675.00 L 556.38,675.00 C 563.82,674.64 571.28,674.47 578.74,674.47 C 676.75,674.47 778.69,704.33 871.24,708.99 L 936.25,707.02 L 937.76,756.98 C 871.38,759.00 871.38,759.00 871.00,759.00 C 838.40,759.00 757.28,745.64 734.17,741.84 C 680.39,732.99 627.61,724.48 578.13,724.48 C 567.24,724.48 557.21,725.00 557.00,725.00 L 331.71,725.00 C 310.81,729.46 290.76,731.64 271.76,731.64 C 160.30,731.64 90.72,656.83 90.72,552.48 C 90.72,526.10 95.15,498.24 104.08,469.84 C 104.42,450.94 104.60,431.95 104.79,412.89 C 105.71,317.67 106.49,220.46 128.00,123.22 L 128.00,80.00 L 178.00,80.00 L 178.00,126.00 C 178.00,127.85 177.79,129.71 177.38,131.53 C 156.80,222.86 155.71,317.17 154.78,413.38 C 154.15,477.52 154.15,477.52 152.75,481.80 C 144.43,507.23 140.62,530.93 140.62,552.44 C 140.62,627.73 187.13,681.76 271.27,681.76 Z" transform="translate(22253.17,100.00) scale(0.8000,0.8000)" fill="#000000" />
  <path d="M 235.77,643.31 C 235.77,651.79 236.00,656.96 236.00,658.00 L 236.00,704.00 L 186.00,704.00 L 186.00,658.38 C 185.85,653.24 185.78,648.11 185.78,643.00 C 185.78,589.09 193.92,537.14 201.71,486.75 C 204.73,467.20 207.71,447.87 210.22,428.73 C 210.91,423.48 212.27,424.09 212.27,414.93 C 212.27,414.74 211.69,397.42 211.69,396.83 C 211.69,389.56 211.69,389.56 215.39,367.94 C 217.73,354.27 220.20,339.84 222.06,327.75 C 223.09,292.37 228.16,260.48 228.16,227.82 C 228.16,223.01 228.00,218.10 228.00,218.00 C 228.00,213.64 229.45,210.87 229.45,189.48 C 229.45,188.94 228.50,136.10 228.50,135.56 C 228.50,104.77 228.50,20.54 303.91,11.20 C 304.93,11.07 305.97,11.00 307.00,11.00 C 417.90,11.00 500.44,96.50 559.09,160.73 L 572.68,174.32 L 537.32,209.68 C 522.91,195.27 522.91,195.27 522.52,194.84 C 464.36,131.12 395.62,62.39 308.58,61.01 C 288.87,64.03 278.57,79.66 278.57,136.86 C 278.57,156.11 279.53,174.47 279.53,190.46 C 279.53,200.32 279.18,209.97 278.04,219.26 C 278.12,222.22 278.15,225.16 278.15,228.08 C 278.15,264.05 272.86,296.47 271.99,330.64 C 271.82,337.02 261.71,389.45 261.71,396.59 C 261.71,402.78 262.37,409.14 262.37,415.72 C 262.37,422.05 261.80,429.41 259.51,437.37 C 256.96,456.56 254.02,475.57 251.11,494.44 C 243.30,544.98 235.77,594.40 235.77,643.31  Z M 543.81,527.98 L 582.22,559.99 L 484.07,677.76 L 477.36,691.19 L 432.63,668.82 C 436.42,661.91 439.21,654.17 443.78,648.01 C 443.78,648.01 543.78,528.01 543.81,527.98  Z M 733.00,639.00 C 733.15,639.00 740.71,639.31 747.60,639.31 C 757.58,639.31 797.07,639.31 818.26,623.81 C 818.26,623.81 847.78,664.17 847.74,664.19 C 833.58,674.56 805.84,689.32 748.28,689.32 C 742.85,689.32 737.68,689.20 732.83,689.01 C 731.20,689.05 729.57,689.07 727.95,689.07 C 665.32,689.07 582.68,659.26 527.28,529.52 C 507.20,482.51 495.14,432.68 488.32,389.97 C 488.28,389.75 487.39,382.24 487.39,368.25 C 487.39,245.04 565.29,108.32 695.60,101.04 C 696.06,101.02 696.53,101.00 697.00,101.00 L 727.00,101.00 L 727.00,151.00 L 697.73,151.00 C 592.35,157.37 537.41,278.21 537.41,369.06 C 537.41,373.82 537.56,378.52 537.86,383.15 C 548.86,451.23 591.53,639.08 727.73,639.08 C 729.89,639.08 732.95,639.00 733.00,639.00 Z" transform="translate(23304.02,100.00) scale(0.8000,0.8000)" fill="#000000" />
</svg>
