<?xml version="1.0" encoding="UTF-8" standalone="no"?>
<!--
Representation of "poka suno" in sitelen ilo pona
Generated by generate_sitelen_kalama_pona.py

Description:
  Representation of "poka suno" in sitelen ilo pona.
  Sources: poka: https://commons.wikimedia.org/wiki/File:Sitelen_seli_kiwen_-_poka.svg; suno: https://commons.wikimedia.org/wiki/File:Sitelen_seli_kiwen_-_suno.svg

Categories:
  [[Category:Sitelen kalama pona]]
  [[Category:Toki Pona text containing poka suno]]

Sources:
  poka: https://commons.wikimedia.org/wiki/File:Sitelen_seli_kiwen_-_poka.svg
  suno: https://commons.wikimedia.org/wiki/File:Sitelen_seli_kiwen_-_suno.svg
-->
<svg version="1.1" width="1805" height="1000"
     viewBox="0 0 1805 1000"
     xmlns="http://www.w3.org/2000/svg">
  <path d="M768 352Q742 352 719.5 365.0Q697 378 697 399Q697 421 712.0 436.0Q727 451 739.5 455.5Q752 460 758 460Q777 460 801.0 443.5Q825 427 825 410Q825 397 824.0 390.0Q823 383 818.0 372.5Q813 362 800.5 357.0Q788 352 768 352ZM86 283Q86 284 88.0 303.0Q90 322 90 334Q90 344 88.5 365.5Q87 387 84.5 411.5Q82 436 80.0 459.0Q78 482 76 498L75 513Q75 523 88.0 534.0Q101 545 114 545Q125 545 138 538L152 531L149 483Q146 425 146 413Q146 367 149.0 355.5Q152 344 162 339Q171 335 197.5 330.5Q224 326 241 326H246Q250 327 258.0 328.0Q266 329 277.5 329.5Q289 330 305.0 331.0Q321 332 339.0 333.0Q357 334 380.0 334.5Q403 335 427 335Q498 335 509.5 340.5Q521 346 521 379V385Q521 387 521.5 402.5Q522 418 522 428Q524 493 525.0 505.0Q526 517 536 540Q540 550 559 550Q572 550 576.0 547.5Q580 545 585 533Q592 518 592 490Q592 481 586.5 446.0Q581 411 581 361Q581 338 584.5 323.5Q588 309 591.5 303.5Q595 298 595 295Q595 293 592.5 286.0Q590 279 579.5 270.5Q569 262 554 262Q547 262 509.0 270.0Q471 278 435 278Q412 278 396.0 273.5Q380 269 379 269Q376 269 369 272L362 275L348 274Q335 273 313.5 271.5Q292 270 267.0 268.0Q242 266 214.5 265.0Q187 264 166 264Q115 264 100.5 267.5Q86 271 86 283Z" transform="translate(0.00,958.33) scale(0.9583,-0.9583)" fill="#000000" />
  <path d="M493 37Q493 33 492.0 27.5Q491 22 483.0 12.5Q475 3 461 3Q445 3 431.5 15.0Q418 27 418 39Q418 46 425.0 61.0Q432 76 432 90Q432 94 430 120Q426 160 421.5 169.0Q417 178 400 181Q376 185 335.5 207.0Q295 229 268 253Q256 263 243.0 287.0Q230 311 230 322Q230 330 212 328Q128 317 109 317Q96 317 76.5 323.5Q57 330 51 330Q47 330 41.0 339.5Q35 349 35 360Q35 369 39.0 376.0Q43 383 47.5 386.5Q52 390 54 389Q58 387 71.0 389.5Q84 392 91 392Q100 392 113.5 389.5Q127 387 138 387Q145 387 173 391Q206 396 215.0 401.0Q224 406 230 420Q238 441 248.5 461.5Q259 482 267.5 495.5Q276 509 283.5 519.5Q291 530 296 536L300 541Q300 546 341.0 564.5Q382 583 394 583Q407 583 410.0 586.0Q413 589 415 607Q418 626 418 644Q418 655 417.0 666.5Q416 678 415.0 686.5Q414 695 413.0 701.5Q412 708 411 712L410 716Q410 719 411.0 724.0Q412 729 421.0 737.5Q430 746 446 746Q458 746 470.0 731.0Q482 716 482 703Q482 701 481.0 698.5Q480 696 479.5 693.0Q479 690 478.0 678.0Q477 666 477.0 647.0Q477 628 478.0 615.0Q479 602 480.5 592.0Q482 582 482 577Q482 570 503 567Q532 563 553.0 555.0Q574 547 581.5 540.0Q589 533 595.0 527.5Q601 522 604 522Q608 522 623.0 507.5Q638 493 638 490Q638 488 644.0 480.0Q650 472 660.0 454.0Q670 436 677 413Q680 405 690.0 406.5Q700 408 707 404Q712 399 742 399Q746 399 781.5 400.0Q817 401 822 401Q844 401 850 392Q854 385 859.5 368.0Q865 351 865 343Q865 338 835 336Q817 335 789.0 332.0Q761 329 747.0 329.0Q733 329 716.5 331.5Q700 334 691 334Q680 334 668.5 326.0Q657 318 655 310Q654 304 637.5 284.0Q621 264 616 254Q612 245 602.0 238.5Q592 232 584.5 228.5Q577 225 577 222Q577 217 569 217Q564 217 560.5 215.0Q557 213 547.0 206.0Q537 199 522 192Q501 182 497.0 170.0Q493 158 490 100Q490 95 489.5 86.5Q489 78 489 74Q489 60 490.0 52.5Q491 45 492.0 42.0Q493 39 493 37ZM600 356Q600 364 603.5 368.0Q607 372 607 379Q607 383 606.0 392.0Q605 401 599.0 419.5Q593 438 582.5 453.0Q572 468 551.0 480.0Q530 492 502 493Q462 494 434.0 503.0Q406 512 394 512Q367 512 336.0 489.5Q305 467 305 456Q305 449 291 421L277 391L289 354Q300 317 317.0 299.5Q334 282 377 264Q389 260 406 251Q422 243 449 243Q487 243 501 254Q530 274 534 277Q555 289 570.5 303.5Q586 318 586 325Q586 330 593.0 338.5Q600 347 600 356Z" transform="translate(942.50,958.33) scale(0.9583,-0.9583)" fill="#000000" />
</svg>
