<?xml version="1.0" encoding="UTF-8" standalone="no"?>
<!--
Representation of "soweli pi kon jaki utala" in sitelen ilo pona
Generated by generate_sitelen_kalama_pona.py

Description:
  Representation of "soweli pi kon jaki utala" in sitelen ilo pona.
  Sources: soweli: https://commons.wikimedia.org/wiki/File:Sitelen_seli_kiwen_-_soweli.svg; pi: https://commons.wikimedia.org/wiki/File:Sitelen_seli_kiwen_-_pi.svg; kon: https://commons.wikimedia.org/wiki/File:Sitelen_seli_kiwen_-_kon.svg; jaki: https://commons.wikimedia.org/wiki/File:Sitelen_seli_kiwen_-_jaki.svg; utala: https://commons.wikimedia.org/wiki/File:Sitelen_seli_kiwen_-_utala.svg

Categories:
  [[Category:Sitelen kalama pona]]
  [[Category:Toki Pona text containing soweli pi kon jaki utala]]

Sources:
  soweli: https://commons.wikimedia.org/wiki/File:Sitelen_seli_kiwen_-_soweli.svg
  pi: https://commons.wikimedia.org/wiki/File:Sitelen_seli_kiwen_-_pi.svg
  kon: https://commons.wikimedia.org/wiki/File:Sitelen_seli_kiwen_-_kon.svg
  jaki: https://commons.wikimedia.org/wiki/File:Sitelen_seli_kiwen_-_jaki.svg
  utala: https://commons.wikimedia.org/wiki/File:Sitelen_seli_kiwen_-_utala.svg
-->
<svg version="1.1" width="4632" height="1000"
     viewBox="0 0 4632 1000"
     xmlns="http://www.w3.org/2000/svg">
  <path d="M39 176Q39 190 48.5 203.0Q58 216 71 216Q85 216 98 203L111 190L112 102V78Q112 28 107.5 13.0Q103 -2 80 -2Q66 -2 57.5 9.5Q49 21 49 41Q49 45 50.0 57.5Q51 70 51 85Q51 122 45.0 147.5Q39 173 39 176ZM206 188Q206 193 210.5 201.5Q215 210 215 214Q215 226 230 226Q232 226 236.5 224.0Q241 222 247.0 216.5Q253 211 258.0 202.5Q263 194 266.5 179.0Q270 164 270.0 145.0Q270 126 266.5 92.0Q263 58 263 47Q263 37 267.5 29.0Q272 21 266 14Q260 -2 237 -2Q235 -2 232.0 -1.5Q229 -1 220.0 0.5Q211 2 207.0 5.0Q203 8 198.5 14.0Q194 20 200 29Q212 51 212 123Q212 149 209.0 168.5Q206 188 206 188ZM393 218Q393 230 411 230Q422 230 431.0 225.0Q440 220 440 213Q440 207 446.5 202.0Q453 197 453 190Q453 184 446.0 165.0Q439 146 439 131Q439 119 436.0 104.5Q433 90 433 61Q433 47 434.0 38.5Q435 30 435.5 28.0Q436 26 436.5 24.5Q437 23 437 22Q437 16 428.0 9.5Q419 3 409 3Q408 3 399.0 4.5Q390 6 386 6Q367 6 367 41Q367 70 371 76Q377 84 381.0 142.5Q385 201 388 205Q393 210 393 218ZM367 526Q390 526 413.5 504.5Q437 483 437 464Q437 443 414 431Q394 421 389 416Q384 411 370.5 410.0Q357 409 354 413Q353 416 342.5 422.0Q332 428 323.0 436.5Q314 445 314 456Q314 472 326.5 497.0Q339 522 348 523Q350 523 357.0 524.5Q364 526 367 526ZM491 477Q491 498 502.5 518.5Q514 539 533 539Q546 539 568 528Q582 521 585.5 512.5Q589 504 589 473Q589 461 587.0 455.5Q585 450 576 442Q567 433 560.5 430.5Q554 428 537 428Q529 428 523.5 429.0Q518 430 509.5 434.0Q501 438 496.0 449.0Q491 460 491 477ZM570 238H584Q642 238 682 259Q701 269 739.0 306.5Q777 344 785 361Q793 377 793 414Q793 452 787.5 471.5Q782 491 773.5 505.5Q765 520 761 536Q758 549 727.5 580.5Q697 612 679 620Q666 625 656.5 632.5Q647 640 642.0 644.0Q637 648 632 648Q625 648 620 653Q613 661 491.5 664.5Q370 668 321 668Q311 668 272.0 666.0Q233 664 198.5 662.0Q164 660 163 660L85 656L72 670Q61 682 61 692Q61 701 72 712Q81 721 104.0 723.0Q127 725 256 726Q272 726 287.0 726.5Q302 727 312.5 727.5Q323 728 332.0 728.0Q341 728 347.0 728.5Q353 729 357.5 729.5Q362 730 364.0 730.0Q366 730 366 730Q376 730 431.0 728.0Q486 726 555.0 721.5Q624 717 637 712Q654 705 657 708Q660 710 660 705Q660 700 666 700Q671 700 690.5 688.0Q710 676 718 674Q727 672 737.0 660.0Q747 648 751 648Q758 648 758 642Q758 636 779 619Q796 606 810.0 582.5Q824 559 824 546Q824 542 828.0 536.0Q832 530 837.5 515.0Q843 500 846 477Q848 466 850.0 458.5Q852 451 853.0 444.0Q854 437 854 419V398Q854 370 858 364Q863 358 858 358Q856 358 853.0 354.0Q850 350 841.5 335.5Q833 321 822 306Q813 294 808.5 285.5Q804 277 804.0 275.0Q804 273 803.0 272.0Q802 271 798 270Q794 268 794.5 263.0Q795 258 788 256Q782 254 754.0 226.5Q726 199 715 196Q706 194 700.0 189.0Q694 184 686 184Q681 184 665.5 177.5Q650 171 624 168Q595 165 590.0 158.5Q585 152 582 112Q581 94 579.0 79.5Q577 65 575.5 58.5Q574 52 574 50Q574 47 576 46Q579 44 578.5 30.0Q578 16 574 12Q571 9 540 9Q526 9 518.0 16.5Q510 24 509 31L507 38Q507 44 512.0 70.0Q517 96 517 104Q517 104 517.0 106.5Q517 109 516.0 114.0Q515 119 514.5 126.5Q514 134 513.5 145.5Q513 157 513 171Q513 189 514.0 197.0Q515 205 520.0 217.0Q525 229 537.5 233.5Q550 238 570 238Z" transform="translate(0.00,958.33) scale(0.9583,-0.9583)" fill="#000000" />
  <path d="M178 600Q178 613 172.0 629.5Q166 646 166 651Q166 660 178 675Q187 686 191.5 688.0Q196 690 206 688Q221 685 228.5 675.5Q236 666 237.0 657.5Q238 649 238 634V602Q238 561 244.0 524.5Q250 488 250 466Q250 451 248.0 418.5Q246 386 246 369Q246 369 246.0 367.0Q246 365 246.5 361.5Q247 358 247.5 353.0Q248 348 248.0 339.5Q248 331 248.5 321.0Q249 311 249.5 296.5Q250 282 250 266Q250 179 252 177Q260 168 392 168Q392 168 438.0 168.0Q484 168 532.0 168.5Q580 169 584 169Q698 169 704 167Q710 164 716 164Q722 163 728.0 144.5Q734 126 734 111Q734 109 733.0 103.5Q732 98 727.5 90.5Q723 83 716 83Q714 83 683.5 92.5Q653 102 624 102Q612 102 594.0 100.0Q576 98 562 98Q562 98 558.5 98.5Q555 99 548.0 99.5Q541 100 532.0 100.5Q523 101 510.5 101.5Q498 102 486 102Q485 102 480.5 102.0Q476 102 469.0 101.5Q462 101 454.5 100.5Q447 100 439.5 100.0Q432 100 428 100Q344 100 230 92L190 90L184 104Q180 114 180 131Q180 157 185.0 176.5Q190 196 190 218Q190 218 190.0 225.0Q190 232 190.0 242.5Q190 253 189.5 264.5Q189 276 188.5 287.0Q188 298 188 304Q188 326 190.0 374.0Q192 422 192 441Q192 517 178 540Q176 543 177.0 544.0Q178 545 180.0 545.5Q182 546 182.5 549.5Q183 553 180 562Q176 571 176 578Q176 581 177.0 588.5Q178 596 178 600Z" transform="translate(942.50,958.33) scale(0.9583,-0.9583)" fill="#000000" />
  <path d="M531 60Q522 60 505.0 73.5Q488 87 488 95Q488 101 497.0 114.5Q506 128 514 133Q538 151 605 218Q613 226 613.5 236.5Q614 247 620 250Q628 255 629.0 274.0Q630 293 631 295Q632 296 632 300Q632 316 611.0 348.5Q590 381 579 381Q574 381 563.0 391.5Q552 402 535.0 417.0Q518 432 504 440Q488 450 488 455Q488 459 481.5 470.5Q475 482 475 497Q475 513 479.0 531.5Q483 550 488.0 561.5Q493 573 497 573Q500 573 531.0 613.0Q562 653 564.0 653.0Q566 653 576.0 669.5Q586 686 588 686Q591 686 591.0 692.0Q591 698 609.0 708.0Q627 718 634 718Q642 718 654.0 710.0Q666 702 667 696Q668 687 668 677Q668 665 656 657Q641 647 623.5 629.0Q606 611 606 606Q606 602 573.0 565.0Q540 528 540 516Q540 512 543.5 505.5Q547 499 553.0 492.0Q559 485 566.5 477.0Q574 469 581.5 461.5Q589 454 597.0 447.0Q605 440 610.5 435.0Q616 430 620 427L624 424Q656 400 671.5 378.5Q687 357 691.5 339.5Q696 322 699 318Q701 314 701 297Q701 291 699.5 264.0Q698 237 698 235Q697 225 688.5 220.5Q680 216 680 211Q680 203 676 203Q671 203 669 195Q665 181 620.0 139.5Q575 98 575 95Q575 91 573 91Q570 91 566.5 81.5Q563 72 554 72Q544 72 539.0 66.0Q534 60 531 60ZM296 665Q296 678 330.0 702.5Q364 727 382 727Q385 727 388.5 720.5Q392 714 397 714Q406 714 406 698Q406 688 374.5 655.5Q343 623 343 618Q343 614 326.5 599.0Q310 584 310 580Q310 577 304.5 572.0Q299 567 293.5 557.0Q288 547 288 529Q288 518 299.0 500.0Q310 482 310.0 477.0Q310 472 326.5 463.0Q343 454 343 450Q343 445 376.0 411.0Q409 377 409 374L416 355Q424 336 424 302Q424 273 419.5 255.0Q415 237 409.5 227.0Q404 217 403 212Q402 202 388.0 186.0Q374 170 366 170Q357 170 357.0 161.0Q357 152 339.5 135.5Q322 119 300.0 102.5Q278 86 276 84Q267 75 243 78Q217 82 210 82Q199 82 199 97Q199 119 205.5 128.0Q212 137 221.5 138.5Q231 140 251.0 150.0Q271 160 290 180Q315 205 315 210Q315 214 325.5 223.0Q336 232 346.5 246.5Q357 261 357 278Q357 288 360.0 293.0Q363 298 363 301Q363 312 359.0 321.5Q355 331 348.5 343.0Q342 355 338 364Q331 384 299.5 401.0Q268 418 268 424Q268 427 257.0 439.0Q246 451 246 455Q246 463 244.5 466.5Q243 470 240.5 469.5Q238 469 236.5 470.5Q235 472 235.0 478.0Q235 484 231.0 484.0Q227 484 223.0 503.0Q219 522 219 536Q219 544 222.5 549.5Q226 555 226.0 562.0Q226 569 233.0 577.5Q240 586 242 596Q244 607 270.0 634.5Q296 662 296 665Z" transform="translate(1885.00,958.33) scale(0.9583,-0.9583)" fill="#000000" />
  <path d="M202 136Q206 136 216.0 139.0Q226 142 234 142Q246 142 246 145Q246 145 236.0 158.0Q226 171 226 184Q226 199 221.0 210.0Q216 221 211.0 226.5Q206 232 206 235Q206 236 206 236Q208 236 202.0 248.0Q196 260 189.0 271.5Q182 283 180 283Q178 283 178 290Q178 304 182 400Q185 453 188.5 471.5Q192 490 200 495Q208 500 208 505Q208 507 221.0 518.5Q234 530 234 538Q234 545 255.0 559.5Q276 574 290 576Q299 577 302.0 580.0Q305 583 304.0 585.5Q303 588 304.0 590.0Q305 592 310 592Q320 592 322.0 595.5Q324 599 320 608Q318 612 318 619Q318 639 348 656Q352 659 360.0 663.5Q368 668 374.0 671.0Q380 674 382 676Q397 686 421.0 689.5Q445 693 463.0 694.0Q481 695 483.5 697.0Q486 699 512 699Q581 699 618 682Q638 673 662.0 648.5Q686 624 692 608Q695 597 699.5 588.0Q704 579 706.0 574.0Q708 569 708 560Q708 545 701.0 533.5Q694 522 694 518Q694 510 714 498Q746 479 767.0 449.5Q788 420 788 395Q788 379 780.0 365.5Q772 352 772 350Q772 344 764 344Q760 344 755.5 337.0Q751 330 741.0 321.0Q731 312 714 309Q696 304 696 303Q696 300 708.0 281.0Q720 262 722 252Q724 245 732.0 228.5Q740 212 740 197Q740 178 688 126Q672 114 638.0 95.5Q604 77 596 77Q587 77 550.5 64.0Q514 51 514.0 47.0Q514 43 511 46Q505 56 498 51Q494 48 464.0 47.0Q434 46 430 42Q423 39 423.0 40.0Q423 41 418.0 44.5Q413 48 404 48Q390 48 369.0 60.0Q348 72 314 72Q314 72 275.5 71.5Q237 71 210 71Q182 71 168.0 68.0Q154 65 154 65Q146 65 138.0 66.5Q130 68 121.0 75.5Q112 83 112 96Q112 98 112.0 101.5Q112 105 114.5 113.0Q117 121 120.5 126.5Q124 132 133.0 137.0Q142 142 154 142Q160 142 177.0 139.0Q194 136 202 136ZM370 613Q370 608 409.0 595.0Q448 582 448 577Q448 573 456 577Q465 577 484.5 556.5Q504 536 506 524Q508 520 509.0 518.5Q510 517 514.5 516.0Q519 515 528 515Q535 515 544.5 515.5Q554 516 572.0 517.0Q590 518 606 519Q627 520 639.5 531.0Q652 542 652 558Q652 560 651.0 565.5Q650 571 645.5 582.5Q641 594 633.5 605.0Q626 616 611.5 626.5Q597 637 578 643Q554 651 504 651Q492 651 483.5 649.5Q475 648 474.5 647.0Q474 646 468 647H466Q459 647 436.0 641.5Q413 636 391.5 627.5Q370 619 370 613ZM326 161Q337 161 361.5 188.5Q386 216 386 224Q386 231 372 231Q363 231 358.0 227.5Q353 224 344 224Q294 224 294 253Q294 268 306.5 287.0Q319 306 328 310Q339 315 374.0 323.5Q409 332 434 336Q451 338 454.5 341.5Q458 345 464 362Q472 388 472 396Q472 402 468.5 403.5Q465 405 454 403Q441 401 426.0 398.0Q411 395 406 395Q380 395 380 419Q380 440 404.0 469.0Q428 498 440 498Q443 498 447.5 500.5Q452 503 452 506Q452 514 424.5 530.0Q397 546 396 546Q392 550 382 550Q361 550 330.5 541.5Q300 533 290 524Q276 512 272 512Q269 512 262.5 500.5Q256 489 248.5 475.0Q241 461 236 456Q230 451 228.0 441.5Q226 432 226 400V385Q226 328 222 320Q217 315 222.5 309.0Q228 303 228 297Q228 290 239.0 267.0Q250 244 250.0 239.0Q250 234 260.0 226.0Q270 218 276 205Q285 188 299.5 174.5Q314 161 324 161ZM642 332Q662 332 695.0 359.0Q728 386 728 405Q728 415 717.0 429.5Q706 444 692 451Q676 459 642 459Q616 459 598.0 454.0Q580 449 532 425Q532 424 530.5 414.0Q529 404 527.0 392.5Q525 381 522 376Q514 361 520 351Q522 349 524 350Q532 352 584.5 342.0Q637 332 642 332ZM680 211Q680 219 667.0 235.5Q654 252 648 257Q638 263 620 263Q607 263 602.5 262.0Q598 261 596.0 259.5Q594 258 574.0 254.0Q554 250 516 246L478 242L452 212Q401 157 391.5 145.5Q382 134 382 129Q382 123 393.0 120.0Q404 117 422.0 114.5Q440 112 450 107Q461 102 478 102Q520 102 578.0 122.5Q636 143 656 166Q680 194 680 211Z" transform="translate(2827.50,958.33) scale(0.9583,-0.9583)" fill="#000000" />
  <path d="M164 655Q164 681 196 681Q211 681 226.0 670.0Q241 659 249.5 649.0Q258 639 258 638Q258 636 285.0 595.5Q312 555 316 555Q318 555 323.5 546.0Q329 537 336.0 525.5Q343 514 348 509Q356 503 370.0 485.0Q384 467 384 464Q384 460 395.0 449.0Q406 438 409.5 438.0Q413 438 424.5 452.5Q436 467 436 472Q436 478 454.0 513.5Q472 549 476 553Q480 556 480.5 564.0Q481 572 492 585Q501 597 515.0 622.5Q529 648 540 660Q551 671 557.5 674.0Q564 677 582 677H608L610 657Q612 644 610.0 638.5Q608 633 600 624Q586 610 586 606Q586 604 554.0 555.0Q522 506 522 498Q522 488 512.0 478.0Q502 468 502 463Q502 461 500.0 458.5Q498 456 496 456Q492 456 482 436Q475 421 464 399L454 382L474 350Q485 330 496.5 318.0Q508 306 514.0 301.5Q520 297 522 293Q529 271 575.0 216.0Q621 161 632 161Q635 161 645.5 172.0Q656 183 656 187Q656 191 666.0 196.5Q676 202 682 215Q691 232 711.0 250.5Q731 269 742 269Q759 269 768.5 260.0Q778 251 778 236Q778 221 767.5 209.5Q757 198 748.5 193.5Q740 189 738 189Q730 189 730 180Q730 175 728.0 171.5Q726 168 721.5 162.5Q717 157 704.0 137.0Q691 117 674 86Q668 75 665.5 71.5Q663 68 656.0 65.5Q649 63 636 63Q595 63 586 92Q582 104 577.0 110.5Q572 117 558.5 133.0Q545 149 528 176Q518 192 507.5 202.5Q497 213 492.5 217.5Q488 222 488 226Q488 232 473.5 251.5Q459 271 454 273Q450 275 450 280Q450 284 432 306L412 327L402 316Q394 303 394 299Q394 296 382.0 278.0Q370 260 370 249Q370 236 366.0 236.0Q362 236 350.0 204.5Q338 173 338 168Q338 156 322.5 117.5Q307 79 302 78Q294 76 294 72Q294 68 281.5 67.5Q269 67 260 70Q255 72 239.5 92.5Q224 113 224 118Q224 122 174 171L122 220L128 239Q131 253 138.0 258.5Q145 264 162 264Q171 264 183.5 254.0Q196 244 196 236Q196 231 203.0 225.0Q210 219 224.0 209.0Q238 199 248 190Q262 175 270 175Q273 175 290.5 208.0Q308 241 308 248Q308 254 337.0 311.5Q366 369 366 377Q366 388 338.0 425.0Q310 462 306 471Q302 479 289.5 487.0Q277 495 272 507Q266 516 257.0 526.5Q248 537 241.0 544.0Q234 551 234.0 553.0Q234 555 226.5 561.5Q219 568 209.0 578.5Q199 589 194 599Q187 616 182.5 616.0Q178 616 171.0 630.5Q164 645 164 655Z" transform="translate(3770.00,958.33) scale(0.9583,-0.9583)" fill="#000000" />
</svg>
