<?xml version="1.0" encoding="UTF-8" standalone="no"?>
<!--
Representation of "mani Pana" in sitelen kalama pona
Generated by generate_sitelen_kalama_pona.py

Description:
  Representation of "mani Pana" in sitelen kalama pona.
  Sources: mani: https://commons.wikimedia.org/wiki/File:Sitelen_seli_kiwen_-_mani.svg; pa: https://commons.wikimedia.org/wiki/File:Sitelen_kalama_pona_-_pa.svg; na: https://commons.wikimedia.org/wiki/File:Sitelen_kalama_pona_-_na.svg

Categories:
  [[Category:Sitelen kalama pona]]
  [[Category:Toki Pona text containing mani]]
  [[Category:Toki Pona text containing sound symbol Pa]]
  [[Category:Toki Pona text containing sound symbol Na]]

Sources:
  mani: https://commons.wikimedia.org/wiki/File:Sitelen_seli_kiwen_-_mani.svg
  pa: https://commons.wikimedia.org/wiki/File:Sitelen_kalama_pona_-_pa.svg
  na: https://commons.wikimedia.org/wiki/File:Sitelen_kalama_pona_-_na.svg
-->
<svg version="1.1" width="4163" height="1000"
     viewBox="0 0 4163 1000"
     xmlns="http://www.w3.org/2000/svg">
  <path d="M397 576Q399 576 403.0 574.0Q407 572 413 572Q424 572 443.0 576.5Q462 581 471 581Q478 581 490.5 579.0Q503 577 518 577Q528 577 538.5 578.0Q549 579 555 579Q567 579 597.0 567.5Q627 556 630 553Q636 547 650.0 540.5Q664 534 670 534Q672 534 674.0 535.5Q676 537 684.5 548.5Q693 560 707 583Q734 626 734 680Q734 708 735.5 714.5Q737 721 745 729Q757 741 770 741Q784 741 784 737Q784 736 798.0 711.5Q812 687 812 675Q812 662 796.5 614.5Q781 567 766 549Q757 538 743.5 516.5Q730 495 723 488Q705 470 721 463Q728 461 728 452L746 409Q764 366 764 344Q764 329 758.5 293.5Q753 258 749 248Q743 233 711 169Q701 148 683.0 134.5Q665 121 629 106Q550 73 529 73Q522 73 513.0 76.0Q504 79 492 79Q484 79 471.0 77.5Q458 76 447 76Q402 76 371 93Q355 102 339.5 109.0Q324 116 318.0 119.0Q312 122 309 127Q308 128 277.5 149.0Q247 170 237 187Q232 194 221.5 214.0Q211 234 197.0 275.5Q183 317 183 350Q183 351 185.0 360.5Q187 370 188 388Q190 416 200 443L211 470L199 479Q192 484 182.0 496.5Q172 509 164.5 518.0Q157 527 154 527Q142 527 123.5 561.0Q105 595 99 629Q97 643 94.5 653.0Q92 663 91.0 666.0Q90 669 89.0 672.5Q88 676 88 681Q88 697 97.0 708.0Q106 719 121 719Q144 719 154.0 674.0Q164 629 165 628Q170 623 170 615Q170 611 174.0 605.0Q178 599 185.5 588.5Q193 578 199 568Q206 555 224.5 540.0Q243 525 254 525Q261 525 265.5 533.0Q270 541 279 541Q287 541 308.5 551.0Q330 561 341 562Q351 563 371.0 569.5Q391 576 397 576ZM451 144Q477 144 503.0 147.0Q529 150 548.5 155.0Q568 160 583.5 164.5Q599 169 608.5 172.0Q618 175 619 175Q626 175 642.0 190.5Q658 206 658 212Q658 219 667 226Q676 234 685.0 269.0Q694 304 694 326Q694 344 686 374Q678 401 671.5 412.5Q665 424 643 446Q625 464 625 470Q625 483 586.0 500.0Q547 517 518 517Q502 517 492.0 517.5Q482 518 479.0 518.5Q476 519 474.0 519.5Q472 520 471 520Q467 520 461 519Q423 513 397.5 507.0Q372 501 363.5 497.5Q355 494 348.0 491.5Q341 489 334 489Q325 489 311.5 480.0Q298 471 285.0 460.0Q272 449 271 448Q265 445 258.5 423.0Q252 401 252.0 384.0Q252 367 249 367Q247 367 247 357Q247 278 314.0 211.0Q381 144 451 144Z" transform="translate(0.00,958.33) scale(0.9583,-0.9583)" fill="#000000" />
  <path d="M 24.637998,12.488337 H 20.72216 q -1.48166,0 -2.54,-1.058333 -1.05833,-1.058333 -1.05833,-2.54 V 3.598338 q 0,-1.481667 1.05833,-2.54 Q 19.2405,4e-6 20.72216,4e-6 h 3.915838 V 0.846671 H 20.72216 q -1.13241,0 -1.94733,0.814917 -0.80433,0.804333 -0.80433,1.93675 v 5.291666 q 0,1.132417 0.80433,1.93675 0.81492,0.814917 1.94733,0.814917 h 3.915838 z" transform="translate(-428.69,0.00) scale(80.0747,80.0747)" fill="#000000" />
  <path d="M 75.014662,0.846671 V 4e-6 h 13.123333 v 0.846667 z m 0,11.641666 v -0.846666 h 13.123333 v 0.846666 z" transform="translate(-4462.58,0.00) scale(80.0747,80.0747)" fill="#000000" />
  <path d="M 75.014662,0.846671 V 4e-6 h 13.123333 v 0.846667 z m 0,11.641666 v -0.846666 h 13.123333 v 0.846666 z" transform="translate(-3411.74,0.00) scale(80.0747,80.0747)" fill="#000000" />
  <path d="m 87.714667,4e-6 h 2.8575 q 1.481666,0 2.54,1.058334 1.058333,1.058333 1.058333,2.54 v 5.291666 q 0,1.481667 -1.058333,2.54 -1.058334,1.058333 -2.54,1.058333 h -2.8575 v -0.846666 h 2.8575 q 1.132416,0 1.93675,-0.814917 0.814916,-0.804333 0.814916,-1.93675 V 3.598338 q 0,-1.132417 -0.814916,-1.93675 -0.804334,-0.814917 -1.93675,-0.814917 h -2.8575 z" transform="translate(-3377.84,0.00) scale(80.0747,80.0747)" fill="#000000" />
  <path d="M 641.19,97.96 C 641.19,97.96 690.82,103.99 690.81,104.04 C 664.81,318.04 664.81,318.04 664.81,318.04 C 664.81,318.04 615.18,312.01 615.19,311.96 C 641.19,97.96 641.19,97.96 641.19,97.96  Z M 411.00,461.00 C 411.00,464.00 409.68,472.65 409.68,486.21 C 409.68,544.12 434.55,594.35 534.11,615.43 C 580.87,625.34 631.08,626.79 694.49,628.01 C 695.13,628.02 695.13,628.02 865.77,640.07 L 862.25,689.93 C 692.86,677.98 692.86,677.98 687.79,677.88 C 592.87,676.08 472.28,673.73 405.87,607.31 C 376.65,578.09 359.77,537.33 359.77,484.99 C 359.77,476.93 360.17,468.60 360.98,459.99 C 360.93,456.67 360.91,453.35 360.91,450.04 C 360.91,369.17 376.08,290.09 390.64,213.35 C 397.44,177.48 404.15,142.11 409.27,107.33 C 409.27,107.33 458.73,114.62 458.73,114.67 C 453.40,150.83 446.55,186.86 439.75,222.72 C 425.16,299.60 410.90,375.66 410.90,450.25 C 410.90,456.42 411.00,460.35 411.00,461.00  Z M 154.85,624.93 C 154.85,625.77 155.74,670.06 155.74,670.52 C 155.74,682.89 155.15,695.78 153.00,709.10 L 153.00,741.00 L 103.00,741.00 L 103.00,707.00 C 103.00,701.32 105.69,695.82 105.69,669.82 C 105.69,669.12 104.82,624.91 104.82,624.46 C 104.82,613.09 105.30,601.26 107.02,589.05 C 107.14,577.90 107.19,566.69 107.19,555.43 C 107.19,542.39 107.12,529.27 107.01,516.10 C 106.11,504.49 105.66,492.98 105.66,481.57 C 105.66,273.32 253.88,102.94 467.33,80.15 C 468.60,80.01 468.60,80.01 899.88,78.01 L 900.12,127.99 L 471.42,129.99 C 283.90,150.61 155.65,299.39 155.65,481.49 C 155.65,500.64 156.97,511.82 156.99,514.79 C 157.11,528.36 157.18,541.91 157.18,555.43 C 157.18,586.69 156.98,593.01 156.72,594.74 C 155.29,604.25 154.85,614.31 154.85,624.93 Z" transform="translate(1669.62,100.00) scale(0.8000,0.8000)" fill="#000000" />
  <path d="M 108.86,305.66 C 108.86,140.71 217.05,29.02 382.26,29.02 C 406.69,29.02 432.26,31.46 458.75,36.48 C 466.58,34.95 474.37,34.15 481.97,34.15 C 504.36,34.15 525.15,41.06 540.69,56.60 C 556.29,72.20 564.00,93.97 564.00,117.76 C 564.00,198.00 564.00,198.00 564.00,198.00 L 514.00,198.00 L 514.00,118.13 C 513.84,103.00 509.17,84.05 482.21,84.05 C 470.85,84.05 465.10,87.00 459.00,87.00 C 452.60,87.00 423.64,78.92 381.75,78.92 C 312.70,78.92 258.11,101.70 220.49,139.32 C 181.81,178.00 158.76,234.92 158.76,305.48 C 158.76,363.36 173.81,405.43 173.99,413.43 C 174.23,423.87 174.31,434.33 174.31,444.78 C 174.31,445.67 173.61,532.64 173.61,533.63 C 173.61,585.78 176.00,603.58 176.00,608.00 L 176.00,614.00 C 176.00,615.62 176.00,615.62 167.79,679.22 C 167.30,683.02 167.30,683.02 153.70,712.49 C 153.70,712.49 108.30,691.54 108.30,691.51 L 118.70,668.98 L 126.00,612.38 L 126.00,608.97 C 124.12,584.19 123.61,559.12 123.61,534.10 C 123.61,533.20 124.32,445.72 124.32,444.72 C 124.32,435.58 124.25,426.52 124.07,417.55 C 113.84,378.59 108.86,341.04 108.86,305.66  Z M 352.00,718.00 L 302.00,718.00 L 302.00,640.00 C 302.00,639.03 305.44,621.22 312.06,543.07 C 321.82,427.82 333.32,293.02 407.76,218.57 C 441.23,185.11 487.33,164.99 546.36,164.99 C 600.67,164.99 677.60,192.32 709.46,334.91 C 721.26,387.71 724.14,443.07 724.14,486.85 C 724.14,492.87 724.09,498.67 724.00,504.21 L 724.00,584.39 L 721.99,714.39 L 672.01,713.62 L 674.00,583.81 L 674.00,503.57 C 674.09,498.51 674.14,493.23 674.14,487.76 C 674.14,417.46 665.81,295.69 612.01,241.89 C 600.85,230.73 580.92,214.98 546.17,214.98 C 478.05,214.98 418.91,245.23 387.76,363.33 C 364.12,452.96 363.73,564.23 352.00,641.91 L 352.00,718.00 Z" transform="translate(2720.47,100.00) scale(0.8000,0.8000)" fill="#000000" />
</svg>
