<?xml version="1.0" encoding="UTF-8" standalone="no"?>
<!--
Representation of "anpa palisa" in sitelen ilo pona
Generated by generate_sitelen_kalama_pona.py

Description:
  Representation of "anpa palisa" in sitelen ilo pona.
  Sources: anpa: https://commons.wikimedia.org/wiki/File:Sitelen_seli_kiwen_-_anpa.svg; palisa: https://commons.wikimedia.org/wiki/File:Sitelen_seli_kiwen_-_palisa.svg

Categories:
  [[Category:Sitelen kalama pona]]
  [[Category:Toki Pona text containing anpa palisa]]

Sources:
  anpa: https://commons.wikimedia.org/wiki/File:Sitelen_seli_kiwen_-_anpa.svg
  palisa: https://commons.wikimedia.org/wiki/File:Sitelen_seli_kiwen_-_palisa.svg
-->
<svg version="1.1" width="1805" height="1000"
     viewBox="0 0 1805 1000"
     xmlns="http://www.w3.org/2000/svg">
  <path d="M381 231Q381 249 389.5 261.0Q398 273 411.0 278.0Q424 283 434.0 285.0Q444 287 453 287Q460 287 468.0 285.0Q476 283 489.5 277.5Q503 272 511.5 256.5Q520 241 520 218Q520 209 512.5 198.5Q505 188 497.0 182.0Q489 176 487 176H485Q482 176 468.0 173.5Q454 171 448 171Q429 171 403 194Q389 207 385.0 213.5Q381 220 381 231ZM685 445Q697 445 697 461Q697 481 693.5 505.5Q690 530 686.5 547.0Q683 564 683 566Q683 572 694 589Q703 602 708.0 605.0Q713 608 723 607Q737 606 744.5 596.5Q752 587 753.5 577.0Q755 567 755 551V540Q755 518 760 508Q764 501 768.0 472.0Q772 443 774 440Q778 434 779.5 421.5Q781 409 778 407Q774 405 774 395Q774 381 718 381Q669 381 637.5 384.0Q606 387 596.0 390.5Q586 394 576.5 397.0Q567 400 556 400Q540 400 534.0 404.0Q528 408 522 405Q519 403 481 403Q469 403 440.0 404.0Q411 405 397 405Q388 405 306.0 397.0Q224 389 192 389Q125 389 125 426Q125 428 126.5 440.0Q128 452 128 474Q128 506 125.5 547.5Q123 589 121 598Q119 610 120.5 613.0Q122 616 130 619Q147 625 158 625Q180 625 188.5 611.0Q197 597 197 583Q197 570 189.5 554.5Q182 539 182 518Q182 494 187 475L191 459H289Q388 460 404 467Q416 472 421 472Q424 472 431.0 469.0Q438 466 459.5 463.0Q481 460 518 460L550 461Q577 461 588.5 456.5Q600 452 611 452Q619 452 631.5 453.0Q644 454 650 454Q665 454 673.5 449.5Q682 445 685 445Z" transform="translate(0.00,958.33) scale(0.9583,-0.9583)" fill="#000000" />
  <path d="M354 109Q354 119 349.0 125.5Q344 132 344 137Q344 148 343 149Q342 149 340 146Q335 139 334 151Q334 157 334 167Q334 176 325.0 200.5Q316 225 316 236Q316 264 311.0 293.5Q306 323 306 371Q306 414 302.0 433.5Q298 453 298 466Q298 480 295.0 499.5Q292 519 292 523Q292 526 294 532Q296 537 298.0 559.5Q300 582 302.0 612.5Q304 643 308 660Q312 683 312 700Q312 717 322 726Q334 738 328 738Q326 738 334.5 746.5Q343 755 354.0 764.5Q365 774 368 776Q375 778 406 778Q466 778 474 769Q478 761 484 761Q488 761 493.0 754.0Q498 747 504 747Q512 747 532.5 723.5Q553 700 554 690Q554 688 561.0 677.5Q568 667 568 660Q569 658 577.0 622.0Q585 586 586 552Q593 409 604 402Q606 400 605.0 396.0Q604 392 602.0 386.5Q600 381 602 373Q608 358 608 282Q608 146 598 136Q594 131 594 120Q594 97 566.0 72.0Q538 47 484 47Q483 47 447.0 54.0Q411 61 410 62Q409 64 397.0 69.5Q385 75 376 84Q364 95 359.0 95.0Q354 95 354 109ZM540 188Q540 215 545.0 231.5Q550 248 550 260Q550 262 548.5 295.5Q547 329 544.0 365.5Q541 402 540 405Q534 414 530 500Q527 589 511.5 628.5Q496 668 446 714Q432 726 414 726Q394 726 382 712Q378 707 371.5 688.0Q365 669 358.5 630.5Q352 592 352 550Q352 536 353.5 536.0Q355 536 358.0 503.0Q361 470 364.5 412.5Q368 355 370 299Q371 255 376.0 237.0Q381 219 406 164Q411 152 416.5 145.0Q422 138 442.5 129.0Q463 120 494 120Q528 120 528 133Q528 142 532 142Q535 142 539.0 152.0Q543 162 542 168Q540 173 540 188Z" transform="translate(942.50,958.33) scale(0.9583,-0.9583)" fill="#000000" />
</svg>
