<?xml version="1.0" encoding="UTF-8" standalone="no"?>
<!--
Representation of "sitelen esun" in sitelen kalama pona
Generated by generate_sitelen_kalama_pona.py

Description:
  Representation of "sitelen esun" in sitelen kalama pona.
  Sources: sitelen: https://commons.wikimedia.org/wiki/File:Sitelen_seli_kiwen_-_sitelen.svg; esun: https://commons.wikimedia.org/wiki/File:Sitelen_seli_kiwen_-_esun.svg

Categories:
  [[Category:Sitelen kalama pona]]
  [[Category:Toki Pona text containing sitelen esun]]

Sources:
  sitelen: https://commons.wikimedia.org/wiki/File:Sitelen_seli_kiwen_-_sitelen.svg
  esun: https://commons.wikimedia.org/wiki/File:Sitelen_seli_kiwen_-_esun.svg
-->
<svg version="1.1" width="1805" height="1000"
     viewBox="0 0 1805 1000"
     xmlns="http://www.w3.org/2000/svg">
  <path d="M556 397Q556 406 557.5 412.5Q559 419 570.0 427.0Q581 435 602 435Q616 435 623.5 425.5Q631 416 632 406L633 396Q633 381 623.0 371.5Q613 362 596 362Q574 362 565.0 370.0Q556 378 556 397ZM405 406Q405 439 442 439Q466 439 479 413Q484 403 484.0 398.5Q484 394 477 386Q465 370 438 370Q423 370 415.0 379.0Q407 388 406 397ZM275 408Q275 416 286.5 429.5Q298 443 310 443Q325 443 340.5 430.0Q356 417 356 404Q356 373 307 373Q295 373 285.0 388.0Q275 403 275 408ZM166 161V167Q166 173 166.0 181.5Q166 190 166.5 199.0Q167 208 167.0 217.0Q167 226 167 230Q167 298 164 301Q163 302 167.0 313.5Q171 325 166.0 332.0Q161 339 161 373Q161 388 164.5 440.5Q168 493 169 562Q170 628 174.0 654.5Q178 681 191 697Q200 709 208 709Q215 709 248.5 698.0Q282 687 301 684Q326 681 400 681Q638 681 695 693Q710 697 725 683Q739 671 739 648Q739 618 731.5 561.0Q724 504 722 453Q720 394 717 386Q715 380 718.5 374.5Q722 369 720 360V342Q720 276 728.5 204.0Q737 132 737 123Q737 98 728.5 88.5Q720 79 699.0 79.0Q678 79 678.0 82.0Q678 85 502.0 95.5Q326 106 315 106L286 104Q258 101 227.5 98.5Q197 96 191 96Q175 96 170.5 108.5Q166 121 166 161ZM663 407Q663 482 670.0 515.0Q677 548 677 577Q677 589 673 605L668 624H471Q278 624 266 627Q259 628 252.5 627.5Q246 627 242.0 624.0Q238 621 239 618Q241 613 237.0 608.5Q233 604 235 599Q236 597 236 595Q236 594 235.0 592.0Q234 590 233.0 584.0Q232 578 230.5 568.0Q229 558 228.0 536.5Q227 515 227 486Q227 479 227.0 466.5Q227 454 227.5 441.0Q228 428 228.5 415.5Q229 403 229 395V387V383Q229 379 228.5 372.0Q228 365 227.5 355.0Q227 345 227.0 330.5Q227 316 227 301Q227 246 232 237Q238 225 233 220Q227 214 228.0 203.5Q229 193 236 187Q252 173 354 173Q374 173 390.0 167.0Q406 161 431 161Q453 161 477.5 155.5Q502 150 522 150Q527 150 559.0 151.0Q591 152 628.5 154.5Q666 157 669 160Q674 165 674 200Q674 231 669.0 249.0Q664 267 664 290V318Q664 332 663.5 350.5Q663 369 663 407Z" transform="translate(0.00,958.33) scale(0.9583,-0.9583)" fill="#000000" />
  <path d="M256 679Q256 689 265.5 699.0Q275 709 284 709Q297 709 320.0 686.5Q343 664 346 654Q350 644 354 644Q358 644 358 639Q358 630 405.0 580.0Q452 530 464 530Q471 530 496.5 556.5Q522 583 522 586Q522 591 553.0 621.5Q584 652 590 652Q595 652 620.0 664.0Q645 676 668 676Q689 676 708.5 669.5Q728 663 738.0 655.0Q748 647 748 642Q748 642 751.0 636.5Q754 631 759.0 622.0Q764 613 768.5 602.0Q773 591 776.5 577.5Q780 564 780 552Q780 531 768.0 493.5Q756 456 732 431Q712 411 701.5 406.0Q691 401 664 401Q607 401 572.0 408.5Q537 416 524.5 423.5Q512 431 510 431Q504 431 496 423Q486 413 481.0 392.0Q476 371 470 365Q466 361 466 356Q466 341 504 324Q514 320 548.0 288.0Q582 256 598 249Q612 243 644.0 213.5Q676 184 682 180Q693 173 698 167Q700 163 714.5 160.5Q729 158 740.5 148.5Q752 139 752 118Q752 104 740.5 92.5Q729 81 714 81Q702 81 681.0 93.5Q660 106 656 115Q654 122 622.0 148.5Q590 175 586 175Q582 175 560.5 192.5Q539 210 512.0 231.0Q485 252 470 258Q457 264 451.0 271.0Q445 278 442 278Q432 278 418.5 253.0Q405 228 402 226Q400 225 390.0 206.5Q380 188 356 173Q330 156 330 149Q330 142 324 142Q321 142 288.5 129.0Q256 116 234 116Q224 116 198.5 126.5Q173 137 146.5 161.5Q120 186 120 215Q120 234 121.5 248.5Q123 263 125.0 269.5Q127 276 129.0 280.0Q131 284 132.5 285.5Q134 287 134 288L132 292Q129 296 136.5 309.0Q144 322 144 326Q144 331 157.5 346.5Q171 362 176 362Q178 362 180.5 365.0Q183 368 192.0 375.0Q201 382 218 390Q234 398 247.0 400.0Q260 402 296 402Q348 402 358 395Q376 383 394 383Q414 383 414 400Q414 406 425.0 428.0Q436 450 436 462Q436 475 426 475Q421 475 367.5 525.5Q314 576 310 591Q308 598 296.0 606.5Q284 615 280 624Q276 633 264 653Q256 668 256 679ZM724 538Q724 574 707.5 592.5Q691 611 670 611Q622 611 582 565Q572 553 563.0 544.0Q554 535 550.0 531.5Q546 528 544.0 525.0Q542 522 542 519Q542 512 538 512Q534 512 528 501Q525 493 527.5 490.0Q530 487 546 480Q573 470 576 470Q579 470 585.0 466.5Q591 463 626 463Q688 463 706.0 475.0Q724 487 724 538ZM372 309Q372 325 338.0 333.5Q304 342 282 342Q255 342 220.0 320.5Q185 299 184 278Q183 270 179.5 263.5Q176 257 176 249Q176 237 179.5 224.5Q183 212 188 212Q194 212 194 207Q194 199 211.5 191.5Q229 184 250 184H278L318 224Q358 264 358 269Q358 272 365.0 287.0Q372 302 372 309Z" transform="translate(942.50,958.33) scale(0.9583,-0.9583)" fill="#000000" />
</svg>
