<?xml version="1.0" encoding="UTF-8" standalone="no"?>
<!--
Representation of "sina" in sitelen kalama pona
Generated by generate_sitelen_kalama_pona.py

Description:
  Representation of "sina" in sitelen kalama pona.
  Sources: sina: https://commons.wikimedia.org/wiki/File:Sitelen_seli_kiwen_-_sina.svg

Categories:
  [[Category:Toki Pona text containing sina]]

Sources:
  sina: https://commons.wikimedia.org/wiki/File:Sitelen_seli_kiwen_-_sina.svg
-->
<svg version="1.1" width="862" height="1000"
     viewBox="0 0 862 1000"
     xmlns="http://www.w3.org/2000/svg">
  <path d="M300 723Q300 719 305.0 717.5Q310 716 315.0 714.0Q320 712 325.0 700.5Q330 689 330 668Q330 650 326.0 633.0Q322 616 322 564Q322 448 328 439Q334 435 329.5 426.5Q325 418 326 410Q328 407 328 403Q328 402 324.0 386.0Q320 370 320 347Q321 316 328 318Q329 325 351.0 336.0Q373 347 398.5 357.5Q424 368 428 371Q432 376 458 376Q484 376 505.0 370.0Q526 364 536.5 358.5Q547 353 550 353Q555 353 560.5 345.0Q566 337 572 335Q584 330 599.0 319.5Q614 309 614 306Q614 302 619.5 296.5Q625 291 631.5 285.0Q638 279 643.0 260.0Q648 241 648 213Q648 157 626 134Q618 127 602 105Q594 93 587.5 85.0Q581 77 565.5 64.5Q550 52 526.0 45.0Q502 38 472 38Q438 38 417.0 48.0Q396 58 392 58Q383 58 356.0 83.5Q329 109 326 109Q320 109 320 118Q320 124 308.0 137.0Q296 150 296.0 154.0Q296 158 292.5 162.0Q289 166 282.0 178.0Q275 190 268 210Q263 222 257.5 255.0Q252 288 252 300Q252 300 252.0 302.5Q252 305 253.0 309.5Q254 314 254.5 320.5Q255 327 255.5 338.0Q256 349 256 362Q256 392 254 393Q252 395 252 396Q252 397 256.0 409.0Q260 421 260 433Q260 438 257.5 441.5Q255 445 256 450Q262 466 262 593Q262 607 262.0 621.0Q262 635 262.0 645.0Q262 655 261.5 663.0Q261 671 260.5 675.5Q260 680 260 680Q260 718 282 724Q288 726 291.5 726.5Q295 727 297.0 727.0Q299 727 299.5 726.0Q300 725 300 723ZM576 231Q576 239 549.0 266.5Q522 294 514 297Q500 303 472 303Q426 303 406 286Q396 278 380 268Q368 260 362.5 246.5Q357 233 352 228Q344 221 344 212Q344 199 360.5 184.0Q377 169 382 158Q390 142 396 142Q404 142 404 136Q404 127 425.0 120.5Q446 114 476 114Q483 114 505.0 116.0Q527 118 530 121Q533 126 546 133Q557 138 562.5 147.0Q568 156 582 186Q589 202 589.0 206.0Q589 210 584 217Q576 227 576 231Z" transform="translate(0.00,958.33) scale(0.9583,-0.9583)" fill="#000000" />
</svg>
