<?xml version="1.0" encoding="UTF-8" standalone="no"?>
<!--
Representation of "lipu sewi Kulan la toki pi soweli mani" in sitelen kalama pona
Generated by generate_sitelen_kalama_pona.py

Description:
  Representation of "lipu sewi Kulan la toki pi soweli mani" in sitelen kalama pona.
  Sources: lipu-sewi: https://commons.wikimedia.org/wiki/File:Sitelen_seli_kiwen_-_lipu-sewi.svg; ku: https://commons.wikimedia.org/wiki/File:Sitelen_kalama_pona_-_ku.svg; lan: https://commons.wikimedia.org/wiki/File:Sitelen_kalama_pona_-_lan.svg; la: https://commons.wikimedia.org/wiki/File:Sitelen_kalama_pona_-_la.svg; to: https://commons.wikimedia.org/wiki/File:Sitelen_kalama_pona_-_to.svg; ki: https://commons.wikimedia.org/wiki/File:Sitelen_kalama_pona_-_ki.svg; pi: https://commons.wikimedia.org/wiki/File:Sitelen_kalama_pona_-_pi.svg; so: https://commons.wikimedia.org/wiki/File:Sitelen_kalama_pona_-_so.svg; we: https://commons.wikimedia.org/wiki/File:Sitelen_kalama_pona_-_we.svg; li: https://commons.wikimedia.org/wiki/File:Sitelen_kalama_pona_-_li.svg; ma: https://commons.wikimedia.org/wiki/File:Sitelen_kalama_pona_-_ma.svg; ni: https://commons.wikimedia.org/wiki/File:Sitelen_kalama_pona_-_ni.svg

Categories:
  [[Category:Sitelen kalama pona]]
  [[Category:Toki Pona text containing lipu sewi]]
  [[Category:Toki Pona text containing sound symbol Ku]]
  [[Category:Toki Pona text containing sound symbol Lan]]
  [[Category:Toki Pona text containing sound symbol La]]
  [[Category:Toki Pona text containing sound symbol To]]
  [[Category:Toki Pona text containing sound symbol Ki]]
  [[Category:Toki Pona text containing sound symbol Pi]]
  [[Category:Toki Pona text containing sound symbol So]]
  [[Category:Toki Pona text containing sound symbol We]]
  [[Category:Toki Pona text containing sound symbol Li]]
  [[Category:Toki Pona text containing sound symbol Ma]]
  [[Category:Toki Pona text containing sound symbol Ni]]

Sources:
  lipu-sewi: https://commons.wikimedia.org/wiki/File:Sitelen_seli_kiwen_-_lipu-sewi.svg
  ku: https://commons.wikimedia.org/wiki/File:Sitelen_kalama_pona_-_ku.svg
  lan: https://commons.wikimedia.org/wiki/File:Sitelen_kalama_pona_-_lan.svg
  la: https://commons.wikimedia.org/wiki/File:Sitelen_kalama_pona_-_la.svg
  to: https://commons.wikimedia.org/wiki/File:Sitelen_kalama_pona_-_to.svg
  ki: https://commons.wikimedia.org/wiki/File:Sitelen_kalama_pona_-_ki.svg
  pi: https://commons.wikimedia.org/wiki/File:Sitelen_kalama_pona_-_pi.svg
  so: https://commons.wikimedia.org/wiki/File:Sitelen_kalama_pona_-_so.svg
  we: https://commons.wikimedia.org/wiki/File:Sitelen_kalama_pona_-_we.svg
  li: https://commons.wikimedia.org/wiki/File:Sitelen_kalama_pona_-_li.svg
  ma: https://commons.wikimedia.org/wiki/File:Sitelen_kalama_pona_-_ma.svg
  ni: https://commons.wikimedia.org/wiki/File:Sitelen_kalama_pona_-_ni.svg
-->
<svg version="1.1" width="13620" height="1000"
     viewBox="0 0 13620 1000"
     xmlns="http://www.w3.org/2000/svg">
  <path d="M332 335Q332 338 331.5 341.0Q331 344 331 346Q331 359 342.0 370.0Q353 381 366 381Q383 381 389.5 371.0Q396 361 396 336Q396 316 397.5 311.0Q399 306 405 306Q414 306 431 325Q449 344 452.5 373.0Q456 402 457.0 428.5Q458 455 468 468Q478 480 478 487Q478 492 490 492Q523 492 523 473Q523 469 521 465Q517 454 513.0 402.0Q509 350 505 346V334Q505 320 467 271Q452 251 440.0 245.5Q428 240 401 240H381Q356 240 338.0 232.5Q320 225 310 225Q289 225 265.5 251.0Q242 277 242 293Q242 299 243.0 308.5Q244 318 252.5 332.5Q261 347 276.0 347.0Q291 347 303.5 324.5Q316 302 318 302Q322 302 327.0 313.5Q332 325 332 335ZM540 289Q540 290 542.0 307.5Q544 325 546.5 359.5Q549 394 549 435Q549 492 544.5 539.5Q540 587 540 588Q540 600 546 609Q553 619 564 619Q570 619 576.0 617.0Q582 615 585 613L588 611Q603 599 607.0 438.5Q611 278 620 260Q625 249 618 244Q613 240 606 229Q599 219 581 219Q567 219 562 227Q540 268 540 289ZM594 725Q600 725 609.0 724.5Q618 724 624 724Q648 724 670.5 733.0Q693 742 696 742Q700 742 717.5 725.5Q735 709 735 699Q735 698 733.5 690.5Q732 683 730.0 669.0Q728 655 725.5 635.0Q723 615 721.5 583.0Q720 551 720 513Q720 424 730.0 370.0Q740 316 740 291Q741 259 745.5 238.5Q750 218 750 206Q750 191 754.5 148.5Q759 106 759 99Q759 91 757.5 86.5Q756 82 747.5 78.5Q739 75 723.0 75.0Q707 75 630.5 86.5Q554 98 510 98Q489 98 363.5 90.5Q238 83 234 80Q230 78 226 78Q214 78 197.5 84.0Q181 90 178.0 96.0Q175 102 175.0 127.0Q175 152 172 158Q170 162 170 166Q170 171 173.0 179.5Q176 188 176 192Q176 197 173 201Q164 212 164 384V419Q164 426 156.0 542.0Q148 658 145 670Q141 694 141 695Q141 706 149.0 714.5Q157 723 162 723Q166 723 174.0 727.5Q182 732 196 732Q200 732 239.0 729.0Q278 726 326 726L392 727L458 728Q489 728 509.0 722.5Q529 717 532 717Q536 717 553.0 721.0Q570 725 594 725ZM617 668Q614 668 600.0 668.0Q586 668 573 668L560 667L548 668Q535 668 519.5 668.5Q504 669 498 669Q478 669 428.0 666.0Q378 663 302 663Q246 663 225 664Q215 665 212.0 663.0Q209 661 210 655Q211 650 211 607V598Q211 565 218.0 478.5Q225 392 225 343V333Q225 284 229.5 252.5Q234 221 234 215Q234 200 242.0 186.0Q250 172 250 163Q250 159 262.5 155.0Q275 151 284.0 151.0Q293 151 309.5 145.5Q326 140 361 140Q388 140 405.0 146.0Q422 152 448 154Q546 161 551 161Q572 161 651 154L690 150L688 164Q686 175 689.5 185.0Q693 195 691 199Q688 205 684.5 280.5Q681 356 673 371Q666 383 666 401Q666 409 662.5 440.5Q659 472 659 509Q659 515 659.5 572.5Q660 630 660 646Q660 656 658.5 659.5Q657 663 647.5 665.5Q638 668 617 668Z" transform="translate(0.00,958.33) scale(0.9583,-0.9583)" fill="#000000" />
  <path d="M 24.637998,12.488337 H 20.72216 q -1.48166,0 -2.54,-1.058333 -1.05833,-1.058333 -1.05833,-2.54 V 3.598338 q 0,-1.481667 1.05833,-2.54 Q 19.2405,4e-6 20.72216,4e-6 h 3.915838 V 0.846671 H 20.72216 q -1.13241,0 -1.94733,0.814917 -0.80433,0.804333 -0.80433,1.93675 v 5.291666 q 0,1.132417 0.80433,1.93675 0.81492,0.814917 1.94733,0.814917 h 3.915838 z" transform="translate(-428.69,0.00) scale(80.0747,80.0747)" fill="#000000" />
  <path d="M 75.014662,0.846671 V 4e-6 h 13.123333 v 0.846667 z m 0,11.641666 v -0.846666 h 13.123333 v 0.846666 z" transform="translate(-4462.58,0.00) scale(80.0747,80.0747)" fill="#000000" />
  <path d="M 75.014662,0.846671 V 4e-6 h 13.123333 v 0.846667 z m 0,11.641666 v -0.846666 h 13.123333 v 0.846666 z" transform="translate(-3411.74,0.00) scale(80.0747,80.0747)" fill="#000000" />
  <path d="M 75.014662,0.846671 V 4e-6 h 13.123333 v 0.846667 z m 0,11.641666 v -0.846666 h 13.123333 v 0.846666 z" transform="translate(-2360.89,0.00) scale(80.0747,80.0747)" fill="#000000" />
  <path d="M 75.014662,0.846671 V 4e-6 h 13.123333 v 0.846667 z m 0,11.641666 v -0.846666 h 13.123333 v 0.846666 z" transform="translate(-1310.04,0.00) scale(80.0747,80.0747)" fill="#000000" />
  <path d="M 75.014662,0.846671 V 4e-6 h 13.123333 v 0.846667 z m 0,11.641666 v -0.846666 h 13.123333 v 0.846666 z" transform="translate(-259.19,0.00) scale(80.0747,80.0747)" fill="#000000" />
  <path d="M 75.014662,0.846671 V 4e-6 h 13.123333 v 0.846667 z m 0,11.641666 v -0.846666 h 13.123333 v 0.846666 z" transform="translate(791.65,0.00) scale(80.0747,80.0747)" fill="#000000" />
  <path d="M 75.014662,0.846671 V 4e-6 h 13.123333 v 0.846667 z m 0,11.641666 v -0.846666 h 13.123333 v 0.846666 z" transform="translate(1842.50,0.00) scale(80.0747,80.0747)" fill="#000000" />
  <path d="M 75.014662,0.846671 V 4e-6 h 13.123333 v 0.846667 z m 0,11.641666 v -0.846666 h 13.123333 v 0.846666 z" transform="translate(2893.35,0.00) scale(80.0747,80.0747)" fill="#000000" />
  <path d="M 75.014662,0.846671 V 4e-6 h 13.123333 v 0.846667 z m 0,11.641666 v -0.846666 h 13.123333 v 0.846666 z" transform="translate(3944.19,0.00) scale(80.0747,80.0747)" fill="#000000" />
  <path d="M 75.014662,0.846671 V 4e-6 h 13.123333 v 0.846667 z m 0,11.641666 v -0.846666 h 13.123333 v 0.846666 z" transform="translate(4995.04,0.00) scale(80.0747,80.0747)" fill="#000000" />
  <path d="M 75.014662,0.846671 V 4e-6 h 13.123333 v 0.846667 z m 0,11.641666 v -0.846666 h 13.123333 v 0.846666 z" transform="translate(6045.89,0.00) scale(80.0747,80.0747)" fill="#000000" />
  <path d="m 87.714667,4e-6 h 2.8575 q 1.481666,0 2.54,1.058334 1.058333,1.058333 1.058333,2.54 v 5.291666 q 0,1.481667 -1.058333,2.54 -1.058334,1.058333 -2.54,1.058333 h -2.8575 v -0.846666 h 2.8575 q 1.132416,0 1.93675,-0.814917 0.814916,-0.804333 0.814916,-1.93675 V 3.598338 q 0,-1.132417 -0.814916,-1.93675 -0.804334,-0.814917 -1.93675,-0.814917 h -2.8575 z" transform="translate(6079.79,0.00) scale(80.0747,80.0747)" fill="#000000" />
  <path d="M 326.60,734.72 C 319.64,734.72 313.08,735.35 306.03,735.35 C 290.50,735.35 281.70,732.36 275.98,729.55 C 224.69,716.66 183.34,674.17 172.55,623.21 C 172.19,621.52 172.01,619.81 172.01,618.10 L 170.01,108.10 L 219.99,107.90 L 221.98,615.13 C 229.75,646.90 257.23,674.19 290.47,681.61 C 293.10,682.19 295.73,683.21 298.09,684.65 C 299.15,684.96 302.66,685.22 307.62,685.22 C 315.16,685.22 319.66,684.67 326.22,684.67 C 328.33,684.67 330.53,684.73 332.84,684.89 C 379.92,679.45 428.74,629.60 450.36,583.40 C 450.36,583.40 495.64,604.58 495.64,604.60 C 470.04,659.35 408.74,728.48 335.19,734.90 C 334.46,734.96 333.73,735.00 333.00,735.00 C 330.45,735.00 330.78,734.72 326.60,734.72  Z M 337.51,157.62 L 368.45,118.35 C 435.62,171.26 435.62,171.26 436.68,172.32 C 438.15,173.80 438.15,173.80 469.36,217.49 L 428.67,246.55 L 400.72,207.43 C 400.72,207.43 337.55,157.65 337.51,157.62  Z M 608.92,96.87 C 640.41,96.87 640.78,124.23 640.78,125.50 C 640.78,130.07 639.66,134.44 637.50,138.91 L 592.49,117.11 L 597.39,141.00 L 608.17,146.48 C 606.84,146.50 548.86,159.22 493.93,214.15 C 449.45,258.62 419.99,317.66 419.99,375.50 C 419.99,375.64 419.99,375.79 420.00,376.00 C 420.00,377.19 419.79,380.45 419.79,386.20 C 419.79,529.02 550.65,639.25 681.43,657.10 L 714.48,659.05 L 711.54,708.95 C 676.59,706.90 676.59,706.90 675.67,706.77 C 518.21,685.79 369.80,553.70 369.80,386.23 C 369.80,382.68 369.87,379.12 370.00,375.48 C 370.00,246.47 480.72,126.37 596.99,97.73 C 598.96,97.25 600.98,97.00 603.00,97.00 C 603.18,97.00 603.37,97.01 603.55,97.01 C 603.60,97.01 608.32,96.87 608.92,96.87 Z" transform="translate(1669.62,100.00) scale(0.8000,0.8000)" fill="#000000" />
  <path d="M 427.60,902.87 C 389.78,902.87 353.14,925.73 345.61,968.37 C 345.61,968.37 296.38,959.68 296.39,959.63 C 307.82,894.86 363.43,852.88 427.55,852.88 C 429.20,852.88 430.85,852.91 432.51,852.97 C 434.36,852.84 436.19,852.78 437.99,852.78 C 480.36,852.78 501.45,883.93 516.73,906.51 C 531.67,928.57 539.40,938.05 553.12,938.05 C 564.33,938.05 570.54,933.00 579.00,933.00 C 582.08,933.00 583.38,933.56 587.73,933.56 C 603.39,933.56 618.75,925.01 637.89,909.68 L 684.62,859.05 L 721.38,892.95 C 672.14,946.30 672.14,946.30 670.72,947.44 C 649.72,964.45 622.72,983.58 588.06,983.58 C 586.01,983.58 583.93,983.51 581.83,983.38 C 571.83,986.40 562.14,987.94 552.89,987.94 C 511.48,987.94 490.96,957.64 475.30,934.51 C 458.85,910.21 451.66,902.71 439.15,902.71 C 436.30,902.71 435.16,903.00 433.00,903.00 C 432.95,903.00 429.39,902.87 427.60,902.87  Z M 137.42,727.97 C 137.42,724.96 138.01,720.78 140.14,716.64 C 140.05,715.76 140.00,714.88 140.00,714.00 C 140.00,711.03 140.53,708.05 141.59,705.23 C 204.75,536.10 130.88,250.01 265.37,116.27 C 270.25,111.43 276.62,109.00 283.00,109.00 C 296.38,109.00 327.97,129.53 348.28,149.84 C 428.95,230.51 430.02,370.47 430.97,494.26 C 431.32,539.74 431.72,582.36 435.82,617.05 C 435.84,617.20 436.43,623.29 436.43,632.20 C 436.43,646.65 434.85,661.28 431.77,675.17 L 813.12,677.01 C 813.12,677.01 812.88,726.99 812.88,726.99 C 396.88,724.99 396.88,724.99 396.88,724.99 C 383.11,724.93 372.00,713.77 372.00,700.00 C 372.00,696.20 372.86,692.40 374.58,688.92 C 381.54,674.85 386.39,651.83 386.39,630.82 C 386.39,627.95 386.30,625.12 386.11,622.35 C 375.38,530.47 388.56,401.56 367.48,299.97 C 352.35,227.03 323.36,187.73 288.31,165.45 C 195.08,281.64 246.48,525.80 197.36,695.64 C 205.96,698.41 220.41,705.61 220.41,722.72 C 220.41,749.15 190.99,751.32 176.67,752.37 C 173.09,752.64 169.85,752.84 167.41,752.99 C 166.78,753.03 166.20,753.00 165.66,753.00 C 165.55,753.00 165.45,753.00 165.35,753.00 C 165.26,753.00 165.17,753.01 165.08,753.01 C 164.00,753.05 163.35,753.07 163.07,753.08 C 162.26,752.98 160.88,753.14 158.62,752.80 C 141.18,750.15 137.42,734.26 137.42,727.97  Z M 177.36,709.28 L 177.27,739.64 L 180.08,741.72 L 180.08,710.41 L 177.36,709.28  Z M 167.35,748.98 C 173.05,747.32 180.08,745.77 180.08,745.77 L 180.08,742.68 C 177.55,742.00 173.21,740.98 167.20,739.81 L 167.35,748.98 Z" transform="translate(2720.47,100.00) scale(0.8000,0.8000)" fill="#000000" />
  <path d="M 137.42,727.97 C 137.42,724.96 138.01,720.78 140.14,716.64 C 140.05,715.76 140.00,714.88 140.00,714.00 C 140.00,711.03 140.53,708.05 141.59,705.23 C 204.75,536.10 130.88,250.01 265.37,116.27 C 270.25,111.43 276.62,109.00 283.00,109.00 C 296.38,109.00 327.97,129.53 348.28,149.84 C 428.95,230.51 430.02,370.47 430.97,494.26 C 431.32,539.74 431.72,582.36 435.82,617.05 C 435.84,617.20 436.43,623.29 436.43,632.20 C 436.43,646.65 434.85,661.28 431.77,675.17 L 813.12,677.01 C 813.12,677.01 812.88,726.99 812.88,726.99 C 396.88,724.99 396.88,724.99 396.88,724.99 C 383.11,724.93 372.00,713.77 372.00,700.00 C 372.00,696.20 372.86,692.40 374.58,688.92 C 381.54,674.85 386.39,651.83 386.39,630.82 C 386.39,627.95 386.30,625.12 386.11,622.35 C 375.38,530.47 388.56,401.56 367.48,299.97 C 352.35,227.03 323.36,187.73 288.31,165.45 C 195.08,281.64 246.48,525.80 197.36,695.64 C 205.96,698.41 220.41,705.61 220.41,722.72 C 220.41,749.15 190.99,751.32 176.67,752.37 C 173.09,752.64 169.85,752.84 167.41,752.99 C 166.78,753.03 166.20,753.00 165.66,753.00 C 165.55,753.00 165.45,753.00 165.35,753.00 C 165.26,753.00 165.17,753.01 165.08,753.01 C 164.00,753.05 163.35,753.07 163.07,753.08 C 162.26,752.98 160.88,753.14 158.62,752.80 C 141.18,750.15 137.42,734.26 137.42,727.97  Z M 177.36,709.28 L 177.27,739.64 L 180.08,741.72 L 180.08,710.41 L 177.36,709.28  Z M 167.35,748.98 C 173.05,747.32 180.08,745.77 180.08,745.77 L 180.08,742.68 C 177.55,742.00 173.21,740.98 167.20,739.81 L 167.35,748.98 Z" transform="translate(3771.31,100.00) scale(0.8000,0.8000)" fill="#000000" />
  <path d="M 394.00,124.00 C 394.00,81.45 444.29,65.03 462.44,59.10 C 462.44,59.10 462.90,53.08 462.93,53.08 C 494.27,55.49 494.27,55.49 498.95,58.04 C 514.72,66.62 544.03,82.57 544.03,118.54 C 544.03,118.87 544.02,119.19 544.02,119.52 C 544.10,120.95 544.14,122.38 544.14,123.81 C 544.14,157.82 521.51,193.00 485.48,193.00 C 467.69,193.00 430.32,180.54 399.02,139.03 C 395.68,134.60 394.00,129.30 394.00,124.00  Z M 486.35,142.95 C 488.73,142.04 494.13,133.57 494.13,123.32 C 494.13,121.96 494.00,121.60 494.00,120.00 C 494.00,118.93 494.08,118.15 494.08,117.18 C 494.08,115.59 494.08,113.18 481.33,105.54 C 468.40,109.74 456.48,113.88 448.31,119.91 C 453.65,125.47 469.09,140.05 486.35,142.95  Z M 446.02,428.68 C 446.02,427.98 445.86,367.32 445.86,366.70 C 445.86,326.74 446.47,286.29 450.11,245.75 C 450.11,245.75 499.90,250.22 499.89,250.25 C 496.44,288.67 495.85,328.01 495.85,367.85 C 495.85,368.62 496.01,428.05 496.01,428.66 C 496.01,441.70 496.01,442.63 494.33,446.99 C 483.61,474.89 479.21,498.48 479.21,518.20 C 479.21,626.87 616.98,643.92 686.53,643.92 C 703.77,643.92 715.09,643.00 717.00,643.00 L 827.46,645.01 C 827.46,645.01 826.55,694.99 826.54,694.99 C 717.52,693.01 717.52,693.01 717.52,693.01 C 707.08,693.62 696.55,693.94 685.98,693.94 C 541.10,693.94 429.22,635.50 429.22,518.13 C 429.22,492.19 434.72,463.99 446.01,433.40 C 446.02,431.83 446.02,430.26 446.02,428.68  Z M 162.45,275.00 C 332.96,267.45 512.54,213.00 685.47,213.00 C 685.98,213.00 686.49,213.00 687.00,213.00 C 687.04,213.00 802.32,213.00 834.66,213.00 L 844.02,205.98 C 844.02,205.98 874.02,245.99 873.98,246.02 C 857.98,258.02 857.98,258.02 857.98,258.02 C 853.56,261.34 848.28,263.00 843.00,263.00 L 685.59,263.00 C 518.31,263.00 339.14,317.32 164.10,324.97 C 163.73,324.99 163.37,325.00 163.00,325.00 L 151.00,325.00 L 151.00,275.00 L 162.45,275.00 Z" transform="translate(4822.16,100.00) scale(0.8000,0.8000)" fill="#000000" />
  <path d="M 401.00,131.00 C 376.66,131.00 351.33,107.86 351.33,84.01 C 351.33,81.77 351.54,79.45 352.00,77.06 C 353.02,48.40 378.36,33.25 392.71,24.67 C 393.22,24.36 398.21,21.37 399.37,20.49 L 422.46,49.25 C 427.47,52.78 438.12,62.38 438.12,80.17 C 438.12,81.22 438.08,82.28 437.99,83.32 C 437.99,83.51 437.99,83.70 437.99,83.90 C 438.00,84.93 438.01,86.06 438.01,87.29 C 438.01,130.35 403.09,131.00 401.00,131.00  Z M 201.42,181.56 L 232.54,142.41 L 388.58,266.44 L 357.46,305.59 C 357.46,305.59 201.46,181.59 201.42,181.56  Z M 408.05,512.35 L 449.97,539.62 L 341.95,705.65 L 300.03,678.38 C 300.03,678.38 408.03,512.38 408.05,512.35  Z M 603.52,100.45 C 617.37,100.45 630.21,111.06 630.21,126.54 C 630.21,131.42 628.96,135.38 628.29,137.09 L 611.57,130.58 C 610.87,134.39 609.27,138.07 606.79,141.28 L 605.30,128.14 L 581.72,118.96 L 587.27,143.62 L 606.10,150.24 C 601.54,151.34 598.35,153.47 590.37,154.38 C 589.39,154.49 588.26,154.63 586.82,154.63 C 584.68,154.63 578.80,154.30 573.26,151.03 C 462.15,156.17 403.43,286.67 403.43,386.40 C 403.43,391.40 403.58,396.35 403.87,401.24 C 421.69,511.78 515.35,602.55 619.46,625.39 L 632.56,627.26 C 632.56,627.26 625.49,676.75 625.44,676.74 C 610.56,674.62 610.56,674.62 609.70,674.43 C 484.63,647.45 374.92,539.74 354.31,407.89 C 354.27,407.67 353.42,400.12 353.42,385.59 C 353.42,249.92 438.68,100.88 580.40,100.88 C 585.35,100.88 589.69,100.88 593.24,101.79 C 593.35,101.76 598.57,100.45 603.52,100.45 Z" transform="translate(5873.01,100.00) scale(0.8000,0.8000)" fill="#000000" />
  <path d="M 485.00,189.00 C 469.68,189.00 438.00,176.21 438.00,126.00 C 438.00,117.97 440.75,112.11 452.24,100.63 C 456.31,96.55 469.86,83.00 483.00,83.00 L 493.00,83.00 L 493.00,85.32 C 505.32,87.38 524.11,100.20 524.11,122.52 C 524.11,123.23 524.09,123.95 524.04,124.66 C 524.08,125.75 524.10,126.85 524.10,127.96 C 524.10,165.31 504.14,189.00 485.00,189.00  Z M 606.10,279.81 C 606.10,279.81 655.90,284.16 655.90,284.19 C 637.90,490.19 637.90,490.19 637.90,490.19 C 637.90,490.19 588.10,485.84 588.10,485.81 C 606.10,279.81 606.10,279.81 606.10,279.81  Z M 429.49,786.96 C 319.70,786.96 228.59,722.79 228.59,616.05 C 228.59,604.31 229.71,592.09 232.04,579.47 C 233.26,492.01 243.62,404.21 258.00,319.86 L 258.00,314.00 L 308.00,314.00 L 308.00,322.00 C 308.00,330.48 283.64,447.79 281.99,582.31 C 281.93,587.51 278.43,598.69 278.43,617.13 C 278.43,699.49 355.82,736.84 430.49,736.84 C 461.27,736.84 478.65,731.00 485.00,731.00 L 679.20,731.00 C 730.13,731.41 774.29,739.46 821.76,739.46 C 827.75,739.46 833.74,739.33 839.77,739.04 L 842.23,788.96 C 835.21,789.31 828.30,789.46 821.48,789.46 C 771.89,789.46 726.49,781.38 678.90,781.00 L 487.62,781.00 C 468.37,784.96 448.81,786.96 429.49,786.96  Z M 733.76,308.43 C 557.65,308.43 334.30,328.57 169.67,332.99 L 168.33,283.01 C 245.61,280.94 324.81,276.25 404.79,271.50 C 513.82,265.02 624.29,258.44 733.52,258.44 C 751.48,258.44 769.40,258.62 787.27,259.00 L 857.80,259.00 C 857.80,259.00 940.61,251.12 940.65,251.12 L 945.39,300.88 C 860.20,309.00 860.20,309.00 859.00,309.00 L 787.00,309.00 C 786.47,309.00 764.15,308.43 733.76,308.43 Z" transform="translate(6923.85,100.00) scale(0.8000,0.8000)" fill="#000000" />
  <path d="M 478.11,269.00 C 488.35,269.00 499.64,268.68 510.30,268.68 C 523.43,268.68 537.34,269.15 551.69,271.28 C 563.87,273.08 573.00,283.55 573.00,296.00 L 573.00,300.00 L 526.45,300.00 L 544.31,320.72 C 533.35,319.10 521.51,318.70 509.15,318.70 C 504.42,318.70 481.83,318.98 481.55,318.99 C 443.85,330.31 399.32,363.58 397.03,405.61 C 436.10,471.93 553.31,520.60 553.31,632.84 C 553.31,639.28 553.31,646.31 551.05,651.69 C 512.89,742.62 385.17,735.37 324.30,769.77 C 322.58,770.74 320.76,771.50 318.90,772.03 C 318.90,772.03 304.90,776.03 304.84,776.05 L 291.10,727.97 L 302.38,724.75 C 369.30,688.52 475.20,693.07 503.27,636.00 C 503.31,634.87 503.32,633.75 503.32,632.65 C 503.32,581.78 467.67,548.39 423.83,508.42 C 394.73,481.89 366.78,456.29 349.80,423.50 C 346.95,418.01 346.95,413.36 346.95,408.90 C 346.95,340.30 409.54,286.68 471.42,269.88 C 473.67,269.27 475.84,269.00 478.11,269.00  Z M 446.08,91.46 C 436.99,96.52 426.55,104.30 426.55,113.34 C 426.55,132.75 444.06,143.86 461.29,143.86 C 466.60,143.86 468.17,143.00 472.00,143.00 C 472.94,143.00 473.87,143.06 474.80,143.16 C 475.21,140.09 475.36,136.54 475.36,132.12 C 475.36,127.65 475.00,116.16 475.00,116.00 C 475.00,111.28 476.23,109.02 476.23,107.21 C 476.23,103.18 468.35,96.98 461.77,92.50 L 446.08,91.46  Z M 496.39,55.70 C 513.15,68.30 526.07,84.60 526.07,107.57 C 526.07,111.13 525.74,114.74 525.07,118.36 C 525.39,129.12 525.39,129.12 525.39,132.39 C 525.39,163.24 517.60,175.28 510.02,182.85 C 506.07,186.81 496.37,194.55 481.04,194.55 C 477.41,194.55 473.87,194.13 470.43,193.40 C 467.32,193.72 464.21,193.87 461.13,193.87 C 414.70,193.87 376.59,159.16 376.59,112.98 C 376.59,52.37 459.02,29.00 480.00,29.00 C 480.59,29.00 481.18,29.03 481.77,29.07 C 483.07,28.82 485.05,28.47 488.18,28.47 C 509.35,28.47 516.28,45.08 516.93,54.22 L 496.39,55.70 Z" transform="translate(7974.70,100.00) scale(0.8000,0.8000)" fill="#000000" />
  <path d="M 49.97,136.08 C 58.81,161.41 86.65,169.58 138.41,169.58 C 142.31,169.58 198.53,168.32 199.14,168.32 C 215.53,168.32 225.95,169.55 226.22,169.55 C 235.88,169.55 244.22,167.81 253.07,167.81 C 288.01,167.81 293.31,192.77 293.31,203.56 C 293.31,220.27 275.97,257.20 275.97,323.38 C 275.97,325.65 276.00,327.95 276.00,328.00 C 276.00,330.84 275.45,332.60 275.45,337.96 C 275.45,377.33 309.08,420.19 350.77,420.19 C 358.26,420.19 360.81,419.00 365.00,419.00 C 366.94,419.00 369.56,419.36 374.79,419.36 C 441.92,419.36 457.80,345.40 472.06,259.00 C 473.38,251.05 474.66,243.26 476.00,235.75 L 476.00,214.00 C 476.00,200.19 487.19,189.00 501.00,189.00 C 513.59,189.00 524.13,198.32 525.78,210.68 C 527.27,221.90 528.35,233.80 529.46,246.02 C 536.41,322.00 545.09,378.87 595.15,382.78 C 648.66,361.39 661.85,284.26 672.84,216.29 C 679.29,176.36 679.41,176.23 685.32,170.32 C 690.20,165.44 696.60,163.00 703.00,163.00 C 713.96,163.00 723.39,170.08 726.72,180.09 C 752.95,259.03 756.10,340.89 756.10,420.52 C 756.10,420.90 755.76,499.79 755.76,500.59 C 755.76,510.96 755.81,521.27 755.96,531.51 C 758.12,543.52 759.17,554.99 759.17,565.89 C 759.17,711.51 583.43,716.30 477.52,716.30 C 458.76,716.30 439.93,716.08 422.42,716.08 C 407.10,716.08 393.18,716.25 381.41,716.90 C 370.65,718.34 360.19,718.93 349.97,718.93 C 306.09,718.93 265.29,707.95 222.44,706.99 C 222.44,706.99 223.56,657.01 223.56,657.01 C 270.26,658.06 310.38,668.89 350.49,668.89 C 375.27,668.89 363.10,666.08 421.48,666.08 C 437.73,666.08 455.07,666.29 474.09,666.29 C 539.64,666.29 645.58,664.86 688.40,622.03 C 700.96,609.48 709.41,592.98 709.41,567.41 C 709.41,550.68 706.09,539.35 706.01,534.40 C 705.83,523.12 705.77,511.84 705.77,500.57 C 705.77,500.34 706.08,425.99 706.08,425.24 C 706.08,388.79 705.45,352.80 702.52,317.63 C 691.90,351.94 668.62,410.90 607.02,431.68 C 604.42,432.56 601.71,433.00 599.00,433.00 C 576.59,433.00 526.25,425.48 500.62,362.02 C 491.92,388.51 464.01,469.31 373.85,469.31 C 371.31,469.31 368.75,469.25 366.14,469.11 C 360.95,469.84 355.82,470.18 350.77,470.18 C 282.09,470.18 225.42,405.83 225.42,338.50 C 225.42,334.62 225.61,330.73 225.99,326.82 C 225.98,325.67 225.98,324.51 225.98,323.35 C 225.98,287.83 230.71,252.65 239.21,219.03 C 235.68,219.39 231.75,219.73 227.44,219.73 C 217.37,219.73 220.12,218.35 199.36,218.35 C 180.03,218.35 158.29,219.66 137.37,219.66 C 97.76,219.66 20.97,216.78 0.97,146.91 C 0.03,143.62 -0.04,140.92 -0.04,137.68 C -0.04,93.89 33.51,60.15 85.12,51.29 C 212.94,29.35 212.58,27.01 214.90,27.01 L 722.90,25.01 L 723.10,74.99 L 217.42,76.99 C 118.62,95.81 93.22,100.67 91.96,100.82 C 86.11,101.51 51.03,106.87 49.97,136.08 Z" transform="translate(9025.55,100.00) scale(0.8000,0.8000)" fill="#000000" />
  <path d="M 490.97,116.68 C 507.51,116.68 518.00,128.65 518.00,142.00 L 518.00,146.00 L 503.91,146.00 C 514.22,161.14 518.21,183.94 520.65,198.12 C 522.37,201.36 524.11,206.03 524.11,211.66 C 524.11,225.12 513.64,239.32 492.85,239.32 C 481.98,239.32 460.08,230.11 449.92,211.61 C 444.91,207.48 433.75,196.28 433.75,178.71 C 433.75,177.16 433.87,172.75 435.07,168.76 C 435.02,166.24 434.80,162.75 434.80,160.51 C 434.80,134.81 452.06,124.93 467.71,124.93 C 468.08,124.93 468.44,124.94 468.79,124.95 C 473.94,120.83 481.70,116.68 490.97,116.68  Z M 245.19,504.85 C 245.19,459.77 249.85,413.17 249.85,367.96 C 249.85,345.20 248.58,325.85 244.93,312.74 C 244.31,310.54 244.00,308.27 244.00,306.00 L 244.00,190.00 L 294.00,190.00 L 294.00,302.73 C 298.79,321.70 300.29,343.15 300.29,365.89 C 300.29,405.89 295.27,458.13 295.27,505.25 C 295.27,583.07 310.87,609.09 334.21,614.73 C 362.30,611.83 391.34,611.18 420.49,611.18 C 421.23,611.18 492.77,611.63 494.51,611.63 C 574.16,611.63 605.06,605.05 606.18,605.02 L 790.19,599.02 L 791.82,648.98 L 609.36,654.93 C 572.87,660.56 534.76,661.66 496.90,661.66 C 472.39,661.66 447.05,661.19 421.87,661.19 C 360.88,661.19 333.89,665.00 333.00,665.00 C 329.22,665.00 303.16,661.94 282.04,640.81 C 256.99,615.77 245.19,575.70 245.19,504.85 Z" transform="translate(10076.40,100.00) scale(0.8000,0.8000)" fill="#000000" />
  <path d="M 522.00,558.00 C 522.00,558.14 521.73,566.22 521.73,572.30 C 521.73,584.12 522.48,594.41 525.00,603.00 L 477.02,617.06 C 472.64,602.14 471.66,587.63 471.66,574.12 C 471.66,568.77 471.81,563.59 471.97,558.60 C 471.09,547.25 470.72,536.08 470.72,525.05 C 470.72,464.30 482.14,406.66 482.14,348.98 C 482.14,342.62 482.00,338.85 482.00,338.00 C 482.00,336.47 482.27,333.61 482.27,327.81 C 482.27,232.28 405.65,104.59 308.07,100.98 C 287.06,100.20 287.06,100.20 286.79,100.20 C 199.98,100.20 129.26,141.64 97.83,286.69 C 74.28,395.40 79.55,527.94 71.91,622.04 L 22.09,617.99 L 22.09,617.96 C 29.63,525.03 24.03,391.17 48.98,276.04 C 66.30,196.08 112.34,50.25 287.76,50.25 C 317.75,50.25 377.94,50.25 441.13,113.44 C 497.05,169.35 532.28,252.44 532.28,327.17 C 532.28,330.91 532.19,334.63 532.01,338.33 C 532.10,341.97 532.14,345.60 532.14,349.21 C 532.14,410.00 520.73,467.35 520.73,525.49 C 520.73,542.54 522.00,557.67 522.00,558.00  Z M 503.68,361.35 C 513.06,336.93 546.33,255.47 629.36,255.47 C 636.20,255.47 643.24,256.04 650.48,257.24 C 753.85,268.91 788.18,355.43 802.57,401.96 C 828.62,486.23 830.28,589.08 848.98,652.94 C 849.66,655.24 850.00,657.62 850.00,660.00 L 850.00,708.00 L 800.00,708.00 L 800.00,663.53 C 773.06,567.33 779.47,405.33 712.11,337.97 C 695.42,321.28 674.43,310.14 644.27,306.85 C 630.12,305.30 630.12,305.30 628.03,305.30 C 609.34,305.30 595.54,312.49 582.92,325.11 C 560.64,347.39 543.89,390.03 533.87,437.20 C 521.40,495.81 518.69,558.66 517.28,592.44 C 516.12,620.45 515.90,625.72 508.15,633.47 C 505.02,636.59 498.32,640.84 490.10,640.84 C 487.33,640.84 467.92,639.96 464.28,615.73 C 462.26,602.27 461.58,587.67 461.58,572.31 C 461.58,555.15 462.43,537.03 463.22,518.46 C 464.06,498.61 464.87,478.30 464.87,458.73 C 464.87,367.02 445.25,331.52 402.27,324.87 C 397.57,324.56 393.02,324.40 388.63,324.40 C 352.32,324.40 276.29,332.40 250.66,463.04 C 244.69,493.49 242.38,526.44 242.38,558.52 C 242.38,583.23 243.75,607.44 245.88,629.63 L 196.12,634.41 C 193.85,610.78 192.32,584.90 192.32,558.14 C 192.32,473.76 207.33,379.47 263.75,323.05 C 294.19,292.61 336.34,274.45 389.51,274.45 C 428.86,274.45 481.87,289.08 503.68,361.35 Z" transform="translate(11127.24,100.00) scale(0.8000,0.8000)" fill="#000000" />
  <path d="M 474.34,104.34 C 474.49,104.33 475.05,104.30 475.85,104.30 C 478.10,104.30 480.15,104.54 482.03,104.91 C 483.35,104.83 485.02,104.73 487.04,104.73 C 521.74,104.73 522.55,132.59 522.55,135.21 C 522.55,137.88 522.21,140.31 521.70,142.49 C 521.83,147.38 522.26,149.86 522.26,154.03 C 522.26,180.65 504.37,190.15 489.71,190.15 C 486.01,190.15 482.51,189.63 479.50,188.93 C 476.61,188.98 473.81,189.13 470.84,189.13 C 449.83,189.13 441.65,182.14 437.34,177.83 C 430.73,171.23 427.88,161.97 427.88,153.61 C 427.88,153.45 427.88,153.30 427.88,153.14 C 427.57,150.66 427.42,148.21 427.42,145.78 C 427.42,121.84 442.42,88.73 472.05,85.18 L 474.34,104.34  Z M 323.00,494.91 C 323.00,568.75 342.00,664.06 342.00,678.00 L 342.00,710.00 L 292.00,710.00 L 292.00,679.66 C 290.37,667.36 288.62,655.00 286.85,642.57 C 280.06,594.88 272.99,546.02 272.99,495.42 C 272.99,485.73 273.25,475.97 273.82,466.14 C 271.03,453.63 269.72,441.43 269.72,429.62 C 269.72,324.96 371.67,252.82 474.34,252.82 C 484.93,252.82 495.49,253.59 505.92,255.16 C 713.64,272.30 723.43,515.14 723.43,625.09 C 723.43,651.13 722.00,707.55 721.99,708.38 L 672.01,707.62 C 672.02,706.80 673.39,652.31 673.39,626.34 C 673.39,450.27 636.84,315.63 501.02,304.92 C 500.39,304.87 499.76,304.79 499.13,304.70 C 491.31,303.48 483.31,302.89 475.25,302.89 C 401.47,302.89 319.58,352.45 319.58,428.82 C 319.58,447.80 324.00,457.29 324.00,464.00 C 324.00,466.26 323.00,476.76 323.00,494.91 Z" transform="translate(12178.09,100.00) scale(0.8000,0.8000)" fill="#000000" />
</svg>
