<?xml version="1.0" encoding="UTF-8" standalone="no"?>
<!--
Representation of "ijo pi sama ala" in sitelen kalama pona
Generated by generate_sitelen_kalama_pona.py

Description:
  Representation of "ijo pi sama ala" in sitelen kalama pona.
  Sources: ijo: https://commons.wikimedia.org/wiki/File:Sitelen_seli_kiwen_-_ijo.svg; pi: https://commons.wikimedia.org/wiki/File:Sitelen_seli_kiwen_-_pi.svg; sama: https://commons.wikimedia.org/wiki/File:Sitelen_seli_kiwen_-_sama.svg; ala: https://commons.wikimedia.org/wiki/File:Sitelen_seli_kiwen_-_ala.svg

Categories:
  [[Category:Toki Pona text containing ijo pi sama ala]]

Sources:
  ijo: https://commons.wikimedia.org/wiki/File:Sitelen_seli_kiwen_-_ijo.svg
  pi: https://commons.wikimedia.org/wiki/File:Sitelen_seli_kiwen_-_pi.svg
  sama: https://commons.wikimedia.org/wiki/File:Sitelen_seli_kiwen_-_sama.svg
  ala: https://commons.wikimedia.org/wiki/File:Sitelen_seli_kiwen_-_ala.svg
-->
<svg version="1.1" width="3690" height="1000"
     viewBox="0 0 3690 1000"
     xmlns="http://www.w3.org/2000/svg">
  <path d="M467 716Q467 716 469.0 716.0Q471 716 475.5 715.5Q480 715 485.5 714.5Q491 714 500.5 714.0Q510 714 521 714L564 713L606 686Q651 657 688.0 624.0Q725 591 733 572Q738 559 740.5 559.0Q743 559 752.0 544.0Q761 529 773.5 486.5Q786 444 791 390Q792 382 793.5 376.5Q795 371 795.0 370.5Q795 370 794 365Q782 347 782 326Q782 308 771.0 283.0Q760 258 758 243Q756 227 721.0 193.5Q686 160 686 157Q686 152 677 152Q668 152 666 147Q664 141 629.0 121.5Q594 102 531.5 81.5Q469 61 413 61Q354 61 291 79Q264 87 253.5 93.5Q243 100 226 117Q209 134 194.0 144.0Q179 154 170.0 162.0Q161 170 151 187Q134 215 124 227Q105 250 105 345Q105 382 106.5 404.0Q108 426 110.0 431.0Q112 436 114.0 438.5Q116 441 116 444Q116 457 145 538Q153 562 163.0 575.0Q173 588 196 604Q204 610 216.5 621.0Q229 632 237.5 640.0Q246 648 248 648Q255 648 277.0 659.5Q299 671 301 671Q321 672 346.0 678.0Q371 684 376 688Q384 695 419.0 705.5Q454 716 467 716ZM676 545Q676 551 650.0 575.5Q624 600 588.0 624.0Q552 648 530 648Q516 648 498.5 638.0Q481 628 473 628Q469 628 462.5 631.0Q456 634 439.0 634.0Q422 634 414.5 632.5Q407 631 395.0 627.5Q383 624 361 621Q324 616 289.0 598.5Q254 581 254 563Q254 555 245 555Q238 555 231.5 549.5Q225 544 219 541Q211 538 200.0 517.0Q189 496 184 491Q176 482 169.5 435.0Q163 388 156 379Q149 372 149 331Q149 301 154 300Q158 298 157.0 290.5Q156 283 159 277Q164 269 167 259Q170 242 211.5 204.5Q253 167 277 159Q285 156 306.5 144.0Q328 132 353 129Q381 126 428 126Q495 126 505 131Q552 156 564 156Q565 156 579.5 164.0Q594 172 616.5 188.5Q639 205 661.0 226.0Q683 247 700.5 276.0Q718 305 721 335Q724 364 724 390Q724 420 719.0 446.5Q714 473 707.0 490.0Q700 507 693.0 519.0Q686 531 681.0 537.5Q676 544 676 545Z" transform="translate(0.00,958.33) scale(0.9583,-0.9583)" fill="#000000" />
  <path d="M178 600Q178 613 172.0 629.5Q166 646 166 651Q166 660 178 675Q187 686 191.5 688.0Q196 690 206 688Q221 685 228.5 675.5Q236 666 237.0 657.5Q238 649 238 634V602Q238 561 244.0 524.5Q250 488 250 466Q250 451 248.0 418.5Q246 386 246 369Q246 369 246.0 367.0Q246 365 246.5 361.5Q247 358 247.5 353.0Q248 348 248.0 339.5Q248 331 248.5 321.0Q249 311 249.5 296.5Q250 282 250 266Q250 179 252 177Q260 168 392 168Q392 168 438.0 168.0Q484 168 532.0 168.5Q580 169 584 169Q698 169 704 167Q710 164 716 164Q722 163 728.0 144.5Q734 126 734 111Q734 109 733.0 103.5Q732 98 727.5 90.5Q723 83 716 83Q714 83 683.5 92.5Q653 102 624 102Q612 102 594.0 100.0Q576 98 562 98Q562 98 558.5 98.5Q555 99 548.0 99.5Q541 100 532.0 100.5Q523 101 510.5 101.5Q498 102 486 102Q485 102 480.5 102.0Q476 102 469.0 101.5Q462 101 454.5 100.5Q447 100 439.5 100.0Q432 100 428 100Q344 100 230 92L190 90L184 104Q180 114 180 131Q180 157 185.0 176.5Q190 196 190 218Q190 218 190.0 225.0Q190 232 190.0 242.5Q190 253 189.5 264.5Q189 276 188.5 287.0Q188 298 188 304Q188 326 190.0 374.0Q192 422 192 441Q192 517 178 540Q176 543 177.0 544.0Q178 545 180.0 545.5Q182 546 182.5 549.5Q183 553 180 562Q176 571 176 578Q176 581 177.0 588.5Q178 596 178 600Z" transform="translate(942.50,958.33) scale(0.9583,-0.9583)" fill="#000000" />
  <path d="M302 320Q436 320 483.0 327.0Q530 334 540 334Q586 334 656.5 331.5Q727 329 740 327Q752 325 757.0 321.5Q762 318 766 308Q772 293 772 279Q772 272 771.0 268.0Q770 264 764.0 259.0Q758 254 746 253Q731 251 726 248Q721 244 708 253Q700 258 685.0 259.5Q670 261 622 261Q541 261 468.5 253.5Q396 246 284 243Q268 243 249.0 242.0Q230 241 217.5 240.0Q205 239 202 239Q198 239 187.0 242.0Q176 245 163.0 255.0Q150 265 150 279Q150 292 156.5 303.0Q163 314 174 318Q178 320 224 320ZM128 518Q128 522 130.0 530.5Q132 539 141.0 550.5Q150 562 164 562Q169 562 192.5 559.0Q216 556 263.5 553.0Q311 550 374 550Q454 550 545.5 555.5Q637 561 702 561Q732 561 738 560Q750 559 759.0 546.0Q768 533 768 519Q768 507 761.0 499.5Q754 492 747 490L740 489Q678 487 626.5 485.5Q575 484 541.5 482.5Q508 481 482.0 480.0Q456 479 442.0 478.0Q428 477 419.5 476.5Q411 476 408.0 475.5Q405 475 404 475L358 474H354Q302 474 246 478Q175 483 151.5 490.0Q128 497 128 518Z" transform="translate(1885.00,958.33) scale(0.9583,-0.9583)" fill="#000000" />
  <path d="M211 109Q170 109 170 144Q170 152 181.0 166.5Q192 181 202.0 191.5Q212 202 214 203Q224 207 255.5 238.5Q287 270 290 280Q292 288 300 288Q306 288 336.5 318.5Q367 349 367 355Q367 359 388.0 381.0Q409 403 409.0 407.0Q409 411 392.5 430.0Q376 449 376.0 451.0Q376 453 363.5 468.0Q351 483 336.5 501.0Q322 519 319 525Q314 536 310 536Q307 536 291.0 559.5Q275 583 272 583Q266 583 246.5 607.0Q227 631 227 638Q227 667 250 667Q268 667 291.0 650.0Q314 633 325 611Q331 599 346.0 583.5Q361 568 365 559Q373 543 395.5 518.0Q418 493 423 483Q442 450 456 450Q468 450 490 479Q501 493 553.5 550.5Q606 608 611 615Q617 621 672 661Q682 668 693 668Q708 668 719.0 655.5Q730 643 730.0 627.0Q730 611 720 611Q715 611 702.0 599.5Q689 588 686 588Q685 588 673.0 579.0Q661 570 642.5 551.5Q624 533 612 515Q602 500 575.0 473.0Q548 446 528.0 423.0Q508 400 508 388Q508 378 522.0 362.5Q536 347 536.0 345.0Q536 343 554.5 317.5Q573 292 573 291Q573 289 581.0 280.5Q589 272 600.0 259.0Q611 246 617 235Q625 219 665.0 183.5Q705 148 709 141Q718 127 711 114Q701 93 681 93Q662 93 650.0 105.0Q638 117 631.0 130.5Q624 144 619 146Q616 148 616 152Q616 155 606.0 166.5Q596 178 579.5 197.5Q563 217 552 234Q542 249 520.5 276.0Q499 303 481.5 323.5Q464 344 462.0 344.0Q460 344 445.0 329.5Q430 315 424 313Q419 311 397.0 286.5Q375 262 365.0 255.0Q355 248 334.5 224.5Q314 201 303 194Q291 187 280.5 168.5Q270 150 264 148Q260 147 247.0 128.0Q234 109 211 109Z" transform="translate(2827.50,958.33) scale(0.9583,-0.9583)" fill="#000000" />
</svg>
