<?xml version="1.0" encoding="UTF-8" standalone="no"?>
<!--
Representation of "wan olin" in sitelen ilo pona
Generated by generate_sitelen_kalama_pona.py

Description:
  Representation of "wan olin" in sitelen ilo pona.
  Sources: wan: https://commons.wikimedia.org/wiki/File:Sitelen_seli_kiwen_-_wan.svg; olin: https://commons.wikimedia.org/wiki/File:Sitelen_seli_kiwen_-_olin.svg

Categories:
  [[Category:Sitelen kalama pona]]
  [[Category:Toki Pona text containing wan olin]]

Sources:
  wan: https://commons.wikimedia.org/wiki/File:Sitelen_seli_kiwen_-_wan.svg
  olin: https://commons.wikimedia.org/wiki/File:Sitelen_seli_kiwen_-_olin.svg
-->
<svg version="1.1" width="1805" height="1000"
     viewBox="0 0 1805 1000"
     xmlns="http://www.w3.org/2000/svg">
  <path d="M338 528Q338 540 347.5 551.0Q357 562 365.5 567.5Q374 573 377 573Q380 573 381.5 574.0Q383 575 386.0 578.5Q389 582 392.0 586.5Q395 591 402.5 599.5Q410 608 419 618Q452 652 467.0 674.5Q482 697 485.0 705.5Q488 714 495 718Q505 723 512 723Q531 723 539 705Q545 691 545 586Q545 533 542.0 486.0Q539 439 539 412Q539 366 544.0 312.5Q549 259 554.0 227.5Q559 196 560 193Q564 184 558 184Q555 184 554.5 178.5Q554 173 554.0 165.0Q554 157 552 153Q551 152 551 147Q551 145 553.5 126.5Q556 108 556 90Q556 76 549.5 68.0Q543 60 538.5 59.0Q534 58 530 58Q520 58 505.5 69.5Q491 81 488 82Q485 83 483.5 133.0Q482 183 480.5 235.5Q479 288 475 294Q473 297 473 305Q473 310 476.0 326.5Q479 343 479 355Q479 360 478.0 368.0Q477 376 476.5 379.5Q476 383 477 387Q479 391 479 507Q479 556 478.5 564.5Q478 573 472 573Q462 573 446.0 553.5Q430 534 413.5 514.5Q397 495 385 495Q370 495 354.0 503.0Q338 511 338 528Z" transform="translate(0.00,958.33) scale(0.9583,-0.9583)" fill="#000000" />
  <path d="M259 385Q267 396 279.5 399.0Q292 402 322 402H328L369 401L409 374Q447 348 455 340Q469 324 475 324Q482 324 495 337Q526 366 564 374Q566 374 580.5 378.5Q595 383 612 383Q679 383 694 342Q696 336 701.0 325.0Q706 314 708.5 305.0Q711 296 711 285Q711 254 701 244Q692 235 688 223Q685 214 660 187Q645 171 582 101Q575 94 575 89Q575 85 561 73Q548 61 543 52Q538 41 515 41Q476 41 464 69Q456 86 451 86Q448 86 420 110Q379 146 360 157Q353 160 327.0 183.5Q301 207 293 211Q281 216 272 223Q265 229 252.0 250.0Q239 271 237 279Q236 283 231.0 295.5Q226 308 226 318Q226 352 242 366Q256 380 259 385ZM507 259Q507 256 500.0 252.0Q493 248 487 248Q461 248 422 285Q393 312 343 329Q326 334 322 334Q315 334 308.0 325.0Q301 316 301 308Q301 296 318.0 279.5Q335 263 361.5 244.0Q388 225 393 220Q408 206 442.5 187.0Q477 168 492 153Q498 147 502 147Q508 147 524 163Q541 180 546 177Q548 176 549.0 176.5Q550 177 548 179Q545 183 557 192Q570 200 593.0 223.0Q616 246 616 251Q616 255 619 255Q628 255 628 285Q628 313 593 313Q577 313 560 306Q544 299 525.5 282.5Q507 266 507 259ZM220 602Q218 602 212.0 613.5Q206 625 203 625Q198 625 191.5 648.0Q185 671 185 683Q185 694 190.0 710.0Q195 726 201 733Q210 744 270 768Q284 774 292 774Q298 774 327.0 765.0Q356 756 361.0 756.0Q366 756 377.0 747.0Q388 738 392 738Q397 738 417 716Q437 696 451 696Q459 696 465.0 703.0Q471 710 487.5 720.5Q504 731 514 734Q595 757 606 757Q623 757 634.0 754.5Q645 752 650.0 749.5Q655 747 664.5 740.0Q674 733 683 728Q702 717 708.5 707.5Q715 698 715 679Q711 637 707.0 626.5Q703 616 686 598Q663 573 659 573Q654 573 631.5 547.5Q609 522 605 512Q600 500 578.0 490.0Q556 480 548 464Q542 449 533 443Q526 438 528 428Q530 419 515 402Q505 391 500.5 389.0Q496 387 487 389Q472 393 454 413Q441 427 427.5 439.0Q414 451 405.0 457.5Q396 464 377.0 477.5Q358 491 346 500Q310 527 304 527Q290 527 272.5 540.5Q255 554 242 573Q223 602 220 602ZM362 667Q362 672 328.0 685.5Q294 699 287 699Q278 699 271 692Q267 688 265.0 682.0Q263 676 263.5 671.5Q264 667 267 667Q272 667 275 655Q279 639 297.0 618.0Q315 597 329 592Q342 588 365 573Q387 559 389 559Q394 559 396.0 553.0Q398 547 411 543Q425 539 451 520Q473 503 479 503Q486 503 493 516Q506 541 542 566Q601 607 601 617Q601 620 620 639Q638 657 638 669Q638 677 634.0 678.5Q630 680 609 679Q594 679 534 670Q516 666 516 662Q516 657 503 644Q484 625 474 601Q466 583 438 583Q428 583 422.0 585.5Q416 588 414.0 591.0Q412 594 409.0 601.5Q406 609 404 612Q399 624 399 630Q399 638 380 651Q362 664 362 667Z" transform="translate(942.50,958.33) scale(0.9583,-0.9583)" fill="#000000" />
</svg>
