<?xml version="1.0" encoding="UTF-8" standalone="no"?>
<!--
Representation of "telo wawa" in sitelen ilo pona
Generated by generate_sitelen_kalama_pona.py

Description:
  Representation of "telo wawa" in sitelen ilo pona.
  Sources: telo: https://commons.wikimedia.org/wiki/File:Sitelen_seli_kiwen_-_telo.svg; wawa: https://commons.wikimedia.org/wiki/File:Sitelen_seli_kiwen_-_wawa.svg

Categories:
  [[Category:Sitelen kalama pona]]
  [[Category:Toki Pona text containing telo wawa]]

Sources:
  telo: https://commons.wikimedia.org/wiki/File:Sitelen_seli_kiwen_-_telo.svg
  wawa: https://commons.wikimedia.org/wiki/File:Sitelen_seli_kiwen_-_wawa.svg
-->
<svg version="1.1" width="1805" height="1000"
     viewBox="0 0 1805 1000"
     xmlns="http://www.w3.org/2000/svg">
  <path d="M554 195Q544 195 534.5 194.0Q525 193 521.5 192.5Q518 192 513 191Q506 189 506 193Q506 198 496 198Q488 198 475.5 205.0Q463 212 450 215Q436 218 415.0 227.5Q394 237 394 241Q394 250 354.0 256.5Q314 263 302 263Q288 263 254.0 245.5Q220 228 220 221Q220 217 214 217Q211 217 202.0 210.0Q193 203 178 203Q156 203 152 214Q152 217 154 217Q156 218 154.0 219.0Q152 220 149.0 226.0Q146 232 146 238Q146 249 171.0 272.0Q196 295 224 308Q237 315 246.0 318.0Q255 321 275.0 324.0Q295 327 324 327Q341 327 347.5 325.5Q354 324 364.0 319.5Q374 315 392 311Q411 306 426.0 297.5Q441 289 449.5 282.0Q458 275 487.5 270.0Q517 265 566 265Q598 265 622.0 274.5Q646 284 655.0 292.0Q664 300 664 302Q667 311 670.5 311.0Q674 311 693.0 329.5Q712 348 732 348Q745 348 753.0 341.5Q761 335 762.5 330.5Q764 326 764 323Q764 302 740.5 267.5Q717 233 698 233Q689 233 685.5 232.0Q682 231 681.0 229.5Q680 228 674.5 224.0Q669 220 658 215Q640 206 632 197Q622 187 604 191Q579 195 554 195ZM170 424Q163 424 149.5 441.0Q136 458 136 473Q136 486 151.5 508.0Q167 530 178 534Q193 540 204 549Q221 563 254.5 572.5Q288 582 304 582Q326 582 373.5 560.0Q421 538 430 528Q436 522 444 522Q446 522 477.5 506.0Q509 490 536 490Q614 490 638 520Q644 528 657.0 534.0Q670 540 680 540Q690 540 690 534Q690 529 704.0 522.5Q718 516 718 512Q717 497 710.0 489.5Q703 482 696.5 480.0Q690 478 690 475Q690 470 682 470Q677 470 672.0 463.0Q667 456 658 454Q648 452 648.0 447.0Q648 442 642 442Q637 442 616.5 432.0Q596 422 557.5 422.0Q519 422 504.0 426.5Q489 431 482 431Q470 431 424.5 457.5Q379 484 374 484Q368 484 342.5 498.0Q317 512 302 512Q270 512 246.0 498.0Q222 484 211.0 468.0Q200 452 189.0 438.0Q178 424 170 424Z" transform="translate(0.00,958.33) scale(0.9583,-0.9583)" fill="#000000" />
  <path d="M442 37Q439 37 431.0 40.5Q423 44 415.0 44.0Q407 44 393.0 52.5Q379 61 373 61Q365 61 348.0 72.0Q331 83 331 88Q331 92 324.0 100.5Q317 109 315.0 121.0Q313 133 305.5 142.0Q298 151 298 154Q298 159 296.0 161.0Q294 163 292.0 164.0Q290 165 288.0 173.0Q286 181 286 198Q286 244 290.5 272.0Q295 300 300.5 310.0Q306 320 317 335Q336 362 336 367Q336 378 386.5 424.0Q437 470 466 470Q482 470 508 453Q530 439 545.0 419.5Q560 400 587 349Q619 289 619 259Q619 250 615.5 206.5Q612 163 608 162Q603 160 603 151Q603 145 598 140Q597 139 597.0 128.0Q597 117 538 72Q506 48 488 48Q474 48 460.0 42.5Q446 37 442 37ZM346 219Q346 212 350.5 196.5Q355 181 355 174Q355 170 380 143L406 115H443Q478 116 503.0 132.0Q528 148 528 152Q528 154 537.5 158.5Q547 163 547 173Q547 175 552.5 192.0Q558 209 558 236Q558 300 538 315Q527 323 511.0 353.5Q495 384 476 392Q457 399 452 399Q444 399 435.5 390.5Q427 382 391 335Q354 287 354 258Q354 245 350.0 234.5Q346 224 346 219ZM764 381Q764 380 765.0 377.0Q766 374 766.0 373.0Q766 372 764.0 368.5Q762 365 760.0 357.5Q758 350 758 337Q755 205 734 200Q725 198 725 193Q725 191 718 191Q669 191 669 223Q669 236 678 256Q692 284 697.0 340.5Q702 397 706 402Q708 405 712.0 430.0Q716 455 720 459Q725 465 732.5 509.0Q740 553 744.0 557.0Q748 561 748 571Q748 577 758.0 599.5Q768 622 770 643Q773 684 782.5 701.0Q792 718 813 718Q830 718 847.5 700.5Q865 683 865 673Q865 666 857 664Q850 662 836.0 635.0Q822 608 821 593Q820 584 799.5 513.0Q779 442 778 434Q776 417 772.5 405.0Q769 393 766.5 388.0Q764 383 764 381ZM35 711Q35 725 45.0 735.5Q55 746 67 746Q87 746 101.0 716.5Q115 687 115 673Q115 662 162.0 548.5Q209 435 209 428Q209 417 214 409L223 391Q226 385 231.0 345.0Q236 305 241 294Q245 286 247.0 269.0Q249 252 250.5 232.0Q252 212 252 208Q253 200 249.5 198.0Q246 196 227 196Q201 196 196 201Q192 205 188.5 235.5Q185 266 184 268Q183 269 175.0 314.5Q167 360 154.0 411.5Q141 463 127 480Q124 484 112.5 511.5Q101 539 101 541Q101 546 93.0 564.5Q85 583 85 587Q85 596 79.0 599.0Q73 602 73 606Q73 609 54.0 651.5Q35 694 35 711Z" transform="translate(942.50,958.33) scale(0.9583,-0.9583)" fill="#000000" />
</svg>
