<?xml version="1.0" encoding="UTF-8" standalone="no"?>
<!--
Representation of "tomo tawa sewi" in sitelen ilo pona
Generated by generate_sitelen_kalama_pona.py

Description:
  Representation of "tomo tawa sewi" in sitelen ilo pona.
  Sources: tomo-tawa: https://commons.wikimedia.org/wiki/File:Sitelen_seli_kiwen_-_tomo-tawa.svg; sewi: https://commons.wikimedia.org/wiki/File:Sitelen_seli_kiwen_-_sewi.svg

Categories:
  [[Category:Sitelen kalama pona]]
  [[Category:Toki Pona text containing tomo tawa sewi]]

Sources:
  tomo-tawa: https://commons.wikimedia.org/wiki/File:Sitelen_seli_kiwen_-_tomo-tawa.svg
  sewi: https://commons.wikimedia.org/wiki/File:Sitelen_seli_kiwen_-_sewi.svg
-->
<svg version="1.1" width="1805" height="1000"
     viewBox="0 0 1805 1000"
     xmlns="http://www.w3.org/2000/svg">
  <path d="M404 194Q404 184 401.0 178.5Q398 173 395.5 172.5Q393 172 388 172Q369 172 347.5 180.5Q326 189 310 191Q295 193 288.5 194.0Q282 195 268.5 199.0Q255 203 248.5 210.0Q242 217 242 226Q242 240 248.5 251.5Q255 263 268.5 283.0Q282 303 292 324Q301 344 306 344Q313 344 336.5 375.0Q360 406 368 425Q375 443 380.5 452.5Q386 462 401.0 471.0Q416 480 438 480Q464 480 464 470Q464 467 476.0 449.5Q488 432 488 425Q488 422 507.0 375.5Q526 329 526 321Q526 316 528.0 312.0Q530 308 535.0 301.0Q540 294 544 287L550 274L568 283Q585 292 588 297Q592 302 614 302Q625 302 630.5 301.0Q636 300 641.0 293.5Q646 287 646 275Q646 257 635.0 241.5Q624 226 608.5 216.0Q593 206 577.0 198.5Q561 191 550.5 187.5Q540 184 538 184Q520 184 506.0 200.0Q492 216 492 238Q492 254 474 295Q473 296 470.0 303.5Q467 311 463.5 320.0Q460 329 456 337Q437 389 428 389Q424 389 409.0 366.0Q394 343 394 338Q394 334 369.0 306.5Q344 279 344 268Q344 259 356 259Q376 259 390.0 239.5Q404 220 404 194ZM146 27Q129 27 117.5 34.5Q106 42 102.0 53.5Q98 65 97.0 71.5Q96 78 96 83Q96 88 98 92Q106 106 106 235Q106 270 102.5 288.0Q99 306 98 331Q98 358 91.0 393.5Q84 429 84 463Q84 474 99.5 494.5Q115 515 126 519Q136 523 136 526Q136 532 163.5 555.5Q191 579 208 587Q222 596 238 610Q241 613 259.5 629.5Q278 646 288 655Q318 682 318 687Q318 691 350.0 716.0Q382 741 384 748Q385 753 387.0 754.5Q389 756 396.0 759.5Q403 763 412 771Q427 784 432 784Q445 784 458.5 771.5Q472 759 487.5 738.0Q503 717 514 708Q543 681 554 670Q576 648 580 648Q582 648 606.5 628.0Q631 608 657.0 585.5Q683 563 688 557Q693 548 708.5 542.5Q724 537 726 532Q729 527 745.5 517.5Q762 508 763.5 501.0Q765 494 773.0 485.5Q781 477 788.5 463.5Q796 450 796 428Q796 428 795.0 419.5Q794 411 792.5 396.0Q791 381 789.5 361.0Q788 341 787.0 312.5Q786 284 786 255Q786 197 791.0 157.0Q796 117 801.0 101.5Q806 86 811.0 71.5Q816 57 816 45Q816 32 813.0 24.5Q810 17 803.0 14.0Q796 11 791.0 10.5Q786 10 774 10Q726 10 695.0 19.5Q664 29 648 31Q647 31 638.0 32.5Q629 34 614.0 35.5Q599 37 582.0 39.0Q565 41 544.5 43.0Q524 45 508 46Q456 48 444 51Q432 54 432 49Q432 41 368 37Q345 36 308.5 32.0Q272 28 260 28Q252 28 244.5 31.0Q237 34 216 34Q192 34 171.5 30.5Q151 27 146 27ZM596 554Q596 556 570.0 575.0Q544 594 544.0 596.5Q544 599 534.0 607.0Q524 615 504.5 631.5Q485 648 468 664Q442 691 432 691Q425 691 404.5 672.5Q384 654 384 648Q384 644 378 644Q374 644 357.0 630.0Q340 616 338 616Q334 616 334 611Q334 606 321.0 592.0Q308 578 302 578Q299 578 296.0 574.5Q293 571 286.0 563.5Q279 556 266 550Q249 541 237.5 531.0Q226 521 226 515Q226 511 211.0 498.0Q196 485 184 478Q178 475 178 469Q178 464 170.0 459.0Q162 454 162 444Q162 441 162 437Q168 410 168 405Q168 402 165.0 398.0Q162 394 162 371Q162 333 167.0 286.5Q172 240 172 237Q172 229 168.0 219.0Q164 209 164 186Q164 162 167.5 139.0Q171 116 176 112Q183 107 225.5 104.5Q268 102 308.0 100.0Q348 98 350 95Q352 91 368 91Q380 91 400.5 96.5Q421 102 482 102Q601 102 624 92Q635 87 684 83L720 80L726 99Q732 117 732 133Q732 135 728.0 153.5Q724 172 721.0 203.0Q718 234 718 267Q718 294 714 299Q710 304 710 307Q710 308 712.5 315.0Q715 322 717.5 340.0Q720 358 720 385Q720 410 716 413Q714 416 716.5 419.0Q719 422 723.5 427.0Q728 432 728 437Q728 445 723.0 448.5Q718 452 697.5 467.0Q677 482 652 506Q611 545 604 548Q596 550 596 554Z" transform="translate(0.00,958.33) scale(0.9583,-0.9583)" fill="#000000" />
  <path d="M550 540Q550 563 560.5 570.0Q571 577 591 577Q605 577 608.0 564.0Q611 551 611 492Q611 457 609.5 437.5Q608 418 606.5 414.0Q605 410 603.5 406.0Q602 402 602 395Q596 290 590 288Q588 287 588.5 283.0Q589 279 589.5 276.5Q590 274 587 273Q581 273 575 205Q574 196 556.5 165.0Q539 134 531 129Q525 125 510 113Q500 105 480 105Q413 105 374 161L366 173L354 159Q342 145 342 137Q342 124 317.0 113.0Q292 102 268 102Q248 102 248 108Q248 112 232 123L216 134L200 122Q183 109 169 109Q164 109 152.0 111.5Q140 114 131 115Q117 117 107.5 126.0Q98 135 94.5 143.0Q91 151 90 151H88Q82 151 82 157Q82 165 91.0 176.0Q100 187 108 187Q109 187 112.5 185.5Q116 184 123.5 182.0Q131 180 143 180Q161 180 166.5 182.0Q172 184 178 196Q187 210 187 220Q187 223 189.5 230.5Q192 238 202.0 248.0Q212 258 228 258Q240 258 247.0 248.5Q254 239 255.5 231.5Q257 224 257 217Q257 216 256.5 213.5Q256 211 256.0 210.0Q256 209 255.5 207.0Q255 205 255 204Q255 193 262.0 185.5Q269 178 276 177L283 175Q292 175 300.5 189.0Q309 203 313.0 217.0Q317 231 315 231Q312 231 318 235Q323 238 328.5 273.0Q334 308 334 332Q334 346 342.5 357.5Q351 369 358 369Q363 369 366.5 364.0Q370 359 370 355Q370 348 375.0 348.0Q380 348 380 353Q380 362 390 357Q394 354 396 349Q397 347 397 329Q397 314 396.5 300.5Q396 287 395.5 277.0Q395 267 394.5 259.0Q394 251 393.5 246.0Q393 241 392.5 237.5Q392 234 391.5 232.0Q391 230 391 230Q391 227 416 195Q422 188 437.5 183.0Q453 178 463.0 177.0Q473 176 476 176Q488 176 499.5 186.5Q511 197 513 209Q515 219 519.0 228.5Q523 238 524 249Q524 251 531.5 279.0Q539 307 546.0 353.5Q553 400 553 448Q553 494 548 494Q545 494 545 495Q545 495 546.5 498.0Q548 501 549.0 507.0Q550 513 550 521ZM763 739Q795 739 795 690Q795 690 794.5 679.5Q794 669 794.0 652.5Q794 636 793.5 617.0Q793 598 792.5 578.5Q792 559 792 546Q793 519 793 513Q793 465 790.5 430.0Q788 395 788 387V294Q788 261 795.0 201.0Q802 141 802 131Q802 120 803.5 116.0Q805 112 811 111Q820 108 817 100Q814 94 813.0 76.5Q812 59 807.5 47.5Q803 36 791 36Q783 36 771 42Q759 48 755.0 53.5Q751 59 749 74Q735 162 735 278Q735 298 737.5 388.5Q740 479 742 483Q744 487 741.0 502.0Q738 517 740 519Q741 520 741 545Q741 572 740.5 595.0Q740 618 738.5 633.5Q737 649 736.0 661.5Q735 674 733.5 681.5Q732 689 730.5 694.0Q729 699 728.5 701.5Q728 704 728 704Q728 717 739.0 728.0Q750 739 763 739Z" transform="translate(942.50,958.33) scale(0.9583,-0.9583)" fill="#000000" />
</svg>
