<?xml version="1.0" encoding="UTF-8" standalone="no"?>
<!--
Representation of "KTPA" in sitelen kalama pona
Generated by generate_sitelen_kalama_pona.py

Description:
  Representation of "KTPA" in sitelen kalama pona.
  Sources: pa: https://commons.wikimedia.org/wiki/File:Sitelen_kalama_pona_-_pa.svg

Categories:
  [[Category:Toki Pona text containing sound symbol K]]
  [[Category:Toki Pona text containing sound symbol T]]
  [[Category:Toki Pona text containing sound symbol Pa]]

Sources:
  pa: https://commons.wikimedia.org/wiki/File:Sitelen_kalama_pona_-_pa.svg
-->
<svg version="1.1" width="2169" height="1000"
     viewBox="0 0 2169 1000"
     xmlns="http://www.w3.org/2000/svg">
  <path d="M 24.637998,12.488337 H 20.72216 q -1.48166,0 -2.54,-1.058333 -1.05833,-1.058333 -1.05833,-2.54 V 3.598338 q 0,-1.481667 1.05833,-2.54 Q 19.2405,4e-6 20.72216,4e-6 h 3.915838 V 0.846671 H 20.72216 q -1.13241,0 -1.94733,0.814917 -0.80433,0.804333 -0.80433,1.93675 v 5.291666 q 0,1.132417 0.80433,1.93675 0.81492,0.814917 1.94733,0.814917 h 3.915838 z" transform="translate(-1371.19,0.00) scale(80.0747,80.0747)" fill="#000000" />
  <path d="M 75.014662,0.846671 V 4e-6 h 13.123333 v 0.846667 z m 0,11.641666 v -0.846666 h 13.123333 v 0.846666 z" transform="translate(-5405.08,0.00) scale(80.0747,80.0747)" fill="#000000" />
  <path d="m 87.714667,4e-6 h 2.8575 q 1.481666,0 2.54,1.058334 1.058333,1.058333 1.058333,2.54 v 5.291666 q 0,1.481667 -1.058333,2.54 -1.058334,1.058333 -2.54,1.058333 h -2.8575 v -0.846666 h 2.8575 q 1.132416,0 1.93675,-0.814917 0.814916,-0.804333 0.814916,-1.93675 V 3.598338 q 0,-1.132417 -0.814916,-1.93675 -0.804334,-0.814917 -1.93675,-0.814917 h -2.8575 z" transform="translate(-5371.18,0.00) scale(80.0747,80.0747)" fill="#000000" />
  <path d="M 641.19,97.96 C 641.19,97.96 690.82,103.99 690.81,104.04 C 664.81,318.04 664.81,318.04 664.81,318.04 C 664.81,318.04 615.18,312.01 615.19,311.96 C 641.19,97.96 641.19,97.96 641.19,97.96  Z M 411.00,461.00 C 411.00,464.00 409.68,472.65 409.68,486.21 C 409.68,544.12 434.55,594.35 534.11,615.43 C 580.87,625.34 631.08,626.79 694.49,628.01 C 695.13,628.02 695.13,628.02 865.77,640.07 L 862.25,689.93 C 692.86,677.98 692.86,677.98 687.79,677.88 C 592.87,676.08 472.28,673.73 405.87,607.31 C 376.65,578.09 359.77,537.33 359.77,484.99 C 359.77,476.93 360.17,468.60 360.98,459.99 C 360.93,456.67 360.91,453.35 360.91,450.04 C 360.91,369.17 376.08,290.09 390.64,213.35 C 397.44,177.48 404.15,142.11 409.27,107.33 C 409.27,107.33 458.73,114.62 458.73,114.67 C 453.40,150.83 446.55,186.86 439.75,222.72 C 425.16,299.60 410.90,375.66 410.90,450.25 C 410.90,456.42 411.00,460.35 411.00,461.00  Z M 154.85,624.93 C 154.85,625.77 155.74,670.06 155.74,670.52 C 155.74,682.89 155.15,695.78 153.00,709.10 L 153.00,741.00 L 103.00,741.00 L 103.00,707.00 C 103.00,701.32 105.69,695.82 105.69,669.82 C 105.69,669.12 104.82,624.91 104.82,624.46 C 104.82,613.09 105.30,601.26 107.02,589.05 C 107.14,577.90 107.19,566.69 107.19,555.43 C 107.19,542.39 107.12,529.27 107.01,516.10 C 106.11,504.49 105.66,492.98 105.66,481.57 C 105.66,273.32 253.88,102.94 467.33,80.15 C 468.60,80.01 468.60,80.01 899.88,78.01 L 900.12,127.99 L 471.42,129.99 C 283.90,150.61 155.65,299.39 155.65,481.49 C 155.65,500.64 156.97,511.82 156.99,514.79 C 157.11,528.36 157.18,541.91 157.18,555.43 C 157.18,586.69 156.98,593.01 156.72,594.74 C 155.29,604.25 154.85,614.31 154.85,624.93 Z" transform="translate(727.12,100.00) scale(0.8000,0.8000)" fill="#000000" />
</svg>
