<?xml version="1.0" encoding="UTF-8" standalone="no"?>
<!--
Representation of "ijo noka nanpa 1 en ijo noka nanpa 8 li wan" in sitelen ilo pona
Generated by generate_sitelen_kalama_pona.py

Description:
  Representation of "ijo noka nanpa 1 en ijo noka nanpa 8 li wan" in sitelen ilo pona.
  Sources: ijo-noka: https://commons.wikimedia.org/wiki/File:Sitelen_seli_kiwen_-_ijo-noka.svg; nanpa: https://commons.wikimedia.org/wiki/File:Sitelen_seli_kiwen_-_nanpa.svg; en: https://commons.wikimedia.org/wiki/File:Sitelen_seli_kiwen_-_en.svg; ijo-noka: https://commons.wikimedia.org/wiki/File:Sitelen_seli_kiwen_-_ijo-noka.svg; nanpa: https://commons.wikimedia.org/wiki/File:Sitelen_seli_kiwen_-_nanpa.svg; li: https://commons.wikimedia.org/wiki/File:Sitelen_seli_kiwen_-_li.svg; wan: https://commons.wikimedia.org/wiki/File:Sitelen_seli_kiwen_-_wan.svg

Categories:
  [[Category:Sitelen kalama pona]]
  [[Category:Toki Pona text containing ijo noka nanpa 1 en ijo noka nanpa 8 li wan]]

Sources:
  ijo-noka: https://commons.wikimedia.org/wiki/File:Sitelen_seli_kiwen_-_ijo-noka.svg
  nanpa: https://commons.wikimedia.org/wiki/File:Sitelen_seli_kiwen_-_nanpa.svg
  en: https://commons.wikimedia.org/wiki/File:Sitelen_seli_kiwen_-_en.svg
  ijo-noka: https://commons.wikimedia.org/wiki/File:Sitelen_seli_kiwen_-_ijo-noka.svg
  nanpa: https://commons.wikimedia.org/wiki/File:Sitelen_seli_kiwen_-_nanpa.svg
  li: https://commons.wikimedia.org/wiki/File:Sitelen_seli_kiwen_-_li.svg
  wan: https://commons.wikimedia.org/wiki/File:Sitelen_seli_kiwen_-_wan.svg
-->
<svg version="1.1" width="6517" height="1000"
     viewBox="0 0 6517 1000"
     xmlns="http://www.w3.org/2000/svg">
  <path d="M425 536Q425 547 426.0 553.0Q427 559 434.0 566.0Q441 573 455 573Q471 573 478.0 561.5Q485 550 485 518Q485 504 483.5 485.0Q482 466 482 457Q482 445 484.5 442.0Q487 439 487 433Q487 425 499 425Q532 425 553 410Q557 408 564.5 403.0Q572 398 574 397Q591 388 591 349Q591 293 552 271Q535 261 523 253Q509 243 425 243Q330 243 323 256Q320 260 322 292Q327 353 332.0 362.0Q337 371 337 422Q337 452 335.0 473.0Q333 494 331.0 503.0Q329 512 329 512Q329 515 331 516Q334 519 340 529Q346 538 364 538Q378 538 388 537Q402 535 402 484Q402 441 404.0 439.0Q406 437 400.0 422.5Q394 408 396 405Q397 404 397 399Q397 394 395.0 374.5Q393 355 393 345Q393 334 395 326L398 311L445 313Q479 315 492.0 318.5Q505 322 512 333Q516 339 523 339Q537 339 524 349Q523 350 520 352Q514 356 507 356Q501 356 488.0 352.0Q475 348 468 348Q454 348 438.0 358.5Q422 369 422 384Q422 388 423 389Q426 390 426 437Q426 446 426.0 459.5Q426 473 426.0 486.0Q426 499 425.5 510.0Q425 521 425 528ZM750 263Q750 257 740.5 247.0Q731 237 731 233Q731 227 722.5 217.5Q714 208 709 208Q703 208 703 204Q703 202 693.5 195.5Q684 189 669.5 178.5Q655 168 646 160Q631 147 628 147Q626 147 624.0 141.5Q622 136 620.0 131.5Q618 127 616 129Q615 130 614 130Q607 130 587.5 120.5Q568 111 557 103Q547 96 522 96Q508 96 473.5 97.0Q439 98 385.0 102.5Q331 107 316 115Q307 120 294.0 123.5Q281 127 274.0 129.5Q267 132 267 136Q267 141 253.0 147.5Q239 154 217.0 166.5Q195 179 181 197Q171 210 149 232Q136 244 136 258Q136 267 131.5 277.0Q127 287 125 307Q124 322 117.5 344.5Q111 367 111 409Q111 511 127 527Q136 536 136 546Q136 560 142.5 566.5Q149 573 163.0 581.5Q177 590 187 603Q201 621 228.5 636.0Q256 651 277.0 660.5Q298 670 299 679Q302 702 356.5 711.5Q411 721 466 721Q522 721 560.5 711.0Q599 701 617.0 691.0Q635 681 641 681Q644 681 678.0 653.0Q712 625 714 625Q717 625 717 619Q717 615 737.0 587.0Q757 559 760 549Q764 536 769 536Q773 536 773 524Q773 522 781.0 504.5Q789 487 789 443Q789 406 783 377Q778 358 776 342Q773 325 766.5 307.0Q760 289 755.0 277.0Q750 265 750 263ZM546 651Q497 662 464 662Q380 662 376 648Q374 641 342.5 629.0Q311 617 308 609Q306 603 283 599Q247 593 225.5 568.5Q204 544 196 541Q187 537 181.0 526.5Q175 516 170.5 502.0Q166 488 164 484Q157 471 157 412Q157 330 167 330Q173 330 173 315Q173 305 182.5 286.5Q192 268 198 265Q201 264 201 257Q201 251 216.5 239.0Q232 227 240 227Q247 227 253 215Q258 204 281.0 194.0Q304 184 328.0 176.5Q352 169 354 167Q365 161 441 158L518 155L553 171Q582 184 596.5 193.5Q611 203 612.5 207.5Q614 212 621.0 219.5Q628 227 643 236Q687 261 704 309Q717 342 722 351Q733 372 733 402Q733 456 726.0 483.0Q719 510 700 537Q697 541 692.5 547.5Q688 554 686.0 557.0Q684 560 684 561Q684 565 670.5 579.0Q657 593 651 595Q642 597 642.0 604.0Q642 611 635.0 611.0Q628 611 626.5 613.5Q625 616 624.5 620.5Q624 625 604.5 633.5Q585 642 546 651Z" transform="translate(0.00,958.33) scale(0.9583,-0.9583)" fill="#000000" />
  <path d="M239 654Q239 656 240.5 658.5Q242 661 242 672Q242 678 255.0 682.5Q268 687 282 687Q300 687 305.5 678.5Q311 670 313 634Q314 621 317.0 591.0Q320 561 322 536L325 512V495L352 491Q368 489 396.0 488.0Q424 487 443.5 486.0Q463 485 468 482Q475 479 485.0 483.5Q495 488 501 486Q502 486 502 486L504 485Q507 485 507 494Q507 552 498 570Q494 578 490.5 606.5Q487 635 486.0 655.0Q485 675 485 680Q485 727 516 727Q517 727 519.0 726.5Q521 726 522 726Q536 724 538.5 723.0Q541 722 541 717Q541 710 543 710H544Q552 710 553 662Q555 614 560 559Q564 518 566.0 508.0Q568 498 575 494Q589 487 650 487Q674 487 703.0 493.5Q732 500 753 500Q802 500 802 451Q802 430 797.0 424.5Q792 419 776 419Q752 419 730.0 425.0Q708 431 695 431Q686 431 647.5 427.5Q609 424 586 424L564 423V371Q564 319 568 311Q571 307 604.0 303.0Q637 299 664 299Q678 299 686.5 301.5Q695 304 713 304Q719 304 727.5 303.5Q736 303 741 303Q763 303 776.5 307.5Q790 312 800 312Q802 312 808.0 311.5Q814 311 825.5 308.5Q837 306 846.5 301.5Q856 297 863.5 288.5Q871 280 871 269Q871 231 828 231Q824 231 794.0 234.0Q764 237 727 237Q582 237 577 230Q574 224 574 202Q574 172 580.5 138.5Q587 105 587 94Q587 76 578.5 69.5Q570 63 551 63Q509 63 509 89V90Q509 92 509.5 95.0Q510 98 510.5 103.0Q511 108 511.5 115.5Q512 123 512.5 132.0Q513 141 513.0 154.0Q513 167 513 181Q513 233 511 235Q507 239 393 242L346 243L348 199Q349 170 351.0 161.0Q353 152 361 144Q372 133 367 124Q363 117 363 104Q363 77 319 77Q292 77 292 80Q290 94 290 102Q290 115 292.5 129.5Q295 144 295 152Q295 164 289.5 194.0Q284 224 284 233Q284 240 280.5 241.5Q277 243 259 242Q247 241 210 241Q104 241 66.5 248.0Q29 255 29 277Q29 282 32 290Q41 311 55.0 316.0Q69 321 111.0 321.0Q153 321 184.5 315.0Q216 309 251 309Q280 309 282.0 313.0Q284 317 284 337Q284 345 283.0 358.0Q282 371 280.5 383.5Q279 396 277.5 408.0Q276 420 275 428L274 435Q274 440 158 445Q51 449 39 456Q30 461 30 482Q30 490 32.5 494.5Q35 499 52.5 505.0Q70 511 103 511Q150 511 216 506L274 502L271 520Q269 530 264.5 542.5Q260 555 258 576Q255 600 250.5 617.5Q246 635 242.5 643.0Q239 651 239 654ZM357 430Q333 430 333 417Q333 411 336.0 388.5Q339 366 339 355Q339 336 347 315Q353 299 356.0 296.0Q359 293 371 294Q381 294 390.5 297.5Q400 301 409 301Q416 301 436.5 298.0Q457 295 461 296Q465 296 481.5 298.0Q498 300 502 301Q507 301 507 319Q507 328 505.5 351.0Q504 374 503 393L502 412Q501 416 471.5 422.0Q442 428 425 428Q399 426 395 426Q385 426 374.0 428.0Q363 430 357 430Z" transform="translate(942.50,958.33) scale(0.9583,-0.9583)" fill="#000000" />
  <path d="M574 374Q539 374 520.5 373.5Q502 373 493.5 371.0Q485 369 483.5 367.0Q482 365 482 360Q482 356 485.5 328.5Q489 301 489 279Q489 262 487.0 251.0Q485 240 483.5 235.5Q482 231 482 230Q482 228 485 224Q488 222 487.5 219.5Q487 217 485.5 216.0Q484 215 483.0 208.0Q482 201 483 189Q483 188 483.5 185.0Q484 182 484 180Q484 161 475.0 154.0Q466 147 443 147Q431 147 426.0 148.0Q421 149 416.5 155.0Q412 161 412 174Q412 180 419.0 218.0Q426 256 426 295Q426 307 424 345L422 372L372 375Q362 375 328.5 376.0Q295 377 283 378Q249 379 224.0 384.0Q199 389 194 396Q185 410 193 430Q195 436 206.5 443.0Q218 450 224 450Q224 450 227.0 449.5Q230 449 239.5 447.5Q249 446 263 445Q263 445 276.0 443.5Q289 442 307.5 440.0Q326 438 345.0 436.0Q364 434 380.0 432.5Q396 431 401 431L422 430V503Q423 576 424.5 589.0Q426 602 435 613Q445 625 461 625Q467 625 473.5 623.0Q480 621 487.0 612.0Q494 603 494 589Q494 563 485.0 523.0Q476 483 476 465Q476 441 482.0 437.0Q488 433 521 433Q553 433 580.0 433.5Q607 434 623.0 435.0Q639 436 649.5 437.5Q660 439 665.5 439.5Q671 440 671 440Q683 440 696.5 427.0Q710 414 710 400Q710 387 697.5 376.5Q685 366 673 366Q668 366 666 368Q661 374 574 374Z" transform="translate(1885.00,958.33) scale(0.9583,-0.9583)" fill="#000000" />
  <path d="M425 536Q425 547 426.0 553.0Q427 559 434.0 566.0Q441 573 455 573Q471 573 478.0 561.5Q485 550 485 518Q485 504 483.5 485.0Q482 466 482 457Q482 445 484.5 442.0Q487 439 487 433Q487 425 499 425Q532 425 553 410Q557 408 564.5 403.0Q572 398 574 397Q591 388 591 349Q591 293 552 271Q535 261 523 253Q509 243 425 243Q330 243 323 256Q320 260 322 292Q327 353 332.0 362.0Q337 371 337 422Q337 452 335.0 473.0Q333 494 331.0 503.0Q329 512 329 512Q329 515 331 516Q334 519 340 529Q346 538 364 538Q378 538 388 537Q402 535 402 484Q402 441 404.0 439.0Q406 437 400.0 422.5Q394 408 396 405Q397 404 397 399Q397 394 395.0 374.5Q393 355 393 345Q393 334 395 326L398 311L445 313Q479 315 492.0 318.5Q505 322 512 333Q516 339 523 339Q537 339 524 349Q523 350 520 352Q514 356 507 356Q501 356 488.0 352.0Q475 348 468 348Q454 348 438.0 358.5Q422 369 422 384Q422 388 423 389Q426 390 426 437Q426 446 426.0 459.5Q426 473 426.0 486.0Q426 499 425.5 510.0Q425 521 425 528ZM750 263Q750 257 740.5 247.0Q731 237 731 233Q731 227 722.5 217.5Q714 208 709 208Q703 208 703 204Q703 202 693.5 195.5Q684 189 669.5 178.5Q655 168 646 160Q631 147 628 147Q626 147 624.0 141.5Q622 136 620.0 131.5Q618 127 616 129Q615 130 614 130Q607 130 587.5 120.5Q568 111 557 103Q547 96 522 96Q508 96 473.5 97.0Q439 98 385.0 102.5Q331 107 316 115Q307 120 294.0 123.5Q281 127 274.0 129.5Q267 132 267 136Q267 141 253.0 147.5Q239 154 217.0 166.5Q195 179 181 197Q171 210 149 232Q136 244 136 258Q136 267 131.5 277.0Q127 287 125 307Q124 322 117.5 344.5Q111 367 111 409Q111 511 127 527Q136 536 136 546Q136 560 142.5 566.5Q149 573 163.0 581.5Q177 590 187 603Q201 621 228.5 636.0Q256 651 277.0 660.5Q298 670 299 679Q302 702 356.5 711.5Q411 721 466 721Q522 721 560.5 711.0Q599 701 617.0 691.0Q635 681 641 681Q644 681 678.0 653.0Q712 625 714 625Q717 625 717 619Q717 615 737.0 587.0Q757 559 760 549Q764 536 769 536Q773 536 773 524Q773 522 781.0 504.5Q789 487 789 443Q789 406 783 377Q778 358 776 342Q773 325 766.5 307.0Q760 289 755.0 277.0Q750 265 750 263ZM546 651Q497 662 464 662Q380 662 376 648Q374 641 342.5 629.0Q311 617 308 609Q306 603 283 599Q247 593 225.5 568.5Q204 544 196 541Q187 537 181.0 526.5Q175 516 170.5 502.0Q166 488 164 484Q157 471 157 412Q157 330 167 330Q173 330 173 315Q173 305 182.5 286.5Q192 268 198 265Q201 264 201 257Q201 251 216.5 239.0Q232 227 240 227Q247 227 253 215Q258 204 281.0 194.0Q304 184 328.0 176.5Q352 169 354 167Q365 161 441 158L518 155L553 171Q582 184 596.5 193.5Q611 203 612.5 207.5Q614 212 621.0 219.5Q628 227 643 236Q687 261 704 309Q717 342 722 351Q733 372 733 402Q733 456 726.0 483.0Q719 510 700 537Q697 541 692.5 547.5Q688 554 686.0 557.0Q684 560 684 561Q684 565 670.5 579.0Q657 593 651 595Q642 597 642.0 604.0Q642 611 635.0 611.0Q628 611 626.5 613.5Q625 616 624.5 620.5Q624 625 604.5 633.5Q585 642 546 651Z" transform="translate(2827.50,958.33) scale(0.9583,-0.9583)" fill="#000000" />
  <path d="M239 654Q239 656 240.5 658.5Q242 661 242 672Q242 678 255.0 682.5Q268 687 282 687Q300 687 305.5 678.5Q311 670 313 634Q314 621 317.0 591.0Q320 561 322 536L325 512V495L352 491Q368 489 396.0 488.0Q424 487 443.5 486.0Q463 485 468 482Q475 479 485.0 483.5Q495 488 501 486Q502 486 502 486L504 485Q507 485 507 494Q507 552 498 570Q494 578 490.5 606.5Q487 635 486.0 655.0Q485 675 485 680Q485 727 516 727Q517 727 519.0 726.5Q521 726 522 726Q536 724 538.5 723.0Q541 722 541 717Q541 710 543 710H544Q552 710 553 662Q555 614 560 559Q564 518 566.0 508.0Q568 498 575 494Q589 487 650 487Q674 487 703.0 493.5Q732 500 753 500Q802 500 802 451Q802 430 797.0 424.5Q792 419 776 419Q752 419 730.0 425.0Q708 431 695 431Q686 431 647.5 427.5Q609 424 586 424L564 423V371Q564 319 568 311Q571 307 604.0 303.0Q637 299 664 299Q678 299 686.5 301.5Q695 304 713 304Q719 304 727.5 303.5Q736 303 741 303Q763 303 776.5 307.5Q790 312 800 312Q802 312 808.0 311.5Q814 311 825.5 308.5Q837 306 846.5 301.5Q856 297 863.5 288.5Q871 280 871 269Q871 231 828 231Q824 231 794.0 234.0Q764 237 727 237Q582 237 577 230Q574 224 574 202Q574 172 580.5 138.5Q587 105 587 94Q587 76 578.5 69.5Q570 63 551 63Q509 63 509 89V90Q509 92 509.5 95.0Q510 98 510.5 103.0Q511 108 511.5 115.5Q512 123 512.5 132.0Q513 141 513.0 154.0Q513 167 513 181Q513 233 511 235Q507 239 393 242L346 243L348 199Q349 170 351.0 161.0Q353 152 361 144Q372 133 367 124Q363 117 363 104Q363 77 319 77Q292 77 292 80Q290 94 290 102Q290 115 292.5 129.5Q295 144 295 152Q295 164 289.5 194.0Q284 224 284 233Q284 240 280.5 241.5Q277 243 259 242Q247 241 210 241Q104 241 66.5 248.0Q29 255 29 277Q29 282 32 290Q41 311 55.0 316.0Q69 321 111.0 321.0Q153 321 184.5 315.0Q216 309 251 309Q280 309 282.0 313.0Q284 317 284 337Q284 345 283.0 358.0Q282 371 280.5 383.5Q279 396 277.5 408.0Q276 420 275 428L274 435Q274 440 158 445Q51 449 39 456Q30 461 30 482Q30 490 32.5 494.5Q35 499 52.5 505.0Q70 511 103 511Q150 511 216 506L274 502L271 520Q269 530 264.5 542.5Q260 555 258 576Q255 600 250.5 617.5Q246 635 242.5 643.0Q239 651 239 654ZM357 430Q333 430 333 417Q333 411 336.0 388.5Q339 366 339 355Q339 336 347 315Q353 299 356.0 296.0Q359 293 371 294Q381 294 390.5 297.5Q400 301 409 301Q416 301 436.5 298.0Q457 295 461 296Q465 296 481.5 298.0Q498 300 502 301Q507 301 507 319Q507 328 505.5 351.0Q504 374 503 393L502 412Q501 416 471.5 422.0Q442 428 425 428Q399 426 395 426Q385 426 374.0 428.0Q363 430 357 430Z" transform="translate(3770.00,958.33) scale(0.9583,-0.9583)" fill="#000000" />
  <path d="M281 756Q295 756 318.5 734.0Q342 712 359.0 691.0Q376 670 376 668Q376 665 384.0 657.0Q392 649 404.0 636.5Q416 624 423 615Q435 600 479.0 553.0Q523 506 531 501Q539 496 539 492Q539 488 585.5 446.0Q632 404 641 399Q647 396 649.0 391.5Q651 387 649 375Q648 360 638.0 348.0Q628 336 619.0 329.0Q610 322 610 317Q610 314 580.5 291.5Q551 269 549 269Q544 269 544.0 263.0Q544 257 533.5 246.5Q523 236 518 236Q512 236 512 231Q512 227 505 227Q501 227 495.0 216.5Q489 206 478 202Q465 197 465 191Q465 184 461 184Q457 184 441.5 169.0Q426 154 406.0 133.0Q386 112 378 105Q345 76 345 62Q345 50 339.0 42.0Q333 34 324.0 31.5Q315 29 309.5 28.0Q304 27 300 27Q286 27 273.0 35.5Q260 44 257 45Q250 48 250 58Q250 70 259.5 84.5Q269 99 282 106Q295 112 314.5 133.5Q334 155 340 160Q362 179 385.0 203.0Q408 227 408 230Q408 233 419.5 242.5Q431 252 451.0 268.5Q471 285 485 299Q537 352 550.0 366.0Q563 380 563 385Q563 387 549.5 399.5Q536 412 520.0 425.5Q504 439 502 441Q465 481 465 485Q465 488 418.0 535.0Q371 582 371 586Q371 589 354.5 600.5Q338 612 338 619Q338 626 294.5 666.5Q251 707 251 718Q251 730 260.0 743.0Q269 756 281 756Z" transform="translate(4712.50,958.33) scale(0.9583,-0.9583)" fill="#000000" />
  <path d="M338 528Q338 540 347.5 551.0Q357 562 365.5 567.5Q374 573 377 573Q380 573 381.5 574.0Q383 575 386.0 578.5Q389 582 392.0 586.5Q395 591 402.5 599.5Q410 608 419 618Q452 652 467.0 674.5Q482 697 485.0 705.5Q488 714 495 718Q505 723 512 723Q531 723 539 705Q545 691 545 586Q545 533 542.0 486.0Q539 439 539 412Q539 366 544.0 312.5Q549 259 554.0 227.5Q559 196 560 193Q564 184 558 184Q555 184 554.5 178.5Q554 173 554.0 165.0Q554 157 552 153Q551 152 551 147Q551 145 553.5 126.5Q556 108 556 90Q556 76 549.5 68.0Q543 60 538.5 59.0Q534 58 530 58Q520 58 505.5 69.5Q491 81 488 82Q485 83 483.5 133.0Q482 183 480.5 235.5Q479 288 475 294Q473 297 473 305Q473 310 476.0 326.5Q479 343 479 355Q479 360 478.0 368.0Q477 376 476.5 379.5Q476 383 477 387Q479 391 479 507Q479 556 478.5 564.5Q478 573 472 573Q462 573 446.0 553.5Q430 534 413.5 514.5Q397 495 385 495Q370 495 354.0 503.0Q338 511 338 528Z" transform="translate(5655.00,958.33) scale(0.9583,-0.9583)" fill="#000000" />
</svg>
