<?xml version="1.0" encoding="UTF-8" standalone="no"?>
<!--
Representation of "tenpo pini pi ma Tona" in sitelen ilo pona
Generated by generate_sitelen_kalama_pona.py

Description:
  Representation of "tenpo pini pi ma Tona" in sitelen ilo pona.
  Sources: tenpo: https://commons.wikimedia.org/wiki/File:Sitelen_seli_kiwen_-_tenpo.svg; pini: https://commons.wikimedia.org/wiki/File:Sitelen_seli_kiwen_-_pini.svg; pi: https://commons.wikimedia.org/wiki/File:Sitelen_seli_kiwen_-_pi.svg; ma: https://commons.wikimedia.org/wiki/File:Sitelen_seli_kiwen_-_ma.svg; to: https://commons.wikimedia.org/wiki/File:Sitelen_kalama_pona_-_to.svg; na: https://commons.wikimedia.org/wiki/File:Sitelen_kalama_pona_-_na.svg

Categories:
  [[Category:Sitelen kalama pona]]
  [[Category:Toki Pona text containing tenpo pini pi ma]]
  [[Category:Toki Pona text containing sound symbol To]]
  [[Category:Toki Pona text containing sound symbol Na]]

Sources:
  tenpo: https://commons.wikimedia.org/wiki/File:Sitelen_seli_kiwen_-_tenpo.svg
  pini: https://commons.wikimedia.org/wiki/File:Sitelen_seli_kiwen_-_pini.svg
  pi: https://commons.wikimedia.org/wiki/File:Sitelen_seli_kiwen_-_pi.svg
  ma: https://commons.wikimedia.org/wiki/File:Sitelen_seli_kiwen_-_ma.svg
  to: https://commons.wikimedia.org/wiki/File:Sitelen_kalama_pona_-_to.svg
  na: https://commons.wikimedia.org/wiki/File:Sitelen_kalama_pona_-_na.svg
-->
<svg version="1.1" width="6990" height="1000"
     viewBox="0 0 6990 1000"
     xmlns="http://www.w3.org/2000/svg">
  <path d="M376 453Q376 473 372.0 493.5Q368 514 368 521Q368 531 376.0 540.0Q384 549 394 549Q399 549 406.5 543.0Q414 537 422 535Q428 534 430.0 526.0Q432 518 436 487Q438 459 438 448Q438 430 436.0 416.0Q434 402 434 397Q434 381 442.5 376.5Q451 372 478 372Q508 372 547.0 377.5Q586 383 594 383Q603 383 612.5 373.0Q622 363 622 352Q622 345 619.5 338.0Q617 331 605.5 322.5Q594 314 574 313Q565 313 529.5 307.5Q494 302 448 302Q404 302 394.5 303.5Q385 305 378 313L368 324L374 392Q376 432 376 453ZM532 74H528Q525 74 513.5 71.0Q502 68 480.0 65.5Q458 63 430 63Q400 63 381.0 67.5Q362 72 351.0 77.5Q340 83 334 84Q323 85 307.0 90.0Q291 95 276.0 101.5Q261 108 248.0 114.0Q235 120 227.0 124.0Q219 128 218 128Q213 128 187.5 152.0Q162 176 162 182Q162 183 147.5 201.0Q133 219 118.5 251.0Q104 283 104 317Q104 339 112.0 373.5Q120 408 120 417Q120 447 124.5 464.5Q129 482 142 505Q162 536 162 540Q162 543 183.0 567.0Q204 591 204.0 594.0Q204 597 221.0 613.5Q238 630 238 634Q238 639 242 639Q246 639 255.0 646.0Q264 653 276.5 663.5Q289 674 298 679Q307 684 324.5 695.0Q342 706 356.0 713.5Q370 721 378 723Q385 725 422 725Q478 725 504.0 720.0Q530 715 534 715Q546 715 580.0 699.5Q614 684 640 678Q649 676 659.5 668.5Q670 661 678 658Q687 655 710.5 628.5Q734 602 734 595Q734 592 748.0 570.5Q762 549 762 544Q762 543 766.0 533.5Q770 524 775.5 506.0Q781 488 784 468Q785 453 788 446Q794 436 795.0 422.5Q796 409 796 339Q796 337 790.5 319.0Q785 301 784 291Q784 278 780 278Q778 278 774.0 261.5Q770 245 766 243Q764 242 758.0 229.0Q752 216 740.5 198.0Q729 180 716 168Q694 148 688 141Q681 133 676 133Q674 133 653.5 120.0Q633 107 626 106Q615 104 577.0 89.0Q539 74 532 74ZM442 131Q445 131 461.0 132.0Q477 133 501.0 135.5Q525 138 542.5 142.5Q560 147 560 154Q560 159 570.5 160.0Q581 161 598.5 165.0Q616 169 628 180Q644 194 648 194Q656 194 670.5 210.0Q685 226 697.5 242.5Q710 259 710 259Q716 259 726.0 296.5Q736 334 736 352Q736 355 732.5 375.5Q729 396 728 424Q726 459 713.5 494.0Q701 529 690.0 546.5Q679 564 678 564Q674 564 674 571Q674 578 655.5 594.5Q637 611 630 611Q622 611 622 616Q622 620 614 620Q607 620 604 627Q596 641 542.5 653.5Q489 666 448 666Q424 666 388.5 658.5Q353 651 340 636Q333 629 313.0 617.5Q293 606 282 593Q258 567 250 559Q232 544 232 534Q232 528 213.0 509.5Q194 491 194 487Q194 485 187.0 467.0Q180 449 178 430Q177 411 170.5 371.5Q164 332 164 323Q164 316 168.5 298.5Q173 281 193.0 245.5Q213 210 246 185Q282 156 290 156Q293 156 342.5 143.5Q392 131 442 131Z" transform="translate(0.00,958.33) scale(0.9583,-0.9583)" fill="#000000" />
  <path d="M638 747Q679 747 692.0 740.5Q705 734 705 718Q705 697 689 693Q681 691 609 691Q545 691 516 692L482 693L476 674Q472 663 467.5 621.0Q463 579 463 554Q463 553 463.5 543.5Q464 534 464.0 504.5Q464 475 464 427V360Q464 311 471.5 234.0Q479 157 479 149Q479 128 476 119Q477 118 475.5 113.0Q474 108 480.0 102.5Q486 97 498 97Q504 97 533.0 99.0Q562 101 591 101L639 99Q656 99 661.0 102.0Q666 105 678 105Q705 105 712 98Q715 92 715 81Q715 43 673 32Q662 29 515 29H471Q434 29 402.5 28.5Q371 28 350.0 27.5Q329 27 312.5 26.0Q296 25 286.5 24.0Q277 23 271.0 22.5Q265 22 262 22L260 21Q253 21 247.5 24.0Q242 27 241.0 28.5Q240 30 236 28H234Q228 28 216.0 39.0Q204 50 196 62L185 78L201 92Q217 105 229 105Q236 105 254.0 103.5Q272 102 288 102Q314 102 344.5 106.0Q375 110 388 110H393Q406 110 411.0 115.5Q416 121 416 137L412 209Q407 281 407 329V336Q407 343 407.5 354.5Q408 366 408.5 379.0Q409 392 409.0 406.0Q409 420 409 431V638L408 692L353 689Q267 684 267 681Q267 677 234 677Q190 677 190 703Q190 720 198.0 728.5Q206 737 213.0 738.0Q220 739 236 740Q253 740 297.5 746.0Q342 752 383 753Q437 755 439 757Q443 761 451.5 760.5Q460 760 462 756Q465 752 483 752Q497 752 502.0 747.0Q507 742 511 745Q515 747 522.5 747.5Q530 748 534.5 748.0Q539 748 539.0 751.0Q539 754 544 753Q549 752 554.0 751.0Q559 750 573.0 748.5Q587 747 605 747Z" transform="translate(942.50,958.33) scale(0.9583,-0.9583)" fill="#000000" />
  <path d="M178 600Q178 613 172.0 629.5Q166 646 166 651Q166 660 178 675Q187 686 191.5 688.0Q196 690 206 688Q221 685 228.5 675.5Q236 666 237.0 657.5Q238 649 238 634V602Q238 561 244.0 524.5Q250 488 250 466Q250 451 248.0 418.5Q246 386 246 369Q246 369 246.0 367.0Q246 365 246.5 361.5Q247 358 247.5 353.0Q248 348 248.0 339.5Q248 331 248.5 321.0Q249 311 249.5 296.5Q250 282 250 266Q250 179 252 177Q260 168 392 168Q392 168 438.0 168.0Q484 168 532.0 168.5Q580 169 584 169Q698 169 704 167Q710 164 716 164Q722 163 728.0 144.5Q734 126 734 111Q734 109 733.0 103.5Q732 98 727.5 90.5Q723 83 716 83Q714 83 683.5 92.5Q653 102 624 102Q612 102 594.0 100.0Q576 98 562 98Q562 98 558.5 98.5Q555 99 548.0 99.5Q541 100 532.0 100.5Q523 101 510.5 101.5Q498 102 486 102Q485 102 480.5 102.0Q476 102 469.0 101.5Q462 101 454.5 100.5Q447 100 439.5 100.0Q432 100 428 100Q344 100 230 92L190 90L184 104Q180 114 180 131Q180 157 185.0 176.5Q190 196 190 218Q190 218 190.0 225.0Q190 232 190.0 242.5Q190 253 189.5 264.5Q189 276 188.5 287.0Q188 298 188 304Q188 326 190.0 374.0Q192 422 192 441Q192 517 178 540Q176 543 177.0 544.0Q178 545 180.0 545.5Q182 546 182.5 549.5Q183 553 180 562Q176 571 176 578Q176 581 177.0 588.5Q178 596 178 600Z" transform="translate(1885.00,958.33) scale(0.9583,-0.9583)" fill="#000000" />
  <path d="M152 340Q152 341 154.5 344.0Q157 347 156 359V367Q156 391 167.5 424.0Q179 457 192.5 485.0Q206 513 208 517Q213 534 245.0 555.5Q277 577 278 583Q280 589 289.0 594.0Q298 599 302 607Q305 615 318.0 619.5Q331 624 336 632Q340 639 350.0 644.0Q360 649 373.5 653.5Q387 658 394 661Q400 665 424 665Q455 665 491.0 659.0Q527 653 532 645Q536 640 548 640Q551 640 554 640Q576 640 606 621Q618 613 634 603Q645 598 671.5 565.5Q698 533 698 526Q698 520 705.0 515.5Q712 511 712 506Q712 499 718 495Q724 492 732.0 475.0Q740 458 740 450Q740 447 744.0 439.0Q748 431 748 405Q748 372 741.0 333.0Q734 294 725.5 269.5Q717 245 712 245Q712 245 704.5 230.5Q697 216 684.5 199.5Q672 183 660 178Q652 174 652 168Q652 161 646 161Q641 161 624 145Q606 129 570 121Q490 105 480 105Q464 105 452.5 93.0Q441 81 434 81Q423 81 406.0 88.0Q389 95 388 100Q386 108 356 116Q327 124 282.5 146.0Q238 168 238.0 174.0Q238 180 208.5 210.5Q179 241 176 255Q174 268 163.0 301.0Q152 334 152 340ZM390 461Q391 481 392.0 500.0Q393 519 394.5 532.5Q396 546 397.5 558.0Q399 570 400.5 578.0Q402 586 403.0 591.0Q404 596 405.0 599.0Q406 602 406 602Q406 606 400 606Q390 606 375.0 597.0Q360 588 354 578Q349 567 310.0 527.5Q271 488 270 482Q266 474 264 477Q261 479 256.0 475.5Q251 472 247.5 466.0Q244 460 244 456Q244 451 240.5 447.0Q237 443 233.5 441.0Q230 439 226.5 431.5Q223 424 222 411L220 390L232 399Q241 406 250 406Q251 406 275.5 402.0Q300 398 330 398Q386 398 388 408Q388 418 390 461ZM656 491Q656 496 644.0 508.0Q632 520 632 524Q632 530 615.5 542.5Q599 555 579.5 567.5Q560 580 558 583Q550 591 500 597Q493 598 488 599L474 601L472 572Q470 557 467.0 537.5Q464 518 462.0 498.5Q460 479 460 449Q460 414 464.5 407.5Q469 401 488 401Q531 401 570.0 405.5Q609 410 632.5 414.0Q656 418 660 418Q677 418 680.5 418.5Q684 419 684 422Q684 430 675.5 453.0Q667 476 662 480Q656 485 656 491ZM680 345Q680 353 664 353Q655 353 632.0 346.5Q609 340 576 337Q532 333 520 331Q513 331 496.5 333.5Q480 336 474 336Q468 336 466 334Q462 330 462 247Q462 168 468 168Q469 168 489.5 171.0Q510 174 532.5 179.0Q555 184 558 187Q563 194 572.5 194.0Q582 194 614.5 226.0Q647 258 652 272Q658 288 661.5 288.0Q665 288 672.5 311.5Q680 335 680 345ZM336 333Q318 333 302.5 334.0Q287 335 275.5 336.0Q264 337 254.0 338.5Q244 340 237.5 341.5Q231 343 226.5 344.0Q222 345 220.0 346.0Q218 347 218 347Q214 347 214 341Q214 336 218.0 317.0Q222 298 235.0 271.0Q248 244 266 236Q284 228 315.5 200.5Q347 173 370 172L388 171V334L340 333Z" transform="translate(2827.50,958.33) scale(0.9583,-0.9583)" fill="#000000" />
  <path d="M 24.637998,12.488337 H 20.72216 q -1.48166,0 -2.54,-1.058333 -1.05833,-1.058333 -1.05833,-2.54 V 3.598338 q 0,-1.481667 1.05833,-2.54 Q 19.2405,4e-6 20.72216,4e-6 h 3.915838 V 0.846671 H 20.72216 q -1.13241,0 -1.94733,0.814917 -0.80433,0.804333 -0.80433,1.93675 v 5.291666 q 0,1.132417 0.80433,1.93675 0.81492,0.814917 1.94733,0.814917 h 3.915838 z" transform="translate(2398.81,0.00) scale(80.0747,80.0747)" fill="#000000" />
  <path d="M 75.014662,0.846671 V 4e-6 h 13.123333 v 0.846667 z m 0,11.641666 v -0.846666 h 13.123333 v 0.846666 z" transform="translate(-1635.08,0.00) scale(80.0747,80.0747)" fill="#000000" />
  <path d="M 75.014662,0.846671 V 4e-6 h 13.123333 v 0.846667 z m 0,11.641666 v -0.846666 h 13.123333 v 0.846666 z" transform="translate(-584.24,0.00) scale(80.0747,80.0747)" fill="#000000" />
  <path d="m 87.714667,4e-6 h 2.8575 q 1.481666,0 2.54,1.058334 1.058333,1.058333 1.058333,2.54 v 5.291666 q 0,1.481667 -1.058333,2.54 -1.058334,1.058333 -2.54,1.058333 h -2.8575 v -0.846666 h 2.8575 q 1.132416,0 1.93675,-0.814917 0.814916,-0.804333 0.814916,-1.93675 V 3.598338 q 0,-1.132417 -0.814916,-1.93675 -0.804334,-0.814917 -1.93675,-0.814917 h -2.8575 z" transform="translate(-550.34,0.00) scale(80.0747,80.0747)" fill="#000000" />
  <path d="M 394.00,124.00 C 394.00,81.45 444.29,65.03 462.44,59.10 C 462.44,59.10 462.90,53.08 462.93,53.08 C 494.27,55.49 494.27,55.49 498.95,58.04 C 514.72,66.62 544.03,82.57 544.03,118.54 C 544.03,118.87 544.02,119.19 544.02,119.52 C 544.10,120.95 544.14,122.38 544.14,123.81 C 544.14,157.82 521.51,193.00 485.48,193.00 C 467.69,193.00 430.32,180.54 399.02,139.03 C 395.68,134.60 394.00,129.30 394.00,124.00  Z M 486.35,142.95 C 488.73,142.04 494.13,133.57 494.13,123.32 C 494.13,121.96 494.00,121.60 494.00,120.00 C 494.00,118.93 494.08,118.15 494.08,117.18 C 494.08,115.59 494.08,113.18 481.33,105.54 C 468.40,109.74 456.48,113.88 448.31,119.91 C 453.65,125.47 469.09,140.05 486.35,142.95  Z M 446.02,428.68 C 446.02,427.98 445.86,367.32 445.86,366.70 C 445.86,326.74 446.47,286.29 450.11,245.75 C 450.11,245.75 499.90,250.22 499.89,250.25 C 496.44,288.67 495.85,328.01 495.85,367.85 C 495.85,368.62 496.01,428.05 496.01,428.66 C 496.01,441.70 496.01,442.63 494.33,446.99 C 483.61,474.89 479.21,498.48 479.21,518.20 C 479.21,626.87 616.98,643.92 686.53,643.92 C 703.77,643.92 715.09,643.00 717.00,643.00 L 827.46,645.01 C 827.46,645.01 826.55,694.99 826.54,694.99 C 717.52,693.01 717.52,693.01 717.52,693.01 C 707.08,693.62 696.55,693.94 685.98,693.94 C 541.10,693.94 429.22,635.50 429.22,518.13 C 429.22,492.19 434.72,463.99 446.01,433.40 C 446.02,431.83 446.02,430.26 446.02,428.68  Z M 162.45,275.00 C 332.96,267.45 512.54,213.00 685.47,213.00 C 685.98,213.00 686.49,213.00 687.00,213.00 C 687.04,213.00 802.32,213.00 834.66,213.00 L 844.02,205.98 C 844.02,205.98 874.02,245.99 873.98,246.02 C 857.98,258.02 857.98,258.02 857.98,258.02 C 853.56,261.34 848.28,263.00 843.00,263.00 L 685.59,263.00 C 518.31,263.00 339.14,317.32 164.10,324.97 C 163.73,324.99 163.37,325.00 163.00,325.00 L 151.00,325.00 L 151.00,275.00 L 162.45,275.00 Z" transform="translate(4497.12,100.00) scale(0.8000,0.8000)" fill="#000000" />
  <path d="M 108.86,305.66 C 108.86,140.71 217.05,29.02 382.26,29.02 C 406.69,29.02 432.26,31.46 458.75,36.48 C 466.58,34.95 474.37,34.15 481.97,34.15 C 504.36,34.15 525.15,41.06 540.69,56.60 C 556.29,72.20 564.00,93.97 564.00,117.76 C 564.00,198.00 564.00,198.00 564.00,198.00 L 514.00,198.00 L 514.00,118.13 C 513.84,103.00 509.17,84.05 482.21,84.05 C 470.85,84.05 465.10,87.00 459.00,87.00 C 452.60,87.00 423.64,78.92 381.75,78.92 C 312.70,78.92 258.11,101.70 220.49,139.32 C 181.81,178.00 158.76,234.92 158.76,305.48 C 158.76,363.36 173.81,405.43 173.99,413.43 C 174.23,423.87 174.31,434.33 174.31,444.78 C 174.31,445.67 173.61,532.64 173.61,533.63 C 173.61,585.78 176.00,603.58 176.00,608.00 L 176.00,614.00 C 176.00,615.62 176.00,615.62 167.79,679.22 C 167.30,683.02 167.30,683.02 153.70,712.49 C 153.70,712.49 108.30,691.54 108.30,691.51 L 118.70,668.98 L 126.00,612.38 L 126.00,608.97 C 124.12,584.19 123.61,559.12 123.61,534.10 C 123.61,533.20 124.32,445.72 124.32,444.72 C 124.32,435.58 124.25,426.52 124.07,417.55 C 113.84,378.59 108.86,341.04 108.86,305.66  Z M 352.00,718.00 L 302.00,718.00 L 302.00,640.00 C 302.00,639.03 305.44,621.22 312.06,543.07 C 321.82,427.82 333.32,293.02 407.76,218.57 C 441.23,185.11 487.33,164.99 546.36,164.99 C 600.67,164.99 677.60,192.32 709.46,334.91 C 721.26,387.71 724.14,443.07 724.14,486.85 C 724.14,492.87 724.09,498.67 724.00,504.21 L 724.00,584.39 L 721.99,714.39 L 672.01,713.62 L 674.00,583.81 L 674.00,503.57 C 674.09,498.51 674.14,493.23 674.14,487.76 C 674.14,417.46 665.81,295.69 612.01,241.89 C 600.85,230.73 580.92,214.98 546.17,214.98 C 478.05,214.98 418.91,245.23 387.76,363.33 C 364.12,452.96 363.73,564.23 352.00,641.91 L 352.00,718.00 Z" transform="translate(5547.97,100.00) scale(0.8000,0.8000)" fill="#000000" />
</svg>
