<?xml version="1.0" encoding="UTF-8" standalone="no"?>
<!--
Representation of "ilo nanpa pi jan Sate" in sitelen kalama pona
Generated by generate_sitelen_kalama_pona.py

Description:
  Representation of "ilo nanpa pi jan Sate" in sitelen kalama pona.
  Sources: ilo-nanpa: https://commons.wikimedia.org/wiki/File:Sitelen_seli_kiwen_-_ilo-nanpa.svg; pi: https://commons.wikimedia.org/wiki/File:Sitelen_seli_kiwen_-_pi.svg; jan: https://commons.wikimedia.org/wiki/File:Sitelen_seli_kiwen_-_jan.svg; sa: https://commons.wikimedia.org/wiki/File:Sitelen_kalama_pona_-_sa.svg; te: https://commons.wikimedia.org/wiki/File:Sitelen_kalama_pona_-_te.svg

Categories:
  [[Category:Sitelen kalama pona]]
  [[Category:Toki Pona text containing ilo nanpa pi jan]]
  [[Category:Toki Pona text containing sound symbol Sa]]
  [[Category:Toki Pona text containing sound symbol Te]]

Sources:
  ilo-nanpa: https://commons.wikimedia.org/wiki/File:Sitelen_seli_kiwen_-_ilo-nanpa.svg
  pi: https://commons.wikimedia.org/wiki/File:Sitelen_seli_kiwen_-_pi.svg
  jan: https://commons.wikimedia.org/wiki/File:Sitelen_seli_kiwen_-_jan.svg
  sa: https://commons.wikimedia.org/wiki/File:Sitelen_kalama_pona_-_sa.svg
  te: https://commons.wikimedia.org/wiki/File:Sitelen_kalama_pona_-_te.svg
-->
<svg version="1.1" width="6048" height="1000"
     viewBox="0 0 6048 1000"
     xmlns="http://www.w3.org/2000/svg">
  <path d="M214 387Q214 394 215.0 399.0Q216 404 219.5 412.5Q223 421 233.5 425.5Q244 430 261 430Q279 430 318.5 422.0Q358 414 448 414Q500 414 530.5 421.5Q561 429 570 429Q576 429 584.0 426.0Q592 423 597 423Q604 423 613 427Q624 433 632.5 428.0Q641 423 644 423Q648 423 655.5 418.5Q663 414 667.0 409.0Q671 404 668 402Q663 399 666 380Q666 378 669.0 342.0Q672 306 676.5 280.0Q681 254 688 250Q692 246 690.5 244.0Q689 242 685.5 235.0Q682 228 683 219V210Q683 184 665 183Q615 180 551 180H531L481 181V150Q481 119 486 119Q490 119 490.0 108.0Q490 97 485.5 87.0Q481 77 474 77Q467 77 467.0 72.0Q467 67 450 67Q436 67 427.0 77.0Q418 87 415.5 95.0Q413 103 413 106Q413 111 417.5 126.0Q422 141 422 146Q422 150 420 151Q416 154 417.5 155.0Q419 156 421.0 161.5Q423 167 422 174Q419 186 396 186Q388 186 383.0 182.5Q378 179 377.0 177.5Q376 176 370 180Q365 183 342 183Q322 183 275.0 189.0Q228 195 225 199Q224 200 221.0 218.5Q218 237 213 245Q209 251 209 253Q209 255 210.5 256.5Q212 258 213.5 260.0Q215 262 217.0 268.0Q219 274 220 283Q222 305 227 314Q229 318 229 323Q229 330 221.5 350.5Q214 371 214 387ZM414 355Q412 357 385.5 358.5Q359 360 330.0 362.0Q301 364 295 365Q292 366 288 366Q283 366 282.5 357.0Q282 348 282 310V260L300 257Q313 255 323.5 247.0Q334 239 348 239Q365 239 388.0 242.5Q411 246 413 250Q416 254 416 277Q416 301 412.5 315.0Q409 329 409 330Q409 334 412 340Q417 352 414 355ZM514 236Q540 236 580.5 243.5Q621 251 621 268Q621 275 612.5 292.0Q604 309 604 315Q604 317 605 318Q607 322 607 324Q607 335 600.0 347.5Q593 360 585 363Q576 366 541 366Q471 366 471 360Q471 359 476.0 345.5Q481 332 481 327Q481 323 480 322Q473 315 473 278Q473 250 480.5 243.0Q488 236 514 236ZM361 711Q372 711 386.0 698.0Q400 685 400 677Q400 676 399.5 673.5Q399 671 399 669Q399 653 429 653Q453 653 453 655Q453 659 449.0 666.0Q445 673 445 680Q445 689 451 701Q456 714 460.0 716.5Q464 719 478 719Q497 719 505.5 711.5Q514 704 516 685Q518 663 518 662Q518 659 531 659Q534 659 544.5 659.5Q555 660 561 660Q630 660 630 621Q630 610 619.0 606.0Q608 602 574 600Q530 596 528 594Q527 592 527.5 590.0Q528 588 534.0 584.0Q540 580 552 580Q559 580 576.0 581.0Q593 582 601 582Q622 582 629.0 575.5Q636 569 636.0 550.0Q636 531 625.5 524.5Q615 518 585 518H569Q537 518 534 515Q529 510 531 486L532 461L515 457Q496 452 489 452Q474 452 466.0 462.5Q458 473 456.5 481.5Q455 490 455 498Q455 506 457.5 510.5Q460 515 460 515Q460 518 446 518Q444 518 437.0 517.5Q430 517 425 517Q402 516 401 513Q400 511 405 508Q410 505 410 501Q410 494 396.5 488.0Q383 482 369.5 482.0Q356 482 346.5 488.5Q337 495 337 506Q336 520 327.5 523.5Q319 527 288.5 527.0Q258 527 247.5 532.0Q237 537 234 553Q231 567 241 578Q247 586 255.0 588.0Q263 590 292 590Q333 590 337 585Q339 582 339 586Q340 588 340 591Q340 597 336.0 599.5Q332 602 319 602H297Q294 602 289.0 602.5Q284 603 272.5 605.0Q261 607 251.5 610.5Q242 614 235.0 621.0Q228 628 228 638Q228 651 237.0 662.5Q246 674 255 674Q259 674 282.5 668.5Q306 663 316 663Q330 663 333 678Q336 693 343.5 702.0Q351 711 361 711ZM462 584Q462 597 442 597Q427 597 419 599Q411 601 406 592Q402 586 411 584Q416 583 430 581Q450 579 452 579Q462 579 462 584Z" transform="translate(0.00,958.33) scale(0.9583,-0.9583)" fill="#000000" />
  <path d="M178 600Q178 613 172.0 629.5Q166 646 166 651Q166 660 178 675Q187 686 191.5 688.0Q196 690 206 688Q221 685 228.5 675.5Q236 666 237.0 657.5Q238 649 238 634V602Q238 561 244.0 524.5Q250 488 250 466Q250 451 248.0 418.5Q246 386 246 369Q246 369 246.0 367.0Q246 365 246.5 361.5Q247 358 247.5 353.0Q248 348 248.0 339.5Q248 331 248.5 321.0Q249 311 249.5 296.5Q250 282 250 266Q250 179 252 177Q260 168 392 168Q392 168 438.0 168.0Q484 168 532.0 168.5Q580 169 584 169Q698 169 704 167Q710 164 716 164Q722 163 728.0 144.5Q734 126 734 111Q734 109 733.0 103.5Q732 98 727.5 90.5Q723 83 716 83Q714 83 683.5 92.5Q653 102 624 102Q612 102 594.0 100.0Q576 98 562 98Q562 98 558.5 98.5Q555 99 548.0 99.5Q541 100 532.0 100.5Q523 101 510.5 101.5Q498 102 486 102Q485 102 480.5 102.0Q476 102 469.0 101.5Q462 101 454.5 100.5Q447 100 439.5 100.0Q432 100 428 100Q344 100 230 92L190 90L184 104Q180 114 180 131Q180 157 185.0 176.5Q190 196 190 218Q190 218 190.0 225.0Q190 232 190.0 242.5Q190 253 189.5 264.5Q189 276 188.5 287.0Q188 298 188 304Q188 326 190.0 374.0Q192 422 192 441Q192 517 178 540Q176 543 177.0 544.0Q178 545 180.0 545.5Q182 546 182.5 549.5Q183 553 180 562Q176 571 176 578Q176 581 177.0 588.5Q178 596 178 600Z" transform="translate(942.50,958.33) scale(0.9583,-0.9583)" fill="#000000" />
  <path d="M342 672Q345 672 355.5 678.0Q366 684 393.0 690.5Q420 697 463 697Q487 697 550 690Q586 686 595.0 682.5Q604 679 619 663Q641 641 641 638Q641 634 648.0 634.0Q655 634 655 630Q655 626 676.0 610.0Q697 594 697 591Q697 589 703.0 576.5Q709 564 715.5 548.0Q722 532 723 521Q727 503 730 501Q734 498 734 448Q734 420 733.0 405.0Q732 390 730.0 388.0Q728 386 726.5 383.0Q725 380 725 374Q725 365 718.0 357.5Q711 350 711 346Q711 341 680.5 301.0Q650 261 650.0 257.0Q650 253 676.0 224.5Q702 196 702 194Q702 192 718.0 172.5Q734 153 734 146Q734 140 751.5 119.5Q769 99 769 85Q769 50 748 50Q726 50 715.0 59.0Q704 68 704 77Q704 82 686.5 103.0Q669 124 668 126Q663 140 624.0 182.5Q585 225 577 225Q577 225 574.5 222.5Q572 220 563.0 216.0Q554 212 538 210Q532 209 525.0 206.5Q518 204 504.5 202.5Q491 201 465 201Q413 201 370.5 206.0Q328 211 320 211Q307 211 291.5 190.0Q276 169 272 167Q266 166 266 156Q266 151 264.0 148.0Q262 145 256.5 139.5Q251 134 245 126Q240 118 229.5 105.5Q219 93 211.5 83.0Q204 73 202 66Q199 51 194 51Q187 51 163.0 56.5Q139 62 136 64Q133 67 131 85Q130 97 132.5 102.0Q135 107 145 115Q167 132 186.0 152.0Q205 172 209 184Q209 186 224.0 215.5Q239 245 242 247Q246 250 246.0 253.0Q246 256 234.5 264.0Q223 272 221.5 278.0Q220 284 202.0 305.5Q184 327 184 329Q184 331 177 340Q170 347 161.5 378.0Q153 409 153 427Q153 427 153.5 432.5Q154 438 154.0 445.5Q154 453 154 458Q154 475 173.5 510.5Q193 546 200 549Q213 554 226.5 578.0Q240 602 242 602Q244 602 288.0 637.0Q332 672 342 672ZM567 616Q544 628 527.0 631.0Q510 634 457 634Q428 634 416.0 627.5Q404 621 388 621Q353 621 308.5 590.0Q264 559 232.5 514.5Q201 470 201 435Q201 422 210.0 408.5Q219 395 219 390Q219 383 239.0 360.5Q259 338 268 334Q276 331 285.5 317.0Q295 303 301 302Q311 300 327.5 292.5Q344 285 351 278Q363 268 407.0 262.0Q451 256 483 256Q514 256 540.0 266.0Q566 276 579.5 286.5Q593 297 594 297Q600 297 611.0 306.0Q622 315 622 320Q622 322 624.5 324.0Q627 326 631.0 329.0Q635 332 643.0 344.0Q651 356 660 375Q672 399 675.0 409.0Q678 419 678 433Q678 455 675.0 471.0Q672 487 668.0 496.5Q664 506 653 528Q641 554 632.0 566.5Q623 579 619.0 579.5Q615 580 611.5 582.0Q608 584 604 591Q601 599 567 616Z" transform="translate(1885.00,958.33) scale(0.9583,-0.9583)" fill="#000000" />
  <path d="M 24.637998,12.488337 H 20.72216 q -1.48166,0 -2.54,-1.058333 -1.05833,-1.058333 -1.05833,-2.54 V 3.598338 q 0,-1.481667 1.05833,-2.54 Q 19.2405,4e-6 20.72216,4e-6 h 3.915838 V 0.846671 H 20.72216 q -1.13241,0 -1.94733,0.814917 -0.80433,0.804333 -0.80433,1.93675 v 5.291666 q 0,1.132417 0.80433,1.93675 0.81492,0.814917 1.94733,0.814917 h 3.915838 z" transform="translate(1456.31,0.00) scale(80.0747,80.0747)" fill="#000000" />
  <path d="M 75.014662,0.846671 V 4e-6 h 13.123333 v 0.846667 z m 0,11.641666 v -0.846666 h 13.123333 v 0.846666 z" transform="translate(-2577.58,0.00) scale(80.0747,80.0747)" fill="#000000" />
  <path d="M 75.014662,0.846671 V 4e-6 h 13.123333 v 0.846667 z m 0,11.641666 v -0.846666 h 13.123333 v 0.846666 z" transform="translate(-1526.74,0.00) scale(80.0747,80.0747)" fill="#000000" />
  <path d="m 87.714667,4e-6 h 2.8575 q 1.481666,0 2.54,1.058334 1.058333,1.058333 1.058333,2.54 v 5.291666 q 0,1.481667 -1.058333,2.54 -1.058334,1.058333 -2.54,1.058333 h -2.8575 v -0.846666 h 2.8575 q 1.132416,0 1.93675,-0.814917 0.814916,-0.804333 0.814916,-1.93675 V 3.598338 q 0,-1.132417 -0.814916,-1.93675 -0.804334,-0.814917 -1.93675,-0.814917 h -2.8575 z" transform="translate(-1492.84,0.00) scale(80.0747,80.0747)" fill="#000000" />
  <path d="M 577.64,565.25 C 577.64,456.40 383.33,439.54 383.33,286.00 C 383.33,215.36 440.44,158.77 504.81,136.38 L 521.24,183.61 C 500.67,190.76 479.72,203.37 463.83,219.27 C 444.85,238.24 433.32,260.88 433.32,285.95 C 433.32,342.59 469.36,371.28 522.33,411.26 C 572.69,449.26 627.55,490.67 627.55,565.94 C 627.55,572.64 627.10,579.52 626.16,586.58 C 626.55,591.04 626.73,595.49 626.73,599.92 C 626.73,670.56 579.14,737.39 510.17,757.95 C 506.95,758.91 506.95,758.91 415.57,760.99 L 414.43,711.01 L 498.87,709.09 C 546.17,693.40 576.72,646.05 576.72,599.58 C 576.72,594.79 576.00,586.14 576.00,586.00 C 576.00,581.85 577.64,576.17 577.64,565.25  Z M 197.72,446.47 C 197.72,492.62 208.00,522.50 208.00,530.00 C 208.00,532.16 186.84,735.12 185.86,744.60 C 185.86,744.60 136.14,739.44 136.14,739.40 C 157.70,531.63 157.70,531.63 157.70,531.63 C 151.03,502.59 147.85,474.33 147.85,447.12 C 147.85,258.30 300.17,123.35 494.47,123.35 C 520.32,123.35 546.83,125.74 573.72,130.70 C 575.87,130.50 577.95,130.42 579.99,130.42 C 597.86,130.42 618.35,135.00 635.00,135.00 C 637.38,135.00 637.38,135.00 723.71,151.45 C 723.71,151.45 714.35,200.56 714.29,200.55 C 633.32,185.13 633.32,185.13 633.32,185.13 C 632.48,185.15 631.65,185.17 630.82,185.17 C 617.86,185.17 593.41,180.49 579.47,180.49 C 576.64,180.49 576.40,181.00 573.00,181.00 C 566.76,181.00 538.47,173.33 494.42,173.33 C 329.07,173.33 197.72,285.24 197.72,446.47 Z" transform="translate(3554.62,100.00) scale(0.8000,0.8000)" fill="#000000" />
  <path d="M 479.09,590.36 C 479.09,643.24 509.54,709.81 571.22,709.00 C 722.67,707.01 722.67,707.01 722.67,707.01 L 723.33,756.99 L 571.00,759.00 C 558.22,759.00 515.83,756.03 479.27,719.47 C 446.14,686.35 428.97,638.48 428.97,591.43 C 428.97,580.21 429.95,569.05 431.91,558.13 C 431.49,546.92 431.27,535.70 431.27,524.49 C 431.27,466.24 437.23,408.06 452.00,350.77 L 452.00,318.00 L 502.00,318.00 L 502.00,354.00 C 502.00,363.96 481.26,419.14 481.26,524.49 C 481.26,543.08 482.00,559.64 482.00,560.00 C 482.00,565.45 479.09,572.95 479.09,590.36  Z M 532.63,332.49 C 492.65,332.49 447.35,336.76 403.87,336.76 C 342.51,336.76 239.46,330.35 216.68,233.77 C 216.23,231.87 216.00,229.94 216.00,228.00 C 216.00,216.26 232.94,184.74 256.56,161.12 C 327.23,90.44 448.48,81.81 553.35,74.35 C 619.90,69.61 636.16,67.00 637.00,67.00 L 671.00,67.00 L 671.00,117.00 L 638.61,117.00 C 566.33,126.18 469.10,125.46 390.99,145.81 C 317.70,164.89 284.37,196.70 267.56,230.15 C 281.60,272.29 326.30,286.67 403.85,286.67 C 448.30,286.67 494.32,282.36 532.40,282.36 C 569.80,282.36 563.43,285.31 593.01,285.31 C 608.00,285.31 623.08,284.79 637.66,284.79 C 661.03,284.79 685.80,286.09 712.32,293.00 L 733.00,293.00 C 734.57,293.00 734.57,293.00 784.12,299.20 C 784.12,299.20 777.92,348.81 777.88,348.80 C 731.43,343.00 731.43,343.00 731.43,343.00 L 709.00,343.00 C 698.30,343.00 690.13,334.81 636.65,334.81 C 636.55,334.81 593.51,335.30 593.07,335.30 C 557.87,335.30 569.73,332.49 532.63,332.49 Z" transform="translate(4605.47,100.00) scale(0.8000,0.8000)" fill="#000000" />
</svg>
