<?xml version='1.0' encoding='UTF-8'?>
<svg xmlns="http://www.w3.org/2000/svg" xmlns:inkscape="http://www.inkscape.org/namespaces/inkscape" version="1.1" width="98.0" height="98.0" viewBox="-40.4784565 344.491249 98.0 98.0" id="svg1">
  <defs id="defs1" />
  <g id="lu" transform="translate(-476.5,-615.5)">
    <g id="g1441" style="fill:#000000" transform="translate(28)">
      <path style="opacity:1;fill:#000000" fill="#171627" d="m 426.5,981.5 c 1,0 2,0 3,0 1.515,13.212 2.849,26.55 4,40 0,0.67 0,1.33 0,2 -0.175,2.12 0.159,4.12 1,6 0.237,1.29 -0.096,2.29 -1,3 -2.088,-1.84 -3.421,-4.17 -4,-7 0.321,-5.53 -0.012,-10.86 -1,-16 -0.209,-9.38 -0.875,-18.712 -2,-28 z" id="path1441" />
    </g>
    <g id="g1448" style="fill:#000000" transform="translate(28)">
      <path style="opacity:1;fill:#000000" fill="#110d22" d="m 446.5,1020.5 c -0.306,2.89 0.027,5.55 1,8 0,0.67 0,1.33 0,2 0.342,0.84 1.008,1.17 2,1 0.381,1.43 1.381,2.26 3,2.5 -0.752,0.67 -1.086,1.5 -1,2.5 -3.072,0.32 -6.072,-0.02 -9,-1 1.879,-1.57 2.212,-3.24 1,-5 0,-2.67 0,-5.33 0,-8 -0.333,-14.02 10e-4,-28.016 1,-42 0.586,0.209 1.086,0.543 1.5,1 0.5,12.996 0.667,26 0.5,39 z" id="path1448" />
    </g>
    <g id="g1488" style="fill:#000000" transform="translate(28)">
      <path style="opacity:1;fill:#000000" fill="#4f4d50" d="m 447.5,1030.5 c 6.653,0.55 13.32,0.89 20,1 -5.849,1.16 -11.849,1.16 -18,0 -0.992,0.17 -1.658,-0.16 -2,-1 z" id="path1488" />
    </g>
    <g id="g1494" style="fill:#000000" transform="translate(28)">
      <path style="opacity:1;fill:#000000" fill="#1a1920" d="m 458.5,1035.5 c -0.333,0 -0.667,0 -1,0 -2.121,-0.17 -4.121,0.16 -6,1 -0.086,-1 0.248,-1.83 1,-2.5 -1.619,-0.24 -2.619,-1.07 -3,-2.5 6.151,1.16 12.151,1.16 18,0 6.305,-0.99 12.638,-1.15 19,-0.5 0.837,1.01 1.17,2.18 1,3.5 -2.657,-0.33 -5.324,-0.66 -8,-1 -6.966,1.08 -13.966,1.75 -21,2 z" id="path1494" />
    </g>
    <g id="g1496" style="fill:#000000" transform="translate(28)">
      <path style="opacity:1;fill:#000000" fill="#36303d" d="m 434.5,1029.5 c 1.398,2.03 3.398,3.03 6,3 1.53,-0.14 2.53,-0.81 3,-2 1.212,1.76 0.879,3.43 -1,5 2.928,0.98 5.928,1.32 9,1 -3.519,1.31 -7.185,1.31 -11,0 -2.768,-0.9 -5.101,-2.23 -7,-4 0.904,-0.71 1.237,-1.71 1,-3 z" id="path1496" />
    </g>
  </g>
<path d="m 21.396861,426.99599 a 22.163991,22.163991 0 0 1 -2.181168,3.98932 15.791455,15.791455 0 0 1 -3.113734,3.46083 c -1.165708,0.94811 -2.383227,1.42477 -3.668094,1.42477 -0.813407,0 -1.678619,-0.23314 -2.5904628,-0.69943 a 29.774767,29.774767 0 0 1 -2.730348,-1.62682 27.717941,27.717941 0 0 0 -2.7666113,-1.63199 5.7611868,5.7611868 0 0 0 -2.6163663,-0.69422 c -1.84440892,0 -3.5592945,1.56982 -5.149838,4.71463 l -1.688981,-0.88077 c 0.56472,-1.25376 1.300412,-2.56456 2.2122541,-3.92195 a 15.905435,15.905435 0 0 1 3.08264978,-3.49195 c 1.16570742,-0.94811 2.38322472,-1.42473 3.66809352,-1.42473 0.9325671,0 1.8651333,0.23314 2.792516,0.69942 0.948109,0.46629 1.8703161,1.00508 2.7614336,1.62679 0.9118434,0.62171 1.7977814,1.16571 2.6474504,1.63199 0.854853,0.46628 1.67862,0.69426 2.476484,0.69426 0.870396,0 1.75115,-0.37808 2.642272,-1.13463 0.896297,-0.75642 1.74079,-1.9273 2.538651,-3.52304 z" style="font-style:normal;font-variant:normal;font-weight:400;font-stretch:normal;font-size:11.5px;line-height:0;font-family:'Gentium Book Plus';-inkscape-font-specification:'Gentium Book Plus';font-variant-ligatures:normal;font-variant-caps:normal;font-variant-numeric:normal;font-feature-settings:normal;text-align:start;writing-mode:lr-tb;text-anchor:start;fill:#000006;fill-opacity:1;stroke:none;stroke-width:0.777139;stroke-linecap:square;stroke-linejoin:bevel;stroke-miterlimit:4;stroke-dasharray:none;stroke-dashoffset:0;stroke-opacity:1;paint-order:markers stroke fill" id="path1" inkscape:label="nasal" />
</svg>