<?xml version='1.0' encoding='UTF-8'?>
<svg xmlns="http://www.w3.org/2000/svg" xmlns:inkscape="http://www.inkscape.org/namespaces/inkscape" version="1.1" width="98.0" height="98.0" viewBox="-4.463051 -0.9861335000000011 98.0 98.0" id="svg1">
  <defs id="defs1" />
  <g id="ke" transform="translate(-613.4261,-594.5)">
    <g id="g870" style="fill:#000000" transform="translate(22)">
      <path style="opacity:1;fill:#000000" fill="#1e1a29" d="m 614.5,606.5 c 17.667,0 35.333,0 53,0 0,1.333 0,2.667 0,4 -4.863,0.319 -9.53,-0.014 -14,-1 2.687,0.164 5.354,-0.003 8,-0.5 -0.667,-0.333 -1.333,-0.667 -2,-1 -14.667,-0.667 -29.333,-0.667 -44,0 -0.667,0.333 -1.333,0.667 -2,1 6.181,0.172 12.181,0.672 18,1.5 -7.008,-0.166 -14.008,0 -21,0.5 -2.67,3.162 -2.337,5.995 1,8.5 0.489,1.495 1.155,2.829 2,4 1.432,1.827 3.099,3.494 5,5 1.69,-2.019 3.356,-4.019 5,-6 1,-1 2,-2 3,-3 2.213,-1.273 4.546,-2.273 7,-3 2.415,-0.127 4.749,-0.293 7,-0.5 -3.485,1.755 -6.819,3.588 -10,5.5 -1.21,0.432 -2.21,1.099 -3,2 -3.299,2.48 -5.132,5.814 -5.5,10 -0.667,0.667 -1.333,1.333 -2,2 -0.667,4.333 -0.667,8.667 0,13 0.232,1.237 0.732,2.237 1.5,3 0.579,3.861 2.579,6.527 6,8 5.818,4.122 12.484,5.788 20,5 2.107,0.968 4.441,1.302 7,1 0,1 0,2 0,3 -2.333,0 -4.667,0 -7,0 -5.721,-0.368 -11.388,-1.034 -17,-2 -1.019,-1.601 -2.519,-2.601 -4.5,-3 -1.749,0.248 -2.582,1.248 -2.5,3 -4.333,3.667 -8.333,7.667 -12,12 -0.876,0.131 -1.543,-0.202 -2,-1 2.345,-2.844 4.845,-5.51 7.5,-8 0.483,-0.948 0.649,-1.948 0.5,-3 0,-0.333 0,-0.667 0,-1 2.172,-1.161 3.506,-2.995 4,-5.5 -4.914,-8.419 -6.248,-17.419 -4,-27 -3.158,-3.991 -6.491,-7.824 -10,-11.5 0,-0.333 0,-0.667 0,-1 -0.812,-2.445 -1.812,-4.778 -3,-7 -0.237,-1.291 0.096,-2.291 1,-3 2.604,-2.282 5.604,-3.616 9,-4 z" id="path870" />
    </g>
    <g id="g873" style="fill:#000000" transform="translate(22)">
      <path style="opacity:1;fill:#000000" fill="#1a122a" d="m 653.5,609.5 c -7.317,0.618 -14.651,0.951 -22,1 -5.819,-0.828 -11.819,-1.328 -18,-1.5 0.667,-0.333 1.333,-0.667 2,-1 14.667,-0.667 29.333,-0.667 44,0 0.667,0.333 1.333,0.667 2,1 -2.646,0.497 -5.313,0.664 -8,0.5 z" id="path873" />
    </g>
    <g id="g874" style="fill:#000000" transform="translate(22)">
      <path style="opacity:1;fill:#000000" fill="#7f7a80" d="m 627.5,623.5 c -5.058,8.549 -7.058,17.882 -6,28 -0.768,-0.763 -1.268,-1.763 -1.5,-3 -0.667,-4.333 -0.667,-8.667 0,-13 0.667,-0.667 1.333,-1.333 2,-2 0.368,-4.186 2.201,-7.52 5.5,-10 z" id="path874" />
    </g>
  </g>
<path d="m 21.396861,426.99599 a 22.163991,22.163991 0 0 1 -2.181168,3.98932 15.791455,15.791455 0 0 1 -3.113734,3.46083 c -1.165708,0.94811 -2.383227,1.42477 -3.668094,1.42477 -0.813407,0 -1.678619,-0.23314 -2.5904628,-0.69943 a 29.774767,29.774767 0 0 1 -2.730348,-1.62682 27.717941,27.717941 0 0 0 -2.7666113,-1.63199 5.7611868,5.7611868 0 0 0 -2.6163663,-0.69422 c -1.84440892,0 -3.5592945,1.56982 -5.149838,4.71463 l -1.688981,-0.88077 c 0.56472,-1.25376 1.300412,-2.56456 2.2122541,-3.92195 a 15.905435,15.905435 0 0 1 3.08264978,-3.49195 c 1.16570742,-0.94811 2.38322472,-1.42473 3.66809352,-1.42473 0.9325671,0 1.8651333,0.23314 2.792516,0.69942 0.948109,0.46629 1.8703161,1.00508 2.7614336,1.62679 0.9118434,0.62171 1.7977814,1.16571 2.6474504,1.63199 0.854853,0.46628 1.67862,0.69426 2.476484,0.69426 0.870396,0 1.75115,-0.37808 2.642272,-1.13463 0.896297,-0.75642 1.74079,-1.9273 2.538651,-3.52304 z" style="font-style:normal;font-variant:normal;font-weight:400;font-stretch:normal;font-size:11.5px;line-height:0;font-family:'Gentium Book Plus';-inkscape-font-specification:'Gentium Book Plus';font-variant-ligatures:normal;font-variant-caps:normal;font-variant-numeric:normal;font-feature-settings:normal;text-align:start;writing-mode:lr-tb;text-anchor:start;fill:#000006;fill-opacity:1;stroke:none;stroke-width:0.777139;stroke-linecap:square;stroke-linejoin:bevel;stroke-miterlimit:4;stroke-dasharray:none;stroke-dashoffset:0;stroke-opacity:1;paint-order:markers stroke fill" id="path1" inkscape:label="nasal" />
</svg>