<?xml version="1.0" encoding="UTF-8" standalone="no"?>
<svg
   version="1.1"
   width="72.49041"
   height="59.429783"
   viewBox="16 321 72.49041 59.429783"
   id="svg1"
   xmlns="http://www.w3.org/2000/svg"
   xmlns:svg="http://www.w3.org/2000/svg">
  <defs
     id="defs1" />
  <g
     id="le"
     transform="translate(-571.00959,-645.07022)">
    <g
       id="g1390"
       style="fill:#000000"
       transform="translate(28)">
      <path
         style="opacity:1;fill:#000000"
         fill="#1e1928"
         d="m 625.5,967.5 c 1.765,0.961 3.765,1.295 6,1 0,1.333 0,2.667 0,4 -1,0 -2,0 -3,0 -21.581,-2.544 -43.248,-3.211 -65,-2 -0.82,3.683 0.513,6.017 4,7 2.129,0.703 4.129,1.703 6,3 0,1 0,2 0,3 -3.813,-0.938 -7.479,-2.271 -11,-4 -0.79,-0.901 -1.79,-1.568 -3,-2 -1.839,-8.408 1.494,-12.075 10,-11 18.681,-0.809 37.347,-0.476 56,1 z"
         id="path1390" />
    </g>
    <g
       id="g1416"
       style="fill:#000000"
       transform="translate(28)">
      <path
         style="opacity:1;fill:#000000"
         fill="#2d2a38"
         d="m 577.5,979.5 c 1.333,9.333 1.333,18.667 0,28 0.33,-6.7 -0.003,-13.366 -1,-20 -0.667,6.821 -1.333,13.49 -2,20 0.326,-8.184 -0.008,-16.184 -1,-24 0,-1 0,-2 0,-3 1.333,-0.333 2.667,-0.667 4,-1 z"
         id="path1416" />
    </g>
    <g
       id="g1457"
       style="fill:#000000"
       transform="translate(28)">
      <path
         style="opacity:1;fill:#000000"
         fill="#151422"
         d="m 577.5,1007.5 c 0,4 0,8 0,12 6.98,0.67 13.98,1 21,1 4.443,1.3 9.109,1.97 14,2 0,1 0,2 0,3 -12.66,-0.78 -25.326,-1.45 -38,-2 0,-4 0,-8 0,-12 0,-1.33 0,-2.67 0,-4 0.667,-6.51 1.333,-13.179 2,-20 0.997,6.634 1.33,13.3 1,20 z"
         id="path1457" />
    </g>
  </g>
</svg>
