<?xml version="1.0" encoding="UTF-8" standalone="no"?>
<svg
   version="1.1"
   width="40"
   height="67.500076"
   viewBox="-11 41.5 40 67.500078"
   id="svg1"
   xmlns="http://www.w3.org/2000/svg"
   xmlns:svg="http://www.w3.org/2000/svg">
  <defs
     id="defs1" />
  <g
     id="ki"
     transform="translate(-355.5,-566.49992)">
    <g
       id="g883"
       style="fill:#000000">
      <path
         style="opacity:1;fill:#000000"
         fill="#1b1829"
         d="m 346.5,622.5 c 2.447,0.115 4.447,1.115 6,3 3.484,5.185 6.818,5.185 10,0 4.333,-2.667 8.667,-2.667 13,0 -0.321,1.548 -1.321,2.215 -3,2 -1.788,-1.122 -3.788,-1.289 -6,-0.5 -1.229,1.529 -2.729,2.696 -4.5,3.5 -4.384,6.977 -5.884,14.311 -4.5,22 -0.726,6.167 1.274,11.167 6,15 -1.333,0 -2,0.667 -2,2 -3.432,-2.104 -5.766,-5.104 -7,-9 -1.253,2.757 -3.087,5.091 -5.5,7 -0.333,-1 -0.667,-2 -1,-3 -0.671,0.752 -1.504,1.086 -2.5,1 1.622,-2.79 3.788,-5.123 6.5,-7 0.23,-6.437 1.063,-12.771 2.5,-19 1.275,-2.108 1.775,-4.442 1.5,-7 -2.329,-1.66 -4.662,-3.327 -7,-5 -0.95,0.522 -1.784,1.189 -2.5,2 -0.607,-0.124 -0.94,-0.457 -1,-1 -0.333,-0.667 -0.667,-1.333 -1,-2 0,-0.333 0,-0.667 0,-1 0.667,-1 1.333,-2 2,-3 z"
         id="path883" />
    </g>
    <g
       id="g924"
       style="fill:#000000">
      <path
         style="opacity:1;fill:#000000"
         fill="#100d18"
         d="m 363.5,667.5 c 3.204,1.401 6.537,2.401 10,3 3.644,0.723 7.311,1.723 11,3 -0.652,1.225 -1.819,1.892 -3.5,2 -4.865,-0.925 -9.699,-1.925 -14.5,-3 -0.762,-1.762 -2.096,-2.762 -4,-3 -0.333,0 -0.667,0 -1,0 0,-1.333 0.667,-2 2,-2 z"
         id="path924" />
    </g>
    <ellipse
       style="clip-rule:evenodd;fill:#000000;fill-rule:evenodd;stroke-width:8.665;image-rendering:optimizeQuality;shape-rendering:geometricPrecision;text-rendering:geometricPrecision"
       id="path1761-09"
       cx="367.12653"
       cy="613.30322"
       rx="5.126524"
       ry="5.3033009" />
  </g>
</svg>
