<?xml version='1.0' encoding='UTF-8'?>
<svg xmlns="http://www.w3.org/2000/svg" version="1.1" width="98.0" height="98.0" viewBox="-37.9341735 214.53646300000003 98.0 98.0" id="svg1">
  <defs id="defs1" />
  <g id="yu" transform="translate(-471.36835,-643.4261)">
    <g id="g1328" style="fill:#000000" transform="translate(28)">
      <path style="opacity:1;fill:#000000" fill="#181425" d="m 477.5,883.5 c 0,2.333 0,4.667 0,7 -0.725,4.631 -1.392,9.298 -2,14 -0.939,5.601 -1.772,11.268 -2.5,17 -2.745,3.251 -5.911,5.918 -9.5,8 -10.23,1.608 -20.23,1.275 -30,-1 0,-0.333 0,-0.667 0,-1 -1.774,-10.569 -2.441,-21.236 -2,-32 0.934,-1.068 1.268,-2.401 1,-4 0,-2 0,-4 0,-6 1,0 2,0 3,0 0,1.667 0,3.333 0,5 0,0.667 0,1.333 0,2 -1.074,8.298 -1.24,16.632 -0.5,25 0.47,3.615 1.637,6.949 3.5,10 6.153,1.153 12.486,1.32 19,0.5 1.237,-0.232 2.237,-0.732 3,-1.5 1.052,0.149 2.052,-0.017 3,-0.5 2.13,-1.832 4.297,-3.666 6.5,-5.5 0.977,-5.293 1.477,-10.626 1.5,-16 -11.409,4.28 -17.743,0.28 -19,-12 0,-2.333 0,-4.667 0,-7 1.868,-1.174 2.868,-0.507 3,2 0,1 0,2 0,3 0,0.667 0,1.333 0,2 0.706,9.19 5.372,12.024 14,8.5 1.746,-2.659 3.08,-5.492 4,-8.5 0.838,-0.342 1.172,-1.008 1,-2 0,-2 0,-4 0,-6 0.709,-0.904 1.709,-1.237 3,-1 z" id="path1328" />
    </g>
    <g id="g1329" style="fill:#000000" transform="translate(28)">
      <path style="opacity:1;fill:#000000" fill="#352f39" d="m 460.5,926.5 c -0.763,0.768 -1.763,1.268 -3,1.5 -6.514,0.82 -12.847,0.653 -19,-0.5 7.368,0.183 14.701,-0.15 22,-1 z" id="path1329" />
    </g>
  </g>
  <g id="x-reference" transform="translate(500,0)">
    <!-- k-series reference for vowel u -->

  <sodipodi:namedview
     id="namedview1"
     pagecolor="#ffffff"
     bordercolor="#000000"
     borderopacity="0.25"
     inkscape:showpageshadow="2"
     inkscape:pageopacity="0.0"
     inkscape:pagecheckerboard="0"
     inkscape:deskcolor="#d1d1d1"
     inkscape:zoom="8.1122449"
     inkscape:cx="49"
     inkscape:cy="49"
     inkscape:window-width="1920"
     inkscape:window-height="991"
     inkscape:window-x="-9"
     inkscape:window-y="-9"
     inkscape:window-maximized="1"
     inkscape:current-layer="svg1" />
  <defs
     id="defs1" />
  <g
     id="g1">
    <g
       id="g2"
       transform="translate(21.202499,-18.289477)">
      <path
         style="fill:none;stroke:#000000;stroke-width:8.665;stroke-opacity:1"
         id="path2"
         sodipodi:type="arc"
         sodipodi:cx="81.285629"
         sodipodi:cy="-20.5991"
         sodipodi:rx="23.325483"
         sodipodi:ry="23.53154"
         sodipodi:start="0"
         sodipodi:end="3.1452504"
         sodipodi:open="true"
         sodipodi:arc-type="arc"
         d="M 104.61111,-20.5991 A 23.325483,23.53154 0 0 1 92.923733,-0.2058585 23.325483,23.53154 0 0 1 69.573664,-0.24894012 23.325483,23.53154 0 0 1 57.960302,-20.685172"
         transform="rotate(90)" />
      <rect
         style="fill:none;stroke:#000000;stroke-width:8.665;stroke-opacity:1"
         id="rect2"
         width="0.74179983"
         height="9.0664425"
         x="-48.886719"
         y="28.824736"
         transform="rotate(-50.3642)" />
      <rect
         style="fill:none;stroke:#000000;stroke-width:8.665;stroke-opacity:1"
         id="rect2-8"
         width="0.74179983"
         height="9.0664425"
         x="72.478401"
         y="-72.7901"
         transform="matrix(0.6379053,0.77011481,0.77011481,-0.6379053,0,0)" />
    </g>
    <rect
       style="fill:#000000;stroke-width:8.665"
       id="rect1"
       width="9.8616352"
       height="50.047798"
       x="-10.639623"
       y="28.155344" />
    <path
       style="fill:#000000;stroke-width:8.665"
       id="path1"
       sodipodi:type="arc"
       sodipodi:cx="60.263493"
       sodipodi:cy="52.207909"
       sodipodi:rx="14.114466"
       sodipodi:ry="11.772327"
       sodipodi:start="0"
       sodipodi:end="3.1452504"
       sodipodi:arc-type="arc"
       d="M 74.377958,52.207909 A 14.114466,11.772327 0 0 1 67.305817,62.410212 14.114466,11.772327 0 0 1 53.176474,62.38866 14.114466,11.772327 0 0 1 46.149121,52.164849"
       sodipodi:open="true"
       transform="rotate(47.523367)" />
  </g>

  </g>
</svg>