<?xml version="1.0" encoding="UTF-8" standalone="no"?>
<svg
   version="1.1"
   width="98.0"
   height="98.0"
   viewBox="-37.9341735 214.53646300000003 98.0 98.0"
   id="svg1"
   sodipodi:docname="sitelen kalama pona - yun.svg"
   inkscape:version="1.4.2 (f4327f4, 2025-05-13)"
   xmlns:inkscape="http://www.inkscape.org/namespaces/inkscape"
   xmlns:sodipodi="http://sodipodi.sourceforge.net/DTD/sodipodi-0.dtd"
   xmlns="http://www.w3.org/2000/svg"
   xmlns:svg="http://www.w3.org/2000/svg">
  <sodipodi:namedview
     id="namedview1"
     pagecolor="#ffffff"
     bordercolor="#000000"
     borderopacity="0.25"
     inkscape:showpageshadow="2"
     inkscape:pageopacity="0.0"
     inkscape:pagecheckerboard="0"
     inkscape:deskcolor="#d1d1d1"
     inkscape:zoom="12.132653"
     inkscape:cx="48.958789"
     inkscape:cy="49"
     inkscape:window-width="2560"
     inkscape:window-height="1369"
     inkscape:window-x="1912"
     inkscape:window-y="-8"
     inkscape:window-maximized="1"
     inkscape:current-layer="svg1" />
  <defs
     id="defs1" />
  <g
     id="yu"
     transform="translate(-471.36835,-643.4261)">
    <g
       id="g1328"
       style="fill:#000000"
       transform="translate(28)">
      <path
         style="opacity:1;fill:#000000"
         fill="#181425"
         d="m 477.5,883.5 c 0,2.333 0,4.667 0,7 -0.725,4.631 -1.392,9.298 -2,14 -0.939,5.601 -1.772,11.268 -2.5,17 -2.745,3.251 -5.911,5.918 -9.5,8 -10.23,1.608 -20.23,1.275 -30,-1 0,-0.333 0,-0.667 0,-1 -1.774,-10.569 -2.441,-21.236 -2,-32 0.934,-1.068 1.268,-2.401 1,-4 0,-2 0,-4 0,-6 1,0 2,0 3,0 0,1.667 0,3.333 0,5 0,0.667 0,1.333 0,2 -1.074,8.298 -1.24,16.632 -0.5,25 0.47,3.615 1.637,6.949 3.5,10 6.153,1.153 12.486,1.32 19,0.5 1.237,-0.232 2.237,-0.732 3,-1.5 1.052,0.149 2.052,-0.017 3,-0.5 2.13,-1.832 4.297,-3.666 6.5,-5.5 0.977,-5.293 1.477,-10.626 1.5,-16 -11.409,4.28 -17.743,0.28 -19,-12 0,-2.333 0,-4.667 0,-7 1.868,-1.174 2.868,-0.507 3,2 0,1 0,2 0,3 0,0.667 0,1.333 0,2 0.706,9.19 5.372,12.024 14,8.5 1.746,-2.659 3.08,-5.492 4,-8.5 0.838,-0.342 1.172,-1.008 1,-2 0,-2 0,-4 0,-6 0.709,-0.904 1.709,-1.237 3,-1 z"
         id="path1328" />
    </g>
    <g
       id="g1329"
       style="fill:#000000"
       transform="translate(28)">
      <path
         style="opacity:1;fill:#000000"
         fill="#352f39"
         d="m 460.5,926.5 c -0.763,0.768 -1.763,1.268 -3,1.5 -6.514,0.82 -12.847,0.653 -19,-0.5 7.368,0.183 14.701,-0.15 22,-1 z"
         id="path1329" />
    </g>
  </g>
  <path
     d="m 21.396861,426.99599 a 22.163991,22.163991 0 0 1 -2.181168,3.98932 15.791455,15.791455 0 0 1 -3.113734,3.46083 c -1.165708,0.94811 -2.383227,1.42477 -3.668094,1.42477 -0.813407,0 -1.678619,-0.23314 -2.5904628,-0.69943 a 29.774767,29.774767 0 0 1 -2.730348,-1.62682 27.717941,27.717941 0 0 0 -2.7666113,-1.63199 5.7611868,5.7611868 0 0 0 -2.6163663,-0.69422 c -1.84440892,0 -3.5592945,1.56982 -5.149838,4.71463 l -1.688981,-0.88077 c 0.56472,-1.25376 1.300412,-2.56456 2.2122541,-3.92195 a 15.905435,15.905435 0 0 1 3.08264978,-3.49195 c 1.16570742,-0.94811 2.38322472,-1.42473 3.66809352,-1.42473 0.9325671,0 1.8651333,0.23314 2.792516,0.69942 0.948109,0.46629 1.8703161,1.00508 2.7614336,1.62679 0.9118434,0.62171 1.7977814,1.16571 2.6474504,1.63199 0.854853,0.46628 1.67862,0.69426 2.476484,0.69426 0.870396,0 1.75115,-0.37808 2.642272,-1.13463 0.896297,-0.75642 1.74079,-1.9273 2.538651,-3.52304 z"
     style="font-style:normal;font-variant:normal;font-weight:400;font-stretch:normal;font-size:11.5px;line-height:0;font-family:'Gentium Book Plus';-inkscape-font-specification:'Gentium Book Plus';font-variant-ligatures:normal;font-variant-caps:normal;font-variant-numeric:normal;font-feature-settings:normal;text-align:start;writing-mode:lr-tb;text-anchor:start;fill:#000006;fill-opacity:1;stroke:none;stroke-width:0.777139;stroke-linecap:square;stroke-linejoin:bevel;stroke-miterlimit:4;stroke-dasharray:none;stroke-dashoffset:0;stroke-opacity:1;paint-order:markers stroke fill"
     id="path1"
     inkscape:label="nasal" />
  <path
     d="m 19.57143,295.32398 a 22.163991,22.163991 0 0 1 -2.181168,3.98932 15.791455,15.791455 0 0 1 -3.113734,3.46083 c -1.165708,0.94811 -2.383227,1.42477 -3.668094,1.42477 -0.813407,0 -1.678619,-0.23314 -2.590463,-0.69943 a 29.774767,29.774767 0 0 1 -2.730348,-1.62682 27.717941,27.717941 0 0 0 -2.766611,-1.63199 5.7611868,5.7611868 0 0 0 -2.616366,-0.69422 c -1.844409,0 -3.559295,1.56982 -5.149838,4.71463 l -1.688981,-0.88077 c 0.56472,-1.25376 1.300412,-2.56456 2.212254,-3.92195 a 15.905435,15.905435 0 0 1 3.08265,-3.49195 c 1.165707,-0.94811 2.383224,-1.42473 3.668093,-1.42473 0.932567,0 1.865133,0.23314 2.792516,0.69942 0.948109,0.46629 1.870316,1.00508 2.761434,1.62679 0.911843,0.62171 1.797781,1.16571 2.64745,1.63199 0.854853,0.46628 1.67862,0.69426 2.476484,0.69426 0.870396,0 1.75115,-0.37808 2.642272,-1.13463 0.896297,-0.75642 1.74079,-1.9273 2.538651,-3.52304 z"
     style="font-style:normal;font-variant:normal;font-weight:400;font-stretch:normal;font-size:11.5px;line-height:0;font-family:'Gentium Book Plus';-inkscape-font-specification:'Gentium Book Plus';font-variant-ligatures:normal;font-variant-caps:normal;font-variant-numeric:normal;font-feature-settings:normal;text-align:start;writing-mode:lr-tb;text-anchor:start;fill:#000006;fill-opacity:1;stroke:none;stroke-width:0.777139;stroke-linecap:square;stroke-linejoin:bevel;stroke-miterlimit:4;stroke-dasharray:none;stroke-dashoffset:0;stroke-opacity:1;paint-order:markers stroke fill"
     id="path1-1"
     inkscape:label="nasal" />
  <g id="x-reference" transform="translate(500,0)">
    <!-- k-series reference for vowel un -->

  <sodipodi:namedview
     id="namedview1"
     pagecolor="#ffffff"
     bordercolor="#000000"
     borderopacity="0.25"
     inkscape:showpageshadow="2"
     inkscape:pageopacity="0.0"
     inkscape:pagecheckerboard="0"
     inkscape:deskcolor="#d1d1d1"
     inkscape:zoom="8.5790812"
     inkscape:cx="52.744576"
     inkscape:cy="45.517695"
     inkscape:window-width="1920"
     inkscape:window-height="991"
     inkscape:window-x="-9"
     inkscape:window-y="-9"
     inkscape:window-maximized="1"
     inkscape:current-layer="svg1" />
  <defs
     id="defs1" />
  <path
     d="m 21.396861,426.99599 a 22.163991,22.163991 0 0 1 -2.181168,3.98932 15.791455,15.791455 0 0 1 -3.113734,3.46083 c -1.165708,0.94811 -2.383227,1.42477 -3.668094,1.42477 -0.813407,0 -1.678619,-0.23314 -2.5904628,-0.69943 a 29.774767,29.774767 0 0 1 -2.730348,-1.62682 27.717941,27.717941 0 0 0 -2.7666113,-1.63199 5.7611868,5.7611868 0 0 0 -2.6163663,-0.69422 c -1.84440892,0 -3.5592945,1.56982 -5.149838,4.71463 l -1.688981,-0.88077 c 0.56472,-1.25376 1.300412,-2.56456 2.2122541,-3.92195 a 15.905435,15.905435 0 0 1 3.08264978,-3.49195 c 1.16570742,-0.94811 2.38322472,-1.42473 3.66809352,-1.42473 0.9325671,0 1.8651333,0.23314 2.792516,0.69942 0.948109,0.46629 1.8703161,1.00508 2.7614336,1.62679 0.9118434,0.62171 1.7977814,1.16571 2.6474504,1.63199 0.854853,0.46628 1.67862,0.69426 2.476484,0.69426 0.870396,0 1.75115,-0.37808 2.642272,-1.13463 0.896297,-0.75642 1.74079,-1.9273 2.538651,-3.52304 z"
     style="font-style:normal;font-variant:normal;font-weight:400;font-stretch:normal;font-size:11.5px;line-height:0;font-family:'Gentium Book Plus';-inkscape-font-specification:'Gentium Book Plus';font-variant-ligatures:normal;font-variant-caps:normal;font-variant-numeric:normal;font-feature-settings:normal;text-align:start;writing-mode:lr-tb;text-anchor:start;fill:#000006;fill-opacity:1;stroke:none;stroke-width:0.777139;stroke-linecap:square;stroke-linejoin:bevel;stroke-miterlimit:4;stroke-dasharray:none;stroke-dashoffset:0;stroke-opacity:1;paint-order:markers stroke fill"
     id="path1"
     inkscape:label="nasal" />
  <path
     d="m 28.005603,95.28752 a 22.163991,22.163991 0 0 1 -2.181168,3.98932 15.791455,15.791455 0 0 1 -3.113734,3.46083 c -1.165708,0.94811 -2.383227,1.42477 -3.668094,1.42477 -0.813407,0 -1.678619,-0.23314 -2.590463,-0.69943 a 29.774767,29.774767 0 0 1 -2.730348,-1.62682 27.717941,27.717941 0 0 0 -2.766611,-1.63199 5.7611868,5.7611868 0 0 0 -2.616366,-0.69422 c -1.844409,0 -3.559295,1.56982 -5.149838,4.71463 L 1.5,103.34384 c 0.56472,-1.25376 1.300412,-2.56456 2.212254,-3.92195 a 15.905435,15.905435 0 0 1 3.08265,-3.49195 c 1.165707,-0.94811 2.383224,-1.42473 3.668093,-1.42473 0.932567,0 1.865133,0.23314 2.792516,0.69942 0.948109,0.46629 1.870316,1.00508 2.761434,1.62679 0.911843,0.62171 1.797781,1.16571 2.64745,1.63199 0.854853,0.46628 1.67862,0.69426 2.476484,0.69426 0.870396,0 1.75115,-0.37808 2.642272,-1.13463 0.896297,-0.75642 1.74079,-1.9273 2.538651,-3.52304 z"
     style="font-style:normal;font-variant:normal;font-weight:400;font-stretch:normal;font-size:11.5px;line-height:0;font-family:'Gentium Book Plus';-inkscape-font-specification:'Gentium Book Plus';font-variant-ligatures:normal;font-variant-caps:normal;font-variant-numeric:normal;font-feature-settings:normal;text-align:start;writing-mode:lr-tb;text-anchor:start;fill:#000006;fill-opacity:1;stroke:none;stroke-width:0.777139;stroke-linecap:square;stroke-linejoin:bevel;stroke-miterlimit:4;stroke-dasharray:none;stroke-dashoffset:0;stroke-opacity:1;paint-order:markers stroke fill"
     id="path1-8"
     inkscape:label="nasal" />
  <g
     id="g3"
     transform="translate(-3.7406455,0.85996978)">
    <g
       id="g2"
       transform="translate(21.202499,-18.289477)">
      <path
         style="fill:none;stroke:#000000;stroke-width:8.665;stroke-opacity:1"
         id="path2"
         sodipodi:type="arc"
         sodipodi:cx="81.285629"
         sodipodi:cy="-20.5991"
         sodipodi:rx="23.325483"
         sodipodi:ry="23.53154"
         sodipodi:start="0"
         sodipodi:end="3.1452504"
         sodipodi:open="true"
         sodipodi:arc-type="arc"
         d="M 104.61111,-20.5991 A 23.325483,23.53154 0 0 1 92.923733,-0.2058585 23.325483,23.53154 0 0 1 69.573664,-0.24894012 23.325483,23.53154 0 0 1 57.960302,-20.685172"
         transform="rotate(90)" />
      <rect
         style="fill:none;stroke:#000000;stroke-width:8.665;stroke-opacity:1"
         id="rect2"
         width="0.74179983"
         height="9.0664425"
         x="-48.886719"
         y="28.824736"
         transform="rotate(-50.3642)" />
      <rect
         style="fill:none;stroke:#000000;stroke-width:8.665;stroke-opacity:1"
         id="rect2-8"
         width="0.74179983"
         height="9.0664425"
         x="72.478401"
         y="-72.7901"
         transform="matrix(0.6379053,0.77011481,0.77011481,-0.6379053,0,0)" />
    </g>
    <rect
       style="fill:#000000;stroke-width:8.665"
       id="rect1"
       width="9.8616352"
       height="50.047798"
       x="-10.639623"
       y="28.155344" />
    <path
       style="fill:#000000;stroke-width:8.665"
       id="path1-7"
       sodipodi:type="arc"
       sodipodi:cx="60.263493"
       sodipodi:cy="52.207909"
       sodipodi:rx="14.114466"
       sodipodi:ry="11.772327"
       sodipodi:start="0"
       sodipodi:end="3.1452504"
       sodipodi:arc-type="arc"
       d="M 74.377958,52.207909 A 14.114466,11.772327 0 0 1 67.305817,62.410212 14.114466,11.772327 0 0 1 53.176474,62.38866 14.114466,11.772327 0 0 1 46.149121,52.164849"
       sodipodi:open="true"
       transform="rotate(47.523367)" />
  </g>

  </g>
  <g id="yo-reference" transform="translate(6000,0)">
    <!-- yo.svg reference -->

  <defs
     id="defs1" />
  <g
     id="x-reference"
     transform="translate(500,0)">
    <!-- k-series reference for vowel o -->
    <sodipodi:namedview
       id="namedview1"
       pagecolor="#ffffff"
       bordercolor="#000000"
       borderopacity="0.25"
       inkscape:showpageshadow="2"
       inkscape:pageopacity="0.0"
       inkscape:pagecheckerboard="0"
       inkscape:deskcolor="#d1d1d1"
       inkscape:zoom="4.0561225"
       inkscape:cx="51.157233"
       inkscape:cy="32.173585"
       inkscape:window-width="1920"
       inkscape:window-height="991"
       inkscape:window-x="-9"
       inkscape:window-y="-9"
       inkscape:window-maximized="1"
       inkscape:current-layer="svg1" />
    <defs
       id="defs2" />
    <g
       id="g2"
       transform="translate(55.446241,8.1329893)">
      <path
         style="fill:none;stroke:#000000;stroke-width:8.665;stroke-opacity:1"
         id="path2"
         sodipodi:type="arc"
         sodipodi:cx="81.285629"
         sodipodi:cy="-20.5991"
         sodipodi:rx="23.325483"
         sodipodi:ry="23.53154"
         sodipodi:start="0"
         sodipodi:end="3.1452504"
         sodipodi:open="true"
         sodipodi:arc-type="arc"
         d="M 104.61111,-20.5991 A 23.325483,23.53154 0 0 1 92.923733,-0.2058585 23.325483,23.53154 0 0 1 69.573664,-0.24894012 23.325483,23.53154 0 0 1 57.960302,-20.685172"
         transform="rotate(90)" />
      <rect
         style="fill:none;stroke:#000000;stroke-width:8.665;stroke-opacity:1"
         id="rect2"
         width="0.74179983"
         height="9.0664425"
         x="-48.886719"
         y="28.824736"
         transform="rotate(-50.3642)" />
      <rect
         style="fill:none;stroke:#000000;stroke-width:8.665;stroke-opacity:1"
         id="rect2-8"
         width="0.74179983"
         height="9.0664425"
         x="72.478401"
         y="-72.7901"
         transform="matrix(0.6379053,0.77011481,0.77011481,-0.6379053,0,0)" />
    </g>
    <circle
       style="fill:none;stroke:#000000;stroke-width:3;stroke-dasharray:none;stroke-opacity:1"
       id="path3"
       cx="61.301384"
       cy="49.342712"
       r="4.6454606" />
  </g>
  <circle
     style="fill:none;stroke:#000000;stroke-width:3;stroke-dasharray:none;stroke-opacity:1"
     id="path3-0"
     cx="48.246731"
     cy="256.03726"
     r="4.6454606" />
  <g
     id="use141"
     transform="matrix(78.987426,0,0,-78.987426,7.920755,320.79832)">
    <path
       d="M 0.758,0.646 C 0.725,0.646 0.704,0.636 0.696,0.618 0.69076582,0.59982288 0.68873552,0.58087341 0.69,0.562 V 0.215 C 0.69280986,0.16067974 0.67692846,0.10703589 0.645,0.063 0.61069507,0.02020042 0.58307284,-0.00328825 0.52832049,0 0.48083373,0.00242187 0.46020299,0.01762378 0.42064097,0.044 c -0.0297789,0.02169143 -0.0385684,0.03669982 -0.0746795,0.044 -0.03,0 -0.0276795,-0.015 -0.0476795,-0.045 -0.02,-0.029 -0.038,-0.043 -0.054,-0.043 -0.0107523,1.7620129e-4 -0.0209266,0.00489995 -0.028,0.013 -0.00773,0.0072514 -0.0120798,0.0174016 -0.012,0.028 0,0.027 0.017,0.048 0.05,0.063 0.0289214,0.0129441 0.0349965,0.019428 0.0666795,0.019 0.0481196,-0.00236 0.069411,-0.0175516 0.10967951,-0.044 0.0412625,-0.02669076 0.0635826,-0.04188053 0.11267952,-0.044 0.06,0 0.0656795,0.06 0.0656795,0.179 V 0.298 C 0.59046506,0.27886579 0.57145924,0.26019341 0.552,0.242 0.52527937,0.21720095 0.49044203,0.20298162 0.454,0.202 0.393,0.203 0.33921839,0.26609843 0.337,0.322 v 0.24 0.043 C 0.334734,0.6192034 0.3258141,0.6314676 0.313,0.638 0.2977797,0.644152 0.2813929,0.646883 0.265,0.646 V 0.663 H 0.491 V 0.646 C 0.451,0.646 0.428,0.634 0.421,0.61 0.41851916,0.59412705 0.41751487,0.57805832 0.418,0.562 V 0.37 c 0,-0.037 0.006,-0.063 0.017,-0.08 0.0134661,-0.0197033 0.0361577,-0.0310492 0.06,-0.03 0.0182256,2.862e-4 0.0360943,0.005097 0.052,0.014 0.027,0.015 0.048,0.03 0.062,0.048 v 0.24 C 0.61,0.605 0.601,0.63 0.585,0.639 0.5696434,0.644577 0.5533097,0.646959 0.537,0.646 v 0.017 h 0.22 V 0.646 Z"
       id="path4"
       sodipodi:nodetypes="ccccccccccccccccscccccccccccccsccccccccccc" />
  </g>

  </g>
</svg>
