<?xml version='1.0' encoding='UTF-8'?>
<svg xmlns="http://www.w3.org/2000/svg" xmlns:inkscape="http://www.inkscape.org/namespaces/inkscape" version="1.1" width="98.0" height="98.0" viewBox="-31.0 119.63880900000001 98.0 98.0" id="svg1">
  <defs id="defs1" />
  <g id="sa" transform="translate(-201.5,-572.22238)">
    <g id="g995" style="fill:#000000">
      <path style="opacity:1;fill:#000000" fill="#161323" d="m 219.5,712.5 c 12.022,0.45 24.022,1.284 36,2.5 1.57,1.397 2.904,2.897 4,4.5 0,0.333 0,0.667 0,1 -0.342,0.838 -1.008,1.172 -2,1 -1.306,-0.967 -1.973,-2.301 -2,-4 -3,0 -6,0 -9,0 -2.667,0.333 -5.333,0.667 -8,1 -1.904,0.238 -3.238,1.238 -4,3 -1.879,3.356 -2.379,7.023 -1.5,11 3.203,6.042 7.37,11.376 12.5,16 4.315,5.724 3.648,10.724 -2,15 -1.679,0.215 -2.679,-0.452 -3,-2 3.556,-1.587 4.722,-4.254 3.5,-8 -2.595,-5.754 -6.428,-10.421 -11.5,-14 -0.628,-2.59 -1.795,-4.923 -3.5,-7 -0.497,-2.646 -0.664,-5.313 -0.5,-8 0.904,-0.709 1.237,-1.709 1,-3 0,-0.333 0,-0.667 0,-1 1.634,-0.707 2.968,-1.873 4,-3.5 -4.22,-1.104 -8.553,-1.604 -13,-1.5 -7.175,-0.718 -13.841,0.615 -20,4 -1.69,0.356 -2.69,1.356 -3,3 0,1.667 0,3.333 0,5 0.166,4.014 -0.001,8.014 -0.5,12 -0.278,-0.916 -0.778,-1.582 -1.5,-2 0.268,-1.599 -0.066,-2.932 -1,-4 0,-3.333 0,-6.667 0,-10 -0.333,-0.667 -0.667,-1.333 -1,-2 6.943,-7.255 15.61,-10.255 26,-9 z" id="path995" />
    </g>
    <g id="g1046" style="fill:#000000">
      <path style="opacity:1;fill:#000000" fill="#292836" d="m 197.5,727.5 c 0.667,4 1.333,8 2,12 0.333,2.667 0.667,5.333 1,8 0,3.333 0,6.667 0,10 -0.817,-2.469 -1.317,-5.135 -1.5,-8 -0.179,3.525 -0.679,6.859 -1.5,10 0.348,-7.455 -0.318,-14.788 -2,-22 0.722,0.418 1.222,1.084 1.5,2 0.499,-3.986 0.666,-7.986 0.5,-12 z" id="path1046" />
    </g>
    <g id="g1079" style="fill:#000000">
      <path style="opacity:1;fill:#000000" fill="#110f1c" d="m 200.5,757.5 c -0.12,4.115 -2.12,6.781 -6,8 -4.949,1.279 -9.949,1.279 -15,0 3.477,-0.667 6.811,-1.334 10,-2 3.421,-0.018 6.088,-1.351 8,-4 0.821,-3.141 1.321,-6.475 1.5,-10 0.183,2.865 0.683,5.531 1.5,8 z" id="path1079" />
    </g>
    <g id="g1086" style="fill:#000000">
      <path style="opacity:1;fill:#000000" fill="#1a1724" d="m 239.5,762.5 c 0,1.333 0,2.667 0,4 -2.687,-0.164 -5.354,0.003 -8,0.5 -0.916,0.278 -1.582,0.778 -2,1.5 -1.716,0.129 -3.383,0.462 -5,1 0.027,-1.699 0.694,-3.033 2,-4 4.686,0.381 9.019,-0.619 13,-3 z" id="path1086" />
    </g>
  </g>
<path d="m 21.396861,426.99599 a 22.163991,22.163991 0 0 1 -2.181168,3.98932 15.791455,15.791455 0 0 1 -3.113734,3.46083 c -1.165708,0.94811 -2.383227,1.42477 -3.668094,1.42477 -0.813407,0 -1.678619,-0.23314 -2.5904628,-0.69943 a 29.774767,29.774767 0 0 1 -2.730348,-1.62682 27.717941,27.717941 0 0 0 -2.7666113,-1.63199 5.7611868,5.7611868 0 0 0 -2.6163663,-0.69422 c -1.84440892,0 -3.5592945,1.56982 -5.149838,4.71463 l -1.688981,-0.88077 c 0.56472,-1.25376 1.300412,-2.56456 2.2122541,-3.92195 a 15.905435,15.905435 0 0 1 3.08264978,-3.49195 c 1.16570742,-0.94811 2.38322472,-1.42473 3.66809352,-1.42473 0.9325671,0 1.8651333,0.23314 2.792516,0.69942 0.948109,0.46629 1.8703161,1.00508 2.7614336,1.62679 0.9118434,0.62171 1.7977814,1.16571 2.6474504,1.63199 0.854853,0.46628 1.67862,0.69426 2.476484,0.69426 0.870396,0 1.75115,-0.37808 2.642272,-1.13463 0.896297,-0.75642 1.74079,-1.9273 2.538651,-3.52304 z" style="font-style:normal;font-variant:normal;font-weight:400;font-stretch:normal;font-size:11.5px;line-height:0;font-family:'Gentium Book Plus';-inkscape-font-specification:'Gentium Book Plus';font-variant-ligatures:normal;font-variant-caps:normal;font-variant-numeric:normal;font-feature-settings:normal;text-align:start;writing-mode:lr-tb;text-anchor:start;fill:#000006;fill-opacity:1;stroke:none;stroke-width:0.777139;stroke-linecap:square;stroke-linejoin:bevel;stroke-miterlimit:4;stroke-dasharray:none;stroke-dashoffset:0;stroke-opacity:1;paint-order:markers stroke fill" id="path1" inkscape:label="nasal" />
</svg>