<?xml version='1.0' encoding='UTF-8'?>
<svg xmlns="http://www.w3.org/2000/svg" xmlns:inkscape="http://www.inkscape.org/namespaces/inkscape" version="1.1" width="98.0" height="98.0" viewBox="-28.5 -220.089304 98.0 98.0" id="svg1">
  <defs id="defs1" />
  <g id="ma" transform="translate(-208,-444.67861)">
    <g id="g205" style="fill:#000000">
      <path style="opacity:1;fill:#000000" fill="#5c5969" d="m 195.5,256.5 c 1.068,-0.934 2.401,-1.268 4,-1 7.032,-0.33 14.032,0.003 21,1 -0.355,1.022 -1.022,1.689 -2,2 -7.26,-1.965 -14.927,-2.632 -23,-2 z" id="path205" />
    </g>
    <g id="g223" style="fill:#000000">
      <path style="opacity:1;fill:#000000" fill="#24202f" d="m 275.5,279.5 c -0.306,2.885 0.027,5.552 1,8 -0.134,1.792 0.199,3.458 1,5 0,2.333 0,4.667 0,7 -3.279,-0.531 -4.613,-2.531 -4,-6 0.295,-2.235 -0.039,-4.235 -1,-6 0.15,-4.8 -0.516,-9.467 -2,-14 0.09,-2.652 -0.576,-4.985 -2,-7 -1.132,-7.797 -5.465,-12.797 -13,-15 -5.552,0.884 -8.885,4.218 -10,10 -1.413,10.203 -1.08,20.203 1,30 0,0.667 0,1.333 0,2 -1,0 -2,0 -3,0 -0.617,-4.769 -1.284,-9.436 -2,-14 -0.575,-5.469 -1.241,-10.802 -2,-16 -1.756,-6.916 -6.089,-9.416 -13,-7.5 -6.904,4.178 -10.57,10.345 -11,18.5 -0.99,5.81 -1.323,11.81 -1,18 -0.321,1.548 -1.321,2.215 -3,2 -0.333,0 -0.667,0 -1,0 0,-0.667 0,-1.333 0,-2 0.58,-4.31 0.914,-8.643 1,-13 0,-1.667 0,-3.333 0,-5 1.096,-3.566 2.262,-7.232 3.5,-11 0.697,-2.084 1.864,-3.751 3.5,-5 0.978,-0.311 1.645,-0.978 2,-2 -6.968,-0.997 -13.968,-1.33 -21,-1 -0.111,-0.617 -0.444,-1.117 -1,-1.5 2.536,-0.186 4.869,-0.686 7,-1.5 6.423,0.291 12.756,-0.042 19,-1 8.152,-1.257 14.152,1.743 18,9 5.737,-15.224 14.237,-16.89 25.5,-5 3.443,7.794 5.943,15.794 7.5,24 z" id="path223" />
    </g>
    <g id="g239" style="fill:#000000">
      <path style="opacity:1;fill:#000000" fill="#5e5763" d="m 268.5,266.5 c 1.424,2.015 2.09,4.348 2,7 -1.663,-1.938 -2.329,-4.272 -2,-7 z" id="path239" />
    </g>
    <g id="g242" style="fill:#000000">
      <path style="opacity:1;fill:#000000" fill="#211b30" d="m 192.5,284.5 c -0.84,-8.638 -1.173,-17.305 -1,-26 0.658,-0.898 1.324,-1.898 2,-3 0.333,0.167 0.667,0.333 1,0.5 -0.655,9.598 -1.322,19.098 -2,28.5 z" id="path242" />
    </g>
    <g id="g301" style="fill:#000000">
      <path style="opacity:1;fill:#000000" fill="#2c283c" d="m 205.5,252.5 c -2.131,0.814 -4.464,1.314 -7,1.5 0.556,0.383 0.889,0.883 1,1.5 -1.599,-0.268 -2.932,0.066 -4,1 -1.417,11.68 -1.083,23.347 1,35 0,1.333 0,2.667 0,4 -5.102,0.621 -10.102,1.287 -15,2 -1,-0.333 -1.667,-1 -2,-2 4.073,-1.635 8.406,-2.635 13,-3 0,-2.667 0,-5.333 0,-8 0.678,-9.402 1.345,-18.902 2,-28.5 -0.333,-0.167 -0.667,-0.333 -1,-0.5 -0.676,1.102 -1.342,2.102 -2,3 -0.214,-1.644 0.12,-3.144 1,-4.5 4.251,-1.195 8.585,-1.695 13,-1.5 z" id="path301" />
    </g>
    <g id="g313" style="fill:#000000">
      <path style="opacity:1;fill:#000000" fill="#736f79" d="m 196.5,295.5 c -4.556,1.942 -9.556,2.608 -15,2 4.898,-0.713 9.898,-1.379 15,-2 z" id="path313" />
    </g>
  </g>
<path d="m 21.396861,426.99599 a 22.163991,22.163991 0 0 1 -2.181168,3.98932 15.791455,15.791455 0 0 1 -3.113734,3.46083 c -1.165708,0.94811 -2.383227,1.42477 -3.668094,1.42477 -0.813407,0 -1.678619,-0.23314 -2.5904628,-0.69943 a 29.774767,29.774767 0 0 1 -2.730348,-1.62682 27.717941,27.717941 0 0 0 -2.7666113,-1.63199 5.7611868,5.7611868 0 0 0 -2.6163663,-0.69422 c -1.84440892,0 -3.5592945,1.56982 -5.149838,4.71463 l -1.688981,-0.88077 c 0.56472,-1.25376 1.300412,-2.56456 2.2122541,-3.92195 a 15.905435,15.905435 0 0 1 3.08264978,-3.49195 c 1.16570742,-0.94811 2.38322472,-1.42473 3.66809352,-1.42473 0.9325671,0 1.8651333,0.23314 2.792516,0.69942 0.948109,0.46629 1.8703161,1.00508 2.7614336,1.62679 0.9118434,0.62171 1.7977814,1.16571 2.6474504,1.63199 0.854853,0.46628 1.67862,0.69426 2.476484,0.69426 0.870396,0 1.75115,-0.37808 2.642272,-1.13463 0.896297,-0.75642 1.74079,-1.9273 2.538651,-3.52304 z" style="font-style:normal;font-variant:normal;font-weight:400;font-stretch:normal;font-size:11.5px;line-height:0;font-family:'Gentium Book Plus';-inkscape-font-specification:'Gentium Book Plus';font-variant-ligatures:normal;font-variant-caps:normal;font-variant-numeric:normal;font-feature-settings:normal;text-align:start;writing-mode:lr-tb;text-anchor:start;fill:#000006;fill-opacity:1;stroke:none;stroke-width:0.777139;stroke-linecap:square;stroke-linejoin:bevel;stroke-miterlimit:4;stroke-dasharray:none;stroke-dashoffset:0;stroke-opacity:1;paint-order:markers stroke fill" id="path1" inkscape:label="nasal" />
</svg>