<?xml version="1.0" encoding="UTF-8" standalone="no"?>
<svg
   version="1.1"
   width="54"
   height="56.232288"
   viewBox="22 -201 54 56.232288"
   id="svg1"
   xmlns="http://www.w3.org/2000/svg"
   xmlns:svg="http://www.w3.org/2000/svg">
  <defs
     id="defs1" />
  <g
     id="me"
     transform="translate(-603.5,-432.26771)">
    <g
       id="g166"
       style="fill:#000000">
      <path
         style="opacity:1;fill:#000000"
         fill="#252132"
         d="m 652.5,231.5 c 7.816,0.992 15.816,1.326 24,1 0,1 0,2 0,3 -9.006,-0.2 -18.006,-0.534 -27,-1 -2.687,-0.164 -5.354,0.003 -8,0.5 -1.824,0.66 -3.157,1.827 -4,3.5 -2.034,1.048 -3.367,2.714 -4,5 1.387,0.307 3.054,0.307 5,0 -0.6,1.4 -1.6,2.4 -3,3 -3.332,3.667 -5.332,8 -6,13 -0.998,7.972 -1.331,15.972 -1,24 0.343,1.983 -0.324,3.317 -2,4 0.268,-1.599 -0.066,-2.932 -1,-4 0,-6 0,-12 0,-18 0.993,-5.277 1.66,-10.61 2,-16 1.659,-3.295 3.326,-6.628 5,-10 0.901,-0.79 1.568,-1.79 2,-3 0.667,-1.333 1.667,-2.333 3,-3 4.771,-1.818 9.771,-2.485 15,-2 z"
         id="path166" />
    </g>
    <g
       id="g168"
       style="fill:#000000">
      <path
         style="opacity:1;fill:#000000"
         fill="#484553"
         d="m 652.5,231.5 c 8.734,-0.635 17.067,0.032 25,2 0.282,1.278 0.949,2.278 2,3 -1,0 -2,0 -3,0 -9.227,0.377 -18.227,-0.289 -27,-2 8.994,0.466 17.994,0.8 27,1 0,-1 0,-2 0,-3 -8.184,0.326 -16.184,-0.008 -24,-1 z"
         id="path168" />
    </g>
    <g
       id="g185"
       style="fill:#000000">
      <path
         style="opacity:1;fill:#000000"
         fill="#2c2836"
         d="m 668.5,249.5 c 0,0.333 0,0.667 0,1 -0.17,4.775 -1.17,5.108 -3,1 -1.753,-7.245 -5.753,-8.745 -12,-4.5 -0.886,1.615 -1.886,3.115 -3,4.5 -0.838,0.342 -1.172,1.008 -1,2 -0.333,0 -0.667,0 -1,0 -0.321,-1.548 -1.321,-2.215 -3,-2 0,1 0,2 0,3 -1.853,-4.52 -5.187,-7.187 -10,-8 1.4,-0.6 2.4,-1.6 3,-3 3.886,0.883 6.553,3.217 8,7 2.827,-3.659 6.16,-6.826 10,-9.5 1.667,-0.667 3.333,-0.667 5,0 2.954,2.441 5.287,5.275 7,8.5 z"
         id="path185" />
    </g>
    <g
       id="g209"
       style="fill:#000000">
      <path
         style="opacity:1;fill:#000000"
         fill="#4f4c54"
         d="m 668.5,250.5 c 0.333,0 0.667,0 1,0 -0.099,2.737 0.235,5.404 1,8 -2.098,-1.414 -3.098,-0.748 -3,2 -1.157,-2.773 -1.824,-5.773 -2,-9 1.83,4.108 2.83,3.775 3,-1 z"
         id="path209" />
    </g>
    <g
       id="g214"
       style="fill:#000000">
      <path
         style="opacity:1;fill:#000000"
         fill="#221d31"
         d="m 648.5,253.5 c -0.124,5.569 0.543,10.902 2,16 0,0.667 0,1.333 0,2 0,4.667 0,9.333 0,14 -1.785,-4.567 -2.618,-9.567 -2.5,-15 -0.383,-0.556 -0.883,-0.889 -1.5,-1 -0.664,-4.973 -0.997,-9.973 -1,-15 0,-1 0,-2 0,-3 1.679,-0.215 2.679,0.452 3,2 z"
         id="path214" />
    </g>
    <g
       id="g236"
       style="fill:#000000">
      <path
         style="opacity:1;fill:#000000"
         fill="#56515c"
         d="m 648.5,253.5 c 0.333,0 0.667,0 1,0 0.333,5.333 0.667,10.667 1,16 -1.457,-5.098 -2.124,-10.431 -2,-16 z"
         id="path236" />
    </g>
    <g
       id="g244"
       style="fill:#000000">
      <path
         style="opacity:1;fill:#000000"
         fill="#2d2835"
         d="m 670.5,258.5 c 1.49,6.584 2.49,13.25 3,20 0.308,2.424 -0.026,4.757 -1,7 -0.667,-4.817 -1.334,-9.483 -2,-14 -0.667,-1.333 -1.333,-2.667 -2,-4 -0.174,-2.361 -0.507,-4.694 -1,-7 -0.098,-2.748 0.902,-3.414 3,-2 z"
         id="path244" />
    </g>
    <g
       id="g272"
       style="fill:#000000">
      <path
         style="opacity:1;fill:#000000"
         fill="#3f3a4b"
         d="m 646.5,269.5 c 0.617,0.111 1.117,0.444 1.5,1 -0.118,5.433 0.715,10.433 2.5,15 -1,1.333 -2,1.333 -3,0 0.318,-4.532 -0.015,-8.866 -1,-13 0,-1 0,-2 0,-3 z"
         id="path272" />
    </g>
  </g>
</svg>
