<?xml version='1.0' encoding='UTF-8'?>
<svg xmlns="http://www.w3.org/2000/svg" xmlns:inkscape="http://www.inkscape.org/namespaces/inkscape" version="1.1" width="98.0" height="98.0" viewBox="0.5 115.0147475 98.0 98.0" id="svg1">
  <defs id="defs1" />
  <g id="se" transform="translate(-593.5,-561.48422)">
    <g id="g960" style="fill:#000000" transform="translate(22)">
      <path style="opacity:1;fill:#000000" fill="#191325" d="m 606.5,690.5 c 12.681,-0.095 25.348,0.239 38,1 0.624,0.417 0.957,1.084 1,2 -0.247,1.213 -0.914,1.88 -2,2 -2,0 -4,0 -6,0 -10.185,-1.471 -20.518,-1.804 -31,-1 -0.689,-1.274 -1.523,-1.274 -2.5,0 -0.464,-0.594 -0.631,-1.261 -0.5,-2 1.21,-0.432 2.21,-1.099 3,-2 z" id="path960" />
    </g>
    <g id="g989" style="fill:#000000" transform="translate(22)">
      <path style="opacity:1;fill:#000000" fill="#201d2e" d="m 603.5,692.5 c -0.131,0.739 0.036,1.406 0.5,2 0.977,-1.274 1.811,-1.274 2.5,0 -0.672,0.767 -1.505,1.434 -2.5,2 0.811,3.563 1.811,7.23 3,11 2.253,2.88 5.086,3.546 8.5,2 4.553,-6.773 10.886,-9.44 19,-8 1.062,1.075 1.062,2.075 0,3 -2.143,-1.254 -4.143,-1.254 -6,0 -1.903,0.296 -3.57,0.963 -5,2 -1.904,0.238 -3.238,1.238 -4,3 -0.838,0.342 -1.172,1.008 -1,2 -2.085,2.184 -3.085,4.851 -3,8 -1.301,1.384 -1.301,2.884 0,4.5 -0.585,1.302 -1.251,2.469 -2,3.5 -2.607,-4.88 -4.94,-9.88 -7,-15 -0.489,-1.495 -1.155,-2.829 -2,-4 -1.395,-3.796 -2.728,-7.63 -4,-11.5 0.022,-2.183 1.022,-3.683 3,-4.5 z" id="path989" />
    </g>
    <g id="g1028" style="fill:#000000" transform="translate(22)">
      <path style="opacity:1;fill:#000000" fill="#454147" d="m 615.5,719.5 c 0.267,2.465 0.934,4.799 2,7 0.106,3.795 2.106,6.795 6,9 0,0.667 0,1.333 0,2 -3.667,-3 -7,-6.333 -10,-10 0.749,-1.031 1.415,-2.198 2,-3.5 -1.301,-1.616 -1.301,-3.116 0,-4.5 z" id="path1028" />
    </g>
    <g id="g1035" style="fill:#000000" transform="translate(22)">
      <path style="opacity:1;fill:#000000" fill="#1f1c1e" d="m 617.5,726.5 c 2.667,3 5.333,6 8,9 -0.667,0 -1.333,0 -2,0 -3.894,-2.205 -5.894,-5.205 -6,-9 z" id="path1035" />
    </g>
    <g id="g1038" style="fill:#000000" transform="translate(22)">
      <path style="opacity:1;fill:#000000" fill="#262030" d="m 623.5,735.5 h 2 c 3.671,2.749 4.837,6.416 3.5,11 -2.4,2.229 -4.567,4.563 -6.5,7 -0.789,0.283 -1.456,0.783 -2,1.5 -2.6905,1.1875 -1.6495,1.25 -5,2 -1.123,1.044 -2.456,1.71 -4,2 -4.519,0.175 -8.853,0.675 -13,1.5 h -1 c -0.438,0.065 -0.772,-0.101 -1,-0.5 1,-0.833 2,-1.667 3,-2.5 4.817,-0.667 9.483,-1.334 14,-2 4.253,-2.91 8.253,-6.244 12,-10 1.394,-2.082 1.061,-3.749 -1,-5 -0.057,-1.109 -0.39,-2.109 -1,-3 z" id="path1038" />
    </g>
  </g>
<path d="m 21.396861,426.99599 a 22.163991,22.163991 0 0 1 -2.181168,3.98932 15.791455,15.791455 0 0 1 -3.113734,3.46083 c -1.165708,0.94811 -2.383227,1.42477 -3.668094,1.42477 -0.813407,0 -1.678619,-0.23314 -2.5904628,-0.69943 a 29.774767,29.774767 0 0 1 -2.730348,-1.62682 27.717941,27.717941 0 0 0 -2.7666113,-1.63199 5.7611868,5.7611868 0 0 0 -2.6163663,-0.69422 c -1.84440892,0 -3.5592945,1.56982 -5.149838,4.71463 l -1.688981,-0.88077 c 0.56472,-1.25376 1.300412,-2.56456 2.2122541,-3.92195 a 15.905435,15.905435 0 0 1 3.08264978,-3.49195 c 1.16570742,-0.94811 2.38322472,-1.42473 3.66809352,-1.42473 0.9325671,0 1.8651333,0.23314 2.792516,0.69942 0.948109,0.46629 1.8703161,1.00508 2.7614336,1.62679 0.9118434,0.62171 1.7977814,1.16571 2.6474504,1.63199 0.854853,0.46628 1.67862,0.69426 2.476484,0.69426 0.870396,0 1.75115,-0.37808 2.642272,-1.13463 0.896297,-0.75642 1.74079,-1.9273 2.538651,-3.52304 z" style="font-style:normal;font-variant:normal;font-weight:400;font-stretch:normal;font-size:11.5px;line-height:0;font-family:'Gentium Book Plus';-inkscape-font-specification:'Gentium Book Plus';font-variant-ligatures:normal;font-variant-caps:normal;font-variant-numeric:normal;font-feature-settings:normal;text-align:start;writing-mode:lr-tb;text-anchor:start;fill:#000006;fill-opacity:1;stroke:none;stroke-width:0.777139;stroke-linecap:square;stroke-linejoin:bevel;stroke-miterlimit:4;stroke-dasharray:none;stroke-dashoffset:0;stroke-opacity:1;paint-order:markers stroke fill" id="path1" inkscape:label="nasal" />
</svg>