<?xml version="1.0" encoding="UTF-8" standalone="no"?>
<svg
   version="1.1"
   width="49.280033"
   height="59.529091"
   viewBox="19 193 49.280033 59.529091"
   id="svg1"
   xmlns="http://www.w3.org/2000/svg"
   xmlns:svg="http://www.w3.org/2000/svg">
  <defs
     id="defs1" />
  <g
     id="we"
     transform="translate(-594.66439,-578.5)">
    <g
       id="g1097"
       style="fill:#000000"
       transform="translate(22)">
      <path
         style="opacity:1;fill:#000000"
         fill="#1c1a26"
         d="m 603.5,771.5 c 4,0 8,0 12,0 6.737,1.89 13.737,3.056 21,3.5 5.571,1.281 5.905,2.448 1,3.5 -6.241,-1.507 -12.575,-2.174 -19,-2 -5.825,-2.342 -11.825,-2.508 -18,-0.5 -0.496,3.086 -1.496,5.919 -3,8.5 -1.335,4.574 -1.168,9.24 0.5,14 2.357,2.146 4.857,2.479 7.5,1 2.536,-4.318 4.869,-8.652 7,-13 0.951,1.419 1.284,3.085 1,5 -1.051,2.844 -1.051,5.844 0,9 2.357,0.163 4.69,-0.003 7,-0.5 1.8,-1.812 3.467,-3.645 5,-5.5 0,1 0,2 0,3 -0.233,1.562 -0.9,2.895 -2,4 -4.679,3.996 -9.346,3.996 -14,0 -2.522,1.262 -5.189,1.929 -8,2 -0.667,0 -1.333,0 -2,0 -0.473,-1.406 -1.473,-2.073 -3,-2 0.241,-2.398 -0.426,-4.398 -2,-6 -2.532,-7.476 -1.365,-14.476 3.5,-21 1.488,-1.66 3.321,-2.66 5.5,-3 z"
         id="path1097" />
    </g>
    <g
       id="g1129"
       style="fill:#000000"
       transform="translate(22)">
      <path
         style="opacity:1;fill:#000000"
         fill="#4d4a5a"
         d="m 627.5,815.5 c 0,-4.667 0,-9.333 0,-14 -1.333,0 -2.667,0 -4,0 1.1,-1.105 1.767,-2.438 2,-4 0.65,-0.304 1.317,-0.637 2,-1 1.317,6.488 1.317,12.822 0,19 z"
         id="path1129" />
    </g>
    <g
       id="g1145"
       style="fill:#000000"
       transform="translate(22)">
      <path
         style="opacity:1;fill:#000000"
         fill="#171328"
         d="m 631.5,790.5 c -0.993,8.484 -1.326,17.151 -1,26 -0.578,2.78 -1.245,5.447 -2,8 -0.951,-1.419 -1.284,-3.085 -1,-5 0,-1.333 0,-2.667 0,-4 1.317,-6.178 1.317,-12.512 0,-19 -0.683,0.363 -1.35,0.696 -2,1 0,-1 0,-2 0,-3 0.897,-3.465 2.564,-6.465 5,-9 0.952,1.545 1.285,3.212 1,5 z"
         id="path1145" />
    </g>
    <g
       id="g1183"
       style="fill:#000000"
       transform="translate(22)">
      <path
         style="opacity:1;fill:#000000"
         fill="#292232"
         d="m 627.5,819.5 c -0.284,1.915 0.049,3.581 1,5 -0.299,3.142 -1.966,5.309 -5,6.5 -5.046,0.16 -10.046,-0.34 -15,-1.5 -5.173,-1.598 -10.506,-3.098 -16,-4.5 -1.383,-1.461 -1.049,-2.294 1,-2.5 8.74,1.353 17.407,3.019 26,5 1.929,-0.04 3.762,-0.373 5.5,-1 0.698,-2.504 1.531,-4.837 2.5,-7 z"
         id="path1183" />
    </g>
  </g>
</svg>
