<?xml version="1.0" encoding="UTF-8" standalone="no"?>
<svg
   version="1.1"
   width="57"
   height="80.978325"
   viewBox="12 -83 57 80.978325"
   id="svg1"
   xmlns="http://www.w3.org/2000/svg"
   xmlns:svg="http://www.w3.org/2000/svg">
  <defs
     id="defs1" />
  <g
     id="po"
     transform="translate(-759.5,-480.60056)">
    <g
       id="g512"
       style="fill:#000000"
       transform="translate(42)">
      <path
         style="opacity:1;fill:#000000"
         fill="#32333a"
         d="m 755.5,428.5 c -6.179,0.667 -12.512,1.333 -19,2 1.791,0.67 3.458,1.337 5,2 -2.333,0 -4.667,0 -7,0 -1.419,-0.951 -3.085,-1.284 -5,-1 0,-0.667 0,-1.333 0,-2 8.633,-0.877 17.3,-1.211 26,-1 z"
         id="path512" />
    </g>
    <g
       id="g562"
       style="fill:#000000"
       transform="translate(42)">
      <path
         style="opacity:1;fill:#000000"
         fill="#221f2f"
         d="m 755.5,428.5 c 8,0 16,0 24,0 2.559,-0.302 4.893,0.032 7,1 -2.019,1.066 -4.019,2.232 -6,3.5 -4.989,0.499 -9.989,0.666 -15,0.5 -0.338,5.371 -1.005,10.704 -2,16 0.636,3.294 2.636,4.627 6,4 2.528,0.666 5.194,1.332 8,2 -3.607,0.989 -7.274,1.323 -11,1 -0.891,-0.61 -1.891,-0.943 -3,-1 -0.333,0 -0.667,0 -1,0 -1.565,-2.69 -2.231,-5.69 -2,-9 0.335,-4.672 0.668,-9.339 1,-14 -5.011,-0.166 -10.011,10e-4 -15,0.5 -0.923,2.041 -1.256,4.208 -1,6.5 -1.866,11.305 -2.199,22.638 -1,34 2.099,1.112 4.433,1.779 7,2 2.667,0 5.333,0 8,0 0,0.667 0,1.333 0,2 -3.228,0.914 -6.561,1.247 -10,1 -2.68,-0.785 -5.346,-1.785 -8,-3 0,-0.333 0,-0.667 0,-1 0.242,-14.086 0.242,-28.086 0,-42 -1.542,-0.663 -3.209,-1.33 -5,-2 6.488,-0.667 12.821,-1.333 19,-2 z"
         id="path562" />
    </g>
    <g
       id="g596"
       style="fill:#000000"
       transform="translate(42)">
      <path
         style="opacity:1;fill:#000000"
         fill="#46404d"
         d="m 769.5,453.5 c 3,0 6,0 9,0 0.039,1.083 0.373,2.083 1,3 -4.484,1.311 -8.817,1.311 -13,0 3.726,0.323 7.393,-0.011 11,-1 -2.806,-0.668 -5.472,-1.334 -8,-2 z"
         id="path596" />
    </g>
    <g
       id="g599"
       style="fill:#000000"
       transform="translate(42)">
      <path
         style="opacity:1;fill:#000000"
         fill="#5c5663"
         d="m 745.5,439.5 c 0,1.333 0,2.667 0,4 0,0.667 0,1.333 0,2 -0.629,9.32 -0.962,18.654 -1,28 -1.199,-11.362 -0.866,-22.695 1,-34 z"
         id="path599" />
    </g>
    <g
       id="g615"
       style="fill:#000000"
       transform="translate(42)">
      <path
         style="opacity:1;fill:#000000"
         fill="#44444e"
         d="m 744.5,473.5 c 2.728,-0.329 5.062,0.337 7,2 -2.567,-0.221 -4.901,-0.888 -7,-2 z"
         id="path615" />
    </g>
    <path
       style="clip-rule:evenodd;fill:#000000;fill-rule:evenodd;stroke-width:0.433148;image-rendering:optimizeQuality;shape-rendering:geometricPrecision;text-rendering:geometricPrecision"
       d="m 795.62476,422.64479 c -0.79766,-0.0846 -2.31674,-0.82969 -3.49872,-1.71607 -0.87941,-0.65948 -2.08697,-1.99817 -2.69156,-2.98384 l -0.22996,-0.37491 -0.004,-5.89861 c -0.004,-5.20115 0.005,-5.95182 0.0757,-6.34851 0.18357,-1.03177 0.36545,-1.54981 0.7108,-2.02453 1.20852,-1.66125 2.36719,-3.64996 3.06158,-5.25479 l 0.16482,-0.38094 0.30108,-0.0315 c 0.46852,-0.049 2.38467,-0.0367 3.16073,0.0203 0.8333,0.0612 1.68772,0.16476 2.47442,0.30001 1.08492,0.18652 0.98141,0.13428 1.56546,0.79002 2.19325,2.4625 3.95102,5.25537 5.20001,8.26213 l 0.28288,0.68099 v 4.43459 4.43458 l -0.24819,0.48311 c -0.51657,1.00552 -1.3123,2.10808 -2.08263,2.88569 -1.41901,1.43241 -3.18444,2.31527 -5.29239,2.64663 -0.58476,0.0919 -2.36557,0.13756 -2.94977,0.0756 z m 2.54986,-3.11734 c 1.06053,-0.34568 1.83852,-1.127 2.38551,-2.39577 0.21866,-0.50718 0.48798,-1.44671 0.58996,-2.05811 l 0.0662,-0.3969 0.38156,-0.37792 c 0.81372,-0.80597 1.29359,-1.78742 1.52269,-3.11429 0.12035,-0.69701 0.10325,-1.08431 -0.14955,-3.3872 l -0.2387,-2.17449 -0.45993,-0.69983 c -0.66665,-1.01437 -1.26314,-1.76376 -1.97321,-2.47905 -0.90683,-0.91348 -1.64051,-1.39449 -2.43818,-1.5985 -1.44568,-0.36974 -2.74312,0.35051 -3.96842,2.20299 -0.40859,0.61773 -1.08247,1.95759 -1.44564,2.87432 -0.14159,0.35742 -0.33362,0.80122 -0.42673,0.98622 -0.59747,1.18716 -0.8577,2.42581 -0.80443,3.82908 0.0304,0.80143 0.13026,1.30389 0.38596,1.94246 0.27465,0.6859 0.81111,1.3953 1.35967,1.79798 l 0.2394,0.17573 v 1.99426 1.99426 l 0.20884,0.10654 c 0.3569,0.18208 1.24483,0.52482 1.7157,0.66227 0.77278,0.22557 1.18717,0.2815 1.94955,0.26315 0.58888,-0.0142 0.76324,-0.0375 1.09974,-0.1472 z"
       id="path1747-4" />
  </g>
</svg>
